<?xml version="1.0" encoding="utf-8"?>
<!-- Generator: Adobe Illustrator 17.0.0, SVG Export Plug-In . SVG Version: 6.00 Build 0)  -->
<!DOCTYPE svg PUBLIC "-//W3C//DTD SVG 1.1//EN" "http://www.w3.org/Graphics/SVG/1.1/DTD/svg11.dtd">
<svg version="1.1" id="Layer_1" xmlns="http://www.w3.org/2000/svg" xmlns:xlink="http://www.w3.org/1999/xlink" x="0px" y="0px"
	 width="401px" height="382px" viewBox="0 0 401 382" enable-background="new 0 0 401 382" xml:space="preserve">
<g>
	<path d="M187.305,26.349c6.47-2.36,10.54-8.58,17.2-10.5c5.49-0.57,8.3,4.75,12.62,6.95c6.7,3.7,11.96,9.94,14.56,17.13
		c2.07,5.37,5.05,10.32,7.4,15.56c1.12,2.24,1.95,4.75,3.78,6.53c3.49,2.01,8.07,1.86,11.06,4.78c2.09,3.09,2.93,6.85,5.08,9.93
		c1.71,2.31,1.95,5.19,2.17,7.96c5.81,1.23,12.57,0.55,17.37,4.6c3.12,2.34,6.88,3.54,10.54,4.76c3.96,1.25,6.98,4.22,10.44,6.39
		c7.82,4.91,13.97,11.99,19.64,19.18c1.33,1.39,0.54,3.36,0.42,5.02c-8.25-5.1-17.46-8.19-26.13-12.44
		c-4.72-1.83-9.17-4.26-13.84-6.21c-5.94-2.06-12.57-0.23-18.45-2.67c-1.72-0.56-3.38-1.88-5.27-1.35
		c-3.47,8.25-5.64,16.99-7.87,25.63c-3.02,8.7-6.37,17.29-10.07,25.73c-3.02,6.65-2.4,14.24-5,21.02
		c-2.11,5.47-4.48,11.01-8.24,15.57c-4.62,4.39-9.69,8.31-14.96,11.9c-1.79,1.15-3.06,2.87-4.34,4.53c2.45,2.57,4.76,5.29,6.51,8.4
		c2.71,4.91,8.95,5.16,13.34,7.8c1.67,1,1.28,3.26,1.84,4.87c0.87,5.46,4.92,9.76,5.74,15.24c1.38,5.93,0.69,12.08,1.89,18.04
		c1.13,5.96,1.9,12.13,4.58,17.65c2.41,4.51,4.63,9.19,7.84,13.22c2.73,3.17,6.32,6.42,5.93,11.02c0.66,3.63-1.28,6.78-3.41,9.52
		c-2.45-1.95-4.88-3.94-7.51-5.63c-1.42,4.14-2.8,8.48-2.2,12.92c0.83,6.6,1.72,13.38,4.95,19.31c1.67,3.52,4.31,6.54,5.63,10.24
		c0.87,4.41,0.96,9.75-2.92,12.82c-5.94,4.48-13.68,2.81-20.56,3.69c-5.65,0.91-11.32-1.07-16.98,0c-5.72,1.22-11.46-0.27-17.21-0.3
		c-4.59-0.08-9.07-1.19-13.63-1.61c-0.68-2.37-1.64-4.66-2.1-7.08c0.19-3.06,1.29-5.97,1.72-9c0.14-2.54-0.13-5.08-0.24-7.62
		c0.87-0.68,1.73-1.35,2.6-2.02c6.68,4.8,14.8,6.55,22.26,9.7c3.44,1.45,7.53,2.28,10.98,0.39c4.96-2.27,10.11-6.85,9.51-12.82
		c0.45-6.64-2.43-12.94-2.17-19.56c0.04-3.66,0.4-8.11-3-10.5c-5.65-4.03-11.08-8.37-16.76-12.34
		c-7.75-4.31-13.27-11.53-20.73-16.23c-1.85,2.29-3.99,4.43-5.29,7.11c-1.1,5.01-0.06,10.15,0.52,15.16
		c0.25,1.67-0.53,3.27-1.39,4.64c-5.05,6.92-12.39,11.88-16.85,19.25c-3.74,6.2-8.24,12.29-9.67,19.52
		c-1.34,5.7,4.56,9.78,4.32,15.35c0.55,3.23-1.01,6.13-2.79,8.69c-10.37,0.12-20.63-1.83-31.01-1.31
		c-6.58,0.06-13.14,1.45-19.71,0.59c-5-0.68-9.94,0.76-14.94,0.72c-0.8-1.65-1.71-3.27-2.25-5.03c-0.05-6.21,2.6-13.04-0.7-18.82
		c-0.92-1.53-0.26-3.33-0.14-4.96c2.82,0.57,5.63,1.44,8.01,3.11c6.08,4.19,13.09,7.6,20.6,7.79c4.98,0.22,10.44,1.84,15.01-0.94
		c3.55-2.52,7.51-5.45,8.37-10.01c2.62-11.24,8.96-21.08,15.13-30.65c3.42-4.63,7.79-10.46,5.37-16.48
		c-3-9.32-5.31-18.91-6.07-28.69c-0.6-12.11,4.83-23.27,7.04-34.94c1.16-6.07,3.52-12.21,2.18-18.44c-0.78-4.4,0.35-8.78,1.16-13.08
		c0.88-4.19,0.58-8.48,0.54-12.72c-7.39-1.13-14.69-4.8-22.29-3.06c-2.8,0.76-5.76,1.46-8.13,3.2c-2.75,2.76-3.73,6.81-6.51,9.56
		c-3.39,0.88-4.88-5.27-8.31-3.68c-2.21,3.11-3.56,6.71-4.96,10.24c-5.11-1.55-7.85-6.32-11.38-9.93c-1.84-1.76-1.47-4.46-1.77-6.76
		c7.3-2.65,15.9-2.91,21.82-8.48c5.56-4.94,11.94-8.95,18.72-11.97c8.33-2.77,17.19-0.43,25.65,0.43c1.24-4.5,2.99-8.87,3.85-13.47
		c-2.47-5.72-6.74-10.53-11.12-14.89c-6.25,2.46-9.92,8.28-14.66,12.68c-1.56-0.84-3.12-1.65-4.7-2.44
		c-0.22,3.61,0.2,7.3-0.55,10.87c-3.44,3.39-8.59,2.25-12.76,1.27c-3.23-0.96-6.84-2.06-8.83-4.98c-0.65-1.36-0.67-3.26,0.49-4.37
		c3.83-3.89,9.14-6.17,12.33-10.73c1.69-2.18,2.82-5.01,5.38-6.35c4.11-2.18,8.4-4.14,11.98-7.19c4.94-3.5,9.74-7.83,15.89-8.93
		c1.83-0.65,3.37,0.87,4.86,1.7c6.39,3.91,9.49,11.19,15.32,15.74c3.76,3.09,8.01,6.39,13.11,6.47c4.57-1.12,7.21-5.45,10.04-8.86
		c2.97-4.19,6.74-8.03,8.07-13.15c-5.26-1.47-10.77-1.06-16.1-2.04c-6.25-1.08-12.69,4.01-18.57,0.08
		c-4.31-3.5-7.53-8.56-8.74-14.04c5.88-0.57,13.28,1.15,17.6-3.94c2.32-2.42,5.54-3.58,8.51-4.96c-1.53-3.37-2.03-7.03-2.17-10.69
		c-3.39,2.27-3.52,6.24-3.24,9.92c-4.67-1.53-9.3-3.2-14.08-4.35c0.02,1.61,0.05,3.22,0.09,4.83c1.89,0.52,3.78,1.06,5.68,1.57
		c0.59,0.15,1.75,0.43,2.34,0.58c0.08,0.64,0.25,1.92,0.34,2.56c-2.22-0.01-4.43,0-6.64-0.15c-4.21-1.1-6.11-5.23-5.92-9.29
		c-3.96-0.5-9.34-0.2-11.37-4.44c-1.47-2.48-1.84-5.56-0.25-8.08c1.84-3.73,4.81-8.11,9.51-7.91c5.54,0.16,11.13-0.57,16.64,0.37
		c4.36,0.74,8.89,0.48,13.15,1.85c4.88,1.7,10.67,1.36,14.82-1.94c4.13-3.04,9.44-2.6,14.23-3.49c-1.83-3.08-4.32-5.74-5.83-9.02
		c-3.23-6.78-8.91-11.85-13.47-17.69c-2.32-2.46-4.07-5.9-7.51-6.93c-3.45,0.72-6.72,2.11-10.05,3.25
		C188.575,29.669,187.915,28.019,187.305,26.349 M214.775,70.459c1.79,2.37,4.09,4.3,5.96,6.61c1.98,2.95,2.42,6.89,5.47,9.09
		c0.85-5.82-1.62-11.81-6.36-15.27C218.175,70.519,216.465,70.549,214.775,70.459 M207.975,72.209c-1.19,5.48,0.7,11.79,5.93,14.46
		c0.57,0.22,1.72,0.67,2.29,0.89c2.14,0.8,4.74,2.54,6.94,0.99c-0.88-2.85-2.19-5.55-3.35-8.29c-1.72,1.11-3.42,2.24-5.11,3.38
		c-0.74-1.3-1.65-2.55-2-4.02c0.72-1.68,1.79-3.18,2.75-4.73C212.985,73.889,210.485,73.019,207.975,72.209 M165.515,79.809
		c3.52,3.37,8.98,1.84,13.27,3.55c0.03-1.26,0.7-2.83-0.65-3.65C174.535,76.469,169.445,78.379,165.515,79.809 M202.305,77.049
		c-0.14,3.43-0.03,7.23,2.67,9.76c3.29,4.37,8.54,6.63,13.95,6.62c-1.87-2.42-4.56-3.89-7.13-5.43
		C207.485,85.479,205.565,80.609,202.305,77.049 M217.565,110.999c-0.08,0.68-0.24,2.05-0.32,2.73c8.73-0.08,17.28-5.33,21.23-13.12
		c-0.53-0.29-1.6-0.88-2.13-1.18C231.305,104.959,224.655,108.749,217.565,110.999 M234.225,127.419c0.53,0.28,1.6,0.82,2.14,1.1
		c3.73-0.95,6.59-3.96,8.41-7.23C240.935,122.039,235.375,123.139,234.225,127.419 M197.445,141.759c-1.37,2.79-1.12,5.82-0.2,8.69
		c0.78,0.04,2.34,0.12,3.12,0.16C199.805,147.539,199.145,144.429,197.445,141.759 M170.505,161.709c-0.37,0.46-1.11,1.4-1.48,1.87
		c7.58,1.8,15.26,3.13,22.87,4.79c-1.14-1.3-1.96-3.19-3.8-3.59C182.335,163.219,176.375,162.669,170.505,161.709 M220.005,172.199
		c-0.42,1.2-0.77,2.43-1.07,3.67c1.24-0.3,2.46-0.65,3.67-1.07c0.41-1.21,0.77-2.43,1.07-3.67
		C222.435,171.429,221.205,171.779,220.005,172.199 M166.415,186.049c0,0.82-0.01,2.46-0.01,3.28c4.5,2.57,8.75,7.09,14.34,6.49
		C176.905,191.429,172.145,187.579,166.415,186.049 M186.155,196.429c3.98,1.52,7.48-1.78,10.94-3.22c0.06-0.76,0.17-2.27,0.23-3.02
		C193.265,191.069,187.515,191.769,186.155,196.429 M217.985,232.479c-0.91,2.66-1.46,5.43-1.54,8.24
		c-1.06,11.05-1.56,22.55,2.23,33.18c2.95,7.58,9.04,13.32,15.08,18.52c0.33-3.63-0.72-7.16-1.32-10.7
		c-1.27-6.95-1.33-14.05-2.18-21.05c-1.99-8.39-3.85-16.89-7.06-24.91C222.445,233.509,219.955,233.059,217.985,232.479
		 M158.335,242.409c4.99,9.96,8.37,21.92,18.28,28.24c-2.1-5.98-6.44-10.77-8.91-16.56c-1.92-4.38-4.09-8.65-6.53-12.76
		C160.225,241.689,159.275,242.039,158.335,242.409 M207.475,251.809c-2.98,9.19-1.92,21.6,6.97,27.18
		c-0.98-5.25-4.04-9.94-4.28-15.34C209.895,259.589,210.055,255.229,207.475,251.809z"/>
	<path fill="#7F7F7A" d="M214.775,70.459c1.69,0.09,3.4,0.06,5.07,0.43c4.74,3.46,7.21,9.45,6.36,15.27
		c-3.05-2.2-3.49-6.14-5.47-9.09C218.865,74.759,216.565,72.829,214.775,70.459z"/>
	<path fill="#7F7F7A" d="M165.515,79.809c3.93-1.43,9.02-3.34,12.62-0.1c1.35,0.82,0.68,2.39,0.65,3.65
		C174.495,81.649,169.035,83.179,165.515,79.809z"/>
	<path fill="#7F7F7A" d="M202.305,77.049c3.26,3.56,5.18,8.43,9.49,10.95c2.57,1.54,5.26,3.01,7.13,5.43
		c-5.41,0.01-10.66-2.25-13.95-6.62C202.275,84.279,202.165,80.479,202.305,77.049z"/>
	<path fill="#7F7F7A" d="M187.585,89.579c-0.28-3.68-0.15-7.65,3.24-9.92c0.14,3.66,0.64,7.32,2.17,10.69
		c-2.97,1.38-6.19,2.54-8.51,4.96c-4.32,5.09-11.72,3.37-17.6,3.94c4.94-1.51,10.1-1.63,15.2-2.06c-1.81-1.82-4.37-2.15-6.77-2.57
		c2.21,0.15,4.42,0.14,6.64,0.15c-0.09-0.64-0.26-1.92-0.34-2.56c1.92-0.21,3.83-0.53,5.75-0.83c-3.5-1.35-6.79-3.2-10.34-4.36
		c-1.08-0.41-1.97,0.64-2.92,0.98c1.62,1.34,3.32,2.61,5.17,3.63c-1.9-0.51-3.79-1.05-5.68-1.57c-0.04-1.61-0.07-3.22-0.09-4.83
		C178.285,86.379,182.915,88.049,187.585,89.579z"/>
	<path fill="#7F7F7A" d="M217.565,110.999c7.09-2.25,13.74-6.04,18.78-11.57c0.53,0.3,1.6,0.89,2.13,1.18
		c-3.95,7.79-12.5,13.04-21.23,13.12C217.325,113.049,217.485,111.679,217.565,110.999z"/>
	<path fill="#7F7F7A" d="M234.225,127.419c1.15-4.28,6.71-5.38,10.55-6.13c-1.82,3.27-4.68,6.28-8.41,7.23
		C235.825,128.239,234.755,127.699,234.225,127.419z"/>
	<path fill="#7F7F7A" d="M197.445,141.759c1.7,2.67,2.36,5.78,2.92,8.85c-0.78-0.04-2.34-0.12-3.12-0.16
		C196.325,147.579,196.075,144.549,197.445,141.759z"/>
	<path fill="#7F7F7A" d="M170.505,161.709c5.87,0.96,11.83,1.51,17.59,3.07c1.84,0.4,2.66,2.29,3.8,3.59
		c-7.61-1.66-15.29-2.99-22.87-4.79C169.395,163.109,170.135,162.169,170.505,161.709z"/>
	<path fill="#7F7F7A" d="M220.005,172.199c1.2-0.42,2.43-0.77,3.67-1.07c-0.3,1.24-0.66,2.46-1.07,3.67
		c-1.21,0.42-2.43,0.77-3.67,1.07C219.235,174.629,219.585,173.399,220.005,172.199z"/>
	<path fill="#7F7F7A" d="M166.415,186.049c5.73,1.53,10.49,5.38,14.33,9.77c-5.59,0.6-9.84-3.92-14.34-6.49
		C166.405,188.509,166.415,186.869,166.415,186.049z"/>
	<path fill="#7F7F7A" d="M186.155,196.429c1.36-4.66,7.11-5.36,11.17-6.24c-0.06,0.75-0.17,2.26-0.23,3.02
		C193.635,194.649,190.135,197.949,186.155,196.429z"/>
	<path fill="#7F7F7A" d="M158.335,242.409c0.94-0.37,1.89-0.72,2.84-1.08c2.44,4.11,4.61,8.38,6.53,12.76
		c2.47,5.79,6.81,10.58,8.91,16.56C166.705,264.329,163.325,252.369,158.335,242.409z"/>
	<path fill="#7F7F7A" d="M207.475,251.809c2.58,3.42,2.42,7.78,2.69,11.84c0.24,5.4,3.3,10.09,4.28,15.34
		C205.555,273.409,204.495,260.999,207.475,251.809z"/>
</g>
</svg>
