<?xml version="1.0" encoding="utf-8"?>
<!-- Generator: Adobe Illustrator 17.0.0, SVG Export Plug-In . SVG Version: 6.00 Build 0)  -->
<!DOCTYPE svg PUBLIC "-//W3C//DTD SVG 1.1//EN" "http://www.w3.org/Graphics/SVG/1.1/DTD/svg11.dtd">
<svg version="1.1" id="Layer_1" xmlns="http://www.w3.org/2000/svg" xmlns:xlink="http://www.w3.org/1999/xlink" x="0px" y="0px"
	 width="401px" height="382px" viewBox="0 0 401 382" enable-background="new 0 0 401 382" xml:space="preserve">
<g>
	<path fill="#010102" d="M156.39,8.49c3.25-0.97,6.95-1.68,10.13-0.09c3.66,1.72,7.68,3.57,9.54,7.4
		c2.21,4.88,1.47,10.18,0.82,15.29c-1.41-5.7-1.12-12.66-6.27-16.59c-0.45,1.1-0.89,2.19-1.33,3.29c-1.58,3.96-2.94,8.03-3.69,12.23
		c-0.23-1.4-0.46-2.8-0.71-4.2c-0.85,1.51-1.69,3.03-2.53,4.54c-0.9-3.08-1.47-6.25-1.64-9.46c0.31-2.15,0.5-4.33,0.6-6.51
		c-5.14,4.84-7.26,12.02-7.71,18.88c0,1.15,0.02,2.31,0.06,3.46c-3.87,3.16-8.75,4.31-13.6,4.86c-0.09,1.8-0.18,3.59-0.25,5.39
		c7.1-1.14,14.07-3.33,21.31-3.48c6.68-0.15,13.37,0.01,20.04-0.54c-1.19-2.03-1.77-5.14-4.56-5.48
		c-6.78-1.45-13.82,0.48-20.59-1.15c0.57-0.82,1.14-1.65,1.71-2.48c1.96,0.22,3.92,0.45,5.89,0.6c0.66,0.03,1.98,0.08,2.64,0.11
		c1.86,0.04,3.72,0.06,5.59,0.17c2,0.15,3.99,0.37,5.99,0.54c2.47,0.16,4.93,0.39,7.37,0.79c-0.06-0.24-0.18-0.71-0.25-0.95
		c1.31,4.04,2.32,8.18,3.75,12.19c0.25,2.11,0.2,4.25,0.2,6.38c2.5,1.44,4.97,2.93,7.37,4.53c-1.26,0.17-2.52,0.34-3.78,0.5
		c-0.21,4.24-1.31,8.35-1.97,12.52c-0.35,1.95,1.21,3.47,2.04,5.08c-2.3,0.5-4.6,1.04-6.89,1.61c1.59,2.09,3.19,4.17,4.79,6.25
		c-2.19-0.4-4.39-0.79-6.59-1.16c0.18,2.14,0.44,4.28,0.39,6.44c-0.08,3.87-3.08,7.23-2.38,11.19c0.47,2.74,0.98,5.64,2.62,7.95
		c3.17,2.4,8.12,2.94,9.3,7.34c-2.22-1.42-4.23-3.12-6.42-4.57c-2.06-1.7-4.81,0.65-5.49,2.7c0.79,2.33,2.85,3.92,4.44,5.73
		c-0.61,1.01-1.22,2.03-1.83,3.05c1.93,3.36,3.81,6.76,5.64,10.18c-1.21,1.69-2.42,3.39-3.6,5.1c2.95,0.98,6.07,0.89,9.11,0.42
		c0.44,0.68,0.89,1.37,1.34,2.05c-1.35,0.81-2.69,1.63-4.02,2.46c1.72,1.66,4.02,3.06,4.69,5.51c0.98,3.2,1.39,6.53,1.9,9.83
		l-0.8-0.21c-2.4-0.78-4.96-0.66-7.3,0.27c-6.05,2.18-12.35,3.51-18.43,5.59c1.34,1.51,2.18,3.93,4.4,4.33
		c3.19,0.74,6.48,0.98,9.72,1.49c-2.9,2.45-6.45,3.87-10.04,4.97c-2.87-3.56-4.84-7.69-6.31-11.99c-2.69-5.34-5.69-11.1-11.07-14.19
		c0.1,4.58,2.16,8.71,5.18,12.05c-1.26,1.45-2.49,2.92-3.71,4.41c-0.96,1.12-1.85,2.31-2.96,3.3c-2.71,1.2-5.04-1.39-6.72-3.17
		c2.27-0.13,4.6-0.09,6.8-0.75c1.3-0.9,2.22-2.21,3.26-3.36c-1.53-0.92-3.07-1.84-4.6-2.75c-2.07,1.22-4.14,2.44-6.19,3.69
		c-1.02-0.58-2.03-1.15-3.02-1.75c-2.96-3.29-5.72-6.75-8.37-10.3c4.47,0.46,9.06-0.1,12.67-3c0.02-0.81,0.06-2.43,0.08-3.24
		c-4.18-2.03-8.62-0.44-12.73,0.87c-0.5,1.08-1,2.16-1.51,3.25c-3-5.6-4.83-11.71-7.47-17.47c0.69-5.19,0.61-10.47-0.64-15.57
		c2.11-0.18,4.23-0.38,6.35-0.48c5.19,0.1,10.44-0.03,15.37-1.84c0.37-6.75-1.44-13.36-1.11-20.11c0.56,0.16,1.67,0.49,2.23,0.66
		c0.24,6.08,2.58,12.1,1.32,18.2c-0.29,1.59-0.67,3.15-1.03,4.72c5.27,3.5,14.4,1.11,15.69-5.54c1.37-4.18,0.62-8.6-0.06-12.83
		c-2.62-0.77-5.29-1.43-7.77-2.6c-2.34-1.12-3.58-3.54-5.05-5.55c4.9,0.73,9.56,2.59,13.49,5.65c1.15-5.07,2.35-10.35,1.21-15.54
		c-0.97-4.48-2.06-9.02-1.43-13.64c4.43,6.75,3.66,15.04,5.6,22.55c4.66-2.67,5.06-8.39,6.19-13.08c3.31-2.18,6.87-4.73,7.95-8.78
		c1.08-3.56-1.12-6.92-2.16-10.21c-1.2-3.01-0.73-6.3-0.64-9.44c-9.14-3.35-18.86-1.16-28.3-1.18c-6.92,0.3-13.8,1.95-19.91,5.25
		c1.65,0.79,3.27,2.49,5.27,1.86c4.58-1.26,9.05-3.07,13.87-3.3c1.28,1.89,1.3,5.72,3.91,6.06c1.56-1.02,2.89-2.36,4.33-3.54
		c-0.24,1.44-0.54,2.89-0.46,4.35c1.17,2.36,3.14,4.18,4.81,6.18c-0.15,0.7-0.28,1.4-0.41,2.1c-2.15-2.06-4.55-3.82-6.99-5.52
		c-3.78,2.48-7.06,5.68-11.04,7.85c-3.17,1.79-6.39-0.91-9.26-2.07c-2.15,2.93-4.56,5.79-5.79,9.26c-0.99,2.05,0.46,4.08,1.06,6.01
		c3.05-2.7,6.45-5.12,10.42-6.23c1.2-0.25,2.66-1.09,3.75-0.09c2.35,1.76,4.25,4.04,6.62,5.78c1.36,0.61,2.78,1.08,4.09,1.82
		c1.02,1.98,0.59,4.35,0.71,6.51c-2.03-1.71-4-3.46-5.97-5.23c-1.64,3-3.5,5.98-6.34,7.99c-0.38-1.81-0.81-3.6-1.24-5.4
		c-5.57,0.74-10.22-3.23-14.45-6.25c-1.91-4.72,2.13-8.96,3.02-13.43c0.52-5.61-0.28-11.23-1.02-16.79
		c-0.99-5.83,3-10.71,4.29-16.13C143.46,23.51,147.89,13.82,156.39,8.49 M149.07,21.97c-2.51,5.04-4.67,10.59-4.22,16.33
		c2.49-1.29,4.82-2.85,7.07-4.51c-0.65-1.85-1.29-3.71-1.91-5.58c1.89-2.83,3.09-6.06,2.96-9.51
		C151.52,19.57,149.78,20.3,149.07,21.97 M149.92,59.81c0.45,1.02,0.9,2.04,1.35,3.07c0.68,0.06,2.05,0.18,2.73,0.24
		c0-0.77-0.01-2.33-0.02-3.1C152.63,59.95,151.27,59.88,149.92,59.81 M141.54,78.23c0.93,1.6,1.1,4.6,3.47,4.66
		c3.33-0.03,6.98,0.54,10.06-1.02c0.37-2.78-3.19-3.23-5.01-4.43C147.5,79.28,144.42,78.96,141.54,78.23 M178.15,88.12
		c-2.2,3.47-4.04,7.14-5.43,11.01c1.92,0.38,4.67,1.89,6.03-0.34c2.17-3.15,2.18-7.15,2.44-10.82
		C180.43,88.01,178.91,88.09,178.15,88.12 M173.52,107.46c-1.32,4.23-0.47,8.73,0.57,12.93c1.43-0.58,3.44-0.53,4.13-2.18
		c1.78-3.69,2.7-7.86,2.49-11.95c-0.09-1.59-1.63-2.51-2.53-3.66C176.56,104.13,174.55,105.42,173.52,107.46 M132.94,117.99
		c1.01,1.65,1.68,3.7,3.37,4.81c2.44,0.63,4.97,0.05,7.43-0.14c-0.19-2.26-0.36-4.52-0.53-6.78
		C139.64,115.68,136,115.96,132.94,117.99 M146.68,117.01c0.87,3.02,2.14,5.9,3.66,8.65c2.49,4.38,2.61,9.54,3.64,14.36
		c0.8,0.03,2.41,0.1,3.22,0.13c1.17-3.25-0.01-6.6-0.45-9.86c-0.44-5.01-4.09-8.8-6.04-13.25
		C149.37,117.03,148.02,117.02,146.68,117.01 M161.58,119.63c1.85,2.27,4.84,2.75,7.49,3.55c0.51-1.97,0.77-3.99,0.52-6.01
		C166.92,117.99,164.25,118.8,161.58,119.63 M139.27,126.53c-1.83,0.16-4.05-0.04-5.23,1.71c-0.33,1.68,0.48,3.94,2.35,4.23
		c2.91,0.38,5.97,0.44,8.81-0.39c2.51-1.29,3.21-4.52,2.15-7.01C144.71,125.86,142.02,126.46,139.27,126.53 M172.38,131.36
		c-2.1,1.35-3.55,4.81-1.08,6.53c3.6,0.07,7-1.32,10.47-2.09c-0.11,2.52-0.61,5.08-0.07,7.57c0.67,2.48,3.15,3.64,5.14,4.91
		c0.27-3.13,0.29-6.35-0.83-9.33c-1.4-3.91-2.26-8.1-4.46-11.68C177.92,125.92,174.99,129.37,172.38,131.36 M135.5,137.14
		c1.04,5.65,7.93,4.05,11.48,1.89c1.87-0.76,4.63-3.35,1.81-4.82C144.23,134.42,139.83,135.8,135.5,137.14 M160.05,136.87
		c0.67,1.88,1.36,3.76,2.06,5.64c-2.26-0.18-4.78-0.64-6.58,1.12c4.18,2.61,8.86,4.58,13.88,4.48c-1.32-4.2-4.95-6.99-6.98-10.8
		C161.83,137.2,160.65,136.98,160.05,136.87 M171.16,149.25c-0.5,2.36-0.13,4.79,0,7.18c3.76-2.61,5.04-7.15,5.05-11.52
		C174.46,146.23,172.21,147.22,171.16,149.25 M145.78,154.23c1.31,1.71,2.49,4.39,5.14,3.75c3.42-0.09,5.41-3.07,6.35-6
		C153.25,150.89,149.4,152.66,145.78,154.23 M177.77,150.76c0.36,1.73-0.24,4.06,1.56,5.15c2.35,0.72,4.68-0.18,6.3-1.94
		C183.49,151.91,180.63,151.14,177.77,150.76z"/>
	<path fill="#010102" d="M171.42,32.77c-1.17-3.56-1.19-7.31-0.86-11.01C171.81,25.3,171.67,29.08,171.42,32.77z"/>
	<path fill="#010102" d="M193.44,48.71c2.84,0.63,5.9,0.87,8.38,2.55c2.32,1.62,4.06,3.92,5.7,6.19c2.63,3.7,2.96,8.38,4.64,12.49
		c1.61,0.93,3.49,1.25,5.32,1.47c0.89,0.12,1.79,0.25,2.69,0.38c-1.01,1.8-2.21,3.54-2.78,5.55c-1.47,14.5,5.66,29.42,17.93,37.34
		c-1.9,1.77-3.78,3.54-5.64,5.34c5.61,4.16,12.37,0.48,17.19-3.08c-1.28-3.67-2.59-7.58-1.48-11.48l0.3-1.08
		c1.62,1.89,3.34,3.96,3.32,6.61c0.29,5.84,0.8,11.69,2.82,17.22c-2.18-1.43-4.27-3.18-6.84-3.85c-3.29-0.09-6.43,1.16-9.57,1.98
		c-1.98-2.77-5.18-2.85-8.21-2.13c-1.19-1.37-2.37-2.74-3.55-4.11c-1.12,0.35-2.24,0.7-3.36,1.06c0.18,2.85-0.34,5.97,0.96,8.62
		c4.16,4.97,11.25,4.33,16.84,6.5c1.23-0.52,2.46-1.05,3.7-1.58c0.83,0.87,1.67,1.74,2.51,2.62c2.66-0.91,5.34-1.73,8.07-2.4
		c0.89-0.22,1.78-0.43,2.68-0.64c0.08,1.18,0.17,2.37,0.25,3.56c-0.3,0.3-0.91,0.89-1.21,1.19c-2.63,1.31-5.39,2.34-8.14,3.34
		c0.09,3.25-0.5,6.74,0.92,9.78c1.3,1.36,3.34,1.63,5.02,2.37c-0.37-2.95-0.83-5.9-1.08-8.87c2.1,3.32,3.98,6.89,4.08,10.91
		c-3.49,0.12-6.99-0.04-10.48-0.24c-4.73-0.37-9.32,1.1-13.91,2c-0.01,0.53-0.04,1.59-0.06,2.12c-1.11-0.71-2.22-1.41-3.35-2.09
		c-3.45-1.86-6.92-4.1-10.85-4.66c-1.34,0.65-2.53,1.55-3.76,2.39c-0.3,0.01-0.6,0.03-0.9,0.06c0.62-4.88-0.72-9.65-2.17-14.25
		c-1.22-0.44-2.44-0.88-3.65-1.32c0.38-1.72,0.75-3.45,1.12-5.17c-1.98-0.92-3.96-1.83-5.93-2.74c1.05-1.58,2.19-3.11,3.03-4.82
		c-0.42-1.88-2.59-2.36-3.91-3.45c-1.77-0.96-2.84-2.69-3.92-4.31c1.76,0.17,3.52,0.36,5.29,0.56c0.13-0.51,0.41-1.53,0.54-2.04
		c-1.36-0.47-2.72-0.93-4.08-1.39c1.47-2.14,4.19-4.08,3.66-6.97c-0.54-4.14-1.46-8.22-1.94-12.36c-2.31,1.03-4.64,2.04-7,2.96
		c2.59-3.38,6-5.95,9.45-8.37c-0.87-1.18-1.73-2.36-2.59-3.54c3.21-4.2,5.54-8.99,6.78-14.13c0.84-3.61,3.7-7.25,2.1-11.02
		c-2.69-6.5-8.87-10.8-15.41-12.86C193.12,50.19,193.27,49.45,193.44,48.71 M209.37,82.12c-1.24,3.93-2.81,7.72-4.75,11.36
		c-1.84,5.49-0.51,11.51,1.64,16.73c2.16-0.29,4.25-0.91,6.16-1.97c-1.38-7.6-0.65-15.38-0.57-23.06
		C211.61,83.84,211.26,81.55,209.37,82.12 M204.35,114.02c1.47,1.77,3.64,2.25,5.85,2.08c-1.71,1.36-3.26,3.08-4.03,5.17
		c-0.91,3.01,0.71,5.95,1.86,8.66c1.7,3.52,2.78,7.29,4.33,10.87c0.32-0.05,0.97-0.16,1.29-0.22c1.66-3.39,2.87-7.34,1.7-11.08
		c-1.14-3.69-0.98-7.57-0.41-11.35c-1.01-0.7-2-1.42-3.06-2.01l0.91,0.02c-0.05-0.74-0.15-2.23-0.2-2.97
		C209.8,112.79,206.97,112.9,204.35,114.02 M214.56,144.5c-1.07,2.08,0.1,4.3,0.59,6.36c1.2,0.04,2.41,0.09,3.62,0.14
		c1.06-5.08,2.34-10.11,4.02-15.03c-0.45-0.27-1.33-0.81-1.77-1.08C218.69,137.96,216.08,140.92,214.56,144.5 M224.51,138.54
		c-2,4.11-2.05,8.81-2.51,13.27c1.94,1.6,4.14,3.21,6.8,2.45c-1.92-5.3-0.83-10.9,0.09-16.27
		C227.43,137.74,225.5,136.91,224.51,138.54 M231.42,140.42c-0.95,3.71-1.61,7.82-0.4,11.55c1.01,2.83,4.17,3.05,6.73,3.24
		c-1.66-4.25-1.65-8.8-1-13.25C237.97,138.74,232.02,137.43,231.42,140.42 M240.06,140.06c-0.83,3.6-1.27,7.35-0.09,10.94
		c0.71,0,2.14,0,2.85,0.01c0.45-3.64,0.71-7.31,0.31-10.96C242.36,140.05,240.83,140.06,240.06,140.06z"/>
	<path fill="#010102" d="M167.49,50.86c1.75-0.65,3.54-1.2,5.32-1.77c3.05,3.38,6.33,6.96,7.23,11.58c0.7,4.01-0.05,8.1,0.2,12.14
		c-1.62,0.42-3.23,0.85-4.84,1.27c1.98-4.97,4.54-10.83,1.52-15.93C175.21,54.24,171.24,52.3,167.49,50.86z"/>
	<path fill="#010102" d="M163.42,62.51c0.42,4.13-0.28,8.26-0.37,12.39c0.12,1.9-1.85,2.79-3.15,3.74
		C159.49,73.03,159.48,66.99,163.42,62.51z"/>
	<path fill="#010102" d="M192.7,126.26c1.26,0.71,2.51,1.44,3.76,2.16c0.08,0.7,0.23,2.09,0.3,2.78
		C194.66,130.26,193.47,128.35,192.7,126.26z"/>
	<path fill="#010102" d="M199.92,166.82c6.15-1.02,12.5-0.56,18.56,0.8c3.22,0.55,5.07,3.47,6.48,6.14c0.34,0.87,0.67,1.75,1,2.64
		c-3.84,3.48-7.41,7.75-8.39,12.98c-0.56,4.78,0.49,9.58,0.1,14.38c-0.42,4.98-0.77,9.97-0.44,14.97c4.14,0.38,8.3,0.42,12.45,0.15
		c1.75-4.08,3.53-8.32,3.42-12.84c-0.04-6.86-2.13-13.47-3.06-20.22c1.04,0.81,2.11,1.57,3.19,2.34c1.65,5.89,4.18,11.62,4.46,17.81
		c0.58,5.92,0.72,11.9,1.97,17.73c1.59,7.22,0.37,14.65,1.32,21.94c0.63,3.95-0.05,8.44,2.63,11.77c3.08,3.97,4.45,9.22,3.85,14.18
		c-1.74,3.53-5.69,6.12-5.67,10.38c0.34,6.02,1.9,11.93,1.77,17.98c-0.21,11.87,1.25,24.22-3.25,35.52
		c-1.4,3.79-4.13,6.88-5.71,10.57c0.9,6.41,4.98,11.87,6.19,18.2c0.67,3.15-3.44,5.77-6.09,4.05c-3.9-2.76-6.58-6.86-10.12-10.03
		c0.1,3.09,0.87,6.14,0.81,9.24c-0.76,2.09-2.89,3.25-4.44,4.71c-3.68-0.47-7.27-1.33-10.87-2.11c-3.38,0.63-6.53,2.33-10.02,2.4
		c-5.87,0.27-11.76-0.36-17.63,0.12c-7.34-4.07-16.21-0.69-23.76-4.14c-2.89-3.22-4.58-7.84-4.27-12.17
		c1.9-3.94,6.01-6.7,10.34-7.22c-1.02,2.64-2.52,5.11-3.09,7.9c0.02,2.62,4.1,3.34,5.63,1.48c3.86-3.71,7.05-8.05,10.5-12.13
		c-6-3-12.16-6.3-16.37-11.67c-2.12-3.72-2.02-8.23-1.78-12.38c0.78-7.11,0.88-14.32,2.64-21.29c1.72-6.45,0.75-13.21,2.22-19.7
		c1.02-5.37,1.72-10.81,2.04-16.27c0.91-10.16,2.89-20.39,1.44-30.59c-0.66-4.98-0.47-10.23-2.7-14.86
		c-1.09-2.58-2.79-5.12-2.53-8.04c0.19-4.04,1.25-8.65,4.86-10.99c4.35-1.31,7.73,2.72,11.45,4.24c0.36-3.98,0.22-8.15,1.97-11.85
		c0.77-2.23,2.27-4.36,2.24-6.77c-1.48-3.8-3.88-7.16-5.74-10.78c1.9,1.41,3.85,2.76,5.75,4.18
		C189.89,176.71,193.33,169.7,199.92,166.82 M203.32,169.75c-0.69,0.78-1.37,1.56-2.06,2.34c1.89,3.34,2.83,7.08,3.11,10.89
		c0.64-0.03,1.91-0.09,2.55-0.13C208.5,178.31,207.54,172.53,203.32,169.75 M186.16,187.6c-3.39,5.91-2.59,12.83-2.9,19.35
		c-0.04,5.05-0.91,10.23,0.62,15.15c0.81-0.02,2.44-0.06,3.25-0.08c2.1-4.25,1.07-9.03,1.41-13.55c0.22-5.72,1.47-11.44,0.77-17.16
		C189.27,189.42,187.45,188.58,186.16,187.6 M191.99,189.97c-0.9,2.9-0.66,5.99-0.76,8.99c0.04,6.71-0.55,13.4-1.29,20.06
		c0.76,0.01,2.28,0.02,3.04,0.02c1.13-2.25,2.59-4.52,2.48-7.15c-0.34-7.94,2.35-16.12-0.71-23.82
		C193.5,188.03,192.37,188.76,191.99,189.97 M198.08,195.71c1.71,1.68,3.42,3.38,5.11,5.09c-1.72,1.76-4.75,3.23-4.32,6.14
		c0.11,3.83,4.49,4.93,7.12,6.78c-2.59,0.26-6.18-1.1-7.87,1.59c-0.72,2.71,2.17,4.69,2.28,7.32c0.07,2.82-0.08,5.64,0.05,8.45
		c-1.28,1.56-2.58,3.11-3.85,4.68c1.69,0.55,3.4,1.11,5.1,1.65c-2.15,1.8-4.22,3.7-6.21,5.69c2.79,3.84,7.77,3.05,11.92,3.34
		c-1.29,4.31-6.06,1.85-9.19,1.92c-1.79,0.65-0.99,2.67-0.82,4.07c0.22,2.26,2.27,3.48,3.81,4.84c-1.41,1.24-3.25,2.18-4.15,3.89
		c0.46,2,2.09,3.48,3.23,5.13c-0.28,1.43-0.56,2.85-0.84,4.28c2.08,1.35,3.94,3.01,5.4,5.03c1.57-0.73,3.13-1.47,4.71-2.2
		c1.36,0.93,2.62,2.12,4.24,2.6c1.07-0.81,2.05-1.74,3.05-2.63c0.87,1.66,1.74,3.32,2.62,4.99c0.97-1.38,1.96-2.75,2.99-4.08
		c2.45-0.26,4.9-0.63,7.32-1.07c0.6,1.19,1.19,2.37,1.79,3.57c0.5,0.02,1.5,0.08,2,0.11c0.69-1.54,1.38-3.08,2.07-4.62
		c1.13,0.91,2.24,1.86,3.48,2.66c2.28-0.56,4.26-1.91,6.31-3c-0.11-1.27-0.2-2.53-0.3-3.79c-1.4,0.07-2.8,0.14-4.19,0.21
		c-0.1-1.28-0.2-2.55-0.3-3.82c1.33,0.05,2.66,0.11,3.99,0.17c-1.15-2.45-2.41-4.85-3.77-7.19c-1.02,0.64-2.09,1.23-3.01,2.01
		c-0.28,1.53-0.24,3.08-0.31,4.63c-3.61-0.51-7.64-1.92-10.76,0.74c-3.96-0.34-7.93-0.51-11.86-1.05c-1.44-0.2-3.18-0.52-3.74-2.07
		c0.23-3.3,1.62-6.52,1.03-9.85c-0.39-3.09-2.01-5.81-3.64-8.4c0.82-1.82,1.76-3.61,2.28-5.55c-0.53-1.79-1.61-3.35-2.55-4.95
		c1.83-0.83,3.47-1.99,4.85-3.45c-2.64-0.89-5.29-1.75-7.9-2.71c2.28-1.53,4.72-2.8,7.29-3.78c0.76-3.68-0.81-7.01-3.6-9.39
		c1.68-1.06,3.37-2.12,5.08-3.15c-0.17-1.64,0.28-3.47-0.57-4.96c-0.93-0.71-1.95-1.3-2.94-1.91c2.62-3.04,5.06-7.01,4.18-11.18
		c-1.53-1.87-3.43-3.64-5.76-4.4C204.58,189.17,200.01,191.43,198.08,195.71 M165.95,206.07c-1.4,3.17-0.68,6.69-0.05,9.95
		c0.76,0.02,2.28,0.06,3.04,0.08c0.94-2.76,1.92-5.5,2.89-8.25c-0.21,6.12,1.18,14.55,8.07,16.4c1.35-1.36-0.33-2.89-0.74-4.29
		c-2.63-5.11-0.96-12.27-6.21-15.94C170.84,201.47,166.98,203.49,165.95,206.07 M168.76,218.73c0.06,5.17,3.55,10.02,1.62,15.19
		c3.12-0.7,6.06-1.99,8.53-4.06c2.46-2.08,6.1-0.57,8.73-2.23c1.1-1.01,1.9-2.3,2.78-3.5c-5.47-1.01-10.76,0.78-15.33,3.7
		c-0.73-2.48-1.02-5.19-2.49-7.37C171.38,219.75,170.05,219.27,168.76,218.73 M216.51,223.84c4.77,2.63,12.17,4.25,15.93-0.8
		c-3.79-0.8-7.63-1.61-11.52-1.6C219.07,221.24,217.86,222.88,216.51,223.84 M191.18,226.24c-2.47,1.36-0.47,4.7-0.03,6.77
		c3.96,0.36,2.62-4.93,2.93-7.37C193.36,225.79,191.91,226.09,191.18,226.24 M218.03,227.89c-1.29,5.81-3.41,11.84-1.92,17.82
		c0.81,3.89,1.07,7.86,1.29,11.82c3.23,0.66,6.59,1.76,9.87,0.81c3.51-0.98,7.64-2.47,8.79-6.33c-1.45-1.99-3.68-3.24-5.09-5.25
		c-0.24-1.74-0.09-3.51-0.03-5.25c1.78-0.57,3.57-1.14,5.36-1.72c0.17-3.99-1.67-7.91-4.96-10.19
		C227.04,228.28,222.46,228.46,218.03,227.89 M177.41,236.07c1.43,1.31,3,2.46,4.7,3.38c-0.01-2.34-0.36-4.65-1-6.9
		C179.87,233.71,178.64,234.89,177.41,236.07 M184.18,238.51c-0.05,1.37-0.14,2.75-0.04,4.13c0.73,1.61,2.65,1.97,4.05,2.78
		c-0.33-2.48-0.76-4.93-1.24-7.37C186.26,238.16,184.87,238.39,184.18,238.51 M171.28,240.65c-0.71,6.98-0.76,14.02-1.73,20.98
		c-0.63,4.42-0.68,8.9-0.7,13.37c0.01,4.83-2.03,9.35-2.41,14.14c-0.56,8.34-2.12,16.68-1.01,25.05
		c-0.91,5.75-2.53,11.61-1.11,17.46c3.09,3.65,8.06,1.25,11.69-0.06c-0.58-6.36-2.82-12.36-4.29-18.53c0.63-1.5,1.3-2.98,1.82-4.51
		c1.54,6.76,2.88,14.02,7.72,19.32c1.28,0.06,2.56,0.11,3.84,0.18c-0.26-4.43-1.33-8.77-3.39-12.71
		c-2.94-5.35-1.53-11.57-1.63-17.36c0.14-5.41-2.12-10.53-2.06-15.94c-0.24-5.21,0.72-10.53-0.47-15.66
		c0.47-5.02,1.02-10.14,0.12-15.14C176.69,247.19,175.18,242.76,171.28,240.65 M178.01,241.62c0.29,4.12,1.27,8.17,3.14,11.86
		C185.13,250.02,182.66,243.18,178.01,241.62 M190.22,248.72c-0.68,3-1.18,6.04-1.6,9.1c-1.83-0.22-3.66-0.44-5.49-0.65
		c0.39,2.64,0.51,5.39,1.52,7.9c-1.56,0.12-3.11,0.21-4.66,0.3c0.14,8.19,0.93,16.37,1.82,24.51c0.86,3.81,1.52,7.67,1.83,11.57
		c-1.43,4.08-0.07,8.43,1.98,12.04c1.93,3.28,2.82,7.02,4.6,10.36c1.2,1.61,3.28,0.26,4.84,0.11c-0.75-3.92-2.13-7.67-3.63-11.37
		c-2.73-6.93-2.43-14.67-5.48-21.49c-0.34-2.98-1.16-5.88-1.84-8.8c2.03-4.6-0.25-9.97,2.1-14.55c1.47,2.22,2.87,4.49,4.11,6.85
		c2.21-1.52,4.53-2.9,6.45-4.78C194.98,262.7,193.73,255.24,190.22,248.72 M192.8,273.26c0.29,1.93,0.86,3.82,2.13,5.36
		c0.45-1.78,0.85-3.57,1.25-5.35C195.34,273.27,193.65,273.26,192.8,273.26 M198.45,273.41c0.17,3.74,0.84,7.84,4.38,9.9
		C202.38,279.64,200.98,276.14,198.45,273.41 M191.9,278.65c0.12,2.48,0.13,5.07,1.3,7.33c0.41-0.05,1.23-0.15,1.64-0.2
		C196.91,282.88,194.02,280.35,191.9,278.65 M207.32,279.17c-2.19,1.27-0.94,4.1-0.7,6.07c0.79,4.27,4.45,6.96,7.37,9.8
		c0.16,3.04,0.37,6.07,0.64,9.09c0.99,2.97,2.22,5.86,3.67,8.63c0.63,0.07,1.9,0.2,2.53,0.26c2.18-4.62,5.02-9.04,6.12-14.09
		c0.73-5.23,0.09-10.52-0.1-15.76c-1.51-0.49-3.01-0.98-4.51-1.46c-1.42-0.19-2.85-0.39-4.27-0.59c-1.08,0.84-2.15,1.69-3.23,2.53
		C212.7,281.71,210.61,278.66,207.32,279.17 M231.27,283.19c-1.86,7.72-2.3,15.71-4.5,23.35c-1.04,4.29-2.56,8.44-3.51,12.75
		c-0.78,2.53,0.93,4.8,1.9,7.01c1.48-0.79,3.47-1.35,3.81-3.27c1.79-5.88,3.45-11.87,3.99-18.02c0.43-7.37,2.82-14.58,1.98-22.02
		C233.71,283.05,232.49,283.12,231.27,283.19 M187.93,289.23c2.95,8.97,4.12,18.57,8.78,26.93c2.81,5.03,4.19,12.2,10.4,14.12
		c-0.36-8.64-6.26-15.44-9.15-23.25c-2.67-7.27-4.07-15.14-8.35-21.72C187.24,284.38,187.53,287.8,187.93,289.23 M239.47,290.83
		c-1.51,4.57-1.68,9.41-1.5,14.19c0.3,6.68-1.5,13.21-3.44,19.54c-1.13,4.24-5.95,6.56-5.84,11.25c1.02,0.39,2.04,0.78,3.06,1.18
		c2.96-4.92,6.97-9.52,7.93-15.35c0.78-4.85,0.76-9.78,1.33-14.64C241.61,301.57,241.49,295.97,239.47,290.83 M205.73,312.92
		c1.12,1.84,2.22,3.7,3.32,5.55c3.9-2.27,3.1-6.88,2.85-10.69C209.73,309.36,207.69,311.1,205.73,312.92 M183,331.27
		c-0.77,3.2,2.49,4.62,5.01,5.18c0.58-2.16,0.98-4.36,1.23-6.58C187.16,330.19,184.49,329.36,183,331.27 M194.6,331.19
		c0.56,2.45,1.46,4.82,2.64,7.05c1.73-1.04,3.44-2.11,5.15-3.2C200.48,332.59,197.59,331.56,194.6,331.19 M222.27,332.54
		c-0.77,1.49-1.62,2.95-2.15,4.56c0.72,4.1,3.24,7.58,5.25,11.15c1.33-1.66,2.62-3.35,3.85-5.08
		C227.28,339.41,225.71,335.24,222.27,332.54 M195.14,347.34c-0.7,3.01,0.46,6.02,1.15,8.92c2.87-1.32,5.91-2.8,7.67-5.56
		C205.21,345.96,197.37,342.79,195.14,347.34 M168.46,360.42c-2.58,1.88-5.92,0.8-8.86,0.9c2.06,3.88,6.68,4.68,10.61,5.47
		c2.57,0.4,6.38,0.89,7.47-2.22c0.44-2.07,1-4.97-1.03-6.38C173.65,357.18,170.88,358.82,168.46,360.42 M188.33,357.74
		c-0.1,1.38-0.18,2.76-0.26,4.14c1.45-0.03,2.9-0.08,4.36-0.12C191.38,360.12,189.98,358.76,188.33,357.74 M200.6,358.4
		c-2.29,2.42-3.47,5.61-4.76,8.62c3.69-0.25,7.35-0.77,11-1.34c0.38-1.74,1.03-3.48,0.9-5.28
		C205.86,358.75,203.09,357.16,200.6,358.4z"/>
	<path fill="#010102" d="M203.67,238.78c0.55-0.17,1.65-0.52,2.2-0.69c0.04,0.69,0.13,2.08,0.17,2.77
		c-0.97,0.38-1.94,0.75-2.91,1.13C203.31,240.92,203.49,239.85,203.67,238.78z"/>
	<path fill="#010102" d="M171.51,300.6c-0.88-14.95-1.13-30.28,2.76-44.85c0.22,1.54,0.44,3.08,0.66,4.63
		c-0.43,6.2-0.25,12.43-0.93,18.61c-0.43,3.91-0.77,7.83-0.67,11.77C173.42,294.14,172.58,297.42,171.51,300.6z"/>
	<path fill="#80660A" d="M153.6,33.27c0.45-6.86,2.57-14.04,7.71-18.88c-0.1,2.18-0.29,4.36-0.6,6.51
		c-1.68,4.13-2.92,8.46-2.99,12.95c-0.57,0.83-1.14,1.66-1.71,2.48C155.18,35.33,154.39,34.3,153.6,33.27z"/>
	<path fill="#80660A" d="M170.61,14.5c5.15,3.93,4.86,10.89,6.27,16.59c0.26,1.4,0.6,2.79,0.95,4.18c-2-0.17-3.99-0.39-5.99-0.54
		c-0.11-0.49-0.32-1.47-0.42-1.96c0.25-3.69,0.39-7.47-0.86-11.01c-0.36-1.34-0.82-2.65-1.28-3.97
		C169.72,16.69,170.16,15.6,170.61,14.5z"/>
	<path fill="#80660A" d="M149.07,21.97c0.71-1.67,2.45-2.4,3.9-3.27c0.13,3.45-1.07,6.68-2.96,9.51c0.62,1.87,1.26,3.73,1.91,5.58
		c-2.25,1.66-4.58,3.22-7.07,4.51C144.4,32.56,146.56,27.01,149.07,21.97z"/>
	<path fill="#80660A" d="M157.65,45.82c9.44,0.02,19.16-2.17,28.3,1.18c-0.09,3.14-0.56,6.43,0.64,9.44
		c1.04,3.29,3.24,6.65,2.16,10.21c-1.08,4.05-4.64,6.6-7.95,8.78c-0.14-0.65-0.42-1.96-0.56-2.62c-0.25-4.04,0.5-8.13-0.2-12.14
		c-0.9-4.62-4.18-8.2-7.23-11.58c-1.78,0.57-3.57,1.12-5.32,1.77c-0.81,0.4-1.6,0.83-2.37,1.29c-1.44,1.18-2.77,2.52-4.33,3.54
		c-2.61-0.34-2.63-4.17-3.91-6.06C157.14,48.36,157.4,47.09,157.65,45.82 M176.36,51.92c1.09,0.42,2.18,0.85,3.27,1.27
		c0.19-1.28,0.38-2.56,0.57-3.84c1.21-0.02,2.43-0.06,3.65-0.11c-1.12-0.65-2.25-1.64-3.65-1.25
		C178.16,48.2,177.49,50.54,176.36,51.92z"/>
	<path fill="#80660A" d="M188.7,47.3c1.56,0.5,3.13,1.03,4.74,1.41c-0.17,0.74-0.32,1.48-0.48,2.21
		c6.54,2.06,12.72,6.36,15.41,12.86c1.6,3.77-1.26,7.41-2.1,11.02c-1.24,5.14-3.57,9.93-6.78,14.13c0.86,1.18,1.72,2.36,2.59,3.54
		c-3.45,2.42-6.86,4.99-9.45,8.37c2.36-0.92,4.69-1.93,7-2.96c0.48,4.14,1.4,8.22,1.94,12.36c0.53,2.89-2.19,4.83-3.66,6.97
		c1.36,0.46,2.72,0.92,4.08,1.39c-0.13,0.51-0.41,1.53-0.54,2.04c-1.77-0.2-3.53-0.39-5.29-0.56c1.08,1.62,2.15,3.35,3.92,4.31
		c1.32,1.09,3.49,1.57,3.91,3.45c-0.84,1.71-1.98,3.24-3.03,4.82c1.97,0.91,3.95,1.82,5.93,2.74c-0.37,1.72-0.74,3.45-1.12,5.17
		c1.21,0.44,2.43,0.88,3.65,1.32c1.45,4.6,2.79,9.37,2.17,14.25c-3.55,2.37-7.85,4.17-12.03,2.25c-0.51-3.3-0.92-6.63-1.9-9.83
		c-0.67-2.45-2.97-3.85-4.69-5.51c1.33-0.83,2.67-1.65,4.02-2.46c-0.45-0.68-0.9-1.37-1.34-2.05c-3.04,0.47-6.16,0.56-9.11-0.42
		c1.18-1.71,2.39-3.41,3.6-5.1c-1.83-3.42-3.71-6.82-5.64-10.18c0.61-1.02,1.22-2.04,1.83-3.05c-1.59-1.81-3.65-3.4-4.44-5.73
		c0.68-2.05,3.43-4.4,5.49-2.7c2.19,1.45,4.2,3.15,6.42,4.57c-1.18-4.4-6.13-4.94-9.3-7.34c-1.64-2.31-2.15-5.21-2.62-7.95
		c-0.7-3.96,2.3-7.32,2.38-11.19c0.05-2.16-0.21-4.3-0.39-6.44c2.2,0.37,4.4,0.76,6.59,1.16c-1.6-2.08-3.2-4.16-4.79-6.25
		c2.29-0.57,4.59-1.11,6.89-1.61c-0.83-1.61-2.39-3.13-2.04-5.08c0.66-4.17,1.76-8.28,1.97-12.52c1.26-0.16,2.52-0.33,3.78-0.5
		c-2.4-1.6-4.87-3.09-7.37-4.53C188.9,51.55,188.95,49.41,188.7,47.3 M196.18,67.8c0.33,1.65,0.7,3.3,1.07,4.95
		c0.75,0,2.25,0.01,3,0.01C199.06,70.97,197.71,69.3,196.18,67.8 M201.27,69.36c-1.56,1.38,0.82,3.63,2.07,1.92
		C204.9,69.9,202.53,67.68,201.27,69.36 M198.25,78.02c-1.94,0.42-1.08,3.53,0.79,2.94C200.98,80.55,200.12,77.4,198.25,78.02
		 M194.23,79.56c-0.11,1.52-0.23,3.04-0.34,4.57c0.84-0.05,2.51-0.15,3.35-0.2C196.25,82.46,195.25,81.01,194.23,79.56
		 M193.52,86.05c0.47,1.36,0.87,2.76,1.61,4.01c2.35,0.42,2.34-2.52,3.27-3.97C196.77,86.06,195.14,86.05,193.52,86.05
		 M191.13,91.95c-0.77,1.76-1.6,3.51-2.12,5.37c-0.41,1.08-0.33,3.02,1.31,2.55c1.17-2.35,2.11-4.8,3.13-7.21
		C192.87,92.48,191.71,92.13,191.13,91.95 M185.9,95.54c0.03,1.7-0.04,3.43,0.3,5.12c0.99,1.09,2.16,2.01,3.3,2.96
		C188.36,100.93,188.84,97.03,185.9,95.54 M195.18,108.91c-1.68,0.43-0.77,3.05,0.81,2.38
		C197.67,110.87,196.75,108.23,195.18,108.91 M192.7,126.26c0.77,2.09,1.96,4,4.06,4.94c-0.07-0.69-0.22-2.08-0.3-2.78
		C195.21,127.7,193.96,126.97,192.7,126.26 M193.47,133.84c1.72,1.05,3.54,1.93,5.44,2.65c0.02-1.64,0.03-3.27,0.03-4.9
		C196.88,131.74,194.81,132.11,193.47,133.84 M202.06,145.71c0.97,0.64,1.96,1.23,2.98,1.79c-0.41-1.96-0.87-3.9-1.39-5.83
		C202.99,142.95,202.19,144.23,202.06,145.71 M206.09,152.42c-1.8,0.44-1.14,3.56,0.68,3.26
		C208.53,155.24,207.86,152.15,206.09,152.42z"/>
	<path fill="#80660A" d="M162.07,59.26c2.44,1.7,4.84,3.46,6.99,5.52c-0.01,0.3-0.03,0.89-0.05,1.18
		c-0.63,4.62,0.46,9.16,1.43,13.64c1.14,5.19-0.06,10.47-1.21,15.54c-3.93-3.06-8.59-4.92-13.49-5.65c1.47,2.01,2.71,4.43,5.05,5.55
		c2.48,1.17,5.15,1.83,7.77,2.6c0.68,4.23,1.43,8.65,0.06,12.83c-1.29,6.65-10.42,9.04-15.69,5.54c0.36-1.57,0.74-3.13,1.03-4.72
		c1.26-6.1-1.08-12.12-1.32-18.2c-0.56-0.17-1.67-0.5-2.23-0.66c-0.01-0.53-0.05-1.05-0.09-1.57c2.84-2.01,4.7-4.99,6.34-7.99
		c1.97,1.77,3.94,3.52,5.97,5.23c-0.12-2.16,0.31-4.53-0.71-6.51c-1.31-0.74-2.73-1.21-4.09-1.82c0.69-0.37,1.38-0.75,2.07-1.13
		c1.3-0.95,3.27-1.84,3.15-3.74c0.09-4.13,0.79-8.26,0.37-12.39C162.99,61.42,162.54,60.34,162.07,59.26 M166.09,80.01
		c-0.61,3.28,0.01,6.67-0.75,9.95c0.83,0.34,1.66,0.69,2.49,1.03c0.44-3.23,1.16-6.46,1.03-9.74
		C168.23,80.22,167.31,79.8,166.09,80.01 M154.86,93.61c-0.02,1.71-0.1,3.42,0.07,5.12c1.01,0.63,2.06,1.2,3.15,1.71
		C158.22,97.64,158.69,93.84,154.86,93.61 M159.98,109.02c0.05,0.91,0.13,2.74,0.17,3.65c1.35-0.82,2.29-2.07,3.13-3.37
		C162.45,109.23,160.81,109.09,159.98,109.02z"/>
	<path fill="#80660A" d="M178.15,88.12c0.76-0.03,2.28-0.11,3.04-0.15c-0.26,3.67-0.27,7.67-2.44,10.82
		c-1.36,2.23-4.11,0.72-6.03,0.34C174.11,95.26,175.95,91.59,178.15,88.12 M177.3,93.65c-1.14,0.41-1.53,2.2-0.63,3.02
		C178.35,97.34,179.09,93.72,177.3,93.65z"/>
	<path fill="#80660A" d="M204.35,114.02c2.62-1.12,5.45-1.23,8.24-0.83c0.05,0.74,0.15,2.23,0.2,2.97l-0.91-0.02
		c-0.42-0.01-1.26-0.03-1.68-0.04C207.99,116.27,205.82,115.79,204.35,114.02z"/>
	<path fill="#80660A" d="M132.94,117.99c3.06-2.03,6.7-2.31,10.27-2.11c0.17,2.26,0.34,4.52,0.53,6.78
		c-2.46,0.19-4.99,0.77-7.43,0.14C134.62,121.69,133.95,119.64,132.94,117.99z"/>
	<path fill="#80660A" d="M146.68,117.01c1.34,0.01,2.69,0.02,4.03,0.03c1.95,4.45,5.6,8.24,6.04,13.25
		c0.44,3.26,1.62,6.61,0.45,9.86c-0.81-0.03-2.42-0.1-3.22-0.13c-1.03-4.82-1.15-9.98-3.64-14.36
		C148.82,122.91,147.55,120.03,146.68,117.01z"/>
	<path fill="#80660A" d="M220.3,121.16c1.12-0.36,2.24-0.71,3.36-1.06c1.18,1.37,2.36,2.74,3.55,4.11c3.03-0.72,6.23-0.64,8.21,2.13
		c3.14-0.82,6.28-2.07,9.57-1.98c2.57,0.67,4.66,2.42,6.84,3.85c0.36,2.22,0.46,4.47,0.55,6.71c-2.73,0.67-5.41,1.49-8.07,2.4
		c-0.84-0.88-1.68-1.75-2.51-2.62c-1.24,0.53-2.47,1.06-3.7,1.58c-5.59-2.17-12.68-1.53-16.84-6.5
		C219.96,127.13,220.48,124.01,220.3,121.16z"/>
	<path fill="#80660A" d="M139.27,126.53c2.75-0.07,5.44-0.67,8.08-1.46c1.06,2.49,0.36,5.72-2.15,7.01
		c-2.84,0.83-5.9,0.77-8.81,0.39c-1.87-0.29-2.68-2.55-2.35-4.23C135.22,126.49,137.44,126.69,139.27,126.53 M136.61,129.62
		c2.59,0.25,5.2,0.3,7.8,0.18C141.91,128.56,139.09,127.98,136.61,129.62z"/>
	<path fill="#80660A" d="M135.5,137.14c4.33-1.34,8.73-2.72,13.29-2.93c2.82,1.47,0.06,4.06-1.81,4.82
		C143.43,141.19,136.54,142.79,135.5,137.14z"/>
	<path fill="#80660A" d="M214.56,144.5c1.52-3.58,4.13-6.54,6.46-9.61c0.44,0.27,1.32,0.81,1.77,1.08
		c-1.68,4.92-2.96,9.95-4.02,15.03c-1.21-0.05-2.42-0.1-3.62-0.14C214.66,148.8,213.49,146.58,214.56,144.5 M217.27,143.59
		c-1.39,0.51-1.91,2.69-0.96,3.82C218.17,148.05,219.13,144,217.27,143.59z"/>
	<path fill="#80660A" d="M224.51,138.54c0.99-1.63,2.92-0.8,4.38-0.55c-0.92,5.37-2.01,10.97-0.09,16.27
		c-2.66,0.76-4.86-0.85-6.8-2.45C222.46,147.35,222.51,142.65,224.51,138.54 M225.51,149.38c0.64-2.95,1.09-5.94,1.32-8.94
		C225.06,143.03,222.84,146.58,225.51,149.38z"/>
	<path fill="#80660A" d="M231.42,140.42c0.6-2.99,6.55-1.68,5.33,1.54c-0.65,4.45-0.66,9,1,13.25c-2.56-0.19-5.72-0.41-6.73-3.24
		C229.81,148.24,230.47,144.13,231.42,140.42 M232.03,144.35c-0.89,2.11,0.8,4.07,1.54,5.95c0.82-2.85,1.41-5.77,1.63-8.73
		C233.98,142.29,232.35,142.75,232.03,144.35z"/>
	<path fill="#80660A" d="M245.96,142.37c2.75-1,5.51-2.03,8.14-3.34c-1.69,1.79-3.91,3.89-3.28,6.62c0.25,2.97,0.71,5.92,1.08,8.87
		c-1.68-0.74-3.72-1.01-5.02-2.37C245.46,149.11,246.05,145.62,245.96,142.37z"/>
	<path fill="#80660A" d="M240.06,140.06c0.77,0,2.3-0.01,3.07-0.01c0.4,3.65,0.14,7.32-0.31,10.96c-0.71-0.01-2.14-0.01-2.85-0.01
		C238.79,147.41,239.23,143.66,240.06,140.06z"/>
	<path fill="#80660A" d="M139.42,144.65c4.11-1.31,8.55-2.9,12.73-0.87c-0.02,0.81-0.06,2.43-0.08,3.24c-3.61,2.9-8.2,3.46-12.67,3
		c-0.51-0.7-1.01-1.41-1.49-2.12C138.42,146.81,138.92,145.73,139.42,144.65 M141.49,148.21c2.94-0.13,7.2,0.44,7.94-3.36
		C146.55,145.2,142.87,145.04,141.49,148.21z"/>
	<path fill="#80660A" d="M145.78,154.23c3.62-1.57,7.47-3.34,11.49-2.25c-0.94,2.93-2.93,5.91-6.35,6
		C148.27,158.62,147.09,155.94,145.78,154.23z"/>
	<path fill="#80660A" d="M150.79,162.07c2.05-1.25,4.12-2.47,6.19-3.69c1.53,0.91,3.07,1.83,4.6,2.75
		c-1.04,1.15-1.96,2.46-3.26,3.36c-2.2,0.66-4.53,0.62-6.8,0.75c-1.29-1.61-2.47-3.3-3.75-4.92
		C148.76,160.92,149.77,161.49,150.79,162.07z"/>
	<path fill="#80660A" d="M198.08,195.71c1.93-4.28,6.5-6.54,10.85-7.62c2.33,0.76,4.23,2.53,5.76,4.4
		c0.88,4.17-1.56,8.14-4.18,11.18c0.99,0.61,2.01,1.2,2.94,1.91c0.85,1.49,0.4,3.32,0.57,4.96c-1.71,1.03-3.4,2.09-5.08,3.15
		c2.79,2.38,4.36,5.71,3.6,9.39c-2.57,0.98-5.01,2.25-7.29,3.78c2.61,0.96,5.26,1.82,7.9,2.71c-1.38,1.46-3.02,2.62-4.85,3.45
		c0.94,1.6,2.02,3.16,2.55,4.95c-0.52,1.94-1.46,3.73-2.28,5.55c1.63,2.59,3.25,5.31,3.64,8.4c0.59,3.33-0.8,6.55-1.03,9.85
		c0.56,1.55,2.3,1.87,3.74,2.07c3.93,0.54,7.9,0.71,11.86,1.05c3.12-2.66,7.15-1.25,10.76-0.74c0.07-1.55,0.03-3.1,0.31-4.63
		c0.92-0.78,1.99-1.37,3.01-2.01c1.36,2.34,2.62,4.74,3.77,7.19c-1.33-0.06-2.66-0.12-3.99-0.17c0.1,1.27,0.2,2.54,0.3,3.82
		c1.39-0.07,2.79-0.14,4.19-0.21c0.1,1.26,0.19,2.52,0.3,3.79c-2.05,1.09-4.03,2.44-6.31,3c-1.24-0.8-2.35-1.75-3.48-2.66
		c-0.69,1.54-1.38,3.08-2.07,4.62c-0.5-0.03-1.5-0.09-2-0.11c-0.6-1.2-1.19-2.38-1.79-3.57c-2.42,0.44-4.87,0.81-7.32,1.07
		c-1.03,1.33-2.02,2.7-2.99,4.08c-0.88-1.67-1.75-3.33-2.62-4.99c-1,0.89-1.98,1.82-3.05,2.63c-1.62-0.48-2.88-1.67-4.24-2.6
		c-1.58,0.73-3.14,1.47-4.71,2.2c-1.46-2.02-3.32-3.68-5.4-5.03c0.28-1.43,0.56-2.85,0.84-4.28c-1.14-1.65-2.77-3.13-3.23-5.13
		c0.9-1.71,2.74-2.65,4.15-3.89c-1.54-1.36-3.59-2.58-3.81-4.84c-0.17-1.4-0.97-3.42,0.82-4.07c3.13-0.07,7.9,2.39,9.19-1.92
		c-4.15-0.29-9.13,0.5-11.92-3.34c1.99-1.99,4.06-3.89,6.21-5.69c-1.7-0.54-3.41-1.1-5.1-1.65c1.27-1.57,2.57-3.12,3.85-4.68
		c-0.13-2.81,0.02-5.63-0.05-8.45c-0.11-2.63-3-4.61-2.28-7.32c1.69-2.69,5.28-1.33,7.87-1.59c-2.63-1.85-7.01-2.95-7.12-6.78
		c-0.43-2.91,2.6-4.38,4.32-6.14C201.5,199.09,199.79,197.39,198.08,195.71 M210.18,207.16c-0.52,1.63,0.03,2.18,1.66,1.67
		C212.36,207.2,211.81,206.64,210.18,207.16 M203.67,238.78c-0.18,1.07-0.36,2.14-0.54,3.21c0.97-0.38,1.94-0.75,2.91-1.13
		c-0.04-0.69-0.13-2.08-0.17-2.77C205.32,238.26,204.22,238.61,203.67,238.78z"/>
	<path fill="#80660A" d="M181.81,289.88c0.19-2.68,1.17-5.18,2.3-7.58c0.68,2.92,1.5,5.82,1.84,8.8c-0.41,3.52-1.38,6.94-2.31,10.35
		C183.33,297.55,182.67,293.69,181.81,289.88z"/>
	<path fill="#80660A" d="M195.14,347.34c2.23-4.55,10.07-1.38,8.82,3.36c-1.76,2.76-4.8,4.24-7.67,5.56
		C195.6,353.36,194.44,350.35,195.14,347.34z"/>
	<path fill="#422612" d="M176.06,15.8c3.8,6.03,6.32,12.71,8.89,19.31c0.07,0.24,0.19,0.71,0.25,0.95c-2.44-0.4-4.9-0.63-7.37-0.79
		c-0.35-1.39-0.69-2.78-0.95-4.18C177.53,25.98,178.27,20.68,176.06,15.8z"/>
	<path fill="#422612" d="M196.18,67.8c1.53,1.5,2.88,3.17,4.07,4.96c-0.75,0-2.25-0.01-3-0.01C196.88,71.1,196.51,69.45,196.18,67.8
		z"/>
	<path fill="#422612" d="M217.48,71.41c2.77-0.9,5.68-2.65,8.67-1.58c5.8,1.58,9.29,6.84,12.58,11.46c4.37,5.92,6.28,13.2,7.7,20.31
		c-0.19,0.69-0.56,2.08-0.74,2.78l-0.3,1.08c-1.53-2.77-2.68-5.73-3.6-8.76c-1-0.25-2.01-0.5-3.01-0.74
		c-1.96-0.48-3.92-0.94-5.88-1.39c2.42-0.37,4.85-0.75,7.28-1.13c-0.02-6.96-4.68-12.61-9.22-17.39c-2.73-3.09-6.95-3.68-10.79-4.26
		C219.27,71.66,218.37,71.53,217.48,71.41z"/>
	<path fill="#422612" d="M194.23,79.56c1.02,1.45,2.02,2.9,3.01,4.37c-0.84,0.05-2.51,0.15-3.35,0.2
		C194,82.6,194.12,81.08,194.23,79.56z"/>
	<path fill="#422612" d="M191.13,91.95c0.58,0.18,1.74,0.53,2.32,0.71c-1.02,2.41-1.96,4.86-3.13,7.21
		c-1.64,0.47-1.72-1.47-1.31-2.55C189.53,95.46,190.36,93.71,191.13,91.95z"/>
	<path fill="#422612" d="M159.98,109.02c0.83,0.07,2.47,0.21,3.3,0.28c-0.84,1.3-1.78,2.55-3.13,3.37
		C160.11,111.76,160.03,109.93,159.98,109.02z"/>
	<path fill="#422612" d="M109.59,115.55c0.37-0.14,1.1-0.43,1.46-0.57c5.39,4.17,13.38,3.23,17.71,8.96
		c-4.25-0.33-8.15-2.1-11.61-4.49c-1.74,1.26-3.47,2.53-5.21,3.79c3.48,2.89,6.91,5.85,9.94,9.22c-5.32,0.43-9.05-3.96-11.48-8.1
		C108.72,121.74,109.44,118.47,109.59,115.55z"/>
	<path fill="#422612" d="M227.1,158.35c1.13,0.68,2.24,1.38,3.35,2.09c0.07,3.53-1.39,6.78-2.64,10c-1.21-2.64-2.24-5.36-3.22-8.09
		C225.43,161.02,226.26,159.69,227.1,158.35z"/>
	<path fill="#422612" d="M224.96,173.76c0.45,0.27,1.36,0.8,1.82,1.07c3.84,3.41,4.89,8.67,6.45,13.33
		c-1.08-0.77-2.15-1.53-3.19-2.34c-1.46-3.1-2.87-6.22-4.08-9.42C225.63,175.51,225.3,174.63,224.96,173.76z"/>
	<path fill="#422612" d="M173.33,290.76c0.27,5.92,0.67,11.86,0.21,17.79c-0.52,1.53-1.19,3.01-1.82,4.51
		c-0.7-4.12-0.56-8.32-0.21-12.46C172.58,297.42,173.42,294.14,173.33,290.76z"/>
	<path fill="#810711" d="M169.28,17.79c0.46,1.32,0.92,2.63,1.28,3.97c-0.33,3.7-0.31,7.45,0.86,11.01c0.1,0.49,0.31,1.47,0.42,1.96
		c-1.87-0.11-3.73-0.13-5.59-0.17c-0.23-1.51-0.46-3.02-0.66-4.54C166.34,25.82,167.7,21.75,169.28,17.79z"/>
	<path fill="#810711" d="M157.72,33.85c0.07-4.49,1.31-8.82,2.99-12.95c0.17,3.21,0.74,6.38,1.64,9.46c0.4,1.37,0.83,2.73,1.26,4.09
		C161.64,34.3,159.68,34.07,157.72,33.85z"/>
	<path fill="#810711" d="M210.2,116.1c0.42,0.01,1.26,0.03,1.68,0.04c1.06,0.59,2.05,1.31,3.06,2.01
		c-0.57,3.78-0.73,7.66,0.41,11.35c1.17,3.74-0.04,7.69-1.7,11.08c-0.32,0.06-0.97,0.17-1.29,0.22c-1.55-3.58-2.63-7.35-4.33-10.87
		c-1.15-2.71-2.77-5.65-1.86-8.66C206.94,119.18,208.49,117.46,210.2,116.1z"/>
	<path fill="#810711" d="M172.38,131.36c2.61-1.99,5.54-5.44,9.17-4.09c2.2,3.58,3.06,7.77,4.46,11.68c1.12,2.98,1.1,6.2,0.83,9.33
		c-1.99-1.27-4.47-2.43-5.14-4.91c-0.54-2.49-0.04-5.05,0.07-7.57c-3.47,0.77-6.87,2.16-10.47,2.09
		C168.83,136.17,170.28,132.71,172.38,131.36z"/>
	<path fill="#810711" d="M191.46,158.45c2.34-0.93,4.9-1.05,7.3-0.27c0.36,2.88,0.74,5.76,1.16,8.64
		c-6.59,2.88-10.03,9.89-16.65,12.75c-1.9-1.42-3.85-2.77-5.75-4.18l-0.41-0.56c3.59-1.1,7.14-2.52,10.04-4.97
		c-3.24-0.51-6.53-0.75-9.72-1.49c-2.22-0.4-3.06-2.82-4.4-4.33C179.11,161.96,185.41,160.63,191.46,158.45z"/>
	<path fill="#810711" d="M171.28,240.65c3.9,2.11,5.41,6.54,6.39,10.59c0.9,5,0.35,10.12-0.12,15.14c-0.8-2.03-1.77-3.99-2.62-6
		c-0.22-1.55-0.44-3.09-0.66-4.63c-3.89,14.57-3.64,29.9-2.76,44.85c-0.35,4.14-0.49,8.34,0.21,12.46
		c1.47,6.17,3.71,12.17,4.29,18.53c-3.63,1.31-8.6,3.71-11.69,0.06c-1.42-5.85,0.2-11.71,1.11-17.46
		c-1.11-8.37,0.45-16.71,1.01-25.05c0.38-4.79,2.42-9.31,2.41-14.14c0.02-4.47,0.07-8.95,0.7-13.37
		C170.52,254.67,170.57,247.63,171.28,240.65z"/>
	<path fill="#810711" d="M179.99,265.37c1.55-0.09,3.1-0.18,4.66-0.3c0.48,0.91,1.01,1.8,1.56,2.68c-2.35,4.58-0.07,9.95-2.1,14.55
		c-1.13,2.4-2.11,4.9-2.3,7.58C180.92,281.74,180.13,273.56,179.99,265.37z"/>
	<path fill="#810711" d="M231.27,283.19c1.22-0.07,2.44-0.14,3.67-0.2c0.84,7.44-1.55,14.65-1.98,22.02
		c-0.54,6.15-2.2,12.14-3.99,18.02c-0.34,1.92-2.33,2.48-3.81,3.27c-0.97-2.21-2.68-4.48-1.9-7.01c0.95-4.31,2.47-8.46,3.51-12.75
		C228.97,298.9,229.41,290.91,231.27,283.19z"/>
	<path fill="#810711" d="M185.95,291.1c3.05,6.82,2.75,14.56,5.48,21.49c1.5,3.7,2.88,7.45,3.63,11.37
		c-1.56,0.15-3.64,1.5-4.84-0.11c-1.78-3.34-2.67-7.08-4.6-10.36c-2.05-3.61-3.41-7.96-1.98-12.04
		C184.57,298.04,185.54,294.62,185.95,291.1z"/>
	<path fill="#810711" d="M239.47,290.83c2.02,5.14,2.14,10.74,1.54,16.17c-0.57,4.86-0.55,9.79-1.33,14.64
		c-0.96,5.83-4.97,10.43-7.93,15.35c-1.02-0.4-2.04-0.79-3.06-1.18c-0.11-4.69,4.71-7.01,5.84-11.25
		c1.94-6.33,3.74-12.86,3.44-19.54C237.79,300.24,237.96,295.4,239.47,290.83z"/>
	<path fill="#810711" d="M194.6,331.19c2.99,0.37,5.88,1.4,7.79,3.85c-1.71,1.09-3.42,2.16-5.15,3.2
		C196.06,336.01,195.16,333.64,194.6,331.19z"/>
	<path fill="#810711" d="M168.46,360.42c2.42-1.6,5.19-3.24,8.19-2.23c2.03,1.41,1.47,4.31,1.03,6.38c-1.09,3.11-4.9,2.62-7.47,2.22
		c-3.93-0.79-8.55-1.59-10.61-5.47C162.54,361.22,165.88,362.3,168.46,360.42z"/>
	<path fill="#810711" d="M188.33,357.74c1.65,1.02,3.05,2.38,4.1,4.02c-1.46,0.04-2.91,0.09-4.36,0.12
		C188.15,360.5,188.23,359.12,188.33,357.74z"/>
	<path fill="#810711" d="M200.6,358.4c2.49-1.24,5.26,0.35,7.14,2c0.13,1.8-0.52,3.54-0.9,5.28c-3.65,0.57-7.31,1.09-11,1.34
		C197.13,364.01,198.31,360.82,200.6,358.4z"/>
	<path fill="#726434" d="M162.35,30.36c0.84-1.51,1.68-3.03,2.53-4.54c0.25,1.4,0.48,2.8,0.71,4.2c0.2,1.52,0.43,3.03,0.66,4.54
		c-0.66-0.03-1.98-0.08-2.64-0.11C163.18,33.09,162.75,31.73,162.35,30.36z"/>
	<path fill="#726434" d="M149.92,59.81c1.35,0.07,2.71,0.14,4.06,0.21c0.01,0.77,0.02,2.33,0.02,3.1c-0.68-0.06-2.05-0.18-2.73-0.24
		C150.82,61.85,150.37,60.83,149.92,59.81z"/>
	<path fill="#726434" d="M141.54,78.23c2.88,0.73,5.96,1.05,8.52-0.79c1.82,1.2,5.38,1.65,5.01,4.43
		c-3.08,1.56-6.73,0.99-10.06,1.02C142.64,82.83,142.47,79.83,141.54,78.23z"/>
	<path fill="#726434" d="M246.43,101.6c1.37,3,3.07,5.95,3.49,9.29c0.96,5.27-0.04,11.19,3.38,15.74c2.44,3.22,3.53,7.34,2.01,11.21
		c-0.08-1.19-0.17-2.38-0.25-3.56c-0.9,0.21-1.79,0.42-2.68,0.64c-0.09-2.24-0.19-4.49-0.55-6.71c-2.02-5.53-2.53-11.38-2.82-17.22
		c0.02-2.65-1.7-4.72-3.32-6.61C245.87,103.68,246.24,102.29,246.43,101.6z"/>
	<path fill="#726434" d="M173.52,107.46c1.03-2.04,3.04-3.33,4.66-4.86c0.9,1.15,2.44,2.07,2.53,3.66
		c0.21,4.09-0.71,8.26-2.49,11.95c-0.69,1.65-2.7,1.6-4.13,2.18C173.05,116.19,172.2,111.69,173.52,107.46 M174.9,115.55
		c4.37-1.3,3.23-6.53,2.98-9.96C174.81,108.02,174.53,111.93,174.9,115.55z"/>
	<path fill="#726434" d="M161.58,119.63c2.67-0.83,5.34-1.64,8.01-2.46c0.25,2.02-0.01,4.04-0.52,6.01
		C166.42,122.38,163.43,121.9,161.58,119.63z"/>
	<path fill="#726434" d="M159.73,148.65c5.38,3.09,8.38,8.85,11.07,14.19c-0.56-0.97-1.17-1.91-1.77-2.85
		c-2.71,1.53-5.53,2.98-7.83,5.12c1.22-1.49,2.45-2.96,3.71-4.41C161.89,157.36,159.83,153.23,159.73,148.65z"/>
	<path fill="#726434" d="M168.76,218.73c1.29,0.54,2.62,1.02,3.84,1.73c1.47,2.18,1.76,4.89,2.49,7.37
		c4.57-2.92,9.86-4.71,15.33-3.7c-0.88,1.2-1.68,2.49-2.78,3.5c-2.63,1.66-6.27,0.15-8.73,2.23c-2.47,2.07-5.41,3.36-8.53,4.06
		C172.31,228.75,168.82,223.9,168.76,218.73z"/>
	<path fill="#726434" d="M192.8,273.26c0.85,0,2.54,0.01,3.38,0.01c-0.4,1.78-0.8,3.57-1.25,5.35
		C193.66,277.08,193.09,275.19,192.8,273.26z"/>
	<path fill="#726434" d="M198.45,273.41c2.53,2.73,3.93,6.23,4.38,9.9C199.29,281.25,198.62,277.15,198.45,273.41z"/>
	<path fill="#7F3809" d="M153.6,33.27c0.79,1.03,1.58,2.06,2.41,3.06c6.77,1.63,13.81-0.3,20.59,1.15c2.79,0.34,3.37,3.45,4.56,5.48
		c-6.67,0.55-13.36,0.39-20.04,0.54c-7.24,0.15-14.21,2.34-21.31,3.48c0.07-1.8,0.16-3.59,0.25-5.39c4.85-0.55,9.73-1.7,13.6-4.86
		C153.62,35.58,153.6,34.42,153.6,33.27z"/>
	<path fill="#7F3809" d="M137.74,51.07c6.11-3.3,12.99-4.95,19.91-5.25c-0.25,1.27-0.51,2.54-0.77,3.81
		c-4.82,0.23-9.29,2.04-13.87,3.3C141.01,53.56,139.39,51.86,137.74,51.07z"/>
	<path fill="#7F3809" d="M165.12,52.15c0.77-0.46,1.56-0.89,2.37-1.29c3.75,1.44,7.72,3.38,9.43,7.29
		c3.02,5.1,0.46,10.96-1.52,15.93c1.61-0.42,3.22-0.85,4.84-1.27c0.14,0.66,0.42,1.97,0.56,2.62c-1.13,4.69-1.53,10.41-6.19,13.08
		c-1.94-7.51-1.17-15.8-5.6-22.55c0.02-0.29,0.04-0.88,0.05-1.18c0.13-0.7,0.26-1.4,0.41-2.1c-1.67-2-3.64-3.82-4.81-6.18
		C164.58,55.04,164.88,53.59,165.12,52.15z"/>
	<path fill="#7F3809" d="M151.03,67.11c3.98-2.17,7.26-5.37,11.04-7.85c0.47,1.08,0.92,2.16,1.35,3.25
		c-3.94,4.48-3.93,10.52-3.52,16.13c-0.69,0.38-1.38,0.76-2.07,1.13c-2.37-1.74-4.27-4.02-6.62-5.78c-1.09-1-2.55-0.16-3.75,0.09
		c-3.97,1.11-7.37,3.53-10.42,6.23c-0.6-1.93-2.05-3.96-1.06-6.01c1.23-3.47,3.64-6.33,5.79-9.26
		C144.64,66.2,147.86,68.9,151.03,67.11z"/>
	<path fill="#7F3809" d="M119.9,112.44c5.53-0.72,10.78,1.68,16.25,1.94c-2.12,0.1-4.24,0.3-6.35,0.48
		c1.25,5.1,1.33,10.38,0.64,15.57c-2.79,0.93-5.63,1.71-8.56,2.03c-3.03-3.37-6.46-6.33-9.94-9.22c1.74-1.26,3.47-2.53,5.21-3.79
		c3.46,2.39,7.36,4.16,11.61,4.49c-4.33-5.73-12.32-4.79-17.71-8.96C113.91,113.86,116.82,112.7,119.9,112.44z"/>
	<path fill="#7F3809" d="M160.05,136.87c0.6,0.11,1.78,0.33,2.38,0.44c2.03,3.81,5.66,6.6,6.98,10.8c-5.02,0.1-9.7-1.87-13.88-4.48
		c1.8-1.76,4.32-1.3,6.58-1.12C161.41,140.63,160.72,138.75,160.05,136.87z"/>
	<path fill="#7F3809" d="M171.16,149.25c1.05-2.03,3.3-3.02,5.05-4.34c-0.01,4.37-1.29,8.91-5.05,11.52
		C171.03,154.04,170.66,151.61,171.16,149.25z"/>
	<path fill="#7F3809" d="M177.77,150.76c2.86,0.38,5.72,1.15,7.86,3.21c-1.62,1.76-3.95,2.66-6.3,1.94
		C177.53,154.82,178.13,152.49,177.77,150.76z"/>
	<path fill="#7F3809" d="M212.49,156.08c1.23-0.84,2.42-1.74,3.76-2.39c3.93,0.56,7.4,2.8,10.85,4.66c-0.84,1.34-1.67,2.67-2.51,4
		c0.98,2.73,2.01,5.45,3.22,8.09c-0.42,1.44-0.72,2.91-1.03,4.39c-0.46-0.27-1.37-0.8-1.82-1.07c-1.41-2.67-3.26-5.59-6.48-6.14
		c-6.06-1.36-12.41-1.82-18.56-0.8c-0.42-2.88-0.8-5.76-1.16-8.64l0.8,0.21c4.18,1.92,8.48,0.12,12.03-2.25
		C211.89,156.11,212.19,156.09,212.49,156.08z"/>
	<path fill="#7F3809" d="M203.32,169.75c4.22,2.78,5.18,8.56,3.6,13.1c-0.64,0.04-1.91,0.1-2.55,0.13
		c-0.28-3.81-1.22-7.55-3.11-10.89C201.95,171.31,202.63,170.53,203.32,169.75z"/>
	<path fill="#7F3809" d="M186.16,187.6c1.29,0.98,3.11,1.82,3.15,3.71c0.7,5.72-0.55,11.44-0.77,17.16
		c-0.34,4.52,0.69,9.3-1.41,13.55c-0.81,0.02-2.44,0.06-3.25,0.08c-1.53-4.92-0.66-10.1-0.62-15.15
		C183.57,200.43,182.77,193.51,186.16,187.6z"/>
	<path fill="#7F3809" d="M191.99,189.97c0.38-1.21,1.51-1.94,2.76-1.9c3.06,7.7,0.37,15.88,0.71,23.82c0.11,2.63-1.35,4.9-2.48,7.15
		c-0.76,0-2.28-0.01-3.04-0.02c0.74-6.66,1.33-13.35,1.29-20.06C191.33,195.96,191.09,192.87,191.99,189.97z"/>
	<path fill="#7F3809" d="M165.95,206.07c1.03-2.58,4.89-4.6,7-2.05c5.25,3.67,3.58,10.83,6.21,15.94c0.41,1.4,2.09,2.93,0.74,4.29
		c-6.89-1.85-8.28-10.28-8.07-16.4c-0.97,2.75-1.95,5.49-2.89,8.25c-0.76-0.02-2.28-0.06-3.04-0.08
		C165.27,212.76,164.55,209.24,165.95,206.07z"/>
	<path fill="#7F3809" d="M216.51,223.84c1.35-0.96,2.56-2.6,4.41-2.4c3.89-0.01,7.73,0.8,11.52,1.6
		C228.68,228.09,221.28,226.47,216.51,223.84z"/>
	<path fill="#7F3809" d="M191.18,226.24c0.73-0.15,2.18-0.45,2.9-0.6c-0.31,2.44,1.03,7.73-2.93,7.37
		C190.71,230.94,188.71,227.6,191.18,226.24z"/>
	<path fill="#7F3809" d="M177.41,236.07c1.23-1.18,2.46-2.36,3.7-3.52c0.64,2.25,0.99,4.56,1,6.9
		C180.41,238.53,178.84,237.38,177.41,236.07z"/>
	<path fill="#7F3809" d="M184.18,238.51c0.69-0.12,2.08-0.35,2.77-0.46c0.48,2.44,0.91,4.89,1.24,7.37
		c-1.4-0.81-3.32-1.17-4.05-2.78C184.04,241.26,184.13,239.88,184.18,238.51z"/>
	<path fill="#7F3809" d="M178.01,241.62c4.65,1.56,7.12,8.4,3.14,11.86C179.28,249.79,178.3,245.74,178.01,241.62z"/>
	<path fill="#7F3809" d="M190.22,248.72c3.51,6.52,4.76,13.98,6.55,21.1c-1.92,1.88-4.24,3.26-6.45,4.78
		c-1.24-2.36-2.64-4.63-4.11-6.85c-0.55-0.88-1.08-1.77-1.56-2.68c-1.01-2.51-1.13-5.26-1.52-7.9c1.83,0.21,3.66,0.43,5.49,0.65
		C189.04,254.76,189.54,251.72,190.22,248.72z"/>
	<path fill="#7F3809" d="M174,278.99c0.68-6.18,0.5-12.41,0.93-18.61c0.85,2.01,1.82,3.97,2.62,6c1.19,5.13,0.23,10.45,0.47,15.66
		c-0.06,5.41,2.2,10.53,2.06,15.94c0.1,5.79-1.31,12.01,1.63,17.36c2.06,3.94,3.13,8.28,3.39,12.71c-1.28-0.07-2.56-0.12-3.84-0.18
		c-4.84-5.3-6.18-12.56-7.72-19.32c0.46-5.93,0.06-11.87-0.21-17.79C173.23,286.82,173.57,282.9,174,278.99z"/>
	<path fill="#7F3809" d="M191.9,278.65c2.12,1.7,5.01,4.23,2.94,7.13c-0.41,0.05-1.23,0.15-1.64,0.2
		C192.03,283.72,192.02,281.13,191.9,278.65z"/>
	<path fill="#7F3809" d="M207.32,279.17c3.29-0.51,5.38,2.54,7.52,4.48c1.08-0.84,2.15-1.69,3.23-2.53c1.42,0.2,2.85,0.4,4.27,0.59
		c-0.77,2.63-0.88,5.39-0.19,8.06c1.11,4.61,1.01,9.37,0.39,14.05c-2.64,0.12-5.28,0.23-7.91,0.31c-0.27-3.02-0.48-6.05-0.64-9.09
		c-2.92-2.84-6.58-5.53-7.37-9.8C206.38,283.27,205.13,280.44,207.32,279.17z"/>
	<path fill="#7F3809" d="M187.93,289.23c-0.4-1.43-0.69-4.85,1.68-3.92c4.28,6.58,5.68,14.45,8.35,21.72
		c2.89,7.81,8.79,14.61,9.15,23.25c-6.21-1.92-7.59-9.09-10.4-14.12C192.05,307.8,190.88,298.2,187.93,289.23z"/>
	<path fill="#7F3809" d="M205.73,312.92c1.96-1.82,4-3.56,6.17-5.14c0.25,3.81,1.05,8.42-2.85,10.69
		C207.95,316.62,206.85,314.76,205.73,312.92z"/>
	<path fill="#7F3809" d="M183,331.27c1.49-1.91,4.16-1.08,6.24-1.4c-0.25,2.22-0.65,4.42-1.23,6.58
		C185.49,335.89,182.23,334.47,183,331.27z"/>
	<path fill="#7F3809" d="M222.27,332.54c3.44,2.7,5.01,6.87,6.95,10.63c-1.23,1.73-2.52,3.42-3.85,5.08
		c-2.01-3.57-4.53-7.05-5.25-11.15C220.65,335.49,221.5,334.03,222.27,332.54z"/>
	<path fill="#F6C51F" d="M176.36,51.92c1.13-1.38,1.8-3.72,3.84-3.93c1.4-0.39,2.53,0.6,3.65,1.25c-1.22,0.05-2.44,0.09-3.65,0.11
		c-0.19,1.28-0.38,2.56-0.57,3.84C178.54,52.77,177.45,52.34,176.36,51.92z"/>
	<path fill="#F6C51F" d="M201.27,69.36c1.26-1.68,3.63,0.54,2.07,1.92C202.09,72.99,199.71,70.74,201.27,69.36z"/>
	<path fill="#F6C51F" d="M198.25,78.02c1.87-0.62,2.73,2.53,0.79,2.94C197.17,81.55,196.31,78.44,198.25,78.02z"/>
	<path fill="#F6C51F" d="M166.09,80.01c1.22-0.21,2.14,0.21,2.77,1.24c0.13,3.28-0.59,6.51-1.03,9.74
		c-0.83-0.34-1.66-0.69-2.49-1.03C166.1,86.68,165.48,83.29,166.09,80.01z"/>
	<path fill="#F6C51F" d="M193.52,86.05c1.62,0,3.25,0.01,4.88,0.04c-0.93,1.45-0.92,4.39-3.27,3.97
		C194.39,88.81,193.99,87.41,193.52,86.05z"/>
	<path fill="#F6C51F" d="M177.3,93.65c1.79,0.07,1.05,3.69-0.63,3.02C175.77,95.85,176.16,94.06,177.3,93.65z"/>
	<path fill="#F6C51F" d="M154.86,93.61c3.83,0.23,3.36,4.03,3.22,6.83c-1.09-0.51-2.14-1.08-3.15-1.71
		C154.76,97.03,154.84,95.32,154.86,93.61z"/>
	<path fill="#F6C51F" d="M185.9,95.54c2.94,1.49,2.46,5.39,3.6,8.08c-1.14-0.95-2.31-1.87-3.3-2.96
		C185.86,98.97,185.93,97.24,185.9,95.54z"/>
	<path fill="#F6C51F" d="M174.9,115.55c-0.37-3.62-0.09-7.53,2.98-9.96C178.13,109.02,179.27,114.25,174.9,115.55z"/>
	<path fill="#F6C51F" d="M195.18,108.91c1.57-0.68,2.49,1.96,0.81,2.38C194.41,111.96,193.5,109.34,195.18,108.91z"/>
	<path fill="#F6C51F" d="M136.61,129.62c2.48-1.64,5.3-1.06,7.8,0.18C141.81,129.92,139.2,129.87,136.61,129.62z"/>
	<path fill="#F6C51F" d="M193.47,133.84c1.34-1.73,3.41-2.1,5.47-2.25c0,1.63-0.01,3.26-0.03,4.9
		C197.01,135.77,195.19,134.89,193.47,133.84z"/>
	<path fill="#F6C51F" d="M225.51,149.38c-2.67-2.8-0.45-6.35,1.32-8.94C226.6,143.44,226.15,146.43,225.51,149.38z"/>
	<path fill="#F6C51F" d="M202.06,145.71c0.13-1.48,0.93-2.76,1.59-4.04c0.52,1.93,0.98,3.87,1.39,5.83
		C204.02,146.94,203.03,146.35,202.06,145.71z"/>
	<path fill="#F6C51F" d="M232.03,144.35c0.32-1.6,1.95-2.06,3.17-2.78c-0.22,2.96-0.81,5.88-1.63,8.73
		C232.83,148.42,231.14,146.46,232.03,144.35z"/>
	<path fill="#F6C51F" d="M217.27,143.59c1.86,0.41,0.9,4.46-0.96,3.82C215.36,146.28,215.88,144.1,217.27,143.59z"/>
	<path fill="#F6C51F" d="M141.49,148.21c1.38-3.17,5.06-3.01,7.94-3.36C148.69,148.65,144.43,148.08,141.49,148.21z"/>
	<path fill="#F6C51F" d="M206.09,152.42c1.77-0.27,2.44,2.82,0.68,3.26C204.95,155.98,204.29,152.86,206.09,152.42z"/>
	<path fill="#F6C51F" d="M210.18,207.16c1.63-0.52,2.18,0.04,1.66,1.67C210.21,209.34,209.66,208.79,210.18,207.16z"/>
	<path fill="#7E0404" d="M220.17,71.79c3.84,0.58,8.06,1.17,10.79,4.26c4.54,4.78,9.2,10.43,9.22,17.39
		c-2.43,0.38-4.86,0.76-7.28,1.13c-0.51,1.17-1.01,2.34-1.51,3.51c0.9,0.84,1.81,1.69,2.72,2.54c1.57-1.54,3.13-3.09,4.67-4.66
		c1,0.24,2.01,0.49,3.01,0.74c0.92,3.03,2.07,5.99,3.6,8.76c-1.11,3.9,0.2,7.81,1.48,11.48c-4.82,3.56-11.58,7.24-17.19,3.08
		c1.86-1.8,3.74-3.57,5.64-5.34c-12.27-7.92-19.4-22.84-17.93-37.34C217.96,75.33,219.16,73.59,220.17,71.79z"/>
	<path fill="#7E0404" d="M209.37,82.12c1.89-0.57,2.24,1.72,2.48,3.06c-0.08,7.68-0.81,15.46,0.57,23.06
		c-1.91,1.06-4,1.68-6.16,1.97c-2.15-5.22-3.48-11.24-1.64-16.73C206.56,89.84,208.13,86.05,209.37,82.12z"/>
	<path fill="#7E0404" d="M217.57,189.38c0.98-5.23,4.55-9.5,8.39-12.98c1.21,3.2,2.62,6.32,4.08,9.42
		c0.93,6.75,3.02,13.36,3.06,20.22c0.11,4.52-1.67,8.76-3.42,12.84c-4.15,0.27-8.31,0.23-12.45-0.15c-0.33-5,0.02-9.99,0.44-14.97
		C218.06,198.96,217.01,194.16,217.57,189.38z"/>
	<path fill="#7E0404" d="M218.03,227.89c4.43,0.57,9.01,0.39,13.31,1.71c3.29,2.28,5.13,6.2,4.96,10.19
		c-1.79,0.58-3.58,1.15-5.36,1.72c-0.06,1.74-0.21,3.51,0.03,5.25c1.41,2.01,3.64,3.26,5.09,5.25c-1.15,3.86-5.28,5.35-8.79,6.33
		c-3.28,0.95-6.64-0.15-9.87-0.81c-0.22-3.96-0.48-7.93-1.29-11.82C214.62,239.73,216.74,233.7,218.03,227.89z"/>
	<path fill="#7E0404" d="M222.34,281.71c1.5,0.48,3,0.97,4.51,1.46c0.19,5.24,0.83,10.53,0.1,15.76c-1.1,5.05-3.94,9.47-6.12,14.09
		c-0.63-0.06-1.9-0.19-2.53-0.26c-1.45-2.77-2.68-5.66-3.67-8.63c2.63-0.08,5.27-0.19,7.91-0.31c0.62-4.68,0.72-9.44-0.39-14.05
		C221.46,287.1,221.57,284.34,222.34,281.71z"/>
</g>
</svg>
