<?xml version="1.0" encoding="utf-8"?>
<!-- Generator: Adobe Illustrator 17.0.0, SVG Export Plug-In . SVG Version: 6.00 Build 0)  -->
<!DOCTYPE svg PUBLIC "-//W3C//DTD SVG 1.1//EN" "http://www.w3.org/Graphics/SVG/1.1/DTD/svg11.dtd">
<svg version="1.1" id="Layer_1" xmlns="http://www.w3.org/2000/svg" xmlns:xlink="http://www.w3.org/1999/xlink" x="0px" y="0px"
	 width="401px" height="382px" viewBox="0 0 401 382" enable-background="new 0 0 401 382" xml:space="preserve">
<g>
	<path fill="#564E45" d="M325.729,185.028c3.36-2.83,4.88-7.03,6.22-11.07l0.25-0.67c-0.28,2.95-0.39,5.94-1.13,8.83
		c-2.81,4.9-4.68,10.57-9.15,14.29c0.69-2.42,1.44-4.82,2.11-7.24c-2.05,1.96-3.53,4.4-4.31,7.13c-0.57,0.75-1.15,1.49-1.75,2.22
		c-0.76-0.64-1.53-1.28-2.29-1.9c-0.34-0.26-1.01-0.78-1.35-1.03C318.329,192.288,321.799,188.408,325.729,185.028z"/>
	<path fill="#564E45" d="M299.179,287.848c0.82-1.04,2.84-0.56,3.03,0.78C302.109,290.708,298.209,289.708,299.179,287.848z"/>
	<path fill="#564E45" d="M296.599,291.888c1.62-0.53,2.18,0.02,1.66,1.66C296.629,294.068,296.079,293.508,296.599,291.888z"/>
	<path fill="#564E45" d="M354.739,296.898c0.87-1.39,3.23,0.07,2.15,1.42C356.019,299.718,353.659,298.258,354.739,296.898z"/>
	<path fill="#807164" d="M154.959,72.338c2.86-1.12,6.14-1.02,9.12-0.43c2.53,0.65,5.05,1.43,7.39,2.62
		c-2.15-0.51-4.34-0.84-6.52-1.18c-1.59,2.54-2.84,5.48-5.3,7.31c-1.72,0.47-3.52,0.45-5.27,0.59c1.52,2.22,2.99,4.47,4.36,6.79
		c-1.87-0.27-3.78-0.38-5.57-1.01c-1.88-3.14-2.89-6.72-4.5-10c1.43-1.19,2.94-2.25,4.44-3.34c-0.63,0.76-1.23,1.54-1.83,2.31
		c2.83,0.41,5.65,0.86,8.46,1.33c0.68-1.52,1.36-3.04,2.05-4.56c-2.52,0.03-5.04,0-7.56,0.1L154.959,72.338z"/>
	<path fill="#807164" d="M166.409,76.558c0.66,0.08,1.98,0.25,2.64,0.34c1.61,2.39,3.23,4.79,4.9,7.14
		c0.66-1.13,1.32-2.26,1.98-3.39c-0.08,5.99-1.43,11.87-2.15,17.81c-0.2-1.49-0.4-2.98-0.6-4.46c-2.44-0.43-4.86-0.87-7.29-1.33
		c0.09,1.06,0.18,2.12,0.26,3.19c-0.55-0.3-1.67-0.89-2.22-1.19c-0.62,1.87-1.33,3.73-1.53,5.69c3.16,2.46,7.06,3.76,10.19,6.27
		c2.04,1.58,2.67,4.19,3.56,6.48c1.71,5.37,6.33,8.97,9.3,13.59c2.73,3.6,4.66,7.98,8.37,10.72c5.49,2.93,12,1.39,17.87,0.78
		c-4.46,1.04-8.89,3.12-13.55,2.64c-5.85-1.36-9.15-6.88-12.35-11.47c-2.57-4-5.73-7.56-8.74-11.23c-2.39-2.78-2.09-6.85-4.22-9.74
		c-3.64-3.23-8.35-4.85-12.6-7.08c1.62-4.2,3.11-8.45,4.1-12.84c3.38,0.59,6.74,1.27,10.13,1.83c-2.76-3.37-6.6-5.5-10.02-8.1
		C164.719,80.218,165.639,78.398,166.409,76.558 M165.869,81.818c1.68-0.27,3.35-0.59,5.02-0.92c-0.47-0.72-1.41-2.15-1.87-2.87
		C167.719,79.078,166.689,80.378,165.869,81.818z"/>
	<path fill="#807164" d="M308.579,103.148c4.9-0.62,9.13-3.46,13.95-4.33c4.61-0.85,8.47,2.32,11.72,5.12
		c-2.76-1.5-5.56-3.08-8.65-3.77c-1.87,1.3-3.19,3.2-4.61,4.94c2.91-0.48,5.82-0.98,8.74-1.39c-2.18,2.61-4.63,4.98-7.24,7.16
		c1.15,1.51,2.29,3.01,3.44,4.51c-2.35,1.75-4.89,3.22-7.59,4.34c-0.07,1.9-0.12,3.79-0.17,5.69c-2.79-0.05-5.57-0.09-8.36-0.09
		c-0.54-2.03-1.1-4.06-1.57-6.11c2.1-3.27,6.76-3.78,9.91-5.87c-1.59-1.05-3.19-2.08-4.79-3.11c-1.54,1.86-2.64,4.75-5.35,5.06
		c-2.44,0.53-4.56-1.46-5.31-3.62C303.479,108.188,306.139,105.578,308.579,103.148 M312.719,103.858c2.16,2.37,4.46,4.63,7.13,6.45
		c-0.25-1.58-0.5-3.16-0.75-4.74c1.54-1.66,2.86-3.58,2.85-5.94C318.839,100.968,315.799,102.458,312.719,103.858 M309.179,105.318
		c-1.12,2.26-2.28,4.5-3.39,6.76c2.9-1.53,6.42-3.31,5.73-7.23C310.939,104.968,309.769,105.208,309.179,105.318z"/>
	<path fill="#807164" d="M145.489,100.568c0.54,0.17,1.61,0.52,2.15,0.69c1.42,1.48,2.89,2.92,4.4,4.32
		c0.39,8.26-0.61,16.49-0.96,24.74c-0.22,2.65,0.04,5.85-2.38,7.63c-1.42,1.7-3.71,1.6-5.7,1.74c-0.61-3.6-1.65-7.33-0.53-10.94
		c1.92-7.06,0.89-14.42,1.22-21.62c1.05-0.85,2.1-1.69,3.15-2.52C146.379,103.258,145.929,101.908,145.489,100.568 M146.349,106.738
		c0.01,0.8,0.04,2.39,0.05,3.19c1.44-0.35,2.88-0.72,4.32-1.1c-0.04-0.85-0.13-2.56-0.17-3.41
		C149.149,105.858,147.749,106.298,146.349,106.738 M145.039,111.718c0.52,1.16,1.05,2.31,1.58,3.46c1.69-0.83,3.26-1.89,4.56-3.27
		C149.129,111.808,147.079,111.748,145.039,111.718 M145.469,115.808c-0.03,3.85,0.09,7.74,1.08,11.48
		c-1.14,1.14-2.5,2.13-3.26,3.58c-0.32,2.98,1.58,5.51,3.2,7.81c1.03-1.5,2.57-2.92,2.54-4.89c0.12-5.6,0.33-11.2,0.35-16.81
		C148.069,116.588,146.769,116.198,145.469,115.808z"/>
	<path fill="#807164" d="M134.379,116.128c0.27-5.01,1.39-10,3.61-14.52c-0.32,3.4-0.83,6.77-1.6,10.09
		c2.59,4.07,3.7,8.82,2.89,13.62c-0.63,0.08-1.9,0.25-2.54,0.33C136.309,122.398,135.689,119.148,134.379,116.128z"/>
	<path fill="#807164" d="M325.659,112.558c1.13-2.39,2.72-6.57,6.13-5.27c1.9,1.73,3.18,4,4.59,6.12c-1.66,1.34-3.32,2.68-4.98,4.02
		c3.5,1.01,6.93,2.26,10.29,3.7c-1.04,1.74-2.13,3.46-3.23,5.15c1.83,1.53,3.87,2.91,5.3,4.86c1.65,2.5,2.47,5.47,4.3,7.86
		c2.6,3.15,6.85,4.37,9.38,7.57c3.23,5.12,3.32,11.81,0.99,17.3c-0.92,2.16-2.6,4.28-5.1,4.51c-5.7,1.26-11.24-0.79-16.66-2.21
		c-2.18,1.84-3.38,4.55-4.47,7.12l-0.25,0.67c0.44-1.77,0.82-3.56,1.22-5.34c-0.41-0.21-1.24-0.64-1.65-0.85
		c-0.93,0.86-1.87,1.72-2.78,2.61c1.33-4.02,4.33-6.98,7.96-8.99c-1.45-3.96-2.31-8.38-5.13-11.64c-2.86-2.1-6.29-3.25-9.47-4.79
		c-3.07-0.66-4.35,2.13-5.39,4.49c1.8,0.47,3.6,0.94,5.4,1.4c0.19-0.8,0.57-2.38,0.76-3.17c0.45,1.59,0.89,3.19,1.31,4.8
		c-2.64-0.29-5.79,0.07-7.77-2.11c-0.26-1.32,0-2.7,0.91-3.73c2.12-2.8,4.33-5.58,5.63-8.89c-2.35,1.81-4.75,3.65-6.5,6.07
		c-1.67,2.32-2.49,5.11-3.96,7.54c-2.75-1.46-5.19-3.49-8.13-4.57c-2.48-0.89-5.14-0.37-7.68-0.18c2.05,1.95,4.37,3.6,6.83,5
		c0.07,1.37,0.14,2.74,0.21,4.11c3.07,0.47,6.86-0.28,9.37,1.83c0.62,3.78,0.46,7.75,2.2,11.29c2.1,4.46,3.64,9.28,3.05,14.28
		c-2.71-8.47-5.42-16.97-7.4-25.65c-3.78-0.28-7.03,1.4-9.36,4.29c0.15-1.06,0.31-2.12,0.47-3.18c-1.27-0.26-2.53-0.53-3.79-0.79
		c-1.4-3.65-3.43-7-5.9-10.02c-2.44-2.66-1.37-6.47-1.35-9.71c3.75,1.98,7.85,3.34,11.19,6.04c2.58,2.12,5.98,2.45,9.16,2.93
		c0.13-2.72,0.73-5.5,0.2-8.21c-1.35-2.47-3.57-4.3-5.25-6.52c1.07-1.12,2.14-2.25,3.2-3.38c4.18,0.46,8.13,2.04,10.86,5.36
		c0.57-2.69,1.16-5.4,1.11-8.16c0.06-2.03-0.27-4.34,1.21-5.98c2.66-3.37,6.48-5.5,9.98-7.87
		C330.329,112.388,327.999,112.488,325.659,112.558 M324.049,124.878c1.2-0.36,2.4-0.72,3.61-1.08c-0.08-0.93-0.25-2.77-0.33-3.69
		C325.289,121.008,323.919,122.548,324.049,124.878 M331.099,121.588c-0.67,2.32-0.59,5.29-2.96,6.65c-2.96,1.71-3.59,5.17-4.5,8.18
		c4.74,2.3,9.41,5.88,14.96,5.41c-1.58-0.58-3.17-1.12-4.76-1.65c-0.24-0.75-0.73-2.24-0.97-2.99c2.2-0.08,4.4,0.23,6.49,0.93
		c0.34-0.7,0.69-1.4,1.04-2.1c-1.89-0.24-3.78-0.72-5.68-0.56c-1.69,1.11-3.09,2.59-4.62,3.9c-1.04-5.19,3.26-9.41,3.25-14.47
		C332.689,123.718,331.869,122.658,331.099,121.588 M308.629,133.798c0.47,2.02,3.13,1.56,4.67,2.23c-0.32,2.41-0.62,4.82-0.83,7.24
		c1.6-2.36,5.8-6.31,2.26-8.76C313.059,133.518,309.849,131.288,308.629,133.798 M323.519,139.268c-0.95,1.14-0.7,1.77,0.76,1.91
		C325.219,140.038,324.969,139.408,323.519,139.268 M342.319,138.348c-2.13,7.16,3.77,12.95,7.12,18.62c2.04-0.2,4.07-0.4,6.12-0.58
		c-0.13-2.23,0.48-4.84-1.14-6.67c-1.9-2.57-5.69-5-8.43-2.19C347.339,143.818,345.049,140.638,342.319,138.348 M333.229,147.868
		c0.55-0.07,1.65-0.21,2.21-0.28c0.05,0.38,0.17,1.13,0.22,1.51c2.25,2.35,4.14-3.05,0.91-2.49c0.78-0.9,1.38-1.93,2.04-2.92
		C336.279,144.308,333.979,145.358,333.229,147.868 M335.159,152.998c2.71-0.5,5.02-2,6.46-4.37
		C339.029,149.358,336.719,150.778,335.159,152.998 M338.749,152.908c-1.18,1.45,1.35,3.11,2.36,1.65
		C342.279,153.098,339.749,151.438,338.749,152.908 M339.499,155.868c-0.08,0.64-0.25,1.93-0.34,2.57c1.68-0.33,3.37-0.66,5.06-0.98
		c0.12-0.69,0.38-2.05,0.5-2.74C342.979,155.108,341.239,155.488,339.499,155.868 M342.589,158.838c-1.32,0.69-1.32,1.36-0.01,2.03
		C343.889,160.178,343.889,159.498,342.589,158.838 M342.449,162.788c0.39,1.09,0.8,2.18,1.21,3.27c1.93-1.73,3.13-4,3.74-6.5
		C345.729,160.608,344.079,161.688,342.449,162.788 M349.099,165.968c1.96-1.34,3.52-3.16,3.71-5.62
		C349.929,160.858,349.439,163.508,349.099,165.968z"/>
	<path fill="#807164" d="M157.119,107.638c3.57,0.76,7.94,0.82,10.38,3.96c1.19,2.68,0.58,5.75,0.6,8.6c3.1,1.64,6.39,2.92,9.41,4.7
		c3.24,2.37,5.54,5.73,8.13,8.74c-0.54,0.25-1.63,0.75-2.17,1c-2.74-2.26-5.47-4.52-8.32-6.63c0.15,0.61,0.46,1.83,0.61,2.43
		c-1.24-1.84-2.34-3.79-3.74-5.52c-1.77-0.33-1.74,1.92-2.39,3.02c-0.03-1.38-0.07-2.75-0.14-4.12c-0.64-0.08-1.92-0.22-2.55-0.29
		c-0.02,2.11,0.34,4.32-0.38,6.36c-2.12,2.75-5.25,4.48-7.8,6.81c1.83-0.06,3.66-0.12,5.49-0.27c-2.67,1.28-5.31,2.61-7.8,4.21
		c3.87,2.64,8.39,4.17,12.2,6.88c4.18,4.02,3.98,10.36,6.73,15.17c2.5,1.52,5.65,1.38,8.46,1.97c-3.12,0.37-6.24,0.74-9.35,1.13
		c-1.91-4.97-2.19-10.5-4.79-15.19c-2.88-4.72-9.17-4.65-13.33-7.67c-0.63-4.6-0.07-9.27-0.3-13.89
		C155.769,121.868,157.879,114.808,157.119,107.638 M159.059,109.378c0.4,1.42,0.36,3.09,1.33,4.3c-0.05,0.56-0.14,1.69-0.19,2.25
		c-0.47-0.2-1.43-0.61-1.91-0.82c1.61,3.52,4.22,6.4,7.07,8.95c0.55-1.16,1.1-2.32,1.65-3.48c-0.93-0.91-1.84-1.85-2.87-2.65
		l0.72,0.38c-0.01-0.73-0.04-2.18-0.05-2.91c0.4,0.15,1.2,0.44,1.6,0.59c0.03-1.43,0.06-2.86,0.09-4.29
		C164.079,110.748,161.599,109.928,159.059,109.378 M162.439,124.158c0.85,2.09,1.8,4.12,2.84,6.12c0.37-0.69,1.11-2.07,1.48-2.77
		C165.449,126.238,163.949,125.178,162.439,124.158z"/>
	<path fill="#807164" d="M338.179,110.858c2.66,8.51,10.99,13.59,18.98,16.34c4.33,1.47,7.28,5.1,10.44,8.2
		c-3.89-2.09-7.56,0.53-10.6,2.79c1.78-1.98,3.53-3.98,5.27-5.98c-2.21-2.03-4.53-4.27-7.61-4.77c-2.67-0.76-5.17,0.77-7.51,1.82
		c-0.16-2.28,0.37-5.02-1.47-6.77c-2.24-2.41-5.01-4.25-7.59-6.26C338.139,114.438,338.199,112.648,338.179,110.858z"/>
	<path fill="#807164" d="M51.219,111.838c2.01,4.12,1.94,8.88,3.92,13.01c1.59,3.47,3.58,6.73,5.51,10.01
		c1.35-4.22,2.32-9.1,6.11-11.89c1.69-1.49,4.77-1.79,5.81,0.62c3.34,4.31-0.16,9.27-2.26,13.23c1.02,1.27,2.55,2.33,2.79,4.05
		c0.9,5.16,1.33,10.43,2.91,15.45c-1.52-3.27-3.21-6.46-4.52-9.82c0.04-0.78,0.1-1.57,0.16-2.34c0.15-1.38,0.33-2.74,0.47-4.11
		c-0.8-0.01-2.39-0.05-3.19-0.07c-0.71-0.74-1.44-1.46-2.17-2.18c2.23-2.94,5.37-5.54,6.19-9.3c-0.26-2.35-1.52-4.46-2.58-6.52
		c-5.19,3.2-7.52,9.03-8.64,14.75c-1.26-0.65-2.52-1.3-3.78-1.94c-0.39-1.52-0.9-3.01-1.44-4.48c-0.34-0.91-0.72-1.81-1.15-2.68
		c-0.97-1.49-2.03-2.91-3.04-4.37c-0.23-0.36-0.67-1.07-0.9-1.43c-0.48-1.63-0.85-3.29-1.02-4.98c0.22-1.44,0.5-2.86,0.73-4.29
		L51.219,111.838z"/>
	<path fill="#807164" d="M135.419,127.688c1.28,3.14,3.23,6.22,3.21,9.71c-1.9,3.2-5.32,5.27-6.9,8.69
		c-0.29,2.4,0.42,4.76,0.82,7.11c1,4.59,1.22,9.47,3.62,13.64c0.79,2.02,2.71,4.11,1.84,6.39c-1.78,4.29-5.22,7.57-8.24,11
		c1.68-2.71,3-5.69,3.35-8.89c1.03-8.61-0.61-17.24-2.68-25.57c-1.39-5.23,3.86-8.78,6.72-12.35
		C136.519,134.188,135.989,130.938,135.419,127.688z"/>
	<path fill="#807164" d="M360.339,142.828c-0.32-3.05,1.48-5.23,3.96-6.7c0.75,1.27,1.5,2.53,2.26,3.8
		C365.019,141.898,362.829,142.838,360.339,142.828z"/>
	<path fill="#807164" d="M373.729,141.388c5.42,4.84,7.08,12.35,9.41,18.95c0.07,0.28,0.21,0.84,0.28,1.12
		c-1.18-1.94-2.71-3.61-4.4-5.11c-0.38,1.39-0.74,2.79-1.09,4.19c1.15,1.07,2.3,2.15,3.46,3.23c-0.33-0.04-1-0.12-1.33-0.16
		c-3.35-0.57-6.73-0.03-10.05,0.42c2.02,2.47,4.21,4.8,6.2,7.3c-2.39-1.31-5.31-2.19-6.74-4.7c-1.57-2.65-1.66-5.82-2.08-8.78
		c3.55-0.12,7.14,0.02,10.65-0.65c1.1-1.38,1.25-3.25,0.78-4.91C377.799,148.388,375.919,144.748,373.729,141.388z"/>
	<path fill="#807164" d="M365.309,146.848c1.31-0.42,2.63-0.83,3.97-1.23c-0.04,1.26-0.07,2.53-0.09,3.79
		c-0.95,0.42-1.9,0.84-2.84,1.27C365.999,149.398,365.649,148.128,365.309,146.848z"/>
	<path fill="#807164" d="M372.609,148.038c1.46-1.17,3.11,1.37,1.64,2.36C372.779,151.568,371.129,149.038,372.609,148.038z"/>
	<path fill="#807164" d="M12.729,158.818c0.78-3.06,1.88-6.02,3.01-8.96c-0.69,5.72-1.9,11.36-3.26,16.96
		c-0.5,3.07-1.71,6.65,0.33,9.44c2.58,3.88,5.83,7.32,7.91,11.54c0.14,0.26,0.4,0.79,0.54,1.05c1.3,2.51,2.86,5.47,5.87,6.14
		c3.75,0.27,7.55-0.75,11.28,0.19c-0.13,0.59-0.37,1.77-0.49,2.36c-0.65,0.21-1.94,0.63-2.59,0.84c-0.05-0.58-0.15-1.75-0.2-2.33
		c-2.37,0.39-4.76,1.13-7.18,0.9c-4.15-0.87-6.97-4.39-8.52-8.12c-2.08-4.95-5.71-8.93-8.66-13.34c-0.63-1.02-0.98-2.22-0.82-3.41
		C10.379,167.568,11.739,163.218,12.729,158.818z"/>
	<path fill="#807164" d="M138.059,152.368c0.26-1.66,2.07-2.22,3.2-3.16c0.44,3.69,0.91,7.37,1.19,11.07
		c-0.46,4.8-1.11,9.59-1.12,14.43c-0.16,4.03,0.24,8.42-1.99,12.01c-4.14,6.69-10.81,11.17-15.73,17.21
		c-4.95,6.07-10.46,11.73-14.54,18.46c2.68,3.27,4.98,6.82,7.42,10.27c2.3,3.36,6.16,5.04,9.79,6.56c-2.84,0.03-5.79-0.37-8.08-2.21
		c-2.63-1.57-3.46-4.69-4.89-7.21c-1.29-2.77-3.81-4.62-6.09-6.53c3.94-7.31,9.98-13.17,15.04-19.69
		c5.13-6.86,13.28-11.24,17.01-19.15c1.48-6.59,1.13-13.46,1.07-20.18c-0.87-0.65-1.74-1.3-2.61-1.94
		C137.889,158.998,137.489,155.648,138.059,152.368z"/>
	<path fill="#807164" d="M26.449,165.808c1.16-0.27,2.32-0.54,3.48-0.8c0.24,0.37,0.73,1.11,0.98,1.48
		c-0.89,2.2-1.55,4.48-2.18,6.77l-0.29,1.02c-0.15-0.26-0.46-0.76-0.61-1.02c-0.72-1.23-1.48-2.44-2.23-3.64
		c-0.07-1.2-0.1-2.4-0.08-3.6L26.449,165.808z"/>
	<path fill="#807164" d="M369.109,179.078c2.14,0.41,4.28,0.83,6.42,1.26c-1.41,0.94-2.85,1.81-4.28,2.7
		c0.39,1.77,0.8,3.53,1.17,5.31c-1.33-0.13-2.66-0.26-3.97-0.39c-1.44,4.05-2.18,8.31-2.22,12.6c-0.76,11.15-0.48,22.75-4.77,33.28
		c-2.59-0.91-5.18-1.83-7.78-2.69c1.98-9.78,3.93-19.59,4.63-29.55c-2.81,9.36-4.25,19.06-6.94,28.46c-1.06-0.55-2.12-1.1-3.17-1.65
		c2.05-9.3,5.48-18.33,6.18-27.9c-2.69,5.91-3.6,12.39-5.64,18.51c-0.6,2.34-2.57,3.84-4.38,5.26c0.76-5.13,2.42-10.07,3.1-15.22
		c-2.42,4-3.73,8.51-4.71,13.05c-1.14,0.19-2.29,0.38-3.43,0.57c1.66-7.38,5.4-14.11,6.76-21.58c-2.19,3.4-3.92,7.07-5.26,10.87
		c-0.75-0.9-1.5-1.79-2.26-2.68c2.81-7.43,6.98-14.25,9.62-21.76c4.84-0.67,9.57-1.94,14.03-3.97c2.43-1.29,5.08-0.17,7.52,0.49
		C369.509,182.388,369.299,180.738,369.109,179.078 M354.309,200.318c3.47-1.58,2.61-5.87,2.92-8.96
		C355.529,194.068,354.509,197.128,354.309,200.318 M350.699,194.148c-1.59,4.42-2.07,9.15-2.32,13.81
		c2.27-4.9,3.84-10.15,4.06-15.57C351.999,192.828,351.129,193.708,350.699,194.148 M345.609,196.288
		c-1.15,0.24-1.82,1.98-0.91,2.82C346.329,199.938,347.489,196.438,345.609,196.288 M362.379,206.348
		c2.12-3.14,0.75-7.46,0.81-11.05C362.259,198.728,360.039,203.228,362.379,206.348 M341.559,204.248c-0.95,1.13-0.7,1.77,0.75,1.92
		C343.249,205.028,342.999,204.398,341.559,204.248 M360.849,207.918c-0.53,7.45-2.68,14.75-2.31,22.25
		c3.08-6.91,3.08-14.71,3.8-22.13C361.969,208.008,361.219,207.948,360.849,207.918z"/>
	<path fill="#807164" d="M321.919,196.408c4.47-3.72,6.34-9.39,9.15-14.29c2.11,1.38,4.21,2.76,6.32,4.14
		c-2.24,5.81-6.41,10.48-10.18,15.31c-3.62,4.5-6.03,10.62-11.98,12.53c2.13-7.23,8.71-11.77,11.49-18.65
		c-3.99,3.26-6.9,7.53-9.93,11.64c-1.34,1.99-3.51,3.07-5.62,4.04c1.07-5.98,7.4-8.91,8.55-14.83c0.78-2.73,2.26-5.17,4.31-7.13
		C323.359,191.588,322.609,193.988,321.919,196.408 M327.439,194.868c3.22-1.28,4.8-4.38,5.74-7.52
		C330.629,189.308,328.629,191.878,327.439,194.868 M325.579,199.938C323.959,202.868,328.909,200.178,325.579,199.938
		 M320.469,206.048C318.859,208.988,323.799,206.268,320.469,206.048z"/>
	<path fill="#807164" d="M118.359,199.638c3.53-3.5,6.65-7.4,9.12-11.72c-1.44,4.4-3.93,8.35-7.27,11.56
		c-5.54,5.46-9.39,12.54-15.79,17.13c-2.46,1.84-5.32,3.56-6.39,6.63c3.9,2.53,8.42,4.81,10.04,9.53
		c-7.33-2.59-14.74-5.3-21.23-9.64c4.78,1.64,9.49,3.5,14.26,5.2c-1.38-2.07-3.5-3.9-3.75-6.52c0.67-2.74,3.64-3.91,5.63-5.58
		C109.429,212.018,113.029,204.988,118.359,199.638z"/>
	<path fill="#807164" d="M269.829,187.378c2.62,0.85,5.21,1.86,7.6,3.26c-2.11-0.57-4.25-0.99-6.37-1.43
		c0.16,3.24,0.32,6.47,0.49,9.71c-1.93,0.67-3.86,1.41-5.87,1.75c-1.58-1.73-2.34-3.99-3.15-6.14c-2.03,1-4.11,1.9-6.22,2.73
		c-2.13,2.39-4.42,4.64-6.68,6.91c1.72-2.4,3.36-4.86,5.04-7.28c-0.84-1.11-1.68-2.21-2.51-3.31
		C258.369,192.568,264.329,190.438,269.829,187.378 M266.549,190.818c-0.41,0.51-1.23,1.52-1.65,2.02c0.89,0.85,1.78,1.69,2.67,2.53
		c0.32-1.12,0.63-2.24,0.95-3.36C268.029,191.708,267.039,191.118,266.549,190.818 M264.539,195.888c-0.54,1.62,0.01,2.18,1.65,1.67
		C266.719,195.938,266.169,195.378,264.539,195.888z"/>
	<path fill="#807164" d="M334.329,195.518c1.45-2.71,3.06-5.34,4.85-7.84c0.73,0.75,1.48,1.51,2.23,2.27
		c1.4-0.9,2.82-1.75,4.28-2.56c-0.26,1.81-0.36,3.72-1.21,5.39c-2.73,5.55-5.7,10.98-8.48,16.5c-1.81,3.41-2.53,7.76-6.16,9.83
		c-0.3-0.61-0.92-1.84-1.22-2.46c3.56-7.44,8.48-14.26,11.11-22.13c-1.2,0.59-2.38,1.19-3.55,1.79c0.1-0.34,0.32-1.03,0.42-1.38
		C336.029,195.078,334.899,195.368,334.329,195.518 M338.459,191.018c-1.4-0.07-1.75,2.38-0.2,2.38
		C339.639,193.468,339.989,191.018,338.459,191.018 M332.529,212.038c-1.41-0.09-1.74,2.36-0.19,2.35
		C333.749,214.478,334.069,212.018,332.529,212.038z"/>
	<path fill="#807164" d="M368.889,189.768c4.19,4.93,2.04,11.93,2.62,17.83c0.02,9.55-0.23,19.1-0.62,28.65
		c-1.09,0.01-2.18,0.03-3.26,0.06c-0.49-3.22-0.75-6.47-0.48-9.72c0.63-8.2,0.76-16.43,1.24-24.65
		C368.509,197.878,368.489,193.808,368.889,189.768z"/>
	<path fill="#807164" d="M227.559,192.668c1.67,6.84,1.51,13.94,2.33,20.89c-0.01,2.35,2.55,2.85,4.18,3.79
		c0.5-1.27,1.01-2.53,1.52-3.79c-1.67-2.51-3.37-5-4.79-7.65c0.15-0.26,0.47-0.76,0.62-1.02c1.87,2.97,3.81,5.89,5.73,8.82
		c-0.82,1.59-1.64,3.17-2.44,4.77c1.48,2.35,2.73,4.85,3.38,7.57c-5.16-2.86-9.62-7.78-9.95-13.92
		C227.909,205.628,225.609,199.118,227.559,192.668z"/>
	<path fill="#807164" d="M274.589,192.248c2.77,1.04,4.86,3.14,6.28,5.71c-2.26,0.38-4.39-0.46-6.43-1.3
		C274.479,195.188,274.529,193.718,274.589,192.248z"/>
	<path fill="#807164" d="M315.679,196.618c0.76,0.62,1.53,1.26,2.29,1.9c-2.86,3.33-5.9,6.53-8.85,9.79
		c-0.56-0.03-1.67-0.1-2.23-0.13c-0.05-0.56-0.15-1.69-0.2-2.25C309.779,202.918,312.789,199.828,315.679,196.618z"/>
	<path fill="#807164" d="M283.269,197.538c3.25,5.4,0.95,11.46-0.98,16.84c-1.95,0.62-3.91,1.24-5.87,1.85
		c3.2,2.16,6.08,4.91,7.3,8.69c-2.44-3.5-6.14-5.7-9.98-7.34c0.27-1.89,0.54-3.79,0.81-5.69c-2.62-0.14-5.24-0.28-7.85-0.42
		c-0.48-0.87-0.95-1.74-1.42-2.61c1.88-0.57,3.77-1.13,5.66-1.69c1.04-1.95,2.07-3.91,3.12-5.86c2.04,1.48,4.44,2.71,5.83,4.88
		c0.33,2.69-0.76,5.3-1.3,7.89c0.75-0.01,2.26-0.05,3.01-0.07C283.539,208.748,284.479,203.078,283.269,197.538z"/>
	<path fill="#807164" d="M241.429,200.668c2.33,3.61,2.79,8.24,5.67,11.49c2.49,1.51,5.53-0.2,8.15-0.53
		c-1.91-2.41-3.98-4.67-6.09-6.89c2.7,1.61,5.42,3.19,8.12,4.82c-0.83,1.39-1.65,2.78-2.47,4.17c2.78,0.17,5.56,0.35,8.35,0.61
		c-1.15,1.5-2.11,3.78-4.34,3.74c-4.25,0.05-8.01-2.42-11.66-4.31C242.579,211.148,242.469,205.238,241.429,200.668z"/>
	<path fill="#807164" d="M324.089,216.628c0.48-4.7,2.9-8.8,5.4-12.69c-0.34,2.07-0.48,4.16-0.68,6.25
		c-0.24,2.14-0.83,4.22-1.35,6.31C326.619,216.528,324.929,216.598,324.089,216.628 M326.559,211.968
		C324.979,214.928,329.889,212.138,326.559,211.968z"/>
	<path fill="#807164" d="M32.109,226.898c-0.36-6.3-1.25-12.6-0.92-18.91c1.21,0.75,2.43,1.48,3.66,2.22
		c0.2,1.43,0.41,2.85,0.59,4.28c-0.67-0.15-2.01-0.46-2.68-0.62C32.739,218.218,32.349,222.548,32.109,226.898z"/>
	<path fill="#807164" d="M373.839,208.698c0.47,7.82,0.79,15.65,0.92,23.48c0.07,3.74-0.75,7.43-1.7,11.03
		c-3.21,0.22-6.42,0.44-9.63,0.66c2.91,7.42,6.13,14.73,8.08,22.48c1.79,6.81,7.2,11.56,12.21,16.1c4.02,3.43,6.22,8.43,7.37,13.49
		c-0.7,2.08-2.35,3.58-3.94,4.99c0.93-2.93,2.5-6.18,1.1-9.23c-1.25-2.66-2.79-5.73-5.74-6.78c-1.36,0.47-2.61,1.25-3.62,2.26
		c-0.49,2.36-0.31,4.78-0.36,7.17c-4.59-2.43-5.74-7.64-6.77-12.29c-1.12-5.6-4.95-10.25-5.76-15.93c-0.7-4.27-1.13-8.7-3.21-12.58
		c-2.59-5.9-7.47-10.27-10.91-15.61c6.62,2.01,13.19,4.6,20.24,4.43c0.54-3.23,1.13-6.46,1.43-9.72
		C374.379,224.668,372.649,216.658,373.839,208.698z"/>
	<path fill="#807164" d="M248.579,216.758c0.65,0,1.94,0,2.59,0.01c0.47,1.59,0.96,3.19,1.44,4.79c-0.84-0.32-1.67-0.63-2.49-0.94
		c-0.15,1.41-0.14,2.89-0.86,4.17c-1.18,0.08-2.12-0.36-2.82-1.3C246.459,221.078,247.709,218.938,248.579,216.758z"/>
	<path fill="#807164" d="M259.599,224.888c1.63-0.52,2.18,0.04,1.66,1.67C259.619,227.068,259.069,226.508,259.599,224.888z"/>
	<path fill="#807164" d="M244.599,225.888c1.62-0.52,2.18,0.03,1.66,1.66C244.629,228.068,244.079,227.508,244.599,225.888z"/>
	<path fill="#807164" d="M330.119,244.868c-0.32-2.79-2.23-6.72,1.28-8.26c3.91,2.29,5.64,6.7,7.67,10.5
		c-0.97,0.15-1.94,0.29-2.91,0.44c-0.88,9.78-5.08,18.89-6.22,28.62c-1.08,9.27,6.36,18.59,1.29,27.52
		c0.69-6.66,0.88-13.78-2.9-19.64c0.13,2.67,0.36,5.33,0.61,8c-0.63,0.13-1.89,0.4-2.52,0.54c-1.18-2.66-2.48-5.37-2.53-8.34
		c-0.16-6.68,0.41-13.6,3.48-19.65C330.299,258.508,331.529,251.528,330.119,244.868z"/>
	<path fill="#807164" d="M235.749,242.778c0.74,0.01,2.22,0.01,2.96,0.02c-3.75,6.98-4.34,15.65-10.24,21.38
		C227.059,256.058,233.939,250.198,235.749,242.778z"/>
	<path fill="#807164" d="M366.049,282.288c2.04,3.3,4.12,7.17,3.06,11.17c-1.24,3.84-3.7,7.14-5.5,10.73
		c-1.72-1.23-3.45-2.46-5.17-3.68c1.6-0.39,3.2-0.78,4.8-1.16c0.43-1.86,0.85-3.72,1.29-5.57c1.05,0.34,2.09,0.68,3.15,1.03
		C367.619,290.588,367.399,286.318,366.049,282.288z"/>
	<path fill="#807164" d="M74.179,296.328c3.1-1.56,6.25-3.05,9.4-4.52c-0.27,0.79-0.55,1.59-0.83,2.38
		c-1.57,0.75-3.15,1.51-4.72,2.27c1.9,1.92,4.02,3.62,6.34,5c-0.16-1.38-0.34-2.75-0.56-4.12c0.59,1.72,1.12,3.46,1.61,5.22
		C80.649,302.898,77.419,299.178,74.179,296.328z"/>
	<path fill="#807164" d="M56.639,293.698c2.99,0.02,6.09-0.22,8.96,0.79c2.52,0.69,2.49,3.69,3.25,5.71
		c-1.73-0.21-3.45-0.44-5.18-0.66c0.96,2.84,2.51,5.43,4.66,7.52c4.31-1.23,8.77-0.6,13.13,0c2.78,0.5,5.19-1.28,7.6-2.34
		c-2.09,2.38-4.58,5.03-8.06,4.7c-9.69-0.25-19.47,1.17-29.07-0.72c4.54-0.56,9.12-0.66,13.69-0.66c-2.29-2.59-4.59-5.18-7.13-7.53
		c1.15,0.46,2.31,0.9,3.47,1.32c-0.29-2.24-0.66-4.46-1.03-6.68c-1.68,0.16-3.35,0.32-5.03,0.48c0.24,1.11,0.48,2.23,0.71,3.35
		c-0.35-0.29-1.05-0.88-1.4-1.17c-0.93-0.8-1.84-1.62-2.75-2.43C53.849,294.798,55.239,294.218,56.639,293.698z"/>
	<path fill="#807164" d="M383.609,295.888c1.62-0.52,2.17,0.03,1.65,1.66C383.629,298.068,383.079,297.508,383.609,295.888z"/>
	<path fill="#807164" d="M350.569,300.128c1.39-0.43,1.87,0.05,1.44,1.45C350.599,302.018,350.119,301.528,350.569,300.128z"/>
	<path fill="#807164" d="M368.589,301.128c1.85,0.12,1.62,3.31-0.15,3.39C366.569,304.388,366.809,301.208,368.589,301.128z"/>
	<path fill="#010101" d="M153.109,73.688c0.28-0.2,0.84-0.61,1.12-0.82c2.52-0.1,5.04-0.07,7.56-0.1c-0.69,1.52-1.37,3.04-2.05,4.56
		c-2.81-0.47-5.63-0.92-8.46-1.33C151.879,75.228,152.479,74.448,153.109,73.688z"/>
	<path fill="#010101" d="M159.649,80.658c2.46-1.83,3.71-4.77,5.3-7.31c2.18,0.34,4.37,0.67,6.52,1.18
		c1.86,1.73,3.18,3.95,4.46,6.12c-0.66,1.13-1.32,2.26-1.98,3.39c-1.67-2.35-3.29-4.75-4.9-7.14c-0.66-0.09-1.98-0.26-2.64-0.34
		c-0.77,1.84-1.69,3.66-1.97,5.65c3.42,2.6,7.26,4.73,10.02,8.1c-3.39-0.56-6.75-1.24-10.13-1.83c-0.99,4.39-2.48,8.64-4.1,12.84
		c4.25,2.23,8.96,3.85,12.6,7.08c2.13,2.89,1.83,6.96,4.22,9.74c3.01,3.67,6.17,7.23,8.74,11.23c3.2,4.59,6.5,10.11,12.35,11.47
		c4.66,0.48,9.09-1.6,13.55-2.64c4.09-0.97,8.2-1.98,12.16-3.41c4.28-1.61,6.94-5.57,9.59-9.06c0.73,0.19,2.2,0.58,2.93,0.77
		c-1.53,4.09-4.41,8.08-2.97,12.66c-2.98-0.44-6.09-1.54-9.06-0.49c-9.06,3.05-18.06,6.54-27.5,8.21c-3.23,0.87-5.21-2.41-7.21-4.31
		c-4-4.75-10.27-7.03-13.87-12.13c-0.15-0.6-0.46-1.82-0.61-2.43c2.85,2.11,5.58,4.37,8.32,6.63c0.54-0.25,1.63-0.75,2.17-1
		c-2.59-3.01-4.89-6.37-8.13-8.74c-3.02-1.78-6.31-3.06-9.41-4.7c-0.02-2.85,0.59-5.92-0.6-8.6c-2.44-3.14-6.81-3.2-10.38-3.96
		c0.76,7.17-1.35,14.23-1.05,21.4c0.23,4.62-0.33,9.29,0.3,13.89c4.16,3.02,10.45,2.95,13.33,7.67c2.6,4.69,2.88,10.22,4.79,15.19
		c3.11-0.39,6.23-0.76,9.35-1.13c0.71,4.32,0.68,8.74,1.5,13.04c5.83,3.11,12.63-1.96,18.55,0.48c1.99,4.92,1.44,10.59,0.84,15.76
		c-5.34,2.95-11.79,1.79-17.64,2.47c-0.97,8.42-0.22,16.9-0.03,25.35c1.23,11.25,0.98,22.59,2.14,33.85
		c1.71,0.11,3.42,0.21,5.14,0.3c0.52,1.76,0.98,3.56,1.72,5.25c2.78,1.21,5.87,1.28,8.82,1.8c0.09,2.14,0.19,4.28,0.31,6.42
		c3.48,0.16,6.94,0.59,10.4,0.94c0.08,2.01,0.03,4.04,0.39,6.03c2.46,1.56,5.48,1.63,8.28,2c-2.77-5.84-8.93-11.14-7.18-18.22
		c2.94-10.74,13.29-16.34,21.24-23.01c-4.44-2.1-9.02-4.23-12.39-7.92c-4.91-4.75-6.97-11.42-9.1-17.7
		c-0.52-1.91-1.47-4.03-0.45-5.95c1.44-3.04,2.31-6.29,2.78-9.62c0.36-3.3,3.35-5.23,5.43-7.47c1.02,1.38,2.05,2.76,2.97,4.21
		c-1.95,6.45,0.35,12.96,0.58,19.46c0.33,6.14,4.79,11.06,9.95,13.92c-0.65-2.72-1.9-5.22-3.38-7.57c0.8-1.6,1.62-3.18,2.44-4.77
		c-1.92-2.93-3.86-5.85-5.73-8.82c1.68-2.43,3.58-4.69,5.46-6.96c1.55,0.85,3.16,1.63,4.55,2.74c1.04,4.57,1.15,10.48,5.73,13.1
		c3.65,1.89,7.41,4.36,11.66,4.31c2.23,0.04,3.19-2.24,4.34-3.74c-2.79-0.26-5.57-0.44-8.35-0.61c0.82-1.39,1.64-2.78,2.47-4.17
		c-2.7-1.63-5.42-3.21-8.12-4.82l0.47-0.57c2.26-2.27,4.55-4.52,6.68-6.91c2.11-0.83,4.19-1.73,6.22-2.73
		c0.81,2.15,1.57,4.41,3.15,6.14c2.01-0.34,3.94-1.08,5.87-1.75c-0.17-3.24-0.33-6.47-0.49-9.71c2.12,0.44,4.26,0.86,6.37,1.43
		c2.39,1.84,4.48,4.19,5.84,6.9c1.21,5.54,0.27,11.21-1.67,16.47c-0.75,0.02-2.26,0.06-3.01,0.07c0.54-2.59,1.63-5.2,1.3-7.89
		c-1.39-2.17-3.79-3.4-5.83-4.88c-1.05,1.95-2.08,3.91-3.12,5.86c-1.89,0.56-3.78,1.12-5.66,1.69c0.47,0.87,0.94,1.74,1.42,2.61
		c2.61,0.14,5.23,0.28,7.85,0.42c-0.27,1.9-0.54,3.8-0.81,5.69c3.84,1.64,7.54,3.84,9.98,7.34c0.85,3.05-1.65,5.54-3.5,7.62
		c-5.49,5.82-14.81,4.1-20.72,9.23c-2.36,2.26-3.03,5.61-3.8,8.65c-1.52,6.6-3.06,13.2-4.7,19.78c3.89-0.95,7.7-2.29,11.68-2.88
		c4.02-0.57,7.81,1.26,11.76,1.58c3.21,0.09,6.35-0.9,9.56-0.78c1.66,2.01,1.78,4.72,2.08,7.2c0.37,4.01,1.1,8.03,0.74,12.07
		c-0.3,3.43-3.13,5.7-5.54,7.79c-3.85-3.9-2.96-10.87-8.14-13.55c-3.5-1.32-7.17,0.36-10.5,1.45c2.23,1.44,4.5,2.82,6.77,4.19
		c-0.79,6.53-4.52,12.11-8.11,17.43c-1.95,2.76-5.7,2.48-8.67,3.01c0.14-4.43,0.82-8.82,2.04-13.08c-2.96-2.95-6.61-5.13-10.78-5.75
		c-6.32-1.09-11.09-5.64-16.83-8.08c-0.18,4.44,0.05,8.88,0.56,13.29c0.15,3.01,0.82,6.29-0.7,9.07c-3.87,1.77-8.28,0.95-12.39,1.35
		c-6.29,0.57-12.61,0.44-18.9,1.02c-6.92,0.77-13.9,0.23-20.84,0.52c-10.81,0.52-21.65-0.27-32.43,0.77
		c-1.89,0.53-2.12-1.94-2.39-3.23c-0.66-7.13-2.54-14.29-1.28-21.46c2.94-0.51,5.88-0.96,8.84-1.34c0.62-2.82,1.24-5.63,1.81-8.45
		c2.55-0.05,5.1-0.07,7.64-0.12c0.65-3.24,1.25-6.49,1.95-9.72c-7.18-3.09-14.6-5.57-21.74-8.75c-8.35-3.11-16.29-7.29-24.85-9.84
		c-1.72,4.86-3.1,9.88-5.37,14.52c-0.74,1.64-2.66,2.36-4.34,1.84c-4.63-1.21-8.85-3.57-13.08-5.74c2.33-5.86,4.73-11.7,6.47-17.77
		c-3.84-1.64-7.61-3.42-11.38-5.22c0.46-2.87,1.19-5.68,2.2-8.41c6.49,4.34,13.9,7.05,21.23,9.64c-1.62-4.72-6.14-7-10.04-9.53
		c1.07-3.07,3.93-4.79,6.39-6.63c6.4-4.59,10.25-11.67,15.79-17.13c3.34-3.21,5.83-7.16,7.27-11.56c0.72-1.26,1.49-2.49,2.29-3.69
		c3.02-3.43,6.46-6.71,8.24-11c0.87-2.28-1.05-4.37-1.84-6.39c-2.4-4.17-2.62-9.05-3.62-13.64c-0.4-2.35-1.11-4.71-0.82-7.11
		c1.58-3.42,5-5.49,6.9-8.69c0.02-3.49-1.93-6.57-3.21-9.71c-0.81-3.79-1.36-7.68-1.04-11.56c1.31,3.02,1.93,6.27,2.36,9.52
		c0.64-0.08,1.91-0.25,2.54-0.33c0.81-4.8-0.3-9.55-2.89-13.62c0.77-3.32,1.28-6.69,1.6-10.09c2.59-5.63,9.73-4.75,14.87-5.06
		c0.36-2.13,0.78-4.52-1.17-6.04c-3.21-3.42-6.95-9.25-3.02-13.48c1.61,3.28,2.62,6.86,4.5,10c1.79,0.63,3.7,0.74,5.57,1.01
		c-1.37-2.32-2.84-4.57-4.36-6.79C156.129,81.108,157.929,81.128,159.649,80.658 M145.489,100.568c0.44,1.34,0.89,2.69,1.35,4.04
		c-1.05,0.83-2.1,1.67-3.15,2.52c-0.33,7.2,0.7,14.56-1.22,21.62c-1.12,3.61-0.08,7.34,0.53,10.94c1.99-0.14,4.28-0.04,5.7-1.74
		c2.42-1.78,2.16-4.98,2.38-7.63c0.35-8.25,1.35-16.48,0.96-24.74c-1.51-1.4-2.98-2.84-4.4-4.32
		C147.099,101.088,146.029,100.738,145.489,100.568 M138.059,152.368c-0.57,3.28-0.17,6.63-0.33,9.94c0.87,0.64,1.74,1.29,2.61,1.94
		c0.06,6.72,0.41,13.59-1.07,20.18c-3.73,7.91-11.88,12.29-17.01,19.15c-5.06,6.52-11.1,12.38-15.04,19.69
		c2.28,1.91,4.8,3.76,6.09,6.53c1.43,2.52,2.26,5.64,4.89,7.21c2.29,1.84,5.24,2.24,8.08,2.21c6.79,2.33,13.15,5.77,20.03,7.86
		c7.29,2.34,14.17,5.73,21.2,8.73c3.2,1.46,6.76,1.47,10.21,1.44c1.54-4.88,0.18-9.86,0.25-14.82c-0.07-6.9-1.13-13.75-1.04-20.66
		c0.26-8.19-2.1-16.17-1.91-24.35c-0.62-6.67,0.14-13.83-3.21-19.92c-1.56-3.31-3.71-6.32-6.29-8.9
		c-4.29-4.08-4.33-10.38-6.76-15.45c-2.7,0.13-5.41,0.43-8.12,0.23c-2.26-0.54-4.31-1.73-6.47-2.55c-0.81,3.1-1.33,6.27-1.72,9.45
		c-0.28-3.7-0.75-7.38-1.19-11.07C140.129,150.148,138.319,150.708,138.059,152.368 M274.589,192.248
		c-0.06,1.47-0.11,2.94-0.15,4.41c2.04,0.84,4.17,1.68,6.43,1.3C279.449,195.388,277.359,193.288,274.589,192.248 M248.579,216.758
		c-0.87,2.18-2.12,4.32-2.14,6.73c0.7,0.94,1.64,1.38,2.82,1.3c0.72-1.28,0.71-2.76,0.86-4.17c0.82,0.31,1.65,0.62,2.49,0.94
		c-0.48-1.6-0.97-3.2-1.44-4.79C250.519,216.758,249.229,216.758,248.579,216.758 M259.599,224.888c-0.53,1.62,0.02,2.18,1.66,1.67
		C261.779,224.928,261.229,224.368,259.599,224.888 M244.599,225.888c-0.52,1.62,0.03,2.18,1.66,1.66
		C246.779,225.918,246.219,225.368,244.599,225.888 M235.749,242.778c-1.81,7.42-8.69,13.28-7.28,21.4
		c5.9-5.73,6.49-14.4,10.24-21.38C237.969,242.788,236.489,242.788,235.749,242.778z"/>
	<path fill="#010101" d="M165.889,92.668c2.43,0.46,4.85,0.9,7.29,1.33c0.2,1.48,0.4,2.97,0.6,4.46c-2.64-0.55-5.24-1.33-7.63-2.6
		C166.069,94.788,165.979,93.728,165.889,92.668z"/>
	<path fill="#010101" d="M312.719,103.858c3.08-1.4,6.12-2.89,9.23-4.23c0.01,2.36-1.31,4.28-2.85,5.94
		c0.25,1.58,0.5,3.16,0.75,4.74C317.179,108.488,314.879,106.228,312.719,103.858z"/>
	<path fill="#010101" d="M325.599,100.168c3.09,0.69,5.89,2.27,8.65,3.77c2.04,1.8,2.99,4.45,3.93,6.92
		c0.02,1.79-0.04,3.58-0.09,5.37c2.58,2.01,5.35,3.85,7.59,6.26c1.84,1.75,1.31,4.49,1.47,6.77c2.34-1.05,4.84-2.58,7.51-1.82
		c3.08,0.5,5.4,2.74,7.61,4.77c-1.74,2-3.49,4-5.27,5.98c3.04-2.26,6.71-4.88,10.6-2.79c2.06,1.98,4.09,3.98,6.13,5.99
		c2.19,3.36,4.07,7,5.09,10.9c0.47,1.66,0.32,3.53-0.78,4.91c-3.51,0.67-7.1,0.53-10.65,0.65c0.42,2.96,0.51,6.13,2.08,8.78
		c1.43,2.51,4.35,3.39,6.74,4.7c2.3,2.59,0.48,6.3-0.68,9.01c-2.14-0.43-4.28-0.85-6.42-1.26c0.19,1.66,0.4,3.31,0.62,4.97
		c-2.44-0.66-5.09-1.78-7.52-0.49c-4.46,2.03-9.19,3.3-14.03,3.97c-2.64,7.51-6.81,14.33-9.62,21.76c-0.72,2.28-1.29,4.61-1.86,6.93
		c0.75-0.2,2.25-0.62,3-0.82c0.36-1.15,0.73-2.29,1.12-3.43c1.34-3.8,3.07-7.47,5.26-10.87c-1.36,7.47-5.1,14.2-6.76,21.58
		c1.14-0.19,2.29-0.38,3.43-0.57c0.98-4.54,2.29-9.05,4.71-13.05c-0.68,5.15-2.34,10.09-3.1,15.22c1.81-1.42,3.78-2.92,4.38-5.26
		c2.04-6.12,2.95-12.6,5.64-18.51c-0.7,9.57-4.13,18.6-6.18,27.9c1.05,0.55,2.11,1.1,3.17,1.65c2.69-9.4,4.13-19.1,6.94-28.46
		c-0.7,9.96-2.65,19.77-4.63,29.55c2.6,0.86,5.19,1.78,7.78,2.69c4.29-10.53,4.01-22.13,4.77-33.28c0.54,0.35,1.62,1.04,2.16,1.38
		c-0.48,8.22-0.61,16.45-1.24,24.65c-0.27,3.25-0.01,6.5,0.48,9.72c1.08-0.03,2.17-0.05,3.26-0.06c0.39-9.55,0.64-19.1,0.62-28.65
		c0.58,0.28,1.75,0.83,2.33,1.1c-1.19,7.96,0.54,15.97-0.29,23.95c-0.3,3.26-0.89,6.49-1.43,9.72c-7.05,0.17-13.62-2.42-20.24-4.43
		c3.44,5.34,8.32,9.71,10.91,15.61c2.08,3.88,2.51,8.31,3.21,12.58c0.81,5.68,4.64,10.33,5.76,15.93c1.03,4.65,2.18,9.86,6.77,12.29
		c0.05-2.39-0.13-4.81,0.36-7.17c1.01-1.01,2.26-1.79,3.62-2.26c2.95,1.05,4.49,4.12,5.74,6.78c1.4,3.05-0.17,6.3-1.1,9.23
		c-1.33,0.35-2.65,0.69-3.92,1.18c-4.68,1.7-7.56,6.29-12.23,7.94c-5.96,1.16-12.07,0-17.89-1.35c-4.47-0.83-6.62-5.77-7.02-9.83
		c1.55-4.27,3.88-9.8,9.09-10.26c4.07-1.3,6.78,2.77,9.35,5.17c-0.44,1.85-0.86,3.71-1.29,5.57c-1.6,0.38-3.2,0.77-4.8,1.16
		c1.72,1.22,3.45,2.45,5.17,3.68c1.8-3.59,4.26-6.89,5.5-10.73c1.06-4-1.02-7.87-3.06-11.17c-5.46-9.3-12.34-17.66-19.59-25.6
		c-2.7-2.99-5.37-6.07-7.39-9.58c-2.03-3.8-3.76-8.21-7.67-10.5c-3.51,1.54-1.6,5.47-1.28,8.26c1.41,6.66,0.18,13.64-2.75,19.73
		c-3.07,6.05-3.64,12.97-3.48,19.65c0.05,2.97,1.35,5.68,2.53,8.34c0.63-0.14,1.89-0.41,2.52-0.54c-0.25-2.67-0.48-5.33-0.61-8
		c3.78,5.86,3.59,12.98,2.9,19.64c-0.7,1.26-1.67,2.34-2.62,3.41c-2.89-0.48-5.78-0.85-8.68-1.15c0.01-0.39,0.03-1.16,0.05-1.55
		c1.67-1,3.35-2,5.02-3c0.32,0.48,0.94,1.42,1.26,1.9c0.65-0.57,1.29-1.14,1.95-1.7c-2.19-2.39-4.54-4.63-6.96-6.79
		c-2.62,2.03-5.23,4.07-7.84,6.11c1.57,0.79,3.13,1.6,4.69,2.42c-3.26,2.23-7.12,2.43-10.65,0.67c1.27-1.85,2.56-3.69,3.85-5.53
		c0.17-2.73,0.76-5.43,2.11-7.83c4.41-6.43,3.86-14.48,3.69-21.9c-0.45-9.44-1.65-18.83-3.34-28.13
		c-1.22-6.03-0.72-12.29,0.93-18.18c-3.53-3.26-7.66-5.72-11.55-8.5c-2.85-1.93-3.5-6.87-0.49-8.95c3.75-3.31,7.75-6.31,11.68-9.4
		c0.34,0.25,1.01,0.77,1.35,1.03c-2.89,3.21-5.9,6.3-8.99,9.31c0.05,0.56,0.15,1.69,0.2,2.25c0.56,0.03,1.67,0.1,2.23,0.13
		c2.95-3.26,5.99-6.46,8.85-9.79c0.6-0.73,1.18-1.47,1.75-2.22c-1.15,5.92-7.48,8.85-8.55,14.83c2.11-0.97,4.28-2.05,5.62-4.04
		c3.03-4.11,5.94-8.38,9.93-11.64c-2.78,6.88-9.36,11.42-11.49,18.65c5.95-1.91,8.36-8.03,11.98-12.53
		c3.77-4.83,7.94-9.5,10.18-15.31c-2.11-1.38-4.21-2.76-6.32-4.14c0.74-2.89,0.85-5.88,1.13-8.83c1.09-2.57,2.29-5.28,4.47-7.12
		c5.42,1.42,10.96,3.47,16.66,2.21c2.5-0.23,4.18-2.35,5.1-4.51c2.33-5.49,2.24-12.18-0.99-17.3c-2.53-3.2-6.78-4.42-9.38-7.57
		c-1.83-2.39-2.65-5.36-4.3-7.86c-1.43-1.95-3.47-3.33-5.3-4.86c1.1-1.69,2.19-3.41,3.23-5.15c-3.36-1.44-6.79-2.69-10.29-3.7
		c1.66-1.34,3.32-2.68,4.98-4.02c-1.41-2.12-2.69-4.39-4.59-6.12c-3.41-1.3-5,2.88-6.13,5.27c2.34-0.07,4.67-0.17,7.01-0.29
		c-3.5,2.37-7.32,4.5-9.98,7.87c-1.48,1.64-1.15,3.95-1.21,5.98c0.05,2.76-0.54,5.47-1.11,8.16c-2.73-3.32-6.68-4.9-10.86-5.36
		c-2.84-2.51-2.08-6.46-1.27-9.7c0.47,2.05,1.03,4.08,1.57,6.11c2.79,0,5.57,0.04,8.36,0.09c0.05-1.9,0.1-3.79,0.17-5.69
		c2.7-1.12,5.24-2.59,7.59-4.34c-1.15-1.5-2.29-3-3.44-4.51c2.61-2.18,5.06-4.55,7.24-7.16c-2.92,0.41-5.83,0.91-8.74,1.39
		C322.409,103.368,323.729,101.468,325.599,100.168 M347.029,133.728c1.43,1.43,2.88,2.85,4.33,4.26c1.75-1.39,3.62-2.69,5.06-4.43
		c0.69-2.35-2.13-3.31-3.98-3.01C350.109,130.388,348.629,132.418,347.029,133.728 M360.339,142.828c2.49,0.01,4.68-0.93,6.22-2.9
		c-0.76-1.27-1.51-2.53-2.26-3.8C361.819,137.598,360.019,139.778,360.339,142.828 M365.309,146.848c0.34,1.28,0.69,2.55,1.04,3.83
		c0.94-0.43,1.89-0.85,2.84-1.27c0.02-1.26,0.05-2.53,0.09-3.79C367.939,146.018,366.619,146.428,365.309,146.848 M372.609,148.038
		c-1.48,1,0.17,3.53,1.64,2.36C375.719,149.408,374.069,146.868,372.609,148.038 M334.329,195.518c-1.3,2.99-3.15,5.66-4.84,8.42
		c-2.5,3.89-4.92,7.99-5.4,12.69c0.84-0.03,2.53-0.1,3.37-0.13c0.52-2.09,1.11-4.17,1.35-6.31c2.79-4.41,5.68-8.91,7.37-13.88
		c1.17-0.6,2.35-1.2,3.55-1.79c-2.63,7.87-7.55,14.69-11.11,22.13c0.3,0.62,0.92,1.85,1.22,2.46c3.63-2.07,4.35-6.42,6.16-9.83
		c2.78-5.52,5.75-10.95,8.48-16.5c0.85-1.67,0.95-3.58,1.21-5.39c-1.46,0.81-2.88,1.66-4.28,2.56c-0.75-0.76-1.5-1.52-2.23-2.27
		C337.389,190.178,335.779,192.808,334.329,195.518 M336.489,218.108c-1.19,0.27-1.83,2.04-0.92,2.93
		C337.129,221.798,338.289,218.268,336.489,218.108 M383.609,295.888c-0.53,1.62,0.02,2.18,1.65,1.66
		C385.779,295.918,385.229,295.368,383.609,295.888 M354.739,296.898c-1.08,1.36,1.28,2.82,2.15,1.42
		C357.969,296.968,355.609,295.508,354.739,296.898 M350.569,300.128c-0.45,1.4,0.03,1.89,1.44,1.45
		C352.439,300.178,351.959,299.698,350.569,300.128 M368.589,301.128c-1.78,0.08-2.02,3.26-0.15,3.39
		C370.209,304.438,370.439,301.248,368.589,301.128z"/>
	<path fill="#010101" d="M275.459,103.818c0.74-0.01,2.22-0.04,2.96-0.06c2.85,11.85,5.76,24,12.59,34.3
		c-0.02,3.24-1.09,7.05,1.35,9.71c2.47,3.02,4.5,6.37,5.9,10.02c1.26,0.26,2.52,0.53,3.79,0.79c-0.16,1.06-0.32,2.12-0.47,3.18
		c-1.07,0.99-2.84,2.56-4.18,1.09c-2.75-3.28-2.42-8.02-4.57-11.64c-2.05-1.62-4.81-1.71-7.27-2.24c0.66-2.14,2.2-4.34,1.41-6.65
		c-1.21-3.84-3.55-7.18-5.15-10.86C277.679,122.828,276.919,113.148,275.459,103.818z"/>
	<path fill="#010101" d="M309.179,105.318c0.59-0.11,1.76-0.35,2.34-0.47c0.69,3.92-2.83,5.7-5.73,7.23
		C306.899,109.818,308.059,107.578,309.179,105.318z"/>
	<path fill="#010101" d="M18.389,109.628c-0.26-1.8,0.69-3.38,1.49-4.9c1.93,8.28,0.69,16.95,2.96,25.19
		c0.64,3.15,1.34,6.29,2.12,9.42c-1.41-0.58-2.8-1.16-4.2-1.75c-0.17-2.76-0.39-5.52-0.82-8.25c-0.32-2.21-0.84-4.39-1.27-6.58
		C18.799,118.378,18.599,113.998,18.389,109.628z"/>
	<path fill="#010101" d="M47.909,112.418c1.08,0.04,2.15,0.09,3.22,0.14c-0.23,1.43-0.51,2.85-0.73,4.29
		c-1.64,1.23-3.29,2.47-4.93,3.7C46.279,117.838,47.099,115.128,47.909,112.418z"/>
	<path fill="#010101" d="M160.389,113.678c1.46,0.61,2.94,1.16,4.42,1.72c0.01,0.73,0.04,2.18,0.05,2.91l-0.72-0.38
		c-1.29-0.71-2.62-1.35-3.94-2C160.249,115.368,160.339,114.238,160.389,113.678z"/>
	<path fill="#010101" d="M35.919,120.128c2.37,1.12,4.72,2.38,7.3,2.96c2.8,0.61,5.56-0.48,8.2-1.26c0.23,0.36,0.67,1.07,0.9,1.43
		c-0.86,2.87-1.07,5.87-0.98,8.86c1.36-1.48,2.7-2.98,4.02-4.49c0.43,0.87,0.81,1.77,1.15,2.68c-0.08,1.12-0.2,2.23-0.34,3.34
		c-3.79,1.71-7.68,3.21-11.61,4.55c-2.48-2.38-5.51-4.52-6.75-7.87C36.639,127.048,36.439,123.538,35.919,120.128z"/>
	<path fill="#010101" d="M331.099,121.588c0.77,1.07,1.59,2.13,2.25,3.3c0.01,5.06-4.29,9.28-3.25,14.47
		c1.53-1.31,2.93-2.79,4.62-3.9c1.9-0.16,3.79,0.32,5.68,0.56c-0.35,0.7-0.7,1.4-1.04,2.1c-2.09-0.7-4.29-1.01-6.49-0.93
		c0.24,0.75,0.73,2.24,0.97,2.99c1.59,0.53,3.18,1.07,4.76,1.65c-5.55,0.47-10.22-3.11-14.96-5.41c0.91-3.01,1.54-6.47,4.5-8.18
		C330.509,126.878,330.429,123.908,331.099,121.588z"/>
	<path fill="#010101" d="M61.729,136.728c1.12-5.72,3.45-11.55,8.64-14.75c1.06,2.06,2.32,4.17,2.58,6.52
		c-0.82,3.76-3.96,6.36-6.19,9.3c-0.33,0.43-0.99,1.29-1.33,1.72c-0.73,0.97-1.43,1.96-2.11,2.97
		C62.619,140.618,61.989,138.708,61.729,136.728z"/>
	<path fill="#010101" d="M166.939,123.528c0.63,0.07,1.91,0.21,2.55,0.29c0.07,1.37,0.11,2.74,0.14,4.12
		c-0.67,3.34-1.92,7.1-5.38,8.49c-1.83,0.15-3.66,0.21-5.49,0.27c2.55-2.33,5.68-4.06,7.8-6.81
		C167.279,127.848,166.919,125.638,166.939,123.528z"/>
	<path fill="#010101" d="M308.629,133.798c1.22-2.51,4.43-0.28,6.1,0.71c3.54,2.45-0.66,6.4-2.26,8.76
		c0.21-2.42,0.51-4.83,0.83-7.24C311.759,135.358,309.099,135.818,308.629,133.798z"/>
	<path fill="#010101" d="M37.509,137.628c0.71,0.11,2.13,0.32,2.83,0.42c-0.69,3.37-1.7,6.67-3.15,9.81
		c1.94-1.57,4.08-2.83,6.42-3.69c0.04,2.61-0.37,5.22-1.87,7.42c-1.41-0.56-2.83-1.11-4.25-1.65c-0.6,2.3-1.17,4.6-1.76,6.91
		c-1.32,1.28-2.62,2.59-3.89,3.93c1.8-0.06,3.61-0.04,5.39-0.3c1.64-2.54,2.53-5.47,3.84-8.18c1.46,3.94-1.38,7.51-2.74,11.02
		c-3.17,0.31-6.16-0.68-8.66-2.6c0.08,1.42,0.17,2.85,0.26,4.29c-1.16,0.26-2.32,0.53-3.48,0.8c0.21-2.17,0.39-4.33,0.55-6.5
		c-1.96-1.36-3.89-2.74-5.8-4.15c3.32,0.15,7.81,2.89,10.4-0.16C32.849,148.978,33.519,142.618,37.509,137.628z"/>
	<path fill="#010101" d="M316.449,143.818c1.75-2.42,4.15-4.26,6.5-6.07c-1.3,3.31-3.51,6.09-5.63,8.89
		c-0.91,1.03-1.17,2.41-0.91,3.73c1.98,2.18,5.13,1.82,7.77,2.11c-0.42-1.61-0.86-3.21-1.31-4.8c-0.26-0.91-0.52-1.82-0.77-2.72
		c3.18,1.54,6.61,2.69,9.47,4.79c2.82,3.26,3.68,7.68,5.13,11.64c-3.63,2.01-6.63,4.97-7.96,8.99c-2.86,4.17-5.43,8.52-7.74,13.02
		c-0.89-0.1-1.78-0.19-2.66-0.28c0.59-5-0.95-9.82-3.05-14.28c-1.74-3.54-1.58-7.51-2.2-11.29c-2.51-2.11-6.3-1.36-9.37-1.83
		c-0.07-1.37-0.14-2.74-0.21-4.11c-2.46-1.4-4.78-3.05-6.83-5c2.54-0.19,5.2-0.71,7.68,0.18c2.94,1.08,5.38,3.11,8.13,4.57
		C313.959,148.928,314.779,146.138,316.449,143.818z"/>
	<path fill="#010101" d="M342.319,138.348c2.73,2.29,5.02,5.47,3.67,9.18c2.74-2.81,6.53-0.38,8.43,2.19
		c1.62,1.83,1.01,4.44,1.14,6.67c-2.05,0.18-4.08,0.38-6.12,0.58C346.089,151.298,340.189,145.508,342.319,138.348z"/>
	<path fill="#010101" d="M18.699,141.868c1.32-0.27,2.65-0.55,3.97-0.82c-3.72,9.34-6.6,19.06-8.24,28.99
		c-1.18,5.86,4.37,9.8,7.46,13.97c-0.4,1.26-0.81,2.51-1.17,3.79c-2.08-4.22-5.33-7.66-7.91-11.54c-2.04-2.79-0.83-6.37-0.33-9.44
		c1.36-5.6,2.57-11.24,3.26-16.96C16.689,147.178,17.749,144.548,18.699,141.868z"/>
	<path fill="#010101" d="M333.229,147.868c0.75-2.51,3.05-3.56,5.38-4.18c-0.66,0.99-1.26,2.02-2.04,2.92
		c-0.28,0.25-0.85,0.73-1.13,0.98C334.879,147.658,333.779,147.798,333.229,147.868z"/>
	<path fill="#010101" d="M72.739,155.458c-1.18-2.84-1.58-5.92-1.25-8.96c1.31,3.36,3,6.55,4.52,9.82c1.45,4.58,2.77,9.19,4,13.84
		c-1.03,0.15-2.06,0.3-3.09,0.42C75.689,165.488,74.679,160.328,72.739,155.458z"/>
	<path fill="#010101" d="M335.159,152.998c1.56-2.22,3.87-3.64,6.46-4.37C340.179,150.998,337.869,152.498,335.159,152.998z"/>
	<path fill="#010101" d="M339.499,155.868c1.74-0.38,3.48-0.76,5.22-1.15c-0.12,0.69-0.38,2.05-0.5,2.74
		c-1.69,0.32-3.38,0.65-5.06,0.98C339.249,157.798,339.419,156.508,339.499,155.868z"/>
	<path fill="#010101" d="M379.019,156.348c1.69,1.5,3.22,3.17,4.4,5.11c-0.51,0.58-1.52,1.73-2.03,2.31
		c-1.16-1.08-2.31-2.16-3.46-3.23C378.279,159.138,378.639,157.738,379.019,156.348z"/>
	<path fill="#010101" d="M59.539,157.548c3.76,4.44,6.98,9.52,12.09,12.58c-0.16,1.32-0.34,2.64-0.41,3.98
		c-0.41,2.92,1.89,5.16,3.2,7.53c3.65,6.05,3.35,13.34,4.47,20.1c0.69,6.71,3.13,13.15,3.17,19.94c-0.33,16.87,2.38,33.6,2.77,50.44
		c0.18,6.56,1.04,13.37-1.25,19.69c-3.15,1.47-6.3,2.96-9.4,4.52c3.24,2.85,6.47,6.57,11.24,6.23c-0.49-1.76-1.02-3.5-1.61-5.22
		c-0.34-1.06-0.7-2.11-1.06-3.15c1.6,0.42,3.38,0.5,4.75,1.49c1.61,2.7,1.49,6,1.56,9.04c-2.41,1.06-4.82,2.84-7.6,2.34
		c-4.36-0.6-8.82-1.23-13.13,0c-2.15-2.09-3.7-4.68-4.66-7.52c1.73,0.22,3.45,0.45,5.18,0.66c-0.76-2.02-0.73-5.02-3.25-5.71
		c-2.87-1.01-5.97-0.77-8.96-0.79c-1.22-0.42-2.41-0.89-3.61-1.37c5.24-0.95,10.51-0.2,15.67,0.76c-0.98-2.62-2.01-5.21-3.05-7.8
		c2.68,1.98,5.18,5.21,8.89,4.74c1.05-0.43,2.08-0.89,3.12-1.35c0.17,1.25,0.35,2.5,0.54,3.76c1.89-1.05,4.07-2.32,3.83-4.84
		c0.23-10.75-0.43-21.53-1.18-32.25c-0.58-5.34-1.06-10.69-1.71-16.02c-0.25-3.2-2.52-5.59-4.47-7.92c1.63,0.41,3.27,0.82,4.91,1.22
		c-0.38-6.9-1.19-13.77-2.03-20.63c-0.38-3.11-0.83-6.21-1.28-9.3c-0.49-3.81-1.13-7.6-1.87-11.37c-0.07-0.39-0.2-1.17-0.27-1.56
		c-0.78-3.54-0.77-8.18-4.57-9.95c-0.63-0.02-1.87-0.06-2.5-0.08c-3.34-0.22-6.47,1.03-9.26,2.78c-3.14,2.21-7,1.39-10.45,0.61
		c-1.88,2.65-3.73,5.32-5.2,8.22c-0.26,1.49-0.4,3-0.54,4.51c-1.07-0.23-2.13-0.47-3.2-0.68c-3.73-0.94-7.53,0.08-11.28-0.19
		c-3.01-0.67-4.57-3.63-5.87-6.14c3.22,0.46,6.31,1.49,9.24,2.88c3.31-5.14,6.52-10.49,8.49-16.3c0.03-3.17-2.28-5.82-3.64-8.57
		c2.49,0.73,4.98,1.44,7.49,2.07c0.62,0.16,1.87,0.49,2.5,0.65c0.99-1.29,1.98-2.57,2.99-3.84c2.74-0.54,5.68-0.69,8.16-2.08
		C57.859,161.818,58.579,159.608,59.539,157.548z"/>
	<path fill="#010101" d="M68.319,158.448c1.81,1.69,3.92,3.27,4.91,5.62c-0.05,1.41-0.4,2.8-0.67,4.19
		C70.389,165.358,68.949,162.008,68.319,158.448z"/>
	<path fill="#010101" d="M342.449,162.788c1.63-1.1,3.28-2.18,4.95-3.23c-0.61,2.5-1.81,4.77-3.74,6.5
		C343.249,164.968,342.839,163.878,342.449,162.788z"/>
	<path fill="#010101" d="M30.909,166.488c1.17-0.94,2.67-0.14,3.97-0.02c-0.62,1.86-1.11,3.8-2.12,5.5
		c-1.32,0.52-2.66,0.94-4.03,1.29C29.359,170.968,30.019,168.688,30.909,166.488z"/>
	<path fill="#010101" d="M23.119,169.358c0.62,0.06,1.86,0.19,2.48,0.26c0.75,1.2,1.51,2.41,2.23,3.64
		c-0.28,1.46-0.63,2.9-1.03,4.33C25.029,175.108,23.679,172.358,23.119,169.358z"/>
	<path fill="#010101" d="M254.529,188.038c4.99-1.14,10.23-1.44,15.3-0.66c-5.5,3.06-11.46,5.19-17.67,6.2
		c-0.59-0.77-1.17-1.53-1.75-2.29C251.659,190.078,252.679,188.368,254.529,188.038z"/>
	<path fill="#010101" d="M327.439,194.868c1.19-2.99,3.19-5.56,5.74-7.52C332.239,190.488,330.659,193.588,327.439,194.868z"/>
	<path fill="#010101" d="M360.849,207.918c0.37,0.03,1.12,0.09,1.49,0.12c-0.72,7.42-0.72,15.22-3.8,22.13
		C358.169,222.668,360.319,215.368,360.849,207.918z"/>
	<path fill="#010101" d="M68.039,219.658c0.71,1.76,1.53,3.46,2.22,5.23c0.14,2.65,0.04,5.31-0.01,7.97
		c-1.02-0.75-2.04-1.49-3.06-2.23C67.789,227.008,67.939,223.328,68.039,219.658z"/>
	<path fill="#010101" d="M289.829,287.048c2.01-7.61,13.95-9.78,18.33-3.31c0.41,4.43-0.49,9.07-4.19,11.94
		c0.49,3.04,3.31,6.62,1.38,9.4c-4.42-2.64-8.23-6.2-12.81-8.61C289.959,294.138,287.759,290.438,289.829,287.048 M299.179,287.848
		c-0.97,1.86,2.93,2.86,3.03,0.78C302.019,287.288,299.999,286.808,299.179,287.848 M296.599,291.888
		c-0.52,1.62,0.03,2.18,1.66,1.66C298.779,291.908,298.219,291.358,296.599,291.888z"/>
	<path fill="#815526" d="M24.459,95.048c2.47-1.71,5.06-3.51,8.09-3.96c3.29-0.4,6.51,0.66,9.64,1.55
		c-1.7,6.23-0.09,12.62-0.33,18.94c1.17-1.34,2.34-2.68,3.52-4.02c0.84,1.62,1.69,3.24,2.53,4.86c-0.81,2.71-1.63,5.42-2.44,8.13
		c1.64-1.23,3.29-2.47,4.93-3.7c0.17,1.69,0.54,3.35,1.02,4.98c-2.64,0.78-5.4,1.87-8.2,1.26c-2.58-0.58-4.93-1.84-7.3-2.96
		c0.52,3.41,0.72,6.92,1.89,10.2c1.24,3.35,4.27,5.49,6.75,7.87c3.93-1.34,7.82-2.84,11.61-4.55c-0.53,3.73-2.39,7.05-4.44,10.14
		c-2.18-0.67-4.37-1.32-6.55-1.96c1.88,4.99,5.17,9.85,4.83,15.36c-1.78,4.23-5.31,7.51-7.17,11.74c-2.51-0.63-5-1.34-7.49-2.07
		c1.36,2.75,3.67,5.4,3.64,8.57c-1.97,5.81-5.18,11.16-8.49,16.3c-2.93-1.39-6.02-2.42-9.24-2.88c-0.14-0.26-0.4-0.79-0.54-1.05
		c0.36-1.28,0.77-2.53,1.17-3.79c-3.09-4.17-8.64-8.11-7.46-13.97c1.64-9.93,4.52-19.65,8.24-28.99c-1.32,0.27-2.65,0.55-3.97,0.82
		c1.36-4.01,1.48-8.33,1.24-12.53c0.43,2.73,0.65,5.49,0.82,8.25c1.4,0.59,2.79,1.17,4.2,1.75c-0.78-3.13-1.48-6.27-2.12-9.42
		c1.16,1.6,2.33,3.19,3.53,4.76c1.57-1.8,4.09-3.74,2.9-6.45c-0.07-3.25-3.16-4.24-5.7-5.21c-0.26,2.3-0.5,4.6-0.73,6.9
		c-2.27-8.24-1.03-16.91-2.96-25.19c-0.8,1.52-1.75,3.1-1.49,4.9c0.21,4.37,0.41,8.75,0.28,13.13c-1.26-5.45-1.59-11.17-0.7-16.7
		C19.829,102.238,22.129,98.608,24.459,95.048c-0.86,2.58-2.47,5.34-1.38,8.11c1.03,3.23,2.04,6.48,2.6,9.84
		c0.63-1.14,1.28-2.29,1.91-3.43C26.089,104.758,28.389,98.988,24.459,95.048 M27.269,95.088c1.2,0.78,2.39,1.56,3.59,2.34
		c0.72,3.64,1.29,7.31,1.72,10.99c-1.2,0.89-2.4,1.77-3.6,2.66c2.09,2.55,4.47,4.86,7.13,6.82c-0.73-2.19-1.64-4.33-2.02-6.61
		c-0.24-2.7,0.55-5.39,0.18-8.08c-0.47-3.09-1.66-6.01-2.59-8.98c1.73,0.21,3.46,0.44,5.19,0.68c0.12,1.68,0.25,3.37,0.37,5.05
		c0.49,0.18,1.46,0.54,1.95,0.72c0.06-2.69,0.12-5.37,0.2-8.06c-2.27-0.62-4.55-1.55-6.95-1.33
		C30.049,91.308,28.779,93.598,27.269,95.088 M38.539,115.078c-0.02,0.62-0.04,1.86-0.05,2.48c1.33,0.78,2.66,1.57,3.99,2.35
		c0.47-2.37,0.91-4.75,1.34-7.13C42.059,113.548,40.299,114.318,38.539,115.078 M27.819,114.428c-0.25,1.61-0.51,3.23-0.76,4.84
		c-1.38,0.9-2.76,1.81-4.13,2.74c2.78,0.47,5.59,0.76,8.4,0.94c-0.72,3.27-1.13,6.61-1.29,9.95c0.66-0.34,1.99-1.03,2.65-1.37
		c0.14-2.88,0.77-5.93-0.4-8.68C31.089,119.898,29.389,117.188,27.819,114.428 M37.509,137.628c-3.99,4.99-4.66,11.35-5.91,17.37
		c-2.59,3.05-7.08,0.31-10.4,0.16c1.91,1.41,3.84,2.79,5.8,4.15c-0.16,2.17-0.34,4.33-0.55,6.5l-0.93,0.21
		c-0.02,1.2,0.01,2.4,0.08,3.6c-0.62-0.07-1.86-0.2-2.48-0.26c0.56,3,1.91,5.75,3.68,8.23c0.4-1.43,0.75-2.87,1.03-4.33
		c0.15,0.26,0.46,0.76,0.61,1.02l0.29-1.02c1.37-0.35,2.71-0.77,4.03-1.29c1.01-1.7,1.5-3.64,2.12-5.5c-1.3-0.12-2.8-0.92-3.97,0.02
		c-0.25-0.37-0.74-1.11-0.98-1.48c-0.09-1.44-0.18-2.87-0.26-4.29c2.5,1.92,5.49,2.91,8.66,2.6c1.36-3.51,4.2-7.08,2.74-11.02
		c-1.31,2.71-2.2,5.64-3.84,8.18c-1.78,0.26-3.59,0.24-5.39,0.3c1.27-1.34,2.57-2.65,3.89-3.93c0.59-2.31,1.16-4.61,1.76-6.91
		c1.42,0.54,2.84,1.09,4.25,1.65c1.5-2.2,1.91-4.81,1.87-7.42c-2.34,0.86-4.48,2.12-6.42,3.69c1.45-3.14,2.46-6.44,3.15-9.81
		C39.639,137.948,38.219,137.738,37.509,137.628 M43.299,157.568c-0.83,2.41-1.57,4.86-2.16,7.35c2.25-2.07,4.14-4.48,5.73-7.07
		C45.979,157.778,44.189,157.638,43.299,157.568 M25.589,187.888c3.65-1.08,7.88-5.25,4.2-8.8
		C28.119,181.888,26.669,184.818,25.589,187.888z"/>
	<path fill="#815526" d="M347.029,133.728c1.6-1.31,3.08-3.34,5.41-3.18c1.85-0.3,4.67,0.66,3.98,3.01
		c-1.44,1.74-3.31,3.04-5.06,4.43C349.909,136.578,348.459,135.158,347.029,133.728z"/>
	<path fill="#815526" d="M57.949,134.788c1.26,0.64,2.52,1.29,3.78,1.94c0.26,1.98,0.89,3.89,1.59,5.76
		c-0.21,1.19-0.41,2.39-0.59,3.6c-1.51-1.4-3.09-2.79-4.1-4.61C57.949,139.328,58.179,137.018,57.949,134.788z"/>
	<path fill="#815526" d="M57.799,182.518c2.79-1.75,5.92-3,9.26-2.78c-0.44,2.58-0.54,5.21-0.21,7.82
		c-0.81,4.12-0.54,8.31-0.29,12.47c0.37,3.44-2.72,5.63-4.77,7.89c0.39,1.89,0.78,3.78,1.19,5.67c1.6-0.13,3.2-0.25,4.81-0.37
		c0.07,2.15,0.14,4.29,0.25,6.44c-0.1,3.67-0.25,7.35-0.85,10.97c-0.49,1.66-1.07,3.29-1.65,4.93c-1.25-2.85-2.53-5.69-3.88-8.49
		c-1,0.71-2,1.41-3,2.12c1.13,3.72,2.75,7.26,4.67,10.64c2.88,4.86,2.1,10.71,2.36,16.11c-1.88,0.84-3.76,1.68-5.64,2.52
		c-0.57,2.61-1.44,5.25-1.19,7.95c0.44,2.1,1.54,3.98,2.42,5.92c1.78-1.26,3.43-2.78,5.45-3.63c2.07-0.29,4.05,0.73,6.01,1.23
		c-2.47,1.75-5.03,4.34-8.33,3.83c-3.03-0.41-6.99-1.65-7.44-5.2c-0.77-4.12-1.2-8.47-0.17-12.58c0.46-2.89,3.96-2.51,6.09-3.15
		c-0.28-2.35-0.29-4.86-1.55-6.95c-1.47-2.78-3.85-5.22-4.29-8.45c-0.47-4.09,0.01-8.21,0.3-12.29c1.61-0.66,3.28-1.23,4.73-2.2
		c0.78-2.45,0.63-5.06,0.74-7.59c-1.58-0.19-3.16-0.37-4.74-0.55c-0.45-3.04-0.89-6.08-1.29-9.13c1.9-0.82,3.79-1.66,5.68-2.49
		c-1.15-2.87-2.38-5.71-3.66-8.53c1.29-1.94,2.59-3.87,3.89-5.81C61.059,186.738,59.419,184.628,57.799,182.518 M59.639,210.348
		c-1.37,0.83-0.36,3.69,1.26,2.72C62.289,212.238,61.249,209.388,59.639,210.348 M57.189,234.328c0.5,3.45,2.65,6.23,5.16,8.51
		C61.199,239.698,60.009,236.368,57.189,234.328z"/>
	<path fill="#815526" d="M69.559,179.818c3.8,1.77,3.79,6.41,4.57,9.95c-1.4-0.57-2.79-1.14-4.19-1.7
		C69.799,185.318,69.659,182.568,69.559,179.818z"/>
	<path fill="#815526" d="M53.319,187.948c0.99,0.01,1.97,0.03,2.96,0.05c-0.19,4.88-1.12,9.71-2.65,14.35
		c-1.66-1.23-3.31-2.45-4.96-3.68c-0.58,3.15-1.16,6.3-1.74,9.44c-0.41,0.12-1.23,0.36-1.64,0.48c-0.3-4.46-1.24-8.92-3.68-12.73
		c0.14-1.51,0.28-3.02,0.54-4.51c1.47,1.76,2.96,3.51,4.45,5.25c0.42-0.5,1.25-1.49,1.67-1.99c1.43,0.6,2.85,1.2,4.28,1.8
		C52.839,193.588,53.099,190.768,53.319,187.948z"/>
	<path fill="#815526" d="M70.249,195.538c0.97-1.75,2.68-2.91,4.15-4.21c0.74,3.77,1.38,7.56,1.87,11.37
		c-2.21-0.23-4.42-0.46-6.63-0.69C69.739,199.848,69.669,197.638,70.249,195.538z"/>
	<path fill="#815526" d="M69.939,205.818c2.57,2.02,5.09,4.1,7.61,6.18c0.84,6.86,1.65,13.73,2.03,20.63
		c-1.64-0.4-3.28-0.81-4.91-1.22c1.95,2.33,4.22,4.72,4.47,7.92c0.65,5.33,1.13,10.68,1.71,16.02c-6.52-5.47-11.67-13.67-10.6-22.49
		c0.05-2.66,0.15-5.32,0.01-7.97c1.46-1.63,2.89-3.27,4.31-4.93C71.729,215.758,69.999,210.908,69.939,205.818 M74.629,224.838
		c-0.33,1.51-0.66,3.02-0.97,4.54c2.1-0.76,3.27-2.61,4.21-4.52C77.059,224.848,75.439,224.838,74.629,224.838z"/>
	<path fill="#815526" d="M47.709,209.968c0.51,0.12,1.54,0.37,2.05,0.49c-0.01,5.43-0.09,10.9,0.94,16.26
		c-0.93,0.69-1.85,1.37-2.77,2.05c-0.52-5.06-0.84-10.22-2.7-15.02C46.049,212.488,46.879,211.228,47.709,209.968z"/>
	<path fill="#815526" d="M38.849,218.458c2-0.54,4-1.05,6-1.54c1.02,6.87-2.52,13.58-0.66,20.36c0.54,2.77,0.98,5.67,0.2,8.44
		c-0.95,3.58-3.85,6.12-5.41,9.39c-0.1,3.19,1.34,6.18,2.24,9.18c-0.87,1.11-1.73,2.22-2.6,3.33c3.43,1.31,6.92,2.43,10.48,3.33
		c0.29-4.27,0.85-8.54,2.14-12.64c2.36,4.07,2.74,9.11,1.47,13.59c-1.3,1.25-2.89,2.14-4.38,3.14c-0.37,1.05-0.74,2.1-1.1,3.16
		c1.52-0.29,3.04-0.59,4.57-0.88c0.68,2.24,1.36,4.48,2.02,6.73c1.79-3.75,5.14-6.16,8.98-7.52c-0.81,2.81-1.63,5.6-2.41,8.42
		c4.31-0.8,8.5-2.12,12.49-3.92c0.76,2.96,1.3,5.96,1.66,9c-3.71,0.47-6.21-2.76-8.89-4.74c1.04,2.59,2.07,5.18,3.05,7.8
		c-5.16-0.96-10.43-1.71-15.67-0.76c1.2,0.48,2.39,0.95,3.61,1.37c-1.4,0.52-2.79,1.1-4.18,1.68c0.91,0.81,1.82,1.63,2.75,2.43
		c-0.44,1.65-1.06,3.33-0.93,5.07c1.23,1.02,2.65,1.78,4.01,2.63c-2.03,0.26-4.07,0.56-6.1,0.86c-0.08,0.77-0.17,1.55-0.26,2.33
		c-3.93-0.55-7.92-0.22-11.86,0.04c2.42-1.72,4.17-4.13,5.46-6.78c-1.25-0.47-2.5-0.94-3.75-1.4c0.35-1.48,2.2-3.3,0.66-4.6
		c-2.93-1.8-7.19-1.87-9.06-5.1c-1.44-3.97-1.1-8.29-1.29-12.45c0.55-0.14,1.64-0.43,2.19-0.58c0.97-5.19,1.45-10.5,0.71-15.75
		c-1.11-8.22,2.3-16.12,2.49-24.27c0.06-3.29-2.2-6-2.75-9.15c0.01-2.19,0.57-4.31,0.9-6.46c0.79,3.08,1.81,6.1,2.75,9.14
		c0.75-0.28,2.24-0.82,2.99-1.09C41.669,226.138,40.749,222.098,38.849,218.458z"/>
	<path fill="#815526" d="M47.809,237.678c0.79,0.44,1.58,0.88,2.38,1.33c-1.69,8.18-0.27,16.93-3.97,24.67
		c-1.11-1.03-2.22-2.05-3.32-3.07C46.729,253.548,46.529,245.388,47.809,237.678z"/>
	<path fill="#815526" d="M308.159,283.738c0.92,3.08,1.48,6.26,2.2,9.39c1.02-0.82,2.05-1.63,3.05-2.48
		c-1.35,2.4-1.94,5.1-2.11,7.83c-1.29,1.84-2.58,3.68-3.85,5.53c3.53,1.76,7.39,1.56,10.65-0.67c-1.56-0.82-3.12-1.63-4.69-2.42
		c2.61-2.04,5.22-4.08,7.84-6.11c2.42,2.16,4.77,4.4,6.96,6.79c-0.66,0.56-1.3,1.13-1.95,1.7c-0.32-0.48-0.94-1.42-1.26-1.9
		c-1.67,1-3.35,2-5.02,3c-0.02,0.39-0.04,1.16-0.05,1.55c2.9,0.3,5.79,0.67,8.68,1.15c-3.35,0.42-6.72,0.02-10.04-0.39
		c-4.73-0.57-9.7,0.91-14.23-1.04c-4.66-1.98-8.26-5.7-11.8-9.2c4.58,2.41,8.39,5.97,12.81,8.61c1.93-2.78-0.89-6.36-1.38-9.4
		C307.669,292.808,308.569,288.168,308.159,283.738z"/>
	<path fill="#35271C" d="M27.269,95.088c1.51-1.49,2.78-3.78,5.17-3.8c2.4-0.22,4.68,0.71,6.95,1.33c-0.08,2.69-0.14,5.37-0.2,8.06
		c-0.49-0.18-1.46-0.54-1.95-0.72c-0.12-1.68-0.25-3.37-0.37-5.05c-1.73-0.24-3.46-0.47-5.19-0.68c0.93,2.97,2.12,5.89,2.59,8.98
		c0.37,2.69-0.42,5.38-0.18,8.08c0.38,2.28,1.29,4.42,2.02,6.61c-2.66-1.96-5.04-4.27-7.13-6.82c1.2-0.89,2.4-1.77,3.6-2.66
		c-0.43-3.68-1-7.35-1.72-10.99C29.659,96.648,28.469,95.868,27.269,95.088z"/>
	<path fill="#35271C" d="M42.189,92.638c0.62,0.18,1.88,0.55,2.51,0.74c-0.07,3.28-0.39,6.64,0.45,9.85
		c1.17,3.41,4.17,5.66,6.07,8.61l-0.09,0.72c-1.07-0.05-2.14-0.1-3.22-0.14c-0.84-1.62-1.69-3.24-2.53-4.86
		c-1.18,1.34-2.35,2.68-3.52,4.02C42.099,105.258,40.489,98.868,42.189,92.638z"/>
	<path fill="#35271C" d="M24.459,95.048c3.93,3.94,1.63,9.71,3.13,14.52c-0.63,1.14-1.28,2.29-1.91,3.43
		c-0.56-3.36-1.57-6.61-2.6-9.84C21.989,100.388,23.599,97.628,24.459,95.048z"/>
	<path fill="#35271C" d="M299.329,111.578c1.88-3.92,4.1-7.67,6.77-11.1c0.83,0.88,1.66,1.77,2.48,2.67
		c-2.44,2.43-5.1,5.04-5.88,8.53c0.75,2.16,2.87,4.15,5.31,3.62c2.71-0.31,3.81-3.2,5.35-5.06c1.6,1.03,3.2,2.06,4.79,3.11
		c-3.15,2.09-7.81,2.6-9.91,5.87c-0.81,3.24-1.57,7.19,1.27,9.7c-1.06,1.13-2.13,2.26-3.2,3.38c-0.8-4.39-0.03-8.92-1.05-13.26
		C303.789,116.198,301.359,114.008,299.329,111.578z"/>
	<path fill="#35271C" d="M27.819,114.428c1.57,2.76,3.27,5.47,4.47,8.42c1.17,2.75,0.54,5.8,0.4,8.68
		c-0.66,0.34-1.99,1.03-2.65,1.37c0.16-3.34,0.57-6.68,1.29-9.95c-2.81-0.18-5.62-0.47-8.4-0.94c1.37-0.93,2.75-1.84,4.13-2.74
		C27.309,117.658,27.569,116.038,27.819,114.428z"/>
	<path fill="#35271C" d="M324.049,124.878c-0.13-2.33,1.24-3.87,3.28-4.77c0.08,0.92,0.25,2.76,0.33,3.69
		C326.449,124.158,325.249,124.518,324.049,124.878z"/>
	<path fill="#35271C" d="M56.169,133.648c0.14-1.11,0.26-2.22,0.34-3.34c0.54,1.47,1.05,2.96,1.44,4.48c0.23,2.23,0,4.54,0.68,6.69
		c1.01,1.82,2.59,3.21,4.1,4.61c0.18-1.21,0.38-2.41,0.59-3.6c0.68-1.01,1.38-2,2.11-2.97c-0.17,2.72,0.39,6.01-1.69,8.17
		c-2.38,1.74-5.44,2.02-8.19,2.86c2.29-2.16,5.2-4.85,3.19-8.25c-3.22,1.24-6.22,2.97-9.38,4.34c1.12,4.15,2.94,8.07,5.35,11.63
		c-2.19,2.44-4.35,4.9-6.38,7.47c-1.01,1.27-2,2.55-2.99,3.84c-0.63-0.16-1.88-0.49-2.5-0.65c1.86-4.23,5.39-7.51,7.17-11.74
		c0.34-5.51-2.95-10.37-4.83-15.36c2.18,0.64,4.37,1.29,6.55,1.96C53.779,140.698,55.639,137.378,56.169,133.648z"/>
	<path fill="#35271C" d="M68.929,139.978c0.8,0.02,2.39,0.06,3.19,0.07c-0.14,1.37-0.32,2.73-0.47,4.11
		C70.809,142.718,69.899,141.328,68.929,139.978z"/>
	<path fill="#35271C" d="M349.099,165.968c0.34-2.46,0.83-5.11,3.71-5.62C352.619,162.808,351.059,164.628,349.099,165.968z"/>
	<path fill="#35271C" d="M25.589,187.888c1.08-3.07,2.53-6,4.2-8.8C33.469,182.638,29.239,186.808,25.589,187.888z"/>
	<path fill="#35271C" d="M368.449,187.958c1.31,0.13,2.64,0.26,3.97,0.39c1.43,6.69,1.37,13.55,1.42,20.35
		c-0.58-0.27-1.75-0.82-2.33-1.1c-0.58-5.9,1.57-12.9-2.62-17.83c-0.4,4.04-0.38,8.11-0.5,12.17c-0.54-0.34-1.62-1.03-2.16-1.38
		C366.269,196.268,367.009,192.008,368.449,187.958z"/>
	<path fill="#35271C" d="M266.549,190.818c0.49,0.3,1.48,0.89,1.97,1.19c-0.32,1.12-0.63,2.24-0.95,3.36
		c-0.89-0.84-1.78-1.68-2.67-2.53C265.319,192.338,266.139,191.328,266.549,190.818z"/>
	<path fill="#35271C" d="M354.309,200.318c0.2-3.19,1.22-6.25,2.92-8.96C356.919,194.448,357.779,198.738,354.309,200.318z"/>
	<path fill="#35271C" d="M350.699,194.148c0.43-0.44,1.3-1.32,1.74-1.76c-0.22,5.42-1.79,10.67-4.06,15.57
		C348.629,203.298,349.109,198.568,350.699,194.148z"/>
	<path fill="#35271C" d="M362.379,206.348c-2.34-3.12-0.12-7.62,0.81-11.05C363.129,198.888,364.499,203.208,362.379,206.348z"/>
	<path fill="#35271C" d="M35.329,198.378c0.65-0.21,1.94-0.63,2.59-0.84c-0.61,4.31-0.93,8.76-3.07,12.67
		c-1.23-0.74-2.45-1.47-3.66-2.22C32.519,204.768,33.939,201.578,35.329,198.378z"/>
	<path fill="#35271C" d="M32.109,226.898c0.24-4.35,0.63-8.68,0.65-13.03c0.67,0.16,2.01,0.47,2.68,0.62
		c0.28,2.56,0.3,5.14,0.19,7.71c-0.33,2.15-0.89,4.27-0.9,6.46c0.55,3.15,2.81,5.86,2.75,9.15c-0.19,8.15-3.6,16.05-2.49,24.27
		c0.74,5.25,0.26,10.56-0.71,15.75c-0.55,0.15-1.64,0.44-2.19,0.58c-0.04-4.57-0.22-9.13-0.36-13.7
		c-0.23-7.47,2.13-14.71,2.33-22.16C34.199,237.248,32.359,232.158,32.109,226.898z"/>
	<path fill="#35271C" d="M54.279,302.878c-0.13-1.74,0.49-3.42,0.93-5.07c0.35,0.29,1.05,0.88,1.4,1.17
		c0.47,0.38,1.41,1.15,1.88,1.53c2.54,2.35,4.84,4.94,7.13,7.53c-4.57,0-9.15,0.1-13.69,0.66c0.09-0.78,0.18-1.56,0.26-2.33
		c2.03-0.3,4.07-0.6,6.1-0.86C56.929,304.658,55.509,303.898,54.279,302.878z"/>
	<path fill="#35271C" d="M41.779,300.558c1.25,0.46,2.5,0.93,3.75,1.4c-1.29,2.65-3.04,5.06-5.46,6.78
		C39.849,305.888,40.489,303.088,41.779,300.558z"/>
	<path fill="#F6B22D" d="M38.539,115.078c1.76-0.76,3.52-1.53,5.28-2.3c-0.43,2.38-0.87,4.76-1.34,7.13
		c-1.33-0.78-2.66-1.57-3.99-2.35C38.499,116.938,38.519,115.698,38.539,115.078z"/>
	<path fill="#79390C" d="M52.319,123.258c1.01,1.46,2.07,2.88,3.04,4.37c-1.32,1.51-2.66,3.01-4.02,4.49
		C51.249,129.128,51.459,126.128,52.319,123.258z"/>
	<path fill="#79390C" d="M66.759,137.798c0.73,0.72,1.46,1.44,2.17,2.18c0.97,1.35,1.88,2.74,2.72,4.18
		c-0.06,0.77-0.12,1.56-0.16,2.34c-0.33,3.04,0.07,6.12,1.25,8.96c1.94,4.87,2.95,10.03,4.18,15.12c-1.28,0.13-2.55,0.25-3.83,0.35
		c-1.03,3.64-0.26,7.36,1.33,10.71c-1.31-2.37-3.61-4.61-3.2-7.53c0.07-1.34,0.25-2.66,0.41-3.98c-5.11-3.06-8.33-8.14-12.09-12.58
		c-0.96,2.06-1.68,4.27-3.05,6.11c-2.48,1.39-5.42,1.54-8.16,2.08c2.03-2.57,4.19-5.03,6.38-7.47c-2.41-3.56-4.23-7.48-5.35-11.63
		c3.16-1.37,6.16-3.1,9.38-4.34c2.01,3.4-0.9,6.09-3.19,8.25c2.75-0.84,5.81-1.12,8.19-2.86c2.08-2.16,1.52-5.45,1.69-8.17
		C65.769,139.088,66.429,138.228,66.759,137.798 M68.319,158.448c0.63,3.56,2.07,6.91,4.24,9.81c0.27-1.39,0.62-2.78,0.67-4.19
		C72.239,161.718,70.129,160.138,68.319,158.448z"/>
	<path fill="#79390C" d="M67.059,179.738c0.63,0.02,1.87,0.06,2.5,0.08c0.1,2.75,0.24,5.5,0.38,8.25c1.4,0.56,2.79,1.13,4.19,1.7
		c0.07,0.39,0.2,1.17,0.27,1.56c-1.47,1.3-3.18,2.46-4.15,4.21c-0.58,2.1-0.51,4.31-0.61,6.47c2.21,0.23,4.42,0.46,6.63,0.69
		c0.45,3.09,0.9,6.19,1.28,9.3c-2.52-2.08-5.04-4.16-7.61-6.18c0.06,5.09,1.79,9.94,4.63,14.14c-1.42,1.66-2.85,3.3-4.31,4.93
		c-0.69-1.77-1.51-3.47-2.22-5.23c-0.11-2.15-0.18-4.29-0.25-6.44c-1.61,0.12-3.21,0.24-4.81,0.37c-0.41-1.89-0.8-3.78-1.19-5.67
		c2.05-2.26,5.14-4.45,4.77-7.89c-0.25-4.16-0.52-8.35,0.29-12.47C66.519,184.948,66.619,182.318,67.059,179.738z"/>
	<path fill="#79390C" d="M47.349,183.128c3.45,0.78,7.31,1.6,10.45-0.61c1.62,2.11,3.26,4.22,4.9,6.32c-1.3,1.94-2.6,3.87-3.89,5.81
		c1.28,2.82,2.51,5.66,3.66,8.53c-1.89,0.83-3.78,1.67-5.68,2.49c0.4,3.05,0.84,6.09,1.29,9.13c1.58,0.18,3.16,0.36,4.74,0.55
		c-0.11,2.53,0.04,5.14-0.74,7.59c-1.45,0.97-3.12,1.54-4.73,2.2c-0.29,4.08-0.77,8.2-0.3,12.29c0.44,3.23,2.82,5.67,4.29,8.45
		c1.26,2.09,1.27,4.6,1.55,6.95c-2.13,0.64-5.63,0.26-6.09,3.15c-1.03,4.11-0.6,8.46,0.17,12.58c0.45,3.55,4.41,4.79,7.44,5.2
		c3.3,0.51,5.86-2.08,8.33-3.83c-1.96-0.5-3.94-1.52-6.01-1.23c-2.02,0.85-3.67,2.37-5.45,3.63c-0.88-1.94-1.98-3.82-2.42-5.92
		c-0.25-2.7,0.62-5.34,1.19-7.95c1.88-0.84,3.76-1.68,5.64-2.52c-0.26-5.4,0.52-11.25-2.36-16.11c-1.92-3.38-3.54-6.92-4.67-10.64
		c1-0.71,2-1.41,3-2.12c1.35,2.8,2.63,5.64,3.88,8.49c0.58-1.64,1.16-3.27,1.65-4.93c1.02,0.74,2.04,1.48,3.06,2.23
		c-1.07,8.82,4.08,17.02,10.6,22.49c0.75,10.72,1.41,21.5,1.18,32.25c0.24,2.52-1.94,3.79-3.83,4.84c-0.19-1.26-0.37-2.51-0.54-3.76
		c-1.04,0.46-2.07,0.92-3.12,1.35c-0.36-3.04-0.9-6.04-1.66-9c-3.99,1.8-8.18,3.12-12.49,3.92c0.78-2.82,1.6-5.61,2.41-8.42
		c-3.84,1.36-7.19,3.77-8.98,7.52c-0.66-2.25-1.34-4.49-2.02-6.73c-1.53,0.29-3.05,0.59-4.57,0.88c0.36-1.06,0.73-2.11,1.1-3.16
		c1.49-1,3.08-1.89,4.38-3.14c1.27-4.48,0.89-9.52-1.47-13.59c-1.29,4.1-1.85,8.37-2.14,12.64c-3.56-0.9-7.05-2.02-10.48-3.33
		c0.87-1.11,1.73-2.22,2.6-3.33c-0.9-3-2.34-5.99-2.24-9.18c1.56-3.27,4.46-5.81,5.41-9.39c0.78-2.77,0.34-5.67-0.2-8.44
		c-1.86-6.78,1.68-13.49,0.66-20.36c-2,0.49-4,1-6,1.54c1.9,3.64,2.82,7.68,2.52,11.79c-0.75,0.27-2.24,0.81-2.99,1.09
		c-0.94-3.04-1.96-6.06-2.75-9.14c0.11-2.57,0.09-5.15-0.19-7.71c-0.18-1.43-0.39-2.85-0.59-4.28c2.14-3.91,2.46-8.36,3.07-12.67
		c0.12-0.59,0.36-1.77,0.49-2.36c1.07,0.21,2.13,0.45,3.2,0.68c2.44,3.81,3.38,8.27,3.68,12.73c0.41-0.12,1.23-0.36,1.64-0.48
		c0.58-3.14,1.16-6.29,1.74-9.44c1.65,1.23,3.3,2.45,4.96,3.68c1.53-4.64,2.46-9.47,2.65-14.35c-0.99-0.02-1.97-0.04-2.96-0.05
		c-0.22,2.82-0.48,5.64-0.77,8.46c-1.43-0.6-2.85-1.2-4.28-1.8c-0.42,0.5-1.25,1.49-1.67,1.99c-1.49-1.74-2.98-3.49-4.45-5.25
		C43.619,188.448,45.469,185.778,47.349,183.128 M47.709,209.968c-0.83,1.26-1.66,2.52-2.48,3.78c1.86,4.8,2.18,9.96,2.7,15.02
		c0.92-0.68,1.84-1.36,2.77-2.05c-1.03-5.36-0.95-10.83-0.94-16.26C49.249,210.338,48.219,210.088,47.709,209.968 M47.809,237.678
		c-1.28,7.71-1.08,15.87-4.91,22.93c1.1,1.02,2.21,2.04,3.32,3.07c3.7-7.74,2.28-16.49,3.97-24.67
		C49.389,238.558,48.599,238.118,47.809,237.678z"/>
	<path fill="#F1B863" d="M43.299,157.568c0.89,0.07,2.68,0.21,3.57,0.28c-1.59,2.59-3.48,5-5.73,7.07
		C41.729,162.428,42.469,159.978,43.299,157.568z"/>
	<path fill="#F1B863" d="M59.639,210.348c1.61-0.96,2.65,1.89,1.26,2.72C59.279,214.038,58.269,211.178,59.639,210.348z"/>
	<path fill="#F1B863" d="M74.629,224.838c0.81,0,2.43,0.01,3.24,0.02c-0.94,1.91-2.11,3.76-4.21,4.52
		C73.969,227.858,74.299,226.348,74.629,224.838z"/>
	<path fill="#F1B863" d="M57.189,234.328c2.82,2.04,4.01,5.37,5.16,8.51C59.839,240.558,57.689,237.778,57.189,234.328z"/>
</g>
</svg>
