<?xml version="1.0" encoding="utf-8"?>
<!-- Generator: Adobe Illustrator 17.0.0, SVG Export Plug-In . SVG Version: 6.00 Build 0)  -->
<!DOCTYPE svg PUBLIC "-//W3C//DTD SVG 1.1//EN" "http://www.w3.org/Graphics/SVG/1.1/DTD/svg11.dtd">
<svg version="1.1" id="Layer_1" xmlns="http://www.w3.org/2000/svg" xmlns:xlink="http://www.w3.org/1999/xlink" x="0px" y="0px"
	 width="401px" height="382px" viewBox="0 0 401 382" enable-background="new 0 0 401 382" xml:space="preserve">
<g>
	<path fill="#7F7D75" d="M226.072,44.763c6.24-3.72,12.81-7.08,19.89-8.86c6.24-0.83,11.78,3.13,16.73,6.4
		c-4.05-1.73-8.06-3.58-12.26-4.92c-4.73-1.68-9.1,1.79-13.38,3.32c-5.01,1.85-9.22,5.2-13.94,7.57c-5-0.2-10.1-2.79-15.05-0.55
		c-7.14,2.33-8.38,10.79-8.91,17.26c-0.2,8.36-3.08,16.5-2.26,24.9c0.26,4.92,1.13,9.95,0.01,14.82c-0.41,2.3-2.74,3.28-4.51,4.36
		c-6.03,3.19-11.51,7.32-17.64,10.33c-4.2,1.98-7.78,5.02-11.92,7.11c-3.05,1.58-6.57,1.29-9.89,1.25
		c-1.07,1.22-2.14,2.44-3.21,3.66c-3.54-2.93-5.35-7.22-5.26-11.8c4.62,0.71,9.11,2.49,13.81,2.44c3.23-1.65,6.39-4.39,7.53-7.91
		c0.08-4.11-4.68-5.48-7.46-7.46c-0.12,1.79-0.23,3.58-0.36,5.37c-2.15-1.95-4.14-4.06-5.98-6.3c1.81,0.18,3.62,0.38,5.43,0.59
		c-0.6-1.68-1.19-3.36-1.78-5.04c3.98,1.47,7.93,3.29,12.2,3.75c2.79,0.31,5.28-1.75,6.66-3.99c0.01-2.18-0.58-4.3-1.04-6.42
		c-2.74-0.08-5.48-0.18-8.21-0.32c0.92-1.98,1.47-5.16,4.28-5.02c2.44,0.77,4.19,2.8,6.14,4.37c0.28-0.22,0.85-0.66,1.13-0.88
		c-1.77-5.3-7.56-8.14-8.73-13.69c-1.41-6.12-2.43-12.33-4.04-18.4c-1.51-5.53-7.3-8.21-12.32-9.78
		c-9.51-3.27-19.81-3.51-29.67-2.03c-6.02,2.14-10.71,6.82-16.47,9.54c5.74-4.31,10.92-10.34,18.29-11.68
		c8.16-0.63,16.51-0.42,24.46,1.72c6.89,1.46,14.19,5.01,17.06,11.85c2.41,7.64,1.95,16.47,7.09,23.09
		c2.08,3.15,5.73,6.29,4.69,10.47c-1.09,4.09-1.87,8.84-5.39,11.61c-2.54,2.11-6.02,1.17-9,0.99c1.97,2.48,5.75,5.41,3.89,8.93
		c-1.86,3.52-4.78,6.79-8.49,8.34c-4.01,0.51-8.01-0.61-11.97-1.1c0.82,1.73,1.64,3.46,2.45,5.2c5.24-1.92,11.01-2.02,16.07-4.48
		c9.8-5.38,19.27-11.32,28.72-17.29c1.01-0.67,1.86-1.67,1.98-2.93c0.95-6.05-0.58-12.16,0-18.23c0.52-5.4,1.44-10.75,1.91-16.16
		c0.63-5.3,0.77-10.81,3.02-15.75c1.8-4.15,6.12-6.84,10.54-7.29C215.942,45.053,221.452,47.663,226.072,44.763z"/>
	<path fill="#7F7D75" d="M257.712,45.263c2.26,0.31,4.52,0.67,6.8,0.88c-0.75-0.01-2.25-0.05-3.01-0.07
		c0.9,1.21,1.82,2.41,2.72,3.62c-2.2-0.5-4.4-1.01-6.59-1.54C257.652,47.433,257.692,45.983,257.712,45.263z"/>
	<path fill="#7F7D75" d="M255.312,50.563c2.46,0.55,4.92,1.13,7.44,1.43c-0.68,1.07-1.35,2.13-2.02,3.2c-1.5-0.5-3-1-4.49-1.5
		C255.932,52.643,255.622,51.603,255.312,50.563z"/>
	<path fill="#7F7D75" d="M129.222,52.003c3.08,2.08,6.27,4.69,6.53,8.69c-2.98,0.99-6,1.87-8.97,2.88
		c-2.56,0.75-4.13,3.05-5.91,4.85c-2.69-2.17-5.92-3.33-9.1-4.54c-1.06-1.94,1.62-2.27,2.94-2.59c2.51,0.13,4.55,1.82,6.68,2.97
		c-1.32-1.58-2.62-3.18-3.91-4.78c0.53-0.31,1.59-0.93,2.12-1.24c1.44,1.06,2.87,2.11,4.32,3.16c-1.17-1.99-2.37-3.96-3.51-5.96
		c2.33,0.05,4.72-0.11,7.02,0.41c1.65,0.73,2.81,2.21,4.13,3.39C130.282,57.023,129.142,54.643,129.222,52.003z"/>
	<path fill="#7F7D75" d="M107.632,60.163c0.61,0.18,1.82,0.54,2.42,0.72c0.18,0.61,0.54,1.82,0.72,2.42c-0.78,0-2.34-0.01-3.12-0.02
		C107.652,62.503,107.642,60.943,107.632,60.163z"/>
	<path fill="#7F7D75" d="M202.712,60.913c2.02,0.73,4.68,1.5,5.07,3.98c0.09,3.93,0.43,7.98-0.8,11.78
		c-0.88,2.64-0.75,5.44-0.68,8.18c-1.03,0.4-2.05,0.81-3.06,1.21c-0.41,1.55-0.83,3.11-1.25,4.66c-1.31-1.23-3.6-2.21-3.27-4.37
		c0.19-4.88,4.97-8.11,5.09-12.99C204.372,69.173,203.592,65.003,202.712,60.913z"/>
	<path fill="#7F7D75" d="M102.512,70.233c0.76-2.23,2.44-3.93,4.06-5.58c-0.35,4.74-1.89,9.29-4.2,13.42
		c-3.1,5.38-3.14,11.89-6.41,17.2c-2.53-0.71-5.04-1.56-7.65-1.97c-3.88-0.61-8.17,1.24-10.01,4.8c-2.87,5.08-3.38,11.06-5.69,16.37
		c-3.14,7.19-5.97,14.55-7.92,22.15c-1.54,5.87,1.19,11.71,3.72,16.87c2.33,4.78,6.5,8.18,9.9,12.14c2.43,2.62,2.8,6.31,3.42,9.68
		c0.65,4.03,1.87,7.95,3.01,11.87c-1.75,2.31-3.72,4.5-4.98,7.13c-1.15,3.03-1.05,6.36-1.97,9.46c-0.95,3.72-3.12,7.17-3.1,11.11
		c0.03,3.04,0.4,6.11,1.43,8.99c1.42,3.86,4.83,6.52,6.56,10.2c1.03,3.99-0.31,8.46,1.86,12.19c1.91,3.56,3.83,7.13,5.4,10.86
		c1.54-0.95,3.1-1.88,4.66-2.8c-1.24,4.08-2.82,8.03-4.48,11.95c-5.56-1.18-11.26-2.46-16.96-1.45c-3.92,0.68-7.87,0.06-11.78-0.34
		c-3.67-0.39-7.03,1.83-10.69,1.57c-4.22-0.31-8.42-1.33-12.67-0.83c-4.97,0.53-9.96,0.4-14.91-0.31c-3.08-0.54-5.83,1.18-8.5,2.43
		c0.33,5.41,0.89,10.8,1.86,16.13c1.36,7.36,0.14,14.84,0.74,22.25c0.43,4.81-0.43,9.93,1.46,14.5c0.72,2.12,3.21,1.46,4.93,1.55
		c4.43-0.08,9.67-2.05,10.75-6.85c1.53-4.59-2.56-8.28-3.56-12.49c1.11-3.39,3.47-6.59,6.62-8.32c5.03-1.73,9.99,1.17,14.62,2.81
		c4.82,2.13,10.02-0.37,15,0.51c3.41,0.59,6.86,1.28,10.32,0.75c6.08-0.83,12.23,0.34,18.29-0.75c4.63-0.91,9.17,1.26,13.8,0.8
		c3.27-1.07,5.85-3.48,8.72-5.3c3.71-2.6,8.17-4.46,10.86-8.28c2.13-3.07,2.05-6.95,2.61-10.5c0.62-5.46,4.11-10,5.27-15.32
		c1.86-5.6,0.23-11.67,2.18-17.25c1.23-3.2,0.06-6.56-0.55-9.75c1.66,0.02,3.48-0.41,4.99,0.51c7.25,3.91,13.71,9.14,21.01,12.97
		c5.67,2.57,11.57,4.63,17.15,7.42c-1.64,5.95-4.1,11.8-8.71,16.09c1.86-4.98,4.59-9.56,6.72-14.41
		c-5.79-3.63-12.52-5.32-18.37-8.81c-6.77-4.22-13.31-8.82-20.44-12.44c0.14,3.86-0.1,7.72-0.73,11.54
		c-0.79,4.82,0.25,9.89-1.51,14.55c-1.64,4.79-4.01,9.35-5.04,14.35c-1.14,4.51-1.58,9.42-4.37,13.31
		c-2.68,3.59-7.18,4.9-10.77,7.34c-3.06,1.82-5.63,4.58-9.08,5.69c-4.65,0.12-9.26-1.67-13.92-0.69
		c-6.04,1.21-12.18-0.16-18.26,0.63c-3.43,0.44-6.87-0.07-10.25-0.64c-4.03-0.69-8.07,0.52-12.1,0.22
		c-4.98-0.99-9.55-4.29-14.81-3.59c-2.81,0.19-5.27,2.02-6.46,4.54c-1.65,2.73,1.18,5.39,1.93,7.97c2.55,4.26-0.35,9.27-3.79,12
		c-3.66,2.98-8.61,2.94-13.08,3.17c-1.11-2.73-2.23-5.5-2.65-8.44c-0.98-7.91-1.41-15.9-0.74-23.86
		c-0.23-7.97-2.17-15.78-2.56-23.75c2.94-1.99,5.95-4.63,9.73-4.43c5.04,0.23,10.08,0.22,15.12,0.05c5.59-0.25,11.12,1.61,16.7,0.65
		c6.57-1.25,13.26-0.08,19.86-0.95c5.37-0.68,10.7,0.44,15.97,1.36c-0.51-3.29-0.95-6.68-2.5-9.69c-1.49-3.11-3.77-5.77-5.2-8.9
		c-1.59-3.56-0.73-7.6-1.87-11.26c-1.62-4.07-5.24-7.05-6.46-11.31c-0.72-2.66-0.99-5.43-1.01-8.18c-0.02-3.87,1.84-7.37,2.7-11.06
		c0.74-2.88,0.87-5.9,1.82-8.72c1.22-2.9,3.56-5.15,4.85-8.02c-0.64-4.62-2.52-9-2.93-13.69c-0.22-3.88-2.8-6.9-5.29-9.64
		c-5.13-5.59-9.29-12.17-11.64-19.41c-1.11-3.07-0.18-6.32,0.66-9.33c1.89-6.27,3.8-12.56,6.67-18.46
		c3.58-7.24,3.64-16.28,9.69-22.22c4.35-3.73,10.44-2.35,15.55-1.44c-0.65-3.21-1.62-6.55-0.72-9.81
		c1.47-5.61,3.27-11.16,5.66-16.45c-1.76,7.07-4.23,13.95-5.59,21.12C98.202,82.423,100.252,76.243,102.512,70.233z"/>
	<path fill="#7F7D75" d="M111.272,67.083c2.63-0.87,5.26-0.11,7.68,1.01c-1.2,2.55-2.43,5.09-3.66,7.62
		c-2.83-0.74-5.39-2.19-7.17-4.56c2.49-0.35,5.02-0.22,7.5,0.14C114.132,69.933,112.672,68.533,111.272,67.083z"/>
	<path fill="#7F7D75" d="M218.032,67.463c0.94-0.44,1.89-0.88,2.84-1.32c0.5,2.57,1.34,5.28,0.5,7.87
		c-0.55,1.28-2.03,0.93-3.12,1.01C218.502,72.503,218.422,69.963,218.032,67.463z"/>
	<path fill="#7F7D75" d="M275.752,70.533c3.24-0.95,6.67-2.79,10.08-1.44c5.33,1.78,10.93,6.13,10.68,12.31
		c-0.34,5.47-2.45,10.64-4.3,15.74c-3.05,6.24-3.9,13.72-9.28,18.62c0.98,2.05,1.83,4.22,3.29,6c4.77,2.8,9.97-0.68,14.93-0.76
		c6.69,3.92,9.42,11.79,12.47,18.5c-4.76-5.59-7.21-12.85-12.85-17.75c-4.36,1.99-9.21,4.09-14.07,2.55
		c-3.75-0.73-3.33-6.92-7.49-6.89c-2.25,0.46-4.14,1.89-6.16,2.9c-1.37-3.9,2.63-7.41,0.4-11.26c-1.49,1.28-2.96,2.58-4.42,3.89
		c-1.17-1.26-2.32-2.51-3.48-3.76c-1.56,0.23-3.11,0.44-4.67,0.66c-0.06-1.24-0.12-2.48-0.18-3.72c4.41,0.47,8.88,0.81,13.28,0.02
		c-1.13-2.6-5-5.84-2.13-8.59c3.12-3.73,9.56-0.55,9.62,3.92c0.21,4.61-0.84,9.16-1.26,13.73c1.78-1.25,3.79-2.34,5.09-4.14
		c1.19-2.18,1.38-4.71,2.02-7.07c0.85-4.47,4.39-7.78,5.33-12.23c1.16-4.78,3.82-9.97,1.46-14.82c-2.09-4.68-7.38-6.41-11.95-7.63
		c-0.53,2.04-0.2,4.93-2.57,5.84c-3.49,1.8-7.29,2.88-10.97,4.2c-0.3-0.94-0.6-1.89-0.9-2.83c3.87-1.5,7.7-3.12,11.27-5.26
		c-6.06,0.82-12.26,2.46-17.09,6.4c-4.49,3.66-9.9,6.78-12.46,12.2c-0.25,3.75,1.36,7.41,1.97,11.1c-3.1,1.53-6.06,3.37-8.51,5.84
		c3.61,0.01,7.8-0.15,9.95-3.55c1.23-0.29,2.47-0.56,3.71-0.83c-1.3-1.84-2.81-3.58-3.7-5.66c-0.43-2.05,0.08-4.16,0.22-6.22
		c3.7,0.43,7.42,0.79,11.13,1.21c0.17,1.12,0.34,2.23,0.52,3.35c-2.33,0.13-4.65,0.25-6.98,0.36c1.56,1.97,3.31,3.86,4.38,6.16
		c-0.16,2.92-3.56,3.88-5.55,5.4c1.5,2.69,3.84,5.6,2.83,8.86c-1.13,2.25-3.4,3.62-5.24,5.23c0.39-3.66,0.93-7.31,1.45-10.96
		c-4.93-1.34-9.96-0.06-14.91,0.38c0.5,2.44,2.38,4,4.51,5.07c-0.72,1.7-1.44,3.4-2.16,5.11c1.8,1.22,3.6,2.46,5.39,3.71
		c-0.66,2.05-1.31,4.1-1.98,6.15c-1.4-1.73-2.77-3.48-4.15-5.22c0.3,3.32,0.61,6.65,0.89,9.98c-2.74-6.81-0.02-14.3-2.41-21.15
		c-0.31-1.55-1.08-3.25-0.24-4.75c1.84-4.1,5.5-6.87,8.98-9.49c-0.53-3.56-2.02-7.23-1.16-10.84c2.45-4.99,7.05-8.43,11.42-11.67
		C264.452,73.823,270.282,72.433,275.752,70.533 M272.072,100.393c2-0.46,3.98-0.99,5.95-1.56c-0.67-0.52-2.01-1.57-2.68-2.09
		C274.192,97.913,273.102,99.123,272.072,100.393 M275.672,100.403c-1.5,0.37-0.65,2.7,0.74,2.18
		C277.902,102.203,277.052,99.883,275.672,100.403 M257.772,101.663c-1.47,1,0.19,3.53,1.65,2.37
		C260.882,103.033,259.232,100.493,257.772,101.663 M274.672,104.613C273.142,107.593,278.012,104.733,274.672,104.613
		 M276.762,110.773c1.33-1.71,1.88-3.8,2.12-5.92C275.552,105.013,276.822,108.583,276.762,110.773z"/>
	<path fill="#7F7D75" d="M148.342,74.273c1.82-1.19,3.66-3.23,6.04-2.68c3.11,0.79,6.09,2.46,8.13,4.96
		c0.93,3.28-2.65,4.46-5.17,4.81c-1.19-2.22-1.35-5.57-3.89-6.7c-1.22,0.44-2.37,1.04-3.54,1.6c0.66,2.08,1.29,4.16,1.87,6.26
		c-3.06,0.3-6.13-0.03-9.16-0.51c-0.04-0.75-0.13-2.25-0.18-3c0.37,0.08,1.11,0.23,1.48,0.31c1.63,0.34,3.25,0.65,4.89,0.96
		C148.672,78.283,148.512,76.273,148.342,74.273 M156.332,73.823c0.63,2.17,1.67,4.17,2.9,6.05c0.48-0.74,1.42-2.21,1.89-2.95
		C159.642,75.723,158.042,74.663,156.332,73.823z"/>
	<path fill="#7F7D75" d="M218.962,77.563c0.7-1.49,2.36-0.74,3.62-0.75c-1.2,3.42-3.05,6.54-4.56,9.81
		c0.14,4.57,3.62,9.09,1.47,13.69c-2.23,0.56-2.65-2.05-3.36-3.55c-0.92-2.88-2.03-5.88-1.8-8.95
		C215.292,84.183,216.802,80.643,218.962,77.563z"/>
	<path fill="#7F7D75" d="M128.562,81.043c1.1,0.45,2.19,0.91,3.29,1.37c-0.79,0.89-1.59,1.78-2.38,2.67
		c-0.56-0.19-1.69-0.58-2.26-0.77C127.662,83.223,128.112,82.133,128.562,81.043z"/>
	<path fill="#7F7D75" d="M159.732,82.863c1.45,0.14,1.7,0.78,0.76,1.91C159.042,84.633,158.782,83.993,159.732,82.863z"/>
	<path fill="#7F7D75" d="M160.542,89.323c-0.19-1.66,1.04-3.61,2.9-3c2.27,2.02,0.75,5.12,0.23,7.55
		C162.532,92.463,160.502,91.363,160.542,89.323z"/>
	<path fill="#7F7D75" d="M199.442,91.853c2.49,0.99,4.16,3.03,5.41,5.32c-0.37,0.61-1.1,1.85-1.46,2.46
		C200.932,97.703,199.122,95.133,199.442,91.853z"/>
	<path fill="#7F7D75" d="M127.292,103.843c1.57,1.56,2.94,3.31,4.04,5.25c1.27-0.55,2.55-1.1,3.83-1.63c0,1.57,0.61,3.38-0.62,4.67
		c-2.33,3.35-4.59,6.77-7.39,9.76c-0.3-1.91-0.57-3.83-0.84-5.75c-1.08,0.13-2.15,0.27-3.22,0.41c-0.81,1.44-1.62,2.89-2.43,4.34
		c-2.3-1.14-4.74-1.98-7.09-3c0.39-2.7,2.86-4.14,4.79-5.71c0.88,1.04,1.77,2.07,2.65,3.11c1.85-1.63,4.11-3.01,5.3-5.25
		C126.982,108.053,127.002,105.913,127.292,103.843z"/>
	<path fill="#7F7D75" d="M150.942,110.113c2.01,1.67,3.57,3.78,4.06,6.41c-2.68,0.07-5.06-0.93-6.8-2.98
		C149.112,112.403,150.022,111.253,150.942,110.113z"/>
	<path fill="#7F7D75" d="M76.272,114.993c1.24,0.28,2.47,0.6,3.69,0.98c0.36,1.21,0.69,2.44,0.98,3.67
		c-1.24-0.28-2.47-0.6-3.68-0.97C76.892,117.453,76.562,116.233,76.272,114.993z"/>
	<path fill="#7F7D75" d="M187.332,117.473c4.47-1.34,9.61-2.11,13.58,0.98c-3.74,5.46-10.76,6.52-16.91,6.33
		c-1.23,1.37-2.44,2.74-3.67,4.11c-3.7-0.29-7.89-0.27-10.77,2.44c-1.69,1.92,0.63,3.94,1.34,5.74c2.31-0.15,4.67-0.33,6.95,0.24
		c-0.96,1.78-2.91,2.58-4.51,3.66c-0.81,2.25-2.12,4.21-4.56,4.82c0.5-2,1.06-3.98,1.63-5.95c-2.99-0.07-5.97,0.15-8.93,0.47
		c2.08-1.91,4.04-3.95,5.65-6.28c-3.8,0.51-7.13,2.4-10.59,3.88c-1.33-0.45-2.56-1.12-3.82-1.72c-0.03-0.74-0.09-2.23-0.12-2.98
		c6.61,0.49,12.97-1.81,18.37-5.5c2.82-2.47,5.49-5.13,8.48-7.42c0.9,0.99,1.79,1.98,2.7,2.97
		C183.822,121.293,185.232,119.023,187.332,117.473z"/>
	<path fill="#7F7D75" d="M156.802,117.643c1.46-1.18,3.1,1.37,1.63,2.36C156.972,121.183,155.332,118.633,156.802,117.643z"/>
	<path fill="#7F7D75" d="M261.372,122.133c1.57-0.28,3.14-0.53,4.71-0.8c-1.12,1.03-2.14,2.17-3.08,3.37
		C262.592,124.063,261.782,122.773,261.372,122.133z"/>
	<path fill="#7F7D75" d="M117.802,124.763c2.42,0.99,4.38,2.99,4.79,5.65c-0.5,2.36-2.15,4.26-3.35,6.29
		c-1.47-1.65-3.51-3.17-3.63-5.56C115.482,128.823,116.952,126.823,117.802,124.763z"/>
	<path fill="#7F7D75" d="M181.302,132.053c3.23-2.69,7.03-6.58,11.63-4.73c-2.78,2.49-6.03,4.35-9.3,6.09
		C183.042,133.073,181.882,132.393,181.302,132.053z"/>
	<path fill="#7F7D75" d="M194.372,136.103c5.04-3.12,8.32-8.86,14.43-10.17c-1.2,3.1-2.41,6.36-4.89,8.69
		c-2.8,2.83-6.66,4.13-10.14,5.88c-3.12,1.45-4.26,5.35-7.52,6.58c-1.57,0.75-2.81-0.72-4.12-1.33
		C185.722,141.943,189.992,138.923,194.372,136.103z"/>
	<path fill="#7F7D75" d="M109.582,128.093c1.13,0.48,2.25,0.95,3.38,1.43c-1.03,1.09-2.06,2.18-3.08,3.28
		C109.782,131.233,109.682,129.663,109.582,128.093z"/>
	<path fill="#7F7D75" d="M301.412,130.343c0.8,0,2.39-0.01,3.19-0.01c0,0.8,0.01,2.4,0.01,3.2c-0.62-0.19-1.85-0.56-2.46-0.75
		C301.962,132.173,301.602,130.953,301.412,130.343z"/>
	<path fill="#7F7D75" d="M184.232,138.653c2.23-3.22,5.21-5.84,8.67-7.68c1.57,3.54-2.19,5.4-4.62,7.08
		C187.132,139.043,185.592,138.613,184.232,138.653z"/>
	<path fill="#7F7D75" d="M264.682,131.793c1.39-0.47,1.88,0,1.48,1.41C264.762,133.673,264.262,133.203,264.682,131.793z"/>
	<path fill="#7F7D75" d="M85.592,133.953c3.48,2.41,4.43,6.48,4.2,10.49c-0.69-0.17-2.06-0.53-2.75-0.71
		C86.412,140.503,85.842,137.243,85.592,133.953z"/>
	<path fill="#7F7D75" d="M287.832,139.083c2.48,2.5,4.68,5.31,6.03,8.6c-3.05-1.32-5.41-3.68-7.46-6.23
		C286.762,140.863,287.482,139.673,287.832,139.083z"/>
	<path fill="#7F7D75" d="M96.522,139.833c5.6,2.83,5.52,10.54,10.99,13.6c3.2,2.85,7.58,1.24,11.31,0.78
		c0.26,1.13,0.97,2.37,0.18,3.46c-3.25,1.15-7.02,2.07-10.31,0.53C101.532,155.043,96.582,147.703,96.522,139.833z"/>
	<path fill="#7F7D75" d="M171.162,149.243c2-1.69,4.19-3.13,6.49-4.37c0.44,1.85,0.85,3.7,1.24,5.56
		C176.232,151.013,173.582,150.393,171.162,149.243z"/>
	<path fill="#7F7D75" d="M256.232,155.973c4.49-3.02,10.84-4.78,12.11-10.78c0.42,1.94,0.87,3.88,1.32,5.82
		c-4.93,2.74-9.64,5.88-14.18,9.22c-1.92,1.42-3.7,3.39-3.88,5.88c1.14,1.83,2.64,4.14,5.08,4.05c5.13,0.17,10.54,0.13,14.92,3.23
		c0.04,0.69,0.11,2.08,0.15,2.77c-3.14-1.38-6.43-0.81-9.68-0.45c-5.44-2.1-10.57-5.2-14.84-9.19
		C249.752,162.653,252.172,158.423,256.232,155.973z"/>
	<path fill="#7F7D75" d="M107.772,148.263c1.58-1.06,3.32-1.83,5.15-2.33c-0.37,1.54-0.66,3.13-1.48,4.51
		C109.952,150.243,108.902,149.123,107.772,148.263z"/>
	<path fill="#7F7D75" d="M138.742,149.913c0.77-0.18,2.31-0.55,3.08-0.73c-0.22,3.53-0.72,7.05-1.78,10.43
		C139.302,156.423,138.862,153.183,138.742,149.913z"/>
	<path fill="#7F7D75" d="M90.742,152.633c2.23-0.85,4.44-1.74,6.68-2.59c0.79,2.94,2.49,6.13,1.05,9.15
		c-0.37,0.03-1.12,0.07-1.49,0.1c-1.09-2.01-1.85-4.17-2.68-6.28c0,3.13,1.38,7.27-2.31,8.83
		C91.502,158.783,91.102,155.713,90.742,152.633z"/>
	<path fill="#7F7D75" d="M85.132,154.523c0.65-0.06,1.95-0.18,2.6-0.25c-0.13,1.86-0.26,3.72-0.44,5.58
		C86.392,158.153,85.682,156.363,85.132,154.523z"/>
	<path fill="#7F7D75" d="M133.272,156.203c1.49,0.3,2.99,0.62,4.48,0.94c-0.55,1.22-1.1,2.44-1.65,3.66
		C134.562,159.663,133.492,158.143,133.272,156.203z"/>
	<path fill="#7F7D75" d="M122.302,157.293c0.7,0.11,2.09,0.31,2.79,0.41c1.55,2.41,2.94,5.09,5.32,6.8
		c4.72,2.01,10.33,0.69,14.8,3.5c-4.41,3.28-10.12,2.22-14.93,0.57C125.972,166.453,122.702,162.163,122.302,157.293z"/>
	<path fill="#7F7D75" d="M298.322,157.253c4.84-0.5,6.95,5.97,4.16,9.32c-1.75-0.79-3.27-1.97-4.77-3.15
		c0.92,5.45-0.17,10.84-1.79,16.04c-1.21,3.49-0.2,8.58-4.17,10.41c0.31-6.89,0.52-14.22,4.81-19.99c-0.78-0.29-2.35-0.87-3.14-1.16
		C294.842,164.813,296.702,161.083,298.322,157.253 M299.832,159.663c-2.16,0.6-0.23,4.23,1.51,2.97
		C302.392,161.573,301.302,159.453,299.832,159.663z"/>
	<path fill="#7F7D75" d="M103.312,158.843c0.58-0.17,1.75-0.5,2.33-0.67c1.51,3.66,0.64,8.64-3.72,9.69
		C102.382,164.853,102.922,161.853,103.312,158.843z"/>
	<path fill="#7F7D75" d="M170.652,161.433c1.43-0.74,2.85-1.48,4.28-2.21c-0.4,1.73-0.8,3.47-1.21,5.21c-0.8-0.03-2.4-0.07-3.2-0.1
		C170.562,163.613,170.622,162.163,170.652,161.433z"/>
	<path fill="#7F7D75" d="M176.972,159.613c0.94-0.11,2.82-0.31,3.76-0.41c-0.1,0.94-0.3,2.82-0.4,3.75
		C179.222,161.833,178.102,160.713,176.972,159.613z"/>
	<path fill="#7F7D75" d="M107.922,162.493c1.98,0.37,3.95,0.73,5.93,1.09c-0.28,2.32-0.83,4.65-2.6,6.32
		c-0.36-1.6-0.71-3.21-1.05-4.81c-1.59,1.15-3.18,2.3-4.79,3.42C106.232,166.503,107.092,164.503,107.922,162.493z"/>
	<path fill="#7F7D75" d="M118.612,166.423c1.65-0.84,3.3-1.67,4.96-2.47c-1.39,3.02-2.98,5.94-4.89,8.67
		C118.632,170.553,118.622,168.493,118.612,166.423z"/>
	<path fill="#7F7D75" d="M164.602,164.373c0.69-0.03,2.09-0.11,2.79-0.14c-0.54,2.57-1.1,5.13-1.72,7.69
		C164.222,169.653,164.572,166.923,164.602,164.373z"/>
	<path fill="#7F7D75" d="M174.892,164.723c1.46,0.82,2.92,1.64,4.38,2.46c-1.95,0.53-3.91,1.02-5.88,1.47
		C173.882,167.343,174.382,166.033,174.892,164.723z"/>
	<path fill="#7F7D75" d="M170.362,170.093c2.36,0.11,4.83,0.29,6.74,1.88c-1.77,0.58-3.55,1.13-5.33,1.66
		C171.292,172.453,170.822,171.273,170.362,170.093z"/>
	<path fill="#7F7D75" d="M253.632,177.303c1.61,0.01,3.23,0.02,4.85,0.04c0.17,3.17,1.13,6.54-0.17,9.6
		c-1.51,0.77-3.12,1.3-4.7,1.87C252.232,185.063,252.302,181.053,253.632,177.303z"/>
	<path fill="#7F7D75" d="M265.162,177.413c0.86-0.03,2.58-0.07,3.44-0.1c0.39,1.81,0.77,3.63,1.12,5.45
		C267.262,181.893,265.602,179.993,265.162,177.413z"/>
	<path fill="#7F7D75" d="M146.392,184.053c1.7,0.49,3.43,0.94,5.09,1.58c0.91,3.17-4.25,3.53-5.82,1.6
		C145.862,186.163,146.112,185.103,146.392,184.053z"/>
	<path fill="#7F7D75" d="M140.712,186.893c1.71,1.21,4.26,2.08,4.27,4.56c0.69,5.09,3.33,9.7,3.5,14.89
		c-1.11-0.05-2.22-0.09-3.32-0.14C144.342,199.573,140.062,193.783,140.712,186.893z"/>
	<path fill="#7F7D75" d="M149.052,196.883c-0.87-2.12-0.74-4.82,1.55-5.95c3.12,4.7,4.55,10.4,6.24,15.76
		C152.242,205.573,150.622,200.783,149.052,196.883z"/>
	<path fill="#7F7D75" d="M174.452,194.893c2.93,0.59,3.52,3.25,3.44,5.85C174.902,200.213,174.312,197.523,174.452,194.893z"/>
	<path fill="#7F7D75" d="M84.282,218.833c-5.26-2.56-3.5-9.71,0.12-12.93C84.312,210.213,84.242,214.523,84.282,218.833z"/>
	<path fill="#7F7D75" d="M92.272,216.843c-3.75-3.68,0.7-8.36,3.53-11.02C95.192,209.653,94.022,213.383,92.272,216.843z"/>
	<path fill="#7F7D75" d="M114.362,216.303c1.51-0.89,2.73-3.02,4.7-2.61c2.11,3.27,3.46,6.94,4.8,10.57
		c-0.75-0.01-2.24-0.03-2.99-0.04c-1.02-2.71-2.3-5.35-4.23-7.53c0.72,4.03,2.39,7.8,4.07,11.51c-0.28,0.56-0.86,1.67-1.15,2.23
		c-2.44-2.58-5.24-4.78-7.63-7.4c-1.79-2.59-2.35-5.78-3.37-8.7C110.492,214.983,112.422,215.643,114.362,216.303z"/>
	<path fill="#7F7D75" d="M95.172,229.843c-4.63-2.39-2.84-9.96,1.27-12.05C96.332,221.833,95.792,225.853,95.172,229.843z"/>
	<path fill="#7F7D75" d="M181.112,224.193c0.57-2.69,2.22-4.68,4.98-5.2c1.45,2.56,2.96,5.1,4.47,7.63
		C187.262,226.503,184.032,225.753,181.112,224.193z"/>
	<path fill="#7F7D75" d="M127.222,220.893c2.45,1.74,4.76,3.82,5.72,6.78c-0.85,0.28-2.55,0.86-3.4,1.15
		c1.18,3.52,3.98,8.5-0.13,11.13c0.38,1.26,0.77,2.52,1.16,3.78c-0.78,0.28-2.34,0.85-3.12,1.13c1.32,2.87,2.57,5.79,3.36,8.87
		c-2.4-1.07-4.3-2.94-5.32-5.36c-1.6-2.36-0.32-5.15-0.45-7.73c-0.46-2.39-1.8-4.55-2.03-6.98
		C125.162,229.673,127.962,225.703,127.222,220.893z"/>
	<path fill="#7F7D75" d="M85.642,230.333c-0.19-2.76,0.99-5.31,2.27-7.67c-0.35,5.47,0.97,10.78,1.78,16.14
		C86.102,237.623,85.802,233.523,85.642,230.333z"/>
	<path fill="#7F7D75" d="M194.092,230.193c0.95-1.05,1.34-3.32,3.17-2.81c0.66,0.92,1.28,1.86,1.87,2.82
		C197.452,230.213,195.772,230.213,194.092,230.193z"/>
	<path fill="#7F7D75" d="M90.752,241.143c-0.8-1.76,1.03-3.04,1.75-4.44c0.45,4.4,3.33,7.8,5.1,11.65c-0.37,1.46-0.35,4.5-2.57,3.84
		C93.682,248.483,92.172,244.823,90.752,241.143z"/>
	<path fill="#7F7D75" d="M122.582,248.043c3.06,2.87,5.56,6.29,7.36,10.09c-1.52-0.11-3.05-0.23-4.57-0.35
		c0.86,2.19,1.71,4.39,2.51,6.61c-1.52-0.62-3.03-1.26-4.54-1.9c0.46,2.46,0.87,4.92,1.17,7.4c-2.06-1.24-3.81-3.05-4.1-5.55
		c-0.85-2.62,1.37-4.71,2.34-6.92C124.782,254.563,122.852,251.123,122.582,248.043z"/>
	<path fill="#7F7D75" d="M100.102,252.933c0.61-0.22,1.82-0.67,2.43-0.89c-1.28,2.87-1.96,5.98-1.25,9.1
		c1.57-0.87,3.07-1.95,4.83-2.44c1.44,0.85,2.77,1.88,4.13,2.86c-1.56,4.54-8.63,5.18-10.6,0.68
		C97.662,259.373,99.492,255.933,100.102,252.933z"/>
	<path fill="#7F7D75" d="M68.392,271.753c6.52-0.42,13.47-2.24,19.61,0.96c-5.99,3.24-13,2.59-19.54,2.65
		c-5.67,1.98-13.56,3.15-17.38-2.73C56.912,273.403,62.592,271.673,68.392,271.753z"/>
	<path fill="#7F7D75" d="M43.242,272.103c4.55-0.04,6.65,4.15,8.47,7.62C48.182,278.103,45.102,275.553,43.242,272.103z"/>
	<path fill="#7F7D75" d="M31.192,274.893c3.11-0.24,6.26-1.33,9.37-0.66c-1.16,2.18-2.54,4.22-3.81,6.33
		C33.892,279.823,32.082,277.623,31.192,274.893z"/>
	<path fill="#7F7D75" d="M23.152,275.413c1.52-0.03,3.04-0.06,4.56-0.07c0.3,2.14,0.41,4.31,0.16,6.46
		C25.602,280.243,23.862,278.103,23.152,275.413z"/>
	<path fill="#7F7D75" d="M375.492,280.033c1.43-1.47,2.87-2.93,4.32-4.37c0.65,0.93,1.26,1.9,1.83,2.89
		c0.23,1.9-1.26,3.41-2.03,5.02C378.232,282.393,376.862,281.213,375.492,280.033z"/>
	<path fill="#7F7D75" d="M40.892,283.623c3.53,0.76,7.21,0.92,10.67,1.92c0.99,2.3-2.19,2.63-3.71,3.16
		c-3.31,0.17-6.37-1.6-9.59-2.13C39.102,285.563,39.932,284.523,40.892,283.623z"/>
	<path fill="#7F7D75" d="M58.102,290.603c1.9-1.46,3.78-2.92,5.68-4.37c0.33,1.31,0.66,2.63,0.98,3.96
		c-4.94,2.11-10.4,1.65-15.64,1.92c2.07-2.46,4.92-3.99,7.92-5.04C57.302,287.953,57.832,289.723,58.102,290.603z"/>
	<path fill="#7F7D75" d="M76.342,289.143c2.38-0.07,4.29-1.65,6.26-2.78c3.36,1.46,6.4,3.58,8.48,6.64c-2.93-0.84-5.88-2.14-9-1.86
		c-4.9,0.53-9.66,1.89-14.4,3.18c-0.46-0.96-0.92-1.91-1.37-2.87C69.522,290.203,72.882,289.273,76.342,289.143z"/>
	<path fill="#7F7D75" d="M25.292,288.043c1.72,0,4.08-1.57,5.13,0.48c0.66,1.8-1.52,2.12-2.6,2.95
		C26.982,290.323,26.132,289.183,25.292,288.043z"/>
	<path fill="#7F7D75" d="M95.172,292.163c2.12-1.57,4.41-2.9,6.78-4.07c-0.02,1.39-0.04,2.79-0.06,4.19
		C99.652,292.273,97.412,292.243,95.172,292.163z"/>
	<path fill="#7F7D75" d="M102.462,291.163c1.87,0.12,3.74,0.24,5.61,0.4c-1.57,1.33-3.34,2.39-5.19,3.28
		C102.772,293.923,102.562,292.083,102.462,291.163z"/>
	<path fill="#3A3A33" d="M88.632,120.823c1.92,2.89,1.9,6.39,1.84,9.71C89.062,127.493,88.292,124.193,88.632,120.823z"/>
	<path fill="#58574F" d="M256.682,121.833c1.17,0.82,2.34,1.66,3.5,2.5c-1.17,0.72-2.32,1.47-3.53,2.12
		C255.422,125.113,256.532,123.353,256.682,121.833z"/>
	<path fill="#58574F" d="M273.602,133.053c1,0.73,2,1.47,3,2.21c-0.42,1.16-0.84,2.32-1.26,3.48c-1.32-0.55-2.66-1.03-3.98-1.54
		C272.032,135.783,272.822,134.423,273.602,133.053z"/>
	<path fill="#1E1E19" d="M112.822,93.643c1.27-1.1,2.93,1.1,1.63,2.09C113.192,96.813,111.532,94.623,112.822,93.643z"/>
	<path fill="#1E1E19" d="M276.762,110.773c0.06-2.19-1.21-5.76,2.12-5.92C278.642,106.973,278.092,109.063,276.762,110.773z"/>
	<path fill="#1E1E19" d="M136.822,133.803c1.76-1.1,2.9,1.98,1.33,2.84C136.392,137.753,135.262,134.673,136.822,133.803z"/>
	<path fill="#1E1E19" d="M106.922,244.603c0.09-2.99,0.07-6.3,2.37-8.55C109.202,239.033,109.342,242.423,106.922,244.603z"/>
	<path fill="#010001" d="M237.052,40.703c4.28-1.53,8.65-5,13.38-3.32c4.2,1.34,8.21,3.19,12.26,4.92c1.72,1.14,3.25,2.54,4.75,3.96
		c-0.73-0.03-2.2-0.09-2.93-0.12c-2.28-0.21-4.54-0.57-6.8-0.88c-0.02,0.72-0.06,2.17-0.08,2.89c2.19,0.53,4.39,1.04,6.59,1.54
		c0.57,0.78,1.13,1.56,1.69,2.35c-0.79-0.01-2.37-0.04-3.16-0.05c-2.52-0.3-4.98-0.88-7.44-1.43c0.31,1.04,0.62,2.08,0.93,3.13
		c1.49,0.5,2.99,1,4.49,1.5c0.2,0.62,0.59,1.86,0.78,2.48c-2.65-1.06-5.28-2.17-7.91-3.27c-0.37,0.88-0.73,1.77-1.08,2.66
		c1.42,0.69,2.85,1.38,4.28,2.06c0.08,0.57,0.24,1.7,0.33,2.27c-0.58,0.07-1.73,0.21-2.3,0.28c-3.31-1.35-6.5-3.14-10.03-3.87
		c-4.14,2.28-6.69,6.57-10.69,9.06c-2.63,1.34-5.71,0.88-8.55,1.05c1.62,7.48,0.69,15.12,0.49,22.69c-0.17,4.91-2.1,9.6-1.94,14.55
		c-0.1,3.15,0.67,6.63-1.24,9.43c-2.32,3.53-3.64,7.59-5.8,11.2c-3.11,3.24-6.83,5.85-9.82,9.23c-4.05,4.55-10.03,6.51-14.58,10.41
		c-2,1.6-2.2,4.32-3.09,6.54c-0.91,2.94-3.29,5.03-5.24,7.29c1.19,3.34,2.57,6.98,1.41,10.53c-1.48,4.01-4.45,7.32-7.75,9.96
		c-2.84,2.46-6.88,2.37-10.38,1.89c-5.27-0.93-8.25-6.07-13.01-8c-2.45,0.16-5.11,2.52-4.48,5.11c2.81,3.87,8.77,6.29,8.39,11.82
		c-0.22,3.15,0.75,6.93,4.31,7.7c3.58,0.7,5.65-2.65,7.19-5.27c-2.8-1.04-5.59-2.07-8.35-3.21c3.47-0.39,7.28-0.95,10.39,1.04
		c4.98,2.58,7.99,7.47,11.23,11.83c-1.82,0.09-3.64,0.19-5.45,0.32c0.94,1.18,1.67,2.61,2.95,3.47c2.24-0.5,4.43-1.31,6.75-1.44
		c-0.48,1.84-1.08,3.65-1.78,5.42c1.39-0.7,2.79-1.38,4.2-2.04c0.91,0.66,1.83,1.33,2.75,1.99c-1.56,0.69-3.12,1.39-4.66,2.11
		c2.17,1.82,5.12,1.73,7.77,1.53c-0.65,3.07-0.74,6.32,1.24,8.96c0.4-1.49,0.79-2.97,1.15-4.47c1.13,1.19,2.21,2.45,3.56,3.42
		c2.36,1.19,5.33,0.39,7.65,1.66c2.87,3.47,3.41,8.16,4.67,12.36c1.67,6.47,4.84,13.34,2.21,20.02c-2.47,5.84-5.73,11.42-7.01,17.71
		c-0.92,4.69-2.6,9.19-4.75,13.45c-2.5,4.9-2.07,10.95-5.7,15.32c-4,4.85-6.64,10.58-9.86,15.95c1.94,3.33,3.3,7.83,7.26,9.25
		c5.05,0.5,10.47-3.72,15.15-0.23c5.14,4.32,5.79,12.18,3.62,18.22c-5.56-0.86-11.25-1.26-16.63-3c-6.76-2.23-13.37-4.93-19.62-8.35
		c-4.78-2.73-10.41-2.43-15.63-3.53c-3.4-0.59-5.59-4.15-5.74-7.39c0.77-3.54,3.68-6.03,5.89-8.73c-0.64-0.85-1.27-1.69-1.89-2.52
		c2.78-4.99,3.24-10.87,6.04-15.87c2.37-4.28,1.32-9.41,3.17-13.85c1.2-2.98,2.58-5.88,3.84-8.82c-0.71-0.91-1.43-1.82-2.14-2.72
		c0.18-0.69,0.41-1.37,0.67-2.03c4.61-4.29,7.07-10.14,8.71-16.09c-5.58-2.79-11.48-4.85-17.15-7.42
		c-7.3-3.83-13.76-9.06-21.01-12.97c-1.51-0.92-3.33-0.49-4.99-0.51c0.61,3.19,1.78,6.55,0.55,9.75
		c-1.95,5.58-0.32,11.65-2.18,17.25c-1.16,5.32-4.65,9.86-5.27,15.32c-0.56,3.55-0.48,7.43-2.61,10.5
		c-2.69,3.82-7.15,5.68-10.86,8.28c-2.87,1.82-5.45,4.23-8.72,5.3c-4.63,0.46-9.17-1.71-13.8-0.8c-6.06,1.09-12.21-0.08-18.29,0.75
		c-3.46,0.53-6.91-0.16-10.32-0.75c-4.98-0.88-10.18,1.62-15-0.51c-4.63-1.64-9.59-4.54-14.62-2.81c-3.15,1.73-5.51,4.93-6.62,8.32
		c1,4.21,5.09,7.9,3.56,12.49c-1.08,4.8-6.32,6.77-10.75,6.85c-1.72-0.09-4.21,0.57-4.93-1.55c-1.89-4.57-1.03-9.69-1.46-14.5
		c-0.6-7.41,0.62-14.89-0.74-22.25c-0.97-5.33-1.53-10.72-1.86-16.13c2.67-1.25,5.42-2.97,8.5-2.43c4.95,0.71,9.94,0.84,14.91,0.31
		c4.25-0.5,8.45,0.52,12.67,0.83c3.66,0.26,7.02-1.96,10.69-1.57c3.91,0.4,7.86,1.02,11.78,0.34c5.7-1.01,11.4,0.27,16.96,1.45
		c1.66-3.92,3.24-7.87,4.48-11.95c-1.56,0.92-3.12,1.85-4.66,2.8c-1.57-3.73-3.49-7.3-5.4-10.86c-2.17-3.73-0.83-8.2-1.86-12.19
		c-1.73-3.68-5.14-6.34-6.56-10.2c-1.03-2.88-1.4-5.95-1.43-8.99c-0.02-3.94,2.15-7.39,3.1-11.11c0.92-3.1,0.82-6.43,1.97-9.46
		c1.26-2.63,3.23-4.82,4.98-7.13c-1.14-3.92-2.36-7.84-3.01-11.87c-0.62-3.37-0.99-7.06-3.42-9.68c-3.4-3.96-7.57-7.36-9.9-12.14
		c-2.53-5.16-5.26-11-3.72-16.87c1.95-7.6,4.78-14.96,7.92-22.15c2.31-5.31,2.82-11.29,5.69-16.37c1.84-3.56,6.13-5.41,10.01-4.8
		c2.61,0.41,5.12,1.26,7.65,1.97c3.27-5.31,3.31-11.82,6.41-17.2c2.31-4.13,3.85-8.68,4.2-13.42c-1.62,1.65-3.3,3.35-4.06,5.58
		c-2.26,6.01-4.31,12.19-8.05,17.48c1.36-7.17,3.83-14.05,5.59-21.12c1.39-2.98,3.01-5.99,5.54-8.16c5.76-2.72,10.45-7.4,16.47-9.54
		c9.86-1.48,20.16-1.24,29.67,2.03c5.02,1.57,10.81,4.25,12.32,9.78c1.61,6.07,2.63,12.28,4.04,18.4c1.17,5.55,6.96,8.39,8.73,13.69
		c-0.28,0.22-0.85,0.66-1.13,0.88c-1.95-1.57-3.7-3.6-6.14-4.37c-2.81-0.14-3.36,3.04-4.28,5.02c2.73,0.14,5.47,0.24,8.21,0.32
		c0.46,2.12,1.05,4.24,1.04,6.42c-1.38,2.24-3.87,4.3-6.66,3.99c-4.27-0.46-8.22-2.28-12.2-3.75c0.59,1.68,1.18,3.36,1.78,5.04
		c-1.81-0.21-3.62-0.41-5.43-0.59c1.84,2.24,3.83,4.35,5.98,6.3c0.13-1.79,0.24-3.58,0.36-5.37c2.78,1.98,7.54,3.35,7.46,7.46
		c-1.14,3.52-4.3,6.26-7.53,7.91c-4.7,0.05-9.19-1.73-13.81-2.44c-0.09,4.58,1.72,8.87,5.26,11.8c1.07-1.22,2.14-2.44,3.21-3.66
		c3.32,0.04,6.84,0.33,9.89-1.25c4.14-2.09,7.72-5.13,11.92-7.11c6.13-3.01,11.61-7.14,17.64-10.33c1.77-1.08,4.1-2.06,4.51-4.36
		c1.12-4.87,0.25-9.9-0.01-14.82c-0.82-8.4,2.06-16.54,2.26-24.9c0.53-6.47,1.77-14.93,8.91-17.26c4.95-2.24,10.05,0.35,15.05,0.55
		C227.832,45.903,232.042,42.553,237.052,40.703 M129.222,52.003c-0.08,2.64,1.06,5.02,2.34,7.24c-1.32-1.18-2.48-2.66-4.13-3.39
		c-2.3-0.52-4.69-0.36-7.02-0.41c1.14,2,2.34,3.97,3.51,5.96c-1.45-1.05-2.88-2.1-4.32-3.16c-0.53,0.31-1.59,0.93-2.12,1.24
		c1.29,1.6,2.59,3.2,3.91,4.78c-2.13-1.15-4.17-2.84-6.68-2.97c-1.32,0.32-4,0.65-2.94,2.59c3.18,1.21,6.41,2.37,9.1,4.54
		c1.78-1.8,3.35-4.1,5.91-4.85c2.97-1.01,5.99-1.89,8.97-2.88C135.492,56.693,132.302,54.083,129.222,52.003 M112.322,59.693
		c2.58-0.33,3.31-2.45,3.56-4.74C113.662,55.663,112.292,57.323,112.322,59.693 M139.132,56.663c-1.97,2.88-3.89,6.05-4.55,9.52
		c0.54,2.46,2.87,3.93,5,4.91c2.26-1.57,4.08-4.05,7-4.36c-2.91,4.47-7.34,8.11-8.32,13.62c0.75-0.08,2.24-0.25,2.98-0.34
		c1.84-2.83,3.86-5.54,5.93-8.21c0.71-0.4,2.11-1.21,2.81-1.62c2.23-0.38,4.45-0.74,6.68-1.08c0.49,0.47,1.46,1.42,1.95,1.89
		c1.86,0.77,4.06,4.29,5.89,2.29c-1.08-3.11-2.93-6.49-6.3-7.49c-3.74-1.4-7.5,0.46-11.09,1.4c2.7-2.33,6.04-3.68,9.09-5.47
		c-2.78-0.6-5.79-0.94-7.95-3C145.792,56.903,141.962,53.793,139.132,56.663 M107.632,60.163c0.01,0.78,0.02,2.34,0.02,3.12
		c0.78,0.01,2.34,0.02,3.12,0.02c-0.18-0.6-0.54-1.81-0.72-2.42C109.452,60.703,108.242,60.343,107.632,60.163 M202.712,60.913
		c0.88,4.09,1.66,8.26,1.1,12.45c-0.12,4.88-4.9,8.11-5.09,12.99c-0.33,2.16,1.96,3.14,3.27,4.37c0.42-1.55,0.84-3.11,1.25-4.66
		c1.01-0.4,2.03-0.81,3.06-1.21c-0.07-2.74-0.2-5.54,0.68-8.18c1.23-3.8,0.89-7.85,0.8-11.78
		C207.392,62.413,204.732,61.643,202.712,60.913 M111.272,67.083c1.4,1.45,2.86,2.85,4.35,4.21c-2.48-0.36-5.01-0.49-7.5-0.14
		c1.78,2.37,4.34,3.82,7.17,4.56c1.23-2.53,2.46-5.07,3.66-7.62C116.532,66.973,113.902,66.213,111.272,67.083 M218.032,67.463
		c0.39,2.5,0.47,5.04,0.22,7.56c1.09-0.08,2.57,0.27,3.12-1.01c0.84-2.59,0-5.3-0.5-7.87
		C219.922,66.583,218.972,67.023,218.032,67.463 M120.252,74.013c-2.3,4.82-1.03,10.52,2.01,14.7c2.49,3.38,3.34,7.78,6.15,10.91
		c2.59,2.07,4.94-1.16,6.88-2.54c0.5,3.84,0.93,7.93,3.54,11c1.98,3.03,5.39,4.52,8.69,5.65c0.35-1.39,0.76-2.77,0.98-4.19
		c-4.18-3.88-9.26-7.59-10.9-13.32c-0.87-3.56,2.95-4.87,5.66-5.44c-0.74,2.93-2.51,6.19-0.3,8.93c1.51-2.55,3.02-5.19,5.53-6.9
		c-0.54,3.21-1.37,6.36-2.1,9.54c2.38-0.39,4.76-0.8,7.15-1.2c-0.76-3.05-2.12-6.32-0.96-9.45c1.2-2.79,2.82-5.38,4.19-8.1
		c-0.44-0.33-1.32-0.99-1.76-1.32c-1.3,2.24-2.67,4.44-4.15,6.57c-1.5-1.28-2.98-2.56-4.46-3.84c0.19,1.53,0.39,3.05,0.6,4.58
		c-0.22,0.14-0.66,0.44-0.88,0.58c-0.91-2.07-1.83-4.15-2.75-6.22c-2.81,0.36-4.73,2.03-5.24,4.85c-1.06-0.19-2.12-0.38-3.17-0.57
		c0.76,3,1.69,6.3-0.39,9.03c-2.8-2.05-3.03-5.49-3.31-8.65c2.17-1.95,4.84-3.67,6-6.47c-0.3-2.67-1.82-5.03-2.85-7.47
		c-1.32-3.07-3.5-6.18-6.94-6.99C123.832,67.563,121.642,71.143,120.252,74.013 M148.342,74.273c-1.46,1.7-2.95,3.37-4.42,5.05
		c-0.37-0.08-1.11-0.23-1.48-0.31c0.05,0.75,0.14,2.25,0.18,3c3.03,0.48,6.1,0.81,9.16,0.51c-0.58-2.1-1.21-4.18-1.87-6.26
		c1.17-0.56,2.32-1.16,3.54-1.6c2.54,1.13,2.7,4.48,3.89,6.7c2.52-0.35,6.1-1.53,5.17-4.81c-2.04-2.5-5.02-4.17-8.13-4.96
		C152.002,71.043,150.162,73.083,148.342,74.273 M218.962,77.563c-2.16,3.08-3.67,6.62-4.63,10.25c-0.23,3.07,0.88,6.07,1.8,8.95
		c0.71,1.5,1.13,4.11,3.36,3.55c2.15-4.6-1.33-9.12-1.47-13.69c1.51-3.27,3.36-6.39,4.56-9.81
		C221.322,76.823,219.662,76.073,218.962,77.563 M111.172,87.083c-0.16,1.62,0.07,3.24,0.22,4.86c-1.47-0.68-2.94-1.34-4.42-1.99
		c1.29,5.03,2.32,10.15,4.07,15.05c-1.56-0.21-3.13-0.41-4.69-0.6c0.63,4.15,1.68,8.23,2.85,12.27c4.19-3.67,6.26-8.94,8.13-14.04
		c2.02-1.62,3.86-3.61,4.54-6.18c2.17-5.25-3.07-9.4-4.7-14C115.112,83.923,112.952,85.273,111.172,87.083 M159.732,82.863
		c-0.95,1.13-0.69,1.77,0.76,1.91C161.432,83.643,161.182,83.003,159.732,82.863 M160.542,89.323c-0.04,2.04,1.99,3.14,3.13,4.55
		c0.52-2.43,2.04-5.53-0.23-7.55C161.582,85.713,160.352,87.663,160.542,89.323 M156.352,92.413c-0.66,1.45-1.33,2.88-2.02,4.31
		c5.98,2.18,12.42,4.76,18.8,2.51c-1.24-1.02-2.48-2.19-4.16-2.37C164.532,96.163,160.332,94.483,156.352,92.413 M199.442,91.853
		c-0.32,3.28,1.49,5.85,3.95,7.78c0.36-0.61,1.09-1.85,1.46-2.46C203.602,94.883,201.932,92.843,199.442,91.853 M127.292,103.843
		c-0.29,2.07-0.31,4.21-0.98,6.2c-1.19,2.24-3.45,3.62-5.3,5.25c-0.88-1.04-1.77-2.07-2.65-3.11c-1.93,1.57-4.4,3.01-4.79,5.71
		c2.35,1.02,4.79,1.86,7.09,3c0.81-1.45,1.62-2.9,2.43-4.34c1.07-0.14,2.14-0.28,3.22-0.41c0.27,1.92,0.54,3.84,0.84,5.75
		c2.8-2.99,5.06-6.41,7.39-9.76c1.23-1.29,0.62-3.1,0.62-4.67c-1.28,0.53-2.56,1.08-3.83,1.63
		C130.232,107.153,128.862,105.403,127.292,103.843 M150.942,110.113c-0.92,1.14-1.83,2.29-2.74,3.43c1.74,2.05,4.12,3.05,6.8,2.98
		C154.512,113.893,152.952,111.783,150.942,110.113 M159.302,113.393c0.43,1.32,0.87,2.64,1.31,3.96c0.87-0.43,1.75-0.86,2.62-1.29
		c0.13-0.66,0.38-1.99,0.51-2.66C162.262,113.393,160.772,113.393,159.302,113.393 M85.452,120.763c0.26,4.04,0.68,8.32,3.01,11.77
		c2.66,2.78,6.4,0.63,9.28-0.5c0.01-3.75-1.05-7.35-2.73-10.67c1.06-1.69,2.13-3.37,3.17-5.07c-0.97,3.97-0.83,8.07,0.7,11.89
		c1.88,0.08,3.75,0.17,5.63,0.27c0.58-4.61,1.46-9.17,2.34-13.72c-3.34,0.8-6.65-0.19-9.98-0.31
		C92.922,116.283,89.532,119.153,85.452,120.763 M76.272,114.993c0.29,1.24,0.62,2.46,0.99,3.68c1.21,0.37,2.44,0.69,3.68,0.97
		c-0.29-1.23-0.62-2.46-0.98-3.67C78.742,115.593,77.512,115.273,76.272,114.993 M133.782,115.393c-0.58,1.02-1,2.12-1.45,3.2
		c2.85,1.19,5.63,2.51,8.41,3.85c0.22-1.29,0.49-2.57,0.61-3.88C140.332,115.523,136.432,115.653,133.782,115.393 M187.332,117.473
		c-2.1,1.55-3.51,3.82-5.18,5.79c-0.91-0.99-1.8-1.98-2.7-2.97c-2.99,2.29-5.66,4.95-8.48,7.42c-5.4,3.69-11.76,5.99-18.37,5.5
		c0.03,0.75,0.09,2.24,0.12,2.98c1.26,0.6,2.49,1.27,3.82,1.72c3.46-1.48,6.79-3.37,10.59-3.88c-1.61,2.33-3.57,4.37-5.65,6.28
		c2.96-0.32,5.94-0.54,8.93-0.47c-0.57,1.97-1.13,3.95-1.63,5.95c2.44-0.61,3.75-2.57,4.56-4.82c1.6-1.08,3.55-1.88,4.51-3.66
		c-2.28-0.57-4.64-0.39-6.95-0.24c-0.71-1.8-3.03-3.82-1.34-5.74c2.88-2.71,7.07-2.73,10.77-2.44c1.23-1.37,2.44-2.74,3.67-4.11
		c6.15,0.19,13.17-0.87,16.91-6.33C196.942,115.363,191.802,116.133,187.332,117.473 M156.802,117.643
		c-1.47,0.99,0.17,3.54,1.63,2.36C159.902,119.013,158.262,116.463,156.802,117.643 M117.802,124.763
		c-0.85,2.06-2.32,4.06-2.19,6.38c0.12,2.39,2.16,3.91,3.63,5.56c1.2-2.03,2.85-3.93,3.35-6.29
		C122.182,127.753,120.222,125.753,117.802,124.763 M181.302,132.053c0.58,0.34,1.74,1.02,2.33,1.36c3.27-1.74,6.52-3.6,9.3-6.09
		C188.332,125.473,184.532,129.363,181.302,132.053 M194.372,136.103c-4.38,2.82-8.65,5.84-12.24,9.65
		c1.31,0.61,2.55,2.08,4.12,1.33c3.26-1.23,4.4-5.13,7.52-6.58c3.48-1.75,7.34-3.05,10.14-5.88c2.48-2.33,3.69-5.59,4.89-8.69
		C202.692,127.243,199.412,132.983,194.372,136.103 M109.582,128.093c0.1,1.57,0.2,3.14,0.3,4.71c1.02-1.1,2.05-2.19,3.08-3.28
		C111.832,129.043,110.712,128.573,109.582,128.093 M142.262,127.983c-0.25,0.79-0.75,2.38-1,3.17c-2.14-0.56-4.36-1.75-6.6-0.98
		c-3.43,1.02-6.94,1.84-10.31,3.05c-2.43,3.02-0.81,7.21-0.58,10.69c1.6,0.32,3.19,0.77,4.83,0.84c1.98-1.07,3.5-3.02,5.79-3.45
		c1.71-0.46,3.48-0.64,5.14-1.26c1.8-2.1,1.58-5.12,1.99-7.7c1.07,1.75,2.43,3.28,4.03,4.56c0.04-2.08,0.23-4.19-0.18-6.24
		C144.522,129.573,143.332,128.823,142.262,127.983 M184.232,138.653c1.36-0.04,2.9,0.39,4.05-0.6c2.43-1.68,6.19-3.54,4.62-7.08
		C189.442,132.813,186.462,135.433,184.232,138.653 M85.592,133.953c0.25,3.29,0.82,6.55,1.45,9.78c0.69,0.18,2.06,0.54,2.75,0.71
		C90.022,140.433,89.072,136.363,85.592,133.953 M96.522,139.833c0.06,7.87,5.01,15.21,12.17,18.37c3.29,1.54,7.06,0.62,10.31-0.53
		c0.79-1.09,0.08-2.33-0.18-3.46c-3.73,0.46-8.11,2.07-11.31-0.78C102.042,150.373,102.122,142.663,96.522,139.833 M171.162,149.243
		c2.42,1.15,5.07,1.77,7.73,1.19c-0.39-1.86-0.8-3.71-1.24-5.56C175.352,146.113,173.162,147.553,171.162,149.243 M107.772,148.263
		c1.13,0.86,2.18,1.98,3.67,2.18c0.82-1.38,1.11-2.97,1.48-4.51C111.092,146.433,109.352,147.203,107.772,148.263 M138.742,149.913
		c0.12,3.27,0.56,6.51,1.3,9.7c1.06-3.38,1.56-6.9,1.78-10.43C141.052,149.363,139.512,149.733,138.742,149.913 M90.742,152.633
		c0.36,3.08,0.76,6.15,1.25,9.21c3.69-1.56,2.31-5.7,2.31-8.83c0.83,2.11,1.59,4.27,2.68,6.28c0.37-0.03,1.12-0.07,1.49-0.1
		c1.44-3.02-0.26-6.21-1.05-9.15C95.182,150.893,92.972,151.783,90.742,152.633 M85.132,154.523c0.55,1.84,1.26,3.63,2.16,5.33
		c0.18-1.86,0.31-3.72,0.44-5.58C87.082,154.343,85.782,154.463,85.132,154.523 M133.272,156.203c0.22,1.94,1.29,3.46,2.83,4.6
		c0.55-1.22,1.1-2.44,1.65-3.66C136.262,156.823,134.762,156.503,133.272,156.203 M122.302,157.293c0.4,4.87,3.67,9.16,7.98,11.28
		c4.81,1.65,10.52,2.71,14.93-0.57c-4.47-2.81-10.08-1.49-14.8-3.5c-2.38-1.71-3.77-4.39-5.32-6.8
		C124.392,157.603,123.002,157.403,122.302,157.293 M103.312,158.843c-0.39,3.01-0.93,6.01-1.39,9.02c4.36-1.05,5.23-6.03,3.72-9.69
		C105.062,158.343,103.892,158.673,103.312,158.843 M170.652,161.433c-0.03,0.73-0.09,2.18-0.13,2.9c0.8,0.03,2.4,0.07,3.2,0.1
		c0.41-1.74,0.81-3.48,1.21-5.21C173.502,159.953,172.082,160.693,170.652,161.433 M176.972,159.613c1.13,1.1,2.25,2.22,3.36,3.34
		c0.1-0.93,0.3-2.81,0.4-3.75C179.792,159.303,177.912,159.503,176.972,159.613 M107.922,162.493c-0.83,2.01-1.69,4.01-2.51,6.02
		c1.61-1.12,3.2-2.27,4.79-3.42c0.34,1.6,0.69,3.21,1.05,4.81c1.77-1.67,2.32-4,2.6-6.32
		C111.872,163.223,109.902,162.863,107.922,162.493 M118.612,166.423c0.01,2.07,0.02,4.13,0.07,6.2c1.91-2.73,3.5-5.65,4.89-8.67
		C121.912,164.753,120.262,165.583,118.612,166.423 M164.602,164.373c-0.03,2.55-0.38,5.28,1.07,7.55c0.62-2.56,1.18-5.12,1.72-7.69
		C166.692,164.263,165.292,164.343,164.602,164.373 M174.892,164.723c-0.51,1.31-1.01,2.62-1.5,3.93c1.97-0.45,3.93-0.94,5.88-1.47
		C177.812,166.363,176.352,165.543,174.892,164.723 M170.362,170.093c0.46,1.18,0.93,2.36,1.41,3.54c1.78-0.53,3.56-1.08,5.33-1.66
		C175.192,170.383,172.722,170.203,170.362,170.093 M146.392,184.053c-0.28,1.05-0.53,2.11-0.73,3.18c1.57,1.93,6.73,1.57,5.82-1.6
		C149.822,184.993,148.092,184.543,146.392,184.053 M140.712,186.893c-0.65,6.89,3.63,12.68,4.45,19.31
		c1.1,0.05,2.21,0.09,3.32,0.14c-0.17-5.19-2.81-9.8-3.5-14.89C144.972,188.973,142.422,188.103,140.712,186.893 M149.052,196.883
		c1.57,3.9,3.19,8.69,7.79,9.81c-1.69-5.36-3.12-11.06-6.24-15.76C148.312,192.063,148.182,194.763,149.052,196.883
		 M174.452,194.893c-0.14,2.63,0.45,5.32,3.44,5.85C177.972,198.143,177.382,195.483,174.452,194.893 M167.902,197.743
		c-0.68,1.9-2.68,3.83-1.73,5.97c0.73,2.93,4.1,3.37,6.23,4.92c1.99,2.21,3.06,5.04,4.44,7.64c1.31,0.02,2.62,0.04,3.94,0.07
		c-1.1-3.29-2.05-6.94-4.99-9.11C172.402,204.743,170.592,200.863,167.902,197.743 M158.512,198.783
		c-2.27,4.97,2.79,8.56,4.67,12.63c0.05,2.89-1.11,5.64-1.18,8.52c3.04,4.68,8.44,7.93,14.14,7.47c-2.57-4.92-9.53-4.85-11.83-10.12
		c3.78,1.74,7.5,3.84,11.72,4.27c-1.34-5.3-7.66-4.49-11.06-7.71c1.72-0.38,3.45-0.74,5.17-1.11
		C165.922,208.353,162.282,203.533,158.512,198.783 M84.282,218.833c-0.04-4.31,0.03-8.62,0.12-12.93
		C80.782,209.123,79.022,216.273,84.282,218.833 M92.272,216.843c1.75-3.46,2.92-7.19,3.53-11.02
		C92.972,208.483,88.522,213.163,92.272,216.843 M114.362,216.303c-1.94-0.66-3.87-1.32-5.8-1.97c1.02,2.92,1.58,6.11,3.37,8.7
		c2.39,2.62,5.19,4.82,7.63,7.4c0.29-0.56,0.87-1.67,1.15-2.23c-1.68-3.71-3.35-7.48-4.07-11.51c1.93,2.18,3.21,4.82,4.23,7.53
		c0.75,0.01,2.24,0.03,2.99,0.04c-1.34-3.63-2.69-7.3-4.8-10.57C117.092,213.283,115.872,215.413,114.362,216.303 M141.892,213.083
		c0.08,2.92,0.14,5.84,0.1,8.76c4.64,2,9.37,3.84,13.92,6.05c4.67,2.18,7.74,6.6,12.21,9.08c3.34,1.85,6.88,3.32,10.44,4.71
		c0.42-1.3,0.83-2.6,1.24-3.89c-9.11-5.97-19.2-10.83-26.62-19.01C150.322,215.463,145.782,214.653,141.892,213.083 M95.172,229.843
		c0.62-3.99,1.16-8.01,1.27-12.05C92.332,219.883,90.542,227.453,95.172,229.843 M181.112,224.193c2.92,1.56,6.15,2.31,9.45,2.43
		c-1.51-2.53-3.02-5.07-4.47-7.63C183.332,219.513,181.682,221.503,181.112,224.193 M98.952,235.993c1.99,2.37,3.84,4.85,5.59,7.42
		c2.35,3.48,5.84,5.95,9.2,8.37c1.27-2.67,0.25-5.3-0.95-7.77c-1.45-2.78-0.47-5.92-0.05-8.82c2.22,3.25,3.84,6.84,5.22,10.51
		c1.56-0.81,3.16-1.57,4.55-2.67c0.23-2.07,0.08-4.15,0-6.22c-3.48-1.44-6.58-3.6-9.23-6.26c-1.06-1.24-2.77-1.13-4.22-1.44
		c-0.96,1.63-1.92,3.26-2.88,4.89c-0.53,0.12-1.6,0.36-2.13,0.48c-0.21-4.76-1.56-9.37-4.09-13.41
		C96.992,225.183,94.982,231.903,98.952,235.993 M127.222,220.893c0.74,4.81-2.06,8.78-4.21,12.77c0.23,2.43,1.57,4.59,2.03,6.98
		c0.13,2.58-1.15,5.37,0.45,7.73c1.02,2.42,2.92,4.29,5.32,5.36c-0.79-3.08-2.04-6-3.36-8.87c0.78-0.28,2.34-0.85,3.12-1.13
		c-0.39-1.26-0.78-2.52-1.16-3.78c4.11-2.63,1.31-7.61,0.13-11.13c0.85-0.29,2.55-0.87,3.4-1.15
		C131.982,224.713,129.672,222.633,127.222,220.893 M85.642,230.333c0.16,3.19,0.46,7.29,4.05,8.47
		c-0.81-5.36-2.13-10.67-1.78-16.14C86.632,225.023,85.452,227.573,85.642,230.333 M194.092,230.193c1.68,0.02,3.36,0.02,5.04,0.01
		c-0.59-0.96-1.21-1.9-1.87-2.82C195.432,226.873,195.042,229.143,194.092,230.193 M90.752,241.143c1.42,3.68,2.93,7.34,4.28,11.05
		c2.22,0.66,2.2-2.38,2.57-3.84c-1.77-3.85-4.65-7.25-5.1-11.65C91.782,238.103,89.952,239.383,90.752,241.143 M181.092,244.213
		c1.5,0.49,3.01,0.97,4.52,1.44c-0.01-2.29-0.04-4.58-0.12-6.86C183.252,239.913,181.552,241.683,181.092,244.213 M122.582,248.043
		c0.27,3.08,2.2,6.52,0.17,9.38c-0.97,2.21-3.19,4.3-2.34,6.92c0.29,2.5,2.04,4.31,4.1,5.55c-0.3-2.48-0.71-4.94-1.17-7.4
		c1.51,0.64,3.02,1.28,4.54,1.9c-0.8-2.22-1.65-4.42-2.51-6.61c1.52,0.12,3.05,0.24,4.57,0.35
		C128.142,254.333,125.642,250.913,122.582,248.043 M209.322,249.933c-0.47,4.05-2.12,7.77-3.57,11.54
		c-1.09,2.74-0.36,6.14-2.5,8.44c-3.38,4.08-5.67,9.16-5.91,14.5c-0.22,4.48-3.16,8.14-4.5,12.31c-0.76,3.28-4.47,3.49-6.75,5.2
		c-2.43,3.81-3.86,8.52-3.14,13.04c0.28,1.92,2.8,1.72,2.99-0.14c2.29-6.6,9.47-10.4,10.49-17.56c0.72-4.82,3.7-8.88,4.75-13.62
		c1.28-5.3,4.84-9.73,5.73-15.15c0.9-4.76,2.71-9.44,6.51-12.63C213.682,253.143,211.112,251.493,209.322,249.933 M100.102,252.933
		c-0.61,3-2.44,6.44-0.46,9.31c1.97,4.5,9.04,3.86,10.6-0.68c-1.36-0.98-2.69-2.01-4.13-2.86c-1.76,0.49-3.26,1.57-4.83,2.44
		c-0.71-3.12-0.03-6.23,1.25-9.1C101.922,252.263,100.712,252.713,100.102,252.933 M185.782,253.003c-1.21,3.48-2.52,6.93-4.3,10.17
		c-1.83,3.52-3.52,7.84-1.19,11.56c-1.8,2.86-4.36,5.56-4.51,9.13c-0.33,4.21-0.33,8.58-2.44,12.38c1.62,3.12-1.01,5.4-3.09,7.38
		c0.7,4.37-1.62,8.16-3.02,12.1c-0.03,3.01,0.83,5.95,1.13,8.94c5.18-0.55,10.1,2.44,15.21,1.53c0.01-0.37,0.02-1.1,0.03-1.47
		c-2.83-0.99-5.92-1.27-8.56-2.78c-1.72-1.11-2.88-2.84-4.17-4.37c2.24-1.58,4.51-3.14,6.8-4.68c-0.49-2.05-1-4.09-1.5-6.13
		c0.9-1.63,1.92-3.21,2.55-4.97c0.52-2.6-0.18-5.32,0.51-7.9c1.96-3.58,6.77-5.94,6.22-10.57c-1.23-9.79,5.37-18.22,5.33-27.9
		C189.112,254.613,187.452,253.803,185.782,253.003 M68.392,271.753c-5.8-0.08-11.48,1.65-17.31,0.88
		c3.82,5.88,11.71,4.71,17.38,2.73c6.54-0.06,13.55,0.59,19.54-2.65C81.862,269.513,74.912,271.333,68.392,271.753 M43.242,272.103
		c1.86,3.45,4.94,6,8.47,7.62C49.892,276.253,47.792,272.063,43.242,272.103 M31.192,274.893c0.89,2.73,2.7,4.93,5.56,5.67
		c1.27-2.11,2.65-4.15,3.81-6.33C37.452,273.563,34.302,274.653,31.192,274.893 M23.152,275.413c0.71,2.69,2.45,4.83,4.72,6.39
		c0.25-2.15,0.14-4.32-0.16-6.46C26.192,275.353,24.672,275.383,23.152,275.413 M40.892,283.623c-0.96,0.9-1.79,1.94-2.63,2.95
		c3.22,0.53,6.28,2.3,9.59,2.13c1.52-0.53,4.7-0.86,3.71-3.16C48.102,284.543,44.422,284.383,40.892,283.623 M58.102,290.603
		c-0.27-0.88-0.8-2.65-1.06-3.53c-3,1.05-5.85,2.58-7.92,5.04c5.24-0.27,10.7,0.19,15.64-1.92c-0.32-1.33-0.65-2.65-0.98-3.96
		C61.882,287.683,60.002,289.143,58.102,290.603 M76.342,289.143c-3.46,0.13-6.82,1.06-10.03,2.31c0.45,0.96,0.91,1.91,1.37,2.87
		c4.74-1.29,9.5-2.65,14.4-3.18c3.12-0.28,6.07,1.02,9,1.86c-2.08-3.06-5.12-5.18-8.48-6.64
		C80.632,287.493,78.722,289.073,76.342,289.143 M25.292,288.043c0.84,1.14,1.69,2.28,2.53,3.43c1.08-0.83,3.26-1.15,2.6-2.95
		C29.372,286.473,27.012,288.043,25.292,288.043 M95.172,292.163c2.24,0.08,4.48,0.11,6.72,0.12c0.02-1.4,0.04-2.8,0.06-4.19
		C99.582,289.263,97.292,290.593,95.172,292.163 M102.462,291.163c0.1,0.92,0.31,2.76,0.42,3.68c1.85-0.89,3.62-1.95,5.19-3.28
		C106.202,291.403,104.332,291.283,102.462,291.163 M185.192,327.453c0.47,2.51,2.13,4.31,4.47,5.25c-0.34-1.78-0.7-3.56-1.08-5.33
		C187.732,327.393,186.042,327.433,185.192,327.453 M203.972,327.803c-0.52,4.44-1.19,8.94-0.49,13.41
		c0.72,0.04,2.15,0.11,2.87,0.14c0.18-2.43,0.37-4.85,0.62-7.27c1.29-1.09,3.79-1.52,3.64-3.6
		C208.732,328.903,206.272,328.423,203.972,327.803z"/>
	<path fill="#010001" d="M282.162,69.313c4.57,1.22,9.86,2.95,11.95,7.63c2.36,4.85-0.3,10.04-1.46,14.82
		c-0.94,4.45-4.48,7.76-5.33,12.23c-0.64,2.36-0.83,4.89-2.02,7.07c-1.3,1.8-3.31,2.89-5.09,4.14c0.42-4.57,1.47-9.12,1.26-13.73
		c-0.06-4.47-6.5-7.65-9.62-3.92c-2.87,2.75,1,5.99,2.13,8.59c-4.4,0.79-8.87,0.45-13.28-0.02c0.06,1.24,0.12,2.48,0.18,3.72
		c1.56-0.22,3.11-0.43,4.67-0.66c1.16,1.25,2.31,2.5,3.48,3.76c1.46-1.31,2.93-2.61,4.42-3.89c2.23,3.85-1.77,7.36-0.4,11.26
		c2.02-1.01,3.91-2.44,6.16-2.9c4.16-0.03,3.74,6.16,7.49,6.89c4.86,1.54,9.71-0.56,14.07-2.55c5.64,4.9,8.09,12.16,12.85,17.75
		c0.44,1.99,0.75,4.01,1.07,6.02c-2.13-1.71-4.21-3.49-6.27-5.29c-0.52,2.02-1.02,4.04-1.52,6.05c-1.72-0.4-3.43-0.82-5.14-1.25
		c-0.8,2.29-1.91,4.56-1.99,7.02c0.73,1.39,1.74,2.6,2.68,3.86c4.37-3.78,8.73-7.72,14.08-10.08c1.88,5.58,3.15,11.36,4.13,17.16
		c0.65,3.25-1.09,6.28-2.32,9.17c-2.78,5.66-4.75,11.7-7.87,17.2c-2.02,3.55-5.28,6.09-8.32,8.71c4.09,4.25,7.3,9.2,10.43,14.18
		c2.5,4.09,6.72,6.71,9.36,10.69c1.63,3.14-0.3,6.81,0.73,10.1c0.89,2.83,2.54,5.42,3.01,8.39c0.96,4.68-0.07,9.66,1.73,14.17
		c2.07,1.86,4.65,0.14,6.87-0.42c5.59-2.36,11.76-0.4,17.17,1.52c6.08,2.17,9.95,7.68,15.34,10.9c4.74,1.02,9.35-1.08,14-1.66
		c2.93-0.49,5.76,1.55,7.1,4.04c1.48,4.81-1.32,9.31-3.23,13.53c-2.03,4.16-1.56,8.91-2.76,13.29c-1.06,4.16-3.37,7.83-5.64,11.43
		c-3.74-1.06-7.4-2.41-10.93-4.03c2.42-3.53,4.85-7.05,7.3-10.56c-3.08-3.95-4.64-8.8-7.48-12.87c-3.58-2.45-8.24-2.35-12.42-2.75
		c-7.09-0.26-14.16-1.28-21.28-0.87c-4.25,0.27-8.37-0.91-12.29-2.42c-4.83-1.98-10.14-0.89-15.16-1.81
		c-4.09-0.78-8.35-1.17-12.16-2.91c-6.6-4.03-11.4-10.36-14.92-17.15c6.33-5.79,6.16-17.88-1.71-22.23
		c-0.43,3.12,0.2,6.73-1.91,9.36c-3.21,4.38-7.28,8.11-10.01,12.84c-1.41,2.32-2.45,4.87-4.14,7.02c-2.1,2.08-5.08,2.93-7.34,4.81
		c-1.83,2.85-0.73,6.39-0.02,9.42c1.94,6.8,3.16,13.91,2.48,20.98c-0.82,6.12-3.82,11.78-4.02,18.02c-0.5,4.66,2.25,8.72,3.52,13.02
		c0.32,1.37,1.22,3.12-0.26,4.16c-3.37,3.59-8.5,0.38-12.66,0.76c-7.19,0.64-14.13,2.86-21.22,4.15c-1.29-3.53-2.59-7.05-3.64-10.66
		c3.93-0.09,7.97,0.79,11.82-0.27c3.24-1.87,5.47-5.01,8.09-7.61c1.4-1.77,3.75-3.52,3.27-6.05c-1.42-9.75-3.57-19.43-3.96-29.3
		c-0.06-3.9-1-7.69-1.97-11.44c-1.49-5.21,1.06-10.47,0.43-15.69c-1.13-2.45-2.82-4.56-4.21-6.85c-1.04-0.41-2.09-0.83-3.13-1.23
		c1.55-2.55,3.32-4.96,5.2-7.27c-1.24-2.84-2.5-5.67-3.82-8.46c1.16-0.83,2.33-1.65,3.49-2.47c-1.11-2.73-2.52-5.74-1.44-8.71
		c1.29-4.8,5.88-7.3,9.13-10.63c3.75-3.51,4.43-9.1,8.14-12.65c2.02-1.96,4.35-3.58,6.57-5.31c-1.37-1.3-2.37-3.32-4.22-3.91
		c-4.3,0.31-8.4,1.86-12.65,2.49c-1.53-5.14-3.57-10.11-5.9-14.93c7.59-0.97,15.04,0.51,22.4,2.18c-3.1-4.6-8.13-9.18-14.14-7.71
		c3.2-4.05,4.7-9.89,9.79-12.08c5-2.34,10.06-4.82,13.72-9.09c-0.71-2.76-2.13-5.62-1.25-8.51c1.15-4.02,2.58-7.95,3.44-12.05
		c-5.51-0.52-10.96,0.67-16.22,2.17c-0.76,1.56-1.5,3.14-2.36,4.65c-0.97,0.58-1.99,1.06-3,1.55c-0.28-3.33-0.59-6.66-0.89-9.98
		c1.38,1.74,2.75,3.49,4.15,5.22c0.67-2.05,1.32-4.1,1.98-6.15c-1.79-1.25-3.59-2.49-5.39-3.71c0.72-1.71,1.44-3.41,2.16-5.11
		c-2.13-1.07-4.01-2.63-4.51-5.07c4.95-0.44,9.98-1.72,14.91-0.38c-0.52,3.65-1.06,7.3-1.45,10.96c1.84-1.61,4.11-2.98,5.24-5.23
		c1.01-3.26-1.33-6.17-2.83-8.86c1.99-1.52,5.39-2.48,5.55-5.4c-1.07-2.3-2.82-4.19-4.38-6.16c2.33-0.11,4.65-0.23,6.98-0.36
		c-0.18-1.12-0.35-2.23-0.52-3.35c-3.71-0.42-7.43-0.78-11.13-1.21c-0.14,2.06-0.65,4.17-0.22,6.22c0.89,2.08,2.4,3.82,3.7,5.66
		c-1.24,0.27-2.48,0.54-3.71,0.83c-2.15,3.4-6.34,3.56-9.95,3.55c2.45-2.47,5.41-4.31,8.51-5.84c-0.61-3.69-2.22-7.35-1.97-11.1
		c2.56-5.42,7.97-8.54,12.46-12.2c4.83-3.94,11.03-5.58,17.09-6.4c-3.57,2.14-7.4,3.76-11.27,5.26c0.3,0.94,0.6,1.89,0.9,2.83
		c3.68-1.32,7.48-2.4,10.97-4.2C281.962,74.243,281.632,71.353,282.162,69.313 M261.372,122.133c0.41,0.64,1.22,1.93,1.63,2.57
		c0.94-1.2,1.96-2.34,3.08-3.37C264.512,121.603,262.942,121.853,261.372,122.133 M268.682,126.183c1.36,3.84,5.32,5.63,8.72,7.31
		c1.4-2.85,4.25-6.07,2.55-9.38C277.932,118.983,268.182,120.223,268.682,126.183 M256.682,121.833c-0.15,1.52-1.26,3.28-0.03,4.62
		c1.21-0.65,2.36-1.4,3.53-2.12C259.022,123.493,257.852,122.653,256.682,121.833 M301.412,130.343c0.19,0.61,0.55,1.83,0.74,2.44
		c0.61,0.19,1.84,0.56,2.46,0.75c0-0.8-0.01-2.4-0.01-3.2C303.802,130.333,302.212,130.343,301.412,130.343 M264.682,131.793
		c-0.42,1.41,0.08,1.88,1.48,1.41C266.562,131.793,266.072,131.323,264.682,131.793 M273.602,133.053
		c-0.78,1.37-1.57,2.73-2.24,4.15c1.32,0.51,2.66,0.99,3.98,1.54c0.42-1.16,0.84-2.32,1.26-3.48
		C275.602,134.523,274.602,133.783,273.602,133.053 M264.442,137.143c-0.99,2.07-0.47,3.71,1.73,4.51c0.48-1.14,0.96-2.28,1.44-3.41
		C266.552,137.873,265.492,137.513,264.442,137.143 M268.082,140.613c1.08,1.08,2.16,2.16,3.24,3.24c0.46-1.53,0.92-3.06,1.35-4.6
		C271.132,139.683,269.602,140.143,268.082,140.613 M287.832,139.083c-0.35,0.59-1.07,1.78-1.43,2.37c2.05,2.55,4.41,4.91,7.46,6.23
		C292.512,144.393,290.312,141.583,287.832,139.083 M256.232,155.973c-4.06,2.45-6.48,6.68-9,10.55c4.27,3.99,9.4,7.09,14.84,9.19
		c3.25-0.36,6.54-0.93,9.68,0.45c-0.04-0.69-0.11-2.08-0.15-2.77c-4.38-3.1-9.79-3.06-14.92-3.23c-2.44,0.09-3.94-2.22-5.08-4.05
		c0.18-2.49,1.96-4.46,3.88-5.88c4.54-3.34,9.25-6.48,14.18-9.22c-0.45-1.94-0.9-3.88-1.32-5.82
		C267.072,151.193,260.722,152.953,256.232,155.973 M294.442,148.923c0.24,2.7,1.03,5.29,2.16,7.74c0.81-0.8,1.63-1.59,2.45-2.39
		C297.652,152.373,296.162,150.543,294.442,148.923 M298.322,157.253c-1.62,3.83-3.48,7.56-4.9,11.47c0.79,0.29,2.36,0.87,3.14,1.16
		c-4.29,5.77-4.5,13.1-4.81,19.99c3.97-1.83,2.96-6.92,4.17-10.41c1.62-5.2,2.71-10.59,1.79-16.04c1.5,1.18,3.02,2.36,4.77,3.15
		C305.272,163.223,303.162,156.753,298.322,157.253 M253.632,177.303c-1.33,3.75-1.4,7.76-0.02,11.51c1.58-0.57,3.19-1.1,4.7-1.87
		c1.3-3.06,0.34-6.43,0.17-9.6C256.862,177.323,255.242,177.313,253.632,177.303 M265.162,177.413c0.44,2.58,2.1,4.48,4.56,5.35
		c-0.35-1.82-0.73-3.64-1.12-5.45C267.742,177.343,266.022,177.383,265.162,177.413 M375.492,280.033c1.37,1.18,2.74,2.36,4.12,3.54
		c0.77-1.61,2.26-3.12,2.03-5.02c-0.57-0.99-1.18-1.96-1.83-2.89C378.362,277.103,376.922,278.563,375.492,280.033 M237.062,327.453
		c2.16,0.81,4.43,0.57,6.61,0c-0.05-1.87-0.1-3.73-0.15-5.59C240.482,322.533,238.502,324.863,237.062,327.453z"/>
	<path fill="#010001" d="M125.522,80.493c1.59-3.41,5.81-2.14,8.54-1.17c-0.78,3.54-2.38,6.82-4.55,9.71
		C127.652,86.493,125.632,83.773,125.522,80.493 M128.562,81.043c-0.45,1.09-0.9,2.18-1.35,3.27c0.57,0.19,1.7,0.58,2.26,0.77
		c0.79-0.89,1.59-1.78,2.38-2.67C130.752,81.953,129.662,81.493,128.562,81.043z"/>
	<path fill="#010001" d="M275.672,100.403c1.38-0.52,2.23,1.8,0.74,2.18C275.022,103.103,274.172,100.773,275.672,100.403z"/>
	<path fill="#7E7767" d="M253.602,54.403c2.63,1.1,5.26,2.21,7.91,3.27c-1.57,0.48-3.14,0.96-4.71,1.45
		c-1.43-0.68-2.86-1.37-4.28-2.06C252.872,56.173,253.232,55.283,253.602,54.403z"/>
	<path fill="#7E7767" d="M112.322,59.693c-0.03-2.37,1.34-4.03,3.56-4.74C115.632,57.243,114.902,59.363,112.322,59.693z"/>
	<path fill="#7E7767" d="M139.132,56.663c2.83-2.87,6.66,0.24,9.12,2.06c2.16,2.06,5.17,2.4,7.95,3c-3.05,1.79-6.39,3.14-9.09,5.47
		c3.59-0.94,7.35-2.8,11.09-1.4c3.37,1,5.22,4.38,6.3,7.49c-1.83,2-4.03-1.52-5.89-2.29c0.58-0.46,1.74-1.38,2.32-1.83
		c-2.13-0.74-4.27-1.46-6.41-2.16c0.71,0.7,1.42,1.4,2.14,2.1c-2.23,0.34-4.45,0.7-6.68,1.08c0.04-0.62,0.12-1.86,0.16-2.49
		c-1.53,0.81-3.06,1.62-4.58,2.43c0.4,0.42,1.21,1.26,1.61,1.68c-2.07,2.67-4.09,5.38-5.93,8.21c-0.74,0.09-2.23,0.26-2.98,0.34
		c0.98-5.51,5.41-9.15,8.32-13.62c-2.92,0.31-4.74,2.79-7,4.36c-2.13-0.98-4.46-2.45-5-4.91
		C135.242,62.713,137.162,59.543,139.132,56.663z"/>
	<path fill="#7E7767" d="M234.112,66.863c4-2.49,6.55-6.78,10.69-9.06c3.53,0.73,6.72,2.52,10.03,3.87
		c-3.45,0.52-6.62-1.17-9.94-1.69c-3.43,1.54-5.8,4.62-8.79,6.81c-2.34,1.82-5.33,2.35-8.1,3.12c0.2,3.94,0.2,7.88,0.02,11.82
		c-0.24,5,0.49,10.12-1.04,14.99c-1.37,4.2-1.37,8.62-1.22,12.98c0.2,3.94-2.59,7.04-4.02,10.49c-1.41,2.87-2.07,6.38-4.81,8.36
		c-3.81,2.85-7.24,6.12-10.74,9.32c-3.87,3.52-9.03,5.46-12.47,9.47c-1.87,2.93-2.97,6.29-4.96,9.15c-3.18,3.76,0.29,8.65-1.2,12.88
		c-1.5,4.34-4.22,8.21-7.51,11.4c-3.52,3.87-9.38,2.72-13.95,1.96c-5.54-0.94-8.74-8.04-14.88-6.01c3.2,3.46,5.95,7.39,9.58,10.42
		c3.62,1.64,7.93,0.67,11.6,2.34c5.91,2.48,8.58,8.79,13.2,12.84c4.28,3.74,7.97,8.09,11.31,12.67c1.81,2.22,3.67,4.96,6.74,5.4
		c2.43,0.69,5.41,0.58,7.16,2.69c3.29,3.76,4.29,8.83,5.57,13.51c1.25,5.18,3.19,10.43,2.39,15.84c-0.51,4.5-2.97,8.42-4.42,12.64
		c-2.58,7.15-4.4,14.56-7.53,21.51c-2.47,5.37-2.97,11.59-6.6,16.4c-3.4,4.6-6.7,9.39-8.76,14.75c-0.41,2.56,1.6,4.82,3.14,6.66
		c2.15,2.78,5.76,0.89,8.59,0.69c3.5-0.82,6.94,0.49,10.22,1.57c1.52-1.29,2.9-2.83,4.77-3.64c3.29-0.85,6.89,0.14,10.08-1.13
		c3.33-2.23,6.08-5.3,8.4-8.55c1.15-1.51,0.47-3.49,0.33-5.2c-0.9-5.2-1.64-10.43-2.5-15.64c-1.27-7.01,0.16-14.42-2.82-21.1
		c-2.26-5.35,0.78-10.92,0.09-16.37c-1.32-3.66-4.76-6.12-6.08-9.79c0.71-3.13,3.74-5.87,2.36-9.27
		c-1.64-5.09-0.58-10.38-0.29-15.56c0.28-2.55,0.03-5.73,2.49-7.31c3.58-2.79,7.08-5.79,9.44-9.73c3.24-5.34,7.82-9.62,11.73-14.42
		c-3.84-0.2-7.59,0.66-11.32,1.46c-1.73,0.43-3.9,0.13-4.67-1.71c-2.65-4.82-4.14-10.17-5.89-15.36c5.25-0.92,10.58-0.96,15.88-1.38
		c-2.47-1.1-4.99-2.12-7.51-3.12c2.17-5.31,4.79-11.28,10.39-13.72c4.32-1.93,8.62-3.95,12.43-6.8c-0.52-3.15-1.48-6.41-0.56-9.58
		c1.05-3.68,1.94-7.42,2.17-11.26c-5.72,1.11-11.43,2.71-16.12,6.31c0.86-1.51,1.6-3.09,2.36-4.65c5.26-1.5,10.71-2.69,16.22-2.17
		c-0.86,4.1-2.29,8.03-3.44,12.05c-0.88,2.89,0.54,5.75,1.25,8.51c-3.66,4.27-8.72,6.75-13.72,9.09c-5.09,2.19-6.59,8.03-9.79,12.08
		c6.01-1.47,11.04,3.11,14.14,7.71c-7.36-1.67-14.81-3.15-22.4-2.18c2.33,4.82,4.37,9.79,5.9,14.93c4.25-0.63,8.35-2.18,12.65-2.49
		c1.85,0.59,2.85,2.61,4.22,3.91c-2.22,1.73-4.55,3.35-6.57,5.31c-3.71,3.55-4.39,9.14-8.14,12.65c-3.25,3.33-7.84,5.83-9.13,10.63
		c-1.08,2.97,0.33,5.98,1.44,8.71c-1.16,0.82-2.33,1.64-3.49,2.47c1.32,2.79,2.58,5.62,3.82,8.46c-1.88,2.31-3.65,4.72-5.2,7.27
		c1.04,0.4,2.09,0.82,3.13,1.23c1.39,2.29,3.08,4.4,4.21,6.85c0.63,5.22-1.92,10.48-0.43,15.69c0.97,3.75,1.91,7.54,1.97,11.44
		c0.39,9.87,2.54,19.55,3.96,29.3c0.48,2.53-1.87,4.28-3.27,6.05c-2.62,2.6-4.85,5.74-8.09,7.61c-3.85,1.06-7.89,0.18-11.82,0.27
		c1.05,3.61,2.35,7.13,3.64,10.66c7.09-1.29,14.03-3.51,21.22-4.15c4.16-0.38,9.29,2.83,12.66-0.76c1.48-1.04,0.58-2.79,0.26-4.16
		c-1.27-4.3-4.02-8.36-3.52-13.02c0.2-6.24,3.2-11.9,4.02-18.02c0.68-7.07-0.54-14.18-2.48-20.98c-0.71-3.03-1.81-6.57,0.02-9.42
		c2.26-1.88,5.24-2.73,7.34-4.81c1.69-2.15,2.73-4.7,4.14-7.02c2.73-4.73,6.8-8.46,10.01-12.84c2.11-2.63,1.48-6.24,1.91-9.36
		c7.87,4.35,8.04,16.44,1.71,22.23c3.52,6.79,8.32,13.12,14.92,17.15c3.81,1.74,8.07,2.13,12.16,2.91
		c5.02,0.92,10.33-0.17,15.16,1.81c3.92,1.51,8.04,2.69,12.29,2.42c7.12-0.41,14.19,0.61,21.28,0.87c4.18,0.4,8.84,0.3,12.42,2.75
		c2.84,4.07,4.4,8.92,7.48,12.87c-2.45,3.51-4.88,7.03-7.3,10.56c0.61-3.88,2.85-7.13,5.39-10.02c-2.13-3.92-3.61-8.2-6.12-11.89
		c-3.99-2.42-8.94-2.39-13.46-2.8c-6-0.33-11.99-1.31-18.01-0.79c-4.45,0.41-8.79-0.79-12.97-2.15c-5.47-1.95-11.38-0.49-16.97-1.86
		c-4.85-1.21-10.55-0.86-14.35-4.6c-5.06-4.57-10.34-9.54-12.61-16.13c0.91-5.61,3.23-11.08,2.45-16.91
		c-6.57,6.46-11.96,14.04-16.27,22.17c-2.04,3.96-6.28,5.75-10.08,7.57c0.99,7.76,3.36,15.3,3.76,23.15
		c0.96,8.01-3.94,15.17-4.07,23.11c-0.78,5.4,2.66,10.1,3.26,15.3c0.35,2.34-2.09,4.02-4.14,4.36c-4.5,0.56-9.08-0.36-13.56,0.54
		c-6.47,1.22-12.96,2.38-19.5,3.16c0.02,0.4,0.06,1.22,0.08,1.62c-0.39,2.42-0.53,5.02-1.82,7.17c-3.28,1.5-7.02,0.86-10.51,0.92
		c-9.3-2.34-18.42-5.6-26.87-10.16c-3.99-2.28-8.63-2.56-13.08-3.15c-3.18-0.36-6.56-1.65-8.05-4.68c-2.13-3.1-0.58-6.82,0.71-9.89
		c2.32-5.26,2.37-11.2,4.78-16.42c1.72-3.74,3.76-7.42,4.19-11.59c0.58-6.72,4.53-12.59,4.79-19.38c0.71,0.9,1.43,1.81,2.14,2.72
		c-1.26,2.94-2.64,5.84-3.84,8.82c-1.85,4.44-0.8,9.57-3.17,13.85c-2.8,5-3.26,10.88-6.04,15.87c0.62,0.83,1.25,1.67,1.89,2.52
		c-2.21,2.7-5.12,5.19-5.89,8.73c0.15,3.24,2.34,6.8,5.74,7.39c5.22,1.1,10.85,0.8,15.63,3.53c6.25,3.42,12.86,6.12,19.62,8.35
		c5.38,1.74,11.07,2.14,16.63,3c2.17-6.04,1.52-13.9-3.62-18.22c-4.68-3.49-10.1,0.73-15.15,0.23c-3.96-1.42-5.32-5.92-7.26-9.25
		c3.22-5.37,5.86-11.1,9.86-15.95c3.63-4.37,3.2-10.42,5.7-15.32c2.15-4.26,3.83-8.76,4.75-13.45c1.28-6.29,4.54-11.87,7.01-17.71
		c2.63-6.68-0.54-13.55-2.21-20.02c-1.26-4.2-1.8-8.89-4.67-12.36c-2.32-1.27-5.29-0.47-7.65-1.66c-1.35-0.97-2.43-2.23-3.56-3.42
		c-0.36,1.5-0.75,2.98-1.15,4.47c-1.98-2.64-1.89-5.89-1.24-8.96c-2.65,0.2-5.6,0.29-7.77-1.53c1.54-0.72,3.1-1.42,4.66-2.11
		c-0.92-0.66-1.84-1.33-2.75-1.99c-1.41,0.66-2.81,1.34-4.2,2.04c0.7-1.77,1.3-3.58,1.78-5.42c-2.32,0.13-4.51,0.94-6.75,1.44
		c-1.28-0.86-2.01-2.29-2.95-3.47c1.81-0.13,3.63-0.23,5.45-0.32c-3.24-4.36-6.25-9.25-11.23-11.83c-3.11-1.99-6.92-1.43-10.39-1.04
		c2.76,1.14,5.55,2.17,8.35,3.21c-1.54,2.62-3.61,5.97-7.19,5.27c-3.56-0.77-4.53-4.55-4.31-7.7c0.38-5.53-5.58-7.95-8.39-11.82
		c-0.63-2.59,2.03-4.95,4.48-5.11c4.76,1.93,7.74,7.07,13.01,8c3.5,0.48,7.54,0.57,10.38-1.89c3.3-2.64,6.27-5.95,7.75-9.96
		c1.16-3.55-0.22-7.19-1.41-10.53c1.95-2.26,4.33-4.35,5.24-7.29c0.89-2.22,1.09-4.94,3.09-6.54c4.55-3.9,10.53-5.86,14.58-10.41
		c2.99-3.38,6.71-5.99,9.82-9.23c2.16-3.61,3.48-7.67,5.8-11.2c1.91-2.8,1.14-6.28,1.24-9.43c-0.16-4.95,1.77-9.64,1.94-14.55
		c0.2-7.57,1.13-15.21-0.49-22.69C228.402,67.743,231.482,68.203,234.112,66.863z"/>
	<path fill="#7E7767" d="M120.252,74.013c1.39-2.87,3.58-6.45,7.22-6.33c3.44,0.81,5.62,3.92,6.94,6.99
		c1.03,2.44,2.55,4.8,2.85,7.47c-1.16,2.8-3.83,4.52-6,6.47c0.28,3.16,0.51,6.6,3.31,8.65c2.08-2.73,1.15-6.03,0.39-9.03
		c1.05,0.19,2.11,0.38,3.17,0.57c0.51-2.82,2.43-4.49,5.24-4.85c0.92,2.07,1.84,4.15,2.75,6.22c0.22-0.14,0.66-0.44,0.88-0.58
		c-0.21-1.53-0.41-3.05-0.6-4.58c1.48,1.28,2.96,2.56,4.46,3.84c1.48-2.13,2.85-4.33,4.15-6.57c0.44,0.33,1.32,0.99,1.76,1.32
		c-1.37,2.72-2.99,5.31-4.19,8.1c-1.16,3.13,0.2,6.4,0.96,9.45c-2.39,0.4-4.77,0.81-7.15,1.2c0.73-3.18,1.56-6.33,2.1-9.54
		c-2.51,1.71-4.02,4.35-5.53,6.9c-2.21-2.74-0.44-6,0.3-8.93c-2.71,0.57-6.53,1.88-5.66,5.44c1.64,5.73,6.72,9.44,10.9,13.32
		c-0.22,1.42-0.63,2.8-0.98,4.19c-3.3-1.13-6.71-2.62-8.69-5.65c-2.61-3.07-3.04-7.16-3.54-11c-1.94,1.38-4.29,4.61-6.88,2.54
		c-2.81-3.13-3.66-7.53-6.15-10.91C119.222,84.533,117.952,78.833,120.252,74.013 M120.582,82.173c1.84,6,6,10.97,9.14,16.33
		c0.46-0.32,1.36-0.96,1.82-1.28c-0.56-2.53-0.8-5.3-2.56-7.36c-2.45-3.07-5.31-6.75-3.95-10.94c1.91-1.69,4.42-2.41,6.76-3.28
		c-0.05-2.95-1.85-6.32-5.07-6.52C122.002,71.403,120.402,77.323,120.582,82.173 M125.522,80.493c0.11,3.28,2.13,6,3.99,8.54
		c2.17-2.89,3.77-6.17,4.55-9.71C131.332,78.353,127.112,77.083,125.522,80.493z"/>
	<path fill="#7E7767" d="M111.172,87.083c1.78-1.81,3.94-3.16,6-4.63c1.63,4.6,6.87,8.75,4.7,14c-0.68,2.57-2.52,4.56-4.54,6.18
		c-1.87,5.1-3.94,10.37-8.13,14.04c-1.17-4.04-2.22-8.12-2.85-12.27c1.56,0.19,3.13,0.39,4.69,0.6c-1.75-4.9-2.78-10.02-4.07-15.05
		c1.48,0.65,2.95,1.31,4.42,1.99C111.242,90.323,111.012,88.703,111.172,87.083 M112.822,93.643c-1.29,0.98,0.37,3.17,1.63,2.09
		C115.752,94.743,114.092,92.543,112.822,93.643z"/>
	<path fill="#7E7767" d="M156.352,92.413c3.98,2.07,8.18,3.75,12.62,4.45c1.68,0.18,2.92,1.35,4.16,2.37
		c-6.38,2.25-12.82-0.33-18.8-2.51C155.022,95.293,155.692,93.863,156.352,92.413z"/>
	<path fill="#7E7767" d="M159.302,113.393c1.47,0,2.96,0,4.44,0.01c-0.13,0.67-0.38,2-0.51,2.66c-0.87,0.43-1.75,0.86-2.62,1.29
		C160.172,116.033,159.732,114.713,159.302,113.393z"/>
	<path fill="#7E7767" d="M85.452,120.763c4.08-1.61,7.47-4.48,11.42-6.34c3.33,0.12,6.64,1.11,9.98,0.31
		c-0.88,4.55-1.76,9.11-2.34,13.72c-1.88-0.1-3.75-0.19-5.63-0.27c-1.53-3.82-1.67-7.92-0.7-11.89c-1.04,1.7-2.11,3.38-3.17,5.07
		c1.68,3.32,2.74,6.92,2.73,10.67c-2.88,1.13-6.62,3.28-9.28,0.5C86.132,129.083,85.712,124.803,85.452,120.763 M88.632,120.823
		c-0.34,3.37,0.43,6.67,1.84,9.71C90.532,127.213,90.552,123.713,88.632,120.823z"/>
	<path fill="#7E7767" d="M133.782,115.393c2.65,0.26,6.55,0.13,7.57,3.17c-0.12,1.31-0.39,2.59-0.61,3.88
		c-2.78-1.34-5.56-2.66-8.41-3.85C132.782,117.513,133.202,116.413,133.782,115.393z"/>
	<path fill="#7E7767" d="M142.262,127.983c1.07,0.84,2.26,1.59,3.11,2.68c0.41,2.05,0.22,4.16,0.18,6.24
		c-1.6-1.28-2.96-2.81-4.03-4.56c-0.41,2.58-0.19,5.6-1.99,7.7c-1.66,0.62-3.43,0.8-5.14,1.26c-2.29,0.43-3.81,2.38-5.79,3.45
		c-1.64-0.07-3.23-0.52-4.83-0.84c-0.23-3.48-1.85-7.67,0.58-10.69c3.37-1.21,6.88-2.03,10.31-3.05c2.24-0.77,4.46,0.42,6.6,0.98
		C141.512,130.363,142.012,128.773,142.262,127.983 M136.822,133.803c-1.56,0.87-0.43,3.95,1.33,2.84
		C139.722,135.783,138.582,132.703,136.822,133.803z"/>
	<path fill="#7E7767" d="M264.442,137.143c1.05,0.37,2.11,0.73,3.17,1.1c-0.48,1.13-0.96,2.27-1.44,3.41
		C263.972,140.853,263.452,139.213,264.442,137.143z"/>
	<path fill="#7E7767" d="M268.082,140.613c1.52-0.47,3.05-0.93,4.59-1.36c-0.43,1.54-0.89,3.07-1.35,4.6
		C270.242,142.773,269.162,141.693,268.082,140.613z"/>
	<path fill="#7E7767" d="M313.622,139.503c1.01,2.09,2.07,4.16,2.91,6.33c-5.35,2.36-9.71,6.3-14.08,10.08
		c-0.94-1.26-1.95-2.47-2.68-3.86c0.08-2.46,1.19-4.73,1.99-7.02c1.71,0.43,3.42,0.85,5.14,1.25c0.5-2.01,1-4.03,1.52-6.05
		c2.06,1.8,4.14,3.58,6.27,5.29C314.372,143.513,314.062,141.493,313.622,139.503 M303.082,151.133c0.84,0.04,2.51,0.14,3.34,0.18
		c0.36-1.18,0.73-2.37,1.09-3.55C305.722,148.453,304.052,149.413,303.082,151.133z"/>
	<path fill="#7E7767" d="M294.442,148.923c1.72,1.62,3.21,3.45,4.61,5.35c-0.82,0.8-1.64,1.59-2.45,2.39
		C295.472,154.213,294.682,151.623,294.442,148.923z"/>
	<path fill="#7E7767" d="M167.902,197.743c2.69,3.12,4.5,7,7.89,9.49c2.94,2.17,3.89,5.82,4.99,9.11c-1.32-0.03-2.63-0.05-3.94-0.07
		c-1.38-2.6-2.45-5.43-4.44-7.64c-2.13-1.55-5.5-1.99-6.23-4.92C165.222,201.573,167.222,199.643,167.902,197.743z"/>
	<path fill="#7E7767" d="M158.512,198.783c3.77,4.75,7.41,9.57,11.63,13.95c-1.72,0.37-3.45,0.73-5.17,1.11
		c3.4,3.22,9.72,2.41,11.06,7.71c-4.22-0.43-7.94-2.53-11.72-4.27c2.3,5.27,9.26,5.2,11.83,10.12c-5.7,0.46-11.1-2.79-14.14-7.47
		c0.07-2.88,1.23-5.63,1.18-8.52C161.302,207.343,156.242,203.753,158.512,198.783z"/>
	<path fill="#7E7767" d="M141.892,213.083c3.89,1.57,8.43,2.38,11.29,5.7c7.42,8.18,17.51,13.04,26.62,19.01
		c-0.41,1.29-0.82,2.59-1.24,3.89c-3.56-1.39-7.1-2.86-10.44-4.71c-4.47-2.48-7.54-6.9-12.21-9.08c-4.55-2.21-9.28-4.05-13.92-6.05
		C142.032,218.923,141.972,216.003,141.892,213.083z"/>
	<path fill="#7E7767" d="M98.952,235.993c-3.97-4.09-1.96-10.81,1.01-14.92c2.53,4.04,3.88,8.65,4.09,13.41
		c0.53-0.12,1.6-0.36,2.13-0.48c0.96-1.63,1.92-3.26,2.88-4.89c1.45,0.31,3.16,0.2,4.22,1.44c2.65,2.66,5.75,4.82,9.23,6.26
		c0.08,2.07,0.23,4.15,0,6.22c-1.39,1.1-2.99,1.86-4.55,2.67c-1.38-3.67-3-7.26-5.22-10.51c-0.42,2.9-1.4,6.04,0.05,8.82
		c1.2,2.47,2.22,5.1,0.95,7.77c-3.36-2.42-6.85-4.89-9.2-8.37C102.792,240.843,100.942,238.363,98.952,235.993 M106.922,244.603
		c2.42-2.18,2.28-5.57,2.37-8.55C106.992,238.303,107.012,241.613,106.922,244.603z"/>
	<path fill="#7E7767" d="M181.092,244.213c0.46-2.53,2.16-4.3,4.4-5.42c0.08,2.28,0.11,4.57,0.12,6.86
		C184.102,245.183,182.592,244.703,181.092,244.213z"/>
	<path fill="#7E7767" d="M209.322,249.933c1.79,1.56,4.36,3.21,4.1,5.93c-3.8,3.19-5.61,7.87-6.51,12.63
		c-0.89,5.42-4.45,9.85-5.73,15.15c-1.05,4.74-4.03,8.8-4.75,13.62c-1.02,7.16-8.2,10.96-10.49,17.56
		c-0.19,1.86-2.71,2.06-2.99,0.14c-0.72-4.52,0.71-9.23,3.14-13.04c2.28-1.71,5.99-1.92,6.75-5.2c1.34-4.17,4.28-7.83,4.5-12.31
		c0.24-5.34,2.53-10.42,5.91-14.5c2.14-2.3,1.41-5.7,2.5-8.44C207.202,257.703,208.852,253.983,209.322,249.933z"/>
	<path fill="#7E7767" d="M185.782,253.003c1.67,0.8,3.33,1.61,5,2.42c0.04,9.68-6.56,18.11-5.33,27.9
		c0.55,4.63-4.26,6.99-6.22,10.57c-0.69,2.58,0.01,5.3-0.51,7.9c-0.63,1.76-1.65,3.34-2.55,4.97c0.5,2.04,1.01,4.08,1.5,6.13
		c-2.29,1.54-4.56,3.1-6.8,4.68c1.29,1.53,2.45,3.26,4.17,4.37c2.64,1.51,5.73,1.79,8.56,2.78c-0.01,0.37-0.02,1.1-0.03,1.47
		c-5.11,0.91-10.03-2.08-15.21-1.53c-0.3-2.99-1.16-5.93-1.13-8.94c1.4-3.94,3.72-7.73,3.02-12.1c2.08-1.98,4.71-4.26,3.09-7.38
		c2.11-3.8,2.11-8.17,2.44-12.38c0.15-3.57,2.71-6.27,4.51-9.13c-2.33-3.72-0.64-8.04,1.19-11.56
		C183.262,259.933,184.572,256.483,185.782,253.003z"/>
	<path fill="#7E7767" d="M237.062,327.453c1.44-2.59,3.42-4.92,6.46-5.59c0.05,1.86,0.1,3.72,0.15,5.59
		C241.492,328.023,239.222,328.263,237.062,327.453z"/>
	<path fill="#7E7767" d="M185.192,327.453c0.85-0.02,2.54-0.06,3.39-0.08c0.38,1.77,0.74,3.55,1.08,5.33
		C187.322,331.763,185.662,329.963,185.192,327.453z"/>
	<path fill="#7E7767" d="M203.972,327.803c2.3,0.62,4.76,1.1,6.64,2.68c0.15,2.08-2.35,2.51-3.64,3.6
		c-0.25,2.42-0.44,4.84-0.62,7.27c-0.72-0.03-2.15-0.1-2.87-0.14C202.782,336.743,203.452,332.243,203.972,327.803z"/>
	<path fill="#7B4813" d="M268.682,126.183c-0.5-5.96,9.25-7.2,11.27-2.07c1.7,3.31-1.15,6.53-2.55,9.38
		C274.002,131.813,270.042,130.023,268.682,126.183z"/>
</g>
</svg>
