<?xml version="1.0" encoding="utf-8"?>
<!-- Generator: Adobe Illustrator 17.0.0, SVG Export Plug-In . SVG Version: 6.00 Build 0)  -->
<!DOCTYPE svg PUBLIC "-//W3C//DTD SVG 1.1//EN" "http://www.w3.org/Graphics/SVG/1.1/DTD/svg11.dtd">
<svg version="1.1" id="Layer_1" xmlns="http://www.w3.org/2000/svg" xmlns:xlink="http://www.w3.org/1999/xlink" x="0px" y="0px"
	 width="401px" height="382px" viewBox="0 0 401 382" enable-background="new 0 0 401 382" xml:space="preserve">
<g>
	<path fill="#020102" d="M222.93,10.87c0.7,0.5,1.41,1.02,2.11,1.53c-0.94,2.58-1.9,5.15-2.85,7.72c1.1-0.12,2.2-0.24,3.3-0.36
		c1-1.4,1.99-2.8,2.99-4.21c0.61,0.73,1.22,1.46,1.84,2.19c-0.71,1.02-1.4,2.04-2.09,3.06c-3.77,0.65-7.55,1.27-11.25,2.29
		c-2.18,0.56-4.36,1.15-6.54,1.72c0.17,1.38,0.34,2.75,0.56,4.12c1,2.69,2.09,6.21,5.25,6.97c3.06,0.32,6.07-0.6,9.04-1.23
		c0.23,0.64,0.46,1.27,0.69,1.91c-0.85,1.4-1.71,2.79-2.49,4.22c-4.46-1.01-8.79-2.58-12.73-4.9c-2.85-1.58-5.77-3.02-8.73-4.36
		c-2.33,5.31-2.8,11.12-2.23,16.84c-0.35-0.17-1.06-0.51-1.42-0.68c-0.34-1-0.69-1.99-1.03-2.98c-1.16-0.7-2.31-1.39-3.45-2.12
		c2.2-2.25,3.74-5.02,4.39-8.11c-3.09,1.22-5.71,3.28-7.91,5.73c-0.72,0.73-1.43,1.47-2.13,2.21c-0.54-0.7-1.62-2.1-2.15-2.8
		c4.7-6.13,6.81-13.71,9.9-20.68c0.74,0.36,2.23,1.09,2.98,1.46c-1.29,3.25-2.73,6.44-4.16,9.63c1.95-0.45,3.91-0.9,5.87-1.35
		c0.41-2.23,0.85-4.45,1.29-6.67c1.18-1.22,2.36-2.44,3.54-3.66c4.58,0.6,9.67,1.75,13.87-0.83
		C221.13,15.66,221.85,13.12,222.93,10.87 M204.2,22.74c-0.09,1.44-0.18,2.87-0.25,4.31c0.84-0.09,2.53-0.26,3.37-0.35
		C206.31,25.36,205.26,24.04,204.2,22.74z"/>
	<path fill="#020102" d="M94.62,17.48c3.9,3.35,7.15,7.37,9.84,11.73c-3.25,5.15-4.51,11.13-6.71,16.71
		c-2.19,5.52-7.97,8.03-13.13,10.01c-4.36,1.82-8.17,5.42-13.14,5.36c-2.02-1.89-4.39-3.65-5.43-6.3c0.01-3.14,3.98-3.41,6.23-2.51
		c1.53,2.29,1.55,5.18,2.1,7.8c4.89-6.05,13.27-6.76,18.76-12.03c-0.81-2.99-1.96-6.11-1.21-9.24c1.19,0.18,2.37,0.37,3.55,0.55
		c1.21-2.49,2.88-4.85,3.42-7.61c-0.32-2.96-2.42-5.38-3.8-7.93c-1.2,1.29-2.39,2.59-3.57,3.89c1.33,0.98,2.66,1.96,4,2.94
		c-0.52,1.32-1.04,2.65-1.6,3.95c-0.93-2.26-1.91-4.49-2.97-6.68C93.41,25.08,94.81,21.41,94.62,17.48z"/>
	<path fill="#020102" d="M89.31,18.3l0.81-0.21c0.72,1.33,1.44,2.67,2.17,4c-1.64-0.01-3.27-0.02-4.91-0.04
		C88.01,20.79,88.64,19.53,89.31,18.3z"/>
	<path fill="#020102" d="M231.93,18.65c0.81,0.12,2.44,0.38,3.25,0.51l1,0.31c-0.54,0.79-1.08,1.59-1.62,2.38
		c-0.61,0.07-1.81,0.2-2.42,0.26C232.09,21.25,231.98,19.51,231.93,18.65z"/>
	<path fill="#020102" d="M74.02,26.14c1.22-2.16,2.09-4.48,3.06-6.75c3.43,0.55,6.94,1.59,8.91,4.69c-1.38,1.95-2.67,4-4.42,5.66
		c-2.2-0.18-4.29-0.98-6.4-1.62c-0.98,1.87-1.91,3.77-2.78,5.7c2.12-0.46,4.25-0.95,6.38-1.41c0,0.57,0,1.7,0,2.26
		c-1.84,0.59-3.67,1.19-5.49,1.81c-1.16-0.24-2.33-0.47-3.48-0.71c-1.84,3.69-3.23,7.59-3.99,11.65c-1.08-0.14-2.16-0.28-3.23-0.42
		c1.52-3.71,2.74-7.55,4.46-11.18C68.74,32.16,72.05,29.62,74.02,26.14z"/>
	<path fill="#020102" d="M229.08,22.29c2.2,3.13,2.28,7.02,2.54,10.69c1.08,0.42,2.16,0.87,3.23,1.33c0.74,0.66,1.47,1.32,2.21,1.99
		c-1.41,0.97-2.81,1.94-4.2,2.94c-0.4-0.27-1.21-0.81-1.62-1.08c-1.39-3.11-3.2-6.01-5.34-8.65c1.28-0.27,2.56-0.54,3.84-0.81
		c-0.79-1-1.6-1.99-2.27-3.08C227.88,24.45,228.47,23.36,229.08,22.29z"/>
	<path fill="#020102" d="M226.55,38.47c1.05,1.02,2.88,1.77,2.7,3.52c0.06,5.39-2.81,10.23-6.39,14.04
		c-0.56-1.83-1.11-3.66-1.65-5.5c1.37-1.09,3.06-1.92,4.03-3.43C226.5,44.41,226.28,41.35,226.55,38.47z"/>
	<path fill="#020102" d="M182.85,47.79c0.21-1.92-0.52-4.82,2.06-5.37c0.79,1.65,0.82,3.51,1.04,5.3
		C185.18,47.74,183.63,47.78,182.85,47.79z"/>
	<path fill="#020102" d="M59.67,62.54c0.32-3.85,0.65-7.72,1.51-11.49c-0.02,3.51,0.35,7.02,1.07,10.45
		c0.53,2.45,1.16,4.88,1.76,7.31c4.92,0.23,9.91,0.83,14.78-0.12c3.62-0.4,2.73-4.8,3.26-7.38c0.66,0.44,1.32,0.89,1.98,1.33
		c0.35,2.39,0.6,4.8,0.65,7.22c-0.53,1.36-1.13,2.69-1.73,4.02c-0.85-1.19-1.69-2.38-2.53-3.58c-0.44-0.06-1.33-0.18-1.78-0.24
		c0.4,1.19,0.8,2.39,1.2,3.58c-2.79,1.12-5.65,2.15-8.68,2.33c-2.15-2.36-4.83-4.14-7.83-5.25C61.65,68.27,59.22,65.76,59.67,62.54z
		"/>
	<path fill="#020102" d="M179.28,53.52c5.94,0.04,11.88-0.02,17.82,0.17c4.1,1.04,5.24,5.53,8.02,8.17
		c2.28,1.02,4.85,1.02,7.29,1.34c-0.59,1.05-1.19,2.09-1.79,3.14c1.46,0.01,2.93,0.01,4.4,0.03c-0.54,1.41-1.07,2.82-1.61,4.24
		c1.05-0.02,2.1-0.03,3.16-0.03c1.43,1.09,2.74,2.47,4.48,3.08c2.48,0.19,5.25-0.91,6.24-3.35c2.54-5.34,5.7-10.81,5.37-16.95
		c0.82,0.09,1.64,0.18,2.47,0.28c0.78,1.02,1.57,2.04,2.34,3.09c-0.59,1.02-1.17,2.05-1.76,3.07c-2.61,3.12-4.65,6.65-6.01,10.49
		c-0.92,3.09-4.24,4.17-6.45,6.13c0.41,1.71,1.52,3.82,3.59,3.58c4.07-3.64,6.3-8.95,7.59-14.15c0.95,0.61,1.9,1.22,2.84,1.84
		c-1.03,2.28-2.84,4.47-2.86,7.05c0.79,3.62,4.9,4.34,7.78,5.67c6.01,2.34,10.32,7.35,14.25,12.24c2.31-0.98,4.62-2.91,7.25-2.47
		c3.4,1.85,4.94,5.78,8.03,8.04c3.32,0.78,6.76-0.11,10.13-0.06c2.17,1.09,4.24,2.39,6.51,3.31c2.89,1.16,6.12,1.02,9.02,2.16
		c2.56,1.22,4.54,3.33,6.75,5.07c3.89,2.8,9.64,0.22,12.98,4.16c3.73,4.54,10,5.06,14.47,8.56c2.81,1.93,5.65,5.12,9.44,4.16
		c8.18-2.12,13-10.31,21.15-12.55c-0.87,6.31-2.01,12.6-4.18,18.6c-4.93-0.88-9.94-1.29-14.95-1.25c-0.4,1.11-0.79,2.21-1.17,3.32
		c-6.94,0.2-13.77-1.32-20.43-3.07c-1.61,0.84-3.21,1.8-5.02,2.13c-1.28-1.87-2.09-4-2.81-6.13c1.56-0.39,3.1-0.79,4.66-1.21
		c-4.38-2.18-9.13-3.42-13.79-4.85c-0.56,0.71-1.13,1.42-1.7,2.12c-2.85,2.13-6.17,3.6-9.73,3.96c0.64-2.66,1.01-5.49,2.47-7.87
		c2.72-0.72,5.57-0.34,8.35-0.31c-0.05-0.52-0.15-1.57-0.2-2.09c-3.27-0.61-6.59-1.15-9.68-2.43c-3.41-1.4-6.35-3.83-9.97-4.72
		c-3.04-0.95-6.42-1.19-9.04-3.15c-2.17-1.42-4.08-3.68-6.88-3.69c-4.24-0.37-8.49-0.59-12.65-1.52c0.83-2.23,1.63-4.46,2.44-6.69
		c-7.38,1.1-15.06,0.66-22.11,3.48c-0.31,1.06-0.61,2.13-0.91,3.2c-1.83,1.11-3.66,2.38-5.78,2.86c-3.51-1.48-6.63-5.58-10.82-3.86
		c-3.15,2.51-4.81,6.32-6.65,9.8c-1.68,0.57-3.35,1.15-5.02,1.74c-0.52-1.4-1.09-2.78-1.65-4.15c2.43-1.75,4.94-3.39,7.32-5.2
		c1.19-1.4,2.26-2.9,3.33-4.39c-2.12-1.07-4.24-2.13-6.36-3.19c0.27-1.35,0.54-2.7,0.81-4.05c0.95-1.36,1.89-2.71,2.85-4.06
		c-1.08-0.97-2.17-1.95-3.25-2.92c0.91-1.46,1.72-2.97,2.55-4.47c-1.4-1.44-2.8-2.88-4.2-4.31c-3.49,3.69-7.6,7.29-8.97,12.38
		c-2.92,9.7,0.18,19.76-0.79,29.65c3.18,0.11,6.37,0.17,9.57,0.19c-0.16,0.96-0.33,1.93-0.51,2.89c-2.98,2.11-5.47,5.4-9.1,6.3
		c-3.67-2.49-6.92-5.56-10.81-7.74c-0.14-1.1-0.28-2.2-0.41-3.31c2.58-0.53,5.71-0.28,7.7-2.29c-0.11-2.31-0.71-4.56-0.73-6.87
		c0.25-3.04,2.04-5.77,2.08-8.85c-0.2-4.54-2.08-8.95-1.43-13.54c0.25-3.45,1.52-6.95,0.65-10.39c-0.86-1.34-2.33-2.1-3.51-3.1
		c0.27-0.35,0.81-1.04,1.08-1.38c1.53-0.12,3.06-0.23,4.6-0.34c-0.74-3-1.34-6.63-4.4-8.19c-3.15-1.55-6.58-2.49-9.65-4.24
		c-1.2,0.22-2.4,0.44-3.59,0.66C179.61,55.5,179.44,54.51,179.28,53.52 M197.9,81.43c4.62-2,6.73-6.85,10.08-10.3
		c-0.99,0.12-1.98,0.25-2.97,0.37c-1.17-0.9-2.34-1.79-3.51-2.68C199.05,72.57,198.8,77.17,197.9,81.43 M227.5,82.38l1.04-0.01
		c-0.13,4.39-0.82,8.95,0.91,13.15c-0.76,1.53,0.66,2.74,1.32,3.99c0.87-2.88,1.44-5.82,2.02-8.76c0.96,0.32,1.91,0.65,2.87,0.98
		c0.51-2.1,1.04-4.18,1.64-6.26l0.82,0.52c-0.71-2.17-1.75-4.2-2.97-6.12C232.53,80.49,229.95,81.27,227.5,82.38 M215.16,87.17
		c-0.52,1.62,0.03,2.18,1.66,1.66C217.34,87.2,216.79,86.64,215.16,87.17z"/>
	<path fill="#020102" d="M183.14,60.52c3.7,0.08,6.65,2.67,9.43,4.83c-3.59,0.09-7.58-0.11-10.2,2.83c1.86,0.47,3.74,0.92,5.61,1.36
		c-0.11,1.05-0.23,2.11-0.34,3.17c-2.4-0.05-4.8-0.11-7.2-0.17c-0.55-0.5-1.65-1.49-2.2-1.99
		C179.81,67.27,179.51,62.35,183.14,60.52z"/>
	<path fill="#020102" d="M162.14,70.03c2.81,2.01,5.97,3.67,9.49,3.86c-1.2,0.44-2.4,0.87-3.59,1.33c-1.04,0.39-2.07,0.81-3.11,1.22
		c-0.93,2.13-1.91,4.24-2.99,6.3C161.19,78.52,161.56,74.24,162.14,70.03z"/>
	<path fill="#020102" d="M156.75,73.18l0.79-0.47c1.63-0.03,2.34,0.65,2.15,2.05c-1.19,0.79-2.22,0.53-3.07-0.76L156.75,73.18z"/>
	<path fill="#020102" d="M258.93,81.15c0.54-0.28,1.62-0.86,2.16-1.14c0.21,0.54,0.64,1.62,0.85,2.17
		c-0.12,1.52-0.25,3.04-0.37,4.56c-2.72,0.09-5.43,0.11-8.14,0.08C255.03,84.73,256.72,82.65,258.93,81.15z"/>
	<path fill="#020102" d="M175.92,86.96c0.18-1.32,0.42-2.64,0.67-3.94c2.33,4.01,1.83,8.83,3.32,13.1
		c1.68,3.84,4.34,7.19,5.86,11.13c-0.68-0.09-2.05-0.25-2.73-0.34c-2.1-3.83-4.45-7.53-6.47-11.4
		C175.09,92.89,175.71,89.8,175.92,86.96z"/>
	<path fill="#020102" d="M270.33,88.84c4.12-0.74,8.3-0.14,12.34,0.75c-0.23,1.34-0.49,2.68-0.71,4.02l-0.55-0.7
		c-3.04-1.88-6.53-1.23-9.61,0.14c-0.56-0.71-1.08-1.46-1.59-2.19C270.24,90.35,270.3,89.35,270.33,88.84z"/>
	<path fill="#020102" d="M164.32,111.13c4.92-0.01,9.87,0.04,14.72,1.01c1.48,0.41,2.95,0.87,4.42,1.33c0.1,0.62,0.3,1.87,0.39,2.49
		c-5.59-0.99-11.17-2.19-16.86-2.41l-1.02,0.05C165.41,112.77,164.86,111.95,164.32,111.13z"/>
	<path fill="#020102" d="M108.74,117.25c0.84-0.06,1.67-0.08,2.52-0.07c0.29,2.85,0.28,5.97,2.16,8.33
		c2.74,3.81,6.46,7.53,6.02,12.62c-4.94,1.8-10.02,3.24-15.24,3.97c-0.08-0.74-0.25-2.22-0.34-2.96c0.08-6.28,2.11-12.28,3.73-18.28
		C107.95,119.65,108.34,118.45,108.74,117.25z"/>
	<path fill="#020102" d="M138.97,116.72c0.24-0.12,0.73-0.35,0.98-0.47c3.99,2.18,8.44,3.79,11.8,6.93
		c3.42,5.09-0.28,10.98-2.28,15.87c-1.73,0.39-3.47,0.76-5.2,1.14c-1.65-2.02-3.66-3.68-5.84-5.09c0.99-0.87,1.99-1.75,2.98-2.63
		C141.24,127.15,141.45,121.61,138.97,116.72z"/>
	<path fill="#020102" d="M240.27,124.12c6.7,1.92,13.4,4.34,18.73,8.99c1.07,2.32,2.32,4.85,1.79,7.48
		c-0.95,2.81-3.63,4.61-4.75,7.33c-0.42,2.1-0.28,4.27-0.35,6.41c-1.71-0.25-3.44-0.41-5.1-0.91c-1.29-1.6-2.05-3.54-2.94-5.37
		c3.55-4.13,7.16-8.22,10.89-12.19c-3.38-3.12-7.49-5.72-12.28-4.96c-1.93-2.25-4.63-3.42-7.52-3.83
		C239.26,126.09,239.76,125.1,240.27,124.12z"/>
	<path fill="#020102" d="M196.44,129.31c1.18-0.92,2.82-0.26,4.03,0.25c1.56,1.61-0.55,3.13-1.23,4.6
		c-3.24,3.92-0.08,10.43-5.22,13.2c0.63-2.93,1.69-5.85,1.45-8.89C195.39,135.42,194.49,132,196.44,129.31z"/>
	<path fill="#020102" d="M231,142.95c0.52,0.3,1.55,0.9,2.07,1.21c-0.69,1.05-1.38,2.1-2.07,3.15c-0.28-0.64-0.82-1.94-1.1-2.59
		C230.18,144.28,230.73,143.39,231,142.95z"/>
	<path fill="#020102" d="M284.28,155.3c0.94,0.25,1.88,0.51,2.82,0.79c0.3,0.24,0.9,0.73,1.2,0.97c-0.75,1.31-1.5,2.63-2.24,3.95
		c-1.34-0.16-2.67-0.3-4-0.42C282.8,158.83,283.54,157.07,284.28,155.3z"/>
	<path fill="#020102" d="M242.99,166.2c1.21-3.39,2.61-6.72,3.75-10.14c1.14,1.22,2.29,2.44,3.44,3.67
		C247.78,161.89,245.38,164.04,242.99,166.2z"/>
	<path fill="#020102" d="M185.29,166.45c3.11-3.49,6.41-6.84,10.26-9.53c1.83,1.41,3.68,2.8,5.52,4.2
		c-1.07,1.51-2.16,3.01-3.17,4.56c-1.95,3.15-3.85,6.86-3.07,10.67c1,0.82,2.18,1.36,3.29,2.02c0.71-4.03,1.48-8.06,2.72-11.97
		c2.08,0.58,4.08,1.37,6.11,2.1c2.26,0.78,4.57,1.45,6.88,2.08c0.72,0.76,1.44,1.51,2.16,2.28c-4.07-0.05-8.39,0.36-10.98,3.93
		c1.65,2.28,3.38,4.5,5.31,6.56c-3.26,1.1-7.23,1.56-9.45,4.46c-2.31,5.87,0.63,11.97,1.26,17.87c-3.77,2.18-6.11,5.88-8.08,9.64
		c-4.15-0.85-8.36-0.43-12.48,0.35c2.56-1.52,5.18-2.95,7.81-4.33c-1.01-2.35-2.09-4.68-3.25-6.97c0.38-0.36,0.77-0.72,1.16-1.08
		c2.16,0.19,4.33,0.38,6.49,0.56c0.18-3.55,0.25-7.19-0.86-10.61c-0.94-2.84-2.17-5.69-4.41-7.75c-1.67-1.86-3.93-3.33-4.99-5.65
		c0.05-2.76,0.91-5.42,1.49-8.09c-1.68-1.09-3.78-1.84-4.88-3.58c-0.17-1.52,0.59-2.96,0.97-4.39c-0.33-0.74-0.65-1.48-0.98-2.21
		c1.96-0.35,3.92-0.7,5.88-1.06C185.76,162.49,185.52,164.46,185.29,166.45 M188.88,174.11c1.8-0.68,3.58-1.38,5.37-2.07
		c-0.08-3.12,0.18-6.43-1.33-9.28C189.33,165.14,189.85,170.34,188.88,174.11z"/>
	<path fill="#020102" d="M274.64,168.4c-0.25-3.46,2.6-5.23,5.36-6.43C279.52,165.06,278.13,168.04,274.64,168.4z"/>
	<path fill="#020102" d="M228.95,166.49c1.27-0.97,2.6-1.85,3.93-2.73c1.15,1.34,2.31,2.68,3.46,4.03c-1.27,0.63-2.54,1.25-3.8,1.87
		c0.07,2.31,0.14,4.62,0.33,6.93C231.61,173.2,230.23,169.86,228.95,166.49z"/>
	<path fill="#020102" d="M224.73,166.49c0.42,0.86,0.82,1.72,1.23,2.58c0.19,0.42,0.57,1.26,0.76,1.67
		c-0.19,0.53-0.57,1.59-0.76,2.11c-1.91-0.71-3.76-1.55-5.59-2.44C221.78,169.05,223.25,167.76,224.73,166.49z"/>
	<path fill="#020102" d="M267.13,170.66c1.41-0.19,2.83-0.38,4.24-0.56c-0.46,1.72-0.9,3.45-1.47,5.14
		c-0.35,0.67-1.06,2.02-1.42,2.69C267.41,175.65,267.01,173.16,267.13,170.66z"/>
	<path fill="#020102" d="M221.47,179.7c-0.3-2.62-2.06-4.78-2.92-7.23c2.26,0.92,4.57,1.75,6.78,2.78
		c-0.72,1.38-1.43,2.77-2.14,4.17c1.16,0.82,2.32,1.66,3.47,2.51l-0.23,0.89c-0.84,0.42-1.7,0.82-2.56,1.2
		c-1.68,0.54-3.39,0.97-5.09,1.41c1.4,1.11,2.81,2.22,4.21,3.33c-1.23-0.07-2.45-0.14-3.67-0.21c-1.78-0.24-3.54-0.57-5.31-0.88
		c0.7-0.65,1.4-1.3,2.11-1.94C218.02,183.85,220.31,182.18,221.47,179.7z"/>
	<path fill="#020102" d="M175.06,181.1c2.59-0.15,4.85,1.08,6.65,2.84c-2.17,0-4.34-0.01-6.5-0.25c-0.42-0.18-1.26-0.53-1.68-0.71
		C173.91,182.51,174.68,181.57,175.06,181.1z"/>
	<path fill="#020102" d="M248.64,185.05c1.58-0.14,3.16-0.28,4.76-0.41c0.2,2.44,0.37,4.89,0.32,7.34c-0.6,0.29-1.19,0.57-1.78,0.86
		c-0.46-1.13-0.93-2.25-1.39-3.37C249.93,187.99,249.28,186.51,248.64,185.05z"/>
	<path fill="#020102" d="M298.31,192c2.96-2.36,6.71-2.59,10.32-2.01C307.11,194.44,301.51,194.98,298.31,192z"/>
	<path fill="#020102" d="M226.88,203.77c4.05,1.71,7.61,4.37,10.66,7.52c-0.39,0.18-1.18,0.55-1.58,0.74
		C232.36,209.98,229,207.4,226.88,203.77z"/>
	<path fill="#020102" d="M223.18,206.47c1.29-1.42,3.7,0.75,2.21,2.1C224.09,210.01,221.67,207.82,223.18,206.47z"/>
	<path fill="#020102" d="M167.89,206.29c0.33,1.31,0.52,2.66,0.47,4.02C165.53,210.62,165.85,207.19,167.89,206.29z"/>
	<path fill="#020102" d="M203.87,208.6c0.37,2.42,0.57,4.87,0.73,7.32c-0.69-0.45-2.05-1.35-2.73-1.8l0.15-0.84
		C202.6,211.7,203.22,210.14,203.87,208.6z"/>
	<path fill="#020102" d="M135.76,212.27c3.11,1.37,6.32,2.49,9.6,3.36c-2.25,0.72-4.51,1.44-6.76,2.17
		c-0.19,0.48-0.57,1.46-0.76,1.94c2.1,0.21,4.2,0.41,6.3,0.63c-0.97,1.31-1.93,2.62-2.9,3.94c-1.72-1.17-3.44-2.34-5.17-3.49
		c0.12,2.19,0.27,4.38,0.43,6.58c-1.94-2.11-3.95-4.53-7.04-4.72c-0.41,0-1.23,0-1.63,0c1.26-1.27,2.52-2.55,3.78-3.83
		c-0.85-1.45-1.7-2.89-2.54-4.34c2,0.3,4,0.62,6,0.96C135.3,214.4,135.53,213.33,135.76,212.27z"/>
	<path fill="#020102" d="M166.03,216.64c1.5,0.06,3,0.12,4.49,0.25c-0.21,0.7-0.63,2.1-0.84,2.8c-0.6,0.06-1.8,0.19-2.41,0.26
		C166.96,219.12,166.34,217.46,166.03,216.64z"/>
	<path fill="#020102" d="M190.7,218.65c1.32-1,3.18-0.55,4.73-0.86c-0.31,1.21-0.67,2.42-1.07,3.61c-1.49,0.67-3.17,0.54-4.75,0.77
		C189.92,220.98,190.28,219.8,190.7,218.65z"/>
	<path fill="#020102" d="M218.7,224.76c-0.48-1.46-0.01-2.31,1.42-2.54c1.21,0.88,1.27,1.93,0.18,3.14
		C219.9,225.21,219.1,224.91,218.7,224.76z"/>
	<path fill="#020102" d="M252.07,224.42c1.55-0.89,3.16-1.66,4.78-2.42c0.04,1.98,0.14,3.95,0.25,5.93
		c-1.86-0.77-3.71-1.54-5.57-2.3C251.66,225.32,251.94,224.72,252.07,224.42z"/>
	<path fill="#020102" d="M196.58,226.54c0.5,1.48,1,2.96,1.5,4.44c-1.5-0.82-2.99-1.64-4.48-2.45
		C194.35,228.03,195.83,227.04,196.58,226.54z"/>
	<path fill="#020102" d="M165.1,230.2c0.68,0.01,2.03,0.04,2.71,0.05c0,0.64,0.01,1.93,0.01,2.58c-0.66-0.03-1.99-0.08-2.66-0.1
		C165.15,232.1,165.12,230.83,165.1,230.2z"/>
	<path fill="#020102" d="M324.25,233.01c1.1,7.72,4.71,15.33,2.86,23.25c-5.28,1.6-11.05,2.56-16.44,0.94
		c-1.74-0.54-2.17-2.54-3.09-3.9c-2.75,1.25-5.75,1.78-8.7,2.35c1.91,0.26,3.83,0.52,5.74,0.82c-3.36,0.35-6.77,0.68-9.98,1.81
		c-1.17,0.68-2.31,1.4-3.38,2.22c0.2,1.65,1.18,3.04,1.92,4.49c-0.43,0.44-0.86,0.89-1.28,1.35c-1.41-0.34-2.82-0.67-4.22-1
		c-0.14,1.67-0.25,3.34-0.33,5.01c-0.93-0.96-1.86-1.92-2.79-2.87c-0.87,1.63-2.86,3.12-2.27,5.17c1.11,4.49,5.94,6.98,10.35,6.4
		c0.6,0.64,1.2,1.28,1.82,1.92c-3.11,1.88-6.76,3.28-10.32,1.75c-5.56-1.16-5.88-7.66-6.75-12.18c5.26-3.82,8.76-9.45,13.81-13.49
		c4.04-3.43,9.69-2.22,14.49-3.43c-0.17-2.89-0.84-5.72-1.6-8.5c-0.2-2.14-0.25-4.29-0.44-6.43c1.28,1.94,2.44,4.27,4.63,5.32
		c4.74-1.62,9.45-3.41,14.4-4.35C323.68,237.58,324.16,235.3,324.25,233.01 M311.14,247.31c-0.46,1.21-0.92,2.42-1.38,3.64
		c5.2,1.27,10.32,2.83,15.45,4.35c0.21-3.14,0.48-6.98-2.58-8.93C318.78,246.1,314.97,247,311.14,247.31z"/>
	<path fill="#020102" d="M184.21,238.75c1.14-0.46,2.21-1.36,3.48-1.35c1.13,0.89,2.08,1.98,3.06,3.03
		c-0.52,0.48-1.56,1.45-2.08,1.93C187.2,241.13,185.73,239.91,184.21,238.75z"/>
	<path fill="#020102" d="M209.26,240.4c0.77,0.03,2.33,0.1,3.11,0.13c-0.21,2.02-0.49,4.04-0.7,6.06
		C210.82,244.54,210.06,242.46,209.26,240.4z"/>
	<path fill="#020102" d="M232,254.25c1.42-1.81,4.36-3.42,5.28-0.29C235.7,255.38,233.79,255.05,232,254.25z"/>
	<path fill="#020102" d="M197.47,262.5c1.3-0.72,2.63-1.4,3.96-2.06c0.14,1.84,0.3,3.71,0.09,5.56
		C200.17,264.83,198.82,263.66,197.47,262.5z"/>
	<path fill="#020102" d="M312.9,271.07c2.39-4.22,5.25-8.41,9.91-10.33c-2.58,3.24-4.99,6.62-6.77,10.37
		c-1.42,3.08-3.84,5.5-6.85,7.03c-3.16,1.57-6.18,5.13-10.03,3.78c-1.44-1.33-2.81-2.73-4.02-4.26c2.62-1.82,6.21-0.96,8.91-2.62
		c1.46-1.56,2.32-3.55,3.34-5.4C309.23,270.12,311.06,270.59,312.9,271.07z"/>
	<path fill="#020102" d="M212.55,277.08c0.65-0.96,1.32-1.91,2-2.85c0.67,2.1-0.45,3.93-2.27,4.97c-0.41,0.22-1.22,0.66-1.63,0.88
		C211.27,279.08,211.91,278.08,212.55,277.08z"/>
	<path fill="#020102" d="M148.23,280c-0.55-1.49-0.96-3.03-1.22-4.6c1.13,0.85,2.25,1.72,3.36,2.62
		C149.65,278.68,148.94,279.34,148.23,280z"/>
	<path fill="#020102" d="M160.02,275.43c1.57,0.48,3.13,0.98,4.7,1.47c-0.44,0.17-1.31,0.52-1.75,0.69
		c-0.72,0.26-2.17,0.77-2.89,1.03C160.07,277.82,160.04,276.23,160.02,275.43z"/>
	<path fill="#020102" d="M193.94,281.44c1.59,0.45,3.19,0.92,4.78,1.4c-1.7,2.36-3.98,4.19-6.37,5.79
		c-0.13-1.49-0.25-2.98-0.36-4.47C192.65,283.26,193.3,282.35,193.94,281.44z"/>
	<path fill="#020102" d="M128.25,282.92c1.03,1.4,2.05,2.81,3.06,4.23c-1.25,0.43-2.5,0.85-3.77,1.25
		C125.83,286.56,126.68,284.53,128.25,282.92z"/>
	<path fill="#020102" d="M178.05,285.37c0.76-0.15,2.27-0.44,3.03-0.59c0.22,0.51,0.68,1.52,0.9,2.03l0.11,1.04
		c-1.38,0-2.77,0.01-4.15,0.02C177.97,287.24,178.03,285.99,178.05,285.37z"/>
	<path fill="#020102" d="M207.4,285.32c1.63,0.1,3.25,0.2,4.88,0.31c-2.42,1.97-4.86,3.91-7.38,5.75
		C205.67,289.34,206.46,287.3,207.4,285.32z"/>
	<path fill="#020102" d="M215.75,285.86c1.47,0.1,2.94,0.18,4.42,0.23c-1.02,1.48-2.07,2.94-3.17,4.36
		C216.58,288.92,216.16,287.39,215.75,285.86z"/>
	<path fill="#020102" d="M181.35,294.52c2.11-2.27,4.6-4.14,7.19-5.83c-0.84,2.13-1.6,4.3-2.62,6.36
		C184.39,294.89,182.87,294.72,181.35,294.52z"/>
	<path fill="#020102" d="M238.4,291.11l0.87,0.08c0.36,0.05,1.07,0.15,1.43,0.2c0.24,3.3-0.12,6.68,0.69,9.92
		c0.84,2.01,2.75,3.3,4.25,4.81c1.32-1.81,2.67-3.6,3.95-5.44c-0.35,1.48,0.3,3.54-1.26,4.45c-2.85,1.91-5.39,4.26-6.61,7.55
		c-0.49-0.08-1.48-0.25-1.97-0.33c0.3-2.84,0.52-5.69,0.86-8.52c-1.94,0.8-3.88,1.6-5.81,2.43c0.44-2.44,0.92-4.88,1.43-7.31
		C236.85,296.31,237.63,293.71,238.4,291.11z"/>
	<path fill="#020102" d="M196.74,299.04c2.49-2.63,5.66-4.76,9.43-4.63c1.22,1.83,2.47,3.65,3.73,5.46
		c-1.61,0.11-3.21,0.23-4.81,0.35c0.73,1.53,1.46,3.07,2.2,4.61c0.16,0.35,0.49,1.04,0.65,1.39
		C204.83,302.95,201.28,300,196.74,299.04z"/>
	<path fill="#020102" d="M149.97,294.63c1.25,0.3,2.49,0.61,3.74,0.92c0.11,0.69,0.35,2.07,0.46,2.76
		c-1.37-0.08-2.74-0.17-4.11-0.25C150.04,297.21,150,295.49,149.97,294.63z"/>
	<path fill="#020102" d="M130.54,302.03c0.75-1.57,1.52-3.14,2.29-4.7c1.49,1.78,2.98,3.56,4.45,5.36
		c-0.99,0.71-2.02,1.37-3.01,2.08c-0.77-0.58-1.55-1.16-2.32-1.72C131.6,302.79,130.89,302.28,130.54,302.03z"/>
	<path fill="#020102" d="M223.05,303.42c1.94-1.89,3.78-3.9,5.98-5.49c2.15,1.6,3.12,4.22,2.46,6.83
		C228.78,303.8,225.93,303.34,223.05,303.42z"/>
	<path fill="#020102" d="M197.08,302.1c1.88,1.08,3.81,2.12,5.55,3.44c0.12,1.42-0.98,2.5-1.58,3.68c-1.95-1.63-3.88-3.29-5.83-4.92
		C195.84,303.56,196.46,302.83,197.08,302.1z"/>
	<path fill="#020102" d="M182.83,308.82c2.17-1.14,4.46-2.03,6.76-2.87c-1.65,1.71-3.36,3.36-5.11,4.97
		C184.07,310.4,183.24,309.35,182.83,308.82z"/>
	<path fill="#020102" d="M139.49,311.32c1.32-2.34,3.55-3.82,5.98-4.84l-0.17,1.11c-0.22,1.38-0.44,2.76-0.66,4.14
		C142.92,311.58,141.21,311.41,139.49,311.32z"/>
	<path fill="#020102" d="M178.78,311.39l0.81-0.56c1.55,0.36,2.89,1.21,3.93,2.42C181.91,312.69,180.34,312.06,178.78,311.39z"/>
	<path fill="#020102" d="M187.27,316.81c1.26-2,1.75-5.59,4.59-5.79c0.56,1.24,1.04,2.54,1.34,3.89c-1.21,1.84-3.62,2.01-5.49,2.82
		L187.27,316.81z"/>
	<path fill="#020102" d="M217.13,311.96c1.64,0.43,3.29,0.86,4.94,1.29c-0.34,0.96-0.68,1.92-1.02,2.88
		c-1.76-0.69-3.52-1.39-5.28-2.08C216.11,313.53,216.79,312.48,217.13,311.96z"/>
	<path fill="#020102" d="M174.94,314.32c1.23,1.02,2.42,2.1,3.61,3.17c-1.49,0.15-2.96,0.31-4.44,0.48
		C174.38,316.75,174.66,315.53,174.94,314.32z"/>
	<path fill="#020102" d="M165.25,315.69c0.38-0.1,1.14-0.28,1.52-0.37c0.71,1.2,1.42,2.41,2.13,3.63
		c-4.14,0.56-8.31,0.93-12.48,0.72C159.14,317.91,162.12,316.55,165.25,315.69z"/>
	<path fill="#020102" d="M222.17,317.28c1.46-1.18,3.11,1.37,1.63,2.36C222.33,320.81,220.68,318.26,222.17,317.28z"/>
	<path fill="#020102" d="M199.65,326.13c2.04-1.46,3.93-3.65,6.64-3.65c2.95-0.09,7.47-0.39,8.08,3.42
		c-1.87-0.85-3.86-1.98-5.99-1.56c-3.72,0.77-6.74,3.24-10.12,4.83c-2.81,1.41-6,1.5-9.04,2.01c-0.02-1.66-0.04-3.31-0.06-4.96
		C192.56,327.46,196.74,329.44,199.65,326.13z"/>
	<path fill="#020102" d="M132.28,325.2c3.04,0.43,6.09,0.85,9.13,1.28c0.35,1.3,0.7,2.6,1.04,3.9c-0.63-0.05-1.91-0.16-2.54-0.21
		c-2.65-0.36-5.29-0.78-7.94-1.19C132.08,327.72,132.18,326.46,132.28,325.2z"/>
	<path fill="#020102" d="M167.78,329.69c2.76-2.89,7.04-3.86,10.89-3.2c2.8,0.68,3.57,3.9,4.87,6.1c-1.49,3.48-3.14,6.9-4.78,10.32
		c-3.58-0.99-7.17-1.96-10.76-2.9c-0.61-1.47-1.22-2.93-1.83-4.38C166.69,333.64,167.19,331.65,167.78,329.69z"/>
	<path fill="#020102" d="M185.63,327.66c0.54,1.29,1.06,2.6,1.46,3.94c-0.42,0.12-1.26,0.35-1.69,0.47
		C185.47,330.59,185.54,329.12,185.63,327.66z"/>
	<path fill="#020102" d="M220.7,332.8c1.16-1.78,3.26-2.62,5.05-3.61c1.03,0.6,2.07,1.21,3.11,1.82c-1.33,1.79-2.71,3.55-3.96,5.4
		c-0.56,0.8-1.11,1.6-1.66,2.4c1.3,1.21,2.6,2.43,3.96,3.58c-1.77-0.5-3.57-0.9-5.36-1.3C221.25,338.39,220,335.59,220.7,332.8z"/>
	<path fill="#020102" d="M237.94,351.9c1.95-0.44,3.91-0.86,5.88-1.27c-0.9,1.62-1.8,3.25-2.71,4.87c1.31,0.79,2.62,1.57,3.93,2.36
		c-3.26,2-6.64,3.78-10.08,5.43c0.12,2.84-0.01,5.76,0.81,8.52c2.41,1.39,5.38-0.56,7.92-0.89c0.14,0.78,0.43,2.35,0.57,3.14
		c1.61-1.66,3.24-3.31,4.8-5.02c-2.31,3.81-4.75,7.58-8.01,10.66c-4.1-1.79-8.39-3.27-12.13-5.76c-1.77-1.07-2.87-3.3-2.08-5.31
		c0.97-4.2,4.46-6.99,7.63-9.59C236.18,356.97,237.04,354.39,237.94,351.9z"/>
	<path fill="#7F7553" d="M225.04,12.4c3.23,2.46,6.56,4.83,10.14,6.76c-0.81-0.13-2.44-0.39-3.25-0.51c0.05,0.86,0.16,2.6,0.21,3.46
		c0.61-0.06,1.81-0.19,2.42-0.26c-1.41,2.12-3.2,4.37-2.81,7.08c0.12,2.19,1.78,3.8,3.1,5.38c-1.07-0.46-2.15-0.91-3.23-1.33
		c-0.26-3.67-0.34-7.56-2.54-10.69c-0.28-0.5-0.56-0.99-0.85-1.49c0.69-1.02,1.38-2.04,2.09-3.06c-0.62-0.73-1.23-1.46-1.84-2.19
		c-1,1.41-1.99,2.81-2.99,4.21c-1.1,0.12-2.2,0.24-3.3,0.36C223.14,17.55,224.1,14.98,225.04,12.4z"/>
	<path fill="#7F7553" d="M77.08,19.39c4.11,0.29,8.27,0.15,12.23-1.09c-0.67,1.23-1.3,2.49-1.93,3.75c1.64,0.02,3.27,0.03,4.91,0.04
		c-0.73-1.33-1.45-2.67-2.17-4c1.49-0.26,2.99-0.46,4.5-0.61c0.19,3.93-1.21,7.6-3.66,10.64c-1.88-1.06-3.6-2.37-4.97-4.04
		C84.02,20.98,80.51,19.94,77.08,19.39z"/>
	<path fill="#7F7553" d="M198.98,20.41c1,0.52,2,1.07,3,1.61c-0.44,2.22-0.88,4.44-1.29,6.67c-1.96,0.45-3.92,0.9-5.87,1.35
		C196.25,26.85,197.69,23.66,198.98,20.41z"/>
	<path fill="#7F7553" d="M204.2,22.74c1.06,1.3,2.11,2.62,3.12,3.96c-0.84,0.09-2.53,0.26-3.37,0.35
		C204.02,25.61,204.11,24.18,204.2,22.74z"/>
	<path fill="#7F7553" d="M91.53,27.91c1.18-1.3,2.37-2.6,3.57-3.89c1.38,2.55,3.48,4.97,3.8,7.93c-0.54,2.76-2.21,5.12-3.42,7.61
		c-1.18-0.18-2.36-0.37-3.55-0.55c0.64-1.42,1.35-2.8,2-4.21c0.56-1.3,1.08-2.63,1.6-3.95C94.19,29.87,92.86,28.89,91.53,27.91z"/>
	<path fill="#7F7553" d="M73.28,36.48c1.82-0.62,3.65-1.22,5.49-1.81c-0.07,2.32-1.66,4.03-3.12,5.66
		C74.85,39.05,74.06,37.76,73.28,36.48z"/>
	<path fill="#7F7553" d="M190.38,40.22c2.2-2.45,4.82-4.51,7.91-5.73c-0.65,3.09-2.19,5.86-4.39,8.11
		C192.71,41.83,191.54,41.03,190.38,40.22z"/>
	<path fill="#7F7553" d="M229.7,70.29c1.36-3.84,3.4-7.37,6.01-10.49c-0.49,2-0.86,4.03-1.28,6.05c-1.29,5.2-3.52,10.51-7.59,14.15
		c-2.07,0.24-3.18-1.87-3.59-3.58C225.46,74.46,228.78,73.38,229.7,70.29 M225.1,76.2c-0.52,1.63,0.04,2.18,1.66,1.66
		C227.28,76.23,226.72,75.68,225.1,76.2z"/>
	<path fill="#7F7553" d="M227.5,82.38c2.45-1.11,5.03-1.89,7.65-2.51c1.22,1.92,2.26,3.95,2.97,6.12l-0.82-0.52
		c-0.97-0.61-1.93-1.22-2.89-1.84c-0.57,2.37-1.13,4.73-1.62,7.12c-0.58,2.94-1.15,5.88-2.02,8.76c-0.66-1.25-2.08-2.46-1.32-3.99
		c1.27-4.3,1.91-8.74,1.99-13.22c-0.72,0.01-2.18,0.05-2.9,0.07L227.5,82.38z"/>
	<path fill="#7F7553" d="M281.41,92.91l0.55,0.7c1.05,2.85,3.01,5.43,6.03,6.34c5.14,1.59,10.66,2.97,16.05,1.9
		c0.05,2.28,0.08,4.57,0.09,6.85c-2.21-1.74-4.19-3.85-6.75-5.07c-2.9-1.14-6.13-1-9.02-2.16c-2.27-0.92-4.34-2.22-6.51-3.31
		c-1.39-0.73-2.78-1.47-4.16-2.2C278.92,94.94,280.16,93.93,281.41,92.91z"/>
	<path fill="#7F7553" d="M208.95,95.84c0.07-0.34,0.22-1.03,0.29-1.37c2.12,1.06,4.24,2.12,6.36,3.19
		c-1.07,1.49-2.14,2.99-3.33,4.39C211.17,99.97,210.06,97.91,208.95,95.84z"/>
	<path fill="#7F7553" d="M316.66,112.32c4.51,3.18,10.11,4.27,14.59,7.49c2.14,1.31,4.06,3.22,6.59,3.75
		c4.93,0.02,8.15-4.31,11.92-6.83c3.57-2.94,8.03-4.45,12.57-5.03c-0.04,0.34-0.12,1-0.16,1.33c-8.15,2.24-12.97,10.43-21.15,12.55
		c-3.79,0.96-6.63-2.23-9.44-4.16c-4.47-3.5-10.74-4.02-14.47-8.56L316.66,112.32z"/>
	<path fill="#7F7553" d="M304.48,120.57c4.66,1.43,9.41,2.67,13.79,4.85c-1.56,0.42-3.1,0.82-4.66,1.21
		c-2.96-2.64-6.77-4.47-10.83-3.94C303.35,121.99,303.92,121.28,304.48,120.57z"/>
	<path fill="#7F7553" d="M188.88,174.11c0.97-3.77,0.45-8.97,4.04-11.35c1.51,2.85,1.25,6.16,1.33,9.28
		C192.46,172.73,190.68,173.43,188.88,174.11z"/>
	<path fill="#7F7553" d="M213.83,170.58c3.19-2.8,6.73-5.16,10.56-6.99c0.11,0.96,0.23,1.93,0.34,2.9
		c-1.48,1.27-2.95,2.56-4.36,3.92c-0.64,0.65-1.24,1.34-1.82,2.06c0.86,2.45,2.62,4.61,2.92,7.23c-1.16,2.48-3.45,4.15-5.35,6.03
		c1.44-2.21,3.1-4.31,4.11-6.77c-0.67-2.44-2.66-4.88-5.34-5.07c-3.56-0.42-6.74,1.56-9.88,2.9c2.59-3.57,6.91-3.98,10.98-3.93
		C215.27,172.09,214.55,171.34,213.83,170.58z"/>
	<path fill="#7F7553" d="M197.9,165.68c0.98,0.23,1.96,0.47,2.94,0.72c-1.24,3.91-2.01,7.94-2.72,11.97
		c-1.11-0.66-2.29-1.2-3.29-2.02C194.05,172.54,195.95,168.83,197.9,165.68 M196.02,173.29
		C194.47,176.26,199.36,173.43,196.02,173.29z"/>
	<path fill="#7F7553" d="M225.96,169.07c0.98-0.88,1.97-1.75,2.99-2.58c1.28,3.37,2.66,6.71,3.92,10.1
		c0.08,0.68,0.25,2.04,0.33,2.72c-1,2.57-2.49,4.91-4.12,7.13c-0.77,0.76-1.56,1.52-2.35,2.26c-0.9-1.6-1.88-3.14-2.86-4.68
		c0.86-0.38,1.72-0.78,2.56-1.2c1.13-1.4,2.38-2.76,3.05-4.45c-0.21-2.74-1.68-5.16-2.76-7.63
		C226.53,170.33,226.15,169.49,225.96,169.07 M228.03,170.28C226.48,173.24,231.37,170.43,228.03,170.28 M230.02,178.16
		c0.04,1.26,0.08,2.52,0.14,3.78c0.41-0.06,1.25-0.17,1.67-0.23c0.06-1.19,0.11-2.38,0.15-3.56
		C231.49,178.15,230.51,178.15,230.02,178.16z"/>
	<path fill="#7F7553" d="M223.19,179.42c0.71-1.4,1.42-2.79,2.14-4.17c2.49,1.64,2.51,4.19,1.33,6.68
		C225.51,181.08,224.35,180.24,223.19,179.42z"/>
	<path fill="#7F7553" d="M256.95,215.69c1.3,4.56,0.89,9.33,1.13,14c-2.29-0.1-4.57-0.2-6.86-0.29c0.01-0.61,0.02-1.81,0.03-2.41
		c0.07-0.34,0.21-1.02,0.28-1.36c1.86,0.76,3.71,1.53,5.57,2.3c-0.11-1.98-0.21-3.95-0.25-5.93
		C256.84,219.9,256.96,217.79,256.95,215.69z"/>
	<path fill="#7F7553" d="M291.26,260.5c1.07-0.82,2.21-1.54,3.38-2.22c0.32,1.41,0.64,2.83,0.96,4.25
		c-0.81,0.81-1.62,1.63-2.42,2.46C292.44,263.54,291.46,262.15,291.26,260.5z"/>
	<path fill="#7F7553" d="M115.46,323.91c0.46-0.04,1.37-0.12,1.83-0.15c3.68,2.08,7.48,4.14,11.74,4.73
		c0.98,0.17,1.96,0.34,2.94,0.49c2.65,0.41,5.29,0.83,7.94,1.19c2.79,0.44,5.59,0.86,8.42,1.03c5.65,0.34,11.33,0.92,17,0.58
		c0.26-0.22,0.79-0.65,1.05-0.87c0.35-0.31,1.05-0.92,1.4-1.22c-0.59,1.96-1.09,3.95-1.61,5.94c-0.28,0.4-0.83,1.19-1.1,1.59
		c-0.06-0.83-0.19-2.5-0.25-3.33c-7.52-1.75-15.28-0.67-22.87-1.75C132.73,331.06,123.09,329.68,115.46,323.91z"/>
	<path fill="#7F7553" d="M208.38,324.34c2.13-0.42,4.12,0.71,5.99,1.56l0.25,0.73c-2.84-0.15-5.89-0.91-8.57,0.41
		c-3.91,1.77-7.52,4.51-11.94,4.9c-3.28,0.81-7.62,0.27-9.7,3.49c-2.4,3.43-4.32,7.19-5.95,11.05c-1.96,4.54-1.39,9.59-1.28,14.4
		c-0.69-0.58-1.37-1.15-2.06-1.71c0.73-5.5,1.21-11.18,3.64-16.26c1.64-3.42,3.29-6.84,4.78-10.32c0.47-0.13,1.4-0.39,1.86-0.52
		c0.43-0.12,1.27-0.35,1.69-0.47c0.54-0.1,1.6-0.31,2.13-0.42c3.04-0.51,6.23-0.6,9.04-2.01
		C201.64,327.58,204.66,325.11,208.38,324.34z"/>
	<path fill="#805319" d="M216.98,23.09c3.7-1.02,7.48-1.64,11.25-2.29c0.29,0.5,0.57,0.99,0.85,1.49c-0.61,1.07-1.2,2.16-1.61,3.33
		c0.67,1.09,1.48,2.08,2.27,3.08c-1.28,0.27-2.56,0.54-3.84,0.81c2.14,2.64,3.95,5.54,5.34,8.65c0.41,0.27,1.22,0.81,1.62,1.08
		c-1.16,0.84-2.31,1.7-3.46,2.56c2.04,1.85,4.39,3.47,5.95,5.78c0.68,1.94-0.11,4.06-0.22,6.06c-0.83-0.1-1.65-0.19-2.47-0.28
		c0.33,6.14-2.83,11.61-5.37,16.95c-0.99,2.44-3.76,3.54-6.24,3.35c-1.74-0.61-3.05-1.99-4.48-3.08c-1.06,0-2.11,0.01-3.16,0.03
		c0.54-1.42,1.07-2.83,1.61-4.24c-1.47-0.02-2.94-0.02-4.4-0.03c0.6-1.05,1.2-2.09,1.79-3.14c1.36-2.46,2.49-5.04,3.6-7.62
		c0.55-0.07,1.65-0.2,2.2-0.27c-0.87,3.31-1.84,6.6-2.83,9.89c1.36-1.79,2.93-3.49,3.83-5.57c0.46-2.35-0.41-4.71-0.77-7.02
		c-6.44-0.07-12.82-1.45-18.64-4.23c-0.57-5.72-0.1-11.53,2.23-16.84c2.96,1.34,5.88,2.78,8.73,4.36c-1.25,0.36-2.49,0.72-3.73,1.09
		c-0.66,1.99-1.32,3.98-1.97,5.97c-1.06-1.31-2.12-2.61-3.19-3.9c0.89,2.83,1.07,6.43,3.82,8.19c3.17,1.94,7.12,3.28,10.83,2.37
		c4.03-1.14,5.12-5.6,6.97-8.82c0.78-1.43,1.64-2.82,2.49-4.22c-0.23-0.64-0.46-1.27-0.69-1.91c-2.97,0.63-5.98,1.55-9.04,1.23
		c-3.16-0.76-4.25-4.28-5.25-6.97c2.71,1.78,5.38,4.59,8.86,4.35c2.99-0.4,2.8-3.92,3.32-6.17
		C221.06,25.86,218.98,24.53,216.98,23.09 M226.55,38.47c-0.27,2.88-0.05,5.94-1.31,8.63c-0.97,1.51-2.66,2.34-4.03,3.43
		c0.54,1.84,1.09,3.67,1.65,5.5c3.58-3.81,6.45-8.65,6.39-14.04C229.43,40.24,227.6,39.49,226.55,38.47 M223.23,58.19
		c-1.92,1.51-1.85,4.09-2.13,6.28c-0.96,0.33-1.92,0.67-2.88,1.01c0.51,2.1,1.03,4.2,1.56,6.3c1.59-0.31,3.22-0.52,4.75-1.08
		c2-4.58,3.48-9.37,5.57-13.92C227.77,56.89,224.94,56.11,223.23,58.19z"/>
	<path fill="#805319" d="M71.48,61.29c4.97,0.06,8.78-3.54,13.14-5.36c-0.79,2.16-1.05,4.45-0.59,6.71
		c-0.66-0.44-1.32-0.89-1.98-1.33c-0.53,2.58,0.36,6.98-3.26,7.38c-4.87,0.95-9.86,0.35-14.78,0.12c-0.6-2.43-1.23-4.86-1.76-7.31
		C65.32,61.33,68.4,61.31,71.48,61.29z"/>
	<path fill="#805319" d="M108.74,256.13c3.74-2.2,7.86-3.91,12.28-3.72c-0.23,0.67-0.68,2.01-0.91,2.68
		c-3.31,1.04-6.57,2.24-9.72,3.7C109.81,257.92,109.26,257.03,108.74,256.13z"/>
	<path fill="#805319" d="M213.16,268.32c1.69-0.32,3.38-0.63,5.07-0.94c0.92,1.48,1.84,2.97,2.76,4.45
		c0.97-0.39,1.94-0.78,2.92-1.17c0.9,3.01,1.67,6.06,2.28,9.15c-1.24-0.05-2.47-0.1-3.71-0.14c-0.73-2.04-1.5-4.07-2.28-6.09
		c-0.99,0.87-1.98,1.75-2.97,2.63c0.86,1.98,1.73,3.97,2.59,5.96c-2.43,0.4-4.86,0.8-7.3,1.18c-0.08-1.38-0.16-2.77-0.24-4.15
		c1.82-1.04,2.94-2.87,2.27-4.97C214.16,272.24,213.64,270.29,213.16,268.32z"/>
	<path fill="#805319" d="M99.9,283.49c1.58-3.41,4.21-6.41,8.28-6.39c0.86,5.09,1.68,10.2,2.4,15.31
		c-3.51,2.79-6.95,5.66-10.37,8.56c-3.27-5.23-3.96-11.4-3.65-17.43c0.28-0.32,0.85-0.96,1.13-1.28
		C98.43,282.67,99.16,283.08,99.9,283.49z"/>
	<path fill="#805319" d="M230.11,296.84c1.21-2.51,2.44-5,3.72-7.47c0.93,3.15,1.87,6.32,2.4,9.58c-0.51,2.43-0.99,4.87-1.43,7.31
		c-3.4,1.43-6.92,3.3-10.73,2.79c-5.76-0.64-11.23-2.67-16.78-4.22c-0.74-1.54-1.47-3.08-2.2-4.61c1.6-0.12,3.2-0.24,4.81-0.35
		c-1.26-1.81-2.51-3.63-3.73-5.46c1.36-0.04,2.73-0.04,4.1-0.01c3.39,0.57,6.33,2.34,8.25,5.22c1.6-3.62,4.26-6.6,7.81-8.39
		c0.71,0.76,1.4,1.55,2.07,2.36C228.97,294.67,229.54,295.75,230.11,296.84 M223.05,303.42c2.88-0.08,5.73,0.38,8.44,1.34
		c0.66-2.61-0.31-5.23-2.46-6.83C226.83,299.52,224.99,301.53,223.05,303.42z"/>
	<path fill="#7D0C06" d="M210.44,24.81c2.18-0.57,4.36-1.16,6.54-1.72c2,1.44,4.08,2.77,6.2,4.02c-0.52,2.25-0.33,5.77-3.32,6.17
		c-3.48,0.24-6.15-2.57-8.86-4.35C210.78,27.56,210.61,26.19,210.44,24.81z"/>
	<path fill="#7D0C06" d="M207.03,36.99c1.24-0.37,2.48-0.73,3.73-1.09c3.94,2.32,8.27,3.89,12.73,4.9
		c-1.85,3.22-2.94,7.68-6.97,8.82c-3.71,0.91-7.66-0.43-10.83-2.37c-2.75-1.76-2.93-5.36-3.82-8.19c1.07,1.29,2.13,2.59,3.19,3.9
		C205.71,40.97,206.37,38.98,207.03,36.99z"/>
	<path fill="#7D0C06" d="M198.38,47.7c0.36,0.17,1.07,0.51,1.42,0.68c5.82,2.78,12.2,4.16,18.64,4.23c0.36,2.31,1.23,4.67,0.77,7.02
		c-0.9,2.08-2.47,3.78-3.83,5.57c0.99-3.29,1.96-6.58,2.83-9.89c-0.55,0.07-1.65,0.2-2.2,0.27c-1.11,2.58-2.24,5.16-3.6,7.62
		c-2.44-0.32-5.01-0.32-7.29-1.34c-2.78-2.64-3.92-7.13-8.02-8.17C197.55,51.7,198.02,49.71,198.38,47.7z"/>
	<path fill="#7D0C06" d="M223.23,58.19c1.71-2.08,4.54-1.3,6.87-1.41c-2.09,4.55-3.57,9.34-5.57,13.92
		c-1.53,0.56-3.16,0.77-4.75,1.08c-0.53-2.1-1.05-4.2-1.56-6.3c0.96-0.34,1.92-0.68,2.88-1.01
		C221.38,62.28,221.31,59.7,223.23,58.19z"/>
	<path fill="#7D0C06" d="M197.9,81.43c0.9-4.26,1.15-8.86,3.6-12.61c1.17,0.89,2.34,1.78,3.51,2.68c0.99-0.12,1.98-0.25,2.97-0.37
		C204.63,74.58,202.52,79.43,197.9,81.43z"/>
	<path fill="#7D0C06" d="M171.63,73.89c2.1-0.77,4.22-1.62,6.06-2.91l0.55-0.43c0.55,0.5,1.65,1.49,2.2,1.99
		c1.59,1.18,3.23,3.09,5.43,2.69c2.55-0.93,4.17-3.27,5.87-5.25c1.18,1,2.65,1.76,3.51,3.1c0.87,3.44-0.4,6.94-0.65,10.39
		c-0.65,4.59,1.23,9,1.43,13.54c-0.04,3.08-1.83,5.81-2.08,8.85c0.02,2.31,0.62,4.56,0.73,6.87c-1.99,2.01-5.12,1.76-7.7,2.29
		c-0.33-2.6-0.66-5.21-1.21-7.77c-1.52-3.94-4.18-7.29-5.86-11.13c-1.49-4.27-0.99-9.09-3.32-13.1c-2.11-1.76-4.68-2.81-7.21-3.8
		c-0.46-1.34-0.9-2.67-1.34-4C169.23,74.76,170.43,74.33,171.63,73.89z"/>
	<path fill="#7D0C06" d="M199.03,87.04c1.37-5.09,5.48-8.69,8.97-12.38c1.4,1.43,2.8,2.87,4.2,4.31c-0.83,1.5-1.64,3.01-2.55,4.47
		c-1.2,1.66-2.5,3.24-3.75,4.86c1.38,0.71,2.77,1.41,4.15,2.12c-0.27,1.35-0.54,2.7-0.81,4.05c-0.07,0.34-0.22,1.03-0.29,1.37
		c1.11,2.07,2.22,4.13,3.32,6.21c-2.38,1.81-4.89,3.45-7.32,5.2c0.56,1.37,1.13,2.75,1.65,4.15c0.55,1.79,0.95,3.62,1.21,5.48
		c-3.2-0.02-6.39-0.08-9.57-0.19C199.21,106.8,196.11,96.74,199.03,87.04z"/>
	<path fill="#7D0C06" d="M228.54,82.37c0.72-0.02,2.18-0.06,2.9-0.07c-0.08,4.48-0.72,8.92-1.99,13.22
		C227.72,91.32,228.41,86.76,228.54,82.37z"/>
	<path fill="#7D0C06" d="M232.79,90.75c0.49-2.39,1.05-4.75,1.62-7.12c0.96,0.62,1.92,1.23,2.89,1.84c-0.6,2.08-1.13,4.16-1.64,6.26
		C234.7,91.4,233.75,91.07,232.79,90.75z"/>
	<path fill="#7D0C06" d="M235.78,97.66c7.05-2.82,14.73-2.38,22.11-3.48c-0.81,2.23-1.61,4.46-2.44,6.69
		c-0.34,0.86-0.67,1.72-1.01,2.58c-1.89,0.05-3.84,0.32-5.68-0.21c-2.54-1.71-3.64-4.77-5.16-7.3c-3.01,1.45-5.95,3.05-8.73,4.92
		C235.17,99.79,235.47,98.72,235.78,97.66z"/>
	<path fill="#7D0C06" d="M78.76,119.81c4.74-0.83,9.58,0.01,14.35,0.2c1.05,0.06,2.1,0.13,3.16,0.2c-0.18,1.37-0.36,2.73-0.53,4.1
		c-0.62,2.66-0.11,6.99-3.63,7.6c-4.55,1.06-9.26,1.19-13.87,1.85c-0.87-0.72-1.73-1.44-2.62-2.13
		C76.25,127.66,75.9,122.96,78.76,119.81z"/>
	<path fill="#7D0C06" d="M311.2,186.63c0.5,0.84,1.01,1.68,1.53,2.52c-3.99,2.84-7.6,6.19-11.7,8.88c-2.13,1.47-4.82,1.18-7.27,1.22
		c-0.28-2.73-0.95-5.57-3.34-7.24c1.28-1.21,2.3-3.1,4.26-3.25C300.17,187.9,306.12,189.55,311.2,186.63 M298.31,192
		c3.2,2.98,8.8,2.44,10.32-2.01C305.02,189.41,301.27,189.64,298.31,192z"/>
	<path fill="#7D0C06" d="M237.56,219.84c3.16,3.7,6.48,7.31,9.23,11.34c1.24,1.46,0.15,3.39,0.05,5.05
		C239.89,234.1,237.84,226.29,237.56,219.84z"/>
	<path fill="#7D0C06" d="M225.75,329.19c3.48-0.83,7.07-0.63,10.59-0.21c-1.17,2.76-2.07,6.03-4.78,7.71
		c-2.05,1.42-4.53,0.19-6.66-0.28c1.25-1.85,2.63-3.61,3.96-5.4C227.82,330.4,226.78,329.79,225.75,329.19z"/>
	<path fill="#7C3308" d="M81.57,29.74c1.75-1.66,3.04-3.71,4.42-5.66c1.37,1.67,3.09,2.98,4.97,4.04c1.06,2.19,2.04,4.42,2.97,6.68
		c-0.65,1.41-1.36,2.79-2,4.21c-0.75,3.13,0.4,6.25,1.21,9.24c-5.49,5.27-13.87,5.98-18.76,12.03c-0.55-2.62-0.57-5.51-2.1-7.8
		c-2.25-0.9-6.22-0.63-6.23,2.51c1.04,2.65,3.41,4.41,5.43,6.3c-3.08,0.02-6.16,0.04-9.23,0.21c-0.72-3.43-1.09-6.94-1.07-10.45
		c0.36-1.39,0.88-2.72,1.4-4.05c1.07,0.14,2.15,0.28,3.23,0.42c0.76-4.06,2.15-7.96,3.99-11.65c1.15,0.24,2.32,0.47,3.48,0.71
		c0.78,1.28,1.57,2.57,2.37,3.85c1.46-1.63,3.05-3.34,3.12-5.66c0-0.56,0-1.69,0-2.26c-2.13,0.46-4.26,0.95-6.38,1.41
		c0.87-1.93,1.8-3.83,2.78-5.7C77.28,28.76,79.37,29.56,81.57,29.74z"/>
	<path fill="#7C3308" d="M179.08,52c1.54-4.52,3.25-9.21,7.02-12.37c0.53,0.7,1.61,2.1,2.15,2.8c0.7-0.74,1.41-1.48,2.13-2.21
		c1.16,0.81,2.33,1.61,3.52,2.38c1.14,0.73,2.29,1.42,3.45,2.12c0.34,0.99,0.69,1.98,1.03,2.98c-0.36,2.01-0.83,4-1.28,5.99
		c-5.94-0.19-11.88-0.13-17.82-0.17c0.16,0.99,0.33,1.98,0.5,2.97c1.19-0.22,2.39-0.44,3.59-0.66c3.07,1.75,6.5,2.69,9.65,4.24
		c3.06,1.56,3.66,5.19,4.4,8.19c-1.54,0.11-3.07,0.22-4.6,0.34c-0.27,0.34-0.81,1.03-1.08,1.38c-1.7,1.98-3.32,4.32-5.87,5.25
		c-2.2,0.4-3.84-1.51-5.43-2.69c2.4,0.06,4.8,0.12,7.2,0.17c0.11-1.06,0.23-2.12,0.34-3.17c-1.87-0.44-3.75-0.89-5.61-1.36
		c2.62-2.94,6.61-2.74,10.2-2.83c-2.78-2.16-5.73-4.75-9.43-4.83c-3.63,1.83-3.33,6.75-4.9,10.03l-0.55,0.43
		c0.11-0.34,0.32-1.01,0.43-1.35c0.66-2.57,1.34-5.13,1.84-7.74C180.81,58.52,177.86,55.33,179.08,52 M182.85,47.79
		c0.78-0.01,2.33-0.05,3.1-0.07c-0.22-1.79-0.25-3.65-1.04-5.3C182.33,42.97,183.06,45.87,182.85,47.79z"/>
	<path fill="#7C3308" d="M237.27,67.69c0.51,3.08,0.36,6.42,1.82,9.25c3.25,2.59,6.85,4.86,10.68,6.49
		c3.22,1.43,6.31-1.06,9.16-2.28c-2.21,1.5-3.9,3.58-5.5,5.67c2.71,0.03,5.42,0.01,8.14-0.08c0.12-1.52,0.25-3.04,0.37-4.56
		c0.95,2.62,0.87,5.86,3.17,7.79c1.51,1.49,3.19,2.79,4.85,4.12c0.06-0.81,0.19-2.42,0.25-3.23c0.51,0.73,1.03,1.48,1.59,2.19
		c3.08-1.37,6.57-2.02,9.61-0.14c-1.25,1.02-2.49,2.03-3.72,3.05c1.38,0.73,2.77,1.47,4.16,2.2c-3.37-0.05-6.81,0.84-10.13,0.06
		c-3.09-2.26-4.63-6.19-8.03-8.04c-2.63-0.44-4.94,1.49-7.25,2.47c-3.93-4.89-8.24-9.9-14.25-12.24c-2.88-1.33-6.99-2.05-7.78-5.67
		C234.43,72.16,236.24,69.97,237.27,67.69z"/>
	<path fill="#7C3308" d="M183.04,106.91c0.68,0.09,2.05,0.25,2.73,0.34c0.55,2.56,0.88,5.17,1.21,7.77
		c0.13,1.11,0.27,2.21,0.41,3.31c3.89,2.18,7.14,5.25,10.81,7.74c3.63-0.9,6.12-4.19,9.1-6.3c2.52,0.19,5.04,0.4,7.56,0.62
		c0.04,1.12,0.08,2.24,0.11,3.37c0.91-1.34,1.84-2.69,2.92-3.9c1.4,1.27,2.66,2.69,3.93,4.09c-0.9,1.54-1.72,3.12-2.57,4.68
		c1.3-0.04,2.6-0.08,3.9-0.12c-3.78,6.27-8.1,12.23-13.08,17.61c-3.42,3.66-5.86,8.07-8.14,12.48c-1.42-1.07-2.83-2.15-4.23-3.23
		c-0.73,0.51-1.44,1.03-2.15,1.55c-3.85,2.69-7.15,6.04-10.26,9.53c0.23-1.99,0.47-3.96,0.71-5.94c-1.96,0.36-3.92,0.71-5.88,1.06
		c0.33,0.73,0.65,1.47,0.98,2.21c-0.38,1.43-1.14,2.87-0.97,4.39c1.1,1.74,3.2,2.49,4.88,3.58c-0.58,2.67-1.44,5.33-1.49,8.09
		c1.06,2.32,3.32,3.79,4.99,5.65c2.24,2.06,3.47,4.91,4.41,7.75c-2.22,1.17-5.14,1.83-6.43,4.21c-0.1,1.98,0.42,3.91,0.8,5.84
		c-0.39,0.36-0.78,0.72-1.16,1.08c-2.86,2.58-5.67,5.21-8.39,7.94c-0.13-1.8-0.25-3.6-0.35-5.39c-2.11,3.23-4.65,6.19-7.83,8.41
		c-0.43-1.67-0.87-3.33-1.2-5.02c0.05-1.36-0.14-2.71-0.47-4.02c2.25-4.93,4.75-9.78,6.44-14.95c3.31,0.39,6.65,0.11,9.93-0.47
		c-1.35-0.35-2.7-0.7-4.05-1c0.53-1.14,1.06-2.28,1.6-3.41c-2.21-0.91-4.41-1.83-6.6-2.77c2.16,0.24,4.33,0.25,6.5,0.25
		c-1.8-1.76-4.06-2.99-6.65-2.84c-1.64-0.14-3.28-0.26-4.92-0.37c0.51-1.04,1-2.09,1.47-3.14c1.39-3.14,2.64-6.35,3.75-9.61
		c-0.88-0.29-2.63-0.87-3.5-1.16c-0.68,0.74-1.36,1.49-2.04,2.23c-0.42-2.01-0.84-4.01-1.41-5.98c-0.86-2.1-1.91-4.11-2.97-6.11
		c-1.45,1.03-2.89,2.07-4.32,3.12c4.43-8.22,4.67-17.87,4.66-26.99c-0.25-6.54,0.58-13.04,1.21-19.54
		c5.69,0.22,11.27,1.42,16.86,2.41c-0.09-0.62-0.29-1.87-0.39-2.49c-1.47-0.46-2.94-0.92-4.42-1.33c2.22,0.11,4.45,0.05,6.68,0
		C184.88,110.36,184.02,108.61,183.04,106.91 M196.44,129.31c-1.95,2.69-1.05,6.11-0.97,9.16c0.24,3.04-0.82,5.96-1.45,8.89
		c5.14-2.77,1.98-9.28,5.22-13.2c0.68-1.47,2.79-2.99,1.23-4.6C199.26,129.05,197.62,128.39,196.44,129.31z"/>
	<path fill="#7C3308" d="M139.95,116.25c6.77-4.8,15.37-4.51,23.28-5.1c0.27,0,0.81-0.02,1.09-0.02c0.54,0.82,1.09,1.64,1.65,2.47
		c-2.31,0.58-4.57,1.34-6.82,2.12c0.51,1.73,1.01,3.46,1.51,5.19c-1.11,1.35-2.25,2.68-3.36,4.04c0.91,0.69,1.83,1.38,2.75,2.07
		c-0.73,1.37-1.46,2.75-2.18,4.12c0.14,2.61,0.21,5.23,0.2,7.84c1.34,0.76,2.68,1.51,4.02,2.27c-2.98,2.71-6.49,4.88-10.59,5.24
		c-0.66-2.48-1.34-4.97-2.03-7.44c2-4.89,5.7-10.78,2.28-15.87C148.39,120.04,143.94,118.43,139.95,116.25z"/>
	<path fill="#7C3308" d="M111.26,117.18c4.58,0.2,9.16,0.52,13.72,0.93c4.67,0.23,9.66,0.8,13.99-1.39
		c2.48,4.89,2.27,10.43,2.44,15.75c-0.99,0.88-1.99,1.76-2.98,2.63c2.18,1.41,4.19,3.07,5.84,5.09c-1.69,0.37-3.36,0.75-5.05,1.09
		c-3.92,0.66-7.82,1.46-11.77,1.88c-2.51-0.35-4.97-0.93-7.46-1.3c-0.19-1.24-0.38-2.49-0.55-3.73c0.44-5.09-3.28-8.81-6.02-12.62
		C111.54,123.15,111.55,120.03,111.26,117.18z"/>
	<path fill="#7C3308" d="M229.57,134.99c4.49-0.51,7.38-4.06,9.17-7.92c2.89,0.41,5.59,1.58,7.52,3.83
		c4.79-0.76,8.9,1.84,12.28,4.96c-3.73,3.97-7.34,8.06-10.89,12.19c0.89,1.83,1.65,3.77,2.94,5.37c1.66,0.5,3.39,0.66,5.1,0.91
		c0.07-2.14-0.07-4.31,0.35-6.41c1.12-2.72,3.8-4.52,4.75-7.33c0.53-2.63-0.72-5.16-1.79-7.48c2.73,1.63,5.91,2.06,8.91,2.97
		c-0.87-0.02-2.61-0.06-3.47-0.08c2.08,1.82,4.24,3.55,6.45,5.23c-1.34,1.37-2.66,2.75-3.95,4.17c2.83-0.83,5.51-2.12,7.77-4.05
		c3.93,5.08,7.5,10.49,12.39,14.74c-0.94-0.28-1.88-0.54-2.82-0.79c-0.74,1.77-1.48,3.53-2.22,5.29c1.33,0.12,2.66,0.26,4,0.42
		c5.05,1.19,8.71,5.1,11.93,8.92c4.47,5.51,9.92,10.31,13.21,16.7c-5.08,2.92-11.03,1.27-16.52,2.13c-1.96,0.15-2.98,2.04-4.26,3.25
		c-2.64-1.42-5.27-2.91-7.48-4.94c-4.32-3.99-9.82-6.74-13.04-11.83c0.57-1.69,1.01-3.42,1.47-5.14c-1.41,0.18-2.83,0.37-4.24,0.56
		c-0.53,1.15-1.08,2.3-1.62,3.45c-0.76-1.27-1.54-2.52-2.41-3.71c1.68-1.11,3.36-2.22,5.04-3.34c-1.19-1.72-2.39-3.44-3.58-5.16
		c-0.09,1.45-0.17,2.91-0.26,4.37c-4.18-3.37-7.34-8.08-12.44-10.19c-0.92-0.61-1.83-1.22-2.73-1.85c-1.57-2.19-4.88-0.07-2.39,1.83
		c-1.14,3.42-2.54,6.75-3.75,10.14c0.21,1.98,0.59,3.95,1.09,5.88c1.31,1.74,2.78,3.34,4.26,4.95c-0.17,0.77-0.31,1.55-0.47,2.33
		c-0.3,1.21-0.6,2.41-0.78,3.65c1.8,1.48,4.15,0.5,6.2,0.28c0.03,0.34,0.08,1.01,0.11,1.35c-1.6,0.13-3.18,0.27-4.76,0.41
		c0.64,1.46,1.29,2.94,1.91,4.42c-2.44,5.14-2.77,10.89-2.25,16.48c2.13,0.44,5.64,0.72,5.13,3.78c-1.33,4.83-6.74,5.47-10.93,5.81
		c0.51,1.45,1.02,2.91,1.58,4.35c0.75,1.9,1.58,3.76,2.39,5.64c-3.78-3.17-6.55-7.26-9.07-11.45c-0.36-0.52-1.08-1.54-1.44-2.05
		c0.4-0.19,1.19-0.56,1.58-0.74c0.41-0.2,1.24-0.6,1.65-0.8c0.41-1.56,0.83-3.12,1.25-4.68c1.46,1.36,2.92,2.72,4.38,4.09
		c0.7-3.84,1.91-7.67,1.73-11.6c-0.67-2.1-2.4-3.63-3.7-5.35c-1,0.96-2,1.92-3,2.89c-0.11-0.56-0.35-1.67-0.47-2.22
		c-0.84,1.06-1.67,2.12-2.5,3.19c-0.65,0-1.95,0.02-2.6,0.02c-1.53-2.22-3.81-3.71-6.05-5.13c-0.5-1.01-0.99-2.02-1.5-3
		c0.79-0.74,1.58-1.5,2.35-2.26c1.74-0.67,4.04-0.72,5.13-2.45c1.78-2.46,1.27-5.62,1.08-8.43c-0.72,1.23-1.44,2.47-2.09,3.75
		c-0.08-0.68-0.25-2.04-0.33-2.72c-0.19-2.31-0.26-4.62-0.33-6.93c1.26-0.62,2.53-1.24,3.8-1.87c-1.15-1.35-2.31-2.69-3.46-4.03
		c-1.33,0.88-2.66,1.76-3.93,2.73c-1.02,0.83-2.01,1.7-2.99,2.58c-0.41-0.86-0.81-1.72-1.23-2.58c-0.11-0.97-0.23-1.94-0.34-2.9
		c-3.83,1.83-7.37,4.19-10.56,6.99c-2.31-0.63-4.62-1.3-6.88-2.08c1.4-4.4,2.89-8.97,6.14-12.39c4.52-4.77,8.77-9.81,13.8-14.07
		C229.11,140.38,229.17,137.48,229.57,134.99 M231,142.95c-0.27,0.44-0.82,1.33-1.1,1.77c-2.33,1.31-4.17,3.26-5.25,5.71
		c2.27,0.75,4.55,1.5,6.83,2.23c0-1.78,0.28-3.67-0.48-5.35c0.69-1.05,1.38-2.1,2.07-3.15C232.55,143.85,231.52,143.25,231,142.95
		 M267.93,162.55c0.34,2,0.92,4,2.78,5.11c0.13-1.92,0.16-3.85,0.26-5.77C270.21,162.05,268.69,162.38,267.93,162.55 M274.64,168.4
		c3.49-0.36,4.88-3.34,5.36-6.43C277.24,163.17,274.39,164.94,274.64,168.4z"/>
	<path fill="#7C3308" d="M210.32,183.35c1.85,0.99,3.83,1.68,5.8,2.38c-0.71,0.64-1.41,1.29-2.11,1.94
		c1.77,0.31,3.53,0.64,5.31,0.88c-2.39-0.06-4.77-0.04-7.15-0.04c0.05,0.38,0.16,1.15,0.21,1.53c0.09,0.7,0.27,2.09,0.36,2.79
		c0.38,3.82,1.72,7.98,5.14,10.12c1.62,0.53,3.34,0.58,5.03,0.75c-1.47,1.2-3.07,2.31-4.16,3.88c-0.39,3.19,0.35,6.49-0.63,9.61
		c-0.88,2.92-2.12,5.72-3.38,8.49c-3.2,3.96-2.44,9.52-4.88,13.88c-1.17-1.48-3.65-2.71-3.12-4.93c1-4.77,3.19-9.21,3.97-14.03
		c-5.92,6.85-6.21,16.78-4.33,25.23c0.67-0.26,1.34-0.51,2.01-0.77c-0.16-1.66-0.31-3.31-0.47-4.97c0.33,0.08,1,0.23,1.34,0.31
		c0.8,2.06,1.56,4.14,2.41,6.19c0.73,2.8,2.38,5.22,4.47,7.19c-1.91,3.63-1.76,7.75-1,11.68c4.7-2.31,8.42-6.05,11.37-10.31
		c0.78,0.56,1.55,1.13,2.32,1.7c-0.67,6.8,1.25,13.46,2.12,20.15c0.7,5.47,4.29,9.83,7.45,14.11c-0.77,2.6-1.55,5.2-2.17,7.84
		c-0.53-3.26-1.47-6.43-2.4-9.58c-1.28,2.47-2.51,4.96-3.72,7.47c-0.57-1.09-1.14-2.17-1.71-3.25c-0.71-3.37-1.08-6.79-1.51-10.19
		c-2.24,0.89-4.44,1.89-6.72,2.69c-1.48-0.05-2.95-0.13-4.42-0.23c-1.16-0.08-2.32-0.16-3.47-0.23c-1.63-0.11-3.25-0.21-4.88-0.31
		c0.96-1.82,2.06-3.56,3.25-5.24c0.41-0.22,1.22-0.66,1.63-0.88c0.08,1.38,0.16,2.77,0.24,4.15c2.44-0.38,4.87-0.78,7.3-1.18
		c-0.86-1.99-1.73-3.98-2.59-5.96c0.99-0.88,1.98-1.76,2.97-2.63c0.78,2.02,1.55,4.05,2.28,6.09c1.24,0.04,2.47,0.09,3.71,0.14
		c-0.61-3.09-1.38-6.14-2.28-9.15c-0.98,0.39-1.95,0.78-2.92,1.17c-0.92-1.48-1.84-2.97-2.76-4.45c-1.69,0.31-3.38,0.62-5.07,0.94
		c0.48,1.97,1,3.92,1.39,5.91c-0.68,0.94-1.35,1.89-2,2.85c-0.33-1.66-0.65-3.31-0.96-4.97c-2.67-1.24-5.33-2.51-7.97-3.79
		c-1.6,4.85-2.84,9.84-4.9,14.52c-1.59-0.48-3.19-0.95-4.78-1.4c2.77-3.9,4.38-8.44,5.46-13.06c0.71-0.79,1.42-1.58,2.12-2.38
		c0.21-1.85,0.05-3.72-0.09-5.56c-1.33,0.66-2.66,1.34-3.96,2.06c-2.46,1.34-4.74,3.07-7.4,4.01c-2.91-1.2,1.35-3.98,2.44-5.31
		c-1.25-3.03-2.16-6.46-4.67-8.72c-3.17-0.96-7.41,0.83-9.25-2.95c6.25-1.23,12.46,0.5,18.4,2.32c-0.39-4-1.07-7.98-2.11-11.87
		c-1.38,0.16-2.76,0.3-4.13,0.45c-0.98-1.05-1.93-2.14-3.06-3.03c-1.27-0.01-2.34,0.89-3.48,1.35c-5.36-3.84-11.83-6.65-15.45-12.44
		c-1.95-2.85-2.36-6.34-2.73-9.67c0.31,0.82,0.93,2.48,1.24,3.31c0.61-0.07,1.81-0.2,2.41-0.26c0.21-0.7,0.63-2.1,0.84-2.8
		c3.8,0.37,7.39,1.88,10.47,4.1c3.99,2.85,8.29,5.23,12.61,7.54c1.49,0.81,2.98,1.63,4.48,2.45c-0.5-1.48-1-2.96-1.5-4.44
		c0.98-4.43,2.87-8.59,5.29-12.42c0.68,0.45,2.04,1.35,2.73,1.8c-0.16-2.45-0.36-4.9-0.73-7.32c-0.65,1.54-1.27,3.1-1.85,4.68
		c0.22-2.53,0.24-5.07,0.11-7.6c-0.63-5.9-3.57-12-1.26-17.87C203.09,184.91,207.06,184.45,210.32,183.35z"/>
	<path fill="#7C3308" d="M245.83,218.87c3.43-2,6.86-4,10.25-6.06c0.33,0.95,0.62,1.91,0.87,2.88c0.01,2.1-0.11,4.21-0.1,6.31
		c-1.62,0.76-3.23,1.53-4.78,2.42C249.59,223.07,247.37,221.26,245.83,218.87z"/>
	<path fill="#7C3308" d="M298.88,255.65c2.95-0.57,5.95-1.1,8.7-2.35c0.92,1.36,1.35,3.36,3.09,3.9c5.39,1.62,11.16,0.66,16.44-0.94
		c-2.78,5.59-7.25,9.99-11.07,14.85c1.78-3.75,4.19-7.13,6.77-10.37c-4.66,1.92-7.52,6.11-9.91,10.33
		c-1.84-0.48-3.67-0.95-5.51-1.43c-1.02,1.85-1.88,3.84-3.34,5.4c-2.7,1.66-6.29,0.8-8.91,2.62c1.21,1.53,2.58,2.93,4.02,4.26
		c-1.57-0.34-3.14-0.66-4.7-0.95c-0.62-0.64-1.22-1.28-1.82-1.92c-1.76-1.93-3.55-3.81-5.4-5.64c0.03-1.02,0.07-2.04,0.11-3.06
		c0.08-1.67,0.19-3.34,0.33-5.01c1.4,0.33,2.81,0.66,4.22,1c0.42-0.46,0.85-0.91,1.28-1.35c0.8-0.83,1.61-1.65,2.42-2.46
		c-0.32-1.42-0.64-2.84-0.96-4.25c3.21-1.13,6.62-1.46,9.98-1.81C302.71,256.17,300.79,255.91,298.88,255.65z"/>
	<path fill="#7C3308" d="M152.25,279.6c2.83-8.68,5.69-17.36,7.4-26.35c1.02,2.14,2.02,4.29,3.01,6.45c-1.6,4.84-2.4,9.9-2.51,14.99
		c1.93,0.29,3.86,0.59,5.8,0.89c1.36-4.45,2.1-9.05,2.8-13.64c0.84-1.56,1.77-3.06,2.69-4.57c2.32,2.95,5.44,5.11,9.26,5.45
		c-1.35,3.05-3.92,6.74-1.36,9.89c1.48,2.94,5.09,2.56,7.83,2.84c-2.42,3.4-4.1,7.24-5.19,11.26c-0.22-0.51-0.68-1.52-0.9-2.03
		c-2.51-5.63-3.78-11.75-6.93-17.11c-0.52-0.16-1.58-0.47-2.11-0.62c-0.35,4.23,0.06,8.5,1.58,12.49c1.41,3.74,0.74,7.78,1.33,11.64
		c1.19,2.35,4.02,2.95,6.4,3.34c1.52,0.2,3.04,0.37,4.57,0.53c-4.98,4.49-10.89,7.75-16.77,10.89c-1.71-4.51-3.56-8.97-5.64-13.33
		c-2.84,3.46-5.3,7.31-6.46,11.68c2.54-0.15,5.07-0.32,7.6-0.52c0.49,0.77,0.99,1.54,1.49,2.32c-2.92,0.31-5.93,0.39-8.73,1.37
		c-2.76,1.46-4.41,4.28-6.39,6.59c4.65,1.16,9.43,1.87,14.23,1.64c-3.13,0.86-6.11,2.22-8.83,3.98c4.17,0.21,8.34-0.16,12.48-0.72
		c-0.71-1.22-1.42-2.43-2.13-3.63c2.66-0.7,5.41-1.22,8.17-1c-0.28,1.21-0.56,2.43-0.83,3.65c1.48-0.17,2.95-0.33,4.44-0.48
		c1.22-0.12,2.44-0.23,3.66-0.34c0.16-0.77,0.31-1.53,0.47-2.3c-1.87-0.67-3.75-1.34-5.62-2.01c0.43-0.36,1.29-1.09,1.72-1.45
		c1.56,0.67,3.13,1.3,4.74,1.86c-1.04-1.21-2.38-2.06-3.93-2.42c1.06-0.71,2.13-1.38,3.24-2.01c0.41,0.53,1.24,1.58,1.65,2.1
		c0.88,1.99,1.83,3.94,2.79,5.89l0.44,0.92c0.66,1.34,1.36,2.66,2.06,3.98c6.05-1.76,9.53-7.38,14.99-10.11
		c1.1,2.01,2.22,4.01,3.34,6.02c-2.84,1.74-5.76,3.36-8.7,4.92c0.08,1.19,0.16,2.39,0.25,3.59c-2.91,3.31-7.09,1.33-10.49,0.09
		c0.02,1.65,0.04,3.3,0.06,4.96c-0.53,0.11-1.59,0.32-2.13,0.42c-0.4-1.34-0.92-2.65-1.46-3.94c-0.09,1.46-0.16,2.93-0.23,4.41
		c-0.46,0.13-1.39,0.39-1.86,0.52c-1.3-2.2-2.07-5.42-4.87-6.1c-3.85-0.66-8.13,0.31-10.89,3.2c-0.35,0.3-1.05,0.91-1.4,1.22
		c-5.76-1.99-12.57-3.03-18.05,0.29c-2.83-0.17-5.63-0.59-8.42-1.03c0.63,0.05,1.91,0.16,2.54,0.21c-0.34-1.3-0.69-2.6-1.04-3.9
		c-3.04-0.43-6.09-0.85-9.13-1.28c-0.1,1.26-0.2,2.52-0.31,3.78c-0.98-0.15-1.96-0.32-2.94-0.49c0.17-0.54,0.52-1.63,0.7-2.18
		c-3.92-1.69-8.08-3.43-12.44-2.55c-0.46,0.03-1.37,0.11-1.83,0.15c-1.46-0.91-2.92-1.82-4.32-2.81c0.9-0.13,2.7-0.38,3.6-0.5
		c-2.03-2.44-4.3-4.65-6.6-6.82c-3.73-3.5-5.56-8.4-7.93-12.81c3.42-2.9,6.86-5.77,10.37-8.56c-0.72-5.11-1.54-10.22-2.4-15.31
		c1.13-0.13,2.27-0.25,3.4-0.34c-1.03,4.96,0.78,9.86,2.26,14.53c2.71-3.14,5.07-6.56,7.14-10.14c1.39-2.43,3.18-4.7,5.71-6.01
		c0.97-0.05,1.94-0.06,2.91-0.06c0.41,2.15,0.84,4.29,1.3,6.44c-0.89,0.45-1.78,0.91-2.65,1.4c-1.57,1.61-2.42,3.64-0.71,5.48
		c-2.59,0.22-5.29-0.17-7.8,0.64c-2.37,1.48-3.99,4.16-4.44,6.89c0.25,2.3,2.01,4.13,3.89,5.31c3.64-0.35,5.55-3.86,7.38-6.57
		c3.78-6.04,7.82-11.92,11.27-18.16c-1.27-0.06-2.54-0.12-3.8-0.18c-0.05-1.3-0.09-2.6-0.13-3.89c2.37-0.27,4.74-0.6,7.13-0.65
		c1.53,0.06,3.05,0.2,4.57,0.33c-1.13,4.06-2.29,8.24-4.9,11.63c-4.33,5.43-9.59,10.2-12.59,16.58c0.81,0.56,1.61,1.13,2.42,1.7
		c0.35,0.25,1.06,0.76,1.41,1.02c-0.97,0.41-1.93,0.83-2.9,1.26c-1.13-0.67-2.27-1.34-3.4-2c-1.28,1.52-2.56,3.05-3.83,4.58
		c2.78,2.01,5.68,3.85,8.69,5.49c1-2.65,1.96-5.37,3.76-7.61c0.99-0.71,2.02-1.37,3.01-2.08c4.66-5.28,9.71-10.65,12.28-17.31
		c0.97-1.94-0.52-3.72-1.33-5.38c0.71-0.66,1.42-1.32,2.14-1.98C151,278.53,151.62,279.07,152.25,279.6 M160.02,275.43
		c0.02,0.8,0.05,2.39,0.06,3.19c0.72-0.26,2.17-0.77,2.89-1.03c-5.97,1.81-7.04,8.48-10.78,12.6c-3.95,4.03-5.38,9.7-8.92,14.05
		c2.24,1.43,4.37,3.04,6.74,4.28c2.6-2.82,3.42-6.71,4.82-10.18l-0.66-0.03c-0.11-0.69-0.35-2.07-0.46-2.76
		c0.49,0.13,1.48,0.39,1.97,0.52c5.25-4.67,7.7-11.31,9.93-17.77c-0.23-0.35-0.67-1.05-0.89-1.4
		C163.15,276.41,161.59,275.91,160.02,275.43 M169.78,279.88c-0.83,2.93-1.56,5.88-2.27,8.85c0.55,0.66,1.1,1.33,1.66,2.01
		c1.13-0.57,2.27-1.12,3.41-1.68C172.13,285.87,171.33,282.72,169.78,279.88 M168.43,293.31c-0.03,2.27-0.06,4.53-0.08,6.79
		c3.26,0.56,6.3-0.86,9.3-1.88c-1.63-1.91-3.26-3.81-4.9-5.7C171.31,292.78,169.87,293.04,168.43,293.31 M139.49,311.32
		c-1.93-0.1-3.2,1.63-4.62,2.67c3.05,0.92,6.11,1.79,9.14,2.76c1.67-1.4,3.87-2.52,4.62-4.7c-0.89-1.64-2.14-3.04-3.33-4.46
		l0.17-1.11C143.04,307.5,140.81,308.98,139.49,311.32z"/>
	<path fill="#7C3308" d="M223.91,288.64c0.81,0.86,1.62,1.71,2.42,2.59c-3.55,1.79-6.21,4.77-7.81,8.39
		c-1.92-2.88-4.86-4.65-8.25-5.22c-0.97-0.58-1.92-1.18-2.85-1.8c4.09-0.59,8.19,0.36,12.27,0.14
		C221.31,291.61,222.56,290.06,223.91,288.64z"/>
	<path fill="#7C3308" d="M189.31,295.29c2.1-2.08,4.63-3.64,7.39-4.68c0.44,0.64,1.31,1.9,1.75,2.54
		c-5.18,5.97-11.41,11.03-18.34,14.82c-4.77,1.8-9.56,3.6-14.45,5.01c-2.45,0.72-4.23-1.4-6.01-2.66c4.02-0.55,8.35-0.53,11.85-2.86
		C177.61,303.68,184.06,300.28,189.31,295.29z"/>
	<path fill="#7C3308" d="M165.07,337.22c0.27-0.4,0.82-1.19,1.1-1.59c0.61,1.45,1.22,2.91,1.83,4.38c3.59,0.94,7.18,1.91,10.76,2.9
		c-2.43,5.08-2.91,10.76-3.64,16.26l-0.54-0.43c-4.05-3.19-8.84-5.3-13.62-7.11c-0.93,0.46-1.7,1.17-2.47,1.86
		c-3.1-0.42-6.22-0.74-9.34-0.6c2.78-0.47,6.14-0.35,8.11-2.72C160.76,346.43,162.2,341.37,165.07,337.22z"/>
	<path fill="#5A4426" d="M162.14,70.03c1.98-0.97,4.07-2.42,6.4-1.97c3.2,0.48,6.33,1.38,9.58,1.57c-0.11,0.34-0.32,1.01-0.43,1.35
		c-1.84,1.29-3.96,2.14-6.06,2.91C168.11,73.7,164.95,72.04,162.14,70.03z"/>
	<path fill="#5A4426" d="M215.16,87.17c1.63-0.53,2.18,0.03,1.66,1.66C215.19,89.35,214.64,88.79,215.16,87.17z"/>
	<path fill="#5A4426" d="M362.17,113.03c0.18,3.92,0.27,7.87-0.43,11.75c-1,2.97-2.16,5.88-3.3,8.8
		c-5.52,0.24-11.05-0.02-16.57,0.12c0.38-1.11,0.77-2.21,1.17-3.32c5.01-0.04,10.02,0.37,14.95,1.25
		C360.16,125.63,361.3,119.34,362.17,113.03z"/>
	<path fill="#5A4426" d="M137.15,178.16c3.8-8.42,8.94-16.42,10.59-25.65c1.52,0.2,3.04,0.4,4.57,0.61c-1.06,8.46-5.2,16-8.35,23.8
		c-1.39,3.34-3.42,6.34-5.43,9.32C138.38,183.5,138.06,180.76,137.15,178.16z"/>
	<path fill="#5A4426" d="M246.75,225.99c1.5,0.32,3,0.66,4.5,1c-0.01,0.6-0.02,1.8-0.03,2.41c2.29,0.09,4.57,0.19,6.86,0.29
		c1.1,4.6,3.74,8.73,4.45,13.42c-0.29,4.71-2.72,9.05-2.7,13.83c-0.2,9.04,0.11,18.09-0.05,27.13c-0.04,5.62-2.99,10.58-5.28,15.53
		c-4.14,8.65-11.06,15.44-16.78,23.01c-0.8-0.7-1.59-1.39-2.38-2.09c2-2.39,4.01-4.97,4.41-8.17c0.49,0.08,1.48,0.25,1.97,0.33
		c1.22-3.29,3.76-5.64,6.61-7.55c1.56-0.91,0.91-2.97,1.26-4.45c1.12-5.84,4.98-10.62,6.53-16.27c0.6-6.75-0.51-13.49-1.3-20.18
		c0.06-5.66,2.26-11.05,2.58-16.7c0.27-4.6,0.84-9.82-1.87-13.83C252.08,231.72,248.13,230.11,246.75,225.99z"/>
	<path fill="#7E4B07" d="M78.64,70.06c0.45,0.06,1.34,0.18,1.78,0.24c0.84,1.2,1.68,2.39,2.53,3.58c0.6-1.33,1.2-2.66,1.73-4.02
		c0.09,2.2,0.17,4.4,0.37,6.59c-1.44,0.33-2.87,0.68-4.29,1.04c2.3,4.9,4.34,9.93,5.8,15.15c2.65,8.56,3.12,17.65,6.31,26.06
		c0.06,0.33,0.18,0.98,0.24,1.31c-4.77-0.19-9.61-1.03-14.35-0.2c-2.86,3.15-2.51,7.85-3.14,11.82c-1.13-0.76-2.29-1.47-3.45-2.17
		c-2.24-9.69-2.56-19.68-3.81-29.52c-0.72-8.07-3.38-15.82-3.68-23.94c2.16,0.02,4.32,0.05,6.48-0.03c3.03-0.18,5.89-1.21,8.68-2.33
		C79.44,72.45,79.04,71.25,78.64,70.06 M78.14,84.28c-1.62-0.07-1.77,2.68-0.09,2.66C79.67,87.01,79.81,84.26,78.14,84.28
		 M78.4,89.29c-1.13,0.47-1.54,1.3-1.23,2.49c1.48,1.56,4.15,1.41,5.69,0.01C83.47,89.22,80.22,88.62,78.4,89.29 M84.95,111.38
		c0.85,2.45,2.35,4.52,5.08,4.95c-0.09-2.52-0.33-5.03-0.77-7.51C87.82,109.67,86.38,110.52,84.95,111.38z"/>
	<path fill="#7E4B07" d="M100.17,119.61c2.47,0.4,4.95,0.82,7.42,1.25c-1.62,6-3.65,12-3.73,18.28c-7.91,2.32-16.18,1.45-24.26,2.32
		c-0.47-0.2-1.39-0.62-1.86-0.83c0.19-0.34,0.57-1.01,0.76-1.35c1.47,0.03,2.94,0.12,4.42,0.2c-0.35-1.31-0.7-2.63-1.05-3.93
		c-1,0.98-2.01,1.96-2.96,2.99c-0.2-1.6-0.45-3.19-0.67-4.78c4.61-0.66,9.32-0.79,13.87-1.85c3.52-0.61,3.01-4.94,3.63-7.6
		c1.17,1.01,2.35,2.01,3.53,3.02C99.57,124.75,99.87,122.18,100.17,119.61 M93.18,136.2c-0.52,1.62,0.04,2.18,1.66,1.66
		C95.37,136.23,94.81,135.68,93.18,136.2z"/>
	<path fill="#7E4B07" d="M134.12,189.89c1.44-0.78,2.88-1.55,4.33-2.32c1.69,1.91,3.23,4.09,5.49,5.4c2.34,1.17,4.94,1.67,7.46,2.35
		c-0.54,1.1-1.07,2.2-1.61,3.3c0.86,0.89,1.72,1.77,2.58,2.67c-0.48,0.99-0.94,2-1.42,3c1.69,0.96,3.44,1.85,4.92,3.13
		c1.2,3.6,0.74,7.46,0.75,11.18c1.71-0.57,3.42-1.14,5.13-1.71c-1.19,3.81-0.93,8.92-5.16,10.87c-0.46-1.96-0.94-3.91-1.39-5.87
		c-2.13,1.45-4.28,2.88-6.42,4.31c1.68,2.2,3.38,4.43,5.55,6.19c-0.5,1.17-0.99,2.34-1.47,3.51c-5.44-1.66-6.83-8.02-6.69-13.01
		c-0.1-3.76,1.89-7.05,3.68-10.2c-3.75-2.45-7.74-4.52-11.87-6.23c-1.94,1.16-3.89,2.29-5.84,3.43c0.87-2.34,1.73-4.68,2.57-7.03
		c-2.95,0.87-5.89,1.8-8.63,3.2C129.23,200.93,132.22,195.62,134.12,189.89z"/>
	<path fill="#7E4B07" d="M312.73,189.15c2.3,3.56,4.74,7.16,5.75,11.33c1.88,6.82,1.54,13.95,1.24,20.94
		c-0.28,6.22,0.98,12.38,2.96,18.24c-4.95,0.94-9.66,2.73-14.4,4.35c-2.19-1.05-3.35-3.38-4.63-5.32
		c-1.05-4.52-2.73-8.85-4.21-13.24c-1.71-5-2.24-10.3-3.5-15.42c-0.88-3.56-1.69-7.15-2.18-10.78c2.45-0.04,5.14,0.25,7.27-1.22
		C305.13,195.34,308.74,191.99,312.73,189.15 M315.13,198.27C313.59,201.25,318.46,198.39,315.13,198.27z"/>
	<path fill="#7E4B07" d="M113.76,219.74c4.06-3.56,7.18-8.02,10.86-11.95c0.85,1.03,1.71,2.07,2.57,3.11
		c-1.17,3.86-1.86,7.83-2.22,11.84c0.72-0.02,2.14-0.05,2.86-0.06c0.4,0,1.22,0,1.63,0c-2.45,5.81-0.71,12.22-0.17,18.24
		c0.03,3.22,3.21,4.59,5.51,6.11c1-3.24,2.15-6.44,3.54-9.53c-2.6-1.01-5.05-2.35-7.33-3.95c0.54-0.55,1.64-1.66,2.18-2.21
		c1.6,0.63,3.24,1.17,4.85,1.81c2.32-2.15,4.65-4.27,7.01-6.38c-0.56,1.91-1.11,3.81-1.68,5.72c-0.66,2.15-1.29,4.31-1.97,6.47
		c-1.63,5.32-3.96,10.51-7.7,14.7c-2.48,3.05-4.64,6.5-8.12,8.53c-5.12-7.81-4.4-17.91-9.6-25.61c-0.01,2.91,0.25,5.81,0.64,8.7
		c-2.85-0.16-5.7-0.35-8.54-0.68c0.13-3.58-2.41-6.24-3.67-9.36c0.04-4.39,2.71-8.43,2.04-12.91c0.56-0.62,1.17-1.19,1.81-1.74
		C110.12,220.87,112.28,221.26,113.76,219.74z"/>
	<path fill="#7E4B07" d="M231.77,213.67c1.63-1.25,3.17,1.11,4.68,1.68c0.24-0.32,0.71-0.96,0.95-1.27
		c2.52,4.19,5.29,8.28,9.07,11.45c-0.81-1.88-1.64-3.74-2.39-5.64c0.58-0.34,1.16-0.68,1.75-1.02c1.54,2.39,3.76,4.2,6.24,5.55
		c-0.13,0.3-0.41,0.9-0.54,1.21c-0.07,0.34-0.21,1.02-0.28,1.36c-1.5-0.34-3-0.68-4.5-1c1.38,4.12,5.33,5.73,8.78,7.71
		c2.71,4.01,2.14,9.23,1.87,13.83c-0.32,5.65-2.52,11.04-2.58,16.7c0.79,6.69,1.9,13.43,1.3,20.18c-1.55,5.65-5.41,10.43-6.53,16.27
		c-1.28,1.84-2.63,3.63-3.95,5.44c-1.5-1.51-3.41-2.8-4.25-4.81c-0.81-3.24-0.45-6.62-0.69-9.92c-0.36-0.05-1.07-0.15-1.43-0.2
		c2.33-4.68,2-10.05,3.12-15.05c-1.14-0.36-2.29-0.72-3.43-1.07c0.14-4.53,0.92-9.04,0.64-13.57c-1.19-0.81-2.49-1.43-3.77-2.07
		c5.28-2.91,7.31-9.53,6.11-15.18c-3.4-6.65-8.58-12.38-14.49-16.91c-0.39,1.09-0.81,2.18-1.07,3.31c2.83,3.52,7.55,6.55,7.14,11.66
		c-1.28,4.93-4.29,9.35-4.69,14.54c-0.77-0.57-1.54-1.14-2.32-1.7c-2.95,4.26-6.67,8-11.37,10.31c-0.76-3.93-0.91-8.05,1-11.68
		c-2.09-1.97-3.74-4.39-4.47-7.19c0.21-2.02,0.49-4.04,0.7-6.06c2.12-0.06,4.23-0.34,6.32-0.74c-0.1,3.06-0.2,6.12-0.27,9.18
		c0.83-0.2,1.66-0.39,2.5-0.59c0.62-3.64,1.98-7.09,3.92-10.23c-1.15,0.32-2.31,0.64-3.46,0.96c-1.76-1.18-3.51-2.36-5.27-3.52
		c1.44-1.28,2.89-2.57,4.32-3.86c-0.63-2.31-1.21-4.63-1.73-6.97c0.4,0.15,1.2,0.45,1.6,0.6c1.49,0.84,2.93,1.76,4.37,2.68
		C226.37,222.96,229.09,218.29,231.77,213.67 M237.56,219.84c0.28,6.45,2.33,14.26,9.28,16.39c0.1-1.66,1.19-3.59-0.05-5.05
		C244.04,227.15,240.72,223.54,237.56,219.84 M224.14,243.21C222.54,246.16,227.47,243.42,224.14,243.21z"/>
	<path fill="#7E4B07" d="M165.36,247.59c0.81-0.47,1.65-0.89,2.51-1.26c0.34,1.57,0.59,3.2,1.21,4.7c1.15,0.9,2.47,1.53,3.74,2.24
		c0.18-2.01,0.34-4.01,0.47-6.02c1.39,0.3,2.77,0.62,4.15,0.93c0.29,0.34,0.86,1.02,1.15,1.35c1.84,3.78,6.08,1.99,9.25,2.95
		c2.51,2.26,3.42,5.69,4.67,8.72c-1.09,1.33-5.35,4.11-2.44,5.31c2.66-0.94,4.94-2.67,7.4-4.01c1.35,1.16,2.7,2.33,4.05,3.5
		c-0.7,0.8-1.41,1.59-2.12,2.38c-3.07,0.2-6.14,0.48-9.2,0.77c1.18,2.72,2.37,5.43,3.6,8.14c-2.1,2.23-4.41,4.28-6.98,5.97
		c-0.12,1.52-0.23,3.04-0.35,4.57c-1.46,0-2.92,0.01-4.38,0.02l-0.11-1.04c1.09-4.02,2.77-7.86,5.19-11.26
		c-2.74-0.28-6.35,0.1-7.83-2.84c-2.56-3.15,0.01-6.84,1.36-9.89c-3.82-0.34-6.94-2.5-9.26-5.45c-0.92,1.51-1.85,3.01-2.69,4.57
		c-0.93-1.25-1.85-2.51-2.76-3.77c-1.11,0.51-2.22,1.02-3.33,1.53c-0.99-2.16-1.99-4.31-3.01-6.45c2.12,0.48,4.23,0.97,6.35,1.46
		c-1.25-1.29-2.49-2.57-3.74-3.85C163.28,249.76,164.29,248.65,165.36,247.59z"/>
	<path fill="#7E4B07" d="M311.14,247.31c3.83-0.31,7.64-1.21,11.49-0.94c3.06,1.95,2.79,5.79,2.58,8.93
		c-5.13-1.52-10.25-3.08-15.45-4.35C310.22,249.73,310.68,248.52,311.14,247.31z"/>
	<path fill="#7E4B07" d="M203.62,268.32c2.64,1.28,5.3,2.55,7.97,3.79c0.31,1.66,0.63,3.31,0.96,4.97c-0.64,1-1.28,2-1.9,3
		c-1.19,1.68-2.29,3.42-3.25,5.24c-0.94,1.98-1.73,4.02-2.5,6.06c2.52-1.84,4.96-3.78,7.38-5.75c1.15,0.07,2.31,0.15,3.47,0.23
		c0.41,1.53,0.83,3.06,1.25,4.59c1.1-1.42,2.15-2.88,3.17-4.36c2.28-0.8,4.48-1.8,6.72-2.69c0.43,3.4,0.8,6.82,1.51,10.19
		c-0.67-0.81-1.36-1.6-2.07-2.36c-0.8-0.88-1.61-1.73-2.42-2.59c-1.35,1.42-2.6,2.97-4.22,4.1c-4.08,0.22-8.18-0.73-12.27-0.14
		c0.93,0.62,1.88,1.22,2.85,1.8c-1.37-0.03-2.74-0.03-4.1,0.01c-3.77-0.13-6.94,2-9.43,4.63c4.54,0.96,8.09,3.91,11.2,7.18
		c-0.16-0.35-0.49-1.04-0.65-1.39c5.55,1.55,11.02,3.58,16.78,4.22c3.81,0.51,7.33-1.36,10.73-2.79c1.93-0.83,3.87-1.63,5.81-2.43
		c-0.34,2.83-0.56,5.68-0.86,8.52c-0.4,3.2-2.41,5.78-4.41,8.17c0.79,0.7,1.58,1.39,2.38,2.09c-0.7,2.47-1.55,5.29-0.26,7.73
		c1.48,2.88,3.89,5.15,6.27,7.3c-0.78,0.56-1.55,1.13-2.33,1.7c3.99,3.27,7.88,6.9,12.86,8.6c2.69,1.19,6.59,2.39,6.87,5.84
		c-1.85,2.57-4.52,4.35-7.05,6.18c-4.32,2.74-7.75,6.61-10.39,10.96c-2.54,0.33-5.51,2.28-7.92,0.89c-0.82-2.76-0.69-5.68-0.81-8.52
		c3.44-1.65,6.82-3.43,10.08-5.43c-1.31-0.79-2.62-1.57-3.93-2.36c0.91-1.62,1.81-3.25,2.71-4.87c-1.97,0.41-3.93,0.83-5.88,1.27
		c-2.28-4.44-6.09-7.74-10.74-9.51c-1.36-1.15-2.66-2.37-3.96-3.58c0.55-0.8,1.1-1.6,1.66-2.4c2.13,0.47,4.61,1.7,6.66,0.28
		c2.71-1.68,3.61-4.95,4.78-7.71c-3.52-0.42-7.11-0.62-10.59,0.21c-1.79,0.99-3.89,1.83-5.05,3.61c-0.7,2.79,0.55,5.59,1.14,8.29
		c-3.18-4.38-5.86-9.19-7.22-14.46l-0.25-0.73c-0.61-3.81-5.13-3.51-8.08-3.42c-2.71,0-4.6,2.19-6.64,3.65
		c-0.09-1.2-0.17-2.4-0.25-3.59c2.94-1.56,5.86-3.18,8.7-4.92c-1.12-2.01-2.24-4.01-3.34-6.02c-5.46,2.73-8.94,8.35-14.99,10.11
		c-0.7-1.32-1.4-2.64-2.06-3.98c1.87-0.81,4.28-0.98,5.49-2.82c-0.3-1.35-0.78-2.65-1.34-3.89c-2.84,0.2-3.33,3.79-4.59,5.79
		c-0.96-1.95-1.91-3.9-2.79-5.89c1.75-1.61,3.46-3.26,5.11-4.97c-2.3,0.84-4.59,1.73-6.76,2.87c-1.11,0.63-2.18,1.3-3.24,2.01
		l-0.81,0.56c-0.43,0.36-1.29,1.09-1.72,1.45c1.87,0.67,3.75,1.34,5.62,2.01c-0.16,0.77-0.31,1.53-0.47,2.3
		c-1.22,0.11-2.44,0.22-3.66,0.34c-1.19-1.07-2.38-2.15-3.61-3.17c-2.76-0.22-5.51,0.3-8.17,1c-0.38,0.09-1.14,0.27-1.52,0.37
		c-4.8,0.23-9.58-0.48-14.23-1.64c1.98-2.31,3.63-5.13,6.39-6.59c2.8-0.98,5.81-1.06,8.73-1.37c-0.5-0.78-1-1.55-1.49-2.32
		c-2.53,0.2-5.06,0.37-7.6,0.52c1.16-4.37,3.62-8.22,6.46-11.68c2.08,4.36,3.93,8.82,5.64,13.33c5.88-3.14,11.79-6.4,16.77-10.89
		c1.02-2.06,1.78-4.23,2.62-6.36c1.17-1.49,2.33-3,3.45-4.53c0.11,1.49,0.23,2.98,0.36,4.47c2.39-1.6,4.67-3.43,6.37-5.79
		C200.78,278.16,202.02,273.17,203.62,268.32 M189.31,295.29c-5.25,4.99-11.7,8.39-17.81,12.17c-3.5,2.33-7.83,2.31-11.85,2.86
		c1.78,1.26,3.56,3.38,6.01,2.66c4.89-1.41,9.68-3.21,14.45-5.01c6.93-3.79,13.16-8.85,18.34-14.82c-0.44-0.64-1.31-1.9-1.75-2.54
		C193.94,291.65,191.41,293.21,189.31,295.29 M197.08,302.1c-0.62,0.73-1.24,1.46-1.86,2.2c1.95,1.63,3.88,3.29,5.83,4.92
		c0.6-1.18,1.7-2.26,1.58-3.68C200.89,304.22,198.96,303.18,197.08,302.1 M217.13,311.96c-0.34,0.52-1.02,1.57-1.36,2.09
		c1.76,0.69,3.52,1.39,5.28,2.08c0.34-0.96,0.68-1.92,1.02-2.88C220.42,312.82,218.77,312.39,217.13,311.96 M222.17,317.28
		c-1.49,0.98,0.16,3.53,1.63,2.36C225.28,318.65,223.63,316.1,222.17,317.28z"/>
	<path fill="#7E4B07" d="M158.49,353.49c0.77-0.69,1.54-1.4,2.47-1.86c4.78,1.81,9.57,3.92,13.62,7.11
		c-1.09,3.52-2.57,6.92-4.42,10.12c-4.46-1.1-9.01-1.78-13.56-2.38c-5.68-0.74-10.92-3.28-16.6-4.07c-0.26-1.89-0.5-3.78-0.73-5.67
		c5.8-0.38,11.62-0.45,17.43-0.73C157.14,355.38,158.04,354.12,158.49,353.49z"/>
	<path fill="#806C31" d="M157.54,72.71c1.53-0.9,3.05-1.81,4.6-2.68c-0.58,4.21-0.95,8.49-0.2,12.71c1.08-2.06,2.06-4.17,2.99-6.3
		c1.04-0.41,2.07-0.83,3.11-1.22c0.44,1.33,0.88,2.66,1.34,4c2.53,0.99,5.1,2.04,7.21,3.8c-0.25,1.3-0.49,2.62-0.67,3.94
		c-3.19,1.15-6.4,2.44-9.81,2.74c3.4-1.17,6.44-3.16,8.68-5.99c-2.79-0.72-5.73-1.91-8.64-1.13c-2.28,0.86-3.99,2.71-5.81,4.25
		c-2.87-3.58-5.12-8.17-3.72-12.83c0.85,1.29,1.88,1.55,3.07,0.76C159.88,73.36,159.17,72.68,157.54,72.71z"/>
	<path fill="#806C31" d="M205.9,88.3c1.25-1.62,2.55-3.2,3.75-4.86c1.08,0.97,2.17,1.95,3.25,2.92c-0.96,1.35-1.9,2.7-2.85,4.06
		C208.67,89.71,207.28,89.01,205.9,88.3z"/>
	<path fill="#806C31" d="M255.45,100.87c4.16,0.93,8.41,1.15,12.65,1.52c2.8,0.01,4.71,2.27,6.88,3.69c2.62,1.96,6,2.2,9.04,3.15
		c3.62,0.89,6.56,3.32,9.97,4.72c3.09,1.28,6.41,1.82,9.68,2.43c0.05,0.52,0.15,1.57,0.2,2.09c-2.78-0.03-5.63-0.41-8.35,0.31
		c-1.46,2.38-1.83,5.21-2.47,7.87c0.26-3.47,0.78-6.92,1.52-10.31c-3.83-2.27-7.59-4.76-11.88-6.1c-5.28-1.7-10.69-2.99-15.84-5.06
		c-3.92-1.6-8.2-2.15-12.41-1.73C254.78,102.59,255.11,101.73,255.45,100.87z"/>
	<path fill="#806C31" d="M159.15,115.72c2.25-0.78,4.51-1.54,6.82-2.12l1.02-0.05c-0.63,6.5-1.46,13-1.21,19.54
		c0.01,9.12-0.23,18.77-4.66,26.99c1.43-1.05,2.87-2.09,4.32-3.12c1.06,2,2.11,4.01,2.97,6.11c-4.14,8.09-7.68,16.46-11.06,24.89
		c0.95,0.45,1.9,0.9,2.85,1.36c1.52-2.77,2.89-5.62,4.56-8.31c0.22,1.48,0.45,2.95,0.69,4.43c1.21-0.8,2.41-1.59,3.57-2.47
		c-2.27,3.99-2.91,8.56-2.94,13.08c1.32-1.72,2.48-3.63,4.25-4.94c1.33,0.01,2.67,0.09,4,0.23c-1.69,5.17-4.19,10.02-6.44,14.95
		c-2.04,0.9-2.36,4.33,0.47,4.02c0.33,1.69,0.77,3.35,1.2,5.02c3.18-2.22,5.72-5.18,7.83-8.41c0.1,1.79,0.22,3.59,0.35,5.39
		c2.72-2.73,5.53-5.36,8.39-7.94c1.16,2.29,2.24,4.62,3.25,6.97c-2.63,1.38-5.25,2.81-7.81,4.33c4.12-0.78,8.33-1.2,12.48-0.35
		c1.97-3.76,4.31-7.46,8.08-9.64c0.13,2.53,0.11,5.07-0.11,7.6l-0.15,0.84c-2.42,3.83-4.31,7.99-5.29,12.42
		c-0.75,0.5-2.23,1.49-2.98,1.99c-4.32-2.31-8.62-4.69-12.61-7.54c-3.08-2.22-6.67-3.73-10.47-4.1c-1.49-0.13-2.99-0.19-4.49-0.25
		c0.37,3.33,0.78,6.82,2.73,9.67c3.62,5.79,10.09,8.6,15.45,12.44c1.52,1.16,2.99,2.38,4.46,3.61c0.52-0.48,1.56-1.45,2.08-1.93
		c1.37-0.15,2.75-0.29,4.13-0.45c1.04,3.89,1.72,7.87,2.11,11.87c-5.94-1.82-12.15-3.55-18.4-2.32c-0.29-0.33-0.86-1.01-1.15-1.35
		c-1.47-1.63-2.87-3.66-5.17-4.12c-2.98-0.96-6.63-0.87-8.76-3.51c-2.64-3.17-5.57-6.11-9.18-8.16c-2.17-1.76-3.87-3.99-5.55-6.19
		c2.14-1.43,4.29-2.86,6.42-4.31c0.45,1.96,0.93,3.91,1.39,5.87c4.23-1.95,3.97-7.06,5.16-10.87c-1.71,0.57-3.42,1.14-5.13,1.71
		c-0.01-3.72,0.45-7.58-0.75-11.18c-1.48-1.28-3.23-2.17-4.92-3.13c0.48-1,0.94-2.01,1.42-3c-0.86-0.9-1.72-1.78-2.58-2.67
		c0.54-1.1,1.07-2.2,1.61-3.3c-2.52-0.68-5.12-1.18-7.46-2.35c-2.26-1.31-3.8-3.49-5.49-5.4c-1.45,0.77-2.89,1.54-4.33,2.32
		c-0.02-1.87-0.18-3.74-0.32-5.6c1.11-2.05,2.27-4.07,3.35-6.13c0.91,2.6,1.23,5.34,1.38,8.08c2.01-2.98,4.04-5.98,5.43-9.32
		c3.15-7.8,7.29-15.34,8.35-23.8c-1.53-0.21-3.05-0.41-4.57-0.61c0.29-3.49,0.19-7.01,0.12-10.51c-2.87-0.33-5.75-0.67-8.64-0.72
		c1.69-0.34,3.36-0.72,5.05-1.09c1.73-0.38,3.47-0.75,5.2-1.14c0.69,2.47,1.37,4.96,2.03,7.44c4.1-0.36,7.61-2.53,10.59-5.24
		c-1.34-0.76-2.68-1.51-4.02-2.27c0.01-2.61-0.06-5.23-0.2-7.84c0.72-1.37,1.45-2.75,2.18-4.12c-0.92-0.69-1.84-1.38-2.75-2.07
		c1.11-1.36,2.25-2.69,3.36-4.04C160.16,119.18,159.66,117.45,159.15,115.72 M144.59,183.76c1.54,0.45,3.09,0.89,4.65,1.29
		c-0.49-1.04-1.01-2.05-1.58-3.04C146.6,182.53,145.6,183.15,144.59,183.76 M144.04,186.72c0.36,1.51,0.73,3.02,1.1,4.54
		c1.15-1.1,2.29-2.19,3.44-3.29C147.09,187.46,145.58,187.04,144.04,186.72 M157.13,192.18c0.06,2.09,0.14,4.19,0.29,6.29
		c1.98-1.95,2.23-4.76,2.67-7.34C159.1,191.47,158.11,191.82,157.13,192.18 M160.95,192.06c-0.39,2.07-0.77,4.14-1.07,6.23
		c2.76-1.1,4.85-3.15,5.55-6.09C163.94,192.15,162.44,192.1,160.95,192.06 M190.7,218.65c-0.42,1.15-0.78,2.33-1.09,3.52
		c1.58-0.23,3.26-0.1,4.75-0.77c0.4-1.19,0.76-2.4,1.07-3.61C193.88,218.1,192.02,217.65,190.7,218.65 M165.1,230.2
		c0.02,0.63,0.05,1.9,0.06,2.53c0.67,0.02,2,0.07,2.66,0.1c0-0.65-0.01-1.94-0.01-2.58C167.13,230.24,165.78,230.21,165.1,230.2z"/>
	<path fill="#806C31" d="M92.87,118.7c0.09-0.38,0.27-1.15,0.36-1.54c4.73,3.32,10.49,1.74,15.51,0.09c-0.4,1.2-0.79,2.4-1.15,3.61
		c-2.47-0.43-4.95-0.85-7.42-1.25c-0.3,2.57-0.6,5.14-0.9,7.72c-1.18-1.01-2.36-2.01-3.53-3.02c0.17-1.37,0.35-2.73,0.53-4.1
		c-1.06-0.07-2.11-0.14-3.16-0.2C93.05,119.68,92.93,119.03,92.87,118.7z"/>
	<path fill="#806C31" d="M221.82,123.95c1.08-0.76,2.3-1.5,3.69-1.27c4.03,0.37,8.06,0.79,12.12,0.58c0.88,0.29,1.76,0.57,2.64,0.86
		c-0.51,0.98-1.01,1.97-1.53,2.95c-1.79,3.86-4.68,7.41-9.17,7.92c-0.4,2.49-0.46,5.39-2.68,7.05c-5.03,4.26-9.28,9.3-13.8,14.07
		c-3.25,3.42-4.74,7.99-6.14,12.39c-2.03-0.73-4.03-1.52-6.11-2.1c-0.98-0.25-1.96-0.49-2.94-0.72c1.01-1.55,2.1-3.05,3.17-4.56
		c-1.84-1.4-3.69-2.79-5.52-4.2c0.71-0.52,1.42-1.04,2.15-1.55c1.4,1.08,2.81,2.16,4.23,3.23c2.28-4.41,4.72-8.82,8.14-12.48
		c4.98-5.38,9.3-11.34,13.08-17.61c-1.3,0.04-2.6,0.08-3.9,0.12C220.1,127.07,220.92,125.49,221.82,123.95 M233.17,130.28
		c-1.62-0.06-1.78,2.68-0.1,2.67C234.67,133.01,234.83,130.26,233.17,130.28z"/>
	<path fill="#806C31" d="M224.65,150.43c1.08-2.45,2.92-4.4,5.25-5.71c0.28,0.65,0.82,1.95,1.1,2.59c0.76,1.68,0.48,3.57,0.48,5.35
		C229.2,151.93,226.92,151.18,224.65,150.43z"/>
	<path fill="#806C31" d="M249.13,154.23c0.9,0.63,1.81,1.24,2.73,1.85c1,1.63,1.94,3.3,2.98,4.91c-0.64,0.11-1.91,0.34-2.55,0.45
		c-0.03,1.79-0.08,3.58-0.04,5.38c-0.69-0.4-1.38-0.8-2.06-1.2c-0.27,0.16-0.82,0.47-1.09,0.63c-1.17-0.32-2.34-0.59-3.53-0.74
		c-0.66,2.15-1.04,4.37-1.49,6.57c-0.5-1.93-0.88-3.9-1.09-5.88c2.39-2.16,4.79-4.31,7.19-6.47c-1.15-1.23-2.3-2.45-3.44-3.67
		C247.77,155.77,248.57,155.16,249.13,154.23z"/>
	<path fill="#806C31" d="M171.89,188.39c0.49-1.82,0.98-3.64,1.64-5.41c0.42,0.18,1.26,0.53,1.68,0.71c2.19,0.94,4.39,1.86,6.6,2.77
		c-0.54,1.13-1.07,2.27-1.6,3.41C177.45,189.3,174.66,188.87,171.89,188.39z"/>
	<path fill="#806C31" d="M248.3,205.95c-0.52-5.59-0.19-11.34,2.25-16.48c0.46,1.12,0.93,2.24,1.39,3.37
		c0.59-0.29,1.18-0.57,1.78-0.86c-0.84,7.04-0.96,14.36,2.36,20.83c-3.39,2.06-6.82,4.06-10.25,6.06c-0.59,0.34-1.17,0.68-1.75,1.02
		c-0.56-1.44-1.07-2.9-1.58-4.35c4.19-0.34,9.6-0.98,10.93-5.81C253.94,206.67,250.43,206.39,248.3,205.95 M250.42,194.67
		c-0.49,2.9-0.49,5.87,0.22,8.73C251.16,200.5,251.12,197.53,250.42,194.67z"/>
	<path fill="#806C31" d="M212.74,192.83c3.25,1.68,6.89,3.56,10.48,1.59c-0.02,0.18-0.06,0.54-0.08,0.71
		c2.59-0.01,5.17,0.04,7.76,0.14c0.45,2.61,0.54,5.42,1.96,7.74c1.45,1.53,3.58,2.14,5.4,3.13c1.25-3.27,2.29-6.78,1.59-10.3
		c1-0.97,2-1.93,3-2.89c1.3,1.72,3.03,3.25,3.7,5.35c0.18,3.93-1.03,7.76-1.73,11.6c-1.46-1.37-2.92-2.73-4.38-4.09
		c-0.42,1.56-0.84,3.12-1.25,4.68c-0.41,0.2-1.24,0.6-1.65,0.8c-3.05-3.15-6.61-5.81-10.66-7.52c2.12,3.63,5.48,6.21,9.08,8.26
		c0.36,0.51,1.08,1.53,1.44,2.05c-0.24,0.31-0.71,0.95-0.95,1.27c-1.51-0.57-3.05-2.93-4.68-1.68c-2.68,4.62-5.4,9.29-7.1,14.37
		c-1.44-0.92-2.88-1.84-4.37-2.68c1.09-1.21,1.03-2.26-0.18-3.14c-1.43,0.23-1.9,1.08-1.42,2.54c0.52,2.34,1.1,4.66,1.73,6.97
		c-1.43,1.29-2.88,2.58-4.32,3.86c1.76,1.16,3.51,2.34,5.27,3.52c-0.67,0.17-2.02,0.51-2.69,0.68c-2.09,0.4-4.2,0.68-6.32,0.74
		c-0.78-0.03-2.34-0.1-3.11-0.13c-0.34-0.08-1.01-0.23-1.34-0.31c0.16,1.66,0.31,3.31,0.47,4.97c-0.67,0.26-1.34,0.51-2.01,0.77
		c-1.88-8.45-1.59-18.38,4.33-25.23c-0.78,4.82-2.97,9.26-3.97,14.03c-0.53,2.22,1.95,3.45,3.12,4.93
		c2.44-4.36,1.68-9.92,4.88-13.88c1.26-2.77,2.5-5.57,3.38-8.49c0.98-3.12,0.24-6.42,0.63-9.61c1.09-1.57,2.69-2.68,4.16-3.88
		c-1.69-0.17-3.41-0.22-5.03-0.75C214.46,200.81,213.12,196.65,212.74,192.83 M227.05,200.05c-0.72,2.56,2.58,3.04,4.1,4.26
		c-0.36-2.4-0.71-4.82-1.39-7.16C227.92,196.57,227.08,198.55,227.05,200.05 M223.18,206.47c-1.51,1.35,0.91,3.54,2.21,2.1
		C226.88,207.22,224.47,205.05,223.18,206.47 M236.51,207.12c-1.03,1.3,1.22,2.88,2.17,1.58
		C239.72,207.38,237.46,205.82,236.51,207.12z"/>
	<path fill="#806C31" d="M186.49,197.45c1.29-2.38,4.21-3.04,6.43-4.21c1.11,3.42,1.04,7.06,0.86,10.61
		c-2.16-0.18-4.33-0.37-6.49-0.56C186.91,201.36,186.39,199.43,186.49,197.45z"/>
	<path fill="#806C31" d="M234.28,196.83c0.65,0,1.95-0.02,2.6-0.02c0.44,2.13,0.84,4.26,1.26,6.39c-1.21-0.21-2.42-0.43-3.63-0.65
		C234.45,200.64,234.4,198.73,234.28,196.83z"/>
	<path fill="#806C31" d="M126.08,206.06c2.74-1.4,5.68-2.33,8.63-3.2c-0.84,2.35-1.7,4.69-2.57,7.03c1.95-1.14,3.9-2.27,5.84-3.43
		c4.13,1.71,8.12,3.78,11.87,6.23c-1.79,3.15-3.78,6.44-3.68,10.2c-0.14,4.99,1.25,11.35,6.69,13.01c1.15,0.23,2.31,0.45,3.47,0.66
		c2.65,3.96,5.86,7.49,9.03,11.03c-1.07,1.06-2.08,2.17-3.1,3.27c1.25,1.28,2.49,2.56,3.74,3.85c-2.12-0.49-4.23-0.98-6.35-1.46
		c-1.71,8.99-4.57,17.67-7.4,26.35c-0.63-0.53-1.25-1.07-1.88-1.58c-1.11-0.9-2.23-1.77-3.36-2.62c0.26,1.57,0.67,3.11,1.22,4.6
		c0.81,1.66,2.3,3.44,1.33,5.38c-2.57,6.66-7.62,12.03-12.28,17.31c-1.47-1.8-2.96-3.58-4.45-5.36c-0.77,1.56-1.54,3.13-2.29,4.7
		c-0.81-0.57-1.61-1.14-2.42-1.7c3-6.38,8.26-11.15,12.59-16.58c2.61-3.39,3.77-7.57,4.9-11.63c1.41-4.94,3.02-9.82,5.02-14.55
		c0.91-2.44,2.42-5.21,1.04-7.78c-0.82-2.19-3.17-3-5.05-4.03c0.37-2.1,1.13-4.23,0.83-6.38c-0.85-2.56-2.61-4.67-4.08-6.89
		c0.57-1.91,1.12-3.81,1.68-5.72c-2.36,2.11-4.69,4.23-7.01,6.38c-1.61-0.64-3.25-1.18-4.85-1.81c-0.54,0.55-1.64,1.66-2.18,2.21
		c2.28,1.6,4.73,2.94,7.33,3.95c-1.39,3.09-2.54,6.29-3.54,9.53c-2.3-1.52-5.48-2.89-5.51-6.11c-0.54-6.02-2.28-12.43,0.17-18.24
		c3.09,0.19,5.1,2.61,7.04,4.72c-0.16-2.2-0.31-4.39-0.43-6.58c1.73,1.15,3.45,2.32,5.17,3.49c0.97-1.32,1.93-2.63,2.9-3.94
		c-2.1-0.22-4.2-0.42-6.3-0.63c0.19-0.48,0.57-1.46,0.76-1.94c2.25-0.73,4.51-1.45,6.76-2.17c-3.28-0.87-6.49-1.99-9.6-3.36
		c-0.23,1.06-0.46,2.13-0.69,3.2c-2-0.34-4-0.66-6-0.96c0.84,1.45,1.69,2.89,2.54,4.34c-1.26,1.28-2.52,2.56-3.78,3.83
		c-0.72,0.01-2.14,0.04-2.86,0.06c0.36-4.01,1.05-7.98,2.22-11.84c-0.86-1.04-1.72-2.08-2.57-3.11
		C124.98,207.36,125.71,206.49,126.08,206.06 M151.49,261.51c-0.34,1.28-0.62,2.58-0.83,3.89c1.47-0.42,3.35-0.22,4.4-1.54
		c0.05-1.35,0.04-2.71-0.02-4.05C153.84,260.35,152.62,260.84,151.49,261.51 M138.58,292.17c1.89-0.67,3.82-1.31,5.56-2.33
		c0.51-2.14-2.01-2.7-3.25-3.82C139.71,287.9,138.85,289.95,138.58,292.17z"/>
	<path fill="#806C31" d="M226.38,230.65c0.26-1.13,0.68-2.22,1.07-3.31c5.91,4.53,11.09,10.26,14.49,16.91
		c1.2,5.65-0.83,12.27-6.11,15.18c1.28,0.64,2.58,1.26,3.77,2.07c0.28,4.53-0.5,9.04-0.64,13.57c1.14,0.35,2.29,0.71,3.43,1.07
		c-1.12,5-0.79,10.37-3.12,15.05l-0.87-0.08c-3.16-4.28-6.75-8.64-7.45-14.11c-0.87-6.69-2.79-13.35-2.12-20.15
		c0.4-5.19,3.41-9.61,4.69-14.54C233.93,237.2,229.21,234.17,226.38,230.65 M232,254.25c1.79,0.8,3.7,1.13,5.28-0.29
		C236.36,250.83,233.42,252.44,232,254.25 M232.69,269.69c0.11,0.98,0.35,2.95,0.47,3.93c1.44-0.89,2.65-2.07,3.58-3.47
		C235.73,270.03,233.7,269.81,232.69,269.69z"/>
	<path fill="#806C31" d="M141.4,238.96c1.3,0.46,2.6,0.92,3.9,1.39c-4.55,8.82-9.95,17.16-14.53,25.97
		c-1.76-1.34-3.53-2.67-5.19-4.13c3.48-2.03,5.64-5.48,8.12-8.53C137.44,249.47,139.77,244.28,141.4,238.96z"/>
	<path fill="#806C31" d="M167.87,246.33c1.82,0.21,3.62,0.54,5.42,0.92c-0.13,2.01-0.29,4.01-0.47,6.02
		c-1.27-0.71-2.59-1.34-3.74-2.24C168.46,249.53,168.21,247.9,167.87,246.33z"/>
	<path fill="#806C31" d="M142.7,251.62c1.11-2.05,3.5-2.46,5.53-3.07c0,8.34-4.11,15.74-7.19,23.24c-2.39,0.05-4.76,0.38-7.13,0.65
		c0.04,1.29,0.08,2.59,0.13,3.89c1.26,0.06,2.53,0.12,3.8,0.18c-3.45,6.24-7.49,12.12-11.27,18.16c-1.83,2.71-3.74,6.22-7.38,6.57
		c-1.88-1.18-3.64-3.01-3.89-5.31c0.45-2.73,2.07-5.41,4.44-6.89c2.51-0.81,5.21-0.42,7.8-0.64c1.27-0.4,2.52-0.82,3.77-1.25
		c-1.01-1.42-2.03-2.83-3.06-4.23c0.87-0.49,1.76-0.95,2.65-1.4c-0.46-2.15-0.89-4.29-1.3-6.44
		C134.32,267.46,137.61,259.02,142.7,251.62 M144.18,252.14c-0.53,1.62,0.02,2.18,1.65,1.67
		C146.36,252.18,145.81,251.63,144.18,252.14 M139.75,259.76c0.09,1.42,0.18,2.85,0.28,4.27c1.04-0.37,2.08-0.73,3.12-1.09
		c-0.07-0.69-0.21-2.07-0.29-2.75C142.08,260.08,140.53,259.87,139.75,259.76 M118.89,293.66c-0.35,1.1-0.7,2.19-1.05,3.29
		c0.86,0.18,2.58,0.53,3.43,0.7c0.3-1.24,0.6-2.47,0.91-3.71C121.36,293.87,119.71,293.73,118.89,293.66z"/>
	<path fill="#806C31" d="M112.19,261.42c2.85-1.72,5.86-3.15,9.03-4.15c0.21,0.93,0.43,1.86,0.65,2.79
		c-3.47,0.89-6.8,2.25-9.86,4.11c3.2,1.68,6.55,0.83,9.43-1.02c2.75,1.86,5.35,3.92,7.88,6.07c-0.87,1.97-1.75,3.95-2.63,5.92
		c-2.53,1.31-4.32,3.58-5.71,6.01c-2.07,3.58-4.43,7-7.14,10.14c-1.48-4.67-3.29-9.57-2.26-14.53c0.34-1.26,0.73-2.51,1.11-3.75
		c-1.82,0.38-3.65,0.74-5.45,1.21C109.62,270.28,111.6,266.03,112.19,261.42 M114.16,265.96c0.04,1.83,0.09,3.67,0.18,5.51
		c1.42-1.18,2.72-2.49,3.89-3.92C116.87,267.01,115.51,266.48,114.16,265.96 M123.16,268.13c-0.47,1.4,0,1.87,1.41,1.43
		C125.04,268.16,124.57,267.68,123.16,268.13z"/>
	<path fill="#806C31" d="M162.66,259.7c1.11-0.51,2.22-1.02,3.33-1.53c0.91,1.26,1.83,2.52,2.76,3.77c-0.7,4.59-1.44,9.19-2.8,13.64
		c-1.94-0.3-3.87-0.6-5.8-0.89C160.26,269.6,161.06,264.54,162.66,259.7 M162.3,267.3c-1.06,1.31,1.22,2.86,2.16,1.57
		C165.5,267.56,163.24,266,162.3,267.3z"/>
	<path fill="#806C31" d="M172.04,267.05c0.53,0.15,1.59,0.46,2.11,0.62c3.15,5.36,4.42,11.48,6.93,17.11
		c-0.76,0.15-2.27,0.44-3.03,0.59c-0.02,0.62-0.08,1.87-0.11,2.5c1.38-0.01,2.77-0.02,4.15-0.02c1.46-0.01,2.92-0.02,4.38-0.02
		c0.12-1.53,0.23-3.05,0.35-4.57c2.57-1.69,4.88-3.74,6.98-5.97c-1.23-2.71-2.42-5.42-3.6-8.14c3.06-0.29,6.13-0.57,9.2-0.77
		c-1.08,4.62-2.69,9.16-5.46,13.06c-0.64,0.91-1.29,1.82-1.95,2.72c-1.12,1.53-2.28,3.04-3.45,4.53c-2.59,1.69-5.08,3.56-7.19,5.83
		c-2.38-0.39-5.21-0.99-6.4-3.34c-0.59-3.86,0.08-7.9-1.33-11.64C172.1,275.55,171.69,271.28,172.04,267.05z"/>
	<path fill="#806C31" d="M282.29,272.65c-0.59-2.05,1.4-3.54,2.27-5.17c0.93,0.95,1.86,1.91,2.79,2.87
		c-0.04,1.02-0.08,2.04-0.11,3.06c1.85,1.83,3.64,3.71,5.4,5.64C288.23,279.63,283.4,277.14,282.29,272.65z"/>
	<path fill="#806C31" d="M164.72,276.9c0.22,0.35,0.66,1.05,0.89,1.4c-2.23,6.46-4.68,13.1-9.93,17.77
		c-0.49-0.13-1.48-0.39-1.97-0.52c-1.25-0.31-2.49-0.62-3.74-0.92c0.03,0.86,0.07,2.58,0.09,3.43c1.37,0.08,2.74,0.17,4.11,0.25
		l0.66,0.03c-1.4,3.47-2.22,7.36-4.82,10.18c-2.37-1.24-4.5-2.85-6.74-4.28c3.54-4.35,4.97-10.02,8.92-14.05
		c3.74-4.12,4.81-10.79,10.78-12.6C163.41,277.42,164.28,277.07,164.72,276.9z"/>
	<path fill="#806C31" d="M169.78,279.88c1.55,2.84,2.35,5.99,2.8,9.18c-1.14,0.56-2.28,1.11-3.41,1.68
		c-0.56-0.68-1.11-1.35-1.66-2.01C168.22,285.76,168.95,282.81,169.78,279.88z"/>
	<path fill="#806C31" d="M168.43,293.31c1.44-0.27,2.88-0.53,4.32-0.79c1.64,1.89,3.27,3.79,4.9,5.7c-3,1.02-6.04,2.44-9.3,1.88
		C168.37,297.84,168.4,295.58,168.43,293.31z"/>
	<path fill="#806C31" d="M121.82,306.89c1.27-1.53,2.55-3.06,3.83-4.58c1.13,0.66,2.27,1.33,3.4,2c0.97-0.43,1.93-0.85,2.9-1.26
		c0.77,0.56,1.55,1.14,2.32,1.72c-1.8,2.24-2.76,4.96-3.76,7.61C127.5,310.74,124.6,308.9,121.82,306.89z"/>
	<path fill="#806C31" d="M145.3,307.59c1.19,1.42,2.44,2.82,3.33,4.46c-0.75,2.18-2.95,3.3-4.62,4.7c-3.03-0.97-6.09-1.84-9.14-2.76
		c1.42-1.04,2.69-2.77,4.62-2.67c1.72,0.09,3.43,0.26,5.15,0.41C144.86,310.35,145.08,308.97,145.3,307.59z"/>
	<path fill="#532506" d="M63.33,70.72c3,1.11,5.68,2.89,7.83,5.25C69,76.05,66.84,76.02,64.68,76c0.3,8.12,2.96,15.87,3.68,23.94
		c1.25,9.84,1.57,19.83,3.81,29.52c1.16,0.7,2.32,1.41,3.45,2.17c0.89,0.69,1.75,1.41,2.62,2.13c0.22,1.59,0.47,3.18,0.67,4.78
		l-0.41,0.74c-0.19,0.34-0.57,1.01-0.76,1.35c-0.84-2.34-1.08-5.36-3.47-6.73c-1.65-1.36-4.11-2.09-4.89-4.26
		c-1.08-2.84-1.61-5.85-2.1-8.84c-0.34-8.29-1.5-16.52-2.32-24.77C64.17,87.62,60.83,79.17,63.33,70.72z"/>
	<path fill="#532506" d="M80.76,77.49c1.42-0.36,2.85-0.71,4.29-1.04c0.45,5.82,2.4,11.36,4.81,16.63
		c0.67,6.24,1.9,12.41,4.22,18.26c0.05,1.97-0.4,3.91-0.85,5.82c-0.09,0.39-0.27,1.16-0.36,1.54c-3.19-8.41-3.66-17.5-6.31-26.06
		C85.1,87.42,83.06,82.39,80.76,77.49z"/>
	<path fill="#532506" d="M160.34,86.83c1.82-1.54,3.53-3.39,5.81-4.25c2.91-0.78,5.85,0.41,8.64,1.13
		c-2.24,2.83-5.28,4.82-8.68,5.99C164.15,88.8,162.22,87.87,160.34,86.83z"/>
	<path fill="#532506" d="M304.04,101.85c2.37-0.2,5.4-1.28,7.32,0.67c2.03,3.11,2.92,6.88,5.3,9.8l0.45,0.54
		c-3.34-3.94-9.09-1.36-12.98-4.16C304.12,106.42,304.09,104.13,304.04,101.85z"/>
	<path fill="#532506" d="M206.6,111.4c1.67-0.59,3.34-1.17,5.02-1.74c-0.98,2.13-1.53,4.42-1.97,6.71
		c9.27,2.59,19.39,2.14,27.98,6.89c-4.06,0.21-8.09-0.21-12.12-0.58c-1.39-0.23-2.61,0.51-3.69,1.27c-1.27-1.4-2.53-2.82-3.93-4.09
		c-1.08,1.21-2.01,2.56-2.92,3.9c-0.03-1.13-0.07-2.25-0.11-3.37c-2.52-0.22-5.04-0.43-7.56-0.62c0.18-0.96,0.35-1.93,0.51-2.89
		C207.55,115.02,207.15,113.19,206.6,111.4z"/>
	<path fill="#532506" d="M264.44,136c0.86,0.02,2.6,0.06,3.47,0.08c2.79,0.93,4.79,3.24,6.8,5.27c-2.26,1.93-4.94,3.22-7.77,4.05
		c1.29-1.42,2.61-2.8,3.95-4.17C268.68,139.55,266.52,137.82,264.44,136z"/>
	<path fill="#532506" d="M104.2,142.1c5.22-0.73,10.3-2.17,15.24-3.97c0.17,1.24,0.36,2.49,0.55,3.73
		c-4.52,0.65-9.01,1.84-13.61,1.52c-4.12-0.27-8.24-0.62-12.37-0.45c-4.82,0.08-9.95,0.85-14.41-1.47c8.08-0.87,16.35,0,24.26-2.32
		C103.95,139.88,104.12,141.36,104.2,142.1z"/>
	<path fill="#532506" d="M251.86,156.08c5.1,2.11,8.26,6.82,12.44,10.19c0.09-1.46,0.17-2.92,0.26-4.37
		c1.19,1.72,2.39,3.44,3.58,5.16c-1.68,1.12-3.36,2.23-5.04,3.34c-2.78-3.11-5.97-5.89-8.26-9.41
		C253.8,159.38,252.86,157.71,251.86,156.08z"/>
	<path fill="#532506" d="M288.3,157.06c4.83,3.69,9.13,7.99,12.85,12.8c3.37,4.51,8.69,7.41,11.1,12.66
		c1.03,2.01,2.02,4.03,3.26,5.93c6.35,9.22,7.56,20.94,7.04,31.85c-0.17,4.3,0.88,8.51,1.7,12.71c-0.09,2.29-0.57,4.57-1.57,6.65
		c-1.98-5.86-3.24-12.02-2.96-18.24c0.3-6.99,0.64-14.12-1.24-20.94c-1.01-4.17-3.45-7.77-5.75-11.33
		c-0.52-0.84-1.03-1.68-1.53-2.52c-3.29-6.39-8.74-11.19-13.21-16.7c-3.22-3.82-6.88-7.73-11.93-8.92
		C286.8,159.69,287.55,158.37,288.3,157.06z"/>
	<path fill="#532506" d="M157.35,187.96c3.38-8.43,6.92-16.8,11.06-24.89c0.57,1.97,0.99,3.97,1.41,5.98
		c0.52,1.34,0.18,3.53,1.98,3.88c1.31-1.55,2.4-3.28,3.56-4.95c-1.11,3.26-2.36,6.47-3.75,9.61c-0.86-0.49-1.71-0.98-2.56-1.47
		c-1.48,1.59-2.96,3.18-4.29,4.89c-1.67,2.69-3.04,5.54-4.56,8.31C159.25,188.86,158.3,188.41,157.35,187.96z"/>
	<path fill="#532506" d="M250.19,165.62c0.68,0.4,1.37,0.8,2.06,1.2c0.44,5.18,1.14,10.35,0.98,15.56
		c-1.76-1.06-3.56-2.04-5.36-3.02c0.16-0.78,0.3-1.56,0.47-2.33c1.64-3.4,1.11-7.18,0.76-10.78
		C249.37,166.09,249.92,165.78,250.19,165.62z"/>
	<path fill="#532506" d="M218.55,172.47c0.58-0.72,1.18-1.41,1.82-2.06c1.83,0.89,3.68,1.73,5.59,2.44
		c0.19-0.52,0.57-1.58,0.76-2.11c1.08,2.47,2.55,4.89,2.76,7.63c-0.67,1.69-1.92,3.05-3.05,4.45l0.23-0.89
		c1.18-2.49,1.16-5.04-1.33-6.68C223.12,174.22,220.81,173.39,218.55,172.47z"/>
	<path fill="#532506" d="M265.51,174.11c0.54-1.15,1.09-2.3,1.62-3.45c-0.12,2.5,0.28,4.99,1.35,7.27c0.36-0.67,1.07-2.02,1.42-2.69
		c3.22,5.09,8.72,7.84,13.04,11.83c2.21,2.03,4.84,3.52,7.48,4.94c2.39,1.67,3.06,4.51,3.34,7.24c0.49,3.63,1.3,7.22,2.18,10.78
		c1.26,5.12,1.79,10.42,3.5,15.42c1.48,4.39,3.16,8.72,4.21,13.24c0.19,2.14,0.24,4.29,0.44,6.43
		c-7.9-14.58-10.06-31.26-14.08-47.12c-0.38-1.16-0.94-2.27-1.77-3.17C281.03,187.52,270.29,183.7,265.51,174.11z"/>
	<path fill="#532506" d="M233.2,179.31c0.65-1.28,1.37-2.52,2.09-3.75c0.19,2.81,0.7,5.97-1.08,8.43c-1.09,1.73-3.39,1.78-5.13,2.45
		C230.71,184.22,232.2,181.88,233.2,179.31z"/>
	<path fill="#532506" d="M170.14,180.73c1.64,0.11,3.28,0.23,4.92,0.37c-0.38,0.47-1.15,1.41-1.53,1.88
		c-0.66,1.77-1.15,3.59-1.64,5.41c2.77,0.48,5.56,0.91,8.32,1.48c1.35,0.3,2.7,0.65,4.05,1c-3.28,0.58-6.62,0.86-9.93,0.47
		c-1.33-0.14-2.67-0.22-4-0.23c-1.77,1.31-2.93,3.22-4.25,4.94c0.03-4.52,0.67-9.09,2.94-13.08
		C169.3,182.41,169.86,181.29,170.14,180.73z"/>
	<path fill="#532506" d="M218.78,185.43c1.7-0.44,3.41-0.87,5.09-1.41c0.98,1.54,1.96,3.08,2.86,4.68c0.51,0.98,1,1.99,1.5,3
		c2.24,1.42,4.52,2.91,6.05,5.13c0.12,1.9,0.17,3.81,0.23,5.72c1.21,0.22,2.42,0.44,3.63,0.65c-0.42-2.13-0.82-4.26-1.26-6.39
		c0.83-1.07,1.66-2.13,2.5-3.19c0.12,0.55,0.36,1.66,0.47,2.22c0.7,3.52-0.34,7.03-1.59,10.3c-1.82-0.99-3.95-1.6-5.4-3.13
		c-1.42-2.32-1.51-5.13-1.96-7.74c-2.59-0.1-5.17-0.15-7.76-0.14c0.02-0.17,0.06-0.53,0.08-0.71c0.17-1.45,0.32-2.91,0.48-4.36
		c-3.77-0.31-7.56-0.34-11.32-0.02c-0.05-0.38-0.16-1.15-0.21-1.53c2.38,0,4.76-0.02,7.15,0.04c1.22,0.07,2.44,0.14,3.67,0.21
		C221.59,187.65,220.18,186.54,218.78,185.43z"/>
	<path fill="#532506" d="M129.47,193.51c1.32-3.13,2.62-6.28,4.33-9.22c0.14,1.86,0.3,3.73,0.32,5.6
		c-1.9,5.73-4.89,11.04-8.04,16.17c-0.37,0.43-1.1,1.3-1.46,1.73c-3.68,3.93-6.8,8.39-10.86,11.95c-1.48,1.52-3.64,1.13-5.5,0.85
		c3.06-2.69,6.85-4.69,9.07-8.23c2.03-3.14,3.84-6.42,5.95-9.51C125.49,199.84,128.01,196.99,129.47,193.51z"/>
	<path fill="#532506" d="M144.04,186.72c1.54,0.32,3.05,0.74,4.54,1.25c-1.15,1.1-2.29,2.19-3.44,3.29
		C144.77,189.74,144.4,188.23,144.04,186.72z"/>
	<path fill="#532506" d="M157.13,192.18c0.98-0.36,1.97-0.71,2.96-1.05c-0.44,2.58-0.69,5.39-2.67,7.34
		C157.27,196.37,157.19,194.27,157.13,192.18z"/>
	<path fill="#532506" d="M101.04,234.48c1.32-4.23,2.62-8.61,5.41-12.15c0.67,4.48-2,8.52-2.04,12.91c1.26,3.12,3.8,5.78,3.67,9.36
		c2.84,0.33,5.69,0.52,8.54,0.68c-0.39-2.89-0.65-5.79-0.64-8.7c5.2,7.7,4.48,17.8,9.6,25.61c1.66,1.46,3.43,2.79,5.19,4.13
		c4.58-8.81,9.98-17.15,14.53-25.97c-1.3-0.47-2.6-0.93-3.9-1.39c0.68-2.16,1.31-4.32,1.97-6.47c1.47,2.22,3.23,4.33,4.08,6.89
		c0.3,2.15-0.46,4.28-0.83,6.38c1.88,1.03,4.23,1.84,5.05,4.03c1.38,2.57-0.13,5.34-1.04,7.78c-2,4.73-3.61,9.61-5.02,14.55
		c-1.52-0.13-3.04-0.27-4.57-0.33c3.08-7.5,7.19-14.9,7.19-23.24c-2.03,0.61-4.42,1.02-5.53,3.07c-5.09,7.4-8.38,15.84-13.1,23.46
		c-0.97,0-1.94,0.01-2.91,0.06c0.88-1.97,1.76-3.95,2.63-5.92c-2.53-2.15-5.13-4.21-7.88-6.07c-2.88,1.85-6.23,2.7-9.43,1.02
		c3.06-1.86,6.39-3.22,9.86-4.11c-0.22-0.93-0.44-1.86-0.65-2.79c-3.17,1-6.18,2.43-9.03,4.15c-0.45-0.66-1.35-1.97-1.8-2.63
		c3.15-1.46,6.41-2.66,9.72-3.7c0.23-0.67,0.68-2.01,0.91-2.68c-4.42-0.19-8.54,1.52-12.28,3.72c-2.4-6.61-3.64-13.74-7.93-19.54
		C100.86,236.06,100.98,235.01,101.04,234.48z"/>
	<path fill="#532506" d="M154.33,232.39c3.61,2.05,6.54,4.99,9.18,8.16c2.13,2.64,5.78,2.55,8.76,3.51c2.3,0.46,3.7,2.49,5.17,4.12
		c-1.38-0.31-2.76-0.63-4.15-0.93c-1.8-0.38-3.6-0.71-5.42-0.92c-0.86,0.37-1.7,0.79-2.51,1.26c-3.17-3.54-6.38-7.07-9.03-11.03
		c-1.16-0.21-2.32-0.43-3.47-0.66C153.34,234.73,153.83,233.56,154.33,232.39z"/>
	<path fill="#532506" d="M221.38,239.11c1.15-0.32,2.31-0.64,3.46-0.96c-1.94,3.14-3.3,6.59-3.92,10.23
		c-0.84,0.2-1.67,0.39-2.5,0.59c0.07-3.06,0.17-6.12,0.27-9.18C219.36,239.62,220.71,239.28,221.38,239.11z"/>
	<path fill="#532506" d="M139.75,259.76c0.78,0.11,2.33,0.32,3.11,0.43c0.08,0.68,0.22,2.06,0.29,2.75
		c-1.04,0.36-2.08,0.72-3.12,1.09C139.93,262.61,139.84,261.18,139.75,259.76z"/>
	<path fill="#532506" d="M151.49,261.51c1.13-0.67,2.35-1.16,3.55-1.7c0.06,1.34,0.07,2.7,0.02,4.05c-1.05,1.32-2.93,1.12-4.4,1.54
		C150.87,264.09,151.15,262.79,151.49,261.51z"/>
	<path fill="#532506" d="M232.69,269.69c1.01,0.12,3.04,0.34,4.05,0.46c-0.93,1.4-2.14,2.58-3.58,3.47
		C233.04,272.64,232.8,270.67,232.69,269.69z"/>
	<path fill="#532506" d="M107.24,274.22c1.8-0.47,3.63-0.83,5.45-1.21c-0.38,1.24-0.77,2.49-1.11,3.75
		c-1.13,0.09-2.27,0.21-3.4,0.34c-4.07-0.02-6.7,2.98-8.28,6.39c-0.74-0.41-1.47-0.82-2.21-1.23c-0.28,0.32-0.85,0.96-1.13,1.28
		c-0.31,6.03,0.38,12.2,3.65,17.43c2.37,4.41,4.2,9.31,7.93,12.81c2.3,2.17,4.57,4.38,6.6,6.82c-0.9,0.12-2.7,0.37-3.6,0.5
		c-6.35-4.87-11.19-11.52-14.22-18.9c-3.26-6.92-4.48-14.89-3.23-22.43C97.84,277.18,102.61,275.74,107.24,274.22z"/>
	<path fill="#532506" d="M138.58,292.17c0.27-2.22,1.13-4.27,2.31-6.15c1.24,1.12,3.76,1.68,3.25,3.82
		C142.4,290.86,140.47,291.5,138.58,292.17z"/>
	<path fill="#532506" d="M118.89,293.66c0.82,0.07,2.47,0.21,3.29,0.28c-0.31,1.24-0.61,2.47-0.91,3.71
		c-0.85-0.17-2.57-0.52-3.43-0.7C118.19,295.85,118.54,294.76,118.89,293.66z"/>
	<path fill="#532506" d="M117.29,323.76c4.36-0.88,8.52,0.86,12.44,2.55c-0.18,0.55-0.53,1.64-0.7,2.18
		C124.77,327.9,120.97,325.84,117.29,323.76z"/>
	<path fill="#532506" d="M148.33,331.2c5.48-3.32,12.29-2.28,18.05-0.29c-0.26,0.22-0.79,0.65-1.05,0.87
		C159.66,332.12,153.98,331.54,148.33,331.2z"/>
	<path fill="#532506" d="M241.4,339.34c0.78-0.57,1.55-1.14,2.33-1.7c4.43,4.09,9.93,6.59,15.3,9.16c3.08,1.28,4.77,4.24,6.27,7.04
		c-5,5.51-11.44,9.51-16.24,15.2c-1.56,1.71-3.19,3.36-4.8,5.02c-0.14-0.79-0.43-2.36-0.57-3.14c2.64-4.35,6.07-8.22,10.39-10.96
		c2.53-1.83,5.2-3.61,7.05-6.18c-0.28-3.45-4.18-4.65-6.87-5.84C249.28,346.24,245.39,342.61,241.4,339.34z"/>
	<path fill="#532506" d="M221.84,341.09c1.79,0.4,3.59,0.8,5.36,1.3c4.65,1.77,8.46,5.07,10.74,9.51c-0.9,2.49-1.76,5.07-3.47,7.14
		c0.12-2.23,0.82-4.75-0.64-6.71C230.73,347.71,225.42,345.28,221.84,341.09z"/>
	<path fill="#532506" d="M136.68,353.51c4.16-0.09,8.32-0.22,12.47-0.62c3.12-0.14,6.24,0.18,9.34,0.6
		c-0.45,0.63-1.35,1.89-1.79,2.52c-5.81,0.28-11.63,0.35-17.43,0.73c0.23,1.89,0.47,3.78,0.73,5.67c5.68,0.79,10.92,3.33,16.6,4.07
		c4.55,0.6,9.1,1.28,13.56,2.38c1.85-3.2,3.33-6.6,4.42-10.12l0.54,0.43c0.69,0.56,1.37,1.13,2.06,1.71
		c0.01,3.93-0.99,8.53-4.73,10.56c-5.11,0.61-10.09-1.33-15.11-1.93c-7.42-1.01-14.72-2.65-22-4.31
		C135.68,361.29,136.21,357.4,136.68,353.51z"/>
	<path fill="#EBAA4E" d="M78.14,84.28c1.67-0.02,1.53,2.73-0.09,2.66C76.37,86.96,76.52,84.21,78.14,84.28z"/>
	<path fill="#EBAA4E" d="M78.4,89.29c1.82-0.67,5.07-0.07,4.46,2.5c-1.54,1.4-4.21,1.55-5.69-0.01
		C76.86,90.59,77.27,89.76,78.4,89.29z"/>
	<path fill="#EBAA4E" d="M84.95,111.38c1.43-0.86,2.87-1.71,4.31-2.56c0.44,2.48,0.68,4.99,0.77,7.51
		C87.3,115.9,85.8,113.83,84.95,111.38z"/>
	<path fill="#EBAA4E" d="M233.17,130.28c1.66-0.02,1.5,2.73-0.1,2.67C231.39,132.96,231.55,130.22,233.17,130.28z"/>
	<path fill="#EBAA4E" d="M78.91,138.54c0.95-1.03,1.96-2.01,2.96-2.99c0.35,1.3,0.7,2.62,1.05,3.93c-1.48-0.08-2.95-0.17-4.42-0.2
		L78.91,138.54z"/>
	<path fill="#EBAA4E" d="M93.18,136.2c1.63-0.52,2.19,0.03,1.66,1.66C93.22,138.38,92.66,137.82,93.18,136.2z"/>
	<path fill="#EBAA4E" d="M267.93,162.55c0.76-0.17,2.28-0.5,3.04-0.66c-0.1,1.92-0.13,3.85-0.26,5.77
		C268.85,166.55,268.27,164.55,267.93,162.55z"/>
	<path fill="#EBAA4E" d="M247.09,183.01c0.18-1.24,0.48-2.44,0.78-3.65c1.8,0.98,3.6,1.96,5.36,3.02l0.06,0.91
		C251.24,183.51,248.89,184.49,247.09,183.01z"/>
	<path fill="#EBAA4E" d="M315.13,198.27C318.46,198.39,313.59,201.25,315.13,198.27z"/>
	<path fill="#EBAA4E" d="M224.14,243.21C227.47,243.42,222.54,246.16,224.14,243.21z"/>
	<path fill="#EBAA4E" d="M144.18,252.14c1.63-0.51,2.18,0.04,1.65,1.67C144.2,254.32,143.65,253.76,144.18,252.14z"/>
	<path fill="#EBAA4E" d="M162.3,267.3c0.94-1.3,3.2,0.26,2.16,1.57C163.52,270.16,161.24,268.61,162.3,267.3z"/>
</g>
</svg>
