<?xml version="1.0" encoding="utf-8"?>
<!-- Generator: Adobe Illustrator 17.0.0, SVG Export Plug-In . SVG Version: 6.00 Build 0)  -->
<!DOCTYPE svg PUBLIC "-//W3C//DTD SVG 1.1//EN" "http://www.w3.org/Graphics/SVG/1.1/DTD/svg11.dtd">
<svg version="1.1" id="Layer_1" xmlns="http://www.w3.org/2000/svg" xmlns:xlink="http://www.w3.org/1999/xlink" x="0px" y="0px"
	 width="401px" height="382px" viewBox="0 0 401 382" enable-background="new 0 0 401 382" xml:space="preserve">
<g>
	<path fill="#D5D1A9" d="M86.13,72.23c0.64,0.02,1.93,0.07,2.57,0.09c0.03,0.63,0.08,1.9,0.11,2.53c-0.51-0.15-1.53-0.45-2.04-0.61
		C86.61,73.74,86.29,72.73,86.13,72.23z"/>
	<path fill="#D5D1A9" d="M92.77,73.07c0.14-0.32,0.43-0.96,0.57-1.27c0.98,0.96,1.97,1.92,2.96,2.88c-0.26,0.62-0.77,1.84-1.03,2.46
		c-0.36-0.06-1.09-0.17-1.45-0.23C93.41,75.65,93.03,74.37,92.77,73.07z"/>
	<path fill="#D5D1A9" d="M82.07,78.73c3.02,1.12,5,3.65,6.07,6.61c-1.06,0.01-2.12,0.03-3.17-0.01
		C83.94,83.16,82.96,80.97,82.07,78.73z"/>
	<path fill="#D5D1A9" d="M108.91,80.05c1.55,0.6,3.1,1.22,4.65,1.83c-1.02,0.38-2.05,0.71-3.08,1.05
		C109.95,81.97,109.43,81.01,108.91,80.05z"/>
	<path fill="#D5D1A9" d="M61.34,110.61c1.99-0.56,3.93-1.29,5.87-2c0.11,0.29,0.33,0.87,0.45,1.15c-0.61,0.66-1.22,1.32-1.82,1.98
		c-1.56,0.42-3.11,0.84-4.66,1.26c2.29,1.15,4.59,2.27,6.89,3.39c-1.38,0.38-2.77,0.75-4.16,1.14l-0.56-0.38
		c-0.52-0.31-1.57-0.95-2.1-1.26c-3.41-1.98-7.09-3.44-10.67-5.09C54.17,110.92,57.77,111.06,61.34,110.61z"/>
	<path fill="#D5D1A9" d="M96.59,118.67c2.08-0.04,4.11,0.44,5.78,1.73c-0.51,0.01-1.54,0.04-2.05,0.05
		C99.04,119.94,97.81,119.31,96.59,118.67z"/>
	<path fill="#D5D1A9" d="M56.56,121.24c2.76-0.73,5.12,1.13,7.35,2.45c-2.38,2.24-4.59,4.65-6.62,7.2
		c-0.44,0.43-1.32,1.28-1.76,1.71c-1.06-0.41-2.12-0.82-3.17-1.23C53.67,127.96,54.63,124.37,56.56,121.24z"/>
	<path fill="#D5D1A9" d="M95.08,122.75c0.59-0.05,1.77-0.16,2.36-0.22l0.36,0.73C97.78,126.31,93.45,125.54,95.08,122.75z"/>
	<path fill="#D5D1A9" d="M109.54,124.21c0.49,0.05,1.45,0.17,1.94,0.23c0.86,4.24,1.9,8.44,3.01,12.62
		c0.98,3.67,1.36,7.47,1.31,11.26c0,1.1,0.01,2.2,0.02,3.3c-0.46,0.19-1.37,0.57-1.82,0.76c-1.15-0.93-2.29-1.88-3.39-2.86
		c-1.17-1.38-2.22-2.84-3.24-4.32c-3.03-3.91-4.33-8.75-5.03-13.57C104.86,129.27,107.14,126.67,109.54,124.21z"/>
	<path fill="#D5D1A9" d="M38.92,132.57c0.09-3.49,2.69-5.78,5.68-7.1c1.11,2.57,2.13,5.17,3.09,7.8
		C44.77,133.04,41.84,132.79,38.92,132.57z"/>
	<path fill="#D5D1A9" d="M44.36,148.9c0.5-0.8,0.99-1.61,1.47-2.42c1.66,1.29,3.33,2.59,5.07,3.8c1.84,1.24,3.75,2.39,5.57,3.66
		c0.72,0.56,1.4,1.15,2.07,1.76c2.39,2.29,4.62,4.75,6.61,7.39C56.96,160.37,52.1,152.51,44.36,148.9z"/>
	<path fill="#D5D1A9" d="M94.17,166.7c2.16-1.1,4.53-1.69,6.92-2.01c0.32,1.1,0.66,2.2,1.02,3.29c-1.68,1.35-3.13,4.3-5.65,3.59
		C94.31,171.03,94.65,168.37,94.17,166.7z"/>
	<path fill="#D5D1A9" d="M244.03,186.94c5.04,1.28,8.87,6.09,8.79,11.33C249.33,194.95,247.12,190.59,244.03,186.94z"/>
	<path fill="#D5D1A9" d="M280,187.89c4.06,2.4,7.52,6.44,7.93,11.29C284.08,196.46,281.55,192.28,280,187.89z"/>
	<path fill="#D5D1A9" d="M213.74,194.51c0.42-0.99,0.87-1.97,1.33-2.94c2.32,2.42,3.99,5.35,5.28,8.43
		C218.08,198.25,215.91,196.38,213.74,194.51z"/>
	<path fill="#D5D1A9" d="M183.18,230.24c0.03-1.88,0.84-3.47,2.34-4.6c0.12,1.73,0.22,3.48,0.31,5.22
		C185.17,230.71,183.84,230.4,183.18,230.24z"/>
	<path fill="#D5D1A9" d="M243.04,240.62c3.22,1,6.63,2.73,7.08,6.48C246.75,246.27,244.69,243.45,243.04,240.62z"/>
	<path fill="#D5D1A9" d="M230.88,263.35c3.79,0.78,6.3,3.98,6.12,7.86C233.61,269.88,231.8,266.69,230.88,263.35z"/>
	<path fill="#D5D1A9" d="M204.95,274.13c1.91,1.35,3.93,2.64,5.53,4.38c0.01,1.29-0.21,2.56-0.37,3.84
		C207.72,280.08,206.16,277.15,204.95,274.13z"/>
	<path fill="#D5D1A9" d="M189.6,282.48c1.78-0.81,3.65-1.41,5.55-1.89c1.83,0.87,3.61,1.84,5.39,2.83
		C196.86,283.59,193.2,283.16,189.6,282.48z"/>
	<g id="_x23_844708ff">
		<path fill="#844708" d="M81.13,36.69c3.75-3.89,6.6-8.5,9.73-12.88c1.51,3.82,1.9,7.92,1.42,11.97c-1.65,0.64-3.22,1.49-4.65,2.54
			c0.44-1.12,0.86-2.24,1.29-3.36c-2.51,0.91-5.02,1.83-7.52,2.75c-0.71-1.13-1.41-2.27-2.12-3.4c-0.85,0.82-1.71,1.63-2.54,2.47
			c1.44-2.74,2.83-5.51,4.43-8.17C81.16,31.3,81.13,34,81.13,36.69z"/>
		<path fill="#844708" d="M96.59,34.1c3.32-2.01,6.29-5.3,10.44-5.31c2.04,0.06,4.73,0.49,5.49,2.71c1.52,4.04,0.44,8.41-0.28,12.5
			c-2.18-2.46-4.75-4.51-7.42-6.4c0.96-1.2,1.93-2.4,2.9-3.6c-1.38-0.27-2.76-0.54-4.14-0.81c-0.42,2.63-0.72,5.31-1.71,7.8
			c-1.35-0.18-2.68-0.5-4.01-0.8c0.59-1.42,1.18-2.84,1.77-4.26C98.61,35.33,97.6,34.72,96.59,34.1z"/>
		<path fill="#844708" d="M88.7,43.08c1.91-3.33,5.76-3.57,9.16-2.89c0.8,2.5,1.57,5,2.34,7.51c-2.86,0.4-5.72,0.77-8.53,1.43
			c-0.14-0.62-0.42-1.86-0.56-2.48c-0.35-0.93-0.68-1.86-1.02-2.79C89.74,43.67,89.05,43.28,88.7,43.08z"/>
		<path fill="#844708" d="M100.47,42.81c2.73-0.87,5.52-1.59,8.34-2.11c0.73,2.91,2.27,5.84,1.81,8.91
			c-3.18,1.25-7.43,0.99-9.79-1.71C100.58,46.22,100.55,44.51,100.47,42.81z"/>
		<path fill="#844708" d="M64.08,46.78c1.67,1.36,3.52,2.6,4.78,4.38c1.14,2.42,0.8,5.21,0.97,7.81c-0.83-1.2-1.66-2.4-2.49-3.61
			c-1.61,1.02-3.23,2.04-4.78,3.15c0.08-0.29,0.23-0.86,0.31-1.15c-1.11-0.81-2.26-1.57-3.25-2.53c-0.08-1.64,0.39-3.23,0.79-4.8
			C61.61,48.92,62.85,47.85,64.08,46.78z"/>
		<path fill="#844708" d="M83.23,63.78c0.98,0.92,1.95,1.83,2.93,2.75c-0.1,1.23-0.19,2.46-0.28,3.69c2.91,1.15,4.52,3.8,6,6.39
			c0.49,0.08,1.46,0.23,1.94,0.3c0.36,0.06,1.09,0.17,1.45,0.23c0.96,0.12,1.93,0.23,2.91,0.34c-0.3,0.48-0.88,1.44-1.18,1.93
			c-3.03-0.94-6.07-1.86-9.11-2.77c0.13,0.95,0.26,1.91,0.39,2.86c-1.09-1.5-2.04-3.1-3-4.68c-0.75,0.06-1.5,0.12-2.24,0.18
			c-0.41-1.34-0.84-2.68-1.18-4.04c-0.16-0.9-0.3-1.81-0.41-2.71c-0.06-0.48-0.18-1.44-0.24-1.92
			C81.89,65.48,82.56,64.63,83.23,63.78 M86.13,72.23c0.16,0.5,0.48,1.51,0.64,2.01c0.51,0.16,1.53,0.46,2.04,0.61
			c-0.03-0.63-0.08-1.9-0.11-2.53C88.06,72.3,86.77,72.25,86.13,72.23z"/>
		<path fill="#844708" d="M18.64,99.06c-0.48-11.74,0.06-23.9,4.49-34.92c2.42,6.92,2.98,15.07,9.14,19.99
			c-0.64,0.02-1.93,0.04-2.58,0.05c2.33,3.57,6.21,5.51,10.38,5.92c1.18,0.22,2.36,0.42,3.55,0.63c1.77,0.95,3.44,2.13,5.34,2.82
			c2.24-0.64,4.2-1.93,6.24-3.01c-0.58-1.79-1.15-3.57-1.7-5.36c2.03,1.2,4.05,2.4,6.08,3.6c0.22-1.54,0.44-3.09,0.67-4.63
			c1.02-0.04,2.04-0.08,3.07-0.11c-0.72,0.52-2.17,1.55-2.9,2.07c1.23,0.79,2.47,1.59,3.7,2.39c4.25,3.19,9.18,5.56,14.62,5.27
			c0.92,1.26,1.84,2.53,2.74,3.81c1.28-0.02,2.57-0.05,3.85-0.08c-1.39-2.22-3-4.3-4.51-6.43c-1.79-2.45-1.81-5.61-2.48-8.46
			l-0.19-0.81c2.11,1.44,4.37,2.74,6.82,3.53c1.05,0.04,2.11,0.02,3.17,0.01c0.81,1.8,1.54,3.63,2.28,5.45
			c0.73-2.29,1.51-4.57,2.26-6.86c-0.15,0.62-0.45,1.88-0.6,2.51c2.35,2.36,4.56,4.85,6.72,7.38c-1.96-0.99-3.95-1.88-5.95-2.79
			c-0.22,1.3-0.46,2.59-0.64,3.89c-0.84-1.3-1.75-2.56-2.65-3.81c-1.3,3.13-1.72,6.52-1.7,9.9c0.79,0.07,2.35,0.2,3.13,0.27
			c0.76-0.84,1.52-1.69,2.28-2.53c1.04,2.01,2.29,3.9,3.52,5.8c0.74-0.42,2.23-1.25,2.97-1.66c-0.79,1.53-1.72,2.99-2.63,4.45
			c-2.47-1.8-4.99-3.52-7.54-5.17c-0.59,1.46-1.17,2.93-1.76,4.39c-2.72-0.15-5.44-0.19-8.17-0.26c1.39-1.22,2.77-2.45,4.15-3.68
			c-1.75-0.03-3.5-0.06-5.24,0.08c-1.52-1.17-3.07-2.3-4.6-3.45c-1.39-1.1-2.81-2.16-4.23-3.2c-1.75,1.39-3.3,3.22-5.47,3.96
			c-2.34,0.34-4.7-0.13-7.05-0.21c-1.72,0.05-3.43,0.25-5.13,0.48c-5.69-1.64-11.73,0.36-17.34-1.52c0.1-0.57,0.28-1.7,0.37-2.26
			c0.05-0.36,0.14-1.08,0.19-1.44c-1.71-3.25-4.22-6.11-7.65-7.58c-0.69,1.15-1.38,2.3-2.07,3.45c-1.09-0.57-2.19-1.14-3.28-1.7
			c-0.24,1.14-0.47,2.29-0.67,3.44c-0.18,1.59-0.25,3.2-0.24,4.8c0.01,0.66,0.03,1.97,0.04,2.63c1.26,0.28,2.51,0.56,3.77,0.84
			c1.28,2.34,2.25,4.84,3.21,7.33c-1.41,1.54-2.84,3.08-4.18,4.69C21.48,108.78,18.69,104.25,18.64,99.06 M57.03,91.94
			c0.08,1.22,0.17,2.44,0.25,3.66c1.68,0.58,3.36,1.17,5.04,1.76c1.08-1.55,2.17-3.08,3.28-4.6C62.77,92.29,59.9,92.04,57.03,91.94
			 M64.31,95.13c-1.16,1.45,1.36,3.14,2.36,1.65C67.83,95.33,65.31,93.64,64.31,95.13z"/>
		<path fill="#844708" d="M41.77,64.99c5.56,1.05,11.03,4.39,16.81,2.9c-3.13,1.73-4.74,4.87-4.48,8.41c0.5,0.02,1.5,0.07,2,0.09
			c0.81-1,1.62-2,2.44-2.99c2.46,2.74,3.51,6.27,3.75,9.89c-4.69-0.06-9.31-0.97-13.69-2.63c-0.7,1.06-1.4,2.11-2.1,3.17
			c1.26,1.45,2.52,2.9,3.78,4.35c-1.93,0.77-3.87,1.55-5.82,2.26c-1.32-0.96-2.66-1.91-4.03-2.79c-2.21-1.48-4.71-2.43-7.23-3.22
			C38.14,79.02,38.5,71.31,41.77,64.99 M42.03,67c0.02,0.75,0.05,2.26,0.07,3.01c2.18-0.19,4.36-0.37,6.53-0.68
			c-0.35,0.37-1.03,1.1-1.37,1.47c2.03,1.03,4.09,2.03,6.17,2.98c-0.76-1.64-0.58-4.86-3.09-4.71C48.25,66.61,44.89,67.18,42.03,67
			 M37.14,79.57c2.03,1.72,4.4,3,7.09,3.25c0.15-0.68,0.46-2.03,0.62-2.7C42.36,79.07,39.63,77.74,37.14,79.57z"/>
		<path fill="#844708" d="M93.34,71.8c1.19-2.46,2.4-4.92,3.91-7.2c0.56,0.34,1.69,1.01,2.25,1.35c-0.63,3.06-1.99,5.88-3.2,8.73
			C95.31,73.72,94.32,72.76,93.34,71.8z"/>
		<path fill="#844708" d="M70.24,76.6c1.36,0.13,2.7,0.34,4.04,0.62c0.41,0.5,0.82,1,1.24,1.5c-0.04,1.37-0.06,2.75-0.03,4.13
			c0.05,1.74,0.18,3.49,0.29,5.24c-0.9,0.93-1.8,1.86-2.68,2.81c-0.65-1.35-1.36-2.66-2.05-3.97c-0.19,0.45-0.57,1.36-0.76,1.82
			c-0.51-0.86-1.02-1.71-1.54-2.56c-1.27-1.1-2.83-1.99-3.67-3.5c-0.4-1.9-0.39-3.85-0.5-5.78C66.47,76.78,68.35,76.63,70.24,76.6z"
			/>
		<path fill="#844708" d="M97.13,107.34c2.1,2.02,4.28,4.13,7.11,5.1c1.1,0.28,2.2,0.56,3.31,0.84c0.94,0.99,1.87,1.98,2.81,2.97
			c-2.85,0.61-5.9,1.17-8.76,0.31c-1.86-0.86-3.29-2.38-4.81-3.7c-2.2,0.73-4.38,1.5-6.57,2.26c-0.13-2.33-0.25-4.66-0.37-6.98
			c1.66,1.28,3.35,2.53,5.06,3.77C95.64,110.38,96.38,108.86,97.13,107.34z"/>
		<path fill="#844708" d="M61.18,113c1.55-0.42,3.1-0.84,4.66-1.26c3.54,3.26,7.36,6.19,11.21,9.06c1.93-1.5,3.76-3.13,5.34-5
			c1.8-0.75,3.62-1.47,5.53-1.92c1.07,3.82,0.98,8.2,4.49,10.84c0.88-0.67,1.76-1.34,2.67-1.97c-1.63,2.79,2.7,3.56,2.72,0.51
			c0.45,0.9,0.89,1.8,1.34,2.71c-1.12,0.71-2.25,1.43-3.37,2.15c-0.68-0.84-1.36-1.68-2.05-2.52c-1.43,1.66-3,3.32-3.59,5.49
			c-0.16,1.38-0.24,2.77-0.43,4.15c-1.43-1.58-2.87-3.13-4.34-4.67c2-1.12,3.99-2.24,5.98-3.37c-2.52-2.65-4.77-5.6-7.65-7.88
			c-1.68,0.29-3.25,0.97-4.85,1.54c2.07,2.45,4.76,4.24,7.71,5.45c-3.16,2.03-6.11,4.37-9.1,6.63c-1.83-3.83,0.65-7.72,1.42-11.49
			c-1.66,1.5-3.66,2.81-4.65,4.88c-0.66,2.13-0.03,4.38,0.18,6.53c-0.65,0.76-1.29,1.51-1.94,2.26c1.2,1.73,2.41,3.46,3.62,5.2
			c-2.26,1.47-4.69,2.68-7.27,3.47c0.27,0.93,0.55,1.86,0.82,2.79c-1.71,0.08-3.42,0.16-5.12,0.23c0.78,1.47,1.56,2.93,2.33,4.4
			c-2.79-0.51-5.57-1.01-8.36-1.51c1.79,1.28,3.59,2.55,5.39,3.82c-1.78,0.72-3.56,1.45-5.33,2.18c-0.67-0.61-1.35-1.2-2.07-1.76
			l0.19-0.98c0.38-1.77,0.81-3.52,1.22-5.28c1.67-0.28,3.36-0.42,5.05-0.54c1.54-1.55,3.05-3.13,4.57-4.71
			c1.67-0.02,3.34-0.04,5.02-0.07c-2.22-2.95-5.39-4.86-9.06-5.32c0.08-0.97,0.17-1.93,0.25-2.89c2.28-0.86,4.76-1.39,6.75-2.86
			c1.45-1.8,2.58-4.39,1.89-6.7c-2.11-3.07-5.5-4.89-8.44-7.06c1.39-0.39,2.78-0.76,4.16-1.14C65.77,115.27,63.47,114.15,61.18,113z
			"/>
		<path fill="#844708" d="M50.77,118.7c3.29-1.93,7.13-1.05,10.44,0.33c1.73,2.11,3.89,4.49,3.51,7.43
			c-1.99,2.17-4.87,3.13-7.43,4.43c2.03-2.55,4.24-4.96,6.62-7.2c-2.23-1.32-4.59-3.18-7.35-2.45c-1.93,3.13-2.89,6.72-4.2,10.13
			c1.05,0.41,2.11,0.82,3.17,1.23c0.68,2.06,1.36,4.13,2.04,6.21c-1.94,1.64-4.06,3.17-5.55,5.26c-1.01,1.89-0.89,4.13-1.12,6.21
			c-1.74-1.21-3.41-2.51-5.07-3.8c0.21-0.39,0.62-1.17,0.83-1.55c0.62-1.78,0.93-3.63,1.27-5.47c-2.9-0.58-5.91-1.24-8.21-3.23
			c2.2,0.58,4.44,1.01,6.67,1.46c1.55-5.17,5.06-9.36,7.22-14.22C54.89,121.19,52.12,119.97,50.77,118.7 M50.66,133.13
			c1.2,1.21,2.54,2.26,4,3.15c0.02-0.85,0.07-2.54,0.1-3.38C53.39,132.96,52.02,133.04,50.66,133.13z"/>
		<path fill="#844708" d="M99.93,134.02c0.8-0.8,1.61-1.59,2.41-2.39c0.7,4.82,2,9.66,5.03,13.57c-0.44,2.48-1.17,4.89-2.1,7.23
			c-1.52-2.2-3.84-4.29-3.86-7.17c-0.03-3.23,0.05-6.52-1-9.62C100.29,135.23,100.05,134.43,99.93,134.02z"/>
		<path fill="#844708" d="M78.84,145.63c1.17,0.75,2.38,1.45,3.58,2.16c0.19,0.35,0.57,1.05,0.76,1.4c-1.5,0.15-3,0.3-4.5,0.46
			c-0.85,4.71,1.44,8.94,4.16,12.59c-1.89,0.08-3.78,0.14-5.65,0.37c-1.16,0.34-2.32,0.7-3.47,1.08c0.71-2.47,1.83-4.79,2.94-7.1
			C77.17,152.89,78.21,149.3,78.84,145.63z"/>
		<path fill="#844708" d="M126.9,148.3c2.58-0.83,5.17-1.66,7.76-2.49c0.16,0.49,0.5,1.47,0.66,1.96c-1.18-0.17-2.36-0.33-3.53-0.49
			c-0.42,2.01-0.84,4.01-1.27,6.02C129.24,151.68,127.97,150.06,126.9,148.3z"/>
		<path fill="#844708" d="M38.28,164.43c2.3-0.18,4.59-0.37,6.89-0.58c0.66,1.12,1.31,2.23,1.97,3.35
			c-4.05,2.23-8.03,4.66-11.3,7.98c-0.63-1.92-1.28-3.83-2.12-5.66C35.23,167.8,36.69,166.06,38.28,164.43z"/>
		<path fill="#844708" d="M145.12,174.26c2.11,1.39,4.39,2.51,6.64,3.66c-1.26,0.11-2.51,0.23-3.76,0.34
			c4.28,3.54,6.64,8.61,7.8,13.94c-1.89,0.43-3.77,0.85-5.65,1.29c0.48,1.57,0.95,3.14,1.43,4.72c1.67,0.27,3.34,0.55,5.01,0.83
			c-1.06,2.67-2.72,5.05-4.99,6.83c-2.74-2.1-6.02-3.26-9.48-3.33c-0.67-1.37-1.32-2.75-1.97-4.13c-0.75,0.01-1.5,0.03-2.24,0.04
			c-0.45,2.23-0.9,4.47-1.34,6.71c-2.68-1.41-5.33-3.19-8.42-3.47c-2.66-0.22-5.33,0.07-7.99,0.23c-0.25-0.83-0.51-1.67-0.77-2.5
			c2.62-2.68,4.89-5.65,7.32-8.49c-0.08,2.4,0.11,4.8,0.31,7.2c3.53-1.08,6.95-2.97,10.7-3.05c3.86,2.51,7.67,5.33,12.45,5.66
			c-0.26-1.33-0.52-2.65-0.78-3.97c-1.2-0.66-2.4-1.32-3.59-1.97c1.4-1.45,2.81-2.89,4.21-4.33c-1.87-0.24-3.75-0.46-5.62-0.79
			c-0.06-1.09-0.13-2.17-0.2-3.25c-1.66-1.41-3.32-2.81-4.96-4.25c1.54,0.39,3.08,0.79,4.61,1.19
			C143.63,180.27,143.95,177.15,145.12,174.26z"/>
		<path fill="#844708" d="M111.14,205.21c1.82-1.57,3.31-4.17,5.92-4.39c2.11-0.09,2.12,2.58,2.92,3.97
			c-2.11,0.9-4.22,1.82-6.31,2.76C112.8,206.8,111.96,206.02,111.14,205.21z"/>
		<path fill="#844708" d="M193.55,208.14c2.94-1.15,5.38-3.12,7.77-5.12c1.99,0.02,3.55,1.78,4.06,3.59
			c0.91,3.06,1.2,6.26,1.66,9.41c0.66,0,2,0.01,2.66,0.01c0.21-1.31,0.42-2.62,0.63-3.93c0.7,0,2.1,0,2.8,0.01
			c0.95,3.13-0.67,6.02-2.05,8.71c-5.28-2.14-8.23-7-10.56-11.92c-1.22,0.84-2.45,1.69-3.68,2.53
			C195.75,210.33,194.65,209.23,193.55,208.14z"/>
		<path fill="#844708" d="M278.94,203.84c1.37-1.51,3.81-1.53,5.5-0.55c2.82,3.16,4.36,7.2,6.04,11.03
			c-3.26,0.29-6.24-0.91-8.73-2.94c-2.06,0.83-4.1,1.7-6.12,2.6c-0.03,2.29,1.23,5.14-0.6,7c-3.01,3.15-7.42,4.21-11.39,5.63
			c-1.34,1.73-2.66,3.46-3.98,5.2c-1.21-2.2-2.4-4.39-3.6-6.59c-3.76,0.5-7.67,1.98-11.43,1.11c-3.63-2.7-6.51-6.25-9.75-9.38
			c3.16-2.1,6.89-1.13,10.32-0.42c0.56,1.27,1.12,2.54,1.7,3.82c3.94-1.67,7.67-3.78,11.23-6.14c3.33-2.39,7.29,0.13,10.57,1.38
			c1.74-1.26,3.52-2.48,5.17-3.85C276.46,209.77,277.05,206.34,278.94,203.84z"/>
		<path fill="#844708" d="M367.9,228.83c3.13-0.25,6.24-0.65,9.37-0.95c-0.11,2.88-0.36,5.81-1.65,8.44
			c-0.49-1.7-0.94-3.41-1.36-5.12C372.16,230.35,370.05,229.51,367.9,228.83z"/>
		<path fill="#844708" d="M220.61,284.78c1.32,1.18,2.7,2.31,3.83,3.7c-0.38,3.52-2.21,6.9-1.46,10.51
			c0.65,3.82,1.26,7.67,1.04,11.56c-2.44,1.45-4.53,3.39-6.24,5.65c-1.36-5.44-3.02-10.79-4.6-16.17c-0.52-2.22-1.04-4.45-1.69-6.64
			c0.68,1.21,1.41,2.4,2.14,3.59c0.56-0.64,1.11-1.27,1.65-1.91C217.9,292.14,219.27,288.4,220.61,284.78z"/>
	</g>
	<g id="_x23_311405ff">
		<path fill="#311405" d="M103.58,33.19c1.38,0.27,2.76,0.54,4.14,0.81c-0.97,1.2-1.94,2.4-2.9,3.6c2.67,1.89,5.24,3.94,7.42,6.4
			c1.07,1.19,2.14,2.38,3.23,3.55c-1.2,2.56-3.01,4.83-5.47,6.28c-2.67-0.85-5.46-1.47-8.29-1.19c-4.17,0.24-9.01,0.95-12.22-2.37
			c0.54-0.28,1.63-0.85,2.18-1.14c2.81-0.66,5.67-1.03,8.53-1.43c-0.77-2.51-1.54-5.01-2.34-7.51c1.33,0.3,2.66,0.62,4.01,0.8
			C102.86,38.5,103.16,35.82,103.58,33.19 M100.47,42.81c0.08,1.7,0.11,3.41,0.36,5.09c2.36,2.7,6.61,2.96,9.79,1.71
			c0.46-3.07-1.08-6-1.81-8.91C105.99,41.22,103.2,41.94,100.47,42.81z"/>
		<path fill="#311405" d="M83.23,63.78c0.15-2.05,0.31-4.1,0.47-6.14c5.12,0.29,10.24,0.63,15.37,0.61
			c-0.04,0.31-0.11,0.94-0.15,1.26c-0.68,2.37,0.45,4.5,2.12,6.14c0.94-1.12,1.8-2.31,2.65-3.49c0.9,1.21,1.71,2.49,2.54,3.75
			c1.2,0.51,2.41,1.02,3.63,1.52c0.4,3.2,1.14,6.34,2.02,9.44c1.85-0.07,3.7-0.12,5.56-0.16c-1.07,1.87-2.14,3.83-3.88,5.17
			c-1.55-0.61-3.1-1.23-4.65-1.83c-1.02,1.35-2.05,2.7-3.15,4c-0.48-0.06-1.45-0.18-1.93-0.24c-0.28-3.78,1.61-7.07,3.14-10.37
			c1.16-2.53-1.84-4.29-3.3-5.87c-1.81,3.31-3.56,6.66-5.49,9.91c-0.98-0.11-1.95-0.22-2.91-0.34c0.26-0.62,0.77-1.84,1.03-2.46
			c1.21-2.85,2.57-5.67,3.2-8.73c-0.56-0.34-1.69-1.01-2.25-1.35c-1.51,2.28-2.72,4.74-3.91,7.2c-0.14,0.31-0.43,0.95-0.57,1.27
			c0.26,1.3,0.64,2.58,1.05,3.84c-0.48-0.07-1.45-0.22-1.94-0.3c-1.48-2.59-3.09-5.24-6-6.39c0.09-1.23,0.18-2.46,0.28-3.69
			C85.18,65.61,84.21,64.7,83.23,63.78 M89.18,62.36c0.14,0.98,0.28,1.96,0.42,2.95c0.53,0.12,1.59,0.36,2.12,0.49
			c-0.02-1.16-0.04-2.32-0.05-3.48C91.05,62.33,89.8,62.35,89.18,62.36z"/>
		<path fill="#311405" d="M60.55,66.47c0.69,0.07,1.39,0.15,2.08,0.23c0.58,0.49,1.74,1.46,2.32,1.95c1.92,1.21,4.01,2.13,5.98,3.25
			c0.21,0.2,0.63,0.6,0.84,0.81c-1.37,0.31-2.73,0.62-4.09,0.94c0.85,0.98,1.71,1.96,2.56,2.95c-1.89,0.03-3.77,0.18-5.66,0.31
			c0.11,1.93,0.1,3.88,0.5,5.78c0.84,1.51,2.4,2.4,3.67,3.5c0.52,0.85,1.03,1.7,1.54,2.56c0.62,1.07,1.24,2.15,1.86,3.22
			c0.23-0.27,0.71-0.8,0.95-1.07c0.88-0.95,1.78-1.88,2.68-2.81c-0.11-1.75-0.24-3.5-0.29-5.24c0.71-0.06,2.13-0.18,2.85-0.24
			c0.67,2.85,0.69,6.01,2.48,8.46c1.51,2.13,3.12,4.21,4.51,6.43c-1.28,0.03-2.57,0.06-3.85,0.08c-0.9-1.28-1.82-2.55-2.74-3.81
			c-5.44,0.29-10.37-2.08-14.62-5.27c-0.26-1.49-0.53-2.97-0.8-4.46c-1.03,0.03-2.05,0.07-3.07,0.11c-0.23,1.54-0.45,3.09-0.67,4.63
			c-2.03-1.2-4.05-2.4-6.08-3.6c0.55,1.79,1.12,3.57,1.7,5.36c-2.04,1.08-4,2.37-6.24,3.01c-1.9-0.69-3.57-1.87-5.34-2.82l0.84-0.29
			c1.95-0.71,3.89-1.49,5.82-2.26c-1.26-1.45-2.52-2.9-3.78-4.35c0.7-1.06,1.4-2.11,2.1-3.17c4.38,1.66,9,2.57,13.69,2.63
			c-0.24-3.62-1.29-7.15-3.75-9.89c-0.82,0.99-1.63,1.99-2.44,2.99c-0.5-0.02-1.5-0.07-2-0.09c-0.26-3.54,1.35-6.68,4.48-8.41
			C59.07,67.54,60.06,66.82,60.55,66.47z"/>
		<path fill="#311405" d="M42.03,67c2.86,0.18,6.22-0.39,8.31,2.07c-0.43,0.06-1.28,0.19-1.71,0.26c-2.17,0.31-4.35,0.49-6.53,0.68
			C42.08,69.26,42.05,67.75,42.03,67z"/>
		<path fill="#311405" d="M72.85,74.63c3.39,0.26,6.79,0.63,10.19,0.37c0.74-0.06,1.49-0.12,2.24-0.18c0.96,1.58,1.91,3.18,3,4.68
			c1.51,1.24,3.13,2.35,4.64,3.58l-0.24,0.85c-0.75,2.29-1.53,4.57-2.26,6.86c-0.74-1.82-1.47-3.65-2.28-5.45
			c-1.07-2.96-3.05-5.49-6.07-6.61c0.89,2.24,1.87,4.43,2.9,6.6c-2.45-0.79-4.71-2.09-6.82-3.53c-0.88-1.03-1.75-2.05-2.63-3.08
			c-0.42-0.5-0.83-1-1.24-1.5C73.92,76.57,73.21,75.28,72.85,74.63z"/>
		<path fill="#311405" d="M37.14,79.57c2.49-1.83,5.22-0.5,7.71,0.55c-0.16,0.67-0.47,2.02-0.62,2.7
			C41.54,82.57,39.17,81.29,37.14,79.57z"/>
		<path fill="#311405" d="M29.69,84.18c0.65-0.01,1.94-0.03,2.58-0.05l0.93,0.3c2.52,0.79,5.02,1.74,7.23,3.22
			c-0.09,0.61-0.27,1.84-0.36,2.45C35.9,89.69,32.02,87.75,29.69,84.18z"/>
		<path fill="#311405" d="M27.66,87.48c3.43,1.47,5.94,4.33,7.65,7.58c-0.05,0.36-0.14,1.08-0.19,1.44
			c-1.21-0.35-2.43-0.69-3.65-1.02c1.07,1.12,2.15,2.22,3.28,3.28c5.61,1.88,11.65-0.12,17.34,1.52c-1.25,0.99-2.52,1.97-3.79,2.93
			c-2.4-0.72-4.82-1.43-7.32-1.67c-0.28,0.27-0.84,0.82-1.12,1.09c-2.78,3.56-7.28,4.59-11.44,5.64c-0.96-2.49-1.93-4.99-3.21-7.33
			c-1.22-1.22-2.52-2.35-3.81-3.47c-0.01-1.6,0.06-3.21,0.24-4.8c1.3,0.36,2.6,0.72,3.91,1.08c0.01-0.7,0.03-2.11,0.04-2.82
			C26.28,89.78,26.97,88.63,27.66,87.48z"/>
		<path fill="#311405" d="M100.28,90.43c2.96,0.46,5.9,1.2,8.62,2.48c0.04,0.39,0.14,1.18,0.18,1.57c-1.53,0.49-3.07,0.96-4.58,1.49
			c-0.34,0.14-1.01,0.4-1.35,0.53c-0.76,4.53-1.64,9.78,1.84,13.47c-0.19,0.62-0.57,1.85-0.75,2.47c-2.83-0.97-5.01-3.08-7.11-5.1
			c0.91-1.46,1.84-2.92,2.63-4.45c0.03-2.79-0.18-5.58-0.35-8.36C99.68,93.16,99.97,91.79,100.28,90.43z"/>
		<path fill="#311405" d="M57.03,91.94c2.87,0.1,5.74,0.35,8.57,0.82c-1.11,1.52-2.2,3.05-3.28,4.6c-1.68-0.59-3.36-1.18-5.04-1.76
			C57.2,94.38,57.11,93.16,57.03,91.94z"/>
		<path fill="#311405" d="M87.86,101.01c-0.02-3.38,0.4-6.77,1.7-9.9c0.9,1.25,1.81,2.51,2.65,3.81c0.33,1.28,0.66,2.56,1.06,3.83
			c-0.76,0.84-1.52,1.69-2.28,2.53C90.21,101.21,88.65,101.08,87.86,101.01z"/>
		<path fill="#311405" d="M64.27,100.01c2.17-0.74,3.72-2.57,5.47-3.96c1.42,1.04,2.84,2.1,4.23,3.2c0.74,1.34,1.44,2.7,2.15,4.06
			c0.61-0.15,1.84-0.45,2.45-0.61c1.74-0.14,3.49-0.11,5.24-0.08c-1.38,1.23-2.76,2.46-4.15,3.68c2.73,0.07,5.45,0.11,8.17,0.26
			c0.51,0.39,1.52,1.18,2.02,1.58c0.12,2.32,0.24,4.65,0.37,6.98c2.19-0.76,4.37-1.53,6.57-2.26c1.52,1.32,2.95,2.84,4.81,3.7
			c2.86,0.86,5.91,0.3,8.76-0.31c2.03-1.02,3.88-2.36,5.7-3.71c-0.06,1.36-0.11,2.73-0.16,4.1l-0.03,0.83
			c-0.22,1.33-0.46,2.65-0.72,3.97c-0.39,0.12-1.17,0.35-1.56,0.47c-3.77-0.3-7.45-1.22-11.22-1.51c-1.67-1.29-3.7-1.77-5.78-1.73
			c1.22,0.64,2.45,1.27,3.73,1.78c0.05,0.69,0.15,2.07,0.2,2.76c-1.03-0.23-2.06-0.45-3.08-0.68c-0.59,0.06-1.77,0.17-2.36,0.22
			c-0.91,0.63-1.79,1.3-2.67,1.97c-3.51-2.64-3.42-7.02-4.49-10.84c-1.91,0.45-3.73,1.17-5.53,1.92c-1.79-0.69-3.58-1.36-5.36-2.05
			c1.25-0.76,2.49-1.51,3.74-2.27c0.02-0.68,0.08-2.03,0.1-2.71c-2.72,0.38-5.75,1.46-8.33-0.04c-2.57-1.46-3.36-4.52-4.52-7.04
			c-4.1,2.06-8.71,2.36-13.22,2.11c0.81-1.34,1.61-2.67,2.42-4C59.57,99.88,61.93,100.35,64.27,100.01z"/>
		<path fill="#311405" d="M50.77,118.7c1.35,1.27,4.12,2.49,2.84,4.77c-2.16,4.86-5.67,9.05-7.22,14.22
			c-2.23-0.45-4.47-0.88-6.67-1.46c-0.3-0.22-0.9-0.68-1.21-0.91c0.13-0.92,0.26-1.84,0.41-2.75c2.92,0.22,5.85,0.47,8.77,0.7
			c-0.96-2.63-1.98-5.23-3.09-7.8c-0.3-0.72-0.62-1.43-0.93-2.14c1.84-1.27,3.66-2.57,5.52-3.8
			C49.59,119.32,50.38,118.91,50.77,118.7z"/>
		<path fill="#311405" d="M78.84,120.86c1.6-0.57,3.17-1.25,4.85-1.54c2.88,2.28,5.13,5.23,7.65,7.88
			c-1.99,1.13-3.98,2.25-5.98,3.37c1.47,1.54,2.91,3.09,4.34,4.67c-1.8,1.35-3.71,2.55-5.7,3.6c-1.75-1.36-3.5-2.71-5.26-4.05
			c0.01,3.21,0.04,6.42,0.08,9.62c0.01,0.31,0.01,0.91,0.02,1.22c-0.63,3.67-1.67,7.26-2.18,10.96c-1.11,2.31-2.23,4.63-2.94,7.1
			c-0.68,2.66-0.74,5.65-2.47,7.92c-2.15,2.42-4.81,4.32-6.93,6.78c-0.66-1.84-1.31-3.69-1.96-5.53c-3.81-1-8.58-1.51-10.19-5.73
			c1.9,0.71,3.8,1.62,5.85,1.81c2.11-0.13,4.08-1.03,6.08-1.62c-5.3-0.64-10.44-2.17-15.16-4.68c-3.56-2.09-7.54-0.22-10.66,1.79
			c-1.59,1.63-3.05,3.37-4.56,5.09c-0.65-1.1-1.36-2.16-2.07-3.22c0.22-1.6,0.45-3.2,0.68-4.8c2.16-0.37,4.32-0.71,6.46-1.18
			c2.69-1.47,4.52-4.09,4.77-7.17c-1.39-1.09-2.98-1.87-4.59-2.58c-0.26-0.85-0.51-1.71-0.77-2.56c2.41-1.98,5.25-3.43,8.46-3.08
			c-0.21,0.38-0.62,1.16-0.83,1.55c-0.48,0.81-0.97,1.62-1.47,2.42c7.74,3.61,12.6,11.47,20.79,14.19c-1.99-2.64-4.22-5.1-6.61-7.39
			c1.77-0.73,3.55-1.46,5.33-2.18c-1.8-1.27-3.6-2.54-5.39-3.82c2.79,0.5,5.57,1,8.36,1.51c-0.77-1.47-1.55-2.93-2.33-4.4
			c1.7-0.07,3.41-0.15,5.12-0.23c-0.27-0.93-0.55-1.86-0.82-2.79c2.58-0.79,5.01-2,7.27-3.47c-1.21-1.74-2.42-3.47-3.62-5.2
			c0.65-0.75,1.29-1.5,1.94-2.26c-0.21-2.15-0.84-4.4-0.18-6.53c0.99-2.07,2.99-3.38,4.65-4.88c-0.77,3.77-3.25,7.66-1.42,11.49
			c2.99-2.26,5.94-4.6,9.1-6.63C83.6,125.1,80.91,123.31,78.84,120.86z"/>
		<path fill="#311405" d="M120.17,138.25c0.6,0.01,1.79,0.03,2.39,0.03c0.73,0.85,1.46,1.7,2.17,2.56
			c-1.36,0.66-2.72,1.33-4.07,1.99C120.49,141.3,120.32,139.78,120.17,138.25z"/>
		<path fill="#311405" d="M92.95,152.92c2.16,0.75,4.55,1.17,6.39,2.62c1.05,2.95,0.94,6.14,1.75,9.15
			c-2.39,0.32-4.76,0.91-6.92,2.01c-0.91,0.58-1.78,1.21-2.66,1.83c-0.17-0.46-0.49-1.39-0.65-1.86c2.07-1.73,4.13-3.46,6.17-5.22
			C95.57,158.65,94.18,155.82,92.95,152.92z"/>
		<path fill="#311405" d="M299.56,189.75c0.75-0.74,1.51-1.48,2.27-2.21c3.62,2.16,6.9,4.82,10.29,7.32
			c0.63-2.34,1.24-4.69,1.84-7.04c4.15,1.2,7.64,3.78,10.41,7.05c-0.99,1.34-1.97,2.68-2.95,4.02c0.59,0.99,1.19,1.99,1.76,3.01
			c0.02,0.5,0.05,1.51,0.07,2.02c-1.03,0.63-2.05,1.26-3.07,1.9c-1.02-4-2.12-7.99-3.36-11.92c-3.76,3.66-4.91,8.79-5.02,13.87
			c-0.48,0.44-1.42,1.34-1.89,1.78c-4.97-3.93-9.19-8.86-11.25-14.93c0.6-0.03,1.82-0.09,2.43-0.12c2.16,2.73,4.42,5.4,6.96,7.79
			c0.36-4.58-2.78-7.85-6.11-10.45C301.14,191.14,300.35,190.45,299.56,189.75z"/>
		<path fill="#311405" d="M339.27,231.7c5.03-4.6,12.21-5.18,17.71-9.05c2.07,4.23,6.5,5.83,10.92,6.18
			c2.15,0.68,4.26,1.52,6.36,2.37c0.42,1.71,0.87,3.42,1.36,5.12c-4.69,4.61-11.26,6.06-17.48,7.3c2.57,5.45,4.69,11.28,4.06,17.42
			c-0.79,8.54,4.38,16.43,2.4,25c-1.8-0.91-3.59-1.84-5.38-2.77c-0.61,3.86-1.29,7.7-2.23,11.49c-0.53-0.05-1.6-0.15-2.13-0.2
			c-0.69-1.4-1.38-2.8-2.07-4.2c-1.01,4.36-2.21,8.67-3.99,12.78c-3,7.66-4.01,15.92-4.69,24.06c-2.81,1.8-5.88,3.52-7.69,6.43
			c-2.02,3.13-2.34,6.95-3.56,10.4c-1.91,6.11-7,11.04-12.99,13.14c-3.58,0.12-6.26-2.73-8.94-4.72c4.14-6.7,9.74-12.45,12.98-19.7
			c1.76-3.87,4.16-7.6,4.71-11.89c0.56-6.58-1.36-13.03-3.55-19.15c-3.16,3.72-5.9,7.79-8.19,12.1c-1.77,3.32-1.94,7.19-3.3,10.65
			c-2,2.99-5.35,4.88-7.03,8.12c-1.62,3.1-2.51,6.59-4.69,9.39c-3.76,4.82-7.17,9.94-11.46,14.34c-2.12-0.62-4.22-1.3-6.26-2.15
			c-1.81-1.44-3.76-2.95-4.69-5.14c1.63-5.27,4.91-9.96,9.02-13.6c3.79-3.26,5.72-8.22,10.07-10.89c3.28-1.88,4.33-5.77,4.2-9.32
			c-0.28-8.23-3.37-16.01-4.69-24.08c1.28-1.64,2.54-3.29,3.77-4.96c-5.99,1.42-10.18,6.23-15.13,9.53
			c-2.13-3.41-3.8-7.12-6.36-10.24c-4.64-0.69-7.93,4.04-12.33,4.66c-2.44-0.51-4.58-1.88-6.79-2.96c-1.46,2.1-2.92,4.2-4.36,6.32
			c-8.6,0.36-16.74-2.55-24.87-4.89c-0.11,1.82-0.21,3.64-0.26,5.46c-0.94-2.41-2.01-4.76-3.06-7.12c1.98-1.07,3.96-2.14,5.94-3.22
			c-2.4-2.35-4.91-4.59-7.51-6.7c2.06-1.01,4.11-2.02,6.17-3.04c-1.61-1.46-3.21-2.92-4.78-4.42c1.48-3.04,0.62-6.3,0.11-9.44
			c3.32-0.7,6.32,1.21,9.21,2.54c0.46-4.96,3.17-9.18,4.84-13.74c-0.26-3.14-2.34-5.75-3.78-8.45c1.68-0.99,3.34-2.07,5.19-2.72
			c3.77,0.28,6.92,3.39,8.27,6.79c1.72,4.78-0.21,9.76-1.14,14.48c2.63-0.62,7.15-0.11,7.79-3.56c0.69-7.51-0.3-15.06-1.11-22.53
			c3.02,1.5,6,3.06,8.96,4.69c0.78-2.93,1.57-5.86,2.29-8.81c0.32-0.15,0.96-0.43,1.28-0.58c1.06,0.49,2.12,0.98,3.18,1.47
			c0.13-0.74,0.4-2.23,0.54-2.98c0.42-0.14,1.27-0.43,1.69-0.58c0.79,2.92,1.57,5.84,2.36,8.77c3-2.01,5.99-5.1,9.88-4.78
			c3.99,0.61,7.6,2.55,11.24,4.18c0.56-2.22,0.67-5.62,3.73-5.66c4.39-1.02,6.33,3.76,8.5,6.59c1.43-0.75,2.86-1.5,4.3-2.24
			c1.92,2.42,3.58,5.21,6.2,6.94c3.44,0.52,6.95-0.24,10.38,0.48c3.07,0.29,6.81,1.94,9.41-0.57c1.76-1.23,2.03-3.43,1.85-5.41
			c-3.26,0.16-6.06,1.97-8.82,3.5c-0.9-0.66-1.79-1.31-2.68-1.96c0.79-1.91,1.59-3.81,2.39-5.71
			C336.11,230.75,337.69,231.23,339.27,231.7 M304.35,231.79c0.31,1.26,0.64,2.52,0.97,3.79c0.74-0.01,2.23-0.04,2.97-0.05
			C307.01,234.24,305.69,233,304.35,231.79 M288.8,234.7c-0.46,2.68,0.43,5.24,1.55,7.64c-1.67,1.34-3.36,2.66-5.04,3.98
			c0.17,0.49,0.51,1.46,0.68,1.95c1.23-0.8,2.46-1.6,3.69-2.39c2.97,7.27,4.6,15.02,6.15,22.69c1.33,0.02,2.65,0.04,3.98,0.06
			c0.1-5.84-4.1-10.49-4.51-16.2c-0.33-3.88-2.4-7.68-0.94-11.57C292.75,238.6,290.9,236.52,288.8,234.7 M260.04,237.31
			c-0.04,2.88,1.03,5.47,3.69,6.83c-0.29-2.25-0.65-4.5-1.02-6.74C262.04,237.38,260.71,237.33,260.04,237.31 M283.3,236.79
			c0.45,1.45,0.93,2.9,1.41,4.35c0.64,0.14,1.91,0.41,2.55,0.54C286.43,239.69,285.04,238.05,283.3,236.79 M243.04,240.62
			c1.65,2.83,3.71,5.65,7.08,6.48C249.67,243.35,246.26,241.62,243.04,240.62 M306.17,244.72c0.52,3.2,1.61,6.26,2.9,9.23
			c0.75-0.09,2.25-0.27,3-0.36C310.91,250.17,309.55,246.54,306.17,244.72 M262.32,250.43c0.1,0.9,0.21,1.81,0.32,2.72
			c0.51,0.18,1.53,0.53,2.05,0.71c-0.03-1.61-0.04-3.22-0.06-4.82C263.86,249.5,263.09,249.96,262.32,250.43 M287.41,250.22
			c0.01,1.2,0.03,2.41,0.04,3.62c0.73-0.39,1.46-0.77,2.19-1.15c-0.09-0.46-0.27-1.39-0.36-1.86
			C288.81,250.68,287.88,250.37,287.41,250.22 M298.28,251.45c0.41,1.01,0.93,1.96,1.44,2.93c0.41-1.49,0.8-2.99,1.17-4.5
			C300,250.37,299.13,250.89,298.28,251.45 M245.34,260.28c0.65,0.11,1.95,0.33,2.6,0.44c0.44-2.99,0.67-6.02,0.63-9.04
			C245.87,253.76,245.28,257.06,245.34,260.28 M311.21,257.04c0,1.27,0.01,2.55,0.03,3.83c0.51-0.17,1.55-0.51,2.06-0.68
			c0.13-0.49,0.37-1.46,0.5-1.94C312.93,257.84,312.07,257.44,311.21,257.04 M278.63,259.6c0.33,1.82,0.16,4.27,2.51,4.65
			C280.89,262.38,281.04,259.96,278.63,259.6 M264.99,261.89c0.42,2.44,1.62,4.56,4.08,5.4
			C268.98,264.63,267.47,262.73,264.99,261.89 M230.88,263.35c0.92,3.34,2.73,6.53,6.12,7.86
			C237.18,267.33,234.67,264.13,230.88,263.35 M254.32,263.81c0.31,1.97,0.67,3.93,1.02,5.89c0.61-0.12,1.82-0.37,2.43-0.49
			C257.78,266.77,256.38,264.96,254.32,263.81 M244.26,265.14c-0.37,2.19-0.72,4.38-1.07,6.58c0.6-0.03,1.8-0.08,2.4-0.1
			c0.4-1.85,0.8-3.69,1.21-5.53C245.95,265.77,245.11,265.45,244.26,265.14 M313.9,267.73c-0.93,3.23,0.44,6.28,2.79,8.5
			C316.93,273.08,316.09,270.04,313.9,267.73 M237.22,273.19c-1.21,1.68-2.44,3.36-3.69,5.02c0.95,1.22,1.14,3.8,3.18,3.46
			c0.92-2.46,1.47-5.04,2.07-7.59C238.39,273.86,237.61,273.41,237.22,273.19 M269.87,274.22c0.76,2.12,1.72,4.17,2.94,6.07
			c0.39-1.63,0.75-3.27,1.09-4.9C272.56,274.99,271.21,274.6,269.87,274.22 M254.78,275.38c0.63,1.69,1.31,3.36,2,5.04
			c0.48-1.71,0.95-3.42,1.42-5.14C257.34,275.31,255.63,275.35,254.78,275.38 M241.81,286.94c2.16-2.27,3.88-6.12,1.15-8.68
			C240.82,280.71,241.15,284.01,241.81,286.94 M320.47,279.11c0.9,2.21,3.15,2.58,5.24,3.02c-0.07-0.68-0.21-2.02-0.28-2.7
			C323.78,279.3,322.12,279.19,320.47,279.11 M257.21,283.26c-1.48,1.02,0.27,3.49,1.7,2.34
			C260.39,284.57,258.64,282.1,257.21,283.26 M306.09,283.15c0.16,0.57,0.48,1.69,0.64,2.25c1.32,0.18,2.64,0.36,3.96,0.55
			c0.04-0.71,0.11-2.11,0.14-2.82C309.24,283.14,307.66,283.14,306.09,283.15 M333.47,297.8c0.85-0.34,1.7-0.67,2.55-1
			c-1.19-2.06-2.44-4.08-3.79-6.03C331.29,293.22,332.54,295.57,333.47,297.8 M322.74,342.11c0.93,2.35,3.25,2.76,5.51,2.71
			C327.13,342.71,325,342.08,322.74,342.11z"/>
		<path fill="#311405" d="M206.71,244.23c1.55,1.94,3.96,3.96,3.37,6.74c-0.81,2.38-2.66,4.2-4.18,6.15
			c0.91,3.26,1.93,6.95-0.9,9.62c-0.17-1.94-0.39-3.87-0.6-5.8c-1.54,0.76-3.08,1.51-4.62,2.28c1.55,1.87,3.18,3.69,5.01,5.32
			c3.46,3.28,7.97,5.06,12.49,6.36c-1.88,2.43-3.7,4.91-5.44,7.45c1.9,1.01,3.79,2.02,5.69,3.04c-1.22,1.68-2.45,3.36-3.69,5.03
			c0.48,1.55,0.96,3.09,1.44,4.65c-0.54,0.64-1.09,1.27-1.65,1.91c-0.73-1.19-1.46-2.38-2.14-3.59c-0.26-0.51-0.78-1.52-1.04-2.03
			c-2.61,2.06-5.39,3.97-7.66,6.44c-2.72,2.99-3.51,7.11-4.48,10.91c-1.36-1.17-2.72-2.33-4.06-3.51c1.35-3.67,0.51-7.43-1.51-10.67
			c3.38-0.67,6.77-1.28,10.17-1.89c-2.07-2.01-4.03-4.33-6.79-5.37c-2.54-0.95-5.23-1.4-7.86-2.01c0.34-0.7,1-2.08,1.34-2.78
			c3.6,0.68,7.26,1.11,10.94,0.94c-1.78-0.99-3.56-1.96-5.39-2.83c0.55-0.99,1.08-2,1.76-2.9c1.95-0.62,4.02-0.45,6.04-0.53
			c-2.38-5.7-6.87-11.16-6.09-17.67c0.16-3.54,3.91-4.77,6.34-6.54c1.46-0.96,2.85-2.01,4.25-3.06c-0.18-1.16-0.35-2.31-0.5-3.46
			C206.89,245.88,206.77,244.78,206.71,244.23 M204.95,274.13c1.21,3.02,2.77,5.95,5.16,8.22c0.16-1.28,0.38-2.55,0.37-3.84
			C208.88,276.77,206.86,275.48,204.95,274.13z"/>
		<path fill="#311405" d="M213.18,300.03c1.58,5.38,3.24,10.73,4.6,16.17c1.21,1.95,2.64,3.74,4.11,5.52
			c3.23-3.69,4.99-8.31,5.82-13.09c1.16-0.23,2.32-0.46,3.49-0.69c-0.73,6.21,0.73,13.41-3.65,18.57c-3.2,4.05-6.31,8.25-8.17,13.12
			c-1.54,3.57-2.65,7.3-3.77,11.02c-1.85-0.44-3.7-0.88-5.55-1.31c-1.13,1.62-2.26,3.25-3.47,4.82c-4.53,3.51-10.37,1.75-15.49,1.01
			c0.65-2.52,1.38-5.04,2.61-7.34c4.22-3.47,9.21-6.05,12.76-10.31c4.44-4.8,5.88-11.38,7.2-17.57
			C215.22,313.38,213.98,306.61,213.18,300.03z"/>
		<path fill="#311405" d="M190.26,317.96c1.51-0.32,3.05-0.55,4.57-0.86c0.14,4.28,0.22,8.63-0.77,12.84
			c-2.45,5.73-3.1,12.01-5.35,17.8c-0.57,0.48-1.71,1.43-2.28,1.91c-1.86-3.1-1.8-7.3-4.04-9.99c-4.04-0.04-7.95,1.59-12.03,1.51
			c-0.43,0.85-0.86,1.71-1.28,2.58c-0.42-0.63-0.84-1.26-1.24-1.89c4.42-3.2,8.39-7.31,9.5-12.85c-0.1,2.12-0.06,4.24-0.03,6.37
			c4.48-2.26,9.1-4.79,12.16-8.9C190.99,323.93,190.17,320.77,190.26,317.96z"/>
	</g>
	<g id="_x23_b68908ff">
		<path fill="#B68908" d="M76.74,36.78c0.83-0.84,1.69-1.65,2.54-2.47c0.71,1.13,1.41,2.27,2.12,3.4c2.5-0.92,5.01-1.84,7.52-2.75
			c-0.43,1.12-0.85,2.24-1.29,3.36c-1.12,2.52-1.92,5.34-4.01,7.26c-2.68,2.45-5.61,4.61-8.27,7.08c-1.78-3.71-4.89-6.41-8.52-8.24
			c0.61-2.23,1.26-4.45,2.02-6.64c1.07,0.7,2.14,1.41,3.21,2.12c0.25,0.16,0.75,0.49,1,0.66C74.34,39.35,75.55,38.07,76.74,36.78z"
			/>
		<path fill="#B68908" d="M52.16,55.82c1.54-6.62,5.08-12.51,9.65-17.48c-0.09,3.92-0.38,7.88-1.4,11.69
			c-0.4,1.57-0.87,3.16-0.79,4.8c0.99,0.96,2.14,1.72,3.25,2.53c-0.08,0.29-0.23,0.86-0.31,1.15c-0.76,2.63-1.37,5.3-2.01,7.96
			c-0.49,0.35-1.48,1.07-1.97,1.42c-5.78,1.49-11.25-1.85-16.81-2.9C43,60.07,44.18,55,47.41,50.94
			C49,52.56,50.58,54.19,52.16,55.82z"/>
		<path fill="#B68908" d="M88.7,43.08c0.35,0.2,1.04,0.59,1.39,0.78c0.34,0.93,0.67,1.86,1.02,2.79c-1.62,0.02-3.29,2.55-1.62,3.62
			c3.21,3.32,8.05,2.61,12.22,2.37c0.83,1.18,1.65,2.37,2.61,3.45c2.07-0.19,3.92-1.24,5.68-2.26c2.46-1.45,4.27-3.72,5.47-6.28
			c2.2-1.56,4.51-2.96,6.89-4.23c0.79,5.63-1.92,10.81-3.15,16.16c2.09-0.56,4.18-1.11,6.28-1.65c-0.71,4.13-1.81,8.17-3.22,12.11
			c-2.03-0.47-4.08-0.83-6.14-1.09c-1.31-1.43-2.52-2.98-4.07-4.15c-1.99,0.14-3.9,0.75-5.83,1.21c-0.83-1.26-1.64-2.54-2.54-3.75
			c-1.55-0.95-3.16-1.81-4.77-2.65c0.04-0.32,0.11-0.95,0.15-1.26c-5.13,0.02-10.25-0.32-15.37-0.61c-0.48-0.75-0.96-1.49-1.45-2.23
			c2.23-0.03,4.46-0.08,6.69-0.16c-0.86-1.18-1.66-2.41-2.69-3.45c-1.69-0.57-3.49-0.67-5.24-0.91c0.12-0.26,0.35-0.79,0.46-1.05
			c1.96-0.46,3.92-0.91,5.87-1.36C87.78,46.68,88.2,44.87,88.7,43.08z"/>
		<path fill="#B68908" d="M69.48,61.88c1.38-0.45,2.73-0.99,4.09-1.52c-0.36,2.78-0.82,5.58-0.53,8.39
			c2.73,1.41,5.83,1.76,8.82,2.21c0.34,1.36,0.77,2.7,1.18,4.04c-3.4,0.26-6.8-0.11-10.19-0.37c-0.27-0.48-0.81-1.44-1.08-1.92
			c-0.21-0.21-0.63-0.61-0.84-0.81c-1.97-1.12-4.06-2.04-5.98-3.25C66.73,66.58,68.25,64.32,69.48,61.88z"/>
		<path fill="#B68908" d="M103.67,67.57c1.46,1.58,4.46,3.34,3.3,5.87c-1.53,3.3-3.42,6.59-3.14,10.37
			c0.48,0.06,1.45,0.18,1.93,0.24c3.39,0.24,7.94,1.35,10.26-1.91c2.32-3.49,4.33-7.21,7.21-10.3c-0.32-0.63-0.64-1.27-0.96-1.9
			c2.87-0.14,5.66-0.87,8.35-1.88c-0.47,1.09-0.92,2.17-1.35,3.28c-1.59,4.31-3.83,8.36-6.55,12.06c0.26,1.01,0.53,2.03,0.79,3.04
			c-1.78,0.87-3.57,1.89-5.56,2.19c-2.89-1.85-5.9-3.72-9.51-2.94c0.13,2.41,0.24,4.82,0.46,7.22c-2.72-1.28-5.66-2.02-8.62-2.48
			c-2.36-2.54-4.71-5.1-7.36-7.35c-1.51-1.23-3.13-2.34-4.64-3.58c-0.13-0.95-0.26-1.91-0.39-2.86c3.04,0.91,6.08,1.83,9.11,2.77
			c0.3-0.49,0.88-1.45,1.18-1.93C100.11,74.23,101.86,70.88,103.67,67.57z"/>
		<path fill="#B68908" d="M92.85,91.03c2,0.91,3.99,1.8,5.95,2.79l0.61,0.71c0.17,2.78,0.38,5.57,0.35,8.36
			c-0.74,0.41-2.23,1.24-2.97,1.66c-1.23-1.9-2.48-3.79-3.52-5.8c-0.4-1.27-0.73-2.55-1.06-3.83
			C92.39,93.62,92.63,92.33,92.85,91.03z"/>
		<path fill="#B68908" d="M113.67,98.14c1.12-1.55,2.25-3.1,3.39-4.64c0.36,2.37,0.71,4.75,1.06,7.12c1.32-0.46,2.63-0.92,3.95-1.39
			c0.21,0.32,0.63,0.95,0.84,1.27c-1.29,2.37-3.08,4.73-3.05,7.56c0.24,3.25,1.87,6.18,3.42,8.98c-2.21-0.12-4.41-0.29-6.61-0.39
			c1.04-3.4,2.21-6.89,2.14-10.49C118.33,102.9,115.88,100.4,113.67,98.14z"/>
		<path fill="#B68908" d="M103.15,96.5c0.34-0.13,1.01-0.39,1.35-0.53c0.26,0.29,0.79,0.87,1.05,1.15c2.89,3.56,6.19,6.75,9.67,9.73
			c-1.63,3.13-3.26,6.26-4.86,9.4c-0.94-0.99-1.87-1.98-2.81-2.97c-0.9-1.07-1.74-2.19-2.56-3.31
			C101.51,106.28,102.39,101.03,103.15,96.5z"/>
		<path fill="#B68908" d="M52.09,100.28c0.9,1.17,1.81,2.34,2.71,3.52c4.51,0.25,9.12-0.05,13.22-2.11
			c1.16,2.52,1.95,5.58,4.52,7.04c2.58,1.5,5.61,0.42,8.33,0.04c-0.02,0.68-0.08,2.03-0.1,2.71c-1.25,0.76-2.49,1.51-3.74,2.27
			c1.78,0.69,3.57,1.36,5.36,2.05c-1.58,1.87-3.41,3.5-5.34,5c-3.85-2.87-7.67-5.8-11.21-9.06c0.6-0.66,1.21-1.32,1.82-1.98
			c-0.12-0.28-0.34-0.86-0.45-1.15c-1.94,0.71-3.88,1.44-5.87,2c-5.02-1.79-10.5-2.66-14.75-6.1c0.42-0.32,1.28-0.97,1.71-1.3
			C49.57,102.25,50.84,101.27,52.09,100.28z"/>
		<path fill="#B68908" d="M89.59,102.17c2.55,1.65,5.07,3.37,7.54,5.17c-0.75,1.52-1.49,3.04-2.22,4.57
			c-1.71-1.24-3.4-2.49-5.06-3.77c-0.5-0.4-1.51-1.19-2.02-1.58C88.42,105.1,89,103.63,89.59,102.17z"/>
		<path fill="#B68908" d="M63.35,117.15l0.56,0.38c2.94,2.17,6.33,3.99,8.44,7.06c0.69,2.31-0.44,4.9-1.89,6.7
			c-1.99,1.47-4.47,2-6.75,2.86c-0.08,0.96-0.17,1.92-0.25,2.89c3.67,0.46,6.84,2.37,9.06,5.32c-1.68,0.03-3.35,0.05-5.02,0.07
			c-1.52,1.58-3.03,3.16-4.57,4.71c-1.69,0.12-3.38,0.26-5.05,0.54c-1.63,0.3-3.25,0.66-4.87,1c1.24,1.41,2.48,2.81,3.65,4.28
			l-0.19,0.98c-1.82-1.27-3.73-2.42-5.57-3.66c0.23-2.08,0.11-4.32,1.12-6.21c1.49-2.09,3.61-3.62,5.55-5.26
			c-0.68-2.08-1.36-4.15-2.04-6.21c0.44-0.43,1.32-1.28,1.76-1.71c2.56-1.3,5.44-2.26,7.43-4.43c0.38-2.94-1.78-5.32-3.51-7.43
			C61.92,118.41,62.64,117.78,63.35,117.15z"/>
		<path fill="#B68908" d="M113.59,121.91c0.39-0.12,1.17-0.35,1.56-0.47c0.18,0.35,0.55,1.06,0.73,1.42
			c1.12,0.32,2.24,0.67,3.36,1.02c0.23,0.28,0.68,0.82,0.9,1.1c-0.69,0.05-2.09,0.15-2.79,0.2c0.71,2.45,1.41,4.89,2.11,7.35
			c0.59,0.08,1.77,0.26,2.36,0.35c0.04-1.87,0.08-3.75,0.12-5.62c0.54,2.14,0.88,4.33,1.21,6.52c-3.05,0.6-5.98,1.69-8.66,3.28
			c-1.11-4.18-2.15-8.38-3.01-12.62c-0.49-0.06-1.45-0.18-1.94-0.23C110.84,123.34,112.19,122.58,113.59,121.91z"/>
		<path fill="#B68908" d="M90.13,131.09c1.33-0.24,2.65-0.48,3.98-0.72c2.09,3.83,0.41,7.85-1.38,11.4
			c-1.55-0.85-3.09-1.7-4.64-2.54c-1.25,3.59-2.39,7.22-3.41,10.88c4.3,0.83,8.72,0.73,12.91-0.59c0.84-4.65,1.98-9.24,2.82-13.88
			c1.05,3.1,0.97,6.39,1,9.62c0.02,2.88,2.34,4.97,3.86,7.17c0.93-2.34,1.66-4.75,2.1-7.23c1.02,1.48,2.07,2.94,3.24,4.32
			c-0.5,2.15-1.61,4.77,0.22,6.63c2.17,1.44,4.26-0.29,5.98-1.54c-0.94-0.75-1.88-1.49-2.81-2.23c0.45-0.19,1.36-0.57,1.82-0.76
			c1.88-0.8,3.72-1.69,5.56-2.6c2.44,1.35,4.56,3.21,6.14,5.52c-1.9-0.71-3.78-1.48-5.65-2.27c-0.33,1.18-0.66,2.35-0.98,3.53
			c3.88,0.87,7.81,1.52,11.76,1.97c1.04-3.29,1.92-6.63,2.67-10c1.27,3.52,2.15,7.16,2.73,10.86c-5.75,1.49-11.63,2.57-17.23,4.6
			c-1.15-0.62-2.31-1.24-3.47-1.82c-1.81-0.89-3.68-1.62-5.56-2.33c1.35,1.44,2.75,2.85,4.26,4.14c-1.83,2.77-2.99,6.07-5.53,8.3
			c-2.73,1.84-6.25,1.38-9.36,1.91c2.25-1.89,4.45-3.83,6.72-5.68c-1.93,0.06-3.85,0.13-5.77,0.23c-0.36-1.09-0.7-2.19-1.02-3.29
			c-0.81-3.01-0.7-6.2-1.75-9.15c-1.84-1.45-4.23-1.87-6.39-2.62c1.23,2.9,2.62,5.73,4.08,8.53c-2.04,1.76-4.1,3.49-6.17,5.22
			c-1.34-0.78-2.68-1.56-4.01-2.34c-0.17,1.88-0.36,3.76-0.44,5.65c0.13,3.77,1.75,7.24,3.41,10.56c1.2-0.3,2.41-0.59,3.62-0.88
			c0.7-1.75,1.4-3.49,2.1-5.23c0.33,0.19,1,0.56,1.34,0.75c1.66,1.6,3.23,3.29,4.82,4.95c-4.58,2.09-9.53,3.72-14.62,3.11
			c-1.64-2.76-3.76-5.2-6.16-7.33c0.61-4.79-1.19-9.33-3.73-13.3c1.87-0.23,3.76-0.29,5.65-0.37c-2.72-3.65-5.01-7.88-4.16-12.59
			c1.5-0.16,3-0.31,4.5-0.46c-0.19-0.35-0.57-1.05-0.76-1.4c-1.2-0.71-2.41-1.41-3.58-2.16c-0.01-0.31-0.01-0.91-0.02-1.22
			c0.77-0.18,1.54-0.36,2.31-0.54c-0.15-1.13-0.29-2.26-0.43-3.38c1.1-0.55,2.2-1.09,3.3-1.65c1.99-1.05,3.9-2.25,5.7-3.6
			C89.89,133.86,89.97,132.47,90.13,131.09z"/>
		<path fill="#B68908" d="M119.57,138.24l0.6,0.01c0.15,1.53,0.32,3.05,0.49,4.58c1.35-0.66,2.71-1.33,4.07-1.99
			c1.04,1.79,1.47,3.83,1.83,5.85c-2.76,0.35-5.5,0.73-8.23,1.2C119.34,144.78,119.63,141.5,119.57,138.24z"/>
		<path fill="#B68908" d="M126.71,190.93c2.78-2.39,6.37-3.48,9.61-5.07c2.54,1.56,5.18,3.03,8.07,3.82
			c1.87,0.33,3.75,0.55,5.62,0.79c-1.4,1.44-2.81,2.88-4.21,4.33c1.19,0.65,2.39,1.31,3.59,1.97c0.26,1.32,0.52,2.64,0.78,3.97
			c-4.78-0.33-8.59-3.15-12.45-5.66c-3.75,0.08-7.17,1.97-10.7,3.05C126.82,195.73,126.63,193.33,126.71,190.93z"/>
		<path fill="#B68908" d="M201.75,191.5c0.5-0.13,1.48-0.39,1.98-0.53c0.65,1.57,0.01,4.56,2.26,4.79c3.01-0.77,5.5-2.75,8.26-4.09
			c0.21-0.03,0.62-0.08,0.82-0.1c-0.46,0.97-0.91,1.95-1.33,2.94c0.13,1.76,0.42,3.5,0.71,5.24c-1.55-0.92-3.09-1.83-4.64-2.74
			c-0.22,2.01-0.43,4.01-0.64,6.02c-4.78-2.41-9.73-5.15-12.18-10.17C198.57,192.4,200.16,191.94,201.75,191.5z"/>
	</g>
	<g id="_x23_572c0aff">
		<path fill="#572C0A" d="M87.63,38.32c1.43-1.05,3-1.9,4.65-2.54c1.44-0.55,2.89-1.07,4.31-1.68c1.01,0.62,2.02,1.23,3.04,1.83
			c-0.59,1.42-1.18,2.84-1.77,4.26c-3.4-0.68-7.25-0.44-9.16,2.89c-0.5,1.79-0.92,3.6-1.36,5.4c-1.95,0.45-3.91,0.9-5.87,1.36
			c-0.11,0.26-0.34,0.79-0.46,1.05c1.75,0.24,3.55,0.34,5.24,0.91c1.03,1.04,1.83,2.27,2.69,3.45c-2.23,0.08-4.46,0.13-6.69,0.16
			c0.49,0.74,0.97,1.48,1.45,2.23c-0.16,2.04-0.32,4.09-0.47,6.14c-0.67,0.85-1.34,1.7-2.02,2.55c-1.8-0.99-3.6-1.99-5.4-3
			c-0.22,1.09-0.44,2.18-0.66,3.26c2.1,0.56,4.2,1.11,6.3,1.66c0.11,0.9,0.25,1.81,0.41,2.71c-2.99-0.45-6.09-0.8-8.82-2.21
			c-0.29-2.81,0.17-5.61,0.53-8.39c-1.36,0.53-2.71,1.07-4.09,1.52c-1.37,0.29-2.74,0.55-4.11,0.8c-0.92,1.34-1.83,2.68-2.74,4.02
			c-0.69-0.08-1.39-0.16-2.08-0.23c0.64-2.66,1.25-5.33,2.01-7.96c1.55-1.11,3.17-2.13,4.78-3.15c0.83,1.21,1.66,2.41,2.49,3.61
			c-0.17-2.6,0.17-5.39-0.97-7.81c-1.26-1.78-3.11-3.02-4.78-4.38c0.92-0.79,1.83-1.57,2.75-2.36c3.63,1.83,6.74,4.53,8.52,8.24
			c2.66-2.47,5.59-4.63,8.27-7.08C85.71,43.66,86.51,40.84,87.63,38.32z"/>
		<path fill="#572C0A" d="M106.23,65.91c1.93-0.46,3.84-1.07,5.83-1.21c1.55,1.17,2.76,2.72,4.07,4.15
			c2.06,0.26,4.11,0.62,6.14,1.09c0.32,0.63,0.64,1.27,0.96,1.9c-2.88,3.09-4.89,6.81-7.21,10.3c-2.32,3.26-6.87,2.15-10.26,1.91
			c1.1-1.3,2.13-2.65,3.15-4c0.52,0.96,1.04,1.92,1.57,2.88c1.03-0.34,2.06-0.67,3.08-1.05c1.74-1.34,2.81-3.3,3.88-5.17
			c-1.86,0.04-3.71,0.09-5.56,0.16c-0.88-3.1-1.62-6.24-2.02-9.44C108.64,66.93,107.43,66.42,106.23,65.91z"/>
		<path fill="#572C0A" d="M111.06,96.02c0.88,0.69,1.76,1.39,2.61,2.12c2.21,2.26,4.66,4.76,5.14,8.02c0.07,3.6-1.1,7.09-2.14,10.49
			l-0.77-0.01c0.05-1.37,0.1-2.74,0.16-4.1c-1.82,1.35-3.67,2.69-5.7,3.71c1.6-3.14,3.23-6.27,4.86-9.4
			c-3.48-2.98-6.78-6.17-9.67-9.73c2.09,1.03,4.22,1.94,6.35,2.88C111.62,98.67,111.34,97.35,111.06,96.02z"/>
		<path fill="#572C0A" d="M40.98,101.54c2.5,0.24,4.92,0.95,7.32,1.67c-0.43,0.33-1.29,0.98-1.71,1.3c4.25,3.44,9.73,4.31,14.75,6.1
			c-3.57,0.45-7.17,0.31-10.76,0.19c3.58,1.65,7.26,3.11,10.67,5.09c-6.13-1.14-12.39-1.15-18.6-0.93c-1.48,2.08-2.82,4.34-4.8,6.01
			c-1.48,1.24-3.39-0.18-5-0.42c0.5-1.32,1-2.64,1.5-3.96c4.84-2.77,8.12-7.6,8.69-13.18c-0.8-0.19-2.38-0.58-3.18-0.78
			C40.14,102.36,40.7,101.81,40.98,101.54z"/>
		<path fill="#572C0A" d="M41.49,123.5c2.38-1.67,5.13-2.66,7.7-3.97c-1.86,1.23-3.68,2.53-5.52,3.8c0.31,0.71,0.63,1.42,0.93,2.14
			c-2.99,1.32-5.59,3.61-5.68,7.1c-0.15,0.91-0.28,1.83-0.41,2.75c-1.31-1.21-2.57-2.48-3.85-3.73
			C36.65,128.68,38.59,125.6,41.49,123.5z"/>
		<path fill="#572C0A" d="M102.37,120.4c3.77,0.29,7.45,1.21,11.22,1.51c-1.4,0.67-2.75,1.43-4.05,2.3c-2.4,2.46-4.68,5.06-7.2,7.42
			c-0.8,0.8-1.61,1.59-2.41,2.39c-1.25-2.06-2.67-4.01-4.16-5.9c1.12-0.72,2.25-1.44,3.37-2.15c-0.45-0.91-0.89-1.81-1.34-2.71
			l-0.36-0.73c1.02,0.23,2.05,0.45,3.08,0.68c-0.05-0.69-0.15-2.07-0.2-2.76C100.83,120.44,101.86,120.41,102.37,120.4z"/>
		<path fill="#572C0A" d="M117.35,125.18c0.7-0.05,2.1-0.15,2.79-0.2c0.62,0.74,1.21,1.5,1.8,2.28c-0.04,1.87-0.08,3.75-0.12,5.62
			c-0.59-0.09-1.77-0.27-2.36-0.35C118.76,130.07,118.06,127.63,117.35,125.18z"/>
		<path fill="#572C0A" d="M50.66,133.13c1.36-0.09,2.73-0.17,4.1-0.23c-0.03,0.84-0.08,2.53-0.1,3.38
			C53.2,135.39,51.86,134.34,50.66,133.13z"/>
		<path fill="#572C0A" d="M118.33,147.89c2.73-0.47,5.47-0.85,8.23-1.2c0.08,0.4,0.25,1.21,0.34,1.61c1.07,1.76,2.34,3.38,3.62,5
			c0.43-2.01,0.85-4.01,1.27-6.02c1.17,0.16,2.35,0.32,3.53,0.49c-0.75,3.37-1.63,6.71-2.67,10c-3.95-0.45-7.88-1.1-11.76-1.97
			c0.32-1.18,0.65-2.35,0.98-3.53c1.87,0.79,3.75,1.56,5.65,2.27c-1.58-2.31-3.7-4.17-6.14-5.52c-1.84,0.91-3.68,1.8-5.56,2.6
			c-0.01-1.1-0.02-2.2-0.02-3.3C116.43,148.22,117.69,148,118.33,147.89z"/>
		<path fill="#572C0A" d="M110.83,156.15c-1.83-1.86-0.72-4.48-0.22-6.63c1.1,0.98,2.24,1.93,3.39,2.86
			c0.93,0.74,1.87,1.48,2.81,2.23C115.09,155.86,113,157.59,110.83,156.15z"/>
		<path fill="#572C0A" d="M111.79,159.08c1.88,0.71,3.75,1.44,5.56,2.33c-0.33,0.46-0.98,1.36-1.3,1.81
			C114.54,161.93,113.14,160.52,111.79,159.08z"/>
		<path fill="#572C0A" d="M38.28,164.43c3.12-2.01,7.1-3.88,10.66-1.79c0,0.95,0,1.91,0,2.86c1.07,0.55,2.14,1.1,3.23,1.63
			c1.61,4.22,6.38,4.73,10.19,5.73c0.65,1.84,1.3,3.69,1.96,5.53c-0.84,1.16-1.61,2.37-2.44,3.54c-3.99,4.48-9.83,7.27-15.85,7.4
			c-7.01,0.48-13.84-1.53-20.32-3.99c-0.69-1.49-1.39-2.97-2.08-4.45c4.17-1.67,8.52-3.08,12.21-5.71c3.27-3.32,7.25-5.75,11.3-7.98
			c-0.66-1.12-1.31-2.23-1.97-3.35C42.87,164.06,40.58,164.25,38.28,164.43z"/>
		<path fill="#572C0A" d="M107.29,176.88c5.91-2.93,10.76-8.52,17.65-9.04c4.19,0.52,8.43,0.59,12.57,1.39
			c3.13,0.57,5.27,3.11,7.61,5.03c-1.17,2.89-1.49,6.01-1.28,9.11c-1.53-0.4-3.07-0.8-4.61-1.19c1.64,1.44,3.3,2.84,4.96,4.25
			c0.07,1.08,0.14,2.16,0.2,3.25c-2.89-0.79-5.53-2.26-8.07-3.82c-3.24,1.59-6.83,2.68-9.61,5.07c-2.43,2.84-4.7,5.81-7.32,8.49
			c0.26,0.83,0.52,1.67,0.77,2.5c2.66-0.16,5.33-0.45,7.99-0.23c3.09,0.28,5.74,2.06,8.42,3.47c0.44-2.24,0.89-4.48,1.34-6.71
			c0.74-0.01,1.49-0.03,2.24-0.04c0.65,1.38,1.3,2.76,1.97,4.13c3.46,0.07,6.74,1.23,9.48,3.33c2.27-1.78,3.93-4.16,4.99-6.83
			c-1.67-0.28-3.34-0.56-5.01-0.83c-0.48-1.58-0.95-3.15-1.43-4.72c1.88-0.44,3.76-0.86,5.65-1.29c-1.16-5.33-3.52-10.4-7.8-13.94
			c1.25-0.11,2.5-0.23,3.76-0.34c3.97,1.82,7.52,4.84,11.92,5.54c1.47-1.06,2.77-2.34,4.1-3.56c5.36,2.51,10.5,5.49,16.01,7.68
			c-0.41-1.62-0.83-3.24-1.24-4.86c6.6,2.45,13.39,4.66,19.2,8.78c-1.59,0.44-3.18,0.9-4.76,1.36c2.45,5.02,7.4,7.76,12.18,10.17
			c0.21-2.01,0.42-4.01,0.64-6.02c1.55,0.91,3.09,1.82,4.64,2.74c-0.29-1.74-0.58-3.48-0.71-5.24c2.17,1.87,4.34,3.74,6.61,5.49
			c-1.29-3.08-2.96-6.01-5.28-8.43c-0.2,0.02-0.61,0.07-0.82,0.1c-2.76,1.34-5.25,3.32-8.26,4.09c-2.25-0.23-1.61-3.22-2.26-4.79
			c-0.39-2.28-0.76-4.57-1.17-6.85c6.19,1.49,12.26,3.39,18.2,5.66c-0.13-1.77-0.25-3.54-0.36-5.32c5.74,0.7,11.15,2.79,16.5,4.87
			c-0.18-2.12-0.36-4.24-0.53-6.35c3.93,0.24,7.99,0.5,11.55,2.34c2.93,1.5,6.01,2.7,9.25,3.34c-0.63-2.57-1.32-5.12-2.01-7.67
			c6.02,1.22,11.61,3.81,17.13,6.41c-0.03-1.72-0.06-3.44-0.08-5.16c6.15,1.2,11.91,3.7,17.61,6.25c0.77-1.67,1.54-3.34,2.32-5.01
			c3.25,1.28,6.59,2.41,9.69,4.06c-0.76,0.73-1.52,1.47-2.27,2.21c0.79,0.7,1.58,1.39,2.38,2.09c-0.29,0.89-0.57,1.77-0.85,2.66
			c-0.61,0.03-1.83,0.09-2.43,0.12c2.06,6.07,6.28,11,11.25,14.93c0.47-0.44,1.41-1.34,1.89-1.78c0.11-5.08,1.26-10.21,5.02-13.87
			c1.24,3.93,2.34,7.92,3.36,11.92c1.02-0.64,2.04-1.27,3.07-1.9c-0.09,2.93,0.39,5.85,1.86,8.43c1.27-3.67,0.27-7.4-1.93-10.45
			c-0.57-1.02-1.17-2.02-1.76-3.01c0.98-1.34,1.96-2.68,2.95-4.02c3.5,3.6,9.04,2.45,13.21,4.63c3.97,3.17,5.56,8.29,8.83,12.06
			c1.96,2.09,4.67,3.3,6.63,5.39c1.53,1.74,2.65,3.79,3.94,5.7c-5.5,3.87-12.68,4.45-17.71,9.05c-1.58-0.47-3.16-0.95-4.73-1.44
			c-0.8,1.9-1.6,3.8-2.39,5.71c0.89,0.65,1.78,1.3,2.68,1.96c2.76-1.53,5.56-3.34,8.82-3.5c0.18,1.98-0.09,4.18-1.85,5.41
			c-2.6,2.51-6.34,0.86-9.41,0.57c-3.43-0.72-6.94,0.04-10.38-0.48c-2.62-1.73-4.28-4.52-6.2-6.94c-1.44,0.74-2.87,1.49-4.3,2.24
			c-2.17-2.83-4.11-7.61-8.5-6.59c-3.06,0.04-3.17,3.44-3.73,5.66c-3.64-1.63-7.25-3.57-11.24-4.18c-3.89-0.32-6.88,2.77-9.88,4.78
			c-0.79-2.93-1.57-5.85-2.36-8.77c-0.42,0.15-1.27,0.44-1.69,0.58c-1.27,0.45-2.51,0.95-3.72,1.51c-0.32,0.15-0.96,0.43-1.28,0.58
			c-0.72,2.95-1.51,5.88-2.29,8.81c-2.96-1.63-5.94-3.19-8.96-4.69c0.81,7.47,1.8,15.02,1.11,22.53c-0.64,3.45-5.16,2.94-7.79,3.56
			c0.93-4.72,2.86-9.7,1.14-14.48c-1.35-3.4-4.5-6.51-8.27-6.79c-1.85,0.65-3.51,1.73-5.19,2.72c1.44,2.7,3.52,5.31,3.78,8.45
			c-1.67,4.56-4.38,8.78-4.84,13.74c-2.89-1.33-5.89-3.24-9.21-2.54c0.51,3.14,1.37,6.4-0.11,9.44c1.57,1.5,3.17,2.96,4.78,4.42
			c-2.06,1.02-4.11,2.03-6.17,3.04c2.6,2.11,5.11,4.35,7.51,6.7c-1.98,1.08-3.96,2.15-5.94,3.22c1.05,2.36,2.12,4.71,3.06,7.12
			c0.07,4.64-0.29,9.26-0.52,13.89c-1.17,0.23-2.33,0.46-3.49,0.69c-0.83,4.78-2.59,9.4-5.82,13.09c-1.47-1.78-2.9-3.57-4.11-5.52
			c1.71-2.26,3.8-4.2,6.24-5.65c0.22-3.89-0.39-7.74-1.04-11.56c-0.75-3.61,1.08-6.99,1.46-10.51c-1.13-1.39-2.51-2.52-3.83-3.7
			c-1.34,3.62-2.71,7.36-5.33,10.29c-0.48-1.56-0.96-3.1-1.44-4.65c1.24-1.67,2.47-3.35,3.69-5.03c-1.9-1.02-3.79-2.03-5.69-3.04
			c1.74-2.54,3.56-5.02,5.44-7.45c-4.52-1.3-9.03-3.08-12.49-6.36c0.05-0.45,0.16-1.35,0.21-1.8c2.83-2.67,1.81-6.36,0.9-9.62
			c1.52-1.95,3.37-3.77,4.18-6.15c0.59-2.78-1.82-4.8-3.37-6.74c0.06,0.55,0.18,1.65,0.24,2.2c-1.65,1.81-6.03,3.66-3.75,6.52
			c-2.43,1.77-6.18,3-6.34,6.54c-0.78,6.51,3.71,11.97,6.09,17.67c-2.02,0.08-4.09-0.09-6.04,0.53c-0.68,0.9-1.21,1.91-1.76,2.9
			c-1.9,0.48-3.77,1.08-5.55,1.89c-0.34,0.7-1,2.08-1.34,2.78c2.63,0.61,5.32,1.06,7.86,2.01c2.76,1.04,4.72,3.36,6.79,5.37
			c-3.4,0.61-6.79,1.22-10.17,1.89c2.02,3.24,2.86,7,1.51,10.67c1.34,1.18,2.7,2.34,4.06,3.51c-1.65,7.03-1.74,14.4-4.25,21.23
			c0.99-4.21,0.91-8.56,0.77-12.84c-1.52,0.31-3.06,0.54-4.57,0.86c-0.09,2.81,0.73,5.97-0.79,8.52c-3.06,4.11-7.68,6.64-12.16,8.9
			c-0.03-2.13-0.07-4.25,0.03-6.37c1.69-5.55,5.02-10.45,6.59-16.06c1.62-5.85,3.34-12.09,1.66-18.14
			c-2.2-8.88-4.36-18.12-9.8-25.67c-3.14-4.56-4.84-10.08-8.86-14.03c-3.19-3.18-6.34-6.43-8.82-10.21
			c-4.91-7.34-12.16-12.56-18.78-18.24c-8.27-6.75-17.7-11.94-25.66-19.11c2.09-0.94,4.2-1.86,6.31-2.76
			c-0.8-1.39-0.81-4.06-2.92-3.97c-2.61,0.22-4.1,2.82-5.92,4.39c-2.71-2.83-5.05-6.01-7.1-9.35
			C101.37,189.3,104.91,182.88,107.29,176.88 M155.64,181.82c0.6,4.77,3.87,8.51,6.23,12.52c0.5-0.45,1.49-1.34,1.99-1.79
			C161.48,188.71,159.1,184.79,155.64,181.82 M172.99,185.16c0.59,4.18,1.94,8.2,3.67,12.04c0.75-0.71,1.75-1.23,2.24-2.18
			c-1.07-3.13-2.6-6.08-3.82-9.15C174.55,185.69,173.51,185.34,172.99,185.16 M244.03,186.94c3.09,3.65,5.3,8.01,8.79,11.33
			C252.9,193.03,249.07,188.22,244.03,186.94 M263.09,187.04c-0.18,0.48-0.55,1.44-0.73,1.92c2.14,3.04,3.97,6.67,7.67,8.08
			C268.87,193.01,266,189.9,263.09,187.04 M189.06,187.91c0.33,4.42,3.66,7.53,6.91,10.13
			C194.74,194.11,193.45,189.34,189.06,187.91 M280,187.89c1.55,4.39,4.08,8.57,7.93,11.29C287.52,194.33,284.06,190.29,280,187.89
			 M230.37,192c2.12,3.94,5.09,8.05,9.72,9.1c-2.61-3.99-5.95-7.43-8.51-11.45C231.14,190.41,230.73,191.2,230.37,192
			 M193.55,208.14c1.1,1.09,2.2,2.19,3.29,3.29c1.23-0.84,2.46-1.69,3.68-2.53c2.33,4.92,5.28,9.78,10.56,11.92
			c1.38-2.69,3-5.58,2.05-8.71c-0.7-0.01-2.1-0.01-2.8-0.01c-0.21,1.31-0.42,2.62-0.63,3.93c-0.66,0-2-0.01-2.66-0.01
			c-0.46-3.15-0.75-6.35-1.66-9.41c-0.51-1.81-2.07-3.57-4.06-3.59C198.93,205.02,196.49,206.99,193.55,208.14 M278.94,203.84
			c-1.89,2.5-2.48,5.93-5.07,7.9c-1.65,1.37-3.43,2.59-5.17,3.85c-3.28-1.25-7.24-3.77-10.57-1.38c-3.56,2.36-7.29,4.47-11.23,6.14
			c-0.58-1.28-1.14-2.55-1.7-3.82c-3.43-0.71-7.16-1.68-10.32,0.42c3.24,3.13,6.12,6.68,9.75,9.38c3.76,0.87,7.67-0.61,11.43-1.11
			c1.2,2.2,2.39,4.39,3.6,6.59c1.32-1.74,2.64-3.47,3.98-5.2c3.97-1.42,8.38-2.48,11.39-5.63c1.83-1.86,0.57-4.71,0.6-7
			c2.02-0.9,4.06-1.77,6.12-2.6c2.49,2.03,5.47,3.23,8.73,2.94c-1.68-3.83-3.22-7.87-6.04-11.03
			C282.75,202.31,280.31,202.33,278.94,203.84 M337.29,206.37c-0.37,2.61-0.68,5.23-0.93,7.85c0.58,0.14,1.73,0.43,2.3,0.57
			c0.48-2.83,0.93-5.66,1.31-8.51C339.3,206.3,337.96,206.35,337.29,206.37 M146.49,209.68c-0.04,1.88-0.06,3.76-0.04,5.65
			c2.07-1.39,2.33-3.79,2.49-6.08C148.33,209.36,147.1,209.57,146.49,209.68 M142.37,223.28c-0.53,2.12,2.14,2.81,3.36,3.99
			c0.66-2.78,0.87-5.66,0.5-8.5C144.86,220.19,143.37,221.55,142.37,223.28 M155.14,219.25c0.22,0.96,0.45,1.93,0.67,2.9
			c0.5,0.16,1.49,0.48,1.98,0.64c-0.09-0.56-0.26-1.67-0.35-2.22C156.67,220.12,155.9,219.69,155.14,219.25 M154.17,226.35
			c0.16,0.96,0.32,1.92,0.48,2.88c0.55,0.16,1.66,0.48,2.22,0.64c-0.05-1.19-0.08-2.37-0.12-3.55
			C156.1,226.33,154.82,226.35,154.17,226.35 M183.18,230.24c0.66,0.16,1.99,0.47,2.65,0.62c-0.09-1.74-0.19-3.49-0.31-5.22
			C184.02,226.77,183.21,228.36,183.18,230.24 M153.27,232.16c0,1.18,0,2.37,0,3.56c0.65-0.01,1.94-0.02,2.59-0.02
			c-0.19-0.98-0.37-1.95-0.55-2.92C154.8,232.62,153.78,232.31,153.27,232.16 M180.49,236.38c-0.39,1.87-0.79,3.75-1.19,5.63
			c1.41-0.83,2.83-1.66,4.25-2.49c0.05-1.07,0.11-2.14,0.17-3.21C182.64,236.33,181.57,236.35,180.49,236.38 M164.36,240.47
			c-1.35,1.36,1.03,3.53,2.33,2.21C168.05,241.31,165.66,239.15,164.36,240.47 M175.16,248.22c0.17,1,0.35,2.01,0.52,3.03
			c0.54,0.13,1.63,0.41,2.17,0.55c-0.16-1.04-0.33-2.07-0.48-3.1C176.81,248.58,175.71,248.34,175.16,248.22z"/>
		<path fill="#572C0A" d="M288.8,234.7c2.1,1.82,3.95,3.9,5.56,6.16c-1.46,3.89,0.61,7.69,0.94,11.57
			c0.41,5.71,4.61,10.36,4.51,16.2c-1.33-0.02-2.65-0.04-3.98-0.06c-1.55-7.67-3.18-15.42-6.15-22.69
			c-1.23,0.79-2.46,1.59-3.69,2.39c-0.17-0.49-0.51-1.46-0.68-1.95c1.68-1.32,3.37-2.64,5.04-3.98
			C289.23,239.94,288.34,237.38,288.8,234.7z"/>
		<path fill="#572C0A" d="M306.17,244.72c3.38,1.82,4.74,5.45,5.9,8.87c-0.75,0.09-2.25,0.27-3,0.36
			C307.78,250.98,306.69,247.92,306.17,244.72z"/>
		<path fill="#572C0A" d="M306.09,283.15c1.57-0.01,3.15-0.01,4.74-0.02c-0.03,0.71-0.1,2.11-0.14,2.82
			c-1.32-0.19-2.64-0.37-3.96-0.55C306.57,284.84,306.25,283.72,306.09,283.15z"/>
		<path fill="#572C0A" d="M170.36,341.17c4.08,0.08,7.99-1.55,12.03-1.51c2.24,2.69,2.18,6.89,4.04,9.99
			c-6.32,1.7-13.3-0.86-17.35-5.9C169.5,342.88,169.93,342.02,170.36,341.17 M174.24,344.07c1.49,0.7,2.99,1.39,4.5,2.09
			c0.03-1.42,0.07-2.83,0.11-4.24C177.31,342.63,175.77,343.34,174.24,344.07z"/>
	</g>
	<g id="_x23_87724cff">
		<path fill="#87724C" d="M101.71,52.64c2.83-0.28,5.62,0.34,8.29,1.19c-1.76,1.02-3.61,2.07-5.68,2.26
			C103.36,55.01,102.54,53.82,101.71,52.64z"/>
		<path fill="#87724C" d="M101.04,65.65c-1.67-1.64-2.8-3.77-2.12-6.14c1.61,0.84,3.22,1.7,4.77,2.65
			C102.84,63.34,101.98,64.53,101.04,65.65z"/>
		<path fill="#87724C" d="M65.37,62.68c1.37-0.25,2.74-0.51,4.11-0.8c-1.23,2.44-2.75,4.7-4.53,6.77c-0.58-0.49-1.74-1.46-2.32-1.95
			C63.54,65.36,64.45,64.02,65.37,62.68z"/>
		<path fill="#87724C" d="M92.68,83.93l0.24-0.85c2.65,2.25,5,4.81,7.36,7.35c-0.31,1.36-0.6,2.73-0.87,4.1l-0.61-0.71
			c-2.16-2.53-4.37-5.02-6.72-7.38C92.23,85.81,92.53,84.55,92.68,83.93z"/>
		<path fill="#87724C" d="M78.74,134.79c1.76,1.34,3.51,2.69,5.26,4.05c-1.1,0.56-2.2,1.1-3.3,1.65c0.14,1.12,0.28,2.25,0.43,3.38
			c-0.77,0.18-1.54,0.36-2.31,0.54C78.78,141.21,78.75,138,78.74,134.79z"/>
		<path fill="#87724C" d="M30.84,153.58c1.63-0.32,3.27-0.6,4.93-0.62c1.89,1.98,2.22,4.85,3.02,7.36c-2.14,0.47-4.3,0.81-6.46,1.18
			c-0.23,1.6-0.46,3.2-0.68,4.8l-0.41-0.61c-0.68-3.28-1.45-6.55-2.7-9.67C29.31,155.2,30.07,154.39,30.84,153.58z"/>
		<path fill="#87724C" d="M86.85,164.33c1.33,0.78,2.67,1.56,4.01,2.34c0.16,0.47,0.48,1.4,0.65,1.86c0.88-0.62,1.75-1.25,2.66-1.83
			c0.48,1.67,0.14,4.33,2.29,4.87c2.52,0.71,3.97-2.24,5.65-3.59c1.92-0.1,3.84-0.17,5.77-0.23c-2.27,1.85-4.47,3.79-6.72,5.68
			c-1.42,0.6-2.84,1.21-4.28,1.75c-0.34-0.19-1.01-0.56-1.34-0.75c-2.12-1.23-4.41-2.1-6.76-2.76c-0.79-0.56-1.59-1.12-2.37-1.69
			C86.49,168.09,86.68,166.21,86.85,164.33z"/>
		<path fill="#87724C" d="M80.92,175.91c2.4,2.13,4.52,4.57,6.16,7.33l-1.03-0.08c-1.64-0.39-3.6-0.28-4.96-1.39
			C80.36,179.9,80.86,177.84,80.92,175.91z"/>
		<path fill="#87724C" d="M142.37,223.28c1-1.73,2.49-3.09,3.86-4.51c0.37,2.84,0.16,5.72-0.5,8.5
			C144.51,226.09,141.84,225.4,142.37,223.28z"/>
		<path fill="#87724C" d="M270.39,228.22c1.21-0.56,2.45-1.06,3.72-1.51c-0.14,0.75-0.41,2.24-0.54,2.98
			C272.51,229.2,271.45,228.71,270.39,228.22z"/>
		<path fill="#87724C" d="M164.36,240.47c1.3-1.32,3.69,0.84,2.33,2.21C165.39,244,163.01,241.83,164.36,240.47z"/>
		<path fill="#87724C" d="M278.63,259.6c2.41,0.36,2.26,2.78,2.51,4.65C278.79,263.87,278.96,261.42,278.63,259.6z"/>
		<path fill="#87724C" d="M237.22,273.19c0.39,0.22,1.17,0.67,1.56,0.89c-0.6,2.55-1.15,5.13-2.07,7.59
			c-2.04,0.34-2.23-2.24-3.18-3.46C234.78,276.55,236.01,274.87,237.22,273.19z"/>
		<path fill="#87724C" d="M241.81,286.94c-0.66-2.93-0.99-6.23,1.15-8.68C245.69,280.82,243.97,284.67,241.81,286.94z"/>
		<path fill="#87724C" d="M320.47,279.11c1.65,0.08,3.31,0.19,4.96,0.32c0.07,0.68,0.21,2.02,0.28,2.7
			C323.62,281.69,321.37,281.32,320.47,279.11z"/>
		<path fill="#87724C" d="M257.21,283.26c1.43-1.16,3.18,1.31,1.7,2.34C257.48,286.75,255.73,284.28,257.21,283.26z"/>
		<path fill="#87724C" d="M333.47,297.8c-0.93-2.23-2.18-4.58-1.24-7.03c1.35,1.95,2.6,3.97,3.79,6.03
			C335.17,297.13,334.32,297.46,333.47,297.8z"/>
		<path fill="#87724C" d="M174.24,344.07c1.53-0.73,3.07-1.44,4.61-2.15c-0.04,1.41-0.08,2.82-0.11,4.24
			C177.23,345.46,175.73,344.77,174.24,344.07z"/>
		<path fill="#87724C" d="M322.74,342.11c2.26-0.03,4.39,0.6,5.51,2.71C325.99,344.87,323.67,344.46,322.74,342.11z"/>
	</g>
	<path fill="#CBC69C" d="M122.72,83.4c2.72-3.7,4.96-7.75,6.55-12.06c-2.18,5.64,2.89,11.6-0.71,16.92
		c-0.1-1.43-0.22-2.86-0.36-4.29c-1.57,0.82-3.12,1.65-4.69,2.47C123.25,85.43,122.98,84.41,122.72,83.4z"/>
	<path fill="#CBC69C" d="M53.01,148.68c1.62-0.34,3.24-0.7,4.87-1c-0.41,1.76-0.84,3.51-1.22,5.28
		C55.49,151.49,54.25,150.09,53.01,148.68z"/>
	<path fill="#CBC69C" d="M89.82,180.54c-1.66-3.32-3.28-6.79-3.41-10.56c0.78,0.57,1.58,1.13,2.37,1.69
		c2.35,0.66,4.64,1.53,6.76,2.76c-0.7,1.74-1.4,3.48-2.1,5.23C92.23,179.95,91.02,180.24,89.82,180.54z"/>
	<path fill="#CBC69C" d="M155.64,181.82c3.46,2.97,5.84,6.89,8.22,10.73c-0.5,0.45-1.49,1.34-1.99,1.79
		C159.51,190.33,156.24,186.59,155.64,181.82z"/>
	<path fill="#CBC69C" d="M172.99,185.16c0.52,0.18,1.56,0.53,2.09,0.71c1.22,3.07,2.75,6.02,3.82,9.15
		c-0.49,0.95-1.49,1.47-2.24,2.18C174.93,193.36,173.58,189.34,172.99,185.16z"/>
	<path fill="#CBC69C" d="M263.09,187.04c2.91,2.86,5.78,5.97,6.94,10c-3.7-1.41-5.53-5.04-7.67-8.08
		C262.54,188.48,262.91,187.52,263.09,187.04z"/>
	<path fill="#CBC69C" d="M304.35,231.79c1.34,1.21,2.66,2.45,3.94,3.74c-0.74,0.01-2.23,0.04-2.97,0.05
		C304.99,234.31,304.66,233.05,304.35,231.79z"/>
	<path fill="#CBC69C" d="M203.2,252.95c-2.28-2.86,2.1-4.71,3.75-6.52c0.15,1.15,0.32,2.3,0.5,3.46
		C206.05,250.94,204.66,251.99,203.2,252.95z"/>
	<path fill="#CBC69C" d="M175.16,248.22c0.55,0.12,1.65,0.36,2.21,0.48c0.15,1.03,0.32,2.06,0.48,3.1
		c-0.54-0.14-1.63-0.42-2.17-0.55C175.51,250.23,175.33,249.22,175.16,248.22z"/>
	<path fill="#CBC69C" d="M199.78,263.22c1.54-0.77,3.08-1.52,4.62-2.28c0.21,1.93,0.43,3.86,0.6,5.8c-0.05,0.45-0.16,1.35-0.21,1.8
		C202.96,266.91,201.33,265.09,199.78,263.22z"/>
	<g id="_x23_cea60dff">
		<path fill="#CEA60D" d="M123.51,86.44c1.57-0.82,3.12-1.65,4.69-2.47c0.14,1.43,0.26,2.86,0.36,4.29
			c-1.76,4.13-3.38,8.34-5.65,12.24c-0.21-0.32-0.63-0.95-0.84-1.27c-1.32,0.47-2.63,0.93-3.95,1.39c-0.35-2.37-0.7-4.75-1.06-7.12
			c-1.14,1.54-2.27,3.09-3.39,4.64c-0.85-0.73-1.73-1.43-2.61-2.12c-0.49-0.38-1.48-1.15-1.98-1.54c-0.04-0.39-0.14-1.18-0.18-1.57
			c-0.22-2.4-0.33-4.81-0.46-7.22c3.61-0.78,6.62,1.09,9.51,2.94C119.94,88.33,121.73,87.31,123.51,86.44z"/>
		<path fill="#CEA60D" d="M39.86,102.63c0.8,0.2,2.38,0.59,3.18,0.78c-0.57,5.58-3.85,10.41-8.69,13.18c-1.95,0.41-3.92,0.7-5.89,1
			c0.01-1.36,0.02-2.72,0.03-4.08c-1.57,0.02-3.13,0.04-4.7,0.06l0.45-0.61c1.34-1.61,2.77-3.15,4.18-4.69
			C32.58,107.22,37.08,106.19,39.86,102.63z"/>
		<path fill="#CEA60D" d="M42.65,114.96c6.21-0.22,12.47-0.21,18.6,0.93c0.53,0.31,1.58,0.95,2.1,1.26
			c-0.71,0.63-1.43,1.26-2.14,1.88c-3.31-1.38-7.15-2.26-10.44-0.33c-0.39,0.21-1.18,0.62-1.58,0.83c-2.57,1.31-5.32,2.3-7.7,3.97
			c-2.9,2.1-4.84,5.18-6.83,8.09c1.28,1.25,2.54,2.52,3.85,3.73c0.31,0.23,0.91,0.69,1.21,0.91c2.3,1.99,5.31,2.65,8.21,3.23
			c-0.34,1.84-0.65,3.69-1.27,5.47c-3.21-0.35-6.05,1.1-8.46,3.08c0.26,0.85,0.51,1.71,0.77,2.56c-1.1-0.45-2.22-0.87-3.33-1.31
			c1.3-1.69,2.61-3.37,3.91-5.05c-1.43-0.16-2.86-0.33-4.3-0.49c0.53-3.56,0.66-7.41-2.43-9.87c-0.96,3.26-1.87,6.54-2.86,9.79
			c-0.33-1.59-0.66-3.18-0.92-4.77c0.09-0.65,0.28-1.94,0.37-2.58c0.72-5.33,1.31-10.75,3.44-15.74c1.61,0.24,3.52,1.66,5,0.42
			C39.83,119.3,41.17,117.04,42.65,114.96z"/>
		<path fill="#CEA60D" d="M116.67,116.65c2.2,0.1,4.4,0.27,6.61,0.39c2.08,3.3,4.09,6.7,5.06,10.52c1.66,6.23,4.49,12.07,6.32,18.25
			c-2.59,0.83-5.18,1.66-7.76,2.49c-0.09-0.4-0.26-1.21-0.34-1.61c-0.36-2.02-0.79-4.06-1.83-5.85c-0.71-0.86-1.44-1.71-2.17-2.56
			c-0.6,0-1.79-0.02-2.39-0.03l-0.6-0.01c0.06,3.26-0.23,6.54-1.24,9.65c-0.64,0.11-1.9,0.33-2.53,0.43
			c0.05-3.79-0.33-7.59-1.31-11.26c2.68-1.59,5.61-2.68,8.66-3.28c-0.33-2.19-0.67-4.38-1.21-6.52c-0.59-0.78-1.18-1.54-1.8-2.28
			c-0.22-0.28-0.67-0.82-0.9-1.1c-1.24-2.07-2.36-4.22-3.37-6.41l0.03-0.83L116.67,116.65z"/>
		<path fill="#CEA60D" d="M90.13,131.09c0.59-2.17,2.16-3.83,3.59-5.49c0.69,0.84,1.37,1.68,2.05,2.52c1.49,1.89,2.91,3.84,4.16,5.9
			c0.12,0.41,0.36,1.21,0.48,1.62c-0.84,4.64-1.98,9.23-2.82,13.88c-4.19,1.32-8.61,1.42-12.91,0.59c1.02-3.66,2.16-7.29,3.41-10.88
			c1.55,0.84,3.09,1.69,4.64,2.54c1.79-3.55,3.47-7.57,1.38-11.4C92.78,130.61,91.46,130.85,90.13,131.09z"/>
	</g>
	<g id="_x23_e8e5ceff">
		<path fill="#E8E5CE" d="M189.06,187.91c4.39,1.43,5.68,6.2,6.91,10.13C192.72,195.44,189.39,192.33,189.06,187.91z"/>
	</g>
</g>
</svg>
