<?xml version="1.0" encoding="utf-8"?>
<!-- Generator: Adobe Illustrator 17.0.0, SVG Export Plug-In . SVG Version: 6.00 Build 0)  -->
<!DOCTYPE svg PUBLIC "-//W3C//DTD SVG 1.1//EN" "http://www.w3.org/Graphics/SVG/1.1/DTD/svg11.dtd">
<svg version="1.1" id="Layer_1" xmlns="http://www.w3.org/2000/svg" xmlns:xlink="http://www.w3.org/1999/xlink" x="0px" y="0px"
	 width="401px" height="382px" viewBox="0 0 401 382" enable-background="new 0 0 401 382" xml:space="preserve">
<g>
	<path fill="#010102" d="M189.37,15.2c1.33-3.43,4.8-5.24,7.97-6.65c5.41-0.84,10.78,0.89,16.19,0.67c3.63-0.1,7.54,0.48,10.44,2.81
		c4.2,4.57,5.67,10.93,5.58,17c-0.52,3,2.51,4.36,4.12,6.32c-0.29,3.48-1.85,6.89-1.34,10.41c1.18,3.66,3.42,7.15,2.9,11.17
		c1.38,1.53,2.93,2.94,4.1,4.66c1.16,5.22-1,10.34-2.63,15.21c3.35,1.21,7.2,2,9.75,4.68c1.85,3.48,1.96,7.57,2.28,11.42
		c-4.51-3.05-3.26-10.72-9.03-12.41c-4.4-1-9.02,0.03-13.4-1.26c2.01-2.83,4.93-4.73,8.06-6.11c-0.92-4.5-4.71-7.26-8.26-9.69
		c2.53-0.27,5.07-0.5,7.56-1.03c-1.34-6.85-8.13-11.31-14.7-12.53c-0.56,6.3-1.93,12.59-5.48,17.93c-1.83-1.89-4.29-3.47-5.25-5.99
		c-0.13-3.96,2.77-7.1,4.58-10.37c-1.85-6.49-4.93-12.54-7.52-18.75c-0.85-1.7-0.27-3.58,0.03-5.33c1.97,0.14,3.95,0.37,5.93,0.52
		c-2.91-4.34-5.53-9.01-9.42-12.58c-1.12,0.86-2.27,1.69-3.47,2.43c-1.94-0.09-3.87-0.26-5.8-0.48c-0.99,2.29-2.06,4.55-3.07,6.84
		c2.14-0.48,4.29-0.89,6.45-1.22c-3.34,2.61-7.57,2.76-11.64,2.72c-0.27-1.15-0.54-2.3-0.81-3.45
		C185.84,20.2,188.13,18.06,189.37,15.2 M202.19,12.26c-1.7,0.47-0.47,2.92,0.98,2.45C204.86,14.27,203.62,11.78,202.19,12.26
		 M208.49,12.27c1.3,2.36,3.01,4.45,5.06,6.21c2.92,2.48,3.82,6.37,5.3,9.74c2.73-1.34,5.44-2.74,8.09-4.26
		c-0.3-0.91-0.59-1.82-0.89-2.73c-1.27,0.15-2.54,0.31-3.81,0.46c0.95-1.53,1.9-3.07,2.85-4.6c-1.79-1.63-3.44-3.53-5.65-4.59
		C215.84,11.72,212.13,12.21,208.49,12.27 M215.11,26.51c-1.02,1.92-2.79,3.92-2.09,6.26c1.04,1.59,2.44,2.88,3.77,4.22
		c-1.94-0.63-3.88-1.23-5.81-1.83c-0.28,1.28-0.59,2.57-0.89,3.85c1.97,0.66,4.01,1.18,5.84,2.18c1.53,2.05,1.75,4.78,3.16,6.91
		c2.89,1.47,6.14,0.01,9.11-0.43c-1.38-1.76-2.79-3.5-4.14-5.28c0.83-1.82,1.39-3.75,1.98-5.66c-2.27-0.38-4.54-0.71-6.81-1.05
		C218.83,32.24,218.62,28.29,215.11,26.51z"/>
	<path fill="#010102" d="M197.17,23.64c1.23,0.56,2.2,1.53,3.36,2.23c1.23,0.43,2.52,0.73,3.68,1.36c-0.13,1.54-1.61,2.65-3.11,2.53
		c-1.61-0.67-3.08-1.6-4.58-2.48C196.68,26.37,197.01,24.55,197.17,23.64z"/>
	<path fill="#010102" d="M184.21,27.1c0.74,0.24,1.49,0.49,2.25,0.72c-0.2,2.02-0.39,4.04-0.57,6.05c1.23-0.46,2.47-0.93,3.72-1.34
		c5.37-2.25,10.57,1.93,14.64,4.98c-4.36-1.33-8.56-3.21-13.02-4.2c-4.78,3.98-7.57,9.73-10.79,14.94c1.64,0.64,3.4,0.87,5.04,1.51
		c0.72-1.02,1.46-2.01,2.23-3c-0.01,1.76,0,3.51-0.01,5.26c-2.62-0.69-5.3-1.22-7.85-2.15c-0.43-0.15-1.28-0.43-1.71-0.58
		c1.82-4.44,4.6-8.36,7.35-12.26c-0.84-2.17-2.71-4.32-2.22-6.76C183.56,29.2,183.87,28.15,184.21,27.1z"/>
	<path fill="#010102" d="M190.13,35.59c1.92,0.42,4.29-0.01,5.75,1.58c1.82,1.9,2.91,4.34,4.15,6.63c-0.59,0.41-1.77,1.24-2.36,1.65
		c-0.13-0.33-0.4-0.99-0.53-1.33c-0.45-1.13-0.91-2.27-1.37-3.4c-1.28,0.44-2.57,0.88-3.84,1.33c0.68,1.07,1.36,2.15,2.04,3.23
		c-0.95,0.31-1.92,0.59-2.89,0.84c-0.38-0.13-1.13-0.39-1.51-0.52C189,42.26,189.78,38.91,190.13,35.59z"/>
	<path fill="#010102" d="M182.43,52.89c2.69,2,5.32,4.09,7.72,6.45c-1.68,1.41-3.32,2.88-4.9,4.4
		C183.63,60.34,182.44,56.68,182.43,52.89z"/>
	<path fill="#010102" d="M192.91,69.41c2.31-1.36,4.13-3.34,5.88-5.32c-2.36,5.62-2.19,11.77-3.24,17.66
		c-0.54,3.51-3.51,5.72-6.19,7.66c0.56-1.16,1.13-2.33,1.72-3.49c1.87-3.59,3.8-7.63,3.11-11.78c-2.36-2.79-6.32-3.08-9.21-5.09
		c-0.48-1.4-0.81-2.84-1.2-4.25l0.77,0.44C187.18,66.92,189.87,68.6,192.91,69.41z"/>
	<path fill="#010102" d="M210.69,72.77c0.79-1.11,1.5-2.28,2.41-3.3c0.51,1.14,0.96,2.31,1.35,3.52
		C213.51,72.93,211.63,72.82,210.69,72.77z"/>
	<path fill="#010102" d="M204.44,74.98c5.82-0.41,11.3,2.27,15.14,6.56c1.91,0.07,3.83,0.1,5.74,0.19
		c-2.62,3.14-6.87,2.81-10.35,4.19c-1.23,2.03-1.95,4.53-4.2,5.72c0.47-2.55,1.18-5.05,2.01-7.51
		C209.69,81.39,206.2,78.84,204.44,74.98z"/>
	<path fill="#010102" d="M175.88,97c3.49-3.82,6.2-9.35,11.85-10.2c-3.15,5.86-7.92,10.78-13.33,14.6
		c-2.92,1.89-5.64,4.07-8.21,6.42c-0.82,0.23-1.63,0.47-2.43,0.73C167.21,104.11,171.19,100.13,175.88,97z"/>
	<path fill="#010102" d="M144.76,95.55c1.3-2.42,2.84-4.71,4.41-6.97c1.17,3.08,2.12,6.37,4.3,8.92c2.01,2.32,4.61,4,7.14,5.68
		c-3.98,1.31-7.58,3.52-10.75,6.25c-1.83-1.48-3.65-2.98-5.43-4.52c0.25-0.67,0.75-2.02,1-2.69c0.37,0.08,1.1,0.25,1.47,0.34
		c0.29,1.23,0.58,2.45,0.87,3.68c2.25-0.34,4.48-0.77,6.72-1.16c-0.62-2.48-0.63-5.31-2.25-7.41
		C150.27,95.78,147.32,95.72,144.76,95.55z"/>
	<path fill="#010102" d="M209.44,93.4c1.33-1.35,3.6,0.94,2.26,2.27C210.36,97.02,208.1,94.74,209.44,93.4z"/>
	<path fill="#010102" d="M236.48,105.85c4.04-4.51,8.3-8.92,13.68-11.85c0.13,0.51,0.41,1.52,0.54,2.02
		c0.42,1.74,0.76,3.5,1.09,5.25c-1.82,1.81-3.51,3.76-5.19,5.7c1.51,0.18,3.04,0.35,4.57,0.23c1.14-1.17,1.92-2.62,2.81-3.98
		c0.29,0.24,0.88,0.73,1.17,0.97c-0.02,1.58-0.03,3.16-0.05,4.74c-1.54,0.22-3.07,0.42-4.6,0.68c-0.51,0.96-1.01,1.92-1.5,2.89
		c-0.77,0.22-2.29,0.65-3.06,0.87c0.41,1.32,0.81,2.65,1.2,3.99c0.38,1.31,0.75,2.62,1.15,3.93c-4.98,0.8-8.96,3.87-12.39,7.37
		c0.8-2.03,1.51-4.09,2.19-6.17c-2.19-0.81-4.36-1.63-6.53-2.47c-0.19,2.53-0.35,5.06-0.56,7.59c1.29,0.7,2.59,1.37,3.9,2.03
		c-1.13,3.91-3.48,7.23-5.9,10.44c-2.13,2.8-0.48,6.58,1.2,9.17c2.5,0.14,4.37-1.8,6.4-2.95c-1.2-3.44-2.25-6.93-2.95-10.51
		c1.41,2.35,2.74,4.74,4.05,7.14c6.34-2.06,12.7-4.3,18.47-7.69c2.14-1.39,4.78-3.32,4.56-6.2c-0.56-6.37-4.92-11.9-4.59-18.42
		c4.55,4.72,5.13,11.5,7.47,17.34c-0.62,4.15-3.87,7.15-7.02,9.6c-4.82,3.68-10.91,4.92-16.16,7.79c-3.01,2.25-5.9,4.73-8.43,7.51
		c-2.23,4-2.46,8.74-2.82,13.22c-6.96-0.3-14-0.38-20.82,1.21c-4.42-4.91-11.57-10.09-18.28-6.42c-2.39,1.01-4.88-0.82-6.61-2.33
		c-2.11-2.71-3.37-6.11-3.86-9.48c0.57-1.96,1.5-3.8,1.96-5.79c-1.74-2.8-3.93-5.33-6.24-7.68c-2.92-2.87-7.51-3.08-10.1-6.38
		c3.94,0.07,7.73,1.34,11.64,1.6c2.57-0.55,4.67-2.27,6.96-3.48c2.45,0.45,4.83-0.11,6.37-2.21c0.26-0.27,0.78-0.81,1.04-1.08
		c1.39,2.06,2.67,4.2,4,6.3c-2.41,0.09-4.95-0.25-7.24,0.64c-2.67,1.61-4.81,4.3-5.61,7.32c-0.02,2.25,0.84,4.37,1.45,6.5
		c-0.52,1.52-1.05,3.03-1.57,4.55c1.25,0.89,2.55,1.72,3.89,2.46c1.68,0.07,2.8-1.63,4.07-2.51c-0.62-1.22-1.22-2.44-1.85-3.65
		c-0.13-0.25-0.39-0.75-0.53-1c4.52,1.93,9.11,3.69,13.74,5.36c-0.48,1.74-1,3.47-1.48,5.21c0.97-0.48,1.95-0.95,2.93-1.41
		c2.47,0.28,4.94,0.62,7.43,0.56c3.04-0.28,5.87-1.75,8.95-1.72c3.25,0.06,6.48,0.4,9.73,0.48c-0.61-1.85-1.21-3.7-1.82-5.55
		c-1.2-3.41-2.25-6.87-3.29-10.34c-1.93,0.24-3.85,0.57-5.78,0.82c-1.06-0.98-2.12-1.94-3.17-2.91c0.14,1.48,0.29,2.96,0.44,4.44
		c-2.47,1.09-4.95,2.17-7.26,3.57c-2.14-1.6-4.3-3.14-6.48-4.67c7.1-0.83,13.76-3.94,19.26-8.44c2.24-1.54,1.65-4.52,1.81-6.84
		c0.7-0.52,1.41-1.02,2.12-1.53c1.67-0.19,3.31-0.61,4.96-0.93c-0.65-6.21-3.55-11.83-6.24-17.36c2.31,2.46,4.56,4.99,6.76,7.56
		C232.52,109.32,234.57,107.67,236.48,105.85 M231.23,112.27c-0.04,0.78-0.12,2.34-0.16,3.12c2.41-0.79,4.77-1.76,6.96-3.05
		c-1.76,2.33-2.88,5.05-3.37,7.92c1.72-1.08,3.85-1.87,4.89-3.74c0.99-2.46,0.6-5.21,1.34-7.73c1.53-2.8,3.73-5.15,5.39-7.87
		C239.56,102.09,236.95,109.29,231.23,112.27 M188.34,155.94c-1.84-0.59-3.68-1.16-5.52-1.73c1.59,1.7,3.12,4.9,5.96,3.89
		c2.86-0.82,3.85-3.8,4.25-6.43C191.3,152.9,189.69,154.3,188.34,155.94 M194.19,152.63c-1.03,0.74-0.78,2.84,0.62,2.95
		C196.89,155.48,196.15,151.53,194.19,152.63z"/>
	<path fill="#010102" d="M209.24,96.92c0.46-0.05,1.39-0.15,1.85-0.2c0.25,3.01-0.15,6.26,1.23,9.06c2.2,3.65,5.63,6.32,8.43,9.47
		c0.71,1.61,1.36,3.25,1.83,4.95c-2.5-1.36-5.01-2.7-7.53-4.03c-1.29-2.66-2.12-5.82-4.53-7.72c-2.76-1.78-5.84,0.6-8.27,1.89
		c-4.75,3.25-11.29,6.11-11.61,12.74c-2.26-0.83-4.55-1.59-6.84-2.31c-0.3-2.9-0.81-5.76-1.31-8.63c2,1.54,3.5,4.71,6.28,4.63
		c3.13-2.13,5.46-5.2,8.25-7.72c4.03-1.86,8.65-2.95,11.79-6.3C210.61,101.25,209.35,98.83,209.24,96.92z"/>
	<path fill="#010102" d="M177.1,104.83c1.51,0.27,2.83-0.43,3.73-1.64c-0.19,1.57-0.33,3.13-0.43,4.71
		C179.24,106.94,178.14,105.91,177.1,104.83z"/>
	<path fill="#010102" d="M155.09,108.09c2.07,0.72,4.13,1.47,6.2,2.2c-1,0.7-1.99,1.41-2.98,2.12
		C157.22,110.98,156.17,109.53,155.09,108.09z"/>
	<path fill="#010102" d="M162.63,128.5c-4.92-1.54-10.1-6.54-7.82-12.08C157.05,120.67,159.94,124.52,162.63,128.5z"/>
	<path fill="#010102" d="M193.67,135.64c1.06-1.59,2.51-2.81,3.95-4.04c0.11,0.83,0.34,2.49,0.45,3.32
		C196.6,135.16,195.13,135.41,193.67,135.64z"/>
	<path fill="#010102" d="M192.46,163.69c0.62,0.67,1.26,1.33,1.9,2c-2.98,5.27-4.92,11.26-4.84,17.36c-0.01,1.94,1.23,3.55,2.4,4.98
		c5.72,6.63,12.86,11.79,18.95,18.04c-0.49,0-1.46-0.01-1.94-0.02c-7.31-6.28-13.73-13.59-21.5-19.32
		c1.95,4.33,4.74,8.32,8.58,11.18c4.02,2.95,7.86,6.15,11.19,9.89c4.4,4.86,10.33,7.82,15.79,11.28c-0.78,2.23-1.54,4.48-2.26,6.73
		c-1.38-3.5-3-7.22-6.36-9.25c-3.25-2.49-8.69-1.45-10.58,2.24c-1.89,2.97-1.36,6.6-1.17,9.92c1.32-0.45,2.64-0.9,3.96-1.35
		c0.05,7.04,6.26,11.43,8.58,17.64c1.8-2.76,4.2-5.36,4.73-8.73c0.48-2.9,0.44-5.85,0.67-8.78c1.82,2.97,4.17,6.39,3.03,10.03
		c-1.02,1.94-2.65,3.45-4.1,5.05c0.83,3.19,1.89,6.37,2.07,9.69c0.11,2.01-2.05,3.08-3.05,4.57c0.4-3.88,2.23-8.39-1.12-11.53
		c-1.11,2.8-1.92,5.7-2.87,8.55c-2.41,0.62-4.84,1.14-7.26,1.72c0.7,9.17,2.42,18.25,4.49,27.21c1.33,6.38,5.81,11.87,5.74,18.57
		c-0.17-0.69-0.5-2.07-0.67-2.76c-0.72-0.23-2.17-0.68-2.89-0.9c0.15,5.1,0.52,10.19,0.61,15.28c0.21,5.81-2.69,11.06-3.45,16.72
		c-0.45,3.39-1.06,6.85-3.09,9.7c-2.45-8.71,2.43-17.01,4.08-25.38c0.77-2.67-0.87-5.11-1.93-7.42c-0.25,3.95-0.28,7.91-0.48,11.86
		c-4.26-6.88-2.03-15.2-4.17-22.64c-2.57-7.08-3.34-14.55-3.4-22.03c-0.61-5.39-2.34-10.56-2.99-15.94
		c-0.59-3.25-0.62-6.76-2.31-9.67c-3.35-2.16-7.55-1.76-11.35-1.9c-1.61,11.91,0.4,23.84,0.74,35.76c0.08,2.13-0.17,4.28-0.85,6.31
		c-1.38-6.56-1.55-13.27-1.82-19.95c-0.24-7.08-4.18-13.45-3.84-20.61c1.21,3.37,2.5,6.73,4.07,9.96c0.32-3.72,1.17-7.65-0.13-11.27
		c-1.27-1.24-2.81-2.14-4.32-3.06c0.98-1.51,1.95-3.03,2.7-4.67c0.52-2.15-0.88-4.12-1.23-6.18c-1.18,3.01-2.2,6.09-3.29,9.14
		c0.4-4.39,1-8.76,1.61-13.13c1.46-4.53,0.87-9.31,1.84-13.91c1.51-6.07,2.12-12.31,2.66-18.53c0.78-7.2,3.94-13.89,4.64-21.1
		C188.63,170.95,190.9,167.4,192.46,163.69 M185.76,192.75c0.95,3.66,2.38,7.17,3.98,10.59c1.29-0.89,4.15-1.04,3.08-3.19
		C191.89,196.73,189.46,193.37,185.76,192.75 M194.12,201.55c-0.95,1.13-0.69,1.76,0.76,1.9
		C195.83,202.31,195.57,201.68,194.12,201.55 M197.92,202.47c-1.32,4.88-1.13,9.98-0.74,14.97c1.93-1.14,3.87-2.24,5.81-3.36
		C202.35,209.81,201.97,205,197.92,202.47 M191.03,205.73c-2.21,2.58-0.27,5.15,2.06,6.67
		C192.82,210.08,193.64,206.93,191.03,205.73 M206.1,210.24c-1.77,0.37-1.18,3.33,0.63,2.7
		C208.49,212.57,207.89,209.63,206.1,210.24 M187.37,220.71c-0.7,3.89-3.48,10.04,1.47,12.19c1.18-1.64,2.56-3.56,2.08-5.71
		C190.39,224.74,188.76,222.73,187.37,220.71 M189.07,242.78c0.02,0.48,0.06,1.44,0.08,1.92c1.67,0.03,3.33,0.14,5,0.17
		c-0.29-1.25-0.6-2.49-0.91-3.73C191.85,241.69,190.46,242.24,189.07,242.78 M199.85,251.56c1.21,4.03,3.08,7.96,6.37,10.72
		C206.38,257.78,204.25,253.21,199.85,251.56 M201.97,262.63c0.65,3.02,1.68,5.94,2.44,8.93c1.33,4.78-1.03,9.73,0.35,14.52
		c1.31,5,2.8,9.96,4.21,14.95c0.68,1.46,0.74,3.96,2.85,3.97c4.57-11.17-3.44-21.87-3.95-32.97
		C207.81,268.02,205.84,264.15,201.97,262.63z"/>
	<path fill="#010102" d="M245.92,222.62c0.48-7.43-0.52-14.84-0.14-22.26c2.39,5.81,1.89,12.25,3.46,18.25
		c0.76,3.29,1.63,6.59,1.63,9.99c-0.07,4.09-0.85,8.21,0.05,12.25c1.33,2.33,3.62,3.9,5.18,6.07c0.8,1.79,0.62,3.8,0.93,5.69
		c-0.67-1.91-1.77-3.62-2.73-5.39c-0.99,0.45-1.98,0.91-2.96,1.37c-2.48-5.81-3.63-12.04-3.03-18.35
		c-3.98,5.1-5.27,11.83-5.29,18.16c2.18,3.39,6.58,3.63,10.21,3.31c0.16,0.26,0.49,0.77,0.65,1.02c-0.26,1.3-0.49,2.62-0.7,3.93
		c-0.6-0.23-1.78-0.68-2.38-0.91c-2.99-1.23-6.01-2.4-8.98-3.66c-1,2.4-2,4.8-2.79,7.28c-3.96-3-8.72-4.56-13.69-4.45
		c-0.17-2.22-0.31-4.43-0.46-6.65c2.3,0.25,5.1,1.65,7.06-0.28c2.18-1.82,4.34-4.2,4.66-7.14c-1.08-4.05-2.66-8.05-2.31-12.33
		c-3.15-1.86-6.12-4.02-8.77-6.56c4.07,1.5,8.07,3.16,12.15,4.62c-0.23-0.76-0.68-2.28-0.9-3.04
		C239.83,223.38,242.87,222.97,245.92,222.62 M238.56,230.14c0.31,2.46,1.89,3.85,4.27,4.3c0.07-1.48,0.13-2.95,0.18-4.43
		C241.53,230.05,240.04,230.09,238.56,230.14z"/>
	<path fill="#010102" d="M254.51,286.66c0.81,1.07,1.64,2.14,2.42,3.26c1.5,2.3,0.88,5.28,0.81,7.88
		c-0.11,4.99-2.58,9.44-6.34,12.63c1.19-3.48,2.75-6.87,3.4-10.51C255.51,295.52,254.82,291.06,254.51,286.66z"/>
	<path fill="#010102" d="M185.16,290.66c1.05,0.53,2.51,0.91,2.81,2.23c1.01,3.21,0.9,6.63,1.21,9.96
		c0.33,6.79,2.61,13.32,2.81,20.13c0.27,7.3,0.53,14.63,1.99,21.81c-0.94,0.52-1.87,1.04-2.8,1.57c0.7,2.13,1.52,4.23,2.25,6.36
		c-1.46-1.23-2.94-2.44-4.41-3.65c-0.27-0.22-0.8-0.65-1.06-0.87c1.06-1.75,2.37-3.42,2.93-5.41c0.35-2.94-0.21-5.88-0.37-8.81
		c-0.58-6.37,0.35-12.91-1.56-19.12C186.42,306.98,188.58,298.36,185.16,290.66z"/>
	<path fill="#010102" d="M245.02,300.06c-0.89-3.06-2.28-6.11-1.98-9.35c3.99,5.19,4.28,11.95,5.11,18.19
		c0.55,4.15,0.6,8.41-0.66,12.45C245.62,314.37,247.15,306.98,245.02,300.06z"/>
	<path fill="#010102" d="M178.14,299.16c-1-1.77-0.62-3.86-0.3-5.74c1.83,0.85,3.65,1.73,5.48,2.6c-0.73,0.19-2.19,0.57-2.92,0.76
		c0.93,3.88,2.09,7.71,3.38,11.49C181.71,305.35,179.66,302.4,178.14,299.16z"/>
	<path fill="#010102" d="M218.18,302.67c1.15,3.42,2.1,7.19,0.45,10.63c-0.35-2.02-0.69-4.05-0.81-6.1
		C217.91,305.68,218.03,304.17,218.18,302.67z"/>
	<path fill="#010102" d="M177.27,311.78c-0.46-1.99-1.43-5.09,0.5-6.48c1.61,3.07,2.22,6.68,4.5,9.37c1.71,2.03,3.39,4.09,4.75,6.37
		C183.53,318.25,179.86,315.46,177.27,311.78z"/>
	<path fill="#010102" d="M254.81,324.85c1.29-4.02,2.81-8.02,3.22-12.26c1.82,2.92,2.07,6.36,1.22,9.65
		c-1.53,7.05-0.91,15.28-5.98,21.02c-2.95,4.09-8.26,5.39-11.26,9.47c-3.28-3.97-0.32-8.79,0.32-13.13
		c0.85-5.17,1.1-10.64,4.22-15.09c-1.44,7.32-2.59,14.71-3.36,22.14c5.94-0.07,9.23-5.61,10.87-10.62
		C254.94,332.36,253.64,328.49,254.81,324.85z"/>
	<path fill="#010102" d="M218.88,315.54c0.65-0.15,1.95-0.43,2.6-0.57c1.89,7.55,2.83,15.32,3.05,23.1
		C221.82,330.75,222.01,322.71,218.88,315.54z"/>
	<path fill="#010102" d="M176.46,317.91c0.74-0.61,1.49-1.2,2.25-1.79c0.32,3.72,0.33,7.62,1.96,11.06
		c1.59,3.33,3.89,6.25,5.87,9.35c-4.5-2.58-7.24-7.08-9.17-11.73C176.36,322.64,176.45,320.23,176.46,317.91z"/>
	<path fill="#010102" d="M176.08,334.06c0.37-1.01,0.76-2,1.16-3c1.25,4.84,3.07,9.51,5.51,13.88c-0.67,0.12-2.01,0.38-2.68,0.5
		C178.72,341.72,174.08,338.29,176.08,334.06z"/>
	<path fill="#010102" d="M210.81,346.07c0.2-2.58,0.39-5.15,0.68-7.72c2.14,2.59,3.89,5.48,5.07,8.64
		C214.64,346.7,212.72,346.37,210.81,346.07z"/>
	<path fill="#010102" d="M204.13,346.49c1.27-2.21,2.58-4.39,4.01-6.5c0.86,3.08,1.25,6.31,0.38,9.44
		c-1.59,5.92,0.95,11.79,2.44,17.45c2.7-1.16,5.69-1.97,7.89-4.01c1.87-2.3,2.34-5.35,3.23-8.09c1.28-0.19,2.56-0.38,3.84-0.56
		c2.88,3.68,5.51,7.72,9.32,10.53c3.12,2.45,6.98-0.15,10.22-0.96c0.65,3.26-0.36,6.35-2.61,8.77c-1.92-3.27-5.23-4.91-8.93-5.12
		c-2.35-4.53-5.58-8.52-9.59-11.68c-1.28,3.81-2.57,8.14-6.35,10.23c-3.12,2.19-7.16,2.02-10.67,1c0.57-1.31,1.15-2.62,1.73-3.91
		c-1.02-0.44-2.04-0.88-3.05-1.3c0.14-1.63,0.4-3.24,0.6-4.85c0.11-1.65,0.19-3.35-0.31-4.94c-1.56-2.03-3.91-3.21-6-4.59
		C201.56,347.1,202.84,346.79,204.13,346.49z"/>
	<path fill="#010102" d="M225.62,343.47c0.37,0.75,0.75,1.51,1.14,2.26c-0.14,1.05-0.29,2.11-0.44,3.18
		c0.38-0.05,1.14-0.13,1.52-0.18c-0.4,1.13-0.79,2.26-1.18,3.39c-1.55-1.61-3.11-3.21-4.68-4.8
		C223.19,346.03,224.41,344.75,225.62,343.47z"/>
	<path fill="#010102" d="M184.43,360.37c1.55-2.56,3.86-4.46,6.48-5.87c0.53,1.27,1.12,2.51,1.77,3.73
		c0.12,0.23,0.35,0.67,0.47,0.89c-1.85-0.26-3.7-0.49-5.55-0.71c1.3,1.72,2.65,3.4,3.79,5.24c-3.24,0.1-6.6,0.5-9.34,2.38
		c-2.64,1.38-5.43,4.15-8.59,2.47C177.45,366.3,181.84,364.32,184.43,360.37z"/>
	<path fill="#010102" d="M164.32,360.35c2.4-2.45,6.07-1.96,9.15-1.54c-0.42,0.99-1.04,1.74-1.86,2.26
		c-1.67,0.53-3.57,0.59-5.02,1.67c-1.51,2.29-1.32,5.37-0.36,7.84c0.79,2.33,3.66,2.34,5.69,2.59c8.74,0.35,17.43-0.95,26.11-1.75
		c1.28-0.03,2.57,0,3.86,0.07c9.26,1.33,18.42-0.95,27.66-0.99c2.13,0.01,4.27,0.09,6.4,0.23c0.42,0.35,1.26,1.05,1.68,1.4
		c-3.72,1.07-7.57,1.24-11.41,1.14c-10.08,0.53-20.14,1.55-30.24,1.29c-9.22,0.89-18.51,1.5-27.77,1.01
		C161.32,374.37,160.77,365.05,164.32,360.35z"/>
	<path fill="#737B4F" d="M202.19,12.26c1.43-0.48,2.67,2.01,0.98,2.45C201.72,15.18,200.49,12.73,202.19,12.26z"/>
	<path fill="#737B4F" d="M191.93,42.05c1.27-0.45,2.56-0.89,3.84-1.33c0.46,1.13,0.92,2.27,1.37,3.4c-1.05,0.4-2.11,0.78-3.17,1.16
		C193.29,44.2,192.61,43.12,191.93,42.05z"/>
	<path fill="#737B4F" d="M245.94,113.37c0.77-0.22,2.29-0.65,3.06-0.87c0.2,1.12,0.43,2.23,0.67,3.34
		c-0.84,0.51-1.68,1.02-2.53,1.52C246.75,116.02,246.35,114.69,245.94,113.37z"/>
	<path fill="#737B4F" d="M231.56,120.02c2.17,0.84,4.34,1.66,6.53,2.47c-0.68,2.08-1.39,4.14-2.19,6.17c-0.25,0.25-0.75,0.73-1,0.98
		c-1.31-0.66-2.61-1.33-3.9-2.03C231.21,125.08,231.37,122.55,231.56,120.02z"/>
	<path fill="#737B4F" d="M191.03,205.73c2.61,1.2,1.79,4.35,2.06,6.67C190.76,210.88,188.82,208.31,191.03,205.73z"/>
	<path fill="#737B4F" d="M205.99,361.78c1.01,0.42,2.03,0.86,3.05,1.3c-0.58,1.29-1.16,2.6-1.73,3.91
		C206.86,365.25,206.41,363.52,205.99,361.78z"/>
	<path fill="#7C741C" d="M208.49,12.27c3.64-0.06,7.35-0.55,10.95,0.23c2.21,1.06,3.86,2.96,5.65,4.59c-0.95,1.53-1.9,3.07-2.85,4.6
		c1.27-0.15,2.54-0.31,3.81-0.46c0.3,0.91,0.59,1.82,0.89,2.73c-2.65,1.52-5.36,2.92-8.09,4.26c-1.48-3.37-2.38-7.26-5.3-9.74
		C211.5,16.72,209.79,14.63,208.49,12.27z"/>
	<path fill="#7C741C" d="M198.36,17.73c1.2-0.74,2.35-1.57,3.47-2.43c3.89,3.57,6.51,8.24,9.42,12.58
		c-1.98-0.15-3.96-0.38-5.93-0.52c-0.3,1.75-0.88,3.63-0.03,5.33c2.59,6.21,5.67,12.26,7.52,18.75c-3.14-1.37-6.32-2.62-9.52-3.83
		c1.38-3.03,4.75-7.48,0.96-10.1c-4.07-3.05-9.27-7.23-14.64-4.98c-1.25,0.41-2.49,0.88-3.72,1.34c0.18-2.01,0.37-4.03,0.57-6.05
		c-0.76-0.23-1.51-0.48-2.25-0.72c-0.34,1.05-0.65,2.1-0.94,3.17c-0.12-2.71-0.02-5.43,0.22-8.13c0.27,1.15,0.54,2.3,0.81,3.45
		c4.07,0.04,8.3-0.11,11.64-2.72c-2.16,0.33-4.31,0.74-6.45,1.22c1.01-2.29,2.08-4.55,3.07-6.84
		C194.49,17.47,196.42,17.64,198.36,17.73 M197.17,23.64c-0.16,0.91-0.49,2.73-0.65,3.64c1.5,0.88,2.97,1.81,4.58,2.48
		c1.5,0.12,2.98-0.99,3.11-2.53c-1.16-0.63-2.45-0.93-3.68-1.36C199.37,25.17,198.4,24.2,197.17,23.64z"/>
	<path fill="#7C741C" d="M215.11,26.51c3.51,1.78,3.72,5.73,4.12,9.17c2.27,0.34,4.54,0.67,6.81,1.05
		c-0.59,1.91-1.15,3.84-1.98,5.66c1.35,1.78,2.76,3.52,4.14,5.28c-2.97,0.44-6.22,1.9-9.11,0.43c-1.41-2.13-1.63-4.86-3.16-6.91
		c-1.83-1-3.87-1.52-5.84-2.18c0.3-1.28,0.61-2.57,0.89-3.85c1.93,0.6,3.87,1.2,5.81,1.83c-1.33-1.34-2.73-2.63-3.77-4.22
		C212.32,30.43,214.09,28.43,215.11,26.51z"/>
	<path fill="#7C741C" d="M250.7,96.02c2.62,3.83,5.45,7.89,5.45,12.73l-1.05,0.18c0.02-1.58,0.03-3.16,0.05-4.74
		c-0.29-0.24-0.88-0.73-1.17-0.97c-0.89,1.36-1.67,2.81-2.81,3.98c-1.53,0.12-3.06-0.05-4.57-0.23c1.68-1.94,3.37-3.89,5.19-5.7
		C251.46,99.52,251.12,97.76,250.7,96.02z"/>
	<path fill="#7C741C" d="M231.23,112.27c5.72-2.98,8.33-10.18,15.05-11.35c-1.66,2.72-3.86,5.07-5.39,7.87
		c-0.74,2.52-0.35,5.27-1.34,7.73c-1.04,1.87-3.17,2.66-4.89,3.74c0.49-2.87,1.61-5.59,3.37-7.92c-2.19,1.29-4.55,2.26-6.96,3.05
		C231.11,114.61,231.19,113.05,231.23,112.27z"/>
	<path fill="#7C741C" d="M183.8,120.77c2.29,0.72,4.58,1.48,6.84,2.31c-0.11,0.51-0.33,1.53-0.44,2.04
		c-1.54,2.1-3.92,2.66-6.37,2.21C183.85,125.15,183.88,122.96,183.8,120.77z"/>
	<path fill="#7C741C" d="M183.84,144.8c1.51,0.28,3.02,0.56,4.54,0.85c0.63,1.21,1.23,2.43,1.85,3.65
		c-1.27,0.88-2.39,2.58-4.07,2.51c-1.34-0.74-2.64-1.57-3.89-2.46C182.79,147.83,183.32,146.32,183.84,144.8z"/>
	<path fill="#7C741C" d="M194.19,152.63c1.96-1.1,2.7,2.85,0.62,2.95C193.41,155.47,193.16,153.37,194.19,152.63z"/>
	<path fill="#7C741C" d="M193.36,278.35c2.3-2.47,5.71-3.34,8.74-4.56c0.06,7.48,0.83,14.95,3.4,22.03
		c-2.87-2.24-5.89-4.3-8.49-6.86C194.21,286.25,193.06,282.16,193.36,278.35z"/>
	<path fill="#7C741C" d="M226.76,345.73c3.71-0.12,7.41-0.3,11.11-0.45c-0.16,0.45-0.47,1.35-0.63,1.8
		c-3.12,0.64-6.24,1.29-9.4,1.65c-0.38,0.05-1.14,0.13-1.52,0.18C226.47,347.84,226.62,346.78,226.76,345.73z"/>
	<path fill="#7C741C" d="M198.03,371.42c0.27-3.19,0.59-6.37,0.85-9.56c0.87,3.25,1.84,6.48,3.01,9.63
		C200.6,371.42,199.31,371.39,198.03,371.42z"/>
	<path fill="#7C741C" d="M233.92,367.44c3.7,0.21,7.01,1.85,8.93,5.12l0.44,0.54c-1.89-0.28-3.84-0.37-5.66-0.97
		c-0.42-0.35-1.26-1.05-1.68-1.4c-2.13-0.14-4.27-0.22-6.4-0.23C231,369.48,232.46,368.46,233.92,367.44z"/>
	<path fill="#7F5907" d="M191.23,33.31c4.46,0.99,8.66,2.87,13.02,4.2c3.79,2.62,0.42,7.07-0.96,10.1c3.2,1.21,6.38,2.46,9.52,3.83
		c-1.81,3.27-4.71,6.41-4.58,10.37c0.96,2.52,3.42,4.1,5.25,5.99c3.55-5.34,4.92-11.63,5.48-17.93c6.57,1.22,13.36,5.68,14.7,12.53
		c-2.49,0.53-5.03,0.76-7.56,1.03c3.55,2.43,7.34,5.19,8.26,9.69c-3.13,1.38-6.05,3.28-8.06,6.11c4.38,1.29,9,0.26,13.4,1.26
		c5.77,1.69,4.52,9.36,9.03,12.41c0.46,0.38,0.94,0.74,1.43,1.1c-5.38,2.93-9.64,7.34-13.68,11.85c-2.86-1.95-5.89-3.65-8.7-5.68
		c-2.21-1.34-2.39-4.15-3.13-6.38c-1.51,0.7-3.1,1.23-4.5,2.14c-0.97,2.13-0.45,4.57-0.21,6.82c0.69,4.13,1.16,8.32,0.81,12.5
		c-2.8-3.15-6.23-5.82-8.43-9.47c-1.38-2.8-0.98-6.05-1.23-9.06c-0.46,0.05-1.39,0.15-1.85,0.2c0.11,1.91,1.37,4.33-0.43,5.83
		c-3.14,3.35-7.76,4.44-11.79,6.3c0.96-1.37,2.23-2.73,2.32-4.48c-1.67-1.53-3.63-2.68-5.48-3.97c0.56-1.93,1.17-3.85,1.7-5.78
		c-0.76-0.21-1.52-0.42-2.29-0.61c-2.12,2.35-4.2,4.75-6.36,7.07c-1.89-0.56-3.76-1.18-5.64-1.75c-0.18,1.22-0.33,2.44-0.44,3.66
		c-0.9,1.21-2.22,1.91-3.73,1.64c-0.94-1.12-1.83-2.27-2.7-3.43c5.41-3.82,10.18-8.74,13.33-14.6c1.11-0.3,2.23-0.6,3.35-0.88
		c-0.59,1.16-1.16,2.33-1.72,3.49c2.68-1.94,5.65-4.15,6.19-7.66c1.05-5.89,0.88-12.04,3.24-17.66c-1.75,1.98-3.57,3.96-5.88,5.32
		c-3.04-0.81-5.73-2.49-8.36-4.17c0.18-0.38,0.52-1.12,0.7-1.5c1.58-1.52,3.22-2.99,4.9-4.4c-2.4-2.36-5.03-4.45-7.72-6.45
		c-0.99-0.9-1.86-1.9-2.58-3.02c2.55,0.93,5.23,1.46,7.85,2.15c0.01-1.75,0-3.5,0.01-5.26c-0.77,0.99-1.51,1.98-2.23,3
		c-1.64-0.64-3.4-0.87-5.04-1.51C183.66,43.04,186.45,37.29,191.23,33.31 M190.13,35.59c-0.35,3.32-1.13,6.67-0.56,10.01
		c0.38,0.13,1.13,0.39,1.51,0.52c-0.24,2.91-1.24,6.03-0.11,8.86c2.2,3.45,6.52,4.39,10.04,5.96c1.06-1.76,3.27-3.39,2.74-5.67
		c-2.23-3.14-4.86-6.08-6.08-9.82c0.59-0.41,1.77-1.24,2.36-1.65c-1.24-2.29-2.33-4.73-4.15-6.63
		C194.42,35.58,192.05,36.01,190.13,35.59 M210.69,72.77c0.94,0.05,2.82,0.16,3.76,0.22c-0.39-1.21-0.84-2.38-1.35-3.52
		C212.19,70.49,211.48,71.66,210.69,72.77 M204.44,74.98c1.76,3.86,5.25,6.41,8.34,9.15c-0.83,2.46-1.54,4.96-2.01,7.51
		c2.25-1.19,2.97-3.69,4.2-5.72c3.48-1.38,7.73-1.05,10.35-4.19c-1.91-0.09-3.83-0.12-5.74-0.19
		C215.74,77.25,210.26,74.57,204.44,74.98 M209.44,93.4c-1.34,1.34,0.92,3.62,2.26,2.27C213.04,94.34,210.77,92.05,209.44,93.4z"/>
	<path fill="#7F5907" d="M149.17,88.58c7.18,1.88,12.81,6.95,19.47,9.94c2.51,1.56,5.04-0.33,7.24-1.52
		c-4.69,3.13-8.67,7.11-12.12,11.55c-0.82,0.59-1.64,1.17-2.47,1.74c-2.07-0.73-4.13-1.48-6.2-2.2c1.08,1.44,2.13,2.89,3.22,4.32
		l-0.59,0.42c-2.57-1.25-5.17-2.44-7.86-3.4c3.17-2.73,6.77-4.94,10.75-6.25c-2.53-1.68-5.13-3.36-7.14-5.68
		C151.29,94.95,150.34,91.66,149.17,88.58z"/>
	<path fill="#7F5907" d="M141.73,96.98c0.99-0.51,1.96-1.09,3.03-1.43c2.56,0.17,5.51,0.23,7.48,2.12c1.62,2.1,1.63,4.93,2.25,7.41
		c-2.24,0.39-4.47,0.82-6.72,1.16c-0.29-1.23-0.58-2.45-0.87-3.68c-0.37-0.09-1.1-0.26-1.47-0.34c-0.25,0.67-0.75,2.02-1,2.69
		C143.47,102.29,142.55,99.65,141.73,96.98z"/>
	<path fill="#7F5907" d="M250.5,109.61c1.53-0.26,3.06-0.46,4.6-0.68l1.05-0.18c0,0.47-0.01,1.4-0.01,1.87
		c-0.33,6.52,4.03,12.05,4.59,18.42c0.22,2.88-2.42,4.81-4.56,6.2c-5.77,3.39-12.13,5.63-18.47,7.69c-1.31-2.4-2.64-4.79-4.05-7.14
		c0.7,3.58,1.75,7.07,2.95,10.51c-2.03,1.15-3.9,3.09-6.4,2.95c-1.68-2.59-3.33-6.37-1.2-9.17c2.42-3.21,4.77-6.53,5.9-10.44
		c0.25-0.25,0.75-0.73,1-0.98c3.43-3.5,7.41-6.57,12.39-7.37c-0.4-1.31-0.77-2.62-1.15-3.93c0.85-0.5,1.69-1.01,2.53-1.52
		c-0.24-1.11-0.47-2.22-0.67-3.34C249.49,111.53,249.99,110.57,250.5,109.61z"/>
	<path fill="#7F5907" d="M215.09,135.15c1.05,0.97,2.11,1.93,3.17,2.91c1.93-0.25,3.85-0.58,5.78-0.82
		c1.04,3.47,2.09,6.93,3.29,10.34c-2.04,1.61-4.02,3.95-6.87,3.79c-5.86,0.06-12.06-0.42-17.42,2.44c-0.98,0.46-1.96,0.93-2.93,1.41
		c0.48-1.74,1-3.47,1.48-5.21c2.18-2.32,4.33-4.69,6.68-6.85c2.31-1.4,4.79-2.48,7.26-3.57
		C215.38,138.11,215.23,136.63,215.09,135.15z"/>
	<path fill="#7F5907" d="M187.43,186.73c7.77,5.73,14.19,13.04,21.5,19.32c2.9,2.89,6.16,5.4,9.73,7.42
		c5.98,3.43,11.48,7.89,18.11,10.07c0.22,0.76,0.67,2.28,0.9,3.04c-4.08-1.46-8.08-3.12-12.15-4.62c2.65,2.54,5.62,4.7,8.77,6.56
		c-0.35,4.28,1.23,8.28,2.31,12.33c-0.32,2.94-2.48,5.32-4.66,7.14c-1.96,1.93-4.76,0.53-7.06,0.28c0.15,2.22,0.29,4.43,0.46,6.65
		c4.97-0.11,9.73,1.45,13.69,4.45c-0.56,2.28-0.95,4.6-1.31,6.91c-2.72,7.56-2.87,16.45,1.91,23.24c0.15-0.65,0.44-1.96,0.58-2.61
		c0.87,1.32,1.93,2.5,2.83,3.8c-0.3,3.24,1.09,6.29,1.98,9.35c2.13,6.92,0.6,14.31,2.47,21.29c-0.29,1.06-0.61,2.11-0.94,3.16
		c-3.12,4.45-3.37,9.92-4.22,15.09c-0.64,4.34-3.6,9.16-0.32,13.13c0.77,3.79,1.86,7.52,3.45,11.06c-3.24,0.81-7.1,3.41-10.22,0.96
		c-3.81-2.81-6.44-6.85-9.32-10.53c0.18-0.52,0.56-1.57,0.74-2.1c0.39-1.13,0.78-2.26,1.18-3.39c3.16-0.36,6.28-1.01,9.4-1.65
		c0.16-0.45,0.47-1.35,0.63-1.8c-3.7,0.15-7.4,0.33-11.11,0.45c-0.39-0.75-0.77-1.51-1.14-2.26l-0.32-0.67
		c3.05,0.07,2.09-4.52-0.69-3.32c-0.02-0.35-0.06-1.06-0.08-1.41c-0.22-7.78-1.16-15.55-3.05-23.1c-0.65,0.14-1.95,0.42-2.6,0.57
		c-0.31,0.06-0.93,0.18-1.24,0.24c0.33-0.82,0.67-1.65,0.99-2.48c1.65-3.44,0.7-7.21-0.45-10.63c-0.15,1.5-0.27,3.01-0.36,4.53
		c-0.1-1.95-0.19-3.9-0.33-5.84c0.07-6.7-4.41-12.19-5.74-18.57c-2.07-8.96-3.79-18.04-4.49-27.21c2.42-0.58,4.85-1.1,7.26-1.72
		c0.95-2.85,1.76-5.75,2.87-8.55c3.35,3.14,1.52,7.65,1.12,11.53c1-1.49,3.16-2.56,3.05-4.57c-0.18-3.32-1.24-6.5-2.07-9.69
		c1.45-1.6,3.08-3.11,4.1-5.05c1.14-3.64-1.21-7.06-3.03-10.03c-0.23,2.93-0.19,5.88-0.67,8.78c-0.53,3.37-2.93,5.97-4.73,8.73
		c-2.32-6.21-8.53-10.6-8.58-17.64c-1.32,0.45-2.64,0.9-3.96,1.35c-0.19-3.32-0.72-6.95,1.17-9.92c1.89-3.69,7.33-4.73,10.58-2.24
		c3.36,2.03,4.98,5.75,6.36,9.25c0.72-2.25,1.48-4.5,2.26-6.73c-5.46-3.46-11.39-6.42-15.79-11.28c-3.33-3.74-7.17-6.94-11.19-9.89
		C192.17,195.05,189.38,191.06,187.43,186.73 M212.01,217.33c0.59,3.61,1.11,7.57,4,10.14
		C215.87,223.78,215.83,219.18,212.01,217.33 M234.06,270.72c1.46-3.58,0.35-7.34-1.4-10.59
		C231.03,263.7,231.57,267.67,234.06,270.72 M229.69,288.37c1.64,4.96,2.11,10.16,2.86,15.31c0.95,4.42,2.18,10.05,7.44,10.96
		c-0.6-4.21-3.43-7.4-5.5-10.93c-0.65-3.84,0.22-7.78-0.44-11.62c-0.67-3.91-2.5-7.49-4.32-10.97
		C229.25,283.52,228.79,286,229.69,288.37z"/>
	<path fill="#7F5907" d="M187.37,220.71c1.39,2.02,3.02,4.03,3.55,6.48c0.48,2.15-0.9,4.07-2.08,5.71
		C183.89,230.75,186.67,224.6,187.37,220.71z"/>
	<path fill="#7F5907" d="M185.45,246.28c3.8,0.14,8-0.26,11.35,1.9c1.69,2.91,1.72,6.42,2.31,9.67c0.65,5.38,2.38,10.55,2.99,15.94
		c-3.03,1.22-6.44,2.09-8.74,4.56c-0.3,3.81,0.85,7.9,3.65,10.61c2.6,2.56,5.62,4.62,8.49,6.86c2.14,7.44-0.09,15.76,4.17,22.64
		c0.2-3.95,0.23-7.91,0.48-11.86c1.06,2.31,2.7,4.75,1.93,7.42c-1.65,8.37-6.53,16.67-4.08,25.38l0.14,0.59
		c-1.43,2.11-2.74,4.29-4.01,6.5c-1.29,0.3-2.57,0.61-3.85,0.91c2.09,1.38,4.44,2.56,6,4.59c0.5,1.59,0.42,3.29,0.31,4.94
		c-1.65-0.14-3.33-0.59-4.98-0.26c-1.89,1.38-3.63,2.96-5.45,4.43c-1.26-0.83-2.39-1.83-3.48-2.87c-0.65-1.22-1.24-2.46-1.77-3.73
		c-0.7-1.79-1.29-3.61-1.89-5.43c1.47,1.21,2.95,2.42,4.41,3.65c-0.73-2.13-1.55-4.23-2.25-6.36c0.93-0.53,1.86-1.05,2.8-1.57
		c-1.46-7.18-1.72-14.51-1.99-21.81c-0.2-6.81-2.48-13.34-2.81-20.13c-0.31-3.33-0.2-6.75-1.21-9.96c-0.3-1.32-1.76-1.7-2.81-2.23
		l-0.74-0.15l-0.72-0.15c0.41-0.5,1.23-1.51,1.64-2.01c0.68-2.03,0.93-4.18,0.85-6.31C185.85,270.12,183.84,258.19,185.45,246.28z"
		/>
	<path fill="#7F5907" d="M201.97,262.63c3.87,1.52,5.84,5.39,5.9,9.4c0.51,11.1,8.52,21.8,3.95,32.97
		c-2.11-0.01-2.17-2.51-2.85-3.97c-1.41-4.99-2.9-9.95-4.21-14.95c-1.38-4.79,0.98-9.74-0.35-14.52
		C203.65,268.57,202.62,265.65,201.97,262.63z"/>
	<path fill="#7E0206" d="M193.97,45.28c1.06-0.38,2.12-0.76,3.17-1.16c0.13,0.34,0.4,1,0.53,1.33c1.22,3.74,3.85,6.68,6.08,9.82
		c0.53,2.28-1.68,3.91-2.74,5.67c-3.52-1.57-7.84-2.51-10.04-5.96c-1.13-2.83-0.13-5.95,0.11-8.86
		C192.05,45.87,193.02,45.59,193.97,45.28z"/>
	<path fill="#7E0206" d="M202.25,110.34c2.43-1.29,5.51-3.67,8.27-1.89c2.41,1.9,3.24,5.06,4.53,7.72c2.52,1.33,5.03,2.67,7.53,4.03
		c0.12,1,0.22,2,0.28,3.01c-0.16,2.32,0.43,5.3-1.81,6.84c-5.5,4.5-12.16,7.61-19.26,8.44c2.18,1.53,4.34,3.07,6.48,4.67
		c-2.35,2.16-4.5,4.53-6.68,6.85c-4.63-1.67-9.22-3.43-13.74-5.36c0.14,0.25,0.4,0.75,0.53,1c-1.52-0.29-3.03-0.57-4.54-0.85
		c-0.61-2.13-1.47-4.25-1.45-6.5c0.8-3.02,2.94-5.71,5.61-7.32c2.29-0.89,4.83-0.55,7.24-0.64c-1.33-2.1-2.61-4.24-4-6.3
		c-0.26,0.27-0.78,0.81-1.04,1.08c0.11-0.51,0.33-1.53,0.44-2.04C190.96,116.45,197.5,113.59,202.25,110.34 M193.67,135.64
		c1.46-0.23,2.93-0.48,4.4-0.72c-0.11-0.83-0.34-2.49-0.45-3.32C196.18,132.83,194.73,134.05,193.67,135.64z"/>
	<path fill="#7E0206" d="M220.46,151.37c2.85,0.16,4.83-2.18,6.87-3.79c0.61,1.85,1.21,3.7,1.82,5.55
		c-3.25-0.08-6.48-0.42-9.73-0.48c-3.08-0.03-5.91,1.44-8.95,1.72c-2.49,0.06-4.96-0.28-7.43-0.56
		C208.4,150.95,214.6,151.43,220.46,151.37z"/>
	<path fill="#7E0206" d="M190.08,160.87c6.71-3.67,13.86,1.51,18.28,6.42c6.82-1.59,13.86-1.51,20.82-1.21l0.93,0.02
		c3.08,4.81,7.83,8.47,9.96,13.88c1.87,4.26,2.04,9.02,3.64,13.37c0.7,2.33,1.96,4.54,2.07,7.01c-0.38,7.42,0.62,14.83,0.14,22.26
		c-3.05,0.35-6.09,0.76-9.15,0.92c-6.63-2.18-12.13-6.64-18.11-10.07c-3.57-2.02-6.83-4.53-9.73-7.42c0.48,0.01,1.45,0.02,1.94,0.02
		c-6.09-6.25-13.23-11.41-18.95-18.04c-1.17-1.43-2.41-3.04-2.4-4.98c-0.08-6.1,1.86-12.09,4.84-17.36c-0.64-0.67-1.28-1.33-1.9-2
		C191.63,162.77,190.83,161.84,190.08,160.87z"/>
	<path fill="#7F0613" d="M186.91,101.28c2.16-2.32,4.24-4.72,6.36-7.07c0.77,0.19,1.53,0.4,2.29,0.61c-0.53,1.93-1.14,3.85-1.7,5.78
		c1.85,1.29,3.81,2.44,5.48,3.97c-0.09,1.75-1.36,3.11-2.32,4.48c-2.79,2.52-5.12,5.59-8.25,7.72c-2.78,0.08-4.28-3.09-6.28-4.63
		c0.5,2.87,1.01,5.73,1.31,8.63c0.08,2.19,0.05,4.38,0.03,6.56c-2.29,1.21-4.39,2.93-6.96,3.48c-3.91-0.26-7.7-1.53-11.64-1.6
		c-0.74-0.04-1.47-0.1-2.2-0.14l-0.4-0.57c-2.69-3.98-5.58-7.83-7.82-12.08c0.81-1.31,1.73-2.59,2.91-3.59l0.59-0.42
		c0.99-0.71,1.98-1.42,2.98-2.12c0.83-0.57,1.65-1.15,2.47-1.74c0.8-0.26,1.61-0.5,2.43-0.73c2.57-2.35,5.29-4.53,8.21-6.42
		c0.87,1.16,1.76,2.31,2.7,3.43c1.04,1.08,2.14,2.11,3.3,3.07c0.1-1.58,0.24-3.14,0.43-4.71c0.11-1.22,0.26-2.44,0.44-3.66
		C183.15,100.1,185.02,100.72,186.91,101.28z"/>
	<path fill="#7F0613" d="M220.15,95.93c1.4-0.91,2.99-1.44,4.5-2.14c0.74,2.23,0.92,5.04,3.13,6.38c2.81,2.03,5.84,3.73,8.7,5.68
		c-1.91,1.82-3.96,3.47-6.02,5.1c-2.2-2.57-4.45-5.1-6.76-7.56c2.69,5.53,5.59,11.15,6.24,17.36c-1.65,0.32-3.29,0.74-4.96,0.93
		c-0.71,0.51-1.42,1.01-2.12,1.53c-0.06-1.01-0.16-2.01-0.28-3.01c-0.47-1.7-1.12-3.34-1.83-4.95c0.35-4.18-0.12-8.37-0.81-12.5
		C219.7,100.5,219.18,98.06,220.15,95.93z"/>
	<path fill="#7F0613" d="M238.56,230.14c1.48-0.05,2.97-0.09,4.45-0.13c-0.05,1.48-0.11,2.95-0.18,4.43
		C240.45,233.99,238.87,232.6,238.56,230.14z"/>
	<path fill="#7F0613" d="M201.61,356.67c1.65-0.33,3.33,0.12,4.98,0.26c-0.2,1.61-0.46,3.22-0.6,4.85c0.42,1.74,0.87,3.47,1.32,5.21
		c3.51,1.02,7.55,1.19,10.67-1c3.78-2.09,5.07-6.42,6.35-10.23c4.01,3.16,7.24,7.15,9.59,11.68c-1.46,1.02-2.92,2.04-4.37,3.06
		c-9.24,0.04-18.4,2.32-27.66,0.99c-1.17-3.15-2.14-6.38-3.01-9.63c-0.26,3.19-0.58,6.37-0.85,9.56c-8.68,0.8-17.37,2.1-26.11,1.75
		c-2.03-0.25-4.9-0.26-5.69-2.59c-0.96-2.47-1.15-5.55,0.36-7.84c1.45-1.08,3.35-1.14,5.02-1.67c-0.5,1.9-1.07,3.79-1.61,5.7
		c1.15,0.58,2.27,1.23,3.46,1.73c3.16,1.68,5.95-1.09,8.59-2.47c2.74-1.88,6.1-2.28,9.34-2.38c-1.14-1.84-2.49-3.52-3.79-5.24
		c1.85,0.22,3.7,0.45,5.55,0.71c-0.12-0.22-0.35-0.66-0.47-0.89c1.09,1.04,2.22,2.04,3.48,2.87
		C197.98,359.63,199.72,358.05,201.61,356.67z"/>
	<path fill="#777F34" d="M188.34,155.94c1.35-1.64,2.96-3.04,4.69-4.27c-0.4,2.63-1.39,5.61-4.25,6.43
		c-2.84,1.01-4.37-2.19-5.96-3.89C184.66,154.78,186.5,155.35,188.34,155.94z"/>
	<path fill="#777F34" d="M185.76,192.75c3.7,0.62,6.13,3.98,7.06,7.4c1.07,2.15-1.79,2.3-3.08,3.19
		C188.14,199.92,186.71,196.41,185.76,192.75z"/>
	<path fill="#777F34" d="M194.12,201.55c1.45,0.13,1.71,0.76,0.76,1.9C193.43,203.31,193.17,202.68,194.12,201.55z"/>
	<path fill="#777F34" d="M197.92,202.47c4.05,2.53,4.43,7.34,5.07,11.61c-1.94,1.12-3.88,2.22-5.81,3.36
		C196.79,212.45,196.6,207.35,197.92,202.47z"/>
	<path fill="#777F34" d="M206.1,210.24c1.79-0.61,2.39,2.33,0.63,2.7C204.92,213.57,204.33,210.61,206.1,210.24z"/>
	<path fill="#777F34" d="M179.42,227.74l-0.33,0.84c-0.61,4.37-1.21,8.74-1.61,13.13c1.09-3.05,2.11-6.13,3.29-9.14
		c0.35,2.06,1.75,4.03,1.23,6.18c-0.75,1.64-1.72,3.16-2.7,4.67c1.51,0.92,3.05,1.82,4.32,3.06c1.3,3.62,0.45,7.55,0.13,11.27
		c-1.57-3.23-2.86-6.59-4.07-9.96c-0.34,7.16,3.6,13.53,3.84,20.61c0.27,6.68,0.44,13.39,1.82,19.95c-0.41,0.5-1.23,1.51-1.64,2.01
		c-3.02-5.09-3.33-11.11-4.04-16.83c-0.28-3.72-1.75-7.34-1.28-11.1c0.52-4.8,1.21-9.63,0.78-14.47c-0.24-2.86-2.19-5.2-2.75-7.96
		C176.94,235.82,177.88,231.66,179.42,227.74z"/>
	<path fill="#777F34" d="M243.02,248.4c0.02-6.33,1.31-13.06,5.29-18.16c-0.6,6.31,0.55,12.54,3.03,18.35
		c0.98-0.46,1.97-0.92,2.96-1.37c0.96,1.77,2.06,3.48,2.73,5.39c-2.53,2-3.49,5.05-3.16,8.2c-0.31-1.37-0.54-2.76-0.69-4.15
		c0.21-1.31,0.44-2.63,0.7-3.93c-0.16-0.25-0.49-0.76-0.65-1.02C249.6,252.03,245.2,251.79,243.02,248.4z"/>
	<path fill="#777F34" d="M189.07,242.78c1.39-0.54,2.78-1.09,4.17-1.64c0.31,1.24,0.62,2.48,0.91,3.73c-1.67-0.03-3.33-0.14-5-0.17
		C189.13,244.22,189.09,243.26,189.07,242.78z"/>
	<path fill="#777F34" d="M199.85,251.56c4.4,1.65,6.53,6.22,6.37,10.72C202.93,259.52,201.06,255.59,199.85,251.56z"/>
	<path fill="#777F34" d="M241.82,252.09c2.97,1.26,5.99,2.43,8.98,3.66c-2.54,8.65-3.74,17.59-4.28,26.57
		c3.98-6.15,3.8-13.58,4.59-20.57c4.8,7.48,2.33,16.61,3.4,24.91c0.31,4.4,1,8.86,0.29,13.26c-0.65,3.64-2.21,7.03-3.4,10.51
		c3.76-3.19,6.23-7.64,6.34-12.63c-0.07,4.93,0.42,9.86,0.29,14.79c-0.41,4.24-1.93,8.24-3.22,12.26
		c-1.17,3.64,0.13,7.51-0.75,11.18c-1.64,5.01-4.93,10.55-10.87,10.62c0.77-7.43,1.92-14.82,3.36-22.14
		c0.33-1.05,0.65-2.1,0.94-3.16c1.26-4.04,1.21-8.3,0.66-12.45c-0.83-6.24-1.12-13-5.11-18.19c-0.9-1.3-1.96-2.48-2.83-3.8
		c-2.3-6.64-1.89-13.73-2.49-20.63c0.36-2.31,0.75-4.63,1.31-6.91C239.82,256.89,240.82,254.49,241.82,252.09z"/>
	<path fill="#777F34" d="M177.78,291.42c2.19-0.46,4.41-0.67,6.64-0.91l0.74,0.15c3.42,7.7,1.26,16.32,3.8,24.2
		c1.91,6.21,0.98,12.75,1.56,19.12c0.16,2.93,0.72,5.87,0.37,8.81c-0.56,1.99-1.87,3.66-2.93,5.41c-2.64-0.9-5.28-1.8-7.89-2.76
		c0.67-0.12,2.01-0.38,2.68-0.5c-2.44-4.37-4.26-9.04-5.51-13.88c-0.4,1-0.79,1.99-1.16,3c0.29-3.11,0.77-6.19,1.29-9.26
		c1.93,4.65,4.67,9.15,9.17,11.73c-1.98-3.1-4.28-6.02-5.87-9.35c-1.63-3.44-1.64-7.34-1.96-11.06c-0.76,0.59-1.51,1.18-2.25,1.79
		c-0.65-6.31-0.29-12.7,1.68-18.75c1.52,3.24,3.57,6.19,5.64,9.11c-1.29-3.78-2.45-7.61-3.38-11.49c0.73-0.19,2.19-0.57,2.92-0.76
		c-1.83-0.87-3.65-1.75-5.48-2.6C177.83,292.92,177.8,291.92,177.78,291.42 M177.27,311.78c2.59,3.68,6.26,6.47,9.75,9.26
		c-1.36-2.28-3.04-4.34-4.75-6.37c-2.28-2.69-2.89-6.3-4.5-9.37C175.84,306.69,176.81,309.79,177.27,311.78z"/>
	<path fill="#777F34" d="M213.93,297.7c0.72,0.22,2.17,0.67,2.89,0.9c0.17,0.69,0.5,2.07,0.67,2.76c0.14,1.94,0.23,3.89,0.33,5.84
		c0.12,2.05,0.46,4.08,0.81,6.1c-0.32,0.83-0.66,1.66-0.99,2.48c0.31-0.06,0.93-0.18,1.24-0.24c3.13,7.17,2.94,15.21,5.65,22.53
		c0.02,0.35,0.06,1.06,0.08,1.41c-0.08,1.17,0.15,2.28,0.69,3.32l0.32,0.67c-1.21,1.28-2.43,2.56-3.64,3.85
		c1.57,1.59,3.13,3.19,4.68,4.8c-0.18,0.53-0.56,1.58-0.74,2.1c-1.28,0.18-2.56,0.37-3.84,0.56c-0.89,2.74-1.36,5.79-3.23,8.09
		c-2.2,2.04-5.19,2.85-7.89,4.01c-1.49-5.66-4.03-11.53-2.44-17.45c0.87-3.13,0.48-6.36-0.38-9.44L208,339.4
		c2.03-2.85,2.64-6.31,3.09-9.7c0.76-5.66,3.66-10.91,3.45-16.72C214.45,307.89,214.08,302.8,213.93,297.7 M210.81,346.07
		c1.91,0.3,3.83,0.63,5.75,0.92c-1.18-3.16-2.93-6.05-5.07-8.64C211.2,340.92,211.01,343.49,210.81,346.07z"/>
	<path fill="#492C0F" d="M212.01,217.33c3.82,1.85,3.86,6.45,4,10.14C213.12,224.9,212.6,220.94,212.01,217.33z"/>
	<path fill="#492C0F" d="M250.87,228.6l0.16-0.8c1.4,5.41,2.56,10.93,5.14,15.95c1.47,2.74,2.11,5.9,0.86,8.86
		c-0.31-1.89-0.13-3.9-0.93-5.69c-1.56-2.17-3.85-3.74-5.18-6.07C250.02,236.81,250.8,232.69,250.87,228.6z"/>
	<path fill="#492C0F" d="M250.8,255.75c0.6,0.23,1.78,0.68,2.38,0.91c0.15,1.39,0.38,2.78,0.69,4.15
		c3.23,9.39,1.49,19.43,3.06,29.11c-0.78-1.12-1.61-2.19-2.42-3.26c-1.07-8.3,1.4-17.43-3.4-24.91c-0.79,6.99-0.61,14.42-4.59,20.57
		C247.06,273.34,248.26,264.4,250.8,255.75z"/>
	<path fill="#492C0F" d="M234.06,270.72c-2.49-3.05-3.03-7.02-1.4-10.59C234.41,263.38,235.52,267.14,234.06,270.72z"/>
	<path fill="#492C0F" d="M239.63,289.52c-4.78-6.79-4.63-15.68-1.91-23.24c0.6,6.9,0.19,13.99,2.49,20.63
		C240.07,287.56,239.78,288.87,239.63,289.52z"/>
	<path fill="#492C0F" d="M179.66,273.53c0.71,5.72,1.02,11.74,4.04,16.83l0.72,0.15c-2.23,0.24-4.45,0.45-6.64,0.91
		C178.39,285.46,176.85,279.09,179.66,273.53z"/>
	<path fill="#492C0F" d="M229.69,288.37c-0.9-2.37-0.44-4.85,0.04-7.25c1.82,3.48,3.65,7.06,4.32,10.97
		c0.66,3.84-0.21,7.78,0.44,11.62c2.07,3.53,4.9,6.72,5.5,10.93c-5.26-0.91-6.49-6.54-7.44-10.96
		C231.8,298.53,231.33,293.33,229.69,288.37z"/>
	<path fill="#492C0F" d="M224.61,339.48c2.78-1.2,3.74,3.39,0.69,3.32C224.76,341.76,224.53,340.65,224.61,339.48z"/>
</g>
</svg>
