<?xml version="1.0" encoding="utf-8"?>
<!-- Generator: Adobe Illustrator 17.0.0, SVG Export Plug-In . SVG Version: 6.00 Build 0)  -->
<!DOCTYPE svg PUBLIC "-//W3C//DTD SVG 1.1//EN" "http://www.w3.org/Graphics/SVG/1.1/DTD/svg11.dtd">
<svg version="1.1" id="Layer_1" xmlns="http://www.w3.org/2000/svg" xmlns:xlink="http://www.w3.org/1999/xlink" x="0px" y="0px"
	 width="401px" height="382px" viewBox="0 0 401 382" enable-background="new 0 0 401 382" xml:space="preserve">
<path fill="#010101" d="M379.73,0.167c-0.004-0.055-0.006-0.112-0.01-0.167h-3.18c0.001,0.027,0.003,0.054,0.005,0.08
	C377.607,0.109,378.668,0.139,379.73,0.167z"/>
<path fill="#7C2905" d="M389.555,0.403c-0.015-0.134-0.029-0.269-0.044-0.403h-9.79c0.004,0.055,0.007,0.112,0.01,0.167
	C383.005,0.253,386.28,0.323,389.555,0.403z"/>
<g>
	<path fill="#7D7C6A" d="M84.39,33.97c0.97,3.76-1.55,7.46-0.6,11.14c3.1,6.18,9.91,8.68,15.43,12.13
		c-0.21,1.18-0.41,2.37-0.64,3.56c-0.35,1.43-0.64,2.9-1.3,4.23c-1.81,0.49-3.66,0.78-5.44,1.36c0.12,1.41,0.14,3.19,1.79,3.68
		l-0.34,0.56c-0.72,1.23-1.41,2.49-2.11,3.73c0.74,0.15,2.21,0.45,2.94,0.6c1.24,0.63,2.43,1.36,3.55,2.19
		c-2.85,1.46-6.01,1.49-9.03,0.55c0.6,2.74,1.55,5.39,2.55,8.01c1.12,2.89,0.53,6.03,0.47,9.04c-1.23,0.23-2.47,0.46-3.7,0.69
		c0.47,0.77,0.95,1.53,1.44,2.28c-1.5-1.08-3.06-2.07-4.62-3.06c0.66,1.65,1.33,3.31,2.09,4.93c-1.41-0.55-3.83-0.23-4.14-2.15
		c-0.38-1.86-0.26-3.77-0.27-5.65c1.98-0.57,3.97-1.12,5.96-1.67c-0.08-5.52-0.99-10.96-1.81-16.4c1.95-2.68,3.36-5.69,4.44-8.81
		c1.45-0.77,2.9-1.53,4.37-2.29c-0.36-2.03-0.71-4.06-1.06-6.1c-4.77-2.29-9.54-5.18-12.75-9.49
		C80.12,42.55,83.43,38.25,84.39,33.97z"/>
	<path fill="#7D7C6A" d="M59.92,61.05c0.44-2.85-0.87-6.82,2.26-8.49c0.1,0.6,0.32,1.82,0.42,2.43c-0.14,4.21,0.47,8.85-2.03,12.53
		c-2.72,4.04-3.36,8.99-3.4,13.75c0.08,4.34,2.27,8.24,3.12,12.43c0.7,3.08,1.31,6.9-1.3,9.3c-6.58,6.44-13.22,12.93-20.82,18.18
		c-4.91,3.4-8.83,7.97-13.43,11.75c-1.09,1.89-1.69,4-2.01,6.15c-0.24-0.5-0.71-1.52-0.95-2.03c-0.33-1.22-0.6-2.45-0.88-3.67
		c1.62-1.17,3.23-2.33,4.85-3.49c-0.53-1.27-1.05-2.55-1.58-3.82c1.86,0.25,3.72,0.63,5.61,0.6c3.53-2.36,5.34-6.62,9.13-8.72
		c4.51-2.71,7.99-6.7,11.94-10.11c2.65-2.64,6.49-4.62,7.61-8.41c0.68-5.9-2.86-11.16-3.82-16.82c0.03-3.58,1.04-7.08,1.43-10.63
		C56.24,67.93,60.31,65.21,59.92,61.05z"/>
	<path fill="#7D7C6A" d="M78.43,55.67c2.22-0.09,4.45-0.22,6.66-0.4c-0.08,1.67-0.16,3.34-0.26,5.01
		C82.02,59.78,79.32,58.63,78.43,55.67z"/>
	<path fill="#7D7C6A" d="M88.25,59.05c0.79,0.03,2.37,0.08,3.16,0.11c-2.04,3.22-5.6,5.51-6.17,9.53c0.03,2.24-2.27,0.95-3.33,0.23
		c0.64-1.16,1.45-2.23,2.25-3.29c-3.05-1.51-6.95-2.27-8.65-5.56c3.52,0.56,6.92,1.68,10.24,2.95
		C86.59,61.7,87.42,60.38,88.25,59.05z"/>
	<path fill="#7D7C6A" d="M300.94,58.87c1.01,0.46,2.02,0.92,3.03,1.37c-0.07,2.23-0.15,4.47-0.24,6.71
		c-1.26,0.25-2.51,0.5-3.75,0.75c-0.2-1.07-0.41-2.13-0.56-3.2C299.87,62.61,300.41,60.74,300.94,58.87z"/>
	<path fill="#7D7C6A" d="M71.79,61.69c3.39,1.75,6.07,4.52,9.25,6.6C77.08,67.8,72.62,66.11,71.79,61.69z"/>
	<path fill="#7D7C6A" d="M65.08,64.65c1.99,0.72,3.94,1.56,5.85,2.47c0,0.81-0.01,2.43-0.01,3.24c-1.99-0.72-3.94-1.57-5.85-2.48
		C65.07,67.07,65.08,65.46,65.08,64.65z"/>
	<path fill="#7D7C6A" d="M256.47,68.53c1.48-2.22,4.32-2.7,6.74-3.2c-1.93,1.49-3.93,2.88-5.95,4.24c-0.15,0.47-0.45,1.4-0.6,1.87
		c1.58-0.02,3.16-0.05,4.75-0.07c-1.18,2.08-2.36,4.15-3.51,6.24C256.35,74.89,255.48,71.59,256.47,68.53z"/>
	<path fill="#7D7C6A" d="M51.05,80.3C54.39,80.42,49.52,83.28,51.05,80.3z"/>
	<path fill="#7D7C6A" d="M79.88,85.74c1.88,0.55,3.77,1.11,5.65,1.69c-1.31,1.75-2.74,3.43-4.48,4.77c-1.02,0.31-2.05,0.61-3.09,0.9
		C78.49,90.62,79.11,88.16,79.88,85.74z"/>
	<path fill="#7D7C6A" d="M47.2,118.32c8.67-6,15.88-13.99,25.03-19.3c1.52,1.88,2.91,3.87,4.19,5.92c-1.8,0.75-3.59,1.51-5.39,2.27
		c1.4,2.41,3.15,4.71,3.82,7.46c-0.89,1.26-1.93,2.39-2.89,3.59c-0.46,0.79-0.88,1.6-1.28,2.42c-0.45,0.98-0.9,1.97-1.33,2.97
		c-3.47-0.82-6.89-1.84-10.24-3.03c2.96,0.03,5.8,1,8.72,1.39c2.38-2.07,3.34-5.27,4.86-7.96c-1.32-2.89-2.5-5.83-3.62-8.81
		c1.49-0.22,2.98-0.43,4.47-0.65c0.07-0.78,0.2-2.35,0.27-3.13c-6.72,3.35-12.79,7.98-18.16,13.2c-3.34,3.11-7.79,4.7-10.99,7.98
		c-2.89,2.91-6.39,5.05-9.82,7.23c-3.66,2.29-5.96,6.04-9.1,8.9c0.45-1.18,0.9-2.36,1.4-3.52C32.69,128.31,40.83,124.37,47.2,118.32
		z"/>
	<path fill="#7D7C6A" d="M281.39,108.68c1.05-0.66,2.06-1.38,3.08-2.09c0.33,0.65,0.66,1.3,1,1.95c0.99,2.38,2.83,4.64,2.88,7.29
		c-1.34,6.16-4.14,11.97-4.81,18.29c-0.3,2.14-0.26,4.37-0.98,6.44c-0.98,1.73-2.83,2.7-4.52,3.58c-3.4-4.64-4.56-10.39-6.6-15.67
		c-1.26-3.36-3.47-6.23-5.59-9.09c-4.05,7.78-9.39,14.7-14.69,21.64c-1.08-0.41-2.17-0.79-3.27-1.16l0.9-0.47
		c5.77-3.47,8.56-10.02,12.29-15.35c1.52-2.07,3.03-6.13,6.28-4.62c6.09,5.72,7.14,14.36,10.8,21.5c0.75,0.07,2.25,0.21,2.99,0.28
		c1.25-8.09,1.58-16.42,4.92-24.04C286.66,113.58,284.5,110.3,281.39,108.68z"/>
	<path fill="#7D7C6A" d="M46.26,136.03c0.06-4.85,2.57-9.54,6.71-12.11c-2.49,2.87-4.57,6.22-5.22,10.01
		c-2.29,12.91-4.29,25.87-6.37,38.81c-0.93,8.82-2.7,17.51-4.34,26.22c-2.71,21.18-6.52,42.28-12.04,62.92
		c-1.05,7.17-0.92,14.54-3.4,21.45c-1.7,11.4-4.74,22.53-6.62,33.89c-1.68,8.36-3.08,16.81-6.13,24.8
		c-0.42-1.52-0.87-3.11-0.54-4.68c3.73-15.27,6.5-30.74,9.83-46.1c1.2-7.27,2.83-14.47,3.4-21.83c0.89-9.77,5.21-18.79,6.36-28.51
		c1.27-9.7,3.87-19.18,5.08-28.9c0.94-8.74,3.37-17.24,4.24-26c1.9-12.16,3.96-24.29,5.94-36.43
		C44.7,145.18,46.17,140.72,46.26,136.03z"/>
	<path fill="#7D7C6A" d="M288.99,125c0.75,0,2.27,0,3.02,0c0,2,0,4,0.01,6.01c-0.76,0-2.28,0-3.04,0
		C288.98,129,288.98,127,288.99,125z"/>
	<path fill="#7D7C6A" d="M316.33,157.28c1.32-1.03,2.81,1.27,1.56,2.22C316.57,160.52,315.07,158.22,316.33,157.28z"/>
	<path fill="#7D7C6A" d="M317.63,161.72c2.09-2.43,2.1,2.26,2.57,3.58C318.59,164.68,315.59,163.76,317.63,161.72z"/>
	<path fill="#7D7C6A" d="M317.95,165.53c1.91,1.37,3.17,3.32,3.36,5.7c-1.52-0.3-3.23-0.26-4.36-1.48
		C317.02,168.29,317.55,166.91,317.95,165.53z"/>
	<path fill="#7D7C6A" d="M124.18,180.59l0.09-0.75c1.37,3.22,2.65,6.47,4.12,9.64c-0.53,0.54-1.59,1.63-2.11,2.17
		c-0.56-1.5-1.17-2.98-1.77-4.47C124.32,184.99,124.26,182.79,124.18,180.59z"/>
	<path fill="#7D7C6A" d="M136.63,183.59c0.5-0.02,1.49-0.05,1.99-0.06c1.97,2.1,4.04,4.12,6.22,6.02c-2.3,1.63-5.12,2.15-7.81,2.74
		c0.59-1.97,1.18-3.94,1.71-5.94c-1.6,1.51-2.93,3.27-3.99,5.19c2.18,0.75,4.36,1.48,6.53,2.24c-1.15,1.87-2.6,3.51-4.24,4.96
		c-3.09-3.1-7.27-7.97-3.09-12.02c0.4-0.47,1.18-1.4,1.57-1.87C135.8,184.54,136.35,183.91,136.63,183.59z"/>
	<path fill="#7D7C6A" d="M72.9,191.06c0.47,1.53,1,3.03,1.54,4.54c-1.29,8.35-2.73,16.68-4.21,24.99l-0.21,0.75
		c-0.25-0.71-0.76-2.13-1.01-2.84c1.53-4.48,2.01-9.19,2.59-13.86C73.24,200.31,73.78,195.63,72.9,191.06z"/>
	<path fill="#7D7C6A" d="M300.98,213.28c1.36-0.74,2.74-1.47,4.11-2.21l0.61-0.33c-1.4,5.52,0.01,11.1,0.31,16.65
		C300.62,225.19,301.45,218.06,300.98,213.28z"/>
	<path fill="#7D7C6A" d="M329.93,219.58c2.41,1.53,3.48,3.97,3.19,6.81C330.03,225.73,328.29,222.38,329.93,219.58z"/>
	<path fill="#7D7C6A" d="M306.59,234.08c0.95,0,2.86,0,3.81,0c-0.67,1.37-0.49,3.67-2.33,4.08
		C307.48,236.83,307.03,235.45,306.59,234.08z"/>
	<path fill="#7D7C6A" d="M330.08,235.1c0.75-0.03,2.25-0.09,3-0.12c-0.81,5-0.47,10.05,0.03,15.06c-0.77-0.02-2.32-0.05-3.1-0.07
		C328.28,245.14,328.87,239.97,330.08,235.1z"/>
	<path fill="#7D7C6A" d="M299.93,247.78c1.69-0.34,3.39-0.67,5.07-1.06c-1.69,4.64-3.5,10.3-8.15,12.68
		C296.61,255.11,300.91,252.19,299.93,247.78z"/>
	<path fill="#7D7C6A" d="M328.96,252.61c1.17,0.6,2.87,0.89,2.84,2.57c1.26,5.7,0.46,11.56-0.14,17.29
		c-1.67-0.96-3.24-2.27-2.64-4.43C330.02,262.91,329.46,257.75,328.96,252.61z"/>
	<path fill="#7D7C6A" d="M115.95,259.88c0.62-0.62,1.24-1.23,1.86-1.83c2.88,4.1,4.24,9,6.8,13.28c3.19,5.49,7.31,10.45,9.75,16.38
		c3.11,5.99,5.86,12.16,8.75,18.27l0.3,0.91c-0.6,0.2-1.8,0.6-2.4,0.8l-0.71,0.36c-1-1.49-2.01-2.97-2.95-4.5
		c-0.25-1.26-0.49-2.52-0.79-3.77c-1-2.52-2.34-4.88-3.51-7.32c-0.56-2.01-1.34-3.95-2.39-5.75c-0.38-0.51-1.15-1.53-1.53-2.04
		c-0.58-0.84-1.12-1.71-1.64-2.59c-1.78-3.12-3.53-6.26-5.35-9.35c-0.66,1.31-1.32,2.63-1.97,3.95c-0.69-0.3-1.38-0.6-2.07-0.89
		c1.05-1.37,2.12-2.74,3.18-4.1c-1.05-2.1-2.14-4.18-3.16-6.29c-0.19-0.42-0.56-1.25-0.74-1.67
		C116.87,262.45,116.41,261.16,115.95,259.88z"/>
	<path fill="#7D7C6A" d="M294.99,262.01c0.73-1.16,1.99-1.77,3.1-2.5c-0.9,5.06-4.32,9.15-5.47,14.13
		c-0.66,3.08-2.59,5.72-5.67,6.71C289.02,274,290.86,267.39,294.99,262.01z"/>
	<path fill="#5D4C31" d="M98.58,60.8c0.23-1.19,0.43-2.38,0.64-3.56c3.82,2.54,7.92,5.33,9.77,9.73c1.6,3.29,0.69,7.02,0.4,10.5
		c-0.63,4.58,0.74,9.17,0.01,13.75c-1.58,0.16-3.17,0.32-4.75,0.48c-0.83,1.08-1.66,2.15-2.49,3.23c-0.19-0.21-0.57-0.63-0.77-0.84
		c1.49-3.3,3.46-6.35,5.29-9.46c0.46-0.8,0.93-1.6,1.4-2.4c-3.08-1.95-6.08-4.02-9.05-6.13c0.33,1.61,0.65,3.22,1.06,4.81
		c-0.83-1.24-1.6-2.52-2.42-3.76c-1.12-0.83-2.31-1.56-3.55-2.19c0.71-1.43,1.43-2.86,2.15-4.29c-0.75-0.01-2.24-0.03-2.98-0.04
		l0.34-0.56c1.23-0.61,2.42-2.09,3.94-1.41c3.61,1.2,7.04,2.95,10.78,3.8C106.62,67.5,103.09,63.44,98.58,60.8 M98.68,72.69
		c1.75,2.91,4.06,5.55,7.28,6.85c0.05-0.89,0.15-2.68,0.21-3.57C103.96,74.29,101.48,72.98,98.68,72.69z"/>
	<path fill="#5D4C31" d="M252.16,191.32c2.63-0.33,5.29-0.5,7.92-0.88c-0.16,1.58-0.33,3.16-0.5,4.75c0.44,0.64,0.87,1.28,1.32,1.93
		c-4.09,0.77-8.21,1.32-12.22,2.44c-1.81-0.01-4.12,0.96-5.49-0.69c-1.19-1.35-1.89-3.04-2.7-4.63
		C244.54,194.06,248.75,193.75,252.16,191.32z"/>
	<path fill="#5D4C31" d="M111.95,270.91c0.2-3.28,3.72-4.29,6.17-5.51c1.02,2.11,2.11,4.19,3.16,6.29c-1.06,1.36-2.13,2.73-3.18,4.1
		c0.69,0.29,1.38,0.59,2.07,0.89c0.65-1.32,1.31-2.64,1.97-3.95c1.82,3.09,3.57,6.23,5.35,9.35c-0.55,0.24-1.66,0.72-2.21,0.97
		c-0.73-1.12-1.45-2.23-2.17-3.33c-3.36-0.05-6.71-0.25-10.06-0.57c0.41-1.55,0.83-3.09,1.24-4.63
		C113.47,273.34,112.62,272.18,111.95,270.91z"/>
	<path fill="#010101" d="M62.33,35.03c0.56-0.91,1.15-1.81,1.76-2.69c1.55,0.23,3.08,0.49,4.62,0.75c-0.16,1.77-0.33,3.54-0.49,5.32
		c1.23-0.49,2.45-0.98,3.67-1.47c-0.08-1.33-0.16-2.66-0.24-3.98c3.71-0.11,7.4-0.44,11.12-0.49c0.4,0.38,1.21,1.13,1.62,1.5
		c-0.96,4.28-4.27,8.58-2.78,13.06c3.21,4.31,7.98,7.2,12.75,9.49c0.35,2.04,0.7,4.07,1.06,6.1c-1.47,0.76-2.92,1.52-4.37,2.29
		c-1.08,3.12-2.49,6.13-4.44,8.81c0.82,5.44,1.73,10.88,1.81,16.4c-1.99,0.55-3.98,1.1-5.96,1.67c-0.35,0.1-1.05,0.31-1.41,0.41
		c1.74-1.34,3.17-3.02,4.48-4.77c-1.88-0.58-3.77-1.14-5.65-1.69c-0.77,2.42-1.39,4.88-1.92,7.36c0.03,3.4-3.14,4.66-5.73,5.92
		c-9.15,5.31-16.36,13.3-25.03,19.3c-6.37,6.05-14.51,9.99-20.06,16.93c-0.8-0.77-1.6-1.55-2.4-2.32c4.6-3.78,8.52-8.35,13.43-11.75
		c7.6-5.25,14.24-11.74,20.82-18.18c2.61-2.4,2-6.22,1.3-9.3c-0.85-4.19-3.04-8.09-3.12-12.43c0.04-4.76,0.68-9.71,3.4-13.75
		c2.5-3.68,1.89-8.32,2.03-12.53c0.64-1.45,1.35-2.86,2.04-4.28c0.33,0.13,1,0.39,1.33,0.52c0.83,0.26,1.66,0.52,2.49,0.75
		c0.62-1.57,1.23-3.14,1.85-4.71c2,1.51,4.07,2.93,6.21,4.25c1.57-4.37,3.5-8.76,3.7-13.46c-1.48-1.53-3.48-2.37-5.31-3.38
		c-1.48,1.79-2.96,3.58-4.44,5.37c1.39,0.93,2.77,1.85,4.16,2.76c-0.33,0.79-0.67,1.58-1.01,2.36
		C69.83,41.82,66.29,38.2,62.33,35.03 M78.43,55.67c0.89,2.96,3.59,4.11,6.4,4.61c0.1-1.67,0.18-3.34,0.26-5.01
		C82.88,55.45,80.65,55.58,78.43,55.67 M88.25,59.05c-0.83,1.33-1.66,2.65-2.5,3.97c-3.32-1.27-6.72-2.39-10.24-2.95
		c1.7,3.29,5.6,4.05,8.65,5.56c-0.8,1.06-1.61,2.13-2.25,3.29c1.06,0.72,3.36,2.01,3.33-0.23c0.57-4.02,4.13-6.31,6.17-9.53
		C90.62,59.13,89.04,59.08,88.25,59.05 M71.79,61.69c0.83,4.42,5.29,6.11,9.25,6.6C77.86,66.21,75.18,63.44,71.79,61.69
		 M65.08,64.65c0,0.81-0.01,2.42-0.01,3.23c1.91,0.91,3.86,1.76,5.85,2.48c0-0.81,0.01-2.43,0.01-3.24
		C69.02,66.21,67.07,65.37,65.08,64.65 M69.14,74.17c-2.29,1.74-3.48,4.5-5.08,6.82c0.24,1.29,0.47,2.58,0.7,3.88
		c-1.65,2.98-2.52,6.47-1.59,9.84c1.55,2.15,4.44,2.11,6.78,2.63c0.96-2.57,1.63-5.24,2.73-7.75c1.71-2.21,3.98-3.91,5.92-5.92
		c2.18,0.14,4.37,0.3,6.56,0.47c2.76-4.16-1.21-8.35-5.12-9.6c1.5-0.6,2.98-1.24,4.46-1.88c-1.34-0.94-2.74-2.14-4.51-1.82
		C76.24,71.39,72.61,72.7,69.14,74.17z"/>
	<path fill="#010101" d="M300.58,56.54c1.87-0.27,3.75,0.01,5.62,0.14c1.19,4.29,1.69,8.77,0.79,13.17
		c-1.13-0.29-2.25-0.57-3.36-0.86c0.02-0.51,0.07-1.53,0.1-2.04c0.09-2.24,0.17-4.48,0.24-6.71c-1.01-0.45-2.02-0.91-3.03-1.37
		c-0.53,1.87-1.07,3.74-1.52,5.63c-0.93-0.81-1.87-1.6-2.7-2.5C297.55,59.93,298.65,57.78,300.58,56.54z"/>
	<path fill="#010101" d="M263.21,65.33c0.41,0.09,1.22,0.26,1.62,0.35c-2.54,5.8-2.89,12.2-1.73,18.38
		c-1.48-1.66-2.97-3.32-4.37-5.04c-0.21-0.36-0.62-1.06-0.83-1.41c1.15-2.09,2.33-4.16,3.51-6.24c-1.59,0.02-3.17,0.05-4.75,0.07
		c0.15-0.47,0.45-1.4,0.6-1.87C259.28,68.21,261.28,66.82,263.21,65.33z"/>
	<path fill="#010101" d="M93.29,70.63c0.74,0.01,2.23,0.03,2.98,0.04c-0.72,1.43-1.44,2.86-2.15,4.29c-0.73-0.15-2.2-0.45-2.94-0.6
		C91.88,73.12,92.57,71.86,93.29,70.63z"/>
	<path fill="#010101" d="M291.9,79c1.12-2.19,2.49-4.25,4.01-6.18c2.51,2.41,5.31,4.5,8.44,6.06c2.48,0.93,2.61,3.9,2.72,6.15
		c0.28,3.91-2.02,7.24-4.06,10.34c-1.53-1.59-4.25-2.84-4.16-5.37c0.74-1.98,1.51-3.96,2.28-5.94c-1.46-2.31-2.94-4.6-4.42-6.89
		c-1.32,0.51-2.65,1.02-3.97,1.52L291.9,79z"/>
	<path fill="#010101" d="M99.03,76.1c2.97,2.11,5.97,4.18,9.05,6.13c-0.47,0.8-0.94,1.6-1.4,2.4c-2.21-1.14-5-1.66-6.59-3.72
		C99.68,79.32,99.36,77.71,99.03,76.1z"/>
	<path fill="#010101" d="M260.98,86.3c1.56,0.61,3.12,1.23,4.68,1.86c-1.93,1.24-3.9,2.41-5.87,3.58c-0.01-0.73-0.01-2.17-0.02-2.9
		C260.07,88.21,260.68,86.94,260.98,86.3z"/>
	<path fill="#010101" d="M259.7,92.74c0.94,1.41,1.93,2.8,2.93,4.17c-0.9-0.02-2.71-0.08-3.62-0.11c-0.47-0.17-1.43-0.52-1.9-0.7
		C257.97,94.98,258.84,93.86,259.7,92.74z"/>
	<path fill="#010101" d="M285.47,108.54c5.04-2.61,10.69-3.61,15.88-5.84c1.13,2.28,2.19,4.58,3.23,6.9c1.4,0.28,2.8,0.55,4.2,0.87
		c1.73,0.65,3.46,1.33,5.19,2.01c3.26-1.65,6.3-4.07,9.96-4.71c3.04,0.63,6.13,1.85,8.46,3.95c2.29,3.22,3.4,7.1,5.16,10.62
		c3.57,7.22,5.26,15.16,8.46,22.53c7.33,20.03,13.56,40.44,20.41,60.65c4.95,13.58,9.57,27.3,14.96,40.72
		c2.36,8.23,5.54,16.2,8.48,24.24c-0.4,5.14-0.33,10.31,0.09,15.44c-0.35,0.56-1.06,1.68-1.42,2.24c-3.46-8.42-5.3-17.47-9.84-25.44
		c-7.52-20.62-13.79-41.71-21.9-62.13c-2.33-7.83-5.53-15.38-7.77-23.24c-2.73-9.73-6.86-19-9.68-28.7
		c-2.4-6.17-3.71-12.74-6.76-18.66c0.98-2.69,1.97-5.62,0.77-8.42c-1.21-3.33-2.27-7.73-6.16-8.82c-4.92-2.1-9.26,2.09-13.23,4.37
		c0.89,2.64,1.79,5.27,2.56,7.95c-0.93,6.31,2.11,12.14,3.52,18.13c3.73,8.48,6.32,17.4,10,25.92c2.55,5.64,2.86,11.91,4.54,17.82
		c1.32,5.15,3.93,9.84,5.49,14.91c1.01,3.3,2.9,6.19,4.7,9.09c3.8,9.67,5.67,19.88,8.34,29.87c4.32,11.24,7.51,22.96,13.1,33.67
		l-1.11,0.53c-2.75,0.04-5.25-1.24-7.91-1.7c-2.23,0-4.38,0.72-6.54,1.22c-0.33,1.1-0.65,2.2-0.97,3.31
		c-1.4-1.48-2.3-4.18-4.72-3.97c-2.75-0.05-5.33,1.06-7.88,1.92c-0.24,1.46-0.48,2.91-0.72,4.37c-0.91-2.09-1.79-4.18-2.67-6.28
		c-4.97,0.84-9.98,2.87-15.06,1.62c-3.85-1.43-5.55,3.56-5.65,6.54c-0.47,2.62,1.14,4.91,3.3,6.2c0.25,1.17-0.24,1.44-1.48,0.8
		c-1.87,2.44-2.79,5.35-3.9,8.2c-0.91-3.17-1.39-6.47-2.58-9.55c-4.31-1.78-9.19-1.46-13.44-3.44c-3.15-1.45-6.47-2.6-9.97-2.69
		c0.53,4.18-1.62,7.86-3.68,11.3c-0.22-0.34-0.66-1.01-0.89-1.35c1.56-3.58,4.69-7.99,2.01-11.75c-4.01-3.57-9.76-3.53-14.81-3.47
		c0.42-1.75,0.6-3.6,1.5-5.18c2.01-2.67,5.01-4.41,6.9-7.19c1.83-2.72,2.83-5.88,4.2-8.83c3.74-5.04,7.4-10.16,10.41-15.67
		c0.95-1.6,0.74-3.51,0.69-5.28c-1.18-10.29,0.08-20.77-2.1-30.95l-0.92,0.1c-1.25-0.01-2.48-0.03-3.72-0.06
		c0.6-1.42,1.21-2.83,1.81-4.24c-3.8-2.26-7.65-4.44-11.53-6.58c2.75-2.86,5.18-6.02,7.11-9.5c2.89-5.61,9.44-7.94,12.47-13.46
		c2.96-4.49,2.99-10.09,1.59-15.12c1.34-2.64,2.15-5.5,2.46-8.45c-6.34,5.66-12.33,12.48-14.71,20.8
		c-1.14,5.45-7.33,7.75-12.28,7.59c-6.52-2.29-11.82-6.97-17.77-10.35c0.24-0.56,0.71-1.68,0.95-2.24c1.87-3.67,2.7-8.03,0.5-11.78
		c-0.42-2.07-2.45-2.26-4.18-2.48c-0.47-0.07-1.43-0.22-1.91-0.3c0.66-2.05,1.32-4.11,2.15-6.1c5.3-6.94,10.64-13.86,14.69-21.64
		c2.12,2.86,4.33,5.73,5.59,9.09c2.04,5.28,3.2,11.03,6.6,15.67c1.69-0.88,3.54-1.85,4.52-3.58c0.72-2.07,0.68-4.3,0.98-6.44
		c0.67-6.32,3.47-12.13,4.81-18.29C288.3,113.18,286.46,110.92,285.47,108.54 M288.99,125c-0.01,2-0.01,4-0.01,6.01
		c0.76,0,2.28,0,3.04,0c-0.01-2.01-0.01-4.01-0.01-6.01C291.26,125,289.74,125,288.99,125 M316.33,157.28
		c-1.26,0.94,0.24,3.24,1.56,2.22C319.14,158.55,317.65,156.25,316.33,157.28 M317.63,161.72c-2.04,2.04,0.96,2.96,2.57,3.58
		C319.73,163.98,319.72,159.29,317.63,161.72 M317.95,165.53c-0.4,1.38-0.93,2.76-1,4.22c1.13,1.22,2.84,1.18,4.36,1.48
		C321.12,168.85,319.86,166.9,317.95,165.53 M297.81,204.85c0.99,2.83,2.07,5.64,3.17,8.43c0.47,4.78-0.36,11.91,5.03,14.11
		c-0.3-5.55-1.71-11.13-0.31-16.65l-0.61,0.33c-0.7-2.48-1.44-4.95-2.23-7.4C301.17,204.06,299.49,204.45,297.81,204.85
		 M329.93,219.58c-1.64,2.8,0.1,6.15,3.19,6.81C333.41,223.55,332.34,221.11,329.93,219.58 M306.59,234.08
		c0.44,1.37,0.89,2.75,1.48,4.08c1.84-0.41,1.66-2.71,2.33-4.08C309.45,234.08,307.54,234.08,306.59,234.08 M330.08,235.1
		c-1.21,4.87-1.8,10.04-0.07,14.87c0.78,0.02,2.33,0.05,3.1,0.07c-0.5-5.01-0.84-10.06-0.03-15.06
		C332.33,235.01,330.83,235.07,330.08,235.1 M299.93,247.78c0.98,4.41-3.32,7.33-3.08,11.62c4.65-2.38,6.46-8.04,8.15-12.68
		c2.78-1.17,1.49-5-0.17-6.73C301.23,240.16,300.81,245.02,299.93,247.78 M328.96,252.61c0.5,5.14,1.06,10.3,0.06,15.43
		c-0.6,2.16,0.97,3.47,2.64,4.43c0.6-5.73,1.4-11.59,0.14-17.29C331.83,253.5,330.13,253.21,328.96,252.61 M294.99,262.01
		c-4.13,5.38-5.97,11.99-8.04,18.34c3.08-0.99,5.01-3.63,5.67-6.71c1.15-4.98,4.57-9.07,5.47-14.13
		C296.98,260.24,295.72,260.85,294.99,262.01z"/>
	<path fill="#010101" d="M76.42,104.94c4.54,1.06,9.22,1.2,13.86,0.99c1.37,2.53,2.5,5.36,1.58,8.26c-2.03,2.2-4.13,4.72-7.1,5.59
		c-4.3-0.11-8.48-1.44-12.8-1.52c0.96-1.2,2-2.33,2.89-3.59c-0.67-2.75-2.42-5.05-3.82-7.46C72.83,106.45,74.62,105.69,76.42,104.94
		z"/>
	<path fill="#010101" d="M59.11,120.62c3.35,1.19,6.77,2.21,10.24,3.03c0.43-1,0.88-1.99,1.33-2.97c1.86,1.61,3.5,3.68,5.84,4.6
		c4.21,0.47,8.44-0.27,12.66-0.32c-0.79,1-1.58,1.99-2.37,2.99c-2.34,0.04-4.68,0.08-7.02,0.14c-1.39,0.03-2.79,0.07-4.18,0.13
		c1.31,3.31,3.71,5.97,6.47,8.15c-1.81,1.33-2.86,3.32-3.62,5.39c2.32-0.08,5.45-1.83,7.18,0.55c3,2.94-0.7,6.49-2.66,8.81
		c-2.55-0.95-5.22-1.54-7.77-2.47c-3.55-4.85-4.2-11.22-4-17.06c-0.08-1.69,0.18-3.57-0.79-5.05c-3.36-1.84-7.35-2.53-11.14-2.22
		c-3.09,0.33-4.99,3.08-6.5,5.5c-1.86,4.12-2.25,8.7-3.2,13.08c-0.91,3.52,1.1,6.96,0.51,10.47c-1.8,9.54-3.29,19.15-4.19,28.81
		c-4.11,20.11-6.88,40.44-10.26,60.67c-1.02,6.47-3.73,12.6-4.1,19.18c-0.68,9.49-4.51,18.42-5.25,27.89
		c-1.04,8.73-3.97,17.1-5.07,25.82c-1.61,8.89-4.65,17.52-5.13,26.6c-1.69,0.57-3.31,1.31-4.94,2.04c-0.78-0.78-1.55-1.56-2.3-2.36
		c3.05-7.99,4.45-16.44,6.13-24.8c1.88-11.36,4.92-22.49,6.62-33.89c2.48-6.91,2.35-14.28,3.4-21.45
		c5.52-20.64,9.33-41.74,12.04-62.92c1.64-8.71,3.41-17.4,4.34-26.22c2.08-12.94,4.08-25.9,6.37-38.81
		c0.65-3.79,2.73-7.14,5.22-10.01C54.88,122.6,56.99,121.58,59.11,120.62z"/>
	<path fill="#010101" d="M97.26,126.85c0.96-0.56,1.93-1.13,2.89-1.69c-0.13,6.02,1.43,11.85,3.23,17.53
		c-1.28-0.45-2.57-0.9-3.85-1.35c-0.77-1.53-1.59-3.04-2.52-4.48c-1.11-1.14-2.32-2.18-3.57-3.16c-0.36-0.25-1.09-0.75-1.45-0.99
		c0.12-1.02,0.24-2.04,0.37-3.06C93.99,128.72,95.63,127.79,97.26,126.85z"/>
	<path fill="#010101" d="M114.91,139.2c0.3-0.36,0.9-1.1,1.2-1.47c3.67,3.11,8.08,5.23,11.55,8.59c3.98,3.78,9,6.13,13.34,9.44
		c-0.84,2.42-1.98,4.88-1.8,7.5c0.75,2.85,2.83,5.09,4.44,7.5c-0.6,0.24-1.19,0.47-1.78,0.71c-1.08-2.02-2.24-4-3.19-6.09
		c-1.23-2.57-0.97-5.52-1.65-8.23c-1.18-0.98-2.53-1.7-3.82-2.5c-3.09-1.94-5.84-4.35-8.84-6.41c-0.31-0.22-0.92-0.65-1.22-0.87
		c-1.6,2.66-3.1,5.39-4.86,7.95c-0.62-2.9,1.52-5.14,2.54-7.62c0.51-1.72,0.41-3.53,0.55-5.29c-3.63,1.52-7.35,3.16-11.39,2.77
		c1.83-1.09,3.71-2.11,5.59-3.11C115.35,141.11,115.13,140.16,114.91,139.2z"/>
	<path fill="#010101" d="M240.16,145.7c1.36,0.97,2.71,1.96,4.06,2.96c-0.56,0.34-1.67,1.01-2.23,1.35
		C241.37,148.57,240.76,147.14,240.16,145.7z"/>
	<path fill="#010101" d="M96.31,155.54c-2.22-0.36-1.79-4.72,0.57-3.35C97.27,153.39,97.08,154.51,96.31,155.54z"/>
	<path fill="#010101" d="M99.24,153.43c0.63-1.68,3.72-1.45,3.32,0.62C101.68,155.55,99.83,154.66,99.24,153.43z"/>
	<path fill="#010101" d="M81.75,158.16c1.2-2.07,2.64-3.98,4.32-5.69c0.37,1.6,0.73,3.21,1.09,4.82c1.09-0.83,2.17-1.66,3.25-2.49
		c0.41,0.27,1.24,0.83,1.65,1.11c-2.25,2.37-3.77,5.29-4.32,8.52c3.51,0.32,7.11,0.84,10.22,2.63c4.32,2.24,7.09,6.42,9.86,10.26
		c-0.55,1.96-0.95,3.95-1.23,5.97c2.53-0.48,5.17-1.47,5.62-4.34c1.14,0.76,2.28,1.53,3.42,2.29c-0.32,1.27-0.63,2.53-0.89,3.81
		c-0.68,2.15-0.65,4.79-2.23,6.5c-4.79,2.64-10.94,1.97-15.29,5.61c-2.17,2.04-3.92,4.77-4.45,7.73c0.41,2.45,1.68,4.65,2.64,6.93
		c1.14,0.09,2.28,0.19,3.42,0.29c-0.1-1.55-0.2-3.09-0.3-4.63c2.66-1.7,5.55-3.28,8.82-2.89c-0.01,0.63-0.03,1.9-0.05,2.53
		c-4.18,3.71-8.73,6.96-13.36,10.08c-1.51-3.72-3.51-7.21-5.56-10.65c-3.15-5.25-3.31-11.55-3.79-17.47
		c-0.23-5.38-1.76-10.65-1.68-16.04c0.82-4.29,2.73-8.3,3.5-12.62C84.86,159.67,83.31,158.91,81.75,158.16z"/>
	<path fill="#010101" d="M128.52,160.64c1.51-0.68,3.01-1.37,4.52-2.05c-0.03,1.44-0.03,2.87,0.05,4.31
		c-1.66-0.14-3.32-0.27-4.97-0.4C128.22,162.04,128.42,161.1,128.52,160.64z"/>
	<path fill="#010101" d="M143.52,162.07c0.39-1.22,0.83-2.43,1.27-3.63c7.05,4.49,12.94,10.65,20.69,14.09
		c0.04,0.71,0.11,2.13,0.15,2.84c-4.25-1.77-8.37-4.01-11.53-7.41c-2.05-2.3-5.05-3.13-7.81-4.22
		C145.38,163.16,144.45,162.61,143.52,162.07z"/>
	<path fill="#010101" d="M286.94,167.22c0.76,0.02,2.27,0.06,3.03,0.08c-0.32,2.02-0.66,4.05-1.05,6.06
		C287.15,171.74,286.69,169.54,286.94,167.22z"/>
	<path fill="#010101" d="M125.39,173.92c1.07,0.6,2.14,1.19,3.21,1.79c-0.53,1.25-1.26,2.44-1.54,3.78c1,3.35,4.26,5.23,6.89,7.23
		c-4.18,4.05,0,8.92,3.09,12.02c1.64-1.45,3.09-3.09,4.24-4.96c-2.17-0.76-4.35-1.49-6.53-2.24c1.06-1.92,2.39-3.68,3.99-5.19
		c-0.53,2-1.12,3.97-1.71,5.94c2.69-0.59,5.51-1.11,7.81-2.74c0.86-0.82,1.71-1.64,2.55-2.46c0.6,0.62,1.19,1.25,1.79,1.88
		c-4.25,4.7-8.06,9.83-13.04,13.83c-0.54-0.36-1.62-1.08-2.16-1.45l-0.01-0.75c-1.35-3.94-3.72-7.41-5.58-11.12
		c-1.47-3.17-2.75-6.42-4.12-9.64C124.58,177.86,125.04,175.9,125.39,173.92z"/>
	<path fill="#010101" d="M136.94,176.53c0.99,1.19,1.98,2.38,2.96,3.57c-1.14,0.44-2.29,0.89-3.42,1.34
		c0.05,0.71,0.1,1.43,0.15,2.15c-0.28,0.32-0.83,0.95-1.11,1.26c-1.31-1.68-2.64-3.34-3.98-4.99
		C133.36,178.77,135.15,177.66,136.94,176.53z"/>
	<path fill="#010101" d="M155.06,189.64c3.49-2.6,3.93-8.71,9.02-8.81c-1.69,3.36-3.82,6.46-5.92,9.57
		c-0.83-0.02-1.64-0.05-2.46-0.09C155.54,190.14,155.22,189.81,155.06,189.64z"/>
	<path fill="#010101" d="M119.22,186.29c1.26-0.05,2.52-0.08,3.79-0.09c0.37,0.25,1.12,0.74,1.5,0.98c0.6,1.49,1.21,2.97,1.77,4.47
		c-0.26,0.31-0.76,0.92-1.01,1.23c-0.49-0.42-0.98-0.84-1.46-1.26c-0.43-0.39-1.3-1.16-1.74-1.54c-0.92-0.33-1.85-0.65-2.77-0.96
		C119.27,188.18,119.25,187.23,119.22,186.29z"/>
	<path fill="#010101" d="M74.44,195.6c0.28,0.57,0.85,1.72,1.13,2.3c0.66,1.56,1.61,3.19,1.35,4.96c-0.89,2.73-2.78,5.1-3.17,8.01
		c-0.36,2.84-0.17,5.71-0.11,8.57c-1.14,0.37-2.28,0.76-3.41,1.15C71.71,212.28,73.15,203.95,74.44,195.6z"/>
	<path fill="#010101" d="M133.84,206.13c0.52-0.31,1.56-0.94,2.07-1.25c1.22,0.66,2.4,1.4,3.53,2.19c-0.73,2.73-2.14,5.25-4.93,6.27
		C134.26,210.94,134.05,208.53,133.84,206.13z"/>
	<path fill="#010101" d="M76.03,231.82c2.64,1.21,5.02,2.88,7.09,4.91c1.95,1.58,4.52,1.53,6.88,1.31
		c-0.34,1.15-0.62,2.32-0.85,3.51c-0.81,4.72-0.82,9.54-1.86,14.23c0.83,0.59,1.67,1.17,2.52,1.75l0.55,0.34
		c-2.34,2.82-3.85,6.32-3.44,10.06c0.69,8.37-1.23,16.59-1.71,24.91c1.15,0.69,2.31,1.39,3.47,2.09
		c-3.32,5.45-5.36,12.52-2.41,18.59c0.79,1.18,1.66,2.32,2.54,3.45c1.18,1.47,2.4,2.92,3.62,4.38c-1.8,1.62-3.42,4.68-6.3,3.9
		c-5.69-1.69-10.42-5.52-14.88-9.3c1.46-1.21,2.92-2.4,4.54-3.37c1.5-0.46,3.01-0.86,4.52-1.26c0.81-5.07,2.63-10.11,1.85-15.31
		c-0.44-3.16,0.9-6.13,1.54-9.15c0.79-3.47,0.23-7.05-0.24-10.52l-0.11-0.77c1.23-5.23,2.75-10.53,1.99-15.96
		c-1.53,1.12-3.05,2.26-4.56,3.42c-1.43-0.64-2.86-1.27-4.28-1.91c1.78-1.23,3.54-2.49,5.43-3.56c1.09-0.53,2.19-1.03,3.29-1.52
		c1.55-4.38,2.21-9.02,1.81-13.65c-0.77,0-2.33,0-3.11-0.01c-1.72-0.09-3.51-0.02-5.17-0.59c-2.3-1.93-2.98-5.06-4.21-7.68
		C74.91,233.54,75.66,232.4,76.03,231.82z"/>
	<path fill="#010101" d="M90.8,236.56c0.66-1.18,1.33-2.35,2-3.52c0.39,1.47,0.77,2.94,1.15,4.41
		C93.16,237.23,91.59,236.78,90.8,236.56z"/>
	<path fill="#010101" d="M105.1,235.24c3.73,1.79,7.57,0.16,11.38,0.19c0.52,1.7,0.84,3.45,1.07,5.22c-0.33,0.18-1,0.54-1.34,0.71
		c-0.66,0.34-1.98,1.02-2.64,1.35c1.88,1.86,3.83,3.64,5.8,5.41c-2.7-1.04-5.67-1.67-7.96-3.51c-2.38-2.31-3.84-5.35-5.57-8.13
		C105.65,236.17,105.29,235.55,105.1,235.24z"/>
	<path fill="#010101" d="M120.43,240.47c1.2,0.14,2.39,0.29,3.59,0.44c0.25,0.3,0.77,0.9,1.02,1.19c4.31,4.43,7.43,9.77,11.03,14.74
		c1.58,3.48,2.84,7.08,4.45,10.54c-0.24,0.89-0.48,1.79-0.72,2.69c-1.06-1.37-2.11-2.74-3.13-4.13c-0.8-0.01-2.41-0.05-3.21-0.06
		c-0.15,5.51,5.92,6.89,9.68,9.29c-2.2,1.37-4.42,2.71-6.63,4.07c0.74-1.62,1.56-3.21,2.07-4.92c-2.25-2.8-6.17-3.72-8.85-6.13
		c2.11-1.71,5.47-2.63,6.56-5.16c-1.57-3.9-4.49-7.03-6.91-10.4c-2.81-3.62-5.19-7.84-9.34-10.11
		C120.14,242.01,120.33,240.98,120.43,240.47z"/>
	<path fill="#010101" d="M105.74,253.3c1.48-1.7,2.3-4.96,4.96-4.93c0.18,1.12,0.26,2.25,0.23,3.39
		C109.76,253.5,107.64,253.87,105.74,253.3z"/>
	<path fill="#010101" d="M113.69,251.29c2.55,2.46,5.12,4.96,7.25,7.82c2.11,2.79,2.8,6.33,4.62,9.29c1.87,3.06,4.18,5.81,6.19,8.77
		c3.55,5.01,5.99,10.68,9.35,15.81c0.87,0.04,2.62,0.11,3.49,0.14c-1.16-2.74-2.33-5.48-3.39-8.26c2.01,2.33,3.73,4.9,5.21,7.6
		c-0.83,1.28-2.77,2.39-1.99,4.15c0.99,3.59,2.73,7.01,5.14,9.85c1.9,2.51,5.14,0.71,7.63,0.45c1.18-0.1,2.36-0.17,3.54-0.16
		c2.05,0.81,4.05,1.75,6.06,2.68c-0.34,2.05-0.67,4.11-1.01,6.17c-3.27,0.64-6.52,1.46-9.86,1.56c-3.66,0.03-6.98-2.19-10.67-1.86
		c-2.85,0.24-5.66,0.79-8.47,1.31c-4.74,0.75-8.35,4.55-13.22,4.86c1.7-2.33,3.17-5.24,5.95-6.44c4.92-1.47,10.46-0.84,14.98-3.62
		c1.12-1.91-0.72-3.71-1.38-5.43c-2.89-6.11-5.64-12.28-8.75-18.27c-2.44-5.93-6.56-10.89-9.75-16.38
		c-2.56-4.28-3.92-9.18-6.8-13.28C116.32,255.87,114.92,253.62,113.69,251.29z"/>
	<path fill="#010101" d="M96.31,255.64c2.89,0.18,5.8,0.04,8.63-0.6c-1.94,4.72-1.48,9.94-2.38,14.88
		c-0.15,0.71-0.45,2.14-0.59,2.86c-0.61-0.6-1.22-1.19-1.82-1.78c-1.19-4.25-1.86-8.63-3.14-12.87
		C96.78,257.3,96.54,256.47,96.31,255.64z"/>
	<path fill="#010101" d="M62.25,266.14c1.04-2.38,2.04-4.79,2.86-7.26c-0.07,1.6-0.07,3.2-0.06,4.81v0.79
		c-0.21,2.8-0.52,5.59-0.77,8.38c-1.02-0.32-2.04-0.63-3.05-0.94C61.54,269.99,61.84,268.05,62.25,266.14z"/>
	<path fill="#010101" d="M91.23,268.25c1.42,0.08,2.84,0.16,4.27,0.24c0.08,1.1,0.17,2.21,0.25,3.32c-1.38-0.13-2.77-0.26-4.15-0.39
		C91.48,270.36,91.35,269.31,91.23,268.25z"/>
	<path fill="#010101" d="M142.37,269.25c0.74-0.39,1.49-0.77,2.24-1.15c3.15,3.41,4.67,7.99,8,11.26c2.35,2.37,4.86,4.63,6.8,7.38
		c-1.03,0.22-2.06,0.43-3.09,0.67c-0.28-0.63-0.85-1.88-1.14-2.5c-2.71-3.25-6.38-5.63-8.67-9.24
		C145.11,273.54,143.77,271.37,142.37,269.25z"/>
	<path fill="#010101" d="M355.83,276.5c0.6-0.1,1.79-0.3,2.39-0.41c-2.09,3.73-4.31,7.38-6.51,11.04c-0.29-0.14-0.85-0.41-1.14-0.55
		C352.62,283.38,354.38,280.01,355.83,276.5z"/>
	<path fill="#010101" d="M361.91,282.71c-0.39-1.83-1.54-3.5-1.33-5.44c1.55,1.56,4.94,2.82,4.23,5.51
		c-1.09,2.6-3.52,4.26-6.07,5.22C359.48,286.06,360.74,284.4,361.91,282.71z"/>
	<path fill="#010101" d="M331.39,281.47c1.05,0.02,2.11,0.06,3.16,0.09c-0.57,1.96-1.15,3.91-1.72,5.86
		c2.41,0.83,4.93,1.17,7.47,1.05c-0.64-2.27-1.3-4.52-1.95-6.78c0.51-0.07,1.54-0.22,2.05-0.29c0.6,0.79,1.22,1.56,1.87,2.33
		c-0.31,2.07-0.58,4.14-0.83,6.22c-3.25,0.43-6.53,0.22-9.72-0.46C331.61,286.81,331.5,284.14,331.39,281.47z"/>
	<path fill="#010101" d="M251.35,297.58c4.32-5.34,7.78-11.44,13.11-15.89c-0.65,4.52-4.09,7.7-6.7,11.17
		c1.05,1.38,2.11,2.77,3.16,4.16c-0.73-0.01-1.45,0-2.17,0c-1.57-0.21-3.15-0.37-4.72-0.5c0.05,1.81,0.08,3.62,0.11,5.43
		c2.97-0.67,5.96-1.29,8.96-1.81c-0.93,1.16-1.87,2.31-2.85,3.43c-3.03,0.53-6.14,0.26-9.09-0.58c-0.32-0.29-0.95-0.86-1.27-1.15
		C250.35,300.41,250.8,298.98,251.35,297.58z"/>
	<path fill="#010101" d="M265.11,288.65c1.85-2.06,3.61-4.18,5.36-6.33c0.59,2.17,1.25,4.31,2.06,6.41
		C270.11,287.76,267.55,287.84,265.11,288.65z"/>
	<path fill="#010101" d="M365.1,285.26c0.85-0.45,1.7-0.89,2.56-1.34c2.08,3.61,4.33,7.13,6.89,10.42c-1.7,0.61-3.53,0.63-5.31,0.51
		c-0.65,0.66-1.29,1.32-1.92,1.99C368.36,292.78,366.84,288.87,365.1,285.26z"/>
	<path fill="#010101" d="M130.66,286.71c-1.64,2.99-4.7-1.1-1.53-2.04C129.51,285.18,130.28,286.2,130.66,286.71z"/>
	<path fill="#010101" d="M288.96,290c0.81-1.75,1.78-3.5,3.7-4.22c0,0.75,0.01,2.26,0.01,3.01
		C291.43,289.19,290.19,289.6,288.96,290z"/>
	<path fill="#010101" d="M344.28,289.28c1.25,0.01,2.5,0.03,3.76,0.06c-0.8,1.88-1.92,3.61-3.58,4.84
		C344.38,292.54,344.33,290.91,344.28,289.28z"/>
	<path fill="#010101" d="M301.22,290.21c1.24,0.01,2.49,0.01,3.74,0.02c-0.39,0.91-0.77,1.82-1.15,2.73
		c-0.63-0.04-1.91-0.1-2.55-0.13C301.25,292.17,301.23,290.87,301.22,290.21z"/>
	<path fill="#010101" d="M355.47,301.48c3.04-0.51,5.31-2.59,7.08-4.97c0.58,1.25,1.17,2.5,1.77,3.75c4.1-1,8.17-2.16,12.25-3.26
		c0.44,0.61,1.32,1.83,1.76,2.44c-4.04,2.43-8.91,2.42-13.31,3.84c-2.73,0.25-5.49,0.25-8.22,0.48c-8.95,0.3-15.05,7.95-23.48,9.76
		c-3.4,0.9-6.48-1.25-9.43-2.59c1.68-1.98,3.08-4.41,5.42-5.68c4.39-1.08,8.95-0.34,13.4-0.72
		C347.12,304.31,351.31,302.82,355.47,301.48z"/>
	<path fill="#010101" d="M64.81,300.1c0.82,0.01,2.47,0.04,3.3,0.06c-0.24,1.06-0.48,2.13-0.71,3.2c-0.56,0.12-1.67,0.36-2.23,0.48
		C65.05,302.59,64.93,301.34,64.81,300.1z"/>
	<path fill="#010101" d="M137.35,303.55c0.94,1.53,1.95,3.01,2.95,4.5c-0.54,0.27-1.64,0.81-2.18,1.08
		C137.86,307.27,137.63,305.41,137.35,303.55z"/>
	<path fill="#010101" d="M259.23,304.77c8.55-0.41,16.38,3.62,24.02,6.91c-5.95,2.37-12.34,3.25-18.52,4.84
		c-4.48,1.15-8.04-3.48-8.34-7.52C257.04,307.41,258.17,306.09,259.23,304.77z"/>
	<path fill="#010101" d="M354.12,309.77c1.39-1.09,2.79-2.18,4.2-3.26c0.59,1.04,1.21,2.09,1.82,3.14
		c-1.33,0.65-2.67,1.26-4.02,1.85C355.62,311.07,354.62,310.2,354.12,309.77z"/>
	<path fill="#7C2905" d="M288.21,70.17c1.37-1.09,2.99,0.15,4.44,0.42c-6.58,8.4-4.08,19.86-8.06,29.26
		c-2.02-0.06-4.11,0.25-6.06-0.37c-3.42-2.58-5.26-7.95-10.25-7.67c-0.5,2.46-0.97,4.94-1.42,7.41c2.06-0.26,4.12-0.52,6.17-0.81
		c-0.08,0.54-0.24,1.61-0.32,2.15c-1.86,0.6-3.73,1.17-5.63,1.57c-1.98-3.22-2.47-7.37-0.84-10.84c2.59-1.94,6.19-2.18,8.53-4.51
		c2.1-2.67,2.83-6.22,5.31-8.62C282.78,75.49,285,72.25,288.21,70.17z"/>
	<path fill="#7C2905" d="M84.76,119.78c2.97-0.87,5.07-3.39,7.1-5.59c0.32,0.41,0.98,1.23,1.31,1.63c0.89,1.02,1.84,1.98,2.8,2.94
		c-0.79,0.09-2.35,0.27-3.13,0.36c1.43,2.6,2.9,5.18,4.42,7.73c-1.63,0.94-3.27,1.87-4.9,2.8c-0.13,1.02-0.25,2.04-0.37,3.06
		c-3.16-0.81-6.42-1.11-9.67-1.38c-0.84-1.08-1.69-2.16-2.53-3.24c2.34-0.06,4.68-0.1,7.02-0.14c0.79-1,1.58-1.99,2.37-2.99
		c-4.22,0.05-8.45,0.79-12.66,0.32c-2.34-0.92-3.98-2.99-5.84-4.6c0.4-0.82,0.82-1.63,1.28-2.42
		C76.28,118.34,80.46,119.67,84.76,119.78z"/>
	<path fill="#7C2905" d="M52.78,129.82c1.51-2.42,3.41-5.17,6.5-5.5c3.79-0.31,7.78,0.38,11.14,2.22c0.97,1.48,0.71,3.36,0.79,5.05
		c-0.2,5.84,0.45,12.21,4,17.06c2.55,0.93,5.22,1.52,7.77,2.47c1.96-2.32,5.66-5.87,2.66-8.81c-1.73-2.38-4.86-0.63-7.18-0.55
		c0.76-2.07,1.81-4.06,3.62-5.39c3.69-1.34,7.54-0.33,10.95,1.26c0.14-1.31,0.27-2.62,0.41-3.93c1.25,0.98,2.46,2.02,3.57,3.16
		c-1.46,4-1.12,8.25-0.36,12.34c-2.67,1.14-5.05,2.86-6.24,5.6c-1.08,0.83-2.16,1.66-3.25,2.49c-0.36-1.61-0.72-3.22-1.09-4.82
		c-1.68,1.71-3.12,3.62-4.32,5.69c1.56,0.75,3.11,1.51,4.66,2.26c-0.77,4.32-2.68,8.33-3.5,12.62c-0.08,5.39,1.45,10.66,1.68,16.04
		c-1.1,0.65-2.2,1.32-3.3,1.98c0.63,1.48,1.26,2.95,1.89,4.43c-2.16,1.81-4.79,2.7-7.61,2.41c-0.28-0.58-0.85-1.73-1.13-2.3
		c-0.54-1.51-1.07-3.01-1.54-4.54c-1.77-5.85-1.21-11.98-1.82-17.98c-0.73-5.08,0.74-10.4-1.62-15.21
		c1.66-5.42-0.03-10.95,0.01-16.45c-0.01-4.83-1.08-9.57-1.61-14.35c-2.54-0.89-5.02-2.25-7.75-2.32
		C57.24,125.7,54.96,127.8,52.78,129.82z"/>
	<path fill="#7C2905" d="M238.22,140.72c3.23-0.3,6.45-0.59,9.67-0.86c1.1,0.37,2.19,0.75,3.27,1.16c-0.83,1.99-1.49,4.05-2.15,6.1
		c0.48,0.08,1.44,0.23,1.91,0.3c1.91,4.09,2.12,8.62,2.08,13.05c-7.36-2.97-13.72-9.04-16.32-16.62
		C237.19,142.8,237.7,141.76,238.22,140.72 M240.16,145.7c0.6,1.44,1.21,2.87,1.83,4.31c0.56-0.34,1.67-1.01,2.23-1.35
		C242.87,147.66,241.52,146.67,240.16,145.7z"/>
	<path fill="#7C2905" d="M124.36,148.24c3,2.06,5.75,4.47,8.84,6.41c-0.06,1.31-0.12,2.62-0.16,3.94c-1.51,0.68-3.01,1.37-4.52,2.05
		c-0.1,0.46-0.3,1.4-0.4,1.86c1.65,0.13,3.31,0.26,4.97,0.4c1.19,2.76,2.76,5.33,4.3,7.91c-1.54-0.94-3.07-1.87-4.6-2.79
		c-1.11,1.2-2.21,2.39-3.31,3.59c-0.82-0.49-2.71-1.23-3.05,0.17c0.34,1.3,1.71,1.9,2.64,2.75c-0.12,0.29-0.36,0.89-0.47,1.18
		c-1.07-0.6-2.14-1.19-3.21-1.79c0.54-4.09-1.93-7.71-2.25-11.66c0.92-3.45,2.67-6.6,3.89-9.94c-1.12,0.12-2.24,0.25-3.36,0.38
		l0.36-0.65c0.9-1.01,1.11-2.08,0.63-3.21L124.36,148.24z"/>
	<path fill="#7C2905" d="M96.88,152.19c0.8,0.38,1.6,0.78,2.36,1.24c0.59,1.23,2.44,2.12,3.32,0.62c-0.12,4.56,1.67,8.83,4.31,12.49
		c-0.14,0.53-0.27,1.07-0.41,1.6c1.06,0.41,2.11,0.81,3.17,1.21c0.92,3.18,1.86,6.36,2.58,9.6c-0.45,2.87-3.09,3.86-5.62,4.34
		c0.28-2.02,0.68-4.01,1.23-5.97c-2.77-3.84-5.54-8.02-9.86-10.26c-3.11-1.79-6.71-2.31-10.22-2.63c0.55-3.23,2.07-6.15,4.32-8.52
		c1,0.67,2.01,1.33,3.01,1.99c0.31-0.59,0.93-1.77,1.24-2.36C97.08,154.51,97.27,153.39,96.88,152.19z"/>
	<path fill="#7C2905" d="M114.74,185.05c0.66,2.84,1.49,5.73,3.18,8.14c2.01,1,4-1.04,5.89-1.57c0.48,0.42,0.97,0.84,1.46,1.26
		c-0.99,1.2-1.98,2.4-2.96,3.61c1.72,1.44,3.59,2.76,5.03,4.51c-0.35,0.77-0.81,1.49-1.29,2.19c-1.9-1.18-3.91-2.18-6.05-2.86
		c0.14,1.27,0.28,2.54,0.44,3.81c-0.58,0.04-1.73,0.11-2.3,0.15c0.59,1.14,1.2,2.28,1.76,3.45c0.19,2.1,0.08,4.22,0.13,6.33
		c0.08,3.56,1.58,6.96,1.33,10.54c-0.67,5.64,2.95,10.64,2.66,16.3c-1.2-0.15-2.39-0.3-3.59-0.44c-0.1,0.51-0.29,1.54-0.39,2.05
		c-1.26-0.42-2.55-0.79-3.83-1.16c0.34-0.17,1.01-0.53,1.34-0.71c-0.23-1.77-0.55-3.52-1.07-5.22c-3.81-0.03-7.65,1.6-11.38-0.19
		c0.19,0.31,0.55,0.93,0.74,1.24c-1.74,0.99-3.47,2.01-5.17,3.07c1.53,0.48,3.06,0.96,4.6,1.44c-0.18,3.75-0.92,7.45-2.65,10.82
		c-1.12,2,1.94,2.29,3.1,3.06l-0.78,0.17c-2.83,0.64-5.74,0.78-8.63,0.6c0.23,0.83,0.47,1.66,0.7,2.49
		c-2.22-0.02-4.44-0.04-6.65-0.26l-0.55-0.34c3.36-4.8,3.47-11.6-0.66-15.98c0.23-1.19,0.51-2.36,0.85-3.51
		c0.2-0.37,0.6-1.11,0.8-1.48c0.79,0.22,2.36,0.67,3.15,0.89c1.22,0.36,2.43,0.72,3.65,1.09c-0.08-3.5-2.31-6.22-4.63-8.6
		c-2.02,1.62-4.04,3.24-6.03,4.9c-0.81-1.74-1.62-3.48-2.44-5.21c-0.52,2.36-0.99,4.72-1.38,7.1c-2.07-2.03-4.45-3.7-7.09-4.91
		c-0.37,0.58-1.12,1.72-1.49,2.29c1.23,2.62,1.91,5.75,4.21,7.68c1.66,0.57,3.45,0.5,5.17,0.59c-0.07,5.12-0.76,10.21-1.99,15.18
		c-0.7-2.16-1.34-4.35-1.94-6.54c-1.94,2.49-4.28,4.83-5.33,7.86c-0.89,2.83,1.37,5.24,2.66,7.53c1.28-0.05,2.56-0.09,3.83-0.13
		c0.72,3.1,1.52,6.18,2.2,9.29l0.11,0.77c-3.24-0.85-6.9-1.09-9.61-3.21c-2.7-3.14-4.55-7.28-8.8-8.65v-0.79
		c0.59-0.03,1.79-0.09,2.38-0.12c1.37-0.09,2.74-0.2,4.11-0.31c-0.13-1.32-0.26-2.63-0.39-3.94c-1.13,0.13-2.25,0.27-3.38,0.4
		c-0.1-2.25-0.44-4.48-0.64-6.72c0.94-3.11,2.1-6.2,2.36-9.46c0.01-3.15-2.05-5.92-2.02-9.08c0.17-4.23,1.37-8.31,2.37-12.39
		c1.17,0.54,2.35,1.08,3.52,1.63c1.09-4.18,3.73-7.59,5.98-11.18c0.07-2.99-1.4-6.3,0.96-8.8c0.57,1.68,1.09,3.38,1.69,5.05
		c0.55,1.15,1.49,1.87,2.81,2.15c0.37,1.26,0.8,2.51,1.22,3.76c-0.36,0.45-1.1,1.37-1.47,1.83c-0.84-0.04-2.51-0.12-3.35-0.16
		c0.35,1.08,0.7,2.17,1.06,3.26c-1.03,1.58-1.96,3.23-2.91,4.87c3.08,1.34,6.08,2.89,9.25,3.99c1.71-0.59,3.44-1.17,5.02-2.07
		c0.98-0.85,1.91-1.76,2.85-2.66c2.57,1.06,5.07,2.32,7.26,4.05c-2.06,0.66-4.13,1.31-6.19,1.99c1.4,0.63,2.74,1.57,4.3,1.73
		c1.42-0.34,2.43-1.53,3.5-2.44c0.77-0.97,1.5-1.97,2.23-2.96c1.74,2.24,3.29,6.14,6.79,5.44c1.47-1.31,2.65-2.91,3.94-4.4
		c0.21-0.45,0.64-1.35,0.85-1.81l-0.45-0.63c-2.94-0.41-6.84,0.76-8.52-2.45c2.27-0.26,4.55-0.52,6.84-0.68l-0.17-0.74
		c-0.11-0.61-0.34-1.81-0.45-2.42c-0.69-0.45-1.38-0.9-2.06-1.34c-0.62,1.06-1.23,2.12-1.84,3.18c-0.55-0.06-1.67-0.18-2.22-0.24
		c-0.06-0.81-0.18-2.42-0.23-3.23c0.7-0.1,2.12-0.3,2.83-0.4c-0.15-1.87-0.13-3.78-0.68-5.59c-1.43-1.48-3.2-2.54-4.9-3.68
		c0.02-0.63,0.04-1.9,0.05-2.53c-3.27-0.39-6.16,1.19-8.82,2.89c0.1,1.54,0.2,3.08,0.3,4.63c-1.14-0.1-2.28-0.2-3.42-0.29
		c-0.96-2.28-2.23-4.48-2.64-6.93c0.53-2.96,2.28-5.69,4.45-7.73c4.35-3.64,10.5-2.97,15.29-5.61
		C114.09,189.84,114.06,187.2,114.74,185.05 M74.09,243.07c-1.39,0.68-1.73,2.31-2.39,3.57c1.79-0.65,3.57-1.32,5.38-1.93
		c-1.03,2.62-3.33,4.3-5.05,6.42c-0.57,1.26-0.49,5.96,1.54,3.66c2.49-3.62,5.57-6.76,8.38-10.12
		C79.48,243.82,76.71,241.33,74.09,243.07z"/>
	<path fill="#7C2905" d="M147.17,283.93c1.16,0.36,2.31,0.73,3.47,1.11c0.83,1.71,1.57,3.48,2.67,5.05
		c2.55,1.43,5.38-0.15,7.88-0.91c2.66,3.82,6.85,6.53,8.68,10.91c-0.46,2.31-1.77,4.32-2.86,6.37c-1.32-0.82-2.67-1.58-4.01-2.35
		c-0.76,0.88-1.51,1.76-2.27,2.64c-1.18-0.01-2.36,0.06-3.54,0.16c-4.69-0.27-6.57-5.08-8.74-8.49c1.86,0.52,3.72,1.08,5.6,1.55
		c2.92,0.44,0.46-2.89-1.11-3.01c0.45-0.25,1.33-0.75,1.77-1c2.2,0.52,4.41,1.01,6.64,1.4c-1.3-2-2.48-4.2-4.48-5.59
		c-2.68,0.15-4.43,2.49-6.35,4.09C151.59,291.47,149.44,287.5,147.17,283.93 M163.12,297.18c-1.89,0.45-1.04,3.56,0.83,3
		C165.85,299.73,164.96,296.62,163.12,297.18z"/>
	<path fill="#7C2905" d="M88.09,303.91c2.23-3.38,6.43-4.59,10.29-4.56c0.12,0.51,0.34,1.54,0.46,2.05
		c-0.85,0.35-2.53,1.05-3.37,1.4c-0.42,0.19-1.26,0.57-1.68,0.76c0.76,3.06,2.57,5.75,5.12,7.6c-3.19,1.05-6.55,1.34-9.89,1.21
		c0.25,0.82,0.49,1.65,0.74,2.48c-0.24,0.53-0.71,1.59-0.95,2.12c-0.88-1.13-1.75-2.27-2.54-3.45
		C86.87,310.32,87.05,307.01,88.09,303.91z"/>
	<g id="_x23_806e39ff">
		<path fill="#806E39" d="M63.73,32.29c6.56-0.15,13.13-0.11,19.7,0.19l-0.66-0.01c-3.72,0.05-7.41,0.38-11.12,0.49
			c0.08,1.32,0.16,2.65,0.24,3.98c-1.22,0.49-2.44,0.98-3.67,1.47c0.16-1.78,0.33-3.55,0.49-5.32c-1.54-0.26-3.07-0.52-4.62-0.75
			L63.73,32.29z"/>
		<path fill="#806E39" d="M264.83,65.68c0.38,0.09,1.12,0.27,1.5,0.37c0.38,0.09,1.15,0.28,1.53,0.37
			c-2.49,3.33-3.77,7.32-4.42,11.38c0.64-0.12,1.93-0.35,2.58-0.46c0,1.19,0,2.39,0.01,3.59c1.65-1.27,3.3-2.53,4.88-3.89
			c-0.05,0.45-0.15,1.36-0.21,1.82c1.25-0.51,2.49-1.02,3.72-1.57c-0.11,0.49-0.32,1.46-0.42,1.95c-2.25,3.41-4.79,6.76-8.34,8.92
			c-1.56-0.63-3.12-1.25-4.68-1.86c-0.65-2.46-1.32-4.92-2.25-7.28c1.4,1.72,2.89,3.38,4.37,5.04
			C261.94,77.88,262.29,71.48,264.83,65.68 M265.13,83.16c0.08,0.78,0.25,2.32,0.33,3.1c0.92-0.97,1.87-1.91,2.84-2.82
			C267.51,83.37,265.92,83.23,265.13,83.16z"/>
		<path fill="#806E39" d="M69.14,74.17c3.47-1.47,7.1-2.78,10.85-3.33c1.77-0.32,3.17,0.88,4.51,1.82
			c-1.48,0.64-2.96,1.28-4.46,1.88c3.91,1.25,7.88,5.44,5.12,9.6c-2.19-0.17-4.38-0.33-6.56-0.47c-1.94,2.01-4.21,3.71-5.92,5.92
			c-1.1,2.51-1.77,5.18-2.73,7.75c-2.34-0.52-5.23-0.48-6.78-2.63c-0.93-3.37-0.06-6.86,1.59-9.84c-0.23-1.3-0.46-2.59-0.7-3.88
			C65.66,78.67,66.85,75.91,69.14,74.17z"/>
		<path fill="#806E39" d="M292.74,78.69c1.32-0.5,2.65-1.01,3.97-1.52c1.48,2.29,2.96,4.58,4.42,6.89
			c-0.77,1.98-1.54,3.96-2.28,5.94c-1.21,0.5-2.51,0.76-3.78,1.06c0.56-1.97,1.16-3.93,1.78-5.88c-1.14-0.25-2.27-0.5-3.41-0.74
			C293.21,82.52,292.98,80.6,292.74,78.69z"/>
		<path fill="#806E39" d="M112.4,133.86c0.29,0.14,0.87,0.42,1.16,0.56c0.87,1.09,1.68,2.22,2.55,3.31c-0.3,0.37-0.9,1.11-1.2,1.47
			c0.22,0.96,0.44,1.91,0.66,2.87c-1.88,1-3.76,2.02-5.59,3.11c4.04,0.39,7.76-1.25,11.39-2.77c-0.14,1.76-0.04,3.57-0.55,5.29
			c-1.02,2.48-3.16,4.72-2.54,7.62c1.76-2.56,3.26-5.29,4.86-7.95c0.3,0.22,0.91,0.65,1.22,0.87l0.3,0.6
			c-2.07-0.41-2.6,2.73-0.63,3.21l-0.36,0.65c-1.47,2.48-2.34,5.48-4.7,7.31c-2.12-2.02-3.15-4.83-4.94-7.1
			c-1.88-2.02-4.58-3.23-6.03-5.66c-1.4-2.24-2.57-4.62-3.88-6.91c2.56-2.02,5.43-3.57,8.46-4.73
			C112.53,135.17,112.44,134.3,112.4,133.86 M108.25,138.12c-0.06,0.75-0.17,2.25-0.23,3c1.46-1.25,2.89-2.54,4.21-3.95
			C110.9,137.48,109.58,137.8,108.25,138.12 M113.13,149.16c-1.52,0.36-0.66,2.69,0.74,2.12
			C115.39,150.93,114.52,148.59,113.13,149.16z"/>
		<path fill="#806E39" d="M97.01,136.86c0.93,1.44,1.75,2.95,2.52,4.48c0.25,0.52,0.75,1.54,1,2.06c1.11,0.5,2.23,1.01,3.36,1.52
			c-1,1.57-2,3.12-3,4.68c1.52-0.01,3.03-0.03,4.55-0.03c-0.13,5.74,3.39,11.29,1.43,16.97c-2.64-3.66-4.43-7.93-4.31-12.49
			c0.4-2.07-2.69-2.3-3.32-0.62c-0.76-0.46-1.56-0.86-2.36-1.24c-2.36-1.37-2.79,2.99-0.57,3.35c-0.31,0.59-0.93,1.77-1.24,2.36
			c-1-0.66-2.01-1.32-3.01-1.99c-0.41-0.28-1.24-0.84-1.65-1.11c1.19-2.74,3.57-4.46,6.24-5.6
			C95.89,145.11,95.55,140.86,97.01,136.86z"/>
		<path fill="#806E39" d="M250.92,147.42c1.73,0.22,3.76,0.41,4.18,2.48c2.2,3.75,1.37,8.11-0.5,11.78c-0.4-0.3-1.2-0.91-1.6-1.21
			C253.04,156.04,252.83,151.51,250.92,147.42z"/>
		<path fill="#806E39" d="M81.29,191.06c1.1-0.66,2.2-1.33,3.3-1.98c0.48,5.92,0.64,12.22,3.79,17.47
			c2.05,3.44,4.05,6.93,5.56,10.65c4.63-3.12,9.18-6.37,13.36-10.08c1.7,1.14,3.47,2.2,4.9,3.68c0.55,1.81,0.53,3.72,0.68,5.59
			c-0.71,0.1-2.13,0.3-2.83,0.4c-1.2,0.19-2.4,0.42-3.58,0.72c-1.37,1.83-2.52,3.81-3.62,5.81c1.97-0.3,4-0.59,5.69-1.71
			c0.44-0.39,1.3-1.19,1.74-1.59c0.55,0.06,1.67,0.18,2.22,0.24c1.45,0.16,2.9,0.35,4.35,0.58l0.17,0.74
			c-2.29,0.16-4.57,0.42-6.84,0.68c1.68,3.21,5.58,2.04,8.52,2.45c-1.82-0.51-2.56,2.52-0.4,2.44c-1.29,1.49-2.47,3.09-3.94,4.4
			c-3.5,0.7-5.05-3.2-6.79-5.44c-0.73,0.99-1.46,1.99-2.23,2.96c-0.4-0.32-1.21-0.96-1.61-1.28c-2.19-1.73-4.69-2.99-7.26-4.05
			c-0.94,0.9-1.87,1.81-2.85,2.66c0.01-0.36,0.03-1.08,0.05-1.44c-1.81,0.28-3.6,0.63-5.39,0.98c0.08,0.63,0.24,1.9,0.32,2.53
			c-3.17-1.1-6.17-2.65-9.25-3.99c0.95-1.64,1.88-3.29,2.91-4.87c0.73-1.06,1.5-2.09,2.29-3.1c0.37-0.46,1.11-1.38,1.47-1.83
			c-0.42-1.25-0.85-2.5-1.22-3.76c0.74-2.13-1.9-5.74-2.81-2.15c-0.6-1.67-1.12-3.37-1.69-5.05c-2.36,2.5-0.89,5.81-0.96,8.8
			c-2.25,3.59-4.89,7-5.98,11.18c-1.17-0.55-2.35-1.09-3.52-1.63l0.18-0.73l0.21-0.75c1.13-0.39,2.27-0.78,3.41-1.15
			c-0.06-2.86-0.25-5.73,0.11-8.57c0.39-2.91,2.28-5.28,3.17-8.01c0.26-1.77-0.69-3.4-1.35-4.96c2.82,0.29,5.45-0.6,7.61-2.41
			C82.55,194.01,81.92,192.54,81.29,191.06 M104.48,215.21c2.49,0.22,4.97-0.17,7.31-1.06c-0.83-1.28-1.66-2.56-2.51-3.82
			C107.49,211.76,105.84,213.36,104.48,215.21 M103.57,216.1c-0.97,1.17,1.08,2.55,1.91,1.36
			C106.46,216.28,104.4,214.91,103.57,216.1 M84.28,218.92c1.67,0.46,3.34,0.9,5.02,1.32c-0.47-1.25-0.95-2.5-1.44-3.74
			C86.47,217.01,85,217.51,84.28,218.92 M95.56,218.88c1.55,2.48,5.21,4.71,6.95,1.08C100.23,219.36,97.9,219.02,95.56,218.88
			 M90.53,219.88c-0.88,1.16-1.76,2.33-2.64,3.49c-1.45-0.09-2.9-0.17-4.34-0.23c1.75,4.07,7.24,1.22,10.49,0.78
			C93.24,222.28,92.07,220.88,90.53,219.88 M113.31,228.03c-1.91,0.43-1.11,3.54,0.77,2.96
			C115.99,230.58,115.19,227.41,113.31,228.03z"/>
		<path fill="#806E39" d="M100.67,239.55c1.7-1.06,3.43-2.08,5.17-3.07c1.73,2.78,3.19,5.82,5.57,8.13
			c2.29,1.84,5.26,2.47,7.96,3.51c-1.97-1.77-3.92-3.55-5.8-5.41c0.66-0.33,1.98-1.01,2.64-1.35c1.28,0.37,2.57,0.74,3.83,1.16
			c4.15,2.27,6.53,6.49,9.34,10.11c2.42,3.37,5.34,6.5,6.91,10.4c-1.09,2.53-4.45,3.45-6.56,5.16c2.68,2.41,6.6,3.33,8.85,6.13
			c-0.51,1.71-1.33,3.3-2.07,4.92c2.21-1.36,4.43-2.7,6.63-4.07c-3.76-2.4-9.83-3.78-9.68-9.29c0.8,0.01,2.41,0.05,3.21,0.06
			c1.02,1.39,2.07,2.76,3.13,4.13c0.24-0.9,0.48-1.8,0.72-2.69c-1.61-3.46-2.87-7.06-4.45-10.54c2.91,3.71,5.16,7.92,8.54,11.26
			c-0.75,0.38-1.5,0.76-2.24,1.15c1.4,2.12,2.74,4.29,4.14,6.42c2.29,3.61,5.96,5.99,8.67,9.24c-1.3-0.4-3.01,1.27-1.75,2.39
			c0.92,0.49,1.88,0.53,2.89,0.11c1.03-0.24,2.06-0.45,3.09-0.67c0.59,0.82,1.18,1.63,1.78,2.44c-2.5,0.76-5.33,2.34-7.88,0.91
			c-1.1-1.57-1.84-3.34-2.67-5.05c-1.16-0.38-2.31-0.75-3.47-1.11c2.27,3.57,4.42,7.54,3.35,11.93c1.92-1.6,3.67-3.94,6.35-4.09
			c2,1.39,3.18,3.59,4.48,5.59c-2.23-0.39-4.44-0.88-6.64-1.4c-0.44,0.25-1.32,0.75-1.77,1c-1.65,0.79,0.23,2.46,1.11,3.01
			c-1.88-0.47-3.74-1.03-5.6-1.55c2.17,3.41,4.05,8.22,8.74,8.49c-2.49,0.26-5.73,2.06-7.63-0.45c-2.41-2.84-4.15-6.26-5.14-9.85
			c-0.78-1.76,1.16-2.87,1.99-4.15c-1.48-2.7-3.2-5.27-5.21-7.6c1.06,2.78,2.23,5.52,3.39,8.26c-0.87-0.03-2.62-0.1-3.49-0.14
			c-3.36-5.13-5.8-10.8-9.35-15.81c-2.01-2.96-4.32-5.71-6.19-8.77c-1.82-2.96-2.51-6.5-4.62-9.29c-2.13-2.86-4.7-5.36-7.25-7.82
			c1.23,2.33,2.63,4.58,4.12,6.76c-0.62,0.6-1.24,1.21-1.86,1.83c-0.53-0.17-1.58-0.5-2.11-0.66c-0.21,1.13-0.41,2.27-0.62,3.41
			c1.39,0.36,2.77,0.73,4.16,1.1c0.18,0.42,0.55,1.25,0.74,1.67c-2.45,1.22-5.97,2.23-6.17,5.51c0.67,1.27,1.52,2.43,2.34,3.61
			c-0.41,1.54-0.83,3.08-1.24,4.63c3.35,0.32,6.7,0.52,10.06,0.57c0.72,1.1,1.44,2.21,2.17,3.33c0.55-0.25,1.66-0.73,2.21-0.97
			c0.52,0.88,1.06,1.75,1.64,2.59c-3.17,0.94-0.11,5.03,1.53,2.04c1.05,1.8,1.83,3.74,2.39,5.75c0.24,3.73,1.22,7.35,2.47,10.86
			c0.35-1.18,0.7-2.36,1.04-3.54c0.3,1.25,0.54,2.51,0.79,3.77c0.28,1.86,0.51,3.72,0.77,5.58c0.54-0.27,1.64-0.81,2.18-1.08
			l0.71-0.36c-0.32,2.98,3.87,1.48,2.4-0.8l-0.3-0.91c0.66,1.72,2.5,3.52,1.38,5.43c-4.52,2.78-10.06,2.15-14.98,3.62
			c-2.78,1.2-4.25,4.11-5.95,6.44c-1.1,0.22-2.19,0.5-3.27,0.84c1.55-2.83,3.15-5.63,4.6-8.51c0.05,0.9,0.16,2.7,0.21,3.6
			c1.17-1.44,2.31-2.91,3.43-4.38c-0.74-0.76-1.49-1.53-2.23-2.28c-0.26,0.56-0.78,1.68-1.04,2.24c-1.7-4.05-3.35-8.2-3.72-12.63
			c-0.21-2.79-1.35-5.36-2.63-7.8c-0.41,0.43-1.23,1.3-1.64,1.74c1.06,5.98,3.1,11.7,4.96,17.45c1.23,2.99-1.08,5.54-2.76,7.74
			c-2.09-6.62-3.64-13.39-5.34-20.12c-0.84-2.76-0.41-5.64,0.41-8.35c-1.91,1.1-3.84,2.16-5.78,3.21c-0.22-0.55-0.66-1.65-0.88-2.2
			c2.31-2.28,5.18-3.78,7.98-5.34c1.58-0.62,1.61-2.52,2.24-3.85c-2.41,1.37-4.76,2.82-7.09,4.3c-1.38-1.59-2.75-3.17-4.16-4.72
			c0.58,1.99,1.19,3.97,1.83,5.95c-0.39,0.24-1.18,0.74-1.57,0.98c-0.19-0.68-0.58-2.04-0.77-2.72c-0.97,2.28-1.65,4.72-1.28,7.22
			c-0.81-3.53-1.21-7.13-1.51-10.72c-0.59-0.01-1.76-0.02-2.35-0.02c0.56,10.06,0.68,20.15,1.49,30.2c-1.27-0.71-2.54-1.4-3.78-2.14
			c-2.55-1.85-4.36-4.54-5.12-7.6c0.42-0.19,1.26-0.57,1.68-0.76c1.01,1.63,2.05,3.24,3.12,4.83c0.73-2.02,0.86-4.17,0.25-6.23
			c-0.12-0.51-0.34-1.54-0.46-2.05c-3.86-0.03-8.06,1.18-10.29,4.56c-1.04,3.1-1.22,6.41-1.82,9.61
			c-2.95-6.07-0.91-13.14,2.41-18.59c-1.16-0.7-2.32-1.4-3.47-2.09c0.48-8.32,2.4-16.54,1.71-24.91c-0.41-3.74,1.1-7.24,3.44-10.06
			c2.21,0.22,4.43,0.24,6.65,0.26c1.28,4.24,1.95,8.62,3.14,12.87c0.84,2.47,2.79,6.03-0.77,7.3c-3.51-0.27-6.63-2.24-9.91-3.38
			c0.82,5.42,0.71,10.91,0.2,16.35c1.29-3.74,1.87-7.68,1.85-11.63c4.41,0.21,8.83,0.44,13.23,0.93c-0.6-3.58-1.13-7.18-2.19-10.65
			c0.9-4.94,0.44-10.16,2.38-14.88l0.78-0.17c-1.16-0.77-4.22-1.06-3.1-3.06c1.73-3.37,2.47-7.07,2.65-10.82
			C103.73,240.51,102.2,240.03,100.67,239.55 M105.74,253.3c1.9,0.57,4.02,0.2,5.19-1.54c0.03-1.14-0.05-2.27-0.23-3.39
			C108.04,248.34,107.22,251.6,105.74,253.3 M107.27,266.31c2.58-1.67,2.7-4.81,2.83-7.56C107.5,260.39,107.44,263.57,107.27,266.31
			 M126.57,263.33c0.11,0.65,0.21,1.31,0.32,1.97c1.55-0.8,3.13-1.54,4.74-2.21c0.11-1,0.22-2,0.33-2.99
			C130.14,261.14,128.35,262.22,126.57,263.33 M91.15,261.14c0.06,0.58,0.17,1.74,0.23,2.32c1.26,0.55,2.51,1.11,3.76,1.68
			c0.79-0.79,1.58-1.58,2.38-2.37C95.41,262.17,93.29,261.63,91.15,261.14 M91.23,268.25c0.12,1.06,0.25,2.11,0.37,3.17
			c1.38,0.13,2.77,0.26,4.15,0.39c-0.08-1.11-0.17-2.22-0.25-3.32C94.07,268.41,92.65,268.33,91.23,268.25 M105.26,276.39
			c2.57,1.83,4.53,4.33,6.52,6.74c-0.74-2.95-1.33-5.96-1.34-9.01C108.73,274.91,107,275.67,105.26,276.39 M142.15,282.23
			c-0.52,1.63,0.03,2.18,1.66,1.66C144.33,282.26,143.77,281.71,142.15,282.23 M94.44,282.64c2.17,4.33,0.03,9.61,3.08,13.57
			c0.37-3.93,0.89-7.94,0.18-11.86C96.98,283.27,95.52,283.2,94.44,282.64 M122,288.01c1.21,4.31,2.86,8.48,4.24,12.73
			c1.46,4.28,1.19,9.06,3.67,12.99c0.76-1.68,1.62-3.53,0.65-5.32c-1.35-3.25-1.86-6.71-2.18-10.19c-1.09-3.31-3.24-6.21-4.15-9.62
			C123.68,288.45,122.56,288.16,122,288.01 M148.02,291.3C146.46,294.27,151.36,291.47,148.02,291.3 M155.23,293.54
			c-0.78,1.24,1.36,2.39,2.17,1.31C158.17,293.62,156.03,292.45,155.23,293.54 M114.3,294.29c-1.28,0.94,0.28,3.22,1.58,2.21
			C117.13,295.54,115.61,293.26,114.3,294.29 M123.42,297.45c-0.75,1.22-0.04,3.1,1.09,3.87
			C126.15,300.85,125.1,297.11,123.42,297.45 M116.23,300.52c-1.06,0.91,0.43,2.83,1.56,1.98
			C118.84,301.58,117.36,299.66,116.23,300.52 M120.44,311.65c-1.1,0.49-1.59,2.23-0.76,3.16
			C121.29,315.38,122.17,311.78,120.44,311.65z"/>
		<path fill="#806E39" d="M74.09,243.07c2.62-1.74,5.39,0.75,7.86,1.6c-2.81,3.36-5.89,6.5-8.38,10.12c-2.03,2.3-2.11-2.4-1.54-3.66
			c1.72-2.12,4.02-3.8,5.05-6.42c-1.81,0.61-3.59,1.28-5.38,1.93C72.36,245.38,72.7,243.75,74.09,243.07z"/>
		<path fill="#806E39" d="M83.92,242.38c0.78,0.01,2.34,0.01,3.11,0.01c0.4,4.63-0.26,9.27-1.81,13.65c-1.1,0.49-2.2,0.99-3.29,1.52
			C83.16,252.59,83.85,247.5,83.92,242.38z"/>
		<path fill="#806E39" d="M89.15,241.55c4.13,4.38,4.02,11.18,0.66,15.98c-0.85-0.58-1.69-1.16-2.52-1.75
			C88.33,251.09,88.34,246.27,89.15,241.55z"/>
		<path fill="#806E39" d="M74.66,258.88c1.05-3.03,3.39-5.37,5.33-7.86c0.6,2.19,1.24,4.38,1.94,6.54
			c-1.89,1.07-3.65,2.33-5.43,3.56c1.42,0.64,2.85,1.27,4.28,1.91c1.51-1.16,3.03-2.3,4.56-3.42c0.76,5.43-0.76,10.73-1.99,15.96
			c-0.68-3.11-1.48-6.19-2.2-9.29c-1.27,0.04-2.55,0.08-3.83,0.13C76.03,264.12,73.77,261.71,74.66,258.88z"/>
		<path fill="#806E39" d="M266.86,271.5c5.5-4.55,9.31-10.59,13.28-16.41c-1.37,2.95-2.37,6.11-4.2,8.83
			c-1.89,2.78-4.89,4.52-6.9,7.19c-0.9,1.58-1.08,3.43-1.5,5.18c5.05-0.06,10.8-0.1,14.81,3.47c2.68,3.76-0.45,8.17-2.01,11.75
			c0.23,0.34,0.67,1.01,0.89,1.35c2.06-3.44,4.21-7.12,3.68-11.3c3.5,0.09,6.82,1.24,9.97,2.69c4.25,1.98,9.13,1.66,13.44,3.44
			c1.19,3.08,1.67,6.38,2.58,9.55c1.11-2.85,2.03-5.76,3.9-8.2c1.24,0.64,1.73,0.37,1.48-0.8c-2.16-1.29-3.77-3.58-3.3-6.2
			c0.1-2.98,1.8-7.97,5.65-6.54c5.08,1.25,10.09-0.78,15.06-1.62c0.88,2.1,1.76,4.19,2.67,6.28c0.24-1.46,0.48-2.91,0.72-4.37
			c2.55-0.86,5.13-1.97,7.88-1.92c2.42-0.21,3.32,2.49,4.72,3.97c0.32-1.11,0.64-2.21,0.97-3.31c2.16-0.5,4.31-1.22,6.54-1.22
			c2.66,0.46,5.16,1.74,7.91,1.7c-2.42,3.25,1.11,6.13,2.56,8.91c-0.86,0.45-1.71,0.89-2.56,1.34c1.74,3.61,3.26,7.52,2.22,11.58
			c0.63-0.67,1.27-1.33,1.92-1.99c1.78,0.12,3.61,0.1,5.31-0.51c0.67,0.88,1.35,1.76,2.02,2.66c-4.08,1.1-8.15,2.26-12.25,3.26
			c-0.6-1.25-1.19-2.5-1.77-3.75c-1.77,2.38-4.04,4.46-7.08,4.97c-1.34-0.54-2.67-1.12-3.99-1.69c1.44-2.03,2.93-4.05,4.01-6.3
			c0.62-1.4,1.17-2.82,1.73-4.24c-0.59-0.17-1.75-0.51-2.34-0.69c-1.08-0.44-2.13-0.93-3.17-1.43c2.2-3.66,4.42-7.31,6.51-11.04
			c-0.6,0.11-1.79,0.31-2.39,0.41c-1.45,3.51-3.21,6.88-5.26,10.08c-0.46-0.23-1.38-0.68-1.84-0.9c0.26-1.35,0.52-2.69,0.78-4.03
			c-1.67,1.37-3.33,2.76-4.97,4.17c-0.77-0.69-1.54-1.38-2.27-2.09c-0.65-0.77-1.27-1.54-1.87-2.33c-0.51,0.07-1.54,0.22-2.05,0.29
			c0.65,2.26,1.31,4.51,1.95,6.78c-2.54,0.12-5.06-0.22-7.47-1.05c0.57-1.95,1.15-3.9,1.72-5.86c-1.05-0.03-2.11-0.07-3.16-0.09
			c0.11,2.67,0.22,5.34,0.33,8.02c-0.59,0.27-1.17,0.53-1.75,0.8c-2.2-0.49-4.4-1.08-6.67-1.12c-1.07,1.01-2.02,2.33-2.04,3.86
			c0.71,3.27,4.18,4.57,6.73,6.16c-0.07-2.29-0.15-4.57-0.2-6.85c2.31,1.63,4.44,3.5,6.39,5.54c-2.77,1.86-5.52,3.79-8.54,5.22
			c-1.37-0.67-2.71-1.37-4.15-1.83c-2.85-0.87-5.86,0.32-8.73-0.3c-1.96-0.9-3.62-2.31-5.35-3.55c0.41,1.56,0.83,3.13,1.24,4.7
			c-0.72,0.23-1.44,0.45-2.16,0.69c-2.25-2.81-4.28-6.11-7.69-7.62c-2.92-1.36-6.01-2.25-9.04-3.28c0.13,0.68,0.39,2.03,0.52,2.71
			c3.8,2.36,8.96,2.84,11.95,6.27c-2.82,4.36-5.25,10.07-10.86,11.28c-0.2-1.75-0.37-3.5-0.54-5.24c-1.13,0.66-2.27,1.33-3.4,1.99
			c-1.59-2.21-3.21-5-6.29-5.06c-0.65,1.06-1.21,2.16-1.79,3.26c1.44,0.11,2.88,0.22,4.32,0.32c0.62,0.86,1.25,1.72,1.88,2.58
			c0.01,0.91,0.02,1.81,0.04,2.72c-0.78-0.36-1.57-0.71-2.34-1.06c-7.64-3.29-15.47-7.32-24.02-6.91c0.25-0.3,0.77-0.9,1.02-1.2
			c0.98-1.12,1.92-2.27,2.85-3.43c-3,0.52-5.99,1.14-8.96,1.81c-0.03-1.81-0.06-3.62-0.11-5.43c0.3,0.82,0.9,2.46,1.2,3.28
			c1.94,0.68,2.47-1.7,3.52-2.78c0.72,0,1.44-0.01,2.17,0c-1.05-1.39-2.11-2.78-3.16-4.16c2.61-3.47,6.05-6.65,6.7-11.17
			C265.87,278.47,266.99,275.07,266.86,271.5 M340.74,277.19c0.83,0.85,1.61,1.77,2.58,2.49c1.7,0.67,2.08-1.5,2.93-2.46
			C344.41,277.17,342.57,277.16,340.74,277.19 M361.91,282.71c-1.17,1.69-2.43,3.35-3.17,5.29c2.55-0.96,4.98-2.62,6.07-5.22
			c0.71-2.69-2.68-3.95-4.23-5.51C360.37,279.21,361.52,280.88,361.91,282.71 M318.95,284.03c0.8,1.05,1.99,1.66,3.1,2.33
			c0.21-1.56,0.08-3.27,1.06-4.61c1.85,0.14,3.48,1.14,5.15,1.86c-0.14-1.12-0.28-2.24-0.4-3.35
			C324.58,280.49,320.79,280.86,318.95,284.03 M265.11,288.65c2.44-0.81,5-0.89,7.42,0.08c-0.81-2.1-1.47-4.24-2.06-6.41
			C268.72,284.47,266.96,286.59,265.11,288.65 M275.58,283.64c1.06,1.61,2.18,3.18,3.37,4.71c0.43-1.09,0.82-2.19,1.18-3.3
			C278.83,284.02,277.14,283.93,275.58,283.64 M274.18,286.21c-0.52,1.62,0.04,2.18,1.67,1.65
			C276.36,286.22,275.8,285.67,274.18,286.21 M288.96,290c1.23-0.4,2.47-0.81,3.71-1.21c0-0.75-0.01-2.26-0.01-3.01
			C290.74,286.5,289.77,288.25,288.96,290 M273.49,290.42c-2.76,3.19-5.34,6.7-6.51,10.82c4.3-3.54,7.41-8.3,11.1-12.45
			C276.54,289.23,274.62,289.11,273.49,290.42 M301.22,290.21c0.01,0.66,0.03,1.96,0.04,2.62c0.64,0.03,1.92,0.09,2.55,0.13
			c0.38-0.91,0.76-1.82,1.15-2.73C303.71,290.22,302.46,290.22,301.22,290.21 M319.16,289.99c-0.22,0.28-0.66,0.85-0.88,1.13
			C319.11,294.18,322.54,289.35,319.16,289.99 M261.85,294.83c1.12,1.32,2.92,1.18,4.48,1.44c-0.72-1.76-1.5-3.5-2.31-5.22
			C262.61,291.83,261.71,293.18,261.85,294.83 M279.88,296.19c0.29,2.93,4.51,2.48,6.67,3.7c-0.18,1.71-0.35,3.42-0.52,5.14
			c2.94-0.42,5.84-1.04,8.69-1.85c-1.26-1.96-2.33-4.11-4.1-5.66c-1.71-0.24-3.45-0.13-5.16-0.11c0.54-1.76,1.08-3.52,1.61-5.28
			C284.63,293.41,282.15,294.63,279.88,296.19 M314.95,292.78c1.69,2.94,3.91,5.78,7.39,6.6
			C321.24,295.93,318.24,293.88,314.95,292.78 M357.58,293.59c-0.27,1.26-0.53,2.52-0.79,3.78c1.16-0.48,2.35-0.92,3.56-1.31
			c-0.12-0.74-0.37-2.2-0.49-2.94C359.29,293.24,358.15,293.48,357.58,293.59 M363.61,296.79c0.59,0.31,1.76,0.92,2.35,1.23
			c0.28-1.87,0.55-3.75,0.78-5.62C365.28,293.54,364.32,295.11,363.61,296.79 M271.86,302.37c3.6-1.57,5.74-4.96,7.34-8.38
			C274.72,294.28,273,298.7,271.86,302.37 M293.09,297.28C291.57,300.27,296.42,297.4,293.09,297.28 M264.19,299.33
			c-1.47,0.98,0.14,3.55,1.61,2.37C267.28,300.72,265.66,298.15,264.19,299.33z"/>
		<path fill="#806E39" d="M67.77,259.72c1.13-0.13,2.25-0.27,3.38-0.4c0.13,1.31,0.26,2.62,0.39,3.94
			c-1.37,0.11-2.74,0.22-4.11,0.31C67.57,262.29,67.68,261,67.77,259.72z"/>
		<path fill="#806E39" d="M65.05,264.48c4.25,1.37,6.1,5.51,8.8,8.65c2.71,2.12,6.37,2.36,9.61,3.21c0.47,3.47,1.03,7.05,0.24,10.52
			c-0.64,3.02-1.98,5.99-1.54,9.15c0.78,5.2-1.04,10.24-1.85,15.31c-1.51,0.4-3.02,0.8-4.52,1.26c-0.55-0.95-1.91-1.79-1.43-3.05
			c1.03-1.15,2.24-2.11,3.4-3.11c0.16-1.46,0.31-2.91,0.46-4.35c-2.37,1.98-4.71,4-7.03,6.04c0.28-1.78,0.57-3.55,0.85-5.31
			c-0.65,0.16-1.95,0.5-2.6,0.67c-0.04,1.58-0.09,3.17-0.13,4.76c-1.37-0.96-2.74-1.92-4.12-2.85c-3.65,1.19-7.48,1.33-11.26,1.74
			c0.58,1.3,1.27,2.55,1.97,3.79c-2.24-0.48-4.44-1.15-6.65-1.73c1.47-0.38,3.47-0.36,3.83-2.22c-2.13-1.67-4.84-2.98-7.6-2.45
			c-1.71,0.14-1.57,2.15-2.04,3.37c-0.37-0.08-1.12-0.24-1.5-0.32c3.07-6.64,6.66-13.01,9.89-19.56c2.04-5.46,5.53-10.2,7.55-15.66
			c0.89-2.1,1.89-4.15,2.87-6.2c-0.41,1.91-0.71,3.85-1.02,5.78c1.01,0.31,2.03,0.62,3.05,0.94
			C64.53,270.07,64.84,267.28,65.05,264.48 M65.55,277.13c1.49-0.31,3.31,0.02,4.53-1.08c1.47-1.03,0.89-2.97,1.11-4.47
			C68.86,272.92,66.94,274.82,65.55,277.13 M55.88,283.75c-1.8,6.17-4.54,12-7.72,17.57c2.12,0.27,5.66,1.2,6.11-1.84
			c1.11-4.78,4.23-8.97,4.28-13.99c4.45-2.35,3.33-7.67,3.21-11.8C58.24,275.81,57.31,280.19,55.88,283.75 M72.6,276.15
			c0.92,3.35,4.09,4.49,7.22,4.84c0.05-0.67,0.14-2.02,0.19-2.69C77.54,277.56,75.08,276.8,72.6,276.15 M66.13,280.19
			c-0.84,9.01-5.89,16.67-9.33,24.8c4.23-2.23,5.97-7.03,9.79-9.77c-0.56-1.13-1.12-2.27-1.67-3.4c0.82-0.47,1.63-0.93,2.45-1.39
			c-0.42-3.52,0.77-6.78,3.28-9.25C69.14,280.85,67.63,280.52,66.13,280.19 M73.35,283.12c-0.24,4.85-2.34,9.27-3.36,13.94
			c-0.65,2.34,1.65,3.86,3.21,5.14c1.14-2.52-1.71-5.49,0.04-8.03c1.88-3.44,2.96-7.23,2.88-11.17
			C75.43,283.03,74.04,283.09,73.35,283.12 M59.09,292.29C57.55,295.27,62.43,292.43,59.09,292.29 M64.81,300.1
			c0.12,1.24,0.24,2.49,0.36,3.74c0.56-0.12,1.67-0.36,2.23-0.48c0.23-1.07,0.47-2.14,0.71-3.2
			C67.28,300.14,65.63,300.11,64.81,300.1z"/>
		<path fill="#806E39" d="M160.73,306.75c0.76-0.88,1.51-1.76,2.27-2.64c1.34,0.77,2.69,1.53,4.01,2.35
			c3.41,3.86,3.17,9.35,2.39,14.11c-0.99,2.36-3.15,3.97-5.02,5.63c-4.83-1.38-9.84-0.24-14.75-0.89c-4.99-0.7-10.08-0.33-15.04-1.3
			c0.66-2.49,1.41-4.95,2.19-7.4c2.81-0.52,5.62-1.07,8.47-1.31c3.69-0.33,7.01,1.89,10.67,1.86c3.34-0.1,6.59-0.92,9.86-1.56
			c0.34-2.06,0.67-4.12,1.01-6.17C164.78,308.5,162.78,307.56,160.73,306.75z"/>
		<path fill="#806E39" d="M298.28,311.11c1.49-2.56,2.84-5.24,4.87-7.43c1.32-0.24,2.23,0.27,2.73,1.53
			c0.4,2.92-1.11,5.64-1.99,8.33C301.84,313.19,299.87,312.5,298.28,311.11z"/>
		<path fill="#806E39" d="M62.37,311.87c3.18,0.8,6.24,2.13,8.88,4.08c4.46,3.78,9.19,7.61,14.88,9.3c2.88,0.78,4.5-2.28,6.3-3.9
			c-1.22-1.46-2.44-2.91-3.62-4.38c0.24-0.53,0.71-1.59,0.95-2.12c2.74,0.33,5.48,0.67,8.17,1.3c-1.99-0.1-3.98-0.09-5.96-0.1
			c-0.04,0.73-0.1,2.18-0.13,2.9c1.2,0.7,2.4,1.41,3.64,2.07c-0.23,2.23-0.57,4.55-2.02,6.36c-2.03,2.82-4.45,6.46-8.45,5.94
			c-7.2,0.56-11.34-6.27-17.28-8.97c0.52-0.42,1.56-1.27,2.08-1.7c-3.09-2.51-6.33-4.84-9.7-6.96c0.78-0.43,1.56-0.85,2.34-1.26
			C62.42,313.58,62.4,312.72,62.37,311.87z"/>
	</g>
	<g id="_x23_7f5e17ff">
		<path fill="#7F5E17" d="M62.33,35.03c3.96,3.17,7.5,6.79,11.29,10.14c0.34-0.78,0.68-1.57,1.01-2.36
			c-1.39-0.91-2.77-1.83-4.16-2.76c1.48-1.79,2.96-3.58,4.44-5.37c1.83,1.01,3.83,1.85,5.31,3.38c-0.2,4.7-2.13,9.09-3.7,13.46
			c-2.14-1.32-4.21-2.74-6.21-4.25c-0.62,1.57-1.23,3.14-1.85,4.71c-0.83-0.23-1.66-0.49-2.49-0.75c0.18-4.11,0.13-8.52-2.83-11.75
			c-0.75,1.17-1.56,2.31-2.19,3.54c0.9,2.71,2.31,5.21,3.69,7.69c-0.69,1.42-1.4,2.83-2.04,4.28c-0.1-0.61-0.32-1.83-0.42-2.43
			c-0.41-2.41-1-4.78-1.43-7.18C60.02,41.86,61.32,38.36,62.33,35.03 M68.19,44.19c-0.52,1.63,0.04,2.18,1.67,1.66
			C70.37,44.22,69.81,43.67,68.19,44.19"/>
		<path fill="#7F5E17" d="M74.09,46.28C72.54,49.25,77.43,46.42,74.09,46.28z"/>
		<path fill="#7F5E17" d="M283.8,57.51c1.66-3.18,5.52-1.51,8.23-1.17c0.39-0.33,1.16-1,1.55-1.34c0.82,0.81,1.62,1.64,2.43,2.47
			c2.85-1.18,5.81-2.06,8.84-2.68c0.33,0.47,1.01,1.42,1.35,1.89c-1.87-0.13-3.75-0.41-5.62-0.14c-1.93,1.24-3.03,3.39-3.86,5.46
			c0.83,0.9,1.77,1.69,2.7,2.5c0.15,1.07,0.36,2.13,0.56,3.2c1.24-0.25,2.49-0.5,3.75-0.75c-0.03,0.51-0.08,1.53-0.1,2.04
			c1.11,0.29,2.23,0.57,3.36,0.86c0.9-4.4,0.4-8.88-0.79-13.17c0.89,1.44,1.86,2.91,2.21,4.6c1.32,8.79,0.57,17.69,0.02,26.5
			c-1.03,4.93-4.76,9-5.17,14.11c0.39,3.53,3.08,6.23,5.52,8.58c-1.4-0.32-2.8-0.59-4.2-0.87c-1.04-2.32-2.1-4.62-3.23-6.9
			c-5.19,2.23-10.84,3.23-15.88,5.84c-0.34-0.65-0.67-1.3-1-1.95c-1.02,0.71-2.03,1.43-3.08,2.09c-1.8,0.88-3.95,2.15-5.93,1.01
			c-2.09-1.34-3.04-3.79-4.31-5.81c-4.8-0.95-7.99-4.85-12.14-7.08c0.91,0.03,2.72,0.09,3.62,0.11c-1-1.37-1.99-2.76-2.93-4.17
			c-0.86,1.12-1.73,2.24-2.59,3.36c0.63-2.51,1.5-4.95,2.66-7.26c0.01,0.73,0.01,2.17,0.02,2.9c1.97-1.17,3.94-2.34,5.87-3.58
			c3.55-2.16,6.09-5.51,8.34-8.92c5.43-4.09,9.86-9.33,14.63-14.14c-1.17,0.16-2.34,0.35-3.5,0.56c-0.24-1.25-0.49-2.51-0.74-3.76
			C284.12,60.45,283.77,58.99,283.8,57.51 M288.21,70.17c-3.21,2.08-5.43,5.32-8.13,7.99c-2.48,2.4-3.21,5.95-5.31,8.62
			c-2.34,2.33-5.94,2.57-8.53,4.51c-1.63,3.47-1.14,7.62,0.84,10.84c1.9-0.4,3.77-0.97,5.63-1.57c0.08-0.54,0.24-1.61,0.32-2.15
			c-2.05,0.29-4.11,0.55-6.17,0.81c0.45-2.47,0.92-4.95,1.42-7.41c4.99-0.28,6.83,5.09,10.25,7.67c1.95,0.62,4.04,0.31,6.06,0.37
			c3.98-9.4,1.48-20.86,8.06-29.26C291.2,70.32,289.58,69.08,288.21,70.17 M291.9,79l0.84-0.31c0.24,1.91,0.47,3.83,0.7,5.75
			c1.14,0.24,2.27,0.49,3.41,0.74c-0.62,1.95-1.22,3.91-1.78,5.88c1.27-0.3,2.57-0.56,3.78-1.06c-0.09,2.53,2.63,3.78,4.16,5.37
			c2.04-3.1,4.34-6.43,4.06-10.34c-0.11-2.25-0.24-5.22-2.72-6.15c-3.13-1.56-5.93-3.65-8.44-6.06
			C294.39,74.75,293.02,76.81,291.9,79z"/>
		<path fill="#7F5E17" d="M77.96,93.1c1.04-0.29,2.07-0.59,3.09-0.9c0.36-0.1,1.06-0.31,1.41-0.41c0.01,1.88-0.11,3.79,0.27,5.65
			c0.31,1.92,2.73,1.6,4.14,2.15c1.6,1.77,3.32,3.43,4.98,5.14c-0.39,0.3-1.18,0.9-1.57,1.2c-4.64,0.21-9.32,0.07-13.86-0.99
			c-1.28-2.05-2.67-4.04-4.19-5.92C74.82,97.76,77.99,96.5,77.96,93.1z"/>
		<path fill="#7F5E17" d="M203.37,123.23c3.15-1.47,6.47-2.52,9.87-3.26c3.14,4.75,7.25,9.04,12.46,11.52
			c0.07-0.82,0.2-2.46,0.27-3.28c3.96,4.29,7.88,8.62,12.25,12.51c-0.52,1.04-1.03,2.08-1.54,3.13c-0.84,1.76-1.64,3.55-2.45,5.33
			c-0.39-1.11-0.77-2.21-1.14-3.32c-6.27-2.28-11.68-6.22-16.92-10.25c-0.7-1.18-1.36-2.38-2.09-3.54
			C210.92,128.65,206.77,126.38,203.37,123.23 M225.18,133.97c-1.37,1.58-3.06,3.58-2.3,5.82c0.9,1.45,2.78,1.36,4.23,1.82
			c0.62-1.47,1.32-2.92,1.73-4.47C227.91,135.82,226.82,134.36,225.18,133.97 M228.19,142.02c1.13,0.99,2.21,2.14,3.74,2.48
			c0.8-1.43,1.45-2.93,2.11-4.43C232.07,140.67,230.12,141.32,228.19,142.02z"/>
		<path fill="#7F5E17" d="M75.61,128.22c1.39-0.06,2.79-0.1,4.18-0.13c0.84,1.08,1.69,2.16,2.53,3.24c3.25,0.27,6.51,0.57,9.67,1.38
			c0.36,0.24,1.09,0.74,1.45,0.99c-0.14,1.31-0.27,2.62-0.41,3.93c-3.41-1.59-7.26-2.6-10.95-1.26
			C79.32,134.19,76.92,131.53,75.61,128.22z"/>
		<path fill="#7F5E17" d="M283.7,166.68c2.38-8.32,8.37-15.14,14.71-20.8c-0.31,2.95-1.12,5.81-2.46,8.45
			c1.4,5.03,1.37,10.63-1.59,15.12c-3.03,5.52-9.58,7.85-12.47,13.46c-1.93,3.48-4.36,6.64-7.11,9.5c-0.35,1.66-0.72,3.68,0.7,4.98
			c1.83,1.15,3.95,1.7,5.97,2.42c0.25,1.02,0.49,2.05,0.74,3.07c-2.49-1.73-5.38-2.71-8.35-3.18c-2.82-0.94-5.84-1.85-8.77-0.81
			c-0.07-0.71-0.22-2.14-0.29-2.86c-1.29,0.37-2.58,0.76-3.88,1.09c-0.45-0.65-0.88-1.29-1.32-1.93c0.17-1.59,0.34-3.17,0.5-4.75
			c5.21-1.25,10.57-0.89,15.84-0.24c2.17-3.11,3.99-6.42,5.72-9.78c1.56-2.08,3.43-3.89,5.29-5.69
			C286.47,171.84,286.48,168.43,283.7,166.68 M286.94,167.22c-0.25,2.32,0.21,4.52,1.98,6.14c0.39-2.01,0.73-4.04,1.05-6.06
			C289.21,167.28,287.7,167.24,286.94,167.22 M262.87,194.45c3.19,0.1,7.62,1.76,9.16-2.16c-2.01-0.86-3.99-1.81-6.12-2.33
			C264.11,190.71,263.77,192.92,262.87,194.45z"/>
		<path fill="#7F5E17" d="M133.2,154.65c1.29,0.8,2.64,1.52,3.82,2.5c0.68,2.71,0.42,5.66,1.65,8.23c0.95,2.09,2.11,4.07,3.19,6.09
			c0.59-0.24,1.18-0.47,1.78-0.71c-1.61-2.41-3.69-4.65-4.44-7.5c-0.18-2.62,0.96-5.08,1.8-7.5c1.25,0.91,2.51,1.81,3.79,2.68
			c-0.44,1.2-0.88,2.41-1.27,3.63c-1.41,2.19,2.12,4.92,2.77,1.67c2.76,1.09,5.76,1.92,7.81,4.22c3.16,3.4,7.28,5.64,11.53,7.41
			c1.54,0.66,3.11,1.25,4.68,1.83c-0.21,0.94-0.45,1.87-0.7,2.8c-0.97,1.21-1.99,2.42-2.63,3.84c0.84,1.24,1.87,2.34,2.95,3.37
			c-2.07,2.46-2.19,5.49-1.19,8.43c1.96-0.51,3.92-1.03,5.88-1.57c-0.86-1.69-1.72-3.38-2.69-5c4.03,3.49,6.74,8.15,10.17,12.18
			c0.27,0.34,0.82,1.03,1.09,1.37c1.83,2.18,3.26,4.65,4.43,7.24c-1.82,0.11-3.64,0.21-5.45,0.31c-3.72-4.07-7.46-8.15-11.57-11.82
			c-1.23-1.25-3.1-0.73-4.66-0.85c-0.89-2.71-2.19-5.42-4.72-6.96c-1.02-0.07-2.04-0.12-3.06-0.14c2.1-3.11,4.23-6.21,5.92-9.57
			c-5.09,0.1-5.53,6.21-9.02,8.81c-0.81-0.97-1.61-1.94-2.39-2.92c3.07-3.43,5.51-7.35,8.42-10.9c-5.73,2.6-12,1.76-17.98,0.83
			c-0.31,0.63-0.92,1.88-1.23,2.51c0.36,0.92,0.72,1.83,1.08,2.75c1.62-0.52,3.25-1.04,4.87-1.56c-0.49,0.43-1.48,1.28-1.97,1.71
			c0.51,0.91,1.02,1.83,1.53,2.75c0.57,0.02,1.71,0.07,2.28,0.09c-0.76,0.72-1.52,1.45-2.28,2.19c-0.84,0.82-1.69,1.64-2.55,2.46
			c-2.18-1.9-4.25-3.92-6.22-6.02c-0.5,0.01-1.49,0.04-1.99,0.06c-0.05-0.72-0.1-1.44-0.15-2.15c1.13-0.45,2.28-0.9,3.42-1.34
			c-0.98-1.19-1.97-2.38-2.96-3.57c-1.79,1.13-3.58,2.24-5.4,3.33c1.34,1.65,2.67,3.31,3.98,4.99c-0.39,0.47-1.17,1.4-1.57,1.87
			c-2.63-2-5.89-3.88-6.89-7.23c0.28-1.34,1.01-2.53,1.54-3.78c0.11-0.29,0.35-0.89,0.47-1.18c0.41-0.94,0.55-1.91,0.41-2.92
			c1.1-1.2,2.2-2.39,3.31-3.59c1.53,0.92,3.06,1.85,4.6,2.79c-1.54-2.58-3.11-5.15-4.3-7.91c-0.08-1.44-0.08-2.87-0.05-4.31
			C133.08,157.27,133.14,155.96,133.2,154.65 M144.5,170.76c0.72,3.09,5.02,4.89,7.34,2.36
			C149.65,171.64,147.14,170.84,144.5,170.76 M130.73,171.86c-0.51,2.96,2.29,4.3,4.74,3.39
			C134.25,173.66,132.69,172.4,130.73,171.86 M143.62,174.18c-1.02,1.79,2.81,3.04,3.02,0.98
			C146.48,173.84,144.52,173.2,143.62,174.18 M140.16,175.33c-1.65,0.34-0.91,2.98,0.67,2.47
			C142.47,177.45,141.74,174.81,140.16,175.33 M131.36,182.19c-0.43,1.4,0.06,1.88,1.46,1.44
			C133.25,182.23,132.76,181.74,131.36,182.19 M155.12,185.19c-0.43,1.42,0.05,1.88,1.45,1.39
			C157,185.17,156.51,184.7,155.12,185.19z"/>
		<path fill="#7F5E17" d="M115.63,181.24c2.46,1.65,4.9,3.34,7.38,4.96c-1.27,0.01-2.53,0.04-3.79,0.09
			c0.03,0.94,0.05,1.89,0.08,2.83c0.92,0.31,1.85,0.63,2.77,0.96c0.44,0.38,1.31,1.15,1.74,1.54c-1.89,0.53-3.88,2.57-5.89,1.57
			c-1.69-2.41-2.52-5.3-3.18-8.14C115,183.77,115.31,182.51,115.63,181.24z"/>
		<path fill="#7F5E17" d="M128.39,189.48c1.86,3.71,4.23,7.18,5.58,11.12c-1.46-0.24-2.92-0.47-4.39-0.69
			c0.51,2.29,1.83,4.01,4.27,4.28c0.52,0.17,1.55,0.52,2.06,0.69c-0.51,0.31-1.55,0.94-2.07,1.25c0.21,2.4,0.42,4.81,0.67,7.21
			c2.79-1.02,4.2-3.54,4.93-6.27c4.17,5.62,8.72,10.96,14.31,15.23c-2.29,1.62-4.76,2.94-7.34,4.02
			c-2.33-5.26-6.75-9.98-12.54-11.19c-0.81,0.49-1.6,1.02-2.39,1.55c-2.92-3.89-5.67-10.13-11.58-8.94
			c-0.56-1.17-1.17-2.31-1.76-3.45c0.57-0.04,1.72-0.11,2.3-0.15c1.17,0.62,2.33,1.25,3.5,1.88c0.71-0.94,1.42-1.88,2.11-2.83
			c0.48-0.7,0.94-1.42,1.29-2.19c-1.44-1.75-3.31-3.07-5.03-4.51c0.98-1.21,1.97-2.41,2.96-3.61c0.25-0.31,0.75-0.92,1.01-1.23
			C126.8,191.11,127.86,190.02,128.39,189.48z"/>
		<path fill="#7F5E17" d="M297.81,204.85c1.68-0.4,3.36-0.79,5.05-1.18c0.79,2.45,1.53,4.92,2.23,7.4
			c-1.37,0.74-2.75,1.47-4.11,2.21C299.88,210.49,298.8,207.68,297.81,204.85z"/>
		<path fill="#7F5E17" d="M83.12,236.73c0.39-2.38,0.86-4.74,1.38-7.1c0.82,1.73,1.63,3.47,2.44,5.21c1.99-1.66,4.01-3.28,6.03-4.9
			c2.32,2.38,4.55,5.1,4.63,8.6c-1.22-0.37-2.43-0.73-3.65-1.09c-0.38-1.47-0.76-2.94-1.15-4.41c-0.67,1.17-1.34,2.34-2,3.52
			c-0.2,0.37-0.6,1.11-0.8,1.48C87.64,238.26,85.07,238.31,83.12,236.73z"/>
		<path fill="#7F5E17" d="M299.93,247.78c0.88-2.76,1.3-7.62,4.9-7.79c1.66,1.73,2.95,5.56,0.17,6.73
			C303.32,247.11,301.62,247.44,299.93,247.78z"/>
		<path fill="#7F5E17" d="M344.54,285.82c1.64-1.41,3.3-2.8,4.97-4.17c-0.26,1.34-0.52,2.68-0.78,4.03c0.46,0.22,1.38,0.67,1.84,0.9
			c0.29,0.14,0.85,0.41,1.14,0.55c1.04,0.5,2.09,0.99,3.17,1.43c-0.59,1.71-0.89,3.59,0.61,4.93c-1.08,2.25-2.57,4.27-4.01,6.3
			c1.32,0.57,2.65,1.15,3.99,1.69c-4.16,1.34-8.35,2.83-12.76,3.05c-4.45,0.38-9.01-0.36-13.4,0.72c-2.34,1.27-3.74,3.7-5.42,5.68
			c2.95,1.34,6.03,3.49,9.43,2.59c8.43-1.81,14.53-9.46,23.48-9.76c0.49,0.91,1,1.83,1.52,2.75c-1.41,1.08-2.81,2.17-4.2,3.26
			c0.5,0.43,1.5,1.3,2,1.73c-5.63,1.96-11.19,4.06-16.26,7.26c-3.31,0.94-6.81,2.13-10.28,1.58c-3.63-1.18-7.2-4.25-7.43-8.28
			c0.63-2.17,2.2-3.89,3.39-5.75c-3.23-1.86-6.98-1.65-10.56-1.36c3.61-0.23,7.22-0.69,10.66-1.85c3.02-1.43,5.77-3.36,8.54-5.22
			c-1.95-2.04-4.08-3.91-6.39-5.54c0.05,2.28,0.13,4.56,0.2,6.85c-2.55-1.59-6.02-2.89-6.73-6.16c0.02-1.53,0.97-2.85,2.04-3.86
			c2.27,0.04,4.47,0.63,6.67,1.12c0.58-0.27,1.16-0.53,1.75-0.8c3.19,0.68,6.47,0.89,9.72,0.46c0.25-2.08,0.52-4.15,0.83-6.22
			C343,284.44,343.77,285.13,344.54,285.82 M344.28,289.28c0.05,1.63,0.1,3.26,0.18,4.9c1.66-1.23,2.78-2.96,3.58-4.84
			C346.78,289.31,345.53,289.29,344.28,289.28 M334.77,295.64c-0.02,1.37,0.25,2.65,0.8,3.86c1.21,0.32,2.43,0.6,3.68,0.82
			C338.64,297.99,337.06,296.35,334.77,295.64z"/>
		<path fill="#7F5E17" d="M251.16,302.99c2.95,0.84,6.06,1.11,9.09,0.58c-0.25,0.3-0.77,0.9-1.02,1.2
			c-1.06,1.32-2.19,2.64-2.84,4.23c0.3,4.04,3.86,8.67,8.34,7.52c6.18-1.59,12.57-2.47,18.52-4.84c0.77,0.35,1.56,0.7,2.34,1.06
			c-0.02-0.91-0.03-1.81-0.04-2.72c0.47-0.27,1.41-0.82,1.88-1.1c1.13-0.66,2.27-1.33,3.4-1.99c0.17,1.74,0.34,3.49,0.54,5.24
			c0.1,0.89,0.21,1.79,0.34,2.69c-1.11,0.13-2.2,0.28-3.3,0.45c0.62,1.91,1.24,3.82,1.84,5.74c-0.38-0.08-1.15-0.23-1.53-0.31
			c-0.91-0.28-1.81-0.57-2.7-0.86c-6.04,2.35-12.53,2.82-18.76,4.4c-4.04,1.24-9.38,1.48-12.05-2.45
			c-1.67-3.55-2.22-7.52-3.89-11.07c0.91-1.63,1.86-3.24,2.81-4.85C253.15,304.92,252.17,303.94,251.16,302.99z"/>
	</g>
	<g id="_x23_43250cff">
		<path fill="#43250C" d="M63.14,39.48c2.96,3.23,3.01,7.64,2.83,11.75c-0.33-0.13-1-0.39-1.33-0.52c-1.38-2.48-2.79-4.98-3.69-7.69
			C61.58,41.79,62.39,40.65,63.14,39.48z"/>
		<path fill="#43250C" d="M281.06,56.05c2.51-1.46,4.88-3.6,7.91-3.78c1.97-0.18,3.24,1.61,4.61,2.73
			c-0.39,0.34-1.16,1.01-1.55,1.34c-2.71-0.34-6.57-2.01-8.23,1.17c-0.03,1.48,0.32,2.94,0.59,4.39
			c-4.45,5.08-9.49,9.66-13.48,15.14c-1.58,1.36-3.23,2.62-4.88,3.89c-0.01-1.2-0.01-2.4-0.01-3.59c2.84-4.17,6.04-8.16,10.21-11.07
			c2.31-1.52,3.71-3.91,4.4-6.54c-4.7,1.27-8.91,3.78-12.77,6.69c-0.38-0.09-1.15-0.28-1.53-0.37c1.53-1.97,2.82-4.27,4.94-5.68
			C274.46,58.77,278.04,58.02,281.06,56.05z"/>
		<path fill="#43250C" d="M285.13,65.66c1.16-0.21,2.33-0.4,3.5-0.56c-4.77,4.81-9.2,10.05-14.63,14.14
			c0.1-0.49,0.31-1.46,0.42-1.95C277.28,72.84,280.62,68.55,285.13,65.66z"/>
		<path fill="#43250C" d="M265.13,83.16c0.79,0.07,2.38,0.21,3.17,0.28c-0.97,0.91-1.92,1.85-2.84,2.82
			C265.38,85.48,265.21,83.94,265.13,83.16z"/>
		<path fill="#43250C" d="M96.47,91.55c2.06-0.45,3.49,1.4,4.92,2.54c0.2,0.21,0.58,0.63,0.77,0.84c0.83-1.08,1.66-2.15,2.49-3.23
			c1.58-0.16,3.17-0.32,4.75-0.48c-1.61,1.79-3.45,3.37-4.97,5.25c-1.68,1.97-1.77,4.73-3.13,6.87c-1.92,2.29-4.97,3.01-7.66,3.98
			c-0.12,2.84-0.28,5.67-0.47,8.5c-0.33-0.4-0.99-1.22-1.31-1.63c0.92-2.9-0.21-5.73-1.58-8.26c0.39-0.3,1.18-0.9,1.57-1.2
			c-1.66-1.71-3.38-3.37-4.98-5.14c-0.76-1.62-1.43-3.28-2.09-4.93c1.56,0.99,3.12,1.98,4.62,3.06c2.1,1.9,4.24,3.76,6.39,5.61
			c1.56-0.56,3.13-1.11,4.69-1.66C99.06,98.35,95.86,95.42,96.47,91.55z"/>
		<path fill="#43250C" d="M217,118.46c1.57-0.24,3.23-0.06,4.35,1.21c5.13,4.87,9.66,10.35,14.44,15.56c3.22,4.11,9.22,0.78,13,4.16
			l-0.9,0.47c-3.22,0.27-6.44,0.56-9.67,0.86c-4.37-3.89-8.29-8.22-12.25-12.51C222.81,125.13,219.48,122.15,217,118.46z"/>
		<path fill="#43250C" d="M92.84,119.12c0.78-0.09,2.34-0.27,3.13-0.36c2.9,2.63,4.91,6,7.05,9.23c2.08,3.29,6.01,4.4,9.38,5.87
			c0.04,0.44,0.13,1.31,0.18,1.75c-3.03,1.16-5.9,2.71-8.46,4.73c1.31,2.29,2.48,4.67,3.88,6.91c1.45,2.43,4.15,3.64,6.03,5.66
			c1.79,2.27,2.82,5.08,4.94,7.1c2.36-1.83,3.23-4.83,4.7-7.31c1.12-0.13,2.24-0.26,3.36-0.38c-1.22,3.34-2.97,6.49-3.89,9.94
			c0.32,3.95,2.79,7.57,2.25,11.66c-0.35,1.98-0.81,3.94-1.12,5.92l-0.09,0.75c-0.66-3.88-1.65-7.77-3.77-11.13
			c-2.94-4.78-5.28-10.1-9.66-13.8c-0.05,8.8,4.05,16.89,4.88,25.58c-1.14-0.76-2.28-1.53-3.42-2.29c-0.72-3.24-1.66-6.42-2.58-9.6
			c-1.06-0.4-2.11-0.8-3.17-1.21c0.14-0.53,0.27-1.07,0.41-1.6c1.96-5.68-1.56-11.23-1.43-16.97c-1.52,0-3.03,0.02-4.55,0.03
			c1-1.56,2-3.11,3-4.68c-1.13-0.51-2.25-1.02-3.36-1.52c-0.25-0.52-0.75-1.54-1-2.06c1.28,0.45,2.57,0.9,3.85,1.35
			c-1.8-5.68-3.36-11.51-3.23-17.53c-0.96,0.56-1.93,1.13-2.89,1.69C95.74,124.3,94.27,121.72,92.84,119.12z"/>
		<path fill="#43250C" d="M316.52,125.07c1.38,3.76,4.73,6.12,6.92,9.32c0.04,2.38-2.07,4.37-2.67,6.67
			c0.84,3.73,3.08,6.95,4.28,10.57c2.13,6.22,4.18,12.47,6.75,18.52c2.04,4.57,1.78,9.73,3.44,14.41
			c3.05,8.84,6.51,17.53,9.53,26.38c-1.8-2.9-3.69-5.79-4.7-9.09c-1.56-5.07-4.17-9.76-5.49-14.91c-1.68-5.91-1.99-12.18-4.54-17.82
			c-3.68-8.52-6.27-17.44-10-25.92C318.63,137.21,315.59,131.38,316.52,125.07z"/>
		<path fill="#43250C" d="M22.73,139.08c0.32-2.15,0.92-4.26,2.01-6.15c0.8,0.77,1.6,1.55,2.4,2.32c-0.5,1.16-0.95,2.34-1.4,3.52
			c-0.85,0.43-1.72,0.85-2.59,1.25L22.73,139.08z"/>
		<path fill="#43250C" d="M225.18,133.97c1.64,0.39,2.73,1.85,3.66,3.17c-0.41,1.55-1.11,3-1.73,4.47
			c-1.45-0.46-3.33-0.37-4.23-1.82C222.12,137.55,223.81,135.55,225.18,133.97z"/>
		<path fill="#43250C" d="M228.19,142.02c1.93-0.7,3.88-1.35,5.85-1.95c-0.66,1.5-1.31,3-2.11,4.43
			C230.4,144.16,229.32,143.01,228.19,142.02z"/>
		<path fill="#43250C" d="M234.23,149.18c0.81-1.78,1.61-3.57,2.45-5.33c2.6,7.58,8.96,13.65,16.32,16.62c0.4,0.3,1.2,0.91,1.6,1.21
			c-0.24,0.56-0.71,1.68-0.95,2.24c-1.43-0.11-2.87-0.12-4.31-0.04C244.18,159.13,238.43,154.85,234.23,149.18z"/>
		<path fill="#43250C" d="M144.5,170.76c2.64,0.08,5.15,0.88,7.34,2.36C149.52,175.65,145.22,173.85,144.5,170.76z"/>
		<path fill="#43250C" d="M130.73,171.86c1.96,0.54,3.52,1.8,4.74,3.39C133.02,176.16,130.22,174.82,130.73,171.86z"/>
		<path fill="#43250C" d="M119.09,176.3C122.43,176.43,117.56,179.29,119.09,176.3z"/>
		<path fill="#43250C" d="M143.11,176.65c5.98,0.93,12.25,1.77,17.98-0.83c-2.91,3.55-5.35,7.47-8.42,10.9
			c-1.15,0.77-2.34,1.48-3.49,2.25c-0.6-0.63-1.19-1.26-1.79-1.88c0.76-0.74,1.52-1.47,2.28-2.19c0.48-0.45,1.42-1.35,1.9-1.79
			c-1.25-0.93-2.5-1.84-3.74-2.76c-1.62,0.52-3.25,1.04-4.87,1.56c-0.36-0.92-0.72-1.83-1.08-2.75
			C142.19,178.53,142.8,177.28,143.11,176.65z"/>
		<path fill="#43250C" d="M168.74,195.64c-1-2.94-0.88-5.97,1.19-8.43c0.5,0.47,1.5,1.4,2,1.86c0.97,1.62,1.83,3.31,2.69,5
			C172.66,194.61,170.7,195.13,168.74,195.64z"/>
		<path fill="#43250C" d="M262.87,194.45c0.9-1.53,1.24-3.74,3.04-4.49c2.13,0.52,4.11,1.47,6.12,2.33
			C270.49,196.21,266.06,194.55,262.87,194.45z"/>
		<path fill="#43250C" d="M161.22,190.54c2.53,1.54,3.83,4.25,4.72,6.96c1.45,4.24,3.02,8.51,3.14,13.04
			C163.51,205.31,164.24,197.07,161.22,190.54z"/>
		<path fill="#43250C" d="M275.48,197.39c-1.42-1.3-1.05-3.32-0.7-4.98c3.88,2.14,7.73,4.32,11.53,6.58
			c-0.6,1.41-1.21,2.82-1.81,4.24c1.24,0.03,2.47,0.05,3.72,0.06c-1.15,0.4-2.28,0.84-3.41,1.29c-0.88-0.57-1.75-1.14-2.62-1.7
			c-0.25-1.02-0.49-2.05-0.74-3.07C279.43,199.09,277.31,198.54,275.48,197.39z"/>
		<path fill="#43250C" d="M265.07,198.89c2.93-1.04,5.95-0.13,8.77,0.81c-4.41,1.58-9.11,2.04-13.57,3.46
			c-2.74,1.11-5.52-0.18-8.1-1.06c1.45-0.51,2.92-0.98,4.41-1.42C259.55,201.07,262.36,199.99,265.07,198.89z"/>
		<path fill="#43250C" d="M120,200.33c2.14,0.68,4.15,1.68,6.05,2.86c-0.69,0.95-1.4,1.89-2.11,2.83c-1.17-0.63-2.33-1.26-3.5-1.88
			C120.28,202.87,120.14,201.6,120,200.33z"/>
		<path fill="#43250C" d="M104.48,215.21c1.36-1.85,3.01-3.45,4.8-4.88c0.85,1.26,1.68,2.54,2.51,3.82
			C109.45,215.04,106.97,215.43,104.48,215.21z"/>
		<path fill="#43250C" d="M131.48,216.68c0.79-0.53,1.58-1.06,2.39-1.55c3.12,4.57,7.77,8.47,8.36,14.31
			C137.41,226.39,135.03,220.94,131.48,216.68z"/>
		<path fill="#43250C" d="M84.28,218.92c0.72-1.41,2.19-1.91,3.58-2.42c0.49,1.24,0.97,2.49,1.44,3.74
			C87.62,219.82,85.95,219.38,84.28,218.92z"/>
		<path fill="#43250C" d="M102.85,223.32c1.1-2,2.25-3.98,3.62-5.81c0.69,1.36,1.38,2.73,2.07,4.1
			C106.85,222.73,104.82,223.02,102.85,223.32z"/>
		<path fill="#43250C" d="M95.56,218.88c2.34,0.14,4.67,0.48,6.95,1.08C100.77,223.59,97.11,221.36,95.56,218.88z"/>
		<path fill="#43250C" d="M90.53,219.88c1.54,1,2.71,2.4,3.51,4.04c-3.25,0.44-8.74,3.29-10.49-0.78c1.44,0.06,2.89,0.14,4.34,0.23
			C88.77,222.21,89.65,221.04,90.53,219.88z"/>
		<path fill="#43250C" d="M65.11,258.88c0.61-1.98,1.33-3.93,2.02-5.88c0.2,2.24,0.54,4.47,0.64,6.72c-0.09,1.28-0.2,2.57-0.34,3.85
			c-0.59,0.03-1.79,0.09-2.38,0.12C65.04,262.08,65.04,260.48,65.11,258.88z"/>
		<path fill="#43250C" d="M107.27,266.31c0.17-2.74,0.23-5.92,2.83-7.56C109.97,261.5,109.85,264.64,107.27,266.31z"/>
		<path fill="#43250C" d="M113.84,259.22c0.53,0.16,1.58,0.49,2.11,0.66c0.46,1.28,0.92,2.57,1.43,3.85
			c-1.39-0.37-2.77-0.74-4.16-1.1C113.43,261.49,113.63,260.35,113.84,259.22z"/>
		<path fill="#43250C" d="M126.57,263.33c1.78-1.11,3.57-2.19,5.39-3.23c-0.11,0.99-0.22,1.99-0.33,2.99
			c-1.61,0.67-3.19,1.41-4.74,2.21C126.78,264.64,126.68,263.98,126.57,263.33z"/>
		<path fill="#43250C" d="M91.15,261.14c2.14,0.49,4.26,1.03,6.37,1.63c-0.8,0.79-1.59,1.58-2.38,2.37
			c-1.25-0.57-2.5-1.13-3.76-1.68C91.32,262.88,91.21,261.72,91.15,261.14z"/>
		<path fill="#43250C" d="M102.56,269.92c1.06,3.47,1.59,7.07,2.19,10.65c-4.4-0.49-8.82-0.72-13.23-0.93
			c0.02,3.95-0.56,7.89-1.85,11.63c0.51-5.44,0.62-10.93-0.2-16.35c3.28,1.14,6.4,3.11,9.91,3.38c3.56-1.27,1.61-4.83,0.77-7.3
			c0.6,0.59,1.21,1.18,1.82,1.78C102.11,272.06,102.41,270.63,102.56,269.92z"/>
		<path fill="#43250C" d="M65.55,277.13c1.39-2.31,3.31-4.21,5.64-5.55c-0.22,1.5,0.36,3.44-1.11,4.47
			C68.86,277.15,67.04,276.82,65.55,277.13z"/>
		<path fill="#43250C" d="M55.88,283.75c1.43-3.56,2.36-7.94,5.88-10.06c0.12,4.13,1.24,9.45-3.21,11.8
			c-0.05,5.02-3.17,9.21-4.28,13.99c-0.45,3.04-3.99,2.11-6.11,1.84C51.34,295.75,54.08,289.92,55.88,283.75z"/>
		<path fill="#43250C" d="M105.26,276.39c1.74-0.72,3.47-1.48,5.18-2.27c0.01,3.05,0.6,6.06,1.34,9.01
			C109.79,280.72,107.83,278.22,105.26,276.39z"/>
		<path fill="#43250C" d="M72.6,276.15c2.48,0.65,4.94,1.41,7.41,2.15c-0.05,0.67-0.14,2.02-0.19,2.69
			C76.69,280.64,73.52,279.5,72.6,276.15z"/>
		<path fill="#43250C" d="M340.74,277.19c1.83-0.03,3.67-0.02,5.51,0.03c-0.85,0.96-1.23,3.13-2.93,2.46
			C342.35,278.96,341.57,278.04,340.74,277.19z"/>
		<path fill="#43250C" d="M66.13,280.19c1.5,0.33,3.01,0.66,4.52,0.99c-2.51,2.47-3.7,5.73-3.28,9.25
			c-0.82,0.46-1.63,0.92-2.45,1.39c0.55,1.13,1.11,2.27,1.67,3.4c-3.82,2.74-5.56,7.54-9.79,9.77
			C60.24,296.86,65.29,289.2,66.13,280.19z"/>
		<path fill="#43250C" d="M318.95,284.03c1.84-3.17,5.63-3.54,8.91-3.77c0.12,1.11,0.26,2.23,0.4,3.35
			c-1.67-0.72-3.3-1.72-5.15-1.86c-0.98,1.34-0.85,3.05-1.06,4.61C320.94,285.69,319.75,285.08,318.95,284.03z"/>
		<path fill="#43250C" d="M73.35,283.12c0.69-0.03,2.08-0.09,2.77-0.12c0.08,3.94-1,7.73-2.88,11.17c-1.75,2.54,1.1,5.51-0.04,8.03
			c-1.56-1.28-3.86-2.8-3.21-5.14C71.01,292.39,73.11,287.97,73.35,283.12z"/>
		<path fill="#43250C" d="M94.44,282.64c1.08,0.56,2.54,0.63,3.26,1.71c0.71,3.92,0.19,7.93-0.18,11.86
			C94.47,292.25,96.61,286.97,94.44,282.64z"/>
		<path fill="#43250C" d="M101.2,283.1c0.59,0,1.76,0.01,2.35,0.02c0.3,3.59,0.7,7.19,1.51,10.72c0.6,2.79,1.35,5.62,1.09,8.5
			c-0.38,5.27-0.24,10.59-1.31,15.79c-2.3-0.67-4.57-1.45-6.91-1.98c-2.69-0.63-5.43-0.97-8.17-1.3c-0.25-0.83-0.49-1.66-0.74-2.48
			c3.34,0.13,6.7-0.16,9.89-1.21c1.24,0.74,2.51,1.43,3.78,2.14C101.88,303.25,101.76,293.16,101.2,283.1z"/>
		<path fill="#43250C" d="M106.85,282.41c1.41,1.55,2.78,3.13,4.16,4.72c2.33-1.48,4.68-2.93,7.09-4.3
			c-0.63,1.33-0.66,3.23-2.24,3.85c-2.8,1.56-5.67,3.06-7.98,5.34c-0.28-0.89-0.54-1.78-0.77-2.68c0.39-0.24,1.18-0.74,1.57-0.98
			C108.04,286.38,107.43,284.4,106.85,282.41z"/>
		<path fill="#43250C" d="M275.58,283.64c1.56,0.29,3.25,0.38,4.55,1.41c-0.36,1.11-0.75,2.21-1.18,3.3
			C277.76,286.82,276.64,285.25,275.58,283.64z"/>
		<path fill="#43250C" d="M122,288.01c0.56,0.15,1.68,0.44,2.23,0.59c0.91,3.41,3.06,6.31,4.15,9.62c0.32,3.48,0.83,6.94,2.18,10.19
			c0.97,1.79,0.11,3.64-0.65,5.32c-2.48-3.93-2.21-8.71-3.67-12.99C124.86,296.49,123.21,292.32,122,288.01z"/>
		<path fill="#43250C" d="M273.49,290.42c1.13-1.31,3.05-1.19,4.59-1.63c-3.69,4.15-6.8,8.91-11.1,12.45
			C268.15,297.12,270.73,293.61,273.49,290.42z"/>
		<path fill="#43250C" d="M354.88,288.56c0.59,0.18,1.75,0.52,2.34,0.69c-0.56,1.42-1.11,2.84-1.73,4.24
			C353.99,292.15,354.29,290.27,354.88,288.56z"/>
		<path fill="#43250C" d="M108.76,294.22c1.94-1.05,3.87-2.11,5.78-3.21c-0.82,2.71-1.25,5.59-0.41,8.35
			c1.7,6.73,3.25,13.5,5.34,20.12c1.68-2.2,3.99-4.75,2.76-7.74c-1.86-5.75-3.9-11.47-4.96-17.45c0.41-0.44,1.23-1.31,1.64-1.74
			c1.28,2.44,2.42,5.01,2.63,7.8c0.37,4.43,2.02,8.58,3.72,12.63l-0.37,0.82c-1.45,2.88-3.05,5.68-4.6,8.51
			c-0.64,0.26-1.91,0.77-2.55,1.03c-1.62-3.08-2.72-6.4-3.45-9.79C112.43,307.11,111.39,300.41,108.76,294.22z"/>
		<path fill="#43250C" d="M261.85,294.83c-0.14-1.65,0.76-3,2.17-3.78c0.81,1.72,1.59,3.46,2.31,5.22
			C264.77,296.01,262.97,296.15,261.85,294.83z"/>
		<path fill="#43250C" d="M279.88,296.19c2.27-1.56,4.75-2.78,7.19-4.06c-0.53,1.76-1.07,3.52-1.61,5.28
			c1.71-0.02,3.45-0.13,5.16,0.11c1.77,1.55,2.84,3.7,4.1,5.66c-2.85,0.81-5.75,1.43-8.69,1.85c0.17-1.72,0.34-3.43,0.52-5.14
			C284.39,298.67,280.17,299.12,279.88,296.19z"/>
		<path fill="#43250C" d="M289.76,291.91c3.03,1.03,6.12,1.92,9.04,3.28c3.41,1.51,5.44,4.81,7.69,7.62
			c0.72-0.24,1.44-0.46,2.16-0.69c-0.41-1.57-0.83-3.14-1.24-4.7c1.73,1.24,3.39,2.65,5.35,3.55c2.87,0.62,5.88-0.57,8.73,0.3
			c1.44,0.46,2.78,1.16,4.15,1.83c-3.44,1.16-7.05,1.62-10.66,1.85c-1.97,0.13-3.94,0.18-5.92,0.24c-0.63,3.85-1.26,7.7-1.76,11.57
			c-5.31,0.33-10.29-2.07-15.59-1.9c-0.13-0.9-0.24-1.8-0.34-2.69c5.61-1.21,8.04-6.92,10.86-11.28c-2.99-3.43-8.15-3.91-11.95-6.27
			C290.15,293.94,289.89,292.59,289.76,291.91 M298.28,311.11c1.59,1.39,3.56,2.08,5.61,2.43c0.88-2.69,2.39-5.41,1.99-8.33
			c-0.5-1.26-1.41-1.77-2.73-1.53C301.12,305.87,299.77,308.55,298.28,311.11z"/>
		<path fill="#43250C" d="M135.52,303.32c-1.25-3.51-2.23-7.13-2.47-10.86c1.17,2.44,2.51,4.8,3.51,7.32
			C136.22,300.96,135.87,302.14,135.52,303.32z"/>
		<path fill="#43250C" d="M314.95,292.78c3.29,1.1,6.29,3.15,7.39,6.6C318.86,298.56,316.64,295.72,314.95,292.78z"/>
		<path fill="#43250C" d="M357.58,293.59c0.57-0.11,1.71-0.35,2.28-0.47c0.12,0.74,0.37,2.2,0.49,2.94
			c-1.21,0.39-2.4,0.83-3.56,1.31C357.05,296.11,357.31,294.85,357.58,293.59z"/>
		<path fill="#43250C" d="M271.86,302.37c1.14-3.67,2.86-8.09,7.34-8.38C277.6,297.41,275.46,300.8,271.86,302.37z"/>
		<path fill="#43250C" d="M334.77,295.64c2.29,0.71,3.87,2.35,4.48,4.68c-1.25-0.22-2.47-0.5-3.68-0.82
			C335.02,298.29,334.75,297.01,334.77,295.64z"/>
		<path fill="#43250C" d="M71.19,308.11c2.32-2.04,4.66-4.06,7.03-6.04c-0.15,1.44-0.3,2.89-0.46,4.35c-1.16,1-2.37,1.96-3.4,3.11
			c-0.48,1.26,0.88,2.1,1.43,3.05c-1.62,0.97-3.08,2.16-4.54,3.37c-2.64-1.95-5.7-3.28-8.88-4.08c-2.15-0.38-4.32-0.62-6.47-0.96
			c-0.7-1.24-1.39-2.49-1.97-3.79c3.78-0.41,7.61-0.55,11.26-1.74c1.38,0.93,2.75,1.89,4.12,2.85c0.04-1.59,0.09-3.18,0.13-4.76
			c0.65-0.17,1.95-0.51,2.6-0.67C71.76,304.56,71.47,306.33,71.19,308.11z"/>
		<path fill="#43250C" d="M95.47,302.8c0.84-0.35,2.52-1.05,3.37-1.4c0.61,2.06,0.48,4.21-0.25,6.23
			C97.52,306.04,96.48,304.43,95.47,302.8z"/>
		<path fill="#43250C" d="M45.48,304.51c2.76-0.53,5.47,0.78,7.6,2.45c-0.36,1.86-2.36,1.84-3.83,2.22c-1.93-0.47-3.87-0.9-5.81-1.3
			C43.91,306.66,43.77,304.65,45.48,304.51z"/>
		<path fill="#43250C" d="M279.35,307.12c0.58-1.1,1.14-2.2,1.79-3.26c3.08,0.06,4.7,2.85,6.29,5.06c-0.47,0.28-1.41,0.83-1.88,1.1
			c-0.63-0.86-1.26-1.72-1.88-2.58C282.23,307.34,280.79,307.23,279.35,307.12z"/>
		<path fill="#43250C" d="M56.59,317.68c1.17-0.68,2.34-1.34,3.52-1.99c3.37,2.12,6.61,4.45,9.7,6.96c-0.52,0.43-1.56,1.28-2.08,1.7
			C63.79,322.54,59.59,320.95,56.59,317.68z"/>
	</g>
	<path fill="#FCF9D3" d="M68.19,44.19c1.62-0.52,2.18,0.03,1.67,1.66C68.23,46.37,67.67,45.82,68.19,44.19z"/>
	<path fill="#FCF9D3" d="M74.09,46.28C77.43,46.42,72.54,49.25,74.09,46.28z"/>
	<path fill="#FCF9D3" d="M267.86,66.42c3.86-2.91,8.07-5.42,12.77-6.69c-0.69,2.63-2.09,5.02-4.4,6.54
		c-4.17,2.91-7.37,6.9-10.21,11.07c-0.65,0.11-1.94,0.34-2.58,0.46C264.09,73.74,265.37,69.75,267.86,66.42z"/>
	<path fill="#FCF9D3" d="M97.28,65.03c0.66-1.33,0.95-2.8,1.3-4.23c4.51,2.64,8.04,6.7,9.77,11.66c-3.74-0.85-7.17-2.6-10.78-3.8
		c-1.52-0.68-2.71,0.8-3.94,1.41c-1.65-0.49-1.67-2.27-1.79-3.68C93.62,65.81,95.47,65.52,97.28,65.03z"/>
	<path fill="#FCF9D3" d="M284.39,61.9c0.25,1.25,0.5,2.51,0.74,3.76c-4.51,2.89-7.85,7.18-10.71,11.63
		c-1.23,0.55-2.47,1.06-3.72,1.57c0.06-0.46,0.16-1.37,0.21-1.82C274.9,71.56,279.94,66.98,284.39,61.9z"/>
	<path fill="#FCF9D3" d="M98.68,72.69c2.8,0.29,5.28,1.6,7.49,3.28c-0.06,0.89-0.16,2.68-0.21,3.57
		C102.74,78.24,100.43,75.6,98.68,72.69z"/>
	<path fill="#FCF9D3" d="M88.64,77.7c3.02,0.94,6.18,0.91,9.03-0.55c0.82,1.24,1.59,2.52,2.42,3.76c1.59,2.06,4.38,2.58,6.59,3.72
		c-1.83,3.11-3.8,6.16-5.29,9.46c-1.43-1.14-2.86-2.99-4.92-2.54c-0.61,3.87,2.59,6.8,4.01,10.12c-1.56,0.55-3.13,1.1-4.69,1.66
		c-2.15-1.85-4.29-3.71-6.39-5.61c-0.49-0.75-0.97-1.51-1.44-2.28c1.23-0.23,2.47-0.46,3.7-0.69c0.06-3.01,0.65-6.15-0.47-9.04
		C90.19,83.09,89.24,80.44,88.64,77.7z"/>
	<path fill="#FCF9D3" d="M113.13,149.16c1.39-0.57,2.26,1.77,0.74,2.12C112.47,151.85,111.61,149.52,113.13,149.16z"/>
	<path fill="#FCF9D3" d="M254.05,282.97c3.59-4.51,8.03-8.27,12.81-11.47c0.13,3.57-0.99,6.97-2.4,10.19
		c-5.33,4.45-8.79,10.55-13.11,15.89c-1.39-0.94-2.76-1.88-4.14-2.81C249.63,290.91,251.45,286.7,254.05,282.97z"/>
	<path fill="#FCF9D3" d="M356.8,303.76c2.73-0.23,5.49-0.23,8.22-0.48c-1.3,2.34-2.76,4.67-4.88,6.37c-0.61-1.05-1.23-2.1-1.82-3.14
		C357.8,305.59,357.29,304.67,356.8,303.76z"/>
	<path fill="#FCF9D3" d="M251.32,310.76c1.67,3.55,2.22,7.52,3.89,11.07c2.67,3.93,8.01,3.69,12.05,2.45
		c6.23-1.58,12.72-2.05,18.76-4.4c0.89,0.29,1.79,0.58,2.7,0.86c-8.31,4.97-18.18,4.96-27.38,6.96c-4.9,1.44-9.35-2.32-12.36-5.74
		C246.42,318.28,249.64,314.08,251.32,310.76z"/>
	<g id="_x23_eac490ff">
		<path fill="#EAC490" d="M213.24,119.97c1.24-0.51,2.49-1.04,3.76-1.51c2.48,3.69,5.81,6.67,8.97,9.75
			c-0.07,0.82-0.2,2.46-0.27,3.28C220.49,129.01,216.38,124.72,213.24,119.97z"/>
		<path fill="#EAC490" d="M108.25,138.12c1.33-0.32,2.65-0.64,3.98-0.95c-1.32,1.41-2.75,2.7-4.21,3.95
			C108.08,140.37,108.19,138.87,108.25,138.12z"/>
		<path fill="#EAC490" d="M124.03,152.05c-1.97-0.48-1.44-3.62,0.63-3.21C125.14,149.97,124.93,151.04,124.03,152.05z"/>
		<path fill="#EAC490" d="M146.29,163.74c-0.65,3.25-4.18,0.52-2.77-1.67C144.45,162.61,145.38,163.16,146.29,163.74z"/>
		<path fill="#EAC490" d="M126.43,171.78c0.34-1.4,2.23-0.66,3.05-0.17c0.14,1.01,0,1.98-0.41,2.92
			C128.14,173.68,126.77,173.08,126.43,171.78z"/>
		<path fill="#EAC490" d="M143.62,174.18c0.9-0.98,2.86-0.34,3.02,0.98C146.43,177.22,142.6,175.97,143.62,174.18z"/>
		<path fill="#EAC490" d="M140.16,175.33c1.58-0.52,2.31,2.12,0.67,2.47C139.25,178.31,138.51,175.67,140.16,175.33z"/>
		<path fill="#EAC490" d="M145.86,182.06c0.49-0.43,1.48-1.28,1.97-1.71c1.24,0.92,2.49,1.83,3.74,2.76
			c-0.48,0.44-1.42,1.34-1.9,1.79c-0.57-0.02-1.71-0.07-2.28-0.09C146.88,183.89,146.37,182.97,145.86,182.06z"/>
		<path fill="#EAC490" d="M131.36,182.19c1.4-0.45,1.89,0.04,1.46,1.44C131.42,184.07,130.93,183.59,131.36,182.19z"/>
		<path fill="#EAC490" d="M155.12,185.19c1.39-0.49,1.88-0.02,1.45,1.39C155.17,187.07,154.69,186.61,155.12,185.19z"/>
		<path fill="#EAC490" d="M260.9,197.12c1.3-0.33,2.59-0.72,3.88-1.09c0.07,0.72,0.22,2.15,0.29,2.86c-2.71,1.1-5.52,2.18-8.49,1.79
			c-2.53-0.94-5.21-1.45-7.9-1.12C252.69,198.44,256.81,197.89,260.9,197.12z"/>
		<path fill="#EAC490" d="M129.58,199.91c1.47,0.22,2.93,0.45,4.39,0.69l0.01,0.75c-0.03,0.95-0.08,1.89-0.13,2.84
			C131.41,203.92,130.09,202.2,129.58,199.91z"/>
		<path fill="#EAC490" d="M81.99,208.77c0.91-3.59,3.55,0.02,2.81,2.15C83.48,210.64,82.54,209.92,81.99,208.77z"/>
		<path fill="#EAC490" d="M81.2,216.35c0.84,0.04,2.51,0.12,3.35,0.16c-0.79,1.01-1.56,2.04-2.29,3.1
			C81.9,218.52,81.55,217.43,81.2,216.35z"/>
		<path fill="#EAC490" d="M103.57,216.1c0.83-1.19,2.89,0.18,1.91,1.36C104.65,218.65,102.6,217.27,103.57,216.1z"/>
		<path fill="#EAC490" d="M106.47,217.51c1.18-0.3,2.38-0.53,3.58-0.72c0.05,0.81,0.17,2.42,0.23,3.23c-0.44,0.4-1.3,1.2-1.74,1.59
			C107.85,220.24,107.16,218.87,106.47,217.51z"/>
		<path fill="#EAC490" d="M114.34,217.08c0.68,0.44,1.37,0.89,2.06,1.34c0.11,0.61,0.34,1.81,0.45,2.42
			c-1.45-0.23-2.9-0.42-4.35-0.58C113.11,219.2,113.72,218.14,114.34,217.08z"/>
		<path fill="#EAC490" d="M88.28,225.94c1.79-0.35,3.58-0.7,5.39-0.98c-0.02,0.36-0.04,1.08-0.05,1.44
			c-1.58,0.9-3.31,1.48-5.02,2.07C88.52,227.84,88.36,226.57,88.28,225.94z"/>
		<path fill="#EAC490" d="M118.3,227.15c-2.16,0.08-1.42-2.95,0.4-2.44l0.45,0.63C118.94,225.8,118.51,226.7,118.3,227.15z"/>
		<path fill="#EAC490" d="M103.73,227.79c0.4,0.32,1.21,0.96,1.61,1.28c-1.07,0.91-2.08,2.1-3.5,2.44c-1.56-0.16-2.9-1.1-4.3-1.73
			C99.6,229.1,101.67,228.45,103.73,227.79z"/>
		<path fill="#EAC490" d="M113.31,228.03c1.88-0.62,2.68,2.55,0.77,2.96C112.2,231.57,111.4,228.46,113.31,228.03z"/>
		<path fill="#EAC490" d="M142.15,282.23c1.62-0.52,2.18,0.03,1.66,1.66C142.18,284.41,141.63,283.86,142.15,282.23z"/>
		<path fill="#EAC490" d="M153.43,287.3c-1.26-1.12,0.45-2.79,1.75-2.39c0.29,0.62,0.86,1.87,1.14,2.5
			C155.31,287.83,154.35,287.79,153.43,287.3z"/>
		<path fill="#EAC490" d="M274.18,286.21c1.62-0.54,2.18,0.01,1.67,1.65C274.22,288.39,273.66,287.83,274.18,286.21z"/>
		<path fill="#EAC490" d="M319.16,289.99c3.38-0.64-0.05,4.19-0.88,1.13C318.5,290.84,318.94,290.27,319.16,289.99z"/>
		<path fill="#EAC490" d="M148.02,291.3C151.36,291.47,146.46,294.27,148.02,291.3z"/>
		<path fill="#EAC490" d="M59.09,292.29C62.43,292.43,57.55,295.27,59.09,292.29z"/>
		<path fill="#EAC490" d="M155.23,293.54c0.8-1.09,2.94,0.08,2.17,1.31C156.59,295.93,154.45,294.78,155.23,293.54z"/>
		<path fill="#EAC490" d="M363.61,296.79c0.71-1.68,1.67-3.25,3.13-4.39c-0.23,1.87-0.5,3.75-0.78,5.62
			C365.37,297.71,364.2,297.1,363.61,296.79z"/>
		<path fill="#EAC490" d="M114.3,294.29c1.31-1.03,2.83,1.25,1.58,2.21C114.58,297.51,113.02,295.23,114.3,294.29z"/>
		<path fill="#EAC490" d="M254.03,296.52c1.57,0.13,3.15,0.29,4.72,0.5c-1.05,1.08-1.58,3.46-3.52,2.78
			C254.93,298.98,254.33,297.34,254.03,296.52z"/>
		<path fill="#EAC490" d="M123.42,297.45c1.68-0.34,2.73,3.4,1.09,3.87C123.38,300.55,122.67,298.67,123.42,297.45z"/>
		<path fill="#EAC490" d="M154.05,299.97c-0.88-0.55-2.76-2.22-1.11-3.01C154.51,297.08,156.97,300.41,154.05,299.97z"/>
		<path fill="#EAC490" d="M163.12,297.18c1.84-0.56,2.73,2.55,0.83,3C162.08,300.74,161.23,297.63,163.12,297.18z"/>
		<path fill="#EAC490" d="M293.09,297.28C296.42,297.4,291.57,300.27,293.09,297.28z"/>
		<path fill="#EAC490" d="M264.19,299.33c1.47-1.18,3.09,1.39,1.61,2.37C264.33,302.88,262.72,300.31,264.19,299.33z"/>
		<path fill="#EAC490" d="M116.23,300.52c1.13-0.86,2.61,1.06,1.56,1.98C116.66,303.35,115.17,301.43,116.23,300.52z"/>
		<path fill="#EAC490" d="M141.01,307.69c0.6-0.2,1.8-0.6,2.4-0.8C144.88,309.17,140.69,310.67,141.01,307.69z"/>
		<path fill="#EAC490" d="M120.44,311.65c1.73,0.13,0.85,3.73-0.76,3.16C118.85,313.88,119.34,312.14,120.44,311.65z"/>
		<path fill="#EAC490" d="M126.3,310.74c0.74,0.75,1.49,1.52,2.23,2.28c-1.12,1.47-2.26,2.94-3.43,4.38c-0.05-0.9-0.16-2.7-0.21-3.6
			l0.37-0.82C125.52,312.42,126.04,311.3,126.3,310.74z"/>
	</g>
</g>
</svg>
