<?xml version="1.0" encoding="utf-8"?>
<!-- Generator: Adobe Illustrator 17.0.0, SVG Export Plug-In . SVG Version: 6.00 Build 0)  -->
<!DOCTYPE svg PUBLIC "-//W3C//DTD SVG 1.1//EN" "http://www.w3.org/Graphics/SVG/1.1/DTD/svg11.dtd">
<svg version="1.1" id="Layer_1" xmlns="http://www.w3.org/2000/svg" xmlns:xlink="http://www.w3.org/1999/xlink" x="0px" y="0px"
	 width="401px" height="382px" viewBox="0 0 401 382" enable-background="new 0 0 401 382" xml:space="preserve">
<g>
	<path fill="#7A7D7D" d="M200.298,32.845c5.66-1.69,11.62-0.44,17.23,0.8c5.14,1.2,9.04,4.98,12.54,8.7
		c2.25-0.43,4.5-0.84,6.76-1.26c1.63,2.89,1.77,6.14,0.67,9.23c3.49-2.17,7.1-4.52,11.28-5.05c5.04-0.57,9.84,1.4,14.55,2.91
		c1.22-1.57,2.47-3.13,3.7-4.71c-1.95,5.64-5.48,10.45-9.24,14.99c-0.24-0.96-0.47-1.92-0.69-2.88c1.65-2.1,3.25-4.24,4.8-6.41
		c-1.98,0.63-3.94,1.29-5.9,1.95c-0.01-1.46-0.03-2.92-0.04-4.38c-1.22,1.6-2.43,3.22-3.64,4.84c1.27,1.25,2.53,2.5,3.78,3.76
		c-1.54,0.45-3.08,0.9-4.62,1.35c-1.07-2.85-1.01-5.88-0.27-8.8c-3.47,0.23-6.88,0.9-10.17,2.02c0.92,2.25,1.82,4.5,2.71,6.76
		c-3.62-2.8-7.51-5.35-12.02-6.4c-2.9-5.62-6.77-11.22-12.69-13.94c-4.49-1.58-9.33-1.67-13.97-2.59c-1.34,1.2-2.67,2.42-4.01,3.62
		c0-1,0.01-2,0.02-3c-2,1.43-4.23,2.52-6.66,2.94c-0.8,1.51-1.48,3.09-2.5,4.47c-1.86,1.32-4.3,0.48-6.39,0.43
		c0.28,1.67,0.57,3.33,0.86,5c-1.86,0.71-3.67,1.76-5.69,1.92c-3.47-0.82-6.43-2.96-9.76-4.18c-4.48-1.91-9.45-0.92-14.14-0.82
		c7.75-3.26,16.38-0.91,23.41,3.04c2.92-3.76,5.42-8.22,9.83-10.42C193.318,35.105,196.778,33.845,200.298,32.845 M188.628,38.585
		c0.62,1.05,1.25,2.1,1.9,3.15c0.29-0.62,0.87-1.87,1.16-2.5c-0.25-0.5-0.74-1.52-0.99-2.03
		C190.178,37.545,189.148,38.235,188.628,38.585z"/>
	<path fill="#7A7D7D" d="M210.328,41.605c0.67-0.76,1.4-1.45,2.13-2.16c0.25,1.23,0.5,2.46,0.75,3.69c2.58,0.27,5.17,0.48,7.76,0.67
		c0.83,2.66,2.75,4.85,3.55,7.5c-0.68,2.01-1.82,3.83-2.5,5.84c0.95,1.97,3.03,3.06,4.63,4.47c-2.77,5.92-3.94,12.35-5.93,18.53
		c-1.52-0.56-3.05-1.11-4.57-1.66c-0.71,2.69-1.38,5.39-2.1,8.07c-0.59-2.52-0.93-5.1-1.01-7.7c-2.86-0.12-5.73,0.14-8.46,1.03
		c0.64-1.22,1.27-2.45,1.9-3.68c-1.98,0.62-3.96,1.27-5.93,1.94c-0.04-1.39-0.07-2.78-0.1-4.17c-0.51,0.09-1.54,0.28-2.05,0.37
		c-0.37,0.83-1.1,2.51-1.47,3.34c-1.71-2.17-0.22-4.43,0.89-6.48c-1.9-4.11-3.14-8.57-5.94-12.19c1.56-0.91,4.08-1.04,4.58-3.11
		c0.77-2.64-1.17-5.11-1.89-7.56c1.51,0.53,3.01,1.09,4.52,1.64c-0.52-2.63-1.04-5.25-1.47-7.89c1.31,1.42,2.6,2.86,3.89,4.3
		c0.62-0.79,1.24-1.58,1.86-2.37c1-0.1,1.99-0.2,2.99-0.31c0.26-1.09,0.51-2.19,0.75-3.28
		C208.368,40.205,209.128,41.535,210.328,41.605 M204.878,46.425c-6.55,3.05-7.07,10.93-7.89,17.18c-0.71,4.78,3.82,7.89,7.19,10.34
		c4.79,3.38,10.96,2.66,16.33,1.39c-0.15-1.28-0.29-2.55-0.43-3.83c2.06-2.76,3.7-5.8,5.03-8.97c-1.34-1.52-2.83-2.94-3.81-4.72
		c-0.73-2.77,2.33-6.3-0.51-8.45C216.728,45.165,210.088,42.685,204.878,46.425z"/>
	<path fill="#7A7D7D" d="M269.268,42.355c1.19,3.05,1.79,7.1,5.27,8.4c4.37,1.92,7.95,5.13,11.22,8.56
		c-1.37-0.32-2.75-0.58-4.13-0.85c-0.84,2.17-1.7,4.33-2.61,6.47c-1.51-2.28-3-4.57-4.45-6.88c1.73-0.73,3.45-1.47,5.18-2.21
		c-1.96-2.09-4.45-3.61-7.38-3.64c-1.17-1.5-2.58-2.91-3.25-4.72C268.898,45.775,269.208,44.055,269.268,42.355z"/>
	<path fill="#7A7D7D" d="M166.498,45.985c5.36,2.22,10.92,4.48,15.26,8.43c1.55,0.93,1.24,3,0.39,4.31
		c-2.51,2.28-3.15-2.42-3.78-4.1c-1.12,0.03-2.23,0.07-3.33,0.1c-1.44-2.65-4.01-4.06-6.76-5.04
		C166.568,49.275,166.898,47.285,166.498,45.985z"/>
	<path fill="#7A7D7D" d="M163.948,47.635c1.46-0.05,1.48,2.42,0.02,2.39C162.488,50.065,162.478,47.625,163.948,47.635z"/>
	<path fill="#7A7D7D" d="M190.068,49.625c1.32-1.05,2.86,1.22,1.57,2.17C190.328,52.825,188.768,50.565,190.068,49.625z"/>
	<path fill="#7A7D7D" d="M111.698,61.315c6-3.78,12.29-7.02,18.91-9.57c0.77,0.75,1.54,1.51,2.3,2.26
		c-7.1-0.4-13.02,4.33-19.08,7.34c-8.73,4.44-17.34,9.12-25.57,14.45c-4.1,2.75-9.04,4.55-12.1,8.61
		c5.31,1.95,10.67-2.38,16.04-0.44c6.78,2.24,12.96,5.96,19.35,9.1c-1.95,1.52-3.49,3.46-4.74,5.58c-0.9,0.14-1.81,0.27-2.72,0.4
		c-0.23,1.09-0.46,2.17-0.69,3.25c-1.29-1.04-2.57-2.08-3.86-3.11c-1.62-0.33-5.65,0.18-4.66-2.45c0.83-0.98,2.37-0.72,3.51-1.07
		c1.26-1.93,2.52-3.86,3.8-5.77c-5.58-4.41-12.77-5.87-19.72-4.78c2.3,1.85,4.72,3.55,7.23,5.12c2.93-1.29,6.14-2.32,9.3-1.11
		c-1.63,2.51-3.57,5.07-6.48,6.15c-3.47-0.25-6.09-2.97-8.76-4.92c-2.77-2.47-6.25-3.89-9.17-6.13c0.09-1.95,2.11-2.65,3.49-3.59
		C89.368,74.345,99.908,66.715,111.698,61.315 M103.928,90.845c0.23,1.24,0.47,2.49,0.71,3.73c0.92-0.1,2.75-0.31,3.66-0.41
		C107.858,91.905,105.988,91.155,103.928,90.845 M91.028,92.455C91.178,95.785,94.008,90.905,91.028,92.455 M103.918,95.485
		c-0.53,1.63,0.02,2.18,1.65,1.67C106.088,95.525,105.538,94.965,103.918,95.485z"/>
	<path fill="#7A7D7D" d="M165.028,50.845c1.87,1.22,3.83,2.35,5.48,3.87c-1.18,4.78,0.09,9.93-2.02,14.49
		c-2.01,0.41-2.11-1.84-2.51-3.22c-0.37-2.45,0.48-4.89,0.36-7.36C166.178,55.995,165.518,53.425,165.028,50.845z"/>
	<path fill="#7A7D7D" d="M192.278,53.435c0.95-1.3,3.22,0.26,2.17,1.57C193.498,56.305,191.248,54.735,192.278,53.435z"/>
	<path fill="#7A7D7D" d="M224.478,54.295c1.47,0.46,2.94,0.91,4.43,1.35c-0.38,1.34-0.75,2.67-1.13,4
		c-1.27-1.16-2.53-2.32-3.79-3.48C224.108,55.705,224.348,54.765,224.478,54.295z"/>
	<path fill="#7A7D7D" d="M261.708,57.425c0.6-1.36,1.81-3.98,3.59-2.56c0.43,1.92,0.48,3.9,0.62,5.85
		C264.178,60.175,261.088,60.075,261.708,57.425z"/>
	<path fill="#7A7D7D" d="M246.878,59.735c1.4-0.43,1.88,0.06,1.44,1.46C246.908,61.625,246.428,61.145,246.878,59.735z"/>
	<path fill="#7A7D7D" d="M286.778,60.355c6.24,12.09,15.34,22.66,26.29,30.73c1.81,1.19,2.45,3.31,3.21,5.22
		c-4.9,0.13-9.99-2.41-14.73-0.33c-2.7,1.08-5.8,2-7.42,4.63c-2.37,2.85-3.51,7.25-7.39,8.44c-3.93,1.21-8.07,1.91-11.61,4.11
		c2.54-4.71,8.39-3.64,12.5-5.83c2.93-2.77,4.46-6.65,6.32-10.16c3.04-0.49,6.07-1.25,8.88-2.55c-1.85-0.8-3.73-1.51-5.6-2.25
		c0-0.55,0.02-1.67,0.02-2.22c6.39,1.01,11.64,5.72,18.29,5.53c-2.1-2.94-4.89-5.23-7.73-7.41c-5.07-3.94-8.89-9.15-13.39-13.67
		c-1.85-1.97-4.51-2.69-7.02-3.41c-0.12-1.55-0.25-3.09-0.38-4.64c-1.82,3.57-3.13,7.37-4.04,11.27c-1.12,0.22-2.24,0.43-3.35,0.65
		c1.36-5.52,4.01-10.83,3.89-16.63C284.598,61.345,285.688,60.855,286.778,60.355z"/>
	<path fill="#7A7D7D" d="M265.918,62.495c1.62-0.53,2.18,0.03,1.66,1.66C265.948,64.675,265.398,64.115,265.918,62.495z"/>
	<path fill="#7A7D7D" d="M273.638,63.915c0.79-0.71,1.65-0.76,2.58-0.16c0.5,2.74-0.46,5.47-0.9,8.15
		c-1.19,0.18-2.37,0.35-3.55,0.52C272.408,69.595,272.798,66.705,273.638,63.915z"/>
	<path fill="#7A7D7D" d="M133.628,87.115c1.63-7.69,2.04-15.86,6.05-22.81c-2.16,6.4-3,13.13-4.38,19.72
		c-1.84,8.77-3.1,17.64-4.55,26.48c-0.18,3.03-1.04,6.99,1.73,9.16c5.75,4.47,13.48,3.97,20.35,3.82c1.88-0.24,4.22,0.07,5.53-1.59
		c5.17-5.12,7.07-12.33,10.34-18.62c2.45-4.49,0.05-9.57-2.57-13.37c-2.51-3.54-3.55-7.78-5.12-11.75c2.12,1.78,3.06,4.42,4.06,6.91
		c1.37,3.5,3.65,6.51,5.73,9.6c0.66-1.64,1.3-3.28,1.96-4.92c2.96,1.05,6.01,1.82,9.1,2.36c0.04,2.28,0.04,4.55,0.03,6.83
		c-2.09,0.26-4.18,0.53-6.26,0.8c0.19,0.5,0.58,1.51,0.77,2.02c1.76,0.14,3.52,0.28,5.29,0.43c-1.99,3.55-4.42,6.84-7.41,9.61
		c-3.51,3.07-4.77,7.71-6.16,11.98c2.53-2.61,4.47-5.68,6.38-8.75c2.61-4.3,7.19-7.3,8.61-12.31c1.38-4.55,2.81-9.09,5-13.33
		c1.15,0.15,2.29,0.31,3.44,0.48c-1.35,2.43-2.66,4.88-3.94,7.36c1.42-0.12,2.84-0.23,4.26-0.34c0.12,1.44,0.24,2.88,0.36,4.32
		c1.35-0.94,2.71-1.85,4.07-2.77c-0.11,1.46-0.22,2.92-0.34,4.38c3.57-0.68,7.08,0.31,10.6,0.74c3.37-0.3,6.27-2.3,9.34-3.57
		c-1.28,1.06-2.56,2.11-3.84,3.16c0,0.42,0,1.25,0.01,1.67c1.47-0.35,2.94-0.71,4.41-1.07c0.51,1.47,1.02,2.93,1.53,4.4
		c0.79-1.17,1.59-2.34,2.38-3.51c1.14,1.11,2.27,2.23,3.41,3.35c0.9-2.77,1.95-5.49,3.19-8.13c0.13,1.85,0.23,3.71,0.35,5.56
		c1.6,1.36,3.19,2.74,4.76,4.14c-9.03,6.95-18.84,13.48-30.18,15.82c-5.13,0.73-10.28-1-15.42-0.22
		c-7.83,1.03-16.49,2.44-23.63-1.92c1.09-2.57,4.06-3.51,6.2-5.05c-0.79-1.54-2.03-2.99-2.18-4.76c0.65-1.69,1.66-3.21,2.58-4.77
		c1.79,0.63,3.58,1.25,5.38,1.85c-0.92-1.4-1.85-2.78-2.77-4.17c0.96-1.96,2.25-3.89,2.39-6.13c-0.6-2.02-2.08-3.61-3.23-5.33
		c-0.09,2.37,0.05,4.77-0.4,7.11c-0.78,2.77-2.64,5.05-3.85,7.62c-1.39,2.68-1.82,5.69-2.31,8.63c-1.44,0.59-2.89,1.17-4.33,1.75
		c-0.12,1.7-0.24,3.4-0.35,5.1c-6.74,0.16-13.53,0.16-20.19-1c-4.08-0.64-7.56-3-11.02-5.08
		C130.028,108.325,131.808,97.705,133.628,87.115 M186.348,98.005c-0.97,2.65-1.79,5.39-3.18,7.86c-1.99,3.52-5.21,6.1-7.45,9.44
		c-1.9,2.86-3.44,5.94-5.07,8.96c5.02,0.15,10.21,0.74,15.04-1.01c3.27-1.21,6.7-0.02,10.04,0.1c5.21,0.49,10.48-0.58,15.2-2.81
		c6.42-3.03,13.09-5.98,18.14-11.14c-10.64,1.06-21.72,0.6-31.66-3.72C193.188,103.965,189.868,100.775,186.348,98.005z"/>
	<path fill="#7A7D7D" d="M278.098,69.765c1.22-1.31,3.34,0.8,2.01,2.02C278.878,73.145,276.768,70.995,278.098,69.765z"/>
	<path fill="#7A7D7D" d="M249.888,70.465c1.38-0.55,2.24,1.78,0.73,2.14C249.208,73.165,248.378,70.845,249.888,70.465z"/>
	<path fill="#7A7D7D" d="M159.628,70.815c1.55,1.63,3.1,3.27,4.6,4.96c-2.11-0.14-4.23-0.29-6.34-0.45
		C158.428,73.805,158.998,72.295,159.628,70.815z"/>
	<path fill="#7A7D7D" d="M277.048,72.805c1.16-0.86,2.57,1.12,1.45,1.98C277.338,75.655,275.908,73.665,277.048,72.805z"/>
	<path fill="#7A7D7D" d="M273.518,77.505c0.47-1.22,2.88-0.78,2.47,0.64C275.498,79.365,273.098,78.925,273.518,77.505z"/>
	<path fill="#7A7D7D" d="M267.888,78.275c3.34-0.57-0.02,4.27-0.84,1.15C267.258,79.135,267.678,78.565,267.888,78.275z"/>
	<path fill="#7A7D7D" d="M171.338,86.735c4.22-1.04,8.56-2.3,12.94-1.83c1.25,1.94-0.68,4.66-2.76,5
		C177.928,89.715,174.538,88.265,171.338,86.735z"/>
	<path fill="#7A7D7D" d="M226.668,92.335c4.75-3.73,10.77-5.14,16.72-5.17c0.96,1.32,1.94,2.62,2.94,3.92
		c-2.34,1.6-4.73,3.15-7.22,4.51c-1.52-2.17-3-4.36-4.5-6.54c-0.17,0.52-0.51,1.57-0.68,2.09c0.63,1.33,1.27,2.66,1.9,3.99
		c-3.38,0.3-6.74,0.62-10.12,0.79C225.978,94.725,226.168,93.475,226.668,92.335z"/>
	<path fill="#7A7D7D" d="M193.308,95.575c0.95-1.64,2-3.21,3.12-4.74c0.67,0.47,2.03,1.39,2.7,1.85
		C197.538,94.265,195.568,95.345,193.308,95.575z"/>
	<path fill="#7A7D7D" d="M218.048,94.515c0.86-1.37,3.25,0.04,2.15,1.4C219.328,97.315,216.938,95.885,218.048,94.515z"/>
	<path fill="#7A7D7D" d="M207.908,97.615c1.67-0.02,1.49,2.73-0.11,2.67C206.118,100.295,206.298,97.555,207.908,97.615z"/>
	<path fill="#7A7D7D" d="M233.038,98.855c0.74-0.16,2.21-0.47,2.94-0.63c-0.25,3.06-0.42,6.38-2.7,8.72
		C233.078,104.255,233.018,101.555,233.038,98.855z"/>
	<path fill="#7A7D7D" d="M238.838,98.605C242.178,98.765,237.288,101.575,238.838,98.605z"/>
	<path fill="#7A7D7D" d="M253.938,98.635c1.47-1.18,3.08,1.39,1.63,2.38C254.098,102.195,252.478,99.625,253.938,98.635z"/>
	<path fill="#7A7D7D" d="M89.918,103.495c1.62-0.52,2.18,0.03,1.66,1.66C89.948,105.675,89.388,105.115,89.918,103.495z"/>
	<path fill="#7A7D7D" d="M249.448,111.035c3.66-2.84,8.49-2.94,12.86-2.17c4.12,0.77,8.75,0.72,12.11,3.57
		c-3.84,0.16-7.63-0.44-11.38-1.18c0.25,0.45,0.76,1.36,1.01,1.81c-1.35-1.08-2.6-2.36-4.2-3.08c-3.74-0.95-7.58,0.67-10.59,2.83
		c-4.68,3.38-9.06,7.2-12.92,11.5c8.93,0.17,18.16-2.6,26.83,0.73c2.33,0.65,2.87,3.23,3.46,5.24c1.86,7.54,4.38,14.9,6.89,22.24
		c1.65,5.58,7.41,9.25,13.11,9.09c-3.48,1.39-6.14,4.15-7.48,7.65c4.01-1.76,8.11-3.87,10.46-7.74c1.06,5.31,2.7,10.48,4.1,15.71
		c1.19,4.4,0.74,9,0.41,13.49c7.25-7.35,11.76-16.81,18.71-24.38c-4.9,9.42-12.07,17.33-17.86,26.17c-1.52,2.24-3.36,4.22-5.3,6.1
		c-2.17-5.6-6.03-10.76-6.61-16.86c2.17-2.79,5.43-4.38,8.39-6.15c0.13-0.62,0.39-1.85,0.52-2.46c-2.61,0.59-5.19,1.63-7.9,1.59
		c-3.38-0.78-6.71-3.72-6.49-7.44c0.19-2.23,1.6-4.1,2.63-6.02c-1.38,0.24-2.76,0.48-4.14,0.72c-4.88-10.68-8.92-21.86-11.1-33.42
		c-0.15-1.95-2.27-2.46-3.84-2.77c-8.97-1.67-18.01,0.7-27.03,0.35C237.708,119.805,243.668,115.295,249.448,111.035
		 M287.748,165.625c-0.08,1.61-0.16,3.22-0.22,4.84c0.95-0.09,2.86-0.25,3.82-0.33C290.908,168.025,289.978,166.195,287.748,165.625
		 M283.918,168.495c-0.53,1.62,0.02,2.18,1.65,1.66C286.088,168.535,285.538,167.975,283.918,168.495 M290.378,184.925
		c-1.03-0.46-2.05-0.92-3.07-1.36c1.01,3.13,2.29,6.16,3.83,9.07c2.36-4.68,3.89-10.27,1.77-15.34
		C291.568,179.645,290.768,182.245,290.378,184.925 M284.768,182.635C283.248,185.625,288.098,182.745,284.768,182.635z"/>
	<path fill="#7A7D7D" d="M326.928,121.345c-2.79-1.04-4.34-3.67-5.42-6.27c2.09,1.16,4.07,2.55,6.32,3.4c1.67-0.03,3.33-0.15,5-0.28
		C330.978,119.435,329.138,120.845,326.928,121.345z"/>
	<path fill="#7A7D7D" d="M331.848,138.565c1.79-0.6,2.37,2.34,0.62,2.71C330.648,141.905,330.088,138.925,331.848,138.565z"/>
	<path fill="#7A7D7D" d="M326.848,144.225c1.1,0.41,2.21,0.83,3.32,1.25c-1.11,1.16-2.27,2.29-3.36,3.46
		C326.818,147.365,326.828,145.795,326.848,144.225z"/>
	<path fill="#7A7D7D" d="M332.158,148.565c1.33-1.46,3.63,0.84,2.13,2.16C332.968,152.175,330.698,149.865,332.158,148.565z"/>
	<path fill="#7A7D7D" d="M280.938,175.635c1.46-1.18,3.08,1.39,1.62,2.38C281.088,179.195,279.468,176.625,280.938,175.635z"/>
	<path fill="#7A7D7D" d="M236.168,178.465c1.41-0.43,1.89,0.05,1.45,1.46C236.208,180.345,235.728,179.855,236.168,178.465z"/>
	<path fill="#7A7D7D" d="M272.928,179.545c1.66-0.5,2.64,2.35,0.84,2.76C272.098,182.785,271.118,179.965,272.928,179.545z"/>
	<path fill="#7A7D7D" d="M230.838,186.625C234.168,186.775,229.288,189.595,230.838,186.625z"/>
	<path fill="#7A7D7D" d="M232.058,198.635c1.31-1.04,2.87,1.21,1.6,2.18C232.358,201.835,230.788,199.595,232.058,198.635z"/>
	<path fill="#7A7D7D" d="M168.008,202.285c1.54-1.18,3.79,1.32,1.68,2.25C168.138,205.665,165.908,203.235,168.008,202.285z"/>
	<path fill="#7A7D7D" d="M143.918,247.495c1.63-0.52,2.18,0.03,1.66,1.66C143.948,249.675,143.398,249.115,143.918,247.495z"/>
	<path fill="#7A7D7D" d="M218.918,256.495c1.62-0.53,2.18,0.03,1.66,1.66C218.948,258.675,218.398,258.115,218.918,256.495z"/>
	<path fill="#7A7D7D" d="M223.628,269.315c0.8,0.01,2.39,0.02,3.19,0.03c0.93,2.45,2,4.96,1.89,7.63c-0.99,1.13-2.58,1.26-3.89,1.76
		C224.238,275.615,223.868,272.465,223.628,269.315 M225.928,271.415c-1.33,0.67-1.34,1.35-0.04,2.03
		C227.208,272.775,227.218,272.095,225.928,271.415z"/>
	<path fill="#7A7D7D" d="M229.748,284.875c3.6,1.09,6.98,3.75,7.85,7.55c1.02,4.59,1.39,9.29,2.16,13.93
		c-0.71-0.06-2.11-0.17-2.81-0.22C231.308,300.455,231.478,292.155,229.748,284.875 M232.898,289.075
		c0.93,5.34,0.4,11.72,4.75,15.73c-0.35-5.09-1.39-10.08-2.34-15.08C234.708,289.565,233.508,289.235,232.898,289.075z"/>
	<path fill="#7A7D7D" d="M217.708,297.635c2.48-1.59,4.98-3.13,7.56-4.54c2.64,4.5,5.53,8.86,8.5,13.15
		c-3.52-3.07-6.49-6.7-9.75-10.03c-0.81,0.5-1.61,1.01-2.41,1.52c0.24,3.99-0.37,7.98-2.13,11.59c2.08-1.64,4.16-3.3,6.2-5
		c1.41,3.86,3.38,7.51,6.15,10.57c-0.73,1.13-1.46,2.25-2.19,3.38c-0.93-1.1-1.85-2.2-2.78-3.29c0.92,4.23,1.21,8.56,1.08,12.89
		c1.11-2.55,2.14-5.13,3.16-7.72c1.27,0.93,2.55,1.86,3.82,2.79c-1.11,1.22-1.89,2.7-3.01,3.93c0.67,0.22,2,0.66,2.67,0.89
		c-1.21,1.39-2.41,2.78-3.61,4.18c0.46,0.85,0.93,1.69,1.39,2.55c-0.06,3.63,0.51,7.23,1.28,10.78c-2.52-0.54-5.02-1.43-7.62-1.34
		c-1.5,0.56-2.8,1.53-4.13,2.38c1.83,0.17,3.67,0.31,5.52,0.46c-0.79,1.8-1.59,3.61-2.36,5.43c5.12-0.24,10.22-0.71,15.33-1.05
		c-0.31-4.69,0.01-9.39,0.01-14.08c0.02-3.97-1.57-7.88-0.73-11.85c0.63-3.76,1.78-7.66,0.72-11.46c-0.72-2.96-3.44-4.69-5.56-6.61
		c2.03,0.91,4.6,1.23,6.04,3.06c3.04,6.04,2.19,13.19-0.71,19.11c1.18,2.27,2.32,4.55,3.45,6.85c-0.74,1.17-1.47,2.34-2.19,3.52
		c0.8,4.22,0.76,8.53,1.17,12.8c-9.08,2.41-18.57,1.12-27.75,2.77c-0.45-0.89-0.91-1.78-1.35-2.66c1.95-0.23,3.91-0.45,5.87-0.68
		c-2.14-3.68-5.89-5.76-9.74-7.25c0.82-1.65,1.68-3.28,2.57-4.9c-0.47-1.75-0.95-3.5-1.42-5.24c0.9-1.16,1.8-2.31,2.71-3.46
		c-0.07-1.46-0.13-2.92-0.19-4.37c1.22-1.45,2.5-2.86,3.5-4.48c-0.69-1.69-1.76-3.2-2.5-4.86c1.28-1.84,2.99-3.32,4.55-4.91
		c-1.01-1.39-2.02-2.78-3.03-4.16c1.55-1.87,3.07-3.75,4.53-5.68C219.448,300.955,218.578,299.295,217.708,297.635 M220.128,310.705
		c-1,0.87-0.41,2.82,0.88,3.06C223.048,313.605,221.968,309.695,220.128,310.705 M217.048,317.405
		C217.288,320.735,219.988,315.785,217.048,317.405 M218.928,321.085c-1.22,0.48-0.79,2.89,0.64,2.48
		C220.778,323.075,220.348,320.665,218.928,321.085 M215.818,326.595C214.298,329.575,219.158,326.715,215.818,326.595
		 M228.858,329.635c-1.39-0.08-1.77,2.36-0.22,2.38C230.018,332.085,230.398,329.645,228.858,329.635 M220.998,349.855
		c-1.11,0.88,0.36,2.83,1.5,1.95C223.608,350.915,222.138,348.965,220.998,349.855z"/>
	<path fill="#7A7D7D" d="M201.758,301.325c2.21-0.26,5.1-2.02,6.85,0.15c2.42,1.89-0.05,4.75-0.74,6.9
		c0.58,1.36,1.17,2.72,1.76,4.08c-1.13,1.35-2.27,2.71-3.39,4.08c1.19,2.9,1.89,6.19-0.76,8.53c0.27,3.32,0,6.72-2.27,9.35
		c0.71,1.53,1.42,3.05,2.14,4.58c-1.76,2.81-3.44,5.87-6.49,7.48c-3.08,1.69-5.2,4.51-7.02,7.43c1.91,0.44,4.38,0.24,5.43,2.27
		c-5.2,0.01-10.39-0.56-15.59-0.21c-3.91,0.51-7-2.74-10.85-2.62c-4.7-0.12-10.48-0.34-13.9-3.83c1.53-2.52,2.91-5.16,3.34-8.12
		c0.6,0,1.8-0.02,2.4-0.02c0.46,3.15,0.72,6.33,0.78,9.52c4.04-2.8,6.01-7.36,6.76-12.07c5.33-0.82,10.04-3.51,14.56-6.31
		c0.46-1.83,0.88-3.7,1.69-5.41c1.63-0.4,3.32-0.42,5-0.53c0.19-2.28,0.37-4.56,0.56-6.83c1.85-0.52,3.7-1.06,5.54-1.61
		c-0.27-2.21-0.54-4.41-0.81-6.61c1.99-0.88,3.98-1.74,5.97-2.62C202.428,306.375,202.088,303.845,201.758,301.325 M204.718,302.075
		c-0.29,3.05-0.49,6.11-0.75,9.17c0.81,0.47,1.62,0.95,2.44,1.43c-0.64-3.28-0.52-6.66,1.09-9.66
		C206.568,302.695,205.638,302.375,204.718,302.075 M202.878,316.875c-0.95,1.13-0.69,1.77,0.75,1.91
		C204.568,317.645,204.318,317.005,202.878,316.875 M197.058,320.435c-1.07,0.17-2.57,0.54-2.85,1.77
		C195.008,324.695,200.458,320.775,197.058,320.435 M201.988,322.925c-0.15,2.46-0.23,4.93-0.29,7.4c0.58-0.03,1.75-0.08,2.34-0.1
		C203.428,327.765,202.768,325.325,201.988,322.925 M187.548,328.025c0.38,2.06-0.28,4.69,1.4,6.29c1.86-0.37,3.53-1.33,5.23-2.14
		c-0.59-1.19-0.54-2.91-1.77-3.66C190.808,328.195,189.168,328.145,187.548,328.025 M199.868,333.865
		c-0.94,1.14-0.69,1.78,0.76,1.92C201.568,334.635,201.318,333.995,199.868,333.865 M182.028,336.415
		C182.188,339.745,184.998,334.855,182.028,336.415 M201.858,337.615C200.318,340.585,205.188,337.745,201.858,337.615
		 M177.108,338.515c-1.33,0.22-1.96,2.8-0.05,2.32C179.308,340.845,179.798,337.035,177.108,338.515 M171.838,340.605
		C170.298,343.585,175.168,340.735,171.838,340.605 M198.928,342.495c-0.47,1.41,0,1.88,1.41,1.42
		C200.808,342.515,200.328,342.035,198.928,342.495 M194.908,344.525c-0.46,1.4,0.02,1.87,1.42,1.4
		C196.778,344.515,196.308,344.045,194.908,344.525 M177.008,352.425C177.178,355.755,179.978,350.865,177.008,352.425
		 M181.028,352.415C181.188,355.755,183.998,350.865,181.028,352.415z"/>
	<path fill="#7A7D7D" d="M173.118,307.575c6.83-0.12,12.32-4.28,18.43-6.65c0.44,1.66,0.91,3.32,1.35,4.99
		c-1.73,0.07-3.45,0.25-5.18,0.29c0.34,2.18,0.67,4.36,0.99,6.54c-1.66,0.5-3.34,0.93-4.92,1.64c-0.38,1.85-0.28,3.74-0.31,5.62
		c-1.57,0.84-3.14,1.66-4.71,2.5c-0.1,1.86-0.18,3.73-0.25,5.6c-2.92,1.65-6.02,3.04-9.37,3.49c-0.56-3.91-1.93-7.8-1.56-11.78
		C168.718,315.455,171.178,311.595,173.118,307.575 M184.058,306.665c-1.08,0.9-0.6,3.09,0.87,3.26
		C187.118,309.745,186.088,305.495,184.058,306.665 M179.888,316.745c-0.42,1.4,0.07,1.88,1.47,1.43
		C181.768,316.765,181.278,316.285,179.888,316.745z"/>
	<path fill="#7A7D7D" d="M138.918,304.765c1.91-0.84,3.81-1.7,5.72-2.55c0.82,1.28,1.63,2.56,2.44,3.84
		c-1.17,1.13-2.35,2.25-3.53,3.38c0.4,1.92,0.8,3.85,1.19,5.78c-1.3,1.05-2.6,2.1-3.89,3.16c0.67,1.85,1.34,3.69,1.98,5.56
		c-1.23,1.25-2.57,2.43-3.56,3.89c-0.26,1.86,0.19,3.72,0.37,5.57c-4.04,0.58-8.88,3.34-12.47,0.21c1.62-2.08,3.3-4.11,5.02-6.11
		c-0.49-1.28-0.96-2.56-1.43-3.83c1.61-0.95,3.23-1.89,4.84-2.83c-0.19-2.04-0.41-4.08-0.61-6.11c1.51-0.93,3.07-1.79,4.44-2.91
		C139.888,309.465,139.188,307.095,138.918,304.765 M142.108,305.455c-1.89,0.66-0.67,3.48,1.02,2.13
		C145.018,306.865,143.868,304.155,142.108,305.455 M138.678,314.245c-1.99,2.02-0.69,5.13-1.31,7.63
		c-0.99,1.35-2.31,2.42-3.52,3.56c0.47,0.02,1.41,0.04,1.88,0.06c-1.76,2.51-3.56,5.01-5.37,7.49c2.06-0.47,4.12-0.92,6.19-1.32
		c0.34-2.66,0.74-5.31,1.16-7.95c0.6,0.06,1.8,0.19,2.4,0.25c-0.07-2.13-0.26-4.28,0.04-6.4c0.66-2.21,3.02-4.04,1.89-6.52
		C140.888,312.075,139.708,313.085,138.678,314.245z"/>
	<path fill="#7A7D7D" d="M153.348,310.925c1.23-0.37,2.47-0.67,3.73-0.91c-0.25,1.24-0.57,2.46-0.96,3.67
		c-1.21,0.39-2.43,0.72-3.68,0.97C152.688,313.395,152.988,312.155,153.348,310.925z"/>
	<path fill="#7A7D7D" d="M150.968,319.245c1.57-0.71,2.49,1.94,0.81,2.36C150.188,322.295,149.288,319.685,150.968,319.245z"/>
	<path fill="#7A7D7D" d="M147.848,328.565c1.8-0.61,2.36,2.34,0.61,2.7C146.638,331.905,146.088,328.925,147.848,328.565z"/>
	<path fill="#7A7D7D" d="M256.918,328.495c1.62-0.53,2.18,0.02,1.66,1.65C256.948,330.665,256.398,330.115,256.918,328.495z"/>
	<path fill="#7A7D7D" d="M253.468,338.375c1.89-3.17,4.86-5.33,8.05-7.06c0.88,1.02,1.77,2.03,2.66,3.05
		c-0.48,1.82-0.97,3.65-1.44,5.47C259.688,339.105,256.578,338.725,253.468,338.375z"/>
	<path fill="#7A7D7D" d="M236.838,334.605C240.168,334.755,235.288,337.585,236.838,334.605z"/>
	<path fill="#7A7D7D" d="M161.538,335.295c1.99,0.01,3.99,0.03,5.98,0.06c0.47,1.11,0.95,2.22,1.43,3.33
		c-1.53,0.09-3.18,0.97-4.64,0.3C163.268,337.845,162.428,336.545,161.538,335.295z"/>
	<path fill="#7A7D7D" d="M196.698,349.015c0.49-0.26,1.46-0.76,1.95-1.02c2.35,1.64,4.62,3.4,6.72,5.36
		c-1.36,1.11-2.69,2.27-4.07,3.36C199.928,354.055,198.418,351.465,196.698,349.015z"/>
	<path fill="#545555" d="M337.048,117.845c1.94,2.79,4.13,5.61,4.81,9.02c0.05,2.24-0.62,4.42-0.79,6.65
		c-0.43,3.48,0.38,7.02-0.41,10.47c-1.87-5.48-1.41-11.29,0.57-16.66c-2.05-1.69-4.12-3.37-6.18-5.04
		C335.718,120.805,336.378,119.325,337.048,117.845z"/>
	<path fill="#2E3030" d="M287.748,165.625c2.23,0.57,3.16,2.4,3.6,4.51c-0.96,0.08-2.87,0.24-3.82,0.33
		C287.588,168.845,287.668,167.235,287.748,165.625z"/>
	<path d="M135.998,9.475c1.59-2.83,4.89-3.94,7.83-4.8c1.13,2.16-1.01,4.27-1.54,6.32c-1.71,2.94-0.77,6.31,0.01,9.36
		c2.71,0.76,6.05,0.99,7.85,3.46c1.98,3.41,1.39,7.71,0.1,11.27c-1.71,4.6-3.15,9.3-5.06,13.82c-2.17,5.01-3.11,10.47-5.51,15.4
		c-4.01,6.95-4.42,15.12-6.05,22.81c-1.82,10.59-3.6,21.21-4.84,31.89c3.46,2.08,6.94,4.44,11.02,5.08c6.66,1.16,13.45,1.16,20.19,1
		c0.11-1.7,0.23-3.4,0.35-5.1c1.44-0.58,2.89-1.16,4.33-1.75c0.49-2.94,0.92-5.95,2.31-8.63c1.21-2.57,3.07-4.85,3.85-7.62
		c0.45-2.34,0.31-4.74,0.4-7.11c1.15,1.72,2.63,3.31,3.23,5.33c-0.14,2.24-1.43,4.17-2.39,6.13c0.92,1.39,1.85,2.77,2.77,4.17
		c-1.8-0.6-3.59-1.22-5.38-1.85c-0.92,1.56-1.93,3.08-2.58,4.77c0.15,1.77,1.39,3.22,2.18,4.76c-2.14,1.54-5.11,2.48-6.2,5.05
		c7.14,4.36,15.8,2.95,23.63,1.92c5.14-0.78,10.29,0.95,15.42,0.22c11.34-2.34,21.15-8.87,30.18-15.82
		c-1.57-1.4-3.16-2.78-4.76-4.14c-0.12-1.85-0.22-3.71-0.35-5.56c-1.24,2.64-2.29,5.36-3.19,8.13c-1.14-1.12-2.27-2.24-3.41-3.35
		c-0.79,1.17-1.59,2.34-2.38,3.51c-0.51-1.47-1.02-2.93-1.53-4.4c-1.47,0.36-2.94,0.72-4.41,1.07c-0.01-0.42-0.01-1.25-0.01-1.67
		c1.28-1.05,2.56-2.1,3.84-3.16c-3.07,1.27-5.97,3.27-9.34,3.57c-3.52-0.43-7.03-1.42-10.6-0.74c0.12-1.46,0.23-2.92,0.34-4.38
		c-1.36,0.92-2.72,1.83-4.07,2.77c-0.12-1.44-0.24-2.88-0.36-4.32c-1.42,0.11-2.84,0.22-4.26,0.34c1.28-2.48,2.59-4.93,3.94-7.36
		c-1.15-0.17-2.29-0.33-3.44-0.48c-2.19,4.24-3.62,8.78-5,13.33c-1.42,5.01-6,8.01-8.61,12.31c-1.91,3.07-3.85,6.14-6.38,8.75
		c1.39-4.27,2.65-8.91,6.16-11.98c2.99-2.77,5.42-6.06,7.41-9.61c-1.77-0.15-3.53-0.29-5.29-0.43c-0.19-0.51-0.58-1.52-0.77-2.02
		c2.08-0.27,4.17-0.54,6.26-0.8c0.01-2.28,0.01-4.55-0.03-6.83c-3.09-0.54-6.14-1.31-9.1-2.36c-0.66,1.64-1.3,3.28-1.96,4.92
		c-2.08-3.09-4.36-6.1-5.73-9.6c-1-2.49-1.94-5.13-4.06-6.91c-1.01-0.98-2.05-1.92-3.12-2.83c2.11,0.16,4.23,0.31,6.34,0.45
		c-1.5-1.69-3.05-3.33-4.6-4.96c0.1-0.23,0.32-0.69,0.43-0.92c0.97-0.46,1.97-0.87,2.96-1.29c-0.13-4.2-0.29-8.41-0.77-12.58
		c-0.53-4.5-4.01-7.75-5.45-11.91c4.69-0.1,9.66-1.09,14.14,0.82c3.33,1.22,6.29,3.36,9.76,4.18c2.02-0.16,3.83-1.21,5.69-1.92
		c-0.29-1.67-0.58-3.33-0.86-5c2.09,0.05,4.53,0.89,6.39-0.43c1.02-1.38,1.7-2.96,2.5-4.47c2.43-0.42,4.66-1.51,6.66-2.94
		c-0.01,1-0.02,2-0.02,3c1.34-1.2,2.67-2.42,4.01-3.62c4.64,0.92,9.48,1.01,13.97,2.59c5.92,2.72,9.79,8.32,12.69,13.94
		c4.51,1.05,8.4,3.6,12.02,6.4c-0.89-2.26-1.79-4.51-2.71-6.76c3.29-1.12,6.7-1.79,10.17-2.02c-0.74,2.92-0.8,5.95,0.27,8.8
		c1.54-0.45,3.08-0.9,4.62-1.35c-1.25-1.26-2.51-2.51-3.78-3.76c1.21-1.62,2.42-3.24,3.64-4.84c0.01,1.46,0.03,2.92,0.04,4.38
		c1.96-0.66,3.92-1.32,5.9-1.95c-1.55,2.17-3.15,4.31-4.8,6.41c0.22,0.96,0.45,1.92,0.69,2.88c3.76-4.54,7.29-9.35,9.24-14.99
		c0.62-0.83,1.25-1.67,1.88-2.49c0.09,0.34,0.27,1.03,0.36,1.38c-0.06,1.7-0.37,3.42-0.15,5.13c0.67,1.81,2.08,3.22,3.25,4.72
		c2.93,0.03,5.42,1.55,7.38,3.64c-1.73,0.74-3.45,1.48-5.18,2.21c1.45,2.31,2.94,4.6,4.45,6.88c0.91-2.14,1.77-4.3,2.61-6.47
		c1.38,0.27,2.76,0.53,4.13,0.85c0.25,0.26,0.76,0.78,1.02,1.04c-1.09,0.5-2.18,0.99-3.26,1.48c0.12,5.8-2.53,11.11-3.89,16.63
		c1.11-0.22,2.23-0.43,3.35-0.65c0.91-3.9,2.22-7.7,4.04-11.27c0.13,1.55,0.26,3.09,0.38,4.64c2.51,0.72,5.17,1.44,7.02,3.41
		c4.5,4.52,8.32,9.73,13.39,13.67c2.84,2.18,5.63,4.47,7.73,7.41c-6.65,0.19-11.9-4.52-18.29-5.53c0,0.55-0.02,1.67-0.02,2.22
		c1.87,0.74,3.75,1.45,5.6,2.25c-2.81,1.3-5.84,2.06-8.88,2.55c-1.86,3.51-3.39,7.39-6.32,10.16c-4.11,2.19-9.96,1.12-12.5,5.83
		c-3.17,2.17-8.17,2.78-11.08-0.09c-0.25-0.45-0.76-1.36-1.01-1.81c3.75,0.74,7.54,1.34,11.38,1.18c-3.36-2.85-7.99-2.8-12.11-3.57
		c-4.37-0.77-9.2-0.67-12.86,2.17c-5.78,4.26-11.74,8.77-15.35,15.12c9.02,0.35,18.06-2.02,27.03-0.35
		c1.57,0.31,3.69,0.82,3.84,2.77c2.18,11.56,6.22,22.74,11.1,33.42c1.38-0.24,2.76-0.48,4.14-0.72c-1.03,1.92-2.44,3.79-2.63,6.02
		c-0.22,3.72,3.11,6.66,6.49,7.44c2.71,0.04,5.29-1,7.9-1.59c-0.13,0.61-0.39,1.84-0.52,2.46c-2.96,1.77-6.22,3.36-8.39,6.15
		c0.58,6.1,4.44,11.26,6.61,16.86c1.94-1.88,3.78-3.86,5.3-6.1c5.79-8.84,12.96-16.75,17.86-26.17c4.38-5.32,8.17-11.09,12.82-16.19
		c-0.63-1.58-1.25-3.17-1.86-4.76c2.97-4.07,5.5-8.59,9.73-11.54c-0.75-1.36-1.43-2.76-2.36-4c-2.58-0.94-5.4-0.96-7.97-1.93
		c-1.8-6.29-5.11-12.81-3.61-19.48c0.51-2.82,3.54-3.47,5.75-4.48c-0.26,2.37-0.85,4.72-0.78,7.11c0.49,2.68,2.08,4.99,3.28,7.4
		c-2.25-0.85-4.23-2.24-6.32-3.4c1.08,2.6,2.63,5.23,5.42,6.27c2.21-0.5,4.05-1.91,5.9-3.15c1.4-0.12,2.81-0.24,4.22-0.35
		c-0.67,1.48-1.33,2.96-2,4.44c2.06,1.67,4.13,3.35,6.18,5.04c-1.98,5.37-2.44,11.18-0.57,16.66c-3.41,6.95-2.92,14.86-3.84,22.35
		c-1.05,8.32-1.65,16.69-2.56,25.02c-0.46,4.78-2.32,9.29-2.84,14.06c-1.01,9.63-2.23,19.24-3.13,28.88c-0.6,6.7-1.97,13.32-2,20.06
		c-0.02,3.18-0.52,6.32-1.2,9.42c-3.14,18.12-5.26,36.39-7.56,54.63c-0.33,3.46-0.84,6.9-1.7,10.26
		c-3.98,15.98-4.7,32.52-7.76,48.66h-3.88c1.19-10.06,3.04-20.04,4.02-30.13c0.71-9.13,3.7-17.87,4.87-26.92
		c1.93-16.9,3.19-33.87,5.38-50.74c0.73-4.75,2.51-9.29,2.81-14.12c1.37-15.44,4.54-30.64,6.03-46.07
		c0.56-8.48,3.84-16.51,4.02-25.05c0.48-10.58,3.19-21.25,1.56-31.82c-3.68,1.56-5.46,5.34-7.69,8.39
		c-8.06,11.49-14.63,23.94-22.26,35.7c-4.74,5.48-7.36,12.45-12.25,17.77c-2.39,2.88-6.69,1.27-8.35-1.54
		c-3.91-6.48-3.54-14.36-5.35-21.48c-0.99-3.82-5.24-5.05-7.7-7.71c-0.18-3.14,1.3-6.06,1.43-9.17c-0.45-3.61-2.33-6.83-3.62-10.18
		c-4.03-9.34-7.03-19.16-12.11-28.02c-4.96,1.02-10.75,1.13-14.59,4.84c-2.78,3.85-0.24,8.47,1.81,11.99
		c-5.12,4.97-6.39,12.21-9.48,18.37c-2.84,5.75-3.93,12.12-4.97,18.39c-1.58,7.36,5.78,12.57,6.48,19.55
		c0.28,3.24,0.04,6.49,0.06,9.74c3.13-0.03,6.77-0.95,9.45,1.2c2.99,2.36,3.46,6.36,4,9.87c-1.28,2.14-2.53,4.29-3.79,6.44
		c3.14,3.6,7.73,5.22,11.41,8.08c0.67,6.44-2.33,12.88-0.88,19.34c0.97,2.82,3.2,5.19,3.6,8.19c-0.63,5.13-3.01,9.87-3.81,14.97
		c-0.45,5.8,1.79,11.38,1.95,17.15c0.28,4.58-0.46,9.23,0.47,13.76c1.95,4.96,5.92,9.27,11.23,10.58c-1.36,3.68-0.98,7.6-0.19,11.36
		c1.07,4.44-0.93,8.76-2.02,13c3.94-0.31,7.71-1.52,11.59-2.15c4.08,3.52,6.19,9.48,4.6,14.74c-0.75,2.62-2.92,4.44-4.73,6.35
		c-2.73-1.75-5.34-4.58-8.87-4.27c-4.41,0.19-8.84,0.07-13.11-1.09c-4.53-1.31-9.05,0.56-13.55,1.02
		c-13.67,1.55-27.45,1.55-41.13,2.99c-6.55,0.64-13.15-0.47-19.69,0.4c-3.22,0.34-6.45,1.12-9.7,0.71c-3.02-1.08-4.8-4.42-8.07-5.05
		c-4.29-0.87-8.38-2.47-12.23-4.54c-1.64,5.16-3.37,10.33-5.86,15.16h-7.71c2.39-5.7,4.87-11.48,6.06-17.57
		c-3.27-1.87-7.46-1.12-10.92-2.72c1.03-3.36,1.7-6.86,1.41-10.38c0.95-1.25,1.92-2.49,2.88-3.72c-0.12-0.34-0.36-1.02-0.48-1.36
		c-4.27-0.93-8.12-3.13-12.35-4.15c-4.33,0.93-7.71,4.41-12.15,5.08c-2.4,0.34-3.35-2.41-4.75-3.82c6.28-4,11.21-9.56,16.16-15.02
		c-0.29-1.34-0.59-2.67-0.88-4c1.67-0.92,3.34-1.85,5-2.77c-0.53-2.07-1.05-4.13-1.57-6.2c1.27-0.98,2.54-1.96,3.8-2.93
		c-0.44-2.03-0.89-4.04-1.32-6.06c1.03-1.33,2.05-2.65,3.08-3.97c-2.12-2.45-5.86-5.2-4.06-8.88c2.78-5.34,9.1-7.27,13.68-10.74
		c-0.89-1.04-1.78-2.08-2.68-3.11c1.85-0.52,3.87-0.71,5.52-1.75c2.11-1.91,3.51-4.44,5.49-6.46c2.79-2.94,6.95-4.33,9.23-7.8
		c2.69-4.1,4.68-8.63,7.23-12.82c-4.56-0.34-9.06-1.28-13.33-2.96c0.74-1.3,1.44-2.65,2.37-3.83c3.38-1.15,7.53-0.1,10.3-2.79
		c2.41-2.32,5.49-3.59,8.73-4.24c0.17-3.05-0.58-6.03-2.72-8.29c-3.05-3.53-5.03-8.67-2.75-13.11c2.09-3.19,5.47-5.38,7.12-8.89
		c1.69-3.53,3.95-7.22,8-8.29c4.25-1.97,9.81,0.46,11.23,4.9c0.29,3.36-0.94,6.6-1.52,9.87c1.72-0.46,3.83-0.29,5.12-1.73
		c3.71-4,7.33-8.77,7.58-14.45c0.52-9.34-0.72-18.78-3.46-27.71c-2.07-6.81-6.93-12.2-11.66-17.31c-3.49-3.82-8.19-6.3-13.13-7.69
		c-8.69-2.49-17.69-4.08-26.74-4.12c-5.68-0.06-11.38-0.24-16.99-1.23c-2.38-1.27-4.69-2.68-7.11-3.86
		c-2,20.88-3.22,41.83-5.77,62.65c-0.72,3.75-2.49,7.29-2.57,11.16c-0.12,7.56-1.11,15.06-1.3,22.62
		c-1.05,6.51-0.49,13.13-1.35,19.66c-0.64,5.52,0.01,11.17-1.34,16.61c-2.09,9.25-1.26,18.88-3.38,28.12
		c-1.78-0.66-5.07-1.02-4.49-3.69c0.72-7.04,1.61-14.07,2.04-21.14c1.07-5.72,1.91-11.48,2.38-17.28
		c0.67-14.89,2.1-29.72,2.51-44.62c0.82-7.24,2.71-14.31,3.36-21.58c1.28-12.38,3.36-24.68,3.81-37.14
		c0.26-6.56,2.13-12.85,3.31-19.25c-2.67-3.26-6.45-5.28-9.89-7.6c-5.11-3.2-9.99-6.79-15.24-9.76c-3.47-2.05-7.63-0.42-11.37-1.34
		c-1.93-2.57-2.31-6.29-5.12-8.16c-5.95-3.98-12.72-6.49-18.87-10.13c-2.75-1.55-5-4.8-4.01-8.04c1.26-3.21,4.75-4.46,7.63-5.76
		c5.33-2.1,10.36-4.86,15.31-7.73c6.11-3.52,12.9-5.58,19.15-8.83c5.36-2.6,10.42-5.81,15.99-7.99c2.57-1.1,5.27-1.94,7.72-3.32
		c2.12-1.89,2.83-5.05,5.33-6.59c3.3-2.04,6.79-3.76,10.32-5.36c-0.45-1.67-0.76-3.41-1.55-4.96c-1.92-1.82-4.46-2.74-6.78-3.92
		C133.778,21.235,132.858,14.805,135.998,9.475 M210.328,41.605c-1.2-0.07-1.96-1.4-3.22-1.17c-0.24,1.09-0.49,2.19-0.75,3.28
		c-1,0.11-1.99,0.21-2.99,0.31c-0.62,0.79-1.24,1.58-1.86,2.37c-1.29-1.44-2.58-2.88-3.89-4.3c0.43,2.64,0.95,5.26,1.47,7.89
		c-1.51-0.55-3.01-1.11-4.52-1.64c0.72,2.45,2.66,4.92,1.89,7.56c-0.5,2.07-3.02,2.2-4.58,3.11c2.8,3.62,4.04,8.08,5.94,12.19
		c-1.11,2.05-2.6,4.31-0.89,6.48c0.37-0.83,1.1-2.51,1.47-3.34c0.51-0.09,1.54-0.28,2.05-0.37c0.03,1.39,0.06,2.78,0.1,4.17
		c1.97-0.67,3.95-1.32,5.93-1.94c-0.63,1.23-1.26,2.46-1.9,3.68c2.73-0.89,5.6-1.15,8.46-1.03c0.08,2.6,0.42,5.18,1.01,7.7
		c0.72-2.68,1.39-5.38,2.1-8.07c1.52,0.55,3.05,1.1,4.57,1.66c1.99-6.18,3.16-12.61,5.93-18.53c-1.6-1.41-3.68-2.5-4.63-4.47
		c0.68-2.01,1.82-3.83,2.5-5.84c-0.8-2.65-2.72-4.84-3.55-7.5c-2.59-0.19-5.18-0.4-7.76-0.67c-0.25-1.23-0.5-2.46-0.75-3.69
		C211.728,40.155,210.998,40.845,210.328,41.605 M137.968,40.245c-1.67,0.44-0.78,3.05,0.81,2.36
		C140.458,42.185,139.548,39.545,137.968,40.245 M130.918,44.495c-0.52,1.63,0.03,2.18,1.66,1.66
		C133.098,44.535,132.548,43.975,130.918,44.495 M166.498,45.985c0.4,1.3,0.07,3.29,1.78,3.7c2.75,0.98,5.32,2.39,6.76,5.04
		c1.1-0.03,2.21-0.07,3.33-0.1c0.63,1.68,1.27,6.38,3.78,4.1c0.85-1.31,1.16-3.38-0.39-4.31
		C177.418,50.465,171.858,48.205,166.498,45.985 M163.948,47.635c-1.47-0.01-1.46,2.43,0.02,2.39
		C165.428,50.055,165.408,47.585,163.948,47.635 M133.928,49.495c-0.53,1.63,0.03,2.18,1.66,1.67
		C136.108,49.535,135.548,48.975,133.928,49.495 M190.068,49.625c-1.3,0.94,0.26,3.2,1.57,2.17
		C192.928,50.845,191.388,48.575,190.068,49.625 M111.698,61.315c-11.79,5.4-22.33,13.03-33.62,19.32c-1.38,0.94-3.4,1.64-3.49,3.59
		c2.92,2.24,6.4,3.66,9.17,6.13c2.67,1.95,5.29,4.67,8.76,4.92c2.91-1.08,4.85-3.64,6.48-6.15c-3.16-1.21-6.37-0.18-9.3,1.11
		c-2.51-1.57-4.93-3.27-7.23-5.12c6.95-1.09,14.14,0.37,19.72,4.78c-1.28,1.91-2.54,3.84-3.8,5.77c-1.14,0.35-2.68,0.09-3.51,1.07
		c-0.99,2.63,3.04,2.12,4.66,2.45c1.29,1.03,2.57,2.07,3.86,3.11c0.23-1.08,0.46-2.16,0.69-3.25c0.91-0.13,1.82-0.26,2.72-0.4
		c1.25-2.12,2.79-4.06,4.74-5.58c0.39,0.21,1.18,0.63,1.57,0.84c-1.81,4.17-1.74,9.35,0.88,13.14c3.35,3.45,7.77,5.6,11.88,8
		c1.38-12.76,3.64-25.41,5.87-38.05c0.82-4.7,1.76-9.47,4.12-13.67c1.55-2.68,2.43-5.67,2.51-8.77c-1.82-0.19-3.64-0.43-5.47-0.55
		c-0.76-0.75-1.53-1.51-2.3-2.26C123.988,54.295,117.698,57.535,111.698,61.315 M165.028,50.845c0.49,2.58,1.15,5.15,1.31,7.78
		c0.12,2.47-0.73,4.91-0.36,7.36c0.4,1.38,0.5,3.63,2.51,3.22c2.11-4.56,0.84-9.71,2.02-14.49
		C168.858,53.195,166.898,52.065,165.028,50.845 M192.278,53.435c-1.03,1.3,1.22,2.87,2.17,1.57
		C195.498,53.695,193.228,52.135,192.278,53.435 M224.478,54.295c-0.13,0.47-0.37,1.41-0.49,1.87c1.26,1.16,2.52,2.32,3.79,3.48
		c0.38-1.33,0.75-2.66,1.13-4C227.418,55.205,225.948,54.755,224.478,54.295 M261.708,57.425c-0.62,2.65,2.47,2.75,4.21,3.29
		c-0.14-1.95-0.19-3.93-0.62-5.85C263.518,53.445,262.308,56.065,261.708,57.425 M230.798,56.305c-0.78,1.98-1.55,3.97-2.31,5.97
		c2.07-1.04,4.14-2.08,6.21-3.11c0.01-0.71,0.04-2.13,0.05-2.84C233.428,56.315,232.118,56.305,230.798,56.305 M246.878,59.735
		c-0.45,1.41,0.03,1.89,1.44,1.46C248.758,59.795,248.278,59.305,246.878,59.735 M265.918,62.495c-0.52,1.62,0.03,2.18,1.66,1.66
		C268.098,62.525,267.538,61.965,265.918,62.495 M273.638,63.915c-0.84,2.79-1.23,5.68-1.87,8.51c1.18-0.17,2.36-0.34,3.55-0.52
		c0.44-2.68,1.4-5.41,0.9-8.15C275.288,63.155,274.428,63.205,273.638,63.915 M278.098,69.765c-1.33,1.23,0.78,3.38,2.01,2.02
		C281.438,70.565,279.318,68.455,278.098,69.765 M249.888,70.465c-1.51,0.38-0.68,2.7,0.73,2.14
		C252.128,72.245,251.268,69.915,249.888,70.465 M277.048,72.805c-1.14,0.86,0.29,2.85,1.45,1.98
		C279.618,73.925,278.208,71.945,277.048,72.805 M255.608,73.065c0.31,2.1,0.7,4.19,1.1,6.27c0.87-0.04,2.62-0.11,3.5-0.15
		C259.528,76.575,257.778,74.565,255.608,73.065 M246.458,80.675c2.21,0.43,4.45,0.23,6.62-0.34c-0.6-1.79-0.04-4.59-2.33-5.22
		C248.888,76.595,247.698,78.695,246.458,80.675 M273.518,77.505c-0.42,1.42,1.98,1.86,2.47,0.64
		C276.398,76.725,273.988,76.285,273.518,77.505 M267.888,78.275c-0.21,0.29-0.63,0.86-0.84,1.15
		C267.868,82.545,271.228,77.705,267.888,78.275 M284.278,86.125c2.2,0.52,4.41,0.98,6.64,1.4c-0.44-1.88-0.9-3.75-1.37-5.62
		C287.108,82.355,285.328,83.925,284.278,86.125 M171.338,86.735c3.2,1.53,6.59,2.98,10.18,3.17c2.08-0.34,4.01-3.06,2.76-5
		C179.898,84.435,175.558,85.695,171.338,86.735 M245.358,84.435c0.86,2.18,2.1,4.22,4.17,5.45c0.12-1.86,0.2-3.72,0.28-5.58
		C248.328,84.335,246.838,84.385,245.358,84.435 M296.248,84.825c-0.16,0.63-0.49,1.87-0.65,2.5c0.78-0.01,2.35-0.02,3.13-0.02
		c0-0.78,0.02-2.35,0.02-3.13C298.128,84.335,296.878,84.665,296.248,84.825 M226.668,92.335c-0.5,1.14-0.69,2.39-0.96,3.59
		c3.38-0.17,6.74-0.49,10.12-0.79c-0.63-1.33-1.27-2.66-1.9-3.99c0.17-0.52,0.51-1.57,0.68-2.09c1.5,2.18,2.98,4.37,4.5,6.54
		c2.49-1.36,4.88-2.91,7.22-4.51c-1-1.3-1.98-2.6-2.94-3.92C237.438,87.195,231.418,88.605,226.668,92.335 M193.308,95.575
		c2.26-0.23,4.23-1.31,5.82-2.89c-0.67-0.46-2.03-1.38-2.7-1.85C195.308,92.365,194.258,93.935,193.308,95.575 M218.048,94.515
		c-1.11,1.37,1.28,2.8,2.15,1.4C221.298,94.555,218.908,93.145,218.048,94.515 M273.038,95.415
		C273.168,98.745,276.018,93.875,273.038,95.415 M207.908,97.615c-1.61-0.06-1.79,2.68-0.11,2.67
		C209.398,100.345,209.578,97.595,207.908,97.615 M233.038,98.855c-0.02,2.7,0.04,5.4,0.24,8.09c2.28-2.34,2.45-5.66,2.7-8.72
		C235.248,98.385,233.778,98.695,233.038,98.855 M238.838,98.605C237.288,101.575,242.178,98.765,238.838,98.605 M253.938,98.635
		c-1.46,0.99,0.16,3.56,1.63,2.38C257.018,100.025,255.408,97.455,253.938,98.635 M89.918,103.495c-0.53,1.62,0.03,2.18,1.66,1.66
		C92.098,103.525,91.538,102.975,89.918,103.495 M331.848,138.565c-1.76,0.36-1.2,3.34,0.62,2.71
		C334.218,140.905,333.638,137.965,331.848,138.565 M326.848,144.225c-0.02,1.57-0.03,3.14-0.04,4.71c1.09-1.17,2.25-2.3,3.36-3.46
		C329.058,145.055,327.948,144.635,326.848,144.225 M332.158,148.565c-1.46,1.3,0.81,3.61,2.13,2.16
		C335.788,149.405,333.488,147.105,332.158,148.565 M280.938,175.635c-1.47,0.99,0.15,3.56,1.62,2.38
		C284.018,177.025,282.398,174.455,280.938,175.635 M272.928,179.545c-1.81,0.42-0.83,3.24,0.84,2.76
		C275.568,181.895,274.588,179.045,272.928,179.545 M211.928,246.495c-0.54,1.62,0.02,2.18,1.65,1.67
		C214.098,246.535,213.548,245.975,211.928,246.495 M218.918,256.495c-0.52,1.62,0.03,2.18,1.66,1.66
		C221.098,256.525,220.538,255.965,218.918,256.495 M217.908,262.815c-0.84,1.93-2.09,3.92-1.51,6.12
		c0.69,3.64,0.42,7.34,0.67,11.01c0.68,1.84,2.91,2.02,4.44,2.81c-0.29-5.84-0.3-11.73,1.22-17.41
		C221.128,264.465,219.518,263.635,217.908,262.815 M190.058,272.695c-0.79,3.95-0.31,8.01-0.18,12c2.24-0.51,5.03-0.77,6.07-3.18
		c1.78-4.24,1.74-8.96,1.84-13.47C195.078,269.285,191.808,270.085,190.058,272.695 M223.628,269.315c0.24,3.15,0.61,6.3,1.19,9.42
		c1.31-0.5,2.9-0.63,3.89-1.76c0.11-2.67-0.96-5.18-1.89-7.63C226.018,269.335,224.428,269.325,223.628,269.315 M229.748,284.875
		c1.73,7.28,1.56,15.58,7.2,21.26c0.7,0.05,2.1,0.16,2.81,0.22c-0.77-4.64-1.14-9.34-2.16-13.93
		C236.728,288.625,233.348,285.965,229.748,284.875 M185.198,288.465c-1.53,2.85-3.65,5.32-6.45,7c-3.45,2.14-3.44,6.7-4.15,10.25
		c6.67-0.63,12.06-5.16,16.18-10.11c-1.23-2.35-2.4-4.73-3.51-7.13C186.748,288.475,185.718,288.475,185.198,288.465
		 M206.918,293.495c-0.52,1.63,0.03,2.18,1.66,1.66C209.098,293.525,208.548,292.975,206.918,293.495 M217.708,297.635
		c0.87,1.66,1.74,3.32,2.62,4.98c-1.46,1.93-2.98,3.81-4.53,5.68c1.01,1.38,2.02,2.77,3.03,4.16c-1.56,1.59-3.27,3.07-4.55,4.91
		c0.74,1.66,1.81,3.17,2.5,4.86c-1,1.62-2.28,3.03-3.5,4.48c0.06,1.45,0.12,2.91,0.19,4.37c-0.91,1.15-1.81,2.3-2.71,3.46
		c0.47,1.74,0.95,3.49,1.42,5.24c-0.89,1.62-1.75,3.25-2.57,4.9c3.85,1.49,7.6,3.57,9.74,7.25c-1.96,0.23-3.92,0.45-5.87,0.68
		c0.44,0.88,0.9,1.77,1.35,2.66c9.18-1.65,18.67-0.36,27.75-2.77c-0.41-4.27-0.37-8.58-1.17-12.8c0.72-1.18,1.45-2.35,2.19-3.52
		c-1.13-2.3-2.27-4.58-3.45-6.85c2.9-5.92,3.75-13.07,0.71-19.11c-1.44-1.83-4.01-2.15-6.04-3.06c-0.26-0.23-0.78-0.68-1.05-0.91
		c-2.97-4.29-5.86-8.65-8.5-13.15C222.688,294.505,220.188,296.045,217.708,297.635 M143.618,296.325c0.15,0.63,0.47,1.87,0.63,2.5
		c0.62,0.15,1.87,0.47,2.49,0.63c0-0.77-0.02-2.32-0.02-3.09C145.938,296.355,144.388,296.335,143.618,296.325 M201.758,301.325
		c0.33,2.52,0.67,5.05,0.96,7.58c-1.99,0.88-3.98,1.74-5.97,2.62c0.27,2.2,0.54,4.4,0.81,6.61c-1.84,0.55-3.69,1.09-5.54,1.61
		c-0.19,2.27-0.37,4.55-0.56,6.83c-1.68,0.11-3.37,0.13-5,0.53c-0.81,1.71-1.23,3.58-1.69,5.41c-4.52,2.8-9.23,5.49-14.56,6.31
		c-0.75,4.71-2.72,9.27-6.76,12.07c-0.06-3.19-0.32-6.37-0.78-9.52c-0.6,0-1.8,0.02-2.4,0.02c-0.43,2.96-1.81,5.6-3.34,8.12
		c3.42,3.49,9.2,3.71,13.9,3.83c3.85-0.12,6.94,3.13,10.85,2.62c5.2-0.35,10.39,0.22,15.59,0.21c-1.05-2.03-3.52-1.83-5.43-2.27
		c1.82-2.92,3.94-5.74,7.02-7.43c3.05-1.61,4.73-4.67,6.49-7.48c-0.72-1.53-1.43-3.05-2.14-4.58c2.27-2.63,2.54-6.03,2.27-9.35
		c2.65-2.34,1.95-5.63,0.76-8.53c1.12-1.37,2.26-2.73,3.39-4.08c-0.59-1.36-1.18-2.72-1.76-4.08c0.69-2.15,3.16-5.01,0.74-6.9
		C206.858,299.305,203.968,301.065,201.758,301.325 M155.408,301.395c0.52,1.51,1.07,3,1.61,4.51c0.71-1.49,1.56-2.9,2.23-4.41
		C158.288,301.475,156.368,301.425,155.408,301.395 M173.118,307.575c-1.94,4.02-4.4,7.88-5.53,12.24c-0.37,3.98,1,7.87,1.56,11.78
		c3.35-0.45,6.45-1.84,9.37-3.49c0.07-1.87,0.15-3.74,0.25-5.6c1.57-0.84,3.14-1.66,4.71-2.5c0.03-1.88-0.07-3.77,0.31-5.62
		c1.58-0.71,3.26-1.14,4.92-1.64c-0.32-2.18-0.65-4.36-0.99-6.54c1.73-0.04,3.45-0.22,5.18-0.29c-0.44-1.67-0.91-3.33-1.35-4.99
		C185.438,303.295,179.948,307.455,173.118,307.575 M138.918,304.765c0.27,2.33,0.97,4.7,0.51,7.05c-1.37,1.12-2.93,1.98-4.44,2.91
		c0.2,2.03,0.42,4.07,0.61,6.11c-1.61,0.94-3.23,1.88-4.84,2.83c0.47,1.27,0.94,2.55,1.43,3.83c-1.72,2-3.4,4.03-5.02,6.11
		c3.59,3.13,8.43,0.37,12.47-0.21c-0.18-1.85-0.63-3.71-0.37-5.57c0.99-1.46,2.33-2.64,3.56-3.89c-0.64-1.87-1.31-3.71-1.98-5.56
		c1.29-1.06,2.59-2.11,3.89-3.16c-0.39-1.93-0.79-3.86-1.19-5.78c1.18-1.13,2.36-2.25,3.53-3.38c-0.81-1.28-1.62-2.56-2.44-3.84
		C142.728,303.065,140.828,303.925,138.918,304.765 M153.348,310.925c-0.36,1.23-0.66,2.47-0.91,3.73c1.25-0.25,2.47-0.58,3.68-0.97
		c0.39-1.21,0.71-2.43,0.96-3.67C155.818,310.255,154.578,310.555,153.348,310.925 M150.968,319.245c-1.68,0.44-0.78,3.05,0.81,2.36
		C153.458,321.185,152.538,318.535,150.968,319.245 M147.848,328.565c-1.76,0.36-1.21,3.34,0.61,2.7
		C150.208,330.905,149.648,327.955,147.848,328.565 M256.918,328.495c-0.52,1.62,0.03,2.17,1.66,1.65
		C259.098,328.515,258.538,327.965,256.918,328.495 M253.468,338.375c3.11,0.35,6.22,0.73,9.27,1.46c0.47-1.82,0.96-3.65,1.44-5.47
		c-0.89-1.02-1.78-2.03-2.66-3.05C258.328,333.045,255.358,335.205,253.468,338.375 M161.538,335.295c0.89,1.25,1.73,2.55,2.77,3.69
		c1.46,0.67,3.11-0.21,4.64-0.3c-0.48-1.11-0.96-2.22-1.43-3.33C165.528,335.325,163.528,335.305,161.538,335.295 M208.028,350.775
		c-0.82,1.73,0.45,3.46,0.89,5.11c1.74-2.71,2.24-5.93,2.53-9.07C210.218,348.045,208.878,349.225,208.028,350.775 M261.088,347.815
		c-1.24,0.35-1.76,2.28-0.82,3.19C262.138,351.935,263.088,347.975,261.088,347.815 M196.698,349.015c1.72,2.45,3.23,5.04,4.6,7.7
		c1.38-1.09,2.71-2.25,4.07-3.36c-2.1-1.96-4.37-3.72-6.72-5.36C198.158,348.255,197.188,348.755,196.698,349.015z"/>
	<path d="M188.628,38.585c0.52-0.35,1.55-1.04,2.07-1.38c0.25,0.51,0.74,1.53,0.99,2.03c-0.29,0.63-0.87,1.88-1.16,2.5
		C189.878,40.685,189.248,39.635,188.628,38.585z"/>
	<path d="M103.928,90.845c2.06,0.31,3.93,1.06,4.37,3.32c-0.91,0.1-2.74,0.31-3.66,0.41
		C104.398,93.335,104.158,92.085,103.928,90.845z"/>
	<path d="M286.628,161.615c0.99-0.04,1.99-0.07,2.98-0.09c-2.35,3.87-6.45,5.98-10.46,7.74
		C280.488,165.765,283.148,163.005,286.628,161.615z"/>
	<path d="M290.378,184.925c0.39-2.68,1.19-5.28,2.53-7.63c2.12,5.07,0.59,10.66-1.77,15.34c-1.54-2.91-2.82-5.94-3.83-9.07
		C288.328,184.005,289.348,184.465,290.378,184.925z"/>
	<path fill="#7F8181" d="M137.968,40.245c1.58-0.7,2.49,1.94,0.81,2.36C137.188,43.295,136.298,40.685,137.968,40.245z"/>
	<path fill="#7F8181" d="M130.918,44.495c1.63-0.52,2.18,0.04,1.66,1.66C130.948,46.675,130.398,46.125,130.918,44.495z"/>
	<path fill="#7F8181" d="M133.928,49.495c1.62-0.52,2.18,0.04,1.66,1.67C133.958,51.675,133.398,51.125,133.928,49.495z"/>
	<path fill="#7F8181" d="M230.798,56.305c1.32,0,2.63,0.01,3.95,0.02c-0.01,0.71-0.04,2.13-0.05,2.84
		c-2.07,1.03-4.14,2.07-6.21,3.11C229.248,60.275,230.018,58.285,230.798,56.305z"/>
	<path fill="#7F8181" d="M255.608,73.065c2.17,1.5,3.92,3.51,4.6,6.12c-0.88,0.04-2.63,0.11-3.5,0.15
		C256.308,77.255,255.918,75.165,255.608,73.065z"/>
	<path fill="#7F8181" d="M246.458,80.675c1.24-1.98,2.43-4.08,4.29-5.56c2.29,0.63,1.73,3.43,2.33,5.22
		C250.908,80.905,248.668,81.105,246.458,80.675z"/>
	<path fill="#7F8181" d="M284.278,86.125c1.05-2.2,2.83-3.77,5.27-4.22c0.47,1.87,0.93,3.74,1.37,5.62
		C288.688,87.105,286.478,86.645,284.278,86.125z"/>
	<path fill="#7F8181" d="M245.358,84.435c1.48-0.05,2.97-0.1,4.45-0.13c-0.08,1.86-0.16,3.72-0.28,5.58
		C247.458,88.655,246.218,86.615,245.358,84.435z"/>
	<path fill="#7F8181" d="M296.248,84.825c0.63-0.16,1.88-0.49,2.5-0.65c0,0.78-0.02,2.35-0.02,3.13c-0.78,0-2.35,0.01-3.13,0.02
		C295.758,86.695,296.088,85.455,296.248,84.825z"/>
	<path fill="#7F8181" d="M273.038,95.415C276.018,93.875,273.168,98.745,273.038,95.415z"/>
	<path fill="#7F8181" d="M211.928,246.495c1.62-0.52,2.17,0.04,1.65,1.67C211.948,248.675,211.388,248.115,211.928,246.495z"/>
	<path fill="#7F8181" d="M153.638,253.535c1.48-1.83,3.39-3.23,5.28-4.6c-1.04,2.71-2.25,5.35-3.63,7.91
		C154.698,255.755,154.028,254.705,153.638,253.535z"/>
	<path fill="#7F8181" d="M217.908,262.815c1.61,0.82,3.22,1.65,4.82,2.53c-1.52,5.68-1.51,11.57-1.22,17.41
		c-1.53-0.79-3.76-0.97-4.44-2.81c-0.25-3.67,0.02-7.37-0.67-11.01C215.818,266.735,217.068,264.745,217.908,262.815
		 M219.058,265.995c-0.75,0.95-0.93,2.54-0.1,3.5C220.868,270.045,221.148,264.915,219.058,265.995z"/>
	<path fill="#7F8181" d="M190.058,272.695c1.75-2.61,5.02-3.41,7.73-4.65c-0.1,4.51-0.06,9.23-1.84,13.47
		c-1.04,2.41-3.83,2.67-6.07,3.18C189.748,280.705,189.268,276.645,190.058,272.695 M194.848,271.485c-1.32,0.69-1.32,1.36,0,2.02
		C196.158,272.805,196.158,272.135,194.848,271.485 M192.878,278.875c-1.19,0.81,0.14,2.9,1.34,1.93
		C195.418,279.995,194.058,277.925,192.878,278.875z"/>
	<path fill="#7F8181" d="M185.198,288.465c0.52,0.01,1.55,0.01,2.07,0.01c1.11,2.4,2.28,4.78,3.51,7.13
		c-4.12,4.95-9.51,9.48-16.18,10.11c0.71-3.55,0.7-8.11,4.15-10.25C181.548,293.785,183.668,291.315,185.198,288.465z"/>
	<path fill="#7F8181" d="M206.918,293.495c1.63-0.52,2.18,0.03,1.66,1.66C206.948,295.675,206.398,295.125,206.918,293.495z"/>
	<path fill="#7F8181" d="M143.618,296.325c0.77,0.01,2.32,0.03,3.1,0.04c0,0.77,0.02,2.32,0.02,3.09c-0.62-0.16-1.87-0.48-2.49-0.63
		C144.088,298.195,143.768,296.955,143.618,296.325z"/>
	<path fill="#7F8181" d="M155.408,301.395c0.96,0.03,2.88,0.08,3.84,0.1c-0.67,1.51-1.52,2.92-2.23,4.41
		C156.478,304.395,155.928,302.905,155.408,301.395z"/>
	<path fill="#7F8181" d="M208.028,350.775c0.85-1.55,2.19-2.73,3.42-3.96c-0.29,3.14-0.79,6.36-2.53,9.07
		C208.478,354.235,207.208,352.505,208.028,350.775z"/>
</g>
</svg>
