<?xml version="1.0" encoding="utf-8"?>
<!-- Generator: Adobe Illustrator 17.0.0, SVG Export Plug-In . SVG Version: 6.00 Build 0)  -->
<!DOCTYPE svg PUBLIC "-//W3C//DTD SVG 1.1//EN" "http://www.w3.org/Graphics/SVG/1.1/DTD/svg11.dtd">
<svg version="1.1" id="Layer_1" xmlns="http://www.w3.org/2000/svg" xmlns:xlink="http://www.w3.org/1999/xlink" x="0px" y="0px"
	 width="401px" height="382px" viewBox="0 0 401 382" enable-background="new 0 0 401 382" xml:space="preserve">
<g>
	<path fill="#010101" d="M157.15,76.31c4.52-0.06,9.06-0.1,13.55-0.71c2.69-0.18,5.46-0.48,8.1,0.2c5.8,4.56,9.63,14.12,4.5,20.5
		c-3.2,4.36-7.42,9.18-13.26,9.29c-5.57-0.87-10.77-4.08-14.01-8.72c-0.43-1.67-0.77-3.36-1.1-5.05c3.15,2.33,5.1,5.85,8.09,8.32
		c3.93,2.29,9.52,3.42,13.25,0.11c3.67-3.01,7.72-7.43,6.41-12.59c-0.86-4.19-3.29-9.09-8.03-9.68c-5.24-0.65-10.82-0.15-15.69,1.94
		c-1.68,3.29-2.61,6.91-4.35,10.18C153.13,85.28,154.88,80.53,157.15,76.31z"/>
	<path fill="#010101" d="M37.44,96.4c0.99-0.91,1.97-1.82,2.94-2.75c0.11,0.38,0.33,1.14,0.43,1.52c0.07,0.68,0.2,2.06,0.26,2.74
		C39.86,97.41,38.65,96.91,37.44,96.4z"/>
	<path fill="#010101" d="M61,102.69c1.67-0.26,3.33-0.53,5.01-0.73c3.69,0.81,7.46,1.28,11.14,2.16c-4.25,2.59-9.27,2.42-14.05,2.41
		C62.36,105.27,61.68,103.98,61,102.69z"/>
	<path fill="#010101" d="M315.91,107.23c5.86-1.37,11.73-3.96,17.87-2.91c3.87,0.93,5.96,4.96,9.7,6.16
		c3.53,1.32,7.91,1.38,10.49,4.49c2.61,3.41,4.06,7.72,4.17,12c0.12,1.93-1.04,3.58-2.42,4.8c-1.55-0.6-2.84-1.69-4.15-2.68
		c1.47-1.08,2.95-2.15,4.44-3.22c-1.28-3.41-2.19-7.37-5.26-9.66c-3.09-2.02-6.83-2.54-10.34-3.41c-1.51-0.33-3.02-0.66-4.52-0.99
		l-0.05,0.96c-0.23,1.75-0.51,3.49-0.79,5.24c-1.59-2.03-3.19-4.05-4.8-6.05c0.78-1.42,1.44-2.9,2.12-4.38
		c-1.77,0.57-3.52,1.18-5.27,1.79c-2.03-0.79-4.28-2.33-6.34-0.76c-4.69,2.63-9.97,6.5-10.22,12.39c-0.45,4.39,2.71,8.41,1.61,12.81
		c-2.35-3.49-4.34-7.47-3.97-11.81C308.08,116.09,312.2,111.38,315.91,107.23z"/>
	<path fill="#010101" d="M269.6,106.02c0.57-0.03,1.7-0.08,2.27-0.11c1.43,1.09,2.97,2.23,3.77,3.9c-0.66,1.27-1.52,2.42-2.27,3.64
		C272.04,111,270.8,108.52,269.6,106.02z"/>
	<path fill="#010101" d="M100.83,114.45c1.25-0.74,2.53-1.43,3.8-2.12c3.31,3.88,7.5,6.93,10.51,11.07
		c-2.76-1.77-5.89-0.83-8.87-0.52C105,119.73,103.7,116.5,100.83,114.45z"/>
	<path fill="#010101" d="M27.61,121.43c4.16-2.77,8.1-6.65,13.36-7.02c3.58-0.22,7.19-0.11,10.78,0.02
		c4.73,0.02,8.26,3.65,12.07,5.96c-0.22,0.6-0.65,1.79-0.86,2.39c-1.53-1.04-3.03-2.12-4.52-3.2c-0.8-0.15-1.6-0.29-2.39-0.43
		c-5.01-4.06-11.84-3.17-17.64-1.7c-4.4,1.31-7.15,5.26-10.17,8.44c-0.38-0.45-1.14-1.34-1.52-1.78
		C27.04,123.22,27.34,122.33,27.61,121.43z"/>
	<path fill="#010101" d="M15.64,118.78c2.67,1.54,5.39,2.99,8.22,4.21c-0.36,1.48-0.73,2.97-1.18,4.43
		c-2.13-1.34-4.26-2.67-6.42-3.96c-1.09,3.26-2.1,6.55-3.1,9.84c-0.69,0.93-0.19,3.15,1.3,2.29c0.91-0.78,1.24-1.77,1-2.97
		c1.84-1.06,3.6-2.26,5.38-3.42c0.07,0.5,0.21,1.51,0.28,2.02c-0.2,0.39-0.6,1.18-0.8,1.57c-1.49,2-3.02,4.04-5.02,5.57
		c-1.88,0.38-3.8,0.14-5.7,0.09C8.35,131.22,13.4,125.24,15.64,118.78z"/>
	<path fill="#010101" d="M337.71,141.23c2.72-4.02,5.21-8.3,5.52-13.28c0.54,2.01,1.14,4.02,1.64,6.05
		c0.22,1.43,0.49,2.88,0.45,4.34C342.94,139.68,340.27,140.34,337.71,141.23z"/>
	<path fill="#010101" d="M312.96,135.22c2.36,0.84,4.73,1.68,7.05,2.65c0.19,0.3,0.56,0.91,0.74,1.22c0.8,1.32,1.62,2.63,2.5,3.91
		c-0.44,1.32-0.87,2.63-1.3,3.95c-0.73-0.68-1.44-1.37-2.15-2.06C317.15,141.95,314.85,138.7,312.96,135.22z"/>
	<path fill="#010101" d="M115.61,144.5c-0.74-3.28,4.16-3.26,6.38-3.25C121.33,144.34,118.5,145.74,115.61,144.5z"/>
	<path fill="#010101" d="M165.6,146.57c2-0.28,4-0.56,6.02-0.62c-0.09,0.91-0.18,1.83-0.28,2.74c-1.04,0.19-2.08,0.38-3.12,0.56
		C167.34,148.37,166.46,147.47,165.6,146.57z"/>
	<path fill="#010101" d="M172.18,150.27c1.08,0.13,2.16,0.26,3.24,0.39c0.03,0.9,0.06,1.8,0.1,2.7c-0.65,0.23-1.95,0.7-2.6,0.93
		c-0.23-0.32-0.7-0.97-0.93-1.29C172.04,152.32,172.13,150.95,172.18,150.27z"/>
	<path fill="#010101" d="M21.28,160.19c0.99-3.35,3.4-6.04,5.49-8.75c0.55,0.87,1.1,1.73,1.65,2.61c-1.59,2.22-3.56,4.33-4.3,7.03
		c0.32,5.17,4.58,8.95,5.86,13.84c0.58,3.21-0.2,6.49,0.21,9.72c1.12,2.38,3.47,3.89,5.27,5.74c-1.16-0.12-2.33-0.25-3.48-0.39
		c-2.28-1.53-4.51-3.13-6.67-4.82c1.12-2.33,2.47-4.62,2.97-7.18C26.61,171.84,21.68,166.74,21.28,160.19z"/>
	<path fill="#010101" d="M102.72,152.38c3.45,0.02,6.9,0.27,10.35,0.1c-0.05,0.6-0.14,1.8-0.18,2.4
		C109.33,154.91,105.55,154.87,102.72,152.38z"/>
	<path fill="#010101" d="M203.74,152.89c0.58-0.3,1.75-0.91,2.33-1.21c1.15,0.61,2.28,1.26,3.3,2.08c-1.95,0.56-3.92,1.05-5.89,1.57
		C203.55,154.72,203.67,153.5,203.74,152.89z"/>
	<path fill="#010101" d="M62.59,173.36c0.5-5.24-1.38-10.66,0.74-15.71c2.29,10.6,2.72,21.75-0.66,32.17
		C60.29,184.55,62.3,178.83,62.59,173.36z"/>
	<path fill="#010101" d="M143.17,161.01c0.91-0.52,1.83-1.02,2.75-1.53c0.04,3.24,0.18,6.48,0.36,9.72
		c-1.1,0.73-2.24,1.41-3.34,2.15C143.67,167.95,143.53,164.44,143.17,161.01z"/>
	<path fill="#010101" d="M87.01,164.27c1.08-1.32,2.2-2.6,3.31-3.89c1.36,3.01-0.28,5.5-2.81,7.1
		C87.39,166.68,87.14,165.07,87.01,164.27z"/>
	<path fill="#010101" d="M156.1,190.12c6.64-6.38,8.4-15.72,12.37-23.69c1.02,10.57-5.35,20.33-12.68,27.4
		c-3.01,3.2-7.67,3.46-11.33,5.54c-1.88,1.98-2.76,4.66-3.81,7.12c-0.47-1.6-1.06-3.15-1.63-4.71c1.55-2.24,2.97-4.94,5.73-5.85
		C148.7,194.39,153.19,193.5,156.1,190.12z"/>
	<path fill="#010101" d="M138.28,171.76c0.25-0.06,0.75-0.2,1-0.26c0.33,0.66,0.98,2,1.31,2.66c-2.01,3.08-5.13,5.01-8.53,6.22
		c-0.59-0.37-1.78-1.12-2.38-1.49C133.03,177.16,136.06,174.84,138.28,171.76z"/>
	<path fill="#010101" d="M201.79,174.18c0.86-0.1,2.57-0.29,3.42-0.39c2.44,1.15,5.12,2.07,7.06,4.02c1.51,2.02-0.29,4.35-1.07,6.28
		c-2.58-0.21-3.8,2.22-3.75,4.46l-0.37,0.25c-1.03,0.46-2.09,0.87-3.17,1.22c0.4-4.59,5.6-7.31,5.31-11.84
		C206.72,176.9,203.94,176.08,201.79,174.18z"/>
	<path fill="#010101" d="M92.69,176.47c0.61-0.07,1.83-0.2,2.44-0.27c-0.7,1.22-1.4,2.44-2.07,3.68c-1.39,2.11-0.43,4.69-0.24,7
		c0.09,2.01,0.08,4.03,0.08,6.04c-0.59-0.01-1.78-0.05-2.38-0.06c-0.09-2.05-0.21-4.1-0.36-6.15c-2.57-0.54-5.14-1.07-7.7-1.67
		c2.27-1.46,4.76-2.5,7.32-3.32C90.77,179.98,91.73,178.22,92.69,176.47z"/>
	<path fill="#010101" d="M218.55,177.6c2.94,0.79,5.96,1.28,9.02,1.31c-0.06,0.87-0.1,1.74-0.15,2.62
		c-1.66,0.77-3.27,1.65-4.88,2.53C220.84,182.16,219.3,180.07,218.55,177.6z"/>
	<path fill="#010101" d="M336.68,177.33c3.95-0.02,7.9,0.34,11.76,1.23c1.51,2.33,2.97,4.69,4.34,7.11
		c-0.97,0.88-1.94,1.75-2.9,2.62c-2.46-3.77-4.76-8.79-10.07-8.58c-1.17-0.15-2.34-0.29-3.51-0.4
		C336.4,178.81,336.59,177.82,336.68,177.33z"/>
	<path fill="#010101" d="M316.91,185.72c5.82,1.27,10-3.72,14.41-6.58c0.45,0.98,0.88,1.96,1.33,2.95c-2.9,1.47-6.08,2.83-8.07,5.53
		c-1.62,2.26-2.28,5.03-2.93,7.69c-0.55-0.74-1.08-1.48-1.61-2.21c0.22-1.18,0.46-2.34,0.69-3.51c-2.41-0.64-4.82-1.28-7.21-1.97
		c1.12-2.77,2.97-5.14,5.56-6.67C318.31,182.52,317.61,184.12,316.91,185.72z"/>
	<path fill="#010101" d="M120.77,183.06c0.41-1.13,0.83-2.26,1.24-3.39c2.28,0.66,4.55,1.37,6.8,2.11
		C126.34,183.17,123.54,183.54,120.77,183.06z"/>
	<path fill="#010101" d="M79.39,186.35c2.56,1.8,4.43,4.33,6.07,6.96c-1.38,0.8-2.82,1.5-4.26,2.19
		C79.12,192.89,79,189.53,79.39,186.35z"/>
	<path fill="#010101" d="M32.39,191.26c1.32,4.26,1.08,8.75,0.94,13.15c-0.44,0.06-1.32,0.19-1.76,0.25c-0.49-1.98-1-3.96-1.41-5.96
		C30.16,196.04,31.28,193.61,32.39,191.26z"/>
	<path fill="#010101" d="M197.37,192.47c1.81,0.53,3.62,1.07,5.44,1.61c1.52-0.78,3.04-1.57,4.56-2.35c0.12,1.6,0.19,3.21,0.25,4.82
		c-4.04,0.14-8.08-0.13-12.11,0.12c-0.34,0.02-1.02,0.06-1.35,0.07C195.24,195.33,196.31,193.9,197.37,192.47z"/>
	<path fill="#010101" d="M115.67,194.59c0.94-0.19,2.81-0.57,3.75-0.76c0.14,1.09,0.3,2.18,0.48,3.27
		c-0.13,1.58-0.38,3.15-0.64,4.72C117.94,199.47,116.75,197.06,115.67,194.59z"/>
	<path fill="#010101" d="M327.08,206.38c0.77-3.85,1.8-7.66,3.06-11.38C332.83,198.73,331.69,204.84,327.08,206.38z"/>
	<path fill="#010101" d="M14.52,201.22c3.97,0.88,7.84,2.17,11.66,3.57c1.22,0.78,2.4,1.61,3.59,2.44c-0.15,0.47-0.44,1.4-0.59,1.87
		c-0.96,0.31-1.92,0.62-2.88,0.94c-4.25-1.31-8.41-2.96-12.25-5.22C14.2,203.62,14.36,202.42,14.52,201.22z"/>
	<path fill="#010101" d="M97.49,206.43c-0.35-1.88-0.56-3.78-0.83-5.68c1.45,0.28,2.89,0.55,4.34,0.8
		C99.83,203.17,98.65,204.8,97.49,206.43z"/>
	<path fill="#010101" d="M156.51,209.69c4.29-2.05,6.85-7.57,12.05-7.49c-4.14,4.62-8.58,9.28-14.27,11.99
		c-1.56,0.78-3.08-0.54-4.55-0.93c-2.52-1.23-5.38-0.82-8.05-1.32c-1.44-0.55-0.88-2.31-1.07-3.49c2.77-0.05,5.58,0.03,8.23,0.95
		C151.32,210.09,154.15,211.54,156.51,209.69z"/>
	<path fill="#010101" d="M201.79,202.33c1.34,0.11,2.68,0.18,4.02,0.27c-0.05,0.57-0.15,1.7-0.21,2.26
		c-0.52,1.31-2.38,1.02-3.46,1.6C202.05,205.43,201.88,203.36,201.79,202.33z"/>
	<path fill="#010101" d="M201.86,208.37c1.29,0.13,2.58,0.26,3.88,0.39c0.6,2.01,1.44,3.95,1.84,6.01c-1.11,2.24-3.65,3.11-5.7,4.23
		l-0.81,0.39c1.13-2.27,2.51-4.4,4-6.44C204,211.41,202.93,209.89,201.86,208.37z"/>
	<path fill="#010101" d="M349.06,211.09c0.68,0.04,2.04,0.11,2.72,0.15c0.41,0.97,0.84,1.94,1.26,2.91c-1.3,0.34-2.61,0.67-3.91,1
		C349.1,213.79,349.08,212.44,349.06,211.09z"/>
	<path fill="#010101" d="M27.9,212.45c1.21-0.02,2.43-0.05,3.64-0.07c-1.46,3.74-2.51,7.63-3.14,11.59
		c-1.11-0.67-2.22-1.37-3.32-2.06C25.97,218.74,26.89,215.58,27.9,212.45z"/>
	<path fill="#010101" d="M65.72,218.62c1.83-1.25,3.9-2.39,6.06-1.21c0.03,0.75,0.1,2.25,0.13,3c-0.73,0.28-2.19,0.83-2.91,1.1
		C67.91,220.54,66.82,219.57,65.72,218.62z"/>
	<path fill="#010101" d="M95.97,218.29c0.55-0.37,1.65-1.09,2.2-1.45c0.33,1.7,0.63,3.4,0.91,5.11c-0.99-0.4-1.98-0.8-2.96-1.2
		C96.08,220.14,96.01,218.9,95.97,218.29z"/>
	<path fill="#010101" d="M85.69,226.39c1.46-1.62,3.05-3.13,4.68-4.58c-0.6,2.26-1.23,4.53-2.27,6.64c-1.68,2.44-3.5,4.8-5.54,6.96
		C82.97,232.22,84.11,229.18,85.69,226.39z"/>
	<path fill="#010101" d="M34.83,228.13c1.15-1.53,2.48-2.9,3.8-4.28c0.63,0.13,1.89,0.38,2.52,0.51c0.39,1.7-0.51,4.35,1.62,5.06
		c0.86-1.05,1.64-2.16,2.39-3.28c1.12,0.13,2.23,0.27,3.35,0.41c-1.26,2.72-3.81,4.58-6.8,4.91c-2.37-0.53-4.44-1.9-6.63-2.89
		c0.72,1.76,1.46,3.53,2.21,5.29c-1.91,1.1-3.82,2.21-5.77,3.25c-0.84,0.43-1.68,0.86-2.53,1.3c-0.14,1.51-0.28,3.02-0.41,4.54
		c2.02-0.99,4.03-1.99,6.04-3c-1.25,1.67-2.51,3.35-3.63,5.11c-0.06,0.73-0.17,2.18-0.23,2.91c1.24,3.09,3.03,5.92,4.9,8.67
		c-1.77,1.88-3.57,3.73-5.23,5.72c0.03-2.37,0.35-4.75-0.04-7.1c-1.04-3.61-3.46-6.73-4.08-10.47c-0.3-3.39,0.03-6.79,0.06-10.18
		c1.67-0.4,3.38-0.68,4.98-1.32C32.72,231.72,33.67,229.85,34.83,228.13z"/>
	<path fill="#010101" d="M95.05,224.02c0.76,0.06,2.27,0.2,3.03,0.26c-1.45,2.84-3.27,5.56-6.25,6.96
		C92.72,228.75,93.83,226.35,95.05,224.02z"/>
	<path fill="#010101" d="M97.71,230.32c0.61-0.01,1.83-0.03,2.44-0.04c-0.95,2.59-2.16,5.07-3.39,7.55
		c-0.74-0.04-2.21-0.11-2.95-0.14C95.21,235.29,96.63,232.89,97.71,230.32z"/>
	<path fill="#010101" d="M111.9,236.56c0.97,0.02,1.95,0.04,2.93,0.06c-0.69,2.88-1.39,5.75-2.15,8.61
		c-1.93,5.39-1.23,11.13-0.45,16.66c0.46,5.55,0.58,11.17,0.05,16.71c-0.38,2.11-2.89,2.11-4.56,1.88
		c-0.21-6.2,3.08-12.13,1.16-18.33c-1.68,3.26-2.83,6.76-3.93,10.25c-0.63-0.73-1.89-2.2-2.52-2.94c2.58-5.99,4.26-12.35,5.06-18.82
		c-3.79,0.34-7.45-0.82-11.18-1.12c-2.46,1.29-4.57,3.15-6.68,4.93c-0.91,1.15-1.88,2.31-2.4,3.7c0.65,2.91,1.62,5.74,2.25,8.65
		c1.47-0.19,2.86-0.76,4.24-1.29c-0.64,2.48-2.81,5.19-0.98,7.65c1.26,2.38,4.36,2.19,6.64,2.75c0.39,1.21,0.78,2.42,1.16,3.64
		c-4.02,0.25-8.38,0.33-11.99-1.7c-0.49-2.66-0.44-5.41-1.26-8.02c-0.97-3.84-2.82-7.57-2.74-11.6c0.92-7.25,2.88-14.31,5.21-21.23
		c1.09,1.11,2.18,2.21,3.28,3.32c-1.61,3.26-3.35,6.46-5.1,9.65c0.51,0.4,1.52,1.18,2.03,1.58c1.68-1.6,3.35-3.21,5.03-4.82
		c1.34,0.42,2.68,0.85,4.05,1.21c3.01,0.19,7.39,2.85,9.37-0.53C110.5,244.16,111.03,240.24,111.9,236.56z"/>
	<path fill="#010101" d="M218.28,246.13c-0.11-2.52,2.52-3.77,4.04-5.35c-0.59,2.13-1.36,4.24-1.6,6.45c1.2,2.73,4.63,4.84,3.37,8.2
		C221.61,252.8,217.69,250.28,218.28,246.13z"/>
	<path fill="#010101" d="M267.91,253.81c2.33-3.31,2.36-7.43,2.7-11.29c1.5,1.84,2.15,4.14,2.63,6.43c-1.5,0.54-1.94,2.51-1.16,3.8
		c-3.2,3.44-4.81,7.89-6.48,12.19C263.51,260.99,265.71,257.11,267.91,253.81z"/>
	<path fill="#010101" d="M78.85,244.73c1.86,0.18,3.72,0.38,5.57,0.62c-1.2,1.9-3.18,2.94-5.17,3.82
		C79.11,247.68,78.98,246.2,78.85,244.73z"/>
	<path fill="#010101" d="M320,254.65c0.19-0.43,0.56-1.29,0.75-1.73c0.7,4.25-0.2,8.47-0.59,12.69c2.55,1.52,5.36,2.5,8.07,3.69
		c-0.82,0.17-2.47,0.51-3.3,0.68c-2.62,0.02-5.34-0.34-7.47-2.01C317.77,263.44,318.76,259,320,254.65z"/>
	<path fill="#010101" d="M222.65,269.98c-0.02-4.19,0.29-8.38,1.06-12.49c3.54,4.06,1.65,9.49,1.45,14.27
		C224.32,271.18,223.48,270.58,222.65,269.98z"/>
	<path fill="#010101" d="M309.05,275.35c1.62-4.7,2.18-10.11,5.81-13.81c1.2,2.8,0.26,5.76-0.6,8.51c-0.55,1.67-1.05,3.36-1.54,5.06
		C311.5,275.2,310.27,275.3,309.05,275.35z"/>
	<path fill="#010101" d="M270.03,268.3c3.34-1.28,5.84-3.98,8.86-5.82c0.15,4.11-0.84,8.1-2.73,11.73
		c-0.53,1.28-1.01,2.58-1.49,3.88c-1.06-2.13-2.14-4.25-3.21-6.36c-3.04-0.91-6.1-1.75-9.22-2.35c0.2-0.97,0.39-1.94,0.59-2.91
		c1.06-0.03,2.12-0.06,3.19-0.09C267.3,267.12,268.62,267.83,270.03,268.3z"/>
	<path fill="#010101" d="M211.02,268.88c1.94-2.31,4.21-4.42,7.2-5.23c-0.53,4.72-3.53,8.64-7.1,11.56
		c-0.76-0.09-2.29-0.29-3.05-0.38C209.02,272.83,209.92,270.8,211.02,268.88z"/>
	<path fill="#010101" d="M71.91,264.25c1.96,1.05,3.81,2.34,5.25,4.05c0.59,1.91,1.59,3.92,1.1,5.95c-0.57,2.16-3.22,2.42-4.91,3.35
		c-0.46-0.07-1.37-0.2-1.82-0.27c1.16-2.18,3.78-4.4,2.4-7.08C73.29,268.24,72.53,266.27,71.91,264.25z"/>
	<path fill="#010101" d="M138.36,268.62c0.97-0.67,1.94-1.35,2.91-2.03c1.06,2.01,2.14,4.02,3.2,6.04c-0.58,0.43-1.73,1.29-2.3,1.72
		C140.88,272.44,139.61,270.53,138.36,268.62z"/>
	<path fill="#010101" d="M391.34,276.57c-0.06-3.46,0.44-6.9,1.57-10.16c0.82,4.42,0.96,8.93,0.97,13.43
		c-2.43,0.4-4.87,0.81-7.32,1.11c-0.04-1.9-0.07-3.81,0.17-5.69C388.26,275.7,389.8,276.13,391.34,276.57z"/>
	<path fill="#010101" d="M357.77,271.49c0.54-0.36,1.61-1.09,2.14-1.45c1.38,3.88,4.5,6.52,8.53,7.36
		c-2.79,1.68-5.76,3.05-8.78,4.25c-1.11,0.17-2.22,0.34-3.33,0.47c1.8-2.72,3.58-5.87,2.52-9.24
		C358.58,272.53,358.04,271.84,357.77,271.49z"/>
	<path fill="#010101" d="M298.22,275.64c2.65-1.37,5.52-1.21,8.29-0.36C303.92,276.91,300.98,276.52,298.22,275.64z"/>
	<path fill="#010101" d="M278.27,276.12c6.13,0.17,12.28,0.2,18.41-0.2c2.28,2.79,4.88,5.32,7.91,7.28
		c-4.4,0.79-8.76,1.83-13.23,2.14c-4.97,0.48-9.95-0.39-14.92,0.01c-5.75,0.31-11.44,1.57-17.22,1.2
		c-6.72-0.57-13.45,0.16-20.15,0.64c6.94-4.41,15.26-1.84,22.9-3c8.88-1.07,17.79-2.28,26.76-1.81c2.13,0.01,4.25-0.04,6.38-0.1
		c0.08-0.87,0.22-2.61,0.3-3.48c-2.21,0.01-4.42,0.03-6.62,0.03C285.13,278.83,281.05,278.94,278.27,276.12z"/>
	<path fill="#010101" d="M32.68,281.87c0.25-0.34,0.75-1.01,1-1.35c0.26,1.72,0.52,3.45,0.79,5.18c2.83-0.7,5.61-1.6,8.34-2.6
		c0.2,1.12,0.39,2.25,0.59,3.38c-0.83,0.87-1.65,1.74-2.46,2.62c-8.84,0.68-17.71,0.35-26.56,0.68c1.15-1.95,2.04-4.16,3.9-5.56
		c1.56,1.55,2.89,4.38,5.56,3.68C27.72,287.71,30.67,284.96,32.68,281.87z"/>
	<path fill="#010101" d="M207.12,287.84c8.17-2.84,16.94-3.39,25.53-3.36c-0.16,0.71-0.48,2.14-0.64,2.86
		C223.65,286.17,215.39,289.94,207.12,287.84z"/>
	<path fill="#010101" d="M50.14,294.89c4.28-0.78,8.78-0.71,12.75,1.27c0.78,0.62,1.55,1.27,2.31,1.94
		c-7.8-0.17-15.71-0.87-23.37,1.08c-0.42,0.04-1.27,0.13-1.7,0.17c-3.32,0.02-6.63-0.25-9.94-0.51c0.02-0.57,0.04-1.7,0.06-2.27
		C36.92,296.61,43.58,296.14,50.14,294.89z"/>
	<path fill="#7F1C19" d="M241.08,104.54c1.98,1.31,3.79,2.93,4.53,5.27c-1.42-0.12-2.84-0.25-4.25-0.4
		c0.71,1.87,1.39,3.75,2.08,5.63c-0.9,0.06-2.69,0.18-3.58,0.25c-0.74-1.44-1.55-2.86-2.08-4.38
		C237.78,108.4,239.83,106.54,241.08,104.54z"/>
	<path fill="#7F1C19" d="M27.4,108.09c1.88-0.63,2.73,2.54,0.78,2.93C26.31,111.58,25.45,108.5,27.4,108.09z"/>
	<path fill="#7F1C19" d="M162.47,119.52c4-2.38,7.68-5.21,11.4-7.99c6.05,2.8,12.66,3.54,19.22,4.09c1.34,5.29,1.39,11.3,5.15,15.62
		c1.33,1.01,2.69,1.98,4.05,2.96c-1.33,2.51-3.11,4.92-3.51,7.8c1.24,2.47,3.24,4.48,4.47,6.98c-0.74,1.18-1.71,2.94-3.34,2.74
		c-4.14-0.42-8.11-1.84-12.26-2.16c-1.6-0.09-3.19-0.1-4.79-0.11c-0.08,0.55-0.25,1.65-0.33,2.21c-0.21,1.23-0.43,2.47-0.65,3.71
		c-2.44,0.35-4.89,0.68-7.25,1.43c-0.55-0.86-1.12-1.69-1.71-2.51c0.65-0.23,1.95-0.7,2.6-0.93c-0.04-0.9-0.07-1.8-0.1-2.7
		c-1.08-0.13-2.16-0.26-3.24-0.39c-0.05,0.68-0.14,2.05-0.19,2.73c-1.22-1.29-2.5-2.51-3.77-3.75c1.04-0.18,2.08-0.37,3.12-0.56
		c0.1-0.91,0.19-1.83,0.28-2.74c1.12,0.09,2.24,0.22,3.37,0.35c-1.02-1.76-2.03-3.52-3.03-5.28c0.88-0.66,1.76-1.31,2.65-1.96
		c-0.31-0.32-0.62-0.65-0.92-0.97c-1.4,0.06-2.81,0.28-4.19,0.01c-2.34-1.48-4.45-3.38-7.18-4.14c1.27,2.85,2.85,5.55,4.35,8.29
		c-2.17,0.13-4.33,0.26-6.48,0.44c0.51,1.02,1.03,2.04,1.58,3.04c-0.62,0.18-1.86,0.54-2.47,0.72c0.08,3.12,0.19,6.25,0.72,9.33
		c-0.79-1.85-1.41-3.76-2.08-5.66c-1.98,1.04-3.94,2.13-6.03,2.93c-0.3-1.04-0.54-2.15-0.1-3.2c2.07-6.72,5.8-12.82,7.43-19.7
		c0.37-1.22,0.78-2.44,1.18-3.65c0.69-0.12,2.07-0.37,2.76-0.5c-0.1,2.35-0.23,4.69-0.36,7.03c1.77-1.33,3.54-2.65,5.32-3.95
		C165.28,126.55,162.39,123.63,162.47,119.52 M172.9,116.01c0.82,1.44,1.68,2.87,2.56,4.29c-0.95,2.81-2.13,5.64-2.22,8.64
		c0.86,2.95,4.02,3.85,6.71,4.25c-1.21-2.21-2.56-4.34-3.98-6.41c1.79-2.73,4.33-4.88,7.66-5.31
		C179.63,120.58,176.39,117.98,172.9,116.01 M184.2,125.18c-0.53,1.63,0.02,2.18,1.65,1.67
		C186.38,125.22,185.82,124.66,184.2,125.18 M175.36,141.12c0.57,2.45,2.28,3.95,4.75,4.37c0-0.88-0.02-2.65-0.03-3.53
		C178.5,141.67,176.93,141.39,175.36,141.12z"/>
	<path fill="#7F1C19" d="M56.05,119.15c0.79,0.14,1.59,0.28,2.39,0.43c1.49,1.08,2.99,2.16,4.52,3.2c-0.09,0.22-0.25,0.67-0.33,0.89
		c-2.01,5.65-5.09,10.98-6,16.97c-0.09,1.67,0.04,3.35,0.21,5.02c-1.31,2.31-3,4.37-5.01,6.11c-1.54-4.97,2.34-9.5,1.23-14.55
		c-0.99,0.8-1.97,1.61-2.95,2.41c-0.11-2.02,0.04-4.12-0.63-6.06c-1.04-1.7-3.3-0.97-4.94-1.24c-0.15-2.41,0.19-4.95,1.69-6.92
		c1.26-1.58,2.79-4.23,5.16-3.06c1.64,2.83,2.73,5.94,4.54,8.68c0.56-0.19,1.68-0.58,2.24-0.77c0.12-0.32,0.36-0.95,0.48-1.26
		c-1.34-0.77-2.69-1.54-4.03-2.3C55.07,124.18,55.54,121.66,56.05,119.15 M55.85,123.94c0,0.79,0.02,2.36,0.02,3.15
		c0.83,0.02,2.5,0.06,3.33,0.07c0-0.82,0.02-2.48,0.02-3.31C58.38,123.87,56.69,123.92,55.85,123.94 M47.11,128.12
		c-0.52,1.63,0.03,2.18,1.66,1.66C49.3,128.16,48.74,127.6,47.11,128.12z"/>
	<path fill="#7F1C19" d="M317.3,122.31c2.35,0.33,4.16,1.77,5.03,3.97c-1.59,2.09-3.2,4.17-4.68,6.35c-0.57-1.2-1.17-2.39-1.72-3.6
		c0.6,0.22,1.79,0.65,2.39,0.87c0.73-1.83,1.44-3.66,2.13-5.5c-0.87-0.25-2.62-0.74-3.5-0.98L317.3,122.31z"/>
	<path fill="#7F1C19" d="M319,135.66c1.7-2.02,3.4-4.03,5.13-6.02c0.32,0.49,0.96,1.46,1.28,1.94c-1.28-0.09-3.44,0.66-2.94,2.31
		c1.2,1.6,3.31-0.24,3.36-1.76c1.33,1.68,2.69,3.33,3.97,5.05l0.01,0.98c-1.26,0.47-2.57,1.95-3.96,1.1
		c-1.71-0.9-3.14-2.22-4.66-3.38c-0.11,0.8-0.33,2.41-0.44,3.21c-0.18-0.31-0.55-0.92-0.74-1.22
		C319.76,137.32,319.26,136.22,319,135.66z"/>
	<path fill="#7F1C19" d="M129.16,169.37c4.46-3.13,9.25-5.73,14.01-8.36c0.36,3.43,0.5,6.94-0.23,10.34
		c-0.8,0.92-1.59,1.86-2.35,2.81c-0.33-0.66-0.98-2-1.31-2.66c-0.25,0.06-0.75,0.2-1,0.26c-2.22,3.08-5.25,5.4-8.6,7.13
		c0.6,0.37,1.79,1.12,2.38,1.49c-1.08,0.46-2.17,0.93-3.25,1.4c-2.25-0.74-4.52-1.45-6.8-2.11c2.82-0.58,7.1,0.03,8.24-3.34
		C130.54,173.96,129.65,171.65,129.16,169.37z"/>
	<path fill="#7F1C19" d="M99.14,180.22c0.28-2.65,0.82-5.26,1.49-7.83c0.77,0.23,2.31,0.7,3.08,0.93c-0.15,1.18-0.3,2.35-0.45,3.53
		C101.85,177.93,100.5,179.08,99.14,180.22z"/>
	<path fill="#7F1C19" d="M107.04,175.53c0.67-0.19,1.34-0.37,2.01-0.55c0.11,4.98,2.04,9.68,2.23,14.64
		c-2.19-0.84-4.9-1.61-5.92-3.97C105.1,182.2,106.25,178.84,107.04,175.53z"/>
	<path fill="#7F1C19" d="M123.52,175.13c0.91-1.05,3.1-0.62,3.29,0.85C126.64,178.19,122.41,177.15,123.52,175.13z"/>
	<path fill="#7F1C19" d="M102.17,207.36c0.71-0.15,2.15-0.44,2.86-0.59c0.15,5.25,1.04,10.59,0.08,15.81
		c-1.17,2.79-3.87,4.57-6,6.59c0.45-3.32,2.22-6.2,3.34-9.3c-0.4-1.78-1.34-3.37-2.07-5.02l-0.3-0.67c0.63-0.1,1.9-0.31,2.53-0.42
		C102.46,211.63,102.3,209.49,102.17,207.36z"/>
	<path fill="#7F1C19" d="M176.05,210.58c2.45-0.71,4.94-1.33,7.5-1.43c-0.36,1.92-0.69,3.85-1,5.78c1.65-0.15,3.31-0.3,4.97-0.46
		c-2.51,3.15-6.2,5.01-10.08,5.85c0.02-0.89,0.03-1.79,0.05-2.69c-1.06-0.14-2.12-0.28-3.17-0.43
		C175.08,215.05,175.63,212.82,176.05,210.58z"/>
	<path fill="#7F1C19" d="M47.03,212.15c2.22,0.06,4.52-0.19,6.67,0.49c1.71,1.28,2.93,3.07,4.29,4.7c0.79-0.28,1.58-0.55,2.38-0.83
		c1.67,0.96,3.46,1.7,5.35,2.11c1.1,0.95,2.19,1.92,3.28,2.89c-0.83,0.32-1.66,0.64-2.49,0.96c-0.27,1.88-0.55,3.76-0.83,5.65
		c-1.05-3.04-2.48-5.93-3.89-8.82c-2.6,0.59-5.21,1.18-7.8,1.82c0.37-1.13,0.75-2.26,1.12-3.39c-1.73,0.23-3.46,0.45-5.19,0.69
		c0.18,1.19,0.36,2.4,0.59,3.59c0.41,1.66,0.95,3.28,1.4,4.92c-1.13-0.14-2.27-0.26-3.4-0.38c-1.12-0.14-2.23-0.28-3.35-0.41
		c0.57-0.9,1.11-1.81,1.62-2.74C46.89,219.65,46.69,215.89,47.03,212.15z"/>
	<path fill="#7F1C19" d="M32.48,226.48c1.26-3.03,3.02-5.93,6.04-7.47c0.04,1.61,0.08,3.22,0.11,4.84c-1.32,1.38-2.65,2.75-3.8,4.28
		C34.24,227.72,33.07,226.89,32.48,226.48z"/>
	<path fill="#7F1C19" d="M28.99,238.41c0.85-0.44,1.69-0.87,2.53-1.3c1.57,0.65,3.15,1.3,4.74,1.9c0.61,0.24,1.85,0.71,2.46,0.95
		c-0.27,4.54,0.15,9.18,2.18,13.33c-1.42-1.63-2.96-3.14-4.49-4.66c1.18,2.8,2.41,5.57,3.66,8.33c-1.47-0.11-2.94-0.22-4.41-0.32
		c-1.87-2.75-3.66-5.58-4.9-8.67c1.5,0.05,3.01,0.09,4.52,0.14c-0.56-0.95-1.12-1.9-1.68-2.84c-0.65-0.05-1.96-0.16-2.61-0.21
		c1.12-1.76,2.38-3.44,3.63-5.11c-2.01,1.01-4.02,2.01-6.04,3C28.71,241.43,28.85,239.92,28.99,238.41 M35.09,251.57
		c-0.94,1.13-0.68,1.76,0.78,1.89C36.81,252.32,36.55,251.69,35.09,251.57z"/>
	<path fill="#7F1C19" d="M389.24,255.38c0.08-2.83,0.19-5.66,0.28-8.49c0.44,3.99,1.87,7.77,3.3,11.5c0.13,2.67,0.11,5.34,0.09,8.02
		c-1.13,3.26-1.63,6.7-1.57,10.16c-1.54-0.44-3.08-0.87-4.61-1.31c0.51-1.33,1.09-2.62,1.66-3.92c-1.74-0.8-3.47-1.62-5.19-2.45
		c0.17-1.46,0.27-2.93,0.38-4.39c0.7,0.06,2.11,0.16,2.81,0.22c-2.43-2.5-5.54-4.1-8.87-5.01c-0.81-0.96-1.6-1.91-2.39-2.86
		c3.81-1.87,7.76-0.04,11.43,1.21c0.25-0.65,0.76-1.96,1.01-2.61C388.12,255.42,388.68,255.4,389.24,255.38z"/>
	<path fill="#7F1C19" d="M333.93,262.79c2.48,0.55,4.97,1.09,7.41,1.83c0.12,2.25,0.08,4.54,0.59,6.75
		c1.34,0.84,2.86,1.31,4.34,1.88c-0.71,1.3-0.88,3.28-2.61,3.64c-3.5,1.22-7.29,0.51-10.38-1.41c2.58-1.02,5.19-1.96,7.82-2.84
		C339.77,268.67,337.02,265.51,333.93,262.79z"/>
	<path fill="#7F1C19" d="M31.81,279.35c2.61-3.3,5.44-6.65,9.61-7.93c-0.77,2.76-1.71,5.48-2.86,8.11c-0.88-0.66-1.75-1.34-2.6-2.02
		c-0.76,0.99-1.53,1.99-2.28,3.01c-0.25,0.34-0.75,1.01-1,1.35C32.46,281.24,32.03,279.98,31.81,279.35z"/>
	<path fill="#FDD9D1" d="M162.32,133.96c2.73,0.76,4.84,2.66,7.18,4.14c1.38,0.27,2.79,0.05,4.19-0.01c0.3,0.32,0.61,0.65,0.92,0.97
		c-0.89,0.65-1.77,1.3-2.65,1.96c1,1.76,2.01,3.52,3.03,5.28c-1.13-0.13-2.25-0.26-3.37-0.35c-2.02,0.06-4.02,0.34-6.02,0.62
		c0.86,0.9,1.74,1.8,2.62,2.68c1.27,1.24,2.55,2.46,3.77,3.75c0.23,0.32,0.7,0.97,0.93,1.29c0.59,0.82,1.16,1.65,1.71,2.51
		c-0.4,0.27-1.19,0.83-1.59,1.1c-0.78-0.64-1.55-1.27-2.32-1.92c-3.53-2.88-7.02-6.02-8.95-10.25c-0.55-1-1.07-2.02-1.58-3.04
		c2.15-0.18,4.31-0.31,6.48-0.44C165.17,139.51,163.59,136.81,162.32,133.96z"/>
	<path fill="#FDD9D1" d="M83.9,218.21c1.19-0.44,2.38-0.88,3.56-1.33c-0.53,0.32-1.6,0.96-2.13,1.28c-1.36,2.66-0.67,5.6,0.36,8.23
		c-1.58,2.79-2.72,5.83-3.13,9.02c2.04-2.16,3.86-4.52,5.54-6.96c1.05,1.35,2.09,2.71,3.14,4.07c-0.5,1.49-1,2.99-1.48,4.48
		c-2.33,6.92-4.29,13.98-5.21,21.23c-0.08,4.03,1.77,7.76,2.74,11.6c0.82,2.61,0.77,5.36,1.26,8.02c3.61,2.03,7.97,1.95,11.99,1.7
		c0.05-3.44,0.34-6.95,1.89-10.09c0.63,0.74,1.89,2.21,2.52,2.94c-0.59,1.91-1.09,3.84-1.59,5.77c1.45,0.78,2.89,1.57,4.36,2.31
		c1.67,0.23,4.18,0.23,4.56-1.88c0.53-5.54,0.41-11.16-0.05-16.71c1.63,0.29,3.26,0.6,4.89,0.92c1.7,3.84,2.44,8.01,2.64,12.19
		c-0.87,4.46-5.3,6.39-8.58,8.85c-6.99-2.32-14.26-0.57-21.35,0.03c-3.57,0.45-6.66-1.71-10.03-2.38c-3.09,0.06-6.11,0.89-9.17,1.27
		c-0.5-0.75-1.52-2.26-2.03-3.01c1.6-0.69,3.16-1.46,4.75-2.16c1.69-0.93,4.34-1.19,4.91-3.35c0.49-2.03-0.51-4.04-1.1-5.95
		c1.64-3.23,3.19-6.5,4.63-9.82c-1.77-1.72-3.95-3.21-5.01-5.51c-0.55-3.78,0.57-7.54,1.02-11.28
		C78.69,233.57,83.09,226.36,83.9,218.21 M80.61,238.32c0.61,1.64,1.52,3.15,3.12,4.01c0.09-1.42,0.18-2.84,0.26-4.26
		C83.14,238.13,81.45,238.25,80.61,238.32 M78.85,244.73c0.13,1.47,0.26,2.95,0.4,4.44c1.99-0.88,3.97-1.92,5.17-3.82
		C82.57,245.11,80.71,244.91,78.85,244.73z"/>
	<path fill="#FDD9D1" d="M363.52,267.78c3.76-1.07,7.5-2.21,11.29-3.19c1.79-0.01,3.58,0.05,5.38,0.12
		c-1.29,5.31-2.57,10.96-0.12,16.17c1.28-3.93,2.46-7.91,3.13-11.99c1.72,0.83,3.45,1.65,5.19,2.45c-0.57,1.3-1.15,2.59-1.66,3.92
		c-0.24,1.88-0.21,3.79-0.17,5.69c-3.03,0.29-6.07,0.22-9.1,0.09c-2.94-1.38-5.93-2.65-9.02-3.64c-4.03-0.84-7.15-3.48-8.53-7.36
		C361.09,269.25,362.28,268.48,363.52,267.78z"/>
	<path fill="#FDD9D1" d="M33.68,280.52c0.75-1.02,1.52-2.02,2.28-3.01c0.85,0.68,1.72,1.36,2.6,2.02c1.26,0.38,2.54,0.69,3.82,1.02
		c0.15,0.84,0.29,1.69,0.43,2.55c-2.73,1-5.51,1.9-8.34,2.6C34.2,283.97,33.94,282.24,33.68,280.52z"/>
	<path fill="#FDD9D1" d="M288.79,278.83c2.2,0,4.41-0.02,6.62-0.03c-0.08,0.87-0.22,2.61-0.3,3.48c-2.13,0.06-4.25,0.11-6.38,0.1
		C288.75,281.19,288.77,280.01,288.79,278.83z"/>
	<path fill="#FDC8C3" d="M19.15,105.02c5.56,1.15,11.25,0.92,16.87,0.46c0.2,0.24,0.61,0.71,0.81,0.95
		c-2.41,0.84-5.51,1.07-6.93,3.51c-2.05,3.46-1.72,7.65-2.29,11.49c-0.27,0.9-0.57,1.79-0.89,2.68c-0.54,1.43-1.12,2.85-1.68,4.29
		c-0.5,1.29-0.99,2.6-1.48,3.9c-0.52-0.46-1.56-1.38-2.08-1.85c0.43-0.99,0.83-2,1.2-3.03c0.45-1.46,0.82-2.95,1.18-4.43
		c-2.83-1.22-5.55-2.67-8.22-4.21c1.22-3.77,3.54-7.04,4.99-10.7C20.29,106.99,19.72,105.99,19.15,105.02 M27.4,108.09
		c-1.95,0.41-1.09,3.49,0.78,2.93C30.13,110.63,29.28,107.46,27.4,108.09z"/>
	<path fill="#FDC8C3" d="M13.16,133.3c0.58-0.17,1.73-0.51,2.3-0.68c0.24,1.2-0.09,2.19-1,2.97
		C12.97,136.45,12.47,134.23,13.16,133.3z"/>
	<path fill="#FDC8C3" d="M89.9,158.18c1.54,0.23,3.08,0.43,4.62,0.62c-0.99,3.27-1.34,6.8-3,9.82c-1.91,2.26-4.65,3.55-6.98,5.29
		c-0.2-3.39,0.14-6.98,2.47-9.64c0.13,0.8,0.38,2.41,0.5,3.21c2.53-1.6,4.17-4.09,2.81-7.1C90.22,159.83,90.01,158.73,89.9,158.18z"
		/>
	<path fill="#FDC8C3" d="M145.92,159.48c1.15,3.1,2.82,6.77,0.36,9.72C146.1,165.96,145.96,162.72,145.92,159.48z"/>
	<path fill="#FDC8C3" d="M103.26,176.85c1.23-0.52,2.5-0.95,3.78-1.32c-0.79,3.31-1.94,6.67-1.68,10.12
		c1.02,2.36,3.73,3.13,5.92,3.97c1.2,0.24,2.4,0.41,3.62,0.53c1.46-0.3,2.91-0.68,4.36-1.06c0,1.58,0.03,3.16,0.16,4.74
		c-0.94,0.19-2.81,0.57-3.75,0.76c1.08,2.47,2.27,4.88,3.59,7.23c0.26-1.57,0.51-3.14,0.64-4.72c0.95,4.78,1.54,9.75,3.89,14.11
		c-0.48-0.54-1.45-1.6-1.93-2.14c-0.51-0.56-1.04-1.11-1.57-1.65c-1.76-1.73-4.14-3.84-6.79-2.9c-2.64,1.04-3.54,3.95-3.9,6.51
		c0.17,4.67,0.87,9.3,0.88,13.98c0.01,2.99-0.19,6.02,0.44,8.97c-1.14,2.02-2.23,4.08-3.4,6.09c-0.6-0.07-1.79-0.2-2.39-0.26
		c-1.76,0.03-4.16-0.76-5.34,1.01c-0.87,2.26-0.67,4.74-0.74,7.12c-1.37-0.36-2.71-0.79-4.05-1.21c-1.68,1.61-3.35,3.22-5.03,4.82
		c-0.51-0.4-1.52-1.18-2.03-1.58c1.75-3.19,3.49-6.39,5.1-9.65c-1.1-1.11-2.19-2.21-3.28-3.32c0.48-1.49,0.98-2.99,1.48-4.48
		c-1.05-1.36-2.09-2.72-3.14-4.07c1.04-2.11,1.67-4.38,2.27-6.64c-1.63,1.45-3.22,2.96-4.68,4.58c-1.03-2.63-1.72-5.57-0.36-8.23
		c1.21,1.04,2.43,2.07,3.65,3.1c-0.1-1.63-0.21-3.26-0.31-4.89c0.05-7.62-4.25-14.24-7.47-20.87c1.44-0.69,2.88-1.39,4.26-2.19
		c1.73-2.08,3.19-4.36,4.7-6.6c0.15,2.05,0.27,4.1,0.36,6.15c0.6,0.01,1.79,0.05,2.38,0.06c0-2.01,0.01-4.03-0.08-6.04
		c0.66,2.66,1.46,5.28,2.24,7.91c-0.45,0.54-0.91,1.08-1.38,1.62c-2.21,2.31-4.78,4.22-7.33,6.14c1.49,0.6,2.99,1.18,4.5,1.77
		c0.01,0.41,0.03,1.22,0.03,1.63c0.2,2.54,0.5,5.08,0.8,7.62c1.2-0.07,2.41-0.12,3.62-0.15c1.71,0.39,3.39,0.92,5.08,1.43
		c0.73,1.65,1.67,3.24,2.07,5.02c-1.12,3.1-2.89,5.98-3.34,9.3c2.13-2.02,4.83-3.8,6-6.59c0.96-5.22,0.07-10.56-0.08-15.81
		c-0.71,0.15-2.15,0.44-2.86,0.59c0.13,2.13,0.29,4.27,0.44,6.4c-0.63,0.11-1.9,0.32-2.53,0.42c-1.07-2.51-1.95-5.1-2.59-7.75
		c1.16-1.63,2.34-3.26,3.51-4.88c-1.45-0.25-2.89-0.52-4.34-0.8l-0.18-0.77c1.34-0.34,2.69-0.68,4.04-1.02
		c1.35,1.1,2.71,2.2,4.1,3.26c-0.13-2.65-0.24-5.35-1.14-7.88c-1.64-1.88-3.67-3.55-4.62-5.92c-1.19-2.89-1.9-6.06-4.01-8.46
		c1.43,0.08,2.86,0.17,4.29,0.26C100.5,179.08,101.85,177.93,103.26,176.85 M95.97,218.29c0.04,0.61,0.11,1.85,0.15,2.46
		c0.98,0.4,1.97,0.8,2.96,1.2c-0.28-1.71-0.58-3.41-0.91-5.11C97.62,217.2,96.52,217.92,95.97,218.29 M95.05,224.02
		c-1.22,2.33-2.33,4.73-3.22,7.22c2.98-1.4,4.8-4.12,6.25-6.96C97.32,224.22,95.81,224.08,95.05,224.02 M97.71,230.32
		c-1.08,2.57-2.5,4.97-3.9,7.37c0.74,0.03,2.21,0.1,2.95,0.14c1.23-2.48,2.44-4.96,3.39-7.55
		C99.54,230.29,98.32,230.31,97.71,230.32z"/>
	<path fill="#FDC8C3" d="M339.81,179.71c5.31-0.21,7.61,4.81,10.07,8.58c0.96-0.87,1.93-1.74,2.9-2.62
		c2.67,4.5,4.68,9.36,6.27,14.34c-2.92-1.36-5.27-3.63-5.85-6.89c-5.79-0.61-11.48-1.95-17.26-2.6c-0.38,3.36-0.72,6.72-1.06,10.09
		c1.79-0.68,3.58-1.46,5.47-1.86c0.58,1.56,0.95,3.18,1.36,4.79c1.36-0.75,2.72-1.5,4.09-2.24c1.87,2.55,3.72,5.11,5.52,7.7
		c3.27-0.92,6.45-2.15,9.36-3.93c0.62,2.09,1.19,4.19,1.66,6.32c-0.12,1.56-0.3,3.12-0.41,4.69c-0.86-0.76-1.75-1.48-2.63-2.21
		c-1.71,1.82-3.19,4.03-5.5,5.13c-6.23,1.01-11.95-2.34-17.73-4.09c-0.42-0.13-1.26-0.41-1.69-0.54c-2.93-0.85-6.02-1.82-9.09-1.23
		c-4.2,1.9-3.98,7.11-5.05,10.91c-0.21-5.74-2.77-11.29-1.46-17.08c2.36,2.09,3.25-1.09,2.41-2.96c-0.06-2.91,0.1-5.82,0.46-8.7
		c0.65-2.66,1.31-5.43,2.93-7.69c1.99-2.7,5.17-4.06,8.07-5.53c0.6-0.3,1.21-0.59,1.82-0.88c0.26,1.62,0.52,3.24,0.8,4.86
		c0.53-0.14,1.6-0.42,2.14-0.56C338.2,183.57,338.98,181.63,339.81,179.71 M327.08,206.38c4.61-1.54,5.75-7.65,3.06-11.38
		C328.88,198.72,327.85,202.53,327.08,206.38 M349.06,211.09c0.02,1.35,0.04,2.7,0.07,4.06c1.3-0.33,2.61-0.66,3.91-1
		c-0.42-0.97-0.85-1.94-1.26-2.91C351.1,211.2,349.74,211.13,349.06,211.09z"/>
	<path fill="#FDC8C3" d="M48.51,226.55c1.13,0.12,2.27,0.24,3.4,0.38c-0.39,1.68-0.5,3.83-2.26,4.7c-4.41,2.56-9.32,4.24-13.39,7.38
		c-1.59-0.6-3.17-1.25-4.74-1.9c1.95-1.04,3.86-2.15,5.77-3.25c-0.75-1.76-1.49-3.53-2.21-5.29c2.19,0.99,4.26,2.36,6.63,2.89
		C44.7,231.13,47.25,229.27,48.51,226.55z"/>
	<path fill="#FDC8C3" d="M182.04,243.97c0.68-1.94,2.05-3.55,4.1-4.08c-0.06,0.59-0.16,1.76-0.21,2.35
		c-3.97,7.89-7.97,17.8-3.06,26.19l0.52,1.06c-1.86,1.42-4.63,2.76-6.73,0.98c-0.7-1.73,0.83-3.57,1.19-5.28
		c-0.74-1.19-2.51-2.26-1.64-3.83C177.92,255.49,179.46,249.54,182.04,243.97z"/>
	<path fill="#FDC8C3" d="M96.31,249.52c3.73,0.3,7.39,1.46,11.18,1.12c-0.8,6.47-2.48,12.83-5.06,18.82
		c-1.55,3.14-1.84,6.65-1.89,10.09c-0.38-1.22-0.77-2.43-1.16-3.64c-2.28-0.56-5.38-0.37-6.64-2.75c-1.83-2.46,0.34-5.17,0.98-7.65
		c-0.83-3.86-2.48-7.47-4.09-11.06C91.74,252.67,93.85,250.81,96.31,249.52 M99.19,264.58c-0.97,0.76-0.85,2.88,0.56,3.04
		C101.76,267.5,101.17,263.5,99.19,264.58z"/>
	<path fill="#560706" d="M241.58,72.65c2.45-0.85,5.02-1.33,7.62-1.39c3.85,1.04,3.91,5.15,4.23,8.43
		c4.38,3.15,9.15,6.27,11.67,11.22c2.73,4.14,0.07,9.97,4.2,13.46c-1.77-0.13-4.18,0.47-5.23-1.41c-1.28-3.57-0.29-7.63-1.95-11.11
		c-2.53-4.43-7.52-6.46-10.93-10.05c-1.52-1.87-1.62-4.42-2.22-6.66c-1.79,0.68-3.57,1.36-5.28,2.21
		C242.97,75.79,242.27,74.22,241.58,72.65z"/>
	<path fill="#560706" d="M235.14,85.05c1.29-2.83,4.23-4.15,6.87-5.41c0.67,0.77,1.34,1.55,2.02,2.32
		c-5.75,3.77-9.34,9.87-11.79,16.13c-0.7,2.16,0.59,4.3,1.15,6.34c1.51,4.62,3.86,9.82,1.41,14.56c-1.7-3.14-2.87-6.52-3.73-9.97
		c-0.66-3.36-2.02-6.51-3.9-9.36C230.24,95.02,232.65,90.01,235.14,85.05z"/>
	<path fill="#560706" d="M40.81,95.17c0.82,1.46,1.6,3,2.8,4.21c4.01,0.51,8.02-0.71,12.04-0.41c3.57,0.54,6.91,1.98,10.36,2.99
		c-1.68,0.2-3.34,0.47-5.01,0.73c0.68,1.29,1.36,2.58,2.1,3.84c-8.22,1.56-16.74-0.73-24.8,1.75c-0.37-0.46-1.1-1.39-1.47-1.85
		c-0.2-0.24-0.61-0.71-0.81-0.95c-5.62,0.46-11.31,0.69-16.87-0.46c-1.14-1.5-2.35-2.94-3.54-4.4c1.29-1.01,2.41-2.37,4.01-2.89
		c5.87-0.91,12.46,2.14,17.82-1.33c1.21,0.51,2.42,1.01,3.63,1.51C41.01,97.23,40.88,95.85,40.81,95.17z"/>
	<path fill="#560706" d="M266.11,120.34c0.96-0.38,1.93-0.76,2.89-1.16c2.75,4.03,5.13,8.28,7.7,12.42
		c-0.37,1.99-0.33,4.74-2.76,5.37c-4.12-0.95-7.77-3.22-11.5-5.11c3.26-1.22,6.68-0.21,9.94,0.46
		C271.01,127.99,268.92,123.92,266.11,120.34z"/>
	<path fill="#560706" d="M93.89,123.96c1.97-1.62,4.03-3.13,6.21-4.46c-0.44,3.26-1.2,6.45-2.05,9.62c1.17-0.01,2.35-0.01,3.52-0.01
		c0.48-1.53,0.97-3.05,1.47-4.57c3.48,2.25,4.27,6.5,5.72,10.08c2.44-3.02,4.98-6.02,8.13-8.34c1.75,3.15,3.2,6.48,3.96,10.03
		c-0.65,0.04-1.95,0.11-2.59,0.14c-0.21-1.66-0.41-3.32-0.62-4.97c-1.38,0.25-2.78,0.45-4.11,0.89c-2.62,3.03-4.25,6.77-6.47,10.09
		c-2.39-3.26-3.12-7.25-3.56-11.18c-2.83,0.87-4.94,2.91-6.66,5.25C96.18,132.27,95.06,128.1,93.89,123.96z"/>
	<path fill="#560706" d="M222.8,128.78c1.64-3.42,5.1-5.25,8.28-6.97c1.55,0.08,3.1,0.19,4.64,0.34c-2.46,3.24-6.33,4.73-9.4,7.22
		c-1.58,2.2-1.67,5.08-2.36,7.63c-0.55,0.43-1.64,1.29-2.19,1.72C221.38,135.4,221.02,131.79,222.8,128.78z"/>
	<path fill="#560706" d="M56.63,140.64c0.91-5.99,3.99-11.32,6-16.97c1.99,1.37,3.97,2.75,5.94,4.17
		C62.86,130.4,61.13,136.77,56.63,140.64z"/>
	<path fill="#560706" d="M317.65,132.63c1.48-2.18,3.09-4.26,4.68-6.35c0.6,1.12,1.18,2.25,1.8,3.36c-1.73,1.99-3.43,4-5.13,6.02
		C318.55,134.65,318.1,133.64,317.65,132.63z"/>
	<path fill="#560706" d="M25.04,128.4c3.47,2.6,7.72,3.46,11.98,3.53c4.17-0.12,6.85,3.46,9.1,6.45l0.25,0.88
		c-1.16,2.63-2.59,5.51-5.34,6.78c-1.47,0.42-3.02,0.36-4.53,0.44c1.86-2.23,4.03-4.23,5.55-6.73c0.47-1.74-1.29-2.64-2.53-3.38
		c-4.97-2.7-11.62,0.07-15.96-4.07C24.05,131,24.54,129.69,25.04,128.4z"/>
	<path fill="#560706" d="M268.75,144.72c6.83-2.47,9.75-9.8,14.48-14.74c3.64,5.74,1.44,13.07-1.78,18.48
		c-0.67-2.83-1.1-5.71-1.31-8.61c-2.76,2.36-5.35,4.92-8.22,7.14c-1.29,1.13-3.05,1.59-4.72,1.11c-6.22-1.45-10.36-7.25-11.51-13.29
		c0.96-0.36,1.91-0.74,2.87-1.12C260.57,138.11,262.82,144.93,268.75,144.72z"/>
	<path fill="#560706" d="M99.47,138.38c0.63-0.12,1.9-0.37,2.53-0.49c1.15,3.51,2.23,7.17,1.6,10.89c-2.37-2.1-4.7-4.4-5.81-7.44
		C98.35,140.35,98.91,139.37,99.47,138.38z"/>
	<path fill="#560706" d="M329.8,137.18c2.12,2.68,4.27,5.36,6.81,7.67c4.07,2.98,9.13,5.15,11.71,9.71
		c1.86,6.67,2.04,13.82,0.81,20.63c-0.99,0.22-1.97,0.44-2.95,0.66c0.18-5.61,1.18-11.18,1.08-16.8c0.14-3.08-2.9-4.63-4.99-6.25
		c-3.18-2.09-6.06-4.69-9.52-6.32c-2.12,0.32-4.05,1.34-6.01,2.15c-0.42-0.14-1.28-0.41-1.7-0.55c0.53-0.53,1.08-1.05,1.63-1.58
		c1.04-0.99,2.1-1.96,3.16-2.93c-0.02-1.8-0.03-3.61-0.02-5.41L329.8,137.18z"/>
	<path fill="#560706" d="M23.79,146.73c0.14-2.69,0.49-5.38,1.33-7.94c0.97,3.15,1.46,6.43,1.85,9.7
		C25.91,147.91,24.85,147.32,23.79,146.73z"/>
	<path fill="#560706" d="M110.02,145.39c1.71-0.19,2.4,2.86,0.71,3.36C108.93,149,108.25,145.87,110.02,145.39z"/>
	<path fill="#560706" d="M159.3,146.45c0.61-0.18,1.85-0.54,2.47-0.72c1.93,4.23,5.42,7.37,8.95,10.25
		c-1.04,0.61-2.07,1.22-3.1,1.83c0.37,1.85,0.73,3.7,0.97,5.57c-2.77-2.63-5.82-4.95-8.57-7.6
		C159.49,152.7,159.38,149.57,159.3,146.45z"/>
	<path fill="#560706" d="M307.39,148.25c3.98-1.27,8.25-0.25,12.34-0.38c0.01,1.1,0.04,2.19,0.08,3.29
		c-3.48-0.01-7.09-0.72-10.49,0.24c-1.87,1.58-2.75,3.99-3.81,6.12C303.94,154.48,303.99,150.01,307.39,148.25z"/>
	<path fill="#560706" d="M278.96,158.5c0.49-2.84,1.01-5.74,2.83-8.08c0.96,4.11,0.41,8.55-1.17,12.43
		c-4.99,4.3-12.12,2.02-17.96,3.79c-2.85,3.41-3.82,8.54-1.95,12.65c4.54,10.57,11.55,20.67,11.74,32.57
		c-0.53,9.36,1.88,19.67-3.87,27.94c-1.96-2.7-0.67-6.05-0.36-9.03c0.99-7.54,1.23-15.2,0.84-22.79c-0.26-7-4.67-12.71-7.42-18.87
		c-1.91-4.37-4.94-8.38-5.67-13.18c0.09-4.42,1.6-9.16,4.84-12.29c3.64-1.88,7.97-0.68,11.9-1.27
		C275.11,162.09,278.6,161.41,278.96,158.5z"/>
	<path fill="#560706" d="M181.88,155.37c0.22-1.24,0.44-2.48,0.65-3.71c2.56,1.41,5.01,3,7.48,4.57c3.44,1.46,7.02-0.26,10.37-1.13
		c-1.75,1.76-3.1,4.21-5.54,5.07c-3.32,0.43-6.54-0.87-9.7-1.71c-1.09,2.63-1.43,7.01-5.19,6.88c-3.84-0.29-5.4-4.47-6.91-7.44
		c0.4-0.27,1.19-0.83,1.59-1.1C176.99,156.05,179.44,155.72,181.88,155.37 M178.21,159.41c-1.48,1.33,0.83,3.62,2.15,2.14
		C181.82,160.23,179.52,157.95,178.21,159.41z"/>
	<path fill="#560706" d="M93.08,153.69c3.17,0.46,6.24,1.49,9.03,3.07c-1.62,0.86-3.31,1.61-4.8,2.7c-1.04,2.73-0.84,5.75-1.71,8.52
		c-2.68,3.16-6.11,5.61-9.14,8.43c-1.56,1.61-3.74,2.21-5.88,2.61c0.69-2.12,2.15-3.85,3.96-5.11c2.33-1.74,5.07-3.03,6.98-5.29
		c1.66-3.02,2.01-6.55,3-9.82c-1.54-0.19-3.08-0.39-4.62-0.62C90.59,156.45,91.75,154.97,93.08,153.69z"/>
	<path fill="#560706" d="M227.11,158.2c2.09-2.15,6.48-3.88,8.7-1.03c2.13,3.59,2.49,8.8-0.95,11.74c-0.17-0.79-0.52-2.37-0.69-3.16
		c-0.48-2.47-0.87-4.96-1.25-7.45c-0.79-0.03-2.36-0.1-3.15-0.13c0.33,3.55,0.88,7.11,2.25,10.42c0.15,0.38,0.45,1.15,0.59,1.53
		c-1.89-0.99-4.02-1.72-5.53-3.28C226.31,164.04,226.28,160.99,227.11,158.2z"/>
	<path fill="#560706" d="M99.1,164.05c2.2-3.91,6.91-6.13,11.26-6.35c2.6,1.93,4.32,4.77,6.27,7.31l0.38,0.54
		c0.89,4.31,0.14,8.67-0.49,12.95c-0.6,3.22,1.76,5.88,2.76,8.75c0,0.46-0.01,1.38-0.02,1.84c-1.45,0.38-2.9,0.76-4.36,1.06
		c-0.62-4.28-1.52-8.55-1.32-12.9c0.2-5.56-1.8-10.86-2.63-16.3c-1.66,1.55-3.32,3.09-4.98,4.63c0.66,1.52,1.33,3.03,1.99,4.56
		c-2.27-0.15-4.53-0.3-6.8-0.43C100.41,167.85,99.57,166.01,99.1,164.05z"/>
	<path fill="#560706" d="M115.19,157.15c1.62-0.52,2.18,0.04,1.66,1.66C115.21,159.33,114.66,158.77,115.19,157.15z"/>
	<path fill="#560706" d="M305.78,158.27c1.01-0.25,2.03-0.5,3.05-0.75c3.07,4.44,6.58,8.55,10.08,12.66
		c1.9,2.41,4.64,5.48,2.57,8.64c-3.35-3.79-6.1-8.06-9.4-11.9C309.74,164.22,307.47,161.43,305.78,158.27z"/>
	<path fill="#560706" d="M230.69,181.19l0.31-0.89c0.76,1.91,2.45,3.9,1.56,6.06c-1.58,4.77-5.02,8.63-6.89,13.27
		c-1.58,3.59-1.9,7.54-2.29,11.4c-0.43,5.26-3,10.34-1.86,15.7c0.3,4.65,2.98,9.55,0.8,14.05c-2.02-7.35-5.11-14.99-3.28-22.71
		c1.73-8.11,1.13-17.05,5.82-24.27C227.55,189.98,229.28,185.62,230.69,181.19z"/>
	<path fill="#560706" d="M61.13,199.49c-0.03-2.74,0.47-5.53,2.68-7.41c1.84,2.87,3.1,6.04,3.61,9.41c1.11-3.2,1.91-7.05,5.52-8.33
		c0.54,1.9,1.72,3.89,0.91,5.9c-1.34,4.31-1.98,8.81-2.29,13.31c-1.25,0.2-2.5,0.4-3.74,0.6c0.34-0.84,0.68-1.67,1.02-2.5
		c0.81-1.99,1.59-3.98,2.36-5.99c-1.47,0.57-2.93,1.16-4.4,1.74c-1.48,0.55-2.96,1.16-4.54,1.38c-1.71-0.79-3.18-1.99-4.7-3.07
		c0.38-0.33,1.13-0.97,1.51-1.3c2.36,0.59,4.76,0.5,6.93-0.69C64.39,201.49,62.76,200.48,61.13,199.49z"/>
	<path fill="#560706" d="M103.48,194.34c0.9,2.53,1.01,5.23,1.14,7.88c-1.39-1.06-2.75-2.16-4.1-3.26
		C101.49,197.41,102.49,195.87,103.48,194.34z"/>
	<path fill="#560706" d="M93.68,196.41c2.27,3.05-1.44,5.44-2.83,7.91c-1.51-0.59-3.01-1.17-4.5-1.77
		C88.9,200.63,91.47,198.72,93.68,196.41z"/>
	<path fill="#560706" d="M170.08,202.06c1.3,0.2,2.83,0.03,3.9,0.92c1.43,2.26,1.76,5,2.07,7.6c-0.42,2.24-0.97,4.47-1.73,6.62
		c-5.96,5.47-10.39,12.4-12.67,20.18c-0.51-2.5-1.93-5.11-0.97-7.68c2.18-6.65,9.17-10.26,11.28-16.94
		C173.02,209.09,171.22,205.47,170.08,202.06z"/>
	<path fill="#560706" d="M113.5,204.52c2.65-0.94,5.03,1.17,6.79,2.9c-3.6,1.11-7.16,2.31-10.69,3.61
		C109.96,208.47,110.86,205.56,113.5,204.52z"/>
	<path fill="#560706" d="M318.97,205.35c0.55-0.33,1.67-1,2.22-1.34c0.84,1.87-0.05,5.05-2.41,2.96
		C318.83,206.57,318.92,205.76,318.97,205.35z"/>
	<path fill="#560706" d="M90.88,205.95c1.63,0.25,3.26,0.52,4.88,0.79c-0.14,2.22-0.29,4.45-0.46,6.68
		c-1.21,0.03-2.42,0.08-3.62,0.15C91.38,211.03,91.08,208.49,90.88,205.95z"/>
	<path fill="#560706" d="M120.79,213.14c-1.25-1.43,0.48-2.79,1.07-4.07c0.48,0.54,1.45,1.6,1.93,2.14
		c3.22,4.53,5.28,9.93,5.44,15.52c-0.93-0.02-1.86-0.05-2.79-0.07C125.41,221.82,123.26,217.38,120.79,213.14z"/>
	<path fill="#560706" d="M320.24,224.05c1.07-3.8,0.85-9.01,5.05-10.91c3.07-0.59,6.16,0.38,9.09,1.23
		c-3.11,1.04-6.33,1.72-9.58,2.23c-0.99,4.54-2,9.09-3.47,13.51c-1.18,3.81-2.73,7.7-2.25,11.77c0.4,3.54,0.71,7.1,0.73,10.67
		c-0.28-0.43-0.83-1.29-1.11-1.73c-1.79-3.66-2.85-7.71-2.65-11.81C316.1,233.72,318.78,229.01,320.24,224.05z"/>
	<path fill="#560706" d="M353.8,219c2.31-1.1,3.79-3.31,5.5-5.13c0.88,0.73,1.77,1.45,2.63,2.21c2.23,3.96,4.45,8.16,4.6,12.81
		c0.09,5.07,1.38,10,2.64,14.88c0.84,2.96,1.43,6.16,3.39,8.63c3.75,0.37,7.64-0.52,11.29,0.82c1.26,0.71,2.48,1.47,3.72,2.23
		c-0.25,0.65-0.76,1.96-1.01,2.61c-3.67-1.25-7.62-3.08-11.43-1.21c-2.24-0.64-4.45-1.36-6.64-2.11c-0.87-5.33-2.08-10.6-3.67-15.77
		c-1.94-6.01-0.82-12.69-4.02-18.34c-3.72,1.15-7.56,1.87-11.44,2.17c-1.18,2.13-2.37,4.26-3.43,6.46
		c-0.44-3.35-1.73-6.53-3.94-9.11c-1.28,5.14-1.69,10.47-3.4,15.5c-2.64,7.87-4.34,16.09-7.88,23.64c-0.84,0.81-1.68,1.6-2.54,2.39
		c0.15-2.15,0.35-4.33,1.14-6.35c3.26-8.51,5.83-17.3,7.67-26.22c1.06-4.74-0.04-9.53-0.91-14.2
		C341.85,216.66,347.57,220.01,353.8,219z"/>
	<path fill="#560706" d="M87.46,216.88l1.21-0.51c0.1,1.63,0.21,3.26,0.31,4.89c-1.22-1.03-2.44-2.06-3.65-3.1
		C85.86,217.84,86.93,217.2,87.46,216.88z"/>
	<path fill="#560706" d="M200.92,223.42c0.47,0.18,1.4,0.56,1.87,0.74c0.54,1.46,1.07,2.92,1.58,4.39c0.51,4.4,0.98,8.8,1.48,13.21
		c-0.52,0.94-1.05,1.87-1.59,2.81c-2.93,0.47-2.35-2.64-2.56-4.55C201.71,234.47,201.37,228.94,200.92,223.42z"/>
	<path fill="#560706" d="M126.82,230.57c0.67-0.08,2.02-0.24,2.7-0.32c1.34,6.42,2.6,12.96,1.94,19.55
		c-0.62,5.56,0.06,11.12,0.17,16.67c-0.28,0.3-0.84,0.9-1.12,1.2c-1.5-2.17-2.94-4.39-4.59-6.44
		C130.61,251.5,127.71,240.75,126.82,230.57z"/>
	<path fill="#560706" d="M345.68,236.36c-0.74-1.81-0.21-3.8,0.01-5.66c3.77,5.42,6.75,11.42,11.28,16.3
		c4.34,4.65,5.13,11.19,7.4,16.9c4.49-1.04,8.9-2.4,13.15-4.19c3.33,0.91,6.44,2.51,8.87,5.01c-0.7-0.06-2.11-0.16-2.81-0.22
		c-2.91-0.28-5.89-0.65-8.77,0.09c-3.79,0.98-7.53,2.12-11.29,3.19c-3.07-4.1-3.7-9.24-5.54-13.86
		C354.5,247.65,348.63,242.98,345.68,236.36z"/>
	<path fill="#560706" d="M142.03,249.24c5.54-5.23,13.03-7.37,19.5-11.11c-0.3,4.15-3.73,6.94-6.61,9.52
		c-1.94,1.28-3.97,2.51-6.24,3.1C146.34,251.36,144.15,249.99,142.03,249.24z"/>
	<path fill="#560706" d="M105.13,239.81c0.6,0.06,1.79,0.19,2.39,0.26c-0.96,1.67-2.13,3.2-3.39,4.66
		C104.41,243.07,104.71,241.43,105.13,239.81z"/>
	<path fill="#560706" d="M173.16,260.57c1.3-7.56,3.98-14.99,8.09-21.47c0.48,1.55,1.6,3.22,0.79,4.87
		c-2.58,5.57-4.12,11.52-5.83,17.39C175.45,261.16,173.92,260.76,173.16,260.57z"/>
	<path fill="#560706" d="M185.93,242.24c0.54-0.39,1.61-1.17,2.15-1.56c-0.32,5.62-2.54,10.83-4.07,16.18
		c-1.22,3.81,0.12,7.73,0.84,11.49c-0.5,0.02-1.49,0.06-1.98,0.08C177.96,260.04,181.96,250.13,185.93,242.24z"/>
	<path fill="#560706" d="M114.36,254.68c-0.53-2.76,1.12-5.27,2.06-7.74c1.03,3.41,1.45,6.95,1.96,10.46
		c2.14-0.37,4.29-0.73,6.43-1.12c-1.75,1.87-3.97,3.68-4.34,6.38c0.89,2.47,1.85,4.91,2.77,7.38c1.71-0.09,3.42-0.18,5.14-0.26
		c0.74,1.66,1.47,3.33,2.19,5.01c-2.35,0.22-4.69,0.43-7.04,0.63c0.48,1.62,0.96,3.24,1.41,4.87c-2.13-1.3-4.62-2.6-5.18-5.29
		c-0.2-4.18-0.94-8.35-2.64-12.19C116.08,260.14,114.9,257.5,114.36,254.68z"/>
	<path fill="#560706" d="M156.79,249.36c1.23-0.33,2.45-0.67,3.68-1c-2.17,4.95-4,10.16-3.54,15.66c-1.15-0.25-2.31-0.51-3.46-0.76
		C152.78,258.35,154.21,253.52,156.79,249.36z"/>
	<path fill="#560706" d="M241.65,250.41c1.62-0.74,3.25-2.28,5.16-1.6c4.18,2.02,6.38,6.58,6.76,11.03
		c0.97,4.94-2.21,9.24-3.97,13.6c-3.34-1.13-9.03-1.48-8.68-6.23c2.53,0.07,5.86,1.97,7.8-0.48c3.92-4.16,0.9-10.04-0.71-14.54
		l-0.27-0.68C245.7,251.17,243.67,250.81,241.65,250.41z"/>
	<path fill="#560706" d="M99.19,264.58c1.98-1.08,2.57,2.92,0.56,3.04C98.34,267.46,98.22,265.34,99.19,264.58z"/>
	<path fill="#560706" d="M131.12,268.17c0.44-0.14,1.32-0.41,1.76-0.55c0.87,0.78,1.7,1.59,2.51,2.45c0.7,0.99,1.35,2.03,2.01,3.06
		c-0.84,0-2.53,0.01-3.37,0.01C133.03,271.5,132.03,269.86,131.12,268.17z"/>
	<path fill="#560706" d="M13.96,270c4.06-2.48,7.91,1.36,10.84,3.79c-4.82-0.08-9.65,0.1-14.4,0.96c-0.31,1.37-0.71,2.75-0.86,4.16
		c0.9,2.15,2.74,3.7,4.24,5.43c-0.46,2.38-0.86,4.81-0.76,7.25c0.8,1.08,1.6,2.16,2.56,3.11c5.37,0.58,10.77-0.99,16.14-0.09
		c6.09,1.04,12.3,0.87,18.42,0.28c-6.56,1.25-13.22,1.72-19.89,1.68c-0.02,0.57-0.04,1.7-0.06,2.27c3.31,0.26,6.62,0.53,9.94,0.51
		c-8.56,1.52-17.27,1.17-25.89,1.97c-1.85-0.15-3.69-0.38-5.53-0.6c-0.11-0.54-0.34-1.62-0.45-2.16c2.86-4.43,0.73-9.54-0.11-14.22
		c-2.71-0.43-5.43-0.85-8.15-1.29v-3.3C4.83,276.75,9.25,273.17,13.96,270z"/>
	<path fill="#560706" d="M141.84,278.02c2.62-1.03,5.32-1.89,8.1-2.38c2.3,0.08,4.58,0.36,6.87,0.63c-3.17,3-7.68,3.08-11.66,4.16
		c-4.05,0.93-7.97,2.56-12.16,2.82c-2.88,0.3-5.19-1.72-7.49-3.12c1.84,0.04,3.67,0.11,5.5,0.17h0.9
		C135.37,280.49,138.7,279.37,141.84,278.02z"/>
	<path fill="#560706" d="M70.63,282.77c3.06-0.38,6.08-1.21,9.17-1.27c3.37,0.67,6.46,2.83,10.03,2.38
		c7.09-0.6,14.36-2.35,21.35-0.03c2.37,3.62,6.85,4.09,10.82,3.83c15.85-1.24,31.79,0.32,47.62-1.34c3.9-0.57,7.46,1.32,10.83,2.99
		c-8.39,0.33-16.79,0.69-25.19,0.33c-7.14-0.06-14.29,1.52-21.41,0.4c-6.01-1.11-12.05,0.3-18.06,0.55
		c-5.05,0.33-9.96-1.65-15.02-1.03c-5.91,0.19-12,2.19-17.78,0.13c-0.36-0.09-1.07-0.28-1.42-0.37c-4.05-1.19-8.3-0.88-12.44-1.38
		c-2.28-0.25-3.85-2.13-5.56-3.45c2.07-0.59,4.14-1.17,6.25-1.61L70.63,282.77z"/>
	<path fill="#560706" d="M317.51,281.16c8.83-0.57,17.65-2.21,26.52-1.48c1.98,0.05,3.41,1.57,4.94,2.63
		c-5.37,0.82-10.8,1.57-16.24,1.06c-8.49-0.74-16.99,2.64-25.37,0.35C310.5,282.07,313.99,281.34,317.51,281.16z"/>
	<path fill="#560706" d="M49.22,288.76c2.28-0.67,4.58-2.05,7.03-1.42c4.42,0.97,8.53,2.95,12.87,4.16c0.55,0.17,1.64,0.5,2.18,0.67
		c2.97,1.03,5.48,2.98,7.52,5.34c-12.31,0.9-24.63,2.04-36.99,1.67c7.66-1.95,15.57-1.25,23.37-1.08c-0.76-0.67-1.53-1.32-2.31-1.94
		c0.51-0.41,1.53-1.22,2.04-1.63C60.42,290.93,54.83,289.51,49.22,288.76z"/>
	<path fill="#7E0203" d="M243.69,77.35c1.71-0.85,3.49-1.53,5.28-2.21c0.6,2.24,0.7,4.79,2.22,6.66c3.41,3.59,8.4,5.62,10.93,10.05
		c1.66,3.48,0.67,7.54,1.95,11.11c1.05,1.88,3.46,1.28,5.23,1.41c0.85,0.52,1.72,1.01,2.57,1.54c-0.57,0.03-1.7,0.08-2.27,0.11
		c1.2,2.5,2.44,4.98,3.77,7.43c-0.5,1.41-0.83,2.87-1.17,4.33c-1.06,0.47-2.13,0.95-3.2,1.4c-0.96,0.4-1.93,0.78-2.89,1.16
		c2.81,3.58,4.9,7.65,6.27,11.98c-3.26-0.67-6.68-1.68-9.94-0.46c-1.31,0.59-2.58,1.25-3.88,1.83c-0.96,0.38-1.91,0.76-2.87,1.12
		c1.15,6.04,5.29,11.84,11.51,13.29c1.67,0.48,3.43,0.02,4.72-1.11c2.87-2.22,5.46-4.78,8.22-7.14c0.21,2.9,0.64,5.78,1.31,8.61
		c0.11,0.65,0.22,1.3,0.34,1.96c-1.82,2.34-2.34,5.24-2.83,8.08c-0.36,2.91-3.85,3.59-6.25,3.87c-3.93,0.59-8.26-0.61-11.9,1.27
		c-3.24,3.13-4.75,7.87-4.84,12.29c0.73,4.8,3.76,8.81,5.67,13.18c2.75,6.16,7.16,11.87,7.42,18.87c0.39,7.59,0.15,15.25-0.84,22.79
		c-0.31,2.98-1.6,6.33,0.36,9.03c0.65,0.92,1.35,1.81,2.03,2.72c-0.34,3.86-0.37,7.98-2.7,11.29c-2.2,3.3-4.4,7.18-2.31,11.13
		c0.1,0.36,0.31,1.08,0.42,1.44c-1.07,0.03-2.13,0.06-3.19,0.09c-0.2,0.97-0.39,1.94-0.59,2.91c-0.53-0.1-1.6-0.28-2.14-0.38
		c-0.03,0.72-0.09,2.16-0.12,2.87c4.15,1.07,8.18,2.58,11.87,4.78c-0.13-1.64-0.27-3.28-0.39-4.92c1.07,2.11,2.15,4.23,3.21,6.36
		c0.48-1.3,0.96-2.6,1.49-3.88c0.69,0.65,1.39,1.28,2.11,1.91c2.78,2.82,6.86,2.71,10.52,2.71c-0.02,1.18-0.04,2.36-0.06,3.55
		c-8.97-0.47-17.88,0.74-26.76,1.81c-7.64,1.16-15.96-1.41-22.9,3c-2.34,0.29-4.71,0.24-7.06,0.15c0.16-0.72,0.48-2.15,0.64-2.86
		c-8.59-0.03-17.36,0.52-25.53,3.36c-8.88,0.68-17.76,1.38-26.67,1.49c-3.37-1.67-6.93-3.56-10.83-2.99
		c-15.83,1.66-31.77,0.1-47.62,1.34c-3.97,0.26-8.45-0.21-10.82-3.83c3.28-2.46,7.71-4.39,8.58-8.85c0.56,2.69,3.05,3.99,5.18,5.29
		c-0.45-1.63-0.93-3.25-1.41-4.87c2.35-0.2,4.69-0.41,7.04-0.63c-0.72-1.68-1.45-3.35-2.19-5.01c0.72-0.7,1.43-1.4,2.13-2.11
		c0.28-0.3,0.84-0.9,1.12-1.2c0.31,0.29,0.94,0.87,1.25,1.15c-0.44,0.14-1.32,0.41-1.76,0.55c0.91,1.69,1.91,3.33,2.91,4.97
		c0.84,0,2.53-0.01,3.37-0.01c-0.66-1.03-1.31-2.07-2.01-3.06c1-0.47,1.99-0.94,2.97-1.45c1.25,1.91,2.52,3.82,3.81,5.73
		c-1.04,0.77-2.07,1.56-3.09,2.36c0.91,0.43,1.84,0.87,2.76,1.31c-3.14,1.35-6.47,2.47-9.94,2.28c0.7-0.37,2.1-1.11,2.8-1.48
		c-2.55-1.47-5.32-2.53-8.23-3.01c0.61,2.26,2.39,3.72,4.53,4.49c-1.83-0.06-3.66-0.13-5.5-0.17c2.3,1.4,4.61,3.42,7.49,3.12
		c4.19-0.26,8.11-1.89,12.16-2.82c3.98-1.08,8.49-1.16,11.66-4.16c-2.29-0.27-4.57-0.55-6.87-0.63c2.67-0.49,5.36-0.84,8.04-1.25
		c-1.75-3.6-3.67-7.18-4.51-11.13c1.15,0.25,2.31,0.51,3.46,0.76c-0.46-5.5,1.37-10.71,3.54-15.66c-1.23,0.33-2.45,0.67-3.68,1
		c-0.62-0.57-1.25-1.14-1.87-1.71c2.88-2.58,6.31-5.37,6.61-9.52l0.12-0.75c2.28-7.78,6.71-14.71,12.67-20.18
		c0,1.3-0.01,2.59-0.01,3.89c1.04-0.25,2.09-0.51,3.13-0.77c3.88-0.84,7.57-2.7,10.08-5.85c0.3-1.77,0.54-3.56,0.79-5.34
		c-1.59-0.01-3.18-0.02-4.76,0.02c-2.56,0.1-5.05,0.72-7.5,1.43c-0.31-2.6-0.64-5.34-2.07-7.6c-1.07-0.89-2.6-0.72-3.9-0.92
		c-0.38,0.04-1.14,0.11-1.52,0.14c-5.2-0.08-7.76,5.44-12.05,7.49c-2.36,1.85-5.19,0.4-7.66-0.29c-2.65-0.92-5.46-1-8.23-0.95
		c0.01-0.49,0.02-1.47,0.03-1.96c1.05-2.46,1.93-5.14,3.81-7.12c3.66-2.08,8.32-2.34,11.33-5.54c7.33-7.07,13.7-16.83,12.68-27.4
		c0.1-1.01,0.13-2.03,0.12-3.05c-0.24-1.87-0.6-3.72-0.97-5.57c1.03-0.61,2.06-1.22,3.1-1.83c0.77,0.65,1.54,1.28,2.32,1.92
		c1.51,2.97,3.07,7.15,6.91,7.44c3.76,0.13,4.1-4.25,5.19-6.88c3.16,0.84,6.38,2.14,9.7,1.71c2.44-0.86,3.79-3.31,5.54-5.07
		c1.1-0.76,2.21-1.52,3.36-2.21c-0.07,0.61-0.19,1.83-0.26,2.44c1.97-0.52,3.94-1.01,5.89-1.57c-1.02-0.82-2.15-1.47-3.3-2.08
		c3.61-1.42,7.29-2.65,11.06-3.54c1.14-3.31,2.55-6.58,4.64-9.42c0.55-0.43,1.64-1.29,2.19-1.72c0.69-2.55,0.78-5.43,2.36-7.63
		c3.07-2.49,6.94-3.98,9.4-7.22c-1.54-0.15-3.09-0.26-4.64-0.34c1.33-0.82,2.62-1.71,3.72-2.82c2.45-4.74,0.1-9.94-1.41-14.56
		c-0.56-2.04-1.85-4.18-1.15-6.34c2.45-6.26,6.04-12.36,11.79-16.13c-0.68-0.77-1.35-1.55-2.02-2.32
		C242.56,78.87,243.1,78.09,243.69,77.35 M250.88,102.49c2.79-1.07,4.92-3.18,6.33-5.78C253.66,96.57,252.05,99.68,250.88,102.49
		 M241.08,104.54c-1.25,2-3.3,3.86-3.3,6.37c0.53,1.52,1.34,2.94,2.08,4.38c0.89-0.07,2.68-0.19,3.58-0.25
		c-0.69-1.88-1.37-3.76-2.08-5.63c1.41,0.15,2.83,0.28,4.25,0.4C244.87,107.47,243.06,105.85,241.08,104.54 M227.11,158.2
		c-0.83,2.79-0.8,5.84-0.03,8.64c1.51,1.56,3.64,2.29,5.53,3.28c-0.14-0.38-0.44-1.15-0.59-1.53c0.54-0.71,1.61-2.13,2.15-2.84
		c0.17,0.79,0.52,2.37,0.69,3.16c3.44-2.94,3.08-8.15,0.95-11.74C233.59,154.32,229.2,156.05,227.11,158.2 M213.58,160.55
		c-0.77,1.93-0.86,4.05-1.18,6.08c-3,1.62-6.07,3.11-9.13,4.61c0.59,0.89,1.24,1.74,1.94,2.55c-0.85,0.1-2.56,0.29-3.42,0.39
		c2.15,1.9,4.93,2.72,7.43,4c0.29,4.53-4.91,7.25-5.31,11.84c1.08-0.35,2.14-0.76,3.17-1.22c0.07,0.73,0.22,2.2,0.29,2.93
		c-1.52,0.78-3.04,1.57-4.56,2.35c-1.82-0.54-3.63-1.08-5.44-1.61c-1.06,1.43-2.13,2.86-3.21,4.27c0.33-0.01,1.01-0.05,1.35-0.07
		c0.74,2.91,3.33,5.2,6.28,5.66c0.09,1.03,0.26,3.1,0.35,4.13c1.08-0.58,2.94-0.29,3.46-1.6c-0.06,1.29-0.22,2.63,0.14,3.9
		c-1.3-0.13-2.59-0.26-3.88-0.39c1.07,1.52,2.14,3.04,3.21,4.58c-1.49,2.04-2.87,4.17-4,6.44l0.81-0.39
		c0.25,1.73,0.46,3.47,0.91,5.16c-0.47-0.18-1.4-0.56-1.87-0.74c0.45,5.52,0.79,11.05,0.78,16.6c0.21,1.91-0.37,5.02,2.56,4.55
		c-1.35,2.38,0.29,5.13,0.31,7.67c0.21,5.98,0.77,12.01,2.68,17.73c1.26-0.34,2.55-0.62,3.77-1.09c-1.1,1.92-2,3.95-2.95,5.95
		c0.76,0.09,2.29,0.29,3.05,0.38c-1.1,0.93-2.21,1.85-3.3,2.79c5.36,0.84,10.82,0.66,16.2,0.16l-0.17-0.83
		c1.44-1.15,2.83-2.38,4.14-3.68c-0.95-0.62-1.89-1.25-2.83-1.89c0.2-4.78,2.09-10.21-1.45-14.27c0.09-0.52,0.28-1.55,0.38-2.06
		c1.26-3.36-2.17-5.47-3.37-8.2c0.24-2.21,1.01-4.32,1.6-6.45c2.18-4.5-0.5-9.4-0.8-14.05c-1.14-5.36,1.43-10.44,1.86-15.7
		c0.39-3.86,0.71-7.81,2.29-11.4c1.87-4.64,5.31-8.5,6.89-13.27c0.89-2.16-0.8-4.15-1.56-6.06l-0.31,0.89
		c-0.82,0.08-2.45,0.25-3.27,0.34c0.05-0.88,0.09-1.75,0.15-2.62c-3.06-0.03-6.08-0.52-9.02-1.31c-1.15-6.1,0.86-12.26-0.07-18.4
		C216.8,159.32,214.72,158.96,213.58,160.55 M178.1,170c-0.21,0.28-0.62,0.85-0.82,1.14C178.12,174.28,181.43,169.46,178.1,170
		 M246.47,236.35c-0.25,1.96-0.49,3.91-0.72,5.88c1.32-0.25,2.65-0.5,3.97-0.74c-0.01-1.7-0.03-3.39-0.06-5.08
		C248.59,236.39,247.53,236.37,246.47,236.35 M173.16,260.57c0.76,0.19,2.29,0.59,3.05,0.79c-0.87,1.57,0.9,2.64,1.64,3.83
		c-0.36,1.71-1.89,3.55-1.19,5.28c2.1,1.78,4.87,0.44,6.73-0.98l-0.52-1.06c0.49-0.02,1.48-0.06,1.98-0.08
		c-0.72-3.76-2.06-7.68-0.84-11.49c1.53-5.35,3.75-10.56,4.07-16.18c-0.54,0.39-1.61,1.17-2.15,1.56c0.05-0.59,0.15-1.76,0.21-2.35
		c-2.05,0.53-3.42,2.14-4.1,4.08c0.81-1.65-0.31-3.32-0.79-4.87C177.14,245.58,174.46,253.01,173.16,260.57 M241.65,250.41
		c2.02,0.4,4.05,0.76,6.09,1.1l0.27,0.68c-1.57,0.06-3.13,0.12-4.69,0.18c-2.96,4.46-2.89,9.73-2.4,14.84
		c-0.35,4.75,5.34,5.1,8.68,6.23c1.76-4.36,4.94-8.66,3.97-13.6c-0.38-4.45-2.58-9.01-6.76-11.03
		C244.9,248.13,243.27,249.67,241.65,250.41 M192.02,254.61c0.5,0.53,1.49,1.58,1.99,2.11c1.28-2.04,0.97-4.25-0.02-6.32
		C193.09,251.63,190.87,252.84,192.02,254.61 M202.16,267.12c-0.52,1.62,0.03,2.17,1.66,1.65
		C204.34,267.14,203.78,266.59,202.16,267.12 M188.09,275.36c0.07,1.39,0.52,2.72,0.89,4.06c2.8-1.93,4.45-4.92,5.47-8.09
		C192.23,272.51,189.98,273.68,188.09,275.36 M202.59,278.31c1.73-0.63,3.43-1.35,5.07-2.2c-0.69-0.2-2.05-0.59-2.73-0.79
		C203.03,274.81,203.17,277.17,202.59,278.31 M181.66,275.67c0.19,2.3,0.95,4.42,3.57,4.63
		C185.68,277.7,184.13,276.09,181.66,275.67z"/>
	<path fill="#7E0203" d="M158.96,79.92c4.87-2.09,10.45-2.59,15.69-1.94c4.74,0.59,7.17,5.49,8.03,9.68
		c1.31,5.16-2.74,9.58-6.41,12.59c-3.73,3.31-9.32,2.18-13.25-0.11c-2.99-2.47-4.94-5.99-8.09-8.32c-0.08-0.43-0.24-1.29-0.32-1.72
		C156.35,86.83,157.28,83.21,158.96,79.92z"/>
	<path fill="#7E0203" d="M320.76,108.61c2.06-1.57,4.31-0.03,6.34,0.76c-0.38,1.96-0.75,3.91-1.1,5.87
		c1.44-1.07,2.87-2.13,4.25-3.28c1.61,2,3.21,4.02,4.8,6.05c0.28-1.75,0.56-3.49,0.79-5.24c0.66,0.87,1.33,1.74,2.01,2.59
		c0.85-0.85,1.7-1.7,2.56-2.56c3.51,0.87,7.25,1.39,10.34,3.41c3.07,2.29,3.98,6.25,5.26,9.66c-1.49,1.07-2.97,2.14-4.44,3.22
		c-1.21-0.7-2.38-2.35-3.92-1.54c-3.07,0.51-2.73,4.08-2.78,6.45c-0.5-2.03-1.1-4.04-1.64-6.05c-0.31,4.98-2.8,9.26-5.52,13.28
		c-0.41,1.19-0.76,2.41-1.1,3.62c-2.54-2.31-4.69-4.99-6.81-7.67c-1.28-1.72-2.64-3.37-3.97-5.05l-0.42-0.55
		c-0.32-0.48-0.96-1.45-1.28-1.94c-0.62-1.11-1.2-2.24-1.8-3.36c-0.87-2.2-2.68-3.64-5.03-3.97l-0.35,1.11
		c-0.46,1.84-0.82,3.72-1.02,5.61c0.55,1.21,1.15,2.4,1.72,3.6c0.45,1.01,0.9,2.02,1.35,3.03c0.26,0.56,0.76,1.66,1.01,2.21
		c-2.32-0.97-4.69-1.81-7.05-2.65c-0.21-0.35-0.61-1.06-0.81-1.41c1.1-4.4-2.06-8.42-1.61-12.81
		C310.79,115.11,316.07,111.24,320.76,108.61 M330.85,116.83c-1.13,1.68-1.88,3.56-2.17,5.57c2.27-0.47,3.6-2.23,4.57-4.19
		C332.65,117.87,331.45,117.18,330.85,116.83z"/>
	<path fill="#7E0203" d="M38.41,117.45c5.8-1.47,12.63-2.36,17.64,1.7c-0.51,2.51-0.98,5.03-1.43,7.55c1.34,0.76,2.69,1.53,4.03,2.3
		c-0.12,0.31-0.36,0.94-0.48,1.26c-0.56,0.19-1.68,0.58-2.24,0.77c-1.81-2.74-2.9-5.85-4.54-8.68c-2.37-1.17-3.9,1.48-5.16,3.06
		c-1.5,1.97-1.84,4.51-1.69,6.92c0.45,2.03,1.01,4.04,1.58,6.05c-2.25-2.99-4.93-6.57-9.1-6.45c-4.26-0.07-8.51-0.93-11.98-3.53
		c0.56-1.44,1.14-2.86,1.68-4.29c0.38,0.44,1.14,1.33,1.52,1.78C31.26,122.71,34.01,118.76,38.41,117.45z"/>
	<path fill="#7E0203" d="M16.26,123.46c2.16,1.29,4.29,2.62,6.42,3.96c-0.37,1.03-0.77,2.04-1.2,3.03l-0.36,0.77
		c-0.07-0.51-0.21-1.52-0.28-2.02c-1.78,1.16-3.54,2.36-5.38,3.42c-0.57,0.17-1.72,0.51-2.3,0.68
		C14.16,130.01,15.17,126.72,16.26,123.46z"/>
	<path fill="#7E0203" d="M50.11,139.63c0.98-0.8,1.96-1.61,2.95-2.41c1.11,5.05-2.77,9.58-1.23,14.55c2.01-1.74,3.7-3.8,5.01-6.11
		c3.2,3.25,8.09,6.76,6.49,11.99c-2.12,5.05-0.24,10.47-0.74,15.71c-0.29,5.47-2.3,11.19,0.08,16.46c0.35,0.77,0.74,1.52,1.14,2.26
		c-2.21,1.88-2.71,4.67-2.68,7.41c-0.41,0.21-1.23,0.64-1.63,0.85c-0.15,0.96-0.29,1.93-0.43,2.89c-0.38,0.33-1.13,0.97-1.51,1.3
		c1.52,1.08,2.99,2.28,4.7,3.07c1.58-0.22,3.06-0.83,4.54-1.38c-0.25,0.81-0.5,1.63-0.75,2.45c0.93,0.59,1.86,1.2,2.79,1.8
		c-0.34,0.83-0.68,1.66-1.02,2.5c1.24-0.2,2.49-0.4,3.74-0.6c0.01,1.68,0.13,3.36,0.22,5.04c-2.16-1.18-4.23-0.04-6.06,1.21
		c0-0.99,0-2.98,0-3.98c-1.79,0.61-3.58,1.23-5.35,1.87c-0.8,0.28-1.59,0.55-2.38,0.83c-1.36-1.63-2.58-3.42-4.29-4.7
		c-2.15-0.68-4.45-0.43-6.67-0.49c-0.34,3.74-0.14,7.5-0.25,11.25c-2.75-1.47-5.5-2.93-8.26-4.39c-3.02,1.54-4.78,4.44-6.04,7.47
		c-1.33-0.88-2.71-1.69-4.08-2.51c0.63-3.96,1.68-7.85,3.14-11.59c-1.21,0.02-2.43,0.05-3.64,0.07c-0.53-0.81-1.06-1.61-1.6-2.41
		c0.96-0.32,1.92-0.63,2.88-0.94c0.15-0.47,0.44-1.4,0.59-1.87c-1.19-0.83-2.37-1.66-3.59-2.44c1.18,0.09,2.36,0.17,3.54,0.23
		c0.14-2.11,0.28-4.22,0.44-6.32c0.41,2,0.92,3.98,1.41,5.96c0.44-0.06,1.32-0.19,1.76-0.25c0.14-4.4,0.38-8.89-0.94-13.15
		c-0.1-0.32-0.31-0.95-0.41-1.27c1.15,0.14,2.32,0.27,3.48,0.39c-1.8-1.85-4.15-3.36-5.27-5.74c-0.41-3.23,0.37-6.51-0.21-9.72
		c-1.28-4.89-5.54-8.67-5.86-13.84c0.74-2.7,2.71-4.81,4.3-7.03c-0.55-0.88-1.1-1.74-1.65-2.61c2.19-3.25,5.72-5.44,9.73-4.96
		c1.51-0.08,3.06-0.02,4.53-0.44c2.75-1.27,4.18-4.15,5.34-6.78c0.7,0.56,1.4,1.13,2.11,1.69C48.89,140.62,49.7,139.96,50.11,139.63
		 M45.09,151.52c-1.33,0.95,0.29,3.18,1.59,2.13C48.01,152.69,46.38,150.47,45.09,151.52 M33.5,163.16
		c1.98,0.46,3.97,0.89,5.98,1.27c-0.22-2-0.9-3.85-2.35-5.27C35.9,160.48,34.69,161.81,33.5,163.16 M36.18,168.23
		c-0.52,1.63,0.03,2.18,1.66,1.66C38.36,168.27,37.81,167.71,36.18,168.23 M45.19,176.18c-0.53,1.62,0.03,2.18,1.65,1.66
		C47.37,176.21,46.82,175.66,45.19,176.18 M48.88,182.31c1.04,1.13,2.11,2.25,3.18,3.36c1.5-1.47,2.56-3.27,3.04-5.31
		c-0.78-0.14-2.32-0.43-3.1-0.57C50.96,180.63,49.92,181.47,48.88,182.31 M32.62,208.48c2.13-0.47,3.65-1.91,4.7-3.76
		C34.75,204.72,32.57,205.53,32.62,208.48 M48.39,207.1c0.97,2.07,2.58,3.41,4.97,3.32C53.59,207.44,50.44,207.63,48.39,207.1z"/>
	<path fill="#7E0203" d="M323.25,143c1.07,1.23,2.24,2.37,3.42,3.5c-0.55,0.53-1.1,1.05-1.63,1.58c0.42,0.14,1.28,0.41,1.7,0.55
		c1.96-0.81,3.89-1.83,6.01-2.15c3.46,1.63,6.34,4.23,9.52,6.32c2.09,1.62,5.13,3.17,4.99,6.25c0.1,5.62-0.9,11.19-1.08,16.8
		c0.98-0.22,1.96-0.44,2.95-0.66c-0.22,1.12-0.46,2.25-0.69,3.37c-3.86-0.89-7.81-1.25-11.76-1.23c-0.09,0.49-0.28,1.48-0.38,1.98
		c1.17,0.11,2.34,0.25,3.51,0.4c-0.83,1.92-1.61,3.86-2.4,5.8c-0.54,0.14-1.61,0.42-2.14,0.56c-0.28-1.62-0.54-3.24-0.8-4.86
		c-0.61,0.29-1.22,0.58-1.82,0.88c-0.45-0.99-0.88-1.97-1.33-2.95c-4.41,2.86-8.59,7.85-14.41,6.58c0.7-1.6,1.4-3.2,2.17-4.77
		c0.81-0.7,1.62-1.4,2.4-2.13c2.07-3.16-0.67-6.23-2.57-8.64c-3.5-4.11-7.01-8.22-10.08-12.66c-1.02,0.25-2.04,0.5-3.05,0.75
		l-0.27-0.75c1.06-2.13,1.94-4.54,3.81-6.12c3.4-0.96,7.01-0.25,10.49-0.24c-0.04-1.1-0.07-2.19-0.08-3.29
		c0.01-0.99,0.03-1.99,0.07-2.98c0.71,0.69,1.42,1.38,2.15,2.06C322.38,145.63,322.81,144.32,323.25,143 M320.1,160.51
		c-1.32,0.95,0.26,3.2,1.57,2.15C322.99,161.72,321.4,159.47,320.1,160.51z"/>
	<path fill="#7E0203" d="M109.6,211.03c3.53-1.3,7.09-2.5,10.69-3.61c0.53,0.54,1.06,1.09,1.57,1.65c-0.59,1.28-2.32,2.64-1.07,4.07
		c2.47,4.24,4.62,8.68,5.65,13.52c0.93,0.02,1.86,0.05,2.79,0.07c0.08,1.17,0.15,2.35,0.29,3.52c-0.68,0.08-2.03,0.24-2.7,0.32
		c0.89,10.18,3.79,20.93-0.9,30.66c-0.9-0.82-1.82-1.58-2.74-2.35c-0.9,1.26-1.81,2.52-2.71,3.78c0.37-2.7,2.59-4.51,4.34-6.38
		c-2.14,0.39-4.29,0.75-6.43,1.12c-0.51-3.51-0.93-7.05-1.96-10.46c-1.21-0.64-2.48-1.18-3.74-1.71c0.76-2.86,1.46-5.73,2.15-8.61
		c-0.98-0.02-1.96-0.04-2.93-0.06c-0.34-0.86-0.67-1.72-0.98-2.58c-0.63-2.95-0.43-5.98-0.44-8.97
		C110.47,220.33,109.77,215.7,109.6,211.03z"/>
	<path fill="#7E0203" d="M334.38,214.37c0.43,0.13,1.27,0.41,1.69,0.54c0.87,4.67,1.97,9.46,0.91,14.2
		c-1.84,8.92-4.41,17.71-7.67,26.22c-0.79,2.02-0.99,4.2-1.14,6.35c0.86-0.79,1.7-1.58,2.54-2.39c1.03,1.2,2.09,2.38,3.22,3.5
		c3.09,2.72,5.84,5.88,7.17,9.85c-2.63,0.88-5.24,1.82-7.82,2.84c3.09,1.92,6.88,2.63,10.38,1.41c1.73-0.36,1.9-2.34,2.61-3.64
		c1.81-0.62,3.64-1.43,5.6-1.39c1.95,0.61,3.64,1.79,5.39,2.82c0.4-0.45,1.2-1.35,1.59-1.8c1.06,3.37-0.72,6.52-2.52,9.24
		c-2.45,0.14-4.91,0.08-7.36,0.19c-1.53-1.06-2.96-2.58-4.94-2.63c-8.87-0.73-17.69,0.91-26.52,1.48
		c-3.52,0.18-7.01,0.91-10.15,2.56c-0.92-0.19-1.85-0.36-2.77-0.52c-3.03-1.96-5.63-4.49-7.91-7.28c0.38-0.07,1.16-0.21,1.54-0.28
		c2.76,0.88,5.7,1.27,8.29-0.36c0.84,0.06,1.69,0.08,2.54,0.07c1.22-0.05,2.45-0.15,3.67-0.24c4.96-0.29,9.92-0.97,14.63-2.6
		c-0.81-0.85-1.61-1.69-2.42-2.53c0.83-0.17,2.48-0.51,3.3-0.68c-2.71-1.19-5.52-2.17-8.07-3.69c0.39-4.22,1.29-8.44,0.59-12.69
		c-0.19,0.44-0.56,1.3-0.75,1.73c-0.05-0.53-0.14-1.58-0.19-2.1c-0.02-3.57-0.33-7.13-0.73-10.67c-0.48-4.07,1.07-7.96,2.25-11.77
		c1.47-4.42,2.48-8.97,3.47-13.51C328.05,216.09,331.27,215.41,334.38,214.37z"/>
	<path fill="#7E0203" d="M53.99,221.12c2.59-0.64,5.2-1.23,7.8-1.82c1.41,2.89,2.84,5.78,3.89,8.82c-0.09,0.65-0.29,1.95-0.39,2.6
		c-1.14,4.05-1.95,8.19-2.08,12.41c1.21-0.57,2.42-1.14,3.64-1.69c-0.41,2.32-1.15,4.62-1.15,7c1.09,1.02,2.36,1.84,3.58,2.71
		c0.14,1.36,0.36,2.76,0.05,4.12c-1.62,1.93-3.85,3.22-5.54,5.09c-0.14,4.77,5.04,7.25,7.41,10.85c0.27,2.34,3.82,2.31,2.85-0.31
		l-0.12-0.65c1.38,2.68-1.24,4.9-2.4,7.08c0.45,0.07,1.36,0.2,1.82,0.27c-1.59,0.7-3.15,1.47-4.75,2.16
		c-1.81,0.75-3.69,1.33-5.58,1.88c0.88-1.85,1.82-3.68,2.78-5.49c-2.43-1.21-5.12-2.05-7.76-0.97c0.52,1.43,1.04,2.87,1.58,4.31
		c-1.05,1.16-2.09,2.32-3.12,3.5c4.39,0.97,8.91,0.56,13.32-0.09c-2.11,0.44-4.18,1.02-6.25,1.61c1.71,1.32,3.28,3.2,5.56,3.45
		c4.14,0.5,8.39,0.19,12.44,1.38c-4.85-0.92-9.82-0.63-14.71-0.4c0.75,0.85,1.5,1.71,2.26,2.56c-4.34-1.21-8.45-3.19-12.87-4.16
		c-2.45-0.63-4.75,0.75-7.03,1.42c-2.76,0.08-5.53,0.15-8.28,0.34c0.81-0.88,1.63-1.75,2.46-2.62c-0.2-1.13-0.39-2.26-0.59-3.38
		c-0.14-0.86-0.28-1.71-0.43-2.55c-1.28-0.33-2.56-0.64-3.82-1.02c1.15-2.63,2.09-5.35,2.86-8.11c-4.17,1.28-7,4.63-9.61,7.93
		c0.22,0.63,0.65,1.89,0.87,2.52c-2.01,3.09-4.96,5.84-8.84,6.03c-2.67,0.7-4-2.13-5.56-3.68c0.74-0.36,2.21-1.07,2.95-1.43
		c-0.14-0.47-0.42-1.41-0.56-1.88c-3.95-1.08-7.16-3.63-10.27-6.16c4.75-0.86,9.58-1.04,14.4-0.96l0.77,0.13
		c0.73-4.16,2.08-8.29,4.86-11.56c1.66-1.99,3.46-3.84,5.23-5.72c1.47,0.1,2.94,0.21,4.41,0.32c-1.25-2.76-2.48-5.53-3.66-8.33
		c1.53,1.52,3.07,3.03,4.49,4.66c0.86,1.14,1.72,2.29,2.57,3.44c-0.18,2.57-0.89,5.26-0.11,7.78c1.21,2.05,3.07,3.59,4.74,5.25
		c1.25-2.15,3.02-4.18,3.45-6.69c-0.82-2.26-2.17-4.26-3.21-6.42c-2.61-5.88-5.86-11.74-5.59-18.39c-1.34,0.57-2.68,1.14-4.03,1.7
		c-0.61-0.24-1.85-0.71-2.46-0.95c4.07-3.14,8.98-4.82,13.39-7.38c1.76-0.87,1.87-3.02,2.26-4.7c-0.45-1.64-0.99-3.26-1.4-4.92
		C51.67,221.71,52.83,221.41,53.99,221.12 M49.5,241.03c0.81,3.24,4.01,4.45,6.7,5.74c-1.02-2-2.1-3.98-3.16-5.96
		C52.15,240.87,50.39,240.98,49.5,241.03z"/>
	<path fill="#7E0203" d="M349.36,222.8c3.88-0.3,7.72-1.02,11.44-2.17c3.2,5.65,2.08,12.33,4.02,18.34
		c1.59,5.17,2.8,10.44,3.67,15.77c2.19,0.75,4.4,1.47,6.64,2.11c0.79,0.95,1.58,1.9,2.39,2.86c-4.25,1.79-8.66,3.15-13.15,4.19
		c-2.27-5.71-3.06-12.25-7.4-16.9c-4.53-4.88-7.51-10.88-11.28-16.3c0.06-0.36,0.18-1.08,0.24-1.44
		C346.99,227.06,348.18,224.93,349.36,222.8z"/>
	<path fill="#EA9A95" d="M250.88,102.49c1.17-2.81,2.78-5.92,6.33-5.78C255.8,99.31,253.67,101.42,250.88,102.49z"/>
	<path fill="#EA9A95" d="M335.89,111.81c1.5,0.33,3.01,0.66,4.52,0.99c-0.86,0.86-1.71,1.71-2.56,2.56
		c-0.68-0.85-1.35-1.72-2.01-2.59L335.89,111.81z"/>
	<path fill="#EA9A95" d="M159.24,130.15c0.77-3.5-0.4-8.49,3.23-10.63c-0.08,4.11,2.81,7.03,5.67,9.56
		c-1.78,1.3-3.55,2.62-5.32,3.95c0.13-2.34,0.26-4.68,0.36-7.03c-0.69,0.13-2.07,0.38-2.76,0.5
		C160.02,127.71,159.61,128.93,159.24,130.15z"/>
	<path fill="#EA9A95" d="M55.85,123.94c0.84-0.02,2.53-0.07,3.37-0.09c0,0.83-0.02,2.49-0.02,3.31c-0.83-0.01-2.5-0.05-3.33-0.07
		C55.87,126.3,55.85,124.73,55.85,123.94z"/>
	<path fill="#EA9A95" d="M322.47,133.89c-0.5-1.65,1.66-2.4,2.94-2.31l0.42,0.55C325.78,133.65,323.67,135.49,322.47,133.89z"/>
	<path fill="#EA9A95" d="M175.36,141.12c1.57,0.27,3.14,0.55,4.72,0.84c0.01,0.88,0.03,2.65,0.03,3.53
		C177.64,145.07,175.93,143.57,175.36,141.12z"/>
	<path fill="#EA9A95" d="M182.86,149.45c1.6,0.01,3.19,0.02,4.79,0.11c0.8,2.22,1.58,4.44,2.36,6.67c-2.47-1.57-4.92-3.16-7.48-4.57
		C182.61,151.1,182.78,150,182.86,149.45z"/>
	<path fill="#EA9A95" d="M178.21,159.41c1.31-1.46,3.61,0.82,2.15,2.14C179.04,163.03,176.73,160.74,178.21,159.41z"/>
	<path fill="#EA9A95" d="M320.1,160.51c1.3-1.04,2.89,1.21,1.57,2.15C320.36,163.71,318.78,161.46,320.1,160.51z"/>
	<path fill="#EA9A95" d="M36.18,168.23c1.63-0.52,2.18,0.04,1.66,1.66C36.21,170.41,35.66,169.86,36.18,168.23z"/>
	<path fill="#EA9A95" d="M207.45,188.55c-0.05-2.24,1.17-4.67,3.75-4.46C210.43,185.92,209.15,187.51,207.45,188.55z"/>
	<path fill="#EA9A95" d="M318.97,205.35c0.22-4.09,0.24-8.22,1.07-12.25c0.53,0.73,1.06,1.47,1.61,2.21
		c-0.36,2.88-0.52,5.79-0.46,8.7C320.64,204.35,319.52,205.02,318.97,205.35z"/>
	<path fill="#EA9A95" d="M93.68,196.41c0.47-0.54,0.93-1.08,1.38-1.62c0.5,1.72,0.98,3.45,1.42,5.19l0.18,0.77
		c0.27,1.9,0.48,3.8,0.83,5.68c0.64,2.65,1.52,5.24,2.59,7.75l0.3,0.67c-1.69-0.51-3.37-1.04-5.08-1.43
		c0.17-2.23,0.32-4.46,0.46-6.68c-1.62-0.27-3.25-0.54-4.88-0.79c0-0.41-0.02-1.22-0.03-1.63
		C92.24,201.85,95.95,199.46,93.68,196.41z"/>
	<path fill="#EA9A95" d="M60.37,216.51c1.77-0.64,3.56-1.26,5.35-1.87c0,1,0,2.99,0,3.98C63.83,218.21,62.04,217.47,60.37,216.51z"
		/>
	<path fill="#EA9A95" d="M49.92,218.42c1.73-0.24,3.46-0.46,5.19-0.69c-0.37,1.13-0.75,2.26-1.12,3.39
		c-1.16,0.29-2.32,0.59-3.48,0.89C50.28,220.82,50.1,219.61,49.92,218.42z"/>
	<path fill="#EA9A95" d="M63.21,243.13c0.13-4.22,0.94-8.36,2.08-12.41c0.72,6.92,3.22,13.51,3.99,20.43
		c-1.22-0.87-2.49-1.69-3.58-2.71c0-2.38,0.74-4.68,1.15-7C65.63,241.99,64.42,242.56,63.21,243.13z"/>
	<path fill="#EA9A95" d="M80.61,238.32c0.84-0.07,2.53-0.19,3.38-0.25c-0.08,1.42-0.17,2.84-0.26,4.26
		C82.13,241.47,81.22,239.96,80.61,238.32z"/>
	<path fill="#EA9A95" d="M30.99,245.06c0.65,0.05,1.96,0.16,2.61,0.21c0.56,0.94,1.12,1.89,1.68,2.84
		c-1.51-0.05-3.02-0.09-4.52-0.14C30.82,247.24,30.93,245.79,30.99,245.06z"/>
	<path fill="#EA9A95" d="M272.08,252.75c-0.78-1.29-0.34-3.26,1.16-3.8C273.81,250.33,273.07,251.79,272.08,252.75z"/>
	<path fill="#EA9A95" d="M35.09,251.57c1.46,0.12,1.72,0.75,0.78,1.89C34.41,253.33,34.15,252.7,35.09,251.57z"/>
	<path fill="#EA9A95" d="M318.7,250.82c0.28,0.44,0.83,1.3,1.11,1.73c0.05,0.52,0.14,1.57,0.19,2.1c-1.24,4.35-2.23,8.79-2.54,13.32
		c-0.39-0.32-1.17-0.97-1.56-1.3c-0.56,1.12-1.13,2.24-1.64,3.38c0.86-2.75,1.8-5.71,0.6-8.51
		C318.23,258.98,318.88,254.83,318.7,250.82z"/>
	<path fill="#EA9A95" d="M87.23,258.15c0.52-1.39,1.49-2.55,2.4-3.7c1.61,3.59,3.26,7.2,4.09,11.06c-1.38,0.53-2.77,1.1-4.24,1.29
		C88.85,263.89,87.88,261.06,87.23,258.15z"/>
	<path fill="#EA9A95" d="M202.16,267.12c1.62-0.53,2.18,0.02,1.66,1.65C202.19,269.29,201.64,268.74,202.16,267.12z"/>
	<path fill="#EA9A95" d="M260.1,269c0.54,0.1,1.61,0.28,2.14,0.38c3.12,0.6,6.18,1.44,9.22,2.35c0.12,1.64,0.26,3.28,0.39,4.92
		c-3.69-2.2-7.72-3.71-11.87-4.78C260.01,271.16,260.07,269.72,260.1,269z"/>
	<path fill="#EA9A95" d="M71.2,271.21c0.71-0.07,2.14-0.23,2.85-0.31C75.02,273.52,71.47,273.55,71.2,271.21z"/>
	<path fill="#EA9A95" d="M368.44,277.4c3.09,0.99,6.08,2.26,9.02,3.64c-5.94,0.24-11.89,0.03-17.8,0.61
		C362.68,280.45,365.65,279.08,368.44,277.4z"/>
	<path fill="#EA9A95" d="M66.86,288.94c4.89-0.23,9.86-0.52,14.71,0.4c0.35,0.09,1.06,0.28,1.42,0.37
		c-4.05-0.19-8.02,0.82-11.69,2.46c-0.54-0.17-1.63-0.5-2.18-0.67C68.36,290.65,67.61,289.79,66.86,288.94z"/>
	<path fill="#FAB6AA" d="M327.1,109.37c1.75-0.61,3.5-1.22,5.27-1.79c-0.68,1.48-1.34,2.96-2.12,4.38
		c-1.38,1.15-2.81,2.21-4.25,3.28C326.35,113.28,326.72,111.33,327.1,109.37z"/>
	<path fill="#FAB6AA" d="M93.89,123.96c-0.67-4.59,3.52-7.45,6.94-9.51c2.87,2.05,4.17,5.28,5.44,8.43
		c2.98-0.31,6.11-1.25,8.87,0.52c0.66,0.91,1.21,1.89,1.75,2.88c-3.15,2.32-5.69,5.32-8.13,8.34c-1.45-3.58-2.24-7.83-5.72-10.08
		c-0.5,1.52-0.99,3.04-1.47,4.57c-1.17,0-2.35,0-3.52,0.01c0.85-3.17,1.61-6.36,2.05-9.62C97.92,120.83,95.86,122.34,93.89,123.96z"
		/>
	<path fill="#FAB6AA" d="M172.9,116.01c3.49,1.97,6.73,4.57,10.73,5.46c-3.33,0.43-5.87,2.58-7.66,5.31
		c1.42,2.07,2.77,4.2,3.98,6.41c-2.69-0.4-5.85-1.3-6.71-4.25c0.09-3,1.27-5.83,2.22-8.64C174.58,118.88,173.72,117.45,172.9,116.01
		z"/>
	<path fill="#FAB6AA" d="M330.85,116.83c0.6,0.35,1.8,1.04,2.4,1.38c-0.97,1.96-2.3,3.72-4.57,4.19
		C328.97,120.39,329.72,118.51,330.85,116.83z"/>
	<path fill="#FAB6AA" d="M316.95,123.42c0.88,0.24,2.63,0.73,3.5,0.98c-0.69,1.84-1.4,3.67-2.13,5.5c-0.6-0.22-1.79-0.65-2.39-0.87
		C316.13,127.14,316.49,125.26,316.95,123.42z"/>
	<path fill="#FAB6AA" d="M47.11,128.12c1.63-0.52,2.19,0.04,1.66,1.66C47.14,130.3,46.59,129.75,47.11,128.12z"/>
	<path fill="#FAB6AA" d="M96.84,136.53c1.72-2.34,3.83-4.38,6.66-5.25c0.44,3.93,1.17,7.92,3.56,11.18
		c2.22-3.32,3.85-7.06,6.47-10.09c1.33-0.44,2.73-0.64,4.11-0.89c0.21,1.65,0.41,3.31,0.62,4.97c0.64-0.03,1.94-0.1,2.59-0.14
		c0.54,2.53,2.04,5.06,1.25,7.7c-1.26,3.96-4.38,6.88-7.08,9.9c1.32,2.09,3.22,4.01,3.63,6.51c-0.36,1.65-1.29,3.09-2.02,4.59
		c-1.95-2.54-3.67-5.38-6.27-7.31c-4.35,0.22-9.06,2.44-11.26,6.35c0.47,1.96,1.31,3.8,2.06,5.66c2.27,0.13,4.53,0.28,6.8,0.43
		c-0.66-1.53-1.33-3.04-1.99-4.56c1.66-1.54,3.32-3.08,4.98-4.63c0.83,5.44,2.83,10.74,2.63,16.3c-0.2,4.35,0.7,8.62,1.32,12.9
		c-1.22-0.12-2.42-0.29-3.62-0.53c-0.19-4.96-2.12-9.66-2.23-14.64c-0.67,0.18-1.34,0.36-2.01,0.55c-1.28,0.37-2.55,0.8-3.78,1.32
		c0.15-1.18,0.3-2.35,0.45-3.53c-0.77-0.23-2.31-0.7-3.08-0.93c-0.67,2.57-1.21,5.18-1.49,7.83c-1.43-0.09-2.86-0.18-4.29-0.26
		c-0.45-0.02-1.35-0.06-1.79-0.08c0.67-1.24,1.37-2.46,2.07-3.68c-0.61,0.07-1.83,0.2-2.44,0.27c-0.96,1.75-1.92,3.51-2.91,5.25
		c-2.56,0.82-5.05,1.86-7.32,3.32c2.56,0.6,5.13,1.13,7.7,1.67c-1.51,2.24-2.97,4.52-4.7,6.6c-1.64-2.63-3.51-5.16-6.07-6.96
		c0.2-2.47,0.5-4.94,1.19-7.33c2.14-0.4,4.32-1,5.88-2.61c3.03-2.82,6.46-5.27,9.14-8.43c0.87-2.77,0.67-5.79,1.71-8.52
		c1.49-1.09,3.18-1.84,4.8-2.7c-2.79-1.58-5.86-2.61-9.03-3.07c3.82-0.74,8.9-0.53,10.52-4.91c0.63-3.72-0.45-7.38-1.6-10.89
		c-0.63,0.12-1.9,0.37-2.53,0.49c-0.56,0.99-1.12,1.97-1.68,2.96C97.43,139.74,97.14,138.13,96.84,136.53 M115.61,144.5
		c2.89,1.24,5.72-0.16,6.38-3.25C119.77,141.24,114.87,141.22,115.61,144.5 M110.02,145.39c-1.77,0.48-1.09,3.61,0.71,3.36
		C112.42,148.25,111.73,145.2,110.02,145.39 M102.72,152.38c2.83,2.49,6.61,2.53,10.17,2.5c0.04-0.6,0.13-1.8,0.18-2.4
		C109.62,152.65,106.17,152.4,102.72,152.38 M115.19,157.15c-0.53,1.62,0.02,2.18,1.66,1.66
		C117.37,157.19,116.81,156.63,115.19,157.15z"/>
	<path fill="#FAB6AA" d="M15.3,138.36c2-1.53,3.53-3.57,5.02-5.57c1.12,2.35,2.69,4.46,4.8,6c-0.84,2.56-1.19,5.25-1.33,7.94
		c-2.55-1.65-5.42-2.69-8.44-2.97c-3.01-0.04-4.26-3.21-5.75-5.31C11.5,138.5,13.42,138.74,15.3,138.36z"/>
	<path fill="#FAB6AA" d="M321.19,135.88c1.52,1.16,2.95,2.48,4.66,3.38c1.39,0.85,2.7-0.63,3.96-1.1c-0.01,1.8,0,3.61,0.02,5.41
		c-1.06,0.97-2.12,1.94-3.16,2.93c-1.18-1.13-2.35-2.27-3.42-3.5c-0.88-1.28-1.7-2.59-2.5-3.91
		C320.86,138.29,321.08,136.68,321.19,135.88z"/>
	<path fill="#FAB6AA" d="M117.01,165.55c2.38,4.15,7.85,5.39,12.15,3.82c0.49,2.28,1.38,4.59,1.09,6.96
		c-1.14,3.37-5.42,2.76-8.24,3.34c-0.41,1.13-0.83,2.26-1.24,3.39c-0.52,1.39-1.03,2.78-1.49,4.19c-1-2.87-3.36-5.53-2.76-8.75
		C117.15,174.22,117.9,169.86,117.01,165.55 M123.52,175.13c-1.11,2.02,3.12,3.06,3.29,0.85
		C126.62,174.51,124.43,174.08,123.52,175.13z"/>
	<path fill="#FAB6AA" d="M335.94,190.52c5.78,0.65,11.47,1.99,17.26,2.6c0.58,3.26,2.93,5.53,5.85,6.89
		c0.55,1.68,1.1,3.37,1.63,5.06c-2.91,1.78-6.09,3.01-9.36,3.93c-1.8-2.59-3.65-5.15-5.52-7.7c-1.37,0.74-2.73,1.49-4.09,2.24
		c-0.41-1.61-0.78-3.23-1.36-4.79c-1.89,0.4-3.68,1.18-5.47,1.86C335.22,197.24,335.56,193.88,335.94,190.52z"/>
	<path fill="#FAB6AA" d="M38.52,219.01c2.76,1.46,5.51,2.92,8.26,4.39c-0.51,0.93-1.05,1.84-1.62,2.74
		c-0.75,1.12-1.53,2.23-2.39,3.28c-2.13-0.71-1.23-3.36-1.62-5.06c-0.63-0.13-1.89-0.38-2.52-0.51
		C38.6,222.23,38.56,220.62,38.52,219.01z"/>
	<path fill="#FAB6AA" d="M110.92,233.98c0.31,0.86,0.64,1.72,0.98,2.58c-0.87,3.68-1.4,7.6-3.48,10.85
		c-1.98,3.38-6.36,0.72-9.37,0.53c0.07-2.38-0.13-4.86,0.74-7.12c1.18-1.77,3.58-0.98,5.34-1.01c-0.42,1.62-0.72,3.26-1,4.92
		c1.26-1.46,2.43-2.99,3.39-4.66C108.69,238.06,109.78,236,110.92,233.98z"/>
	<path fill="#FAB6AA" d="M246.47,236.35c1.06,0.02,2.12,0.04,3.19,0.06c0.03,1.69,0.05,3.38,0.06,5.08
		c-1.32,0.24-2.65,0.49-3.97,0.74C245.98,240.26,246.22,238.31,246.47,236.35z"/>
	<path fill="#FAB6AA" d="M38.72,239.96c1.35-0.56,2.69-1.13,4.03-1.7c-0.27,6.65,2.98,12.51,5.59,18.39
		c-1.62,0.03-3.24,0.06-4.87,0.08c-0.85-1.15-1.71-2.3-2.57-3.44C38.87,249.14,38.45,244.5,38.72,239.96z"/>
	<path fill="#FAB6AA" d="M112.68,245.23c1.26,0.53,2.53,1.07,3.74,1.71c-0.94,2.47-2.59,4.98-2.06,7.74
		c0.54,2.82,1.72,5.46,2.76,8.13c-1.63-0.32-3.26-0.63-4.89-0.92C111.45,256.36,110.75,250.62,112.68,245.23z"/>
	<path fill="#FAB6AA" d="M123.18,258.88c0.92,0.77,1.84,1.53,2.74,2.35c1.65,2.05,3.09,4.27,4.59,6.44
		c-0.7,0.71-1.41,1.41-2.13,2.11c-1.72,0.08-3.43,0.17-5.14,0.26c-0.92-2.47-1.88-4.91-2.77-7.38
		C121.37,261.4,122.28,260.14,123.18,258.88z"/>
	<path fill="#FAB6AA" d="M104.95,272.4c1.1-3.49,2.25-6.99,3.93-10.25c1.92,6.2-1.37,12.13-1.16,18.33
		c-1.47-0.74-2.91-1.53-4.36-2.31C103.86,276.24,104.36,274.31,104.95,272.4z"/>
	<path fill="#FAB6AA" d="M374.81,264.59c2.88-0.74,5.86-0.37,8.77-0.09c-0.11,1.46-0.21,2.93-0.38,4.39
		c-0.67,4.08-1.85,8.06-3.13,11.99c-2.45-5.21-1.17-10.86,0.12-16.17C378.39,264.64,376.6,264.58,374.81,264.59z"/>
	<path fill="#FAB6AA" d="M341.34,264.62c1.69,1.92,2.88,4.2,4.08,6.45c2.5-1.17,4.33-3.25,5.84-5.51c2.13,2.02,4.38,3.91,6.51,5.93
		c0.27,0.35,0.81,1.04,1.08,1.39c-0.39,0.45-1.19,1.35-1.59,1.8c-1.75-1.03-3.44-2.21-5.39-2.82c-1.96-0.04-3.79,0.77-5.6,1.39
		c-1.48-0.57-3-1.04-4.34-1.88C341.42,269.16,341.46,266.87,341.34,264.62z"/>
	<path fill="#FAB6AA" d="M223.85,277.33c-0.5-2.43-1.02-4.87-1.2-7.35c0.83,0.6,1.67,1.2,2.51,1.78c0.94,0.64,1.88,1.27,2.83,1.89
		C226.68,274.95,225.29,276.18,223.85,277.33z"/>
	<path fill="#FAB6AA" d="M58.04,275.18c2.64-1.08,5.33-0.24,7.76,0.97c-0.96,1.81-1.9,3.64-2.78,5.49c1.89-0.55,3.77-1.13,5.58-1.88
		c0.51,0.75,1.53,2.26,2.03,3.01l-0.81,0.13c-4.41,0.65-8.93,1.06-13.32,0.09c1.03-1.18,2.07-2.34,3.12-3.5
		C59.08,278.05,58.56,276.61,58.04,275.18z"/>
	<path fill="#FAB6AA" d="M10.4,274.75c3.11,2.53,6.32,5.08,10.27,6.16c0.14,0.47,0.42,1.41,0.56,1.88
		c-0.74,0.36-2.21,1.07-2.95,1.43c-1.86,1.4-2.75,3.61-3.9,5.56c-0.34,0.45-1.02,1.36-1.36,1.81c-0.1-2.44,0.3-4.87,0.76-7.25
		c-1.5-1.73-3.34-3.28-4.24-5.43C9.69,277.5,10.09,276.12,10.4,274.75z"/>
	<path fill="#FAB6AA" d="M126.47,275.81c2.91,0.48,5.68,1.54,8.23,3.01c-0.7,0.37-2.1,1.11-2.8,1.48H131
		C128.86,279.53,127.08,278.07,126.47,275.81z"/>
	<path fill="#EA7977" d="M184.2,125.18c1.62-0.52,2.18,0.04,1.65,1.67C184.22,127.36,183.67,126.81,184.2,125.18z"/>
	<path fill="#EA7977" d="M44.54,132.33c1.64,0.27,3.9-0.46,4.94,1.24c0.67,1.94,0.52,4.04,0.63,6.06c-0.41,0.33-1.22,0.99-1.63,1.32
		c-0.71-0.56-1.41-1.13-2.11-1.69l-0.25-0.88C45.55,136.37,44.99,134.36,44.54,132.33z"/>
	<path fill="#EA7977" d="M45.09,151.52c1.29-1.05,2.92,1.17,1.59,2.13C45.38,154.7,43.76,152.47,45.09,151.52z"/>
	<path fill="#EA7977" d="M33.5,163.16c1.19-1.35,2.4-2.68,3.63-4c1.45,1.42,2.13,3.27,2.35,5.27
		C37.47,164.05,35.48,163.62,33.5,163.16z"/>
	<path fill="#EA7977" d="M178.1,170c3.33-0.54,0.02,4.28-0.82,1.14C177.48,170.85,177.89,170.28,178.1,170z"/>
	<path fill="#EA7977" d="M45.19,176.18c1.63-0.52,2.18,0.03,1.65,1.66C45.22,178.36,44.66,177.8,45.19,176.18z"/>
	<path fill="#EA7977" d="M59.5,200.34c0.4-0.21,1.22-0.64,1.63-0.85c1.63,0.99,3.26,2,4.87,3.05c-2.17,1.19-4.57,1.28-6.93,0.69
		C59.21,202.27,59.35,201.3,59.5,200.34z"/>
	<path fill="#EA7977" d="M32.62,208.48c-0.05-2.95,2.13-3.76,4.7-3.76C36.27,206.57,34.75,208.01,32.62,208.48z"/>
	<path fill="#EA7977" d="M66.8,206.22c1.47-0.58,2.93-1.17,4.4-1.74c-0.77,2.01-1.55,4-2.36,5.99c-0.93-0.6-1.86-1.21-2.79-1.8
		C66.3,207.85,66.55,207.03,66.8,206.22z"/>
	<path fill="#EA7977" d="M48.39,207.1c2.05,0.53,5.2,0.34,4.97,3.32C50.97,210.51,49.36,209.17,48.39,207.1z"/>
	<path fill="#EA7977" d="M183.55,209.15c1.58-0.04,3.17-0.03,4.76-0.02c-0.25,1.78-0.49,3.57-0.79,5.34
		c-1.66,0.16-3.32,0.31-4.97,0.46C182.86,213,183.19,211.07,183.55,209.15z"/>
	<path fill="#EA7977" d="M174.32,217.2c1.05,0.15,2.11,0.29,3.17,0.43c-0.02,0.9-0.03,1.8-0.05,2.69c-1.04,0.26-2.09,0.52-3.13,0.77
		C174.31,219.79,174.32,218.5,174.32,217.2z"/>
	<path fill="#EA7977" d="M49.5,241.03c0.89-0.05,2.65-0.16,3.54-0.22c1.06,1.98,2.14,3.96,3.16,5.96
		C53.51,245.48,50.31,244.27,49.5,241.03z"/>
	<path fill="#EA7977" d="M192.02,254.61c-1.15-1.77,1.07-2.98,1.97-4.21c0.99,2.07,1.3,4.28,0.02,6.32
		C193.51,256.19,192.52,255.14,192.02,254.61z"/>
	<path fill="#EA7977" d="M188.09,275.36c1.89-1.68,4.14-2.85,6.36-4.03c-1.02,3.17-2.67,6.16-5.47,8.09
		C188.61,278.08,188.16,276.75,188.09,275.36z"/>
	<path fill="#EA7977" d="M202.59,278.31c0.58-1.14,0.44-3.5,2.34-2.99c0.68,0.2,2.04,0.59,2.73,0.79
		C206.02,276.96,204.32,277.68,202.59,278.31z"/>
	<path fill="#EA7977" d="M181.66,275.67c2.47,0.42,4.02,2.03,3.57,4.63C182.61,280.09,181.85,277.97,181.66,275.67z"/>
</g>
</svg>
