<svg xmlns="http://www.w3.org/2000/svg" viewBox="0 0 401 382" style="enable-background:new 0 0 401 382"><g style="fill:#010102"><path d="m189 15.2c1.3-3.4 4.8-5.2 8-6.7 5.4-.8 10.8.9 16.2.7 3.6-.1 7.5.5 10.4 2.8 4.2 4.6 5.7 10.9 5.6 17-.5 3 2.5 4.4 4.1 6.3-.3 3.5-1.8 6.9-1.3 10.4 1.2 3.7 3.4 7.1 2.9 11.2 1.4 1.5 2.9 2.9 4.1 4.7 1.2 5.2-1 10.3-2.6 15.2 3.3 1.2 7.2 2 9.8 4.7 1.8 3.5 2 7.6 2.3 11.4-4.5-3-3.3-10.7-9-12.4-4.4-1-9 0-13.4-1.3 2-2.8 4.9-4.7 8-6.1-.9-4.5-4.7-7.3-8.3-9.7 2.5-.3 5.1-.5 7.6-1-1.3-6.9-8.1-11.3-14.7-12.5-.6 6.3-1.9 12.6-5.5 17.9-1.8-1.9-4.3-3.5-5.3-6-.1-4 2.8-7.1 4.6-10.4-1.8-6.5-4.9-12.5-7.5-18.8-.8-1.7-.3-3.6 0-5.3 2 .1 3.9.4 5.9.5-2.9-4.3-5.5-9-9.4-12.6-1.1.9-2.3 1.7-3.5 2.4-1.9-.1-3.9-.3-5.8-.5-1 2.3-2.1 4.6-3.1 6.8 2.1-.5 4.3-.9 6.4-1.2-3.3 2.6-7.6 2.8-11.6 2.7-.3-1.1-.5-2.3-.8-3.4 2.3-1.9 4.6-4.1 5.9-6.9m12.8-2.9c-1.7.5-.5 2.9 1 2.5 1.7-.4.5-2.9-1-2.5m6.3 0c1.3 2.4 3 4.4 5.1 6.2 2.9 2.5 3.8 6.4 5.3 9.7 2.7-1.3 5.4-2.7 8.1-4.3-.3-.9-.6-1.8-.9-2.7-1.3.1-2.5.3-3.8.5.9-1.5 1.9-3.1 2.8-4.6-1.8-1.6-3.4-3.5-5.7-4.6-3.6-.8-7.3-.3-11-.2m6.6 14.2c-1 1.9-2.8 3.9-2.1 6.3 1 1.6 2.4 2.9 3.8 4.2-1.9-.6-3.9-1.2-5.8-1.8-.3 1.3-.6 2.6-.9 3.9 2 .7 4 1.2 5.8 2.2 1.5 2 1.8 4.8 3.2 6.9 2.9 1.5 6.1 0 9.1-.4-1.4-1.8-2.8-3.5-4.1-5.3.8-1.8 1.4-3.8 2-5.7-2.3-.4-4.5-.7-6.8-1-.4-3.4-.6-7.4-4.1-9.2z"/><path d="m197 23.6c1.2.6 2.2 1.5 3.4 2.2 1.2.4 2.5.7 3.7 1.4-.1 1.5-1.6 2.6-3.1 2.5-1.6-.7-3.1-1.6-4.6-2.5.2-.9.5-2.7.7-3.6"/><path d="m184 27c.7.2 1.5.5 2.3.7-.2 2-.4 4-.6 6 1.2-.5 2.5-.9 3.7-1.3 5.4-2.3 10.6 1.9 14.6 5-4.4-1.3-8.6-3.2-13-4.2-4.8 4-7.6 9.7-10.8 14.9 1.6.6 3.4.9 5 1.5.7-1 1.5-2 2.2-3 0 1.8 0 3.5 0 5.3-2.6-.7-5.3-1.2-7.8-2.1-.4-.1-1.3-.4-1.7-.6 1.8-4.4 4.6-8.4 7.3-12.3-.8-2.2-2.7-4.3-2.2-6.8.3-1.1.6-2.1.9-3.2"/><path d="m190 35.6c1.9.4 4.3 0 5.8 1.6 1.8 1.9 2.9 4.3 4.2 6.6-.6.4-1.8 1.2-2.4 1.6-.1-.3-.4-1-.5-1.3-.4-1.1-.9-2.3-1.4-3.4-1.3.4-2.6.9-3.8 1.3.7 1.1 1.4 2.1 2 3.2-.9.3-1.9.6-2.9.8-.4-.1-1.1-.4-1.5-.5-.6-3.3.2-6.7.6-10"/><path d="m182 52.9c2.7 2 5.3 4.1 7.7 6.5-1.7 1.4-3.3 2.9-4.9 4.4-1.6-3.4-2.8-7-2.8-10.9"/><path d="m193 69c2.3-1.4 4.1-3.3 5.9-5.3-2.4 5.6-2.2 11.8-3.2 17.7-.5 3.5-3.5 5.7-6.2 7.7.6-1.2 1.1-2.3 1.7-3.5 1.9-3.6 3.8-7.6 3.1-11.8-2.4-2.8-6.3-3.1-9.2-5.1-.5-1.4-.8-2.8-1.2-4.3l.8.4c2.6 1.7 5.3 3.4 8.4 4.2"/><path d="m211 73c.8-1.1 1.5-2.3 2.4-3.3.5 1.1 1 2.3 1.3 3.5-.9-.1-2.8-.2-3.8-.2"/><path d="m204 75c5.8-.4 11.3 2.3 15 6.6 1.9.1 3.8.1 5.7.2-2.6 3.1-6.9 2.8-10.3 4.2-1.2 2-1.9 4.5-4.2 5.7.5-2.5 1.2-5 2-7.5-3.1-2.7-6.6-5.3-8.3-9.1"/><path d="m176 97c3.5-3.8 6.2-9.3 11.8-10.2-3.2 5.9-7.9 10.8-13.3 14.6-2.9 1.9-5.6 4.1-8.2 6.4-.8.2-1.6.5-2.4.7 3.5-4.4 7.4-8.4 12-11.5"/><path d="m145 96c1.3-2.4 2.8-4.7 4.4-7 1.2 3.1 2.1 6.4 4.3 8.9 2 2.3 4.6 4 7.1 5.7-4 1.3-7.6 3.5-10.8 6.3-1.8-1.5-3.7-3-5.4-4.5.3-.7.8-2 1-2.7.4.1 1.1.3 1.5.3.3 1.2.6 2.5.9 3.7 2.3-.3 4.5-.8 6.7-1.2-.6-2.5-.6-5.3-2.3-7.4-2-1.9-4.9-2-7.5-2.1"/><path d="m209 93c1.3-1.3 3.6.9 2.3 2.3-1.3 1.3-3.6-.9-2.3-2.3"/><path d="m236 106c4-4.5 8.3-8.9 13.7-11.8.1.5.4 1.5.5 2 .4 1.7.8 3.5 1.1 5.3-1.8 1.8-3.5 3.8-5.2 5.7 1.5.2 3 .3 4.6.2 1.1-1.2 1.9-2.6 2.8-4 .3.2.9.7 1.2 1 0 1.6 0 3.2-.1 4.7-1.5.2-3.1.4-4.6.7-.5 1-1 1.9-1.5 2.9-.8.2-2.3.7-3.1.9.4 1.3.8 2.7 1.2 4 .4 1.3.8 2.6 1.2 3.9-5 .8-9 3.9-12.4 7.4.8-2 1.5-4.1 2.2-6.2-2.2-.8-4.4-1.6-6.5-2.5-.2 2.5-.3 5.1-.6 7.6 1.3.7 2.6 1.4 3.9 2-1.1 3.9-3.5 7.2-5.9 10.4-2.1 2.8-.5 6.6 1.2 9.2 2.5.1 4.4-1.8 6.4-2.9-1.2-3.4-2.3-6.9-2.9-10.5 1.4 2.3 2.7 4.7 4.1 7.1 6.3-2.1 12.7-4.3 18.5-7.7 2.1-1.4 4.8-3.3 4.6-6.2-.6-6.4-4.9-11.9-4.6-18.4 4.6 4.7 5.1 11.5 7.5 17.3-.6 4.1-3.9 7.1-7 9.6-4.8 3.7-10.9 4.9-16 7.8-3 2.3-5.9 4.7-8.4 7.5-2.2 4-2.5 8.7-2.8 13.2-7-.3-14-.4-20.8 1.2-4.4-4.9-11.6-10-18.3-6.4-2.4 1-4.9-.8-6.6-2.3-2.1-2.7-3.4-6.1-3.9-9.5.6-2 1.5-3.8 2-5.8-1.7-2.8-3.9-5.3-6.2-7.7-2.9-2.9-7.5-3.1-10-6.4 3.9.1 7.7 1.3 11.6 1.6 2.6-.6 4.7-2.3 7-3.5 2.4.5 4.8-.1 6.4-2.2.3-.3.8-.8 1-1.1 1.4 2.1 2.7 4.2 4 6.3-2.4.1-4.9-.3-7.2.6-2.7 1.6-4.8 4.3-5.6 7.3 0 2.3.8 4.4 1.4 6.5-.5 1.5-1.1 3-1.6 4.6 1.3.9 2.6 1.7 3.9 2.5 1.7.1 2.8-1.6 4.1-2.5-.6-1.2-1.2-2.4-1.8-3.7-.1-.3-.4-.8-.5-1 4.5 1.9 9.1 3.7 13.7 5.4-.5 1.7-1 3.5-1.5 5.2 1-.5 1.9-.9 2.9-1.4 2.5.3 4.9.6 7.4.6 3-.3 5.9-1.8 8.9-1.7 3.3.1 6.5.4 9.7.5-.6-1.8-1.2-3.7-1.8-5.6-1.2-3.4-2.3-6.9-3.3-10.3-1.9.2-3.8.6-5.8.8-1.1-1-2.1-1.9-3.2-2.9.1 1.5.3 3 .4 4.4-2.5 1.1-4.9 2.2-7.3 3.6-2.1-1.6-4.3-3.1-6.5-4.7 7.1-.8 13.8-3.9 19.3-8.4 2.2-1.5 1.7-4.5 1.8-6.8.7-.5 1.4-1 2.1-1.5 1.7-.2 3.3-.6 5-.9-.7-6.2-3.6-11.8-6.2-17.4 2.3 2.5 4.6 5 6.8 7.6 2.1-1.6 4.1-3.3 6-5.1m-5.3 6.4c0 .8-.1 2.3-.2 3.1 2.4-.8 4.8-1.8 7-3-1.8 2.3-2.9 5-3.4 7.9 1.7-1.1 3.8-1.9 4.9-3.7 1-2.5.6-5.2 1.3-7.7 1.5-2.8 3.7-5.2 5.4-7.9-6.7 1.2-9.3 8.4-15 11.3m-42.9 43.7c-1.8-.6-3.7-1.2-5.5-1.7 1.6 1.7 3.1 4.9 6 3.9 2.9-.8 3.8-3.8 4.3-6.4-1.7 1.2-3.3 2.6-4.7 4.3m5.8-3.3c-1 .7-.8 2.8.6 2.9 2.1-.1 1.3-4-.6-2.9z"/><path d="m209 97c.5 0 1.4-.2 1.8-.2.3 3-.2 6.3 1.2 9 2.2 3.7 5.6 6.3 8.4 9.5.7 1.6 1.4 3.3 1.8 5-2.5-1.4-5-2.7-7.5-4-1.3-2.7-2.1-5.8-4.5-7.7-2.8-1.8-5.8.6-8.3 1.9-4.8 3.3-11.3 6.1-11.6 12.7-2.3-.8-4.6-1.6-6.8-2.3-.3-2.9-.8-5.8-1.3-8.6 2 1.5 3.5 4.7 6.3 4.6 3.1-2.1 5.5-5.2 8.3-7.7 4-1.9 8.7-3 11.8-6.3 1.8-1.5.5-3.9.4-5.8"/><path d="m177 105c1.5.3 2.8-.4 3.7-1.6-.2 1.6-.3 3.1-.4 4.7-1.2-1-2.3-2-3.3-3.1"/><path d="m155 108c2.1.7 4.1 1.5 6.2 2.2-1 .7-2 1.4-3 2.1-1.1-1.4-2.1-2.9-3.2-4.3"/><path d="m163 129c-4.9-1.5-10-6.5-7.8-12 2.2 4.3 5.1 8.1 7.8 12"/><path d="m194 136c1.1-1.6 2.5-2.8 3.9-4 .1.8.3 2.5.4 3.3-1.5.2-2.9.5-4.4.7"/><path d="m192 164c.6.7 1.3 1.3 1.9 2-3 5.3-4.9 11.3-4.8 17.4 0 1.9 1.2 3.6 2.4 5 5.7 6.6 12.9 11.8 18.9 18-.5 0-1.5 0-1.9 0-7.3-6.3-13.7-13.6-21.5-19.3 1.9 4.3 4.7 8.3 8.6 11.2 4 2.9 7.9 6.2 11.2 9.9 4.4 4.9 10.3 7.8 15.8 11.3-.8 2.2-1.5 4.5-2.3 6.7-1.4-3.5-3-7.2-6.4-9.3-3.3-2.5-8.7-1.4-10.6 2.2-1.9 3-1.4 6.6-1.2 9.9 1.3-.4 2.6-.9 4-1.3.1 7 6.3 11.4 8.6 17.6 1.8-2.8 4.2-5.4 4.7-8.7.5-2.9.4-5.8.7-8.8 1.8 3 4.2 6.4 3 10-1 1.9-2.7 3.4-4.1 5 .8 3.2 1.9 6.4 2.1 9.7.1 2-2.1 3.1-3.1 4.6.4-3.9 2.2-8.4-1.1-11.5-1.1 2.8-1.9 5.7-2.9 8.6-2.4.6-4.8 1.1-7.3 1.7.7 9.2 2.4 18.3 4.5 27 1.3 6.4 5.8 11.9 5.7 18.6-.2-.7-.5-2.1-.7-2.8-.7-.2-2.2-.7-2.9-.9.2 5.1.5 10.2.6 15.3.2 5.8-2.7 11-3.4 16.7-.4 3.4-1.1 6.9-3.1 9.7-2.4-8.7 2.4-17 4.1-25.4.8-2.7-.9-5.1-1.9-7.4-.3 3.9-.3 7.9-.5 11.9-4.3-6.9-2-15.2-4.2-22.6-2.6-7.1-3.3-14.6-3.4-22-.6-5.4-2.3-10.6-3-15.9-.6-3.3-.6-6.8-2.3-9.7-3.3-2.2-7.6-1.8-11.3-1.9-1.6 11.9.4 23.8.7 35.8.1 2.1-.2 4.3-.8 6.3-1.4-6.6-1.6-13.3-1.8-19.9-.2-7.1-4.2-13.4-3.8-20.6 1.2 3.4 2.5 6.7 4.1 10 .3-3.7 1.2-7.7-.1-11.3-1.3-1.2-2.8-2.1-4.3-3.1 1-1.5 1.9-3 2.7-4.7.5-2.2-.9-4.1-1.2-6.2-1.2 3-2.2 6.1-3.3 9.1.4-4.4 1-8.8 1.6-13 1.5-4.5.9-9.3 1.8-13.9 1.5-6.1 2.1-12.3 2.7-18.5.8-7.2 3.9-13.9 4.6-21 .4-4.1 2.7-7.6 4.2-11.4m-6.7 29c.9 3.7 2.4 7.2 4 10.6 1.3-.9 4.2-1 3.1-3.2-.9-3.4-3.4-6.8-7-7.4m8.4 8.8c-.9 1.1-.7 1.8.8 1.9 1-1.1.7-1.8-.8-1.9m3.8.9c-1.3 4.9-1.1 10-.7 15 1.9-1.1 3.9-2.2 5.8-3.4-.6-4.3-1-9-5.1-11.6m-6.9 3.3c-2.2 2.6-.3 5.2 2.1 6.7-.3-2.3.5-5.5-2.1-6.7m15 4.5c-1.8.4-1.2 3.3.6 2.7 1.8-.4 1.2-3.3-.6-2.7m-18.7 10.5c-.7 3.9-3.5 10 1.5 12.2 1.2-1.6 2.6-3.6 2.1-5.7-.5-2.4-2.2-4.5-3.6-6.5m1.7 22c0 .5.1 1.4.1 1.9 1.7 0 3.3.1 5 .2-.3-1.3-.6-2.5-.9-3.7-1.4.6-2.8 1.1-4.2 1.6m10.8 8.8c1.2 4 3.1 8 6.4 10.7.2-4.5-2-9-6.4-10.7m2.1 11c.7 3 1.7 5.9 2.4 8.9 1.3 4.8-1 9.7.3 14.5 1.3 5 2.8 10 4.2 14.9.7 1.5.7 4 2.8 4 4.6-11.2-3.4-21.9-3.9-33-.1-4-2-7.9-5.9-9.4z"/><path d="m246 223c.5-7.4-.5-14.8-.1-22.3 2.4 5.8 1.9 12.3 3.5 18.3.8 3.3 1.6 6.6 1.6 10-.1 4.1-.8 8.2.1 12.3 1.3 2.3 3.6 3.9 5.2 6.1.8 1.8.6 3.8.9 5.7-.7-1.9-1.8-3.6-2.7-5.4-1 .4-2 .9-3 1.4-2.5-5.8-3.6-12-3-18.3-4 5.1-5.3 11.8-5.3 18 2.2 3.4 6.6 3.6 10.2 3.3.2.3.5.8.7 1-.3 1.3-.5 2.6-.7 3.9-.6-.2-1.8-.7-2.4-.9-3-1.2-6-2.4-9-3.7-1 2.4-2 4.8-2.8 7.3-4-3-8.7-4.6-13.7-4.4-.2-2.2-.3-4.4-.5-6.7 2.3.3 5.1 1.7 7-.3 2.2-1.8 4.3-4.2 4.7-7.1-1.1-4.1-2.7-8-2.3-12.3-3.2-1.9-6.1-4-8.8-6.6 4.1 1.5 8 3.2 12.2 4.6-.2-.8-.7-2.3-.9-3 3.1-.2 6.1-.6 9.1-.9m-7.4 7.5c.3 2.5 1.9 3.8 4.3 4.3.1-1.5.1-2.9.2-4.4-1.5 0-3 .1-4.5.1z"/><path d="m255 287c.8 1.1 1.6 2.1 2.4 3.3 1.5 2.3.9 5.3.8 7.9-.1 5-2.6 9.4-6.3 12.6 1.2-3.5 2.8-6.9 3.4-10.5.7-4.4 0-8.9-.3-13.3"/><path d="m185 291c1.1.5 2.5.9 2.8 2.2 1 3.2.9 6.6 1.2 10 .3 6.8 2.6 13.3 2.8 20 .3 7.3.5 14.6 2 21.8-.9.5-1.9 1-2.8 1.6.7 2.1 1.5 4.2 2.3 6.4-1.5-1.2-2.9-2.4-4.4-3.6-.3-.2-.8-.6-1.1-.9 1.1-1.8 2.4-3.4 2.9-5.4.3-2.9-.2-5.9-.4-8.8-.6-6.4.3-12.9-1.6-19-2.5-7.9-.4-16.5-3.8-24"/><path d="m245 300c-.9-3.1-2.3-6.1-2-9.4 4 5.2 4.3 11.9 5.1 18 .6 4.1.6 8.4-.7 12.4-1.9-7-.3-14.4-2.5-21.3"/><path d="m178 299c-1-1.8-.6-3.9-.3-5.7 1.8.9 3.7 1.7 5.5 2.6-.7.2-2.2.6-2.9.8.9 3.9 2.1 7.7 3.4 11.5-2.1-2.9-4.1-5.9-5.6-9.1"/><path d="m218 303c1.2 3.4 2.1 7.2.4 10.6-.3-2-.7-4.1-.8-6.1.1-1.5.2-3 .4-4.5"/><path d="m177 312c-.5-2-1.4-5.1.5-6.5 1.6 3.1 2.2 6.7 4.5 9.4 1.7 2 3.4 4.1 4.8 6.4-3.5-2.8-7.2-5.6-9.8-9.3"/><path d="m255 325c1.3-4 2.8-8 3.2-12.3 1.8 2.9 2.1 6.4 1.2 9.6-1.5 7-.9 15.3-6 21-2.9 4.1-8.3 5.4-11.3 9.5-3.3-4-.3-8.8.3-13 .8-5.2 1.1-10.6 4.2-15-1.4 7.3-2.6 14.7-3.4 22 5.9-.1 9.2-5.6 10.9-10.6.9-3.7-.4-7.5.7-11.2"/><path d="m219 316c.7-.1 1.9-.4 2.6-.6 1.9 7.6 2.8 15.3 3.1 23-2.7-7.3-2.5-15.4-5.7-22.5"/><path d="m176 318c.7-.6 1.5-1.2 2.3-1.8.3 3.7.3 7.6 2 11 1.6 3.3 3.9 6.3 5.9 9.4-4.5-2.6-7.2-7.1-9.2-11.7-1-2.2-.9-4.6-.9-6.9"/><path d="m176 334c.4-1 .8-2 1.2-3 1.3 4.8 3.1 9.5 5.5 13.9-.7.1-2 .4-2.7.5-1.3-3.7-6-7.1-4-11.4"/><path d="m211 346c.2-2.6.4-5.1.7-7.7 2.1 2.6 3.9 5.5 5.1 8.6-1.9-.3-3.8-.6-5.8-.9"/><path d="m204 346c1.3-2.2 2.6-4.4 4-6.5.9 3.1 1.3 6.3.4 9.4-1.6 5.9.9 11.8 2.4 17.4 2.7-1.2 5.7-2 7.9-4 1.9-2.3 2.3-5.4 3.2-8.1 1.3-.2 2.6-.4 3.8-.6 2.9 3.7 5.5 7.7 9.3 10.5 3.1 2.4 7-.1 10.2-1 .7 3.3-.4 6.4-2.6 8.8-1.9-3.3-5.2-4.9-8.9-5.1-2.3-4.5-5.6-8.5-9.6-11.7-1.3 3.8-2.6 8.1-6.3 10.2-3.1 2.2-7.2 2-10.7 1 .6-1.3 1.2-2.6 1.7-3.9-1-.4-2-.9-3.1-1.3.1-1.6.4-3.2.6-4.9.1-1.6.2-3.4-.3-4.9-1.6-2-3.9-3.2-6-4.6 1.3-.3 2.6-.6 3.9-.9"/><path d="m226 343c.4.8.8 1.5 1.1 2.3-.1 1.1-.3 2.1-.4 3.2.4-.1 1.1-.1 1.5-.2-.4 1.1-.8 2.3-1.2 3.4-1.6-1.6-3.1-3.2-4.7-4.8 1.2-1.3 2.4-2.6 3.6-3.8"/><path d="m184 360c1.6-2.6 3.9-4.5 6.5-5.9.5 1.3 1.1 2.5 1.8 3.7.1.2.3.7.5.9-1.8-.3-3.7-.5-5.6-.7 1.3 1.7 2.7 3.4 3.8 5.2-3.2.1-6.6.5-9.3 2.4-2.6 1.4-5.4 4.1-8.6 2.5 4-2.2 8.4-4.2 11-8.1"/><path d="m164 360c2.4-2.4 6.1-2 9.2-1.5-.4 1-1 1.7-1.9 2.3-1.7.5-3.6.6-5 1.7-1.5 2.3-1.3 5.4-.4 7.8.8 2.3 3.7 2.3 5.7 2.6 8.7.4 17.4-.9 26-1.8 1.3 0 2.6 0 3.9.1 9.3 1.3 18.4-.9 27.7-1 2.1 0 4.3.1 6.4.2.4.4 1.3 1.1 1.7 1.4-3.7 1.1-7.6 1.2-11.4 1.1-10 .5-20 1.6-30 1.3-9.2.9-18.5 1.5-27.8 1-6.9-1.2-7.4-10.5-3.9-15.2"/></g><g style="fill:#737b4f"><path d="m202 12.3c1.4-.5 2.7 2 1 2.5-1.4.5-2.7-2-1-2.5"/><path d="m192 42c1.3-.5 2.6-.9 3.8-1.3.5 1.1.9 2.3 1.4 3.4-1.1.4-2.1.8-3.2 1.2-.7-1.1-1.4-2.2-2-3.2"/><path d="m246 113c.8-.2 2.3-.7 3.1-.9.2 1.1.4 2.2.7 3.3-.8.5-1.7 1-2.5 1.5-.4-1.3-.8-2.7-1.2-4"/><path d="m232 120c2.2.8 4.3 1.7 6.5 2.5-.7 2.1-1.4 4.1-2.2 6.2-.3.3-.8.7-1 1-1.3-.7-2.6-1.3-3.9-2 .2-2.5.4-5.1.6-7.6"/><path d="m191 206c2.6 1.2 1.8 4.3 2.1 6.7-2.3-1.5-4.3-4.1-2.1-6.7"/><path d="m206 362c1 .4 2 .9 3.1 1.3-.6 1.3-1.2 2.6-1.7 3.9-.5-1.7-.9-3.5-1.3-5.2"/></g><g style="fill:#7c741c"><path d="m208 12.3c3.6-.1 7.3-.6 10.9.2 2.2 1.1 3.9 3 5.7 4.6-.9 1.5-1.9 3.1-2.8 4.6 1.3-.1 2.5-.3 3.8-.5.3.9.6 1.8.9 2.7-2.7 1.5-5.4 2.9-8.1 4.3-1.5-3.4-2.4-7.3-5.3-9.7-2-1.8-3.8-3.8-5.1-6.2"/><path d="m198 17.7c1.2-.7 2.3-1.6 3.5-2.4 3.9 3.6 6.5 8.2 9.4 12.6-2-.1-4-.4-5.9-.5-.3 1.8-.9 3.6 0 5.3 2.6 6.2 5.7 12.3 7.5 18.8-3.1-1.4-6.3-2.6-9.5-3.8 1.4-3 4.8-7.5 1-10-4.1-3-9.3-7.2-14.6-5-1.3.4-2.5.9-3.7 1.3.2-2 .4-4 .6-6-.8-.2-1.5-.5-2.3-.7-.3 1.1-.7 2.1-.9 3.2-.1-2.7 0-5.4.2-8.1.3 1.1.5 2.3.8 3.4 4.1 0 8.3-.1 11.6-2.7-2.2.3-4.3.7-6.4 1.2 1-2.3 2.1-4.6 3.1-6.8 1.9.2 3.9.4 5.8.5m-1.2 5.9c-.2.9-.5 2.7-.7 3.6 1.5.9 3 1.8 4.6 2.5 1.5.1 3-1 3.1-2.5-1.2-.6-2.4-.9-3.7-1.4-1.2-.7-2.1-1.7-3.4-2.2z"/><path d="m215 26.5c3.5 1.8 3.7 5.7 4.1 9.2 2.3.3 4.5.7 6.8 1-.6 1.9-1.2 3.8-2 5.7 1.3 1.8 2.8 3.5 4.1 5.3-3 .4-6.2 1.9-9.1.4-1.4-2.1-1.6-4.9-3.2-6.9-1.8-1-3.9-1.5-5.8-2.2.3-1.3.6-2.6.9-3.9 1.9.6 3.9 1.2 5.8 1.8-1.3-1.3-2.7-2.6-3.8-4.2-.7-2.3 1.1-4.3 2.1-6.3"/><path d="m251 96c2.6 3.8 5.4 7.9 5.4 12.7l-1.1.2c0-1.6 0-3.2.1-4.7-.3-.2-.9-.7-1.2-1-.9 1.4-1.7 2.8-2.8 4-1.5.1-3.1 0-4.6-.2 1.7-1.9 3.4-3.9 5.2-5.7-.3-1.8-.7-3.5-1.1-5.3"/><path d="m231 112c5.7-3 8.3-10.2 15-11.3-1.7 2.7-3.9 5.1-5.4 7.9-.7 2.5-.3 5.3-1.3 7.7-1 1.9-3.2 2.7-4.9 3.7.5-2.9 1.6-5.6 3.4-7.9-2.2 1.3-4.6 2.3-7 3 0-.8.1-2.3.2-3.1"/><path d="m184 121c2.3.7 4.6 1.5 6.8 2.3-.1.5-.3 1.5-.4 2-1.5 2.1-3.9 2.7-6.4 2.2 0-2.2 0-4.4 0-6.6"/><path d="m184 145c1.5.3 3 .6 4.5.8.6 1.2 1.2 2.4 1.8 3.7-1.3.9-2.4 2.6-4.1 2.5-1.3-.7-2.6-1.6-3.9-2.5.5-1.5 1-3 1.6-4.5"/><path d="m194 153c2-1.1 2.7 2.8.6 2.9-1.4-.1-1.7-2.2-.6-2.9"/><path d="m193 278c2.3-2.5 5.7-3.3 8.7-4.6.1 7.5.8 14.9 3.4 22-2.9-2.2-5.9-4.3-8.5-6.9-2.8-2.7-4-6.8-3.7-10.6"/><path d="m227 346c3.7-.1 7.4-.3 11-.4-.2.4-.5 1.4-.6 1.8-3.1.6-6.2 1.3-9.4 1.6-.4.1-1.1.1-1.5.2.2-1.1.3-2.1.4-3.2"/><path d="m198 371c.3-3.2.6-6.4.8-9.6.9 3.3 1.8 6.5 3 9.6-1.3-.1-2.6-.1-3.9-.1"/><path d="m234 367c3.7.2 7 1.9 8.9 5.1l.4.5c-1.9-.3-3.8-.4-5.7-1-.4-.4-1.3-1.1-1.7-1.4-2.1-.1-4.3-.2-6.4-.2 1.5-1 2.9-2 4.4-3.1"/></g><g style="fill:#7f5907"><path d="m191 33c4.5 1 8.7 2.9 13 4.2 3.8 2.6.4 7-1 10 3.2 1.2 6.4 2.5 9.5 3.8-1.8 3.3-4.7 6.4-4.6 10.4 1 2.5 3.4 4.1 5.3 6 3.6-5.3 4.9-11.6 5.5-17.9 6.6 1.2 13.4 5.7 14.7 12.5-2.5.5-5 .8-7.6 1 3.6 2.4 7.3 5.2 8.3 9.7-3.1 1.4-6 3.3-8 6.1 4.4 1.3 9 .3 13.4 1.3 5.8 1.7 4.5 9.4 9 12.4.5.4.9.7 1.4 1.1-5.4 2.9-9.6 7.3-13.7 11.8-2.9-2-5.9-3.7-8.7-5.7-2.2-1.3-2.4-4.2-3.1-6.4-1.5.7-3.1 1.2-4.5 2.1-1 2.1-.4 4.6-.2 6.8.7 4.1 1.2 8.3.8 12.5-2.8-3.2-6.2-5.8-8.4-9.5-1.4-2.8-1-6-1.2-9-.5 0-1.4.2-1.8.2.1 1.9 1.4 4.3-.4 5.8-3.1 3.3-7.8 4.4-11.8 6.3 1-1.4 2.2-2.7 2.3-4.5-1.7-1.5-3.6-2.7-5.5-4 .6-1.9 1.2-3.8 1.7-5.8-.8-.2-1.5-.4-2.3-.6-2.1 2.3-4.2 4.8-6.4 7-1.9-.6-3.8-1.2-5.6-1.8-.2 1.2-.3 2.4-.4 3.7-.9 1.2-2.2 1.9-3.7 1.6-.9-1.1-1.8-2.3-2.7-3.4 5.4-3.8 10.2-8.7 13.3-14.6 1.1-.3 2.2-.6 3.3-.9-.6 1.2-1.2 2.3-1.7 3.5 2.7-1.9 5.7-4.2 6.2-7.7 1.1-5.9.9-12 3.2-17.7-1.8 2-3.6 4-5.9 5.3-3-.8-5.7-2.5-8.4-4.2.2-.4.5-1.1.7-1.5 1.6-1.5 3.2-3 4.9-4.4-2.4-2.4-5-4.5-7.7-6.5-1-.9-1.9-1.9-2.6-3 2.6.9 5.2 1.5 7.8 2.1 0-1.8 0-3.5 0-5.3-.8 1-1.5 2-2.2 3-1.6-.6-3.4-.9-5-1.5 3.2-5.2 6-11 10.8-14.9m-1.1 2.3c-.3 3.3-1.1 6.7-.6 10 .4.1 1.1.4 1.5.5-.2 2.9-1.2 6-.1 8.9 2.2 3.5 6.5 4.4 10 6 1.1-1.8 3.3-3.4 2.7-5.7-2.2-3.1-4.9-6.1-6.1-9.8.6-.4 1.8-1.2 2.4-1.6-1.2-2.3-2.3-4.7-4.2-6.6-1.5-1.6-3.8-1.2-5.7-1.6m20.6 37c.9 0 2.8.2 3.8.2-.4-1.2-.8-2.4-1.3-3.5-.9 1-1.6 2.2-2.4 3.3m-6.3 2.2c1.8 3.9 5.3 6.4 8.3 9.2-.8 2.5-1.5 5-2 7.5 2.3-1.2 3-3.7 4.2-5.7 3.5-1.4 7.7-1 10.3-4.2-1.9-.1-3.8-.1-5.7-.2-3.8-4.3-9.3-7-15-6.6m5 18.4c-1.3 1.3.9 3.6 2.3 2.3 1.3-1.3-.9-3.6-2.3-2.3z"/><path d="m149 89c7.2 1.9 12.8 7 19.5 9.9 2.5 1.6 5-.3 7.2-1.5-4.7 3.1-8.7 7.1-12 11.5-.8.6-1.6 1.2-2.5 1.7-2.1-.7-4.1-1.5-6.2-2.2 1.1 1.4 2.1 2.9 3.2 4.3l-.6.4c-2.6-1.3-5.2-2.4-7.9-3.4 3.2-2.7 6.8-4.9 10.8-6.3-2.5-1.7-5.1-3.4-7.1-5.7-2.2-2.5-3.1-5.8-4.3-8.9"/><path d="m142 97c1-.5 2-1.1 3-1.4 2.6.2 5.5.2 7.5 2.1 1.6 2.1 1.6 4.9 2.3 7.4-2.2.4-4.5.8-6.7 1.2-.3-1.2-.6-2.5-.9-3.7-.4-.1-1.1-.3-1.5-.3-.3.7-.8 2-1 2.7-1-2.6-1.9-5.3-2.7-7.9"/><path d="m251 110c1.5-.3 3.1-.5 4.6-.7l1-.2c0 .5 0 1.4 0 1.9-.3 6.5 4 12 4.6 18.4.2 2.9-2.4 4.8-4.6 6.2-5.8 3.4-12 5.6-18.5 7.7-1.3-2.4-2.6-4.8-4.1-7.1.7 3.6 1.8 7 2.9 10.5-2 1.2-3.9 3.1-6.4 2.9-1.7-2.6-3.3-6.4-1.2-9.2 2.4-3.2 4.8-6.5 5.9-10.4.3-.3.8-.7 1-1 3.4-3.5 7.4-6.6 12.4-7.4-.4-1.3-.8-2.6-1.2-3.9.8-.5 1.7-1 2.5-1.5-.2-1.1-.5-2.2-.7-3.3.5-1 1-1.9 1.5-2.9"/><path d="m215 135c1.1 1 2.1 1.9 3.2 2.9 1.9-.3 3.8-.6 5.8-.8 1 3.5 2.1 6.9 3.3 10.3-2 1.6-4 3.9-6.9 3.8-5.9.1-12-.4-17.4 2.4-1 .5-2 .9-2.9 1.4.5-1.7 1-3.5 1.5-5.2 2.2-2.3 4.3-4.7 6.7-6.8 2.3-1.4 4.8-2.5 7.3-3.6-.1-1.5-.3-3-.4-4.4"/><path d="m187 187c7.8 5.7 14.2 13 21.5 19.3 2.9 2.9 6.2 5.4 9.7 7.4 6 3.4 11.5 7.9 18 10 .2.8.7 2.3.9 3-4.1-1.5-8-3.1-12.2-4.6 2.7 2.5 5.6 4.7 8.8 6.6-.3 4.3 1.2 8.3 2.3 12.3-.3 2.9-2.5 5.3-4.7 7.1-2 1.9-4.8.5-7 .3.2 2.2.3 4.4.5 6.7 5-.1 9.7 1.4 13.7 4.4-.6 2.3-.9 4.6-1.3 6.9-2.7 7.6-2.9 16.4 1.9 23 .2-.6.4-2 .6-2.6.9 1.3 1.9 2.5 2.8 3.8-.3 3.2 1.1 6.3 2 9.4 2.1 6.9.6 14.3 2.5 21.3-.3 1.1-.6 2.1-.9 3.2-3.1 4.4-3.4 9.9-4.2 15-.6 4.3-3.6 9.2-.3 13 .8 3.8 1.9 7.5 3.4 11-3.2.8-7.1 3.4-10.2 1-3.8-2.8-6.4-6.9-9.3-10.5.2-.5.6-1.6.7-2.1.4-1.1.8-2.3 1.2-3.4 3.2-.4 6.3-1 9.4-1.6.2-.4.5-1.4.6-1.8-3.7.1-7.4.3-11 .4-.4-.8-.8-1.5-1.1-2.3l-.3-.7c3.1.1 2.1-4.5-.7-3.3 0-.4-.1-1.1-.1-1.4-.2-7.8-1.2-15.6-3.1-23-.7.1-1.9.4-2.6.6-.3.1-.9.2-1.2.2.3-.8.7-1.6 1-2.5 1.7-3.4.7-7.2-.4-10.6-.2 1.5-.3 3-.4 4.5-.1-1.9-.2-3.9-.3-5.8.1-6.7-4.4-12.2-5.7-18.6-2.1-9-3.8-18-4.5-27 2.4-.6 4.8-1.1 7.3-1.7.9-2.8 1.8-5.8 2.9-8.6 3.3 3.1 1.5 7.7 1.1 11.5 1-1.5 3.2-2.6 3.1-4.6-.2-3.3-1.2-6.5-2.1-9.7 1.4-1.6 3.1-3.1 4.1-5 1.1-3.6-1.2-7-3-10-.2 2.9-.2 5.9-.7 8.8-.5 3.4-2.9 6-4.7 8.7-2.3-6.2-8.5-10.6-8.6-17.6-1.3.4-2.6.9-4 1.3-.2-3.3-.7-6.9 1.2-9.9 1.9-3.7 7.3-4.7 10.6-2.2 3.4 2 5 5.8 6.4 9.3.7-2.3 1.5-4.5 2.3-6.7-5.5-3.5-11.4-6.4-15.8-11.3-3.3-3.7-7.2-6.9-11.2-9.9-3.8-2.9-6.6-6.8-8.6-11.2m24.6 30.6c.6 3.6 1.1 7.6 4 10.1-.1-3.7-.2-8.3-4-10.1m22 53c1.5-3.6.3-7.3-1.4-10.6-1.6 3.6-1.1 7.5 1.4 10.6m-4.4 17.6c1.6 5 2.1 10.2 2.9 15.3.9 4.4 2.2 10 7.4 11-.6-4.2-3.4-7.4-5.5-10.9-.7-3.8.2-7.8-.4-11.6-.7-3.9-2.5-7.5-4.3-11-.5 2.4-.9 4.9 0 7.3z"/><path d="m187 221c1.4 2 3 4 3.6 6.5.5 2.2-.9 4.1-2.1 5.7-5-2.2-2.2-8.3-1.5-12.2"/><path d="m185 246c3.8.1 8-.3 11.3 1.9 1.7 2.9 1.7 6.4 2.3 9.7.7 5.4 2.4 10.6 3 15.9-3 1.2-6.4 2.1-8.7 4.6-.3 3.8.8 7.9 3.7 10.6 2.6 2.6 5.6 4.6 8.5 6.9 2.1 7.4-.1 15.8 4.2 22.6.2-3.9.2-7.9.5-11.9 1.1 2.3 2.7 4.8 1.9 7.4-1.7 8.4-6.5 16.7-4.1 25.4l.1.6c-1.4 2.1-2.7 4.3-4 6.5-1.3.3-2.6.6-3.8.9 2.1 1.4 4.4 2.6 6 4.6.5 1.6.4 3.3.3 4.9-1.7-.1-3.3-.6-5-.3-1.9 1.4-3.6 3-5.4 4.4-1.3-.8-2.4-1.8-3.5-2.9-.7-1.2-1.2-2.5-1.8-3.7-.7-1.8-1.3-3.6-1.9-5.4 1.5 1.2 2.9 2.4 4.4 3.6-.7-2.1-1.6-4.2-2.3-6.4.9-.5 1.9-1.1 2.8-1.6-1.5-7.2-1.7-14.5-2-21.8-.2-6.8-2.5-13.3-2.8-20-.3-3.3-.2-6.8-1.2-10-.3-1.3-1.8-1.7-2.8-2.2l-.7-.1-.7-.1c.4-.5 1.2-1.5 1.6-2 .7-2 .9-4.2.8-6.3-.3-11.9-2.3-23.9-.7-35.8"/><path d="m202 263c3.9 1.5 5.8 5.4 5.9 9.4.5 11 8.5 21.8 3.9 33-2.1 0-2.2-2.5-2.8-4-1.4-5-2.9-9.9-4.2-14.9-1.4-4.8 1-9.7-.3-14.5-.8-3-1.8-5.9-2.4-8.9"/></g><g style="fill:#7e0206"><path d="m194 45c1.1-.4 2.1-.8 3.2-1.2.1.3.4 1 .5 1.3 1.2 3.7 3.8 6.7 6.1 9.8.5 2.3-1.7 3.9-2.7 5.7-3.5-1.6-7.8-2.5-10-6-1.1-2.8-.1-6 .1-8.9 1-.3 1.9-.5 2.9-.8"/><path d="m202 110c2.4-1.3 5.5-3.7 8.3-1.9 2.4 1.9 3.2 5.1 4.5 7.7 2.5 1.3 5 2.7 7.5 4 .1 1 .2 2 .3 3-.2 2.3.4 5.3-1.8 6.8-5.5 4.5-12.2 7.6-19.3 8.4 2.2 1.5 4.3 3.1 6.5 4.7-2.3 2.2-4.5 4.5-6.7 6.8-4.6-1.7-9.2-3.4-13.7-5.4.1.3.4.8.5 1-1.5-.3-3-.6-4.5-.8-.6-2.1-1.5-4.3-1.4-6.5.8-3 2.9-5.7 5.6-7.3 2.3-.9 4.8-.6 7.2-.6-1.3-2.1-2.6-4.2-4-6.3-.3.3-.8.8-1 1.1.1-.5.3-1.5.4-2 .3-6.6 6.9-9.5 11.6-12.7m-8.6 25.3c1.5-.2 2.9-.5 4.4-.7-.1-.8-.3-2.5-.4-3.3-1.4 1.2-2.9 2.5-4 4z"/><path d="m220 151c2.8.2 4.8-2.2 6.9-3.8.6 1.8 1.2 3.7 1.8 5.6-3.3-.1-6.5-.4-9.7-.5-3.1 0-5.9 1.4-8.9 1.7-2.5.1-5-.3-7.4-.6 5.4-2.9 11.6-2.4 17.4-2.4"/><path d="m190 161c6.7-3.7 13.9 1.5 18.3 6.4 6.8-1.6 13.9-1.5 20.8-1.2h.9c3.1 4.8 7.8 8.5 10 13.9 1.9 4.3 2 9 3.6 13.4.7 2.3 2 4.5 2.1 7-.4 7.4.6 14.8.1 22.3-3.1.3-6.1.8-9.2.9-6.6-2.2-12-6.6-18-10-3.6-2-6.8-4.5-9.7-7.4.5 0 1.4 0 1.9 0-6.1-6.3-13.2-11.4-18.9-18-1.2-1.4-2.4-3-2.4-5-.1-6.1 1.9-12 4.8-17.4-.6-.7-1.3-1.3-1.9-2-.8-.9-1.6-1.8-2.4-2.8"/></g><g style="fill:#7f0613"><path d="m187 101c2.2-2.3 4.2-4.7 6.4-7 .8.2 1.5.4 2.3.6-.5 1.9-1.1 3.8-1.7 5.8 1.8 1.3 3.8 2.4 5.5 4-.1 1.8-1.4 3.1-2.3 4.5-2.8 2.5-5.1 5.6-8.3 7.7-2.8.1-4.3-3.1-6.3-4.6.5 2.9 1 5.7 1.3 8.6.1 2.2.1 4.4 0 6.6-2.3 1.2-4.4 2.9-7 3.5-3.9-.3-7.7-1.5-11.6-1.6-.7 0-1.5-.1-2.2-.1l-.4-.6c-2.7-4-5.6-7.8-7.8-12 .8-1.3 1.7-2.6 2.9-3.6l.6-.4c1-.7 2-1.4 3-2.1.8-.6 1.7-1.2 2.5-1.7.8-.3 1.6-.5 2.4-.7 2.6-2.3 5.3-4.5 8.2-6.4.9 1.2 1.8 2.3 2.7 3.4 1 1.1 2.1 2.1 3.3 3.1.1-1.6.2-3.1.4-4.7.1-1.2.3-2.4.4-3.7 1.9.6 3.7 1.2 5.6 1.7"/><path d="m220 96c1.4-.9 3-1.4 4.5-2.1.7 2.2.9 5 3.1 6.4 2.8 2 5.8 3.7 8.7 5.7-1.9 1.8-4 3.5-6 5.1-2.2-2.6-4.4-5.1-6.8-7.6 2.7 5.5 5.6 11.2 6.2 17.4-1.7.3-3.3.7-5 .9-.7.5-1.4 1-2.1 1.5-.1-1-.2-2-.3-3-.5-1.7-1.1-3.3-1.8-5 .3-4.2-.1-8.4-.8-12.5-.2-2.2-.8-4.7.2-6.8"/><path d="m239 230c1.5-.1 3-.1 4.4-.1-.1 1.5-.1 2.9-.2 4.4-2.4-.4-4-1.8-4.3-4.3"/><path d="m202 357c1.7-.3 3.3.1 5 .3-.2 1.6-.5 3.2-.6 4.9.4 1.7.9 3.5 1.3 5.2 3.5 1 7.6 1.2 10.7-1 3.8-2.1 5.1-6.4 6.3-10.2 4 3.2 7.2 7.1 9.6 11.7-1.5 1-2.9 2-4.4 3.1-9.2 0-18.4 2.3-27.7 1-1.2-3.1-2.1-6.4-3-9.6-.3 3.2-.6 6.4-.8 9.6-8.7.8-17.4 2.1-26 1.8-2-.3-4.9-.3-5.7-2.6-1-2.5-1.2-5.6.4-7.8 1.4-1.1 3.3-1.1 5-1.7-.5 1.9-1.1 3.8-1.6 5.7 1.2.6 2.3 1.2 3.5 1.7 3.2 1.7 5.9-1.1 8.6-2.5 2.7-1.9 6.1-2.3 9.3-2.4-1.1-1.8-2.5-3.5-3.8-5.2 1.8.2 3.7.4 5.6.7-.1-.2-.3-.7-.5-.9 1.1 1 2.2 2 3.5 2.9 1.8-1.5 3.6-3.1 5.4-4.4"/></g><g style="fill:#777f34"><path d="m188 156c1.3-1.6 3-3 4.7-4.3-.4 2.6-1.4 5.6-4.3 6.4-2.8 1-4.4-2.2-6-3.9 1.8.6 3.7 1.1 5.5 1.7"/><path d="m186 193c3.7.6 6.1 4 7 7.4 1.1 2.2-1.8 2.3-3.1 3.2-1.6-3.4-3-6.9-4-10.6"/><path d="m194 202c1.4.1 1.7.8.8 1.9-1.4-.1-1.7-.8-.8-1.9"/><path d="m198 202c4.1 2.5 4.4 7.3 5.1 11.6-1.9 1.1-3.9 2.2-5.8 3.4-.4-5-.6-10 .7-15"/><path d="m206 210c1.8-.6 2.4 2.3.6 2.7-1.8.6-2.4-2.3-.6-2.7"/><path d="m179 228l-.3.8c-.6 4.4-1.2 8.7-1.6 13 1.1-3.1 2.1-6.1 3.3-9.1.3 2.1 1.8 4 1.2 6.2-.8 1.6-1.7 3.2-2.7 4.7 1.5.9 3.1 1.8 4.3 3.1 1.3 3.6.4 7.6.1 11.3-1.6-3.2-2.9-6.6-4.1-10-.3 7.2 3.6 13.5 3.8 20.6.3 6.7.4 13.4 1.8 19.9-.4.5-1.2 1.5-1.6 2-3-5.1-3.3-11-4-16.8-.3-3.7-1.8-7.3-1.3-11 .5-4.8 1.2-9.6.8-14.5-.2-2.9-2.2-5.2-2.8-8 .5-4.2 1.5-8.3 3-12.3"/><path d="m243 248c0-6.3 1.3-13 5.3-18-.6 6.3.6 12.5 3 18.3 1-.5 2-.9 3-1.4 1 1.8 2.1 3.5 2.7 5.4-2.5 2-3.5 5-3.2 8.2-.3-1.4-.5-2.8-.7-4.1.2-1.3.4-2.6.7-3.9-.2-.3-.5-.8-.7-1-3.6.3-8 .1-10.2-3.3"/><path d="m189 243c1.4-.5 2.8-1.1 4.2-1.6.3 1.2.6 2.5.9 3.7-1.7 0-3.3-.1-5-.2 0-.5-.1-1.4-.1-1.9"/><path d="m200 252c4.4 1.7 6.5 6.2 6.4 10.7-3.3-2.8-5.2-6.7-6.4-10.7"/><path d="m242 252c3 1.3 6 2.4 9 3.7-2.5 8.6-3.7 17.6-4.3 26.6 4-6.1 3.8-13.6 4.6-20.6 4.8 7.5 2.3 16.6 3.4 24.9.3 4.4 1 8.9.3 13.3-.7 3.6-2.2 7-3.4 10.5 3.8-3.2 6.2-7.6 6.3-12.6-.1 4.9.4 9.9.3 14.8-.4 4.2-1.9 8.2-3.2 12.3-1.2 3.6.1 7.5-.8 11.2-1.6 5-4.9 10.6-10.9 10.6.8-7.4 1.9-14.8 3.4-22 .3-1.1.7-2.1.9-3.2 1.3-4 1.2-8.3.7-12.4-.8-6.2-1.1-13-5.1-18-.9-1.3-2-2.5-2.8-3.8-2.3-6.6-1.9-13.7-2.5-20.6.4-2.3.8-4.6 1.3-6.9.8-2.5 1.8-4.9 2.8-7.3"/><path d="m178 291c2.2-.5 4.4-.7 6.6-.9l.7.1c3.4 7.7 1.3 16.3 3.8 24 1.9 6.2 1 12.8 1.6 19 .2 2.9.7 5.9.4 8.8-.6 2-1.9 3.7-2.9 5.4-2.6-.9-5.3-1.8-7.9-2.8.7-.1 2-.4 2.7-.5-2.4-4.4-4.3-9-5.5-13.9-.4 1-.8 2-1.2 3 .3-3.1.8-6.2 1.3-9.3 1.9 4.6 4.7 9.1 9.2 11.7-2-3.1-4.3-6-5.9-9.4-1.6-3.4-1.6-7.3-2-11-.8.6-1.5 1.2-2.3 1.8-.7-6.3-.3-12.7 1.7-18.8 1.5 3.2 3.6 6.2 5.6 9.1-1.3-3.8-2.4-7.6-3.4-11.5.7-.2 2.2-.6 2.9-.8-1.8-.9-3.7-1.8-5.5-2.6 0-.5 0-1.5-.1-2m-.5 20.4c2.6 3.7 6.3 6.5 9.8 9.3-1.4-2.3-3-4.3-4.8-6.4-2.3-2.7-2.9-6.3-4.5-9.4-1.9 1.4-1 4.5-.5 6.5z"/><path d="m214 298c.7.2 2.2.7 2.9.9.2.7.5 2.1.7 2.8.1 1.9.2 3.9.3 5.8.1 2.1.5 4.1.8 6.1-.3.8-.7 1.7-1 2.5.3-.1.9-.2 1.2-.2 3.1 7.2 2.9 15.2 5.7 22.5 0 .4.1 1.1.1 1.4-.1 1.2.2 2.3.7 3.3l.3.7c-1.2 1.3-2.4 2.6-3.6 3.9 1.6 1.6 3.1 3.2 4.7 4.8-.2.5-.6 1.6-.7 2.1-1.3.2-2.6.4-3.8.6-.9 2.7-1.4 5.8-3.2 8.1-2.2 2-5.2 2.9-7.9 4-1.5-5.7-4-11.5-2.4-17.4.9-3.1.5-6.4-.4-9.4l-.1-.6c2-2.9 2.6-6.3 3.1-9.7.8-5.7 3.7-10.9 3.4-16.7-.1-5.1-.5-10.2-.6-15.3m-3.1 48c1.9.3 3.8.6 5.8.9-1.2-3.2-2.9-6-5.1-8.6-.3 2.6-.5 5.1-.7 7.7z"/></g><g style="fill:#492c0f"><path d="m212 217c3.8 1.8 3.9 6.4 4 10.1-2.9-2.6-3.4-6.5-4-10.1"/><path d="m251 229l.2-.8c1.4 5.4 2.6 10.9 5.1 15.9 1.5 2.7 2.1 5.9.9 8.9-.3-1.9-.1-3.9-.9-5.7-1.6-2.2-3.8-3.7-5.2-6.1-.9-4-.1-8.2-.1-12.2"/><path d="m251 256c.6.2 1.8.7 2.4.9.2 1.4.4 2.8.7 4.1 3.2 9.4 1.5 19.4 3.1 29-.8-1.1-1.6-2.2-2.4-3.3-1.1-8.3 1.4-17.4-3.4-24.9-.8 7-.6 14.4-4.6 20.6.5-9 1.7-17.9 4.3-26.6"/><path d="m234 271c-2.5-3.1-3-7-1.4-10.6 1.8 3.2 2.9 7 1.4 10.6"/><path d="m240 290c-4.8-6.8-4.6-15.7-1.9-23 .6 6.9.2 14 2.5 20.6-.1.7-.4 2-.6 2.6"/><path d="m180 274c.7 5.7 1 11.7 4 16.8l.7.1c-2.2.2-4.4.4-6.6.9.6-6-.9-12.3 1.9-17.9"/><path d="m230 288c-.9-2.4-.4-4.9 0-7.3 1.8 3.5 3.7 7 4.3 11 .7 3.8-.2 7.8.4 11.6 2.1 3.5 4.9 6.7 5.5 10.9-5.3-.9-6.5-6.5-7.4-11-.7-5.2-1.2-10.4-2.9-15.3"/><path d="m225 339c2.8-1.2 3.7 3.4.7 3.3-.5-1-.8-2.2-.7-3.3"/></g></svg>