<svg xmlns="http://www.w3.org/2000/svg" viewBox="0 0 401 382" style="enable-background:new 0 0 401 382"><path d="m250 17.4c1.8-2.4 3.5-4.8 5.2-7.3 3.8 1.6 7.8 2.8 11.8 3.7.1.3.4.8.5 1-.8 1.3-1.7 2.5-2.6 3.8 5.7 2.5 11.6 5.9 18 4.8 1 1.8 1.9 3.8 3.4 5.4 4.5 1.5 9.3 1.2 13.9 2.3 4.3.5 4.1 5.9 6.9 8.3 4.2-.1 8.3-1.6 12.5-.9 3 .5 6.1 1.2 8.7 3 1.1 2.1 1.3 4.5 1.8 6.8 4.9 1 9.9 1.1 14.7 2.2 3.8.7 6 4.3 8.5 6.9 7-1.3 14.3-1.3 21 .8-.3 6.2.9 12.3.6 18.4-.9 6.6.9 13-.1 19.7 0 12.9.4 25.8.1 38.7-.6 4.8-.6 9.6 0 14.4.4 20.8-2.2 41.7.3 62-.2 7 1.8 14 .5 21-.6 4.5-.2 9.1-.8 13.7-.8 5 .5 9.9.3 14.9-.4 13.9-1.9 27.9-.1 41.8.8 7.8-1.6 15.6-.2 23.3 1.2 7.5 0 15 .4 22.6-.2 3.4.9 7.8-2.5 10-3.9 2.3-8.6 1-12.8 2.1-6.2 1.6-12.6 1.6-18.9 2.7-5.9.7-11.8.7-17.7 1.4-15.2.1-30.4.2-45.6.8-4.1-.3-8.3-1-12.5-.7-11.3.6-22.6-.4-33.9.8-3.5.2-7-.6-10.6-.3-7 .7-14 .4-21 1.2-10.2-.8-20.4.9-30.7 1-9.8-1-19.6-.5-29.3-.4-4.8-.1-9.7-.3-14.5.3-12.7 1.1-25.4-.6-38-.2-3 0-5.9.3-8.9.6-4.9.5-9.6-1-14.5-.8-6.3 0-12.5 1.4-18.8 1.7-2.8-.2-6.2-.1-8.3-2.2.1-8.7 1.6-17.4 1.3-26 1.3-.1 2.6-.3 3.9-.4-.9-2.5-2.2-5-2.2-7.7 1.7-4.2 5.9-6.7 8.8-10 4.8-4.8 7.5-11.2 11.3-16.7 1.8-3 4.3-6.1 3.6-9.8-1.3-5.8-6.5-9.4-9-14.5-.4-3.4 1.2-6.6 2.4-9.6 1.8-2.6 4-4.9 6.2-7.1 1.6.2 3.5 0 4.8 1.2 1.4 1.8 3.2 3.6 3.6 6-.3 2.4-1.4 4.6-2.1 6.8 2.8-2.6 8.5-4.9 7.1-9.6-1.5-7.1-2.9-14.5-1.4-21.8 1.1-5.5 2.2-11.2 5.5-15.8 2.5-3.6 5.8-6.7 6.9-11 2.3-7.4-1-15.8 3.6-22.6.8-1.3 1.8-2.7 2.2-4.2 1.1-8.1-3.4-15.9-2.5-23.9 5.1-4 12-3 18-3.8 2.9-2.3 2.8-6.3 3-9.6.5-4.5-3.2-7.9-3.5-12.2.8-6 5.3-10.4 8.8-14.9 2.5 1.7 4.9 3.4 7.3 5.2.1-5.9.8-11.8 1.7-17.7.7-5 3.1-9.5 3.8-14.5-3 1.3-5.8 3.2-9 4.1-2.9-1-4.2-4.5-6-6.8 2.4-2.1 5.4-3.8 6.9-6.8-1.5-5.3-6.1-9.4-5.9-15.3 2.5-.4 5.1-1.3 7.7-.8 3.2 2 4.5 5.8 6.4 8.8 4-1 8.3-1.4 11.8-3.6 4.5-3.7 2.6-10.1 4.2-15 2.8-4.1 8-5.7 12.7-6.5 4.4.2 3 6 3.5 8.9.6 0 1.8-.1 2.4-.1 1.5-2.7 2.4-6.4 5.7-7.6 5.3-2.2 11-3 16.7-4.5.4-3.2-.6-7.4 2.1-9.7 5-1.1 10.4-1.3 14.9-4.1 4.6-2 5.9-7.6 10.5-9.6 6.4-3.4 13.8-3.8 20.6-5.9-2.7-2.9-6-5.3-9.3-7.6.9-2.3 1.1-5.4 3.8-6.4 2.1-1.1 4.4-1.8 6.7-1.2 4.6 1 9 2.8 13.4 4.7m2.4 13.5c-3.7 1.7-7.5 3.7-9.9 7 1.4 3.8 3.2 7.8 6.2 10.6 2.7 1.7 6.1 2.3 9.3 1.9 3.4-1.1 6.6-3.9 7.6-7.4.1-3.7-1.2-8-4.8-9.7-2.6-1.2-5.4-3.5-8.3-2.3m18.5 6.6c2.8 5.9 3 12.5 4.1 18.8 1.8-.5 3.5-.9 5.3-1.4-1-4-1.8-7.9-2.4-11.9-.4-1.7-.6-3.6-2-4.9-1.3-1.5-3.3-.6-4.9-.6m10.4 1.5c-1.4.6-1.5 2.2-.6 3.3 2.9 3.3 7.6 5.4 12 3.9-2.6-3.9-6.6-6.9-11.4-7.2m-62 9.2c.5 1.4.9 2.7 1.4 4.1 1.7-.8 3.4-1.7 5-2.6l1 .2c-.2 1.9-.2 3.8-.3 5.6 1.1-.4 2.2-.9 3.3-1.3.6-2 .5-4.2.7-6.3 1.7-1.5 3.5-3.1 5.2-4.6-.4-.7-1.2-2-1.5-2.7-5.4 1.4-10 4.6-14.7 7.6m77.9-3.4c-.3 1.5-.6 3-.9 4.4 4.3 2 6.2 6.4 8.5 10.2.9-1.5 1.8-2.9 2.8-4.4 2.5 1 5.1 1.5 7.7 1.2 0-1.6.1-3.2.1-4.8-6.8.5-12.3-4-18-6.7m-93 14.8c-1.7 1.6-4 2.9-4.8 5.3 1.9 1.7 4.3-.2 6.3-.6.7 4.3 1.2 8.7 2.7 12.8 1.1.5 2.1 1 3.3 1.5.2-5.3-2.2-10.3-2.3-15.5-.1-3.1 3.5-4.2 5.5-5.8-.9-1.2-1.3-3.7-3.2-3.1-2.8 1.3-5 3.6-7.5 5.5m46.5-6.2c.6 5.5.7 11 1.9 16.5.3 2.3 3 2.6 4.6 3.7 1.6-2.3 3.1-4.6 4.6-6.9-1.6-.5-3.2-1.1-4.8-1.6-.6-2.9-1.1-5.8-2.1-8.6-.4-2-2.7-2.2-4.2-3.1m70 4c1.9 1.9 3.9 3.6 5.6 5.7.3 2.4.6 4.8 1 7.2 1.4-.9 2.7-1.8 4.1-2.7-.3-1-.6-2-.9-2.9.3-.5.9-1.4 1.2-1.9 2.3.6 4.6 1.1 7 1.6-1-1.3-1.8-2.8-3.4-3.4-4.6-2-9.5-3.6-14.5-3.6m-41.6 1.1c-.7 1.4-1.4 2.9-2.1 4.3-3.6.2-7.2.5-10.7.7.3 1.5.2 3.3 1.5 4.4 3 .1 6.8.3 8.8-2.3.3.4 1 1.1 1.4 1.5 1.1 2.8 2.4 5.5 3.7 8.2 1.2-.8 2.4-1.5 3.5-2.3-1.1-3.8-1.6-7.7-2.6-11.5-.3-1.7-2.2-2.2-3.5-3.1m-50 3.8c-.1 4.6 1.8 8.9 3.7 13 1.3-.5 2.7-.9 4.1-1.3-1.6-4.5-2.9-9.1-4.5-13.7-1.1.6-2.2 1.2-3.3 1.9m116 .8c-.7 1.1-1.2 2.2-1.8 3.3 2.3 1.1 4.8 1.8 6.8 3.4 1.6 2.2 1.7 5.1 2.4 7.7 1.3-.6 3-.6 4-1.8.1-1.8-.1-3.5-.2-5.3 4.6 1.1 8.7 3.8 13.5 4.1 0-1.3 0-2.7-.1-4.1-3.2-1.6-6.3-3.5-9-5.9-.7 1.1-1.4 2.1-2.1 3.2-4.3-1.9-8.5-5-13.4-4.7m-41 2.2c1.7 3.4 4.1 6.7 4.3 10.7.3 3.3.7 6.5 1.4 9.8 1.2-.1 2.5-.3 3.7-.4-.5-7.2-2.7-14-4.7-20.8-1.6.3-3.2.5-4.8.8m8.1-1.2c.1 3.3 3-1.5 0 0m-160 2.2c-1.8.4-1.2 3.3.6 2.7 1.8-.4 1.1-3.3-.6-2.7m5.1-.2c-1.6.3-1.4 3.1.4 2.4 1.5-.3 1.4-3.1-.4-2.4m24.3 7.5c-1.2.8-2.8 1.6-2.5 3.3 2 1.6 4.7.2 7 0 .1 2 .2 4 .5 5.9 0 2.1 2.3 2.8 3.7 4 .4-5.9.9-11.8 1.5-17.7-3.4 1.4-6.9 2.7-10.1 4.6m-18 .8c-2.6 1.6-5.2 4.9-3.9 8.1.9.6 1.9.6 2.8.1 1.5-2.3 2.8-4.8 3.5-7.5-.6-.9-1.5-1.2-2.5-.7m169-1.5c-.7 4.9-1.1 11 3.5 14.3 0-4.9-.3-10.3-3.5-14.3m-76 4.9c0 3.7 1.6 7 2.7 10.5.7 3.8.8 7.7 1.3 11.5 1.4-.1 2.8-.3 4.2-.4 0-2.5.1-5-.4-7.5-.8-5.1-3.9-9.4-5-14.4-.9.1-1.8.2-2.8.3m-102 .4c-.5 1.6 0 2.2 1.7 1.7.5-1.6 0-2.2-1.7-1.7m10.3 6c.5 1.9.9 3.8 1.4 5.8-2.3-.8-4.4-1.9-6.5-3.1-3.2 3.3-5 7.6-5.6 12 1.3 0 2.6 0 3.9-.1 1-2.6 2-5.1 3.1-7.7 1.2.5 2.4 1 3.7 1.5 1.7-1.2 3.3-2.3 5-3.5.1-1.2.2-2.4.3-3.7 1.4-1 2.9-2 4.3-3-.4-1-.8-2-1.2-3-2.9 1.2-5.8 2.7-8.4 4.5m70-3.8c0 2.2-.2 4.5 1.1 6.3 3.2 5.1 2.6 11.4 4.8 16.9 1.3 0 2.5 0 3.8 0-1.8-7.8-3.7-15.6-6.5-23-1.1 0-2.1 0-3.2 0m49 1.6c1.9 3.8 2.2 8.9 6.2 11.2.5-4.6-1.5-8.8-3.3-12.9-.7.4-2.1 1.3-2.9 1.7m72 1.1c.4 2.9.8 5.9 1.4 8.8.9 5.8 3.5 11.1 3.9 17 .8.1 2.4.2 3.1.3 2.3-4.9-1.4-9.6-1.8-14.5-.4-4.1-1.1-8.2-3.4-11.6-.8 0-2.4 0-3.2.1m-158 1.3c-1.6 3 3.3.2 0 0m138 3.4c-1 .9-.6 2.9.8 3.1 2-.1 1-4-.8-3.1m-195 1.1c-2.5 1.7-3.2 4.9-4.1 7.6 4.6-.8 7.4-4.6 8.7-8.7-1.6.3-3.2.5-4.6 1.1m105 .3c1.1.8 2.2 1.6 3.3 2.4.5-1.3.9-2.5 1.4-3.8-1.6.5-3.2.9-4.8 1.4m-32.7 0c-.3 3.6.1 7.2 1.1 10.7-1.8 1.2-4.5 1.8-5 4.1 2.2.7 4.5 1.1 6.8 1.5.5 1.6 1 3.2 1.6 4.8 1.3-.3 2.5-.5 3.8-.7-1.5-6.8-4.1-13.3-4.2-20.4-1.3 0-2.6 0-3.9 0m-22 3c.6 3.9 1.6 7.7 2.6 11.5 1.1 3.9 1.2 8 2.1 11.9.4 2 2.9 2.1 4.5 3-.4-3.3-.9-6.5-1.5-9.8 1.5-.7 3.1-1.4 4.6-2.2-.3-1-.6-2.1-.9-3.1-1.4.2-2.9.4-4.3.6-1.4-4-2.7-8-3.9-12-.8 0-2.5.1-3.3.1m124-.3c-.3 2.9-.6 5.9.6 8.7 2 5 3.1 10.4 5.4 15.4 2-.5 4.1-1 6.1-1.6-2-1.5-5.1-2.3-5.8-5-1.7-5.9-1.9-12.7-6.3-17.4m-32.6 2.3c-1.3.7-1.3 1.4 0 2 1.3-.7 1.3-1.4 0-2m16.9-.1c0 .8 0 2.2 0 3 .8 0 2.2 0 3 0 0-.8 0-2.2 0-3-.8 0-2.2 0-3 0m-130 3c.2 3.9 1 7.7 1.9 11.5-1.9.5-3.8 1-5.6 1.6.1.6.3 1.8.3 2.4 3.1 1 6.2 2.1 9.3 3.4 1.2-6.4.3-12.9-2.7-18.7-.8 0-2.4-.1-3.2-.1m166 1.7c1.8 2.6 3.6 5.3 5.1 8.1-2.9 1-5.9 2-8.8 3.1 0 .9 0 2.6 0 3.5 2.6-.1 5.3-.3 7.9-.6 1.4 2.5 3.2 4.8 5.3 6.8 1.1-5.5-.5-11-1.5-16.3-.7-3.6-4.4-6.3-8-4.6m-155 2.4c-1.1 1.3 1.2 2.9 2.1 1.6 1.1-1.3-1.2-2.9-2.1-1.6m172 .2c-1.5 3 3.3.2 0 0m16.2.8c.1 3.3 3-1.5 0 0m-216 1.9c1.1 1.1 2.2 2.2 3.3 3.3.4-1.5.8-3 1.2-4.5-1.5.4-3 .8-4.6 1.2m128 1.9c-4.8.6-10.3-.2-14 3.7-.4.1-1.1.2-1.5.3-1.3-1.7-2.7-3.5-4-5.2 0 1.5 0 3.1 0 4.7-6.2.8-12.2 2.8-18.4 3.1.1 1.2.1 2.4.2 3.6 5 .7 10 .5 15 .8 7.9.8 15.8.7 23.7.8 4.9-.5 9.8.8 14.6 1.7 1.4.7 3.2-.7 3-2.2-.3-3.6-.9-7.3-1.8-10.8-.4-1-.6-2.7-2.1-2.7-5-.2-9.7 1.8-14.5 2.3m-146 5.7c-.2.6-.6 1.8-.8 2.4.8 0 2.4 0 3.2 0 0-.8 0-2.4 0-3.2-.6.2-1.8.6-2.4.8m21.9 3c.7.5 2.2 1.4 2.9 1.9 1.4-1.8 2.8-3.7 4.2-5.6-2.6.6-5.1 1.8-7 3.7m-7.3-1.6c-.9 3.6-1.9 7.2-3.7 10.5-1.4 3-4.2 6.3-1.8 9.7 2.1-1.6 4.2-3.2 6.5-4.5 4.1 3.7 3.9 9.5 3.2 14.5-3.4 2.7-6.5 5.7-9.5 8.8-3 2.6-6.7 7.5-3.6 11.2 3.8-.8 7.3-2.9 11.3-2.8 2.8-.4 6.1.3 8.7-1.1 2.9-3.6 1-8.4-.4-12.1-2.2-4.9-1.3-10.6-3.4-15.5-2.7-5.9-.3-13-4.4-18.5-.7 0-2.2 0-2.9-.1m215 .1c.5 3 1.3 6 2.1 9-1.6 1.2-4.9 1.2-4.7 3.7 2.3 1.2 4.8 2 7.3 2.9-1.2 1.9-2.4 3.9-3.6 5.9 2.6.9 5.2 1.8 7.8 2.7.2-2.2.4-4.4-.1-6.5-1.4-5.8-2.7-11.7-4.7-17.4-1.3-.1-2.7-.1-4-.2m-140 3.6c-3.2 1.5-2.3 5.7-2.3 8.6-.2 5.1 3.6 9.2 3.6 14.3.2 5.3 1.6 10.3 3.6 15.2 2-1.3 3-3.2 2.3-5.5-1.2-6.3 1-12.5-.1-18.8-.8-4.3.5-8.6.6-12.8-1.9-2.2-5.2-1.6-7.6-1m94 .7c-1.5 3 3.3.1 0 0m-184 1c-.2 1.9-.4 3.8-.6 5.8.9 0 2.7-.1 3.6-.2-1-1.9-2-3.7-3-5.6m170 .8c.8 2.5 1.7 5 2.5 7.4 1.3-.6 2.5-1.1 3.7-1.8-.1-1.9-.6-3.8-.9-5.6-1.8 0-3.6 0-5.3 0m32.4 4.1c-.4 1.4 0 1.9 1.4 1.4.4-1.4 0-1.9-1.4-1.4m-159 .4c-1.3 5.5 1.5 10.7 2.2 16 .7 2.4.3 5.9 3.5 6.4-.4-3.7-.8-7.3-1.3-10.9-.8-4.1-2.5-8-3.5-12l-.9.5m20.4.3c-.8 1.8-1.1 3.7-1.4 5.6 1.5-.6 3-1.1 4.5-1.8 0-1.8-.8-4.2-3-3.9m43 0c0 3.2.1 6.4.3 9.7.6.1 1.7.3 2.2.4 1.2-2.6 2.8-5 5-6.8.8.8 1.6 1.6 2.3 2.4-1.5.7-2.9 1.4-4.4 2.1.9 2.6 3 4.3 5.7 4.8.6-2.3.7-4.9 2.6-6.5 1.7-1.8 4.4-1.1 6.7-1.4-.5-1.5-1.1-3-1.8-4.4-6.2 1-12.5 1.1-18.7-.2m34.5 1.8c1.2 1.8 2.6 3.6 4 5.3-1 1.2-2.8 2.3-2.7 4.1-.5 3.4 2.9 5.3 5 7.4.5-1.4.9-2.8 1.4-4.2-1.7-.9-3.3-1.8-5-2.8.3-.8.6-1.6.9-2.4 1.7.2 3.5.3 5.2.4-2.3-3.3-4.3-7.7-8.8-8m8.4.3c0 .8 0 2.3 0 3 1.3 0 2.6 0 4 0 0-.8 0-2.3 0-3-1.3 0-2.6 0-4 0m62.8-.1c.9 6.2 2.2 12.6 6 17.8.7-2.8 1.8-5.6 1.5-8.4-.9-1.6-2.2-2.9-3.3-4.2 1-1.3 1.9-2.7 2.9-4-2.4-.4-4.8-.8-7.1-1.1m9.5-.4c-.6 1.2-1.1 2.4-1.6 3.6 2.2.3 4.4.5 6.7.7-1.7-1.5-3.3-2.9-5-4.3m-32.5 1.6c2.6 8.4 2.7 17.8 7.7 25 1.6 2.9.9 6.4 1.8 9.5.8 2.6.9 5.3.3 7.9 2.7 3.9 4.5 8.3 6.8 12.4 1.4-.6 2.4-1.7 3.4-2.8-2.8-4.1-3.2-9.2-4.5-13.8-1.6-5.4-2.8-10.9-4.7-16.3-2.6-7.3-3.6-15-6.6-22.3-1.4 0-2.7.1-4.1.1m16.7 0c-1.1 1.3 1.2 2.9 2.1 1.6 1.1-1.3-1.2-2.9-2.1-1.6m-49 1.1c1.2 3.3 3.6 5.8 6.8 7.3-.6-2.5-1.3-5.1-2-7.6-1.6.1-3.2.2-4.7.3m-89 1.1c-1 6.1-.4 12.4 1.6 18.2.5 1.9 3.5 3.8 4.3 1.1-.1-4.9-1.5-9.6-2.2-14.4-.2-2.3-2.2-3.5-3.8-4.9m59 .6c-1.4.4-.7 2.8.7 2.1 1.4-.4.7-2.8-.7-2.1m43 .9c.4 2.3 1.2 4.5 3.1 5.9.6-1.6 1.2-3.2 1.7-4.7-1.6-.4-3.2-.8-4.8-1.2m-18 3.9c.9.1 2.8.3 3.7.5-.1-.9-.3-2.8-.4-3.7-1.1 1.1-2.2 2.2-3.3 3.3m-115-1.6c-1.3.7-1.3 1.4 0 2 1.3-.7 1.3-1.4 0-2m187 3.2c-1 1.2.9 3 2 2 1-1.2-.9-3.1-2-2m-70 4c.7 2 1.9 3.7 3 5.4-2.8-1.1-5.6-1.8-8.6-1.9 1.3 2.6 3.4 4.5 5.5 6.4 1.5-.7 3-1.5 4.6-2.2.7 1.9 1.3 3.8 2 5.7.7.1 2.2.4 2.9.5 1.2-3.2-.2-6.1-1.8-8.8-1.6-2.5-.2-5.4.3-8-3-.5-5.8.8-7.8 2.9m-125 .8c-.5 1.4 0 1.9 1.4 1.4.5-1.4 0-1.9-1.4-1.4m153 .4c-1.2.8.1 2.9 1.3 1.9 1.2-.8-.2-2.8-1.3-1.9m-77 .3c-.9 2.7.4 5.1 2 7.2-1.2 3.1-2.1 6.3-2.6 9.6 3.2-2.5 5.3-6 7.1-9.6-1.1-2.3-2.2-4.6-3.2-6.9-.8-.1-2.4-.2-3.2-.2m-53 2.3c-.5 1.4 0 1.9 1.4 1.4.5-1.4 0-1.9-1.4-1.4m89 2.1c-1.5 3 3.3.1 0 0m95 1.8c-.4 1.4.1 1.9 1.4 1.4.4-1.4-.1-1.9-1.4-1.4m-15.2 4c-3.5.6-2.1 4.9-1.7 7.3.2 2.3 2.3 3.6 4.4 4.2 0-2.8-.5-5.7-.8-8.5 3 1.1 5.6 2.8 7.9 4.9.8.9 2.1 1.1 2.9 0-1.3-3.3-3.2-6.8-6.4-8.6-2.1-.3-4.3.2-6.4.7m-173-.4c-.9 2.9-1.3 6-.3 8.9 1.7 5.7 3 11.5 3.8 17.3 1.1-1.1 2.3-2.2 3.5-3.3-.4-3.1-.7-6.5 1.4-9.1.4-.4 1.2-1.3 1.5-1.7 1.3 2.9 1.5 6.2 2.5 9.2 2.1.5 2.4-1.9 2.8-3.4.8-3.6-2.2-6.6-4.5-8.8-2.1.1-4.2.7-6.3 1.1-.6-3.2-1.2-6.4-1.7-9.6-.7-.2-2-.5-2.7-.7m123 .3c-.3 3.4-.6 6.9-.2 10.4.7 5-.4 10 .1 14.9.8 9.3-.1 18.7-.3 28 .3 6.6-.6 13.2-.6 19.8 6.4.7 12.3-2.6 18.6-2.9.2-4.2.1-8.5-1.4-12.5-2.1-5.2-2-11-3.9-16.3-2.4-5.7-1.4-12.2-3.9-17.8-1.5-8-4.6-15.5-5.4-23.6-.8 0-2.3 0-3 0m64.8-.2c.5 1.5.9 3.1 1.4 4.6.7-1.1 1.5-2.2 2.3-3.2-1.2-.5-2.4-.9-3.6-1.4m-102 7.2c.2 1.2.4 2.4.7 3.5 3.6-2.6 6.7-6.4 11.5-6.6-1.8-1-3.6-2.1-5.4-3.2-2.4 2-5.1 3.7-6.9 6.2m-62-4.9c-.1 1.3-.2 2.6-.3 3.9-.3.2-.8.5-1.1.7-3 .4-6 .9-9 1.5.8 1.5 1.7 3.1 2.6 4.6 2.8-.6 5.6-2.2 8.5-1.7 2.8 4.2 1.3 9.6 3 14 .9 1.3 2.8 1.6 4.2 2.3 0-8.8-2.2-17.3-5-25.6-.7.1-2.1.2-2.8.2m-85 1c-1 1.3 1.2 2.9 2.1 1.6 1-1.3-1.2-2.9-2.1-1.6m69 1c.2 3.3 3-1.6 0 0m-72.9 2c-.4 1.4 0 1.9 1.4 1.4.5-1.4 0-1.9-1.4-1.4m142 2.7c-1.3.9-.2 3.6 1.4 2.8 1.3-.9.1-3.6-1.4-2.8m16.2.4c-1.6 1.3.6 3.6 2 2.1 1.7-1.3-.7-3.6-2-2.1m72 .1c-1.5 3 3.3.2 0 0m-104 1.3c.1.8.2 2.4.2 3.2 3.5.8 7 2.1 10.6 2 1.3-.8 1.4-2.3 1.4-3.7-3.7-2-8.1-1.9-12.2-1.6m99-.5c-1.6 1.3-.5 3.5-.5 5.2 1.3-.9 2.5-1.8 3.8-2.7-1-1-1.6-2.7-3.2-2.5m-53 4c0 .7 0 2.2 0 2.9 2.1 0 4.2 0 6.3 0 .1-2.1.2-4.1.3-6.2-2.2 1.1-4.3 2.2-6.5 3.3m-169-1.9c-1.3.7-1.3 1.4 0 2 1.3-.7 1.3-1.4 0-2m158 1.8c.3 1.4.5 2.8.8 4.2 2.7-.7 5.3-1.4 7.9-2.3-.6-1.2-1.1-2.4-1.8-3.6-2.4.3-4.7 1.1-7 1.7m78.9-2.1c-1.4 4.8-.9 10 .7 14.7 1.7 1 3.6 1.4 5.5 2-1.6-5.2-2.9-10.5-3.4-16-.7-.2-2.1-.5-2.8-.7m-42 7.5c3.4 3.8 8.5 2.7 12.8 1.6-.3-1.5-.5-3-.8-4.5-4 .9-8.1 1.7-12 2.9m-205 .2c.1 2.4 1.5 4.1 3.6 5.1-.3-2.3-1.4-4.2-3.6-5.1m190 1.6c0 .8 0 2.3-.1 3.1.6-.2 1.8-.6 2.3-.8.2-.6.6-1.8.9-2.4-.8 0-2.4.1-3.1.1m-67.9 2.2c-1.5 1 .2 3.5 1.6 2.4 1.5-1-.2-3.5-1.6-2.4m15.2-.1c1.8 4.3 5.9 6.9 10.2 8.3.4-2.7.8-5.4 1-8.1-3.7 1.1-7.5.6-11.2-.2m20-.7c-2.6 5.1-6 10.3-11.5 12.6-1.1.7-2.4.1-3.4-.5-2.8-1.2-2.6-4.6-3.6-7-3.1 1.4-5.5 3.9-6.7 7.2 1.5-.3 3-.7 4.5-1.1 1.2 2.1 2.4 4.2 3.7 6.4 3.3-.4 7.1-.3 9.8-2.7 3.3-2.6 6.6-5.5 9.2-8.8.6-.9 1.5-1.9 1.3-3.1-1-1.1-2.1-2-3.2-2.9m6.6.5c-.7.7-1.3 1.5-2 2.2.9 1.2 1.7 2.3 2.6 3.5-1.2 0-2.3 0-3.5.1 2.3 1.7 4.8 3.1 7.3 4.5 1.6-2.4 3.2-4.8 4.8-7.1-3-1.1-6.1-2.1-9.1-3.1m12.8 3.7c1.8 1.2 3.8 2 5.8 2.9-2.2.9-4.4 1.9-6.5 3 .9 1.2 1.9 2.4 2.9 3.6 2.2-1.5 4.5-2.8 6.4-4.6.9-2.6 0-6.6-3.2-7-1.9-.7-6.2-.9-5.4 2.3m-89 1.6c-1.6-.1-1.8 2.7-.1 2.6 1.6.1 1.8-2.7.1-2.6m-10.7 1.2c.6 7.2 4.6 13.7 4.3 21 .7 0 2.2 0 3 .1.8-7.3-3.9-13.7-3.3-21-1 0-2.9 0-3.9 0m25.7.8c-2.1 3.9-1.1 8.2.9 11.8 2.6 4.4 1.7 9.7 3.4 14.4 1.1.8 2.3 1.3 3.6 1.7.8-1.7.4-3.5.2-5.3-.7-3.9-1.1-8-2.3-11.8-1.4-3.9-1.5-8.8-5.7-10.8m136 .8c.1 3.3 3-1.5 0 0m11.2-.2c-.3 3.6.7 7.1 2.2 10.4-2 .9-3.8 2.1-5.3 3.7 2-.5 3.9-1.2 5.9-1.8 1.1 3.9 2.1 7.8 3.1 11.7.7.1 2.2.1 2.9.2-.1-8.3-4-15.8-5.2-23.9-.9-.1-2.6-.2-3.5-.3m-91 1.3c-1.1 1.3 1.3 2.8 2.1 1.4 1.1-1.3-1.3-2.8-2.1-1.4m-86 .9c.2 3.3 3-1.6 0 0m172 .2c-1.5 3 3.3.1 0 0m-89 5.7c2 2.2 4.8 4.2 7.9 3 1.8-2.4 2.4-5.4 3.2-8.3-4.1.8-7.9 2.6-11 5.3m-149-2.8c-.5 1.6 0 2.2 1.7 1.7.5-1.6 0-2.2-1.7-1.7m171 1.8c1.6 2.3 3.2 5.4 6.5 5.2 1.2-1.9 1.1-4.3 1.4-6.4-2.7-.1-5.4.3-7.9 1.2m52-2c.6 5.3 1.9 10.4 2.7 15.6.3 3.5 2.3 6.5 5.3 8.4-.7-5.7-2-11.3-3.3-16.8-.6-2.9-2.3-5.4-4.6-7.2m27.7 4.2c-.5 1.6 0 2.2 1.7 1.7.5-1.6 0-2.2-1.7-1.7m-203 2.2c.4.8 1.3 2.4 1.8 3.2.9-.7 1.7-1.3 2.6-2.1-.9-1.5-2.9-1.1-4.4-1.2m-65 1.6c.1 1.4.1 2.9.4 4.3 1.6-1.2 3-2.7 4.5-4.1-1.6-.1-3.3-.1-4.9-.2m49 .2c-.9 1.5 1.7 2.9 2.7 1.6.9-1.5-1.7-2.9-2.7-1.6m-26 4.5c2.1.1 4.3.2 6.4.3.7-1.4 1.5-2.8 2.2-4.3-2.9 1.2-5.8 2.5-8.6 4m88-2.7c-1.9.4-1.1 3.5.8 3 1.9-.4 1.1-3.6-.8-3m26.3-.4c.8 2.6 2 5.1 3.3 7.5-.8 1.3-1.5 2.5-2.2 3.9 2.3 1.2 4.8.4 7.2.3.1-5.3-3.4-9.8-8.3-11.6m98 .6c-1.1 1.3 1.3 2.8 2.1 1.4 1.1-1.3-1.3-2.8-2.1-1.4m-8.9 2.2c-1.3 1.3.9 3.6 2.3 2.3 1.3-1.3-1-3.6-2.3-2.3m-178 .1c-.1.9-.3 2.8-.4 3.7.9-.1 2.8-.3 3.7-.4-1.1-1.1-2.1-2.2-3.2-3.2m19.9 2c-1.5 1.3.8 3.7 2.1 2.2 1.5-1.3-.8-3.6-2.1-2.2m-46 .5c.1.9.3 2.8.4 3.7 1.1-1.1 2.2-2.2 3.3-3.2-.9-.1-2.8-.3-3.7-.4m111 1.4c-1.5 1 .2 3.5 1.6 2.4 1.5-1-.2-3.5-1.6-2.4m-137 .1c.8 4.7 1.8 9.4 2.5 14 1.1.2 2.3.3 3.4.5-.2-3.8.4-8-1.5-11.5-.8-1.8-2.9-2.2-4.5-3.1m14.2 0c-.6 1.5-1.1 3-1.7 4.5 1-.1 2.9-.1 3.9-.2-.7-1.5-1.5-2.9-2.2-4.4m182 .3c.5 1.3 1 2.6 1.5 3.8 1-.9 2.1-1.7 3.3-2.4-1.6-.5-3.2-1-4.7-1.5m-112 1.6c-1.5 3 3.3.1 0 0m102 .3c.1 2.4 1.7 5.3-.1 7.5-1.5 2.1-4.1 2.9-6.3 4-.2.4-.7 1.3-.9 1.8.9.7 1.9 1.4 2.9 2.2 2-1.3 4.2-2.5 5.9-4.2 1.8-2.8 2.8-5.9 4.2-8.9-1.9-.8-3.8-1.6-5.7-2.3m-111 1.7c-2.1 6.2-.7 12.6 1 18.7 1.2 8.3 3.7 16.4 4.6 24.8 2.1 8.7 4 17.6 4.1 26.6.1 4.4 1 8.9 3.4 12.5 2.2 1.4 4.8 2 7.3 2.9-.5-7.1-3.9-13.6-4.9-20.6-2-6.5-1-13.6-3.9-19.8-2.1-4.6-1.6-9.9-3.3-14.6-2-5.2-1.1-11-3.8-16-2.4-4.6 0-10.8-4.5-14.4m54 1c-1.5 1 .2 3.5 1.6 2.4 1.5-1-.2-3.5-1.6-2.4m14.4 2.9c1.4 2.3 2.5 4.9 4.6 6.7 1.5 1.5 3.6.7 5.5.6-.4-3-.3-6 .1-9-3.4-1.6-6.9.5-10.1 1.6m-44.9-1.3c-.6 3.6-.4 7.3.9 10.7 2.3 5.9 2.5 12.3 4.7 18 1.2 3.1 1.1 6.4 1.6 9.7 0 2.2 2.9 2.3 4.3 3.3.9-4.3.3-8.7-1.3-12.8-2-5.2-2.2-10.7-3.8-16-1.3-4.3-2.2-8.6-3-13-.9 0-2.6 0-3.4-.1m79 .4c-1.5 3 3.3.1 0 0m12.6 8c3.8-1.9 8-4.1 8.8-8.7-4.7.5-9 3.5-8.8 8.7m-149-7.2c-.4 1.4 0 1.9 1.4 1.4.4-1.4 0-1.9-1.4-1.4m3.4 5.3c2.3.5 4.6 1 6.9 1.4.3-1.8.5-3.5.7-5.3-2.8.6-5.3 2-7.6 3.8m196-3.3c-.4 1.4 0 1.9 1.4 1.4.4-1.4-.1-1.9-1.4-1.4m-135 1.2c-1.5 3 3.3.1 0 0m145 .3c-.6 5.9 3.8 10.6 4.1 16.3.3 4.1 1.4 8 2.4 12 1.5-.9 2.9-1.7 4.4-2.6-1.3-2.2-2.6-4.5-2.7-7.2-.4-6.4-3.5-12.2-4.6-18.5-1.2 0-2.4 0-3.6 0m-91 2.5c0 1.3.7 2 2 2.1 3.7 1 7.6.6 11.3.1 0-1.4-.1-2.9-.1-4.3-4.4.5-8.9.7-13 2.1m-100-.9c-.5 1.6 0 2.2 1.7 1.7.5-1.6 0-2.2-1.7-1.7m63-.1c0 2.7.1 5.4 1.2 7.9 2.5 5.4 1.2 11.7 3.8 17 1.5 0 3 0 4.5 0-.9-8.6-2.8-17-6.2-25-.8 0-2.5.1-3.3.1m73 .4c-.6 1.5-1.1 3-1.7 4.5 1-.1 2.9-.1 3.9-.2-.7-1.5-1.5-2.9-2.2-4.4m-194 7.7c.9 4.6 1.1 9.3 2.1 13.9.9 0 2.8.1 3.7.1.3-4.1.8-8.5-1.2-12.3-.8-1.8-3-1.4-4.6-1.7m163 4.3c-7.1-.5-15-1.7-21.4 2.3 1.9 2.2 3.5 5.7 6.9 5.6 2.2-.5 4.2-1.8 6.3-2.5 4.6-1.8 9.7-.2 14.3-1.9 2.2-2 3.6-4.7 5.3-7.1-3.6 1.6-7.2 4.1-11.3 3.5m19.6-1.9c.6 1.2 1.3 2.3 2 3.4 3.6.6 7.6 0 10.8-2 .1-1.3-.8-2.7-2.2-2.6-3.5 0-7 .7-10.5 1.2m-120-.3c-.4 1.4.1 1.9 1.5 1.4.4-1.4-.1-1.9-1.5-1.4m-54.9 1.1c-.9 1.1 1 2.7 1.9 1.5.9-1.1-1-2.7-1.9-1.5m221 1.9c.4 1 .9 2 1.4 3 2.4-.1 2.7-2.7 3.3-4.6-1.6.5-3.2.9-4.7 1.6m-28.7.1c-1.5 3 3.3.1 0 0m-189 1c-1.6-.1-1.8 2.7-.1 2.6 1.6.1 1.7-2.7.1-2.6m58 .1c-.6 2-1.1 4-1.5 6 1.1-1.1 2.2-2.1 3.1-3.3-.5-.9-1-1.8-1.6-2.7m191 1.7c-.5 1.4 0 1.9 1.4 1.4.5-1.4 0-1.9-1.4-1.4m-206 .9c0 .8 0 2.3 0 3 .8 0 2.3 0 3 0 0-.8 0-2.3 0-3-.8 0-2.3 0-3 0m159 .1c1.1 4 2.8 7.8 4.8 11.4 1.2-.6 2.4-1.2 3.6-1.9-.8-3.4-2.8-6.4-4.4-9.6-1.4 0-2.7 0-4.1 0m-59 2.2c-1.5 1 .2 3.5 1.6 2.3 1.5-1-.2-3.5-1.6-2.3m39.7.2c.4 3.2 1.2 6.4 2.1 9.6-3.7.3-7.4.7-10.9 1.7 0 .9-.1 2.7-.2 3.6 3.6.6 7.3.6 10.9-.2.6 1.5 1.1 3 1.7 4.6 1.2.1 2.4.2 3.6.3-.6-5.2-.8-10.4-1.8-15.5-.5-2.6-3.4-3-5.4-4m-182 2.5c1.3 2.7 2 5.9 4.1 8.1 2.4 1.9 5.1-.3 7.3-1.4-.7-1.3-1.3-2.6-2.2-3.8-2.9-1.4-6.1-2-9.2-3m213-.7c0 1.7 0 3.5 0 5.2 1.3-.6 2.6-1.2 3.9-1.9.4-2.2-2.5-2.3-3.9-3.3m-238 1.9c-1.6 2.6-3.2 5-4.8 7.6 1.6 0 3.1.1 4.7.1.8-2.7 1.8-5.3 2.8-7.9-.7.1-2 .2-2.6.2m59.7-.2c.1 3.3 3-1.6 0 0m100 .3c-.4 1.4 0 1.9 1.4 1.4.4-1.4 0-1.9-1.4-1.4m21-.1c-1.5 3 3.3.2 0 0m69 1c-1.5 1 .2 3.5 1.6 2.4 1.5-1-.2-3.5-1.6-2.4m-235 .8c-1.1 1.3 1.3 2.8 2.1 1.4 1.1-1.3-1.3-2.8-2.1-1.4m171 1.1c-1.5 0-1.5 2.4 0 2.4 1.5.1 1.5-2.4 0-2.4m-165 3.1c-.8 1.4 1.4 3.2 2.7 2.3.8-1.4-1.4-3.2-2.7-2.3m16.2-.6c.8 2.7 1.7 5.3 2.5 8 .8.1 2.3.3 3 .4.2-1.3.5-2.6.6-3.9-1.8-1.8-4-3.1-6-4.5m122 1.7c1.2 3.9 2.7 7.8 4.2 11.6-2.4 0-4.9.1-7.3.1 0 1.9 0 3.8-.1 5.7 2.4-.7 4.8-1.4 7.3-1.6.8 2.9 1.1 6.5 4.6 7.4 1.1-8.3-1.8-16.3-4.9-23.8-1.2.2-2.5.4-3.7.5m87 2.9c-.2 2.5.8 4.8 1.5 7.2 1.9-.7 3.9-1.4 5.8-2.2-1.4-2.7-2.6-5.6-4.2-8.2-2-.5-2.5 1.8-3 3.2m23.4-4c-2.1 5.6 1.6 10.8 2.6 16.2-2.4 1.2-6 1.5-6.9 4.4 3.9 1.8 8.4 1.8 12.6 1.3-1-6.1-2.7-12-4.5-17.9-.4-2-2.4-2.7-3.8-3.9m-85 1.4c-.1 1.5-.1 3-.2 4.5 1.2.8 2.4 1.6 3.7 2.2 2.2 0 3.9-1.9 5.7-2.9-3.2-.9-6.4-2.1-9.3-3.8m-167 1.7c-2.8 7.4-4.3 15.4-1.9 23 .9 10 3.9 19.9 2.7 30-.8 4.6-5.9 6.7-7.5 10.9-.6 2.9-.1 5.8.2 8.6-1.2.7-2.4 1.4-3.6 2.1 0 .8-.1 2.4-.1 3.1 2-.7 4.1-1.5 6.1-2.2-.9 4.2-2 8.3-3.2 12.4 5.6 3 5.5 10.3 10.2 14.2 2.6-2.4 1.8-5.8 1.8-8.8 1.1-3 3.9-5 6-7.3 3.7.8 7.5 1.2 11.2.4-2.5-9.9-5.6-19.7-6.4-30-1.9-10.6-4.4-21-6-31.9-1-4.3-3-8.5-2.6-13 .5-4.8-1.6-10.5-6.8-11.6m122 .7c.1 3.1 1.4 6 2.1 9 .9 4.2-.6 9.5 3.5 12.2 1.7-3.6 4.6-6.3 8.1-7.9-.6-1.1-1.1-2.3-1.7-3.4-2 0-3 1.8-3.9 3.3-.3-.3-1-.8-1.3-1.1-.4-4.1-1.5-8-2.7-12-1.4 0-2.7-.1-4.1-.1m-136 1.7c1.2 1.3 2.5 2.5 3.8 3.8.2-1.1.3-2.2.4-3.3-.9-1.5-2.8-.4-4.2-.4m25-1.6c.3 2.8.8 5.6 1.1 8.3 1.8 0 3.6-.1 5.4-.1-.8-3.6-3.5-6.2-6.5-8.2m16.6 2c-.5 1.6 0 2.2 1.7 1.7.5-1.6 0-2.2-1.7-1.7m61-.2c.2.6.6 1.8.8 2.4.6.2 1.8.6 2.4.8 0-.8 0-2.4 0-3.2-.8 0-2.4 0-3.2 0m126-.5c.1 11.5 4.2 22.4 6.7 33.6.9 0 2.5-.1 3.4-.1-.4-5.4-1.4-10.7-3.3-15.8-1.6-4.4-1.6-9.1-2.5-13.7-.6-2-2.9-2.8-4.3-4m-181 2.6c-.4 1.4 0 1.9 1.4 1.4.4-1.4 0-1.9-1.4-1.4m213 1.8c-1.1.6-1.1 2.5 0 3.1 1.8.3 1.8-3.4 0-3.1m-157 3.2c-.5 1.6 0 2.2 1.7 1.7.5-1.6 0-2.2-1.7-1.7m109-.4c1.9 1.5 3.8 3 5.8 4.5.5-1.2 1.1-2.4 1.6-3.7-2.5-.3-4.9-.6-7.4-.8m-217 5.5c1.3 1.1 2.7 2.2 4.1 3.3-.6 2.4-1.3 4.9-1.8 7.3 1.4 0 2.9 0 4.3 0 .4-3.2.4-6.4-.3-9.6 2.1 1.2 4.2 2.4 6.2 3.6.3-.5.8-1.5 1.1-2-1.5-1.9-2.8-4-4.5-5.7-3.2.2-6.1 1.9-9 3m103-3.2c-.4 1.4.1 1.9 1.4 1.4.4-1.4 0-1.9-1.4-1.4m-108 2.2c0 1.3-.1 2.6-.2 3.9.5-.4 1.5-1.1 2-1.5 0-1.3.1-2.6.1-3.9-.5.4-1.5 1.1-2 1.5m34-1c-1.5 1 .2 3.5 1.6 2.4 1.5-1-.2-3.5-1.6-2.4m18 1c-1.5-.1-1.5 2.4 0 2.4 1.5.1 1.5-2.4 0-2.4m74-.4c0 1.4.1 2.9.1 4.3.2 3.3-2.8 5.4-4.3 7.9 2 .2 3.9.3 5.9.5.8 3.4 2 6.7 4.1 9.5 1.4-7.8-3.1-15-3-22.7-.7.1-2.1.3-2.8.4m91-.1c1.1 4.9 3.4 9.4 4.1 14.4.7 4.4 1.2 9.3 4.5 12.6 1.2.5 2 .1 2.5-1.1-.1-2.1-.9-4.1-1.4-6-1.8-5.8-2-12-4.5-17.7-.7-2.2-3.4-1.8-5.2-2.2m-130 .8c.5 2.7 2.3 4.7 4.7 5.9-.2-2.9-2-5-4.7-5.9m107-.5c1.2 5.1 3.7 9.8 4.2 15 .4 4.1 1.4 8.4 4.9 10.9-.8-5.9-2.4-11.8-3.6-17.6-1.1-3.1-1.6-7.7-5.6-8.3m35.6.6c.3 2.3.7 4.6 1.1 6.8 1.8-.9 3.6-1.7 5.2-2.8-.9-2.6-4.2-2.9-6.3-4m-39.7 1.6c-1.5 3 3.3.2 0 0m-155 2.2c1.3.6 2.6 1.2 3.9 1.8.7-1.1 1.3-2.1 2-3.1-2 .4-3.9.9-5.9 1.3m223 1.5c3.8 5 4 11.5 6.1 17.2 1.3-.2 2.9-.9 2.9-2.4.2-3.5-1.3-6.8-1.4-10.2 1.7-2.4 5-4.3 3.7-7.8-3.8 1.1-7.6 2.2-11.4 3.2m-275 1.3l.7.7c-.2.4-.5 1.4-.7 1.8-2.3 1.6-3.7 3.9-2.6 6.7 5.2-1.6 8.2-6.9 7.6-12.2-1.7 1-3.3 2-4.9 3m58.8-1.1c-.5 1.6 0 2.2 1.7 1.7.5-1.6 0-2.2-1.7-1.7m195 0c-.5 1.4 0 1.9 1.4 1.4.4-1.4 0-1.9-1.4-1.4m46.9 1.1c-1.2 4.2-1.5 8.8-.1 13 1 2.3 3.6 3.1 5.7 4.4-1.1-4.4-1.6-8.8-2.2-13.3-.1-2-2.1-2.9-3.3-4.1m-268 1.7c0 1.4 0 2.9.1 4.3 1.4-.4 2.7-.7 4.1-1.1-.5-1-.9-2-1.4-3-.7-.1-2.1-.2-2.7-.2m94 6.3c3.6.9 7.2-.2 10.3-2-1-1.4-2-2.8-3-4.2-3.2 1.1-6.1 2.8-7.3 6.2m-44-4.1c.5 1.4 1.1 2.9 1.6 4.3 1.3-1.8 2.7-3.6 4-5.5-1.9.4-3.7.8-5.6 1.1m206-1c-.5 1.6 0 2.2 1.7 1.7.5-1.6 0-2.2-1.7-1.7m-220 .8c-1.4.4-.7 2.8.7 2.1 1.4-.4.7-2.8-.7-2.1m28 .4c-1.5 1 .2 3.5 1.6 2.4 1.5-1-.2-3.5-1.6-2.4m-5 .8c-1.3.7-1.3 1.4 0 2 1.3-.7 1.3-1.4 0-2m78-.8c-.4 3.3-.9 6.8.5 9.9 2.1 4.6 1.7 11 7.2 13.3-.4-6.4-1.6-12.8-3.8-18.9-.7-1.9-2.4-3.1-3.9-4.4m39 1c1.2 1.1 2.4 2.3 3.6 3.4 0-.9.1-2.7.2-3.6-.9.1-2.8.2-3.8.3m-195 2.8c-.2.6-.7 1.7-.9 2.3 4.1 7.1 8.1 15.5 16 18.9-.5-4.6-4.1-7.7-6.3-11.5-1.9-3.2-3.5-6.5-5.3-9.7-1.2 0-2.4 0-3.7 0m-14.2 8.5c2-2.2 3-5 3.1-8-2.8 1.8-3.5 4.8-3.1 8m5.3-7.2c-1.3.9.3 3.2 1.6 2.1 1.3-.9-.3-3.2-1.6-2.1m77 0c-1.6 3 3.3.2 0 0m-46 .7c-1.4.4-.7 2.8.7 2.1 1.4-.4.7-2.8-.7-2.1m21 1.3c-1.1 1.3 1.3 2.8 2.1 1.4 1.1-1.4-1.3-2.8-2.1-1.4m3.5-.3c1.2 1.5 2.4 3.1 3.6 4.6.6-1.2 1.2-2.4 1.8-3.6-1.8-.3-3.6-.6-5.4-.9m-56.6 4.6c-.7 2.1 1.5 3.6 2.4 5.3-.5 1.7-1 3.4-1.4 5.2 1 .8 2.1 1.5 3.1 2.3.3-4 2.7-7.4 3.7-11.2-.3-2.1-1.9-3.8-2.9-5.6-1.7 1.3-3.5 2.4-4.9 4m21.8-2.1c0 1.4 0 2.8.1 4.2 2 .3 4 .7 6 1.1 0-1.7 0-3.4 0-5.1-2-.1-4.1-.1-6.1-.2m9.8-.7c-.6 3.4-1.5 6.7-3.4 9.6.3 1.6.5 3.2.8 4.8.6-.1 1.8-.1 2.4-.2.2-.6.6-1.9.8-2.5 1.4.9 2.8 1.8 4.2 2.7 0-1.9-.1-3.8-.2-5.7-1.3 0-2.6.1-3.9.1.5-1.7 1.2-3.4 1.3-5.3-.5-1.3-1.3-2.4-2-3.6m221 .4c-1.8.4-1.1 3.3.6 2.7 1.8-.4 1.2-3.3-.6-2.7m-63 .9c1.9 5.8 2 11.9 3.9 17.7.9 2.7.8 5.7 2.3 8.1 3 2.6 6.6-.9 9.6-1.9 0-1.4-.1-2.8-.1-4.2-2.3.6-4.6 1.2-6.8 1.9-2.2-7.1-2.6-14.6-5.1-21.7-1.3 0-2.6 0-3.8 0m-44 1.6c-1.3 1 .3 3.1 1.6 2.1 1.4-1-.4-3.1-1.6-2.1m-63.9.8c-1.2-.2-2.3 1.3-1.5 2.3 1.4 1.3 3.5-1.8 1.5-2.3m201 1.2c-.8 1.6-1.6 3.1-2.4 4.7 1.5-.5 3-1 4.5-1.5-.7-1.1-1.4-2.1-2.1-3.2m-274 6.5c.3 2 1 4 1.7 5.9 2.2-.7 4.5-1.5 6.7-2.2-1-3.3-2.5-6.4-4.3-9.3-1.4 1.8-3 3.5-4.1 5.6m96-4.1c1.7 2.1 3.7 3.9 5.9 5.5.4-2.3.8-4.5 1.1-6.8-2.3.4-4.7.8-7 1.3m104-1.2c-1.6.4-.8 3.1.8 2.4 1.6-.4.8-3.1-.8-2.4m-155 1.1c-.5.6-1.5 1.8-2 2.3 1.5.3 3 .6 4.6.9.5-1.1.9-2.2 1.4-3.3-1.3 0-2.6 0-3.9.1m19.9.1c-.5 1.6 0 2.2 1.7 1.7.5-1.6 0-2.2-1.7-1.7m26.5-.1c.6 1.5 1.1 3 1.6 4.6.9-1.4 1.4-3 2.3-4.4-1 0-2.9-.1-3.9-.1m189 .2c-1.2 2.1 2.8 2.6 2.9.5-.1-1.5-2.2-1.5-2.9-.5m-34.6 4.4c.4 1.6.8 3.1 1.2 4.7 2.4-.8 4.8-1.7 7.2-2.6 2.4 5.4 3.5 11.3 5.1 17 .4 2.4 2.8 3.1 4.7 3.8-.7-9.3-3.9-18-7.8-26.4-3.3 1.5-6.8 2.7-10.4 3.6m45.7-2.6c.7 2.4 1.4 4.7 2.2 7 1.1-.5 2.1-.9 3.2-1.4-.4-1.9-.7-3.7-1.1-5.6-1.4 0-2.9 0-4.3 0m-224 1.2c-1.6 3 3.3.2 0 0m220-.1c-.5 1.4 0 1.9 1.4 1.4.4-1.4 0-1.9-1.4-1.4m-144 1.9c.2 3.3 3-1.5 0 0m52.8 1.2c-1.5 3 3.3.1 0 0m35.9 1.6c1.1 3.3 1.9 6.6 2.2 10 .7 6.7 4.1 12.6 5.8 19 .8 0 2.5 0 3.4 0-1-8.5-5.7-16-6.3-24.5 1.8-2 3.3-4.1 4.5-6.5-3.3.4-6.5 1.1-9.6 2m-93 .8c-.5.5-1.1 1-1.6 1.6 1.7 7.8 3.2 15.7 6.2 23 3.1-2.4 6.5-4.5 10-6.2-.9-.9-1.9-1.9-2.9-2.6-2-.1-4 .3-6 .6-1.1-4.1-1.4-8.4-.9-12.6 1.2.4 2.4.8 3.6 1.1-.3 2.7-.4 5.7 2.6 6.9.1-3.9-.9-7.7-2.8-11-2.8.1-5.7-.1-8.4-.8m-62.8.9c0 1 .1 2.9.1 3.9 1.5-.8 3.1-1.4 4.5-2.3-1.5-.5-3.1-1-4.6-1.6m88 .4c-.3 3.4-.4 6.9-.4 10.3-3 1.4-6.1 2.7-9 4.2 1.2 1.1 2.2 2.7 3.8 3.2 2.5-.5 4.7-2.3 7.3-2.4.1 2.3-.1 4.6-.2 6.9 1.9-.8 3.9-1.7 5.9-2.5-2.2-6.4-3.2-13-4-19.9-.8 0-2.5.1-3.3.2m110 3.8c1.3 6.9 4.5 13.2 7 19.7 1.2-.6 2.4-1.2 3.6-1.9-.7-3.7-2.9-6.9-4.1-10.4-1.4-3.9-1.9-8-3.1-12-1.2 1.4-4 2.3-3.3 4.6m-257-1.8c1.8 1.9 4.1 1.9 6.4.9-1.8-1.9-4.1-1.9-6.4-.9m43.9.1c-.1.8-.2 2.2-.3 3 2.1-.7 4.2-1.5 6.3-2.2-.4-.5-1.1-1.5-1.5-2-1.5.4-3.1.8-4.6 1.2m8.9-.9c-1.6 3 3.3.2 0 0m42 4.4c-.4 5.9 2.9 11.2 2.3 17-.1 2.8-3.7 3.2-5.8 3.6-5.4.3-10.5 2.2-15.8 3.1-5.6.7-11 2.2-16 4.6 3.9 3.1 8.2-1 12.4 0 6.5 1.4 13-1.1 19.6-.4 4.6.4 9.2-.5 13.7-1.2-1.1-5.3-.8-10.8-2.7-15.9-2.1-5.3-.7-11.2-2.6-16.5-2 1.5-5.5 2.7-5 5.8m96-3.9c4.4 7.2 4 16 8.5 23.3.2-2.5.4-5.1-.5-7.5-1.9-5.6-3.2-11.5-4.5-17.3-1.2.5-2.4 1-3.5 1.5m-217 .6c-.3 3.6-2 7.5-.1 10.9 5.3-1 4-7.6 3.2-11.4-.8.1-2.3.4-3.1.6m11.8-.4c0 .8-.2 2.5-.2 3.3 2-.9 3.9-1.8 5.8-2.8-1.9-.2-3.7-.4-5.6-.5m10 1.2c-1.3.7-1.3 1.4 0 2 1.3-.7 1.3-1.3 0-2m190 1.1c-1.1 1.8 2 2.9 2.9 1.3 1.1-1.8-2-2.8-2.9-1.3m-75 1.9c.1.9.2 2.6.3 3.4 1.7-1.2 3.2-2.6 3.5-4.7-1.3.4-2.5.9-3.8 1.3m-72.8.1c-1.5 1 .2 3.5 1.6 2.4 1.5-1-.2-3.5-1.6-2.4m40-1c-.5 2-.9 4.1-1.3 6.1 1.1-1.1 2.2-2.1 3.1-3.3-.5-1-1.1-1.9-1.8-2.8m3.9 2.2c-1.2.8.2 2.9 1.3 1.9 1.2-.8-.2-2.8-1.3-1.9m8.2-.2c-1.3.9.3 3.2 1.6 2.1 1.3-.9-.3-3.2-1.6-2.1m-105 1.2c-1.2 3.7-3.6 6.9-6.9 9-.1 1.2-.2 2.4-.3 3.6.7-.1 2-.2 2.7-.2.6-1.3 1.2-2.6 1.8-3.9.7 0 2.1 0 2.8 0-1.6 3.4-4 6.5-4.8 10.2-.1 3.4.5 6.8 1.8 9.9 2.7 4.1 5.8 8.5 10.9 9.5.9-3.6-.8-6.9-2.5-10 2.9 2.4 5.9 4.7 9 6.9.4-.5 1.1-1.6 1.5-2.1-3.4-2.1-6.8-4.1-10.3-6.1-2.3-1.3-3.4-3.9-3.9-6.4-.1-3.8 2.1-7 2.5-10.7-.4-3.6-2.3-6.7-4.3-9.6m18.6 0c-.9 1.2-1.7 2.4-2.6 3.6.5 1.1 1 2.2 1.5 3.4 1.8-2.1 2.8-4.5 1.1-7m25 2.1c1.3 2.4 3.2 4.4 5.6 5.8-.9-2.7-2.9-4.8-5.6-5.8m39.7 2.1c2.1.9 4.2 1.9 6.3 2.8.5-1.6 1-3.2 1.5-4.8-2.6.6-5.2 1.3-7.7 2.1m-17.3-.4c-1.6 3 3.3.1 0 0m37 .5c-.7 1.5-1.1 3-1.7 4.6 1.6-.5 3.2-1 4.8-1.6-.7-1.3-1.3-3.3-3.1-3m179 .3c-1.3.7-1.3 1.4 0 2 1.3-.7 1.3-1.3 0-2m6.2.2c-1.3 1.3.9 3.6 2.3 2.3 1.3-1.3-1-3.6-2.3-2.3m-190 .9c-1.6 3 3.3.2 0 0m33 .2c-.4 1.4.1 1.9 1.5 1.4.4-1.4-.1-1.9-1.5-1.4m-150 .1c.3 1.2.7 2.5 1.2 3.7 1.2.5 2.4.9 3.7 1.2-.3-1.3-.7-2.5-1.2-3.7-1.2-.5-2.4-.9-3.7-1.2m78 .4c-.6 1.1-1.2 2.1-1.8 3.3 1.7-.5 3.4-1 5.1-1.5-1.1-.6-2.2-1.2-3.4-1.8m4.6 8.7c2.9-2.1 2.8-5.9 3.1-9-2.3 2.5-3.4 5.7-3.1 9m43-5.2c-1.5.9-.2 3.9 1.5 2.9 1.5-1 .2-3.9-1.5-2.9m80 1.9c-.1 3.7 1.3 7.2 2.4 10.7.8 0 2.4 0 3.2 0-.2-4.5-.6-9-1.5-13.5-1.4.9-3.4 1.2-4.1 2.8m-104-.8c-.9 1.1-.7 1.8.8 1.9.9-1.1.7-1.8-.8-1.9m169-.3c-1.8.4-1.2 3.3.6 2.7 1.8-.4 1.1-3.3-.6-2.7m-245 .1c0 1.8-.1 3.6-.1 5.4.9-.7 1.8-1.4 2.7-2.1.2-1.7-1.7-2.3-2.6-3.3m251 .6c-1.4.4-.7 2.8.7 2.1 1.4-.4.7-2.8-.7-2.1m-275 2.3c-3 5.6-4.6 11.8-5.5 18-.4 2.7.9 5.2 1.7 7.7 1.4-.1 2.9-.2 4.3-.3-.8-6.9 1.9-13.4 1.8-20.3 1.7-1 3.4-2 5.1-3-2.5-.7-5-1.4-7.4-2.1m224-.1c-.5 1.6 0 2.2 1.7 1.7.5-1.6 0-2.2-1.7-1.7m-154 1.2c-1.1 1.3 1.2 2.9 2.1 1.6 1-1.3-1.2-2.9-2.1-1.6m198 .1c.4 1.4.9 2.8 1.3 4.2 1-.7 2-1.4 3-2.1-1.4-.8-2.9-1.5-4.4-2.2m11 .6c-.4 2.5-.8 5.2.6 7.5 2.7 5 4 10.6 6 15.9.6 2.1 2.9 2.3 4.6 3-1-3.8-2.3-7.5-3.2-11.3-1.2-5.1-3.6-9.9-4.6-15-1.2 0-2.3 0-3.5 0m-202 .4c-.2 2.7.6 5.1 3.3 6.2.2-2.7-.6-5.1-3.3-6.2m110 .6c-.5.8-1.6 2.3-2.1 3.1 1.7 3 2.9 6.2 4 9.4.4 1.8 1.6 3 3.3 3.7-.5-5.7-1.8-11.4-5.2-16m-164 2.7c.2 1.3-.3 3.1 1 3.9 3.7 2.4 9.2 3.7 12.3-.4-1-.4-1.9-.8-2.9-1.1-.7 1.1-1.4 2.1-2.1 3.2-.5-2-.9-4-1.4-5.9-2.3.2-4.6.3-6.9.4m62-.5c-1.2 1.4 1.4 3.1 2.4 1.6 1.2-1.5-1.4-3.1-2.4-1.6m72 2.5c1.9.5 3.9 1 5.8 1.4 1.8 5.8-.6 12 1.8 17.6 1.2 3.2 2.2 6.5 3.2 9.8 1.3-1 4.1-1.3 3.6-3.5-.1-4.2-1.9-8.1-2.9-12.1-1.2-4.6 0-9.9-2.8-14-2.8-2.1-6.5-1.8-8.7.9m58.7-2.4c-1.5 1 .2 3.5 1.6 2.4 1.5-1-.2-3.5-1.6-2.4m-17 .9c-.5 1.6 0 2.2 1.7 1.7.5-1.6 0-2.2-1.7-1.7m99 .8c2.3 4.9 3.6 10.3 4.6 15.7 2.9.7 5.8 1.2 8.7 1.6-.3-2.7-.8-5.4-1.5-7.9-.6 2-1.2 4.1-1.7 6.1-3.4-5-3.1-11.4-6-16.7-1.3.4-2.7.8-4 1.2m-312 7.9c1.5.1 3.1.2 4.6.3.8-2.4 2.8-5 .8-7.3-3.5.5-4.3 4.3-5.4 7m20.9-4.9c1 2.8 2.3 5.6 3 8.5.7 1.9-1 3.4-1.7 5 2.5 1.2 4.4 3.1 4.9 6-3.4-.5-6.5-1.9-9.7-2.9-2.6 1.1-5.1 2.6-8 3.1 0 1.6.1 3.2.1 4.8 2.5-1.2 5-2.5 7.4-3.8.3 1.4.5 2.8.8 4.1 2.4-.3 4.7-.6 7-.8-1.1 1.6-2.2 3.2-3.3 4.8 1.9 1.5 3.9 2.7 6 3.8.5-3.2.2-6.4-.5-9.5 2.6 1.7 5.1 3.5 7.7 5.1-1.2-1.9-2.5-3.7-3.8-5.5.8-1.7 1.7-3.4 2.5-5.2-1.4-.6-2.8-1.2-4.2-1.8 1.1-1.3 2.2-2.5 3.2-3.8-1.4.3-2.9.5-4.3.8-.9-4.3-1.5-8.8-1.6-13.2-1.9.1-3.8.3-5.6.5m204 3.1c.2 6.9 3.5 13.2 5.2 19.8.8 0 2.3.1 3.1.1-.6-8-4.2-15.5-4.8-23.6-1.4 1-4 1.4-3.4 3.6m-137-1.8c-1.5 1 .2 3.5 1.6 2.4 1.5-1-.2-3.5-1.6-2.4m9.7.7c.5 2 .9 4 1.5 6 4.1 0 2-4.9 1.7-7.3-1.1.4-2.2.9-3.2 1.3m227 .5c1.7 1.9 3.2 5 6.2 4.2-.3-2.1-1.3-4.1-2.3-6-1.3.6-2.6 1.2-4 1.8m-154-.5c.2.6.6 1.9.8 2.5.6.2 1.9.6 2.5.8 0-.8 0-2.4 0-3.2-.8 0-2.4 0-3.2 0m79 5c1 4.9 3 9.6 4.2 14.4.4 2.2 2 3.8 3.6 5.3 1.9-7.4-1.9-14.6-3.2-21.8-.7-3.9-5.5-.6-4.6 2.1m25.3-4c-.4 8 3.6 15 4.7 22.9 1.2.1 2.4.1 3.6.2-.1-3.6.1-7.4-1.5-10.7-1.9-3.9-2.6-8.2-3.4-12.5-.9 0-2.6.1-3.4.1m-86 1.2c-.5 1.6 0 2.2 1.7 1.7.5-1.6 0-2.2-1.7-1.7m-186 9.3c3-2.3 5.2-5.4 6.4-9-3.5 1.8-5.4 5.3-6.4 9m151-8.6c-.3 2.4-.4 4.9-.6 7.3.8.4 2.6 1.1 3.4 1.5 0-3.2-.5-6.4-2.8-8.8m157 1.3c-.5 1.6 0 2.2 1.7 1.7.5-1.6 0-2.2-1.7-1.7m-51 .5c-.4 1.4-.8 2.8-1.2 4.2.8 0 2.5 0 3.4 0-.1-.7-.1-2-.2-2.7-.5-.4-1.4-1.2-1.9-1.6m-125 2c.5 1.2 1.1 2.5 1.6 3.7 2.2-1.1 4.3-2.3 6.4-3.5-2.6-.7-5.3-.8-8-.3m-64 3.8c2.3.6 4.6 1.1 6.9 1.6.1-1.7.1-3.4.2-5.2-2.4 1.1-4.8 2.3-7 3.5m94-3.4c.1 3.3 3-1.5 0 0m6.4-.7c.4 1.9.8 3.8 1.3 5.6.9 0 2.6-.1 3.4-.1-.4-1.4-.7-2.8-1.2-4.1-1.2-.5-2.3-1-3.5-1.4m-47 3.2c2.6 1 5.2 1.8 7.8 2.6.4-1.5.8-2.9 1.3-4.4-3.1-.1-6.3.1-9 1.8m-43.6 7.3c.9 0 2.7 0 3.5 0-.5-2.1-1.1-4.2-1.6-6.3-.7 2.1-1.3 4.2-1.9 6.2m70-6.6c-.1 2.1-.1 4.2 0 6.3 1.8-1.9 1.7-4.3 0-6.3m-11.2 2.1c-.4 1.4 0 1.9 1.4 1.4.4-1.4 0-1.9-1.4-1.4m-98 6.3c1.1.6 2.2 1.1 3.3 1.6 1.1-2.4 2.3-4.8 3.4-7.2-2.6 1.3-5.9 2.4-6.7 5.6m12.4-4.2c1.5 1.6 3.5 2.6 5.6 3.1.1-1.6.1-3.2.1-4.9-1.9.6-3.8 1.2-5.7 1.8m16.7-1.8c0 .7.2 2.1.2 2.8 1.1.3 2.2.7 3.3 1 .5 1.9.9 3.8 1.4 5.6 1-.5 2-1 2.9-1.4.1-1.2.1-2.4.2-3.6-2.6-1.5-5.3-3-8-4.3m88-.9c-.8 4.8-1.1 10.1 2.2 14.2.9-4.8.3-9.9-2.2-14.2m50.8.9c-.3 1.9-.6 3.9-.9 5.9 1.4.5 2.8 1 4.2 1.5 0-2-.1-3.9-.1-5.9-1.1-.5-2.2-1-3.3-1.5m42 .6c-1.4-.1-1.8 2.3-.2 2.3 1.4.1 1.8-2.3.2-2.3m-247 6.2c2.3-.8 3.3-2.9 3.5-5.1-1.8 1.2-2.9 3.1-3.5 5.1m112-5.2c0 1.8 0 3.6 0 5.4.9-.7 1.8-1.4 2.6-2.1.4-1.7-1.7-2.3-2.6-3.3m213 1c-1.5 3 3.3.1 0 0m-293 1.1c-.4 1.4 0 1.9 1.5 1.4.4-1.4 0-1.9-1.5-1.4m141 1.2c-1.3.9 0 3.6 1.6 2.6 1.3-.9 0-3.6-1.6-2.6m-85-.2c.3 2.2.6 4.4.9 6.6.9 0 2.7-.1 3.6-.1-.3-2.9-1.8-5.2-4.5-6.4m60 1.8c-1.3.9.3 3.2 1.6 2.1 1.3-1-.3-3.2-1.6-2.1m-97 .8c-.5 1.4 0 1.9 1.4 1.4.5-1.4 0-1.9-1.4-1.4m67 .1c-.3 2.9-.4 5.8-.4 8.7.8 0 2.3.1 3 .2-.4-3.1-.8-6.2-2.6-8.8m-53.6.4c-.1 1.3-.3 3.8-.4 5 2-.1 3.9-.3 5.8-.5-1.7-1.6-3.6-3.1-5.5-4.6m-26 2.2c.7 1.7 1.1 4.1 3.3 4.4 3.4.7 7-.4 10.2-1.6 0-.4 0-1.1 0-1.5-2.7-1.8-6.1-1.2-8 1.3-1.8-.9-3.6-1.8-5.5-2.6m187 2.2c.1 3.3 3-1.6 0 0m36.9.1c-1.8.4-.9 3.2.8 2.8 1.8-.4.9-3.3-.8-2.8m-13.9.9c.1 3.3 3-1.5 0 0m-247 1.1c-.5 1.6 0 2.2 1.7 1.7.5-1.6 0-2.2-1.7-1.7z" style="fill:#010001"/><g style="fill:#67665e"><path d="m265 18.7c.9-1.3 1.7-2.5 2.6-3.8.6 1.3 1.2 2.6 1.9 3.8 2-.3 4.1-.5 6.1-.8.1 1.2.3 2.3.4 3.5 2.4.6 4.8 1.3 7.1 2.1-6.5 1.2-12.4-2.2-18-4.8"/><path d="m53 282c-.4-3.6 2.1-6.8 3.8-9.7-1.2 3.1-2.8 6.3-2.4 9.6 2.5 5.1 7.7 8.8 9 14.5.7 3.7-1.9 6.9-3.6 9.8-3.8 5.6-6.4 11.9-11.3 16.7-2.9 3.4-7.1 5.8-8.8 10-.1 2.7 1.3 5.2 2.2 7.7-1.3.1-2.6.3-3.9.4.4 8.8-1.1 17.4-1.3 26-1.5-4.4-1.5-9.1-.6-13.6 1.5-7.9-.5-16.9 4.1-24 4.2-4.9 9.3-9 12.5-14.7 1.2-1.8 2.4-3.7 3.5-5.6 2.1-3.9 5.6-7.4 5.9-12-.7-6.3-6.5-10-9.3-15.4"/></g><g style="fill:#7c7b70"><path d="m271 37.6c1.6 0 3.7-.9 4.9.6 1.4 1.3 1.6 3.2 2 4.9.7 4 1.5 8 2.4 12-1.8.5-3.5.9-5.3 1.4-1-6.4-1.3-12.9-4.1-18.8m3.4 1.9c.6 5.1-1 11.6 3.6 15.3-.1-5.3-.1-11-3.6-15.3z"/><path d="m281 39c4.8.3 8.9 3.3 11.4 7.2-4.4 1.5-9-.6-12-3.9-1-1-.8-2.6.6-3.3m1.3 1.6c.8 3.3 3.9 4.3 7 4.6-1.6-2.4-4.1-4-7-4.6z"/><path d="m297 44.8c5.9 2.7 11.4 7.3 18 6.7 0 1.6-.1 3.2-.1 4.8-2.6.2-5.3-.3-7.7-1.2-1 1.4-1.9 2.9-2.8 4.4-2.3-3.8-4.2-8.2-8.5-10.2.3-1.5.6-3 .9-4.4m.7 2.4c2.2 2.9 4.4 5.8 6.6 8.8.8-.8 1.5-1.7 2.3-2.5 2.4.6 4.8 1.2 7.2 1.5-4.6-4-10.7-5.2-16-7.8z"/><path d="m250 53c1.4.9 3.7 1.2 4.2 3.1 1 2.8 1.5 5.7 2.1 8.6 1.6.5 3.2 1.1 4.8 1.6-1.5 2.3-3.1 4.6-4.6 6.9-1.6-1.1-4.3-1.4-4.6-3.7-1.2-5.4-1.3-11-1.9-16.5m1.9 3c-.3 5.2.5 10.4 2.5 15.2 1.1-.9 2.3-1.8 3.4-2.8-2.1-4.1-3.6-8.4-5.9-12.4z"/><path d="m326 63c.9 1.2 1.8 2.5 2.8 3.7.3-.5 1-1.6 1.4-2.1.3 1 .6 2 .9 2.9-1.4.9-2.7 1.8-4.1 2.7-.4-2.4-.7-4.8-1-7.3"/><path d="m344 63c4.9-.3 9.1 2.7 13.4 4.7.7-1.1 1.4-2.1 2.1-3.2 2.7 2.4 5.7 4.3 9 5.9 0 1.3 0 2.7.1 4.1-4.8-.3-8.9-2.9-13.5-4.1.1 1.8.3 3.5.2 5.3-.9 1.2-2.7 1.2-4 1.8-.7-2.6-.8-5.4-2.4-7.7-1.9-1.7-4.5-2.3-6.8-3.4.6-1.1 1.1-2.3 1.8-3.3m.3 1.7c3.4 2.7 6.7 5.6 9.3 9.2.3-2.3.7-4.5 1.1-6.8-3.4-1.2-6.8-2.1-10.4-2.4m13.7 4.1c2.8 1.7 5.8 2.8 9 3.3-2.3-2.6-5.5-4.7-9-3.3z"/><path d="m311 64c3-1.5.1 3.3 0 0"/><path d="m151 66c1.8-.6 2.4 2.3.6 2.7-1.8.6-2.4-2.3-.6-2.7"/><path d="m156 66c1.8-.7 1.9 2.1.4 2.4-1.8.7-1.9-2.1-.4-2.4"/><path d="m196 84c3.3.2-1.6 3 0 0"/><path d="m243 89c1.6-.5 3.2-.9 4.8-1.4-.5 1.3-.9 2.5-1.4 3.8-1.2-.7-2.3-1.6-3.4-2.4"/><path d="m280 94c1.3.7 1.3 1.3 0 2-1.3-.7-1.3-1.3 0-2"/><path d="m333 99c3.6-1.7 7.3 1 8 4.6 1 5.4 2.6 10.9 1.5 16.3-2.1-2-3.8-4.3-5.3-6.8-2.6.2-5.3.5-7.9.6 0-.9 0-2.7 0-3.5 2.9-1.1 5.8-2.1 8.8-3.1-1.5-2.8-3.3-5.5-5.1-8.1m-1.1 11.9c2.1.8 4.3 1.5 6.5 2.2 1 1.2 2.1 2.3 3.1 3.4-.3-3.1-.8-6.2-1.3-9.3-2.8 1.2-5.6 2.4-8.4 3.7z"/><path d="m349 101c3.3.2-1.5 3 0 0"/><path d="m150 104c1.5-.4 3-.8 4.6-1.2-.4 1.5-.8 3-1.2 4.5-1.1-1.1-2.2-2.2-3.3-3.3"/><path d="m361 113c1.3.1 2.6.1 4 .2 2 5.7 3.2 11.6 4.7 17.4.6 2.1.3 4.3.1 6.5-2.6-.9-5.2-1.8-7.8-2.7 1.2-2 2.4-3.9 3.6-5.9-2.4-.9-4.9-1.7-7.3-2.9-.1-2.5 3.2-2.5 4.7-3.7-.8-3-1.6-5.9-2.1-9"/><path d="m333 123c1.4-.5 1.9 0 1.4 1.4-1.4.5-1.9 0-1.4-1.4"/><path d="m337 127c.9-1.3 3.2.3 2.1 1.6-.9 1.3-3.2-.3-2.1-1.6"/><path d="m355 136c1.1-1 3.1.9 2 2-1.2 1-3.1-.9-2-2"/><path d="m183 144c1.4-.5 1.9 0 1.4 1.4-1.4.5-1.9 0-1.4-1.4"/><path d="m272 146c3.3.1-1.5 3 0 0"/><path d="m367 148c1.4-.4 1.9 0 1.4 1.4-1.4.4-1.9 0-1.4-1.4"/><path d="m180 152c.7.2 2 .5 2.7.7.5 3.2 1.1 6.4 1.7 9.6 2.1-.4 4.1-1.1 6.3-1.1 2.4 2.2 5.3 5.2 4.5 8.8-.4 1.5-.7 3.9-2.8 3.4-1-3-1.2-6.3-2.5-9.2-2.2-.6-4.5-1-6.8-1.5.3 2.8.6 5.7.9 8.5 1.4-1.8 2.9-3.6 4.4-5.4-2.1 2.7-1.8 6-1.4 9.1-1.2 1.1-2.3 2.2-3.5 3.3-.8-5.9-2.1-11.7-3.8-17.3-1-2.9-.6-6 .3-8.9m.8 3.8c-.8 1.4-.2 3.5 1 4.5 1.6-.6.8-4.6-1-4.5z"/><path d="m368 152c1.2.5 2.4.9 3.6 1.4-.8 1-1.6 2.1-2.3 3.2-.4-1.5-.9-3.1-1.4-4.6"/><path d="m188 156c3-1.6.2 3.3 0 0"/><path d="m115 158c1.4-.4 1.9.1 1.4 1.4-1.4.4-1.9 0-1.4-1.4"/><path d="m257 161c1.6-.8 2.7 1.9 1.4 2.8-1.6.9-2.8-1.9-1.4-2.8"/><path d="m273 161c1.4-1.5 3.7.8 2 2.1-1.4 1.5-3.6-.8-2-2.1"/><path d="m118 164c1.3.7 1.3 1.3 0 2-1.3-.7-1.3-1.3 0-2"/><path d="m312 171c3.9-1.2 8-2.1 12-2.9.3 1.5.5 3 .8 4.5-4.3 1.1-9.4 2.2-12.8-1.6m3.9 2c2.8-.2 5.4-1.2 7.7-2.8-2.8.2-6.1-.1-7.7 2.8z"/><path d="m298 173c.8 0 2.4-.1 3.1-.1-.2.6-.6 1.8-.9 2.4-.6.2-1.8.6-2.3.8 0-.8 0-2.3.1-3.1"/><path d="m353 185c3.3.1-1.5 3 0 0"/><path d="m366 192c1.6-.5 2.2 0 1.7 1.7-1.6.5-2.2 0-1.7-1.7"/><path d="m121 201c2.8-1.5 5.7-2.8 8.6-4-.7 1.4-1.5 2.8-2.2 4.3-2.1-.1-4.3-.2-6.4-.3"/><path d="m87 206c.2-3.1 2.2-5.5 3.8-7.9-4.5 6.8-1.3 15.2-3.6 22.6-1.1 4.3-4.5 7.5-6.9 11-3.3 4.6-4.4 10.3-5.5 15.8-1.5 7.3-.1 14.7 1.4 21.8 1.4 4.7-4.3 6.9-7.1 9.6.8-2.3 1.8-4.4 2.1-6.8-.4-2.4-2.2-4.2-3.6-6 2.6 2.1 5 4.3 7.6 6.3-.7-6.3-1.7-12.6-2.3-18.9-.1-5.3 1.6-10.4 3.2-15.4 1.8-5.4 5.7-9.6 8.3-14.5 2.8-5.4 2.1-11.7 2.7-17.6"/><path d="m324 200c1.3-1.3 3.6.9 2.3 2.3-1.4 1.3-3.6-1-2.3-2.3"/><path d="m178 206c3.3.1-1.5 3 0 0"/><path d="m193 211c.9 0 2.6 0 3.4.1.8 4.4 1.7 8.7 3 13 1.6 5.2 1.8 10.8 3.8 16 1.6 4.1 2.2 8.5 1.3 12.8-1.4-1-4.3-1.1-4.3-3.3-.5-3.2-.4-6.6-1.6-9.7-2.3-5.9-2.5-12.3-4.7-18-1.3-3.4-1.5-7.1-.9-10.7m.2 3.3c1.5 5.2 3.2 10.3 4.2 15.7.5 2.7 1.4 5.4 2.8 7.8.1-8.6-3-16.7-4.6-25-.6.4-1.7 1.2-2.3 1.5m8.3 36.7c3.9-2.7 1.1-7.8.4-11.3-.6 3.8-.8 7.6-.4 11.3z"/><path d="m136 212c1.4-.5 1.9 0 1.4 1.4-1.4.5-1.9 0-1.4-1.4"/><path d="m335 214c1.4-.4 1.9 0 1.4 1.4-1.4.4-1.9-.1-1.4-1.4"/><path d="m200 215c3.3.1-1.5 3 0 0"/><path d="m218 217c.8 0 2.4-.1 3.3-.1 3.4 7.9 5.3 16.4 6.2 25-1.5 0-3 0-4.5 0-2.6-5.4-1.3-11.6-3.8-17-1.1-2.5-1.2-5.2-1.2-7.9m1.5 3.2c-1.3.9.3 3.2 1.6 2.1 1.3-1-.3-3.2-1.6-2.1m2 3.1c.4 5.8-.7 12.5 3.4 17-.4-5.8.5-12.3-3.4-17z"/><path d="m160 227c1.4-.5 1.9 0 1.5 1.4-1.4.4-1.9 0-1.5-1.4"/><path d="m106 228c.9-1.2 2.8.4 1.9 1.5-.9 1.2-2.8-.4-1.9-1.5"/><path d="m327 230c1.5-.6 3.1-1.1 4.7-1.6-.6 1.8-.9 4.4-3.3 4.6-.5-1-1-2-1.4-3"/><path d="m298 230c3.3.1-1.5 3 0 0"/><path d="m109 231c1.7 0 1.5 2.7-.1 2.6-1.7 0-1.6-2.7.1-2.6"/><path d="m167 231c.6.9 1.1 1.8 1.6 2.7-.9 1.2-2 2.3-3.1 3.3.4-2 .9-4.1 1.5-6"/><path d="m152 234c.8 0 2.3 0 3 0 0 .8 0 2.3 0 3-.8 0-2.3 0-3 0 0-.8 0-2.3 0-3"/><path d="m251 236c1.4-1.2 3.1 1.3 1.6 2.3-1.5 1.2-3.1-1.4-1.6-2.3"/><path d="m109 239c3 1 6.3 1.6 9.2 3 .9 1.2 1.5 2.5 2.2 3.8-2.2 1-4.9 3.3-7.3 1.4-2.1-2.2-2.8-5.4-4.1-8.1m3.8 3.7c.4 1.2.9 2.3 1.3 3.5.7 0 2-.1 2.7-.2.4-.6 1.3-1.7 1.7-2.3-1.9-.4-3.8-.7-5.7-1.1z"/><path d="m144 240c3-1.6.1 3.3 0 0"/><path d="m244 240c1.4-.4 1.9.1 1.4 1.4-1.4.4-1.9 0-1.4-1.4"/><path d="m99 242c.9-1.4 3.2.1 2.1 1.4-.9 1.4-3.2-.1-2.1-1.4"/><path d="m102 249c5.2 1.1 7.3 6.8 6.8 11.6-.4 4.6 1.6 8.7 2.6 13 1.6 10.7 4.1 21.3 6 31.9.8 10.2 3.8 20 6.4 30-3.7.8-7.5.4-11.2-.4-2.1 2.3-4.8 4.3-6 7.3 0 3.1.8 6.5-1.8 8.8-4.6-4-4.5-11.2-10.2-14.2 1.2-4.1 2.4-8.2 3.2-12.4-2 .7-4.1 1.5-6.1 2.2 0-.8.1-2.4.1-3.1 1.2-.7 2.4-1.4 3.6-2.1-.2-2.9-.7-5.8-.2-8.6 1.6-4.2 6.7-6.3 7.5-10.9 1.2-10.1-1.8-20-2.7-30-2.4-7.7-.9-15.7 1.9-23m1.2 1.9c-1.5 5-3.1 10.3-2.8 15.6.9 6.4 1.8 12.8 3.2 19 .6 5.1.1 10.2.6 15.3.6 6.5-7.9 8.8-8.5 14.8 1.2 5.5 3.5 10.7 4.9 16-.2-.5-.6-1.5-.8-2-.3 2.4-.5 4.9-.7 7.3.8.2 2.3.6 3.1.8-.4-1.8-.7-3.5-1.3-5.3 2.3 2.9 6.2 2.4 9.5 2.2 4-.4 7.9-.2 11.9-.1-2.4-9.9-4.8-19.8-5.6-29.9-3.8-12.9-5.2-26-8.4-39-1.2-5-.9-10.9-4.9-14.7m-.2 86c-.1.8-.3 2.5-.3 3.3 1.3-.1 2.7-.1 4-.1.3-1.2.7-2.4 1-3.5-1.5.1-3.1.2-4.6.4m-.1 9c-1.3 1.2.6 3.8 2.1 2.6 1.3-1.2-.6-3.7-2.1-2.6z"/><path d="m130 252c1.6-.5 2.2 0 1.7 1.7-1.6.5-2.2 0-1.7-1.7"/><path d="m78 263c.5-.4 1.5-1.1 2-1.5 0 1.3-.1 2.6-.1 3.9-.5.4-1.5 1.1-2 1.5 0-1.3.1-2.6.2-3.9"/><path d="m130 263c1.5-.1 1.5 2.4 0 2.4-1.5 0-1.5-2.4 0-2.4"/><path d="m113 268c2-.4 3.9-.9 5.9-1.3-.7 1.1-1.3 2.1-2 3.1-1.3-.6-2.6-1.2-3.9-1.8"/><path d="m61 270c1.6-1 3.3-2 4.9-3 .6 5.3-2.4 10.6-7.6 12.2-1.1-2.8.3-5.2 2.6-6.7-.5 1.2-1 2.5-1.4 3.7 1.5-1 3-2 4.5-3.1-.6-.6-1.8-1.8-2.4-2.5l-.7-.7"/><path d="m94 272c.7.1 2 .2 2.7.2.5 1 .9 2 1.4 3-1.4.4-2.7.7-4.1 1.1 0-1.5-.1-2.9-.1-4.3"/><path d="m188 278c1.2-3.3 4.1-5.1 7.3-6.2 1 1.4 2 2.8 3 4.2-3.1 1.8-6.7 2.9-10.3 2m5.8-4c-1.4-.1-2.8 2.1-1.1 2.7 2 .9 3.9-2.8 1.1-2.7z"/><path d="m144 274c1.9-.4 3.7-.8 5.6-1.1-1.3 1.8-2.7 3.6-4 5.5-.5-1.5-1.1-2.9-1.6-4.3"/><path d="m350 273c1.6-.5 2.2 0 1.7 1.7-1.6.5-2.2 0-1.7-1.7"/><path d="m75 278c1.2 0 2.4 0 3.7 0 1.8 3.2 3.4 6.6 5.3 9.7 2.2 3.8 5.7 6.9 6.3 11.5-8-3.4-12-11.8-16-18.9.2-.6.7-1.7.9-2.2m1.6 1.4c.6 4.4 3 8.2 6.3 10.9-1.2-4.1-2.5-8.6-6.3-10.9z"/><path d="m143 279c3.3.2-1.6 3 0 0"/><path d="m97 280c1.4-.7 2.2 1.7.7 2.1-1.4.7-2.2-1.7-.7-2.1"/><path d="m118 281c.9-1.4 3.2.1 2.1 1.4-.9 1.4-3.2-.1-2.1-1.4"/><path d="m87 283c2 .1 4.1.2 6.1.2 0 1.7 0 3.4 0 5.1-2-.4-4-.8-6-1.1 0-1.4 0-2.8-.1-4.2"/><path d="m97 283c.7 1.2 1.5 2.4 2 3.6-.1 1.8-.8 3.5-1.3 5.3 1.3 0 2.6-.1 3.9-.1.1 1.9.1 3.8.2 5.7-1.4-.9-2.8-1.8-4.2-2.7-.2.6-.6 1.9-.8 2.5-.6.1-1.8.1-2.4.2-.3-1.6-.5-3.2-.8-4.8 1.9-2.9 2.8-6.2 3.4-9.6"/><path d="m146 286c2 .5-.1 3.6-1.5 2.3-.8-1 .3-2.5 1.5-2.3"/><path d="m365 292c1.4 0 2.9 0 4.3 0 .3 1.9.7 3.7 1.1 5.6-1.1.5-2.1.9-3.2 1.4-.8-2.3-1.5-4.7-2.2-7"/><path d="m217 295c3-1.5.2 3.3 0 0"/><path d="m270 296c3.3.1-1.5 3 0 0"/><path d="m238 300c.8 0 2.5-.1 3.3-.2.8 6.7 1.8 13.4 4 19.9-2 .8-3.9 1.7-5.9 2.5.1-2.3.3-4.6.2-6.9-2.7.2-4.8 2-7.3 2.4-1.6-.5-2.6-2.1-3.8-3.2 3-1.5 6-2.8 9-4.2 0-3.4.1-6.9.4-10.3m1.6 1.5c-.6 3.8-1.1 7.6-2 11.3 2.4 1.7 4.2 4 6 6.3-1.3-5.9-2.4-11.8-4-17.6m-7.4 12.6c-.4 1.4 0 1.9 1.4 1.4.4-1.4 0-1.9-1.4-1.4z"/><path d="m143 301c3.3.2-1.6 3 0 0"/><path d="m86 303c1.3.7 1.3 1.4 0 2-1.3-.7-1.3-1.3 0-2"/><path d="m172 308c1.2-.9 2.6 1.1 1.3 1.9-1.2 1-2.6-1.1-1.3-1.9"/><path d="m75 308c2 2.9 3.9 6 4.3 9.6-.4 3.7-2.7 7-2.5 10.7.5 2.5 1.5 5.1 3.9 6.4 3.5 1.9 6.9 3.9 10.3 6.1-.4.5-1.1 1.6-1.5 2.1-3.1-2.2-6-4.5-9-6.9 1.7 3.1 3.4 6.4 2.5 10-5.1-1-8.3-5.4-10.9-9.5-1.3-3.1-1.9-6.6-1.8-9.9.8-3.7 3.1-6.9 4.8-10.2-.7 0-2.1 0-2.8 0-.6 1.3-1.2 2.6-1.8 3.9-.7.1-2 .2-2.7.2.1-1.2.2-2.4.3-3.6 3.3-2.1 5.7-5.3 6.9-9m5.9 35c-1.2-4.4-3.2-8.6-4.4-13-1.3-4.7.9-9.3 1.5-13.9-9 6.6-7.7 22.7 2.9 26.9z"/><path d="m94 309c1.7 2.5.7 4.9-1.1 7-.5-1.1-1-2.3-1.5-3.4.9-1.2 1.7-2.4 2.6-3.6"/><path d="m119 311c2.6 1.1 4.6 3.1 5.6 5.8-2.3-1.4-4.3-3.4-5.6-5.8"/><path d="m158 313c2.6-.8 5.1-1.5 7.7-2.1-.5 1.6-1 3.2-1.5 4.8-2.1-.9-4.2-1.8-6.3-2.8"/><path d="m141 312c3.3.1-1.6 3 0 0"/><path d="m178 313c1.9-.3 2.5 1.6 3.1 3-1.6.6-3.2 1.1-4.8 1.6.5-1.5 1-3.1 1.7-4.6"/><path d="m357 313c1.3.7 1.3 1.4 0 2-1.3-.7-1.3-1.3 0-2"/><path d="m363 313c1.3-1.3 3.6.9 2.3 2.3-1.3 1.3-3.6-1-2.3-2.3"/><path d="m173 314c3.3.2-1.6 3 0 0"/><path d="m57 315c1.3.3 2.5.7 3.7 1.2.4 1.2.8 2.4 1.2 3.7-1.3-.3-2.5-.7-3.7-1.2-.4-1.2-.8-2.4-1.2-3.7"/><path d="m139 324c-.3-3.4.8-6.6 3.1-9-.3 3.2-.2 7-3.1 9"/><path d="m182 318c1.7-1.1 3 1.9 1.5 2.9-1.7 1-3-1.9-1.5-2.9"/><path d="m158 320c1.4.1 1.7.8.8 1.9-1.5-.1-1.7-.8-.8-1.9"/><path d="m333 320c1.4-.7 2.2 1.7.7 2.1-1.4.7-2.2-1.7-.7-2.1"/><path d="m57.9 322c2.5.8 4.9 1.4 7.4 2.1-1.7 1-3.4 2-5.1 3 .1 6.8-2.5 13.4-1.8 20.3-1.4.1-2.9.2-4.3.3-.8-2.5-2.1-5-1.7-7.7.9-6.3 2.4-12.5 5.5-18m.5 2.1c-2.6 5-4.1 10.6-4.8 16-.6 2.2 1.5 3.7 2.6 5.2.8-7.1 4.1-14.2 2.2-21.4z"/><path d="m326 323c1.5.7 3 1.3 4.4 2.2-1 .7-2 1.4-3 2.1-.5-1.4-.9-2.8-1.3-4.2"/><path d="m80 328c2.3 0 4.6-.2 6.9-.4.5 2 1 4 1.4 5.9.7-1.1 1.4-2.1 2.1-3.2 1 .4 1.9.8 2.9 1.1-3 4-8.6 2.7-12.3.4-1.3-.9-.8-2.6-1-3.9"/><path d="m142 327c1-1.5 3.5.2 2.4 1.6-1 1.5-3.5-.2-2.4-1.6"/><path d="m42.5 337c1.1-2.8 1.9-6.6 5.4-7 2 2.3 0 5-.8 7.3-1.6-.1-3.1-.2-4.6-.3"/><path d="m63 332c1.9-.2 3.8-.3 5.6-.4.2 4.4.8 8.8 1.6 13.2 1.4-.3 2.8-.5 4.3-.8-1.1 1.3-2.2 2.6-3.2 3.8 1.4.6 2.8 1.2 4.2 1.8-.8 1.7-1.7 3.4-2.5 5.2 1.3 1.8 2.6 3.6 3.8 5.5-2.6-1.6-5.2-3.4-7.7-5.1.7 3.1 1.1 6.4.5 9.5-2.1-1.1-4.1-2.4-6-3.8 1.1-1.6 2.3-3.2 3.3-4.8-2.4.2-4.7.5-7 .8-.3-1.4-.5-2.8-.8-4.1-2.5 1.3-4.9 2.6-7.4 3.8-.1-1.6-.1-3.2-.1-4.8 2.8-.6 5.3-2 8-3.1 3.2.9 6.3 2.4 9.7 2.9-.5-2.8-2.4-4.8-4.9-6 .7-1.6 2.4-3.1 1.7-5-.7-2.9-2-5.7-3-8.5"/><path d="m140 334c1.1-.4 2.1-.9 3.2-1.3.3 2.4 2.4 7.3-1.7 7.3-.6-2-1-4-1.5-6"/><path d="m367 335c1.3-.6 2.6-1.2 4-1.8 1 1.9 2 3.8 2.3 6-3 .8-4.5-2.3-6.2-4.2"/><path d="m177 341c2.7-.5 5.4-.5 8 .3-2.1 1.2-4.3 2.4-6.4 3.5-.5-1.3-1.1-2.5-1.6-3.7"/><path d="m206 341c3-1.5.1 3.3 0 0"/><path d="m165 344c2.7-1.6 5.9-1.8 9-1.8-.4 1.5-.8 2.9-1.3 4.4-2.6-.8-5.2-1.7-7.8-2.7"/><path d="m122 351c.6-2.1 1.3-4.2 1.9-6.2.5 2.1 1.1 4.2 1.6 6.3-.9 0-2.7 0-3.5 0"/><path d="m180 346c1.4-.4 1.9 0 1.4 1.4-1.4.4-1.9 0-1.4-1.4"/><path d="m82 353c.8-3.2 4.1-4.3 6.7-5.6-1.2 2.4-2.3 4.8-3.4 7.2-1.1-.5-2.2-1-3.3-1.6"/><path d="m94 348c1.9-.6 3.8-1.2 5.7-1.8 0 1.6-.1 3.2-.1 4.9-2.1-.5-4.1-1.4-5.6-3.1"/><path d="m292 347c1.5 0 1.2 2.4-.2 2.3-1.6 0-1.2-2.5.2-2.3"/><path d="m157 348c.9 1 3 1.6 2.6 3.3-.8.7-1.7 1.4-2.6 2.1 0-1.8 0-3.6 0-5.4"/><path d="m370 349c3.3.1-1.5 3 0 0"/><path d="m77 350c1.4-.4 1.9 0 1.5 1.4-1.4.4-1.9-.1-1.5-1.4"/><path d="m193 353c1.3-1.1 2.9 1.2 1.6 2.1-1.3 1-2.9-1.2-1.6-2.1"/><path d="m270 359c3-1.6.1 3.3 0 0"/><path d="m307 359c1.7-.5 2.6 2.3.8 2.8-1.7.5-2.6-2.3-.8-2.8"/><path d="m293 360c3-1.5.1 3.3 0 0"/></g><g style="fill:#807f7a"><path d="m219 48c4.6-3 9.3-6.2 14.7-7.6.4.7 1.2 2 1.5 2.7-1.7 1.5-3.5 3.1-5.2 4.6-.1 2.1-.1 4.2-.7 6.3-1.1.5-2.2.9-3.3 1.3.1-1.9.2-3.8.3-5.6 2.4-2.1 4.4-4.5 6.3-7.1-4.4.9-8.2 3.2-11.4 6.3 1.4.2 2.7.4 4.1.6-1.7.9-3.3 1.8-5 2.6-.5-1.4-.9-2.7-1.4-4.1"/><path d="m204 60c2.4-1.9 4.6-4.2 7.5-5.5 2-.6 2.3 1.9 3.2 3.1-2 1.6-5.6 2.7-5.5 5.8.1 5.3 2.4 10.2 2.3 15.5-1.1-.4-2.2-.9-3.3-1.5-1.5-4.1-1.9-8.5-2.7-12.8-2 .4-4.4 2.2-6.3.6.7-2.4 3-3.7 4.8-5.3m6.5-3.4c-.5 1.4 0 1.9 1.4 1.4.5-1.4 0-1.9-1.4-1.4m-6.7 7.2c3-.2 4.9-2.1 5.9-4.9-2.9.4-5.1 2-5.9 4.9z"/><path d="m279 59c1.3.9 3.2 1.3 3.5 3.1 1 3.8 1.5 7.7 2.6 11.5-1.2.8-2.4 1.5-3.5 2.3-1.3-2.7-2.6-5.4-3.7-8.2 1.7 1.9 3.5 3.8 5.3 5.6-.5-4.2-1.5-8.3-2.8-12.3-1.3 1.8-2.5 3.5-3.8 5.2-2.1 2.5-5.9 2.4-8.8 2.3-1.3-1.1-1.1-2.9-1.5-4.4 3.6-.3 7.2-.5 10.7-.7.7-1.4 1.4-2.9 2.1-4.3"/><path d="m228 62c1-.7 2.2-1.3 3.3-1.9 1.6 4.5 2.9 9.1 4.5 13.7-1.4.3-2.7.8-4.1 1.3-2-4.1-3.8-8.4-3.7-13m3.9 8.3c-1.2.9.4 2.8 1.5 1.9 1.1-.9-.4-2.8-1.5-1.9z"/><path d="m180 74c3.2-1.9 6.7-3.2 10.1-4.6-.6 5.9-1.2 11.8-1.5 17.7-1.3-1.2-3.7-1.8-3.7-4-.3-2-.4-4-.5-5.9-2.3.2-4.9 1.6-7 0-.3-1.7 1.3-2.5 2.5-3.3m2.5.5c1.7 1.6 3.3 3.3 4.9 5-.1-2.1-.2-4.2-.3-6.3-1.5.4-3.1.8-4.6 1.2z"/><path d="m162 74c1-.5 1.8-.2 2.5.7-.7 2.7-2 5.2-3.5 7.5-1 .5-1.9.5-2.8-.1-1.3-3.2 1.3-6.5 3.9-8.1"/><path d="m153 78c1.6-.5 2.2 0 1.7 1.7-1.6.5-2.2 0-1.7-1.7"/><path d="m163 84c2.6-1.8 5.4-3.3 8.4-4.5.4 1 .8 2 1.2 3-1.4 1-2.9 2-4.3 3-.1 1.2-.2 2.4-.3 3.7-1.7 1.1-3.4 2.3-5 3.5-1.2-.5-2.5-1-3.7-1.5-1.1 2.5-2.1 5.1-3.1 7.7-1.3 0-2.6.1-3.9.1.7-4.5 2.4-8.8 5.6-12 2.1 1.2 4.2 2.3 6.5 3.1-.4-1.9-.9-3.9-1.4-5.8"/><path d="m354 83c.8 0 2.4 0 3.2-.1 2.3 3.5 3.1 7.6 3.4 11.6.3 4.9 4.1 9.6 1.8 14.5-.8-.1-2.4-.2-3.1-.3-.4-5.9-3-11.2-3.9-17-.5-2.9-.9-5.9-1.4-8.8m3.5 3.4c-.6 4.8-1.2 10.3 2.3 14.3.1-4.9-.4-9.8-2.3-14.3m2.8 17c-1.1.9.4 2.8 1.5 1.9 1.1-.9-.4-2.8-1.5-1.9z"/><path d="m139 89c1.5-.6 3.1-.8 4.6-1.1-1.3 4.2-4.1 8-8.7 8.7.9-2.7 1.6-5.9 4.1-7.6"/><path d="m211 89c1.3 0 2.6 0 3.9 0 .2 7 2.7 13.6 4.2 20.4-1.3.3-2.5.5-3.8.7-.5-1.6-1-3.2-1.6-4.8-2.3-.4-4.6-.8-6.8-1.5.6-2.4 3.3-2.9 5-4.1-.9-3.5-1.4-7.1-1-10.7m1.3 3.5c-.9 1.1-.7 1.8.8 1.9.9-1.1.7-1.8-.8-1.9m1.3 6.9c-.4.7-1.3 2-1.8 2.7 1.9 1.7 3.7 3.5 5.7 5.1-.8-2.8-2.1-5.5-3.9-7.8z"/><path d="m189 92c.8 0 2.5-.1 3.3-.1 1.2 4 2.5 8 3.9 12 1.4-.2 2.9-.4 4.3-.6.3 1 .6 2.1.9 3.1-1.5.7-3.1 1.4-4.6 2.2.6 3.3 1.1 6.5 1.5 9.8-1.5-.9-4-1-4.5-3-1-3.9-1-8-2.1-11.9-1.1-3.8-2-7.6-2.6-11.5m2.4 4.8c-1.1 1-.5 3.2 1 3.6 2-.3.8-4.3-1-3.6m3 6.8c-.1 1.8-.1 3.6-.2 5.5 1.4-.9 2.8-1.8 4.2-2.6-1.3-.9-2.7-1.9-4-2.8z"/><path d="m297 94c.8 0 2.2 0 3 0 0 .8 0 2.2 0 3-.7 0-2.2 0-3 0 0-.8 0-2.2 0-3"/><path d="m167 97c.8 0 2.4.1 3.2.1 2.9 5.8 3.8 12.3 2.7 18.7-3-1.3-6.1-2.4-9.3-3.4-.1-.6-.3-1.8-.3-2.4 1.9-.5 3.8-1.1 5.6-1.6-.9-3.8-1.7-7.6-1.9-11.5m3.1 4.3c-.1 2.1 0 4.2-.4 6.2-.8 1.7-2.1 3-3.3 4.5 1.9.4 3.8.8 5.7 1.2-.4-4-.9-8-2.1-11.9z"/><path d="m178 101c1-1.3 3.2.3 2.1 1.6-.9 1.3-3.2-.3-2.1-1.6"/><path d="m365 102c3-1.5.1 3.3 0 0"/><path d="m278 106c4.9-.5 9.6-2.5 14.5-2.3 1.4 0 1.7 1.7 2.1 2.7.9 3.5 1.5 7.2 1.8 10.8.2 1.6-1.5 2.9-3 2.2-4.8-.9-9.6-2.3-14.6-1.7-7.9-.2-15.8-.1-23.7-.8-5-.3-10-.1-15-.8-.1-1.2-.1-2.4-.2-3.6 6.3-.3 12.2-2.3 18.4-3.1 0-1.5 0-3.1 0-4.7 1.4 1.7 2.7 3.5 4 5.2-5.9.9-12 1.4-17.3 4.7 9.7 1.1 19.5 1 29 1.9 6.7.1 13.5.2 20 1.6 0-4.5-.6-9.1-2.3-13.4-9.4 1.8-18.8 3-28 4.9 3.7-3.8 9.2-3 14-3.6"/><path d="m132 112c.6-.2 1.8-.6 2.4-.8 0 .8 0 2.4 0 3.2-.8 0-2.4 0-3.2 0 .2-.6.6-1.8.8-2.4"/><path d="m153 115c2-1.9 4.4-3.1 7-3.7-1.3 1.9-2.7 3.8-4.2 5.6-.7-.5-2.2-1.4-2.9-1.9"/><path d="m146 113c.7 0 2.2 0 2.9 0 4.1 5.4 1.7 12.5 4.4 18.4 2.1 5 1.2 10.6 3.4 15.5 1.4 3.8 3.3 8.6.4 12.1-2.6 1.4-5.8.7-8.7 1.1-4-.1-7.5 2-11.3 2.8-3.2-3.7.6-8.6 3.6-11.2-1.4 2.9-2.4 6-3.3 9 6.5-1.1 13-2.1 19.6-3.4-.1-5.8-1.5-11.4-3.6-16.8-1.1.8-2.2 1.5-3.2 2.3.7-5 .8-10.8-3.2-14.5-2.3 1.3-4.4 2.9-6.5 4.5-2.3-3.3.4-6.7 1.8-9.7 1.8-3.3 2.8-6.9 3.7-10.4m1.8 1.8c-2 4.7-4.3 9.2-6.2 13.9 3.2-.4 6.4-.5 9.6 0 .2-4.8-.5-9.8-3.4-13.9z"/><path d="m221 117c2.5-.6 5.8-1.2 7.6 1-.2 4.3-1.4 8.5-.6 12.8 1.1 6.2-1.1 12.5.1 18.8.7 2.3-.3 4.3-2.3 5.5-2-4.8-3.4-9.9-3.6-15.2 0-5.1-3.7-9.2-3.6-14.3.1-2.9-.8-7.1 2.3-8.6m-.3 2.8c-1.1 4.1-.4 8.4 1.1 12.3 1.9 5.1 1.9 10.7 3.3 16 .8-2.1 1.6-4.3 1.6-6.6.2-7.5-.5-15 .7-22.5-2.2.1-5.4-1.8-6.6.8z"/><path d="m314 117c3.3.1-1.5 3 0 0"/><path d="m130 118c1 1.9 2 3.7 3 5.6-.9 0-2.7.1-3.6.2.2-1.9.4-3.8.6-5.8"/><path d="m301 119c1.8 0 3.6 0 5.3 0 .4 1.9.8 3.7.9 5.6-1.2.7-2.5 1.3-3.7 1.8-.9-2.5-1.7-4.9-2.5-7.4"/><path d="m194 124c2.3-.3 3 2.1 3 3.9-1.4.7-3 1.2-4.5 1.8.4-1.9.7-3.9 1.4-5.6"/><path d="m237 124c6.2 1.3 12.4 1.1 18.7.2.7 1.4 1.2 2.9 1.8 4.4-2.2.3-4.9-.3-6.7 1.4-2 1.6-2.1 4.3-2.6 6.5-2.7-.4-4.8-2.2-5.7-4.8 1.4-.7 2.9-1.4 4.4-2.1-.8-.8-1.6-1.6-2.3-2.4-2.2 1.8-3.8 4.2-5 6.8-.6-.1-1.7-.3-2.2-.4-.2-3.2-.2-6.4-.2-9.7m.4 2.2c.5 1.8 1.1 3.6 1.6 5.4 1.2-1.8 2.3-3.5 3.4-5.3-1.7 0-3.4-.1-5.1-.1z"/><path d="m272 126c4.6.3 6.6 4.7 8.8 8-1.7-.1-3.5-.3-5.2-.4-.3.8-.6 1.6-.9 2.4 1.7.9 3.3 1.8 5 2.8-.5 1.4-.9 2.8-1.4 4.2-2.1-2.1-5.5-3.9-5-7.4-.1-1.8 1.7-2.9 2.7-4.1-1.4-1.7-2.7-3.5-4-5.3"/><path d="m280 126c1.3 0 2.6 0 4 0 0 .8 0 2.3 0 3-1.3 0-2.7 0-4 0 0-.8 0-2.3 0-3"/><path d="m343 126c2.4.3 4.8.7 7.1 1.1-1 1.3-1.9 2.7-2.9 4 1.1 1.4 2.4 2.7 3.3 4.2.3 2.9-.8 5.7-1.5 8.4-3.9-5.1-5.1-11.5-6-17.8"/><path d="m352 125c1.7 1.4 3.4 2.9 5 4.3-2.2-.2-4.4-.5-6.7-.7.5-1.2 1.1-2.4 1.6-3.6"/><path d="m320 127c1.4 0 2.7-.1 4.1-.1 3.1 7.2 4 15 6.6 22.3 1.9 5.3 3.1 10.9 4.7 16.3 1.3 4.7 1.7 9.7 4.5 13.8-1 1-2 2.2-3.4 2.8-2.3-4.1-4.1-8.5-6.8-12.4.6-2.6.5-5.3-.3-7.9-.9-3.1-.2-6.6-1.8-9.5-5-7.5-5.1-16.9-7.7-25m1.6 1.1c1.5 5.8 2.6 11.6 3.9 17.4.4 2.2 2.1 3.6 3.6 5-1.5-7.7-2.4-16-7.6-22.4m8.3 29c.2 2.3.5 4.7 2.6 6.1-.4-2.2.2-5.3-2.6-6.1m2.6 6.1c-.5 1.8-1.2 3.5-1.2 5.4.7 2.4 2.4 4.4 3.7 6.5.5-4.4.7-9.2-2.2-12.9l-.3 1z"/><path d="m287 128c1.6-.1 3.1-.2 4.7-.3.7 2.5 1.4 5 2 7.6-3.2-1.4-5.6-4-6.8-7.3"/><path d="m199 129c1.6 1.4 3.6 2.6 3.8 4.9.7 4.8 2.1 9.6 2.2 14.4-.8 2.7-3.8.8-4.3-1.1-2.1-5.8-2.6-12.2-1.6-18.2m1.2 8c-1.5 3 3.3.1 0 0m1.2 6.4c-1.4.9.1 3.6 1.6 2.6 1.3-.9-.1-3.6-1.6-2.6z"/><path d="m258 130c1.4-.7 2.2 1.7.7 2.1-1.4.7-2.2-1.7-.7-2.1"/><path d="m302 131c1.6.4 3.2.8 4.8 1.2-.6 1.6-1.1 3.2-1.7 4.7-1.9-1.4-2.6-3.7-3.1-5.9"/><path d="m283 135c1.1-1.1 2.2-2.2 3.3-3.3.1.9.3 2.8.4 3.7-.9-.1-2.8-.3-3.7-.5"/><path d="m168 133c1.3.7 1.3 1.3 0 2-1.3-.7-1.3-1.3 0-2"/><path d="m285 140c2.1-2.1 4.9-3.4 7.8-2.9-.5 2.6-1.9 5.5-.3 8 1.6 2.7 2.9 5.7 1.8 8.8-.7-.1-2.2-.4-2.9-.5-.6-1.9-1.3-3.8-2-5.7-1.5.7-3.1 1.4-4.6 2.2-2.1-1.8-4.2-3.8-5.5-6.4 3 .1 5.9.8 8.6 1.9-1.1-1.7-2.3-3.5-3-5.4m7 10c-1.5 3 3.3.1 0 0z"/><path d="m160 141c1.4-.5 1.9 0 1.4 1.4-1.4.5-1.9 0-1.4-1.4"/><path d="m313 142c1.2-.9 2.6 1.1 1.3 1.9-1.2 1-2.6-1.1-1.3-1.9"/><path d="m237 142c.8.1 2.4.2 3.2.2 1 2.3 2.1 4.6 3.2 6.9-1.8 3.6-3.9 7.1-7.1 9.6.5-3.3 1.4-6.5 2.6-9.6-1.6-2.1-2.9-4.5-2-7.2"/><path d="m352 152c2.1-.6 4.2-1.1 6.4-.7 3.2 1.8 5.1 5.3 6.4 8.6-.8 1.1-2.1.9-2.9 0-2.4-2.1-5-3.8-7.9-4.9.3 2.8.7 5.6.8 8.5-2.1-.5-4.1-1.8-4.4-4.2-.4-2.4-1.8-6.7 1.7-7.3"/><path d="m303 152c.8 0 2.3 0 3 0 .8 8.1 3.9 15.7 5.4 23.6 2.6 5.7 1.5 12.1 3.9 17.8 1.9 5.3 1.8 11 3.9 16.3 1.6 4 1.6 8.3 1.4 12.5-6.3.3-12.2 3.7-18.6 2.9 0-6.6.9-13.2.6-19.8.2-9.3 1.1-18.7.3-28-.5-5 .6-10-.1-14.9-.4-3.5-.1-6.9.2-10.4m1.1 4.4c.6 17.2-.9 34.4-.1 51.7.4 5.1-.2 10.2-1.1 15.2 5.6 2 10.8-1.5 16-2.7.1-3.5.3-7.2-1-10.6-2.2-5.4-1.8-11.5-4.1-16.9-2-4.5-1.6-9.5-3-14-2.6-7.5-2.3-15.9-6.8-22.6z"/><path d="m266 159c1.8-2.6 4.5-4.2 6.9-6.2 1.8 1.1 3.6 2.1 5.4 3.2-4.8.1-7.9 3.9-11.5 6.6-.3-1.2-.5-2.3-.7-3.5"/><path d="m204 154c.7-.1 2.1-.2 2.8-.2 2.8 8.3 5.1 16.8 5 25.6-1.4-.8-3.2-1-4.2-2.3-1.7-4.5-.2-9.9-3-14-2.9-.5-5.7 1.1-8.5 1.7-.9-1.5-1.7-3.1-2.6-4.6 3-.6 6-1.1 9-1.5-2.1 1.3-4.1 2.5-6.2 3.7 2.6 0 5.2-.3 7.8.3 2.1 1.3 3.4 3.6 5 5.4-.9-3.9-1.9-7.9-2.8-11.8-.9.6-1.8 1.1-2.7 1.7.1-1.3.2-2.6.3-3.9m5.1 19c-1.6 3 3.3.2 0 0z"/><path d="m120 155c.9-1.3 3.2.3 2.1 1.6-1 1.3-3.2-.3-2.1-1.6"/><path d="m345 161c3.3.2-1.5 3 0 0"/><path d="m241 163c4.1-.3 8.5-.4 12.2 1.6 0 1.3-.1 2.9-1.4 3.7-3.6.1-7.1-1.2-10.6-2-.1-.8-.2-2.4-.2-3.2m3.3.6c-1.7.8.2 2.9 1.5 2 1.7-.8-.3-2.9-1.5-2z"/><path d="m340 162c1.6-.1 2.3 1.6 3.2 2.6-1.3.9-2.5 1.8-3.8 2.7 0-1.7-1.1-3.9.5-5.2"/><path d="m287 166c2.1-1.1 4.3-2.2 6.5-3.3-.1 2.1-.2 4.1-.3 6.2-2.1 0-4.2 0-6.3 0 0-.7 0-2.2 0-2.9"/><path d="m276 166c2.3-.7 4.6-1.4 7-1.7.7 1.2 1.2 2.4 1.8 3.6-2.6.9-5.3 1.7-7.9 2.3-.3-1.4-.5-2.8-.8-4.2"/><path d="m355 164c.7.2 2.1.5 2.8.7.5 5.4 1.8 10.8 3.4 16-1.9-.6-3.8-1-5.5-2-1.6-4.7-2.1-9.9-.7-14.7m1.3 9.8c-.9 1.1-.7 1.8.8 1.9.9-1.1.7-1.8-.8-1.9z"/><path d="m108 171c2.2.9 3.3 2.8 3.6 5.1-2.1-1-3.5-2.7-3.6-5.1"/><path d="m230 175c1.4-1.2 3.1 1.4 1.6 2.4-1.5 1.2-3.1-1.4-1.6-2.4"/><path d="m245 175c3.7.8 7.5 1.3 11.2.2-.2 2.7-.5 5.4-1 8.1-4.3-1.3-8.4-4-10.2-8.3"/><path d="m266 175c1.1.9 2.2 1.8 3.2 2.9.2 1.2-.7 2.2-1.3 3.1-2.6 3.4-5.9 6.2-9.2 8.8-2.7 2.3-6.5 2.2-9.8 2.7-1.2-2.1-2.4-4.2-3.7-6.4-1.5.4-3 .7-4.5 1.1 1.2-3.2 3.6-5.7 6.7-7.2.9 2.4.8 5.8 3.6 7 1 .5 2.3 1.2 3.4.5 5.5-2.2 8.9-7.4 11.5-12.5"/><path d="m272 175c3.1.9 6.1 1.9 9.1 3.1-1.6 2.4-3.2 4.8-4.8 7.1-2.5-1.4-4.9-2.8-7.3-4.5 1.1 0 2.3 0 3.5-.1-.9-1.2-1.7-2.3-2.6-3.5.7-.7 1.3-1.5 2-2.2m2.8 5.1c-.5 1.6 0 2.2 1.7 1.7.5-1.6 0-2.2-1.7-1.7z"/><path d="m285 179c-.7-3.1 3.5-3 5.4-2.3 3.2.4 4.1 4.4 3.2 7-1.9 1.8-4.2 3.2-6.4 4.6-1-1.2-1.9-2.4-2.9-3.6 2.1-1.1 4.2-2.1 6.5-3-2-.9-4-1.7-5.8-2.9"/><path d="m196 180c1.7 0 1.5 2.7-.1 2.6-1.7 0-1.5-2.7.1-2.6"/><path d="m211 182c4.2 2 4.4 6.9 5.7 10.8 1.2 3.8 1.6 7.9 2.3 11.8.3 1.7.7 3.6-.2 5.3-1.3-.4-2.5-.9-3.6-1.7-1.7-4.7-.8-10-3.4-14.4-2-3.6-3-7.9-.9-11.8m-.3 4c1.6 5.3 2.6 11 6.3 15.4-.5-5.9-2.8-11.3-4-17-.6.4-1.7 1.2-2.3 1.7z"/><path d="m347 183c3-1.5.1 3.3 0 0"/><path d="m358 183c.9.1 2.6.2 3.5.3 1.2 8.1 5.1 15.6 5.2 23.9-.7 0-2.2-.1-2.9-.2-.9-3.9-2-7.8-3.1-11.7-1.9.6-3.9 1.3-5.9 1.8 1.5-1.6 3.3-2.8 5.3-3.7-1.5-3.2-2.5-6.7-2.2-10.4"/><path d="m267 184c.9-1.4 3.2.1 2.1 1.4-.9 1.4-3.2-.1-2.1-1.4"/><path d="m181 185c3-1.6.2 3.3 0 0"/><path d="m264 191c3.2-2.7 7-4.4 11-5.3-.8 2.8-1.4 5.8-3.2 8.3-3.1 1.3-5.9-.8-7.9-3m3.1-.8c1.1 1.2 2.2 2.4 3.4 3.6.1-1 .3-2.9.4-3.8-.9.1-2.8.2-3.8.3z"/><path d="m115 188c1.6-.5 2.2 0 1.7 1.7-1.6.5-2.2 0-1.7-1.7"/><path d="m286 190c2.5-.9 5.2-1.3 7.9-1.2-.3 2.2-.2 4.5-1.4 6.4-3.3.3-4.9-2.9-6.5-5.2"/><path d="m164 194c1.5.1 3.4-.4 4.3 1.2-.8.7-1.7 1.4-2.6 2.1-.4-.8-1.3-2.4-1.8-3.2"/><path d="m99 196c1.6 0 3.2.1 4.9.2-1.4 1.5-2.9 2.9-4.5 4.1-.3-1.4-.3-2.9-.4-4.3"/><path d="m148 196c.9-1.3 3.6 0 2.7 1.6-1 1.3-3.6 0-2.7-1.6"/><path d="m209 198c1.9-.6 2.7 2.5.8 3-1.9.6-2.7-2.5-.8-3"/><path d="m236 198c4.9 1.8 8.4 6.3 8.3 11.6-2.4.2-5 .9-7.2-.3.7-1.3 1.4-2.6 2.2-3.9-1.3-2.4-2.5-4.9-3.3-7.5"/><path d="m333 198c.9-1.4 3.2.1 2.1 1.4-.9 1.4-3.2-.1-2.1-1.4"/><path d="m146 200c1.1 1.1 2.2 2.2 3.2 3.2-.9.1-2.8.3-3.7.4.1-.9.3-2.7.4-3.7"/><path d="m166 202c1.3-1.4 3.6.8 2.1 2.2-1.3 1.5-3.6-.8-2.1-2.2"/><path d="m120 203c.9.1 2.8.3 3.7.4-1.1 1.1-2.2 2.2-3.3 3.2-.1-.9-.3-2.7-.4-3.7"/><path d="m231 204c1.5-1.2 3.1 1.4 1.6 2.4-1.5 1.2-3.1-1.4-1.6-2.4"/><path d="m94 204c1.6.9 3.7 1.3 4.5 3.1 1.8 3.5 1.3 7.7 1.5 11.5-1.1-.2-2.3-.4-3.4-.5-.7-4.7-1.7-9.4-2.5-14"/><path d="m108 204c.8 1.4 1.5 2.9 2.2 4.4-1 .1-2.9.1-3.9.2.6-1.5 1.1-3 1.7-4.5"/><path d="m290 205c1.6.5 3.1 1 4.7 1.5-1.2.7-2.3 1.5-3.3 2.4-.5-1.3-1-2.6-1.5-3.8"/><path d="m280 207c1.9.8 3.8 1.5 5.7 2.3-1.4 2.9-2.5 6.1-4.2 8.9-1.7 1.7-3.9 2.9-5.9 4.2-1-.7-1.9-1.5-2.9-2.2.2-.4.7-1.3.9-1.8 2.2-1.1 4.8-1.9 6.3-4 1.9-2.1.3-5 .1-7.5"/><path d="m169 208c4.5 3.6 2.1 9.8 4.5 14.4 2.7 5 1.8 10.9 3.8 16 1.7 4.7 1.3 10 3.3 14.6 2.9 6.2 1.9 13.3 3.9 19.8.9 7 4.3 13.5 4.9 20.6-2.5-.9-5.1-1.5-7.3-2.9-2.4-3.7-3.3-8.2-3.4-12.5-.1-9-2-17.9-4.1-26.6-.9-8.4-3.4-16.5-4.6-24.8-1.7-6.1-3-12.5-1-18.7m5.2 33c1.1 8.4 3.4 16.6 4.4 25 1.6 7.6 1.1 15.6 3.8 23 1.1 1 2.5 1.6 3.8 2.4 1.2-4.8-1.1-9.3-1.9-13.9-.6-3.3-1.6-6.4-2.5-9.6-1.1-3.8-.6-7.9-1.6-11.8-3.3-10.5-4.7-21.6-7.6-32-2.2 5.8-.3 11.6 1.5 17.2z"/><path d="m223 209c1.5-1.2 3.1 1.4 1.6 2.4-1.5 1.2-3.1-1.4-1.6-2.4"/><path d="m238 212c3.2-1.1 6.7-3.2 10.1-1.6-.4 3-.5 6-.1 9-1.8 0-4 .8-5.5-.6-2-1.9-3.2-4.4-4.5-6.7m5.7-.2c-2.4.3-1.5 3.3.7 2.3 2.4-.2 1.5-3.3-.7-2.3z"/><path d="m272 211c3.3.1-1.5 3 0 0"/><path d="m285 219c-.2-5.1 4.1-8.2 8.8-8.7-.8 4.6-5.1 6.8-8.8 8.7"/><path d="m140 217c2.2-1.8 4.8-3.2 7.6-3.8-.2 1.8-.4 3.5-.7 5.3-2.3-.5-4.6-.9-6.9-1.4"/><path d="m255 218c4.2-1.5 8.7-1.6 13-2.2.1 1.4.1 2.9.1 4.3-3.7.5-7.6 1-11.3-.1-1.3-.1-2-.8-2-2.1"/><path d="m155 217c1.6-.5 2.2 0 1.7 1.7-1.6.5-2.2 0-1.7-1.7"/><path d="m291 217c.7 1.4 1.5 2.9 2.2 4.4-1 0-2.9.1-3.9.2.6-1.5 1.1-3 1.7-4.5"/><path d="m98 225c1.6.3 3.8 0 4.6 1.7 2 3.7 1.5 8.2 1.2 12.3-.9 0-2.8-.1-3.7-.1-1-4.6-1.2-9.3-2.1-13.9m2.8 7.5c-1.2.9.1 3.3 1.5 2.5 1.2-.9-.1-3.3-1.5-2.5z"/><path d="m261 229c4.1.5 7.7-2 11.3-3.5-1.7 2.4-3.1 5.1-5.3 7.1-4.6 1.7-9.7.1-14.3 1.9-2.1.8-4.1 2.1-6.3 2.5-3.4.1-5-3.4-6.9-5.6 6.3-4.1 14.3-2.9 21.4-2.3m-17.9 2.3c.7 1.4 1.4 2.8 2.1 4.2 6.2-3.1 13.3-1.9 19.6-4.3-7.1-1.8-14.7-2.2-21.7.2z"/><path d="m280 227c3.5-.5 7-1.2 10.5-1.2 1.4-.2 2.4 1.3 2.2 2.6-3.1 2.1-7.1 2.6-10.8 2-.8-1.1-1.4-2.3-2-3.4"/><path d="m358 233c1.4-.5 1.9 0 1.4 1.4-1.4.5-1.9 0-1.4-1.4"/><path d="m311 234c1.4 0 2.7 0 4.1 0 1.5 3.2 3.5 6.1 4.4 9.6-1.2.7-2.4 1.3-3.6 1.9-2-3.6-3.8-7.4-4.8-11.4m5.5 7.2c-1.6 3 3.3.2 0 0z"/><path d="m291 237c1.9 1 4.9 1.4 5.4 4 1 5.1 1.2 10.3 1.8 15.5-1.2-.1-2.4-.2-3.6-.3-.6-1.5-1.1-3-1.7-4.6-3.6.7-7.3.8-10.9.2 0-.9.1-2.7.2-3.6 3.6-1 7.3-1.4 10.9-1.7-.9-3.1-1.7-6.3-2.1-9.5m-7.4 13.6c4.3 1.1 9.1-.4 12.9 2.6-.4-2.1-.8-4.2-1.2-6.3-3.9 1.3-8.6.7-11.7 3.7z"/><path d="m322 238c1.3 1 4.2 1.1 3.9 3.3-1.3.7-2.6 1.3-3.9 1.9 0-1.7 0-3.5 0-5.2"/><path d="m85 240c.7-.1 2-.2 2.6-.2-1 2.6-2 5.3-2.8 7.9-1.6 0-3.1-.1-4.7-.1 1.6-2.5 3.3-5 4.8-7.6"/><path d="m265 240c3.3.2-1.5 3 0 0"/><path d="m334 241c1.4-1.2 3.1 1.4 1.6 2.4-1.5 1.2-3.1-1.4-1.6-2.4"/><path d="m106 246c1.2-.9 3.4.9 2.7 2.3-1.3.9-3.4-.9-2.7-2.3"/><path d="m122 246c2.1 1.4 4.3 2.7 6 4.5-.1 1.3-.3 2.6-.6 3.9-.8-.1-2.3-.3-3-.4-.8-2.7-1.7-5.3-2.5-8"/><path d="m244 247c1.2-.2 2.5-.4 3.7-.6 3.2 7.5 6 15.5 4.9 23.8-3.5-.9-3.8-4.4-4.6-7.4-2.5.1-4.9.9-7.3 1.6 0-1.9.1-3.8.1-5.7 2.4 0 4.9-.1 7.3-.1-1.4-3.9-2.9-7.7-4.2-11.6m-1.4 14c2.9.6 5.8 1.2 8.6 2.1-.4-1.6-.8-3.1-1.3-4.7-2.4.9-4.9 1.7-7.3 2.6z"/><path d="m332 250c.4-1.4 1-3.8 3-3.2 1.6 2.6 2.8 5.5 4.2 8.2-1.9.8-3.8 1.5-5.8 2.2-.6-2.3-1.7-4.7-1.5-7.2m2.6 1.9c-1.5 3 3.3.1 0 0z"/><path d="m355 246c1.4 1.2 3.4 1.9 3.8 3.9 1.8 5.9 3.5 11.8 4.5 17.9-4.2.5-8.6.6-12.6-1.3.9-2.9 4.6-3.2 6.9-4.4-1-5.4-4.7-10.6-2.7-16.2m3.2 8.1c.1 2.5.2 5 .5 7.5-1.7 1.7-3.4 3.3-5 5 2.5-.4 5.1-.8 7.6-1.2-.4-3.9-1.1-7.9-3.1-11.3z"/><path d="m225 250c1.4 0 2.7.1 4.1.1 1.2 3.9 2.3 7.9 2.7 12-.9-.7-1.8-1.5-2.7-2.2.2 2.9.4 5.8.6 8.7 1.2-1.8 2.3-3.6 3.4-5.4.9-1.5 1.9-3.3 3.9-3.3.6 1.1 1.2 2.3 1.7 3.4-3.6 1.7-6.4 4.4-8.1 7.9-4.2-2.8-2.6-8-3.5-12.2-.7-3-2-5.9-2.1-9m1.8 2.1c-.4 1.4.1 1.9 1.5 1.4.4-1.4-.1-1.9-1.5-1.4z"/><path d="m89 252c1.4 0 3.3-1.1 4.2.4-.1 1.1-.2 2.2-.4 3.3-1.3-1.2-2.5-2.5-3.8-3.8"/><path d="m191 252c.8 0 2.4 0 3.2 0 0 .8 0 2.4 0 3.2-.6-.2-1.8-.6-2.4-.8-.2-.6-.6-1.8-.8-2.4"/><path d="m317 251c1.5 1.2 3.8 2 4.3 4 .9 4.5 1 9.2 2.5 13.6 1.8 5.1 2.8 10.4 3.3 15.8-.8 0-2.5.1-3.4.1-2.5-11.1-6.6-22-6.7-33.5m5.9 22.9c.4 2.7.9 5.5 1.6 8.1.7-2.9.9-6-1.6-8.1z"/><path d="m136 254c1.4-.4 1.9.1 1.4 1.4-1.4.4-1.9 0-1.4-1.4"/><path d="m349 256c1.8-.3 1.8 3.4 0 3.1-1.1-.6-1.1-2.5 0-3.1"/><path d="m192 259c1.6-.5 2.2 0 1.7 1.7-1.6.5-2.2 0-1.7-1.7"/><path d="m301 259c2.4.2 4.9.5 7.4.8-.5 1.2-1.1 2.4-1.6 3.7-1.9-1.5-3.8-3-5.8-4.5"/><path d="m84 264c3-1.1 5.8-2.9 9-3 1.7 1.7 3.1 3.8 4.5 5.7-.3.5-.8 1.5-1.1 2-2.1-1.2-4.1-2.4-6.2-3.6.7 3.2.7 6.4.3 9.6-1.4 0-2.9 0-4.3 0 .6-2.4 1.2-4.9 1.8-7.3-1.4-1.1-2.7-2.2-4.1-3.3"/><path d="m186 261c1.4-.4 1.9 0 1.4 1.4-1.4.4-1.9 0-1.4-1.4"/><path d="m112 262c1.5-1.2 3.1 1.4 1.6 2.4-1.5 1.2-3.1-1.4-1.6-2.4"/><path d="m296 263c1.8.4 4.5 0 5.2 2.2 2.5 5.6 2.7 11.9 4.5 17.7.6 2 1.3 3.9 1.4 6-.5 1.2-1.3 1.6-2.5 1.1-3.3-3.4-3.8-8.3-4.5-12.6-.7-5-3.1-9.5-4.1-14.4m2.6 3c-1.4.9 0 3.6 1.6 2.6 1.4-1 0-3.6-1.6-2.6m2.9 7.9c-.9 1.1-.7 1.8.8 1.9.9-1.2.7-1.8-.8-1.9m1.1 5.2c-1.3.4-.8 2.8.6 2.4 1.3-.4.8-2.8-.6-2.4z"/><path d="m166 264c2.7 1 4.5 3 4.7 5.9-2.4-1.3-4.2-3.2-4.7-5.9"/><path d="m308 264c2.1 1.2 5.5 1.4 6.3 4-1.7 1.1-3.5 1.9-5.2 2.8-.4-2.3-.8-4.6-1.1-6.8"/><path d="m268 265c3.3.2-1.5 3 0 0"/><path d="m336 269c3.8-1 7.6-2.1 11.4-3.2 1.3 3.4-2.1 5.3-3.7 7.8 0 3.4 1.5 6.7 1.4 10.2 0 1.5-1.6 2.3-2.9 2.4-2.1-5.7-2.3-12.2-6.1-17.2m3.8 2.1c.2 1.5.6 2.9 1 4.4 1.8-2.6 3.6-5.2 5.2-7.9-2.1 1-4.5 1.8-6.2 3.5m1.7 6.4c-1.1 1-.6 3.2.7 3.7 1.9-.3 1.2-4.4-.7-3.7z"/><path d="m120 269c1.6-.5 2.2 0 1.7 1.7-1.6.5-2.2 0-1.7-1.7"/><path d="m315 269c1.4-.5 1.9 0 1.4 1.4-1.4.5-1.9 0-1.4-1.4"/><path d="m362 270c1.3 1.2 3.2 2.1 3.3 4.1.7 4.4 1.2 8.9 2.2 13.3-2-1.2-4.6-2.1-5.7-4.4-1.4-4.2-1.1-8.8.1-13m1.2 4.3c-1.6 0-1.5 2.7 0 2.9 1.6 0 1.5-2.7 0-2.9z"/><path d="m130 274c1.4-.7 2.2 1.7.7 2.1-1.4.7-2.2-1.7-.7-2.1"/><path d="m158 274c1.5-1.2 3.1 1.4 1.6 2.4-1.5 1.2-3.1-1.4-1.6-2.4"/><path d="m153 275c1.3.7 1.3 1.3 0 2-1.3-.7-1.3-1.3 0-2"/><path d="m231 274c1.4 1.3 3.2 2.4 3.9 4.4 2.2 6 3.4 12.4 3.8 18.9-5.4-2.2-5-8.7-7.2-13.3-1.4-3.2-.9-6.6-.5-9.9m1.7 5.1c-.3 3.6.9 7 3.1 9.9-.1-3.5-.3-7.4-3.1-9.9z"/><path d="m270 275c.9-.1 2.8-.2 3.8-.3 0 .9-.1 2.7-.2 3.6-1.2-1.1-2.4-2.2-3.6-3.4"/><path d="m61 287c-.4-3.1.4-6.2 3.1-8-.2 2.9-1.2 5.7-3.1 8"/><path d="m66 279c1.3-1.1 2.9 1.2 1.6 2.1-1.3 1-2.9-1.2-1.6-2.1"/><path d="m122 281c1.8.3 3.6.6 5.4.9-.6 1.2-1.2 2.4-1.8 3.6-1.2-1.5-2.4-3-3.6-4.6"/><path d="m65 285c1.4-1.6 3.2-2.7 4.9-4 1 1.8 2.6 3.5 2.9 5.6-1 3.8-3.4 7.2-3.7 11.2-1-.8-2.1-1.6-3.1-2.3.5-1.7 1-3.4 1.4-5.2-.9-1.7-3.1-3.2-2.4-5.3"/><path d="m317 283c1.8-.6 2.4 2.3.6 2.7-1.8.6-2.4-2.3-.6-2.7"/><path d="m254 284c1.3 0 2.5 0 3.8 0 2.4 7 2.9 14.6 5.1 21.7 2.3-.7 4.5-1.3 6.8-1.9 0 1.4.1 2.8.1 4.2-3 1-6.6 4.4-9.6 1.9-1.5-2.4-1.4-5.5-2.3-8.1-1.8-5.8-1.9-11.9-3.9-17.7m6.8 22.4c0 .8.1 2.4.1 3.1 2.6-.6 5.2-1.6 7.4-3.1-2.5-.1-5 0-7.5 0z"/><path d="m347 288c.7 1.1 1.4 2.1 2.1 3.2-1.5.5-3 1-4.5 1.5.8-1.6 1.6-3.1 2.4-4.7"/><path d="m73 294c1-2.1 2.6-3.8 4.1-5.6 1.9 2.9 3.3 6 4.3 9.3-2.2.8-4.5 1.5-6.7 2.2-.6-1.9-1.4-3.9-1.7-5.9"/><path d="m169 290c2.3-.5 4.6-.9 7-1.3-.3 2.3-.7 4.5-1.1 6.8-2.2-1.5-4.2-3.3-5.9-5.5"/><path d="m273 289c1.6-.7 2.5 2 .8 2.4-1.6.7-2.5-1.9-.8-2.4"/><path d="m118 290c1.3 0 2.6 0 3.9-.1-.5 1.1-.9 2.2-1.4 3.3-1.5-.3-3.1-.6-4.6-.9.5-.6 1.5-1.8 2-2.3"/><path d="m138 290c1.6-.5 2.2 0 1.7 1.7-1.6.5-2.2 0-1.7-1.7"/><path d="m165 290c1 0 2.9.1 3.9.1-.9 1.4-1.4 3-2.3 4.4-.5-1.5-1-3.1-1.6-4.6"/><path d="m353 290c.7-1 2.8-1 2.9.5-.1 2.1-4.1 1.6-2.9-.5"/><path d="m319 295c3.6-.9 7-2.1 10.4-3.6 3.9 8.4 7.1 17.2 7.8 26.4-1.9-.7-4.3-1.4-4.7-3.8-1.6-5.7-2.7-11.6-5.1-17-2.4.9-4.8 1.8-7.2 2.6-.4-1.5-.8-3.1-1.2-4.7m8.5-1.7c-1.9.4-1.1 3.6.8 3 1.9-.4 1.1-3.6-.8-3m-6 3.1c.1 3.3 3-1.5 0 0m9.8 5.2c.2 4.6.9 9.5 3.9 13.3 0-4.7-.8-9.6-3.9-13.3z"/><path d="m141 293c3.3.2-1.6 3 0 0"/><path d="m361 293c1.4-.5 1.9 0 1.4 1.4-1.4.5-1.9 0-1.4-1.4"/><path d="m306 298c3.1-.9 6.4-1.6 9.6-2-1.2 2.4-2.8 4.6-4.5 6.5.6 8.6 5.3 16 6.3 24.5-.8 0-2.5 0-3.4 0-1.7-6.4-5.1-12.4-5.8-19-.4-3.4-1.2-6.8-2.2-10m2.6 1.2c.1 1.4.8 1.7 1.9.8-.1-1.4-.8-1.7-1.9-.8z"/><path d="m213 299c2.8.7 5.6 1 8.4.8 1.8 3.4 2.8 7.2 2.8 11-3-1.2-2.9-4.2-2.6-6.9-1.2-.4-2.4-.8-3.6-1.1-.5 4.2-.2 8.5.9 12.6 2-.2 4-.7 6-.6 1.1.8 2 1.7 2.9 2.6-3.6 1.7-7 3.8-10 6.2-3-7.5-4.5-15.4-6.2-23 .5-.5 1.1-1.1 1.6-1.6m5.6 22.3c1.9-1.6 3.8-3.1 5.8-4.7-2.2-.3-4.5-.6-6.7-.9-.8-3.3-1.4-6.6-2.2-9.9-1.1 5.4 1 10.6 3.2 15.5z"/><path d="m150 300c1.5.6 3 1.1 4.6 1.6-1.4.9-3 1.5-4.5 2.3 0-1-.1-2.9-.1-3.9"/><path d="m347 304c-.7-2.2 2.1-3.2 3.3-4.6 1.1 4 1.7 8.1 3.1 12 1.2 3.5 3.4 6.7 4.1 10.4-1.1.7-2.4 1.3-3.6 1.9-2.5-6.5-5.7-12.8-7-19.7"/><path d="m90 302c2.3-1.1 4.6-1 6.4.9-2.3 1.1-4.6 1.1-6.4-.9"/><path d="m134 302c1.5-.4 3.1-.8 4.6-1.2.4.5 1.1 1.5 1.5 2-2.1.7-4.2 1.5-6.3 2.2.1-.7.2-2.2.3-3"/><path d="m64 302c.8-.1 2.3-.4 3-.6.8 3.8 2.2 10.5-3.2 11.4-1.9-3.4-.2-7.3.1-10.9m.8 2.9c-1.5 3 3.3.1 0 0z"/><path d="m76 302c1.9.2 3.7.3 5.6.5-1.9 1-3.9 1.9-5.8 2.8 0-.8.2-2.5.2-3.3"/><path d="m201 306c1.3-.4 2.5-.9 3.8-1.3-.3 2.1-1.9 3.5-3.5 4.7-.1-.8-.2-2.5-.3-3.4"/><path d="m128 306c1.5-1.2 3.1 1.4 1.6 2.4-1.5 1.2-3.1-1.4-1.6-2.4"/><path d="m168 305c.6.9 1.2 1.9 1.8 2.8-.9 1.2-2 2.2-3.1 3.3.4-2.1.8-4.1 1.3-6.1"/><path d="m180 307c1.3-1.1 2.9 1.2 1.6 2.1-1.3 1-2.9-1.2-1.6-2.1"/><path d="m206 314c1.4-.5 1.9 0 1.5 1.4-1.4.5-1.9 0-1.5-1.4"/><path d="m134 315c1.2.5 2.3 1.1 3.4 1.8-1.7.5-3.4 1-5.1 1.5.6-1.1 1.1-2.2 1.8-3.3"/><path d="m263 320c.7-1.6 2.7-2 4.1-2.8.8 4.5 1.2 9 1.5 13.5-.8 0-2.4 0-3.2 0-1-3.5-2.4-7-2.4-10.7m.9-.3c.7 2.5 1.4 5 2.2 7.4.2-2.5.4-5 .6-7.5-.7 0-2.1.1-2.8.1z"/><path d="m327 319c1.8-.6 2.4 2.3.6 2.7-1.8.6-2.4-2.3-.6-2.7"/><path d="m82 319c.9 1 2.8 1.6 2.6 3.3-.9.7-1.8 1.4-2.7 2.1 0-1.8 0-3.6.1-5.4"/><path d="m282 322c1.6-.5 2.2 0 1.7 1.7-1.6.5-2.2 0-1.7-1.7"/><path d="m128 323c.9-1.3 3.2.3 2.1 1.6-1 1.3-3.2-.3-2.1-1.6"/><path d="m337 324c1.2 0 2.3 0 3.5 0 .9 5.2 3.4 9.9 4.6 15 .9 3.8 2.2 7.5 3.2 11.3-1.7-.7-4.1-.9-4.6-3-2-5.3-3.3-10.9-6-15.9-1.5-2.3-1-5-.6-7.5m1 1.4c.1 4 1.6 7.8 4.2 10.9-.2-4-1.6-7.8-4.2-10.9z"/><path d="m135 324c2.7 1.1 3.4 3.5 3.3 6.2-2.7-1.1-3.4-3.5-3.3-6.2"/><path d="m214 330c2.2-2.7 5.9-3 8.7-.9 2.8 4.2 1.7 9.5 2.8 14 1 4 2.9 7.9 2.9 12.1.6 2.3-2.2 2.5-3.6 3.5-1-3.3-2-6.6-3.2-9.8-2.5-5.6 0-11.8-1.8-17.6-2-.4-3.9-.9-5.8-1.4m12.4 26.9c1.1-6-1.4-11.7-3.7-17-2.9 5.8 1.3 11.9 3.7 17z"/><path d="m273 327c1.4-1.2 3.1 1.4 1.6 2.4-1.5 1.2-3.1-1.4-1.6-2.4"/><path d="m256 328c1.6-.5 2.2 0 1.7 1.7-1.6.5-2.2 0-1.7-1.7"/><path d="m355 329c1.3-.4 2.6-.8 4-1.2 2.9 5.3 2.6 11.7 6 16.7.6-2 1.1-4.1 1.7-6.1.7 2.6 1.2 5.3 1.5 7.9-2.9-.4-5.8-1-8.7-1.6-1-5.4-2.2-10.7-4.6-15.7"/><path d="m267 335c-.6-2.3 2.1-2.7 3.4-3.6.7 8 4.3 15.5 4.8 23.6-.8 0-2.3-.1-3.1-.1-1.7-6.6-5-12.9-5.2-19.8m2.2.2c-1.6 3 3.3.1 0 0m-.1 3.3c-.9 1.1-.7 1.8.8 1.9.9-1.1.7-1.8-.8-1.9z"/><path d="m130 333c1.5-1.2 3.1 1.4 1.6 2.4-1.5 1.2-3.1-1.4-1.6-2.4"/><path d="m213 334c.8 0 2.4 0 3.2 0 0 .8 0 2.4 0 3.2-.6-.2-1.9-.6-2.5-.8-.2-.6-.6-1.9-.8-2.5"/><path d="m291 339c-.9-2.7 3.9-6 4.6-2.1 1.3 7.2 5.1 14.4 3.2 21.8-1.6-1.5-3.1-3.1-3.6-5.3-1.2-4.9-3.3-9.5-4.2-14.4m1.9-.8c-.5 1.6 0 2.2 1.7 1.7.5-1.6 0-2.2-1.7-1.7z"/><path d="m317 335c.9 0 2.6-.1 3.4-.1.8 4.3 1.6 8.5 3.4 12.5 1.6 3.3 1.4 7 1.5 10.7-1.2-.1-2.4-.1-3.6-.2-1.1-7.7-5.1-14.9-4.7-22.9m5.6 16c-1.1.6-1.1 2.4-.1 3 1.8.3 1.9-3.3.1-3z"/><path d="m231 336c1.6-.5 2.2 0 1.7 1.7-1.6.5-2.2 0-1.7-1.7"/><path d="m44.9 345c1-3.7 2.9-7.2 6.4-9-1.2 3.6-3.4 6.7-6.4 9"/><path d="m353 338c1.6-.5 2.2 0 1.7 1.7-1.6.5-2.2 0-1.7-1.7"/><path d="m302 339c.5.4 1.4 1.2 1.9 1.6.1.7.2 2 .2 2.7-.8 0-2.5 0-3.4 0 .4-1.4.8-2.8 1.2-4.2"/><path d="m112 344c2.3-1.3 4.7-2.4 7-3.5 0 1.7-.1 3.4-.2 5.2-2.3-.5-4.6-1.1-6.9-1.6"/><path d="m213 340c1.2.4 2.4.9 3.5 1.4.5 1.3.8 2.7 1.2 4.1-.9 0-2.6.1-3.4.1-.4-1.9-.9-3.8-1.3-5.6"/><path d="m191 344c1.7 2 1.8 4.3 0 6.3-.1-2.1-.1-4.2 0-6.3"/><path d="m111 347c2.7 1.4 5.4 2.8 8 4.3-.1 1.2-.1 2.4-.2 3.6-1 .5-2 1-2.9 1.4-.5-1.9-1-3.8-1.4-5.6-1.1-.3-2.2-.7-3.3-1 0-.7-.2-2.1-.2-2.8"/><path d="m250 347c1.1.5 2.2 1 3.3 1.4 0 2 0 3.9.1 5.9-1.4-.5-2.8-1-4.2-1.5.3-2 .6-3.9.9-5.9"/><path d="m44.7 354c.6-2.1 1.8-3.9 3.5-5.1-.3 2.3-1.2 4.3-3.5 5.1"/><path d="m218 352c1.5-.9 2.9 1.7 1.6 2.6-1.5.9-2.9-1.7-1.6-2.6"/><path d="m133 351c2.7 1.2 4.2 3.5 4.6 6.4-.9 0-2.7.1-3.6.1-.4-2.2-.7-4.4-1-6.6"/><path d="m96 354c1.4-.5 1.9 0 1.4 1.4-1.4.5-1.9 0-1.4-1.4"/><path d="m163 354c1.7 2.6 2.2 5.8 2.6 8.8-.8 0-2.3-.1-3-.2 0-2.9.1-5.8.4-8.7"/><path d="m83 357c1.8.8 3.7 1.7 5.5 2.6 2-2.5 5.4-3.1 8-1.3 0 .4 0 1.1 0 1.5-3.2 1.2-6.8 2.3-10.2 1.6-2.2-.3-2.6-2.7-3.3-4.4"/><path d="m46 361c1.6-.5 2.2 0 1.7 1.7-1.6.5-2.2 0-1.7-1.7"/></g><g style="fill:#0a0908"><path d="m275 180c1.6-.5 2.2.1 1.7 1.7-1.6.5-2.2-.1-1.7-1.7"/><path d="m103 337c1.5-.1 3.1-.3 4.6-.4-.3 1.2-.7 2.3-1 3.5-1.3 0-2.7.1-4 .1.1-.8.3-2.5.4-3.3"/></g><path d="m99 337c.1-2.4.3-4.9.7-7.3.2.5.6 1.5.8 2l.3.8c.5 1.7.9 3.5 1.3 5.3-.8-.2-2.3-.6-3.1-.8" style="fill:#3a3a32"/></svg>