<svg xmlns="http://www.w3.org/2000/svg" viewBox="0 0 401 382" style="enable-background:new 0 0 401 382"><g style="fill:#564e45"><path d="m326 185c3.4-2.8 4.9-7 6.2-11l.3-.7c-.3 2.9-.4 5.9-1.1 8.8-2.8 4.9-4.7 10.6-9.1 14.3.7-2.4 1.4-4.8 2.1-7.2-2.1 2-3.5 4.4-4.3 7.1-.6.8-1.1 1.5-1.8 2.2-.8-.6-1.5-1.3-2.3-1.9-.3-.3-1-.8-1.4-1 4-3.3 7.5-7.2 11.4-10.6"/><path d="m299 288c.8-1 2.8-.6 3 .8-.1 2.1-4 1.1-3-.8"/><path d="m297 292c1.6-.5 2.2 0 1.7 1.7-1.6.5-2.2 0-1.7-1.7"/><path d="m355 297c.9-1.4 3.2.1 2.1 1.4-.9 1.4-3.2-.1-2.1-1.4"/></g><g style="fill:#807164"><path d="m155 72c2.9-1.1 6.1-1 9.1-.4 2.5.7 5 1.4 7.4 2.6-2.2-.5-4.3-.8-6.5-1.2-1.6 2.5-2.8 5.5-5.3 7.3-1.7.5-3.5.5-5.3.6 1.5 2.2 3 4.5 4.4 6.8-1.9-.3-3.8-.4-5.6-1-1.9-3.1-2.9-6.7-4.5-10 1.4-1.2 2.9-2.3 4.4-3.3-.6.8-1.2 1.5-1.8 2.3 2.8.4 5.7.9 8.5 1.3.7-1.5 1.4-3 2.1-4.6-2.5 0-5 0-7.6.1l.7-.5"/><path d="m166 77c.7.1 2 .3 2.6.3 1.6 2.4 3.2 4.8 4.9 7.1.7-1.1 1.3-2.3 2-3.4-.1 6-1.4 11.9-2.2 17.8-.2-1.5-.4-3-.6-4.5-2.4-.4-4.9-.9-7.3-1.3.1 1.1.2 2.1.3 3.2-.6-.3-1.7-.9-2.2-1.2-.6 1.9-1.3 3.7-1.5 5.7 3.2 2.5 7 3.8 10.2 6.3 2 1.6 2.7 4.2 3.6 6.5 1.7 5.4 6.3 9 9.3 13.6 2.7 3.6 4.7 8 8.4 10.7 5.5 2.9 12 1.4 17.9.8-4.5 1-8.9 3.1-13.6 2.6-5.8-1.4-9.2-6.9-12.3-11.5-2.6-4-5.7-7.6-8.7-11.2-2.4-2.8-2.1-6.8-4.2-9.7-3.6-3.2-8.3-4.8-12.6-7.1 1.6-4.2 3.1-8.5 4.1-12.8 3.4.6 6.7 1.3 10.1 1.8-2.8-3.4-6.6-5.5-10-8.1.3-2 1.2-3.8 2-5.7m-.5 5.3c1.7-.3 3.3-.6 5-.9-.5-.7-1.4-2.2-1.9-2.9-1.3 1.1-2.3 2.4-3.2 3.8z"/><path d="m309 103c4.9-.6 9.1-3.5 13.9-4.3 4.6-.8 8.5 2.3 11.7 5.1-2.8-1.5-5.6-3.1-8.6-3.8-1.9 1.3-3.2 3.2-4.6 4.9 2.9-.5 5.8-1 8.7-1.4-2.2 2.6-4.6 5-7.2 7.2 1.1 1.5 2.3 3 3.4 4.5-2.4 1.8-4.9 3.2-7.6 4.3-.1 1.9-.1 3.8-.2 5.7-2.8 0-5.6-.1-8.4-.1-.5-2-1.1-4.1-1.6-6.1 2.1-3.3 6.8-3.8 9.9-5.9-1.6-1-3.2-2.1-4.8-3.1-1.5 1.9-2.6 4.8-5.4 5.1-2.4.5-4.6-1.5-5.3-3.6.8-3.5 3.4-6.1 5.9-8.5m4.1.7c2.2 2.4 4.5 4.6 7.1 6.5-.3-1.6-.5-3.2-.8-4.7 1.5-1.7 2.9-3.6 2.9-5.9-3.1 1.3-6.2 2.8-9.2 4.2m-3.5 1.5c-1.1 2.3-2.3 4.5-3.4 6.8 2.9-1.5 6.4-3.3 5.7-7.2-.6.1-1.8.4-2.3.5z"/><path d="m145 101c.5.2 1.6.5 2.2.7 1.4 1.5 2.9 2.9 4.4 4.3.4 8.3-.6 16.5-1 24.7-.2 2.7 0 5.8-2.4 7.6-1.4 1.7-3.7 1.6-5.7 1.7-.6-3.6-1.7-7.3-.5-10.9 1.9-7 .9-14.4 1.2-21.6 1.1-.8 2.1-1.7 3.2-2.5-.5-1.4-.9-2.7-1.4-4m.9 6.2c0 .8 0 2.4.1 3.2 1.4-.3 2.9-.7 4.3-1.1 0-.8-.1-2.6-.2-3.4-1.4.4-2.8.9-4.2 1.3m-1.3 5c.5 1.2 1.1 2.3 1.6 3.5 1.7-.8 3.3-1.9 4.6-3.3-2.1-.1-4.1-.2-6.1-.2m.4 4.1c0 3.8.1 7.7 1.1 11.5-1.1 1.1-2.5 2.1-3.3 3.6-.3 3 1.6 5.5 3.2 7.8 1-1.5 2.6-2.9 2.5-4.9.1-5.6.3-11.2.3-16.8-1.3-.4-2.6-.8-3.9-1.2z"/><path d="m134 116c.3-5 1.4-10 3.6-14.5-.3 3.4-.8 6.8-1.6 10 2.6 4.1 3.7 8.8 2.9 13.6-.6.1-1.9.3-2.5.3-.4-3.3-1.1-6.5-2.4-9.5"/><path d="m326 113c1.1-2.4 2.7-6.6 6.1-5.3 1.9 1.7 3.2 4 4.6 6.1-1.7 1.3-3.3 2.7-5 4 3.5 1 6.9 2.3 10.3 3.7-1 1.7-2.1 3.5-3.2 5.2 1.8 1.5 3.9 2.9 5.3 4.9 1.6 2.5 2.5 5.5 4.3 7.9 2.6 3.2 6.9 4.4 9.4 7.6 3.2 5.1 3.3 11.8 1 17.3-.9 2.2-2.6 4.3-5.1 4.5-5.7 1.3-11.2-.8-16.7-2.2-2.2 1.8-3.4 4.6-4.5 7.1l-.3.7c.4-1.8.8-3.6 1.2-5.3-.4-.2-1.2-.6-1.6-.8-.9.9-1.9 1.7-2.8 2.6 1.3-4 4.3-7 8-9-1.4-4-2.3-8.4-5.1-11.6-2.9-2.1-6.3-3.3-9.5-4.8-3.1-.7-4.4 2.1-5.4 4.5 1.8.5 3.6.9 5.4 1.4.2-.8.6-2.4.8-3.2.4 1.6.9 3.2 1.3 4.8-2.6-.3-5.8.1-7.8-2.1-.3-1.3 0-2.7.9-3.7 2.1-2.8 4.3-5.6 5.6-8.9-2.4 1.8-4.8 3.7-6.5 6.1-1.7 2.3-2.5 5.1-4 7.5-2.8-1.5-5.2-3.5-8.1-4.6-2.5-.9-5.1-.4-7.7-.2 2.1 1.9 4.4 3.6 6.8 5 .1 1.4.1 2.7.2 4.1 3.1.5 6.9-.3 9.4 1.8.6 3.8.5 7.8 2.2 11.3 2.1 4.5 3.6 9.3 3.1 14.3-2.7-8.5-5.4-17-7.4-25.7-3.8-.3-7 1.4-9.4 4.3.1-1.1.3-2.1.5-3.2-1.3-.3-2.5-.5-3.8-.8-1.4-3.7-3.4-7-5.9-10-2.4-2.7-1.4-6.5-1.4-9.7 3.8 2 7.9 3.3 11.2 6 2.6 2.1 6 2.4 9.2 2.9.1-2.7.7-5.5.2-8.2-1.4-2.5-3.6-4.3-5.3-6.5 1.1-1.1 2.1-2.3 3.2-3.4 4.2.5 8.1 2 10.9 5.4.6-2.7 1.2-5.4 1.1-8.2.1-2-.3-4.3 1.2-6 2.7-3.4 6.5-5.5 10-7.9-2.3.1-4.7.2-7 .3m-1.6 12.3c1.2-.4 2.4-.7 3.6-1.1-.1-.9-.3-2.8-.3-3.7-2 .9-3.4 2.4-3.3 4.8m7-3.3c-.7 2.3-.6 5.3-3 6.7-3 1.7-3.6 5.2-4.5 8.2 4.7 2.3 9.4 5.9 15 5.4-1.6-.6-3.2-1.1-4.8-1.7-.2-.8-.7-2.2-1-3 2.2-.1 4.4.2 6.5.9.3-.7.7-1.4 1-2.1-1.9-.2-3.8-.7-5.7-.6-1.7 1.1-3.1 2.6-4.6 3.9-1-5.2 3.3-9.4 3.3-14.5-.7-1.2-1.5-2.2-2.3-3.3m-22.5 12.2c.5 2 3.1 1.6 4.7 2.2-.3 2.4-.6 4.8-.8 7.2 1.6-2.4 5.8-6.3 2.3-8.8-1.7-1-4.9-3.2-6.1-.7m14.9 5.5c-.9 1.1-.7 1.8.8 1.9.9-1.1.7-1.8-.8-1.9m18.8-.9c-2.1 7.2 3.8 12.9 7.1 18.6 2-.2 4.1-.4 6.1-.6-.1-2.2.5-4.8-1.1-6.7-1.9-2.6-5.7-5-8.4-2.2 1.3-3.7-.9-6.9-3.7-9.2m-9 9.5c.6-.1 1.6-.2 2.2-.3.1.4.2 1.1.2 1.5 2.3 2.3 4.1-3.1.9-2.5.8-.9 1.4-1.9 2-2.9-2.3.6-4.6 1.7-5.4 4.2m1.9 5.1c2.7-.5 5-2 6.5-4.4-2.6.7-4.9 2.2-6.5 4.4m3.6-.1c-1.2 1.4 1.4 3.1 2.4 1.7 1.2-1.5-1.4-3.1-2.4-1.7m.8 3c-.1.6-.3 1.9-.3 2.6 1.7-.3 3.4-.7 5.1-1 .1-.7.4-2.1.5-2.7-1.7.4-3.5.8-5.2 1.2m3.1 3c-1.3.7-1.3 1.4 0 2 1.3-.7 1.3-1.4 0-2m-.1 4c.4 1.1.8 2.2 1.2 3.3 1.9-1.7 3.1-4 3.7-6.5-1.7 1-3.3 2.1-4.9 3.2m6.6 3.2c2-1.3 3.5-3.2 3.7-5.6-2.9.5-3.4 3.2-3.7 5.6z"/><path d="m157 108c3.6.8 7.9.8 10.4 4 1.2 2.7.6 5.8.6 8.6 3.1 1.6 6.4 2.9 9.4 4.7 3.2 2.4 5.5 5.7 8.1 8.7-.5.3-1.6.8-2.2 1-2.7-2.3-5.5-4.5-8.3-6.6.2.6.5 1.8.6 2.4-1.2-1.8-2.3-3.8-3.7-5.5-1.8-.3-1.7 1.9-2.4 3 0-1.4-.1-2.8-.1-4.1-.6-.1-1.9-.2-2.6-.3 0 2.1.3 4.3-.4 6.4-2.1 2.8-5.3 4.5-7.8 6.8 1.8-.1 3.7-.1 5.5-.3-2.7 1.3-5.3 2.6-7.8 4.2 3.9 2.6 8.4 4.2 12.2 6.9 4.2 4 4 10.4 6.7 15.2 2.5 1.5 5.7 1.4 8.5 2-3.1.4-6.2.7-9.3 1.1-1.9-5-2.2-10.5-4.8-15.2-2.9-4.7-9.2-4.7-13.3-7.7-.6-4.6-.1-9.3-.3-13.9-.3-7.2 1.8-14.2 1.1-21.4m1.9 1.7c.4 1.4.4 3.1 1.3 4.3-.1.6-.1 1.7-.2 2.3-.5-.2-1.4-.6-1.9-.8 1.6 3.5 4.2 6.4 7 9 .6-1.2 1.1-2.3 1.7-3.5-.9-.9-1.8-1.8-2.9-2.7l.7.4c0-.7 0-2.2-.1-2.9.4.2 1.2.4 1.6.6 0-1.4.1-2.9.1-4.3-2.4-.9-4.9-1.8-7.4-2.3m3.4 14.8c.8 2.1 1.8 4.1 2.8 6.1.4-.7 1.1-2.1 1.5-2.8-1.3-1.3-2.8-2.3-4.3-3.3z"/><path d="m338 111c2.7 8.5 11 13.6 19 16.3 4.3 1.5 7.3 5.1 10.4 8.2-3.9-2.1-7.6.5-10.6 2.8 1.8-2 3.5-4 5.3-6-2.2-2-4.5-4.3-7.6-4.8-2.7-.8-5.2.8-7.5 1.8-.2-2.3.4-5-1.5-6.8-2.2-2.4-5-4.3-7.6-6.3.1-1.8.1-3.6.1-5.4"/><path d="m51 112c2 4.1 1.9 8.9 3.9 13 1.6 3.5 3.6 6.7 5.5 10 1.4-4.2 2.3-9.1 6.1-11.9 1.7-1.5 4.8-1.8 5.8.6 3.3 4.3-.2 9.3-2.3 13.2 1 1.3 2.5 2.3 2.8 4.1.9 5.2 1.3 10.4 2.9 15.4-1.5-3.3-3.2-6.5-4.5-9.8 0-.8.1-1.6.2-2.3.2-1.4.3-2.7.5-4.1-.8 0-2.4-.1-3.2-.1-.7-.7-1.4-1.5-2.2-2.2 2.2-2.9 5.4-5.5 6.2-9.3-.3-2.3-1.5-4.5-2.6-6.5-5.2 3.2-7.5 9-8.6 14.8-1.3-.7-2.5-1.3-3.8-1.9-.4-1.5-.9-3-1.4-4.5-.3-.9-.7-1.8-1.1-2.7-1-1.5-2-2.9-3-4.4-.2-.4-.7-1.1-.9-1.4-.5-1.6-.9-3.3-1-5 .2-1.4.5-2.9.7-4.3v-.7"/><path d="m135 128c1.3 3.1 3.2 6.2 3.2 9.7-1.9 3.2-5.3 5.3-6.9 8.7-.3 2.4.4 4.8.8 7.1 1 4.6 1.2 9.5 3.6 13.6.8 2 2.7 4.1 1.8 6.4-1.8 4.3-5.2 7.6-8.2 11 1.7-2.7 3-5.7 3.3-8.9 1-8.6-.6-17.2-2.7-25.6-1.4-5.2 3.9-8.8 6.7-12.3-.6-3.2-1.2-6.5-1.7-9.7"/><path d="m360 143c-.3-3.1 1.5-5.2 4-6.7.8 1.3 1.5 2.5 2.3 3.8-1.5 2-3.7 2.9-6.2 2.9"/><path d="m374 141c5.4 4.8 7.1 12.3 9.4 18.9.1.3.2.8.3 1.1-1.2-1.9-2.7-3.6-4.4-5.1-.4 1.4-.7 2.8-1.1 4.2 1.1 1.1 2.3 2.2 3.5 3.2-.3 0-1-.1-1.3-.2-3.4-.6-6.7 0-10 .4 2 2.5 4.2 4.8 6.2 7.3-2.4-1.3-5.3-2.2-6.7-4.7-1.6-2.7-1.7-5.8-2.1-8.8 3.6-.1 7.1 0 10.6-.7 1.1-1.4 1.3-3.3.8-4.9-1-3.9-2.9-7.5-5.1-10.9"/><path d="m365 147c1.3-.4 2.6-.8 4-1.2 0 1.3-.1 2.5-.1 3.8-.9.4-1.9.8-2.8 1.3-.4-1.3-.7-2.6-1-3.8"/><path d="m373 148c1.5-1.2 3.1 1.4 1.6 2.4-1.5 1.2-3.1-1.4-1.6-2.4"/><path d="m12.7 159c.8-3.1 1.9-6 3-9-.7 5.7-1.9 11.4-3.3 17-.5 3.1-1.7 6.7.3 9.4 2.6 3.9 5.8 7.3 7.9 11.5.1.3.4.8.5 1.1 1.3 2.5 2.9 5.5 5.9 6.1 3.8.3 7.6-.8 11.3.2-.1.6-.4 1.8-.5 2.4-.6.2-1.9.6-2.6.8 0-.6-.1-1.8-.2-2.3-2.4.4-4.8 1.1-7.2.9-4.1-.9-7-4.4-8.5-8.1-2.1-4.9-5.7-8.9-8.7-13.3-.6-1-1-2.2-.8-3.4.4-4.5 1.8-8.9 2.8-13.3"/><path d="m138 152c.3-1.7 2.1-2.2 3.2-3.2.4 3.7.9 7.4 1.2 11-.5 4.8-1.1 9.6-1.1 14.4-.2 4 .2 8.4-2 12-4.1 6.7-10.8 11.2-15.7 17.2-5 6.1-10.5 11.7-14.5 18.5 2.7 3.3 5 6.8 7.4 10.3 2.3 3.4 6.2 5 9.8 6.6-2.8 0-5.8-.4-8-2.2-2.6-1.6-3.5-4.7-4.9-7.2-1.3-2.8-3.8-4.6-6.1-6.5 3.9-7.3 10-13.2 15-19.7 5.1-6.9 13.3-11.2 17-19 1.5-6.6 1.1-13.5 1.1-20-.9-.7-1.7-1.3-2.6-1.9.2-3.3-.2-6.7.3-9.9"/><path d="m26.4 166c1.2-.3 2.3-.5 3.5-.8.2.4.7 1.1 1 1.5-.9 2.2-1.6 4.5-2.2 6.8l-.3 1c-.1-.3-.5-.8-.6-1-.7-1.2-1.5-2.4-2.2-3.6-.1-1.2-.1-2.4-.1-3.6l.9-.2"/><path d="m369 179c2.1.4 4.3.8 6.4 1.3-1.4.9-2.9 1.8-4.3 2.7.4 1.8.8 3.5 1.2 5.3-1.3-.1-2.7-.3-4-.4-1.4 4.1-2.2 8.3-2.2 12.6-.8 11.2-.5 22.8-4.8 33-2.6-.9-5.2-1.8-7.8-2.7 2-9.8 3.9-19.6 4.6-29.6-2.8 9.4-4.3 19-6.9 28.5-1.1-.6-2.1-1.1-3.2-1.7 2.1-9.3 5.5-18.3 6.2-27.9-2.7 5.9-3.6 12.4-5.6 18.5-.6 2.3-2.6 3.8-4.4 5.3.8-5.1 2.4-10 3.1-15.2-2.4 4-3.7 8.5-4.7 13-1.1.2-2.3.4-3.4.6 1.7-7.4 5.4-14 6.8-21.6-2.2 3.4-3.9 7-5.3 10.9-.8-.9-1.5-1.8-2.3-2.7 2.8-7.4 7-14.3 9.6-21.8 4.8-.7 9.6-1.9 14-4 2.4-1.3 5.1-.2 7.5.5-.2-1.7-.4-3.3-.6-5m-14.8 21.2c3.5-1.6 2.6-5.9 2.9-9-1.7 2.7-2.7 5.8-2.9 9m-3.6-6.2c-1.6 4.4-2.1 9.2-2.3 13.8 2.3-4.9 3.8-10.2 4.1-15.6-.4.4-1.3 1.3-1.7 1.8m-5.1 2.1c-1.1.2-1.8 2-.9 2.8 1.6.8 2.8-2.7.9-2.8m16.8 10c2.1-3.1.8-7.5.8-11-.9 3.4-3.2 7.9-.8 11m-20.8-2.1c-.9 1.1-.7 1.8.8 1.9.9-1.1.7-1.8-.8-1.9m19.3 3.7c-.5 7.4-2.7 14.8-2.3 22.3 3.1-6.9 3.1-14.7 3.8-22-.4 0-1.1-.1-1.5-.1z"/><path d="m322 196c4.5-3.7 6.3-9.4 9.1-14.3 2.1 1.4 4.2 2.8 6.3 4.1-2.2 5.8-6.4 10.5-10.2 15.3-3.6 4.5-6 10.6-12 12.5 2.1-7.2 8.7-11.8 11.5-18.7-4 3.3-6.9 7.5-9.9 11.6-1.3 2-3.5 3.1-5.6 4 1.1-6 7.4-8.9 8.6-14.8.8-2.7 2.3-5.2 4.3-7.1-.7 2.4-1.4 4.8-2.1 7.2m5.5-1.5c3.2-1.3 4.8-4.4 5.7-7.5-2.6 2-4.6 4.5-5.7 7.5m-1.9 5.1c-1.6 2.9 3.3.2 0 0m-5.1 6.1c-1.6 2.9 3.3.2 0 0z"/><path d="m118 200c3.5-3.5 6.7-7.4 9.1-11.7-1.4 4.4-3.9 8.3-7.3 11.6-5.5 5.5-9.4 12.5-15.8 17-2.5 1.8-5.3 3.6-6.4 6.6 3.9 2.5 8.4 4.8 10 9.5-7.3-2.6-14.7-5.3-21-9.6 4.8 1.6 9.5 3.5 14.3 5.2-1.4-2.1-3.5-3.9-3.8-6.5.7-2.7 3.6-3.9 5.6-5.6 6.4-4.2 10-11.2 15.4-16.6"/><path d="m270 187c2.6.8 5.2 1.9 7.6 3.3-2.1-.6-4.3-1-6.4-1.4.2 3.2.3 6.5.5 9.7-1.9.7-3.9 1.4-5.9 1.8-1.6-1.7-2.3-4-3.1-6.1-2 1-4.1 1.9-6.2 2.7-2.1 2.4-4.4 4.6-6.7 6.9 1.7-2.4 3.4-4.9 5-7.3-.8-1.1-1.7-2.2-2.5-3.3 6.2-1 12.2-3.1 17.7-6.2m-3.3 3.4c-.4.5-1.2 1.5-1.6 2 .9.8 1.8 1.7 2.7 2.5.3-1.1.6-2.2.9-3.4-.5-.3-1.5-.9-2-1.2m-2 5.1c-.5 1.6 0 2.2 1.6 1.7.5-1.6 0-2.2-1.6-1.7z"/><path d="m334 196c1.4-2.7 3.1-5.3 4.9-7.8.7.8 1.5 1.5 2.2 2.3 1.4-.9 2.8-1.8 4.3-2.6-.3 1.8-.4 3.7-1.2 5.4-2.7 5.6-5.7 11-8.5 16.5-1.8 3.4-2.5 7.8-6.2 9.8-.3-.6-.9-1.8-1.2-2.5 3.6-7.4 8.5-14.3 11-22-1.2.6-2.4 1.2-3.6 1.8.1-.3.3-1 .4-1.4-.6.2-1.7.4-2.3.6m4.1-4.5c-1.4-.1-1.8 2.4-.2 2.4 1.4.1 1.7-2.4.2-2.4m-5.9 21c-1.4-.1-1.7 2.4-.2 2.3 1.4.1 1.7-2.4.2-2.3z"/><path d="m369 190c4.2 4.9 2 11.9 2.6 17.8 0 9.6-.2 19-.6 28.7-1.1 0-2.2 0-3.3.1-.5-3.2-.8-6.5-.5-9.7.6-8.2.8-16.4 1.2-24.7.1-4.1.1-8.1.5-12.2"/><path d="m228 193c1.7 6.8 1.5 13.9 2.3 20.9 0 2.3 2.6 2.8 4.2 3.8.5-1.3 1-2.5 1.5-3.8-1.7-2.5-3.4-5-4.8-7.7.2-.3.5-.8.6-1 1.9 3 3.8 5.9 5.7 8.8-.8 1.6-1.6 3.2-2.4 4.8 1.5 2.3 2.7 4.8 3.4 7.6-5.2-2.9-9.6-7.8-9.9-13.9-.2-6.5-2.5-13-.6-19.5"/><path d="m275 192c2.8 1 4.9 3.1 6.3 5.7-2.3.4-4.4-.5-6.4-1.3 0-1.5.1-2.9.2-4.4"/><path d="m316 197c.8.6 1.5 1.3 2.3 1.9-2.9 3.3-5.9 6.5-8.9 9.8-.6 0-1.7-.1-2.2-.1-.1-.6-.1-1.7-.2-2.3 3.1-3 6.1-6.1 9-9.3"/><path d="m283 198c3.3 5.4.9 11.5-1 16.8-1.9.6-3.9 1.2-5.9 1.8 3.2 2.2 6.1 4.9 7.3 8.7-2.4-3.5-6.1-5.7-10-7.3.3-1.9.5-3.8.8-5.7-2.6-.1-5.2-.3-7.9-.4-.5-.9-.9-1.7-1.4-2.6 1.9-.6 3.8-1.1 5.7-1.7 1-1.9 2.1-3.9 3.1-5.9 2 1.5 4.4 2.7 5.8 4.9.3 2.7-.8 5.3-1.3 7.9.8 0 2.3-.1 3-.1 1.9-5.3 2.9-10.9 1.7-16.5"/><path d="m241 201c2.3 3.6 2.8 8.2 5.7 11.5 2.5 1.5 5.5-.2 8.2-.5-1.9-2.4-4-4.7-6.1-6.9 2.7 1.6 5.4 3.2 8.1 4.8-.8 1.4-1.7 2.8-2.5 4.2 2.8.2 5.6.3 8.3.6-1.1 1.5-2.1 3.8-4.3 3.7-4.3.1-8-2.4-11.7-4.3-4.6-2.6-4.7-8.5-5.7-13"/><path d="m324 217c.5-4.7 2.9-8.8 5.4-12.7-.3 2.1-.5 4.2-.7 6.3-.2 2.1-.8 4.2-1.4 6.3-.8 0-2.5.1-3.4.1m2.5-4.7c-1.6 3 3.3.2 0 0z"/><path d="m32 227c-.4-6.3-1.3-12.6-.9-18.9 1.2.8 2.4 1.5 3.7 2.2.2 1.4.4 2.8.6 4.3-.7-.2-2-.5-2.7-.6 0 4.3-.4 8.7-.7 13"/><path d="m374 209c.5 7.8.8 15.7.9 23.5.1 3.7-.8 7.4-1.7 11-3.2.2-6.4.4-9.6.7 2.9 7.4 6.1 14.7 8 22.5 1.8 6.8 7.2 11.6 12.2 16 4 3.4 6.2 8.4 7.4 13.5-.7 2.1-2.4 3.6-3.9 5 .9-2.9 2.5-6.2 1.1-9.2-1.3-2.7-2.8-5.7-5.7-6.8-1.4.5-2.6 1.3-3.6 2.3-.5 2.4-.3 4.8-.4 7.2-4.6-2.4-5.7-7.6-6.8-12.3-1.1-5.6-4.9-10.3-5.8-15.9-.7-4.3-1.1-8.7-3.2-12.6-2.6-5.9-7.5-10.3-10.9-15.6 6.6 2 13.2 4.6 20.2 4.4.5-3.2 1.1-6.5 1.4-9.7.8-8-.9-16 .3-24"/><path d="m249 217c.7 0 1.9 0 2.6 0 .5 1.6 1 3.2 1.4 4.8-.8-.3-1.7-.6-2.5-.9-.2 1.4-.1 2.9-.9 4.2-1.2.1-2.1-.4-2.8-1.3 0-2.4 1.3-4.5 2.1-6.7"/><path d="m260 225c1.6-.5 2.2 0 1.7 1.7-1.6.5-2.2 0-1.7-1.7"/><path d="m245 226c1.6-.5 2.2 0 1.7 1.7-1.6.5-2.2 0-1.7-1.7"/><path d="m330 245c-.3-2.8-2.2-6.7 1.3-8.3 3.9 2.3 5.6 6.7 7.7 10.5-1 .2-1.9.3-2.9.4-.9 9.8-5.1 18.9-6.2 28.6-1.1 9.3 6.4 18.6 1.3 27.5.7-6.7.9-13.8-2.9-19.6.1 2.7.4 5.3.6 8-.6.1-1.9.4-2.5.5-1.2-2.7-2.5-5.4-2.5-8.3-.2-6.7.4-13.6 3.5-19.6 2.9-6.1 4.2-13 2.7-19.7"/><path d="m236 243c.7 0 2.2 0 3 0-3.8 7-4.3 15.6-10.2 21.4-1.4-8.1 5.5-14 7.3-21.4"/><path d="m366 282c2 3.3 4.1 7.2 3.1 11.2-1.2 3.8-3.7 7.1-5.5 10.7-1.7-1.2-3.4-2.5-5.2-3.7 1.6-.4 3.2-.8 4.8-1.2.4-1.9.9-3.7 1.3-5.6 1.1.3 2.1.7 3.1 1-.1-4.2-.3-8.5-1.6-12.5"/><path d="m74 296c3.1-1.6 6.3-3.1 9.4-4.5-.3.8-.5 1.6-.8 2.4-1.6.8-3.2 1.5-4.7 2.3 1.9 1.9 4 3.6 6.3 5-.2-1.4-.3-2.8-.6-4.1.6 1.7 1.1 3.5 1.6 5.2-4.8.3-8-3.4-11.2-6.2"/><path d="m56.6 294c3 0 6.1-.2 9 .8 2.5.7 2.5 3.7 3.3 5.7-1.7-.2-3.5-.4-5.2-.7 1 2.8 2.5 5.4 4.7 7.5 4.3-1.2 8.8-.6 13 0 2.8.5 5.2-1.3 7.6-2.3-2.1 2.4-4.6 5-8 4.7-9.7-.3-19.5 1.2-29-.7 4.5-.6 9.1-.7 13.7-.7-2.3-2.6-4.6-5.2-7.1-7.5 1.1.5 2.3.9 3.5 1.3-.3-2.2-.7-4.5-1-6.7-1.7.2-3.4.3-5 .5.2 1.1.5 2.2.7 3.4-.4-.3-1-.9-1.4-1.2-.9-.8-1.8-1.6-2.8-2.4 1.4-.6 2.8-1.2 4.2-1.7"/><path d="m384 296c1.6-.5 2.2 0 1.6 1.7-1.6.5-2.2 0-1.6-1.7"/><path d="m351 300c1.4-.4 1.9.1 1.4 1.4-1.4.4-1.9 0-1.4-1.4"/><path d="m369 301c1.9.1 1.6 3.3-.1 3.4-1.9-.1-1.6-3.3.1-3.4"/></g><g style="fill:#010101"><path d="m153 74c.3-.2.8-.6 1.1-.8 2.5-.1 5-.1 7.6-.1-.7 1.5-1.4 3-2.1 4.6-2.8-.5-5.6-.9-8.5-1.3.6-.8 1.2-1.6 1.8-2.3"/><path d="m160 81c2.5-1.8 3.7-4.8 5.3-7.3 2.2.3 4.4.7 6.5 1.2 1.9 1.7 3.2 4 4.5 6.1-.7 1.1-1.3 2.3-2 3.4-1.7-2.3-3.3-4.8-4.9-7.1-.7-.1-2-.3-2.6-.3-.8 1.8-1.7 3.7-2 5.7 3.4 2.6 7.3 4.7 10 8.1-3.4-.6-6.8-1.2-10.1-1.8-1 4.4-2.5 8.6-4.1 12.8 4.3 2.2 9 3.8 12.6 7.1 2.1 2.9 1.8 7 4.2 9.7 3 3.7 6.2 7.2 8.7 11.2 3.2 4.6 6.5 10 12.3 11.5 4.7.5 9-1.6 13.6-2.6 4.1-1 8.2-2 12.2-3.4 4.3-1.6 6.9-5.6 9.6-9 .7.2 2.2.6 2.9.8-1.5 4.1-4.4 8-3 12.7-3-.4-6.1-1.5-9-.5-9 3.1-18 6.5-27.5 8.2-3.2.9-5.2-2.4-7.2-4.3-4-4.8-10.3-7-13.9-12-.2-.6-.5-1.8-.6-2.4 2.8 2.1 5.6 4.4 8.3 6.6.5-.3 1.6-.8 2.2-1-2.6-3-4.9-6.4-8.1-8.7-3-1.8-6.3-3.1-9.4-4.7 0-2.8.6-5.9-.6-8.6-2.4-3.1-6.8-3.2-10.4-4 .8 7.2-1.3 14.2-1.1 21.4.2 4.6-.3 9.3.3 13.9 4.2 3 10.4 2.9 13.3 7.7 2.6 4.7 2.9 10.2 4.8 15.2 3.1-.4 6.2-.8 9.3-1.1.7 4.3.7 8.7 1.5 13 5.8 3.1 12.6-2 18.6.5 2 4.9 1.4 10.6.8 15.8-5.3 2.9-11.8 1.8-17.6 2.5-1 8.4-.2 16.9 0 25.3 1.2 11.3 1 22.6 2.1 33.8 1.7.1 3.4.2 5.1.3.5 1.8 1 3.6 1.7 5.3 2.8 1.2 5.9 1.3 8.8 1.8.1 2.1.2 4.3.3 6.4 3.5.2 6.9.6 10.4.9.1 2 0 4 .4 6 2.5 1.6 5.5 1.6 8.3 2-2.8-5.8-8.9-11.1-7.2-18.2 2.9-10.7 13.3-16.3 21.2-23-4.4-2.1-9-4.2-12.4-7.9-4.9-4.8-7-11.4-9.1-17.7-.5-1.9-1.5-4-.4-5.9 1.4-3 2.3-6.3 2.8-9.6.4-3.3 3.3-5.2 5.4-7.5 1 1.4 2.1 2.8 3 4.2-1.9 6.4.3 13 .6 19.5.3 6.1 4.8 11 9.9 13.9-.7-2.7-1.9-5.2-3.4-7.6.8-1.6 1.6-3.2 2.4-4.8-1.9-2.9-3.9-5.8-5.7-8.8 1.7-2.4 3.6-4.7 5.5-7 1.6.8 3.2 1.6 4.6 2.7 1 4.6 1.2 10.5 5.7 13 3.7 1.9 7.4 4.4 11.7 4.3 2.2 0 3.2-2.2 4.3-3.7-2.8-.3-5.6-.4-8.3-.6.8-1.4 1.6-2.8 2.5-4.2-2.7-1.6-5.4-3.2-8.1-4.8l.5-.6c2.3-2.3 4.6-4.5 6.7-6.9 2.1-.8 4.2-1.7 6.2-2.7.8 2.2 1.6 4.4 3.1 6.1 2-.3 3.9-1.1 5.9-1.8-.2-3.2-.3-6.5-.5-9.7 2.1.4 4.3.9 6.4 1.4 2.4 1.8 4.5 4.2 5.8 6.9 1.2 5.5.3 11.2-1.7 16.5-.8 0-2.3.1-3 .1.5-2.6 1.6-5.2 1.3-7.9-1.4-2.2-3.8-3.4-5.8-4.9-1.1 1.9-2.1 3.9-3.1 5.9-1.9.6-3.8 1.1-5.7 1.7.5.9.9 1.7 1.4 2.6 2.6.1 5.2.3 7.9.4-.3 1.9-.5 3.8-.8 5.7 3.8 1.6 7.5 3.8 10 7.3.9 3.1-1.6 5.5-3.5 7.6-5.5 5.8-14.8 4.1-20.7 9.2-2.4 2.3-3 5.6-3.8 8.7-1.5 6.6-3.1 13.2-4.7 19.8 3.9-.9 7.7-2.3 11.7-2.9 4-.6 7.8 1.3 11.8 1.6 3.2.1 6.4-.9 9.6-.8 1.7 2 1.8 4.7 2.1 7.2.4 4 1.1 8 .7 12-.3 3.4-3.1 5.7-5.5 7.8-3.9-3.9-3-10.9-8.1-13.6-3.5-1.3-7.2.4-10.5 1.4 2.2 1.4 4.5 2.8 6.8 4.2-.8 6.5-4.5 12-8.1 17.4-1.9 2.8-5.7 2.5-8.7 3 .1-4.4.8-8.8 2-13-3-2.9-6.6-5.1-10.8-5.8-6.3-1.1-11-5.6-16.8-8-.2 4.4.1 8.9.6 13.3.2 3 .8 6.3-.7 9-3.9 1.8-8.3.9-12.4 1.4-6.3.6-12.6.4-18.9 1-6.9.8-13.9.2-20.8.5-10.8.5-21.7-.3-32.4.8-1.9.5-2.1-1.9-2.4-3.2-.7-7.1-2.5-14.3-1.3-21.5 2.9-.5 5.9-1 8.8-1.3.6-2.8 1.2-5.6 1.8-8.4 2.6-.1 5.1-.1 7.6-.1.7-3.2 1.3-6.5 1.9-9.7-7.2-3.1-14.6-5.6-21.7-8.8-8.3-3.1-16.3-7.3-24.8-9.8-1.7 4.9-3.1 9.9-5.4 14.5-.7 1.6-2.7 2.4-4.3 1.8-4.6-1.2-8.8-3.6-13-5.7 2.3-5.9 4.7-11.7 6.5-17.8-3.8-1.6-7.6-3.4-11.4-5.2.5-2.9 1.2-5.7 2.2-8.4 6.5 4.3 13.9 7 21 9.6-1.6-4.7-6.1-7-10-9.5 1.1-3.1 3.9-4.8 6.4-6.6 6.4-4.6 10.3-11.7 15.8-17 3.3-3.2 5.8-7.2 7.3-11.6.7-1.3 1.5-2.5 2.3-3.7 3-3.4 6.5-6.7 8.2-11 .9-2.3-1.1-4.4-1.8-6.4-2.4-4.2-2.6-9-3.6-13.6-.4-2.3-1.1-4.7-.8-7.1 1.6-3.4 5-5.5 6.9-8.7 0-3.5-1.9-6.6-3.2-9.7-.8-3.8-1.4-7.7-1-11.6 1.3 3 1.9 6.3 2.4 9.5.6-.1 1.9-.3 2.5-.3.8-4.8-.3-9.5-2.9-13.6.8-3.3 1.3-6.7 1.6-10 2.6-5.6 9.7-4.8 14.9-5.1.4-2.1.8-4.5-1.2-6-3.2-3.4-6.9-9.3-3-13.5 1.6 3.3 2.6 6.9 4.5 10 1.8.6 3.7.7 5.6 1-1.4-2.3-2.8-4.6-4.4-6.8 1.8-.1 3.6-.1 5.3-.6m-14.2 19.9c.4 1.3.9 2.7 1.3 4-1.1.8-2.1 1.7-3.2 2.5-.3 7.2.7 14.6-1.2 21.6-1.1 3.6-.1 7.3.5 10.9 2-.1 4.3 0 5.7-1.7 2.4-1.8 2.2-5 2.4-7.6.3-8.3 1.3-16.5 1-24.7-1.5-1.4-3-2.8-4.4-4.3-.5-.2-1.6-.5-2.1-.7m-7.4 51.8c-.6 3.3-.2 6.6-.3 9.9.9.6 1.7 1.3 2.6 1.9.1 6.7.4 13.6-1.1 20-3.7 7.9-11.9 12.3-17 19-5.1 6.5-11 12.4-15 19.7 2.3 1.9 4.8 3.8 6.1 6.5 1.4 2.5 2.3 5.6 4.9 7.2 2.3 1.8 5.2 2.2 8 2.2 6.8 2.3 13.2 5.8 20 7.9 7.3 2.3 14.2 5.7 21 8.7 3.2 1.5 6.8 1.5 10.2 1.4 1.5-4.9.2-9.9.3-14.8-.1-6.9-1.1-13.8-1-20.7.3-8.2-2.1-16-1.9-24.3-.6-6.7.1-13.8-3.2-19.9-1.6-3.3-3.7-6.3-6.3-8.9-4.3-4.1-4.3-10.4-6.8-15.4-2.7.1-5.4.4-8.1.2-2.3-.5-4.3-1.7-6.5-2.6-.8 3.1-1.3 6.3-1.7 9.4-.3-3.7-.8-7.4-1.2-11-1.1.9-2.9 1.5-3.2 3.2m137 39.9c-.1 1.5-.1 2.9-.1 4.4 2 .8 4.2 1.7 6.4 1.3-1.4-2.6-3.5-4.7-6.3-5.7m-26 24.5c-.9 2.2-2.1 4.3-2.1 6.7.7.9 1.6 1.4 2.8 1.3.7-1.3.7-2.8.9-4.2.8.3 1.7.6 2.5.9-.5-1.6-1-3.2-1.4-4.8-.7 0-1.9 0-2.6 0m11 8.1c-.5 1.6 0 2.2 1.7 1.7.5-1.6 0-2.2-1.7-1.7m-15 1c-.5 1.6 0 2.2 1.7 1.7.5-1.6 0-2.2-1.7-1.7m-8.8 16.9c-1.8 7.4-8.7 13.3-7.3 21.4 5.9-5.7 6.5-14.4 10.2-21.4-.7 0-2.2 0-3 0z"/><path d="m166 93c2.4.5 4.8.9 7.3 1.3.2 1.5.4 3 .6 4.5-2.6-.5-5.2-1.3-7.6-2.6-.1-1.1-.2-2.1-.3-3.2"/><path d="m313 104c3.1-1.4 6.1-2.9 9.2-4.2 0 2.4-1.3 4.3-2.9 5.9.3 1.6.5 3.2.8 4.7-2.7-1.8-5-4.1-7.1-6.4"/><path d="m326 100c3.1.7 5.9 2.3 8.6 3.8 2 1.8 3 4.5 3.9 6.9 0 1.8 0 3.6-.1 5.4 2.6 2 5.4 3.8 7.6 6.3 1.8 1.8 1.3 4.5 1.5 6.8 2.3-1.1 4.8-2.6 7.5-1.8 3.1.5 5.4 2.7 7.6 4.8-1.7 2-3.5 4-5.3 6 3-2.3 6.7-4.9 10.6-2.8 2.1 2 4.1 4 6.1 6 2.2 3.4 4.1 7 5.1 10.9.5 1.7.3 3.5-.8 4.9-3.5.7-7.1.5-10.6.7.4 3 .5 6.1 2.1 8.8 1.4 2.5 4.4 3.4 6.7 4.7 2.3 2.6.5 6.3-.7 9-2.1-.4-4.3-.8-6.4-1.3.2 1.7.4 3.3.6 5-2.4-.7-5.1-1.8-7.5-.5-4.5 2-9.2 3.3-14 4-2.6 7.5-6.8 14.3-9.6 21.8-.7 2.3-1.3 4.6-1.9 6.9.8-.2 2.3-.6 3-.8.4-1.2.7-2.3 1.1-3.4 1.3-3.8 3.1-7.5 5.3-10.9-1.4 7.5-5.1 14.2-6.8 21.6 1.1-.2 2.3-.4 3.4-.6 1-4.5 2.3-9 4.7-13-.7 5.2-2.3 10-3.1 15.2 1.8-1.4 3.8-2.9 4.4-5.3 2-6.1 2.9-12.6 5.6-18.5-.7 9.6-4.1 18.6-6.2 27.9 1.1.6 2.1 1.1 3.2 1.7 2.7-9.4 4.1-19 6.9-28.5-.7 10-2.6 19.8-4.6 29.6 2.6.9 5.2 1.8 7.8 2.7 4.3-10.5 4-22 4.8-33 .5.3 1.6 1 2.2 1.4-.5 8.2-.6 16.4-1.2 24.7-.3 3.3 0 6.5.5 9.7 1.1 0 2.2-.1 3.3-.1.4-9.6.6-19 .6-28.7.6.3 1.8.8 2.3 1.1-1.2 8 .5 16-.3 23.9-.3 3.3-.9 6.5-1.4 9.7-7 .2-13.6-2.4-20.2-4.4 3.4 5.3 8.3 9.7 10.9 15.6 2.1 3.9 2.5 8.3 3.2 12.6.8 5.7 4.6 10.3 5.8 15.9 1 4.6 2.2 9.9 6.8 12.3.1-2.4-.1-4.8.4-7.2 1-1 2.3-1.8 3.6-2.3 2.9 1.1 4.5 4.1 5.7 6.8 1.4 3.1-.2 6.3-1.1 9.2-1.3.4-2.6.7-3.9 1.2-4.7 1.7-7.6 6.3-12.2 7.9-6 1.2-12 0-17.9-1.4-4.5-.8-6.6-5.8-7-9.8 1.6-4.3 3.9-9.8 9-10.3 4.1-1.3 6.8 2.8 9.4 5.2-.4 1.9-.9 3.7-1.3 5.6-1.6.4-3.2.8-4.8 1.2 1.7 1.2 3.4 2.4 5.2 3.7 1.8-3.6 4.3-6.9 5.5-10.7 1.1-4-1-7.9-3.1-11.2-5.5-9.3-12.3-17.7-19.6-25.6-2.7-3-5.4-6.1-7.4-9.6-2-3.8-3.8-8.2-7.7-10.5-3.5 1.5-1.6 5.5-1.3 8.3 1.4 6.7.2 13.6-2.8 19.7-3.1 6-3.6 13-3.5 19.6.1 3 1.4 5.7 2.5 8.3.6-.1 1.9-.4 2.5-.5-.3-2.7-.5-5.3-.6-8 3.8 5.9 3.6 13 2.9 19.6-.7 1.3-1.7 2.3-2.6 3.4-2.9-.5-5.8-.9-8.7-1.1 0-.4 0-1.2.1-1.6 1.7-1 3.4-2 5-3 .3.5.9 1.4 1.3 1.9.6-.6 1.3-1.1 1.9-1.7-2.2-2.4-4.5-4.6-7-6.8-2.6 2-5.2 4.1-7.8 6.1 1.6.8 3.1 1.6 4.7 2.4-3.3 2.2-7.1 2.4-10.6.7 1.3-1.9 2.6-3.7 3.9-5.5.2-2.7.8-5.4 2.1-7.8 4.4-6.4 3.9-14.5 3.7-21.9-.4-9.4-1.6-18.8-3.3-28-1.2-6-.7-12.3.9-18-3.5-3.3-7.7-5.7-11.6-8.5-2.9-1.9-3.5-6.9-.5-8.9 3.8-3.3 7.8-6.3 11.7-9.4.3.3 1 .8 1.4 1-2.9 3.2-5.9 6.3-9 9.3.1.6.1 1.7.2 2.3.6 0 1.7.1 2.2.1 2.9-3.3 6-6.5 8.9-9.8.6-.7 1.2-1.5 1.8-2.2-1.1 5.9-7.5 8.8-8.6 14.8 2.1-1 4.3-2.1 5.6-4 3-4.1 5.9-8.4 9.9-11.6-2.8 6.9-9.4 11.4-11.5 18.7 5.9-1.9 8.4-8 12-12.5 3.8-4.8 7.9-9.5 10.2-15.3-2.1-1.4-4.2-2.8-6.3-4.1.7-2.9.9-5.9 1.1-8.8 1.1-2.6 2.3-5.3 4.5-7.1 5.4 1.4 11 3.5 16.7 2.2 2.5-.2 4.2-2.3 5.1-4.5 2.3-5.5 2.2-12.2-1-17.3-2.5-3.2-6.8-4.4-9.4-7.6-1.8-2.4-2.6-5.4-4.3-7.9-1.4-1.9-3.5-3.3-5.3-4.9 1.1-1.7 2.2-3.4 3.2-5.2-3.4-1.4-6.8-2.7-10.3-3.7 1.7-1.3 3.3-2.7 5-4-1.4-2.1-2.7-4.4-4.6-6.1-3.4-1.3-5 2.9-6.1 5.3 2.3-.1 4.7-.2 7-.3-3.5 2.4-7.3 4.5-10 7.9-1.5 1.6-1.1 4-1.2 6 .1 2.8-.5 5.5-1.1 8.2-2.7-3.3-6.7-4.9-10.9-5.4-2.8-2.5-2.1-6.5-1.3-9.7.5 2 1 4.1 1.6 6.1 2.8 0 5.6 0 8.4.1.1-1.9.1-3.8.2-5.7 2.7-1.1 5.2-2.6 7.6-4.3-1.1-1.5-2.3-3-3.4-4.5 2.6-2.2 5.1-4.5 7.2-7.2-2.9.4-5.8.9-8.7 1.4 1.4-1.7 2.7-3.6 4.6-4.9m21.4 33.6c1.4 1.4 2.9 2.8 4.3 4.3 1.8-1.4 3.6-2.7 5.1-4.4.7-2.3-2.1-3.3-4-3-2.3-.2-3.8 1.9-5.4 3.2m13.3 9.1c2.5 0 4.7-.9 6.2-2.9-.8-1.3-1.5-2.5-2.3-3.8-2.5 1.5-4.3 3.7-4 6.7m5 4c.3 1.3.7 2.6 1 3.8.9-.4 1.9-.8 2.8-1.3 0-1.3.1-2.5.1-3.8-1.3.4-2.7.8-4 1.2m7.3 1.2c-1.5 1 .2 3.5 1.6 2.4 1.5-1-.2-3.5-1.6-2.4m-38 47c-1.3 3-3.1 5.7-4.8 8.4-2.5 3.9-4.9 8-5.4 12.7.8 0 2.5-.1 3.4-.1.5-2.1 1.1-4.2 1.4-6.3 2.8-4.4 5.7-8.9 7.4-13.9 1.2-.6 2.4-1.2 3.6-1.8-2.6 7.9-7.6 14.7-11 22 .3.6.9 1.8 1.2 2.5 3.6-2.1 4.4-6.4 6.2-9.8 2.8-5.5 5.8-10.9 8.5-16.5.9-1.7.9-3.6 1.2-5.4-1.5.8-2.9 1.7-4.3 2.6-.8-.8-1.5-1.5-2.2-2.3-1.8 2.5-3.4 5.1-4.9 7.8m2.2 22.6c-1.2.3-1.8 2-.9 2.9 1.6.8 2.7-2.8.9-2.9m47 78c-.5 1.6 0 2.2 1.6 1.7.5-1.6 0-2.2-1.6-1.7m-28.9 1c-1.1 1.4 1.3 2.8 2.1 1.4 1.1-1.4-1.3-2.8-2.1-1.4m-4.2 3.2c-.4 1.4 0 1.9 1.4 1.4.4-1.4-.1-1.9-1.4-1.4m18 1c-1.8.1-2 3.3-.1 3.4 1.8-.1 2-3.3.1-3.4z"/><path d="m275 104c.7 0 2.2 0 3-.1 2.9 11.8 5.8 24 12.6 34 0 3.2-1.1 7 1.4 9.7 2.5 3 4.5 6.4 5.9 10 1.3.3 2.5.5 3.8.8-.2 1.1-.3 2.1-.5 3.2-1.1 1-2.8 2.6-4.2 1.1-2.8-3.3-2.4-8-4.6-11.6-2.1-1.6-4.8-1.7-7.3-2.2.7-2.1 2.2-4.3 1.4-6.7-1.2-3.8-3.6-7.2-5.1-10.9-4.1-8.6-4.9-18.3-6.4-27.6"/><path d="m309 105c.6-.1 1.8-.3 2.3-.5.7 3.9-2.8 5.7-5.7 7.2 1.1-2.3 2.3-4.5 3.4-6.8"/><path d="m18.4 110c-.3-1.8.7-3.4 1.5-4.9 1.9 8.3.7 17 3 25 .6 3.2 1.3 6.3 2.1 9.4-1.4-.6-2.8-1.2-4.2-1.8-.2-2.8-.4-5.5-.8-8.3-.3-2.2-.8-4.4-1.3-6.6.1-4.4-.1-8.8-.3-13"/><path d="m47.9 112c1.1 0 2.1.1 3.2.1-.2 1.4-.5 2.8-.7 4.3-1.6 1.2-3.3 2.5-4.9 3.7.8-2.7 1.6-5.4 2.4-8.1"/><path d="m160 114c1.5.6 2.9 1.2 4.4 1.7 0 .7 0 2.2.1 2.9l-.7-.4c-1.3-.7-2.6-1.3-3.9-2 0-.6.1-1.7.2-2.3"/><path d="m35.9 120c2.4 1.1 4.7 2.4 7.3 3 2.8.6 5.6-.5 8.2-1.3.2.4.7 1.1.9 1.4-.9 2.9-1.1 5.9-1 8.9 1.4-1.5 2.7-3 4-4.5.4.9.8 1.8 1.1 2.7-.1 1.1-.2 2.2-.3 3.3-3.8 1.7-7.7 3.2-11.6 4.6-2.5-2.4-5.5-4.5-6.8-7.9-1.2-3.3-1.4-6.8-1.9-10.2"/><path d="m331 122c.8 1.1 1.6 2.1 2.3 3.3 0 5.1-4.3 9.3-3.3 14.5 1.5-1.3 2.9-2.8 4.6-3.9 1.9-.2 3.8.3 5.7.6-.4.7-.7 1.4-1 2.1-2.1-.7-4.3-1-6.5-.9.2.8.7 2.2 1 3 1.6.5 3.2 1.1 4.8 1.7-5.6.5-10.2-3.1-15-5.4.9-3 1.5-6.5 4.5-8.2 2.4-1.4 2.3-4.3 3-6.7"/><path d="m61.7 137c1.1-5.7 3.5-11.5 8.6-14.8 1.1 2.1 2.3 4.2 2.6 6.5-.8 3.8-4 6.4-6.2 9.3-.3.4-1 1.3-1.3 1.7-.7 1-1.4 2-2.1 3-.7-1.9-1.3-3.8-1.6-5.8"/><path d="m167 124c.6.1 1.9.2 2.6.3.1 1.4.1 2.7.1 4.1-.7 3.3-1.9 7.1-5.4 8.5-1.8.2-3.7.2-5.5.3 2.6-2.3 5.7-4.1 7.8-6.8.7-2 .4-4.3.4-6.4"/><path d="m309 134c1.2-2.5 4.4-.3 6.1.7 3.5 2.4-.7 6.4-2.3 8.8.2-2.4.5-4.8.8-7.2-1.5-.7-4.2-.2-4.7-2.2"/><path d="m37.5 138c.7.1 2.1.3 2.8.4-.7 3.4-1.7 6.7-3.1 9.8 1.9-1.6 4.1-2.8 6.4-3.7 0 2.6-.4 5.2-1.9 7.4-1.4-.6-2.8-1.1-4.3-1.7-.6 2.3-1.2 4.6-1.8 6.9-1.3 1.3-2.6 2.6-3.9 3.9 1.8-.1 3.6 0 5.4-.3 1.6-2.5 2.5-5.5 3.8-8.2 1.5 3.9-1.4 7.5-2.7 11-3.2.3-6.2-.7-8.7-2.6.1 1.4.2 2.8.3 4.3-1.2.3-2.3.5-3.5.8.2-2.2.4-4.3.6-6.5-2-1.4-3.9-2.7-5.8-4.2 3.3.2 7.8 2.9 10.4-.2 1.2-6 1.9-12.4 5.9-17.4"/><path d="m316 144c1.8-2.4 4.1-4.3 6.5-6.1-1.3 3.3-3.5 6.1-5.6 8.9-.9 1-1.2 2.4-.9 3.7 2 2.2 5.1 1.8 7.8 2.1-.4-1.6-.9-3.2-1.3-4.8-.3-.9-.5-1.8-.8-2.7 3.2 1.5 6.6 2.7 9.5 4.8 2.8 3.3 3.7 7.7 5.1 11.6-3.6 2-6.6 5-8 9-2.9 4.2-5.4 8.5-7.7 13-.9-.1-1.8-.2-2.7-.3.6-5-.9-9.8-3.1-14.3-1.7-3.5-1.6-7.5-2.2-11.3-2.5-2.1-6.3-1.4-9.4-1.8-.1-1.4-.1-2.7-.2-4.1-2.5-1.4-4.8-3.1-6.8-5 2.5-.2 5.2-.7 7.7.2 2.9 1.1 5.4 3.1 8.1 4.6 1.5-2.4 2.3-5.2 4-7.5"/><path d="m342 138c2.7 2.3 5 5.5 3.7 9.2 2.7-2.8 6.5-.4 8.4 2.2 1.6 1.8 1 4.4 1.1 6.7-2.1.2-4.1.4-6.1.6-3.4-5.7-9.3-11.5-7.1-18.6"/><path d="m18.7 142c1.3-.3 2.6-.6 4-.8-3.7 9.3-6.6 19-8.2 29-1.2 5.9 4.4 9.8 7.5 14-.4 1.3-.8 2.5-1.2 3.8-2.1-4.2-5.3-7.7-7.9-11.5-2-2.8-.8-6.4-.3-9.4 1.4-5.6 2.6-11.2 3.3-17 .9-2.7 2-5.3 3-8"/><path d="m333 148c.8-2.5 3.1-3.6 5.4-4.2-.7 1-1.3 2-2 2.9-.3.3-.9.7-1.1 1-.6.1-1.7.2-2.2.3"/><path d="m73 155c-1.2-2.8-1.6-5.9-1.3-9 1.3 3.4 3 6.6 4.5 9.8 1.5 4.6 2.8 9.2 4 13.8-1 .2-2.1.3-3.1.4-1.2-5.1-2.2-10.2-4.2-15"/><path d="m335 153c1.6-2.2 3.9-3.6 6.5-4.4-1.4 2.4-3.7 3.9-6.5 4.4"/><path d="m339 156c1.7-.4 3.5-.8 5.2-1.2-.1.7-.4 2.1-.5 2.7-1.7.3-3.4.7-5.1 1 .1-.6.3-1.9.3-2.6"/><path d="m379 156c1.7 1.5 3.2 3.2 4.4 5.1-.5.6-1.5 1.7-2 2.3-1.2-1.1-2.3-2.2-3.5-3.2.3-1.4.7-2.8 1.1-4.2"/><path d="m60 158c3.8 4.4 7 9.5 12 12.6-.2 1.3-.3 2.6-.4 4-.4 2.9 1.9 5.2 3.2 7.5 3.7 6 3.3 13.3 4.5 20 .7 6.7 3.1 13.2 3.2 19.9-.3 16.9 2.4 33.6 2.8 50 .2 6.6 1 13.4-1.3 19.7-3.2 1.5-6.3 3-9.4 4.5 3.2 2.9 6.5 6.6 11.2 6.2-.5-1.8-1-3.5-1.6-5.2-.3-1.1-.7-2.1-1.1-3.1 1.6.4 3.4.5 4.8 1.5 1.6 2.7 1.5 6 1.6 9-2.4 1.1-4.8 2.8-7.6 2.3-4.4-.6-8.8-1.2-13 0-2.2-2.1-3.7-4.7-4.7-7.5 1.7.2 3.5.4 5.2.7-.8-2-.7-5-3.3-5.7-2.9-1-6-.8-9-.8-1.2-.4-2.4-.9-3.6-1.4 5.2-.9 10.5-.2 15.7.8-1-2.6-2-5.2-3-7.8 2.7 2 5.2 5.2 8.9 4.7 1-.4 2.1-.9 3.1-1.4.2 1.3.3 2.5.5 3.8 1.9-1.1 4.1-2.3 3.8-4.8.2-10.8-.4-21.5-1.2-32-.6-5.3-1.1-10.7-1.7-16-.3-3.2-2.5-5.6-4.5-7.9 1.6.4 3.3.8 4.9 1.2-.4-6.9-1.2-13.8-2-20.6-.4-3.1-.8-6.2-1.3-9.3-.5-3.8-1.1-7.6-1.9-11.4-.1-.4-.2-1.2-.3-1.6-.8-3.5-.8-8.2-4.6-9.9-.6 0-1.9-.1-2.5-.1-3.3-.2-6.5 1-9.3 2.8-3.1 2.2-7 1.4-10.4.6-1.9 2.7-3.7 5.3-5.2 8.2-.3 1.5-.4 3-.5 4.5-1.1-.2-2.1-.5-3.2-.7-3.7-.9-7.5.1-11.3-.2-3-.7-4.6-3.6-5.9-6.1 3.2.5 6.3 1.5 9.2 2.9 3.3-5.1 6.5-10.5 8.5-16.3 0-3.2-2.3-5.8-3.6-8.6 2.5.7 5 1.4 7.5 2.1.6.2 1.9.5 2.5.7 1-1.3 2-2.6 3-3.8 2.7-.5 5.7-.7 8.2-2.1 1.4-1.8 2.1-4 3-6.1"/><path d="m68 158c1.8 1.7 3.9 3.3 4.9 5.6 0 1.4-.4 2.8-.7 4.2-2.2-2.9-3.6-6.3-4.2-9.8"/><path d="m342 163c1.6-1.1 3.3-2.2 4.9-3.2-.6 2.5-1.8 4.8-3.7 6.5-.4-1.1-.8-2.2-1.2-3.3"/><path d="m30.9 166c1.2-.9 2.7-.1 4 0-.6 1.9-1.1 3.8-2.1 5.5-1.3.5-2.7.9-4 1.3.6-2.3 1.3-4.6 2.2-6.8"/><path d="m23 169c.6.1 1.9.2 2.5.3.8 1.2 1.5 2.4 2.2 3.6-.3 1.5-.6 2.9-1 4.3-1.8-2.5-3.1-5.2-3.7-8.2"/><path d="m255 188c5-1.1 10.2-1.4 15.3-.7-5.5 3.1-11.5 5.2-17.7 6.2-.6-.8-1.2-1.5-1.8-2.3 1.3-1.2 2.3-2.9 4.1-3.3"/><path d="m327 195c1.2-3 3.2-5.6 5.7-7.5-.9 3.1-2.5 6.2-5.7 7.5"/><path d="m361 208c.4 0 1.1.1 1.5.1-.7 7.4-.7 15.2-3.8 22-.4-7.5 1.8-14.8 2.3-22.3"/><path d="m68 220c.7 1.8 1.5 3.5 2.2 5.2.1 2.7 0 5.3 0 8-1-.8-2-1.5-3.1-2.2.6-3.6.8-7.3.9-11"/><path d="m290 287c2-7.6 13.9-9.8 18.3-3.3.4 4.4-.5 9-4.2 11.9.5 3 3.3 6.6 1.4 9.4-4.4-2.6-8.2-6.2-12.8-8.6-2.6-2.3-4.8-6-2.7-9.4m9.3.8c-1 1.9 2.9 2.9 3 .8-.2-1.3-2.2-1.8-3-.8m-2.6 4c-.5 1.6 0 2.2 1.7 1.7.5-1.6 0-2.2-1.7-1.7z"/></g><g style="fill:#815526"><path d="m24.5 95c2.5-1.7 5.1-3.5 8.1-4 3.3-.4 6.5.7 9.6 1.5-1.7 6.2-.1 12.6-.3 18.9 1.2-1.3 2.3-2.7 3.5-4 .8 1.6 1.7 3.2 2.5 4.9-.8 2.7-1.6 5.4-2.4 8.1 1.6-1.2 3.3-2.5 4.9-3.7.2 1.7.5 3.3 1 5-2.6.8-5.4 1.9-8.2 1.3-2.6-.6-4.9-1.8-7.3-3 .5 3.4.7 6.9 1.9 10.2 1.2 3.3 4.3 5.5 6.8 7.9 3.9-1.3 7.8-2.8 11.6-4.6-.5 3.7-2.4 7-4.4 10.1-2.2-.7-4.4-1.3-6.5-2 1.9 5 5.2 9.8 4.8 15.4-1.8 4.2-5.3 7.5-7.2 11.7-2.5-.6-5-1.3-7.5-2.1 1.4 2.8 3.7 5.4 3.6 8.6-2 5.8-5.2 11.2-8.5 16.3-2.9-1.4-6-2.4-9.2-2.9-.1-.3-.4-.8-.5-1.1.4-1.3.8-2.5 1.2-3.8-3.1-4.2-8.6-8.1-7.5-14 1.6-9.9 4.5-19.7 8.2-29-1.3.3-2.6.6-4 .8 1.4-4 1.5-8.3 1.2-12.5.4 2.7.6 5.5.8 8.3 1.4.6 2.8 1.2 4.2 1.8-.8-3.1-1.5-6.3-2.1-9.4 1.2 1.6 2.3 3.2 3.5 4.8 1.6-1.8 4.1-3.7 2.9-6.4-.1-3.3-3.2-4.2-5.7-5.2-.3 2.3-.5 4.6-.7 6.9-2.3-8.2-1-16.9-3-25-.8 1.5-1.8 3.1-1.5 4.9.2 4.4.4 8.8.3 13-1.3-5.5-1.6-11.2-.7-16.7 1.9-3.8 4.2-7.5 6.5-11-.9 2.6-2.5 5.3-1.4 8.1 1 3.2 2 6.5 2.6 9.8.6-1.1 1.3-2.3 1.9-3.4-1.5-4.8.8-10.6-3.1-14.5m2.8 0c1.2.8 2.4 1.6 3.6 2.3.7 3.6 1.3 7.3 1.7 11-1.2.9-2.4 1.8-3.6 2.7 2.1 2.5 4.5 4.9 7.1 6.8-.7-2.2-1.6-4.3-2-6.6-.2-2.7.5-5.4.2-8-.5-3.1-1.7-6-2.6-9 1.7.2 3.5.4 5.2.7.1 1.7.3 3.4.4 5 .5.2 1.5.5 2 .7.1-2.7.1-5.4.2-8-2.3-.6-4.5-1.5-7-1.3-2.4 0-3.7 2.3-5.2 3.8m11.3 20c0 .6 0 1.9 0 2.5 1.3.8 2.7 1.6 4 2.3.5-2.4.9-4.8 1.3-7.1-1.8.8-3.5 1.5-5.3 2.3m-10.7-.7c-.3 1.6-.5 3.2-.8 4.8-1.4.9-2.8 1.8-4.1 2.7 2.8.5 5.6.8 8.4.9-.7 3.3-1.1 6.6-1.3 10 .7-.3 2-1 2.6-1.4.1-2.9.8-5.9-.4-8.7-1.2-2.9-2.9-5.7-4.5-8.4m9.7 23c-4 5-4.7 11.3-5.9 17.4-2.6 3.1-7.1.3-10.4.2 1.9 1.4 3.8 2.8 5.8 4.2-.2 2.2-.3 4.3-.6 6.5l-.9.2c0 1.2 0 2.4.1 3.6-.6-.1-1.9-.2-2.5-.3.6 3 1.9 5.8 3.7 8.2.4-1.4.8-2.9 1-4.3.1.3.5.8.6 1l.3-1c1.4-.3 2.7-.8 4-1.3 1-1.7 1.5-3.6 2.1-5.5-1.3-.1-2.8-.9-4 0-.3-.4-.7-1.1-1-1.5-.1-1.4-.2-2.9-.3-4.3 2.5 1.9 5.5 2.9 8.7 2.6 1.4-3.5 4.2-7.1 2.7-11-1.3 2.7-2.2 5.6-3.8 8.2-1.8.3-3.6.2-5.4.3 1.3-1.3 2.6-2.7 3.9-3.9.6-2.3 1.2-4.6 1.8-6.9 1.4.5 2.8 1.1 4.3 1.7 1.5-2.2 1.9-4.8 1.9-7.4-2.3.9-4.5 2.1-6.4 3.7 1.5-3.1 2.5-6.4 3.1-9.8-.7-.1-2.1-.3-2.8-.4m5.8 19.9c-.8 2.4-1.6 4.9-2.2 7.3 2.3-2.1 4.1-4.5 5.7-7-.9-.1-2.7-.2-3.6-.3m-17.7 30c3.6-1.1 7.9-5.3 4.2-8.8-1.7 2.8-3.1 5.7-4.2 8.8z"/><path d="m347 134c1.6-1.3 3.1-3.3 5.4-3.2 1.9-.3 4.7.7 4 3-1.4 1.7-3.3 3-5.1 4.4-1.5-1.4-2.9-2.8-4.3-4.3"/><path d="m57.9 135c1.3.6 2.5 1.3 3.8 1.9.3 2 .9 3.9 1.6 5.8-.2 1.2-.4 2.4-.6 3.6-1.5-1.4-3.1-2.8-4.1-4.6-.7-2.1-.4-4.5-.7-6.7"/><path d="m57.8 183c2.8-1.8 5.9-3 9.3-2.8-.4 2.6-.5 5.2-.2 7.8-.8 4.1-.5 8.3-.3 12.5.4 3.4-2.7 5.6-4.8 7.9.4 1.9.8 3.8 1.2 5.7 1.6-.1 3.2-.3 4.8-.4.1 2.2.1 4.3.3 6.4-.1 3.7-.3 7.3-.8 11-.5 1.7-1.1 3.3-1.7 4.9-1.3-2.8-2.5-5.7-3.9-8.5-1 .7-2 1.4-3 2.1 1.1 3.7 2.8 7.3 4.7 10.6 2.9 4.9 2.1 10.7 2.4 16-1.9.8-3.8 1.7-5.6 2.5-.6 2.6-1.4 5.3-1.2 7.9.4 2.1 1.5 4 2.4 5.9 1.8-1.3 3.4-2.8 5.5-3.6 2.1-.3 4 .7 6 1.2-2.5 1.8-5 4.3-8.3 3.8-3-.4-7-1.6-7.4-5.2-.8-4.1-1.2-8.5-.2-12.6.5-2.9 4-2.5 6.1-3.2-.3-2.3-.3-4.9-1.5-6.9-1.5-2.8-3.9-5.2-4.3-8.4-.5-4.1 0-8.2.3-12.3 1.6-.7 3.3-1.2 4.7-2.2.8-2.4.6-5.1.7-7.6-1.6-.2-3.2-.4-4.7-.6-.5-3-.9-6.1-1.3-9.1 1.9-.8 3.8-1.7 5.7-2.5-1.1-2.9-2.4-5.7-3.7-8.5 1.3-1.9 2.6-3.9 3.9-5.8-1.6-2.1-3.3-4.2-4.9-6.3m1.8 27.8c-1.4.8-.4 3.7 1.3 2.7 1.4-.8.4-3.7-1.3-2.7m-2.5 24c.5 3.4 2.6 6.2 5.2 8.5-1.2-3.1-2.3-6.5-5.2-8.5z"/><path d="m70 180c3.8 1.8 3.8 6.4 4.6 9.9-1.4-.6-2.8-1.1-4.2-1.7-.1-2.8-.3-5.5-.4-8.3"/><path d="m53 188c1 0 2 0 3 .1-.2 4.9-1.1 9.7-2.6 14.3-1.7-1.2-3.3-2.4-5-3.7-.6 3.2-1.2 6.3-1.7 9.4-.4.1-1.2.4-1.6.5-.3-4.5-1.2-8.9-3.7-12.7.1-1.5.3-3 .5-4.5 1.5 1.8 3 3.5 4.5 5.3.4-.5 1.3-1.5 1.7-2 1.4.6 2.9 1.2 4.3 1.8.3-2.8.5-5.6.8-8.5"/><path d="m70 196c1-1.8 2.7-2.9 4.2-4.2.7 3.8 1.4 7.6 1.9 11.4-2.2-.2-4.4-.5-6.6-.7.1-2.2 0-4.4.6-6.5"/><path d="m69.9 206c2.6 2 5.1 4.1 7.6 6.2.8 6.9 1.7 13.7 2 20.6-1.6-.4-3.3-.8-4.9-1.2 2 2.3 4.2 4.7 4.5 7.9.7 5.3 1.1 10.7 1.7 16-6.5-5.5-11.7-13.7-10.6-22.5 0-2.7.2-5.3 0-8 1.5-1.6 2.9-3.3 4.3-4.9-2.8-4.2-4.6-9-4.6-14m4.7 19c-.3 1.5-.7 3-1 4.5 2.1-.8 3.3-2.6 4.2-4.5-.8 0-2.4 0-3.2 0z"/><path d="m47.7 210c.5.1 1.5.4 2 .5 0 5.4-.1 10.9.9 16.3-.9.7-1.9 1.4-2.8 2.1-.5-5.1-.8-10.2-2.7-15 .8-1.3 1.7-2.5 2.5-3.8"/><path d="m38.8 218c2-.5 4-1.1 6-1.5 1 6.9-2.5 13.6-.7 20.4.5 2.8 1 5.7.2 8.4-1 3.6-3.9 6.1-5.4 9.4-.1 3.2 1.3 6.2 2.2 9.2-.9 1.1-1.7 2.2-2.6 3.3 3.4 1.3 6.9 2.4 10.5 3.3.3-4.3.9-8.5 2.1-12.6 2.4 4.1 2.7 9.1 1.5 13.6-1.3 1.3-2.9 2.1-4.4 3.1-.4 1.1-.7 2.1-1.1 3.2 1.5-.3 3-.6 4.6-.9.7 2.2 1.4 4.5 2 6.7 1.8-3.8 5.1-6.2 9-7.5-.8 2.8-1.6 5.6-2.4 8.4 4.3-.8 8.5-2.1 12.5-3.9.8 3 1.3 6 1.7 9-3.7.5-6.2-2.8-8.9-4.7 1 2.6 2.1 5.2 3 7.8-5.2-1-10.4-1.7-15.7-.8 1.2.5 2.4.9 3.6 1.4-1.4.5-2.8 1.1-4.2 1.7.9.8 1.8 1.6 2.8 2.4-.4 1.6-1.1 3.3-.9 5.1 1.2 1 2.6 1.8 4 2.6-2 .3-4.1.6-6.1.9-.1.8-.2 1.6-.3 2.3-3.9-.6-7.9-.2-11.9 0 2.4-1.7 4.2-4.1 5.5-6.8-1.3-.5-2.5-.9-3.8-1.4.4-1.5 2.2-3.3.7-4.6-2.9-1.8-7.2-1.9-9-5.1-1.4-4-1.1-8.3-1.3-12.4.5-.1 1.6-.4 2.2-.6 1-5.2 1.5-10.5.7-15.8-1.1-8.2 2.3-16 2.5-24.3.1-3.3-2.2-6-2.8-9.2 0-2.2.6-4.3.9-6.5.8 3.1 1.8 6.1 2.8 9.1.8-.3 2.2-.8 3-1.1.3-4.1-.6-8.2-2.5-11.8"/><path d="m47.8 238c.8.4 1.6.9 2.4 1.3-1.7 8.2-.3 16.9-4 24.7-1.1-1-2.2-2.1-3.3-3.1 3.8-7 3.6-15.2 4.9-22.9"/><path d="m308 284c.9 3.1 1.5 6.3 2.2 9.4 1-.8 2.1-1.6 3.1-2.5-1.4 2.4-1.9 5.1-2.1 7.8-1.3 1.8-2.6 3.7-3.9 5.5 3.5 1.8 7.4 1.6 10.6-.7-1.6-.8-3.1-1.6-4.7-2.4 2.6-2 5.2-4.1 7.8-6.1 2.4 2.2 4.8 4.4 7 6.8-.7.6-1.3 1.1-1.9 1.7-.3-.5-.9-1.4-1.3-1.9-1.7 1-3.4 2-5 3 0 .4 0 1.2-.1 1.6 2.9.3 5.8.7 8.7 1.1-3.4.4-6.7 0-10-.4-4.7-.6-9.7.9-14.2-1-4.7-2-8.3-5.7-11.8-9.2 4.6 2.4 8.4 6 12.8 8.6 1.9-2.8-.9-6.4-1.4-9.4 3.7-2.9 4.6-7.5 4.2-11.9"/></g><g style="fill:#35271c"><path d="m27 95c1.5-1.5 2.8-3.8 5.2-3.8 2.4-.2 4.7.7 7 1.3-.1 2.7-.1 5.4-.2 8-.5-.2-1.5-.5-2-.7-.1-1.7-.3-3.4-.4-5-1.7-.2-3.5-.5-5.2-.7.9 3 2.1 5.9 2.6 9 .4 2.7-.4 5.4-.2 8 .4 2.3 1.3 4.4 2 6.6-2.7-2-5-4.3-7.1-6.8 1.2-.9 2.4-1.8 3.6-2.7-.4-3.7-1-7.3-1.7-11-1.2-.8-2.4-1.6-3.6-2.3"/><path d="m42 93c.6.2 1.9.5 2.5.7-.1 3.3-.4 6.6.5 9.8 1.2 3.4 4.2 5.7 6.1 8.6v.7c-1.1 0-2.1-.1-3.2-.1-.8-1.6-1.7-3.2-2.5-4.9-1.2 1.3-2.4 2.7-3.5 4 .2-6.3-1.4-12.7.3-18.9"/><path d="m24.5 95c3.9 3.9 1.6 9.7 3.1 14.5-.6 1.1-1.3 2.3-1.9 3.4-.6-3.4-1.6-6.6-2.6-9.8-1.1-2.8.5-5.5 1.4-8.1"/><path d="m299 112c1.9-3.9 4.1-7.7 6.8-11 .8.9 1.7 1.8 2.5 2.7-2.4 2.4-5.1 5-5.9 8.5.8 2.2 2.9 4.2 5.3 3.6 2.7-.3 3.8-3.2 5.4-5.1 1.6 1 3.2 2.1 4.8 3.1-3.1 2.1-7.8 2.6-9.9 5.9-.8 3.2-1.6 7.2 1.3 9.7-1.1 1.1-2.1 2.3-3.2 3.4-.8-4.4 0-8.9-1.1-13.3-1.5-2.8-3.9-5-5.9-7.5"/><path d="m27.8 114c1.6 2.8 3.3 5.5 4.5 8.4 1.2 2.8.5 5.8.4 8.7-.7.3-2 1-2.6 1.4.2-3.3.6-6.7 1.3-10-2.8-.2-5.6-.5-8.4-.9 1.4-.9 2.8-1.8 4.1-2.7.3-1.6.5-3.2.8-4.8"/><path d="m324 125c-.1-2.3 1.2-3.9 3.3-4.8.1.9.3 2.8.3 3.7-1.2.4-2.4.7-3.6 1.1"/><path d="m56 134c.1-1.1.3-2.2.3-3.3.5 1.5 1 3 1.4 4.5.2 2.2 0 4.5.7 6.7 1 1.8 2.6 3.2 4.1 4.6.2-1.2.4-2.4.6-3.6.7-1 1.4-2 2.1-3-.2 2.7.4 6-1.7 8.2-2.4 1.7-5.4 2-8.2 2.9 2.3-2.2 5.2-4.8 3.2-8.3-3.2 1.2-6.2 3-9.4 4.3 1.1 4.2 2.9 8 5.4 11.6-2.2 2.4-4.4 4.9-6.4 7.5-1 1.3-2 2.6-3 3.8-.6-.2-1.9-.5-2.5-.7 1.9-4.2 5.4-7.5 7.2-11.7.3-5.5-3-10.4-4.8-15.4 2.2.6 4.4 1.3 6.5 2 2.1-3.1 3.9-6.4 4.4-10.1"/><path d="m68.9 140c.8 0 2.4.1 3.2.1-.1 1.4-.3 2.7-.5 4.1-.8-1.4-1.8-2.8-2.7-4.2"/><path d="m349 166c.3-2.5.8-5.1 3.7-5.6-.2 2.5-1.7 4.3-3.7 5.6"/><path d="m25.6 188c1.1-3.1 2.5-6 4.2-8.8 3.7 3.6-.5 7.7-4.2 8.8"/><path d="m368 188c1.3.1 2.6.3 4 .4 1.4 6.7 1.4 13.6 1.4 20.3-.6-.3-1.8-.8-2.3-1.1-.6-5.9 1.6-12.9-2.6-17.8-.4 4-.4 8.1-.5 12.2-.5-.3-1.6-1-2.2-1.4 0-4.3.8-8.5 2.2-12.6"/><path d="m267 191c.5.3 1.5.9 2 1.2-.3 1.1-.6 2.2-.9 3.4-.9-.8-1.8-1.7-2.7-2.5.4-.5 1.2-1.5 1.6-2"/><path d="m354 200c.2-3.2 1.2-6.3 2.9-9-.3 3.1.5 7.4-2.9 9"/><path d="m351 194c.4-.4 1.3-1.3 1.7-1.8-.2 5.4-1.8 10.7-4.1 15.6.3-4.7.7-9.4 2.3-13.8"/><path d="m362 206c-2.3-3.1-.1-7.6.8-11-.1 3.6 1.3 7.9-.8 11"/><path d="m35 198c.6-.2 1.9-.6 2.6-.8-.6 4.3-.9 8.8-3.1 12.7-1.2-.7-2.5-1.5-3.7-2.2 1.3-3.2 2.8-6.4 4.1-9.6"/><path d="m32 227c.2-4.3.6-8.7.6-13 .7.2 2 .5 2.7.6.3 2.6.3 5.1.2 7.7-.3 2.2-.9 4.3-.9 6.5.5 3.2 2.8 5.9 2.8 9.2-.2 8.2-3.6 16-2.5 24.3.7 5.3.3 10.6-.7 15.8-.5.1-1.6.4-2.2.6 0-4.6-.2-9.1-.4-13.7-.2-7.5 2.1-14.7 2.3-22 .1-5.3-1.7-10.4-1.9-15.7"/><path d="m54 303c-.1-1.7.5-3.4.9-5.1.4.3 1 .9 1.4 1.2.5.4 1.4 1.1 1.9 1.5 2.5 2.4 4.8 4.9 7.1 7.5-4.6 0-9.1.1-13.7.7.1-.8.2-1.6.3-2.3 2-.3 4.1-.6 6.1-.9-1.4-.8-2.8-1.6-4-2.6"/><path d="m41.8 301c1.3.5 2.5.9 3.8 1.4-1.3 2.6-3 5.1-5.5 6.8-.2-2.8.4-5.6 1.7-8.2"/></g><path d="m38.5 115c1.8-.8 3.5-1.5 5.3-2.3-.4 2.4-.9 4.8-1.3 7.1-1.3-.8-2.7-1.6-4-2.3 0-.6 0-1.9.1-2.5" style="fill:#f6b22d"/><g style="fill:#79390c"><path d="m52 123c1 1.5 2.1 2.9 3 4.4-1.3 1.5-2.7 3-4 4.5-.1-3 .1-6 1-8.9"/><path d="m66.8 138c.7.7 1.5 1.4 2.2 2.2 1 1.3 1.9 2.7 2.7 4.2-.1.8-.1 1.6-.2 2.3-.3 3 .1 6.1 1.3 9 1.9 4.9 3 10 4.2 15-1.3.1-2.5.3-3.8.3-1 3.6-.3 7.4 1.3 10.7-1.3-2.4-3.6-4.6-3.2-7.5.1-1.3.3-2.7.4-4-5.1-3.1-8.3-8.1-12-12.6-1 2.1-1.7 4.3-3 6.1-2.5 1.4-5.4 1.5-8.2 2.1 2-2.6 4.2-5 6.4-7.5-2.4-3.6-4.2-7.5-5.4-11.6 3.2-1.4 6.2-3.1 9.4-4.3 2 3.4-.9 6.1-3.2 8.3 2.8-.8 5.8-1.1 8.2-2.9 2.1-2.2 1.5-5.4 1.7-8.2.3-.4 1-1.3 1.3-1.7m1.6 20.7c.6 3.6 2.1 6.9 4.2 9.8.3-1.4.6-2.8.7-4.2-1-2.4-3.1-3.9-4.9-5.6z"/><path d="m67 180c.6 0 1.9.1 2.5.1.1 2.8.2 5.5.4 8.3 1.4.6 2.8 1.1 4.2 1.7.1.4.2 1.2.3 1.6-1.5 1.3-3.2 2.5-4.2 4.2-.6 2.1-.5 4.3-.6 6.5 2.2.2 4.4.5 6.6.7.5 3.1.9 6.2 1.3 9.3-2.5-2.1-5-4.2-7.6-6.2.1 5.1 1.8 9.9 4.6 14-1.4 1.7-2.8 3.3-4.3 4.9-.7-1.8-1.5-3.5-2.2-5.2-.1-2.2-.2-4.3-.3-6.4-1.6.1-3.2.2-4.8.4-.4-1.9-.8-3.8-1.2-5.7 2-2.3 5.1-4.4 4.8-7.9-.3-4.2-.5-8.3.3-12.5-.3-2.6-.2-5.2.2-7.8"/><path d="m47 183c3.5.8 7.3 1.6 10.4-.6 1.6 2.1 3.3 4.2 4.9 6.3-1.3 1.9-2.6 3.9-3.9 5.8 1.3 2.8 2.5 5.7 3.7 8.5-1.9.8-3.8 1.7-5.7 2.5.4 3.1.8 6.1 1.3 9.1 1.6.2 3.2.4 4.7.6-.1 2.5 0 5.1-.7 7.6-1.5 1-3.1 1.5-4.7 2.2-.3 4.1-.8 8.2-.3 12.3.4 3.2 2.8 5.7 4.3 8.4 1.3 2.1 1.3 4.6 1.5 6.9-2.1.6-5.6.3-6.1 3.2-1 4.1-.6 8.5.2 12.6.5 3.6 4.4 4.8 7.4 5.2 3.3.5 5.9-2.1 8.3-3.8-2-.5-3.9-1.5-6-1.2-2 .9-3.7 2.4-5.5 3.6-.9-1.9-2-3.8-2.4-5.9-.3-2.7.6-5.3 1.2-7.9 1.9-.8 3.8-1.7 5.6-2.5-.3-5.4.5-11.3-2.4-16-1.9-3.4-3.5-6.9-4.7-10.6 1-.7 2-1.4 3-2.1 1.4 2.8 2.6 5.6 3.9 8.5.6-1.6 1.2-3.3 1.7-4.9 1 .7 2 1.5 3.1 2.2-1.1 8.8 4.1 17 10.6 22.5.8 10.7 1.4 21.5 1.2 32 .2 2.5-1.9 3.8-3.8 4.8-.2-1.3-.4-2.5-.5-3.8-1 .5-2.1.9-3.1 1.4-.4-3-.9-6-1.7-9-4 1.8-8.2 3.1-12.5 3.9.8-2.8 1.6-5.6 2.4-8.4-3.8 1.4-7.2 3.8-9 7.5-.7-2.3-1.3-4.5-2-6.7-1.5.3-3 .6-4.6.9.4-1.1.7-2.1 1.1-3.2 1.5-1 3.1-1.9 4.4-3.1 1.3-4.5.9-9.5-1.5-13.6-1.3 4.1-1.9 8.4-2.1 12.6-3.6-.9-7-2-10.5-3.3.9-1.1 1.7-2.2 2.6-3.3-.9-3-2.3-6-2.2-9.2 1.6-3.3 4.5-5.8 5.4-9.4.8-2.8.3-5.7-.2-8.4-1.9-6.8 1.7-13.5.7-20.4-2 .5-4 1-6 1.5 1.9 3.6 2.8 7.7 2.5 11.8-.8.3-2.2.8-3 1.1-.9-3-2-6-2.8-9.1.1-2.6.1-5.2-.2-7.7-.2-1.4-.4-2.8-.6-4.3 2.1-3.9 2.5-8.4 3.1-12.7.1-.6.4-1.8.5-2.4 1.1.2 2.1.4 3.2.7 2.4 3.8 3.4 8.3 3.7 12.7.4-.1 1.2-.4 1.6-.5.6-3.1 1.2-6.3 1.7-9.4 1.6 1.2 3.3 2.4 5 3.7 1.5-4.6 2.5-9.5 2.6-14.3-1 0-2 0-3-.1-.2 2.8-.5 5.6-.8 8.5-1.4-.6-2.9-1.2-4.3-1.8-.4.5-1.3 1.5-1.7 2-1.5-1.7-3-3.5-4.5-5.3 1.5-2.9 3.3-5.6 5.2-8.2m.4 26.8c-.8 1.3-1.7 2.5-2.5 3.8 1.9 4.8 2.2 10 2.7 15 .9-.7 1.8-1.4 2.8-2.1-1-5.4-1-10.8-.9-16.3-.5-.1-1.5-.4-2.1-.5m.1 27.7c-1.3 7.7-1.1 15.9-4.9 22.9 1.1 1 2.2 2 3.3 3.1 3.7-7.7 2.3-16.5 4-24.7-.8-.4-1.6-.9-2.4-1.3z"/></g><g style="fill:#f1b863"><path d="m43 158c.9.1 2.7.2 3.6.3-1.6 2.6-3.5 5-5.7 7 .6-2.5 1.3-4.9 2.2-7.3"/><path d="m60 210c1.6-1 2.6 1.9 1.3 2.7-1.6 1-2.6-1.9-1.3-2.7"/><path d="m75 225c.8 0 2.4 0 3.2 0-.9 1.9-2.1 3.8-4.2 4.5.3-1.5.6-3 1-4.5"/><path d="m57 234c2.8 2 4 5.4 5.2 8.5-2.5-2.3-4.7-5.1-5.2-8.5"/></g></svg>