<svg xmlns="http://www.w3.org/2000/svg" viewBox="0 0 401 382" style="enable-background:new 0 0 401 382"><path d="m187 26.3c6.5-2.4 10.5-8.6 17.2-10.5 5.5-.6 8.3 4.8 12.6 7 6.7 3.7 12 9.9 14.6 17 2.1 5.4 5 10.3 7.4 15.6 1.1 2.2 1.9 4.8 3.8 6.5 3.5 2 8 1.9 11 4.8 2.1 3.1 2.9 6.8 5.1 9.9 1.7 2.3 1.9 5.2 2.2 8 5.8 1.2 12.6.5 17.4 4.6 3.1 2.3 6.9 3.5 10.5 4.8 4 1.3 7 4.2 10.4 6.4 7.8 4.9 14 12 19.6 19 1.3 1.4.5 3.4.4 5-8.3-5.1-17.5-8.2-26-12.4-4.7-1.8-9.2-4.3-13.8-6.2-5.9-2.1-12.6-.2-18.4-2.7-1.7-.6-3.4-1.9-5.3-1.3-3.5 8.3-5.6 17-7.9 25.6-3 8.7-6.4 17.3-10 25.7-3 6.7-2.4 14.2-5 21-2.1 5.5-4.5 11-8.2 15.6-4.6 4.4-9.7 8.3-15 11.9-1.8 1.2-3.1 2.9-4.3 4.5 2.4 2.6 4.8 5.3 6.5 8.4 2.7 4.9 8.9 5.2 13.3 7.8 1.7 1 1.3 3.3 1.8 4.9.9 5.5 4.9 9.8 5.7 15.2 1.4 5.9.7 12 1.9 18 1.1 6 1.9 12 4.6 17.6 2.4 4.5 4.6 9.2 7.8 13.2 2.7 3.2 6.3 6.4 5.9 11 .7 3.6-1.3 6.8-3.4 9.5-2.4-1.9-4.9-3.9-7.5-5.6-1.4 4.1-2.8 8.5-2.2 12.9.8 6.6 1.7 13.4 4.9 19.3 1.7 3.5 4.3 6.5 5.6 10.2.9 4.4 1 9.8-2.9 12.8-5.9 4.5-13.7 2.8-20.6 3.7-5.7.9-11.3-1.1-17 0-5.7 1.2-11.5-.3-17.2-.3-4.6-.1-9-1.2-13.6-1.6-.7-2.4-1.6-4.7-2.1-7.1.2-3.1 1.3-6 1.7-9 .1-2.5-.1-5.1-.2-7.6.9-.7 1.7-1.4 2.6-2 6.7 4.8 14.8 6.6 22.3 9.7 3.4 1.4 7.5 2.3 11 .4 5-2.3 10-6.9 9.5-12.8.4-6.6-2.4-12.9-2.2-19.6 0-3.7.4-8.1-3-10.5-5.7-4-11-8.4-16.8-12.3-7.8-4.3-13.3-11.5-20.7-16.2-1.8 2.3-4 4.4-5.3 7.1-1.1 5-.1 10.1.5 15 .3 1.7-.5 3.3-1.4 4.6-5 6.9-12.4 11.9-16.8 19.3-3.7 6.2-8.2 12.3-9.7 19.5-1.3 5.7 4.6 9.8 4.3 15.4.6 3.2-1 6.1-2.8 8.7-10.4.1-20.6-1.8-31-1.3-6.6.1-13 1.4-19.7.6-5-.7-9.9.8-14.9.7-.8-1.6-1.7-3.3-2.3-5 0-6.2 2.6-13-.7-18.8-.9-1.5-.3-3.3-.1-5 2.8.6 5.6 1.4 8 3.1 6.1 4.2 13 7.6 20.6 7.8 5 .2 10.4 1.8 15-.9 3.5-2.5 7.5-5.4 8.4-10 2.6-11.2 9-21 15-30.6 3.4-4.6 7.8-10.5 5.4-16.5-3-9.3-5.3-18.9-6.1-28.7-.6-12 4.8-23.3 7-34.9 1.2-6.1 3.5-12.2 2.2-18.4-.8-4.4.3-8.8 1.2-13 .9-4.2.6-8.5.5-12.7-7.4-1.1-14.7-4.8-22.3-3.1-2.8.8-5.8 1.5-8.1 3.2-2.8 2.8-3.7 6.8-6.5 9.6-3.4.9-4.9-5.3-8.3-3.7-2.2 3.1-3.6 6.7-5 10.2-5.1-1.6-7.8-6.3-11.4-9.9-1.8-1.8-1.5-4.5-1.8-6.8 7.3-2.7 15.9-2.9 21.8-8.5 5.6-4.9 11.9-8.9 18.7-12 8.3-2.8 17.2-.4 25.7.4 1.2-4.5 3-8.9 3.8-13.5-2.5-5.7-6.7-10.5-11-14.9-6.3 2.5-9.9 8.3-14.7 12.7-1.6-.8-3.1-1.7-4.7-2.4-.2 3.6.2 7.3-.6 10.9-3.4 3.4-8.6 2.3-12.8 1.3-3.2-1-6.8-2.1-8.8-5-.7-1.4-.7-3.3.5-4.4 3.8-3.9 9.1-6.2 12.3-10.7 1.7-2.2 2.8-5 5.4-6.3 4.1-2.2 8.4-4.1 12-7.2 4.9-3.5 9.7-7.8 15.9-8.9 1.8-.7 3.4.9 4.9 1.7 6.4 3.9 9.5 11.2 15.3 15.7 3.8 3.1 8 6.4 13 6.5 4.6-1.1 7.2-5.4 10-8.9 3-4.2 6.7-8 8-13.2-5.3-1.5-10.8-1.1-16-2-6.3-1.1-12.7 4-18.6.1-4.3-3.5-7.5-8.6-8.7-14 5.9-.6 13.3 1.2 17.6-3.9 2.3-2.4 5.5-3.6 8.5-5-1.5-3.4-2-7-2.2-10.7-3.4 2.3-3.5 6.2-3.2 9.9-4.7-1.5-9.3-3.2-14-4.3 0 1.6.1 3.2.1 4.8 1.9.5 3.8 1.1 5.7 1.6.6.2 1.8.4 2.3.6.1.6.3 1.9.3 2.6-2.2 0-4.4 0-6.6-.2-4.2-1.1-6.1-5.2-5.9-9.3-4-.5-9.3-.2-11.4-4.4-1.5-2.5-1.8-5.6-.3-8 1.8-3.7 4.8-8.1 9.5-7.9 5.5.2 11.1-.6 16.6.4 4.4.7 8.9.5 13.2 1.8 4.9 1.7 10.7 1.4 14.8-1.9 4.1-3 9.4-2.6 14.2-3.5-1.8-3.1-4.3-5.7-5.8-9-3.2-6.8-8.9-11.9-13.5-17.7-2.3-2.5-4.1-5.9-7.5-6.9-3.4.7-6.7 2.1-10 3.3-.7-1.6-1.4-3.3-2-5m27.5 44c1.8 2.4 4.1 4.3 6 6.6 2 3 2.4 6.9 5.5 9 .8-5.8-1.6-11.8-6.4-15.3-1.7-.4-3.4-.3-5.1-.4m-6.8 1.8c-1.2 5.5.7 11.8 5.9 14.5.6.2 1.7.7 2.3.9 2.1.8 4.7 2.5 6.9 1-.9-2.8-2.2-5.5-3.3-8.3-1.7 1.1-3.4 2.2-5.1 3.4-.7-1.3-1.7-2.5-2-4 .7-1.7 1.8-3.2 2.8-4.7-2.4-1-4.9-1.9-7.4-2.7m-42 7.6c3.5 3.4 9 1.8 13.3 3.5 0-1.3.7-2.8-.7-3.7-3.6-3.2-8.7-1.3-12.6.1m36.8-2.8c-.1 3.4 0 7.2 2.7 9.8 3.3 4.4 8.5 6.6 13.9 6.6-1.9-2.4-4.6-3.9-7.1-5.4-4.3-2.5-6.2-7.4-9.5-11m15.3 33.9c-.1.7-.2 2-.3 2.7 8.7-.1 17.3-5.3 21-13-.5-.3-1.6-.9-2.1-1.2-5 5.5-11.7 9.3-18.8 11.6m16.7 16.4c.5.3 1.6.8 2.1 1.1 3.7-1 6.6-4 8.4-7.2-3.8.8-9.4 1.8-10.5 6.1m-36.8 14.3c-1.4 2.8-1.1 5.8-.2 8.7.8 0 2.3.1 3.1.2-.6-3.1-1.2-6.2-2.9-8.8m-26.9 20c-.4.5-1.1 1.4-1.5 1.9 7.6 1.8 15.3 3.1 22.9 4.8-1.1-1.3-2-3.2-3.8-3.6-5.8-1.6-11.7-2.1-17.6-3.1m50 10.5c-.4 1.2-.8 2.4-1.1 3.7 1.2-.3 2.5-.7 3.7-1.1.4-1.2.8-2.4 1.1-3.7-1.2.3-2.5.6-3.7 1.1m-53.6 13.8c0 .8 0 2.5 0 3.3 4.5 2.6 8.8 7.1 14.3 6.5-3.8-4.4-8.6-8.2-14.3-9.8m19.7 10.4c4 1.5 7.5-1.8 10.9-3.2.1-.8.2-2.3.2-3-4.1.9-9.8 1.6-11.2 6.2m31.8 36c-.9 2.7-1.5 5.4-1.5 8.2-1.1 11-1.6 22.5 2.2 33 2.9 7.6 9 13.3 15 18.5.3-3.6-.7-7.2-1.3-10.7-1.3-6.9-1.3-14-2.2-21-2-8.4-3.8-16.9-7-24.9-.8-2.3-3.2-2.7-5.2-3.3m-59.7 9.9c5 10 8.4 21.9 18.3 28-2.1-6-6.4-10.8-8.9-16.6-1.9-4.4-4.1-8.7-6.5-12.8-1 .4-1.9.7-2.8 1.1m49 9.4c-3 9.2-1.9 21.6 7 27-1-5.3-4-9.9-4.3-15.3-.3-4.1-.1-8.4-2.7-11.8z"/><g style="fill:#7f7f7a"><path d="m215 70c1.7.1 3.4.1 5.1.4 4.7 3.5 7.2 9.5 6.4 15.3-3.1-2.2-3.5-6.1-5.5-9-1.9-2.3-4.2-4.2-6-6.6"/><path d="m166 80c3.9-1.4 9-3.3 12.6-.1 1.3.8.7 2.4.7 3.7-4.3-1.7-9.8-.2-13.3-3.6"/><path d="m202 77c3.3 3.6 5.2 8.4 9.5 11 2.6 1.5 5.3 3 7.1 5.4-5.4 0-10.7-2.3-13.9-6.6-2.7-2.5-2.8-6.3-2.7-9.8"/><path d="m188 90c-.3-3.7-.2-7.7 3.2-9.9.1 3.7.6 7.3 2.2 10.7-3 1.4-6.2 2.5-8.5 5-4.3 5.1-11.7 3.4-17.6 3.9 4.9-1.5 10-1.6 15.2-2.1-1.8-1.8-4.4-2.2-6.8-2.6 2.2.2 4.4.1 6.6.2-.1-.6-.3-1.9-.3-2.6 1.9-.2 3.8-.5 5.8-.8-3.5-1.3-6.8-3.2-10.3-4.4-1.1-.4-2 .6-2.9 1 1.6 1.3 3.3 2.6 5.2 3.6-1.9-.5-3.8-1-5.7-1.6 0-1.6-.1-3.2-.1-4.8 4.8 1.2 9.4 2.8 14 4.3"/><path d="m218 111c7.1-2.3 13.7-6 18.8-11.6.5.3 1.6.9 2.1 1.2-3.9 7.8-12.5 13-21 13 .1-.7.2-2.1.3-2.7"/><path d="m234 127c1.2-4.3 6.7-5.4 10.6-6.1-1.8 3.3-4.7 6.3-8.4 7.2-.5-.3-1.6-.8-2.1-1.1"/><path d="m197 142c1.7 2.7 2.4 5.8 2.9 8.8-.8 0-2.3-.1-3.1-.2-.9-2.9-1.2-5.9.2-8.7"/><path d="m171 162c5.9 1 11.8 1.5 17.6 3.1 1.8.4 2.7 2.3 3.8 3.6-7.6-1.7-15.3-3-22.9-4.8.4-.5 1.1-1.4 1.5-1.9"/><path d="m220 172c1.2-.4 2.4-.8 3.7-1.1-.3 1.2-.7 2.5-1.1 3.7-1.2.4-2.4.8-3.7 1.1.3-1.2.7-2.5 1.1-3.7"/><path d="m166 186c5.7 1.5 10.5 5.4 14.3 9.8-5.6.6-9.8-3.9-14.3-6.5 0-.8 0-2.5 0-3.3"/><path d="m186 196c1.4-4.7 7.1-5.4 11.2-6.2-.1.8-.2 2.3-.2 3-3.5 1.4-7 4.7-10.9 3.2"/><path d="m158 242c.9-.4 1.9-.7 2.8-1.1 2.4 4.1 4.6 8.4 6.5 12.8 2.5 5.8 6.8 10.6 8.9 16.6-9.9-6.3-13.3-18.3-18.3-28"/><path d="m207 252c2.6 3.4 2.4 7.8 2.7 11.8.2 5.4 3.3 10 4.3 15.3-8.9-5.6-9.9-18-7-27"/></g></svg>