<svg xmlns="http://www.w3.org/2000/svg" viewBox="0 0 401 382" style="enable-background:new 0 0 401 382"><g style="fill:#020102"><path d="m223 10.9c.7.5 1.4 1 2.1 1.5-.9 2.6-1.9 5.1-2.8 7.7 1.1-.1 2.2-.2 3.3-.4 1-1.4 2-2.8 3-4.2.6.7 1.2 1.5 1.8 2.2-.7 1-1.4 2-2.1 3.1-3.8.6-7.6 1.3-11.3 2.3-2.2.6-4.4 1.1-6.5 1.7.2 1.4.3 2.8.6 4.1 1 2.7 2.1 6.2 5.3 7 3.1.3 6.1-.6 9-1.2.2.6.5 1.3.7 1.9-.8 1.4-1.7 2.8-2.5 4.2-4.5-1-8.8-2.6-12.7-4.9-2.8-1.6-5.8-3-8.7-4.4-2.3 5.3-2.8 11-2.2 16.8-.3-.2-1.1-.5-1.4-.7-.3-1-.7-2-1-3-1.2-.7-2.3-1.4-3.4-2.1 2.2-2.3 3.7-5 4.4-8.1-3.1 1.2-5.7 3.3-7.9 5.7-.7.7-1.4 1.5-2.1 2.2-.5-.7-1.6-2.1-2.2-2.8 4.7-6.1 6.8-13.7 9.9-20.7.7.4 2.2 1.1 3 1.5-1.3 3.3-2.7 6.4-4.2 9.6 1.9-.4 3.9-.9 5.9-1.4.4-2.2.8-4.4 1.3-6.7 1.2-1.2 2.4-2.4 3.5-3.7 4.6.6 9.7 1.8 13.9-.8 1.7-1.9 2.5-4.4 3.5-6.7m-18.7 11.9c-.1 1.4-.2 2.9-.3 4.3.8-.1 2.5-.3 3.4-.4-1-1.3-2.1-2.7-3.1-4z"/><path d="m95 17.5c3.9 3.4 7.2 7.4 9.8 11.7-3.3 5.1-4.5 11.1-6.7 16.7-2.2 5.5-8 8-13 10-4.4 1.8-8.2 5.4-13 5.4-2-1.9-4.4-3.6-5.4-6.3 0-3.1 4-3.4 6.2-2.5 1.5 2.3 1.5 5.2 2.1 7.8 4.9-6 13.3-6.8 18.8-12-.8-3-2-6.1-1.2-9.2 1.2.2 2.4.4 3.5.5 1.2-2.5 2.9-4.9 3.4-7.6-.3-3-2.4-5.4-3.8-7.9-1.2 1.3-2.4 2.6-3.6 3.9 1.3 1 2.7 2 4 2.9-.5 1.3-1 2.7-1.6 3.9-.9-2.3-1.9-4.5-3-6.7 2.4-3 3.8-6.7 3.7-10.6"/><path d="m89 18.3l.8-.2c.7 1.3 1.4 2.7 2.2 4-1.6 0-3.3 0-4.9 0 .6-1.3 1.3-2.5 1.9-3.8"/><path d="m232 18.7c.8.1 2.4.4 3.3.5l1 .3c-.5.8-1.1 1.6-1.6 2.4-.6.1-1.8.2-2.4.3-.1-.9-.2-2.6-.2-3.5"/><path d="m74 26c1.2-2.2 2.1-4.5 3.1-6.8 3.4.6 6.9 1.6 8.9 4.7-1.4 1.9-2.7 4-4.4 5.7-2.2-.2-4.3-1-6.4-1.6-1 1.9-1.9 3.8-2.8 5.7 2.1-.5 4.3-1 6.4-1.4 0 .6 0 1.7 0 2.3-1.8.6-3.7 1.2-5.5 1.8-1.2-.2-2.3-.5-3.5-.7-1.8 3.7-3.2 7.6-4 11.6-1.1-.1-2.2-.3-3.2-.4 1.5-3.7 2.7-7.5 4.5-11.2 1.7-3.7 5-6.2 7-9.7"/><path d="m229 22.3c2.2 3.1 2.3 7 2.5 10.7 1.1.4 2.2.9 3.2 1.3.7.7 1.5 1.3 2.2 2-1.4 1-2.8 1.9-4.2 2.9-.4-.3-1.2-.8-1.6-1.1-1.4-3.1-3.2-6-5.3-8.6 1.3-.3 2.6-.5 3.8-.8-.8-1-1.6-2-2.3-3.1.4-1.2 1-2.3 1.6-3.3"/><path d="m227 38.5c1.1 1 2.9 1.8 2.7 3.5.1 5.4-2.8 10.2-6.4 14-.6-1.8-1.1-3.7-1.7-5.5 1.4-1.1 3.1-1.9 4-3.4 1.3-2.7 1-5.8 1.3-8.6"/><path d="m183 47.8c.2-1.9-.5-4.8 2.1-5.4.8 1.6.8 3.5 1 5.3-.8 0-2.3.1-3.1.1"/><path d="m59.7 63c.3-3.9.6-7.7 1.5-11.5 0 3.5.4 7 1.1 10.5.5 2.5 1.2 4.9 1.8 7.3 4.9.2 9.9.8 14.8-.1 3.6-.4 2.7-4.8 3.3-7.4.7.4 1.3.9 2 1.3.3 2.4.6 4.8.7 7.2-.5 1.4-1.1 2.7-1.7 4-.8-1.2-1.7-2.4-2.5-3.6-.4-.1-1.3-.2-1.8-.2.4 1.2.8 2.4 1.2 3.6-2.8 1.1-5.7 2.2-8.7 2.3-2.2-2.4-4.8-4.1-7.8-5.3-1.7-2.5-4.1-5-3.7-8.2"/><path d="m179 54c5.9 0 11.9 0 17.8.2 4.1 1 5.2 5.5 8 8.2 2.3 1 4.8 1 7.3 1.3-.6 1.1-1.2 2.1-1.8 3.1 1.5 0 2.9 0 4.4 0-.5 1.4-1.1 2.8-1.6 4.2 1.1 0 2.1 0 3.2 0 1.4 1.1 2.7 2.5 4.5 3.1 2.5.2 5.3-.9 6.2-3.3 2.5-5.3 5.7-10.8 5.4-17 .8.1 1.6.2 2.5.3.8 1 1.6 2 2.3 3.1-.6 1-1.2 2-1.8 3.1-2.6 3.1-4.7 6.6-6 10.5-.9 3.1-4.2 4.2-6.4 6.1.4 1.7 1.5 3.8 3.6 3.6 4.1-3.6 6.3-9 7.6-14 .9.6 1.9 1.2 2.8 1.8-1 2.3-2.8 4.5-2.9 7 .8 3.6 4.9 4.3 7.8 5.7 6 2.3 10.3 7.3 14.3 12.2 2.3-1 4.6-2.9 7.3-2.5 3.4 1.8 4.9 5.8 8 8 3.3.8 6.8-.1 10.1-.1 2.2 1.1 4.2 2.4 6.5 3.3 2.9 1.2 6.1 1 9 2.2 2.6 1.2 4.5 3.3 6.8 5.1 3.9 2.8 9.6.2 13 4.2 3.7 4.5 10 5.1 14.5 8.6 2.8 1.9 5.6 5.1 9.4 4.2 8.2-2.1 13-10.3 21-12.5-.9 6.3-2 12.6-4.2 18.6-4.9-.9-9.9-1.3-14.9-1.3-.4 1.1-.8 2.2-1.2 3.3-6.9.2-13.8-1.3-20.4-3.1-1.6.8-3.2 1.8-5 2.1-1.3-1.9-2.1-4-2.8-6.1 1.6-.4 3.1-.8 4.7-1.2-4.4-2.2-9.1-3.4-13.8-4.8-.6.7-1.1 1.4-1.7 2.1-2.9 2.1-6.2 3.6-9.7 4 .6-2.7 1-5.5 2.5-7.9 2.7-.7 5.6-.3 8.4-.3-.1-.5-.1-1.6-.2-2.1-3.3-.6-6.6-1.2-9.7-2.4-3.4-1.4-6.4-3.8-10-4.7-3-1-6.4-1.2-9-3.2-2.2-1.4-4.1-3.7-6.9-3.7-4.2-.4-8.5-.6-12.7-1.5.8-2.2 1.6-4.5 2.4-6.7-7.4 1.1-15 .7-22 3.5-.3 1.1-.6 2.1-.9 3.2-1.8 1.1-3.7 2.4-5.8 2.9-3.5-1.5-6.6-5.6-10.8-3.9-3.2 2.5-4.8 6.3-6.7 9.8-1.7.6-3.3 1.2-5 1.7-.5-1.4-1.1-2.8-1.7-4.2 2.4-1.8 4.9-3.4 7.3-5.2 1.2-1.4 2.3-2.9 3.3-4.4-2.1-1.1-4.2-2.1-6.4-3.2.3-1.3.5-2.7.8-4 .9-1.4 1.9-2.7 2.8-4.1-1.1-1-2.2-2-3.3-2.9.9-1.5 1.7-3 2.6-4.5-1.4-1.4-2.8-2.9-4.2-4.3-3.5 3.7-7.6 7.3-9 12.4-2.9 9.7.2 19.8-.8 29.6 3.2.1 6.4.2 9.6.2-.2 1-.3 1.9-.5 2.9-3 2.1-5.5 5.4-9.1 6.3-3.7-2.5-6.9-5.6-10.8-7.7-.1-1.1-.3-2.2-.4-3.3 2.6-.5 5.7-.3 7.7-2.3-.1-2.3-.7-4.6-.7-6.9.3-3 2-5.8 2.1-8.8-.2-4.5-2.1-9-1.4-13.5.3-3.5 1.5-7 .7-10.4-.9-1.3-2.3-2.1-3.5-3.1.3-.3.8-1 1.1-1.4 1.5-.1 3.1-.2 4.6-.3-.7-3-1.3-6.6-4.4-8.2-3.2-1.5-6.6-2.5-9.7-4.2-1.2.2-2.4.4-3.6.7-.2-1-.3-2-.5-3m18.6 27.9c4.6-2 6.7-6.8 10-10.3-1 .1-2 .3-3 .4-1.2-.9-2.3-1.8-3.5-2.7-2.5 3.7-2.7 8.3-3.6 12.6m29.6.9h1c-.1 4.4-.8 9 .9 13.2-.8 1.5.7 2.7 1.3 4 .9-2.9 1.4-5.8 2-8.8 1 .3 1.9.7 2.9 1 .5-2.1 1-4.2 1.6-6.3l.8.5c-.7-2.2-1.8-4.2-3-6.1-2.6.6-5.2 1.4-7.6 2.5m-12.3 4.8c-.5 1.6 0 2.2 1.7 1.7.5-1.6 0-2.2-1.7-1.7z"/><path d="m183 61c3.7.1 6.7 2.7 9.4 4.8-3.6.1-7.6-.1-10.2 2.8 1.9.5 3.7.9 5.6 1.4-.1 1-.2 2.1-.3 3.2-2.4 0-4.8-.1-7.2-.2-.6-.5-1.7-1.5-2.2-2 1.6-3.3 1.3-8.2 4.9-10"/><path d="m162 70c2.8 2 6 3.7 9.5 3.9-1.2.4-2.4.9-3.6 1.3-1 .4-2.1.8-3.1 1.2-.9 2.1-1.9 4.2-3 6.3-.7-4.2-.4-8.5.2-12.7"/><path d="m157 73l.8-.5c1.6 0 2.3.7 2.2 2-1.2.8-2.2.5-3.1-.8l.1-.8"/><path d="m259 81c.5-.3 1.6-.9 2.2-1.1.2.5.6 1.6.9 2.2-.1 1.5-.3 3-.4 4.6-2.7.1-5.4.1-8.1.1 1.6-2.1 3.3-4.2 5.5-5.7"/><path d="m176 87c.2-1.3.4-2.6.7-3.9 2.3 4 1.8 8.8 3.3 13 1.7 3.8 4.3 7.2 5.9 11.1-.7-.1-2.1-.3-2.7-.3-2.1-3.8-4.4-7.5-6.5-11.4-1.5-2.6-.9-5.7-.7-8.5"/><path d="m270 89c4.1-.7 8.3-.1 12.3.8-.2 1.3-.5 2.7-.7 4l-.6-.7c-3-1.9-6.5-1.2-9.6.1-.6-.7-1.1-1.5-1.6-2.2 0-.5.1-1.5.1-2"/><path d="m164 111c4.9 0 9.9 0 14.7 1 1.5.4 2.9.9 4.4 1.3.1.6.3 1.9.4 2.5-5.6-1-11.2-2.2-16.9-2.4h-1c-.6-.8-1.1-1.6-1.6-2.5"/><path d="m109 117c.8-.1 1.7-.1 2.5-.1.3 2.8.3 6 2.2 8.3 2.7 3.8 6.5 7.5 6 12.6-4.9 1.8-10 3.2-15.2 4-.1-.7-.3-2.2-.3-3 .1-6.3 2.1-12.3 3.7-18.3.4-1.2.8-2.4 1.2-3.6"/><path d="m139 117c.2-.1.7-.3 1-.5 4 2.2 8.4 3.8 11.8 6.9 3.4 5.1-.3 11-2.3 15.9-1.7.4-3.5.8-5.2 1.1-1.7-2-3.7-3.7-5.8-5.1 1-.9 2-1.8 3-2.6-.2-5.3 0-10.9-2.4-15.8"/><path d="m240 124c6.7 1.9 13.4 4.3 18.7 9 1.1 2.3 2.3 4.8 1.8 7.5-.9 2.8-3.6 4.6-4.8 7.3-.4 2.1-.3 4.3-.3 6.4-1.7-.3-3.4-.4-5.1-.9-1.3-1.6-2.1-3.5-2.9-5.4 3.6-4.1 7.2-8.2 10.9-12.2-3.4-3.1-7.5-5.7-12.3-5-1.9-2.3-4.6-3.4-7.5-3.8.5-1 1-2 1.5-3"/><path d="m196 129c1.2-.9 2.8-.3 4 .3 1.6 1.6-.6 3.1-1.2 4.6-3.2 3.9-.1 10.4-5.2 13.2.6-2.9 1.7-5.8 1.4-8.9-.1-3-1-6.5 1-9.2"/><path d="m231 143c.5.3 1.6.9 2.1 1.2-.7 1.1-1.4 2.1-2.1 3.2-.3-.6-.8-1.9-1.1-2.6.3-.4.8-1.3 1.1-1.8"/><path d="m284 155c.9.3 1.9.5 2.8.8.3.2.9.7 1.2 1-.8 1.3-1.5 2.6-2.2 3.9-1.3-.2-2.7-.3-4-.4.7-1.8 1.5-3.5 2.2-5.3"/><path d="m243 166c1.2-3.4 2.6-6.7 3.8-10.1 1.1 1.2 2.3 2.4 3.4 3.7-2.4 2.2-4.8 4.3-7.2 6.5"/><path d="m185 166c3.1-3.5 6.4-6.8 10.3-9.5 1.8 1.4 3.7 2.8 5.5 4.2-1.1 1.5-2.2 3-3.2 4.6-1.9 3.2-3.8 6.9-3.1 10.7 1 .8 2.2 1.4 3.3 2 .7-4 1.5-8 2.7-12 2.1.6 4.1 1.4 6.1 2.1 2.3.8 4.6 1.4 6.9 2.1.7.8 1.4 1.5 2.2 2.3-4.1-.1-8.4.4-11 3.9 1.7 2.3 3.4 4.5 5.3 6.6-3.3 1.1-7.2 1.6-9.4 4.5-2.3 5.9.6 12 1.3 17.9-3.8 2.2-6.1 5.9-8 9.6-4.2-.8-8.4-.4-12.5.3 2.6-1.5 5.2-2.9 7.8-4.3-1-2.3-2.1-4.7-3.3-7 .4-.4.8-.7 1.2-1.1 2.2.2 4.3.4 6.5.6.2-3.6.3-7.2-.9-10.6-.9-2.8-2.2-5.7-4.4-7.8-1.7-1.9-3.9-3.3-5-5.7.1-2.8.9-5.4 1.5-8.1-1.7-1.1-3.8-1.8-4.9-3.6-.2-1.5.6-3 1-4.4-.3-.7-.7-1.5-1-2.2 2-.3 3.9-.7 5.9-1.1-.2 2-.5 4-.7 5.9m3.6 7.7c1.8-.7 3.6-1.4 5.4-2.1-.1-3.1.2-6.4-1.3-9.3-3.6 2.4-3.1 7.6-4 11.3z"/><path d="m275 168c-.3-3.5 2.6-5.2 5.4-6.4-.5 3.1-1.9 6.1-5.4 6.4"/><path d="m229 166c1.3-1 2.6-1.8 3.9-2.7 1.2 1.3 2.3 2.7 3.5 4-1.3.6-2.5 1.3-3.8 1.9.1 2.3.1 4.6.3 6.9-1.3-3.4-2.6-6.7-3.9-10"/><path d="m225 166c.4.9.8 1.7 1.2 2.6.2.4.6 1.3.8 1.7-.2.5-.6 1.6-.8 2.1-1.9-.7-3.8-1.6-5.6-2.4 1.4-1.4 2.9-2.7 4.4-3.9"/><path d="m267 171c1.4-.2 2.8-.4 4.2-.6-.5 1.7-.9 3.4-1.5 5.1-.4.7-1.1 2-1.4 2.7-1.1-2.3-1.5-4.8-1.3-7.3"/><path d="m221 180c-.3-2.6-2.1-4.8-2.9-7.2 2.3.9 4.6 1.8 6.8 2.8-.7 1.4-1.4 2.8-2.1 4.2 1.2.8 2.3 1.7 3.5 2.5l-.2.9c-.8.4-1.7.8-2.6 1.2-1.7.5-3.4 1-5.1 1.4 1.4 1.1 2.8 2.2 4.2 3.3-1.2-.1-2.4-.1-3.7-.2-1.8-.2-3.5-.6-5.3-.9.7-.7 1.4-1.3 2.1-1.9 1.9-1.9 4.2-3.5 5.3-6"/><path d="m175 181c2.6-.2 4.8 1.1 6.7 2.8-2.2 0-4.3 0-6.5-.3-.4-.2-1.3-.5-1.7-.7.4-.5 1.2-1.4 1.5-1.9"/><path d="m249 185c1.6-.1 3.2-.3 4.8-.4.2 2.4.4 4.9.3 7.3-.6.3-1.2.6-1.8.9-.5-1.1-.9-2.3-1.4-3.4-.6-1.5-1.3-3-1.9-4.4"/><path d="m298 192c3-2.4 6.7-2.6 10.3-2-1.5 4.4-7.1 5-10.3 2"/><path d="m227 204c4.1 1.7 7.6 4.4 10.7 7.5-.4.2-1.2.6-1.6.7-3.6-2.1-7-4.6-9-8.3"/><path d="m223 206c1.3-1.4 3.7.8 2.2 2.1-1.3 1.4-3.7-.8-2.2-2.1"/><path d="m168 206c.3 1.3.5 2.7.5 4-2.8.3-2.5-3.1-.5-4"/><path d="m204 209c.4 2.4.6 4.9.7 7.3-.7-.4-2.1-1.3-2.7-1.8l.2-.8c.6-1.6 1.2-3.1 1.8-4.7"/><path d="m136 212c3.1 1.4 6.3 2.5 9.6 3.4-2.3.7-4.5 1.4-6.8 2.2-.2.5-.6 1.5-.8 1.9 2.1.2 4.2.4 6.3.6-1 1.3-1.9 2.6-2.9 3.9-1.7-1.2-3.4-2.3-5.2-3.5.1 2.2.3 4.4.4 6.6-1.9-2.1-3.9-4.5-7-4.7-.4 0-1.2 0-1.6 0 1.3-1.3 2.5-2.6 3.8-3.8-.8-1.4-1.7-2.9-2.5-4.3 2 .3 4 .6 6 1 .2-1.1.5-2.1.7-3.2"/><path d="m166 217c1.5.1 3 .1 4.5.3-.2.7-.6 2.1-.8 2.8-.6.1-1.8.2-2.4.3-.3-.8-.9-2.5-1.2-3.3"/><path d="m191 219c1.3-1 3.2-.6 4.7-.9-.3 1.2-.7 2.4-1.1 3.6-1.5.7-3.2.5-4.8.8.3-1.2.7-2.4 1.1-3.5"/><path d="m219 225c-.5-1.5 0-2.3 1.4-2.5 1.2.9 1.3 1.9.2 3.1-.4-.1-1.2-.4-1.6-.6"/><path d="m252 224c1.6-.9 3.2-1.7 4.8-2.4 0 2 .1 3.9.3 5.9-1.9-.8-3.7-1.5-5.6-2.3.1-.3.4-.9.5-1.2"/><path d="m197 227c.5 1.5 1 3 1.5 4.4-1.5-.8-3-1.6-4.5-2.4.7-.5 2.2-1.5 3-2"/><path d="m165 230c.7 0 2 0 2.7.1 0 .6 0 1.9 0 2.6-.7 0-2-.1-2.7-.1 0-.6 0-1.9-.1-2.5"/><path d="m324 233c1.1 7.7 4.7 15.3 2.9 23-5.3 1.6-11 2.6-16.4.9-1.7-.5-2.2-2.5-3.1-3.9-2.8 1.3-5.8 1.8-8.7 2.3 1.9.3 3.8.5 5.7.8-3.4.4-6.8.7-10 1.8-1.2.7-2.3 1.4-3.4 2.2.2 1.6 1.2 3 1.9 4.5-.4.4-.9.9-1.3 1.4-1.4-.3-2.8-.7-4.2-1-.1 1.7-.3 3.3-.3 5-.9-1-1.9-1.9-2.8-2.9-.9 1.6-2.9 3.1-2.3 5.2 1.1 4.5 5.9 7 10.4 6.4.6.6 1.2 1.3 1.8 1.9-3.1 1.9-6.8 3.3-10.3 1.8-5.6-1.2-5.9-7.7-6.8-12.2 5.3-3.8 8.8-9.4 13.8-13.5 4-3.4 9.7-2.2 14.5-3.4-.2-2.9-.8-5.7-1.6-8.5-.2-2.1-.3-4.3-.4-6.4 1.3 1.9 2.4 4.3 4.6 5.3 4.7-1.6 9.4-3.4 14.4-4.3 1-2.1 1.5-4.4 1.6-6.7m-13 14.3c-.5 1.2-.9 2.4-1.4 3.6 5.2 1.3 10.3 2.8 15.4 4.3.2-3.1.5-7-2.6-8.9-3.9-.3-7.7.6-11.5.9z"/><path d="m184 239c1.1-.5 2.2-1.4 3.5-1.3 1.1.9 2.1 2 3.1 3-.5.5-1.6 1.4-2.1 1.9-1.5-1.2-2.9-2.5-4.5-3.6"/><path d="m209 240c.8 0 2.3.1 3.1.1-.2 2-.5 4-.7 6-.9-2.1-1.6-4.1-2.4-6.2"/><path d="m232 254c1.4-1.8 4.4-3.4 5.3-.3-1.6 1.4-3.5 1.1-5.3.3"/><path d="m197 263c1.3-.7 2.6-1.4 4-2.1.1 1.8.3 3.7.1 5.6-1.4-1.2-2.7-2.3-4.1-3.5"/><path d="m313 271c2.4-4.2 5.3-8.4 9.9-10.3-2.6 3.2-5 6.6-6.8 10.4-1.4 3.1-3.8 5.5-6.9 7-3.2 1.6-6.2 5.1-10 3.8-1.4-1.3-2.8-2.7-4-4.3 2.6-1.8 6.2-1 8.9-2.6 1.5-1.6 2.3-3.6 3.3-5.4 1.8.5 3.7.9 5.5 1.4"/><path d="m213 277c.7-1 1.3-1.9 2-2.9.7 2.1-.4 3.9-2.3 5-.4.2-1.2.7-1.6.9.6-1 1.3-2 1.9-3"/><path d="m148 280c-.6-1.5-1-3-1.2-4.6 1.1.9 2.3 1.7 3.4 2.6-.7.7-1.4 1.3-2.1 2"/><path d="m160 275c1.6.5 3.1 1 4.7 1.5-.4.2-1.3.5-1.8.7-.7.3-2.2.8-2.9 1 0-.8 0-2.4-.1-3.2"/><path d="m194 281c1.6.4 3.2.9 4.8 1.4-1.7 2.4-4 4.2-6.4 5.8-.1-1.5-.3-3-.4-4.5.7-.9 1.3-1.8 2-2.7"/><path d="m128 283c1 1.4 2.1 2.8 3.1 4.2-1.3.4-2.5.9-3.8 1.3-1.7-1.8-.9-3.9.7-5.5"/><path d="m178 285c.8-.1 2.3-.4 3-.6.2.5.7 1.5.9 2l.1 1c-1.4 0-2.8 0-4.2 0 0-.6.1-1.9.1-2.5"/><path d="m207 285c1.6.1 3.3.2 4.9.3-2.4 2-4.9 3.9-7.4 5.8.8-2 1.6-4.1 2.5-6"/><path d="m216 286c1.5.1 2.9.2 4.4.2-1 1.5-2.1 2.9-3.2 4.4-.4-1.5-.8-3.1-1.3-4.6"/><path d="m181 295c2.1-2.3 4.6-4.1 7.2-5.8-.8 2.1-1.6 4.3-2.6 6.4-1.5-.2-3-.3-4.6-.5"/><path d="m238 291h.9c.4.1 1.1.1 1.4.2.2 3.3-.1 6.7.7 9.9.8 2 2.8 3.3 4.3 4.8 1.3-1.8 2.7-3.6 3.9-5.4-.3 1.5.3 3.5-1.3 4.4-2.8 1.9-5.4 4.3-6.6 7.6-.5-.1-1.5-.3-2-.3.3-2.8.5-5.7.9-8.5-1.9.8-3.9 1.6-5.8 2.4.4-2.4.9-4.9 1.4-7.3.6-2.6 1.4-5.2 2.2-7.8"/><path d="m197 299c2.5-2.6 5.7-4.8 9.4-4.6 1.2 1.8 2.5 3.6 3.7 5.5-1.6.1-3.2.2-4.8.4.7 1.5 1.5 3.1 2.2 4.6.2.4.5 1 .7 1.4-3.1-3.3-6.7-6.2-11.2-7.2"/><path d="m150 295c1.3.3 2.5.6 3.7.9.1.7.3 2.1.5 2.8-1.4-.1-2.7-.2-4.1-.3 0-.9-.1-2.6-.1-3.4"/><path d="m131 302c.8-1.6 1.5-3.1 2.3-4.7 1.5 1.8 3 3.6 4.4 5.4-1 .7-2 1.4-3 2.1-.8-.6-1.6-1.2-2.3-1.7-.3-.3-1.1-.8-1.4-1"/><path d="m223 303c1.9-1.9 3.8-3.9 6-5.5 2.2 1.6 3.1 4.2 2.5 6.8-2.7-1-5.6-1.4-8.4-1.3"/><path d="m197 302c1.9 1.1 3.8 2.1 5.6 3.4.1 1.4-1 2.5-1.6 3.7-1.9-1.6-3.9-3.3-5.8-4.9.6-.7 1.2-1.5 1.9-2.2"/><path d="m183 309c2.2-1.1 4.5-2 6.8-2.9-1.7 1.7-3.4 3.4-5.1 5-.4-.5-1.2-1.6-1.6-2.1"/><path d="m139 311c1.3-2.3 3.6-3.8 6-4.8l-.2 1.1c-.2 1.4-.4 2.8-.7 4.1-1.7-.2-3.4-.3-5.2-.4"/><path d="m179 311l.8-.6c1.6.4 2.9 1.2 3.9 2.4-1.6-.6-3.2-1.2-4.7-1.9"/><path d="m187 317c1.3-2 1.8-5.6 4.6-5.8.6 1.2 1 2.5 1.3 3.9-1.2 1.8-3.6 2-5.5 2.8l-.4-.9"/><path d="m217 312c1.6.4 3.3.9 4.9 1.3-.3 1-.7 1.9-1 2.9-1.8-.7-3.5-1.4-5.3-2.1.3-.5 1-1.6 1.4-2.1"/><path d="m175 314c1.2 1 2.4 2.1 3.6 3.2-1.5.1-3 .3-4.4.5.3-1.2.5-2.4.8-3.7"/><path d="m165 316c.4-.1 1.1-.3 1.5-.4.7 1.2 1.4 2.4 2.1 3.6-4.1.6-8.3.9-12.5.7 2.7-1.8 5.7-3.1 8.8-4"/><path d="m222 317c1.5-1.2 3.1 1.4 1.6 2.4-1.5 1.2-3.1-1.4-1.6-2.4"/><path d="m200 326c2-1.5 3.9-3.6 6.6-3.6 2.9-.1 7.5-.4 8 3.4-1.9-.9-3.9-2-6-1.6-3.7.8-6.7 3.2-10.1 4.8-2.8 1.4-6 1.5-9 2 0-1.7 0-3.3-.1-5 3.4 1.2 7.6 3.2 10.5-.1"/><path d="m132 325c3 .4 6.1.9 9.1 1.3.3 1.3.7 2.6 1 3.9-.6-.1-1.9-.2-2.5-.2-2.7-.4-5.3-.8-7.9-1.2.1-1.3.2-2.5.3-3.8"/><path d="m168 330c2.8-2.9 7-3.9 10.9-3.2 2.8.7 3.6 3.9 4.9 6.1-1.5 3.5-3.1 6.9-4.8 10.3-3.6-1-7.2-2-10.8-2.9-.6-1.5-1.2-2.9-1.8-4.4.5-2 1-4 1.6-5.9"/><path d="m186 328c.5 1.3 1.1 2.6 1.5 3.9-.4.1-1.3.4-1.7.5.1-1.5.1-3 .2-4.4"/><path d="m221 333c1.2-1.8 3.3-2.6 5-3.6 1 .6 2.1 1.2 3.1 1.8-1.3 1.8-2.7 3.6-4 5.4-.6.8-1.1 1.6-1.7 2.4 1.3 1.2 2.6 2.4 4 3.6-1.8-.5-3.6-.9-5.4-1.3-.6-2.7-1.8-5.5-1.1-8.3"/><path d="m238 352c1.9-.4 3.9-.9 5.9-1.3-.9 1.6-1.8 3.3-2.7 4.9 1.3.8 2.6 1.6 3.9 2.4-3.3 2-6.6 3.8-10 5.4.1 2.8 0 5.8.8 8.5 2.4 1.4 5.4-.6 7.9-.9.1.8.4 2.4.6 3.1 1.6-1.7 3.2-3.3 4.8-5-2.3 3.8-4.8 7.6-8 10.7-4.1-1.8-8.4-3.3-12-5.8-1.8-1.1-2.9-3.3-2.1-5.3 1-4.2 4.5-7 7.6-9.6 1.7-2.1 2.6-4.7 3.5-7.1"/></g><g style="fill:#7f7553"><path d="m225 12.4c3.2 2.5 6.6 4.8 10.1 6.8-.8-.1-2.4-.4-3.3-.5.1.9.2 2.6.2 3.5.6-.1 1.8-.2 2.4-.3-1.4 2.1-3.2 4.4-2.8 7.1.1 2.2 1.8 3.8 3.1 5.4-1.1-.5-2.2-.9-3.2-1.3-.3-3.7-.3-7.6-2.5-10.7-.3-.5-.6-1-.8-1.5.7-1 1.4-2 2.1-3.1-.6-.7-1.2-1.5-1.8-2.2-1 1.4-2 2.8-3 4.2-1.1.1-2.2.2-3.3.4.9-2.6 1.9-5.1 2.8-7.7"/><path d="m77 19.4c4.1.3 8.3.1 12.2-1.1-.7 1.2-1.3 2.5-1.9 3.8 1.6 0 3.3 0 4.9 0-.7-1.3-1.5-2.7-2.2-4 1.5-.3 3-.5 4.5-.6.2 3.9-1.2 7.6-3.7 10.6-1.9-1.1-3.6-2.4-5-4-2-3.1-5.5-4.1-8.9-4.7"/><path d="m199 20.4c1 .5 2 1.1 3 1.6-.4 2.2-.9 4.4-1.3 6.7-2 .4-3.9.9-5.9 1.4 1.4-3.2 2.9-6.4 4.2-9.6"/><path d="m204 22.7c1.1 1.3 2.1 2.6 3.1 4-.8.1-2.5.3-3.4.4.1-1.4.2-2.9.3-4.3"/><path d="m92 27.9c1.2-1.3 2.4-2.6 3.6-3.9 1.4 2.6 3.5 5 3.8 7.9-.5 2.8-2.2 5.1-3.4 7.6-1.2-.2-2.4-.4-3.5-.5.6-1.4 1.3-2.8 2-4.2.6-1.3 1.1-2.6 1.6-3.9-1.3-1-2.7-2-4-2.9"/><path d="m73 36.5c1.8-.6 3.7-1.2 5.5-1.8-.1 2.3-1.7 4-3.1 5.7-.8-1.3-1.6-2.6-2.4-3.9"/><path d="m190 40c2.2-2.5 4.8-4.5 7.9-5.7-.7 3.1-2.2 5.9-4.4 8.1-1.2-.8-2.4-1.6-3.5-2.4"/><path d="m230 70c1.4-3.8 3.4-7.4 6-10.5-.5 2-.9 4-1.3 6-1.3 5.2-3.5 10.5-7.6 14-2.1.2-3.2-1.9-3.6-3.6 2.2-2 5.5-3 6.5-6.1m-4.6 5.9c-.5 1.6 0 2.2 1.7 1.7.5-1.6 0-2.2-1.7-1.7z"/><path d="m228 82c2.4-1.1 5-1.9 7.7-2.5 1.2 1.9 2.3 4 3 6.1l-.8-.5c-1-.6-1.9-1.2-2.9-1.8-.6 2.4-1.1 4.7-1.6 7.1-.6 2.9-1.2 5.9-2 8.8-.7-1.3-2.1-2.5-1.3-4 1.3-4.3 1.9-8.7 2-13.2-.7 0-2.2 0-2.9.1h-1"/><path d="m281 93l.6.7c1.1 2.8 3 5.4 6 6.3 5.1 1.6 10.7 3 16 1.9.1 2.3.1 4.6.1 6.8-2.2-1.7-4.2-3.8-6.8-5.1-2.9-1.1-6.1-1-9-2.2-2.3-.9-4.3-2.2-6.5-3.3-1.4-.7-2.8-1.5-4.2-2.2 1.2-1 2.5-2 3.7-3"/><path d="m209 96c.1-.3.2-1 .3-1.4 2.1 1.1 4.2 2.1 6.4 3.2-1.1 1.5-2.1 3-3.3 4.4-1.1-2.1-2.2-4.1-3.3-6.2"/><path d="m317 112c4.5 3.2 10 4.3 14.6 7.5 2.1 1.3 4.1 3.2 6.6 3.8 4.9 0 8.1-4.3 11.9-6.8 3.6-2.9 8-4.5 12.6-5 0 .3-.1 1-.2 1.3-8.1 2.2-13 10.4-21 12.5-3.8 1-6.6-2.2-9.4-4.2-4.5-3.5-10.7-4-14.5-8.6l-.4-.5"/><path d="m304 121c4.7 1.4 9.4 2.7 13.8 4.8-1.6.4-3.1.8-4.7 1.2-3-2.6-6.8-4.5-10.8-3.9.6-.7 1.1-1.4 1.7-2.1"/><path d="m189 174c1-3.8.4-9 4-11.3 1.5 2.8 1.3 6.2 1.3 9.3-1.8.7-3.6 1.4-5.4 2.1"/><path d="m214 171c3.2-2.8 6.7-5.2 10.6-7 .1 1 .2 1.9.3 2.9-1.5 1.3-2.9 2.6-4.4 3.9-.6.7-1.2 1.3-1.8 2.1.9 2.4 2.6 4.6 2.9 7.2-1.2 2.5-3.4 4.2-5.3 6 1.4-2.2 3.1-4.3 4.1-6.8-.7-2.4-2.7-4.9-5.3-5.1-3.6-.4-6.7 1.6-9.9 2.9 2.6-3.6 6.9-4 11-3.9-.7-.8-1.4-1.5-2.2-2.3"/><path d="m198 166c1 .2 2 .5 2.9.7-1.2 3.9-2 7.9-2.7 12-1.1-.7-2.3-1.2-3.3-2-.8-3.8 1.1-7.5 3.1-10.7m-1.9 7.6c-1.6 3 3.3.1 0 0z"/><path d="m226 169c1-.9 2-1.8 3-2.6 1.3 3.4 2.7 6.7 3.9 10 .1.7.3 2 .3 2.7-1 2.6-2.5 4.9-4.1 7.1-.8.8-1.6 1.5-2.3 2.3-.9-1.6-1.9-3.1-2.9-4.7.9-.4 1.7-.8 2.6-1.2 1.1-1.4 2.4-2.8 3.1-4.4-.2-2.7-1.7-5.2-2.8-7.6-.2-.4-.6-1.2-.8-1.7m2.1 1.2c-1.6 3 3.3.2 0 0m2 7.9c0 1.3.1 2.5.1 3.8.4-.1 1.3-.2 1.7-.2.1-1.2.1-2.4.2-3.6-.5 0-1.5 0-2 0z"/><path d="m223 179c.7-1.4 1.4-2.8 2.1-4.2 2.5 1.6 2.5 4.2 1.3 6.7-1.2-.8-2.3-1.7-3.5-2.5"/><path d="m257 216c1.3 4.6.9 9.3 1.1 14-2.3-.1-4.6-.2-6.9-.3 0-.6 0-1.8 0-2.4.1-.3.2-1 .3-1.4 1.9.8 3.7 1.5 5.6 2.3-.1-2-.2-3.9-.3-5.9 0-2.1.1-4.2.1-6.3"/><path d="m291 261c1.1-.8 2.2-1.5 3.4-2.2.3 1.4.6 2.8 1 4.3-.8.8-1.6 1.6-2.4 2.5-.7-1.4-1.7-2.8-1.9-4.5"/><path d="m115 324c.5 0 1.4-.1 1.8-.1 3.7 2.1 7.5 4.1 11.7 4.7 1 .2 2 .3 2.9.5 2.7.4 5.3.8 7.9 1.2 2.8.4 5.6.9 8.4 1 5.7.3 11.3.9 17 .6.3-.2.8-.6 1.1-.9.3-.3 1.1-.9 1.4-1.2-.6 2-1.1 3.9-1.6 5.9-.3.4-.8 1.2-1.1 1.6-.1-.8-.2-2.5-.3-3.3-7.5-1.8-15.3-.7-22.9-1.8-9.2-1.1-18.9-2.5-26.5-8.2"/><path d="m208 324c2.1-.4 4.1.7 6 1.6l.3.7c-2.8-.1-5.9-.9-8.6.4-3.9 1.8-7.5 4.5-11.9 4.9-3.3.8-7.6.3-9.7 3.5-2.4 3.4-4.3 7.2-5.9 11-2 4.5-1.4 9.6-1.3 14.4-.7-.6-1.4-1.1-2.1-1.7.7-5.5 1.2-11.2 3.6-16.3 1.6-3.4 3.3-6.8 4.8-10.3.5-.1 1.4-.4 1.9-.5.4-.1 1.3-.4 1.7-.5.5-.1 1.6-.3 2.1-.4 3-.5 6.2-.6 9-2 3.4-1.6 6.4-4.1 10.1-4.8"/></g><g style="fill:#805319"><path d="m217 23c3.7-1 7.5-1.6 11.3-2.3.3.5.6 1 .8 1.5-.6 1.1-1.2 2.2-1.6 3.3.7 1.1 1.5 2.1 2.3 3.1-1.3.3-2.6.5-3.8.8 2.1 2.6 3.9 5.5 5.3 8.7.4.3 1.2.8 1.6 1.1-1.2.8-2.3 1.7-3.5 2.6 2 1.9 4.4 3.5 5.9 5.8.7 1.9-.1 4.1-.2 6-.8-.1-1.7-.2-2.5-.3.3 6.1-2.8 11.6-5.4 17-1 2.4-3.8 3.5-6.2 3.3-1.7-.6-3.1-2-4.5-3.1-1.1 0-2.1 0-3.2 0 .5-1.4 1.1-2.8 1.6-4.2-1.5 0-2.9 0-4.4 0 .6-1 1.2-2.1 1.8-3.1 1.4-2.5 2.5-5 3.6-7.6.6-.1 1.7-.2 2.2-.3-.9 3.3-1.8 6.6-2.8 9.9 1.4-1.8 2.9-3.5 3.8-5.6.5-2.4-.4-4.7-.8-7-6.4-.1-12.8-1.5-18.6-4.2-.6-5.7-.1-11.5 2.2-16.8 3 1.3 5.9 2.8 8.7 4.4-1.3.4-2.5.7-3.7 1.1-.7 2-1.3 4-2 6-1.1-1.3-2.1-2.6-3.2-3.9.9 2.8 1.1 6.4 3.8 8.2 3.2 1.9 7.1 3.3 10.8 2.4 4-1.1 5.1-5.6 7-8.8.8-1.4 1.6-2.8 2.5-4.2-.2-.6-.5-1.3-.7-1.9-3 .6-6 1.5-9 1.2-3.2-.8-4.3-4.3-5.3-7 2.7 1.8 5.4 4.6 8.9 4.4 3-.4 2.8-3.9 3.3-6.2-2.1-1.3-4.2-2.6-6.2-4m9.6 15.4c-.3 2.9-.1 5.9-1.3 8.6-1 1.5-2.7 2.3-4 3.4.5 1.8 1.1 3.7 1.7 5.5 3.6-3.8 6.4-8.6 6.4-14 .2-1.8-1.7-2.5-2.7-3.5m-3.3 19.7c-1.9 1.5-1.8 4.1-2.1 6.3-1 .3-1.9.7-2.9 1 .5 2.1 1 4.2 1.6 6.3 1.6-.3 3.2-.5 4.8-1.1 2-4.6 3.5-9.4 5.6-13.9-2.3.1-5.2-.7-6.9 1.4z"/><path d="m71 61c5 .1 8.8-3.5 13-5.4-.8 2.2-1 4.5-.6 6.7-.7-.4-1.3-.9-2-1.3-.5 2.6.4 7-3.3 7.4-4.9 1-9.9.3-14.8.1-.6-2.4-1.2-4.9-1.8-7.3 3.1-.2 6.2-.2 9.2-.2"/><path d="m109 256c3.7-2.2 7.9-3.9 12.3-3.7-.2.7-.7 2-.9 2.7-3.3 1-6.6 2.2-9.7 3.7-.6-.9-1.1-1.8-1.7-2.7"/><path d="m213 268c1.7-.3 3.4-.6 5.1-.9.9 1.5 1.8 3 2.8 4.4 1-.4 1.9-.8 2.9-1.2.9 3 1.7 6 2.3 9.1-1.2-.1-2.5-.1-3.7-.1-.7-2-1.5-4.1-2.3-6.1-1 .9-2 1.8-3 2.6.9 2 1.7 4 2.6 6-2.4.4-4.9.8-7.3 1.2-.1-1.4-.2-2.8-.2-4.1 1.8-1 2.9-2.9 2.3-5-.4-2-.9-3.9-1.4-5.9"/><path d="m100 283c1.6-3.4 4.2-6.4 8.3-6.4.9 5.1 1.7 10.2 2.4 15.3-3.5 2.8-7 5.7-10.4 8.6-3.3-5.2-4-11.4-3.7-17.4.3-.3.8-1 1.1-1.3.7.4 1.5.8 2.2 1.2"/><path d="m230 297c1.2-2.5 2.4-5 3.7-7.5.9 3.1 1.9 6.3 2.4 9.6-.5 2.4-1 4.9-1.4 7.3-3.4 1.4-6.9 3.3-10.7 2.8-5.8-.6-11.2-2.7-16.8-4.2-.7-1.5-1.5-3.1-2.2-4.6 1.6-.1 3.2-.2 4.8-.4-1.3-1.8-2.5-3.6-3.7-5.5 1.4 0 2.7 0 4.1 0 3.4.6 6.3 2.3 8.3 5.2 1.6-3.6 4.3-6.6 7.8-8.4.7.8 1.4 1.6 2.1 2.4.6 1.1 1.1 2.2 1.7 3.3m-7 6.6c2.9-.1 5.7.4 8.4 1.3.7-2.6-.3-5.2-2.5-6.8-2.2 1.6-4 3.6-6 5.5z"/></g><g style="fill:#7d0c06"><path d="m210 24.8c2.2-.6 4.4-1.2 6.5-1.7 2 1.4 4.1 2.8 6.2 4-.5 2.3-.3 5.8-3.3 6.2-3.5.2-6.2-2.6-8.9-4.4-.2-1.4-.4-2.7-.6-4.1"/><path d="m207 37c1.2-.4 2.5-.7 3.7-1.1 3.9 2.3 8.3 3.9 12.7 4.9-1.8 3.2-2.9 7.7-7 8.8-3.7.9-7.7-.4-10.8-2.4-2.8-1.8-2.9-5.4-3.8-8.2 1.1 1.3 2.1 2.6 3.2 3.9.7-2 1.3-4 2-6"/><path d="m198 47.7c.4.2 1.1.5 1.4.7 5.8 2.8 12.2 4.2 18.6 4.2.4 2.3 1.2 4.7.8 7-.9 2.1-2.5 3.8-3.8 5.6 1-3.3 2-6.6 2.8-9.9-.6.1-1.7.2-2.2.3-1.1 2.6-2.2 5.2-3.6 7.6-2.4-.3-5-.3-7.3-1.3-2.8-2.6-3.9-7.1-8-8.2.4-2 .9-4 1.3-6"/><path d="m223 58c1.7-2.1 4.5-1.3 6.9-1.4-2.1 4.5-3.6 9.3-5.6 13.9-1.5.6-3.2.8-4.8 1.1-.5-2.1-1.1-4.2-1.6-6.3 1-.3 1.9-.7 2.9-1 .3-2.2.2-4.8 2.1-6.3"/><path d="m198 81c.9-4.3 1.2-8.9 3.6-12.6 1.2.9 2.3 1.8 3.5 2.7 1-.1 2-.3 3-.4-3.3 3.4-5.5 8.3-10 10.3"/><path d="m172 73.9c2.1-.8 4.2-1.6 6-2.9l.6-.4c.6.5 1.7 1.5 2.2 2 1.6 1.2 3.2 3.1 5.4 2.7 2.6-.9 4.2-3.3 5.9-5.3 1.2 1 2.7 1.8 3.5 3.1.9 3.4-.4 6.9-.7 10.4-.7 4.6 1.2 9 1.4 13.5 0 3.1-1.8 5.8-2.1 8.8 0 2.3.6 4.6.7 6.9-2 2-5.1 1.8-7.7 2.3-.3-2.6-.7-5.2-1.2-7.8-1.5-3.9-4.2-7.3-5.9-11.1-1.5-4.3-1-9-3.3-13-2.1-1.8-4.7-2.8-7.2-3.8-.5-1.3-.9-2.7-1.3-4 1.2-.5 2.4-.9 3.6-1.3"/><path d="m199 87c1.4-5.1 5.5-8.7 9-12.4 1.4 1.4 2.8 2.9 4.2 4.3-.8 1.5-1.6 3-2.6 4.5-1.2 1.7-2.5 3.2-3.8 4.9 1.4.7 2.8 1.4 4.2 2.1-.3 1.3-.5 2.7-.8 4-.1.3-.2 1-.3 1.4 1.1 2.1 2.2 4.1 3.3 6.2-2.4 1.8-4.9 3.5-7.3 5.2.6 1.4 1.1 2.8 1.7 4.2.6 1.8.9 3.6 1.2 5.5-3.2 0-6.4-.1-9.6-.2 1-9.9-2.1-20 .8-29.7"/><path d="m229 82c.7 0 2.2-.1 2.9-.1-.1 4.5-.7 8.9-2 13.2-1.7-4.2-1-8.8-.9-13.2"/><path d="m233 91c.5-2.4 1.1-4.8 1.6-7.1 1 .6 1.9 1.2 2.9 1.8-.6 2.1-1.1 4.2-1.6 6.3-1-.3-1.9-.7-2.9-1"/><path d="m236 98c7-2.8 14.7-2.4 22-3.5-.8 2.2-1.6 4.5-2.4 6.7-.3.9-.7 1.7-1 2.6-1.9 0-3.8.3-5.7-.2-2.5-1.7-3.6-4.8-5.2-7.3-3 1.5-5.9 3-8.7 4.9.3-1.1.6-2.1.9-3.2"/><path d="m79 120c4.7-.8 9.6 0 14.3.2 1 .1 2.1.1 3.2.2-.2 1.4-.4 2.7-.5 4.1-.6 2.7-.1 7-3.6 7.6-4.5 1.1-9.3 1.2-13.9 1.8-.9-.7-1.7-1.4-2.6-2.1.6-4 .3-8.7 3.1-11.8"/><path d="m311 187c.5.8 1 1.7 1.5 2.5-4 2.8-7.6 6.2-11.7 8.9-2.1 1.5-4.8 1.2-7.3 1.2-.3-2.7-.9-5.6-3.3-7.2 1.3-1.2 2.3-3.1 4.3-3.3 5.5-.9 11.4.8 16.5-2.1m-12.9 5.4c3.2 3 8.8 2.4 10.3-2-3.6-.6-7.4-.4-10.3 2z"/><path d="m238 220c3.2 3.7 6.5 7.3 9.2 11.3 1.2 1.5.2 3.4.1 5-7-2.1-9-9.9-9.3-16.4"/><path d="m226 329c3.5-.8 7-.6 10.6-.2-1.2 2.8-2.1 6-4.8 7.7-2.1 1.4-4.5.2-6.7-.3 1.3-1.9 2.6-3.6 4-5.4-1-.6-2.1-1.2-3.1-1.8"/></g><g style="fill:#7c3308"><path d="m82 29.7c1.8-1.7 3-3.7 4.4-5.7 1.4 1.7 3.1 3 5 4 1.1 2.2 2 4.4 3 6.7-.7 1.4-1.4 2.8-2 4.2-.8 3.1.4 6.3 1.2 9.2-5.5 5.3-13.9 6-18.8 12-.5-2.6-.6-5.5-2.1-7.8-2.3-.9-6.2-.6-6.2 2.5 1 2.6 3.4 4.4 5.4 6.3-3.1 0-6.2 0-9.2.2-.7-3.4-1.1-6.9-1.1-10.5.4-1.4.9-2.7 1.4-4 1.1.1 2.2.3 3.2.4.8-4.1 2.2-8 4-11.6 1.2.2 2.3.5 3.5.7.8 1.3 1.6 2.6 2.4 3.9 1.5-1.6 3-3.3 3.1-5.7 0-.6 0-1.7 0-2.3-2.1.5-4.3 1-6.4 1.4.9-1.9 1.8-3.8 2.8-5.7 2.1.6 4.2 1.4 6.4 1.6"/><path d="m179 52c1.5-4.5 3.3-9.2 7-12.4.5.7 1.6 2.1 2.2 2.8.7-.7 1.4-1.5 2.1-2.2 1.2.8 2.3 1.6 3.5 2.4 1.1.7 2.3 1.4 3.4 2.1.3 1 .7 2 1 3-.4 2-.8 4-1.3 6-5.9-.2-11.9-.1-17.8-.2.2 1 .3 2 .5 3 1.2-.2 2.4-.4 3.6-.7 3.1 1.8 6.5 2.7 9.7 4.2 3.1 1.6 3.7 5.2 4.4 8.2-1.5.1-3.1.2-4.6.3-.3.3-.8 1-1.1 1.4-1.7 2-3.3 4.3-5.9 5.3-2.2.4-3.8-1.5-5.4-2.7 2.4.1 4.8.1 7.2.2.1-1.1.2-2.1.3-3.2-1.9-.4-3.8-.9-5.6-1.4 2.6-2.9 6.6-2.7 10.2-2.8-2.8-2.2-5.7-4.8-9.4-4.8-3.6 1.8-3.3 6.8-4.9 10l-.6.4c.1-.3.3-1 .4-1.3.7-2.6 1.3-5.1 1.8-7.7.9-3.4-2.1-6.6-.9-9.9m3.8-4.2c.8 0 2.3 0 3.1-.1-.2-1.8-.3-3.6-1-5.3-2.6.5-1.8 3.4-2.1 5.4z"/><path d="m237 68c.5 3.1.4 6.4 1.8 9.3 3.3 2.6 6.8 4.9 10.7 6.5 3.2 1.4 6.3-1.1 9.2-2.3-2.2 1.5-3.9 3.6-5.5 5.7 2.7 0 5.4 0 8.1-.1.1-1.5.3-3 .4-4.6.9 2.6.9 5.9 3.2 7.8 1.5 1.5 3.2 2.8 4.9 4.1.1-.8.2-2.4.3-3.2.5.7 1 1.5 1.6 2.2 3.1-1.4 6.6-2 9.6-.1-1.3 1-2.5 2-3.7 3 1.4.7 2.8 1.5 4.2 2.2-3.4 0-6.8.8-10.1.1-3.1-2.3-4.6-6.2-8-8-2.6-.4-4.9 1.5-7.3 2.5-3.9-4.9-8.2-9.9-14.3-12.2-2.9-1.3-7-2-7.8-5.7 0-2.6 1.8-4.8 2.9-7"/><path d="m183 107c.7.1 2.1.3 2.7.3.6 2.6.9 5.2 1.2 7.8.1 1.1.3 2.2.4 3.3 3.9 2.2 7.1 5.3 10.8 7.7 3.6-.9 6.1-4.2 9.1-6.3 2.5.2 5 .4 7.6.6 0 1.1.1 2.2.1 3.4.9-1.3 1.8-2.7 2.9-3.9 1.4 1.3 2.7 2.7 3.9 4.1-.9 1.5-1.7 3.1-2.6 4.7 1.3 0 2.6-.1 3.9-.1-3.8 6.3-8.1 12.2-13 17.6-3.4 3.7-5.9 8-8.1 12.5-1.4-1.1-2.8-2.2-4.2-3.2-.7.5-1.4 1-2.2 1.6-3.8 2.7-7.2 6-10.3 9.5.2-2 .5-4 .7-5.9-2 .4-3.9.7-5.9 1.1.3.7.7 1.5 1 2.2-.4 1.4-1.1 2.9-1 4.4 1.1 1.7 3.2 2.5 4.9 3.6-.6 2.7-1.4 5.3-1.5 8.1 1.1 2.3 3.3 3.8 5 5.7 2.2 2.1 3.5 4.9 4.4 7.8-2.2 1.2-5.1 1.8-6.4 4.2-.1 2 .4 3.9.8 5.8-.4.4-.8.7-1.2 1.1-2.9 2.6-5.7 5.2-8.4 7.9-.1-1.8-.3-3.6-.3-5.4-2.1 3.2-4.7 6.2-7.8 8.4-.4-1.7-.9-3.3-1.2-5 .1-1.4-.1-2.7-.5-4 2.3-4.9 4.8-9.8 6.4-14.9 3.3.4 6.7.1 9.9-.5-1.3-.3-2.7-.7-4.1-1 .5-1.1 1.1-2.3 1.6-3.4-2.2-.9-4.4-1.8-6.6-2.8 2.2.2 4.3.3 6.5.3-1.8-1.8-4.1-3-6.7-2.8-1.6-.1-3.3-.3-4.9-.4.5-1 1-2.1 1.5-3.1 1.4-3.1 2.6-6.3 3.8-9.6-.9-.3-2.6-.9-3.5-1.2-.7.7-1.4 1.5-2 2.2-.4-2-.8-4-1.4-6-.9-2.1-1.9-4.1-3-6.1-1.4 1-2.9 2.1-4.3 3.1 4.4-8.2 4.7-17.9 4.7-27-.3-6.5.6-13 1.2-19.5 5.7.2 11.3 1.4 16.9 2.4-.1-.6-.3-1.9-.4-2.5-1.5-.5-2.9-.9-4.4-1.3 2.2.1 4.4 0 6.7 0-.8-1.8-1.7-3.5-2.7-5.2m13.4 22.4c-1.9 2.7-1.1 6.1-1 9.2.2 3-.8 6-1.4 8.9 5.1-2.8 2-9.3 5.2-13.2.7-1.5 2.8-3 1.2-4.6-1.2-.5-2.8-1.2-4-.3z"/><path d="m140 116c6.8-4.8 15.4-4.5 23.3-5.1.3 0 .8 0 1.1 0 .5.8 1.1 1.6 1.7 2.5-2.3.6-4.6 1.3-6.8 2.1.5 1.7 1 3.5 1.5 5.2-1.1 1.3-2.3 2.7-3.4 4 .9.7 1.8 1.4 2.8 2.1-.7 1.4-1.5 2.8-2.2 4.1.1 2.6.2 5.2.2 7.8 1.3.8 2.7 1.5 4 2.3-3 2.7-6.5 4.9-10.6 5.2-.7-2.5-1.3-5-2-7.4 2-4.9 5.7-10.8 2.3-15.9-3.4-3.1-7.8-4.8-11.8-6.9"/><path d="m111 117c4.6.2 9.2.5 13.7.9 4.7.2 9.7.8 14-1.4 2.5 4.9 2.3 10.4 2.4 15.8-1 .9-2 1.8-3 2.6 2.2 1.4 4.2 3.1 5.8 5.1-1.7.4-3.4.8-5 1.1-3.9.7-7.8 1.5-11.8 1.9-2.5-.3-5-.9-7.5-1.3-.2-1.2-.4-2.5-.5-3.7.4-5.1-3.3-8.8-6-12.6-1.9-2.4-1.9-5.5-2.2-8.3"/><path d="m230 135c4.5-.5 7.4-4.1 9.2-7.9 2.9.4 5.6 1.6 7.5 3.8 4.8-.8 8.9 1.8 12.3 5-3.7 4-7.3 8-10.9 12.2.9 1.8 1.7 3.8 2.9 5.4 1.7.5 3.4.7 5.1.9.1-2.1-.1-4.3.3-6.4 1.1-2.7 3.8-4.5 4.8-7.3.5-2.6-.7-5.2-1.8-7.5 2.7 1.6 5.9 2.1 8.9 3-.9 0-2.6-.1-3.5-.1 2.1 1.8 4.2 3.6 6.4 5.2-1.3 1.4-2.7 2.8-3.9 4.2 2.8-.8 5.5-2.1 7.8-4.1 3.9 5.1 7.5 10.5 12.4 14.7-.9-.3-1.9-.5-2.8-.8-.7 1.8-1.5 3.5-2.2 5.3 1.3.1 2.7.3 4 .4 5 1.2 8.7 5.1 11.9 8.9 4.5 5.5 9.9 10.3 13.2 16.7-5.1 2.9-11 1.3-16.5 2.1-2 .2-3 2-4.3 3.3-2.6-1.4-5.3-2.9-7.5-4.9-4.3-4-9.8-6.7-13-11.8.6-1.7 1-3.4 1.5-5.1-1.4.2-2.8.4-4.2.6-.5 1.2-1.1 2.3-1.6 3.4-.8-1.3-1.5-2.5-2.4-3.7 1.7-1.1 3.4-2.2 5-3.3-1.2-1.7-2.4-3.4-3.6-5.2-.1 1.4-.2 2.9-.3 4.4-4.2-3.4-7.3-8-12.4-10.2-.9-.6-1.8-1.2-2.7-1.8-1.6-2.2-4.9-.1-2.4 1.8-1.1 3.4-2.5 6.8-3.8 10.1.2 2 .6 3.9 1.1 5.9 1.3 1.7 2.8 3.3 4.3 4.9-.2.8-.3 1.6-.5 2.3-.3 1.2-.6 2.4-.8 3.7 1.8 1.5 4.2.5 6.2.3 0 .3.1 1 .1 1.3-1.6.1-3.2.3-4.8.4.6 1.5 1.3 2.9 1.9 4.4-2.4 5.1-2.8 10.9-2.3 16.5 2.1.4 5.6.7 5.1 3.8-1.3 4.8-6.7 5.5-10.9 5.8.5 1.4 1 2.9 1.6 4.3.8 1.9 1.6 3.8 2.4 5.6-3.8-3.2-6.6-7.3-9-11.4-.4-.5-1.1-1.5-1.4-2.1.4-.2 1.2-.6 1.6-.7.4-.2 1.2-.6 1.7-.8.4-1.6.8-3.1 1.3-4.7 1.5 1.4 2.9 2.7 4.4 4.1.7-3.8 1.9-7.7 1.7-11.6-.7-2.1-2.4-3.6-3.7-5.3-1 1-2 1.9-3 2.9-.1-.6-.3-1.7-.5-2.2-.8 1.1-1.7 2.1-2.5 3.2-.7 0-1.9 0-2.6 0-1.5-2.2-3.8-3.7-6-5.1-.5-1-1-2-1.5-3 .8-.7 1.6-1.5 2.3-2.3 1.7-.7 4-.7 5.1-2.4 1.8-2.5 1.3-5.6 1.1-8.4-.7 1.2-1.4 2.5-2.1 3.8-.1-.7-.3-2-.3-2.7-.2-2.3-.3-4.6-.3-6.9 1.3-.6 2.5-1.2 3.8-1.9-1.2-1.3-2.3-2.7-3.5-4-1.3.9-2.7 1.8-3.9 2.7-1 .8-2 1.7-3 2.6-.4-.9-.8-1.7-1.2-2.6-.1-1-.2-1.9-.3-2.9-3.8 1.8-7.4 4.2-10.6 7-2.3-.6-4.6-1.3-6.9-2.1 1.4-4.4 2.9-9 6.1-12.4 4.5-4.8 8.8-9.8 13.8-14 2.2-1.7 2.3-4.6 2.7-7m1.4 8c-.3.4-.8 1.3-1.1 1.8-2.3 1.3-4.2 3.3-5.3 5.7 2.3.8 4.6 1.5 6.8 2.2 0-1.8.3-3.7-.5-5.3.7-1.1 1.4-2.1 2.1-3.2-.5-.3-1.6-.9-2.1-1.2m36.9 19.6c.3 2 .9 4 2.8 5.1.1-1.9.2-3.8.3-5.8-.8.2-2.3.5-3 .7m6.7 5.8c3.5-.4 4.9-3.3 5.4-6.4-2.8 1.2-5.6 3-5.4 6.4z"/><path d="m210 183c1.8 1 3.8 1.7 5.8 2.4-.7.6-1.4 1.3-2.1 1.9 1.8.3 3.5.6 5.3.9-2.4-.1-4.8 0-7.2 0 .1.4.2 1.2.2 1.5.1.7.3 2.1.4 2.8.4 3.8 1.7 8 5.1 10.1 1.6.5 3.3.6 5 .8-1.5 1.2-3.1 2.3-4.2 3.9-.4 3.2.3 6.5-.6 9.6-.9 2.9-2.1 5.7-3.4 8.5-3.2 4-2.4 9.5-4.9 13.9-1.2-1.5-3.7-2.7-3.1-4.9 1-4.8 3.2-9.2 4-14-5.9 6.8-6.2 16.8-4.3 25 .7-.3 1.3-.5 2-.8-.2-1.7-.3-3.3-.5-5 .3.1 1 .2 1.3.3.8 2.1 1.6 4.1 2.4 6.2.7 2.8 2.4 5.2 4.5 7.2-1.9 3.6-1.8 7.8-1 11.7 4.7-2.3 8.4-6 11.4-10.3.8.6 1.6 1.1 2.3 1.7-.7 6.8 1.3 13.5 2.1 20 .7 5.5 4.3 9.8 7.4 14-.8 2.6-1.6 5.2-2.2 7.8-.5-3.3-1.5-6.4-2.4-9.6-1.3 2.5-2.5 5-3.7 7.5-.6-1.1-1.1-2.2-1.7-3.3-.7-3.4-1.1-6.8-1.5-10.2-2.2.9-4.4 1.9-6.7 2.7-1.5-.1-2.9-.1-4.4-.2-1.2-.1-2.3-.2-3.5-.2-1.6-.1-3.3-.2-4.9-.3 1-1.8 2.1-3.6 3.3-5.2.4-.2 1.2-.7 1.6-.9.1 1.4.2 2.8.2 4.1 2.4-.4 4.9-.8 7.3-1.2-.9-2-1.7-4-2.6-6 1-.9 2-1.8 3-2.6.8 2 1.6 4.1 2.3 6.1 1.2 0 2.5.1 3.7.1-.6-3.1-1.4-6.1-2.3-9.1-1 .4-1.9.8-2.9 1.2-.9-1.5-1.8-3-2.8-4.4-1.7.3-3.4.6-5.1.9.5 2 1 3.9 1.4 5.9-.7.9-1.3 1.9-2 2.9-.3-1.7-.7-3.3-1-5-2.7-1.2-5.3-2.5-8-3.8-1.6 4.9-2.8 9.8-4.9 14.5-1.6-.5-3.2-.9-4.8-1.4 2.8-3.9 4.4-8.4 5.5-13 .7-.8 1.4-1.6 2.1-2.4.2-1.9.1-3.7-.1-5.6-1.3.7-2.7 1.3-4 2.1-2.5 1.3-4.7 3.1-7.4 4-2.9-1.2 1.3-4 2.4-5.3-1.3-3-2.2-6.5-4.7-8.7-3.2-1-7.4.8-9.3-2.9 6.3-1.2 12.5.5 18.4 2.3-.4-4-1.1-8-2.1-11.9-1.4.2-2.8.3-4.1.4-1-1.1-1.9-2.1-3.1-3-1.3 0-2.3.9-3.5 1.3-5.4-3.8-11.8-6.7-15.4-12.4-1.9-2.8-2.4-6.3-2.7-9.7.3.8.9 2.5 1.2 3.3.6-.1 1.8-.2 2.4-.3.2-.7.6-2.1.8-2.8 3.8.4 7.4 1.9 10.5 4.1 4 2.8 8.3 5.2 12.6 7.5 1.5.8 3 1.6 4.5 2.4-.5-1.5-1-3-1.5-4.4 1-4.4 2.9-8.6 5.3-12.4.7.4 2 1.3 2.7 1.8-.2-2.4-.4-4.9-.7-7.3-.7 1.5-1.3 3.1-1.8 4.7.2-2.5.2-5.1.1-7.6-.6-5.9-3.6-12-1.3-17.9 2.2-2.9 6.2-3.4 9.4-4.5"/><path d="m246 219c3.4-2 6.9-4 10.3-6 .3.9.6 1.9.9 2.9 0 2.1-.1 4.2-.1 6.3-1.6.8-3.2 1.5-4.8 2.4-2.5-1.3-4.7-3.2-6.2-5.5"/><path d="m299 256c2.9-.6 5.9-1.1 8.7-2.3.9 1.4 1.4 3.4 3.1 3.9 5.4 1.6 11.2.7 16.4-.9-2.8 5.6-7.3 10-11 14.9 1.8-3.8 4.2-7.1 6.8-10.4-4.7 1.9-7.5 6.1-9.9 10.3-1.8-.5-3.7-.9-5.5-1.4-1 1.9-1.9 3.8-3.3 5.4-2.7 1.7-6.3.8-8.9 2.6 1.2 1.5 2.6 2.9 4 4.3-1.6-.3-3.1-.7-4.7-.9-.6-.6-1.2-1.3-1.8-1.9-1.8-1.9-3.6-3.8-5.4-5.6 0-1 .1-2 .1-3.1.1-1.7.2-3.3.3-5 1.4.3 2.8.7 4.2 1 .4-.5.9-.9 1.3-1.4.8-.8 1.6-1.6 2.4-2.5-.3-1.4-.6-2.8-1-4.3 3.2-1.1 6.6-1.5 10-1.8-1.9-.3-3.8-.6-5.7-.8"/><path d="m152 280c2.8-8.7 5.7-17.4 7.4-26.3 1 2.1 2 4.3 3 6.5-1.6 4.8-2.4 9.9-2.5 15 1.9.3 3.9.6 5.8.9 1.4-4.4 2.1-9 2.8-13.6.8-1.6 1.8-3.1 2.7-4.6 2.3 2.9 5.4 5.1 9.3 5.4-1.3 3.1-3.9 6.7-1.4 9.9 1.5 2.9 5.1 2.6 7.8 2.8-2.4 3.4-4.1 7.2-5.2 11.3-.2-.5-.7-1.5-.9-2-2.5-5.6-3.8-11.8-6.9-17-.5-.2-1.6-.5-2.1-.6-.3 4.2.1 8.5 1.6 12.5 1.4 3.7.7 7.8 1.3 11.6 1.2 2.4 4 2.9 6.4 3.3 1.5.2 3 .4 4.6.5-5 4.5-10.9 7.8-16.8 10.9-1.7-4.5-3.6-9-5.6-13.3-2.8 3.5-5.3 7.3-6.5 11.7 2.5-.1 5.1-.3 7.6-.5.5.8 1 1.5 1.5 2.3-2.9.3-5.9.4-8.7 1.4-2.8 1.5-4.4 4.3-6.4 6.6 4.7 1.2 9.4 1.9 14.2 1.6-3.1.9-6.1 2.2-8.8 4 4.2.2 8.3-.2 12.5-.7-.7-1.2-1.4-2.4-2.1-3.6 2.7-.7 5.4-1.2 8.2-1-.3 1.2-.6 2.4-.8 3.6 1.5-.2 2.9-.3 4.4-.5 1.2-.1 2.4-.2 3.7-.3.2-.8.3-1.5.5-2.3-1.9-.7-3.8-1.3-5.6-2 .4-.4 1.3-1.1 1.7-1.4 1.6.7 3.1 1.3 4.7 1.9-1-1.2-2.4-2.1-3.9-2.4 1.1-.7 2.1-1.4 3.2-2 .4.5 1.2 1.6 1.7 2.1.9 2 1.8 3.9 2.8 5.9l.4.9c.7 1.3 1.4 2.7 2.1 4 6-1.8 9.5-7.4 15-10 1.1 2 2.2 4 3.3 6-2.8 1.7-5.8 3.4-8.7 4.9.1 1.2.2 2.4.3 3.6-2.9 3.3-7.1 1.3-10.5.1 0 1.6 0 3.3.1 5-.5.1-1.6.3-2.1.4-.4-1.3-.9-2.6-1.5-3.9-.1 1.5-.2 2.9-.2 4.4-.5.1-1.4.4-1.9.5-1.3-2.2-2.1-5.4-4.9-6.1-3.8-.7-8.1.3-10.9 3.2-.3.3-1.1.9-1.4 1.2-5.8-2-12.6-3-18 .3-2.8-.2-5.6-.6-8.4-1 .6.1 1.9.2 2.5.2-.3-1.3-.7-2.6-1-3.9-3-.4-6.1-.9-9.1-1.3-.1 1.3-.2 2.5-.3 3.8-1-.1-2-.3-2.9-.5.2-.5.5-1.6.7-2.2-3.9-1.7-8-3.4-12.4-2.6-.5 0-1.4.1-1.8.1-1.5-.9-2.9-1.8-4.3-2.8.9-.1 2.7-.4 3.6-.5-2-2.4-4.3-4.6-6.6-6.8-3.7-3.5-5.6-8.4-7.9-12.8 3.4-2.9 6.9-5.8 10.4-8.6-.7-5.1-1.5-10.2-2.4-15.3 1.1-.1 2.3-.3 3.4-.3-1 5 .8 9.9 2.3 14.5 2.7-3.1 5.1-6.6 7.1-10.1 1.4-2.4 3.2-4.7 5.7-6 1-.1 1.9-.1 2.9-.1.4 2.1.8 4.3 1.3 6.4-.9.4-1.8.9-2.7 1.4-1.6 1.6-2.4 3.6-.7 5.5-2.6.2-5.3-.2-7.8.6-2.4 1.5-4 4.2-4.4 6.9.3 2.3 2 4.1 3.9 5.3 3.6-.4 5.5-3.9 7.4-6.6 3.8-6 7.8-11.9 11.3-18-1.3-.1-2.5-.1-3.8-.2-.1-1.3-.1-2.6-.1-3.9 2.4-.3 4.7-.6 7.1-.6 1.5.1 3.1.2 4.6.3-1.1 4.1-2.3 8.2-4.9 11.6-4.3 5.4-9.6 10.2-12.6 16.6.8.6 1.6 1.1 2.4 1.7.3.3 1.1.8 1.4 1-1 .4-1.9.8-2.9 1.3-1.1-.7-2.3-1.3-3.4-2-1.3 1.5-2.6 3.1-3.8 4.6 2.8 2 5.7 3.9 8.7 5.5 1-2.6 2-5.4 3.8-7.6 1-.7 2-1.4 3-2.1 4.7-5.3 9.7-10.6 12.3-17.3 1-1.9-.5-3.7-1.3-5.4.7-.7 1.4-1.3 2.1-2 .6.5 1.3 1.1 1.9 1.6m7.8-4.2c0 .8.1 2.4.1 3.2.7-.3 2.2-.8 2.9-1-6 1.8-7 8.5-10.8 12.6-3.9 4-5.4 9.7-8.9 14 2.2 1.4 4.4 3 6.7 4.3 2.6-2.8 3.4-6.7 4.8-10.2h-.7c-.1-.7-.3-2.1-.5-2.8.5.1 1.5.4 2 .5 5.3-4.7 7.7-11.3 9.9-17.8-.2-.4-.7-1.1-.9-1.4-1.6-.5-3.1-1-4.7-1.5m9.8 4.4c-.8 2.9-1.6 5.9-2.3 8.9.6.7 1.1 1.3 1.7 2 1.1-.6 2.3-1.1 3.4-1.7-.4-3.2-1.2-6.3-2.8-9.2m-1.3 13.4c0 2.3-.1 4.5-.1 6.8 3.3.6 6.3-.9 9.3-1.9-1.6-1.9-3.3-3.8-4.9-5.7-1.4.3-2.9.5-4.3.8m-28.9 18c-1.9-.1-3.2 1.6-4.6 2.7 3.1.9 6.1 1.8 9.1 2.8 1.7-1.4 3.9-2.5 4.6-4.7-.9-1.6-2.1-3-3.3-4.5l.2-1.1c-2.4 1-4.7 2.5-6 4.8z"/><path d="m224 289c.8.9 1.6 1.7 2.4 2.6-3.6 1.8-6.2 4.8-7.8 8.4-1.9-2.9-4.9-4.6-8.3-5.2-1-.6-1.9-1.2-2.8-1.8 4.1-.6 8.2.4 12.3.1 1.6-1.1 2.9-2.7 4.2-4.1"/><path d="m189 295c2.1-2.1 4.6-3.6 7.4-4.7.4.6 1.3 1.9 1.8 2.5-5.2 6-11.4 11-18.3 14.8-4.8 1.8-9.6 3.6-14.4 5-2.4.7-4.2-1.4-6-2.7 4-.6 8.3-.5 11.8-2.9 6.1-3.8 12.6-7.2 17.8-12.2"/><path d="m165 337c.3-.4.8-1.2 1.1-1.6.6 1.4 1.2 2.9 1.8 4.4 3.6.9 7.2 1.9 10.8 2.9-2.4 5.1-2.9 10.8-3.6 16.3l-.5-.4c-4.1-3.2-8.8-5.3-13.6-7.1-.9.5-1.7 1.2-2.5 1.9-3.1-.4-6.2-.7-9.3-.6 2.8-.5 6.1-.4 8.1-2.7 3.5-3.7 4.9-8.8 7.8-12.9"/></g><g style="fill:#5a4426"><path d="m162 70c2-1 4.1-2.4 6.4-2 3.2.5 6.3 1.4 9.6 1.6-.1.3-.3 1-.4 1.3-1.8 1.3-4 2.1-6 2.9-3.5-.2-6.7-1.8-9.5-3.9"/><path d="m215 87c1.6-.5 2.2 0 1.7 1.7-1.6.5-2.2 0-1.7-1.7"/><path d="m362 113c.2 3.9.3 7.9-.4 11.8-1 3-2.2 5.9-3.3 8.8-5.5.2-11 0-16.6.1.4-1.1.8-2.2 1.2-3.3 5 0 10 .4 14.9 1.3 2.2-6 3.3-12.3 4.2-18.6"/><path d="m137 178c3.8-8.4 8.9-16.4 10.6-25.7 1.5.2 3 .4 4.6.6-1.1 8.5-5.2 16-8.3 23.8-1.4 3.3-3.4 6.3-5.4 9.3-.2-2.7-.5-5.5-1.4-8"/><path d="m247 226c1.5.3 3 .7 4.5 1 0 .6 0 1.8 0 2.4 2.3.1 4.6.2 6.9.3 1.1 4.6 3.7 8.7 4.4 13.4-.3 4.7-2.7 9-2.7 13.8-.2 9 .1 18-.1 27 0 5.6-3 10.6-5.3 15.5-4.1 8.6-11 15.4-16.8 23-.8-.7-1.6-1.4-2.4-2.1 2-2.4 4-5 4.4-8.2.5.1 1.5.3 2 .3 1.2-3.3 3.8-5.6 6.6-7.6 1.6-.9.9-3 1.3-4.4 1.1-5.8 5-10.6 6.5-16.3.6-6.8-.5-13.5-1.3-20 .1-5.7 2.3-11 2.6-16.7.3-4.6.8-9.8-1.9-13.8-3.4-2-7.4-3.6-8.8-7.7"/></g><g style="fill:#7e4b07"><path d="m79 70c.5.1 1.3.2 1.8.2.8 1.2 1.7 2.4 2.5 3.6.6-1.3 1.2-2.7 1.7-4 .1 2.2.2 4.4.4 6.6-1.4.3-2.9.7-4.3 1 2.3 4.9 4.3 9.9 5.8 15 2.7 8.6 3.1 17.7 6.3 26 .1.3.2 1 .2 1.3-4.8-.2-9.6-1-14.3-.2-2.9 3.2-2.5 7.8-3.1 11.8-1.1-.8-2.3-1.5-3.5-2.2-2.2-9.7-2.6-19.7-3.8-29.5-.7-8-3.4-15.8-3.7-23.9 2.2 0 4.3 0 6.5 0 3-.2 5.9-1.2 8.7-2.3-.4-1.2-.8-2.4-1.2-3.6m-.5 14.2c-1.6-.1-1.8 2.7-.1 2.7 1.6.1 1.8-2.7.1-2.7m.3 5c-1.1.5-1.5 1.3-1.2 2.5 1.5 1.6 4.2 1.4 5.7 0 .6-2.6-2.6-3.2-4.5-2.5m6.5 22c.8 2.5 2.3 4.5 5.1 5-.1-2.5-.3-5-.8-7.5-1.4.9-2.9 1.7-4.3 2.6z"/><path d="m100 120c2.5.4 5 .8 7.4 1.3-1.6 6-3.7 12-3.7 18.3-7.9 2.3-16.2 1.4-24 2.3-.5-.2-1.4-.6-1.9-.8.2-.3.6-1 .8-1.3 1.5 0 2.9.1 4.4.2-.3-1.3-.7-2.6-1-3.9-1 1-2 2-3 3-.2-1.6-.5-3.2-.7-4.8 4.6-.7 9.3-.8 13.9-1.8 3.5-.6 3-4.9 3.6-7.6 1.2 1 2.3 2 3.5 3 .3-2.6.6-5.1.9-7.7m-7 16.6c-.5 1.6 0 2.2 1.7 1.7.5-1.6 0-2.2-1.7-1.7z"/><path d="m134 190c1.4-.8 2.9-1.6 4.3-2.3 1.7 1.9 3.2 4.1 5.5 5.4 2.3 1.2 4.9 1.7 7.5 2.3-.5 1.1-1.1 2.2-1.6 3.3.9.9 1.7 1.8 2.6 2.7-.5 1-.9 2-1.4 3 1.7 1 3.4 1.8 4.9 3.1 1.2 3.6.7 7.5.8 11.2 1.7-.6 3.4-1.1 5.1-1.7-1.2 3.8-.9 8.9-5.2 10.9-.5-2-.9-3.9-1.4-5.9-2.1 1.4-4.3 2.9-6.4 4.3 1.7 2.2 3.4 4.4 5.6 6.2-.5 1.2-1 2.3-1.5 3.5-5.4-1.7-6.8-8-6.7-13-.1-3.8 1.9-7 3.7-10.2-3.8-2.4-7.7-4.5-11.9-6.2-1.9 1.2-3.9 2.3-5.8 3.4.9-2.3 1.7-4.7 2.6-7-2.9.9-5.9 1.8-8.6 3.2 3.1-5.1 6.1-10.4 8-16"/><path d="m313 189c2.3 3.6 4.7 7.2 5.8 11.3 1.9 6.8 1.5 13.9 1.2 20.9-.3 6.2 1 12.4 3 18.2-4.9.9-9.7 2.7-14.4 4.3-2.2-1.1-3.4-3.4-4.6-5.3-1.1-4.5-2.7-8.8-4.2-13.2-1.7-5-2.2-10.3-3.5-15.4-.9-3.6-1.7-7.2-2.2-10.8 2.4 0 5.1.3 7.3-1.2 4.1-2.7 7.7-6 11.7-8.9m2.4 9.1c-1.5 3 3.3.1 0 0z"/><path d="m114 220c4.1-3.6 7.2-8 10.9-11.9.8 1 1.7 2.1 2.6 3.1-1.2 3.9-1.9 7.8-2.2 11.8.7 0 2.1-.1 2.9-.1.4 0 1.2 0 1.6 0-2.5 5.8-.7 12.2-.2 18.2 0 3.2 3.2 4.6 5.5 6.1 1-3.2 2.2-6.4 3.5-9.5-2.6-1-5-2.3-7.3-3.9.5-.6 1.6-1.7 2.2-2.2 1.6.6 3.2 1.2 4.8 1.8 2.3-2.2 4.7-4.3 7-6.4-.6 1.9-1.1 3.8-1.7 5.7-.7 2.2-1.3 4.3-2 6.5-1.6 5.3-4 10.5-7.7 14.7-2.5 3-4.6 6.5-8.1 8.5-5.1-7.8-4.4-17.9-9.6-25.6 0 2.9.3 5.8.6 8.7-2.8-.2-5.7-.3-8.5-.7.1-3.6-2.4-6.2-3.7-9.4 0-4.4 2.7-8.4 2-12.9.6-.6 1.2-1.2 1.8-1.7 1.9.3 4 .7 5.5-.8"/><path d="m232 214c1.6-1.3 3.2 1.1 4.7 1.7.2-.3.7-1 .9-1.3 2.5 4.2 5.3 8.3 9 11.4-.8-1.9-1.6-3.7-2.4-5.6.6-.3 1.2-.7 1.8-1 1.5 2.4 3.8 4.2 6.2 5.6-.1.3-.4.9-.5 1.2-.1.3-.2 1-.3 1.4-1.5-.3-3-.7-4.5-1 1.4 4.1 5.3 5.7 8.8 7.7 2.7 4 2.1 9.2 1.9 13.8-.3 5.7-2.5 11-2.6 16.7.8 6.7 1.9 13.4 1.3 20-1.6 5.6-5.4 10.4-6.5 16.3-1.3 1.8-2.6 3.6-3.9 5.4-1.5-1.5-3.4-2.8-4.3-4.8-.8-3.2-.4-6.6-.7-9.9-.4-.1-1.1-.1-1.4-.2 2.3-4.7 2-10 3.1-15-1.1-.4-2.3-.7-3.4-1.1.1-4.5.9-9 .6-13.6-1.2-.8-2.5-1.4-3.8-2.1 5.3-2.9 7.3-9.5 6.1-15.2-3.4-6.7-8.6-12.4-14.5-16.9-.4 1.1-.8 2.2-1.1 3.3 2.8 3.5 7.6 6.6 7.1 11.7-1.3 4.9-4.3 9.3-4.7 14.5-.8-.6-1.5-1.1-2.3-1.7-2.9 4.3-6.7 8-11.4 10.3-.8-3.9-.9-8 1-11.7-2.1-2-3.7-4.4-4.5-7.2.2-2 .5-4 .7-6 2.1-.1 4.2-.3 6.3-.7-.1 3.1-.2 6.1-.3 9.2.8-.2 1.7-.4 2.5-.6.6-3.6 2-7.1 3.9-10.2-1.2.3-2.3.6-3.5 1-1.8-1.2-3.5-2.4-5.3-3.5 1.4-1.3 2.9-2.6 4.3-3.9-.6-2.3-1.2-4.6-1.7-7 .4.2 1.2.4 1.6.6 1.5.8 2.9 1.8 4.4 2.7 1.7-5.1 4.4-9.8 7.1-14.4m5.8 6.2c.3 6.4 2.3 14.3 9.3 16.4.1-1.7 1.2-3.6-.1-5-2.8-4-6.1-7.6-9.2-11.3m-13.4 23.4c-1.6 2.9 3.3.2 0 0z"/><path d="m165 248c.8-.5 1.7-.9 2.5-1.3.3 1.6.6 3.2 1.2 4.7 1.2.9 2.5 1.5 3.7 2.2.2-2 .3-4 .5-6 1.4.3 2.8.6 4.2.9.3.3.9 1 1.2 1.3 1.8 3.8 6.1 2 9.3 2.9 2.5 2.3 3.4 5.7 4.7 8.7-1.1 1.3-5.3 4.1-2.4 5.3 2.7-.9 4.9-2.7 7.4-4 1.3 1.2 2.7 2.3 4.1 3.5-.7.8-1.4 1.6-2.1 2.4-3.1.2-6.1.5-9.2.8 1.2 2.7 2.4 5.4 3.6 8.1-2.1 2.2-4.4 4.3-7 6-.1 1.5-.2 3-.3 4.6-1.5 0-2.9 0-4.4 0l-.1-1c1.1-4 2.8-7.9 5.2-11.3-2.7-.3-6.3.1-7.8-2.8-2.6-3.1 0-6.8 1.4-9.9-3.8-.3-6.9-2.5-9.3-5.4-.9 1.5-1.8 3-2.7 4.6-.9-1.3-1.8-2.5-2.8-3.8-1.1.5-2.2 1-3.3 1.5-1-2.2-2-4.3-3-6.4 2.1.5 4.2 1 6.3 1.5-1.3-1.3-2.5-2.6-3.7-3.8 1-1.1 2-2.2 3.1-3.3"/><path d="m311 247c3.8-.3 7.6-1.2 11.5-.9 3.1 1.9 2.8 5.8 2.6 8.9-5.1-1.5-10.3-3.1-15.4-4.3.5-1.2.9-2.4 1.4-3.6"/><path d="m204 268c2.6 1.3 5.3 2.6 8 3.8.3 1.7.6 3.3 1 5-.6 1-1.3 2-1.9 3-1.2 1.7-2.3 3.4-3.3 5.2-.9 2-1.7 4-2.5 6 2.5-1.8 5-3.8 7.4-5.8 1.2.1 2.3.1 3.5.2.4 1.5.8 3.1 1.3 4.6 1.1-1.4 2.2-2.9 3.2-4.4 2.3-.8 4.5-1.8 6.7-2.7.4 3.4.8 6.8 1.5 10.2-.7-.8-1.4-1.6-2.1-2.4-.8-.9-1.6-1.7-2.4-2.6-1.3 1.4-2.6 3-4.2 4.1-4.1.2-8.2-.7-12.3-.1.9.6 1.9 1.2 2.8 1.8-1.4 0-2.7 0-4.1 0-3.8-.1-6.9 2-9.4 4.6 4.5 1 8.1 3.9 11.2 7.2-.2-.4-.5-1-.7-1.4 5.6 1.6 11 3.6 16.8 4.2 3.8.5 7.3-1.4 10.7-2.8 1.9-.8 3.9-1.6 5.8-2.4-.3 2.8-.6 5.7-.9 8.5-.4 3.2-2.4 5.8-4.4 8.2.8.7 1.6 1.4 2.4 2.1-.7 2.5-1.6 5.3-.3 7.7 1.5 2.9 3.9 5.1 6.3 7.3-.8.6-1.6 1.1-2.3 1.7 4 3.3 7.9 6.9 12.9 8.6 2.7 1.2 6.6 2.4 6.9 5.8-1.9 2.6-4.5 4.4-7 6.2-4.3 2.7-7.8 6.6-10.4 11-2.5.3-5.5 2.3-7.9.9-.8-2.8-.7-5.7-.8-8.5 3.4-1.6 6.8-3.4 10-5.4-1.3-.8-2.6-1.6-3.9-2.4.9-1.6 1.8-3.3 2.7-4.9-2 .4-3.9.8-5.9 1.3-2.3-4.4-6.1-7.7-10.7-9.5-1.4-1.1-2.7-2.4-4-3.6.6-.8 1.1-1.6 1.7-2.4 2.1.5 4.6 1.7 6.7.3 2.7-1.7 3.6-4.9 4.8-7.7-3.5-.4-7.1-.6-10.6.2-1.8 1-3.9 1.8-5 3.6-.7 2.8.6 5.6 1.1 8.3-3.2-4.4-5.9-9.2-7.2-14.5l-.3-.7c-.6-3.8-5.1-3.5-8-3.4-2.7 0-4.6 2.2-6.6 3.6-.1-1.2-.2-2.4-.3-3.6 2.9-1.6 5.9-3.2 8.7-4.9-1.1-2-2.2-4-3.3-6-5.5 2.7-8.9 8.4-15 10-.7-1.3-1.4-2.6-2.1-4 1.9-.8 4.3-1 5.5-2.8-.3-1.4-.8-2.6-1.3-3.9-2.8.2-3.3 3.8-4.6 5.8-1-1.9-1.9-3.9-2.8-5.9 1.8-1.6 3.5-3.3 5.1-5-2.3.8-4.6 1.7-6.8 2.9-1.1.6-2.2 1.3-3.2 2l-.8.6c-.4.4-1.3 1.1-1.7 1.4 1.9.7 3.8 1.3 5.6 2-.2.8-.3 1.5-.5 2.3-1.2.1-2.4.2-3.7.3-1.2-1.1-2.4-2.1-3.6-3.2-2.8-.2-5.5.3-8.2 1-.4.1-1.1.3-1.5.4-4.8.2-9.6-.5-14.2-1.6 2-2.3 3.6-5.1 6.4-6.6 2.8-1 5.8-1.1 8.7-1.4-.5-.8-1-1.6-1.5-2.3-2.5.2-5.1.4-7.6.5 1.2-4.4 3.6-8.2 6.5-11.7 2.1 4.4 3.9 8.8 5.6 13.3 5.9-3.1 11.8-6.4 16.8-10.9 1-2.1 1.8-4.2 2.6-6.4 1.2-1.5 2.3-3 3.4-4.5.1 1.5.2 3 .4 4.5 2.4-1.6 4.7-3.4 6.4-5.8 2.1-4.7 3.3-9.7 4.9-14.5m-14.3 27c-5.3 5-11.7 8.4-17.8 12.2-3.5 2.3-7.8 2.3-11.8 2.9 1.8 1.3 3.6 3.4 6 2.7 4.9-1.4 9.7-3.2 14.4-5 6.9-3.8 13.2-8.9 18.3-14.8-.4-.6-1.3-1.9-1.8-2.5-2.8 1-5.3 2.6-7.4 4.7m7.8 6.8c-.6.7-1.2 1.5-1.9 2.2 1.9 1.6 3.9 3.3 5.8 4.9.6-1.2 1.7-2.3 1.6-3.7-1.7-1.3-3.7-2.4-5.6-3.4m20 9.9c-.3.5-1 1.6-1.4 2.1 1.8.7 3.5 1.4 5.3 2.1.3-1 .7-1.9 1-2.9-1.7-.4-3.3-.9-4.9-1.3m5 5.3c-1.5 1 .2 3.5 1.6 2.4 1.5-1-.2-3.5-1.6-2.4z"/><path d="m158 353c.8-.7 1.5-1.4 2.5-1.9 4.8 1.8 9.6 3.9 13.6 7.1-1.1 3.5-2.6 6.9-4.4 10.1-4.5-1.1-9-1.8-13.6-2.4-5.7-.7-10.9-3.3-16.6-4.1-.3-1.9-.5-3.8-.7-5.7 5.8-.4 11.6-.4 17.4-.7.4-.6 1.3-1.9 1.8-2.5"/></g><g style="fill:#806c31"><path d="m158 73c1.5-.9 3.1-1.8 4.6-2.7-.6 4.2-.9 8.5-.2 12.7 1.1-2.1 2.1-4.2 3-6.3 1-.4 2.1-.8 3.1-1.2.4 1.3.9 2.7 1.3 4 2.5 1 5.1 2 7.2 3.8-.3 1.3-.5 2.6-.7 3.9-3.2 1.2-6.4 2.4-9.8 2.7 3.4-1.2 6.4-3.2 8.7-6-2.8-.7-5.7-1.9-8.6-1.1-2.3.9-4 2.7-5.8 4.3-2.9-3.6-5.1-8.2-3.7-12.8.8 1.3 1.9 1.5 3.1.8.2-1.4-.5-2.1-2.2-2"/><path d="m206 88c1.3-1.6 2.6-3.2 3.8-4.9 1.1 1 2.2 2 3.3 2.9-1 1.3-1.9 2.7-2.8 4.1-1.4-.7-2.8-1.4-4.2-2.1"/><path d="m255 101c4.2.9 8.4 1.2 12.6 1.5 2.8 0 4.7 2.3 6.9 3.7 2.6 2 6 2.2 9 3.2 3.6.9 6.6 3.3 10 4.7 3.1 1.3 6.4 1.8 9.7 2.4.1.5.1 1.6.2 2.1-2.8 0-5.6-.4-8.4.3-1.5 2.4-1.8 5.2-2.5 7.9.3-3.5.8-6.9 1.5-10.3-3.8-2.3-7.6-4.8-11.9-6.1-5.3-1.7-10.7-3-15.8-5.1-3.9-1.6-8.2-2.2-12.4-1.7.3-.9.7-1.7 1-2.6"/><path d="m159 116c2.3-.8 4.5-1.5 6.8-2.1h1c-.6 6.5-1.5 13-1.2 19.5 0 9.1-.2 18.8-4.7 27 1.4-1.1 2.9-2.1 4.3-3.1 1.1 2 2.1 4 3 6.1-4.1 8.1-7.7 16.5-11 24.9.9.4 1.9.9 2.8 1.4 1.5-2.8 2.9-5.6 4.6-8.3.2 1.5.4 2.9.7 4.4 1.2-.8 2.4-1.6 3.6-2.5-2.3 4-2.9 8.6-2.9 13 1.3-1.7 2.5-3.6 4.3-4.9 1.3 0 2.7.1 4 .2-1.7 5.2-4.2 10-6.4 14.9-2 .9-2.4 4.3.5 4 .3 1.7.8 3.3 1.2 5 3.2-2.2 5.7-5.2 7.8-8.4.1 1.8.2 3.6.3 5.4 2.7-2.7 5.5-5.4 8.4-7.9 1.2 2.3 2.2 4.6 3.3 7-2.6 1.4-5.3 2.8-7.8 4.3 4.1-.8 8.3-1.2 12.5-.3 2-3.8 4.3-7.5 8-9.6.1 2.5.1 5.1-.1 7.6l-.2.8c-2.4 3.8-4.3 8-5.3 12.4-.8.5-2.2 1.5-3 2-4.3-2.3-8.6-4.7-12.6-7.5-3.1-2.2-6.7-3.7-10.5-4.1-1.5-.1-3-.2-4.5-.3.4 3.3.8 6.8 2.7 9.7 3.6 5.8 10 8.6 15.4 12.4 1.5 1.2 3 2.4 4.5 3.6.5-.5 1.6-1.4 2.1-1.9 1.4-.2 2.8-.3 4.1-.4 1 3.9 1.7 7.9 2.1 11.9-5.9-1.8-12.2-3.6-18.4-2.3-.3-.3-.9-1-1.2-1.3-1.5-1.6-2.9-3.7-5.2-4.1-3-1-6.6-.9-8.8-3.5-2.6-3.2-5.6-6.1-9.2-8.2-2.2-1.8-3.9-4-5.6-6.2 2.1-1.4 4.3-2.9 6.4-4.3.4 2 .9 3.9 1.4 5.9 4.2-1.9 4-7 5.2-10.9-1.7.6-3.4 1.1-5.1 1.7 0-3.7.4-7.6-.8-11.2-1.5-1.3-3.2-2.2-4.9-3.1.5-1 .9-2 1.4-3-.9-.9-1.7-1.8-2.6-2.7.5-1.1 1.1-2.2 1.6-3.3-2.5-.7-5.1-1.2-7.5-2.3-2.3-1.3-3.8-3.5-5.5-5.4-1.4.8-2.9 1.5-4.3 2.3 0-1.9-.2-3.7-.3-5.6 1.1-2.1 2.3-4.1 3.3-6.1.9 2.6 1.2 5.3 1.4 8 2-3 4-6 5.4-9.3 3.2-7.8 7.3-15.3 8.3-23.8-1.5-.2-3.1-.4-4.6-.6.3-3.5.2-7 .1-10.5-2.9-.3-5.8-.7-8.6-.7 1.7-.3 3.4-.7 5-1.1 1.7-.4 3.5-.8 5.2-1.1.7 2.5 1.4 5 2 7.4 4.1-.4 7.6-2.5 10.6-5.2-1.3-.8-2.7-1.5-4-2.3 0-2.6-.1-5.2-.2-7.8.7-1.4 1.4-2.8 2.2-4.1-.9-.7-1.8-1.4-2.8-2.1 1.1-1.4 2.3-2.7 3.4-4-.5-1.7-1-3.5-1.5-5.2m-14.6 68c1.5.4 3.1.9 4.7 1.3-.5-1-1-2.1-1.6-3-1.1.5-2.1 1.1-3.1 1.8m-.6 3c.4 1.5.7 3 1.1 4.5 1.2-1.1 2.3-2.2 3.4-3.3-1.5-.5-3-.9-4.5-1.3m13 5.5c.1 2.1.1 4.2.3 6.3 2-1.9 2.2-4.8 2.7-7.3-1 .3-2 .7-3 1.1m3.8-.1c-.4 2.1-.8 4.1-1.1 6.2 2.8-1.1 4.8-3.2 5.6-6.1-1.5 0-3-.1-4.5-.1m29.8 26.6c-.4 1.2-.8 2.3-1.1 3.5 1.6-.2 3.3-.1 4.8-.8.4-1.2.8-2.4 1.1-3.6-1.5.3-3.4-.1-4.7.9m-25.6 11.5c0 .6.1 1.9.1 2.5.7 0 2 .1 2.7.1 0-.7 0-1.9 0-2.6-.7 0-2 0-2.7 0z"/><path d="m93 119c.1-.4.3-1.2.4-1.5 4.7 3.3 10.5 1.7 15.5.1-.4 1.2-.8 2.4-1.2 3.6-2.5-.4-5-.8-7.4-1.3-.3 2.6-.6 5.1-.9 7.7-1.2-1-2.4-2-3.5-3 .2-1.4.3-2.7.5-4.1-1.1-.1-2.1-.1-3.2-.2-.1-.3-.2-1-.2-1.3"/><path d="m222 124c1.1-.8 2.3-1.5 3.7-1.3 4 .4 8 .8 12 .6.9.3 1.8.6 2.6.9-.5 1-1 2-1.5 3-1.8 3.9-4.7 7.4-9.2 7.9-.4 2.5-.5 5.4-2.7 7-5 4.3-9.3 9.3-13.8 14-3.3 3.4-4.7 8-6.1 12.4-2-.7-4-1.5-6.1-2.1-1-.3-2-.5-2.9-.7 1-1.6 2.1-3.1 3.2-4.6-1.8-1.4-3.7-2.8-5.5-4.2.7-.5 1.4-1 2.2-1.6 1.4 1.1 2.8 2.2 4.2 3.2 2.3-4.4 4.7-8.8 8.1-12.5 5-5.4 9.3-11.3 13-17.6-1.3 0-2.6.1-3.9.1.9-1.6 1.7-3.1 2.6-4.7m11.3 6.3c-1.6-.1-1.8 2.7-.1 2.7 1.6.1 1.8-2.7.1-2.7z"/><path d="m225 150c1.1-2.4 2.9-4.4 5.3-5.7.3.7.8 1.9 1.1 2.6.8 1.7.5 3.6.5 5.3-2.3-.7-4.6-1.5-6.8-2.2"/><path d="m249 154c.9.6 1.8 1.2 2.7 1.8 1 1.6 1.9 3.3 3 4.9-.6.1-1.9.3-2.6.4 0 1.8-.1 3.6 0 5.4-.7-.4-1.4-.8-2.1-1.2-.3.2-.8.5-1.1.6-1.2-.3-2.3-.6-3.5-.7-.7 2.2-1 4.4-1.5 6.6-.5-1.9-.9-3.9-1.1-5.9 2.4-2.2 4.8-4.3 7.2-6.5-1.2-1.2-2.3-2.4-3.4-3.7 1-.3 1.8-.9 2.4-1.8"/><path d="m172 188c.5-1.8 1-3.6 1.6-5.4.4.2 1.3.5 1.7.7 2.2.9 4.4 1.9 6.6 2.8-.5 1.1-1.1 2.3-1.6 3.4-2.8-.6-5.5-1-8.3-1.5"/><path d="m248 206c-.5-5.6-.2-11.3 2.3-16.5.5 1.1.9 2.2 1.4 3.4.6-.3 1.2-.6 1.8-.9-.8 7-1 14.4 2.4 20.8-3.4 2.1-6.8 4.1-10.3 6-.6.3-1.2.7-1.8 1-.6-1.4-1.1-2.9-1.6-4.3 4.2-.3 9.6-1 10.9-5.8.5-3.1-3-3.3-5.1-3.8m2.1-11.3c-.5 2.9-.5 5.9.2 8.7.5-2.9.5-5.9-.2-8.7z"/><path d="m213 193c3.3 1.7 6.9 3.6 10.5 1.6 0 .2-.1.5-.1.7 2.6 0 5.2 0 7.8.1.4 2.6.5 5.4 2 7.7 1.4 1.5 3.6 2.1 5.4 3.1 1.3-3.3 2.3-6.8 1.6-10.3 1-1 2-1.9 3-2.9 1.3 1.7 3 3.3 3.7 5.3.2 3.9-1 7.8-1.7 11.6-1.5-1.4-2.9-2.7-4.4-4.1-.4 1.6-.8 3.1-1.3 4.7-.4.2-1.2.6-1.7.8-3.1-3.2-6.6-5.8-10.7-7.5 2.1 3.6 5.5 6.2 9 8.3.4.5 1.1 1.5 1.4 2.1-.2.3-.7.9-.9 1.3-1.5-.6-3.1-2.9-4.7-1.7-2.7 4.6-5.4 9.3-7.1 14.4-1.4-.9-2.9-1.8-4.4-2.7 1.1-1.2 1-2.3-.2-3.1-1.4.2-1.9 1.1-1.4 2.5.5 2.3 1.1 4.7 1.7 7-1.4 1.3-2.9 2.6-4.3 3.9 1.8 1.2 3.5 2.3 5.3 3.5-.7.2-2 .5-2.7.7-2.1.4-4.2.7-6.3.7-.8 0-2.3-.1-3.1-.1-.3-.1-1-.2-1.3-.3.2 1.7.3 3.3.5 5-.7.3-1.3.5-2 .8-1.9-8.4-1.6-18.4 4.3-25-.8 4.8-3 9.3-4 14-.5 2.2 1.9 3.4 3.1 4.9 2.4-4.4 1.7-9.9 4.9-13.9 1.3-2.8 2.5-5.6 3.4-8.5 1-3.1.2-6.4.6-9.6 1.1-1.6 2.7-2.7 4.2-3.9-1.7-.2-3.4-.2-5-.8-3.4-2.1-4.8-6.3-5.1-10.1m14.3 7.2c-.7 2.6 2.6 3 4.1 4.3-.4-2.4-.7-4.8-1.4-7.2-1.8-.6-2.7 1.4-2.7 2.9m-3.9 6.4c-1.5 1.3.9 3.5 2.2 2.1 1.5-1.3-.9-3.5-2.2-2.1m13.3.7c-1 1.3 1.2 2.9 2.2 1.6 1-1.3-1.2-2.9-2.2-1.6z"/><path d="m186 197c1.3-2.4 4.2-3 6.4-4.2 1.1 3.4 1 7 .9 10.6-2.2-.2-4.3-.4-6.5-.6-.4-1.9-.9-3.9-.8-5.8"/><path d="m234 197c.7 0 1.9 0 2.6 0 .4 2.1.8 4.3 1.3 6.4-1.2-.2-2.4-.4-3.6-.7-.1-1.9-.1-3.8-.2-5.7"/><path d="m126 206c2.7-1.4 5.7-2.3 8.6-3.2-.8 2.3-1.7 4.7-2.6 7 1.9-1.1 3.9-2.3 5.8-3.4 4.1 1.7 8.1 3.8 11.9 6.2-1.8 3.2-3.8 6.4-3.7 10.2-.1 5 1.3 11.3 6.7 13 1.2.2 2.3.4 3.5.7 2.7 4 5.9 7.5 9 11-1.1 1.1-2.1 2.2-3.1 3.3 1.3 1.3 2.5 2.6 3.7 3.8-2.1-.5-4.2-1-6.3-1.5-1.7 9-4.6 17.7-7.4 26.3-.6-.5-1.3-1.1-1.9-1.6-1.1-.9-2.2-1.8-3.4-2.6.3 1.6.7 3.1 1.2 4.6.8 1.7 2.3 3.4 1.3 5.4-2.6 6.7-7.6 12-12.3 17.3-1.5-1.8-3-3.6-4.4-5.4-.8 1.6-1.5 3.1-2.3 4.7-.8-.6-1.6-1.1-2.4-1.7 3-6.4 8.3-11.1 12.6-16.6 2.6-3.4 3.8-7.6 4.9-11.6 1.4-4.9 3-9.8 5-14.6.9-2.4 2.4-5.2 1-7.8-.8-2.2-3.2-3-5-4 .4-2.1 1.1-4.2.8-6.4-.8-2.6-2.6-4.7-4.1-6.9.6-1.9 1.1-3.8 1.7-5.7-2.4 2.1-4.7 4.2-7 6.4-1.6-.6-3.3-1.2-4.8-1.8-.5.6-1.6 1.7-2.2 2.2 2.3 1.6 4.7 2.9 7.3 3.9-1.4 3.1-2.5 6.3-3.5 9.5-2.3-1.5-5.5-2.9-5.5-6.1-.5-6-2.3-12.4.2-18.2 3.1.2 5.1 2.6 7 4.7-.2-2.2-.3-4.4-.4-6.6 1.7 1.2 3.4 2.3 5.2 3.5 1-1.3 1.9-2.6 2.9-3.9-2.1-.2-4.2-.4-6.3-.6.2-.5.6-1.5.8-1.9 2.3-.7 4.5-1.4 6.8-2.2-3.3-.9-6.5-2-9.6-3.4-.2 1.1-.5 2.1-.7 3.2-2-.3-4-.7-6-1 .8 1.4 1.7 2.9 2.5 4.3-1.3 1.3-2.5 2.6-3.8 3.8-.7 0-2.1 0-2.9.1.4-4 1-8 2.2-11.8-.9-1-1.7-2.1-2.6-3.1.4-.4 1.1-1.3 1.5-1.7m25.4 55c-.3 1.3-.6 2.6-.8 3.9 1.5-.4 3.3-.2 4.4-1.5.1-1.4 0-2.7 0-4.1-1.2.5-2.4 1-3.5 1.7m-12.9 30.7c1.9-.7 3.8-1.3 5.6-2.3.5-2.1-2-2.7-3.3-3.8-1.2 1.9-2 3.9-2.3 6.1z"/><path d="m226 231c.3-1.1.7-2.2 1.1-3.3 5.9 4.5 11 10.3 14.5 16.9 1.2 5.7-.8 12.3-6.1 15.2 1.3.6 2.6 1.3 3.8 2.1.3 4.5-.5 9-.6 13.6 1.1.4 2.3.7 3.4 1.1-1.1 5-.8 10.4-3.1 15h-.9c-3.2-4.3-6.8-8.6-7.4-14-.9-6.7-2.8-13.4-2.1-20 .4-5.2 3.4-9.6 4.7-14.5.4-5.1-4.3-8.1-7.1-11.7m5.6 23.6c1.8.8 3.7 1.1 5.3-.3-.9-3.1-3.9-1.5-5.3.3m.7 15.4c.1 1 .3 2.9.5 3.9 1.4-.9 2.7-2.1 3.6-3.5-1-.1-3-.3-4.1-.5z"/><path d="m141 239c1.3.5 2.6.9 3.9 1.4-4.6 8.8-9.9 17-14.5 26-1.8-1.3-3.5-2.7-5.2-4.1 3.5-2 5.6-5.5 8.1-8.5 3.7-4.2 6.1-9.4 7.7-14.7"/><path d="m168 246c1.8.2 3.6.5 5.4.9-.1 2-.3 4-.5 6-1.3-.7-2.6-1.3-3.7-2.2-.6-1.5-.9-3.1-1.2-4.7"/><path d="m143 252c1.1-2.1 3.5-2.5 5.5-3.1 0 8.3-4.1 15.7-7.2 23-2.4.1-4.8.4-7.1.6 0 1.3.1 2.6.1 3.9 1.3.1 2.5.1 3.8.2-3.4 6.2-7.5 12-11.3 18-1.8 2.7-3.7 6.2-7.4 6.6-1.9-1.2-3.6-3-3.9-5.3.5-2.7 2.1-5.4 4.4-6.9 2.5-.8 5.2-.4 7.8-.6 1.3-.4 2.5-.8 3.8-1.3-1-1.4-2-2.8-3.1-4.2.9-.5 1.8-.9 2.7-1.4-.5-2.1-.9-4.3-1.3-6.4 4.7-7.6 8-16 13-23.5m1.5.5c-.5 1.6 0 2.2 1.7 1.7.5-1.6 0-2.2-1.7-1.7m-4.4 7.6c.1 1.4.2 2.9.3 4.3 1-.4 2.1-.7 3.1-1.1-.1-.7-.2-2.1-.3-2.8-.8-.1-2.3-.3-3.1-.4m-20.9 33.9c-.3 1.1-.7 2.2-1 3.3.9.2 2.6.5 3.4.7.3-1.2.6-2.5.9-3.7-.8-.1-2.5-.2-3.3-.3z"/><path d="m112 261c2.8-1.7 5.9-3.1 9-4.1.2.9.4 1.9.7 2.8-3.5.9-6.8 2.3-9.9 4.1 3.2 1.7 6.5.8 9.4-1 2.8 1.9 5.3 3.9 7.9 6.1-.9 2-1.8 3.9-2.6 5.9-2.5 1.3-4.3 3.6-5.7 6-2.1 3.6-4.4 7-7.1 10.1-1.5-4.7-3.3-9.6-2.3-14.5.3-1.3.7-2.5 1.1-3.8-1.8.4-3.7.7-5.5 1.2 2.4-3.9 4.4-8.2 5-12.8m2 4.5c0 1.8.1 3.7.2 5.5 1.4-1.2 2.7-2.5 3.9-3.9-1.4-.5-2.7-1.1-4.1-1.6m9 2.2c-.5 1.4 0 1.9 1.4 1.4.5-1.4 0-1.9-1.4-1.4z"/><path d="m163 260c1.1-.5 2.2-1 3.3-1.5.9 1.3 1.8 2.5 2.8 3.8-.7 4.6-1.4 9.2-2.8 13.6-1.9-.3-3.9-.6-5.8-.9.1-5.1.9-10.1 2.5-15m-.4 7.6c-1.1 1.3 1.2 2.9 2.2 1.6 1-1.3-1.2-2.9-2.2-1.6z"/><path d="m172 267c.5.1 1.6.5 2.1.6 3.2 5.4 4.4 11.5 6.9 17-.8.1-2.3.4-3 .6 0 .6-.1 1.9-.1 2.5 1.4 0 2.8 0 4.2 0 1.5 0 2.9 0 4.4 0 .1-1.5.2-3.1.3-4.6 2.6-1.7 4.9-3.7 7-6-1.2-2.7-2.4-5.4-3.6-8.1 3.1-.3 6.1-.6 9.2-.8-1.1 4.6-2.7 9.2-5.5 13-.6.9-1.3 1.8-1.9 2.7-1.1 1.5-2.3 3-3.4 4.5-2.6 1.7-5.1 3.6-7.2 5.8-2.4-.4-5.2-1-6.4-3.3-.6-3.9.1-7.9-1.3-11.6-1.5-4-1.9-8.3-1.6-12.5"/><path d="m282 273c-.6-2.1 1.4-3.5 2.3-5.2.9.9 1.9 1.9 2.8 2.9 0 1-.1 2-.1 3.1 1.9 1.8 3.6 3.7 5.4 5.6-4.4.6-9.2-1.9-10.3-6.4"/><path d="m165 277c.2.4.7 1.1.9 1.4-2.2 6.5-4.7 13-9.9 17.8-.5-.1-1.5-.4-2-.5-1.3-.3-2.5-.6-3.7-.9 0 .9.1 2.6.1 3.4 1.4.1 2.7.2 4.1.3h.7c-1.4 3.5-2.2 7.4-4.8 10.2-2.4-1.2-4.5-2.9-6.7-4.3 3.5-4.4 5-10 8.9-14 3.7-4.1 4.8-10.8 10.8-12.6.4-.2 1.3-.5 1.8-.7"/><path d="m170 280c1.6 2.8 2.3 6 2.8 9.2-1.1.6-2.3 1.1-3.4 1.7-.6-.7-1.1-1.4-1.7-2 .7-3 1.4-5.9 2.3-8.9"/><path d="m168 293c1.4-.3 2.9-.5 4.3-.8 1.6 1.9 3.3 3.8 4.9 5.7-3 1-6 2.4-9.3 1.9 0-2.3.1-4.5.1-6.8"/><path d="m122 307c1.3-1.5 2.5-3.1 3.8-4.6 1.1.7 2.3 1.3 3.4 2 1-.4 1.9-.9 2.9-1.3.8.6 1.6 1.1 2.3 1.7-1.8 2.2-2.8 5-3.8 7.6-3-1.6-5.9-3.5-8.7-5.5"/><path d="m145 308c1.2 1.4 2.4 2.8 3.3 4.5-.8 2.2-2.9 3.3-4.6 4.7-3-1-6.1-1.8-9.1-2.8 1.4-1 2.7-2.8 4.6-2.7 1.7.1 3.4.3 5.2.4.2-1.4.4-2.8.7-4.1"/></g><g style="fill:#532506"><path d="m63 71c3 1.1 5.7 2.9 7.8 5.3-2.2.1-4.3 0-6.5 0 .3 8.1 3 15.9 3.7 23.9 1.3 9.8 1.6 19.8 3.8 29.5 1.2.7 2.3 1.4 3.5 2.2.9.7 1.8 1.4 2.6 2.1.2 1.6.5 3.2.7 4.8l-.4.7c-.2.3-.6 1-.8 1.3-.8-2.3-1.1-5.4-3.5-6.7-1.7-1.4-4.1-2.1-4.9-4.3-1.1-2.8-1.6-5.8-2.1-8.8-.3-8.3-1.5-16.5-2.3-24.8-.8-8.4-4.1-16.9-1.6-25.3"/><path d="m81 77c1.4-.4 2.8-.7 4.3-1 .5 5.8 2.4 11.4 4.8 16.6.7 6.2 1.9 12.4 4.2 18.3 0 2-.4 3.9-.8 5.8-.1.4-.3 1.2-.4 1.5-3.2-8.4-3.7-17.5-6.3-26-1.5-5.2-3.5-10.3-5.8-15"/><path d="m160 87c1.8-1.5 3.5-3.4 5.8-4.3 2.9-.8 5.8.4 8.6 1.1-2.2 2.8-5.3 4.8-8.7 6-2-.9-3.9-1.8-5.8-2.9"/><path d="m304 102c2.4-.2 5.4-1.3 7.3.7 2 3.1 2.9 6.9 5.3 9.8l.4.5c-3.3-3.9-9-1.4-13-4.2 0-2.3 0-4.6-.1-6.9"/><path d="m207 111c1.7-.6 3.3-1.2 5-1.7-1 2.1-1.5 4.4-2 6.7 9.3 2.6 19.4 2.1 28 6.9-4.1.2-8.1-.2-12-.6-1.4-.2-2.6.5-3.7 1.3-1.3-1.4-2.5-2.8-3.9-4.1-1.1 1.2-2 2.6-2.9 3.9 0-1.1-.1-2.3-.1-3.4-2.5-.2-5-.4-7.6-.6.2-1 .3-1.9.5-2.9-.3-1.9-.7-3.7-1.2-5.5"/><path d="m264 136c.9 0 2.6.1 3.5.1 2.8.9 4.8 3.2 6.8 5.3-2.3 1.9-4.9 3.2-7.8 4.1 1.3-1.4 2.6-2.8 3.9-4.2-2.2-1.7-4.4-3.4-6.5-5.2"/><path d="m104 142c5.2-.7 10.3-2.2 15.2-4 .2 1.2.4 2.5.5 3.7-4.5.7-9 1.8-13.6 1.5-4.1-.3-8.2-.6-12.4-.4-4.8.1-10 .8-14.4-1.5 8-.9 16.3 0 24-2.3.1.7.3 2.2.3 3"/><path d="m252 156c5.1 2.1 8.3 6.8 12.4 10.2.1-1.5.2-2.9.3-4.4 1.2 1.7 2.4 3.4 3.6 5.2-1.7 1.1-3.4 2.2-5 3.3-2.8-3.1-6-5.9-8.3-9.4-1-1.6-2-3.3-3-4.9"/><path d="m288 157c4.8 3.7 9.1 8 12.9 12.8 3.4 4.5 8.7 7.4 11 12.7 1 2 2 4 3.3 5.9 6.4 9.2 7.6 20.9 7 31.8-.2 4.3.9 8.5 1.7 12.7-.1 2.3-.6 4.6-1.6 6.7-2-5.9-3.2-12-3-18.2.3-7 .6-14-1.2-20.9-1-4.2-3.4-7.8-5.8-11.3-.5-.8-1-1.7-1.5-2.5-3.3-6.4-8.7-11.2-13.2-16.7-3.2-3.8-6.9-7.7-11.9-8.9.7-1.3 1.5-2.6 2.2-4"/><path d="m157 188c3.4-8.4 6.9-16.8 11-24.9.6 2 1 4 1.4 6 .5 1.3.2 3.5 2 3.9 1.3-1.6 2.4-3.3 3.6-4.9-1.1 3.3-2.4 6.5-3.8 9.6-.9-.5-1.7-1-2.6-1.5-1.5 1.6-3 3.2-4.3 4.9-1.7 2.7-3 5.5-4.6 8.3-.9-.5-1.9-.9-2.8-1.4"/><path d="m250 166c.7.4 1.4.8 2.1 1.2.4 5.2 1.1 10.3 1 15.6-1.8-1.1-3.6-2-5.4-3 .2-.8.3-1.6.5-2.3 1.6-3.4 1.1-7.2.8-10.8.3-.2.8-.5 1.1-.6"/><path d="m219 172c.6-.7 1.2-1.4 1.8-2.1 1.8.9 3.7 1.7 5.6 2.4.2-.5.6-1.6.8-2.1 1.1 2.5 2.6 4.9 2.8 7.6-.7 1.7-1.9 3.1-3.1 4.4l.2-.9c1.2-2.5 1.2-5-1.3-6.7-2.2-1-4.5-1.9-6.8-2.8"/><path d="m266 174c.5-1.2 1.1-2.3 1.6-3.4-.1 2.5.3 5 1.4 7.3.4-.7 1.1-2 1.4-2.7 3.2 5.1 8.7 7.8 13 11.8 2.2 2 4.8 3.5 7.5 4.9 2.4 1.7 3.1 4.5 3.3 7.2.5 3.6 1.3 7.2 2.2 10.8 1.3 5.1 1.8 10.4 3.5 15.4 1.5 4.4 3.2 8.7 4.2 13.2.2 2.1.2 4.3.4 6.4-7.9-14.6-10-31-14-47-.4-1.2-.9-2.3-1.8-3.2-7.2-7.3-18-11.1-22.7-20.7"/><path d="m233 179c.7-1.3 1.4-2.5 2.1-3.8.2 2.8.7 6-1.1 8.4-1.1 1.7-3.4 1.8-5.1 2.4 1.6-2.2 3.1-4.6 4.1-7.1"/><path d="m170 181c1.6.1 3.3.2 4.9.4-.4.5-1.2 1.4-1.5 1.9-.7 1.8-1.2 3.6-1.6 5.4 2.8.5 5.6.9 8.3 1.5 1.3.3 2.7.7 4.1 1-3.3.6-6.6.9-9.9.5-1.3-.1-2.7-.2-4-.2-1.8 1.3-2.9 3.2-4.3 4.9 0-4.5.7-9 2.9-13 .3-.6.8-1.7 1.1-2.2"/><path d="m219 185c1.7-.4 3.4-.9 5.1-1.4 1 1.5 2 3.1 2.9 4.7.5 1 1 2 1.5 3 2.2 1.4 4.5 2.9 6 5.1.1 1.9.2 3.8.2 5.7 1.2.2 2.4.4 3.6.7-.4-2.1-.8-4.3-1.3-6.4.8-1.1 1.7-2.1 2.5-3.2.1.6.4 1.7.5 2.2.7 3.5-.3 7-1.6 10.3-1.8-1-3.9-1.6-5.4-3.1-1.4-2.3-1.5-5.1-2-7.7-2.6-.1-5.2-.2-7.8-.1 0-.2.1-.5.1-.7.2-1.4.3-2.9.5-4.4-3.8-.3-7.6-.3-11.3 0-.1-.4-.2-1.2-.2-1.5 2.4 0 4.8 0 7.2 0 1.2.1 2.4.1 3.7.2-1.4-1.1-2.8-2.2-4.2-3.3"/><path d="m129 194c1.3-3.1 2.6-6.3 4.3-9.2.1 1.9.3 3.7.3 5.6-1.9 5.7-4.9 11-8 16-.4.4-1.1 1.3-1.5 1.7-3.7 3.9-6.8 8.4-10.9 11.9-1.5 1.5-3.6 1.1-5.5.8 3.1-2.7 6.8-4.7 9-8.2 2-3.1 3.8-6.4 6-9.5 2.2-3 4.7-5.9 6.2-9.3"/><path d="m144 187c1.5.3 3.1.7 4.5 1.3-1.2 1.1-2.3 2.2-3.4 3.3-.4-1.5-.7-3-1.1-4.5"/><path d="m157 192c1-.4 2-.7 3-1.1-.4 2.6-.7 5.4-2.7 7.3-.2-2.1-.2-4.2-.3-6.3"/><path d="m101 234c1.3-4.2 2.6-8.6 5.4-12.2.7 4.5-2 8.5-2 12.9 1.3 3.1 3.8 5.8 3.7 9.4 2.8.3 5.7.5 8.5.7-.4-2.9-.7-5.8-.6-8.7 5.2 7.7 4.5 17.8 9.6 25.6 1.7 1.5 3.4 2.8 5.2 4.1 4.6-8.8 10-17 14.5-26-1.3-.5-2.6-.9-3.9-1.4.7-2.2 1.3-4.3 2-6.5 1.5 2.2 3.2 4.3 4.1 6.9.3 2.2-.5 4.3-.8 6.4 1.9 1 4.2 1.8 5 4 1.4 2.6-.1 5.3-1 7.8-2 4.7-3.6 9.6-5 14.6-1.5-.1-3-.3-4.6-.3 3.1-7.5 7.2-14.9 7.2-23-2 .6-4.4 1-5.5 3.1-5.1 7.4-8.4 15.8-13 23.5-1 0-1.9 0-2.9.1.9-2 1.8-3.9 2.6-5.9-2.5-2.1-5.1-4.2-7.9-6.1-2.9 1.9-6.2 2.7-9.4 1 3.1-1.9 6.4-3.2 9.9-4.1-.2-.9-.4-1.9-.7-2.8-3.2 1-6.2 2.4-9 4.1-.5-.7-1.3-2-1.8-2.6 3.2-1.5 6.4-2.7 9.7-3.7.2-.7.7-2 .9-2.7-4.4-.2-8.5 1.5-12.3 3.7-2.4-6.6-3.6-13.7-7.9-19.5 0-.5.2-1.6.2-2.1"/><path d="m154 232c3.6 2.1 6.5 5 9.2 8.2 2.1 2.6 5.8 2.6 8.8 3.5 2.3.5 3.7 2.5 5.2 4.1-1.4-.3-2.8-.6-4.2-.9-1.8-.4-3.6-.7-5.4-.9-.9.4-1.7.8-2.5 1.3-3.2-3.5-6.4-7-9-11-1.2-.2-2.3-.4-3.5-.7.5-1.2 1-2.3 1.5-3.5"/><path d="m221 239c1.2-.3 2.3-.6 3.5-1-1.9 3.1-3.3 6.6-3.9 10.2-.8.2-1.7.4-2.5.6.1-3.1.2-6.1.3-9.2.7-.2 2-.5 2.7-.7"/><path d="m140 260c.8.1 2.3.3 3.1.4.1.7.2 2.1.3 2.8-1 .4-2.1.7-3.1 1.1-.1-1.4-.2-2.8-.3-4.3"/><path d="m151 262c1.1-.7 2.3-1.2 3.6-1.7.1 1.3.1 2.7 0 4.1-1.1 1.3-2.9 1.1-4.4 1.5.2-1.3.5-2.6.8-3.9"/><path d="m233 270c1 .1 3 .3 4.1.5-.9 1.4-2.1 2.6-3.6 3.5-.1-1-.4-2.9-.5-3.9"/><path d="m107 274c1.8-.5 3.6-.8 5.5-1.2-.4 1.2-.8 2.5-1.1 3.8-1.1.1-2.3.2-3.4.3-4.1 0-6.7 3-8.3 6.4-.7-.4-1.5-.8-2.2-1.2-.3.3-.8 1-1.1 1.3-.3 6 .4 12.2 3.7 17.4 2.4 4.4 4.2 9.3 7.9 12.8 2.3 2.2 4.6 4.4 6.6 6.8-.9.1-2.7.4-3.6.5-6.3-4.9-11.2-11.5-14.2-18.9-3.3-6.9-4.5-14.9-3.2-22.4 4.1-2.6 8.9-4 13.5-5.5"/><path d="m139 292c.3-2.2 1.1-4.3 2.3-6.1 1.2 1.1 3.8 1.7 3.3 3.8-1.7 1-3.7 1.7-5.6 2.3"/><path d="m119 294c.8.1 2.5.2 3.3.3-.3 1.2-.6 2.5-.9 3.7-.8-.2-2.6-.5-3.4-.7.3-1.1.7-2.2 1-3.3"/><path d="m117 324c4.4-.9 8.5.9 12.4 2.6-.2.6-.5 1.6-.7 2.2-4.3-.6-8-2.7-11.7-4.7"/><path d="m148 331c5.5-3.3 12.3-2.3 18-.3-.3.2-.8.6-1.1.9-5.7.3-11.4-.2-17-.6"/><path d="m241 339c.8-.6 1.6-1.1 2.3-1.7 4.4 4.1 9.9 6.6 15.3 9.2 3.1 1.3 4.8 4.2 6.3 7-5 5.5-11.4 9.5-16.2 15.2-1.6 1.7-3.2 3.4-4.8 5-.1-.8-.4-2.4-.6-3.1 2.6-4.4 6.1-8.2 10.4-11 2.5-1.8 5.2-3.6 7-6.2-.3-3.4-4.2-4.6-6.9-5.8-5-1.7-8.9-5.3-12.9-8.6"/><path d="m222 341c1.8.4 3.6.8 5.4 1.3 4.7 1.8 8.5 5.1 10.7 9.5-.9 2.5-1.8 5.1-3.5 7.1.1-2.2.8-4.8-.6-6.7-3.1-4.6-8.4-7-12-11.2"/><path d="m137 354c4.2-.1 8.3-.2 12.5-.6 3.1-.1 6.2.2 9.3.6-.4.6-1.3 1.9-1.8 2.5-5.8.3-11.6.4-17.4.7.2 1.9.5 3.8.7 5.7 5.7.8 10.9 3.3 16.6 4.1 4.6.6 9.1 1.3 13.6 2.4 1.8-3.2 3.3-6.6 4.4-10.1l.5.4c.7.6 1.4 1.1 2.1 1.7 0 3.9-1 8.5-4.7 10.6-5.1.6-10-1.3-15-1.9-7.4-1-14.7-2.6-22-4.3.3-3.9.9-7.8 1.3-11.7"/></g><g style="fill:#ebaa4e"><path d="m78 84c1.7 0 1.5 2.7-.1 2.7-1.7 0-1.5-2.7.1-2.7"/><path d="m78 89c1.8-.7 5.1-.1 4.5 2.5-1.5 1.4-4.2 1.5-5.7 0-.3-1.2.1-2 1.2-2.5"/><path d="m85 111c1.4-.9 2.9-1.7 4.3-2.6.4 2.5.7 5 .8 7.5-2.7-.4-4.2-2.5-5.1-5"/><path d="m233 130c1.7 0 1.5 2.7-.1 2.7-1.7 0-1.5-2.7.1-2.7"/><path d="m78.9 139c1-1 2-2 3-3 .3 1.3.7 2.6 1 3.9-1.5-.1-3-.2-4.4-.2l.4-.7"/><path d="m93 136c1.6-.5 2.2 0 1.7 1.7-1.6.5-2.2 0-1.7-1.7"/><path d="m268 163c.8-.2 2.3-.5 3-.7-.1 1.9-.1 3.8-.3 5.8-1.9-1.1-2.4-3.1-2.8-5.1"/><path d="m247 183c.2-1.2.5-2.4.8-3.7 1.8 1 3.6 2 5.4 3v.9c-2.1.2-4.4 1.2-6.2-.3"/><path d="m315 198c3.3.1-1.5 3 0 0"/><path d="m224 243c3.3.2-1.6 2.9 0 0"/><path d="m144 252c1.6-.5 2.2 0 1.7 1.7-1.6.5-2.2 0-1.7-1.7"/><path d="m162 267c.9-1.3 3.2.3 2.2 1.6-.9 1.3-3.2-.3-2.2-1.6"/></g></svg>