<svg xmlns="http://www.w3.org/2000/svg" viewBox="0 0 401 382" style="enable-background:new 0 0 401 382"><g style="fill:#010101"><path d="m157 76c4.5-.1 9-.1 13.6-.7 2.7-.2 5.5-.5 8.1.2 5.8 4.6 9.6 14 4.5 20.5-3.2 4.4-7.4 9.2-13.3 9.3-5.6-.9-10.8-4.1-14-8.7-.4-1.7-.8-3.4-1.1-5 3.2 2.3 5.1 5.8 8.1 8.3 3.9 2.3 9.5 3.4 13.3.1 3.7-3 7.7-7.4 6.4-12.6-.9-4.2-3.3-9-8-9.7-5.2-.7-10.8-.2-15.7 1.9-1.7 3.3-2.6 6.9-4.3 10.2-1.5-4.8.3-9.6 2.5-13.8"/><path d="m37.4 96c1-.9 2-1.8 2.9-2.8.1.4.3 1.1.4 1.5.1.7.2 2.1.3 2.7-1.2-.5-2.4-1-3.6-1.5"/><path d="m61 103c1.7-.3 3.3-.5 5-.7 3.7.8 7.5 1.3 11.1 2.2-4.3 2.6-9.3 2.4-14 2.4-.7-1.3-1.4-2.5-2.1-3.8"/><path d="m316 107c5.9-1.4 11.7-4 17.9-2.9 3.9.9 6 5 9.7 6.2 3.5 1.3 7.9 1.4 10.5 4.5 2.6 3.4 4.1 7.7 4.2 12 .1 1.9-1 3.6-2.4 4.8-1.6-.6-2.8-1.7-4.1-2.7 1.5-1.1 2.9-2.2 4.4-3.2-1.3-3.4-2.2-7.4-5.3-9.7-3.1-2-6.8-2.5-10.3-3.4-1.5-.3-3-.7-4.5-1v1c-.2 1.8-.5 3.5-.8 5.2-1.6-2-3.2-4-4.8-6 .8-1.4 1.4-2.9 2.1-4.4-1.8.6-3.5 1.2-5.3 1.8-2-.8-4.3-2.3-6.3-.8-4.7 2.6-10 6.5-10.2 12.4-.4 4.4 2.7 8.4 1.6 12.8-2.4-3.5-4.3-7.5-4-11.8-.1-5.9 4-10.6 7.7-14.8"/><path d="m270 106c.6 0 1.7-.1 2.3-.1 1.4 1.1 3 2.2 3.8 3.9-.7 1.3-1.5 2.4-2.3 3.6-1.3-2.5-2.6-4.9-3.8-7.4"/><path d="m101 114c1.3-.7 2.5-1.4 3.8-2.1 3.3 3.9 7.5 6.9 10.5 11-2.8-1.8-5.9-.8-8.9-.5-1.3-3.2-2.6-6.4-5.4-8.4"/><path d="m27.6 121c4.2-2.8 8.1-6.7 13.4-7 3.6-.2 7.2-.1 10.8 0 4.7 0 8.3 3.7 12 6-.2.6-.6 1.8-.9 2.4-1.5-1-3-2.1-4.5-3.2-.8-.2-1.6-.3-2.4-.4-5-4.1-11.8-3.2-17.6-1.7-4.4 1.3-7.1 5.3-10.2 8.4-.4-.5-1.1-1.3-1.5-1.8.3-.9.6-1.8.9-2.7"/><path d="m15.6 119c2.7 1.5 5.4 3 8.2 4.2-.4 1.5-.7 3-1.2 4.4-2.1-1.3-4.3-2.7-6.4-4-1.1 3.3-2.1 6.5-3.1 9.8-.7.9-.2 3.2 1.3 2.3.9-.8 1.2-1.8 1-3 1.8-1.1 3.6-2.3 5.4-3.4.1.5.2 1.5.3 2-.2.4-.6 1.2-.8 1.6-1.5 2-3 4-5 5.6-1.9.4-3.8.1-5.7.1-1.3-7.2 3.8-13.2 6-19.7"/><path d="m338 141c2.7-4 5.2-8.3 5.5-13.3.5 2 1.1 4 1.6 6 .2 1.4.5 2.9.4 4.3-2.4 1.3-5 2-7.6 2.9"/><path d="m313 135c2.4.8 4.7 1.7 7 2.7.2.3.6.9.7 1.2.8 1.3 1.6 2.6 2.5 3.9-.4 1.3-.9 2.6-1.3 3.9-.7-.7-1.4-1.4-2.1-2.1-2.7-2.9-4.9-6.2-6.8-9.7"/><path d="m116 145c-.7-3.3 4.2-3.3 6.4-3.3-.7 3.1-3.5 4.5-6.4 3.3"/><path d="m166 147c2-.3 4-.6 6-.6-.1.9-.2 1.8-.3 2.7-1 .2-2.1.4-3.1.6-.9-.9-1.8-1.8-2.6-2.7"/><path d="m172 150c1.1.1 2.2.3 3.2.4 0 .9.1 1.8.1 2.7-.7.2-1.9.7-2.6.9-.2-.3-.7-1-.9-1.3 0-.7.1-2.1.2-2.7"/><path d="m21.3 160c1-3.3 3.4-6 5.5-8.8.6.9 1.1 1.7 1.6 2.6-1.6 2.2-3.6 4.3-4.3 7 .3 5.2 4.6 8.9 5.9 13.8.6 3.2-.2 6.5.2 9.7 1.1 2.4 3.5 3.9 5.3 5.7-1.2-.1-2.3-.3-3.5-.4-2.3-1.5-4.5-3.1-6.7-4.8 1.1-2.3 2.5-4.6 3-7.2-1.7-6.2-6.6-11.3-7-17.8"/><path d="m103 152c3.5 0 6.9.3 10.3.1 0 .6-.1 1.8-.2 2.4-3.6 0-7.3 0-10.2-2.5"/><path d="m204 153c.6-.3 1.8-.9 2.3-1.2 1.2.6 2.3 1.3 3.3 2.1-1.9.6-3.9 1.1-5.9 1.6.1-.6.2-1.8.3-2.4"/><path d="m63 173c.5-5.2-1.4-10.7.7-15.7 2.3 10.6 2.7 21.8-.7 32-2.4-5.3-.4-11-.1-16.5"/><path d="m143 161c.9-.5 1.8-1 2.8-1.5 0 3.2.2 6.5.4 9.7-1.1.7-2.2 1.4-3.3 2.2.7-3.4.6-6.9.2-10.3"/><path d="m87 164c1.1-1.3 2.2-2.6 3.3-3.9 1.4 3-.3 5.5-2.8 7.1-.1-.8-.4-2.4-.5-3.2"/><path d="m156 190c6.6-6.4 8.4-15.7 12.4-23.7 1 10.6-5.3 20.3-12.7 27.4-3 3.2-7.7 3.5-11.3 5.5-1.9 2-2.8 4.7-3.8 7.1-.5-1.6-1.1-3.2-1.6-4.7 1.6-2.2 3-4.9 5.7-5.8 4-1.5 8.4-2.4 11.4-5.8"/><path d="m138 172c.3-.1.8-.2 1-.3.3.7 1 2 1.3 2.7-2 3.1-5.1 5-8.5 6.2-.6-.4-1.8-1.1-2.4-1.5 3.3-1.7 6.4-4 8.6-7.1"/><path d="m202 174c.9-.1 2.6-.3 3.4-.4 2.4 1.2 5.1 2.1 7 4 1.5 2-.3 4.3-1.1 6.3-2.6-.2-3.8 2.2-3.8 4.5l-.4.3c-1 .5-2.1.9-3.2 1.2.4-4.6 5.6-7.3 5.3-11.8-2.5-1.3-5.3-2.1-7.4-4"/><path d="m93 176c.6-.1 1.8-.2 2.4-.3-.7 1.2-1.4 2.4-2.1 3.7-1.4 2.1-.4 4.7-.2 7 .1 2 .1 4 .1 6-.6 0-1.8-.1-2.4-.1-.1-2.1-.2-4.1-.4-6.2-2.6-.5-5.1-1.1-7.7-1.7 2.3-1.5 4.8-2.5 7.3-3.3 1-1.7 2-3.5 2.9-5.3"/><path d="m219 178c2.9.8 6 1.3 9 1.3-.1.9-.1 1.7-.2 2.6-1.7.8-3.3 1.7-4.9 2.5-1.7-1.9-3.2-4-4-6.5"/><path d="m337 177c3.9 0 7.9.3 11.8 1.2 1.5 2.3 3 4.7 4.3 7.1-1 .9-1.9 1.8-2.9 2.6-2.5-3.8-4.8-8.8-10-8.6-1.2-.2-2.3-.3-3.5-.4.1-.5.3-1.5.4-2"/><path d="m317 186c5.8 1.3 10-3.7 14.4-6.6.4 1 .9 2 1.3 2.9-2.9 1.5-6.1 2.8-8 5.5-1.6 2.3-2.3 5-2.9 7.7-.6-.7-1.1-1.5-1.6-2.2.2-1.2.5-2.3.7-3.5-2.4-.6-4.8-1.3-7.2-2 1.1-2.8 3-5.1 5.6-6.7-.8 1.6-1.5 3.2-2.2 4.8"/><path d="m121 183c.4-1.1.8-2.3 1.2-3.4 2.3.7 4.5 1.4 6.8 2.1-2.5 1.4-5.3 1.8-8 1.3"/><path d="m79 186c2.6 1.8 4.4 4.3 6.1 7-1.4.8-2.8 1.5-4.3 2.2-2.1-2.6-2.2-6-1.8-9.2"/><path d="m32.4 191c1.3 4.3 1.1 8.8.9 13.2-.4.1-1.3.2-1.8.3-.5-2-1-4-1.4-6 0-2.7 1.1-5.1 2.2-7.4"/><path d="m197 192c1.8.5 3.6 1.1 5.4 1.6 1.5-.8 3-1.6 4.6-2.3.1 1.6.2 3.2.3 4.8-4 .1-8-.1-12 .1-.3 0-1 .1-1.3.1 1.1-1.4 2.2-2.8 3.2-4.3"/><path d="m116 195c.9-.2 2.8-.6 3.8-.8.1 1.1.3 2.2.5 3.3-.1 1.6-.4 3.2-.6 4.7-1.3-2.4-2.5-4.8-3.6-7.2"/><path d="m327 206c.8-3.8 1.8-7.7 3.1-11.4 2.7 3.7 1.6 9.8-3.1 11.4"/><path d="m14.5 201c4 .9 7.8 2.2 11.7 3.6 1.2.8 2.4 1.6 3.6 2.4-.1.5-.4 1.4-.6 1.9-1 .3-1.9.6-2.9.9-4.3-1.3-8.4-3-12.3-5.2.1-1.2.3-2.4.5-3.6"/><path d="m97 206c-.3-1.9-.6-3.8-.8-5.7 1.5.3 2.9.6 4.3.8-1.2 1.6-2.3 3.3-3.5 4.9"/><path d="m157 210c4.3-2.1 6.8-7.6 12-7.5-4.1 4.6-8.6 9.3-14.3 12-1.6.8-3.1-.5-4.6-.9-2.5-1.2-5.4-.8-8-1.3-1.4-.6-.9-2.3-1.1-3.5 2.8-.1 5.6 0 8.2.9 2.5.7 5.3 2.1 7.7.3"/><path d="m202 202c1.3.1 2.7.2 4 .3-.1.6-.2 1.7-.2 2.3-.5 1.3-2.4 1-3.5 1.6-.1-1-.3-3.1-.3-4.1"/><path d="m202 208c1.3.1 2.6.3 3.9.4.6 2 1.4 3.9 1.8 6-1.1 2.2-3.7 3.1-5.7 4.2l-.8.4c1.1-2.3 2.5-4.4 4-6.4-1.1-1.5-2.1-3.1-3.2-4.6"/><path d="m349 211c.7 0 2 .1 2.7.2.4 1 .8 1.9 1.3 2.9-1.3.3-2.6.7-3.9 1 0-1.4-.1-2.7-.1-4.1"/><path d="m27.9 212c1.2 0 2.4-.1 3.6-.1-1.5 3.7-2.5 7.6-3.1 11.6-1.1-.7-2.2-1.4-3.3-2.1.9-3.2 1.8-6.3 2.8-9.5"/><path d="m65.7 219c1.8-1.3 3.9-2.4 6-1.2 0 .8.1 2.3.1 3-.7.3-2.2.8-2.9 1.1-1.1-1-2.2-1.9-3.3-2.9"/><path d="m96 218c.5-.4 1.7-1.1 2.2-1.4.3 1.7.6 3.4.9 5.1-1-.4-2-.8-3-1.2 0-.6-.1-1.9-.2-2.5"/><path d="m86 226c1.5-1.6 3-3.1 4.7-4.6-.6 2.3-1.2 4.5-2.3 6.6-1.7 2.4-3.5 4.8-5.5 7 .4-3.2 1.5-6.2 3.1-9"/><path d="m34.8 228c1.1-1.5 2.5-2.9 3.8-4.3.6.1 1.9.4 2.5.5.4 1.7-.5 4.3 1.6 5.1.9-1.1 1.6-2.2 2.4-3.3 1.1.1 2.2.3 3.4.4-1.3 2.7-3.8 4.6-6.8 4.9-2.4-.5-4.4-1.9-6.6-2.9.7 1.8 1.5 3.5 2.2 5.3-1.9 1.1-3.8 2.2-5.8 3.3-.8.4-1.7.9-2.5 1.3-.1 1.5-.3 3-.4 4.5 2-1 4-2 6-3-1.3 1.7-2.5 3.3-3.6 5.1-.1.7-.2 2.2-.2 2.9 1.2 3.1 3 5.9 4.9 8.7-1.8 1.9-3.6 3.7-5.2 5.7 0-2.4.4-4.8 0-7.1-1-3.6-3.5-6.7-4.1-10.5-.3-3.4 0-6.8.1-10.2 1.7-.4 3.4-.7 5-1.3 1.4-1.6 2.3-3.4 3.5-5.2"/><path d="m95 224c.8.1 2.3.2 3 .3-1.5 2.8-3.3 5.6-6.3 7 .9-2.5 2-4.9 3.2-7.2"/><path d="m98 230c.6 0 1.8 0 2.4 0-1 2.6-2.2 5.1-3.4 7.6-.7 0-2.2-.1-3-.1 1.4-2.4 2.8-4.8 3.9-7.4"/><path d="m112 237c1 0 2 0 2.9.1-.7 2.9-1.4 5.8-2.2 8.6-1.9 5.4-1.2 11.1-.5 16.7.5 5.6.6 11.2 0 16.7-.4 2.1-2.9 2.1-4.6 1.9-.2-6.2 3.1-12 1.2-18.3-1.7 3.3-2.8 6.8-3.9 10.3-.6-.7-1.9-2.2-2.5-2.9 2.6-6 4.3-12.4 5.1-18.8-3.8.3-7.5-.8-11.2-1.1-2.5 1.3-4.6 3.2-6.7 4.9-.9 1.2-1.9 2.3-2.4 3.7.7 2.9 1.6 5.7 2.3 8.6 1.5-.2 2.9-.8 4.2-1.3-.6 2.5-2.8 5.2-1 7.6 1.3 2.4 4.4 2.2 6.6 2.8.4 1.2.8 2.4 1.2 3.6-4 .3-8.4.3-12-1.7-.5-2.7-.4-5.4-1.3-8-1-3.8-2.8-7.6-2.7-11.6.9-7.3 2.9-14.3 5.2-21 1.1 1.1 2.2 2.2 3.3 3.3-1.6 3.3-3.3 6.5-5.1 9.7.5.4 1.5 1.2 2 1.6 1.7-1.6 3.3-3.2 5-4.8 1.3.4 2.7.8 4 1.2 3 .2 7.4 2.8 9.4-.5 2.1-3.3 2.6-7.2 3.5-10.8"/><path d="m218 246c-.1-2.5 2.5-3.8 4-5.3-.6 2.1-1.4 4.2-1.6 6.4 1.2 2.7 4.6 4.8 3.4 8.2-2.5-2.6-6.4-5.1-5.8-9.3"/><path d="m268 254c2.3-3.3 2.4-7.4 2.7-11.3 1.5 1.8 2.1 4.1 2.6 6.4-1.5.5-1.9 2.5-1.2 3.8-3.2 3.4-4.8 7.9-6.5 12.2-2.1-4 .1-7.8 2.3-11.1"/><path d="m79 245c1.9.2 3.7.4 5.6.6-1.2 1.9-3.2 2.9-5.2 3.8-.1-1.5-.3-3-.4-4.4"/><path d="m320 255c.2-.4.6-1.3.8-1.7.7 4.3-.2 8.5-.6 12.7 2.6 1.5 5.4 2.5 8 3.7-.8.2-2.5.5-3.3.7-2.6 0-5.3-.3-7.5-2 .3-4.5 1.3-9 2.5-13.3"/><path d="m223 270c0-4.2.3-8.4 1.1-12.5 3.5 4.1 1.7 9.5 1.4 14.3-.8-.6-1.7-1.2-2.5-1.8"/><path d="m309 275c1.6-4.7 2.2-10 5.8-13.8 1.2 2.8.3 5.8-.6 8.5-.6 1.7-1.1 3.4-1.5 5.1-1.2.1-2.4.2-3.7.2"/><path d="m270 268c3.3-1.3 5.8-4 8.9-5.8.1 4.1-.8 8.1-2.7 11.7-.5 1.3-1 2.6-1.5 3.9-1.1-2.1-2.1-4.3-3.2-6.4-3-.9-6.1-1.8-9.2-2.4.2-1 .4-1.9.6-2.9 1.1 0 2.1-.1 3.2-.1 1.3.7 2.6 1.4 4 1.9"/><path d="m211 269c1.9-2.3 4.2-4.4 7.2-5.2-.5 4.7-3.5 8.6-7.1 11.6-.8-.1-2.3-.3-3.1-.4 1-2 1.8-4 3-5.9"/><path d="m71.9 264c2 1.1 3.8 2.3 5.3 4.1.6 1.9 1.6 3.9 1.1 5.9-.6 2.2-3.2 2.4-4.9 3.4-.5-.1-1.4-.2-1.8-.3 1.2-2.2 3.8-4.4 2.4-7.1-.6-2-1.4-4-2-6"/><path d="m138 269c1-.7 1.9-1.4 2.9-2 1.1 2 2.1 4 3.2 6-.6.4-1.7 1.3-2.3 1.7-1.3-1.9-2.6-3.8-3.8-5.7"/><path d="m391 277c-.1-3.5.4-6.9 1.6-10.2.8 4.4 1 8.9 1 13.4-2.4.4-4.9.8-7.3 1.1 0-1.9-.1-3.8.2-5.7 1.5.4 3.1.9 4.6 1.3"/><path d="m358 271c.5-.4 1.6-1.1 2.1-1.4 1.4 3.9 4.5 6.5 8.5 7.4-2.8 1.7-5.8 3.1-8.8 4.3-1.1.2-2.2.3-3.3.5 1.8-2.7 3.6-5.9 2.5-9.2-.3-.4-.8-1-1.1-1.4"/><path d="m298 276c2.6-1.4 5.5-1.2 8.3-.4-2.6 1.6-5.5 1.2-8.3.4"/><path d="m278 276c6.1.2 12.3.2 18.4-.2 2.3 2.8 4.9 5.3 7.9 7.3-4.4.8-8.8 1.8-13.2 2.1-5 .5-9.9-.4-14.9 0-5.8.3-11.4 1.6-17.2 1.2-6.7-.6-13.4.2-20 .6 6.9-4.4 15.3-1.8 22.9-3 8.9-1.1 17.8-2.3 26.8-1.8 2.1 0 4.3 0 6.4-.1.1-.9.2-2.6.3-3.5-2.2 0-4.4 0-6.6 0-3.7 0-7.7.1-10.5-2.7"/><path d="m32.7 282c.3-.3.8-1 1-1.4.3 1.7.5 3.4.8 5.2 2.8-.7 5.6-1.6 8.3-2.6.2 1.1.4 2.3.6 3.4-.8.9-1.6 1.7-2.5 2.6-8.8.7-17.7.4-26.6.7 1.2-1.9 2-4.2 3.9-5.6 1.6 1.6 2.9 4.4 5.6 3.7 3.9-.2 6.8-2.9 8.8-6"/><path d="m207 288c8.2-2.8 16.9-3.4 25.5-3.4-.2.7-.5 2.1-.6 2.9-8.4-1.2-16.6 2.6-24.9.5"/><path d="m50 295c4.3-.8 8.8-.7 12.8 1.3.8.6 1.5 1.3 2.3 1.9-7.8-.2-15.7-.9-23.4 1.1-.4 0-1.3.1-1.7.2-3.3 0-6.6-.3-9.9-.5 0-.6 0-1.7.1-2.3 6.7 0 13.3-.4 19.9-1.7"/></g><g style="fill:#7f1c19"><path d="m241 105c2 1.3 3.8 2.9 4.5 5.3-1.4-.1-2.8-.3-4.3-.4.7 1.9 1.4 3.8 2.1 5.6-.9.1-2.7.2-3.6.3-.7-1.4-1.6-2.9-2.1-4.4 0-2.5 2.1-4.4 3.3-6.4"/><path d="m27.4 108c1.9-.6 2.7 2.5.8 2.9-1.9.6-2.7-2.5-.8-2.9"/><path d="m162 120c4-2.4 7.7-5.2 11.4-8 6 2.8 12.7 3.5 19.2 4.1 1.3 5.3 1.4 11.3 5.2 15.6 1.3 1 2.7 2 4.1 3-1.3 2.5-3.1 4.9-3.5 7.8 1.2 2.5 3.2 4.5 4.5 7-.7 1.2-1.7 2.9-3.3 2.7-4.1-.4-8.1-1.8-12.3-2.2-1.6-.1-3.2-.1-4.8-.1-.1.6-.3 1.7-.3 2.2-.2 1.2-.4 2.5-.7 3.7-2.4.3-4.9.7-7.3 1.4-.6-.9-1.1-1.7-1.7-2.5.7-.2 1.9-.7 2.6-.9 0-.9-.1-1.8-.1-2.7-1.1-.1-2.2-.3-3.2-.4-.1.7-.1 2.1-.2 2.7-1.2-1.3-2.5-2.5-3.8-3.8 1-.2 2.1-.4 3.1-.6.1-.9.2-1.8.3-2.7 1.1.1 2.2.2 3.4.3-1-1.8-2-3.5-3-5.3.9-.7 1.8-1.3 2.7-2-.3-.3-.6-.7-.9-1-1.4.1-2.8.3-4.2 0-2.3-1.5-4.4-3.4-7.2-4.1 1.3 2.8 2.8 5.6 4.3 8.3-2.2.1-4.3.3-6.5.4.5 1 1 2 1.6 3-.6.2-1.9.5-2.5.7.1 3.1.2 6.3.7 9.3-.8-1.8-1.4-3.8-2.1-5.7-2 1-3.9 2.1-6 2.9-.3-1-.5-2.2-.1-3.2 2.1-6.7 5.8-12.8 7.4-19.7.4-1.2.8-2.4 1.2-3.7.7-.1 2.1-.4 2.8-.5-.1 2.3-.2 4.7-.4 7 1.8-1.3 3.5-2.7 5.3-3.9-2.9-2.5-5.8-5.5-5.7-9.6m10.4-3.5c.8 1.4 1.7 2.9 2.6 4.3-.9 2.8-2.1 5.6-2.2 8.6.9 2.9 4 3.8 6.7 4.3-1.2-2.2-2.6-4.3-4-6.4 1.8-2.7 4.3-4.9 7.7-5.3-4-.9-7.2-3.5-10.7-5.5m11.3 9.2c-.5 1.6 0 2.2 1.7 1.7.5-1.6 0-2.2-1.7-1.7m-8.8 15.9c.6 2.4 2.3 3.9 4.8 4.4 0-.9 0-2.7 0-3.5-1.6-.3-3.2-.6-4.7-.8z"/><path d="m56 119c.8.1 1.6.3 2.4.4 1.5 1.1 3 2.2 4.5 3.2-.1.2-.3.7-.3.9-2 5.7-5.1 11-6 17-.1 1.7 0 3.3.2 5-1.3 2.3-3 4.4-5 6.1-1.5-5 2.3-9.5 1.2-14.6-1 .8-2 1.6-3 2.4-.1-2 0-4.1-.6-6-1-1.7-3.3-1-4.9-1.2-.1-2.4.2-5 1.7-6.9 1.3-1.6 2.8-4.2 5.2-3.1 1.6 2.8 2.7 5.9 4.5 8.7.6-.2 1.7-.6 2.2-.8.1-.3.4-.9.5-1.3-1.3-.8-2.7-1.5-4-2.3.5-2.5.9-5 1.4-7.5m-.2 4.8c0 .8 0 2.4 0 3.2.8 0 2.5.1 3.3.1 0-.8 0-2.5 0-3.3-.8 0-2.5.1-3.4.1m-8.7 4.2c-.5 1.6 0 2.2 1.7 1.7.5-1.6 0-2.2-1.7-1.7z"/><path d="m317 122c2.4.3 4.2 1.8 5 4-1.6 2.1-3.2 4.2-4.7 6.3-.6-1.2-1.2-2.4-1.7-3.6.6.2 1.8.7 2.4.9.7-1.8 1.4-3.7 2.1-5.5-.9-.3-2.6-.7-3.5-1l.4-1.1"/><path d="m319 136c1.7-2 3.4-4 5.1-6 .3.5 1 1.5 1.3 1.9-1.3-.1-3.4.7-2.9 2.3 1.2 1.6 3.3-.2 3.4-1.8 1.3 1.7 2.7 3.3 4 5v1c-1.3.5-2.6 1.9-4 1.1-1.7-.9-3.1-2.2-4.7-3.4-.1.8-.3 2.4-.4 3.2-.2-.3-.6-.9-.7-1.2-.3-.6-.8-1.7-1-2.2"/><path d="m129 169c4.5-3.1 9.3-5.7 14-8.4.4 3.4.5 6.9-.2 10.3-.8.9-1.6 1.9-2.3 2.8-.3-.7-1-2-1.3-2.7-.3.1-.8.2-1 .3-2.2 3.1-5.3 5.4-8.6 7.1.6.4 1.8 1.1 2.4 1.5-1.1.5-2.2.9-3.3 1.4-2.3-.7-4.5-1.4-6.8-2.1 2.8-.6 7.1 0 8.2-3.3.3-2.4-.6-4.7-1.1-7"/><path d="m99 180c.3-2.7.8-5.3 1.5-7.8.8.2 2.3.7 3.1.9-.2 1.2-.3 2.3-.5 3.5-1.4 1.1-2.8 2.2-4.1 3.4"/><path d="m107 176c.7-.2 1.3-.4 2-.6.1 5 2 9.7 2.2 14.6-2.2-.8-4.9-1.6-5.9-4-.3-3.5.9-6.8 1.7-10.1"/><path d="m124 175c.9-1.1 3.1-.6 3.3.8-.2 2.2-4.4 1.2-3.3-.8"/><path d="m102 207c.7-.2 2.2-.4 2.9-.6.2 5.3 1 10.6.1 15.8-1.2 2.8-3.9 4.6-6 6.6.5-3.3 2.2-6.2 3.3-9.3-.4-1.8-1.3-3.4-2.1-5l-.3-.7c.6-.1 1.9-.3 2.5-.4-.2-2.1-.3-4.3-.4-6.4"/><path d="m176 211c2.4-.7 4.9-1.3 7.5-1.4-.4 1.9-.7 3.8-1 5.8 1.7-.2 3.3-.3 5-.5-2.5 3.2-6.2 5-10 5.8 0-.9 0-1.8.1-2.7-1.1-.1-2.1-.3-3.2-.4.8-2.1 1.3-4.4 1.7-6.6"/><path d="m47 212c2.2.1 4.5-.2 6.7.5 1.7 1.3 2.9 3.1 4.3 4.7.8-.3 1.6-.6 2.4-.8 1.7 1 3.5 1.7 5.3 2.1 1.1.9 2.2 1.9 3.3 2.9-.8.3-1.7.6-2.5 1-.3 1.9-.5 3.8-.8 5.7-1-3-2.5-5.9-3.9-8.8-2.6.6-5.2 1.2-7.8 1.8.4-1.1.8-2.3 1.1-3.4-1.7.2-3.5.4-5.2.7.2 1.2.4 2.4.6 3.6.4 1.7 1 3.3 1.4 4.9-1.1-.1-2.3-.3-3.4-.4-1.1-.1-2.2-.3-3.4-.4.6-.9 1.1-1.8 1.6-2.7.1-3.8-.1-7.5.2-11.3"/><path d="m32.5 226c1.3-3 3-5.9 6-7.5 0 1.6.1 3.2.1 4.8-1.3 1.4-2.6 2.8-3.8 4.3-.6-.4-1.8-1.2-2.4-1.7"/><path d="m29 238c.9-.4 1.7-.9 2.5-1.3 1.6.7 3.2 1.3 4.7 1.9.6.2 1.9.7 2.5.9-.3 4.5.1 9.2 2.2 13.3-1.4-1.6-3-3.1-4.5-4.7 1.2 2.8 2.4 5.6 3.7 8.3-1.5-.1-2.9-.2-4.4-.3-1.9-2.8-3.7-5.6-4.9-8.7 1.5.1 3 .1 4.5.1-.6-.9-1.1-1.9-1.7-2.8-.6-.1-2-.2-2.6-.2 1.1-1.8 2.4-3.4 3.6-5.1-2 1-4 2-6 3 .1-1.5.3-3 .4-4.5m6.1 13.2c-.9 1.1-.7 1.8.8 1.9.9-1.1.7-1.8-.8-1.9z"/><path d="m389 255c.1-2.8.2-5.7.3-8.5.4 4 1.9 7.8 3.3 11.5.1 2.7.1 5.3.1 8-1.1 3.3-1.6 6.7-1.6 10.2-1.5-.4-3.1-.9-4.6-1.3.5-1.3 1.1-2.6 1.7-3.9-1.7-.8-3.5-1.6-5.2-2.4.2-1.5.3-2.9.4-4.4.7.1 2.1.2 2.8.2-2.4-2.5-5.5-4.1-8.9-5-.8-1-1.6-1.9-2.4-2.9 3.8-1.9 7.8 0 11.4 1.2.3-.6.8-2 1-2.6.6 0 1.1 0 1.7-.1"/><path d="m334 263c2.5.6 5 1.1 7.4 1.8.1 2.3.1 4.5.6 6.8 1.3.8 2.9 1.3 4.3 1.9-.7 1.3-.9 3.3-2.6 3.6-3.5 1.2-7.3.5-10.4-1.4 2.6-1 5.2-2 7.8-2.8-1.3-4-4.1-7.1-7.2-9.8"/><path d="m31.8 279c2.6-3.3 5.4-6.6 9.6-7.9-.8 2.8-1.7 5.5-2.9 8.1-.9-.7-1.8-1.3-2.6-2-.8 1-1.5 2-2.3 3-.3.3-.8 1-1 1.4-.2-.6-.6-1.9-.9-2.5"/></g><g style="fill:#fdd9d1"><path d="m162 134c2.7.8 4.8 2.7 7.2 4.1 1.4.3 2.8.1 4.2 0 .3.3.6.7.9 1-.9.7-1.8 1.3-2.7 2 1 1.8 2 3.5 3 5.3-1.1-.1-2.3-.3-3.4-.3-2 .1-4 .3-6 .6.9.9 1.7 1.8 2.6 2.7 1.3 1.2 2.6 2.5 3.8 3.8.2.3.7 1 .9 1.3.6.8 1.2 1.7 1.7 2.5-.4.3-1.2.8-1.6 1.1-.8-.6-1.6-1.3-2.3-1.9-3.5-2.9-7-6-8.9-10.3-.6-1-1.1-2-1.6-3 2.2-.2 4.3-.3 6.5-.4-1.5-2.7-3.1-5.4-4.3-8.3"/><path d="m84 218c1.2-.4 2.4-.9 3.6-1.3-.5.3-1.6 1-2.1 1.3-1.4 2.7-.7 5.6.4 8.2-1.6 2.8-2.7 5.8-3.1 9 2-2.2 3.9-4.5 5.5-7 1 1.3 2.1 2.7 3.1 4.1-.5 1.5-1 3-1.5 4.5-2.3 6.9-4.3 14-5.2 21-.1 4 1.8 7.8 2.7 11.6.8 2.6.8 5.4 1.3 8 3.6 2 8 1.9 12 1.7 0-3.4.3-6.9 1.9-10 .6.7 1.9 2.2 2.5 2.9-.6 1.9-1.1 3.8-1.6 5.8 1.5.8 2.9 1.6 4.4 2.3 1.7.2 4.2.2 4.6-1.9.5-5.5.4-11.2 0-16.7 1.6.3 3.3.6 4.9.9 1.7 3.8 2.4 8 2.6 12.2-.9 4.5-5.3 6.4-8.6 8.9-7-2.3-14.3-.6-21.4 0-3.6.4-6.7-1.7-10-2.4-3.1.1-6.1.9-9.2 1.3-.5-.8-1.5-2.3-2-3 1.6-.7 3.2-1.5 4.8-2.2 1.7-.9 4.3-1.2 4.9-3.4.5-2-.5-4-1.1-5.9 1.6-3.2 3.2-6.5 4.6-9.8-1.8-1.7-4-3.2-5-5.5-.5-3.8.6-7.5 1-11.3.9-8.1 5.3-15.3 6.1-23.5m-3.3 20c.6 1.6 1.5 3.2 3.1 4 .1-1.4.2-2.8.3-4.3-.9.1-2.5.2-3.4.3m-1.8 6.4c.1 1.5.3 2.9.4 4.4 2-.9 4-1.9 5.2-3.8-1.9-.2-3.7-.4-5.6-.6z"/><path d="m364 268c3.8-1.1 7.5-2.2 11.3-3.2 1.8 0 3.6.1 5.4.1-1.3 5.3-2.6 11-.1 16 1.3-3.9 2.5-7.9 3.1-12 1.7.8 3.4 1.6 5.2 2.4-.6 1.3-1.1 2.6-1.7 3.9-.2 1.9-.2 3.8-.2 5.7-3 .3-6.1.2-9.1.1-2.9-1.4-5.9-2.6-9-3.6-4-.8-7.1-3.5-8.5-7.4 1.2-.8 2.4-1.6 3.6-2.3"/><path d="m33.7 281c.8-1 1.5-2 2.3-3 .9.7 1.7 1.4 2.6 2 1.3.4 2.5.7 3.8 1 .1.8.3 1.7.4 2.6-2.7 1-5.5 1.9-8.3 2.6-.3-1.7-.5-3.5-.8-5.2"/><path d="m289 279c2.2 0 4.4 0 6.6 0-.1.9-.2 2.6-.3 3.5-2.1.1-4.3.1-6.4.1 0-1.2 0-2.4.1-3.6"/></g><g style="fill:#fdc8c3"><path d="m19 105c5.6 1.2 11.3.9 16.9.5.2.2.6.7.8 1-2.4.8-5.5 1.1-6.9 3.5-2.1 3.5-1.7 7.7-2.3 11.5-.3.9-.6 1.8-.9 2.7-.5 1.4-1.1 2.8-1.7 4.3-.5 1.3-1 2.6-1.5 3.9-.5-.5-1.6-1.4-2.1-1.8.4-1 .8-2 1.2-3 .4-1.5.8-3 1.2-4.4-2.8-1.2-5.6-2.7-8.2-4.2 1.2-3.8 3.5-7 5-10.7-.3-1.1-.9-2.1-1.5-3.1m8.3 3.1c-1.9.4-1.1 3.5.8 2.9 1.9-.4 1.1-3.6-.8-2.9z"/><path d="m13.2 133c.6-.2 1.7-.5 2.3-.7.2 1.2-.1 2.2-1 3-1.5.9-2-1.4-1.3-2.3"/><path d="m90 158c1.5.2 3.1.4 4.6.6-1 3.3-1.3 6.8-3 9.8-1.9 2.3-4.7 3.6-7 5.3-.2-3.4.1-7 2.5-9.6.1.8.4 2.4.5 3.2 2.5-1.6 4.2-4.1 2.8-7.1-.1-.5-.3-1.7-.4-2.2"/><path d="m146 159c1.2 3.1 2.8 6.8.4 9.7-.2-3.2-.3-6.5-.4-9.7"/><path d="m103 177c1.2-.5 2.5-.9 3.8-1.3-.8 3.3-1.9 6.7-1.7 10.1 1 2.4 3.7 3.1 5.9 4 1.2.2 2.4.4 3.6.5 1.5-.3 2.9-.7 4.4-1.1 0 1.6 0 3.2.2 4.7-.9.2-2.8.6-3.8.8 1.1 2.5 2.3 4.9 3.6 7.2.3-1.6.5-3.1.6-4.7 1 4.8 1.5 9.8 3.9 14-.5-.5-1.5-1.6-1.9-2.1-.5-.6-1-1.1-1.6-1.7-1.8-1.7-4.1-3.8-6.8-2.9-2.6 1-3.5 3.9-3.9 6.5.2 4.7.9 9.3.9 14 0 3-.2 6 .4 9-1.1 2-2.2 4.1-3.4 6.1-.6-.1-1.8-.2-2.4-.3-1.8 0-4.2-.8-5.3 1-.9 2.3-.7 4.7-.7 7.1-1.4-.4-2.7-.8-4-1.2-1.7 1.6-3.3 3.2-5 4.8-.5-.4-1.5-1.2-2-1.6 1.8-3.2 3.5-6.4 5.1-9.7-1.1-1.1-2.2-2.2-3.3-3.3.5-1.5 1-3 1.5-4.5-1-1.4-2.1-2.7-3.1-4.1 1-2.1 1.7-4.4 2.3-6.6-1.6 1.4-3.2 3-4.7 4.6-1-2.6-1.7-5.6-.4-8.2 1.2 1 2.4 2.1 3.7 3.1-.1-1.6-.2-3.3-.3-4.9 0-7.6-4.3-14.2-7.5-20.9 1.4-.7 2.9-1.4 4.3-2.2 1.7-2.1 3.2-4.4 4.7-6.6.2 2.1.3 4.1.4 6.2.6 0 1.8.1 2.4.1 0-2 0-4-.1-6 .7 2.7 1.5 5.3 2.2 7.9-.5.5-.9 1.1-1.4 1.6-2.2 2.3-4.8 4.2-7.3 6.1 1.5.6 3 1.2 4.5 1.8 0 .4 0 1.2 0 1.6.2 2.5.5 5.1.8 7.6 1.2-.1 2.4-.1 3.6-.2 1.7.4 3.4.9 5.1 1.4.7 1.7 1.7 3.2 2.1 5-1.1 3.1-2.9 6-3.3 9.3 2.1-2 4.8-3.8 6-6.6 1-5.2.1-10.6-.1-15.8-.7.2-2.2.4-2.9.6.1 2.1.3 4.3.4 6.4-.6.1-1.9.3-2.5.4-1.1-2.5-2-5.1-2.6-7.8 1.2-1.6 2.3-3.3 3.5-4.9-1.5-.3-2.9-.5-4.3-.8l-.2-.8c1.3-.3 2.7-.7 4-1 1.3 1.1 2.7 2.2 4.1 3.3-.1-2.7-.2-5.3-1.1-7.9-1.6-1.9-3.7-3.6-4.6-5.9-1.2-2.9-1.9-6-4-8.5 1.4.1 2.9.2 4.3.3 1.4-1.1 2.7-2.3 4.1-3.4m-7.3 41c0 .6.1 1.8.2 2.5 1 .4 2 .8 3 1.2-.3-1.7-.6-3.4-.9-5.1-.5.4-1.7 1.1-2.2 1.5m-.9 5.7c-1.2 2.3-2.3 4.7-3.2 7.2 3-1.4 4.8-4.1 6.3-7-.8-.1-2.3-.2-3-.3m2.7 6.3c-1.1 2.6-2.5 5-3.9 7.4.7 0 2.2.1 3 .1 1.2-2.5 2.4-5 3.4-7.6-.6 0-1.8 0-2.4 0z"/><path d="m340 180c5.3-.2 7.6 4.8 10 8.6 1-.9 1.9-1.7 2.9-2.6 2.7 4.5 4.7 9.4 6.3 14.3-2.9-1.4-5.3-3.6-5.9-6.9-5.8-.6-11.5-1.9-17.3-2.6-.4 3.4-.7 6.7-1.1 10 1.8-.7 3.6-1.5 5.5-1.9.6 1.6.9 3.2 1.4 4.8 1.4-.8 2.7-1.5 4.1-2.2 1.9 2.6 3.7 5.1 5.5 7.7 3.3-.9 6.4-2.2 9.4-3.9.6 2.1 1.2 4.2 1.7 6.3-.1 1.6-.3 3.1-.4 4.7-.9-.8-1.8-1.5-2.6-2.2-1.7 1.8-3.2 4-5.5 5.1-6.2 1-11.9-2.3-17.7-4.1-.4-.1-1.3-.4-1.7-.5-2.9-.8-6-1.8-9-1.2-4.2 1.9-4 7.1-5 10.9-.2-5.7-2.8-11.3-1.5-17 2.4 2.1 3.3-1.1 2.4-3-.1-2.9.1-5.8.5-8.7.6-2.7 1.3-5.4 2.9-7.7 2-2.7 5.2-4.1 8-5.5.6-.3 1.2-.6 1.8-.9.3 1.6.5 3.2.8 4.9.5-.1 1.6-.4 2.1-.6.8-1.9 1.6-3.9 2.4-5.8m-12.7 26.7c4.6-1.5 5.8-7.7 3.1-11.4-1.3 3.7-2.3 7.5-3.1 11.4m22 4.7c0 1.3 0 2.7.1 4.1 1.3-.3 2.6-.7 3.9-1-.4-1-.9-1.9-1.3-2.9-.7 0-2-.1-2.7-.2z"/><path d="m49 227c1.1.1 2.3.2 3.4.4-.4 1.7-.5 3.8-2.3 4.7-4.4 2.6-9.3 4.2-13.4 7.4-1.6-.6-3.2-1.3-4.7-1.9 2-1 3.9-2.2 5.8-3.3-.8-1.8-1.5-3.5-2.2-5.3 2.2 1 4.3 2.4 6.6 2.9 3-.3 5.5-2.2 6.8-4.9"/><path d="m182 244c.7-1.9 2.1-3.6 4.1-4.1-.1.6-.2 1.8-.2 2.3-4 7.9-8 17.8-3.1 26l.5 1.1c-1.9 1.4-4.6 2.8-6.7 1-.7-1.7.8-3.6 1.2-5.3-.7-1.2-2.5-2.3-1.6-3.8 1.7-5.9 3.3-11.8 5.8-17.4"/><path d="m96 250c3.7.3 7.4 1.5 11.2 1.1-.8 6.5-2.5 12.8-5.1 18.8-1.5 3.1-1.8 6.6-1.9 10-.4-1.2-.8-2.4-1.2-3.6-2.3-.6-5.4-.4-6.6-2.8-1.8-2.5.3-5.2 1-7.6-.8-3.9-2.5-7.5-4.1-11 2.1-1.8 4.2-3.6 6.7-4.9m2.9 15c-1 .8-.8 2.9.6 3 2-.1 1.4-4.1-.6-3z"/></g><g style="fill:#560706"><path d="m242 73c2.4-.8 5-1.3 7.6-1.4 3.8 1 3.9 5.2 4.2 8.4 4.4 3.2 9.1 6.3 11.7 11.2 2.7 4.1.1 10 4.2 13.5-1.8-.1-4.2.5-5.2-1.4-1.3-3.6-.3-7.6-1.9-11-2.5-4.4-7.5-6.5-10.9-10-1.5-1.9-1.6-4.4-2.2-6.7-1.8.7-3.6 1.4-5.3 2.2-.7-1.6-1.4-3.1-2.1-4.7"/><path d="m235 85c1.3-2.8 4.2-4.2 6.9-5.4.7.8 1.3 1.5 2 2.3-5.8 3.8-9.3 9.9-11.8 16-.7 2.2.6 4.3 1.2 6.3 1.5 4.6 3.9 9.8 1.4 14.6-1.7-3.1-2.9-6.5-3.7-10-.7-3.4-2-6.5-3.9-9.4 3.1-4.6 5.5-9.6 8-14.6"/><path d="m40.8 95c.8 1.5 1.6 3 2.8 4.2 4 .5 8-.7 12-.4 3.6.5 6.9 2 10.4 3-1.7.2-3.3.5-5 .7.7 1.3 1.4 2.6 2.1 3.8-8.2 1.6-16.7-.7-24.8 1.8-.4-.5-1.1-1.4-1.5-1.8-.2-.2-.6-.7-.8-1-5.6.5-11.3.7-16.9-.5-1.1-1.5-2.4-2.9-3.5-4.4 1.3-1 2.4-2.4 4-2.9 5.9-.9 12.5 2.1 17.8-1.3 1.2.5 2.4 1 3.6 1.5-.1-.7-.2-2.1-.3-2.7"/><path d="m266 120c1-.4 1.9-.8 2.9-1.2 2.8 4 5.1 8.3 7.7 12.4-.4 2-.3 4.7-2.8 5.4-4.1-.9-7.8-3.2-11.5-5.1 3.3-1.2 6.7-.2 9.9.5-1.4-4.3-3.5-8.4-6.3-12"/><path d="m94 124c2-1.6 4-3.1 6.2-4.5-.4 3.3-1.2 6.5-2 9.6 1.2 0 2.3 0 3.5 0 .5-1.5 1-3 1.5-4.6 3.5 2.3 4.3 6.5 5.7 10 2.4-3 5-6 8.1-8.3 1.8 3.2 3.2 6.5 4 10-.7 0-2 .1-2.6.1-.2-1.7-.4-3.3-.6-5-1.4.3-2.8.4-4.1.9-2.6 3-4.3 6.8-6.5 10-2.4-3.3-3.1-7.3-3.6-11.2-2.8.9-4.9 2.9-6.7 5.3-.7-4.3-1.8-8.4-2.9-12.6"/><path d="m223 129c1.6-3.4 5.1-5.3 8.3-7 1.6.1 3.1.2 4.6.3-2.5 3.2-6.3 4.7-9.4 7.2-1.6 2.2-1.7 5.1-2.4 7.6-.6.4-1.6 1.3-2.2 1.7-.4-3.3-.7-6.9 1-9.9"/><path d="m56.6 141c.9-6 4-11.3 6-17 2 1.4 4 2.8 5.9 4.2-5.7 2.6-7.4 8.9-11.9 12.8"/><path d="m318 133c1.5-2.2 3.1-4.3 4.7-6.3.6 1.1 1.2 2.3 1.8 3.4-1.7 2-3.4 4-5.1 6-.4-1-.9-2-1.4-3"/><path d="m25 128c3.5 2.6 7.7 3.5 12 3.5 4.2-.1 6.9 3.5 9.1 6.4l.3.9c-1.2 2.6-2.6 5.5-5.3 6.8-1.5.4-3 .4-4.5.4 1.9-2.2 4-4.2 5.5-6.7.5-1.7-1.3-2.6-2.5-3.4-5-2.7-11.6.1-16-4.1.5-1.3 1-2.6 1.5-3.9"/><path d="m269 145c6.8-2.5 9.8-9.8 14.5-14.7 3.6 5.7 1.4 13-1.8 18.5-.7-2.8-1.1-5.7-1.3-8.6-2.8 2.4-5.4 4.9-8.2 7.1-1.3 1.1-3.1 1.6-4.7 1.1-6.2-1.4-10.4-7.3-11.5-13.3 1-.4 1.9-.7 2.9-1.1 2 4.4 4.3 11.2 10.2 11"/><path d="m99 138c.6-.1 1.9-.4 2.5-.5 1.2 3.5 2.2 7.2 1.6 10.9-2.4-2.1-4.7-4.4-5.8-7.4.6-1 1.1-2 1.7-3"/><path d="m330 137c2.1 2.7 4.3 5.4 6.8 7.7 4.1 3 9.1 5.2 11.7 9.7 1.9 6.7 2 13.8.8 20.6-1 .2-2 .4-2.9.7.2-5.6 1.2-11.2 1.1-16.8.1-3.1-2.9-4.6-5-6.3-3.2-2.1-6-4.7-9.5-6.3-2.1.3-4.1 1.3-6 2.2-.4-.1-1.3-.4-1.7-.6.5-.5 1.1-1.1 1.6-1.6 1-1 2.1-2 3.2-2.9 0-1.8 0-3.6 0-5.4v-1"/><path d="m23.8 147c.1-2.7.5-5.4 1.3-7.9 1 3.2 1.5 6.4 1.9 9.7-1.1-.6-2.1-1.2-3.2-1.8"/><path d="m110 145c1.7-.2 2.4 2.9.7 3.4-1.8.3-2.5-2.9-.7-3.4"/><path d="m159 146c.6-.2 1.8-.5 2.5-.7 1.9 4.2 5.4 7.4 8.9 10.3-1 .6-2.1 1.2-3.1 1.8.4 1.8.7 3.7 1 5.6-2.8-2.6-5.8-4.9-8.6-7.6-.5-3.1-.6-6.2-.7-9.3"/><path d="m307 148c4-1.3 8.3-.3 12.3-.4 0 1.1 0 2.2.1 3.3-3.5 0-7.1-.7-10.5.2-1.9 1.6-2.8 4-3.8 6.1-1.6-3-1.5-7.5 1.9-9.3"/><path d="m279 159c.5-2.8 1-5.7 2.8-8 1 4.1.4 8.6-1.2 12.4-5 4.3-12 2-18 3.8-2.9 3.4-3.8 8.5-1.9 12.7 4.5 10.6 11.6 20.7 11.7 32.6-.5 9.4 1.9 19.7-3.9 27.9-2-2.7-.7-6-.4-9 1-7.5 1.2-15.2.8-22.8-.3-7-4.7-12.7-7.4-18.9-1.9-4.4-4.9-8.4-5.7-13.2.1-4.4 1.6-9.2 4.8-12.3 3.6-1.9 8-.7 11.9-1.3 2.4-.3 5.9-1 6.3-3.9"/><path d="m182 155c.2-1.2.4-2.5.7-3.7 2.6 1.4 5 3 7.5 4.6 3.4 1.5 7-.3 10.4-1.1-1.8 1.8-3.1 4.2-5.5 5.1-3.3.4-6.5-.9-9.7-1.7-1.1 2.6-1.4 7-5.2 6.9-3.8-.3-5.4-4.5-6.9-7.4.4-.3 1.2-.8 1.6-1.1 2.4-.7 4.8-1.1 7.2-1.4m-3.7 4c-1.5 1.3.8 3.6 2.2 2.1 1.5-1.3-.8-3.6-2.2-2.1z"/><path d="m93 154c3.2.5 6.2 1.5 9 3.1-1.6.9-3.3 1.6-4.8 2.7-1 2.7-.8 5.8-1.7 8.5-2.7 3.2-6.1 5.6-9.1 8.4-1.6 1.6-3.7 2.2-5.9 2.6.7-2.1 2.2-3.8 4-5.1 2.3-1.7 5.1-3 7-5.3 1.7-3 2-6.6 3-9.8-1.5-.2-3.1-.4-4.6-.6.7-1.7 1.8-3.2 3.2-4.5"/><path d="m227 158c2.1-2.2 6.5-3.9 8.7-1 2.1 3.6 2.5 8.8-.9 11.7-.2-.8-.5-2.4-.7-3.2-.5-2.5-.9-5-1.3-7.4-.8 0-2.4-.1-3.2-.1.3 3.6.9 7.1 2.3 10.4.2.4.4 1.2.6 1.5-1.9-1-4-1.7-5.5-3.3-.8-2.8-.8-5.8 0-8.6"/><path d="m99 164c2.2-3.9 6.9-6.1 11.3-6.3 2.6 1.9 4.3 4.8 6.3 7.3l.4.5c.9 4.3.1 8.7-.5 12.9-.6 3.2 1.8 5.9 2.8 8.8 0 .5 0 1.4 0 1.8-1.5.4-2.9.8-4.4 1.1-.6-4.3-1.5-8.6-1.3-12.9.2-5.6-1.8-10.9-2.6-16.3-1.7 1.6-3.3 3.1-5 4.6.7 1.5 1.3 3 2 4.6-2.3-.2-4.5-.3-6.8-.4-.8-1.9-1.6-3.7-2.1-5.7"/><path d="m115 157c1.6-.5 2.2 0 1.7 1.7-1.6.5-2.2 0-1.7-1.7"/><path d="m306 158c1-.3 2-.5 3.1-.8 3.1 4.4 6.6 8.6 10 12.7 1.9 2.4 4.6 5.5 2.6 8.6-3.4-3.8-6.1-8-9.4-11.9-2.3-2.7-4.6-5.5-6.3-8.6"/><path d="m231 181l.3-.9c.8 1.9 2.4 3.9 1.6 6-1.6 4.8-5 8.6-6.9 13.3-1.6 3.6-1.9 7.5-2.3 11.4-.4 5.3-3 10.3-1.9 15.7.3 4.7 3 9.6.8 14-2-7.3-5.1-15-3.3-22.7 1.7-8.1 1.1-17 5.8-24.3 2.7-3.8 4.4-8.2 5.8-12.6"/><path d="m61 199c0-2.7.5-5.5 2.7-7.4 1.8 2.9 3.1 6 3.6 9.4 1.1-3.2 1.9-7 5.5-8.3.5 1.9 1.7 3.9.9 5.9-1.3 4.3-2 8.8-2.3 13.3-1.3.2-2.5.4-3.7.6.3-.8.7-1.7 1-2.5.8-2 1.6-4 2.4-6-1.5.6-2.9 1.2-4.4 1.7-1.5.6-3 1.2-4.5 1.4-1.7-.8-3.2-2-4.7-3.1.4-.3 1.1-1 1.5-1.3 2.4.6 4.8.5 6.9-.7-1.6-1-3.2-2.1-4.9-3"/><path d="m103 194c.9 2.5 1 5.2 1.1 7.9-1.4-1.1-2.8-2.2-4.1-3.3 1-1.6 2-3.1 3-4.6"/><path d="m94 196c2.3 3.1-1.4 5.4-2.8 7.9-1.5-.6-3-1.2-4.5-1.8 2.5-1.9 5.1-3.8 7.3-6.1"/><path d="m170 202c1.3.2 2.8 0 3.9.9 1.4 2.3 1.8 5 2.1 7.6-.4 2.2-1 4.5-1.7 6.6-6 5.5-10.4 12.4-12.7 20-.5-2.5-1.9-5.1-1-7.7 2.2-6.7 9.2-10.3 11.3-16.9 1.1-3.7-.7-7.3-1.9-10.7"/><path d="m114 205c2.7-.9 5 1.2 6.8 2.9-3.6 1.1-7.2 2.3-10.7 3.6.4-2.6 1.3-5.5 3.9-6.5"/><path d="m319 205c.6-.3 1.7-1 2.2-1.3.8 1.9-.1 5-2.4 3 0-.4.1-1.2.2-1.6"/><path d="m91 206c1.6.3 3.3.5 4.9.8-.1 2.2-.3 4.4-.5 6.7-1.2 0-2.4.1-3.6.2-.3-2.5-.6-5.1-.8-7.6"/><path d="m121 213c-1.3-1.4.5-2.8 1.1-4.1.5.5 1.5 1.6 1.9 2.1 3.2 4.5 5.3 9.9 5.4 15.5-.9 0-1.9-.1-2.8-.1-1-4.8-3.2-9.3-5.7-13.5"/><path d="m320 224c1.1-3.8.9-9 5-10.9 3.1-.6 6.2.4 9 1.2-3.1 1-6.3 1.7-9.6 2.2-1 4.5-2 9-3.5 13.5-1.2 3.8-2.7 7.7-2.3 11.8.4 3.5.7 7.1.7 10.7-.3-.4-.8-1.3-1.1-1.7-1.8-3.7-2.9-7.7-2.6-11.8.1-5.3 2.7-10 4.2-15"/><path d="m354 219c2.3-1.1 3.8-3.3 5.5-5.1.9.7 1.8 1.4 2.6 2.2 2.2 4 4.4 8.2 4.6 12.8.1 5.1 1.4 10 2.6 14.9.8 3 1.4 6.2 3.4 8.6 3.8.4 7.6-.5 11.3.8 1.3.7 2.5 1.5 3.7 2.2-.3.6-.8 2-1 2.6-3.7-1.3-7.6-3.1-11.4-1.2-2.2-.6-4.4-1.4-6.6-2.1-.9-5.3-2.1-10.6-3.7-15.8-1.9-6-.8-12.7-4-18.3-3.7 1.2-7.6 1.9-11.4 2.2-1.2 2.1-2.4 4.3-3.4 6.5-.4-3.3-1.7-6.5-3.9-9.1-1.3 5.1-1.7 10.5-3.4 15.5-2.6 7.9-4.3 16-7.9 23.6-.8.8-1.7 1.6-2.5 2.4.1-2.1.4-4.3 1.1-6.3 3.3-8.5 5.8-17.3 7.7-26 1.1-4.7 0-9.5-.9-14.2 5.8 1.8 11.5 5.1 17.7 4.1"/><path d="m87 217l1.2-.5c.1 1.6.2 3.3.3 4.9-1.2-1-2.4-2.1-3.7-3.1.5-.3 1.6-1 2.1-1.3"/><path d="m201 223c.5.2 1.4.6 1.9.7.5 1.5 1.1 2.9 1.6 4.4.5 4.4 1 8.8 1.5 13.2-.5.9-1.1 1.9-1.6 2.8-2.9.5-2.3-2.6-2.6-4.6 0-5.5-.3-11-.8-16.6"/><path d="m127 231c.7-.1 2-.2 2.7-.3 1.3 6.4 2.6 13 1.9 19.6-.6 5.6.1 11 .2 16.7-.3.3-.8.9-1.1 1.2-1.5-2.2-2.9-4.4-4.6-6.4 4.7-9.7 1.8-20.5.9-30.7"/><path d="m346 236c-.7-1.8-.2-3.8 0-5.7 3.8 5.4 6.8 11.4 11.3 16.3 4.3 4.7 5.1 11.2 7.4 16.9 4.5-1 8.9-2.4 13.1-4.2 3.3.9 6.4 2.5 8.9 5-.7-.1-2.1-.2-2.8-.2-2.9-.3-5.9-.6-8.8.1-3.8 1-7.5 2.1-11.3 3.2-3.1-4.1-3.7-9.2-5.5-13.9-3.5-6.3-9.3-10.9-12.3-17.6"/><path d="m142 249c5.5-5.2 13-7.4 19.5-11-.3 4.2-3.7 6.9-6.6 9.5-1.9 1.3-4 2.5-6.2 3.1-2.3.6-4.5-.8-6.6-1.5"/><path d="m105 240c.6.1 1.8.2 2.4.3-1 1.7-2.1 3.2-3.4 4.7.3-1.7.6-3.3 1-4.9"/><path d="m173 261c1.3-7.6 4-15 8.1-21.5.5 1.6 1.6 3.2.8 4.9-2.6 5.6-4.1 11.5-5.8 17.4-.8-.2-2.3-.6-3-.8"/><path d="m186 242c.5-.4 1.6-1.2 2.2-1.6-.3 5.6-2.5 10.8-4.1 16.2-1.2 3.8.1 7.7.8 11.5-.5 0-1.5.1-2 .1-4.9-8.4-.9-18.3 3.1-26"/><path d="m114 255c-.5-2.8 1.1-5.3 2.1-7.7 1 3.4 1.5 6.9 2 10.5 2.1-.4 4.3-.7 6.4-1.1-1.8 1.9-4 3.7-4.3 6.4.9 2.5 1.8 4.9 2.8 7.4 1.7-.1 3.4-.2 5.1-.3.7 1.7 1.5 3.3 2.2 5-2.3.2-4.7.4-7 .6.5 1.6 1 3.2 1.4 4.9-2.1-1.3-4.6-2.6-5.2-5.3-.2-4.2-.9-8.4-2.6-12.2-1-2.7-2.2-5.3-2.8-8.1"/><path d="m157 249c1.2-.3 2.4-.7 3.7-1-2.2 4.9-4 10.2-3.5 15.7-1.2-.3-2.3-.5-3.5-.8-.7-4.9.7-9.7 3.3-13.9"/><path d="m242 250c1.6-.7 3.3-2.3 5.2-1.6 4.2 2 6.4 6.6 6.8 11 1 4.9-2.2 9.2-4 13.6-3.3-1.1-9-1.5-8.7-6.2 2.5.1 5.9 2 7.8-.5 3.9-4.2.9-10-.7-14.5l-.3-.7c-2-.3-4.1-.7-6.1-1.1"/><path d="m99 265c2-1.1 2.6 2.9.6 3-1.4-.2-1.5-2.3-.6-3"/><path d="m131 268c.4-.1 1.3-.4 1.8-.6.9.8 1.7 1.6 2.5 2.4.7 1 1.3 2 2 3.1-.8 0-2.5 0-3.4 0-1-1.6-2-3.3-2.9-5"/><path d="m14 270c4.1-2.5 7.9 1.4 10.8 3.8-4.8-.1-9.7.1-14.4 1-.3 1.4-.7 2.8-.9 4.2.9 2.1 2.7 3.7 4.2 5.4-.5 2.4-.9 4.8-.8 7.3.8 1.1 1.6 2.2 2.6 3.1 5.4.6 10.8-1 16-.1 6.1 1 12.3.9 18.4.3-6.6 1.3-13.2 1.7-19.9 1.7 0 .6 0 1.7-.1 2.3 3.3.3 6.6.5 9.9.5-8.6 1.5-17.3 1.2-25.9 2-1.8-.1-3.7-.4-5.5-.6-.1-.5-.3-1.6-.4-2.2 2.9-4.4.7-9.5-.1-14.2-2.7-.4-5.4-.9-8.2-1.3v-3.3c4.8-3 9.2-6.6 14-9.7"/><path d="m142 278c2.6-1 5.3-1.9 8.1-2.4 2.3.1 4.6.4 6.9.6-3.2 3-7.7 3.1-11.7 4.2-4.1.9-8 2.6-12.2 2.8-2.9.3-5.2-1.7-7.5-3.1 1.8 0 3.7.1 5.5.2h.9c3.5.2 6.8-.9 9.9-2.3"/><path d="m71 283c3.1-.4 6.1-1.2 9.2-1.3 3.4.7 6.5 2.8 10 2.4 7.1-.6 14.4-2.4 21.4 0 2.4 3.6 6.8 4.1 10.8 3.8 15.8-1.2 31.8.3 47.6-1.3 3.9-.6 7.5 1.3 10.8 3-8.4.3-16.8.7-25 .3-7.1-.1-14.3 1.5-21.4.4-6-1.1-12 .3-18 .6-5 .3-10-1.6-15-1-5.9.2-12 2.2-17.8.1-.4-.1-1.1-.3-1.4-.4-4-1.2-8.3-.9-12.4-1.4-2.3-.3-3.8-2.1-5.6-3.4 2.1-.6 4.1-1.2 6.3-1.6l.8-.1"/><path d="m318 281c8.8-.6 17.6-2.2 26.5-1.5 2 .1 3.4 1.6 4.9 2.6-5.4.8-10.8 1.6-16.2 1.1-8.5-.7-17 2.6-25.4.4 3.1-1.7 6.6-2.4 10.2-2.6"/><path d="m49 289c2.3-.7 4.6-2.1 7-1.4 4.4 1 8.5 2.9 12.9 4.2.5.2 1.6.5 2.2.7 3 1 5.5 3 7.5 5.3-12.3.9-24.6 2-37 1.7 7.7-1.9 15.6-1.3 23.4-1.1-.8-.7-1.5-1.3-2.3-1.9.5-.4 1.5-1.2 2-1.6-4.5-3.6-10-5-15.7-5.8"/></g><g style="fill:#7e0203"><path d="m244 77c1.7-.8 3.5-1.5 5.3-2.2.6 2.2.7 4.8 2.2 6.7 3.4 3.6 8.4 5.6 10.9 10 1.7 3.5.7 7.5 1.9 11 1.1 1.9 3.5 1.3 5.2 1.4.9.5 1.7 1 2.6 1.5-.6 0-1.7.1-2.3.1 1.2 2.5 2.4 5 3.8 7.4-.5 1.4-.8 2.9-1.2 4.3-1.1.5-2.1 1-3.2 1.4-1 .4-1.9.8-2.9 1.2 2.8 3.6 4.9 7.7 6.3 12-3.3-.7-6.7-1.7-9.9-.5-1.3.6-2.6 1.3-3.9 1.8-1 .4-1.9.8-2.9 1.1 1.1 6 5.3 11.8 11.5 13.3 1.7.5 3.4 0 4.7-1.1 2.9-2.2 5.5-4.8 8.2-7.1.2 2.9.6 5.8 1.3 8.6.1.7.2 1.3.3 2-1.8 2.3-2.3 5.2-2.8 8-.4 2.9-3.9 3.6-6.3 3.9-3.9.6-8.3-.6-11.9 1.3-3.2 3.1-4.8 7.9-4.8 12.3.7 4.8 3.8 8.8 5.7 13.2 2.8 6.2 7.2 11.9 7.4 18.9.4 7.6.1 15.3-.8 22.8-.3 3-1.6 6.3.4 9 .6.9 1.4 1.8 2 2.7-.3 3.9-.4 8-2.7 11.3-2.2 3.3-4.4 7.2-2.3 11.1.1.4.3 1.1.4 1.4-1.1 0-2.1.1-3.2.1-.2 1-.4 1.9-.6 2.9-.5-.1-1.6-.3-2.1-.4 0 .7-.1 2.2-.1 2.9 4.1 1.1 8.2 2.6 11.9 4.8-.1-1.6-.3-3.3-.4-4.9 1.1 2.1 2.1 4.2 3.2 6.4.5-1.3 1-2.6 1.5-3.9.7.6 1.4 1.3 2.1 1.9 2.8 2.8 6.9 2.7 10.5 2.7 0 1.2 0 2.4-.1 3.6-9-.5-17.9.7-26.8 1.8-7.6 1.2-16-1.4-22.9 3-2.3.3-4.7.2-7 .1.2-.7.5-2.1.6-2.9-8.6 0-17.4.5-25.5 3.4-8.9.7-17.8 1.4-26.7 1.5-3.4-1.7-6.9-3.6-10.8-3-15.8 1.7-31.8.1-47.6 1.3-4 .3-8.5-.2-10.8-3.8 3.3-2.5 7.7-4.4 8.6-8.9.6 2.7 3 4 5.2 5.3-.5-1.6-.9-3.3-1.4-4.9 2.3-.2 4.7-.4 7-.6-.7-1.7-1.4-3.4-2.2-5 .7-.7 1.4-1.4 2.1-2.1.3-.3.8-.9 1.1-1.2.3.3.9.9 1.3 1.1-.4.1-1.3.4-1.8.6.9 1.7 1.9 3.3 2.9 5 .8 0 2.5 0 3.4 0-.7-1-1.3-2.1-2-3.1 1-.5 2-.9 3-1.4 1.3 1.9 2.5 3.8 3.8 5.7-1 .8-2.1 1.6-3.1 2.4.9.4 1.8.9 2.8 1.3-3.1 1.4-6.5 2.5-9.9 2.3.7-.4 2.1-1.1 2.8-1.5-2.6-1.5-5.3-2.5-8.2-3 .6 2.3 2.4 3.7 4.5 4.5-1.8-.1-3.7-.1-5.5-.2 2.3 1.4 4.6 3.4 7.5 3.1 4.2-.3 8.1-1.9 12.2-2.8 4-1.1 8.5-1.2 11.7-4.2-2.3-.3-4.6-.6-6.9-.6 2.7-.5 5.4-.8 8-1.3-1.8-3.6-3.7-7.2-4.5-11.1 1.2.3 2.3.5 3.5.8-.5-5.5 1.4-10.7 3.5-15.7-1.2.3-2.4.7-3.7 1-.6-.6-1.3-1.1-1.9-1.7 2.9-2.6 6.3-5.4 6.6-9.5l.1-.8c2.3-7.8 6.7-14.7 12.7-20 0 1.3 0 2.6 0 3.9 1-.3 2.1-.5 3.1-.8 3.9-.8 7.6-2.7 10-5.8.3-1.8.5-3.6.8-5.3-1.6 0-3.2 0-4.8 0-2.6.1-5 .7-7.5 1.4-.3-2.6-.6-5.3-2.1-7.6-1.1-.9-2.6-.7-3.9-.9-.4 0-1.1.1-1.5.1-5.2-.1-7.8 5.4-12 7.5-2.4 1.8-5.2.4-7.7-.3-2.7-.9-5.5-1-8.2-.9 0-.5 0-1.5 0-2 1.1-2.5 1.9-5.1 3.8-7.1 3.7-2.1 8.3-2.3 11.3-5.5 7.3-7 13.7-16.8 12.7-27.4.1-1 .1-2 .1-3.1-.2-1.9-.6-3.7-1-5.6 1-.6 2.1-1.2 3.1-1.8.8.7 1.5 1.3 2.3 1.9 1.5 3 3.1 7.2 6.9 7.4 3.8.1 4.1-4.3 5.2-6.9 3.2.8 6.4 2.1 9.7 1.7 2.4-.9 3.8-3.3 5.5-5.1 1.1-.8 2.2-1.5 3.4-2.2-.1.6-.2 1.8-.3 2.4 2-.5 3.9-1 5.9-1.6-1-.8-2.2-1.5-3.3-2.1 3.6-1.4 7.3-2.7 11-3.5 1.1-3.3 2.6-6.6 4.6-9.4.6-.4 1.6-1.3 2.2-1.7.7-2.6.8-5.4 2.4-7.6 3.1-2.5 6.9-4 9.4-7.2-1.5-.2-3.1-.3-4.6-.3 1.3-.8 2.6-1.7 3.7-2.8 2.4-4.7.1-9.9-1.4-14.6-.6-2-1.8-4.2-1.2-6.3 2.4-6.3 6-12.4 11.8-16-.7-.8-1.3-1.5-2-2.3.5-.8 1.1-1.5 1.7-2.3m7.2 25c2.8-1.1 4.9-3.2 6.3-5.8-3.5-.1-5.2 3-6.3 5.8m-9.8 2.1c-1.3 2-3.3 3.9-3.3 6.4.5 1.5 1.3 2.9 2.1 4.4.9-.1 2.7-.2 3.6-.3-.7-1.9-1.4-3.8-2.1-5.6 1.4.2 2.8.3 4.3.4-.7-2.3-2.6-4-4.5-5.3m-14 53.7c-.8 2.8-.8 5.8 0 8.6 1.5 1.6 3.6 2.3 5.5 3.3-.1-.4-.4-1.2-.6-1.5.5-.7 1.6-2.1 2.2-2.8.2.8.5 2.4.7 3.2 3.4-2.9 3.1-8.2.9-11.7-2.2-2.8-6.6-1.1-8.7 1m-13.5 2.4c-.8 1.9-.9 4.1-1.2 6.1-3 1.6-6.1 3.1-9.1 4.6.6.9 1.2 1.7 1.9 2.6-.8.1-2.6.3-3.4.4 2.2 1.9 4.9 2.7 7.4 4 .3 4.5-4.9 7.3-5.3 11.8 1.1-.3 2.1-.8 3.2-1.2.1.7.2 2.2.3 2.9-1.5.8-3 1.6-4.6 2.3-1.8-.5-3.6-1.1-5.4-1.6-1.1 1.4-2.1 2.9-3.2 4.3.3 0 1-.1 1.3-.1.7 2.9 3.3 5.2 6.3 5.7.1 1 .3 3.1.3 4.1 1.1-.6 2.9-.3 3.5-1.6-.1 1.3-.2 2.6.1 3.9-1.3-.1-2.6-.3-3.9-.4 1.1 1.5 2.1 3 3.2 4.6-1.5 2-2.9 4.2-4 6.4l.8-.4c.3 1.7.5 3.5.9 5.2-.5-.2-1.4-.6-1.9-.7.4 5.5.8 11 .8 16.6.2 1.9-.4 5 2.6 4.6-1.3 2.4.3 5.1.3 7.7.2 6 .8 12 2.7 17.7 1.3-.3 2.6-.6 3.8-1.1-1.1 1.9-2 3.9-2.9 5.9.8.1 2.3.3 3.1.4-1.1.9-2.2 1.9-3.3 2.8 5.4.8 10.8.7 16.2.2l-.2-.8c1.4-1.1 2.8-2.4 4.1-3.7-.9-.6-1.9-1.3-2.8-1.9.2-4.8 2.1-10.2-1.4-14.3.1-.5.3-1.6.4-2.1 1.3-3.4-2.2-5.5-3.4-8.2.2-2.2 1-4.3 1.6-6.4 2.2-4.5-.5-9.4-.8-14-1.1-5.4 1.4-10.4 1.9-15.7.4-3.9.7-7.8 2.3-11.4 1.9-4.6 5.3-8.5 6.9-13.3.9-2.2-.8-4.2-1.6-6l-.3.9c-.8.1-2.4.3-3.3.3.1-.9.1-1.8.2-2.6-3.1 0-6.1-.5-9-1.3-1.2-6.1.9-12.3-.1-18.4-1.7.1-3.8-.2-4.9 1.3m-35.5 9.4c-.2.3-.6.8-.8 1.1.8 3.1 4.2-1.7.8-1.1m68 66c-.3 2-.5 3.9-.7 5.9 1.3-.3 2.7-.5 4-.7 0-1.7 0-3.4-.1-5.1-1.1 0-2.1 0-3.2-.1m-73 24c.8.2 2.3.6 3.1.8-.9 1.6.9 2.6 1.6 3.8-.4 1.7-1.9 3.6-1.2 5.3 2.1 1.8 4.9.4 6.7-1l-.5-1.1c.5 0 1.5-.1 2-.1-.7-3.8-2.1-7.7-.8-11.5 1.5-5.3 3.8-10.6 4.1-16.2-.5.4-1.6 1.2-2.2 1.6.1-.6.2-1.8.2-2.3-2.1.5-3.4 2.1-4.1 4.1.8-1.7-.3-3.3-.8-4.9-4.1 6.5-6.8 13.9-8.1 21.5m68-10.2c2 .4 4.1.8 6.1 1.1l.3.7c-1.6.1-3.1.1-4.7.2-3 4.5-2.9 9.7-2.4 14.8-.3 4.8 5.3 5.1 8.7 6.2 1.8-4.4 4.9-8.7 4-13.6-.4-4.4-2.6-9-6.8-11-1.9-.7-3.5.9-5.2 1.6m-49.6 4.2c.5.5 1.5 1.6 2 2.1 1.3-2 1-4.3 0-6.3-.9 1.2-3.1 2.4-2 4.2m10.1 12.5c-.5 1.6 0 2.2 1.7 1.6.5-1.6 0-2.2-1.7-1.6m-14 8.2c.1 1.4.5 2.7.9 4.1 2.8-1.9 4.4-4.9 5.5-8.1-2.2 1.2-4.5 2.3-6.4 4m14.5 2.9c1.7-.6 3.4-1.4 5.1-2.2-.7-.2-2.1-.6-2.7-.8-1.9-.5-1.8 1.9-2.3 3m-20.9-2.6c.2 2.3.9 4.4 3.6 4.6.5-2.6-1.1-4.2-3.6-4.6z"/><path d="m159 79.9c4.9-2.1 10.4-2.6 15.7-1.9 4.7.6 7.2 5.5 8 9.7 1.3 5.2-2.7 9.6-6.4 12.6-3.7 3.3-9.3 2.2-13.3-.1-3-2.5-4.9-6-8.1-8.3-.1-.4-.2-1.3-.3-1.7 1.7-3.3 2.7-6.9 4.3-10.2"/><path d="m321 109c2.1-1.6 4.3 0 6.3.8-.4 2-.8 3.9-1.1 5.9 1.4-1.1 2.9-2.1 4.3-3.3 1.6 2 3.2 4 4.8 6 .3-1.8.6-3.5.8-5.2.7.9 1.3 1.7 2 2.6.9-.8 1.7-1.7 2.6-2.6 3.5.9 7.3 1.4 10.3 3.4 3.1 2.3 4 6.3 5.3 9.7-1.5 1.1-3 2.1-4.4 3.2-1.2-.7-2.4-2.3-3.9-1.5-3.1.5-2.7 4.1-2.8 6.5-.5-2-1.1-4-1.6-6-.3 5-2.8 9.3-5.5 13.3-.4 1.2-.8 2.4-1.1 3.6-2.5-2.3-4.7-5-6.8-7.7-1.3-1.7-2.6-3.4-4-5l-.4-.6c-.3-.5-1-1.4-1.3-1.9-.6-1.1-1.2-2.2-1.8-3.4-.9-2.2-2.7-3.6-5-4l-.4 1.1c-.5 1.8-.8 3.7-1 5.6.6 1.2 1.1 2.4 1.7 3.6.4 1 .9 2 1.4 3 .3.6.8 1.7 1 2.2-2.3-1-4.7-1.8-7-2.7-.2-.3-.6-1.1-.8-1.4 1.1-4.4-2.1-8.4-1.6-12.8.3-5.9 5.5-9.8 10.2-12.4m10 8.2c-1.1 1.7-1.9 3.6-2.2 5.6 2.3-.5 3.6-2.2 4.6-4.2-.6-.3-1.8-1-2.4-1.4z"/><path d="m38 117c5.8-1.5 12.6-2.4 17.6 1.7-.5 2.5-1 5-1.4 7.5 1.3.8 2.7 1.5 4 2.3-.1.3-.4.9-.5 1.3-.6.2-1.7.6-2.2.8-1.8-2.7-2.9-5.8-4.5-8.7-2.4-1.2-3.9 1.5-5.2 3.1-1.5 2-1.8 4.5-1.7 6.9.5 2 1 4 1.6 6-2.3-3-4.9-6.6-9.1-6.4-4.3-.1-8.5-.9-12-3.5.6-1.4 1.1-2.9 1.7-4.3.4.4 1.1 1.3 1.5 1.8 3-3.2 5.8-7.1 10.2-8.4"/><path d="m16.3 123c2.2 1.3 4.3 2.6 6.4 4-.4 1-.8 2-1.2 3l-.4.8c-.1-.5-.2-1.5-.3-2-1.8 1.2-3.5 2.4-5.4 3.4-.6.2-1.7.5-2.3.7 1-3.3 2-6.6 3.1-9.8"/><path d="m50 140c1-.8 2-1.6 3-2.4 1.1 5-2.8 9.6-1.2 14.6 2-1.7 3.7-3.8 5-6.1 3.2 3.3 8.1 6.8 6.5 12-2.1 5-.2 10.5-.7 15.7-.3 5.5-2.3 11.2.1 16.5.4.8.7 1.5 1.1 2.3-2.2 1.9-2.7 4.7-2.7 7.4-.4.2-1.2.6-1.6.8-.1 1-.3 1.9-.4 2.9-.4.3-1.1 1-1.5 1.3 1.5 1.1 3 2.3 4.7 3.1 1.6-.2 3.1-.8 4.5-1.4-.3.8-.5 1.6-.8 2.4.9.6 1.9 1.2 2.8 1.8-.3.8-.7 1.7-1 2.5 1.2-.2 2.5-.4 3.7-.6 0 1.7.1 3.4.2 5-2.2-1.2-4.2 0-6 1.2 0-1 0-3 0-4-1.8.6-3.6 1.2-5.4 1.9-.8.3-1.6.6-2.4.8-1.4-1.6-2.6-3.4-4.3-4.7-2.1-.7-4.5-.4-6.7-.5-.3 3.7-.1 7.5-.3 11.3-2.8-1.5-5.5-2.9-8.3-4.4-3 1.5-4.8 4.4-6 7.5-1.3-.9-2.7-1.7-4.1-2.5.6-4 1.7-7.8 3.1-11.6-1.2 0-2.4.1-3.6.1-.5-.8-1.1-1.6-1.6-2.4 1-.3 1.9-.6 2.9-.9.1-.5.4-1.4.6-1.9-1.2-.8-2.4-1.7-3.6-2.4 1.2.1 2.4.2 3.5.2.1-2.1.3-4.2.4-6.3.4 2 .9 4 1.4 6 .4-.1 1.3-.2 1.8-.3.1-4.4.4-8.9-.9-13.2-.1-.3-.3-.9-.4-1.3 1.2.1 2.3.3 3.5.4-1.8-1.8-4.1-3.4-5.3-5.7-.4-3.2.4-6.5-.2-9.7-1.3-4.9-5.5-8.7-5.9-13.8.7-2.7 2.7-4.8 4.3-7-.6-.9-1.1-1.7-1.6-2.6 2.2-3.3 5.7-5.4 9.7-5 1.5-.1 3.1 0 4.5-.4 2.8-1.3 4.2-4.2 5.3-6.8.7.6 1.4 1.1 2.1 1.7.4-.3 1.2-1 1.6-1.3m-5 11.9c-1.3.9.3 3.2 1.6 2.1 1.3-1-.3-3.2-1.6-2.1m-11.6 11.6c2 .5 4 .9 6 1.3-.2-2-.9-3.8-2.4-5.3-1.2 1.3-2.4 2.7-3.6 4m2.7 5.1c-.5 1.6 0 2.2 1.7 1.7.5-1.6 0-2.2-1.7-1.7m9 8c-.5 1.6 0 2.2 1.6 1.7.5-1.6 0-2.2-1.6-1.7m3.7 6.1c1 1.1 2.1 2.3 3.2 3.4 1.5-1.5 2.6-3.3 3-5.3-.8-.1-2.3-.4-3.1-.6-1 .8-2.1 1.7-3.1 2.5m-16.3 26c2.1-.5 3.6-1.9 4.7-3.8-2.6 0-4.8.8-4.7 3.8m15.8-1.4c1 2.1 2.6 3.4 5 3.3.2-3-2.9-2.8-5-3.3z"/><path d="m323 143c1.1 1.2 2.2 2.4 3.4 3.5-.6.5-1.1 1.1-1.6 1.6.4.1 1.3.4 1.7.6 2-.8 3.9-1.8 6-2.2 3.5 1.6 6.3 4.2 9.5 6.3 2.1 1.6 5.1 3.2 5 6.3.1 5.6-.9 11.2-1.1 16.8 1-.2 2-.4 2.9-.7-.2 1.1-.5 2.3-.7 3.4-3.9-.9-7.8-1.3-11.8-1.2-.1.5-.3 1.5-.4 2 1.2.1 2.3.3 3.5.4-.8 1.9-1.6 3.9-2.4 5.8-.5.1-1.6.4-2.1.6-.3-1.6-.5-3.2-.8-4.9-.6.3-1.2.6-1.8.9-.4-1-.9-2-1.3-2.9-4.4 2.9-8.6 7.8-14.4 6.6.7-1.6 1.4-3.2 2.2-4.8.8-.7 1.6-1.4 2.4-2.1 2.1-3.2-.7-6.2-2.6-8.6-3.5-4.1-7-8.2-10-12.7-1 .3-2 .5-3.1.8l-.3-.8c1.1-2.1 1.9-4.5 3.8-6.1 3.4-1 7-.3 10.5-.2 0-1.1-.1-2.2-.1-3.3 0-1 0-2 .1-3 .7.7 1.4 1.4 2.1 2.1.4-1.3.9-2.6 1.3-4m-3.1 17.5c-1.3.9.3 3.2 1.6 2.2 1.3-.9-.3-3.2-1.6-2.2z"/><path d="m110 211c3.5-1.3 7.1-2.5 10.7-3.6.5.5 1.1 1.1 1.6 1.7-.6 1.3-2.3 2.6-1.1 4.1 2.5 4.2 4.6 8.7 5.7 13.5.9 0 1.9.1 2.8.1.1 1.2.2 2.3.3 3.5-.7.1-2 .2-2.7.3.9 10.2 3.8 20.9-.9 30.7-.9-.8-1.8-1.6-2.7-2.4-.9 1.3-1.8 2.5-2.7 3.8.4-2.7 2.6-4.5 4.3-6.4-2.1.4-4.3.8-6.4 1.1-.5-3.5-.9-7-2-10.5-1.2-.6-2.5-1.2-3.7-1.7.8-2.9 1.5-5.7 2.2-8.6-1 0-2 0-2.9-.1-.3-.9-.7-1.7-1-2.6-.6-2.9-.4-6-.4-9 0-4.7-.7-9.3-.9-14"/><path d="m334 214c.4.1 1.3.4 1.7.5.9 4.7 2 9.5.9 14.2-1.8 8.9-4.4 17.7-7.7 26-.8 2-1 4.2-1.1 6.4.9-.8 1.7-1.6 2.5-2.4 1 1.2 2.1 2.4 3.2 3.5 3.1 2.7 5.8 5.9 7.2 9.9-2.6.9-5.2 1.8-7.8 2.8 3.1 1.9 6.9 2.6 10.4 1.4 1.7-.4 1.9-2.3 2.6-3.6 1.8-.6 3.6-1.4 5.6-1.4 1.9.6 3.6 1.8 5.4 2.8.4-.4 1.2-1.4 1.6-1.8 1.1 3.4-.7 6.5-2.5 9.2-2.4.1-4.9.1-7.4.2-1.5-1.1-3-2.6-4.9-2.6-8.9-.7-17.7.9-26.5 1.5-3.5.2-7 .9-10.1 2.6-.9-.2-1.9-.4-2.8-.5-3-2-5.6-4.5-7.9-7.3.4-.1 1.2-.2 1.5-.3 2.8.9 5.7 1.3 8.3-.4.8.1 1.7.1 2.5.1 1.2-.1 2.4-.1 3.7-.2 5-.3 9.9-1 14.6-2.6-.8-.9-1.6-1.7-2.4-2.5.8-.2 2.5-.5 3.3-.7-2.7-1.2-5.5-2.2-8-3.7.4-4.2 1.3-8.4.6-12.7-.2.4-.6 1.3-.8 1.7-.1-.5-.1-1.6-.2-2.1 0-3.6-.3-7.1-.7-10.7-.5-4.1 1.1-8 2.3-11.8 1.5-4.4 2.5-9 3.5-13.5 3.2-.5 6.5-1.2 9.6-2.2"/><path d="m54 221c2.6-.6 5.2-1.2 7.8-1.8 1.4 2.9 2.8 5.8 3.9 8.8-.1.7-.3 1.9-.4 2.6-1.1 4.1-2 8.2-2.1 12.4 1.2-.6 2.4-1.1 3.6-1.7-.4 2.3-1.2 4.6-1.2 7 1.1 1 2.4 1.8 3.6 2.7.1 1.4.4 2.8 0 4.1-1.6 1.9-3.8 3.2-5.5 5.1-.1 4.8 5 7.3 7.4 10.9.3 2.3 3.8 2.3 2.8-.3l-.1-.6c1.4 2.7-1.2 4.9-2.4 7.1.5.1 1.4.2 1.8.3-1.6.7-3.2 1.5-4.8 2.2-1.8.8-3.7 1.3-5.6 1.9.9-1.9 1.8-3.7 2.8-5.5-2.4-1.2-5.1-2.1-7.8-1 .5 1.4 1 2.9 1.6 4.3-1 1.2-2.1 2.3-3.1 3.5 4.4 1 8.9.6 13.3-.1-2.1.4-4.2 1-6.3 1.6 1.7 1.3 3.3 3.2 5.6 3.4 4.1.5 8.4.2 12.4 1.4-4.8-.9-9.8-.6-14.7-.4.8.9 1.5 1.7 2.3 2.6-4.3-1.2-8.5-3.2-12.9-4.2-2.5-.6-4.8.8-7 1.4-2.8.1-5.5.1-8.3.3.8-.9 1.6-1.8 2.5-2.6-.2-1.1-.4-2.3-.6-3.4-.1-.9-.3-1.7-.4-2.6-1.3-.3-2.6-.6-3.8-1 1.1-2.6 2.1-5.4 2.9-8.1-4.2 1.3-7 4.6-9.6 7.9.2.6.6 1.9.9 2.5-2 3.1-5 5.8-8.8 6-2.7.7-4-2.1-5.6-3.7.7-.4 2.2-1.1 2.9-1.4-.1-.5-.4-1.4-.6-1.9-3.9-1.1-7.2-3.6-10.3-6.2 4.8-.9 9.6-1 14.4-1l.8.1c.7-4.2 2.1-8.3 4.9-11.6 1.7-2 3.5-3.8 5.2-5.7 1.5.1 2.9.2 4.4.3-1.3-2.8-2.5-5.5-3.7-8.3 1.5 1.5 3.1 3 4.5 4.7.9 1.1 1.7 2.3 2.6 3.4-.2 2.6-.9 5.3-.1 7.8 1.2 2.1 3.1 3.6 4.7 5.3 1.3-2.1 3-4.2 3.5-6.7-.8-2.3-2.2-4.3-3.2-6.4-2.6-5.9-5.9-11.7-5.6-18.4-1.3.6-2.7 1.1-4 1.7-.6-.2-1.9-.7-2.5-.9 4.1-3.1 9-4.8 13.4-7.4 1.8-.9 1.9-3 2.3-4.7-.5-1.6-1-3.3-1.4-4.9 1.2-.3 2.3-.6 3.5-.9m-4.5 19.9c.8 3.2 4 4.4 6.7 5.7-1-2-2.1-4-3.2-6-.9.1-2.7.2-3.5.2z"/><path d="m349 223c3.9-.3 7.7-1 11.4-2.2 3.2 5.7 2.1 12.3 4 18.3 1.6 5.2 2.8 10.4 3.7 15.8 2.2.8 4.4 1.5 6.6 2.1.8.9 1.6 1.9 2.4 2.9-4.3 1.8-8.7 3.1-13.1 4.2-2.3-5.7-3.1-12.3-7.4-16.9-4.5-4.9-7.5-10.9-11.3-16.3.1-.4.2-1.1.2-1.4 1.1-2.2 2.2-4.3 3.4-6.5"/></g><g style="fill:#ea9a95"><path d="m251 102c1.2-2.8 2.8-5.9 6.3-5.8-1.4 2.6-3.5 4.7-6.3 5.8"/><path d="m336 112c1.5.3 3 .7 4.5 1-.9.9-1.7 1.7-2.6 2.6-.7-.8-1.4-1.7-2-2.6v-1"/><path d="m159 130c.8-3.5-.4-8.5 3.2-10.6-.1 4.1 2.8 7 5.7 9.6-1.8 1.3-3.6 2.6-5.3 3.9.1-2.3.3-4.7.4-7-.7.1-2.1.4-2.8.5-.4 1.2-.8 2.4-1.2 3.7"/><path d="m55.9 124c.8 0 2.5-.1 3.4-.1 0 .8 0 2.5 0 3.3-.8 0-2.5 0-3.3-.1 0-.8 0-2.4 0-3.2"/><path d="m322 134c-.5-1.7 1.7-2.4 2.9-2.3l.4.6c-.1 1.5-2.2 3.4-3.4 1.8"/><path d="m175 141c1.6.3 3.1.6 4.7.8 0 .9 0 2.7 0 3.5-2.5-.4-4.2-1.9-4.8-4.4"/><path d="m183 149c1.6 0 3.2 0 4.8.1.8 2.2 1.6 4.4 2.4 6.7-2.5-1.6-4.9-3.2-7.5-4.6.1-.6.2-1.7.3-2.2"/><path d="m178 159c1.3-1.5 3.6.8 2.2 2.1-1.3 1.5-3.6-.8-2.2-2.1"/><path d="m320 161c1.3-1 2.9 1.2 1.6 2.2-1.3 1.1-2.9-1.2-1.6-2.2"/><path d="m36 168c1.6-.5 2.2 0 1.7 1.7-1.6.5-2.2 0-1.7-1.7"/><path d="m207 189c-.1-2.2 1.2-4.7 3.8-4.5-.8 1.8-2 3.4-3.8 4.5"/><path d="m319 205c.2-4.1.2-8.2 1.1-12.3.5.7 1.1 1.5 1.6 2.2-.4 2.9-.5 5.8-.5 8.7-.6.3-1.7 1-2.2 1.3"/><path d="m94 196c.5-.5.9-1.1 1.4-1.6.5 1.7 1 3.4 1.4 5.2l.2.8c.3 1.9.5 3.8.8 5.7.6 2.7 1.5 5.2 2.6 7.8l.3.7c-1.7-.5-3.4-1-5.1-1.4.2-2.2.3-4.5.5-6.7-1.6-.3-3.3-.5-4.9-.8 0-.4 0-1.2 0-1.6 1.4-2.5 5.1-4.9 2.8-7.9"/><path d="m60 217c1.8-.6 3.6-1.3 5.4-1.9 0 1 0 3 0 4-1.9-.4-3.7-1.1-5.4-2.1"/><path d="m49.9 218c1.7-.2 3.5-.5 5.2-.7-.4 1.1-.8 2.3-1.1 3.4-1.2.3-2.3.6-3.5.9-.2-1.2-.4-2.4-.6-3.6"/><path d="m63 243c.1-4.2.9-8.4 2.1-12.4.7 6.9 3.2 13.5 4 20.4-1.2-.9-2.5-1.7-3.6-2.7 0-2.4.7-4.7 1.2-7-1.2.6-2.4 1.1-3.6 1.7"/><path d="m81 238c.8-.1 2.5-.2 3.4-.3-.1 1.4-.2 2.8-.3 4.3-1.6-.9-2.5-2.4-3.1-4"/><path d="m31 245c.6.1 2 .2 2.6.2.6.9 1.1 1.9 1.7 2.8-1.5-.1-3-.1-4.5-.1.1-.7.2-2.2.2-2.9"/><path d="m272 253c-.8-1.3-.3-3.3 1.2-3.8.6 1.4-.2 2.8-1.2 3.8"/><path d="m35 252c1.5.1 1.7.8.8 1.9-1.5-.1-1.7-.8-.8-1.9"/><path d="m319 251c.3.4.8 1.3 1.1 1.7.1.5.1 1.6.2 2.1-1.2 4.4-2.2 8.8-2.5 13.3-.4-.3-1.2-1-1.6-1.3-.6 1.1-1.1 2.2-1.6 3.4.9-2.8 1.8-5.7.6-8.5 3.4-2.6 4-6.7 3.8-10.7"/><path d="m87 258c.5-1.4 1.5-2.6 2.4-3.7 1.6 3.6 3.3 7.2 4.1 11-1.4.5-2.8 1.1-4.2 1.3-.6-2.9-1.6-5.7-2.3-8.7"/><path d="m202 267c1.6-.5 2.2 0 1.7 1.6-1.6.5-2.2 0-1.7-1.6"/><path d="m260 269c.5.1 1.6.3 2.1.4 3.1.6 6.2 1.4 9.2 2.4.1 1.6.3 3.3.4 4.9-3.7-2.2-7.7-3.7-11.9-4.8 0-.7.1-2.2.1-2.9"/><path d="m71 271c.7-.1 2.1-.2 2.8-.3 1 2.6-2.6 2.7-2.8.3"/><path d="m368 277c3.1 1 6.1 2.3 9 3.6-5.9.2-11.9 0-17.8.6 3-1.2 6-2.6 8.8-4.3"/><path d="m66.9 289c4.9-.2 9.9-.5 14.7.4.3.1 1.1.3 1.4.4-4-.2-8 .8-11.7 2.5-.5-.2-1.6-.5-2.2-.7-.8-.8-1.5-1.7-2.3-2.6"/></g><g style="fill:#fab6aa"><path d="m327 109c1.8-.6 3.5-1.2 5.3-1.8-.7 1.5-1.3 3-2.1 4.4-1.4 1.2-2.8 2.2-4.3 3.3.4-2 .7-3.9 1.1-5.9"/><path d="m94 124c-.7-4.6 3.5-7.5 6.9-9.5 2.9 2 4.2 5.3 5.4 8.4 3-.3 6.1-1.3 8.9.5.7.9 1.2 1.9 1.8 2.9-3.2 2.3-5.7 5.3-8.1 8.3-1.5-3.6-2.2-7.8-5.7-10-.5 1.5-1 3-1.5 4.6-1.2 0-2.3 0-3.5 0 .8-3.2 1.6-6.4 2-9.6-2.2 1.3-4.2 2.8-6.2 4.5"/><path d="m173 116c3.5 2 6.7 4.6 10.7 5.5-3.3.4-5.9 2.6-7.7 5.3 1.4 2.1 2.8 4.2 4 6.4-2.7-.4-5.8-1.3-6.7-4.3.1-3 1.3-5.8 2.2-8.6-.9-1.4-1.7-2.8-2.6-4.3"/><path d="m331 117c.6.3 1.8 1 2.4 1.4-1 2-2.3 3.7-4.6 4.2.3-2 1-3.9 2.2-5.6"/><path d="m317 123c.9.2 2.6.7 3.5 1-.7 1.8-1.4 3.7-2.1 5.5-.6-.2-1.8-.7-2.4-.9.2-1.9.6-3.8 1-5.6"/><path d="m47 128c1.6-.5 2.2 0 1.7 1.7-1.6.5-2.2 0-1.7-1.7"/><path d="m97 137c1.7-2.3 3.8-4.4 6.7-5.3.4 3.9 1.2 7.9 3.6 11.2 2.2-3.3 3.8-7 6.5-10 1.3-.4 2.7-.6 4.1-.9.2 1.7.4 3.3.6 5 .6 0 1.9-.1 2.6-.1.5 2.5 2 5.1 1.3 7.7-1.3 4-4.4 6.9-7.1 9.9 1.3 2.1 3.2 4 3.6 6.5-.4 1.7-1.3 3.1-2 4.6-2-2.5-3.7-5.4-6.3-7.3-4.3.2-9 2.4-11.3 6.3.5 2 1.3 3.8 2.1 5.7 2.3.1 4.5.3 6.8.4-.7-1.5-1.3-3-2-4.6 1.7-1.5 3.3-3.1 5-4.6.8 5.4 2.8 10.7 2.6 16.3-.2 4.3.7 8.6 1.3 12.9-1.2-.1-2.4-.3-3.6-.5-.2-5-2.1-9.7-2.2-14.6-.7.2-1.3.4-2 .6-1.3.4-2.5.8-3.8 1.3.2-1.2.3-2.3.5-3.5-.8-.2-2.3-.7-3.1-.9-.7 2.6-1.2 5.2-1.5 7.8-1.4-.1-2.9-.2-4.3-.3-.5 0-1.3-.1-1.8-.1.7-1.2 1.4-2.5 2.1-3.7-.6.1-1.8.2-2.4.3-1 1.8-1.9 3.5-2.9 5.3-2.6.8-5 1.9-7.3 3.3 2.6.6 5.1 1.1 7.7 1.7-1.5 2.2-3 4.5-4.7 6.6-1.6-2.6-3.5-5.2-6.1-7 .2-2.5.5-4.9 1.2-7.3 2.1-.4 4.3-1 5.9-2.6 3-2.8 6.5-5.3 9.1-8.4.9-2.8.7-5.8 1.7-8.5 1.5-1.1 3.2-1.8 4.8-2.7-2.8-1.6-5.9-2.6-9-3.1 3.8-.7 8.9-.5 10.5-4.9.6-3.7-.5-7.4-1.6-10.9-.6.1-1.9.4-2.5.5-.6 1-1.1 2-1.7 3-.4-1.6-.6-3.2-.9-4.8m18.8 8c2.9 1.2 5.7-.2 6.4-3.3-2.2 0-7.1 0-6.4 3.3m-5.6.9c-1.8.5-1.1 3.6.7 3.4 1.7-.5 1-3.6-.7-3.4m-7.3 7c2.8 2.5 6.6 2.5 10.2 2.5 0-.6.1-1.8.2-2.4-3.5.2-6.9-.1-10.4-.1m12.5 4.8c-.5 1.6 0 2.2 1.7 1.7.5-1.6 0-2.2-1.7-1.7z"/><path d="m15.3 138c2-1.5 3.5-3.6 5-5.6 1.1 2.3 2.7 4.5 4.8 6-.8 2.6-1.2 5.3-1.3 7.9-2.6-1.7-5.4-2.7-8.4-3-3 0-4.3-3.2-5.8-5.3 1.9 0 3.8.3 5.7-.1"/><path d="m321 136c1.5 1.2 2.9 2.5 4.7 3.4 1.4.8 2.7-.6 4-1.1 0 1.8 0 3.6 0 5.4-1.1 1-2.1 1.9-3.2 2.9-1.2-1.1-2.4-2.3-3.4-3.5-.9-1.3-1.7-2.6-2.5-3.9.1-.8.3-2.4.4-3.2"/><path d="m117 166c2.4 4.2 7.8 5.4 12.1 3.8.5 2.3 1.4 4.6 1.1 7-1.1 3.4-5.4 2.8-8.2 3.3-.4 1.1-.8 2.3-1.2 3.4-.5 1.4-1 2.8-1.5 4.2-1-2.9-3.4-5.5-2.8-8.8.6-4.3 1.4-8.6.5-12.9m6.5 9.6c-1.1 2 3.1 3.1 3.3.8-.2-1.5-2.4-1.9-3.3-.8z"/><path d="m336 191c5.8.7 11.5 2 17.3 2.6.6 3.3 2.9 5.5 5.9 6.9.6 1.7 1.1 3.4 1.6 5.1-2.9 1.8-6.1 3-9.4 3.9-1.8-2.6-3.6-5.2-5.5-7.7-1.4.7-2.7 1.5-4.1 2.2-.4-1.6-.8-3.2-1.4-4.8-1.9.4-3.7 1.2-5.5 1.9.3-3.4.7-6.7 1.1-10"/><path d="m38.5 219c2.8 1.5 5.5 2.9 8.3 4.4-.5.9-1 1.8-1.6 2.7-.8 1.1-1.5 2.2-2.4 3.3-2.1-.7-1.2-3.4-1.6-5.1-.6-.1-1.9-.4-2.5-.5 0-1.6-.1-3.2-.1-4.8"/><path d="m111 234c.3.9.6 1.7 1 2.6-.9 3.7-1.4 7.6-3.5 10.8-2 3.4-6.4.7-9.4.5.1-2.4-.1-4.9.7-7.1 1.2-1.8 3.6-1 5.3-1-.4 1.6-.7 3.3-1 4.9 1.3-1.5 2.4-3 3.4-4.7 1.2-2 2.3-4.1 3.4-6.1"/><path d="m246 236c1.1 0 2.1 0 3.2.1 0 1.7.1 3.4.1 5.1-1.3.2-2.7.5-4 .7.2-2 .5-3.9.7-5.9"/><path d="m38.7 240c1.4-.6 2.7-1.1 4-1.7-.3 6.7 3 12.5 5.6 18.4-1.6 0-3.2.1-4.9.1-.9-1.2-1.7-2.3-2.6-3.4-2-4.2-2.5-8.8-2.2-13.3"/><path d="m113 245c1.3.5 2.5 1.1 3.7 1.7-.9 2.5-2.6 5-2.1 7.7.5 2.8 1.7 5.5 2.8 8.1-1.6-.3-3.3-.6-4.9-.9-.8-5.5-1.5-11.3.5-16.7"/><path d="m123 259c.9.8 1.8 1.5 2.7 2.4 1.7 2.1 3.1 4.3 4.6 6.4-.7.7-1.4 1.4-2.1 2.1-1.7.1-3.4.2-5.1.3-.9-2.5-1.9-4.9-2.8-7.4.9-1.3 1.8-2.5 2.7-3.8"/><path d="m105 272c1.1-3.5 2.3-7 3.9-10.3 1.9 6.2-1.4 12-1.2 18.3-1.5-.7-2.9-1.5-4.4-2.3.5-1.9 1-3.9 1.6-5.8"/><path d="m375 265c2.9-.7 5.9-.4 8.8-.1-.1 1.5-.2 2.9-.4 4.4-.7 4.1-1.9 8-3.1 12-2.4-5.2-1.2-10.9.1-16-1.8-.1-3.6-.1-5.4-.1"/><path d="m341 265c1.7 1.9 2.9 4.2 4.1 6.4 2.5-1.2 4.3-3.3 5.8-5.5 2.1 2 4.4 3.9 6.5 5.9.3.4.8 1 1.1 1.4-.4.4-1.2 1.4-1.6 1.8-1.8-1-3.4-2.2-5.4-2.8-2 0-3.8.8-5.6 1.4-1.5-.6-3-1-4.3-1.9-.5-2.2-.5-4.5-.6-6.8"/><path d="m224 277c-.5-2.4-1-4.9-1.2-7.4.8.6 1.7 1.2 2.5 1.8.9.6 1.9 1.3 2.8 1.9-1.3 1.3-2.7 2.5-4.1 3.7"/><path d="m58 275c2.6-1.1 5.3-.2 7.8 1-1 1.8-1.9 3.6-2.8 5.5 1.9-.6 3.8-1.1 5.6-1.9.5.8 1.5 2.3 2 3l-.8.1c-4.4.6-8.9 1.1-13.3.1 1-1.2 2.1-2.3 3.1-3.5-.5-1.4-1.1-2.9-1.6-4.3"/><path d="m10.4 275c3.1 2.5 6.3 5.1 10.3 6.2.1.5.4 1.4.6 1.9-.7.4-2.2 1.1-2.9 1.4-1.9 1.4-2.8 3.6-3.9 5.6-.3.4-1 1.4-1.4 1.8-.1-2.4.3-4.9.8-7.3-1.5-1.7-3.3-3.3-4.2-5.4.1-1.4.5-2.8.9-4.2"/><path d="m126 276c2.9.5 5.7 1.5 8.2 3-.7.4-2.1 1.1-2.8 1.5h-.9c-2.1-.8-3.9-2.2-4.5-4.5"/></g><g style="fill:#ea7977"><path d="m184 125c1.6-.5 2.2 0 1.7 1.7-1.6.5-2.2 0-1.7-1.7"/><path d="m44.5 132c1.6.3 3.9-.5 4.9 1.2.7 1.9.5 4 .6 6-.4.3-1.2 1-1.6 1.3-.7-.6-1.4-1.1-2.1-1.7l-.3-.9c-.6-2-1.1-4-1.6-6"/><path d="m45 152c1.3-1.1 2.9 1.2 1.6 2.1-1.3 1-2.9-1.2-1.6-2.1"/><path d="m33.5 163c1.2-1.3 2.4-2.7 3.6-4 1.5 1.4 2.1 3.3 2.4 5.3-2-.4-4-.8-6-1.3"/><path d="m178 170c3.3-.5 0 4.3-.8 1.1.2-.3.6-.9.8-1.1"/><path d="m45 176c1.6-.5 2.2 0 1.6 1.7-1.6.5-2.2 0-1.6-1.7"/><path d="m60 200c.4-.2 1.2-.6 1.6-.8 1.6 1 3.3 2 4.9 3.1-2.2 1.2-4.6 1.3-6.9.7.1-1 .3-1.9.4-2.9"/><path d="m32.6 208c0-2.9 2.1-3.8 4.7-3.8-1 1.8-2.6 3.3-4.7 3.8"/><path d="m66.8 206c1.5-.6 2.9-1.2 4.4-1.7-.8 2-1.5 4-2.4 6-.9-.6-1.9-1.2-2.8-1.8.3-.8.5-1.6.8-2.4"/><path d="m48 207c2 .5 5.2.3 5 3.3-2.4.1-4-1.3-5-3.3"/><path d="m184 209c1.6 0 3.2 0 4.8 0-.3 1.8-.5 3.6-.8 5.3-1.7.2-3.3.3-5 .5.3-1.9.6-3.9 1-5.8"/><path d="m174 217c1.1.2 2.1.3 3.2.4 0 .9 0 1.8-.1 2.7-1 .3-2.1.5-3.1.8 0-1.3 0-2.6 0-3.9"/><path d="m50 241c.9-.1 2.6-.2 3.5-.2 1.1 2 2.1 4 3.2 6-2.7-1.3-5.9-2.5-6.7-5.7"/><path d="m192 255c-1.2-1.8 1.1-3 2-4.2 1 2.1 1.3 4.3 0 6.3-.5-.5-1.5-1.6-2-2.1"/><path d="m188 275c1.9-1.7 4.1-2.9 6.4-4-1 3.2-2.7 6.2-5.5 8.1-.4-1.3-.8-2.7-.9-4.1"/><path d="m203 278c.6-1.1.4-3.5 2.3-3 .7.2 2 .6 2.7.8-1.6.8-3.3 1.6-5.1 2.2"/><path d="m182 276c2.5.4 4 2 3.6 4.6-2.6-.2-3.4-2.3-3.6-4.6"/></g></svg>