<?xml version="1.0" encoding="UTF-8" standalone="no"?>
<svg width="2000px" height="450px" viewBox="0 0 2000 450" version="1.1" xmlns="http://www.w3.org/2000/svg" xmlns:xlink="http://www.w3.org/1999/xlink" xmlns:sketch="http://www.bohemiancoding.com/sketch/ns">
    <!-- Generator: Sketch 3.3.2 (12043) - http://www.bohemiancoding.com/sketch -->
    <title>bg-2000</title>
    <desc>Created with Sketch.</desc>
    <defs></defs>
    <g id="Page-1" stroke="none" stroke-width="1" fill="none" fill-rule="evenodd" sketch:type="MSPage">
        <g id="bg-2000" sketch:type="MSArtboardGroup" fill="#441111">
            <g id="gr-441111" sketch:type="MSLayerGroup" transform="translate(0.000000, 67.000000)">
                <g id="Group" transform="translate(12.000000, 0.000000)" opacity="0.8" sketch:type="MSShapeGroup">
                    <path d="M262.862569,5.8 C270.158921,2.8 277.655172,-1.9 285.851074,0.9 C292.447776,3.4 296.845577,9.5 303.642179,12.2 C310.538731,15 313.637181,22.4 317.635182,28 C313.137431,22.6 309.23938,16.1 302.642679,13.2 C297.545227,10.9 293.447276,7 288.849575,3.9 C283.952024,0.5 277.055472,-1.77635684e-14 271.958021,3.2 C259.564218,9.6 245.671164,12.1 232.977511,16.7 C242.572714,11.6 252.967516,9.3 263.362319,5.8" id="Shape"></path>
                    <path d="M192.897551,21 C203.692154,17.3 215.386307,18.8 226.58071,18.3 C217.185407,19.3 207.690155,19 198.594703,20.4 C189.3993,23.1 180.703648,27.9 170.808596,27.9 C158.414793,30.8 145.821089,27.5 133.127436,30.3 C106.54073,32.8 80.153923,35.8 53.2673663,36.9 C43.4722639,38.8 36.075962,46.1 28.8795602,52.5 C35.2763618,44.6 43.2723638,36.8 53.7671164,35.5 C63.7621189,33.7 74.0569715,35.8 84.151924,33.8 C114.136932,29.3 145.121439,29.8 175.106447,26.1 C181.303348,25.7 186.8006,22.8 192.697651,21" id="Shape"></path>
                    <path d="M320.833583,33 C330.528736,40.9 336.725637,54.3 350.618691,55 C373.907046,59.4 397.395302,52.7 420.583708,52.6 C403.792104,55 387.0005,56.9 369.609195,58.1 C359.214393,57.6 348.71964,56.6 338.924538,53 C331.028486,48.1 326.330835,39.6 320.133933,33" id="Shape"></path>
                    <path d="M461.763118,46 C485.651174,40.7 510.338831,40.9 534.626687,40.7 C553.617191,40.8 572.607696,40.4 591.598201,42.7 C599.794103,44.2 607.590205,47 615.586207,49.4 C622.882559,51.6 630.578711,52.7 637.575212,55.2 C644.871564,57.7 651.168416,62.1 657.965017,65.6 C667.76012,70.7 677.355322,76.2 686.850575,81.8 C695.246377,86.8 704.241879,91.3 713.837081,92.2 C696.445777,92.8 683.152424,80.2 668.85957,72.8 C654.266867,65.9 640.873563,55.3 624.881559,53 C609.389305,49.4 594.896552,42.5 578.904548,42.4 C548.21989,40.9 516.935532,41.4 486.950525,43.6 C468.35982,44.8 450.568716,51.6 431.978011,50.6 C442.172914,49.7 452.267866,48.1 461.963018,46" id="Shape"></path>
                    <path d="M422.782609,52 C423.282359,50.7 424.181909,50.2 425.581209,50.4 C425.181409,51.8 424.281859,52.3 422.782609,52" id="Shape"></path>
                    <path d="M0.593703148,71 C8.98950525,63.4 19.4842579,59 28.5797101,52.4 C20.8835582,60.7 9.9890055,65.1 0.593703148,71" id="Shape"></path>
                    <path d="M1693.14743,61 C1701.44328,57.2 1710.73863,56.4 1719.83408,55.7 C1736.82559,55.3 1754.51674,54.6 1770.70865,60.6 C1780.004,64.3 1789.999,65.6 1799.69415,67.5 C1805.49125,68.6 1811.08846,66 1816.68566,64.9 C1825.08146,62.6 1833.87706,63.6 1842.47276,63.6 C1854.76662,64.3 1867.26037,64.1 1879.25437,66.9 C1893.14743,72.3 1906.74063,78.4 1920.23388,83.9 C1901.24338,81 1885.35132,66.7 1866.26087,65.9 C1848.36982,64.7 1830.27886,62.8 1812.38781,67.1 C1800.09395,70.6 1787.70015,65.3 1775.70615,63.4 C1753.91704,54.7 1729.72914,55 1706.84058,58.4 C1696.24588,59.4 1687.35032,66 1676.85557,67.4 C1648.16992,74.4 1618.88456,69.4 1589.89905,73.1 C1574.007,75.1 1557.51524,75.9 1542.92254,82.7 C1533.52724,87.3 1523.13243,89.1 1513.93703,93.3 C1502.34283,98.3 1490.24888,101.8 1478.25487,105.7 C1471.35832,108.5 1463.66217,107.7 1456.46577,107.8 C1424.48176,107 1392.49775,106.6 1360.51374,109 C1347.72014,110.1 1335.52624,113.5 1322.53273,114.9 C1302.94253,117.2 1283.65217,122.8 1265.86107,131.3 C1257.66517,135.5 1249.06947,139.3 1239.87406,140.9 C1229.47926,142.6 1218.88456,142.9 1208.48976,145.1 C1189.49925,150.8 1170.70865,157.8 1151.51824,161.7 C1142.92254,164 1134.02699,165.4 1125.13143,164.1 C1152.01799,163.6 1177.10545,152.7 1203.09245,145.5 C1216.08596,141 1230.07896,141.7 1243.77211,138.9 C1256.26587,136.2 1267.06047,128.9 1278.75462,124.6 C1293.54723,119.4 1308.73963,115.2 1324.53173,113.3 C1337.32534,112 1349.51924,108.3 1362.51274,107.7 C1387.50025,105.9 1413.08746,106.4 1438.37481,106.6 C1449.96902,106.5 1461.66317,108.3 1473.15742,106.2 C1486.35082,102 1499.84408,98.3 1512.63768,92.8 C1524.03198,87.7 1536.42579,85.4 1547.62019,79.9 C1580.6037,68.7 1616.38581,71.5 1650.56872,70 C1665.46127,68.7 1680.55372,67.2 1694.44678,61" id="Shape"></path>
                    <path d="M1923.03248,84 C1937.22539,74.5 1954.81659,72.4 1971.0085,72 C1954.51674,74.3 1938.02499,76.7 1923.03248,84" id="Shape"></path>
                    <path d="M856.565717,74 L857.065467,74.6 C857.265367,76.2 854.666667,76.5 854.966517,74.7 C855.366317,74.5 856.165917,74.2 856.565717,74" id="Shape"></path>
                    <path d="M858.564718,75 L863.062469,76.5 C861.663168,77.2 860.263868,78 858.864568,78.8 L858.864568,78.1 C858.764618,77.1 858.664668,76.1 858.664668,75" id="Shape"></path>
                    <path d="M867.56022,78 C869.15942,77.5 870.858571,76.9 872.457771,76.3 C873.357321,77.1 874.256872,77.9 875.156422,78.7 C872.557721,78.6 870.058971,78.5 867.56022,77.9" id="Shape"></path>
                    <path d="M850.568716,80 C849.269365,79.3 849.469265,77.5 850.868566,77.1 C850.768616,77.8 850.668666,79.3 850.568716,80" id="Shape"></path>
                    <path d="M876.555722,79 C876.655672,77.3 879.354323,77.7 878.854573,79.4 C878.254873,79.3 877.155422,79.1 876.555722,79" id="Shape"></path>
                    <path d="M851.568216,81 C853.267366,82.7 854.966517,84.5 856.665667,86.4 C854.866567,84.6 853.267366,82.8 851.568216,81" id="Shape"></path>
                    <path d="M878.554723,81 C879.854073,81 880.953523,82.1 880.853573,83.3 C879.454273,84.2 878.154923,82.2 878.554723,81" id="Shape"></path>
                    <path d="M884.551724,86 C884.251874,84.7 884.851574,84 886.150925,83.8 C886.550725,85.2 885.951024,85.9 884.551724,86" id="Shape"></path>
                    <path d="M857.565217,87 C858.764618,86.4 859.764118,86.6 860.663668,87.6 C859.464268,88.4 858.464768,88.3 857.565217,87" id="Shape"></path>
                    <path d="M872.557721,87 C872.257871,89.8 866.76062,87.3 869.55922,85.6 C870.458771,86.3 871.458271,86.7 872.557721,87" id="Shape"></path>
                    <path d="M881.553223,88 C881.853073,86.6 882.752624,85.9 884.251874,86 C883.852074,87.3 882.952524,88 881.553223,88" id="Shape"></path>
                    <path d="M877.555222,90 C877.855072,89.8 878.554723,89.4 878.854573,89.2 C878.954523,89.8 879.154423,91 879.354323,91.6 C878.954523,91.2 878.054973,90.4 877.555222,90" id="Shape"></path>
                    <path d="M856.565717,92 C856.465767,90.5 857.165417,89.9 858.564718,90.1 C858.564718,91.4 857.865067,92.1 856.565717,92" id="Shape"></path>
                    <path d="M720.633683,92 C724.731634,91.6 728.929535,91.4 733.027486,91.5 C728.929535,91.7 724.731634,91.9 720.633683,92" id="Shape"></path>
                    <path d="M735.626187,92 C741.023488,92.4 746.22089,94.1 751.118441,96.4 C746.02099,94.7 740.923538,93.1 735.626187,92" id="Shape"></path>
                    <path d="M850.568716,94 C852.067966,92.5 854.066967,91.7 856.265867,91.9 C854.866567,93.6 852.767616,94.3 850.568716,94" id="Shape"></path>
                    <path d="M882.552724,93 C884.251874,93.5 884.851574,95.4 884.451774,97 C882.952524,96.3 882.052974,94.6 882.552724,93" id="Shape"></path>
                    <path d="M835.576212,95 C836.575712,93.9 839.274363,93.5 839.274363,95.7 C837.975012,95.8 836.775612,95.6 835.576212,95" id="Shape"></path>
                    <path d="M841.573213,95 C844.071964,94.8 846.670665,94.5 849.269365,94.3 C846.770615,94.6 844.071964,94.8 841.573213,95" id="Shape"></path>
                    <path d="M830.578711,98 C830.478761,96.7 831.178411,95.9 832.677661,95.7 C832.677661,97.2 831.878061,97.9 830.578711,98" id="Shape"></path>
                    <path d="M825.581209,103 C825.781109,100.8 827.18041,98.5 829.67916,98.8 C829.07946,100.8 827.28036,102 825.581209,103" id="Shape"></path>
                    <path d="M758.614693,99 C767.910045,102.4 777.505247,105.2 787.4003,106.4 C795.496252,107.8 801.993003,113.6 809.389305,117 C814.686657,119.1 820.383808,120.3 825.981009,121.1 C825.881059,121.5 825.681159,122.4 825.581209,122.9 C819.684158,121.9 813.887056,120.2 808.389805,118 C800.893553,114.3 793.897051,108.8 785.401299,107.6 C776.105947,106.1 767.010495,103.4 758.614693,99.1" id="Shape"></path>
                    <path d="M876.555722,101 C878.154923,101.1 879.754123,101.1 881.453273,101.2 C878.354823,102.3 875.656172,104.3 873.257371,106.6 C874.356822,104.8 875.456272,102.9 876.555722,101" id="Shape"></path>
                    <path d="M824.581709,109 C824.781609,107.7 825.281359,105.2 825.481259,104 C826.38081,105.6 826.68066,108.3 824.581709,109" id="Shape"></path>
                    <path d="M866.56072,117 C866.46077,114.9 867.96002,113.4 869.45927,112.3 C869.35932,114.3 868.65967,116.4 866.56072,117" id="Shape"></path>
                    <path d="M826.58071,114 C827.38031,116 827.28036,118.2 826.08096,120.4 C824.981509,118.4 824.981509,115.8 826.58071,114" id="Shape"></path>
                    <path d="M853.567216,118 C854.266867,115.9 857.365317,118.5 855.666167,119.7 C854.766617,119.4 854.066967,118.8 853.567216,118" id="Shape"></path>
                    <path d="M838.574713,122 C837.475262,120.3 840.373813,117.9 841.973013,119.2 C841.273363,120.5 839.974013,121.4 838.574713,122" id="Shape"></path>
                    <path d="M842.572714,118 C846.070965,117.8 849.569215,117.7 853.167416,117.5 C849.569215,117.7 846.070965,117.8 842.572714,118" id="Shape"></path>
                    <path d="M864.561719,120 C864.561719,118.6 865.261369,117.9 866.76062,118 C866.66067,119.4 865.961019,120 864.561719,120" id="Shape"></path>
                    <path d="M830.578711,122 C831.478261,121.4 832.377811,120.8 833.377311,120.2 C835.376312,122.2 830.178911,125 830.578711,122" id="Shape"></path>
                    <path d="M864.561719,124 L864.561719,121.4 C871.458271,124.6 878.554723,127.8 886.250875,128.5 C878.754623,128.7 871.658171,125.7 864.561719,124" id="Shape"></path>
                    <path d="M836.575712,123 C839.874063,123 843.172414,123.2 846.470765,123.5 C843.072464,123.4 839.874063,123.4 836.575712,123" id="Shape"></path>
                    <path id="Shape" d="M891.548226,128 C894.446777,127.9 897.245377,128 900.143928,128 C897.245377,128.1 894.346827,128 891.548226,128"></path>
                    <path d="M906.54073,128 C907.94003,127.5 909.93903,127.4 910.538731,129.1 C909.03948,129.6 907.54023,129 906.54073,128" id="Shape"></path>
                    <path d="M930.528736,130 C938.324838,131.3 946.52074,131.4 953.517241,135 C960.413793,138.1 967.110445,141.9 973.107446,146.5 C978.604698,150.4 982.302849,156.4 988.5997,159.1 C984.801599,158.7 981.103448,156.9 978.804598,153.7 C966.210895,140.2 948.31984,132.8 930.828586,130" id="Shape"></path>
                    <path d="M1006.49075,159 C1023.08246,156.7 1039.47426,159.3 1056.46577,161.6 C1073.15742,162.4 1089.94903,161.5 1106.44078,164 C1088.44978,163.3 1069.95902,164.7 1051.46827,162.2 C1036.57571,159.4 1021.48326,158.7 1006.49075,159" id="Shape"></path>
                    <path id="Shape" d="M992.497751,159 C995.696152,159 998.694653,158.9 1001.993,158.8 C998.894553,159 995.596202,159 992.497751,159"></path>
                    <path d="M1111.43828,165 C1112.23788,162.8 1115.03648,163.2 1116.53573,164.4 C1115.23638,164.5 1112.73763,164.8 1111.43828,165" id="Shape"></path>
                </g>
                <path d="M283.858071,3 C289.055472,-0.2 295.852074,0.3 300.749625,3.7 C305.247376,6.9 309.345327,10.7 314.542729,13 C321.23938,15.9 325.137431,22.5 329.535232,27.8 C330.634683,29.4 331.634183,30.9 332.833583,32.4 C339.030485,39.1 343.728136,47.7 351.624188,52.4 C361.41929,56 372.013993,57 382.308846,57.5 C399.2004,56.2 416.091954,54.4 433.283358,52 C433.683158,52 434.582709,51.9 435.082459,51.9 C436.581709,52.2 437.481259,51.7 437.881059,50.3 C439.78011,50.4 441.77911,50.5 443.778111,50.4 C462.568716,51.5 480.35982,44.7 498.750625,43.4 C529.435282,41.2 559.72014,40.8 590.704648,42.2 C606.896552,42.3 621.589205,49.2 636.681659,52.8 C653.073463,55.2 666.466767,65.7 680.65967,72.6 C695.252374,79.9 708.545727,92.6 725.637181,92 C727.536232,92 729.335332,91.9 731.234383,91.8 C735.332334,91.7 739.530235,91.5 743.628186,91.3 C744.327836,91.3 745.627186,91.4 746.226887,91.5 C751.524238,92.6 756.621689,94.2 761.71914,95.9 C764.217891,96.8 766.616692,97.8 769.115442,98.8 C777.511244,103 786.606697,105.8 795.902049,107.3 C804.397801,108.5 811.394303,114.1 818.890555,117.7 C824.387806,119.9 830.184908,121.5 836.081959,122.6 C836.181909,122.2 836.381809,121.3 836.481759,120.8 L836.681659,119.8 C837.781109,117.6 837.981009,115.4 837.181409,113.4 C836.581709,111.7 835.982009,110 835.382309,108.3 C837.581209,107.6 837.181409,104.9 836.281859,103.3 C836.381809,103 836.581709,102.3 836.681659,102 C838.38081,101 840.17991,99.8 840.77961,97.8 L841.47926,97.8 C842.778611,97.7 843.478261,97 843.578211,95.5 C844.577711,95.1 845.477261,94.7 846.476762,94.2 C847.676162,94.8 848.875562,95 850.174913,94.9 C850.674663,94.9 851.674163,94.8 852.173913,94.7 C854.672664,94.4 857.271364,94.3 859.870065,94 C860.269865,93.9 860.969515,93.9 861.369315,93.8 C863.468266,94.1 865.667166,93.5 867.066467,91.7 L867.666167,91.7 C868.965517,91.7 869.665167,91.1 869.665167,89.8 C871.764118,90.1 873.763118,90.6 875.862069,91 C874.362819,89.5 872.763618,88.1 871.264368,86.7 C870.364818,85.7 869.365317,85.5 868.165917,86.1 L867.666167,85.6 C865.967016,83.8 864.267866,82 862.568716,80.2 L861.969015,79.6 C862.068966,78.9 862.168916,77.4 862.268866,76.7 C863.468266,75.9 864.667666,75 865.867066,74.2 C865.567216,76 868.165917,75.7 867.966017,74.1 C868.765617,75.2 869.565217,76.4 870.264868,77.6 L870.264868,78.3 C871.664168,77.5 873.063468,76.8 874.462769,76 C875.762119,76.4 877.061469,76.8 878.36082,77.2 C880.85957,77.8 883.458271,77.9 885.957021,78 C886.256872,78.3 886.656672,78.6 886.956522,78.8 C887.556222,78.9 888.655672,79.1 889.255372,79.2 L889.255372,81 C888.855572,82.3 890.154923,84.3 891.554223,83.3 C893.153423,82.6 894.752624,81.8 896.351824,81 C896.551724,81.8 896.751624,82.5 897.051474,83.3 C895.652174,83.4 895.152424,84.1 895.452274,85.5 L894.652674,85.5 C893.153423,85.4 892.353823,86.1 891.954023,87.5 C891.154423,87.8 890.254873,88.1 889.455272,88.4 C889.155422,88.6 888.455772,89 888.155922,89.2 C888.555722,89.6 889.455272,90.4 889.955022,90.8 C891.154423,91.3 892.453773,91.9 893.653173,92.5 C893.253373,94.1 894.052974,95.8 895.552224,96.5 C895.452274,97.8 895.352324,99 895.252374,100.3 L892.553723,100.3 C890.954523,100.3 889.255372,100.2 887.656172,100.1 C886.556722,102 885.457271,103.8 884.357821,105.7 C882.958521,107.9 881.45927,110 880.15992,112.2 C878.56072,113.3 877.061469,114.8 877.261369,116.9 L877.261369,117.7 C875.762119,117.6 875.062469,118.2 875.062469,119.7 L875.062469,120.7 L875.062469,123.3 C882.258871,125.1 889.255372,128 896.751624,127.8 C898.550725,127.9 900.349825,127.9 902.148926,127.9 L910.744628,127.9 C912.443778,127.9 915.742129,127.8 917.441279,127.8 C918.44078,128.8 919.94003,129.4 921.43928,128.9 C928.035982,127.9 934.732634,128.9 941.229385,129.9 C959.22039,132.7 977.111444,139.9 990.204898,153.6 C992.503748,156.8 996.101949,158.6 1000,159 C1001.1994,159.2 1002.49875,159.3 1003.7981,159.3 C1006.89655,159.3 1010.09495,159.3 1013.29335,159.1 C1014.69265,159 1016.1919,158.9 1017.69115,158.8 C1032.68366,158.5 1047.67616,159.1 1062.66867,162 C1080.65967,164.5 1098.65067,163.1 1117.64118,163.8 C1119.54023,164 1121.53923,164.2 1123.43828,164.6 C1124.73763,164.5 1127.23638,164.2 1128.53573,164 C1131.03448,164.2 1133.53323,164.3 1136.13193,164.5 C1145.02749,165.8 1153.92304,164.4 1162.51874,162.1 C1182.10895,158.2 1200.49975,151.1 1219.49025,145.5 C1229.78511,143.3 1240.47976,143 1250.87456,141.3 C1260.06997,139.7 1268.56572,136 1276.86157,131.7 C1294.65267,123.2 1313.84308,117.7 1333.53323,115.3 C1346.22689,113.9 1358.52074,110.5 1371.51424,109.4 C1403.49825,107.1 1435.48226,107.5 1467.46627,108.2 C1474.76262,108.1 1482.35882,108.9 1489.25537,106.1 C1501.24938,102.2 1513.24338,98.7 1524.93753,93.7 C1534.43278,89.5 1544.92754,87.7 1553.92304,83.1 C1568.71564,76.2 1584.90755,75.4 1600.89955,73.5 C1629.88506,69.7 1659.67016,74.7 1688.85557,67.8 C1699.35032,66.4 1708.24588,59.8 1718.84058,58.8 C1741.72914,55.5 1765.81709,55.1 1787.70615,63.8 C1799.70015,65.7 1812.09395,70.9 1824.38781,67.5 C1841.97901,63.2 1860.36982,65.1 1878.26087,66.3 C1897.85107,67.1 1913.24338,81.3 1932.23388,84.3 C1932.63368,84.2 1933.43328,83.9 1933.93303,83.8 C1948.92554,76.3 1965.91704,74 1981.90905,71.8 C1987.8061,71.7 1993.70315,71.9 1999.70015,71.9 L1999.70015,382.9 L0.699650175,382.9 L0.699650175,71.9 C4.29785107,71.6 7.79610195,71.4 11.2943528,71 C20.7896052,65.1 31.6841579,60.7 39.2803598,52.4 L39.7801099,51.9 C46.8765617,45.5 54.3728136,38.1 64.167916,36.3 C90.8545727,35.2 117.141429,32.2 144.027986,29.7 C156.421789,26.9 169.015492,30.2 181.709145,27.3 C191.604198,27.3 200.29985,22.5 209.495252,19.8 C218.890555,18.4 228.385807,18.7 237.481259,17.7 C239.38031,17.5 241.17941,17 242.978511,16.4 C255.972014,11.8 269.965017,9.2 281.95902,2.9 M882.658671,86.9 C884.457771,85.2 880.25987,83.6 879.66017,85.5 C876.861569,87.1 882.458771,89.7 882.658671,86.9 M839.78011,121.3 C839.38031,124.3 844.577711,121.5 842.578711,119.5 C843.478261,118 843.878061,116.3 844.477761,114.7 C842.678661,116.7 841.17941,118.9 839.88006,121.3 M863.168416,117.4 L862.468766,117.4 C858.970515,117.5 855.372314,117.7 851.874063,117.9 L851.574213,118.3 C849.975012,117 847.076462,119.4 848.175912,121.1 C847.776112,121.3 846.876562,121.8 846.476762,122 C849.775112,122.4 853.073463,122.4 856.371814,122.5 C859.370315,122.8 862.068966,123.1 865.167416,123.4 C865.167416,121.9 865.167416,120.5 865.067466,119 C866.766617,117.8 863.668166,115.2 862.968516,117.3" id="Shape" sketch:type="MSShapeGroup"></path>
            </g>
        </g>
    </g>
</svg>
