<svg viewBox="0 0 2000 450" xmlns="http://www.w3.org/2000/svg"><g transform="translate(0 67)" style="fill:#411;fill-rule:evenodd"><g id="0" transform="translate(12)" style="opacity:.8"><path d="m263 5.8c7.3-3 14.8-7.7 23-4.9 6.6 2.5 11 8.6 17.8 11.3 6.9 2.8 10 10.2 14 15.8-4.5-5.4-8.4-11.9-15-14.8-5.1-2.3-9.2-6.2-13.8-9.3-4.9-3.4-11.8-3.9-16.9-.7-12.4 6.4-26.3 8.9-39 13.5 9.6-5.1 20-7.4 30.4-10.9" id="2"/><path d="m193 21c10.8-3.7 22.5-2.2 33.7-2.7-9.4 1-18.9.7-28 2.1-9.2 2.7-17.9 7.5-27.8 7.5-12.4 2.9-25-.4-37.7 2.4-26.6 2.5-53 5.5-80 6.6-9.8 1.9-17.2 9.2-24.4 15.6 6.4-7.9 14.4-15.7 24.9-17 10-1.8 20.3.3 30.4-1.7 30-4.5 61-4 91-7.7 6.2-.4 11.7-3.3 17.6-5.1" id="3"/><path d="m321 33c9.7 7.9 15.9 21.3 29.8 22 23.3 4.4 46.8-2.3 70-2.4-16.8 2.4-33.6 4.3-51 5.5-10.4-.5-20.9-1.5-30.7-5.1-7.9-4.9-12.6-13.4-18.8-20" id="4"/><path d="m462 46c23.9-5.3 48.6-5.1 72.9-5.3 19 .1 38-.3 57 2 8.2 1.5 16 4.3 24 6.7 7.3 2.2 15 3.3 22 5.8 7.3 2.5 13.6 6.9 20.4 10.4 9.8 5.1 19.4 10.6 28.9 16.2 8.4 5 17.4 9.5 27 10.4-17.4.6-30.7-12-45-19.4-14.6-6.9-28-17.5-44-19.8-15.5-3.6-30-10.5-46-10.6-30.7-1.5-62-1-92 1.2-18.6 1.2-36 8-55 7 10.2-.9 20.3-2.5 30-4.6" id="5"/><path d="m423 52c.5-1.3 1.4-1.8 2.8-1.6-.4 1.4-1.3 1.9-2.8 1.6" id="6"/><path d="m.6 71c8.4-7.6 18.9-12 28-18.6-7.7 8.3-18.6 12.7-28 18.6" id="7"/><path d="m1693 61c8.3-3.8 17.6-4.6 26.7-5.3 17-.4 34.7-1.1 50.9 4.9 9.3 3.7 19.3 5 29 6.9 5.8 1.1 11.4-1.5 17-2.6 8.4-2.3 17.2-1.3 25.8-1.3 12.3.7 24.8.5 36.8 3.3 13.9 5.4 27.5 11.5 41 17-19-2.9-34.9-17.2-54-18-17.9-1.2-36-3.1-53.9 1.2-12.3 3.5-24.7-1.8-36.7-3.7-21.8-8.7-46-8.4-68.9-5-10.6 1-19.5 7.6-30 9-28.7 7-58 2-87 5.7-15.9 2-32.4 2.8-47 9.6-9.4 4.6-19.8 6.4-29 10.6-11.6 5-23.7 8.5-35.7 12.4-6.9 2.8-14.6 2-21.8 2.1-32-.8-64-1.2-96 1.2-12.8 1.1-25 4.5-38 5.9-19.6 2.3-38.9 7.9-56.7 16.4-8.2 4.2-16.8 8-26 9.6-10.4 1.7-21 2-31.4 4.2-19 5.7-37.8 12.7-57 16.6-8.6 2.3-17.5 3.7-26.4 2.4 26.9-.5 52-11.4 78-18.6 13-4.5 27-3.8 40.7-6.6 12.5-2.7 23.3-10 35-14.3 14.8-5.2 30-9.4 45.8-11.3 12.8-1.3 25-5 38-5.6 25-1.8 50.6-1.3 75.9-1.1 11.6-.1 23.3 1.7 34.8-.4 13.2-4.2 26.7-7.9 39.5-13.4 11.4-5.1 23.8-7.4 35-12.9 33-11.2 68.8-8.4 103-9.9 14.9-1.3 30-2.8 43.9-9" id="8"/><path d="m1923 84c14.2-9.5 31.8-11.6 48-12-16.5 2.3-33 4.7-48 12" id="9"/><path d="m857 74l.5.6c.2 1.6-2.4 1.9-2.1.1.4-.2 1.2-.5 1.6-.7" id="A"/><path d="m859 75l4.5 1.5c-1.4.7-2.8 1.5-4.2 2.3v-.7c-.1-1-.2-2-.2-3.1" id="B"/><path d="m868 78c1.6-.5 3.3-1.1 4.9-1.7.9.8 1.8 1.6 2.7 2.4-2.6-.1-5.1-.2-7.6-.8" id="C"/><path d="m851 80c-1.3-.7-1.1-2.5.3-2.9-.1.7-.2 2.2-.3 2.9" id="D"/><path d="m877 79c.1-1.7 2.8-1.3 2.3.4-.6-.1-1.7-.3-2.3-.4" id="E"/><path d="m852 81c1.7 1.7 3.4 3.5 5.1 5.4-1.8-1.8-3.4-3.6-5.1-5.4" id="F"/><path d="m879 81c1.3 0 2.4 1.1 2.3 2.3-1.4.9-2.7-1.1-2.3-2.3" id="G"/><path d="m885 86c-.3-1.3.3-2 1.6-2.2.4 1.4-.2 2.1-1.6 2.2" id="H"/><path d="m858 87c1.2-.6 2.2-.4 3.1.6-1.2.8-2.2.7-3.1-.6" id="I"/><path d="m873 87c-.3 2.8-5.8.3-3-1.4.9.7 1.9 1.1 3 1.4" id="J"/><path d="m882 88c.3-1.4 1.2-2.1 2.7-2-.4 1.3-1.3 2-2.7 2" id="K"/><path d="m878 90c.3-.2 1-.6 1.3-.8.1.6.3 1.8.5 2.4-.4-.4-1.3-1.2-1.8-1.6" id="L"/><path d="m857 92c-.1-1.5.6-2.1 2-1.9 0 1.3-.7 2-2 1.9" id="M"/><path d="m721 92c4.1-.4 8.3-.6 12.4-.5-4.1.2-8.3.4-12.4.5" id="N"/><path d="m736 92c5.4.4 10.6 2.1 15.5 4.4-5.1-1.7-10.2-3.3-15.5-4.4" id="O"/><path d="m851 94c1.5-1.5 3.5-2.3 5.7-2.1-1.4 1.7-3.5 2.4-5.7 2.1" id="P"/><path d="m883 93c1.7.5 2.3 2.4 1.9 4-1.5-.7-2.4-2.4-1.9-4" id="Q"/><path d="m836 95c1-1.1 3.7-1.5 3.7.7-1.3.1-2.5-.1-3.7-.7" id="R"/><path d="m842 95c2.5-.2 5.1-.5 7.7-.7-2.5.3-5.2.5-7.7.7" id="S"/><path d="m831 98c-.1-1.3.6-2.1 2.1-2.3 0 1.5-.8 2.2-2.1 2.3" id="T"/><path d="m826 103c.2-2.2 1.6-4.5 4.1-4.2-.6 2-2.4 3.2-4.1 4.2" id="U"/><path d="m759 99c9.3 3.4 18.9 6.2 28.8 7.4 8.1 1.4 14.6 7.2 22 10.6 5.3 2.1 11 3.3 16.6 4.1-.1.4-.3 1.3-.4 1.8-5.9-1-11.7-2.7-17.2-4.9-7.5-3.7-14.5-9.2-23-10.4-9.3-1.5-18.4-4.2-26.8-8.5" id="V"/><path d="m877 101c1.6.1 3.2.1 4.9.2-3.1 1.1-5.8 3.1-8.2 5.4 1.1-1.8 2.2-3.7 3.3-5.6" id="W"/><path d="m825 109c.2-1.3.7-3.8.9-5 .9 1.6 1.2 4.3-.9 5" id="X"/><path d="m867 117c-.1-2.1 1.4-3.6 2.9-4.7-.1 2-.8 4.1-2.9 4.7" id="Y"/><path d="m827 114c.8 2 .7 4.2-.5 6.4-1.1-2-1.1-4.6.5-6.4" id="Z"/><path d="m854 118c.7-2.1 3.8.5 2.1 1.7-.9-.3-1.6-.9-2.1-1.7" id="a"/><path d="m839 122c-1.1-1.7 1.8-4.1 3.4-2.8-.7 1.3-2 2.2-3.4 2.8" id="b"/><path d="m843 118c3.5-.2 7-.3 10.6-.5-3.6.2-7.1.3-10.6.5" id="c"/><path d="m865 120c0-1.4.7-2.1 2.2-2-.1 1.4-.8 2-2.2 2" id="d"/><path d="m831 122c.9-.6 1.8-1.2 2.8-1.8 2 2-3.2 4.8-2.8 1.8" id="e"/><path d="m865 124v-2.6c6.9 3.2 14 6.4 21.7 7.1-7.5.2-14.6-2.8-21.7-4.5" id="f"/><path d="m837 123c3.3 0 6.6.2 9.9.5-3.4-.1-6.6-.1-9.9-.5" id="g"/><path id="h" d="m892 128c2.9-.1 5.7 0 8.6 0-2.9.1-5.8 0-8.6 0"/><path d="m907 128c1.4-.5 3.4-.6 4 1.1-1.5.5-3-.1-4-1.1" id="i"/><path d="m931 130c7.8 1.3 16 1.4 23 5 6.9 3.1 13.6 6.9 19.6 11.5 5.5 3.9 9.2 9.9 15.5 12.6-3.8-.4-7.5-2.2-9.8-5.4-12.6-13.5-30.5-20.9-48-23.7" id="j"/><path d="m1006 159c16.6-2.3 33 .3 50 2.6 16.7.8 33.5-.1 50 2.4-18-.7-36.5.7-55-1.8-14.9-2.8-30-3.5-45-3.2" id="k"/><path id="l" d="m992 159c3.2 0 6.2-.1 9.5-.2-3.1.2-6.4.2-9.5.2"/><path d="m1111 165c.8-2.2 3.6-1.8 5.1-.6-1.3.1-3.8.4-5.1.6" id="m"/></g><path d="m284 3c5.2-3.2 12-2.7 16.9.7 4.5 3.2 8.6 7 13.8 9.3 6.7 2.9 10.6 9.5 15 14.8 1.1 1.6 2.1 3.1 3.3 4.6 6.2 6.7 10.9 15.3 18.8 20 9.8 3.6 20.4 4.6 30.7 5.1 16.9-1.3 33.8-3.1 51-5.5.4 0 1.3-.1 1.8-.1 1.5.3 2.4-.2 2.8-1.6 1.9.1 3.9.2 5.9.1 18.8 1.1 36.6-5.7 55-7 30.7-2.2 61-2.6 92-1.2 16.2.1 30.9 7 46 10.6 16.4 2.4 29.8 12.9 44 19.8 14.6 7.3 27.9 20 45 19.4 1.9 0 3.7-.1 5.6-.2 4.1-.1 8.3-.3 12.4-.5.7 0 2 .1 2.6.2 5.3 1.1 10.4 2.7 15.5 4.4 2.5.9 4.9 1.9 7.4 2.9 8.4 4.2 17.5 7 26.8 8.5 8.5 1.2 15.5 6.8 23 10.4 5.5 2.2 11.3 3.8 17.2 4.9.1-.4.3-1.3.4-1.8l.2-1c1.1-2.2 1.3-4.4.5-6.4-.6-1.7-1.2-3.4-1.8-5.1 2.2-.7 1.8-3.4.9-5 .1-.3.3-1 .4-1.3 1.7-1 3.5-2.2 4.1-4.2h.7c1.3-.1 2-.8 2.1-2.3 1-.4 1.9-.8 2.9-1.3 1.2.6 2.4.8 3.7.7.5 0 1.5-.1 2-.2 2.5-.3 5.1-.4 7.7-.7.4-.1 1.1-.1 1.5-.2 2.1.3 4.3-.3 5.7-2.1h.6c1.3 0 2-.6 2-1.9 2.1.3 4.1.8 6.2 1.2-1.5-1.5-3.1-2.9-4.6-4.3-.9-1-1.9-1.2-3.1-.6l-.5-.5c-1.7-1.8-3.4-3.6-5.1-5.4l-.6-.6c.1-.7.2-2.2.3-2.9 1.2-.8 2.4-1.7 3.6-2.5-.3 1.8 2.3 1.5 2.1-.1.8 1.1 1.6 2.3 2.3 3.5v.7c1.4-.8 2.8-1.5 4.2-2.3 1.3.4 2.6.8 3.9 1.2 2.5.6 5.1.7 7.6.8.3.3.7.6 1 .8.6.1 1.7.3 2.3.4v1.8c-.4 1.3.9 3.3 2.3 2.3 1.6-.7 3.2-1.5 4.8-2.3.2.8.4 1.5.7 2.3-1.4.1-1.9.8-1.6 2.2h-.8c-1.5-.1-2.3.6-2.7 2-.8.3-1.7.6-2.5.9-.3.2-1 .6-1.3.8.4.4 1.3 1.2 1.8 1.6 1.2.5 2.5 1.1 3.7 1.7-.4 1.6.4 3.3 1.9 4-.1 1.3-.2 2.5-.3 3.8h-2.7c-1.6 0-3.3-.1-4.9-.2-1.1 1.9-2.2 3.7-3.3 5.6-1.4 2.2-2.9 4.3-4.2 6.5-1.6 1.1-3.1 2.6-2.9 4.7v.8c-1.5-.1-2.2.5-2.2 2v1 2.6c7.2 1.8 14.2 4.7 21.7 4.5 1.8.1 3.6.1 5.4.1h8.6c1.7 0 5-.1 6.7-.1 1 1 2.5 1.6 4 1.1 6.6-1 13.3 0 19.8 1 18 2.8 35.9 10 49 23.7 2.3 3.2 5.9 5 9.8 5.4 1.2.2 2.5.3 3.8.3 3.1 0 6.3 0 9.5-.2 1.4-.1 2.9-.2 4.4-.3 15-.3 30 .3 45 3.2 18 2.5 36 1.1 55 1.8 1.9.2 3.9.4 5.8.8 1.3-.1 3.8-.4 5.1-.6 2.5.2 5 .3 7.6.5 8.9 1.3 17.8-.1 26.4-2.4 19.6-3.9 38-11 57-16.6 10.3-2.2 21-2.5 31.4-4.2 9.2-1.6 17.7-5.3 26-9.6 17.8-8.5 37-14 56.7-16.4 12.7-1.4 25-4.8 38-5.9 32-2.3 64-1.9 96-1.2 7.3-.1 14.9.7 21.8-2.1 12-3.9 24-7.4 35.7-12.4 9.5-4.2 20-6 29-10.6 14.8-6.9 31-7.7 47-9.6 29-3.8 58.8 1.2 88-5.7 10.5-1.4 19.4-8 30-9 22.9-3.3 47-3.7 68.9 5 12 1.9 24.4 7.1 36.7 3.7 17.6-4.3 36-2.4 53.9-1.2 19.6.8 35 15 54 18 .4-.1 1.2-.4 1.7-.5 15-7.5 32-9.8 48-12 5.9-.1 11.8.1 17.8.1v311h-1999v-311c3.6-.3 7.1-.5 10.6-.9 9.5-5.9 20.4-10.3 28-18.6l.5-.5c7.1-6.4 14.6-13.8 24.4-15.6 26.7-1.1 53-4.1 80-6.6 12.4-2.8 25 .5 37.7-2.4 9.9 0 18.6-4.8 27.8-7.5 9.4-1.4 18.9-1.1 28-2.1 1.9-.2 3.7-.7 5.5-1.3 13-4.6 27-7.2 39-13.5m601 84c1.8-1.7-2.4-3.3-3-1.4-2.8 1.6 2.8 4.2 3 1.4m-42.9 34.4c-.4 3 4.8.2 2.8-1.8.9-1.5 1.3-3.2 1.9-4.8-1.8 2-3.3 4.2-4.6 6.6m23.3-3.9h-.7c-3.5.1-7.1.3-10.6.5l-.3.4c-1.6-1.3-4.5 1.1-3.4 2.8-.4.2-1.3.7-1.7.9 3.3.4 6.6.4 9.9.5 3 .3 5.7.6 8.8.9 0-1.5 0-2.9-.1-4.4 1.7-1.2-1.4-3.8-2.1-1.7" id="1"/></g></svg>