<svg xmlns="http://www.w3.org/2000/svg" width="2000" height="450" viewBox="0 0 2000 450">
  <title>
    bg-2000
  </title>
  <g id="Page-1" fill="none" fill-rule="evenodd">
    <g id="bg-2000" fill="#411">
      <g id="gr-441111">
        <g id="Group" opacity=".8">
          <path id="Shape" d="M275 72.8c7.2-3 14.7-7.7 23-5 6.4 2.6 10.8 8.7 17.6 11.4 7 2.8 10 10.2 14 15.8-4.5-5.4-8.4-12-15-14.8-5-2.3-9.2-6.2-13.8-9.3-4.8-3.5-11.7-4-16.8-.8-12.4 6.4-26.3 9-39 13.5 9.6-5 20-7.4 30.4-11M205 88c10.7-3.7 22.4-2.2 33.6-2.7-9.4 1-19 .7-28 2-9.2 2.8-18 7.6-27.8 7.6-12.4 2.8-25-.5-37.7 2.3-26.5 2.5-52.8 5.5-79.7 6.6-9.8 1.8-17.2 9-24.4 15.5 6.3-8 14.3-15.7 24.8-17 10-1.8 20.3.3 30.4-1.7 30-4.5 61-4 91-7.7 6-.3 11.6-3.2 17.5-5M332.8 100c9.7 8 16 21.3 29.8 22 23.3 4.4 46.8-2.3 70-2.4-16.8 2.4-33.6 4.3-51 5.5-10.4-.4-21-1.4-30.7-5-8-5-12.7-13.4-19-20M473.8 113c24-5.3 48.5-5 72.8-5.3 19 0 38-.3 57 2 8.2 1.5 16 4.3 24 6.7 7.3 2.2 15 3.3 22 5.8 7.3 2.5 13.6 7 20.4 10.4 9.8 5 19.4 10.6 29 16.2 8.2 5 17.2 9.5 26.8 10.4-17.4.6-30.6-12-45-19.4-14.5-7-28-17.5-44-19.8-15.4-3.6-30-10.5-46-10.6-30.6-1.5-62-1-91.8 1.2-18.6 1.2-36.4 8-55 7 10.2-1 20.3-2.5 30-4.6M434.8 119c.5-1.3 1.4-1.8 2.8-1.6-.4 1.4-1.3 2-2.8 1.6M12.6 138c8.4-7.6 19-12 28-18.6C33 127.7 22 132 12.6 138M1705 128c8.4-3.8 17.7-4.6 26.8-5.3 17-.4 34.7-1 51 5 9.2 3.6 19.2 5 29 6.8 5.7 1 11.3-1.5 17-2.6 8.3-2.4 17-1.4 25.7-1.4 12.3.7 24.8.5 36.8 3.3 13.8 5.3 27.4 11.4 41 17-19-3-35-17.3-54-18-18-1.3-36-3.2-54 1-12.2 3.6-24.6-1.7-36.6-3.6-21.8-8.7-46-8.4-69-5-10.5 1-19.3 7.6-29.8 9-28.8 7-58 2-87 5.7-16 2-32.5 3-47 9.7-9.5 4.6-20 6.4-29 10.6-11.7 5-23.8 8.5-35.7 12.4-7 2.8-14.6 2-21.8 2-32-.7-64-1-96 1.3-12.8 1-25 4.5-38 6-19.6 2.2-38.8 7.8-56.6 16.3-8.3 4.2-17 8-26 9.6-10.5 1.6-21 2-31.5 4-19 5.8-37.8 12.8-57 16.7-8.6 2.3-17.5 3.7-26.4 2.4 27-.4 52-11.3 78-18.5 13-4.5 27-3.8 40.8-6.6 12.5-2.8 23.3-10 35-14.4 14.7-5.2 30-9.4 45.7-11.3 12.8-1.3 25-5 38-5.6 25-1.8 50.6-1.3 76-1 11.5-.2 23.2 1.6 34.7-.5 13.2-4.2 26.6-8 39.4-13.4 11.4-5 23.8-7.4 35-13 33-11 68.8-8.3 103-9.8 15-1.3 30-2.8 43.8-9M1935 151c14.2-9.5 31.8-11.6 48-12-16.5 2.3-33 4.7-48 12M868.6 141l.5.6c.3 1.6-2.3 2-2 0 .4 0 1.2-.4 1.6-.6M870.6 142l4.5 1.5-4 2.3v-.7l-.3-3M879.6 145c1.6-.5 3.3-1 5-1.7l2.6 2.4c-2.6 0-5-.2-7.6-.8M862.6 147c-1.3-.7-1-2.5.3-3l-.4 3M888.6 146c0-1.7 2.8-1.3 2.3.4-.7 0-1.8-.3-2.4-.4M863.6 148c1.7 1.7 3.4 3.5 5 5.4l-5-5.4M890.6 148c1.3 0 2.4 1 2.3 2.3-1.5 1-2.8-1-2.4-2.3M896.6 153c-.3-1.3.3-2 1.6-2.2.4 1.4-.2 2-1.6 2.2M869.6 154c1.2-.6 2.2-.4 3 .6-1 .8-2 .7-3-.6M884.6 154c-.3 2.8-5.8.3-3-1.4 1 .7 2 1 3 1.4M893.6 155c.3-1.4 1.2-2 2.7-2-.4 1.3-1.3 2-2.7 2M889.6 157l1.3-.8.4 2.4-1.8-1.6M868.6 159c0-1.5.6-2 2-2 0 1.4-.7 2-2 2M732.6 159c4-.4 8.3-.6 12.4-.5l-12.4.5M747.6 159c5.4.4 10.6 2 15.5 4.4-5-1.7-10-3.3-15.4-4.4M862.6 161c1.5-1.5 3.5-2.3 5.7-2-1.4 1.6-3.5 2.3-5.7 2M894.6 160c1.7.5 2.3 2.4 2 4-1.6-.7-2.5-2.4-2-4M847.6 162c1-1 3.7-1.5 3.7.7-1.3 0-2.5 0-3.7-.7M853.6 162l7.7-.7-7.7.7M842.6 165c0-1.3.6-2 2-2.3 0 1.5-.7 2.2-2 2.3M837.6 170c.2-2.2 1.6-4.5 4-4.2-.5 2-2.3 3.2-4 4.2M770.6 166c9.3 3.4 19 6.2 28.8 7.4 8 1.4 14.6 7.2 22 10.6 5.3 2 11 3.3 16.6 4l-.4 2c-6-1-11.7-2.8-17.2-5-7.5-3.7-14.5-9.2-23-10.4-9.3-1.5-18.4-4.2-26.8-8.5M888.6 168c1.6 0 3.2 0 5 .2-3.2 1-6 3-8.3 5.4l3.3-5.6M836.6 176l1-5c.8 1.6 1 4.3-1 5M878.6 184c0-2 1.4-3.6 3-4.7-.2 2-1 4-3 4.7M838.6 181c.8 2 .7 4.2-.5 6.4-1-2-1-4.6.6-6.4M865.6 185c.7-2 3.8.5 2 1.7-.8-.3-1.5-1-2-1.7M850.6 189c-1-1.7 1.8-4 3.4-2.8-.7 1.3-2 2.2-3.4 2.8M854.6 185l10.6-.5-10.6.5M876.6 187c0-1.4.7-2 2.2-2 0 1.4-.8 2-2.2 2M842.6 189l2.8-1.8c2 2-3.2 4.8-2.8 1.8M876.6 191v-2.6c7 3.2 14 6.4 21.7 7-7.5.3-14.6-2.7-21.7-4.4M848.6 190c3.3 0 6.6.2 10 .5-3.5 0-6.7 0-10-.5M903.5 195h8.6-8.5M918.5 195c1.4-.5 3.4-.6 4 1-1.5.6-3 0-4-1M942.5 197c7.8 1.3 16 1.4 23 5 7 3 13.6 7 19.6 11.5 5.6 4 9.3 10 15.6 12.6-3.8-.3-7.5-2-9.8-5.3-12.6-13.5-30.5-21-48-23.7M1018.5 226c16.6-2.3 33 .3 50 2.6 16.7.8 33.4 0 50 2.4-18-.7-36.5.7-55-1.8-15-2.8-30-3.5-45-3.2M1004.5 226c3.2 0 6.2 0 9.5-.2-3 .2-6.4.2-9.5.2M1123.4 232c.8-2.2 3.6-1.8 5-.6-1.2 0-3.7.4-5 .6"/>
        </g>
        <path id="Shape" d="M284 70c5-3.2 12-2.7 16.7.7 4.5 3.2 8.6 7 13.8 9.3 6.7 3 10.6 9.5 15 14.8 1 1.6 2 3 3.3 4.6 6.2 6.7 11 15.3 18.8 20 9.8 3.6 20.4 4.6 30.7 5 17-1.2 33.8-3 51-5.4h1.8c1.6.2 2.5-.3 3-1.7 1.8 0 3.8.2 5.8 0 18.8 1.2 36.6-5.6 55-7 30.6-2 61-2.5 92-1 16 0 30.8 7 46 10.5 16.3 2.4 29.7 13 44 19.8 14.5 7.3 27.7 20 44.8 19.4 2 0 3.7 0 5.6-.2 4 0 8.3-.3 12.4-.5.7 0 2 0 2.6.2 5.3 1 10.4 2.7 15.5 4.4 2.5.8 5 1.8 7.4 2.8 8.5 4.2 17.6 7 27 8.5 8.4 1.2 15.4 6.8 23 10.4 5.4 2.2 11.2 3.8 17 5l.5-2 .2-1c1-2 1.3-4.3.5-6.3l-1.8-5c2.2-.8 1.8-3.5 1-5l.3-1.4c1.7-1 3.5-2.2 4-4.2h.8c1.3 0 2-.8 2-2.3l3-1.3c1.2.6 2.4.8 3.7.7l2-.3 7.7-.7c.3 0 1 0 1.4-.2 2 .3 4.3-.3 5.7-2h.7c1.3 0 2-.7 2-2l6.2 1.2-4.7-4.3c-1-1-2-1.2-3-.6l-.6-.4-5-5.4-.7-.6.3-3 3.6-2.4c-.4 1.8 2.2 1.5 2 0 .8 1 1.6 2.2 2.3 3.4v.7l4.2-2.3 4 1.2c2.4.6 5 .7 7.5.8l1 .8c.6 0 1.7.3 2.3.4v1.8c-.4 1.3 1 3.3 2.3 2.3l4.8-2.3.7 2.3c-1.3 0-1.8.8-1.5 2.2h-.8c-1.5 0-2.3.6-2.7 2l-2.5 1c-.3 0-1 .5-1.3.7l1.8 1.6c1.2.5 2.5 1 3.7 1.7-.4 1.6.4 3.3 2 4l-.4 3.8h-2.7c-1.6 0-3.3 0-5-.2-1 2-2 3.8-3.2 5.7-1.4 2.2-3 4.3-4.2 6.5-1.6 1-3 2.6-3 4.7v.7c-1.4 0-2 .5-2 2v3.6c7 1.8 14 4.7 21.6 4.5h20.7c1 1 2.5 1.6 4 1 6.6-1 13.3 0 19.8 1 18 3 36 10 49 23.8 2.3 3.2 6 5 9.8 5.4 1.2.2 2.5.3 3.8.3 3 0 6.3 0 9.5-.2 1.4 0 3 0 4.4-.2 15-.3 30 .3 45 3.2 18 2.5 36 1 55 1.8 1.8.2 3.8.4 5.7.8 1.3 0 3.8-.4 5-.6l7.7.5c9 1.3 18 0 26.5-2.4 19.6-3.8 38-11 57-16.5 10.3-2.2 21-2.5 31.4-4.2 9-1.6 17.6-5.3 26-9.6 17.7-8.5 36.8-14 56.5-16.4 12.7-1.4 25-4.8 38-6 32-2.2 64-1.8 96-1 7.3-.2 15 .6 21.8-2.2 12-3.8 24-7.3 35.6-12.3 9.4-4.2 20-6 29-10.6 14.7-6.8 31-7.6 47-9.5 29-3.8 58.7 1.2 88-5.7 10.4-1.4 19.2-8 29.8-9 23-3.3 47-3.7 69 5 12 2 24.3 7 36.6 3.7 17.6-4.3 36-2.4 54-1.2 19.5.8 34.8 15 53.8 18 .4 0 1.2-.4 1.7-.5 15-7.5 32-9.8 48-12h17.7v311H.7V139c3.6-.2 7-.4 10.6-.8 9.5-6 20.4-10.3 28-18.6l.5-.5c7-6.5 14.6-14 24.4-15.7 26.7-1 53-4 79.8-6.6 12.4-2.8 25 .5 37.7-2.4 10 0 18.6-4.8 27.8-7.5 9.4-1.4 19-1 28-2 2-.3 3.7-.8 5.5-1.4 13-4.6 27-7.2 39-13.5m600.7 84c1.8-1.8-2.4-3.4-3-1.5-2.8 1.6 2.8 4.2 3 1.4m-43 34.3c-.3 3 5 .2 3-1.8.8-1.5 1.2-3.2 1.8-4.8-1.8 2-3.3 4.2-4.6 6.6m23.2-4h-.7l-10.6.6-.4.3c-1.6-1.3-4.5 1-3.4 2.8l-1.7 1c3.3.4 6.6.4 10 .5l8.7 1V186c1.6-1.2-1.5-3.8-2.2-1.7"/>
      </g>
    </g>
  </g>
</svg>
