<svg xmlns="http://www.w3.org/2000/svg" width="3000" height="300" viewBox="0 0 3000 300">
  <title>
    bg-3000
  </title>
  <g id="Page-1" fill="none" fill-rule="evenodd">
    <g id="bg-3000" fill="#511">
      <g id="gr-551111">
        <path id="Shape" d="M1231.6 0h7.2c2 3 3.4 6.2 5 9.3.8-1.7 2-5.2 2.7-7 1.5 4.8 2 9.8 1.3 14.7l2.5-.5c2 0 2.7-2 3-3.7 2.4-2 5-5 8.7-4.7 3 .7 4.2 4 6 6-1.7-.6-3.3-1.2-5-2 .5-1.6-1.8-4.2-3-2-1.7 2.6-3.4 5.3-4.6 8.2.2 3 1.5 5.7 2.3 8.5l5 .3c-.4.6-1 1.8-1 2.3l-2 4.5c2 2 3.7 4 5.5 6-2 1.3-4 2.8-5.8 4.5.6 2.5 2 4.8 3.4 7l-1.5.7-4.6 3.7c1.7 1.3 3.3 2.7 5 3.8 2 1.4 4 1.2 6.3 1 .4 0 1 0 1.4-.2 1.2 0 2.2-.4 3-1.3 2.7 2 5.7.4 8.3-.8 1.3-.5 2.6-1.4 3.6-2.4l.8 1c.7 1.7 2.6 3 4.4 2 .4 0 1-.4 1.5-.5v-11l-1.7-.5c-1.3-.3-2.4.2-3 1.4-3.2-1-6.2-2.3-9-4l7-.5-2.2-3.4-7.5 1c3.3-3.4 7.7-6.2 9.6-11l.3-.2c.3 1.3 1 1.8 2.4 1.7l.7.2c2 .7 2.2-2 1.3-3.3V26c1.4 1 2.3-1.5 1-2.2l-1.6-1.6 8 1.4c0 1.4 0 2.8-.2 4.3 2.6.3 5.6.2 8 1.3 1.7 2.5 2 5.6 3 8.4-3.4 0-5.7-.2-8.8-.4l4 8c-4.5-1-10.8-.5-10.3 6 3.4-1 6.8-1.4 10.3-1.5l-.7 5c-2.2.5-1 3.5.8 1.6l4-3c1 3 1.6 6.2 2.4 9.3l-4.7 2c4.4 1.2 9 1 13.4 1.2V58l-4.3-1-.4-2.3 2-.8c0-2.3.3-4.6.6-7l-5.8 2 1-8c1-1 1.3-3.5-.7-3.5 3-6.6 11.7-3.5 17.3-4.6l-1.6-5c-.2-1.5-1.6-2.3-3-2l-8.8-.6c2-1.4 4.3-2.8 6.6-4 1.3 0 2.2-.5 2.5-1.8l4.3 2.4c-.6-3.3-3-8 1-10 1 1.8 3.4 1 3.2-.8 1 0 2 0 3-.2 2.6 5.3 4.5 11 4.5 17.2 3-2.8 6.3-6.3 10.8-6.4 2.5.4 4.5 2.4 6.6 4-3.4-.4-6.5-1-9.8-1.3-1 .8-1.7 1.6-2.5 2.4-1.5.5-.6 3 1 2.2v.7c-1.7.5-2 1.4-1.4 2.6 4.8 2 9.7 3.4 14.7 5l2.3-4 .4-2.3c-1.6-6.2-.8-12.6-.7-19 1.4.2 2-.5 2-2v-2c1.3.3 2-.2 2-1.5 5.8 3 12 5.5 15.6 11l10.8-.3c-2 6.8-5.7 13-6.6 20.3-1.6 0-2.2.8-1.7 2.3l2 6c.2 1.4 1 2 2.4 2 3.7 9 5.2 18.7 8.8 27.7 1.2 2.6 3 6.5 6.4 5l4.2-.8 1.8 5.4V87c2.8-4 6.4-7.6 9.5-11.6 1.7.8 3.5.2 4.8-.8 3.6-2.3 7.2-4.6 10.6-7.3l2 1c-.2 1.3.4 2 1.8 2.4 2.5.7 4.7 2.2 7 3.7 1.4 1.2 3.2 2 5.2 2.4l2.8.8c-.3 1.5 1.2 3 2.7 2.3 2-.5 4.2-.7 6.4-.5 0 2 2.4 3.4 3.5 1.5 0-.2.4-.6.5-.8 1.7-.6 3.3-1.3 4.8-2.2l.8-.2 2 2-3 10c2.3 1.5 4.5 3 6.8 4-.4 1.6 1.3 2.6 2.5 1.5 4.7-2 9.8-2.5 14.7-4 1.4 1.5 3.3 2 5.2 2 3.3.5 6.3 1.8 9.2 3.3-.3 2.3 2.4 4.8 4 2.4l.5-.5c1-1 1.4-2 1.3-3.5 2.2-1 4.2-2.6 5.8-4.4l2.8.3.3.7c1 2.8 3.4-1 1-2l2.3-4c4 0 7.8 0 11.7.2 1.3 0 2-.4 2.3-1.7 3 1 6 1.4 9 1 1.7.2 3.7 0 4.8-1.5l4 1c.8 1.3 2 1.6 3.2 1.2 6 2 12.4 3.3 18.6 4.7h2.5c1.2 0 2.4-.3 3.7-.5l1 2.2c2 1.7 4.3 3 7 2.5 2.2 0 1.2-3.2-.4-3.3l.6-5.2 4.7.5c1.2.3 2.6.3 3.8-.4l1.3 1.6c1.5 2 3-1.3 1.8-2.5l3.4-4.4c2.8 3 5.2 6 7.3 9.5-1 1.2-.8 2.3.2 3.2l2 1.7 2-2.8c.7 0 1.8.6 2.4 1v1c0 1.5.5 2.3 2 2.3 1.6 0 3.2-.2 5-.6V94c3.4-2 6.7-4 10.5-5.3 0-.7.2-1.5.4-2.2 1 0 2.2 0 3.2-.8l3-1.8-2.7-4.4 5.5-3.8 1 4.2c0 2 2.4.6 2.4-.8l3.2-1.8c1 1 3.8-.2 2-1.5-.7-1-1.5-1.5-2.3-2.3-.2-1.4-1-2-2.2-2l.8-7.6 6 .8c-.5-1.5-.8-3-1-4.5 2.4-2.3 3.8-5.4 4.7-8.6l9.3-2c1.3.5 3.8 0 3-2l6.2-.6.6 3.6 9.4-3.8c0 1.4 1 2.3 2.4 2.6 2 .8 4 1.5 6.3 2l.4 2.4c.3.2.6.7.8 1 .3 0 1 .4 1.2.5 1.3.3 2-.3 2.5-1.8l4.2-4.3.6 1.6v1c-1.5-.6-2.4 2-.7 2.2l1.3.7.6.4 1.3-2.5c1.5-.8 3-1.6 5-2.2l7.3-1.4c5-1.2 6.6 5.2 8.3 8.7L1731 59l-.8-.5c-1.4-1.4-3.3.5-2.5 2l.3 2.6 7-.3c2 .3 4.8-.5 4.3-3.2v-3l4.7-1c1 1.5 3 2 4.6 1.2l4.4 4.6c2-3 3.7-6.2 6-9 .8-.8 1.3-1.7 1.6-2.8.4 0 1.3 0 1.8.2 1.4.4 2.3 0 2.7-1.4l6.2 1.8c-.8 1.7.6 3.6 2.4 3.3 5 .7 9.3-2 14-2.7 4-.7 8-1.4 11.7-3 .2 1.4 1 1.8 2.2 1.4-.6 1.3-1.2 2.5-2 3.6-1 1 0 3 1.5 2h.6c1.3-.2 2.7-.2 4-1 .4 1.8.8 3.8 2.2 5.2 1.5-.2 3-.7 4.3-1 .8 2.5 1.4 5 2 7.7l4.8-2c-.7 1.7 1.6 1.8 2.4.8 3.7-3 8.3-2 12.6-1.4.2 1.4 1 2 2.4 2 3-.4 5.7-1.2 8.7-1.3 1.2 0 2-.5 2.2-1.8l.7-3.2c1 .2 2 0 2.8-1l.8 1.7 1.7 2 3 3c1 .8 2.3.8 3.5 0 3 2.5 7 4.5 7.8 8.7 0 2.4 3 3.2 4 .8.5 0 1.4.4 2 .5-1.4 3.5-2.2 7.3-2.6 11l4.6-1.4c.3 0 1-.4 1.4-.6l4.2-2.5c1.7-.8 2.6-2.6 2.6-4.4l1.7-.6c1.7 2.4 3.7 4.5 5.8 6.5v-3.2c-2-2-2.4-5.4-.3-7.5 3-3.7 6.5-6.8 9.4-10.6 2.5.7 5 1.4 7.4 2.4 1 1 2.7.7 3-.8 2-1 4.2-2.4 6.3-3.7l.8 6.6c0 2 2.5 1 2.5-.6 4-2.4 8.3-6.8 13.5-5-1.4.4-2.7 1-4 1.3l2 3.4-1.2.7c-1.3 1-1.2 1.8.3 2.4 1.4-1 3-2 4.5-3.2h2c0 1.3.5 2 2 2.4v2.3l7 .6c.2 1.6.6 3.3 1 5-.2 1.4 1.4 3 2.6 1.7l.3.6c0 1-.3 2-.4 3l3.2 5c-1.2.7-2 2-2.5 3.2l-.7 1.5 2.8.8c-.3 1.5.4 3 1 4.4v.4c.2 1.4 1.8 2.3 3.2 1.7 1.4 3.8-.6 7.6-1.7 11.2-1.5 2.6 1.7 4 3.8 3l1.6 1.5-7 .8v2c4 1 8 2.6 12 4 .8-5.2 2.2-10.7.4-15.7-.8-3-2.5-7 .6-9.2 5.2-4.4 8.8-10 12.3-15.8 1.2 1 2.8 0 4-.7 8-3.4 13-12 22-13.2.2 1.5 1 2 2.4 1.3 4.4-2 9.2-2.4 14-3 1 1.7 2.7 2.7 4.6 3l4 1.2 1.2-3c1.2.3 2.4.4 3.7.3v.5c-1 2.2 1.3 3.8 3.2 2.4 1 1.5 2.3 3 3.7 4.2 1 1.3 3 2 4.6 2.8 2.4 5.5 3 11.7 4.3 17.6-1.4.5-2.5 2.6-1 3.5 5.7 5.7 15 3.6 22.3 3.7 3-.2 4.2-3.4 5-5.8l-1-2.4c1.5-2 3-4.2 4.8-6.2l-1 6.5c3.8-3.8 8.4-7 14-7.3l-.3-2.8c3.5.4 7 1 10 3.3-.2 1.5.4 2.4 2 2.7l.3 6c5-.6 10 0 14.5 2.6-.8 1.7 1.5 3.3 2.7 1.8l3-2.3c-2-4.5-4.3-9-6.4-13.6l-.5-1-1.5-3.6 2.3 1.8c0 1.5.8 2.3 2.2 2.3h1c.2 1.3 2.8 2 2.7 0l5.7 1.5c-2-2-5-3.6-6.5-6.3-.4-3 .4-6.2.7-9.4-3.5-4-7-7.8-10.3-11.7 3 2.5 6.2 5 9.3 7.3-.2-4 .4-8-.6-12-1.5-3-3.4-5.8-5.2-8.5l7.4 7 3-3.5c-.5-2.4 0-4.8-.4-7.3.2-2.5-2.2-4-4.4-3.6l-5-5.2c3 1.7 6.3 3.4 9.5 5 .3-3 1.4-5.7 2-8.6.2 4.7.2 9.4.5 14 1.3-1.5 3-2.8 3.8-4.8 0-3.6-1-7.2-1.6-10.8 1.6 2.6 3.3 5.3 5.2 7.8l.5.6 1-1 2.2-4 1-1.3.7 5.5c3.3-2.4 5.6-6 6-10.2l.4-.6v8c1.8-.6 3.7-2.6 6-1.8 6 1.7 12 3 18.2 4l.7 3.7c-1.5 0-2 .8-2 2.2l.3 5 3.7-2.2c1 1 2.6 1.8 4 2.2l6.3 2c.5 8.2 2.8 16.8.3 25-1.4-.2-2.3.4-2.6 1.7l-1.7 4.8c2-.5 4.2-1 6.4-1.3h.6c-1.5 1-3 2.3-4.3 3.6l-.4 2h-3c-1.2-.2-3.5.8-2.6 2.3 2 5.4 8.3 2.2 12.3 1.5.4 1.4 1 2.8 1.3 4.3l5-2.3c.6.8 1.2 1.5 2 2.2 1.7 2.7 4.3-1 1-1.2l.2-.8 2.5-10.5c1.6 0 3-1.5 2.8-3.2.6 0 1.6-.3 2-.5 1.4-.2 2-1 2.2-2.3l.8-.2c1.6 0 3-1.2 3.2-3l4 .3c1.5-4 3.5-7.8 3-12 0-2-3-1.2-3.5 0l-3 3.6c-2-2-4.4-3.7-6.8-5-1.6-1-3.5-.8-5-.8l-.7-.8 5-1.6.2-1c2.8 2 6.3 2.8 9.8 2.6 0-5-.3-10.2-1.4-15.2-.2-1.4-1-2-2.3-1.8l-.2-2 3 .5.5-4.4 7.2 8.8 2-9.5c.4 1.5 1 4.8 1 6.5l9.4-5c1.6 3.3 4 6 6.3 9 0 1.4.6 2.2 2 2.2h3.2c-1-2.4-2.5-4.8-4-7.2.6 0 1.5.4 2 .6 1.2.6 2 0 2.2-1.3 1-3.6 1.8-7 2.5-10.8h4c1 0 2 0 3-.5.3 5.2 3 10 6.7 13.5l-1.6 2.4c-1 1.2-1 3 0 4.3-2.6 3-5.4 6.5-3.2 10.6 2.6-2.8 4.8-6 6.8-9 1.4.2 2.4-.5 2.8-2 5.5-2.5 11.5-4 17.6-4.7l.3 1.8-7 1.6c.6-1.6-1.8-2-2.3-.8l-3.8 3.6c-1-1.4-4.3-.3-2.6 1.2 2 2 4 4 5.3 6.3.4 1.2 1.3 1.8 2.6 1.7l5 3c-4-.6-8.2 0-12.4.2-.4-1.4-3.5-1.8-2.6 0l.3 1c.2 1.3 1.4 2.5 3 2.4l3 .5c0 1.4.5 2.2 1.8 2.5 1.3.4 2.7 1 4 1.3-.3 1.7 1.5 2.6 3 2.8l.4.3c-.5 1.3 0 2.2 1.2 2.8l.5.2c2 1.4 4 2.8 6.3 4.2l-.6 2.3c.7 0 1.4 0 2 .2 2 .4 3.4-.8 4.8-1.7h.6c0 .7 0 2-.2 2.6-2.7 1.4.7 4 1.4 1l1-1.8c1.3 2.7 2 6.8 5.5 7.5 3 1.2 5.7-1 7.7-3v-2.5l6.6-3c.7 1.7 4.4 1 3-.8-1.7-2-3.8-3.4-5-5.5-.5-3.7 0-7.4.4-11 2 0 3.2-1.7 4-3.4l2-1.8c2 .5 5-.5 4.5-3l-.8-5.3c-.2-1.5-1-2-2.4-1.7l-.3-1.2c4.3.6 6.2-2 5-5.3-1-4-2.3-7.6-3.2-11.4 2.5 1.4 5 3 7.6 4.2-1.7-4-3.3-8-4.6-12-.4-1.3-1.2-1.7-2.4-1.3l-.4-6.3c5 .3 10.3.7 15.3 1.8-1 2-1.6 3.7-2.4 5.7l5.4 3c1-2.6 2-5.3 3.2-7.7l.5 4.3c-1.4.2-2 1-1.8 2.2 0 1.4.3 2.7.5 4 0 1.6.8 2.3 2.3 2l.8 3.6 4.4-2.2c1.6-.4 3-2 2.7-3.7l5-3c-3 4-4 8.6-4.2 13 5.5-1 11-2.7 16.7-3 1-1 2-2 2.8-3.2 7.7 5.8 14 13.7 23 17.3l2.6 9.6 1 2.5c1.3 2.3 2.7 4.6 3.8 7 .2 1.3 2 2.6 3 1.3 2.4-2.5 5.3-4.2 8.7-4.8l2-4.3c1.5.3 3.4-.7 3.3-2.5l.2-1.6c.6 0 1.8 0 2.4.2 2-.7 4.3-1 6.6-1.4l-1.5-4c4-1 7.5-2.5 10.4-5 3 5.6 8.3 10.8 7.4 17.8 3.5-3.6 5.8-8 7.3-12.8l5.4 5c0 1.5.6 2.3 2 2.4h1c1-2.3 1.7-5.5 4-7.4 1.2.6 2.5 1.5 3.8 2.3-.3 1.5 2 3.2 2.4 1l.7-2 1.3-1c4-1.7 8.2-2.5 12-4.6l-.2 2.5c-.6 1.7 2 2.4 3 1 .2-.5 1-1.2 1.2-1.5.4-.4 1-1.3 1.5-1.7 1 1.7 1.7 3.3 2.5 5l6-2.5 1.2 2 3 5.8c2-.3 4-.6 6.2-.7.7 1.8 2.3 3.3 4.4 3.2l9.8.5c1 1.2 2.7 1.6 4.2 1 7.3 3 17 1 21.7-5.4 1.7-5.2-.4-10.5-1.5-15.7 5 1.4 8.4 5.7 12 9.4l1.8-3.6 1 1.4-1.2 10.8c3.7-2 7.4-3.8 11-5.5-2.6 3.6-5.4 7.3-7.7 11.3l11.8-3c-.7 1-1.5 2-2.3 2.8l-1 1.4-1-1.3c-.8-2.3-3.8-.2-2 1.4-.8.6-2.7 1.5-3.7 2-.5.3-1.5 1-2 1 4 .6 8.4 1.4 12.6 1.8-.2 2.6 3.8 3 2.8 0l-.7-5h2.7c4.2 1.8 8.6 3 13 3.8l-.8 1.7c-1 1-1.2 2.3-.7 3.5l.2.7c5-1.6 10-3.4 15-5.3-1.2-2.4-1.8-4.8-3-7.2-.3-1.3-1-1.7-2.3-1.3 1-3 2-6.3 2.8-9.5l.8-.4c0 1.2.6 2 2 2l5 1.6c.2-.7.2-2.2.3-3 0-1.4-.8-2-2.3-1.6l-2.6-6.5c-.3-1.3-1.2-1.8-2.4-1.3l-.7-2.8c2.5 1 5 2 7.5 2.7 3 .3 5.3-1.7 7.5-3.3 1-.6 1.6-1.4 2-2.5 2.6 2.4 4.6 5.3 6.6 8.3 1.7-2 3.5-3.8 5.3-5.7l4.6 2.3 2.2 1c-1 2.5-1.6 5-1.4 7.7 2.4 1 4-2 4-4 3-2.3 6.4-4.2 9.5-6.5 1.6-1 0-3.3-1.6-3.5l.2-.3 4-.8c.6 2.4 3.2.6 1.4-1v-.8c.6 0 1.7.3 2.3.4h1.6c0-2.3 0-4.7 1-7 2-2.2 6-3 8.4-.8.8 1.5 1 3.3 1.4 5l8 .8-1 5.6c-5 .3-10.4 4.6-9.2 10 1.5 2 3.4 3.5 5.3 5.2l2.5 3.4c-1.3.3-1.8 1-1.4 2.4.6 3.7 1 7.3 1.8 11l-3.8-3.3 1.6 4.6c.2 1.4 1 2 2.3 1.8l-.4 5.5h-1.8c-1.2-1.5-2.4-3-3.6-4.2 1 9 3 18 5 26.7l3.4-1.8c.4 0 1.2.5 1.7.8l-3.8 5.8 4-1.2c1-.3 1.7-1.2 1.8-2.6 1.5-2.7 2.7-5.5 3.5-8.5 1.4-.5 1.6-2.6 0-3V84c1.2 0 2-.8 2.4-2l5.8-.6 1.3-3.3c1-1.2-.4-3-1.6-2-.2-.6-.4-1-.5-1.7 5.4-1.7 5-7 4.8-11.4-5 1.4-10.3 2.4-15.6 2.5.7-3 1.6-6.2 2.6-9.2l3 5c.8 1.2 1.7 1.2 2.7 0l2-2c-1.6-1-3.2-2.2-4.6-3.4l2.7-.4 3.8 1.2.3-3.3c.2-1.5-.4-2.2-1.8-2-2.8.5-6 .6-7.8 3l-2.2-1c.8-1.5 1.7-3 2.4-4.6 1.8 0 3.2-1.3 3.5-3 .3-1.3.8-2.7 1.3-4 1.3 0 2.2-.5 2.7-1.7 1-1.6 1.8-3.2 3-4.8 0-.6.6-1.8 1-2.5l2.4-8.2-7-1.5c.2-1.4-.4-2.2-1.8-2.6-1.5-2-3-4-4.3-6h3.5l-4.6-4.8c2-1 4-1.7 6.2-2.4.6 1.5 1.4 1.8 2.6 1-.7-3.2-2.3-6-4-8.5h7.2c2 3 3.4 6.3 5 9.4.8-1.7 2-5.2 2.7-7 1.3 4.8 2 9.8 1.2 14.7.8 0 1.6-.2 2.5-.4 2 0 2.7-2 3-3.7 2.5-2.2 5-5.2 8.7-4.8 3 .6 4.2 3.8 5.8 6l-4.8-2c.4-1.7-2-4.3-3-2.2-1.8 2.7-3.5 5.4-4.7 8.3.2 3 1.5 5.7 2.3 8.5l5 .3c-.4.7-1 2-1 2.4l-2 4.5c2 1.8 3.7 3.8 5.5 5.8-2 1.4-4 3-5.8 4.6.6 2.5 2 4.8 3.4 7l-1.4.7-4.6 3.8c1.7 1.3 3.3 2.7 5.2 3.8 1.8 1.4 4 1.2 6.2 1 .4 0 1 0 1.4-.2 1.2 0 2.2-.4 3-1.3 2.7 2 5.7.5 8.3-.7 1.4-.5 2.6-1.4 3.7-2.4.2 0 .6.5.8.8.5 1.8 2.4 3.2 4.3 2 .4 0 1-.3 1.4-.4l.2-11c-.4 0-1.3-.4-1.8-.5-1.4-.4-2.4 0-3.2 1.3-3-1-6-2.3-8.8-4l7-.5c-.8-1-1.6-2.3-2.3-3.4l-7.6 1c3.3-3.4 7.7-6.2 9.6-11 0 0 0-.2.2-.2.3 1.2 1 1.7 2.4 1.6l.6.2c2 .8 2.2-2 1.3-3.2l-.2-2.6c1.5.8 2.4-1.6 1-2.3-.4-.5-1-1.3-1.5-1.7l8 1.4c-.2 1.4-.2 2.8-.3 4.3 2.5.4 5.6.3 8 1.4 1.7 2.5 2 5.6 3 8.4-3.8 0-5.6-.2-8.8-.4 1.3 2.7 2.5 5.3 4 8-4.5-1-10.8-.5-10.3 6 3.3-1 6.7-1.4 10.2-1.5l-.7 4.8c-2.2.6-1 3.6.8 1.7l4-3 2.3 9.3-4.7 2c4.3 1.2 8.8 1 13.3 1.2 0-2.6-.2-5.2 0-7.7l-4.4-1-.5-2.3 2-.7c0-2.3.2-4.6.6-7l-5.6 2 1-8c.8-1 1.3-3.5-.7-3.5 3-6.6 11.6-3.5 17.3-4.6l-1.6-5c-.2-1.6-1.7-2.4-3-2.2-2.8 0-6.3-.3-8.8-.5 2-1.4 4.3-2.8 6.6-4 1.3 0 2.2-.5 2.5-1.8l4.3 2.4c-.6-3.2-3-7.8 1-9.8 1 1.7 3.4 1 3.2-1h3c2.6 5.2 4.5 11 4.5 17 3-2.7 6.3-6.2 10.8-6.3 2.6.3 4.6 2.3 6.7 3.8-3.3-.3-6.5-.8-9.8-1.2-1 .8-1.7 1.6-2.5 2.4-1.6.6-.8 3 .8 2.3v.7c-1.6.6-2 1.5-1.3 2.7 4.8 2 9.8 3.4 14.8 5l2.3-4 .4-2.3c-1.6-6.2-.8-12.6-.7-19 1.4.2 2-.5 2-2v-2c1.2.3 2-.2 2-1.5 5.8 2.8 12 5.4 15.5 10.8 3.6 0 7 0 10.8-.2-2 6.8-5.8 13-6.6 20.3-1.6 0-2.2.7-1.7 2.2l1.8 6c.4 1.3 1.2 2 2.6 1.8 3.7 9 5.2 18.8 8.8 27.8 1.2 2.6 3 6.5 6.4 5l4.2-.8 1.8 5.5V87c2.8-4 6.4-7.5 9.5-11.5 1.6.8 3.4.2 4.7-.8 3.6-2.3 7.2-4.6 10.6-7.3l2 1c-.2 1.3.4 2 1.8 2.4 2.5.7 4.7 2.2 6.8 3.7 1.5 1.2 3.3 2 5.3 2.4l2.8.7c-.4 1.5 1.2 3 2.7 2.3 2-.4 4.3-.6 6.5-.4 0 2 2.4 3.4 3.5 1.5.2 0 .5-.5.6-.7 1.6-.6 3.3-1.3 4.8-2.2h.8c.5.4 1.4 1.5 1.8 2-.8 3.4-1.8 6.7-2.8 10 2.2 1.4 4.4 2.8 6.7 4-.5 1.5 1.2 2.5 2.4 1.4 4.7-2 9.8-2.6 14.7-4 1.5 1.5 3.4 2 5.3 2 3 .4 6.4 1 8.7 3.4l2.4 4.6c1 0 1.8 0 2.8-.2 5-1.4 5.8 4.4 7.5 7.6 1.2 3.4 4.7 5 7.6 6.5v184.4H.3V112.3l1.8 1.2 5.5-.2h1c1.4.2 2.3-.4 2.6-1.8 4-.2 7.8-.3 11.6-.6.3 1.3 1 2 2.5 1.5l4.3-1.2c2-.6 0-3-1.5-2.6l-.6-4.4c2.7-1.6 5.5-3.2 8-5.3l.4-.4c1-.8 1.3-1.8 1-3 2.2-1.2 4.2-2.8 6-4.6l2.6.4.3.7c1 3 3.3-1 1-2 .7-1.2 1.5-2.5 2.2-4 4 0 7.8 0 11.6.3 1.4.2 2-.3 2.3-1.6 3 1 6 1.4 9 1 1.7.2 3.7 0 4.8-1.5l4 1c.7 1.3 1.8 1.6 3 1.2 6.2 2 12.4 3.5 18.7 4.7l2.6.2 3.7-.6 1 2.2c2 1.7 4.3 3 7 2.5 2.2 0 1.2-3-.4-3.2 0-1.7.3-3.4.5-5 1.5 0 3 .2 4.7.4 1.3.3 2.7.3 4-.4l1.2 1.6c1.4 2 3-1.3 1.7-2.5 1.3-1.3 2.4-2.8 3.5-4.3 2.8 3 5.2 6 7.3 9.5-1 1.2-.8 2.3.2 3.2l2 1.7 2-2.7 2.4 1v1c-.2 1.6.4 2.4 1.8 2.4 1.7 0 3.2-.2 5-.6v-2.5c3.4-2 6.8-4.2 10.5-5.4 0-.6.3-1.4.4-2 1.3 0 2.4-.2 3.4-1 1-.5 2-1 3-1.7l-2.7-4.3 5.5-3.8 1 4.2c.2 2 2.6.6 2.5-.8l3.2-1.8c1 1 3.7-.2 2-1.5l-2.4-2.2c-.2-1.3-1-2-2.2-2l.7-7.5 6 .7-1-4.5c2.5-2.3 4-5.4 4.8-8.6 3-.5 6.2-1.2 9.3-2 1.4.6 4 0 3.2-2l6-.5.6 3.6c3-1.5 6-3.2 9.4-4 0 1.4 1 2.4 2.3 2.8 2 .8 4.2 1.6 6.3 2 0 .7.3 2 .4 2.5l.7 1 1 .4c1.4.3 2.2-.3 2.6-1.8l4.2-4.4.6 1.6v1c-1.5-.6-2.4 2-.7 2.2l1.3.7.7.5L236 53c1.6-1 3.3-1.7 5-2.3l7.4-1.4c5-1 6.6 5.3 8.3 8.8-.6.4-2 1-2.6 1.5l-.7-.6c-1.3-1.5-3.3.4-2.5 2l.3 2.5 7-.4c2 .4 5-.4 4.4-3v-3l4.7-1c1 1.4 3 1.8 4.7 1l4.4 4.7c2-3 3.8-6.2 6-9 1-.8 1.5-1.7 1.7-2.8h1.8c1.4.5 2.3 0 2.7-1.3l6 1.8c-.7 1.6.7 3.5 2.5 3.2 2.7.3 5.4 0 8-1 5.7-2 12-2.3 17.7-4.5.2 1.3 1 1.7 2.2 1.3-.6 1.3-1.2 2.5-2 3.6-1 1 0 3.2 1.5 2.2l.7-.2c1.3 0 2.8 0 4-1 .4 2 .8 4 2.2 5.3 1.4-.2 2.8-.7 4.2-1l2 7.7c1.5-.7 3-1.4 4.7-2-.7 1.7 1.5 1.8 2.3.8 3.7-3 8.3-2 12.6-1.4 0 1.5 1 2.2 2.3 2.2 3-.5 5.7-1.3 8.7-1.4 1.3 0 2-.5 2.3-1.8l.7-3c1 0 2-.2 3-1 0 .4.5 1.2.7 1.6l1.7 2 3 3c1 .8 2.3.8 3.5 0 3 2.5 7 4.5 7.7 8.7 0 2.4 3 3.2 4 .8.5 0 1.4.4 2 .5-1.5 3.5-2.2 7.3-2.6 11l4.7-1.4 1.4-.7 4.3-2.6c1.7-.7 2.6-2.5 2.6-4.3.5 0 1-.3 1.6-.5 1.7 2.4 3.7 4.5 5.8 6.5v-3.2c-1.6-1.6-2.4-4-1.2-6.2 3-4.5 7-7.7 10.3-12 2.5.8 5 1.5 7.4 2.5 1 1.2 2.7.8 2.8-.7 2.2-1 4.3-2.4 6.4-3.7l.7 6.5c-.2 2.2 2.4 1 2.4-.5 4-2.4 8.2-6.8 13.4-5-1.3.4-2.7 1-4 1.3l2 3.4-1.2.7c-1.2 1-1 1.7.3 2.3 1.5-1 3-2 4.5-3.2h2c0 1.4.5 2.2 2 2.5v2.3l7 .6 1 5c0 1.5 1.4 3 2.7 1.8 0 .2 0 .5.2.6 0 1-.3 2-.5 3 1 1.6 2.3 3.3 3.3 5-1.2.7-2 2-2.5 3.2-.2.4-.6 1-.7 1.5l3 .8c-.3 1.5.3 3 1 4.4v.4c.2 1.5 1.8 2.4 3.2 2 1.2 3.7-.6 7.4-1.7 11-1.4 2.6 1.8 4 4 3 .3.5 1 1.3 1.4 1.6l-7 .8v1.8c4 1 8 2.7 11.8 4 .8-3.7 1.4-7.5 1.4-11.3-.2-4-2.5-7.6-2-11.5 1.7-2.6 4.2-4.4 6.3-6.7 3.2-3.3 5-7.6 7.7-11.3 1.3 1 3 0 4-.7 4.4-2.5 8.7-5.2 12.4-9 2.5-2.7 6.4-3 9.8-4.3.3 1.4 1 1.8 2.5 1.2 4.3-2 9-2.4 13.8-3 1 1.7 2.8 2.7 4.7 3l4 1.2 1.2-3c1.2.2 2.4.3 3.6.2v.5c-.8 2.2 1.4 3.8 3.3 2.4 1 1.6 2.3 3 3.7 4.3 1.3 1.4 3 2 4.8 2.8 3 5.6 3.2 11.8 4.5 17.8-1.4.5-2.2 2.5-1 3.5l3.7 4c6.7 0 13.4 0 20-.6 2-1.2 2.8-3.3 3.4-5.4l-1-2.3c1.6-2 3.2-4.2 5-6.2l-1.2 6.5c3.8-3.7 8.4-7 14-7.2-.2-.8-.3-1.8-.3-2.7 3.6.5 7.2 1 10 3.4 0 1.5.6 2.4 2 2.7l.4 6c5-2 10 .7 14.5 2.6-.8 1.7 1.4 3.3 2.7 1.8l3-2.2-6.3-13.8-.5-1-1.6-3.6 2.3 1.8c0 1.5.7 2.3 2 2.3h1c.4 1.4 3 2 2.8 0l6 1.5c-2.2-2-4.5-3.6-6.8-5.2l.8-11c-3.5-3.7-6.8-7.5-10-11.4l9.3 7.2v-9c0-4.5-3.6-7.8-5.7-11.5 2.4 2 4.7 4.5 7 6.8l3.7-3.2-.7-7.5c.3-2.4-2-4-4.4-3.5-1.6-1.8-3.4-3.4-5-5l9.8 5c.6-3 1.2-5.8 2-8.7 0 4.7 0 9.3.3 14 1.4-1.5 3.2-2.8 3.8-4.8.2-3.6-1-7.2-1.6-10.8l5 7.8.6.6 1-1 2.2-4 1-1.3.8 5.4c3.4-2.5 5.4-6 6-10.3l.4-.6v9c1.5-1 2.8-2.3 4-3.4 6.3 3 13.3 3.4 20 4.8l.7 3.8c-1.3 0-2 .8-1.8 2.2v5l3.7-2c1.2 1 2.7 1.5 4.2 2 2.3 1 5.7 1.4 6.5 4.2 1.7 7.5 1.5 15.4-.3 23-1.3-.4-2.2 0-2.5 1.4l-1.8 5c2-.6 4.2-1 6.3-1.4h.6c-1.6 1-3 2.3-4.4 3.6l-.4 2h-3c-1-.2-3.4.8-2.6 2.3 2 5.3 8.3 2 12.3 1.4L718 89l5-2.3 2 2.2c1.7 2.6 4.3-1 1-1.3l.2-.8 2.5-10.6c1.6 0 3-1.5 2.8-3.2.5 0 1.5-.3 2-.5 1.3-.2 2-1 2-2.3l1-.2c1.5 0 3-1.2 3-3 1.4 0 2.8.2 4 .3 1.5-4 3.5-7.8 3-12 0-2-3-1.2-3.5 0l-3 3.5c-2-2-4.4-3.6-7-5-1.4-1-3.2-.7-5-.7 0-.2-.3-.6-.5-.8l5-1.6c0-.5.3-1.3.4-1.7 1.3 1 2.7 2.3 4 3.5l5.7-1c-.3-5-1-9.7-1.7-14.5 0-1.4-.8-2-2.2-1.8v-2l3 .5c0-1.4.3-3 .4-4.3 2.5 2.8 4.8 5.8 7.2 8.8.5-3.2 1.3-6.3 2-9.4l1 6.6 9.4-5c1.6 3.2 4 6 6.3 8.8 0 1.5.7 2.3 2 2.3h3.4c-1.2-2.4-2.6-4.8-4-7.2.5 0 1.4.4 1.8.6 1.3.6 2 0 2.4-1.3 1-3.6 1.8-7 2.4-10.8h4c1 0 2 0 3-.5.4 5.2 3 10 6.8 13.5l-1.6 2.4c-1 1.2-1.2 3 0 4.3-2.7 3-5.5 6.5-3.3 10.6 2.6-2.8 4.8-6 6.8-9 1.6.2 2.5-.5 3-2 5.4-2.5 11.4-4 17.5-4.7l.3 1.8-7 1.6c.6-1.6-1.7-2-2.3-.8l-3.8 3.6c-1-1.4-4.3-.3-2.6 1.2 2 2 4 4 5.4 6.3.5 1.2 1.4 1.8 2.7 1.7l5.2 3c-4.2-.6-8.3 0-12.5.2-.4-1.4-3.5-1.8-2.6 0l.4 1c.3 1.3 1.5 2.5 3 2.4l3 .5c0 1.4.7 2.2 2 2.5 1.3.4 2.6 1 4 1.3-.4 1.7 1.4 2.6 3 2.8l.4.3c-.5 1.3 0 2.2 1.2 2.7l.5.2c2 1.4 4 3 6.2 4.3l.2 2.2h1.4c1.8.5 3.3-.7 4.7-1.5h.7l-.3 2.5c-2.6 1.4.7 4 1.4 1l1-1.8c1.4 2.7 2 6.8 5.5 7.5 3 1.2 5.8-1 7.7-3v-2.5l6.5-3c.8 1.7 4.4 1 3-.8-1.7-2-3.7-3.5-5-5.6-.7-3.7.2-7.5.4-11.2 2 0 3-1.7 4-3.4l1.8-2c2 .6 5-.4 4.6-3l-.7-5.2c-.2-1.4-1-2-2.4-1.6 0-.4-.3-1-.4-1.4l5.2-1.8c-.2-5-2.5-9.8-3.4-14.8 2.5 1.4 5 3 7.6 4.2-1.6-4-3.2-8-4.5-12-.5-1.3-1.3-1.7-2.5-1.3l-.4-6.4c5.2.4 10.4.8 15.4 2L868 17l5.5 3c1-2.6 2-5.2 3.2-7.7l.5 4.3c-1.4 0-2 .8-1.8 2l.6 4c0 1.7.8 2.4 2.3 2.2l.8 3.5 4.5-2.2c1.6-.4 3-2 2.7-3.7l5-2.8c-3 3.8-4 8.5-4.2 13 5.5-1 11-2.8 16.7-3 1-1 2-2.2 2.8-3.3 7.7 5.8 14 13.7 23 17.3l2.6 9.5 1 2.5c1.5 2.2 2.8 4.5 4 7 .2 1.2 1.8 2.5 3 1.2 2.3-2.5 5.2-4.2 8.6-4.8.6-1.4 1.2-3 2-4.3 1.5.2 3.4-.8 3.3-2.6v-1.6h2.5c2.2-.6 4.4-1 6.6-1.3l-1.4-4c3.8-1 7.4-2.5 10.3-5 2.8 5.6 8.2 10.8 7.3 17.8 3.5-3.6 5.8-8 7.3-12.8l5.3 5c0 1.5.5 2.3 2 2.4h1.2c1-2.7 2-5.4 3.2-8 1.6.7 3 2 4 3.3.4 1.3 2.6 2 2.7.2l.6-2 1.4-1c4-1.5 8.2-2.3 12-4.4v2.6c-.7 1.8 2 2.5 2.8 1l1.4-1.4c.4-.4 1-1.3 1.5-1.7l2.4 5 6-2.5 1.3 2 3 5.8c2-.4 4-.7 6.2-.8.8 1.8 2.4 3.3 4.5 3.2l9.7.5c1 1.2 2.7 1.6 4.2 1 6.7 3 14.5 1.2 20-3.3 5.3-4.6.4-12 0-17.7 5 1.6 8.4 5.8 12 9.5l1.8-3.6 1 1.4-1.2 10.8c3.6-2 7.3-3.8 11-5.5-2.7 3.6-5.5 7.3-7.8 11.2l11.8-3-2.4 2.8-1 1.4c-.2-.3-.6-1-1-1.3-.8-2.3-3.8-.2-2 1.4l-3.6 2-2 1c4.2.7 8.4 1.4 12.5 1.8 0 2.6 4 2.8 3 0-.4-1.7-.6-3.4-.7-5.2l2.7.2c4.2 1.7 8.6 3 13 3.7l-.8 1.7c-1 1-1 2.3-.7 3.5l.3.7c5-1.5 9.8-3.3 14.7-5l-2.7-7.3c-.3-1.4-1-1.8-2.3-1.4l3-9.5.7-.3c0 1.2.7 2 2 2l5.2 1.6c0-.7 0-2.2.2-3 0-1.3-.7-2-2.2-1.6l-2.6-6.5c-.4-1.3-1.3-1.8-2.5-1.3l-.6-3c2.5 1 5 2.2 7.6 2.8 3 .4 5.3-1.6 7.5-3.2 1-.6 1.6-1.4 2-2.5 2.6 2.5 4.6 5.4 6.6 8.4l5.3-5.7 4.7 2.3c.5.2 1.6.6 2.2 1-1 2.4-1.6 5-1.4 7.6 2.6 1.3 3.8-2 4-4 2.6-3 6.2-4.5 9.5-6.6 2-1 0-3.3-1.4-3.4l.2-.3 4-.8c.6 2.4 3.2.6 1.4-1v-.8l2.2.4 1.6.2c.2-3.4 0-8.5 4.4-9 4-1.5 6.5 2.5 6.4 6l8 1-1 5.5c-5 .3-10.4 4.6-9.3 10 1.5 2 3.4 3.5 5.3 5.2 1 1 1.8 2 2.6 3.3-1.3.3-1.8 1-1.5 2.3.4 3.7 1 7.3 1.7 11-1.3-1-2.5-2-3.7-3.2l1.6 4.6c.2 1.3 1 2 2.2 1.8 0 2-.3 4-.5 6l-5.3-4.7c1.5 9 3.2 17.8 5 26.7l3.4-1.8c.5 0 1.3.5 1.7.8l-3.8 5.8 3.8-1.2c1.2-.3 2-1.2 2-2.6 1.4-2.7 2.6-5.5 3.4-8.5 1.5-.5 1.6-2.6 0-3V84c1.3 0 2-.8 2.3-2 1.4-.3 4.3-.6 5.7-.7l1.4-3c1-1-.3-3-1.6-2l-.5-1.7c5.4-1.7 5-7 4.8-11.4-5 1.4-10.3 2.4-15.6 2.5.8-3 1.6-6.2 2.6-9.2l3 5c.8 1.2 1.7 1.2 2.7 0l2-2c-1.6-1-3.2-2.2-4.6-3.4.6-.2 2-.3 2.6-.4l3.8 1.2.4-3.2c.2-1.4-.4-2-1.8-2l-6.5.6-1.3 2.6-2-1 2.2-5c1.7.3 3-1 3.4-2.8l1.4-4c1.3 0 2.2-.5 2.7-1.7 1-1.6 1.8-3.2 3-4.8 0-.6.6-1.8 1-2.5l2.4-8.2-7-1.5c.2-1.4-.5-2.2-2-2.6l-4.2-6h3.5l-4.6-4.8c2-1 4-1.7 6.2-2.4.5 1.5 1.4 1.8 2.5 1-.7-3.2-2.3-6-4-8.5m-365 14.4c-1 1 .8 3.3 2 2.2 1.3-1.2-.7-3.3-2-2.2m1474.6 0c-1 1 .8 3.3 2 2.2 1.3-1.2-.7-3.3-2-2.2M1290.6 32.6c-1.3 1.3 1 3.3 2 2 1.4-1.4-1-3.3-2-2m1474.5 0c-1.3 1.3 1 3.3 2 2 1.4-1.4-1-3.3-2-2M897.6 35c-1.5 1.7 2.2 3 2 .8 1.5-1.6-2-3-2-.7M2372 35c-1.4 1.7 2.3 3 2.2.8 1.4-1.6-2.3-3-2-.7m-1059.7 3c-2 0-2.4.6-1.5 2.3l-1.5 1.4c2.4-.4 4.8-1 7.2-1.7l-1.5-4.7c-1 1-2 1.7-2.7 2.7M2787 38c-2 0-2.4.6-1.5 2.3l-1.5 1.4c2.4-.4 4.8-1 7.2-1.7l-1.5-4.7c-1 1-2 1.7-2.7 2.7M860.6 40c1.4 3.7 4.7-2.3 1-1.8-1.3-1.5-3 1.7-1 2M2335 40c1.5 3.5 4.8-2.5 1-2-1.3-1.5-3 1.7-1 2M758.7 44.6l-.5 7.8-1.6 1-3 3.4 1.6 1.7c-2 4-.6 8.7 2.2 12-2 .5.4 3.5 1.3 1.7.7-2 3.2-4 1.7-6.3-1-2-2.3-4-3.5-5.8l3-1.4c2-.8-.6-3.7-1.8-2l-.6-1c.4 0 1-.3 1.4-.4 2-2 4-4.2 6.3-6L763 41l-1 1.2c-1.4-1.4-4.3.4-3.2 2m1474.6 0c-.3 2.6-.4 5.3-.5 8-.4 0-1.3.6-1.7.8-1 1-2 2.3-3 3.5l1.6 1.8c-2 4-.6 8.7 2.2 12-2 .5.3 3.5 1.3 1.7.8-2 3.3-4 1.8-6.3-1-2-2.3-4-3.5-6l3-1.4c2-.8-.6-3.7-1.8-2l-.5-1c.4 0 1-.3 1.4-.4 2-2 4-4.2 6.3-6l-2.3-8.2-1 1.2c-1.4-1.4-4.3.4-3.2 2m-1052.7-1.7l.7.4-1.7 4.5 4-.7c.7-1.4 1-2.7 1.7-4.2-1.6 0-3 0-4.6-.2m1474.5 0l.8.4-1.7 4.6 4.2-.7 1.6-4.2c-1.6 0-3 0-4.6-.2m-1309.5 6v4c1.5 0 4.7-.5 6.3-.6-.3-.4-1-1-1.3-1.5 1.2-1 1-2-.4-2.7l.5-1c-1.4.2-2.8.4-4.2.8-.5-2.6-3.7.8-1 1m1474.5 0v4c1.6 0 5-.5 6.5-.6-.3-.4-1-1-1.3-1.5 1.2-1 1-2-.4-2.7l.5-1c-1.5.2-3 .4-4.3.8-.5-2.6-3.8.8-1 1m-1637.5-2c-.5 3.2.6 5.8 3.8 6.7l.4-4c-.4-1.7-1.3-2-2.5-1-.4-.3-1.3-1-1.7-1.5m1474.5 0c-.5 3 .6 5.7 3.8 6.6l.4-4c-.4-1.6-1.3-1.8-2.5-.8l-1.7-1.6M765.6 53.8c2.4-.2.4-4-1-2-2.8-.2-.2 4.5 1 2m1474.6 0c2.4-.2.3-4-1-2-3-.2-.2 4.5 1 2m-1452.6 0c-1.7.3-1 3 .7 2.6 1.6-.3.8-3-.7-2.6m1474.5 0c-1.6.3-.8 3 .8 2.6 1.6-.3.8-3-.7-2.6M305 54.6l-1 2.3c.3.4 1 1.3 1.2 1.8l-.5.6c-2.3 1.3 2.2 3.6 2 1l.5-1c1.6 1.3 4-1.4 2.5-2.8l.6-.4-5-1.6m1474.4 0l-1 2.3c.3.4 1 1.3 1.2 1.8l-.5.6c-2.3 1.3 2.2 3.6 2 1l.6-1c1.6 1.3 3.8-1.4 2.5-2.8l.7-.4-5.2-1.6M649 59.6c-1.7 1.3 1.5 3.2 1.8 1 2.6-1-2-3.8-2-1m1474.6 0c-1.6 1.3 1.6 3.2 2 1 2.5-1-2-3.8-2-1M1175.7 62c2.5-.8-.5-4.3-1.8-2.2-3 .5.7 5 1.7 2.2m1474.5 0c2.4-.8-.5-4.3-1.8-2.2-3 .5.7 5 1.8 2.2M650 63.3l-.2 3 3 .3-.8-4.3v.8l-2 .4m669.7-.5c-1.5 1 .2 3.4 1.6 2.3 1.5-1-.2-3.5-1.6-2.4m3.5 4.6l4.3-1.2v-4l-4.3 5.2m801.7-4.2l-.2 3 3 .3-.8-4.3v.8l-2 .3m669.7-.5c-1.5 1 0 3.5 1.6 2.4 1.4-1-.2-3.5-1.6-2.4m3.5 4.7l4.3-1.2v-4l-4.3 5.2M253 66.2c-1.2.8 0 3 1.3 2 1.2-1-.2-3-1.3-2m1474.5 0c-1.2.8 0 3 1.3 2 1.2-1-.2-3-1.3-2M798.8 71c0 2.4 4.8 2.3 4.8 0-.3-1.5-.6-3-1-4.2-1.3 1.3-2.7 2.6-3.8 4.2m1474.5 0c0 2.4 4.8 2.3 4.8 0l-.8-4.2c-1.4 1.3-3 2.6-4 4.2M421 68.6c.6 2.2 1 4.5 1.7 6.6 1.2-2 2-4.3 3-6.5H421m1474.5 0c.6 2 1 4.4 1.7 6.5 1.2-2 2-4.3 2.8-6.5h-4.6M741.8 69c1.6 6-.4 11.8.4 17.6l-1 2.5h-.8c-1.2 1.6 2.2 2.8 2 1 .5 0 1 .6 1.5.8-.7-7.4 4-14 3.5-21-1.4 0-4.3-.5-5.7-.7m364.8 2.2l-.6-.2c.6 1.4 1.2 2.7 2 4l4.6-2.4c0 1 .3 2.4.4 3.3.5-2.2.8-4.5 1-6.8l-7.5 2m1109.7-2c1.5 5.7-.4 11.6.4 17.4l-1 2.5h-.8c-1.2 1.6 2 2.8 2 1 .4 0 1.2.6 1.5.8-.6-7.4 4-14 3.6-21-1.5 0-4.4-.5-5.8-.7m364.8 2.2l-.6-.2c.6 1.4 1.2 2.7 2 4l4.6-2.4c0 1 .3 2.4.4 3.3.5-2.2.8-4.5 1-6.8l-7.4 2M1131.5 73c-1.4.8 0 3 1.4 2 1.3-.8-.2-3-1.5-2m7 .7l.6.6c-1.2.7-1 3 .3 3.6-.3.3-1 1-1.2 1.4l5.5-1.2-.4 1.7c-3 1-5 3.5-6 6.6-.4 2 3.5 1.6 3-.2h1.7c-.2 2 4 2.3 4 .3l6.6 1c1-2.5 2.2-4.8 3.3-7.2L1148 84c1-3.7 2.4-7 4.4-10l-4.2.5.6-.8-4.5 1.7.8-3-6.6 1.4M2606 73c-1.5 1 0 3 1.3 2 1.4-.7 0-3-1.4-2m6.8.8l.7.6c-1.3.7-1 3 .2 3.6-.3.4-1 1-1.2 1.5l5.4-1.2-.5 1.7c-3 1-5.2 3.6-6.2 6.7-.3 2 3.6 1.6 3.2-.2h1.6c0 2 4 2.3 4 .3l6.7 1c1-2.5 2.2-4.8 3.3-7.2l-7.7 3.4c1-3.6 2.5-7 4.5-10l-4.2.6.6-.8-4.5 1.7.8-3-6.7 1.4M739.5 76c-1.3-1.2-3.6 1-2.4 2.3l-5.3 3c1.5 2 3.4 4 5.4 5.8 2.2-4.2 3.8-8.6 4-13.2l-1.5 2.2m20.3-2l-1 7.4 3.7 1.4-.6-6.2c.3-1.7-.3-2.3-2-2l-.2-.6m1454.6 2c-1.3-1.2-3.7.8-2.4 2.2l-5.4 3c1.5 2 3.4 4 5.4 5.8 2-4.2 3.7-8.6 4-13.2l-1.6 2m20.4-1.8l-1 7.3 3.7 1.4-.6-6.3c.3-1.7-.3-2.3-2-2l-.2-.6M1128 76c-1.5 0-1.7 2.7 0 2.7 1.6 0 1.7-2.7 0-2.7m1474.6 0c-1.7 0-1.8 2.7 0 2.7 1.5 0 1.6-2.7 0-2.7M1200 81.5c2 .4 3.8 1 5.7 1 .6 2.8 3.6-1 1-1l.3-3.4c.5-1.6-2.5-2.3-3.3-1-2.7-2.2-2.6 3-3.6 4.5m1474.6 0c1.8.4 3.7 1 5.6 1 .6 2.8 3.6-1 1-1l.3-3.4c.4-1.6-2.6-2.3-3.3-1-2.8-2.2-2.7 3-3.6 4.5m-2435.2-3c-2.6 1.2 2 4 2 1 1.5-1.3-1.8-3-2-1m1474.5 0c-2.7 1.2 2 4 1.8 1 1.6-1.3-1.7-3-2-1M564.4 81.8c-1.5 1 .2 3.5 1.6 2.4 1.4-1-.3-3.5-1.7-2.4m1474.5 0c-1.5 1 0 3.5 1.6 2.4 1.5-1-.2-3.5-1.6-2.4m-1339.5 1c-1.5-.5-2.6 2-1 2.5s2.7-2 1-2.5m456.8 5c-1.3-2-3.8 1.4-1.6 2-1 1.3-2.2 2.5-3.3 3.6-2.2-1.2-4.8-2.2-7.2-3-.8.7-1.6 1.5-2.3 2.4 2.4 2.2 4.5 4.7 4.6 8 1.7.4 3.3.7 5 .7l2.4 1c1.8 3 5.7 2.5 9 2.4.4 2.4 3.6-1 1-1.3 0-3 0-5.8-.2-8.7-1.5 1.5-3 3-4.3 4.7l-.8-3.2c1.6-.5 1.8-1.5.6-2.7 2.5-3.4 1.8-7.8 1.8-11.7-1.6 2-3.2 3.8-4.4 5.8m1017.7-5c-1.6-.4-2.7 2-1 2.6 1.4.5 2.5-2 1-2.5m456.7 4.8c-1.4-1.8-4 1.5-1.7 2.2l-3.3 3.5c-2.3-1.2-5-2.2-7.3-3-.8.7-1.6 1.5-2.3 2.4 2.5 2 4.6 4.6 4.7 8 1.6.3 3.2.6 4.8.6l2.5 1c1.8 3 5.5 2.4 9 2.4.4 2.5 3.5-1 1-1.2 0-3 0-5.8-.2-8.7l-4.3 4.8-.7-3.2c1.6-.5 1.8-1.5.6-2.7 2.5-3.5 1.8-8 1.8-11.8-1.6 1.8-3.2 3.7-4.4 5.7M644.5 83.2L649 94l5-2.3c-2.5-3.5-5.6-6.6-9.6-8.4m1474.5 0c1.2 3.6 2.8 7.2 4.3 10.8l5-2.3c-2.4-3.5-5.5-6.6-9.5-8.4m-920.7 1l.2 3.4 7.7 1c-2-2.7-5-3.5-8-4.3m1474.6 0v3.3l7.8 1c-1.8-2.7-5-3.5-7.8-4.3m-1943.3 4c2 1.7 3.4-3 .8-2.7-1.8-1.2-3 3-.7 2.8m1474.5 0c2 1.6 3.4-3 .8-2.8-2-1.2-3 3-.8 2.8M702.3 86.2l-1.4 4.5 4.6-2.3c-1-.7-2.3-1.4-3.3-2.2m1474.5 0l-1.4 4.5 4.7-2.3-3.2-2.2m-1428.5 8c-2 1.7-4.7 2.7-6.8 4.5h-.7 12-1c1.5-4 2.3-8 .8-11.8-1.6 2.2-2.7 5-4.4 7m1475.5-1.6c-1.6 3.2-5.5 4-8 6.2h-.7 12-.8c1.4-4 2.2-8 .7-11.8-1.3 1.8-2.3 3.6-3.4 5.5m-1098.7-2c-.3 2 3.4.8 2-.7 0-2-3.5-.8-2 .7m1474.4 0c-.2 2 3.5.8 2-.7.2-2-3.4-.8-2 .7M729 90c0 1.6 0 3.4.2 5 1.2-1 4-1 3.7-3-1.3-1-2.6-1.5-4-2m1474.6 0v5c1.3-1 4-1 3.8-3-1.3-1-2.5-1.5-3.8-2M603 95.5c2.5 1 2.5-3.7 0-3-2.3-1-2.4 3.8 0 3m1474.6 0c2.4 1 2.4-3.7 0-3-2.5-1-2.5 3.8 0 3M630 93.6c-1.8.3-1.2 3.5.8 2.8 2-.4 1.3-3.6-.7-3m222 .5c-1.6 1.2-2.8 3-3.6 4.7 1.8-.7 3.6-1.4 5.4-2.3l-1-1.2c2.7.3.2-3.7-.8-1.4m1252.6-.4c-2 .4-1.3 3.6.7 3 2-.5 1.3-3.7-.7-3m222 .4c-1.7 1.3-3 3-3.7 4.8 1.7-.7 3.5-1.4 5.3-2.3l-1-1.2c2.7.4.2-3.6-.8-1.3M635 95.7c-1 1.4 1.2 3.4 2.4 2 1.2-1.2-1-3-2.3-2m1474.6 0c-1.2 1.4 1 3.4 2.3 2 1-1.2-1.2-3-2.4-2M468 113.5c-1.2 1.2 1 3.4 2 2 1.4-1.4-.7-3.4-2-2m1474.7 0c-1.3 1.2.8 3.4 2 2 1.3-1.4-.8-3.4-2-2M1224.6 13c1.3.7 1.3 1.4 0 2-1.3-.7-1.3-1.3 0-2M2699 13c1.4.7 1.4 1.4 0 2-1.2-.7-1.2-1.3 0-2M853.7 20.4c1.5 0 1.4 2.4 0 2.4-1.5 0-1.4-2.3 0-2.4M2328.2 20.4c1.5 0 1.4 2.4 0 2.4-1.5 0-1.4-2.3 0-2.4M1228.6 24c3.3.8 7 1 9 4-1 0-2.8-.4-3.8-.5-1-.3-2.3-.5-3.4-.4l-2-3M2703 24c3.3.8 7.2 1 9.2 4-1 0-3-.4-4-.5-1-.3-2.2-.5-3.3-.4-.8-1-1.4-2-2-3M665.8 28l.8-.3c0 .7.4 2 .5 2.7l-.6.2c0-.7-.4-2-.5-2.7"/>
        <path id="Shape" d="M1275.6 29.4c1.7-.4 5-1 6.6-1.5-2.3 1.3-4.7 2.5-7 4l-1.7-2c.5 0 1.6-.5 2-.7M2140.3 28l.8-.3.6 2.7-.7.2-.6-2.7M2750 29.4c1.8-.4 5-1 6.7-1.5-2.3 1.3-4.8 2.5-7 4l-1.7-2c.5 0 1.6-.5 2-.7M1228.6 34c2.2-1.3 4.5-2.4 6.8-3.5V34c-1.6 0-3.2.3-4.7.3-.5 0-1.6-.4-2-.5M2703 34c2.3-1.3 4.6-2.4 7-3.5l-.2 3.4c-1.5 0-3 .3-4.6.3-.5 0-1.6-.4-2-.5M1179.6 32c1.3.6 1.3 1.3 0 2-1.3-.8-1.3-1.4 0-2M2654 32c1.4.6 1.4 1.3 0 2-1.2-.8-1.2-1.4 0-2M1226.6 35.5l.2-.6.4 1.2 1.2 3.6c-1.3-.4-3-.3-4 .7-1.5 1-3 2.5-4.6 3.5-2.7 0-5.3-1-7.8-2v-3.3l12.3-1.7c1 0 2-.5 2.2-1.5M2701 35.5l.3-.6.4 1.2 1.2 3.6c-1.5-.4-3-.3-4 .7-1.6 1-3 2.5-4.6 3.5-2.7 0-5.3-1-7.8-2v-3.3l12.3-1.7c1 0 1.7-.5 2-1.5M1114.6 38c1.8.4.5 3-1 2.6-1.8-.5-.6-3.2 1-2.7M2589 38c2 .4.6 3-1 2.6-2-.5-.6-3.2 1-2.7M1269.6 43c-.7 3-5-1.2-2-2 .3 1 1 1.6 2 2M2744 43c-.6 3-5-1.2-1.7-2 .2 1 .8 1.6 1.8 2M1109.6 41.8c1.6-.7 2.5 2 .8 2.4-1.6.7-2.5-2-.8-2.4M2584 41.8c1.6-.7 2.6 2 1 2.4-1.7.7-2.6-2-1-2.4M1139.6 44c4-1-1 3.8 0 0M2614 44c4-1-.8 3.8 0 0M1106.6 45c1.6-.6 2.2 0 1.7 1.5-1.6.5-2.2 0-1.7-1.6M2581 45c1.7-.6 2.3 0 1.8 1.5-1.7.5-2.2 0-1.7-1.6M335 51.8c2.6 0 5 1.4 6 4-1.3-.4-2.4-1-3.5-1.7-.3-1-1-1.6-2-2l-.7-.2M1809.4 51.8c2.7 0 5 1.4 6 4-1.2-.4-2.3-1-3.4-1.7-.3-1-1-1.6-2-2l-.7-.2M735.8 58.6c-1.7 2.8-4-2.5-.7-1.3l.8 1.3M2210.3 58.6c-1.7 2.8-4-2.5-.7-1.3l.7 1.3M721.8 70.8l1.8-1.2.6.4c.2 1.3-.4 2-1.6 1.8l-.7-1M2196.3 70.8c.4-.3 1.3-1 1.8-1.2l.7.4c.2 1.3-.4 2-1.6 1.8 0-.3-.5-.7-.6-1M169 72.8c4-.8-1 4 0 0M1643.5 72.8c4-.8-1 4 0 0M1454.5 75.7c1.3.7 1.3 1.3 0 2-1.3-.7-1.3-1.3 0-2M2929 75.7c1.3.7 1.3 1.3 0 2-1.3-.7-1.3-1.3 0-2M714.8 78.7c1.4-.2 2.8-.4 4.2-.2l1 .7c-1.6.5-3.2.8-4.8 1 0-.4-.3-1-.5-1.5M2189.3 78.7c1.4-.2 2.8-.4 4.2-.2l1 .7c-1.6.5-3.2.8-4.8 1 0-.4-.3-1-.5-1.5M485.8 104.7c1.4-.4 2 0 1.5 1.3-1.4.4-2 0-1.5-1.3M1960.3 104.7c1.4-.4 2 0 1.4 1.3-1.4.4-2 0-1.4-1.3"/>
        <path id="Shape" d="M1362.5 8c0-1.5.7-2 2-1.5 0 1.3-.8 1.8-2 1.5M2837 8c0-1.5.8-2 2.2-1.5-.2 1.3-1 1.8-2 1.5M1233.6 7.5c1.2-.5 2-.2 2.6 1-1.2.8-2 .5-2.6-1M2708 7.5c1.2-.5 2-.2 2.7 1-1.2.8-2 .5-2.6-1M1260.6 9.8c1.2-2 3.5.5 3 2.2-1-.5-2.2-1-3-2.2M2735 9.8c1.3-2 3.6.5 3.2 2.2-1.2-.5-2.4-1-3-2.2M1360.5 12c0-1.4.6-2 2-2 0 1.4-.6 2-2 2M2835 12c0-1.4.7-2 2-2 0 1.4-.6 2-2 2M1328.6 11.7c1-.7 2-1 3-1 .3 2-2.2 2.7-3 1M2803 11.7c1-.7 2-1 3.2-1 .2 2-2.3 2.7-3 1M1250.6 16.4c-.2-1.7 1.5-2.8 3-3.7-.3 1.7-1 3.6-3 3.7M2725 16.4c0-1.7 1.5-2.8 3-3.7-.2 1.7-1 3.6-3 3.7M858.7 16c1.3-.5 2 0 2.4 1.2-1.3.5-2 0-2.3-1.3M2333.2 16c1.3-.5 2 0 2.4 1.2-1.4.5-2.3 0-2.4-1.3M878.7 19c-.3-1.5.3-2.2 1.8-2.2.2 1.4-.4 2-1.8 2M2353.2 19c-.3-1.5.3-2.2 1.8-2.2.2 1.4-.4 2-1.8 2M1320.6 21c.3-1.7 1-2.2 2.5-1.8-.2 1.2-1 1.8-2.4 1.7M2795 21c.4-1.7 1.2-2.2 2.6-1.8-.3 1.2-1 1.8-2.5 1.7M677.8 22c-3.3-.8.3-4.4.3-.7l-.2.6M783.7 22.5c-.2-2.3 3.2-3.3 3-.5-1 .4-2 .6-3 .5M2152.3 22.2c-3-1.5.7-4.2.4-.6l-.4.6M2258.2 22.5c-.2-2.3 3.2-3.3 3-.5-1 .4-2 .6-3 .5M1232.6 20.7c1.5.4 2 1.2 1.8 2.6-1.3-.3-2-1.2-1.8-2.6M2707 20.7c1.5.4 2 1.2 2 2.6-1.4-.3-2-1.2-2-2.6M879.7 23c1.3 0 2 .8 2.3 2-1.5 0-2.2-.6-2.3-2M886.7 26.4c0-1.8 1.2-3 2.7-3.7.3 1.8-1 3.3-2.7 3.7M2354.2 23c1.3 0 2 .8 2.3 2-1.5 0-2.3-.6-2.3-2M2361.2 26.4c-.2-1.8 1-3 2.7-3.7 0 1.8-1.2 3.3-2.8 3.7M1289.6 23.8c1.4.7.5 3-1 2.3l1-2.2M2764 23.8c1.5.7.5 3-1 2.3.4-.5 1-1.6 1-2.2M665.8 28c-2.6-2.3 1.5-3.5.8-.3l-.8.2M669.8 28.3c-2-1.3.8-4.2 1-1.3l-1 1.3M1196.6 28c-.5-2.7 3.2-2 2.3.3-.7 0-1.8-.3-2.4-.4M1322.6 25.7c1.4-.2 2.8.7 3 2-1.4.5-3-.6-3-2M2140.3 28c-2.6-2.3 1.5-3.5.8-.3l-.7.2M2144.3 28.3c-2-1.3.8-4.2 1-1.3l-1 1.3M2671 28c-.4-2.7 3.3-2 2.4.3-.6 0-1.7-.3-2.3-.4M2797 25.7c1.4-.2 3 .7 3 2-1.3.5-3-.6-3-2M1230.6 27c1 0 2.2 0 3.4.3.2 2.3-4.3 1.6-3.4-.4M1262.6 27c3-.4 1.2 3.8-1 2.2l1-2.3M1345.6 29c-1.5.6-2.4-1.8-1-2.4l1 2.3M2705 27c1.2 0 2.3 0 3.5.3.2 2.3-4.3 1.6-3.4-.4M2737 27c3-.4 1.3 3.8-1 2.2.4-.6 1-1.8 1-2.3M2820 29c-1.5.6-2.3-1.8-.8-2.4l1 2.3M1196.6 28.6c2 1.6-.8 3.3-1.5 1l1.6-1M1273.6 30c-1.6-1.5 2-2.8 2-1l-2 1M1288.6 28.6c1 1.2.8 4-1.3 3.2 0-1.2.5-2.3 1.3-3.2M2671 28.6c2 1.6-.7 3.3-1.4 1l1.5-1M2748 30c-1.5-1.5 2-2.8 2.2-1l-2 1M2763 28.6c1 1.2 1 4-1.2 3.2 0-1.2.4-2.3 1.3-3.2M1284.6 30c1.2-.7 2-.2 2.4 1.5-1.3 0-2-.4-2.4-1.6M1343.6 32c-.8-1.3-.3-2.2 1.3-2.8.2 1.3-.3 2.2-1.4 2.7M2759 30c1.3-.7 2-.2 2.5 1.5-1.3 0-2.2-.4-2.4-1.6" opacity=".8"/>
        <path id="Shape" d="M2818 32c-.7-1.3-.2-2.2 1.4-2.8.3 1.3-.2 2.2-1.3 2.7M665.8 31l.7-.3.6 1.5-1 1-.5-.5.2-2M1159.6 33.8c-1-1.3.6-4 2-2.5-.4 1-1 2-2 2.5M1191.6 30.8c1.5.2 3.2 2.5 1.4 3.4-1-.8-2-2.2-1.4-3.4M1360.5 33.4c-1.7-.2-1.3-2.8.4-2.4l-.5 2.4M2140.3 31l.7-.3.6 1.5-1 1-.6-.5.2-2M2634 33.8c-1-1.3.7-4 2-2.5-.3 1-1 2-2 2.5M2666 30.8c1.6.2 3.3 2.4 1.6 3.5-1-.8-2.2-2.2-1.5-3.5M2835 33.4c-1.6-.2-1.2-2.8.5-2.4l-.4 2.4M1265.6 32c1.6-.6 2.2 0 1.7 1.6-1.6.5-2.2 0-1.7-1.7M2740 32c1.7-.6 2.3 0 1.8 1.6-1.7.5-2.2 0-1.7-1.7M774.7 34.6c.3-1.4 1-1.8 2.4-1.4-.2 1.4-1 2-2.3 1.4M1237.6 35.5c-2-.5-.5-2.7 1-2.5l-1 2.5M2249.3 34.6c.3-1.4 1-1.8 2.3-1.4-.3 1.4-1 2-2.3 1.4M2712 35.5c-2-.5-.4-2.7 1-2.5-.2.6-.6 2-1 2.5M1227.6 35l1.6-1 2 .6c.4 1.6-2 2.6-3.2 1.6l-.4-1.3M2702 35l1.7-1 2 .6c.4 1.6-2 2.6-3.2 1.6l-.4-1.3M651.8 35c2.3-.6 4.6 1 4.4 3.5-1.8-.7-3.2-2-4.4-3.6M742.8 35c1.4-.3 2 .3 2.2 1.7-1.4.2-2-.4-2.2-1.8M901.7 35c.5 0 1.5.4 2 .6.2 2-3.4.8-2-.7M1178.6 36c.4-2.5 3.7-1.3 2.2.8-.5-.2-1.6-.6-2.2-1M1224.6 37c0-1.7.6-2.2 2.2-1.6-.3 1-1 1.6-2.2 1.5M2126.3 35c2.2-.5 4.7 1 4.4 3.5-2-.7-3.2-2-4.4-3.6M2217.3 35c1.3-.3 2 .3 2.2 1.7-1.4.2-2.2-.4-2.2-1.8M2376.2 35c.5 0 1.6.4 2 .6.2 2-3.4.8-2-.7M2653 36c.5-2.5 3.8-1.3 2.3.8-.5-.2-1.7-.6-2.2-1M2699 37c0-1.7.7-2.2 2.3-1.6-.3 1-1 1.6-2.2 1.5M700.8 38c-.2-1.5.4-2.2 1.8-2.3.2 1.4-.4 2-1.8 2.2M2175.3 38c-.2-1.5.4-2.2 1.8-2.3.3 1.4-.3 2-1.7 2.2M815.7 37c2-1 2.5 2 .3 1.7l-.3-1.8M1145.6 37c1.3-.5 2 0 2.5 1.2-1.3.5-2 0-2.4-1.3M2290.2 37c2-1 2.5 2 .3 1.7l-.3-1.8M2620 37c1.3-.5 2.2 0 2.6 1.2-1.4.5-2.2 0-2.5-1.3M791.7 42c-1-1.3-1-3.2 0-4.4 1.2 1.2 1.3 3 0 4.3M864.7 40c-2-.2-.4-3.5 1-2l-1 2M1309.6 37.5c2 0 1.5 2.5.7 3.5-1-1-1-2.3-.7-3.5M1315.6 40c-.8-1.8-.3-2.6 1.5-2.4-.2 1-.7 1.7-1.4 2.3M1382.5 40c-.4-1.5.2-2.3 1.7-2.4 0 1.3-.6 2-1.7 2.3M2266.2 42c-1.2-1.3-1-3.2 0-4.4 1.2 1.2 1.3 3 0 4.3M2339.2 40c-2-.2-.4-3.5 1-2l-1 2M2784 37.5c2 0 1.6 2.5.8 3.5-1-1-1.2-2.3-.7-3.5M2790 40c-.8-1.8-.2-2.6 1.6-2.4-.3 1-.8 1.7-1.5 2.3M2857 40c-.4-1.5 0-2.3 1.7-2.4 0 1.3-.6 2-1.7 2.3M771.7 39c1.4 0 2 1 2 2.2-1.3 0-2-.8-2-2.3M806.7 39.8c.6-1.4 3-.8 2.3.8l-2.3-.8M2246.3 39c1.4 0 2 1 2 2.2-1.3 0-2-.8-2-2.3M2281.2 39.8c.6-1.4 3-.8 2.3.8l-2.3-.8M704.8 40.8c1.7-1.7 4 0 4.2 2-1.5-.4-3-1-4.2-2M1099.6 40.8c.8-2.5 3 .3 1 1.4l-1-1.4M1224.6 40.5c1-1 2.6-1 4-.7 0 1.8-3.2 2-4 .7M1232.6 42c.3-1.6 1.2-2.2 2.7-1.8-.5 1.2-1.4 1.8-2.7 1.7M2179.3 40.8c1.7-1.7 4 0 4 2.2-1.5-.4-3-1-4-2.2M2574 40.8c1-2.5 3 .3 1.2 1.4l-1-1.4M2699 40.5c1-1 2.6-1 4-.7 0 1.8-3.2 2-4 .7M2707 42c.4-1.6 1.3-2.2 2.8-1.8-.5 1.2-1.4 1.8-2.7 1.7M1026.7 43.6c-2-1.3.6-4.4 1.5-1.7l-1.5 1.6M1179.6 44.8c1-1.6 2.5-3 4-4-.2 2-1.4 5.3-4 4M1267.6 41c1.7-.6 2.3 0 2 1.8-1-.2-1.7-1-2-2M2501.2 43.6c-2-1.3.6-4.4 1.5-1.7l-1.5 1.6M2654 44.8c1-1.6 2.4-3 4-4 0 2-1.6 5-4 4M2742 41c1.8-.6 2.4 0 2 1.8-1-.2-1.8-1-2-2M762.7 44.6c-1-1.7 2-3.5 3-2-.7 1-1.7 1.8-3 2M795.7 43.8c.5-1.3 1.4-2 2.8-2-.4 1.5-1.3 2-2.8 2M1209.6 42l5.3 5c-2-1.6-3.8-3.2-5.4-5M2237.3 44.6c-1-1.7 2-3.5 3-2-.7 1-1.7 1.8-3 2M2270.2 43.8c.4-1.3 1.4-2 2.8-2-.4 1.5-1.4 2-2.8 2M2684 42c2 1.6 3.7 3.3 5.4 5-1.8-1.6-3.7-3.2-5.3-5M799.7 44.7c-1.7-1.6 1.7-2.7 2.6-1.3-.7.8-1.6 1.2-2.6 1.3M856.7 43c1.4-.5 2.2 0 2.4 1.5-1.2.3-2-.2-2.3-1.6M1184.6 43h4.6c-.5 1.5-1 3-1.6 4.3l-.4-2.8-2-1-.6-.5M2274.2 44.7c-1.7-1.6 1.6-2.7 2.6-1.3-.7.8-1.6 1.2-2.6 1.3M2331.2 43c1.4-.5 2.2 0 2.4 1.5-1.4.3-2-.3-2.4-1.6M2659 43h4.7c-.5 1.5-1 3-1.6 4.3 0-1-.2-2-.3-2.8l-2-1-.6-.5M1022.7 44c1-.2 2 0 3 1-1 1.4-3.6.7-3-1M1036.7 44c1.8-1.7 3.7 1.3 1.2 2l-1.3-2M2497.2 44c1-.2 2 0 3 1-1 1.4-3.6.7-3-1M2511.2 44c1.8-1.7 3.6 1.3 1.2 2l-1.2-2M1009.7 46.8c-1.7-1.6 1.2-3.6 1.4-1-.2.3-1 .8-1.3 1M1150.6 45c1.5-.4 2.2 0 2.2 1.6-1.2 0-2-.5-2.2-1.7M2484.2 46.8c-1.8-1.6 1-3.6 1.3-1l-1.3 1M2625 45c1.6-.4 2.3 0 2.3 1.6-1.3 0-2-.5-2.2-1.7M1145.6 45.8c1.4-.3 2 .4 2 2-1.3 0-2-.8-2-2M1227.6 48.8c.5-1.6 1.8-3 3.5-3-.2 1.8-1.6 3.2-3.4 3M1384.5 45.8c1.4-.2 2.2.4 2.5 1.8-1.4 0-2.3-.5-2.5-1.8M2620 45.8c1.5-.3 2 .3 2 2-1.3 0-2-.8-2-2M2702 48.8c.6-1.5 1.8-3 3.6-3-.3 1.8-1.7 3.2-3.5 3M2859 45.8c1.3-.2 2.2.4 2.5 1.8-1.4 0-2.3-.5-2.5-1.8M218 46.5c1.5-.7 2.5 1.5 2.2 2.8-1.3-.3-2.4-1.4-2.3-2.8M741.8 46.8c.8-1.2 3 0 2 1.3-.8 1.2-3 0-2-1.2M1286.6 47.8c.8-1.2 1.8-1.7 3-1.4.3 1.8-2 2.2-3 1.4M1349.6 48.8c-2.8-.3.4-3.8 1-1l-1 1M1692.4 46.8c1.5-.8 2.6 1.3 2.4 2.6-1.3-.3-2.5-1.2-2.4-2.6M2216.3 46.8c.8-1.2 3 0 2 1.3-.8 1.2-3 0-2-1.2M2761 47.8c.8-1.2 2-1.7 3.3-1.4 0 1.8-2 2.2-3.2 1.4M2824 48.8c-2.7-.3.6-3.8 1-1 0 .3-.6.8-1 1M199 49.5c.7-1 1.7-1.7 3-2 .8 2-1.8 2.6-3 2M289 49.7c.4-1.3 1.3-1.8 2.6-1.4-.4 1.3-1.3 1.8-2.7 1.4M325 47.8c1.4-.5 2 0 2 1.3-1.2.5-2 0-2-1.2M1188.6 48.6c1.3-1 2-.8 2.5.8-1 .5-1.8.2-2.4-.8M1354.5 47.8c1.5.7 1.6 1.6.4 2.7-1-.8-1-1.7-.5-2.7M1673.4 49.5c.8-1 1.8-1.7 3-2 1 2-1.7 2.5-3 2M1763.4 49.7c.5-1.3 1.4-1.8 2.7-1.4-.3 1.3-1.2 1.8-2.6 1.4M1799.4 47.8c1.5-.5 2.2 0 2.2 1.3-1.3.5-2 0-2.2-1.2M2663 48.6c1.4-1 2.2-.8 2.6.8-1 .5-2 .2-2.5-.8M2829 47.8c1.5.7 1.7 1.6.5 2.7-1-.8-1-1.7-.4-2.7M236 48.8c1.5-2 2.7 1 .5 1.6l-.6-1.6M244 50.8c2.3-.7 4.8-1 7.3-1.4-2.5.4-5 .8-7.4 1.4M1005.7 48.7c.7 0 2 0 2.6.2 0 1.7-2.3 1-2.6-.3M1710.4 48.8c1.6-2 2.8 1 .6 1.6l-.6-1.6M1718.4 50.8c2.4-.7 5-1 7.4-1.4-2.5.4-5 .8-7.4 1.4M2481.2 47.8l2.4 1c-.3 2-2.7.4-2.4-1M285 52.4c-1.7-1-.3-3.5 1.5-2.8-.2 1-.8 2-1.6 2.8M300 53.8c-2 .3-3.3-1.6-2.5-3.2 1.4.3 2.2 2 2.4 3.2M854.7 52.8c1.3-1.4 2.8-2.5 4.6-3 .5 2.5-2.5 3.5-4.6 3M957.7 50.8c-.3-1.8 2.5-1.6 2.4 0h-2.3M1759.4 52.4c-1.6-1-.2-3.5 1.6-2.8-.2 1-.8 2-1.6 2.8M1774.4 53.8c-1.8.3-3.2-1.6-2.4-3.2 1.4.3 2.2 2 2.4 3.2M2329.2 52.8c1.3-1.4 2.8-2.5 4.6-3 .5 2.5-2.5 3.5-4.6 3M2432.2 50.8c-.4-1.8 2.5-1.6 2.4 0h-2.4M227 51.4c2-.4 3 2.7.3 2.4l-.4-2.4M730.8 51.8l5.4-1-5 1.7-.3-.6M805.7 50.8c1.4-.4 2.3.2 2.7 1.7-1.3 0-2.2-.5-2.7-1.7M995.7 50.8c1.4.3 2 1 2 2.4-1.4 0-2-1-2-2.4M1047.7 50.8c2.2-.5 3.7 1.3 4.4 3.2-2 0-3.5-1.4-4.3-3.2M1215.6 52.8c-.3-1.3.2-2 1.5-2.3.6 1.3 0 2-1.4 2.3M1701.4 51.4c2-.3 3 2.7.4 2.4l-.4-2.4M2205.3 51.8l5.3-1-5 1.6-.3-.6M2280.2 50.8c1.4-.4 2.3.2 2.7 1.7-1.4 0-2.4-.5-2.8-1.7M2470.2 50.8c1.4.2 2 1 2 2.4-1.4 0-2-1-2-2.4M2522.2 50.8c2.2-.5 3.8 1.3 4.5 3.2-2 0-3.7-1.4-4.5-3.2M2690 52.8c-.2-1.3.2-2 1.5-2.4.5 1.3 0 2-1.4 2.4M236 53.8c-1.8-.3-1-3 .6-2.3l-.7 2.3M769.7 53.8c-1.2 2.5-4-2.2-1-2l1 2M1137.6 51.8c1.5 0 1.2 2.4-.2 2.4-1.5 0-1.3-2.4.2-2.4M1234.6 51.6c1.4 0 2 .6 1.8 2-1.4 0-2-.6-1.8-2M1261.6 51.8c.4 0 1-.4 1.5-.6 2 1.7-1.6 3-1.4.6M1710.4 53.8c-1.7-.3-.8-3 .7-2.3 0 .6-.4 1.8-.6 2.3M2244.3 53.8c-1.2 2.5-4-2.2-1-2l1 2M2612 51.8c1.6 0 1.3 2.4 0 2.4-1.7 0-1.4-2.4 0-2.4M2709 51.5c1.5 0 2 .6 2 2-1.5 0-2-.6-2-2M2736 51.8c.5 0 1.2-.4 1.6-.6 1.8 1.7-1.7 3-1.5.6M237 54.7c0-1.2.6-2 2-2.2l-1.4 2.6-.7-.3M327 54.8c-1.5 1-2.7-1-1.5-2l1.4 2M328 54.6c.5-1.5 3.2-3.5 3.8-1-1 1-2.6 1-4 1M335 52.4c1 .3 1.5 1 1.8 2-1.8.4-2.4-.3-2-2M731.8 52.8c1.7 0 3.5-.3 5 .7-1.5 1.5-4 1.5-5-.7M760.7 53.4l1.7-1 .7 3c-.2.2-1 .4-1.3.5l-1-2.6M953.7 54.8c.4-1.5 1.8-2.5 3.4-2.5.2 1.8-1.7 3-3.3 2.5M1711.4 54.7c0-1.2.6-2 2-2.2L1712 55l-.6-.3M1801.4 54.8c-1.4 1-2.6-1-1.4-2l1.4 2M1802.4 54.6c.6-1.5 3.3-3.5 4-1-1.2 1-2.7 1-4 1M1809.4 52.4c1 .3 1.6 1 2 2-2 .4-2.5-.3-2-2M2206.3 52.8c1.6 0 3.5-.3 5 .7-1.5 1.5-4 1.5-5-.7M2235.3 53.4l1.7-1 .7 3-1.4.5-1-2.6M2428.2 54.8c.4-1.5 1.8-2.5 3.4-2.5 0 1.8-1.8 3-3.4 2.5M229 54.8c.2-1.3 1-2 2.4-1.8-.3 1.6-1.2 2.2-2.5 1.8M746.8 54.8c.5-1.4 3.3-2.2 3.3 0-1 .4-2 .5-3.2 0M935.7 53.6c1.4 0 2.8 2 1 2.5l-1-2.4M1227.6 54.8c-.5 2.4-3.8.7-2-1l2 1M1703.4 54.8c.2-1.3 1-2 2.5-1.8-.4 1.6-1.3 2.2-2.6 1.8M2221.3 54.8c.5-1.4 3.4-2.2 3.4 0-1 .4-2.2.5-3.4 0M2410.2 53.6c1.4 0 2.8 2 1 2.5l-1-2.4M2702 54.6c-.8 2.2-3.8 1-2-1l2 1M798.7 55.8c-1-2 2.2-1.5 2.6 0h-2.6M848.7 57.8c0-2.2 2.3-3 4-3.4-.8 1.6-2 3.4-4 3.4M1061.6 54.8c1.5-.6 3.2-.2 4.2 1-1.5.6-3.2.2-4.2-1M1229.6 55.8c-1.2-2 2-1.6 2.6-.3l-2.6.3M1280.6 57.8c-.3-2 2-4.5 3.6-2.4-1 1-2.2 2-3.6 2.4M1302.6 55.8c-1.6 2-3-1-.8-1.7l.8 1.8M1313.6 56.8c-1.6.3-2.2-2.3-.4-2.4l.4 2.4M2273.2 55.8c-1-2 2-1.5 2.6 0h-2.6M2323.2 57.8c0-2.2 2.3-3 4-3.4-.8 1.6-2 3.4-4 3.4M2536.2 54.8c1.5-.6 3.2-.2 4.2 1-1.6.6-3.2.2-4.2-1M2704 55.8c-1-2 2-1.6 2.7-.3l-2.6.3M2755 57.8c-.2-2 2-4.5 3.7-2.4-1 1-2.3 2-3.6 2.4M2777 55.8c-1.5 2-3-1-.7-1.7l.8 1.8M2788 56.8c-1.5.3-2-2.3-.3-2.4l.4 2.4M270 55.6c1.5-.5 3.4-.3 4.5 1-1.6.8-3.6.4-4.6-1M1141.6 55.8c1.2-.4 2 0 2.3 1.3-.7 0-2-.4-2.7-.5l.2-.7M1744.4 55.6c1.6-.5 3.5-.3 4.6 1-1.6.8-3.6.4-4.6-1M2616 55.8c1.3-.4 2 0 2.5 1.3-.7 0-2-.3-2.6-.4V56M308 56.8c1.2-1 2.4 1 1 2l-1-2M311 59.8c.4-1.2 1.3-2.2 2.4-3 1.4 1.5-1 4.2-2.5 3M374 58.8c-.3-1.7 2.3-2.8 2.8-1-.8 1-1.8 1.2-3 1M735.8 57.8c1-2.5 3.4 1.7.7 1.3l-.7-1.2M757.7 56.8c1.2-1 2.5.7 1.6 1.8l-1.6-1.8M761.7 56.8c1.2-1.6 4 1.3 2 2-1-.4-1.6-1-2-2M798.7 56.7c1.4 0 3.2 1 3 2.5-1.5 0-2.8-1-3-2.5M1285.6 56.7c1.6.3 3 1 4.3 2-2 1.2-4-.2-4.4-2M1782.4 56.8c1.3-1 2.5 1 1.2 2l-1.2-2M1785.4 59.8c.5-1.2 1.4-2.2 2.5-3 1.2 1.5-1 4.2-2.6 3M1848.4 58.8c-.2-1.7 2.4-2.8 3-1-1 1-2 1.2-3 1M2210.3 57.8c1-2.5 3.4 1.7.7 1.3l-.7-1.2M2232.3 56.8c1.2-1 2.4.7 1.6 1.8l-1.7-1.8M2236.3 56.8c1.2-1.6 3.8 1.3 2 2-1-.4-1.6-1-2-2M2273.2 56.7c1.3 0 3 1 3 2.5-1.5 0-2.8-1-3-2.5M2760 56.7c1.7.3 3.2 1 4.4 2-2 1.2-3.8-.2-4.3-2M254 60.6c-.8-1.5 1-3.4 2.4-2-.6 1-1.4 1.7-2.5 2M260 57.7c1.2 2-1.6 3-2.7 1.4l2.6-1.3M1108.6 59.8c-2-1.6 1-3.7 2-1.4l-2 1.4M1269.6 60.8c-.5-2 2-2.5 3-1.3-.7 1-1.8 1.3-3 1.3M1728.4 60.6c-.7-1.5 1.2-3.4 2.5-2-.7 1-1.5 1.7-2.6 2M1734.4 57.7c1.3 2-1.5 3-2.6 1.4l2.6-1.3M2583 59.8c-2-1.6 1-3.6 2-1.4l-2 1.4M2744 60.8c-.4-2 2-2.5 3.2-1.3-1 1-2 1.3-3 1.3M378 59.5c1.2-1.5 2.5.8 1.6 2l-1.7-2M1111.6 59.8l1-1.4c2.3.4 0 3.7-1 1.4M1117.6 59.7c-.5-2 2.4-1 2.7.2-.7-.2-2-.3-2.7-.3M1262.6 59.8c2 .5 4 .8 6.2 1-2 0-4.4.3-6.2-1M1852.4 59.5c1.3-1.5 2.5.8 1.7 2l-1.6-2M2586 59.8l1-1.4c2.4.4.2 3.7-1 1.4M2592 59.7c-.4-2 2.5-1 2.8.2-.7-.2-2-.3-2.7-.3M2737 59.8c2 .5 4.2.8 6.3 1-2 0-4.4.3-6.2-1M265 59.6c.3 2.6-2.4 3.4-4.5 3.2 1-1.6 2.6-2.6 4.4-3.2M311 60.7c0 2.6-4.5.3-2-1l2 1M652.8 59.8l2 1c-.4 2.2-3.6.3-2-1M804.7 59.8c1.5.2 2 1 2 2.4-1.4-.3-2-1-2-2.4M1179.6 62.8c-1 2.7-4.7-1.7-1.8-2.2.3 1 1 1.7 1.8 2.2M1739.4 59.6c.4 2.6-2.4 3.4-4.4 3.2 1-1.6 2.6-2.6 4.4-3.2M1785.4 60.7c0 2.6-4.4.3-2-1l2 1M2127.3 59.8l2 1c-.4 2.2-3.6.3-2-1M2279.2 59.8c1.5.2 2 1 2 2.4-1.4-.3-2-1-2-2.4M2654 62.8c-1 2.7-4.6-1.7-1.7-2.2.3 1 1 1.7 1.8 2.2M1229.6 61.8c1-1 1.8-1 2.7 0-1 1.2-2 1.2-2.7 0M2704 61.8c1-1 2-1 2.8 0-1 1.2-2 1.2-2.7 0M371 63.7c0-1.5.8-2 2.2-1.8-.2 1.2-1 1.8-2.3 1.7M1845.4 63.7c0-1.5.8-2 2.3-1.8-.2 1.2-1 1.8-2.3 1.7M345 63.5l2.3.8c-.8 1-3 1-2.4-.8M360 62.8c1.2-.2 3.3.5 2.3 2.2-1.4 0-2.2-.7-2.4-2.2M434 63.7l2.8-.8c0 1.5-2 1.8-3 .7M547.8 62.8c2.2-.7 4.3 1 4.7 3-2-.4-3.7-1.3-4.7-3M557.8 64.8c.3-2.5 4-2.4 3.6.3-1.2.2-2.5 0-3.6-.2M655.8 63.8V63l1 4.3c-1 0-2.4 0-3.2-.2v-3c-.2 2.5 3 2 2.2-.3M940.7 62.8c1-.6 2.7 0 3 1.3-1 1.4-2.7 0-3-1.2M1323.6 62.8c1.5-1.2 3 1.4 1.6 2.4-1.5 1.2-3-1.4-1.6-2.4M1819.4 63.5l2.4.8c-.8 1-3 1-2.4-.8M1834.4 62.8c1.2-.2 3.4.5 2.4 2.2-1.4 0-2.2-.7-2.4-2.2M1908.4 63.7l3-.8c-.3 1.5-2 1.8-3 .7M2022.3 62.8c2.2-.7 4.2 1 4.7 3-2-.4-3.7-1.3-4.7-3M2032.3 64.8c.3-2.5 4-2.4 3.7.3-1.3.2-2.5 0-3.7-.2M2130.3 63.8V63l1 4.3c-1 0-2.4 0-3.2-.2l.2-3c-.3 2.5 2.8 2 2-.3M2415.2 62.8c1-.6 2.7 0 3 1.3-1 1.4-2.8 0-3-1.2M2798 62.8c1.5-1.2 3.2 1.4 1.7 2.4-1.5 1.2-3.2-1.4-1.6-2.4M382 64.8c.5-1.6 2.6-1 3.4 0-1.3 1-2.4.8-3.5 0M457.8 64.8h3.6l-4.6 3c1-.8.8-1.6-.3-2.3l1.3-.7M810.7 63.8c1.5.2 2.4 1.5 3 2.8-1.5-.2-3.4-1-3-2.8M1856.4 64.8c.6-1.6 2.6-1 3.5 0-1.4 1-2.6.8-3.6 0M1932.4 64.8h3.6l-4.6 3c.8-.8.7-1.6-.3-2.3l1.4-.7M2285.2 63.8c1.5.2 2.4 1.5 3 2.8-1.6-.2-3.4-1-3-2.8M444 65.7c.5 0 1.8-.4 2.4-.6 0 1.5-2.6 2.8-2.5.7M463.8 64.7c1.4 0 2 1 1.8 2.4-1.4-.2-2-1-1.8-2.3M531.8 64.8c1.3-.5 2 0 2.5 1.2-1.3.6-2 .2-2.5-1.2M1115.6 64.8h2.8c1 2.8-3 2.6-2.8 0M1215.6 64.8c1.5-.3 2.2.3 2.2 1.8-1.3 0-2-.5-2.2-1.8M1918.4 65.7c.6 0 2-.4 2.5-.6 0 1.5-2.7 2.8-2.6.7M1938.4 64.7c1.4 0 2 1 1.8 2.4-1.4-.2-2-1-1.8-2.3M2006.3 64.8c1.3-.5 2 0 2.5 1.2-1.3.6-2.2.2-2.5-1.2M2590 64.8h3c1 3-3 2.6-3 0M2690 64.8c1.6-.3 2.3.3 2.4 1.7-1.3.2-2-.4-2.3-1.7M564.8 67.7c-2 1.4-4-.2-3.3-2.4 1.4.3 2.6 1.2 3.3 2.4M1131.6 68.8c-.4-1.2-.2-2.4.7-3.5 1 1 1.3 3.5-.7 3.5M2039.3 67.7c-2 1.4-4-.2-3.3-2.4 1.4.3 2.5 1.2 3.3 2.4M2606 68.8c-.4-1.2 0-2.4.8-3.5 1 1 1.3 3.5-.7 3.5M739.8 69.8c.2-1.6 1.5-3 3.2-3 0 1.8-1.6 3-3.2 3M813.7 66.6c1.3.6 1.7 1.6 1.2 2.8-1.4-.5-1.8-1.4-1.3-2.8M2214.3 69.8c.2-1.6 1.5-3 3.2-3 0 1.8-1.6 3-3.2 3M2288.2 66.6c1.3.7 1.7 1.6 1.2 3-1.3-.6-1.7-1.6-1.2-3M723.8 69.7c-.2-4 4.7 0 .6.4l-.6-.3M2198.3 69.7c-.3-4 4.7 0 .6.4l-.7-.3M1434.5 67.8c1.4.3 2 1.2 2 2.5-1.5-.3-2-1-2-2.5M2909 67.8c1.4.3 2 1.2 2 2.5-1.5-.3-2-1-2-2.5M712.8 71.8c.3-1.3 1-1.8 2.5-1.5-.3 1.4-1 2-2.5 1.5M736.8 71.8c0-1.4.6-2.2 2-2.3 0 1.3-.7 2-2 2.3M815.7 69.6c2.3 1 6 1.2 6.2 4.4-2.2-1.4-4.2-3-6.3-4.4M2187.3 71.7c.3-1.3 1.2-1.8 2.6-1.8-.4 1.4-1.3 2-2.7 1.7M2211.3 71.8c-.2-1.4.5-2.2 2-2.3 0 1.3-.7 2-2 2.3M2290.2 69.7c2.2.8 4.6 1.5 6.7 2.5-.2.4-.4 1.3-.4 1.7l-6.4-4.3M567.8 71.8c2.3-1.6 4.3.7 4.8 3-1.7-.8-3.5-1.5-4.8-3M722.8 71.8c-.6 4-4.8-1-.7-1 .3.2.7.7.8 1M761.7 70.6l1.3 1.8c-1 1.8-3.2-1.2-1.3-1.8M802.7 70.8c1.6 0 3.2-.2 4.8 0 0 2.3-4.7 2.4-4.8 0M1109.6 70.8l.6.2c2 .7 4 1 6 1.2v.2c-1.5 1-3 1.7-4.7 2.4l-2-4M2042.3 71.8c2.3-1.5 4.3.6 4.7 3-1.7-1-3.5-1.6-4.7-3M2197.3 71.8c-.6 4-4.8-1-.7-1l.7 1M2236.3 70.6l1.3 1.8c-1 1.8-3.2-1.2-1.3-1.8M2277.2 70.8c1.6 0 3.2-.2 4.8 0 0 2.3-4.7 2.4-4.8 0M2584 70.8l.7.2c2 .7 4 1 6 1.2v.2c-1.5 1-3.2 1.7-4.7 2.4l-2-4M179 71.8c1.2 0 2 .7 2 2-1.4 0-2.2-.7-2-2M1653.4 71.8c1.3 0 2 .7 2.2 2-1.6 0-2.3-.7-2.2-2M394 72.8c1.2 0 2.6.4 4 .8-1 2.4-4 1.6-4-.8M717.8 74.8c-.4-1.3 0-2.2 1.2-2.7 1.8.3.3 2.3-.6 2.7h-.6M731.8 75.7c.2-1.5 1-3 3-3.2 0 1.7-1.3 3-3 3.2M1868.4 72.8c1.3 0 2.6.4 4 .8-1 2.4-4 1.6-4-.8M2192.3 74.8c-.4-1.3 0-2.2 1.2-2.7 1.8.3.3 2.3-.6 2.7h-.7M2206.3 75.7c0-1.5 1-3 2.8-3.2.3 1.7-1 3-2.7 3.2M823.7 76.7c.5-2 3-2.5 4.7-1.7-1.4 1-3 2-4.7 1.7M1148.6 75.7c1.5-.6 3-1 4.5-1.7l-.5.8c-1.5 2-3 4-5 5.6l.3-1.7.7-3M1417.5 75.7c1-1.7 3.2-2 4.7-.8-1.3 1-3 1.5-4.7.7M1443.5 73.8c2.3-1.5 4.4.4 5.3 2.4-2-.4-3.8-1.2-5.3-2.4M2298.2 76.7c.4-2.2 3-2.5 4.7-1.7-1.5 1-3 2-4.8 1.7M2623 75.7c1.6-.6 3-1 4.6-1.7l-.6.8c-1.5 2-3 4-5 5.6l.3-1.7.7-3M2892 75.7c1-1.7 3-2 4.7-.8-1.3 1-3 1.5-4.7.7M2918 73.8c2.2-1.5 4.4.4 5.3 2.4-2-.4-3.8-1.2-5.3-2.4M473.8 74.8c1.4 0 2.3.4 2.7 1.7-1.3 1.4-3-.3-2.7-1.7M764.7 74.8c1.7-.4 2.3.2 2 2-1.2-.4-1.8-1-2-2M828.7 74.8c1 .2 1.8.7 2 1.8l-1 2-1.3-1.2.3-2.5M850.7 75.7c1-.5 2-.8 3-1 1.4 1.8-2.2 2.5-3 1M1143.6 74.8c1.5.7 1.5 2.6.2 3.6-1.3-.6-1.5-3-.2-3.6M1948.4 74.8c1.4 0 2.2.4 2.6 1.7-1.2 1.4-2.8-.3-2.6-1.7M2239.3 74.8c1.6-.4 2.3.2 2 2-1.2-.4-1.8-1-2-2M2303.2 74.8c1 .2 1.8.7 2.2 1.8l-1 2c-.4-.4-1-1-1.4-1.2l.3-2.5M2325.2 75.7c1-.6 1.8-.8 3-1 1.4 1.8-2.3 2.5-3 1M2618 74.8c1.6.7 1.6 2.6.3 3.6-1.3-.6-1.5-3-.2-3.6M182 77.7l2-1.5c1.7 1.3-1 2.4-2 1.5M741.8 78.7c-1.3-1.3 1-3.5 2.4-2.3-.6 1-1.3 2-2.4 2.3M1235.6 75.7c1.3-1 2.7 1 1.6 2l-1.6-2M1656.4 77.7c.5-.4 1.6-1 2-1.5 1.8 1.3-1 2.4-2 1.5M2216.3 78.7c-1.3-1.3 1-3.5 2.4-2.3-.6 1-1.3 2-2.4 2.3M2710 75.7c1.3-1 2.7.8 1.7 2l-1.6-2M407 80.7c-.4-2 .5-4 2.5-4.3 0 1.8-1 3.6-2.6 4.3M1208.6 77.7c.7-1.4 3.7-.8 3.3 1-1.3.4-2.4-.4-3.4-1M1881.4 80.7c-.3-2 .6-4 2.6-4.3 0 1.8-1 3.6-2.6 4.3M2683 77.7c.8-1.4 3.8-.8 3.4 1-1.2.4-2.3-.4-3.3-1M504.8 78.7c.7-1.6 2.7-1.2 4-.7-1 1-2.7 1.7-4 .7M719.8 78.7l7.8.3-6.8.4-1-.7M1451.5 77.7c1.2.2 2.7 1 2.7 2.3-1.5.6-3-.8-2.7-2.3M1464.5 79.7c.2-2.6 2.8-3.3 4.8-2.2-1.6 1-3.2 1.6-4.8 2.2M1470.5 77.7c1.3-.8 2.6 1 1.8 2-.5-.4-1.4-1.5-1.8-2M1979.3 78.7c.7-1.6 2.6-1.2 4-.7-1 1-2.7 1.7-4 .7M2194.3 78.7l7.8.3-6.7.4-1-.7M2926 77.7c1.2.2 2.6 1 2.7 2.3-1.5.6-3-.8-2.7-2.3M2939 79.7c.2-2.6 2.7-3.3 4.8-2.2-1.6 1-3.2 1.6-4.8 2.2M2945 77.7c1.3-.8 2.6 1 1.8 2-.5-.4-1.4-1.5-1.8-2M176 79.7l2.4-.8c0 1.3-2.4 2.7-2.5.7M247 79.7c0 2.8-4.6 0-2-1l2 1M713.8 78.7h1.6c0 .4.4 1 .5 1.4l-2.5.5.4-2M843.7 80.7c-1.7 0-1.7-2.3 0-2.4v2.4M1402.5 80.7c2.5-1 5-1 7.2.8-.5 1.3-1 2.7-1.2 4l-1.8-5.5-4.2.7M1650.4 79.7l2.5-.8c0 1.3-2.5 2.7-2.6.7M1721.4 79.7c.2 2.8-4.5 0-2-1l2 1M2188.3 78.7h1.6c0 .4.3 1 .4 1.4l-2.4.5.4-2M2318.2 80.7c-1.7 0-1.7-2.3 0-2.4v2.4M2877 80.7c2.5-1 5-1 7.2.8-.5 1.3-1 2.7-1.2 4l-1.8-5.5-4.2.7M646.8 79.7c1.4.2 2 1 2 2.3-1.3 0-2-.8-2-2.3M1460.5 79.7c1.3 0 2.5.7 3.5 1.5-1 2-3.7.4-3.5-1.5M2121.3 79.7c1.4.3 2 1 2 2.3-1.3 0-2-.8-2-2.3M2935 79.7c1.3 0 2.5.7 3.5 1.5-1 2-3.7.4-3.5-1.5M707.8 82.7c-1-1.5 1.4-2.5 2.7-2.3-.2 1.3-1.4 2.3-2.7 2.3M2182.3 82.7c-1-1.5 1.4-2.5 2.7-2.3-.3 1.3-1.4 2.3-2.7 2.3M402 83.7c-2.2-1.6 1.3-3.2 1.3-.7l-1.4.7M569.8 81.7c1.5-1.2 3 1.4 1.6 2.4-1.5 1.3-3-1.3-1.6-2.3M639.8 85.7c2-1.5 3.8-3 6-4.2l.4 1c-2 1.2-4.2 2.2-6.3 3.2M649.8 81.7h2.8c0 2-2.4 1.3-2.8 0M1211.6 81.6c2.7 0-.3 3.8-1 1.2l1-1.2M1227.6 83.7c.2-1.4 1-2 2.4-2-.3 1.3-1 2-2.4 2M1876.4 83.7c-2-1.6 1.4-3.2 1.4-.7l-1.4.7M2044.3 81.7c1.4-1.2 3 1.4 1.6 2.4-1.6 1.3-3.2-1.3-1.7-2.3M2114.3 85.7c2-1.5 3.8-3 5.8-4.2l.6 1c-2 1.2-4.2 2.2-6.3 3.2M2124.3 81.7h2.8c.2 2-2.3 1.3-2.7 0M2686 81.6c2.8 0-.2 3.8-.8 1.2.2-.3.7-1 1-1.2M2702 83.7c.3-1.4 1-2 2.6-2-.3 1.3-1 2-2.5 2M63 85.7c0-1.5.8-2 2.2-1.6 0 1.4-1 2-2.3 1.7M74 85.7c1-1.4 3-2.4 4.8-1.6-1 1.7-3 1.8-4.8 1.7M166 86.7c-.6-2.4 3-3.6 3.2-.8-1 .5-2 .8-3.3.7M1537.5 85.7c0-1.5.8-2 2.3-1.6-.2 1.4-1 2-2.3 1.7M1548.5 85.7c1-1.4 3-2.4 4.8-1.6-1 1.7-3 1.8-4.8 1.7M1640.5 86.7c-.5-2.4 3-3.6 3.3-.8-1 .5-2 .8-3.3.7M83 84.7c1.4-.5 2.4 0 3.2 1-1.3.6-2.4.2-3.2-1M124 86.7c.6-2 3-2.3 4-.4-1.3.7-2.7.6-4 .4M726.8 86.7c1-.6 2.4-1 3.2.2l-.2.7c-.3.3-.7 1-1 1.2-.8-.7-1.5-1.4-2-2.3M1227.6 84.7c1.7.3 1.5 2.4 0 3v-3M1557.5 84.7c1.4-.5 2.4 0 3.2 1-1.4.6-2.5.2-3.2-1M1598.5 86.7c.5-2 3-2.3 4-.4-1.3.7-2.7.6-4 .4M2201.3 86.7c1-.6 2.4-1 3.2.2l-.2.7c-.3.3-.7 1-1 1.2-.8-.7-1.5-1.4-2-2.3M2702 84.7c1.7.3 1.6 2.4.2 3v-3M129 87.7c.4-1 1-1.8 1.7-2.5 1.3 1.2-.3 4.4-1.7 2.5M479.8 85.7c1.4 1.7-.8 3.6-2.5 3.2.5-1.4 1.3-2.6 2.5-3.3M629.8 85.7c1.3.4 2 1.3 2 2.7-1.5-.3-2-1.2-2-2.7M734.8 88.7c-2.3 0-1-4 .8-2.8-.4.8-.7 1.7-.8 2.7M1603.5 87.7c.4-1 1-1.8 1.7-2.5 1.3 1.2-.3 4.4-1.7 2.5M1954.3 85.7c1.4 1.7-.8 3.6-2.5 3.2.5-1.4 1.3-2.6 2.5-3.3M2104.3 85.7c1.3.4 2 1.3 2 2.7-1.5-.3-2.2-1.2-2-2.7M2209.3 88.7c-2.3 0-1-4 .8-2.8-.3.8-.6 1.7-.7 2.7M746.8 86.7c.7 1 .5 2.7-1 2.5l1-2.5M1141.6 86.7c1-.3 2-.4 3.2-.2.5 2-3.4 2.2-3.2.2M1145.6 86.7c1.3 0 2.7 0 4 .3 0 2-4.2 1.7-4-.3M2221.3 86.7c.7 1 .5 2.7-1 2.5l1-2.5M2616 86.7c1-.3 2-.4 3.3-.2.5 2-3.4 2.2-3.2.2M2620 86.7c1.4 0 2.7 0 4 .3.2 2-4 1.7-4-.3M1159.6 89.7c-2.2-.6.3-4 1.7-2.2-.5.8-1 1.5-1.7 2.2M2634 89.7c-2.2-.6.4-4 1.8-2.2-.5.8-1 1.5-1.7 2.2M105 90.7c0-1.8 2.7-1.7 2.5 0H105M1579.5 90.7c0-1.8 2.7-1.7 2.5 0h-2.5M45 90.7c.6-1.3 2.6-1.3 2.7.4l-2.7-.3M49 89.7c2.2 1 0 4.8-1 2l1-2M111 89.7c1.5-.8 2.4 1.7 1 2.2l-1-2.3M744.8 89.7l2 .8c.2 2-3.2.8-2-.8M1131.6 90.7l2-.7c1.5 1.6-2 3-2 .7M1519.5 90.7c.6-1.3 2.6-1.3 2.7.3l-2.7-.3M1523.5 89.7c2.2 1 0 4.8-1 2l1-2M1585.5 89.7c1.5-.7 2.4 1.7 1 2.2l-1-2.3M2219.3 89.7l2 .8c.2 2-3.2.8-2-.8M2606 90.7l2.2-.7c1.4 1.6-2.3 3-2 .7M141 90.7c1 1 1 2 .2 3.2-1-1-1-2-.2-3.3M1493.5 91.7c2-1 4.5-.3 5.2 2-2 0-4-.6-5.2-2M1615.5 90.7c1 1 1 2 .2 3.2-1-1-1-2-.2-3.3M2968 91.7c2-1 4.5-.3 5.2 2-2 0-4-.6-5.2-2M118 91.7c1.6.2 2.6 3.2.5 3.2-.6-1-.7-2.2-.5-3.3M146 92.7c.6-1.6 2.8-.5 2.3 1l-2.3-1M479.8 95.7c-.6-1.4-1.3-3-1-4.4 2.6.2 2.6 3 1 4.4M603.8 93.7c-1.5.6-2.2-1.6-1-2.3l1 2.3M1220.6 92.7c.7-2 3.5-.7 1.6 1l-1.6-1M1592.5 91.7c1.6.2 2.6 3.2.5 3.2-.6-1-.8-2.2-.5-3.3M1620.5 92.7c.5-1.6 2.8-.5 2.3 1l-2.3-1M1954.3 95.7c-.6-1.4-1.3-3-1-4.4 2.6.2 2.5 3 1 4.4M2078.3 93.7c-1.6.6-2.2-1.6-1-2.3l1 2.3M2695 92.7c.7-2 3.6-.7 1.8 1l-1.7-1M576.8 95.7c-1.3-1-.5-3 1-3.5.3 1.2.2 2.8-1 3.5M609.8 95.7c-2.5.8-2.4-4 0-3v3M2051.3 95.7c-1.5-1-.3-3 1-3.5.2 1.2 0 2.8-1 3.5M2084.3 95.7c-2.5.8-2.4-4 0-3v3M155 96.7c-1.7-.2-1.3-2.3 0-2.6v2.7M858.7 93.7c1-2.3 3.5 1.7 1 1.4-.3-.2-.8-1-1-1.3M1163.6 96.7c-.3-1 0-2 .6-2.7 1.2 1.3 1 2.2-.6 2.7M1476.5 93.7c.6.3 2 1 2.5 1.4-1.2 1.2-3 .3-2.5-1.3M1629.5 96.7c-1.7-.2-1.2-2.3.2-2.6 0 .7 0 2-.2 2.7M2333.2 93.7c1-2.3 3.4 1.7 1 1.4-.3-.2-.8-1-1-1.3M2638 96.7c-.3-1 0-2 .7-2.7 1.2 1.3 1 2.2-.6 2.7M2951 93.7c.6.3 2 1 2.5 1.4-1.2 1.2-3 .3-2.5-1.3M38 97.7c-1.8-1-.5-2.8 1-3 .4 1.2 0 2.2-1 3M148 94.7c1.3.4 2 1.2 1.8 2.4-1.4 0-2-.7-1.8-2.3M1512.5 98.7c-1-1.4-.3-3.2 1.4-3.5 0 1.4-.5 2.5-1.5 3.5M1622.5 94.7c1.3.4 2 1.2 1.8 2.4-1.4 0-2-.7-1.8-2.3M479.8 95.7c1.2-.4 3 .3 3.2 1.8-1.3.5-3-.4-3.2-1.8M1222.6 98.7c-.3-1.4.4-2.3 2-2.6-.2 1.5-.8 2.3-2 2.7M1954.3 95.7c1.2-.4 3 .3 3.2 1.7-1.3.5-3-.3-3.2-1.7M2697 98.7c-.2-1.4.4-2.3 2-2.6 0 1.5-.7 2.3-2 2.7M646.8 96.7c1 .3 2 1 2.8 1.8-1.2 1.5-3.5 0-2.8-1.8M747.8 98.7c3.4-.8 7-1 10.6 0h.8-12 .8M1507.5 96.7c1.4.7 2.8 1.5 4 2.4-1.6 2.6-4.4 0-4-2.3M2121.3 96.7c1 .3 2 1 2.7 1.8-1.3 1.5-3.5 0-2.7-1.8M2222.3 98.7c3.5-.8 7-1 10.7 0h.8-12 .7M2982 96.7l5 4.4-2.7.3-2.4-4.6M29.8 103.7c2-2.5 5-3.8 8-5.3-2.5 2-5.3 3.7-8 5.3M1156.6 101.7c1-1 2.4-.4 2.5 1l-2.4-1M2631 101.7c1-1 2.4-.4 2.6 1l-2.5-1M1168.6 103.7c2.7 0-.5 3.7-1 1.2l1-1.3M2643 103.7c2.8 0-.4 3.7-1 1.2l1-1.3M30.5 108.6c1.5-.5 3.6 2 1.5 2.6-1-.7-1.4-1.5-1.5-2.6M485.8 111.6c-2 .8-5.3-.5-4-3 1.5.7 2.8 1.8 4 3M1960.3 111.6c-2 .8-5.3-.5-3.8-3 1.4.8 2.7 2 3.8 3M25.3 110.6c1.4-.3 2.2.3 2.5 1.6-1.4.4-2.2 0-2.5-1.6M11 112.6c.5-1.3 1.3-2 2.7-1.8-.3 1.4-1 2-2.7 1.8M4.8 113.6c1.4-1.8 3.8-1.4 5.4-.2l-5.4.2M474.8 113.6c1.2-1.5 3.4.6 2 2-1 1.4-3.3-.7-2-2M1949.4 113.6c1-1.5 3.2.6 2 2-1.3 1.4-3.3-.7-2-2" opacity=".8"/>
      </g>
    </g>
  </g>
</svg>
