<svg viewBox="0 0 3000 300" xmlns="http://www.w3.org/2000/svg"><g style="fill:#511;fill-rule:evenodd"><path d="m1232 0h7.2c2 2.9 3.4 6.2 5.1 9.3.7-1.7 2-5.2 2.6-6.9 1.5 4.7 2 9.7 1.3 14.7.8-.2 1.6-.3 2.5-.5 2-.1 2.7-2.1 2.9-3.8 2.5-2.1 5.2-5.1 8.8-4.7 3 .6 4.2 3.8 5.9 6-1.6-.7-3.2-1.3-4.8-2 .4-1.7-1.9-4.3-3.1-2.2-1.7 2.7-3.4 5.5-4.6 8.4.2 2.9 1.5 5.7 2.3 8.5 1.6.1 3.2.2 4.9.3-.3.6-.8 1.8-1 2.3-.6 1.5-1.2 3-1.9 4.5 1.9 1.9 3.7 3.9 5.5 5.9-2 1.4-4.1 2.9-5.8 4.6.6 2.6 2.1 4.9 3.4 7.2-.4.1-1.1.4-1.5.6-1.6 1.2-3.1 2.4-4.6 3.7 1.7 1.3 3.3 2.7 5.1 3.8 1.8 1.4 4 1.2 6.2.9.4 0 1.1 0 1.4-.1 1.2 0 2.2-.4 3.1-1.3 2.6 1.9 5.6.4 8.2-.8 1.3-.5 2.6-1.4 3.6-2.4.2.2.6.6.8.9.6 1.8 2.5 3.2 4.3 2.1.4-.1 1.1-.4 1.5-.5.1-3.7.2-7.3.2-11-.4-.1-1.3-.4-1.8-.5-1.3-.3-2.4.2-3.1 1.4-3.1-1.1-6.1-2.3-8.8-4 2.3-.3 4.7-.5 7-.6-.8-1.1-1.5-2.3-2.3-3.4-2.5.4-5.1.7-7.6 1.1 3.3-3.5 7.7-6.3 9.6-11 0-.1.1-.3.2-.3.3 1.2 1.1 1.7 2.4 1.6l.7.2c2.1.8 2.2-2 1.3-3.2 0-.6-.1-2-.1-2.6 1.5.8 2.4-1.6 1-2.3-.4-.4-1.1-1.2-1.5-1.6 2.6.5 5.3 1 7.9 1.4-.1 1.4-.1 2.8-.2 4.3 2.6.4 5.6.3 8.1 1.4 1.6 2.5 2 5.6 2.8 8.4-3.3-.1-5.6-.2-8.7-.4 1.3 2.7 2.6 5.3 3.9 8-4.4-.9-10.7-.5-10.2 6 3.4-.8 6.8-1.3 10.3-1.4-.3 1.6-.5 3.2-.7 4.9-2.2.6-.9 3.6.8 1.7 1.3-1 2.6-1.9 3.9-2.9.9 3 1.6 6.1 2.4 9.2-1.6.6-3.1 1.3-4.7 1.9 4.4 1.3 8.9 1.1 13.4 1.3-.1-2.6-.1-5.2-.1-7.7-1.4-.3-2.9-.6-4.3-.9-.1-.6-.3-1.8-.4-2.4.5-.2 1.4-.5 1.9-.7.1-2.3.4-4.6.7-6.9-1.9.6-3.8 1.3-5.7 1.9.3-2.7.7-5.4 1-8 .9-1.1 1.3-3.5-.7-3.5 2.9-6.6 11.7-3.5 17.3-4.6-.5-1.7-1.1-3.4-1.6-5.1-.2-1.5-1.6-2.3-3-2.1-2.8-.1-6-.3-8.8-.5 2.1-1.4 4.3-2.8 6.6-4.1 1.3.1 2.2-.4 2.5-1.7 1.4.7 2.8 1.6 4.3 2.4-.6-3.3-3-8 1.1-10 .8 1.7 3.3.9 3.1-.9 1-.1 2-.1 3-.2 2.6 5.4 4.5 11.2 4.5 17.2 3.1-2.8 6.3-6.3 10.8-6.4 2.6.4 4.6 2.4 6.7 3.9-3.3-.3-6.5-.8-9.8-1.2-.9.8-1.7 1.6-2.5 2.4-1.5.6-.6 3 .9 2.3v.7c-1.6.6-2 1.5-1.3 2.7 4.8 1.9 9.8 3.4 14.8 4.9.8-1.3 1.5-2.5 2.3-3.8.1-.6.3-1.8.4-2.4-1.6-6.2-.8-12.6-.7-18.9 1.4.1 2-.6 2-2v-2.1c1.3.3 2-.2 2.1-1.5 5.7 2.9 11.8 5.5 15.5 11 3.6-.1 7.1-.1 10.8-.2-2.1 6.8-5.7 13-6.6 20.2-1.6.1-2.2.8-1.7 2.3.6 2 1.2 4.1 1.8 6.1.3 1.3 1.1 1.9 2.5 1.8 3.7 9 5.2 18.7 8.8 27.8 1.2 2.6 2.9 6.5 6.4 4.9 1.4-.2 2.8-.4 4.2-.7.6 1.8 1.2 3.7 1.8 5.5 0 .4-.1 1.2-.1 1.6 2.9-4.1 6.5-7.6 9.6-11.6 1.6.8 3.4.2 4.7-.9 3.6-2.3 7.2-4.6 10.6-7.3.6.3 1.3.6 1.9.9-.1 1.4.5 2.2 1.9 2.5 2.5.7 4.7 2.2 6.9 3.7 1.5 1.3 3.3 2.1 5.3 2.5.9.3 1.8.5 2.8.8-.3 1.5 1.2 2.9 2.7 2.3 2.1-.4 4.3-.6 6.5-.4-.1 1.9 2.4 3.4 3.5 1.5.2-.2.5-.6.6-.8 1.7-.6 3.3-1.3 4.8-2.2l.8-.2c.5.5 1.4 1.6 1.8 2.1-.8 3.4-1.8 6.7-2.8 10 2.2 1.4 4.4 2.8 6.7 4-.4 1.5 1.3 2.5 2.5 1.4 4.7-2 9.8-2.5 14.7-3.9 1.4 1.4 3.3 1.9 5.2 2 3.3.4 6.3 1.7 9.2 3.2-.3 2.3 2.4 4.8 4.1 2.4l.4-.5c1-.9 1.5-2.1 1.4-3.5 2.2-1 4.2-2.6 5.8-4.4.7.1 2 .3 2.7.3l.3.8c1 2.8 3.3-1.1 1-2 .7-1.3 1.4-2.6 2.2-4 3.9-.1 7.8-.1 11.7.2 1.3.2 2.1-.3 2.3-1.6 2.9.9 5.9 1.4 9 1.1 1.7.1 3.7 0 4.8-1.6 1.3.3 2.6.7 3.9 1.1.8 1.2 1.9 1.5 3.2 1.1 6.1 2 12.4 3.3 18.6 4.7.6 0 1.9.1 2.5.1 1.2-.2 2.4-.4 3.7-.6.2.6.7 1.7.9 2.2 2 1.7 4.4 3.1 7.2 2.5 2.1 0 1.1-3.1-.5-3.2.2-1.8.4-3.5.6-5.2 1.5.2 3.1.3 4.7.5 1.3.3 2.7.3 3.9-.4.3.4 1 1.2 1.3 1.6 1.4 1.9 3-1.3 1.7-2.5 1.2-1.4 2.3-2.9 3.4-4.4 2.8 2.9 5.2 6.1 7.3 9.5-.9 1.2-.8 2.3.2 3.2.7.6 1.3 1.2 2 1.7.7-.9 1.4-1.9 2.1-2.8.6.2 1.7.7 2.3 1v1c-.2 1.6.4 2.4 1.8 2.4 1.7-.1 3.3-.2 5-.6 0-.6.1-2 .2-2.6 3.3-2.1 6.6-4.2 10.4-5.4.1-.7.2-1.5.4-2.2 1.2.1 2.3-.1 3.3-.8 1-.6 2-1.2 3-1.8-.9-1.5-1.8-2.9-2.7-4.3 1.8-1.3 3.6-2.5 5.5-3.8.3 1.4.7 2.8 1 4.2.1 2 2.5.6 2.5-.8 1.1-.6 2.1-1.2 3.2-1.8 1 .9 3.8-.2 2.1-1.5-.8-.8-1.6-1.5-2.4-2.3-.2-1.4-.9-2.1-2.2-2.1.2-2.5.5-5 .7-7.5 1.9.2 3.9.5 5.9.7-.4-1.5-.7-3-1-4.5 2.5-2.3 3.9-5.4 4.8-8.6 3.1-.6 6.3-1.3 9.3-2.1 1.3.6 3.8.1 3.1-1.9 2-.2 4-.4 6.1-.6.2 1.2.4 2.4.6 3.5 3.1-1.3 6.2-2.6 9.4-3.8-.1 1.4 1.1 2.3 2.4 2.6 2 .8 4.1 1.5 6.3 2 .1.6.3 1.8.4 2.4.2.2.5.7.7 1 .3.1.9.4 1.2.5 1.3.3 2.1-.3 2.5-1.8 1.4-1.5 2.8-2.9 4.2-4.3.2.4.5 1.2.6 1.6v.9c-1.5-.5-2.4 2-.7 2.3.3.2.9.5 1.3.7l.7.4c.3-.6 1-1.9 1.3-2.6 1.6-.8 3.2-1.6 5-2.2 2.4-.5 4.9-1 7.4-1.4 5-1.1 6.6 5.3 8.3 8.8-.6.3-1.9 1-2.6 1.4l-.8-.6c-1.4-1.4-3.3.5-2.5 2 .1.6.2 1.9.3 2.6 2.3-.2 4.6-.3 6.9-.4 2 .3 4.9-.5 4.4-3.2 0-1 .1-2 .1-3 1.5-.3 3-.6 4.6-.9 1 1.4 3 1.8 4.6 1.1 1.5 1.5 2.9 3.1 4.4 4.6 1.9-3.1 3.7-6.2 6-9 .8-.8 1.3-1.7 1.6-2.8.4 0 1.3.1 1.8.2 1.4.4 2.3-.1 2.7-1.4 2 .6 4.1 1.2 6.1 1.8-.8 1.6.6 3.5 2.4 3.2 4.9.7 9.3-1.9 14-2.7 3.9-.7 7.9-1.4 11.7-2.9.2 1.3.9 1.7 2.2 1.3-.6 1.3-1.2 2.5-1.9 3.6-1.2 1 0 3.1 1.4 2.1l.6-.2c1.3-.1 2.7-.1 3.9-.9.5 1.8.9 3.8 2.3 5.2 1.5-.2 2.9-.7 4.3-1.1.7 2.6 1.3 5.2 1.9 7.8 1.6-.7 3.2-1.4 4.8-2-.7 1.7 1.6 1.8 2.4.8 3.7-2.9 8.3-2.1 12.6-1.4.2 1.5 1 2.2 2.4 2.2 2.9-.5 5.7-1.3 8.7-1.4 1.3.1 2.1-.5 2.3-1.8.2-1 .4-2.1.7-3.1 1.1.2 2.1-.1 2.9-.9.2.4.6 1.2.8 1.6.4.5 1.3 1.5 1.7 2 1 1 1.9 2 3 2.9 1.1.9 2.3.9 3.5 0 3 2.6 7 4.6 7.8 8.8 0 2.5 3 3.3 4 .8.5.1 1.4.4 1.9.5-1.3 3.6-2.1 7.4-2.5 11.2 1.5-.5 3.1-1 4.6-1.5.3-.2 1.1-.5 1.4-.7 1.4-.8 2.8-1.7 4.2-2.5 1.7-.7 2.6-2.5 2.6-4.3.5-.2 1.1-.4 1.7-.6 1.7 2.4 3.7 4.5 5.8 6.5 0-1.1 0-2.1.1-3.2-2.2-2-2.5-5.5-.4-7.6 2.9-3.7 6.5-6.8 9.4-10.6 2.5.7 5 1.4 7.4 2.4.9 1.1 2.7.7 2.9-.8 2.2-1.1 4.3-2.4 6.4-3.7.2 2.2.4 4.3.7 6.5-.1 2.1 2.5.9 2.5-.6 4.1-2.4 8.3-6.8 13.5-5-1.4.4-2.7.9-4 1.3.7 1.1 1.4 2.2 2.1 3.4-.3.2-.9.5-1.3.7-1.3 1-1.2 1.8.3 2.4 1.5-1 3-2.1 4.6-3.2h2.1c-.2 1.3.4 2.1 1.8 2.4v2.3c2.3.2 4.7.4 7 .6.3 1.7.7 3.4 1.1 5.1-.2 1.5 1.4 3.1 2.7 1.8 0 .2.1.5.2.6-.1 1-.3 2-.5 3 1.2 1.6 2.3 3.3 3.4 5-1.2.7-2 1.9-2.5 3.2-.2.4-.5 1.1-.7 1.5.9.3 1.9.5 2.8.8-.3 1.5.4 3 1 4.4v.4c.2 1.4 1.8 2.3 3.2 1.7 1.4 3.8-.6 7.6-1.7 11.3-1.5 2.6 1.7 3.9 3.8 3 .4.4 1.1 1.1 1.5 1.5-1.8.2-5.3.6-7 .8 0 .5.1 1.4.1 1.9 4 1.2 7.9 2.7 11.8 4 .9-5.1 2.3-10.6.5-15.6-.8-3-2.5-7 .6-9.3 5.2-4.4 8.8-10 12.3-15.7 1.3 1 2.9.1 4-.7 8-3.5 13-12.2 22-13.3.3 1.4 1.1 1.8 2.5 1.2 4.4-2 9.2-2.4 13.9-3 1 1.7 2.8 2.7 4.7 3 1.3.4 2.6.8 3.9 1.2.4-1 .8-2 1.3-3 1.2.3 2.4.4 3.7.3v.5c-.8 2.2 1.4 3.8 3.3 2.4 1.1 1.5 2.3 2.9 3.7 4.2 1.2 1.4 3 2.1 4.7 2.9 2.4 5.6 3.1 11.8 4.3 17.6-1.3.5-2.4 2.6-.9 3.5 5.7 5.8 15 3.7 22.3 3.8 2.9-.2 4.2-3.4 4.9-5.8-.2-.6-.7-1.7-1-2.3 1.6-2.1 3.2-4.2 4.9-6.2-.4 2.2-.7 4.3-1.1 6.5 3.8-3.7 8.4-6.9 13.9-7.2-.1-.9-.2-1.9-.2-2.8 3.5.5 7.1 1.1 9.9 3.4-.1 1.5.5 2.4 2 2.7.2 2 .4 4.1.4 6.1 5-.7 10 0 14.5 2.5-.8 1.7 1.5 3.3 2.7 1.8 1-.8 1.9-1.5 2.9-2.3-2-4.6-4.2-9.2-6.3-13.7l-.5-1.1c-.5-1.2-1-2.3-1.5-3.5.8.6 1.5 1.2 2.3 1.8 0 1.5.7 2.3 2.1 2.3h.9c.3 1.4 2.9 2 2.8 0 1.9.5 3.8 1.1 5.8 1.6-2.1-2.1-5.1-3.6-6.5-6.3-.4-3.2.4-6.3.7-9.5-3.4-3.9-6.9-7.8-10.2-11.7 3.1 2.4 6.2 4.9 9.3 7.2-.2-4 .4-8-.6-12-1.5-3-3.4-5.8-5.2-8.6 2.5 2.4 4.9 4.7 7.4 7 1-1.2 2.1-2.4 3.1-3.5-.6-2.5-.1-4.9-.5-7.4.2-2.5-2.2-4-4.4-3.6-1.7-1.8-3.4-3.4-5.1-5.2 3.2 1.7 6.4 3.4 9.6 5 .3-2.9 1.4-5.7 2-8.6.2 4.7.2 9.4.5 14 1.3-1.5 3.1-2.8 3.8-4.8.1-3.6-1-7.2-1.6-10.8 1.6 2.6 3.3 5.3 5.2 7.8l.5.6c.3-.3.8-.8 1.1-1.1.7-1.3 1.4-2.6 2.1-3.9.3-.3.8-1 1-1.3.3 1.8.5 3.6.8 5.4 3.3-2.4 5.6-5.9 6-10.2l.4-.6c-.1 2.7-.1 5.4-.1 8 1.8-.7 3.7-2.7 5.9-1.9 6 1.8 12 3 18.3 4 .2 1.3.4 2.5.7 3.8-1.4.1-2 .8-1.8 2.2 0 1.7.1 3.4.2 5.1 1.2-.7 2.4-1.5 3.7-2.2 1.1 1.1 2.6 1.8 4.1 2.2 2 .6 4.1 1.3 6.2 2 .5 8.3 2.8 16.8.3 24.9-1.4-.1-2.3.5-2.6 1.8-.6 1.6-1.2 3.3-1.7 4.9 2.1-.5 4.2-1 6.4-1.3h.6c-1.5 1.1-2.9 2.3-4.3 3.6-.1.5-.3 1.4-.4 1.9-.7 0-2.2.1-2.9.1-1.3-.2-3.6.8-2.7 2.3 2 5.3 8.3 2.1 12.3 1.4.4 1.4.9 2.8 1.3 4.3 1.7-.8 3.3-1.5 5-2.3.6.8 1.2 1.5 2 2.2 1.7 2.7 4.3-1 1-1.2l.2-.8c.8-3.5 1.7-7 2.5-10.5 1.6-.1 3-1.6 2.8-3.3.5-.1 1.5-.3 2-.5 1.3-.2 2-1 2.1-2.3l.8-.2c1.6-.1 3.1-1.2 3.2-2.9 1.3 0 2.7.1 4.1.2 1.4-3.9 3.4-7.8 2.8-12 0-2.1-2.9-1.2-3.4.1-1 1.2-2 2.3-3 3.5-2-2-4.4-3.6-6.8-5-1.5-1-3.4-.7-5-.7-.1-.2-.4-.6-.6-.8 1.3-.4 3.8-1.2 5-1.6.1-.3.2-.8.2-1.1 2.8 2.2 6.3 2.9 9.8 2.7 0-5.1-.3-10.3-1.4-15.2-.1-1.4-.9-2-2.2-1.8-.1-.5-.2-1.4-.2-1.9 1 .1 2 .3 3.1.4.1-1.5.2-2.9.4-4.3 2.5 2.9 4.8 5.9 7.2 8.8.6-3.2 1.3-6.4 2.1-9.5.3 1.6.8 4.9 1 6.6 3.1-1.7 6.2-3.4 9.3-4.9 1.6 3.2 3.9 6 6.3 8.8 0 1.5.7 2.3 2.1 2.3 1.1.1 2.1.1 3.3.1-1.2-2.5-2.6-4.9-4-7.3.5.1 1.4.4 1.8.6 1.3.5 2.1 0 2.4-1.4 1-3.6 1.8-7 2.5-10.8 1.3 0 2.7 0 4.1.1 1 .1 2-.1 3-.5.3 5.2 2.9 10 6.7 13.5-.5.8-1.1 1.6-1.6 2.4-1.2 1.2-1.2 3.1-.1 4.3-2.6 3-5.4 6.6-3.2 10.7 2.6-2.8 4.8-5.9 6.8-9 1.4.2 2.4-.5 2.8-1.9 5.5-2.6 11.5-4.1 17.6-4.8.1.5.2 1.4.3 1.8-2.4.5-4.7 1.1-7 1.6.6-1.6-1.8-2.1-2.3-.8-1.3 1.2-2.5 2.4-3.8 3.6-1-1.4-4.3-.3-2.6 1.3 1.9 2 3.9 3.9 5.3 6.3.5 1.2 1.4 1.8 2.7 1.7 1.7 1 3.4 2.1 5.1 3.1-4.2-.7-8.3-.2-12.5.1-.4-1.4-3.5-1.8-2.6.1.1.2.2.6.3.8.3 1.4 1.5 2.6 3 2.5 1 .2 2 .3 3 .5 0 1.3.6 2.1 1.9 2.4 1.3.4 2.7.9 4.1 1.3-.4 1.7 1.4 2.6 2.9 2.8l.4.3c-.5 1.4-.1 2.3 1.2 2.9l.5.2c2.1 1.4 4.2 2.8 6.4 4.2-.2.6-.4 1.8-.6 2.4.7.1 1.4.1 2.1.2 1.8.4 3.3-.8 4.7-1.7h.6c-.1.7-.2 2-.3 2.6-2.7 1.4.7 4 1.4 1.1.3-.5.8-1.4 1-1.9 1.3 2.7 1.9 6.8 5.5 7.5 3 1.2 5.7-1 7.7-3.1 0-.6-.1-1.8-.1-2.4 2-.9 4.5-1.9 6.7-2.9.7 1.6 4.4.8 2.9-1-1.6-1.9-3.7-3.4-5-5.5-.4-3.7.2-7.4.5-11 2 .1 3.2-1.7 4-3.4.6-.6 1.3-1.3 1.9-1.9 2 .5 5.1-.5 4.6-3.1-.2-1.8-.5-3.5-.7-5.3-.2-1.4-1-1.9-2.4-1.6-.1-.3-.2-.9-.3-1.2 4.3.5 6.2-2.2 4.9-5.4-.8-3.9-2.2-7.6-3.1-11.4 2.5 1.4 5.1 2.9 7.6 4.2-1.6-4-3.2-8-4.5-12-.4-1.3-1.2-1.7-2.4-1.3-.2-2.1-.3-4.2-.4-6.4 5.1.4 10.3.8 15.3 1.9-.8 1.9-1.5 3.8-2.3 5.8 1.8 1 3.6 2 5.4 3 1-2.6 2.1-5.3 3.2-7.8.2 1.5.3 2.9.5 4.4-1.4.1-2 .8-1.8 2.1.2 1.4.4 2.7.6 4 0 1.6.8 2.3 2.3 2.1.2 1.2.5 2.3.8 3.5 1.4-.7 2.9-1.5 4.4-2.2 1.6-.4 3-1.9 2.7-3.7 1.7-.9 3.3-1.8 4.9-2.8-2.8 3.8-3.8 8.5-4.1 13 5.5-1.1 11-2.8 16.7-3 .9-1.1 1.9-2.2 2.8-3.3 7.7 5.8 13.9 13.7 23 17.2.8 3.2 1.8 6.4 2.6 9.6.2.6.7 1.9.9 2.5 1.4 2.2 2.8 4.5 3.9 6.9.2 1.3 1.9 2.6 3 1.3 2.4-2.5 5.3-4.2 8.7-4.8.6-1.4 1.2-2.9 1.8-4.3 1.6.3 3.5-.7 3.4-2.5.1-.4.2-1.2.2-1.6.6 0 1.8 0 2.4.1 2.2-.7 4.4-1.1 6.7-1.4-.5-1.4-1-2.7-1.5-4.1 3.8-.9 7.4-2.5 10.3-5.1 2.9 5.8 8.3 11 7.4 17.9 3.5-3.6 5.8-8 7.3-12.8 1.7 1.7 3.5 3.4 5.3 5 0 1.5.6 2.3 2 2.4.2 0 .7.1.9.1 1-2.4 1.8-5.6 4-7.5 1.3.6 2.6 1.5 3.9 2.3-.3 1.4 2 3.1 2.4 1 .2-.5.5-1.6.7-2.1.3-.3 1-.8 1.3-1.1 3.9-1.7 8.2-2.5 11.9-4.6 0 .6-.1 1.9-.1 2.5-.6 1.9 2.1 2.6 2.9 1 .3-.4 1-1.1 1.3-1.4.4-.4 1.1-1.3 1.5-1.7.8 1.7 1.6 3.4 2.4 5.2 2-.9 4-1.8 6-2.7.3.5.9 1.6 1.2 2.1 1 1.9 2 3.8 2.9 5.8 2.1-.4 4.2-.7 6.3-.8.8 1.8 2.4 3.3 4.5 3.2 3.2.2 6.5.4 9.8.5 1.1 1.2 2.7 1.6 4.2 1.1 7.3 2.9 17 1 21.8-5.5 1.6-5.2-.5-10.6-1.6-15.7 5.1 1.5 8.4 5.8 11.9 9.5.6-1.2 1.3-2.4 1.9-3.6.3.4.8 1.1 1.1 1.4-.5 3.6-.8 7.3-1.3 10.9 3.6-1.9 7.3-3.8 11-5.5-2.7 3.6-5.5 7.3-7.8 11.3 3.9-1 7.9-2.1 11.8-3.1-.8 1-1.6 2-2.4 2.9-.2.3-.7 1-.9 1.4-.3-.3-.8-1-1-1.3-.9-2.3-3.9-.2-2 1.4-.9.5-2.8 1.4-3.8 1.9-.5.3-1.5.9-2 1.1 4.1.5 8.4 1.3 12.6 1.7-.2 2.6 3.8 3 2.8.1-.3-1.7-.5-3.4-.7-5.2.7 0 2 .2 2.7.2 4.2 1.7 8.6 2.9 13 3.7-.3.6-.5 1.1-.8 1.7-.9 1.1-1.2 2.3-.7 3.5l.3.7c5-1.6 10-3.4 15-5.3-1.2-2.4-1.8-4.8-2.9-7.2-.4-1.3-1.2-1.7-2.4-1.3 1.1-3.1 2-6.3 2.9-9.5.2-.1.6-.3.8-.4 0 1.2.6 1.9 1.9 2 1.7.5 3.4 1 5.2 1.6.1-.7.1-2.2.2-2.9 0-1.5-.7-2.1-2.2-1.8-.8-2.2-1.7-4.4-2.6-6.5-.4-1.3-1.3-1.8-2.5-1.3-.2-.7-.5-2.1-.7-2.8 2.6.9 5 2.1 7.6 2.7 2.9.4 5.3-1.6 7.5-3.2.9-.6 1.6-1.4 2-2.5 2.6 2.4 4.6 5.3 6.6 8.3 1.7-1.9 3.5-3.8 5.3-5.7 1.5.8 3.1 1.5 4.7 2.3.5.2 1.7.6 2.2.9-.9 2.5-1.6 5.1-1.4 7.7 2.4 1.1 4-1.9 3.9-4 3.1-2.3 6.5-4.2 9.6-6.5 1.7-1.1 0-3.3-1.5-3.5l.2-.3c1.3-.3 2.6-.6 3.9-.8.7 2.4 3.3.6 1.5-1v-.8c.6.1 1.7.3 2.3.4.4 0 1.2.1 1.6.1.2-2.4.2-4.8 1.1-7 2-2.3 6-3.2 8.4-.9.8 1.5.9 3.3 1.4 5 2.9.2 5.1.5 8.1.8-.4 1.9-.8 3.7-1 5.6-5.2.3-10.5 4.6-9.3 10 1.5 2 3.4 3.6 5.3 5.3.9 1 1.8 2.2 2.6 3.4-1.3.3-1.8 1.1-1.4 2.4.5 3.7 1 7.3 1.7 11-1.3-1.1-2.5-2.2-3.8-3.3.5 1.5 1 3 1.6 4.6.2 1.3 1 1.9 2.3 1.7-.1 1.8-.2 3.6-.3 5.5-.4 0-1.3 0-1.8-.1-1.2-1.4-2.4-2.8-3.6-4.1 1.1 9 3 17.8 5 26.6 1.1-.6 2.2-1.2 3.4-1.8.4.2 1.2.6 1.7.9-1.3 1.9-2.6 3.8-3.8 5.8 1.3-.4 2.6-.8 3.9-1.2 1.2-.3 1.8-1.2 1.9-2.6 1.5-2.7 2.7-5.5 3.5-8.5 1.4-.5 1.6-2.6-.1-2.9v-.6c1.3 0 2.2-.8 2.5-2.1 1.5-.1 4.4-.4 5.8-.5.4-1.1.8-2.2 1.3-3.3 1-1.1-.4-3.1-1.6-1.9-.2-.6-.4-1.2-.5-1.8 5.4-1.7 5.1-7 4.8-11.4-5.1 1.5-10.3 2.5-15.6 2.6.7-3.1 1.6-6.2 2.6-9.2.8 1.3 2.3 3.8 3 5 .8 1.2 1.7 1.2 2.7.1.6-.7 1.2-1.4 1.9-2-1.5-1.2-3.1-2.3-4.5-3.5.6-.1 1.9-.2 2.6-.3 1.3.4 2.5.8 3.8 1.2.1-.8.3-2.4.3-3.3.2-1.5-.4-2.2-1.8-2.1-2.8.6-6 .7-7.8 3.2-.5-.3-1.6-.8-2.2-1 .8-1.6 1.7-3.1 2.4-4.7 1.8.2 3.2-1.2 3.5-2.9.4-1.4.9-2.8 1.4-4.1 1.3.1 2.2-.5 2.7-1.7.9-1.6 1.8-3.2 2.9-4.8.2-.6.7-1.8 1-2.5.9-2.7 1.7-5.4 2.5-8.2-2.3-.5-4.7-1-7-1.5.2-1.4-.4-2.2-1.8-2.6-1.5-2.1-2.9-4.1-4.3-6.2 1.2 0 2.3 0 3.5.1-1.5-1.6-3.1-3.2-4.6-4.8 2-.8 4.1-1.6 6.2-2.3.6 1.5 1.4 1.8 2.6.9-.7-3.1-2.3-5.8-4-8.4h7.2c2 2.9 3.4 6.2 5.1 9.3.7-1.7 2-5.2 2.6-6.9 1.4 4.7 2 9.7 1.3 14.7.8-.2 1.6-.3 2.5-.5 1.9-.1 2.7-2.1 2.9-3.8 2.6-2.1 5.2-5.1 8.8-4.7 3 .6 4.2 3.8 5.8 6-1.6-.7-3.2-1.3-4.8-2 .4-1.7-1.9-4.3-3.1-2.2-1.7 2.7-3.4 5.5-4.6 8.4.2 2.9 1.5 5.7 2.3 8.5 1.6.1 3.2.2 4.9.3-.3.6-.8 1.8-1 2.3-.6 1.5-1.3 3-1.9 4.5 1.9 1.9 3.7 3.9 5.5 5.9-2 1.4-4.1 2.9-5.8 4.6.6 2.6 2.1 4.9 3.4 7.2-.4.1-1.1.4-1.5.6-1.6 1.2-3.1 2.4-4.6 3.7 1.7 1.3 3.3 2.7 5.2 3.8 1.8 1.4 4 1.2 6.2.9.4 0 1.1 0 1.4-.1 1.2 0 2.2-.4 3.1-1.3 2.6 1.9 5.6.4 8.2-.8 1.3-.5 2.5-1.4 3.6-2.4.2.2.6.6.8.9.5 1.8 2.4 3.2 4.3 2.1.4-.1 1.1-.4 1.4-.5.1-3.7.2-7.3.2-11-.4-.1-1.3-.4-1.8-.5-1.4-.3-2.4.2-3.2 1.4-3.1-1.1-6.1-2.3-8.8-4 2.3-.3 4.7-.5 7-.6-.8-1.1-1.6-2.3-2.3-3.4-2.6.4-5.1.7-7.6 1.1 3.3-3.5 7.7-6.3 9.6-11 .1-.1.1-.3.2-.3.3 1.2 1.1 1.7 2.4 1.6l.7.2c2.1.8 2.2-2 1.3-3.2 0-.6-.1-2-.1-2.6 1.5.8 2.4-1.6 1-2.3-.4-.4-1.1-1.2-1.5-1.6 2.6.5 5.3 1 7.9 1.4-.1 1.4-.1 2.8-.2 4.3 2.5.4 5.6.3 8.1 1.4 1.6 2.5 2 5.6 2.8 8.4-3.7-.1-5.5-.2-8.7-.4 1.3 2.7 2.5 5.3 3.9 8-4.4-.9-10.7-.5-10.2 6 3.4-.8 6.8-1.3 10.3-1.4-.3 1.6-.5 3.2-.7 4.9-2.2.6-.9 3.6.8 1.7 1.3-1 2.6-1.9 3.9-2.9.8 3 1.6 6.1 2.4 9.2-1.6.6-3.2 1.3-4.7 1.9 4.4 1.3 8.9 1.1 13.4 1.3-.1-2.6-.2-5.2-.1-7.7-1.5-.3-2.9-.6-4.3-.9-.1-.6-.3-1.8-.4-2.4.5-.2 1.4-.5 1.9-.7.1-2.3.3-4.6.7-6.9-1.9.6-3.8 1.3-5.7 1.9.3-2.7.7-5.4 1-8 .8-1.1 1.3-3.5-.7-3.5 2.9-6.6 11.6-3.5 17.3-4.6-.6-1.7-1.1-3.4-1.6-5.1-.2-1.5-1.7-2.3-3-2.1-2.8-.1-6.3-.3-8.8-.5 2.1-1.4 4.3-2.8 6.6-4.1 1.3.1 2.2-.4 2.5-1.7 1.4.7 2.8 1.6 4.3 2.4-.6-3.3-3-8 1.1-10 .8 1.7 3.3.9 3.1-.9 1-.1 2-.1 3-.2 2.6 5.4 4.5 11.2 4.5 17.2 3.1-2.8 6.3-6.3 10.8-6.4 2.6.4 4.6 2.4 6.7 3.9-3.3-.3-6.5-.8-9.8-1.2-.9.8-1.7 1.6-2.5 2.4-1.5.6-.7 3 .9 2.3v.7c-1.6.6-2 1.5-1.3 2.7 4.8 1.9 9.8 3.4 14.8 4.9.7-1.3 1.5-2.5 2.3-3.8.1-.6.3-1.8.4-2.4-1.6-6.2-.8-12.6-.7-18.9 1.4.1 2-.6 2-2v-2.1c1.2.3 1.9-.2 2.1-1.5 5.7 2.9 11.8 5.5 15.5 11 3.6-.1 7.1-.1 10.8-.2-2.1 6.8-5.8 13-6.6 20.2-1.6.1-2.2.8-1.7 2.3.6 2 1.2 4.1 1.8 6.1.3 1.3 1.1 1.9 2.5 1.8 3.7 9 5.2 18.7 8.8 27.8 1.2 2.6 2.9 6.5 6.4 4.9 1.3-.2 2.7-.4 4.2-.7.6 1.8 1.2 3.7 1.8 5.5 0 .4-.1 1.2-.1 1.6 2.9-4.1 6.5-7.6 9.6-11.6 1.6.8 3.4.2 4.7-.9 3.6-2.3 7.2-4.6 10.6-7.3.6.3 1.2.6 1.9.9-.1 1.4.5 2.2 1.9 2.5 2.5.7 4.7 2.2 6.8 3.7 1.5 1.3 3.3 2.1 5.3 2.5.9.3 1.8.5 2.8.8-.4 1.5 1.2 2.9 2.7 2.3 2.1-.4 4.3-.6 6.5-.4-.1 1.9 2.4 3.4 3.5 1.5.2-.2.5-.6.6-.8 1.6-.6 3.3-1.3 4.8-2.2l.8-.2c.5.5 1.4 1.6 1.8 2.1-.8 3.4-1.8 6.7-2.8 10 2.2 1.4 4.4 2.8 6.7 4-.4 1.5 1.3 2.5 2.5 1.4 4.7-2 9.8-2.6 14.7-3.9 1.4 1.4 3.3 2 5.2 2 3.1.3 6.4 1 8.7 3.3.8 1.5 1.6 3 2.4 4.6.9-.1 1.8-.1 2.8-.2 4.9-1.4 5.8 4.5 7.5 7.7 1.2 3.4 4.7 4.9 7.6 6.5v184h-2999v-187c.5.3 1.4.9 1.8 1.2 1.4 0 4-.2 5.4-.2h.9c1.5.2 2.4-.4 2.7-1.8 3.8-.2 7.7-.3 11.5-.6.3 1.4 1.1 2 2.5 1.6 1.4-.4 2.8-.8 4.2-1.2 2.1-.6 0-3.1-1.5-2.6-.2-1.5-.4-3-.6-4.5 2.7-1.6 5.5-3.2 7.9-5.3l.5-.4c1-.8 1.3-1.8 1-3.1 2.2-1.1 4.2-2.7 5.9-4.5.7.1 2 .3 2.7.4l.3.7c1 2.8 3.3-1.1 1-2 .7-1.3 1.5-2.6 2.2-4 3.9-.1 7.8-.1 11.6.2 1.4.2 2.1-.3 2.3-1.6 2.9.9 5.9 1.4 9 1.1 1.7.1 3.7 0 4.8-1.6 1.3.3 2.6.7 3.9 1.1.8 1.2 1.9 1.5 3.2 1.1 6.1 2.1 12.3 3.5 18.6 4.7.6 0 1.9.1 2.5.1 1.2-.2 2.4-.4 3.7-.6.2.6.7 1.7.9 2.2 2 1.7 4.4 3.1 7.2 2.5 2.1 0 1.1-3.1-.5-3.2.2-1.8.4-3.5.6-5.2 1.5.2 3.1.3 4.7.5 1.3.3 2.7.3 3.9-.4.3.4 1 1.2 1.3 1.6 1.4 1.9 3-1.3 1.7-2.5 1.2-1.4 2.3-2.9 3.4-4.4 2.8 2.9 5.2 6.1 7.3 9.5-.9 1.2-.8 2.3.2 3.2.7.6 1.3 1.2 2 1.7.7-.9 1.4-1.9 2.1-2.8.6.2 1.7.7 2.3 1v1c-.2 1.6.4 2.4 1.8 2.4 1.7-.1 3.3-.2 5-.6 0-.6.1-2 .2-2.6 3.3-2.1 6.7-4.2 10.4-5.4.1-.7.3-1.5.4-2.2 1.2.1 2.3-.1 3.3-.8 1-.6 2-1.2 3-1.8-.9-1.5-1.8-2.9-2.7-4.3 1.8-1.3 3.6-2.5 5.5-3.8.3 1.4.7 2.8 1 4.2.2 2 2.6.6 2.5-.8 1.1-.6 2.2-1.2 3.2-1.8 1.1.9 3.8-.2 2.1-1.5-.8-.8-1.6-1.5-2.4-2.3-.2-1.4-.9-2.1-2.2-2.1.2-2.5.5-5 .7-7.5 2 .2 4 .5 5.9.7-.3-1.5-.7-3-1-4.5 2.5-2.3 3.9-5.4 4.8-8.6 3.1-.6 6.2-1.3 9.3-2.1 1.3.6 3.9.1 3.1-1.9 2-.3 4.1-.4 6.1-.6.2 1.2.3 2.4.5 3.6 3.1-1.6 6.1-3.3 9.4-4.1-.1 1.4 1.1 2.4 2.3 2.8 2 .8 4.2 1.6 6.3 2.1.1.6.3 1.8.4 2.4.2.2.5.7.7.9.3.1.9.4 1.2.5 1.3.3 2.1-.3 2.5-1.8 1.4-1.5 2.8-2.9 4.2-4.3.2.4.5 1.2.6 1.6v.9c-1.5-.5-2.4 2-.7 2.3.3.2.9.5 1.3.7l.7.4c.3-.6 1-1.9 1.3-2.6 1.6-.8 3.3-1.6 5-2.2 2.5-.5 4.9-1 7.4-1.4 5-1.1 6.6 5.3 8.3 8.8-.6.3-1.9 1-2.6 1.4l-.8-.6c-1.3-1.4-3.3.5-2.5 2 .1.6.2 1.9.3 2.6 2.3-.2 4.6-.3 6.9-.4 2.1.3 4.9-.5 4.4-3.2 0-1 .1-2 .1-3 1.5-.3 3-.6 4.6-.9 1 1.4 3 1.8 4.6 1.1 1.5 1.5 2.9 3.1 4.4 4.6 1.9-3.1 3.7-6.2 6-9 .8-.8 1.4-1.7 1.6-2.8.4 0 1.3.1 1.8.2 1.4.4 2.3-.1 2.7-1.4 2 .6 4.1 1.2 6.1 1.8-.8 1.6.6 3.5 2.4 3.2 2.7.3 5.4-.1 7.9-1 5.8-2 12-2.3 17.8-4.5.2 1.3.9 1.7 2.2 1.3-.6 1.3-1.2 2.5-1.9 3.6-1.2 1 0 3.1 1.4 2.1l.6-.2c1.3-.1 2.8-.1 3.9-.9.5 1.8.9 3.8 2.3 5.2 1.5-.2 2.9-.7 4.3-1.1.7 2.6 1.3 5.2 1.9 7.8 1.6-.7 3.2-1.4 4.8-2-.6 1.7 1.6 1.8 2.4.8 3.7-2.9 8.3-2.1 12.6-1.4.2 1.5 1 2.2 2.4 2.2 2.9-.5 5.7-1.3 8.7-1.4 1.3.1 2.1-.5 2.3-1.8.2-1 .4-2.1.7-3.1 1.1.2 2.1-.1 2.9-.9.2.4.6 1.2.8 1.6.4.5 1.3 1.5 1.7 2 1 1 1.9 2 3 2.9 1.1.9 2.3.9 3.5 0 3 2.6 7 4.6 7.8 8.8.1 2.5 3 3.3 4 .8.5.1 1.4.4 1.9.5-1.4 3.6-2.1 7.4-2.5 11.2 1.5-.5 3.1-1 4.6-1.5.4-.2 1.1-.5 1.4-.7 1.4-.8 2.8-1.7 4.2-2.5 1.7-.7 2.6-2.5 2.6-4.3.6-.2 1.1-.4 1.7-.6 1.7 2.4 3.7 4.5 5.8 6.5 0-1.1.1-2.1.1-3.2-1.7-1.6-2.5-4.1-1.3-6.3 2.9-4.5 7.1-7.7 10.3-11.9 2.5.7 5 1.4 7.4 2.4 1 1.1 2.8.7 2.9-.8 2.2-1.1 4.3-2.4 6.4-3.7.2 2.2.5 4.3.7 6.5-.1 2.1 2.5.9 2.5-.6 4.1-2.4 8.3-6.8 13.5-5-1.3.4-2.7.9-4 1.3.7 1.1 1.4 2.2 2.1 3.4-.3.2-.9.5-1.3.7-1.2 1-1.1 1.8.3 2.4 1.6-1 3.1-2.1 4.6-3.2h2.1c-.2 1.3.4 2.1 1.8 2.4v2.3c2.4.2 4.7.4 7 .6.4 1.7.7 3.4 1.1 5.1-.1 1.5 1.4 3.1 2.7 1.8 0 .2.1.5.2.6-.1 1-.3 2-.5 3 1.2 1.6 2.4 3.3 3.4 5-1.2.7-2 1.9-2.5 3.2-.2.4-.6 1.1-.7 1.5.9.3 1.9.5 2.8.8-.2 1.5.4 3 1 4.4v.4c.2 1.4 1.8 2.3 3.2 1.8 1.2 3.8-.6 7.6-1.7 11.2-1.4 2.6 1.8 3.9 3.9 3.1.4.4 1.1 1.2 1.5 1.5-1.7.2-5.2.6-7 .8 0 .5.1 1.4.1 1.8 4 1.1 7.9 2.7 11.8 4 .8-3.7 1.4-7.5 1.4-11.3-.2-3.9-2.5-7.6-2-11.5 1.7-2.6 4.2-4.4 6.3-6.7 3.2-3.3 5.1-7.6 7.7-11.3 1.3 1 2.9.1 4-.7 4.4-2.5 8.7-5.3 12.4-9 2.5-2.8 6.4-3.2 9.8-4.4.3 1.4 1.1 1.8 2.5 1.2 4.4-2 9.2-2.4 13.9-3 1 1.7 2.8 2.7 4.7 3 1.3.4 2.6.8 3.9 1.2.4-1 .9-2 1.3-3 1.2.3 2.4.4 3.6.3v.5c-.8 2.2 1.4 3.8 3.3 2.4 1.1 1.5 2.3 2.9 3.7 4.2 1.3 1.4 3.1 2.1 4.8 2.9 2.8 5.5 3.1 11.7 4.4 17.6-1.4.5-2.2 2.5-.9 3.5 1.2 1.3 2.4 2.7 3.6 4 6.7-.1 13.4.1 20-.6 1.9-1.2 2.8-3.3 3.4-5.4-.2-.6-.7-1.7-1-2.3 1.6-2.1 3.2-4.2 4.9-6.2-.4 2.2-.7 4.3-1.1 6.5 3.8-3.7 8.4-6.9 13.9-7.2-.1-.9-.2-1.9-.2-2.8 3.5.5 7.1 1.1 9.9 3.4-.1 1.5.6 2.4 2 2.7.2 2 .3 4.1.4 6.1 5-2 9.9.6 14.5 2.5-.7 1.7 1.5 3.3 2.8 1.8.9-.7 1.9-1.5 2.9-2.2-2-4.6-4.1-9.2-6.2-13.8l-.5-1.1c-.5-1.2-1-2.3-1.5-3.5.8.6 1.5 1.2 2.3 1.8 0 1.5.7 2.3 2.1 2.3h.9c.4 1.4 2.9 2 2.8 0 2 .6 3.9 1.1 5.9 1.5-2.1-1.9-4.4-3.6-6.7-5.2.3-3.7.6-7.3.8-11-3.5-3.8-6.8-7.6-10-11.5 3.1 2.4 6.2 4.8 9.3 7.2 0-3 0-6-.1-8.9.1-4.6-3.5-7.9-5.6-11.7 2.3 2.3 4.6 4.7 6.9 7 1.2-1.1 2.4-2.1 3.7-3.2-.2-2.5-.5-5.1-.7-7.6.3-2.5-2.1-4.1-4.4-3.6-1.6-1.8-3.4-3.4-5.1-5.1 3.3 1.7 6.6 3.4 9.9 5 .6-2.9 1.2-5.7 1.9-8.6.1 4.7.2 9.3.4 14 1.4-1.5 3.2-2.8 3.8-4.8.2-3.6-1-7.2-1.6-10.8 1.7 2.6 3.4 5.3 5.2 7.8l.5.6c.3-.3.8-.8 1.1-1.1.7-1.3 1.4-2.6 2.1-3.9.3-.3.8-1 1-1.3.3 1.8.5 3.6.8 5.4 3.4-2.5 5.4-6.1 6.1-10.3l.3-.6c.1 3 .1 5.9.1 8.9 1.4-1 2.7-2.2 4-3.3 6.2 3 13.2 3.4 19.9 4.8.2 1.3.4 2.5.7 3.8-1.3.1-1.9.8-1.8 2.2 0 1.7.1 3.4.2 5.1 1.2-.7 2.4-1.5 3.6-2.2 1.2 1.1 2.7 1.6 4.2 2 2.4 1 5.8 1.5 6.6 4.4 1.7 7.5 1.5 15.3-.3 22.8-1.3-.3-2.2.2-2.5 1.5-.6 1.7-1.2 3.4-1.8 5 2.1-.5 4.3-1 6.4-1.3h.6c-1.5 1.1-2.9 2.3-4.3 3.6-.1.5-.3 1.4-.4 1.9-.7 0-2.1.1-2.9.1-1.2-.2-3.5.8-2.7 2.3 2 5.3 8.3 2.1 12.3 1.4.4 1.4.9 2.8 1.3 4.3 1.7-.8 3.4-1.5 5-2.3.6.8 1.3 1.5 2 2.2 1.7 2.7 4.3-1 1-1.2l.2-.8c.8-3.5 1.7-7 2.5-10.5 1.7-.1 3-1.6 2.9-3.3.5-.1 1.5-.3 2-.5 1.3-.2 2-1 2.1-2.3l.8-.2c1.6-.1 3.1-1.2 3.2-2.9 1.3 0 2.7.1 4 .2 1.4-3.9 3.4-7.8 2.8-12 0-2.1-2.9-1.2-3.4.1-1 1.1-2 2.3-3 3.4-2.1-2-4.4-3.6-6.9-5-1.5-1-3.3-.7-5-.7-.1-.2-.4-.6-.6-.8 1.3-.4 3.8-1.2 5-1.6.1-.4.3-1.2.4-1.6 1.3 1.1 2.7 2.3 4 3.5 1.9-.4 3.8-.7 5.7-1-.2-4.9-.9-9.8-1.6-14.6-.1-1.4-.8-2-2.2-1.8 0-.5-.2-1.4-.2-1.9 1 .1 2 .3 3.1.4.1-1.4.3-2.9.4-4.3 2.5 2.8 4.8 5.8 7.2 8.8.6-3.2 1.4-6.3 2.2-9.4.2 1.6.7 4.9 1 6.5 3-1.7 6.1-3.4 9.3-5 1.6 3.2 3.9 6.1 6.3 8.8 0 1.5.7 2.3 2.1 2.3 1.1.1 2.2.1 3.3.1-1.2-2.5-2.6-4.9-4-7.3.5.1 1.4.4 1.8.6 1.3.5 2.1 0 2.4-1.4 1-3.6 1.9-7 2.5-10.8 1.4 0 2.7 0 4.1.1 1 .1 2-.1 3-.5.3 5.2 2.9 10 6.7 13.5-.5.8-1.1 1.6-1.6 2.4-1.1 1.2-1.2 3.1-.1 4.3-2.6 3-5.4 6.6-3.2 10.7 2.6-2.8 4.8-5.9 6.8-9 1.5.2 2.4-.5 2.8-1.9 5.5-2.6 11.5-4.1 17.6-4.8.1.5.2 1.4.3 1.8-2.4.5-4.7 1.1-7 1.6.6-1.6-1.7-2.1-2.3-.8-1.3 1.2-2.5 2.4-3.8 3.6-1-1.4-4.3-.3-2.6 1.3 1.9 2 3.9 3.9 5.3 6.3.5 1.2 1.4 1.8 2.7 1.7 1.7 1 3.4 2.1 5.1 3.1-4.2-.7-8.3-.2-12.5.1-.4-1.4-3.5-1.8-2.6.1.1.2.2.6.3.8.3 1.4 1.5 2.6 3 2.5 1 .2 2 .3 3 .5 0 1.3.7 2.1 1.9 2.4 1.4.4 2.7.9 4.1 1.3-.4 1.7 1.4 2.6 2.9 2.8l.5.3c-.5 1.4-.1 2.3 1.2 2.8l.5.2c2.1 1.5 4.1 3 6.2 4.4.1.6.2 1.7.2 2.3.5 0 1 .1 1.5.1 1.8.4 3.3-.8 4.7-1.7h.6c-.1.7-.2 2-.3 2.6-2.6 1.4.7 4 1.4 1.1.3-.5.8-1.4 1-1.9 1.4 2.7 1.9 6.8 5.5 7.5 3 1.2 5.8-1 7.7-3.1 0-.6-.1-1.8-.1-2.4 2.2-.9 4.5-1.9 6.6-2.9.8 1.6 4.4.8 2.9-1-1.6-1.9-3.6-3.4-4.9-5.5-.7-3.7.2-7.5.4-11.2 2.1.1 3.2-1.7 4-3.4.6-.6 1.3-1.3 1.9-1.9 2 .5 5.1-.5 4.6-3.1-.2-1.8-.4-3.5-.7-5.3-.2-1.4-1-1.9-2.4-1.6-.1-.4-.3-1.1-.4-1.4 1.3-.5 3.9-1.3 5.3-1.8-.2-5.1-2.5-9.8-3.4-14.8 2.5 1.4 5.1 2.9 7.6 4.2-1.6-4-3.2-8-4.5-12-.4-1.3-1.2-1.7-2.4-1.3-.2-2.1-.3-4.2-.4-6.4 5.1.4 10.3.8 15.3 1.9-.8 1.9-1.5 3.8-2.3 5.8 1.8 1 3.6 2 5.4 3 1-2.6 2.1-5.3 3.2-7.8.2 1.5.4 2.9.5 4.4-1.4.1-2 .8-1.8 2.1.2 1.4.4 2.7.6 4 .1 1.6.8 2.3 2.3 2.1.2 1.2.5 2.3.8 3.5 1.5-.7 2.9-1.5 4.4-2.2 1.6-.4 3-1.9 2.7-3.7 1.7-.9 3.3-1.8 4.9-2.8-2.8 3.8-3.8 8.5-4.1 13 5.5-1.1 11-2.8 16.7-3 .9-1.1 1.9-2.2 2.8-3.3 7.7 5.8 13.9 13.7 23 17.2.8 3.2 1.8 6.4 2.6 9.6.2.6.7 1.9.9 2.5 1.5 2.2 2.8 4.5 3.9 6.9.3 1.3 1.9 2.6 3 1.3 2.4-2.5 5.3-4.2 8.7-4.8.6-1.4 1.2-2.9 1.9-4.3 1.6.3 3.5-.7 3.4-2.5.1-.4.2-1.2.2-1.6.6 0 1.8 0 2.4.1 2.2-.7 4.4-1.1 6.6-1.4-.5-1.4-1-2.7-1.5-4.1 3.8-.9 7.4-2.5 10.3-5.1 2.9 5.8 8.3 11 7.4 17.9 3.5-3.6 5.8-8 7.3-12.8 1.8 1.7 3.5 3.4 5.3 5 0 1.5.6 2.3 2 2.4.3 0 1 .1 1.3.1.9-2.7 1.9-5.4 3.2-7.9 1.6.6 3 1.8 4.1 3.2.3 1.3 2.5 2 2.6.2.1-.5.4-1.4.5-1.9.4-.3 1.1-.8 1.4-1 3.9-1.7 8.2-2.5 12-4.6 0 .6 0 1.9-.1 2.5-.6 1.9 2.1 2.6 2.9 1 .3-.4 1-1.1 1.4-1.4.4-.4 1.1-1.3 1.5-1.7.8 1.7 1.6 3.4 2.4 5.2 2-.9 4-1.8 6-2.7.3.5.9 1.6 1.2 2.1 1 1.9 2 3.8 2.9 5.8 2.1-.4 4.2-.7 6.3-.8.8 1.8 2.4 3.3 4.5 3.2 3.2.2 6.5.4 9.8.5 1.1 1.2 2.7 1.6 4.2 1.1 6.8 2.8 14.6 1.1 20-3.4 5.4-4.6.5-12 .1-17.7 5.1 1.6 8.4 5.8 11.9 9.5.6-1.2 1.3-2.4 1.9-3.6.3.4.8 1.1 1.1 1.4-.5 3.6-.9 7.3-1.3 10.9 3.6-1.9 7.3-3.8 11-5.5-2.7 3.6-5.5 7.3-7.8 11.2 4-1 7.9-2.1 11.8-3.1-.8 1-1.6 2-2.4 2.9-.2.3-.7 1-.9 1.4-.3-.3-.7-1-1-1.3-.9-2.3-3.9-.2-2 1.4-.9.5-2.8 1.5-3.7 2-.5.3-1.4.8-1.9 1.1 4.1.6 8.3 1.3 12.4 1.7-.1 2.6 3.8 2.8 2.8 0-.3-1.7-.5-3.4-.6-5.2.7 0 2 .2 2.7.2 4.2 1.7 8.6 2.9 13 3.7-.3.6-.5 1.1-.8 1.7-.9 1.1-1.1 2.3-.7 3.5l.3.7c4.9-1.5 9.8-3.3 14.7-5.1-1-2.4-1.8-4.8-2.7-7.2-.3-1.3-1.1-1.7-2.3-1.3 1.1-3.1 2-6.3 2.9-9.5.2-.1.6-.3.8-.4 0 1.2.7 1.9 2 2 1.7.5 3.5 1 5.2 1.6 0-.7.1-2.2.2-2.9 0-1.5-.7-2.1-2.2-1.8-.8-2.2-1.7-4.4-2.6-6.5-.4-1.3-1.3-1.8-2.5-1.3-.2-.7-.5-2.1-.6-2.8 2.5.9 5 2.1 7.6 2.7 2.9.4 5.3-1.6 7.5-3.2 1-.6 1.6-1.4 2-2.5 2.6 2.4 4.6 5.3 6.6 8.3 1.8-1.9 3.5-3.8 5.3-5.7 1.5.8 3.1 1.5 4.7 2.3.5.2 1.6.6 2.2.9-.9 2.5-1.6 5.1-1.4 7.7 2.6 1.4 3.8-2.1 4-4.1 2.6-2.9 6.2-4.4 9.5-6.5 1.9-1 .1-3.3-1.4-3.4l.2-.3c1.3-.3 2.6-.6 3.9-.8.7 2.4 3.3.6 1.5-1v-.8c.6.1 1.7.3 2.3.4.4 0 1.2.1 1.6.1.2-3.4-.1-8.5 4.4-9 4-1.5 6.5 2.5 6.4 6.1 2.8.2 5.2.5 8 .8-.4 1.9-.7 3.7-1 5.6-5.1.3-10.4 4.6-9.3 10 1.5 2 3.4 3.6 5.3 5.3 1 1 1.8 2.2 2.6 3.4-1.3.3-1.8 1-1.5 2.3.4 3.7 1 7.3 1.7 11-1.3-1.1-2.5-2.1-3.7-3.2.5 1.5 1.1 3 1.6 4.6.2 1.3 1 1.9 2.2 1.8-.1 2-.3 4.1-.5 6.1-1.8-1.6-3.5-3.2-5.3-4.8 1.5 8.9 3.2 17.7 5 26.6 1.1-.6 2.3-1.2 3.4-1.8.4.2 1.2.6 1.6.9-1.3 1.9-2.6 3.8-3.8 5.8 1.3-.4 2.6-.8 3.9-1.2 1.2-.3 1.9-1.2 1.9-2.6 1.5-2.7 2.7-5.5 3.5-8.5 1.5-.5 1.6-2.6-.1-2.9v-.6c1.4-.1 2.2-.8 2.4-2.1 1.4-.2 4.3-.5 5.7-.6.5-1.1.9-2.1 1.4-3.1 1.1-1.1-.3-3.1-1.6-1.9-.2-.6-.3-1.2-.5-1.9 5.4-1.7 5.1-7 4.8-11.4-5.1 1.5-10.3 2.5-15.6 2.6.8-3.1 1.6-6.2 2.6-9.2.8 1.3 2.3 3.8 3 5 .8 1.2 1.7 1.2 2.7.1.6-.7 1.2-1.4 1.9-2-1.5-1.2-3.1-2.3-4.5-3.5.6-.1 1.9-.2 2.6-.3 1.3.4 2.5.8 3.8 1.2.1-.8.3-2.4.4-3.2.2-1.4-.4-2.1-1.8-2-2 .2-4.8.4-6.5.6-.3.6-.9 1.9-1.2 2.6-.5-.3-1.6-.8-2.1-1.1.8-1.6 1.6-3.2 2.3-4.8 1.8.2 3.2-1.2 3.5-2.9.4-1.4.9-2.8 1.4-4.1 1.3.1 2.2-.5 2.7-1.7.9-1.6 1.8-3.2 2.9-4.8.2-.6.7-1.8 1-2.5.9-2.7 1.7-5.4 2.5-8.2-2.3-.5-4.7-1-7-1.5.3-1.4-.4-2.2-1.8-2.6-1.5-2.1-2.9-4.1-4.3-6.2 1.2 0 2.3 0 3.5.1-1.5-1.6-3.1-3.2-4.6-4.8 2-.8 4.1-1.6 6.2-2.3.6 1.5 1.5 1.8 2.6.9-.7-3.1-2.3-5.8-4-8.4m-365 14.3c-1.2 1.2.7 3.4 2 2.3 1.2-1.2-.8-3.4-2-2.3m1475 0c-1.2 1.2.7 3.4 2 2.3 1.2-1.2-.8-3.4-2-2.3m-1047 18.2c-1.3 1.3 1 3.3 2.1 1.9 1.3-1.3-1-3.2-2.1-1.9m1475 0c-1.3 1.3.9 3.3 2.1 1.9 1.3-1.3-1-3.2-2.1-1.9m-1867 2.5c-1.5 1.6 2.2 2.9 2.1.7 1.4-1.6-2.2-2.9-2.1-.7m1475 0c-1.5 1.6 2.2 2.9 2.1.7 1.4-1.6-2.3-2.9-2.1-.7m-1060 2.9c-1.9-.1-2.4.6-1.5 2.3-.4.4-1.1 1.1-1.5 1.4 2.4-.4 4.8-1 7.2-1.7-.5-1.6-1-3.1-1.5-4.7-1 .9-1.9 1.7-2.7 2.7m1475 0c-1.9-.1-2.4.6-1.5 2.3-.4.4-1.1 1.1-1.5 1.4 2.4-.4 4.8-1 7.2-1.7-.5-1.6-1-3.1-1.5-4.7-1 .9-1.9 1.7-2.7 2.7m-1926 2.1c1.4 3.6 4.7-2.4 1-1.9-1.3-1.5-3 1.7-1 1.9m1475 0c1.4 3.6 4.7-2.4 1-1.9-1.4-1.5-3.1 1.7-1 1.9m-1576 4.6c-.2 2.6-.4 5.3-.5 7.9-.4.2-1.3.7-1.7.9-1.1 1.1-2.1 2.3-3 3.5.4.4 1.2 1.3 1.6 1.8-1.9 4-.6 8.7 2.2 11.9-1.9.6.4 3.6 1.3 1.8.7-2 3.2-4.1 1.7-6.3-1-2-2.3-4-3.5-5.9 1-.5 2-1 3.1-1.4 2-.8-.7-3.7-1.9-2.1l-.5-.9c.4-.1 1.1-.3 1.4-.4 2-2.1 4.1-4.2 6.3-6.1-.8-2.7-1.6-5.5-2.3-8.2-.3.3-.8.9-1.1 1.2-1.3-1.4-4.2.4-3.1 2.1m1475 0c-.3 2.6-.4 5.3-.5 7.9-.4.2-1.3.7-1.7.9-1.1 1.1-2.1 2.3-3 3.5.4.4 1.2 1.3 1.6 1.8-1.9 4-.6 8.7 2.2 11.9-1.9.6.3 3.6 1.3 1.8.7-2 3.2-4.1 1.7-6.3-1.1-2-2.3-4-3.5-5.9 1-.5 2-1 3.1-1.4 2-.8-.7-3.7-1.9-2.1l-.5-.9c.4-.1 1.1-.3 1.4-.4 2-2.1 4.1-4.2 6.3-6.1-.8-2.7-1.6-5.5-2.3-8.2-.3.3-.8.9-1.1 1.2-1.3-1.4-4.2.4-3.1 2.1m-1053-1.8l.7.4c-.6 1.6-1.2 3.1-1.7 4.7 1.3-.2 2.7-.4 4.1-.7.6-1.4 1-2.8 1.6-4.3-1.6-.1-3.1-.1-4.6-.2m1475 0l.7.4c-.6 1.6-1.2 3.1-1.7 4.7 1.3-.2 2.7-.4 4.1-.7.5-1.4 1-2.8 1.6-4.3-1.6-.1-3.1-.1-4.6-.2m-1310 6.1c-.1 1.4-.1 2.7-.1 4.1 1.6-.2 4.9-.6 6.5-.7-.3-.4-1-1.1-1.3-1.5 1.2-1.1 1.1-2-.4-2.7l.5-1.1c-1.5.3-2.9.5-4.3.9-.5-2.7-3.7.8-1 1m1475 0c-.1 1.4-.1 2.7-.1 4.1 1.6-.2 4.9-.6 6.5-.7-.3-.4-1-1.1-1.3-1.5 1.2-1.1 1.1-2-.4-2.7l.5-1.1c-1.5.3-2.9.5-4.3.9-.5-2.7-3.8.8-1 1m-1637-1.9c-.5 3.1.6 5.7 3.8 6.6.1-1 .3-3.1.4-4.1-.4-1.6-1.3-1.8-2.5-.8-.4-.4-1.3-1.2-1.7-1.6m1475 0c-.5 3.1.6 5.7 3.8 6.6.1-1 .3-3.1.4-4.1-.4-1.6-1.3-1.8-2.5-.8-.4-.4-1.3-1.2-1.7-1.6m-1891 7.2c2.4-.2.4-4-1.1-2.1-2.7-.1-.1 4.6 1.1 2.1m1475 0c2.4-.2.3-4-1.1-2.1-2.8-.1-.1 4.6 1.1 2.1m-1453 0c-1.7.3-.9 2.9.7 2.6 1.6-.3.8-2.9-.7-2.6m1475 0c-1.7.3-.9 2.9.7 2.6 1.6-.3.8-2.9-.7-2.6m-1957 .8c-.3.6-.8 1.7-1 2.3.3.5.9 1.4 1.2 1.9l-.5.6c-2.3 1.3 2.2 3.6 2 1l.5-.9c1.6 1.2 3.9-1.5 2.5-2.9l.6-.4c-1.7-.5-3.5-1.1-5.2-1.6m1475 0c-.3.6-.8 1.7-1 2.3.3.5.9 1.4 1.2 1.9l-.5.6c-2.4 1.3 2.1 3.6 2 1l.5-.9c1.6 1.2 3.8-1.5 2.5-2.9l.6-.4c-1.8-.5-3.5-1.1-5.2-1.6m-1131 5c-1.6 1.3 1.6 3.2 1.9 1.1 2.6-1.1-2-3.9-1.9-1.1m1475 0c-1.6 1.3 1.6 3.2 1.9 1.1 2.6-1.1-2-3.9-1.9-1.1m-948 2.4c2.5-.8-.5-4.3-1.8-2.2-2.9.5.8 4.9 1.8 2.2m1475 0c2.4-.8-.5-4.3-1.8-2.2-2.9.5.7 4.9 1.8 2.2m-2000 1.3c0 .8-.1 2.3-.1 3.1.8 0 2.3.1 3.1.2-.3-1.4-.6-2.9-.9-4.3v.8c-.5.1-1.6.2-2.1.3m670-.5c-1.5 1 .2 3.5 1.6 2.4 1.5-1-.2-3.5-1.6-2.4m3.5 4.7c1.4-.4 2.8-.8 4.3-1.2 0-1.3.1-2.7.1-4-1.5 1.7-3 3.5-4.4 5.2m802-4.2c0 .8-.1 2.3-.1 3.1.8 0 2.3.1 3.1.2-.3-1.4-.6-2.9-.9-4.3v.8c-.5.1-1.6.2-2.1.3m670-.5c-1.5 1 .1 3.5 1.6 2.4 1.4-1-.2-3.5-1.6-2.4m3.5 4.7c1.4-.4 2.8-.8 4.3-1.2 0-1.3.1-2.7.1-4-1.5 1.7-3 3.5-4.4 5.2m-2545-1.5c-1.2.8.1 2.9 1.3 1.9 1.2-.8-.2-2.9-1.3-1.9m1475 0c-1.2.8.1 2.9 1.3 1.9 1.2-.8-.2-2.9-1.3-1.9m-929 4.8c.1 2.4 4.8 2.3 4.8-.1-.3-1.4-.6-2.8-.9-4.1-1.4 1.3-2.8 2.6-3.9 4.2m1475 0c.1 2.4 4.8 2.3 4.8-.1-.3-1.4-.6-2.8-.9-4.1-1.4 1.3-2.9 2.6-3.9 4.2m-1852-2.4c.6 2.2 1.1 4.5 1.7 6.7 1.2-2.1 1.9-4.4 2.9-6.6-1.5 0-3.1-.1-4.6-.1m1475 0c.6 2.2 1.1 4.5 1.7 6.7 1.2-2.1 1.9-4.4 2.8-6.6-1.5 0-3.1-.1-4.6-.1m-1154 .5c1.6 5.8-.4 11.8.4 17.5-.3.6-.8 1.9-1 2.5h-.8c-1.2 1.5 2.2 2.7 2.1.8.4.2 1 .7 1.4.9-.6-7.4 4-14 3.6-20.9-1.4-.2-4.3-.6-5.7-.8m365 2.1l-.6-.2c.6 1.4 1.2 2.7 1.9 4 1.6-.8 3.2-1.5 4.7-2.4.1.9.3 2.5.4 3.4.5-2.2.8-4.5 1-6.8-1.9.5-5.6 1.5-7.5 2m1110-2.1c1.5 5.8-.4 11.8.4 17.5-.3.6-.8 1.9-1 2.5h-.8c-1.2 1.5 2.1 2.7 2.1.8.3.2 1.1.7 1.4.9-.6-7.4 4-14 3.6-20.9-1.4-.2-4.3-.6-5.7-.8m365 2.1l-.6-.2c.6 1.4 1.2 2.7 1.9 4 1.6-.8 3.2-1.5 4.7-2.4.1.9.3 2.5.4 3.4.5-2.2.8-4.5 1-6.8-1.9.5-5.6 1.5-7.4 2m-1450 1.7c-1.4.9.1 3.2 1.4 2.2 1.4-.9-.1-3.2-1.4-2.2m6.9.8l.7.6c-1.3.8-1.1 3.1.2 3.7-.3.4-.9 1.1-1.2 1.5 1.8-.4 3.6-.8 5.4-1.2-.1.4-.3 1.3-.4 1.7-3.1 1.1-5.2 3.6-6.2 6.7-.3 1.9 3.6 1.6 3.2-.2h1.6c-.2 2 4.1 2.3 4 .3 2.2.3 4.4.6 6.6.9 1.1-2.4 2.2-4.7 3.3-7-2.5 1.2-5.1 2.3-7.7 3.4 1-3.6 2.5-7 4.5-10-1.4.2-2.8.4-4.2.5l.6-.8c-1.5.6-3 1.2-4.5 1.8.2-1 .5-2 .8-3-2.3.4-4.5.9-6.7 1.3m1468-.8c-1.4.9 0 3.2 1.4 2.2 1.4-.9-.1-3.2-1.4-2.2m6.9.8l.7.6c-1.3.8-1.1 3.1.2 3.7-.3.4-.9 1.1-1.2 1.5 1.8-.4 3.6-.8 5.4-1.2-.1.4-.3 1.3-.4 1.7-3.1 1.1-5.2 3.6-6.2 6.7-.3 1.9 3.6 1.6 3.2-.2h1.6c-.2 2 4 2.3 4 .3 2.2.3 4.4.6 6.6.9 1.1-2.4 2.2-4.7 3.3-7-2.6 1.2-5.1 2.3-7.7 3.4 1-3.6 2.5-7 4.5-10-1.4.2-2.8.4-4.2.5l.6-.8c-1.6.6-3 1.2-4.5 1.8.2-1 .5-2 .8-3-2.3.4-4.5.9-6.7 1.3m-1873 2.4c-1.3-1.2-3.6.9-2.4 2.3-1.8 1-3.6 2-5.4 3 1.5 2.1 3.4 4.1 5.4 5.8 2.1-4.2 3.7-8.6 4-13.3-.4.5-1.2 1.6-1.6 2.2m20.4-2c-.2 1.9-.7 5.6-.9 7.4 1.2.5 2.4 1 3.6 1.4-.2-1.5-.5-4.6-.6-6.2.4-1.7-.2-2.4-1.9-2l-.2-.7m1455 2c-1.3-1.2-3.7.9-2.4 2.3-1.8 1-3.6 2-5.4 3 1.5 2.1 3.4 4.1 5.4 5.8 2.1-4.2 3.7-8.6 4-13.3-.4.5-1.2 1.6-1.6 2.2m20.4-2c-.2 1.9-.7 5.6-.9 7.4 1.2.5 2.4 1 3.6 1.4-.2-1.5-.5-4.6-.6-6.2.4-1.7-.2-2.4-1.9-2l-.2-.7m-1107 1.8c-1.6 0-1.8 2.7-.1 2.7 1.6.1 1.7-2.7.1-2.7m1475 0c-1.7 0-1.8 2.7-.1 2.7 1.6.1 1.7-2.7.1-2.7m-1403 5.7c1.8.4 3.7.9 5.6 1.1.6 2.7 3.6-1.1.9-1.2.1-.8.3-2.5.4-3.3.5-1.7-2.5-2.4-3.3-1-2.7-2.4-2.6 2.8-3.6 4.4m1475 0c1.8.4 3.7.9 5.6 1.1.6 2.7 3.6-1.1.9-1.2.1-.8.3-2.5.4-3.3.4-1.7-2.6-2.4-3.3-1-2.8-2.4-2.7 2.8-3.6 4.4m-2435-3c-2.6 1.2 2.1 3.9 1.9 1 1.6-1.3-1.7-3.1-1.9-1m1475 0c-2.6 1.2 2 3.9 1.9 1 1.6-1.3-1.7-3.1-1.9-1m-1150 3.3c-1.5 1 .2 3.5 1.6 2.4 1.5-1-.2-3.5-1.6-2.4m1475 0c-1.5 1 .1 3.5 1.6 2.4 1.5-1-.2-3.5-1.6-2.4m-1340 1c-1.5-.5-2.6 2-.9 2.5 1.5.5 2.6-2 .9-2.5m457 4.9c-1.4-1.8-3.9 1.5-1.7 2.2-1.1 1.2-2.2 2.4-3.3 3.5-2.3-1.2-4.9-2.2-7.3-3.1-.8.8-1.6 1.6-2.3 2.5 2.4 2.2 4.5 4.7 4.6 8 1.6.3 3.2.6 4.8.6.6.2 1.9.7 2.5.9 1.8 3.1 5.7 2.6 8.9 2.5.5 2.6 3.7-1 1-1.2.2-2.9.1-5.8-.1-8.7-1.5 1.5-2.9 3.1-4.3 4.7-.2-.8-.5-2.4-.7-3.2 1.6-.5 1.8-1.5.6-2.7 2.5-3.4 1.8-7.8 1.8-11.7-1.6 1.8-3.2 3.7-4.4 5.7m1018-4.9c-1.5-.5-2.6 2-.9 2.5 1.4.5 2.5-2 .9-2.5m457 4.9c-1.4-1.8-3.9 1.5-1.7 2.2-1.1 1.2-2.2 2.4-3.3 3.5-2.3-1.2-5-2.2-7.3-3.1-.8.8-1.6 1.6-2.3 2.5 2.4 2.2 4.5 4.7 4.6 8 1.6.3 3.2.6 4.8.6.6.2 1.9.7 2.5.9 1.8 3.1 5.5 2.6 8.9 2.5.5 2.6 3.6-1 1-1.2.1-2.9.1-5.8-.1-8.7-1.5 1.5-2.9 3.1-4.3 4.7-.2-.8-.5-2.4-.7-3.2 1.6-.5 1.8-1.5.6-2.7 2.5-3.4 1.8-7.8 1.8-11.7-1.6 1.8-3.2 3.7-4.4 5.7m-1986-4.6c1.4 3.6 2.9 7.2 4.4 10.8 1.7-.8 3.4-1.6 5.1-2.4-2.5-3.5-5.6-6.6-9.6-8.4m1475 0c1.3 3.6 2.9 7.2 4.4 10.8 1.7-.8 3.4-1.6 5.1-2.4-2.5-3.5-5.6-6.6-9.6-8.4m-921 1.1c0 .8.1 2.5.1 3.3 2.6.4 5.1.7 7.7.9-1.8-2.6-5-3.4-7.8-4.2m1475 0c0 .8.1 2.5.1 3.3 2.5.4 5.1.7 7.7.9-1.8-2.6-5-3.4-7.8-4.2m-1943 4.1c2.1 1.6 3.4-3 .8-2.8-1.9-1.2-3.1 2.9-.8 2.8m1475 0c2.1 1.6 3.4-3 .8-2.8-1.9-1.2-3.1 2.9-.8 2.8m-1501-2.3c-.5 1.5-.9 3-1.4 4.5 1.6-.8 3.1-1.5 4.7-2.3-1.1-.7-2.3-1.4-3.3-2.2m1475 0c-.5 1.5-1 3-1.4 4.5 1.6-.8 3.1-1.5 4.7-2.3-1.2-.7-2.3-1.4-3.3-2.2m-1429 8c-2.1 1.7-4.7 2.7-6.8 4.5h-.7c3 0 9 0 12-.1h-.8c1.4-3.8 2.2-7.8.7-11.7-1.6 2.3-2.8 5-4.5 7.2m1476-1.7c-1.6 3.2-5.5 4-8 6.2h-.7c3 0 9 0 12-.1h-.8c1.4-3.8 2.2-7.8.7-11.7-1.2 1.8-2.2 3.6-3.3 5.5m-1099-2c-.2 2.1 3.5.8 2.1-.7.1-2.1-3.5-.8-2.1.7m1475 0c-.2 2.1 3.5.8 2.1-.7.1-2.1-3.5-.8-2.1.7m-1870-.4c0 1.7 0 3.5.1 5.2 1.2-1 4-1.1 3.7-3.2-1.2-.8-2.5-1.4-3.8-2m1475 0c0 1.7 0 3.5.1 5.2 1.2-1 4-1.1 3.7-3.2-1.3-.8-2.5-1.4-3.8-2m-1600 5.7c2.4.9 2.4-3.7 0-3.1-2.4-.8-2.5 3.9 0 3.1m1475 0c2.4.9 2.4-3.7 0-3.1-2.5-.8-2.5 3.9 0 3.1m-1448-2.1c-1.9.4-1.3 3.6.7 2.9 1.9-.4 1.3-3.6-.7-2.9m222 .4c-1.6 1.3-2.8 3-3.6 4.8 1.8-.7 3.6-1.4 5.4-2.3l-.9-1.2c2.6.3.1-3.7-.9-1.4m1253-.4c-1.9.4-1.3 3.6.7 2.9 1.9-.4 1.3-3.6-.7-2.9m222 .4c-1.6 1.3-2.8 3-3.6 4.8 1.8-.7 3.6-1.4 5.4-2.3l-.9-1.2c2.6.3.1-3.7-.9-1.4m-1691 2.1c-1.2 1.3 1.1 3.3 2.3 2 1.2-1.3-1.1-3.2-2.3-2m1475 0c-1.2 1.3 1 3.3 2.3 2 1.1-1.3-1.1-3.2-2.3-2m-1641 17.6c-1.3 1.2.9 3.4 2 1.9 1.3-1.3-.8-3.3-2-1.9m1475 0c-1.3 1.2.8 3.4 2 1.9 1.3-1.3-.8-3.3-2-1.9" id="0"/><path d="m1225 13c1.3.7 1.3 1.4 0 2-1.3-.7-1.3-1.3 0-2" id="1"/><path d="m2699 13c1.3.7 1.3 1.4 0 2-1.3-.7-1.3-1.3 0-2" id="2"/><path d="m854 20.4c1.5-.1 1.4 2.4 0 2.4-1.5.1-1.4-2.3 0-2.4" id="3"/><path d="m2328 20.4c1.5-.1 1.4 2.4 0 2.4-1.5.1-1.4-2.3 0-2.4" id="4"/><path d="m1229 23.9c3.3.9 7.1 1.1 9 4.2-1-.2-2.9-.5-3.9-.6-1.1-.3-2.3-.5-3.4-.4-.6-1-1.3-2.1-1.9-3.1" id="5"/><path d="m2703 23.9c3.2.9 7.1 1.1 9 4.2-1-.2-2.9-.5-3.9-.6-1.2-.3-2.3-.5-3.4-.4-.7-1-1.3-2.1-1.9-3.1" id="6"/><path d="m666 27.9l.8-.2c.1.7.4 2 .5 2.7l-.7.2c-.1-.7-.4-2-.5-2.7" id="7"/><path d="m1276 29.4c1.7-.4 5-1.1 6.6-1.5-2.3 1.4-4.7 2.6-7 4-.4-.4-1.3-1.3-1.7-1.8.5-.2 1.6-.6 2.1-.8" id="8"/><path d="m2140 27.9l.8-.2c.1.7.4 2 .5 2.7l-.7.2c-.1-.7-.4-2-.5-2.7" id="9"/><path d="m2750 29.4c1.7-.4 5-1.1 6.6-1.5-2.3 1.4-4.8 2.6-7 4-.4-.4-1.3-1.3-1.7-1.8.5-.2 1.6-.6 2.1-.8" id="A"/><path d="m1229 33.9c2.2-1.2 4.5-2.3 6.8-3.4 0 .9-.1 2.6-.1 3.4-1.5.2-3.1.4-4.6.4-.5-.1-1.6-.4-2.1-.5" id="B"/><path d="m2703 33.9c2.2-1.2 4.5-2.3 6.8-3.4 0 .9-.1 2.6-.1 3.4-1.5.2-3.1.4-4.6.4-.5-.1-1.6-.4-2.1-.5" id="C"/><path d="m1180 31.9c1.3.7 1.3 1.4 0 2-1.3-.7-1.3-1.3 0-2" id="D"/><path d="m2654 31.9c1.3.7 1.3 1.4 0 2-1.3-.7-1.3-1.3 0-2" id="E"/><path d="m1227 35.5l.2-.6c.1.3.3 1 .4 1.3.4 1.2.8 2.4 1.2 3.6-1.3-.4-2.9-.3-3.9.7-1.6 1.1-3 2.5-4.7 3.5-2.7 0-5.3-1.1-7.8-1.9 0-.8-.1-2.5-.1-3.4 4.1-.6 8.2-1.2 12.4-1.7 1.1.1 1.9-.5 2.2-1.5" id="F"/><path d="m2701 35.5l.2-.6c.1.3.3 1 .4 1.3.3 1.2.8 2.4 1.2 3.6-1.4-.4-2.9-.3-3.9.7-1.6 1.1-3 2.5-4.6 3.5-2.7 0-5.3-1.1-7.8-1.9 0-.8-.1-2.5-.1-3.4 4.1-.6 8.2-1.2 12.4-1.7 1.1.1 1.8-.5 2.2-1.5" id="G"/><path d="m1115 37.9c1.8.5.5 3.2-1 2.7-1.8-.5-.6-3.2 1-2.7" id="H"/><path d="m2589 37.9c1.8.5.5 3.2-1.1 2.7-1.9-.5-.6-3.2 1.1-2.7" id="I"/><path d="m1270 42.9c-.7 3.1-5-1.1-1.9-1.9.2 1 .8 1.6 1.9 1.9" id="J"/><path d="m2744 42.9c-.7 3.1-5-1.1-1.8-1.9.2 1 .8 1.6 1.8 1.9" id="K"/><path d="m1110 41.8c1.6-.7 2.5 2 .8 2.4-1.6.7-2.5-1.9-.8-2.4" id="L"/><path d="m2584 41.8c1.5-.7 2.5 2 .8 2.4-1.6.7-2.5-1.9-.8-2.4" id="M"/><path d="m1140 43.9c4-.8-.9 4 0 0" id="N"/><path d="m2614 43.9c4-.8-.9 4 0 0" id="O"/><path d="m1107 44.9c1.6-.5 2.2 0 1.7 1.7-1.6.5-2.2 0-1.7-1.7" id="P"/><path d="m2581 44.9c1.6-.5 2.2 0 1.7 1.7-1.7.5-2.2 0-1.7-1.7" id="Q"/><path d="m335 51.8c2.7.1 5.1 1.4 6 4.1-1.2-.5-2.3-1.1-3.4-1.8-.3-1-.9-1.7-1.9-2l-.8-.3" id="R"/><path d="m1809 51.8c2.7.1 5.1 1.4 6 4.1-1.2-.5-2.3-1.1-3.4-1.8-.3-1-1-1.7-1.9-2l-.8-.3" id="S"/><path d="m736 59c-1.7 2.8-4-2.5-.7-1.3.2.3.5.9.7 1.3" id="T"/><path d="m2210 59c-1.7 2.8-4-2.5-.7-1.3.2.3.5.9.7 1.3" id="U"/><path d="m722 71c.5-.3 1.4-.9 1.8-1.2l.6.4c.2 1.3-.4 1.9-1.6 1.8-.2-.3-.5-.7-.7-1" id="V"/><path d="m2196 71c.4-.3 1.3-.9 1.8-1.2l.6.4c.2 1.3-.4 1.9-1.6 1.8-.2-.3-.6-.7-.7-1" id="W"/><path d="m169 73c4-.8-.8 4 0 0" id="X"/><path d="m1643 73c4-.8-.9 4 0 0" id="Y"/><path d="m1455 76c1.3.7 1.3 1.3 0 2-1.3-.7-1.3-1.3 0-2" id="Z"/><path d="m2929 76c1.3.7 1.3 1.3 0 2-1.3-.7-1.3-1.3 0-2" id="a"/><path d="m715 79c1.4-.2 2.8-.4 4.2-.2.3.2.8.5 1 .7-1.6.5-3.2.8-4.8.9-.1-.3-.3-1-.5-1.4" id="b"/><path d="m2189 79c1.4-.2 2.8-.4 4.2-.2.3.2.8.5 1 .7-1.6.5-3.2.8-4.8.9-.1-.3-.3-1-.5-1.4" id="c"/><path d="m486 105c1.4-.4 1.9 0 1.5 1.4-1.4.4-1.9 0-1.5-1.4" id="d"/><path d="m1960 105c1.4-.4 1.9 0 1.4 1.4-1.4.4-1.9 0-1.4-1.4" id="e"/><path d="m1363 8c0-1.5.7-2 2.1-1.5-.2 1.3-.9 1.8-2.1 1.5" id="f" style="opacity:.8"/><path d="m2837 8c0-1.5.7-2 2.1-1.5-.2 1.3-.9 1.8-2.1 1.5" id="g" style="opacity:.8"/><path d="m1234 7.5c1.2-.5 2-.2 2.6.9-1.2.9-2.1.6-2.6-.9" id="h" style="opacity:.8"/><path d="m2708 7.5c1.1-.5 2-.2 2.6.9-1.2.9-2.1.6-2.6-.9" id="i" style="opacity:.8"/><path d="m1261 9.8c1.2-2.1 3.5.5 3.1 2.2-1.2-.5-2.3-1.1-3.1-2.2" id="j" style="opacity:.8"/><path d="m2735 9.8c1.2-2.1 3.5.5 3.1 2.2-1.2-.5-2.4-1.1-3.1-2.2" id="k" style="opacity:.8"/><path d="m1361 12c0-1.4.6-2.1 2-2 0 1.4-.6 2.1-2 2" id="l" style="opacity:.8"/><path d="m2835 12c-.1-1.4.6-2.1 2-2 0 1.4-.7 2.1-2 2" id="m" style="opacity:.8"/><path d="m1329 11.7c.9-.7 1.9-1.1 3.1-.9.2 1.8-2.3 2.6-3.1.9" id="n" style="opacity:.8"/><path d="m2803 11.7c.8-.7 1.9-1.1 3.1-.9.2 1.8-2.3 2.6-3.1.9" id="o" style="opacity:.8"/><path d="m1251 16.4c-.2-1.8 1.5-2.9 2.9-3.8-.2 1.7-.9 3.7-2.9 3.8" id="p" style="opacity:.8"/><path d="m2725 16.4c-.2-1.8 1.4-2.9 2.9-3.8-.2 1.7-.9 3.7-2.9 3.8" id="q" style="opacity:.8"/><path d="m859 15.9c1.3-.4 2.1 0 2.4 1.3-1.4.5-2.2.1-2.4-1.3" id="r" style="opacity:.8"/><path d="m2333 15.9c1.3-.4 2.1 0 2.4 1.3-1.4.5-2.3.1-2.4-1.3" id="s" style="opacity:.8"/><path d="m879 18.9c-.3-1.4.3-2.1 1.8-2.1.2 1.4-.4 2.1-1.8 2.1" id="t" style="opacity:.8"/><path d="m2353 18.9c-.3-1.4.3-2.1 1.8-2.1.2 1.4-.4 2.1-1.8 2.1" id="u" style="opacity:.8"/><path d="m1321 20.9c.3-1.6 1.1-2.1 2.5-1.7-.3 1.2-1.1 1.8-2.5 1.7" id="v" style="opacity:.8"/><path d="m2795 20.9c.3-1.6 1.1-2.1 2.5-1.7-.3 1.2-1.1 1.8-2.5 1.7" id="w" style="opacity:.8"/><path d="m678 21.9c-3.3-.7.3-4.3.3-.6l-.3.6" id="x" style="opacity:.8"/><path d="m784 22.5c-.2-2.3 3.2-3.3 3-.5-1 .4-2 .6-3 .5" id="y" style="opacity:.8"/><path d="m2152 22c-3.1-1.5.7-4.2.4-.6l-.4.6" id="z" style="opacity:.8"/><path d="m2258 22.5c-.2-2.3 3.2-3.3 3-.5-1 .4-2 .6-3 .5" id="10" style="opacity:.8"/><path d="m1233 20.7c1.5.4 2.1 1.2 1.8 2.6-1.3-.3-1.9-1.2-1.8-2.6" id="11" style="opacity:.8"/><path d="m2707 20.7c1.4.4 2 1.2 1.8 2.6-1.3-.3-1.9-1.2-1.8-2.6" id="12" style="opacity:.8"/><path d="m880 22.9c1.3.1 2.1.9 2.3 2.1-1.5.1-2.2-.6-2.3-2.1" id="13" style="opacity:.8"/><path d="m887 26.4c-.1-1.8 1.2-3.1 2.7-3.7.3 1.8-1.1 3.3-2.7 3.7" id="14" style="opacity:.8"/><path d="m2354 22.9c1.3.1 2.1.9 2.3 2.1-1.5.1-2.3-.6-2.3-2.1" id="15" style="opacity:.8"/><path d="m2361 26.4c-.2-1.8 1.1-3.1 2.7-3.7.2 1.8-1.1 3.3-2.7 3.7" id="16" style="opacity:.8"/><path d="m1290 23.8c1.4.7.5 3-1 2.3.3-.6.8-1.7 1-2.3" id="17" style="opacity:.8"/><path d="m2764 23.8c1.4.7.4 3-1 2.3.3-.6.8-1.7 1-2.3" id="18" style="opacity:.8"/><path d="m666 27.9c-2.6-2.2 1.5-3.4.8-.2l-.8.2" id="19" style="opacity:.8"/><path d="m670 28c-2-1.3.8-4.2 1-1.3-.3.3-.8 1-1 1.3" id="1A" style="opacity:.8"/><path d="m1197 27.9c-.5-2.6 3.2-1.8 2.3.4-.6-.1-1.7-.3-2.3-.4" id="1B" style="opacity:.8"/><path d="m1323 25.7c1.4-.2 2.8.7 3 2.1-1.4.4-2.9-.7-3-2.1" id="1C" style="opacity:.8"/><path d="m2140 27.9c-2.6-2.2 1.5-3.4.8-.2l-.8.2" id="1D" style="opacity:.8"/><path d="m2144 28c-2-1.3.8-4.2 1-1.3-.3.3-.8 1-1 1.3" id="1E" style="opacity:.8"/><path d="m2671 27.9c-.5-2.6 3.2-1.8 2.3.4-.6-.1-1.7-.3-2.3-.4" id="1F" style="opacity:.8"/><path d="m2797 25.7c1.3-.2 2.8.7 3 2.1-1.4.4-3-.7-3-2.1" id="1G" style="opacity:.8"/><path d="m1231 26.9c1.1 0 2.2.2 3.4.4.2 2.3-4.3 1.6-3.4-.4" id="1H" style="opacity:.8"/><path d="m1263 26.9c3.1-.3 1.2 3.9-1 2.3.3-.6.8-1.8 1-2.3" id="1I" style="opacity:.8"/><path d="m1346 28.9c-1.5.7-2.4-1.7-.9-2.3.2.6.7 1.7.9 2.3" id="1J" style="opacity:.8"/><path d="m2705 26.9c1.1 0 2.2.2 3.4.4.2 2.3-4.3 1.6-3.4-.4" id="1K" style="opacity:.8"/><path d="m2737 26.9c3-.3 1.2 3.9-1 2.3.3-.6.8-1.8 1-2.3" id="1L" style="opacity:.8"/><path d="m2820 28.9c-1.6.7-2.4-1.7-.9-2.3.2.6.7 1.7.9 2.3" id="1M" style="opacity:.8"/><path d="m1197 28.6c1.9 1.6-.8 3.3-1.5 1 .4-.2 1.1-.7 1.5-1" id="1N" style="opacity:.8"/><path d="m1274 29.9c-1.6-1.4 1.9-2.7 2.1-.8-.5.2-1.6.6-2.1.8" id="1O" style="opacity:.8"/><path d="m1289 28.6c.9 1.2.8 4-1.3 3.2 0-1.2.5-2.3 1.3-3.2" id="1P" style="opacity:.8"/><path d="m2671 28.6c1.8 1.6-.8 3.3-1.5 1 .4-.2 1.1-.7 1.5-1" id="1Q" style="opacity:.8"/><path d="m2748 29.9c-1.6-1.4 1.9-2.7 2.1-.8-.5.2-1.6.6-2.1.8" id="1R" style="opacity:.8"/><path d="m2763 28.6c.9 1.2.8 4-1.3 3.2 0-1.2.4-2.3 1.3-3.2" id="1S" style="opacity:.8"/><path d="m1285 29.9c1.2-.6 2-.1 2.4 1.6-1.3.1-2.1-.4-2.4-1.6" id="1T" style="opacity:.8"/><path d="m1344 31.9c-.8-1.2-.3-2.1 1.3-2.7.3 1.3-.2 2.2-1.3 2.7" id="1U" style="opacity:.8"/><path d="m2759 29.9c1.2-.6 2-.1 2.4 1.6-1.3.1-2.2-.4-2.4-1.6" id="1V" style="opacity:.8"/><path d="m2818 31.9c-.8-1.2-.3-2.1 1.3-2.7.3 1.3-.2 2.2-1.3 2.7" id="1W" style="opacity:.8"/><path d="m666 30.9l.7-.2c.2.4.5 1.1.6 1.5-.3.3-.9.8-1.1 1.1l-.5-.6c.1-.5.2-1.4.2-1.9" id="1X" style="opacity:.8"/><path d="m1160 33.8c-.9-1.3.6-4.1 2-2.5-.4 1.1-1.1 1.9-2 2.5" id="1Y" style="opacity:.8"/><path d="m1192 30.8c1.5.2 3.2 2.5 1.4 3.4-.9-.8-2.1-2.2-1.4-3.4" id="1Z" style="opacity:.8"/><path d="m1361 33.4c-1.7-.2-1.3-2.8.4-2.4-.1.6-.3 1.8-.4 2.4" id="1a" style="opacity:.8"/><path d="m2140 30.9l.7-.2c.2.4.5 1.1.6 1.5-.3.3-.8.8-1.1 1.1l-.5-.6c.1-.5.2-1.4.2-1.9" id="1b" style="opacity:.8"/><path d="m2634 33.8c-1-1.3.6-4.1 2-2.5-.4 1.1-1.1 1.9-2 2.5" id="1c" style="opacity:.8"/><path d="m2666 30.8c1.5.2 3.2 2.4 1.5 3.5-1-.8-2.2-2.2-1.5-3.5" id="1d" style="opacity:.8"/><path d="m2835 33.4c-1.7-.2-1.3-2.8.4-2.4-.1.6-.3 1.8-.4 2.4" id="1e" style="opacity:.8"/><path d="m1266 31.9c1.6-.5 2.2 0 1.7 1.7-1.6.5-2.2 0-1.7-1.7" id="1f" style="opacity:.8"/><path d="m2740 31.9c1.6-.5 2.2 0 1.7 1.7-1.7.5-2.2 0-1.7-1.7" id="1g" style="opacity:.8"/><path d="m775 34.6c.3-1.4 1.1-1.8 2.4-1.4-.3 1.4-1.1 1.9-2.4 1.4" id="1h" style="opacity:.8"/><path d="m1238 35.5c-2-.5-.5-2.7 1-2.5-.3.6-.7 1.9-1 2.5" id="1i" style="opacity:.8"/><path d="m2249 34.6c.3-1.4 1.1-1.8 2.4-1.4-.3 1.4-1.1 1.9-2.4 1.4" id="1j" style="opacity:.8"/><path d="m2712 35.5c-2-.5-.5-2.7 1-2.5-.3.6-.7 1.9-1 2.5" id="1k" style="opacity:.8"/><path d="m1228 34.9c.4-.2 1.2-.6 1.6-.8.5.1 1.6.4 2.1.5.3 1.6-2.2 2.6-3.3 1.6-.1-.3-.3-1-.4-1.3" id="1l" style="opacity:.8"/><path d="m2702 34.9c.4-.2 1.2-.6 1.6-.8.5.1 1.6.4 2.1.5.3 1.6-2.2 2.6-3.3 1.6-.1-.3-.3-1-.4-1.3" id="1m" style="opacity:.8"/><path d="m652 34.9c2.3-.5 4.6 1.1 4.4 3.6-1.8-.7-3.2-2.1-4.4-3.6" id="1n" style="opacity:.8"/><path d="m743 34.9c1.4-.2 2.1.4 2.2 1.8-1.4.2-2.1-.4-2.2-1.8" id="1o" style="opacity:.8"/><path d="m902 34.9c.5.2 1.5.5 2.1.7.1 2.1-3.5.8-2.1-.7" id="1p" style="opacity:.8"/><path d="m1179 35.9c.4-2.4 3.7-1.2 2.2.9-.5-.2-1.6-.6-2.2-.9" id="1q" style="opacity:.8"/><path d="m1225 36.9c-.1-1.6.6-2.1 2.2-1.5-.3 1.1-1 1.6-2.2 1.5" id="1r" style="opacity:.8"/><path d="m2126 34.9c2.2-.4 4.7 1.1 4.4 3.6-1.9-.7-3.2-2.1-4.4-3.6" id="1s" style="opacity:.8"/><path d="m2217 34.9c1.3-.2 2.1.4 2.2 1.8-1.4.2-2.2-.4-2.2-1.8" id="1t" style="opacity:.8"/><path d="m2376 34.9c.5.2 1.6.5 2.1.7.1 2.1-3.5.8-2.1-.7" id="1u" style="opacity:.8"/><path d="m2653 35.9c.4-2.4 3.7-1.2 2.2.9-.5-.2-1.7-.6-2.2-.9" id="1v" style="opacity:.8"/><path d="m2699 36.9c-.1-1.6.6-2.1 2.2-1.5-.3 1.1-1.1 1.6-2.2 1.5" id="1w" style="opacity:.8"/><path d="m701 37.9c-.2-1.4.4-2.1 1.8-2.2.2 1.4-.4 2.1-1.8 2.2" id="1x" style="opacity:.8"/><path d="m2175 37.9c-.2-1.4.4-2.1 1.8-2.2.2 1.4-.4 2.1-1.8 2.2" id="1y" style="opacity:.8"/><path d="m816 36.9c2.1-1 2.5 2.1.3 1.8-.1-.5-.2-1.4-.3-1.8" id="1z" style="opacity:.8"/><path d="m1146 36.9c1.3-.4 2.1 0 2.5 1.3-1.4.5-2.2.1-2.5-1.3" id="20" style="opacity:.8"/><path d="m2290 36.9c2.1-1 2.5 2.1.3 1.8-.1-.5-.2-1.4-.3-1.8" id="21" style="opacity:.8"/><path d="m2620 36.9c1.2-.4 2.1 0 2.5 1.3-1.4.5-2.2.1-2.5-1.3" id="22" style="opacity:.8"/><path d="m792 41.9c-1.1-1.2-1.1-3.1.1-4.3 1.1 1.2 1.2 3.1-.1 4.3" id="23" style="opacity:.8"/><path d="m865 39.9c-2.1-.1-.4-3.4 1-1.9-.2.5-.7 1.4-1 1.9" id="24" style="opacity:.8"/><path d="m1310 37.5c2 .1 1.5 2.5.7 3.5-.9-1.1-1.1-2.3-.7-3.5" id="25" style="opacity:.8"/><path d="m1316 39.9c-.8-1.7-.3-2.5 1.5-2.3-.3 1-.8 1.7-1.5 2.3" id="26" style="opacity:.8"/><path d="m1383 39.9c-.4-1.4.2-2.2 1.7-2.3 0 1.3-.6 2.1-1.7 2.3" id="27" style="opacity:.8"/><path d="m2266 41.9c-1.2-1.2-1.1-3.1.1-4.3 1.1 1.2 1.2 3.1-.1 4.3" id="28" style="opacity:.8"/><path d="m2339 39.9c-2.1-.1-.4-3.4 1-1.9-.2.5-.7 1.4-1 1.9" id="29" style="opacity:.8"/><path d="m2784 37.5c2 .1 1.5 2.5.7 3.5-.9-1.1-1.2-2.3-.7-3.5" id="2A" style="opacity:.8"/><path d="m2790 39.9c-.9-1.7-.3-2.5 1.5-2.3-.3 1-.8 1.7-1.5 2.3" id="2B" style="opacity:.8"/><path d="m2857 39.9c-.4-1.4.1-2.2 1.7-2.3 0 1.3-.6 2.1-1.7 2.3" id="2C" style="opacity:.8"/><path d="m772 38.9c1.4.2 2.1 1 2.1 2.3-1.4-.1-2-.8-2.1-2.3" id="2D" style="opacity:.8"/><path d="m807 39.8c.6-1.4 2.9-.8 2.3.8-.6-.2-1.8-.6-2.3-.8" id="2E" style="opacity:.8"/><path d="m2246 38.9c1.4.2 2.1 1 2.1 2.3-1.4-.1-2.1-.8-2.1-2.3" id="2F" style="opacity:.8"/><path d="m2281 39.8c.6-1.4 2.9-.8 2.3.8-.6-.2-1.8-.6-2.3-.8" id="2G" style="opacity:.8"/><path d="m705 40.8c1.7-1.7 4.1-.1 4.2 2-1.5-.4-3.1-1-4.2-2" id="2H" style="opacity:.8"/><path d="m1100 40.8c.8-2.5 2.9.3 1.1 1.4-.3-.4-.8-1.1-1.1-1.4" id="2I" style="opacity:.8"/><path d="m1225 40.5c1-1 2.6-1.1 3.9-.7 0 1.8-3.1 2.1-3.9.7" id="2J" style="opacity:.8"/><path d="m1233 41.9c.3-1.5 1.2-2.1 2.7-1.7-.5 1.2-1.4 1.8-2.7 1.7" id="2K" style="opacity:.8"/><path d="m2179 40.8c1.7-1.7 4.1 0 4.1 2.2-1.6-.4-3-1-4.1-2.2" id="2L" style="opacity:.8"/><path d="m2574 40.8c.8-2.5 2.9.3 1.1 1.4-.3-.4-.8-1.1-1.1-1.4" id="2M" style="opacity:.8"/><path d="m2699 40.5c1-1 2.5-1.1 3.9-.7 0 1.8-3.2 2.1-3.9.7" id="2N" style="opacity:.8"/><path d="m2707 41.9c.3-1.5 1.2-2.1 2.7-1.7-.5 1.2-1.4 1.8-2.7 1.7" id="2O" style="opacity:.8"/><path d="m1027 43.6c-2.1-1.3.6-4.4 1.5-1.7-.4.4-1.1 1.3-1.5 1.7" id="2P" style="opacity:.8"/><path d="m1180 44.8c1-1.6 2.5-2.9 4-4.1-.2 2-1.4 5.5-4 4.1" id="2Q" style="opacity:.8"/><path d="m1268 40.9c1.7-.5 2.3.1 1.9 1.9-1-.2-1.6-.9-1.9-1.9" id="2R" style="opacity:.8"/><path d="m2501 43.6c-2.1-1.3.6-4.4 1.5-1.7-.4.4-1.1 1.3-1.5 1.7" id="2S" style="opacity:.8"/><path d="m2654 44.8c1-1.6 2.3-3 3.9-4 0 2-1.6 5.1-3.9 4" id="2T" style="opacity:.8"/><path d="m2742 40.9c1.7-.5 2.3.1 1.8 1.9-1-.2-1.7-.9-1.8-1.9" id="2U" style="opacity:.8"/><path d="m763 44.6c-1-1.7 1.9-3.5 3.1-2.1-.8 1-1.8 1.9-3.1 2.1" id="2V" style="opacity:.8"/><path d="m796 43.8c.5-1.3 1.4-1.9 2.8-1.9-.4 1.4-1.3 2-2.8 1.9" id="2W" style="opacity:.8"/><path d="m1210 41.9c1.8 1.7 3.6 3.5 5.3 5.3-1.8-1.7-3.7-3.4-5.3-5.3" id="2X" style="opacity:.8"/><path d="m2237 44.6c-1.1-1.7 1.9-3.5 3.1-2.1-.8 1-1.8 1.9-3.1 2.1" id="2Y" style="opacity:.8"/><path d="m2270 43.8c.4-1.3 1.4-1.9 2.8-1.9-.4 1.4-1.4 2-2.8 1.9" id="2Z" style="opacity:.8"/><path d="m2684 41.9c1.8 1.7 3.6 3.5 5.3 5.3-1.8-1.7-3.7-3.4-5.3-5.3" id="2a" style="opacity:.8"/><path d="m800 44.7c-1.7-1.6 1.7-2.7 2.6-1.3-.7.8-1.6 1.2-2.6 1.3" id="2b" style="opacity:.8"/><path d="m857 42.9c1.4-.4 2.2.2 2.4 1.6-1.3.3-2.1-.2-2.4-1.6" id="2c" style="opacity:.8"/><path d="m1185 42.9c1.5.1 3.1.1 4.6.2-.5 1.4-1 2.9-1.6 4.3-.2-1-.3-1.9-.4-2.9-.5-.3-1.4-.8-1.9-1.1l-.7-.4" id="2d" style="opacity:.8"/><path d="m2274 44.7c-1.7-1.6 1.6-2.7 2.6-1.3-.7.8-1.6 1.2-2.6 1.3" id="2e" style="opacity:.8"/><path d="m2331 42.9c1.4-.4 2.2.2 2.4 1.6-1.4.3-2.1-.3-2.4-1.6" id="2f" style="opacity:.8"/><path d="m2659 42.9c1.5.1 3.1.1 4.6.2-.5 1.4-1 2.9-1.6 4.3-.2-1-.3-1.9-.4-2.9-.5-.3-1.4-.8-1.9-1.1l-.7-.4" id="2g" style="opacity:.8"/><path d="m1023 43.9c1.1-.1 2.1.2 2.9 1-.8 1.6-3.5.9-2.9-1" id="2h" style="opacity:.8"/><path d="m1037 43.9c1.8-1.6 3.7 1.5 1.2 2.1-.3-.5-.9-1.6-1.2-2.1" id="2i" style="opacity:.8"/><path d="m2497 43.9c1.1-.1 2.1.2 2.9 1-.8 1.6-3.5.9-2.9-1" id="2j" style="opacity:.8"/><path d="m2511 43.9c1.8-1.6 3.6 1.5 1.2 2.1-.3-.5-.9-1.6-1.2-2.1" id="2k" style="opacity:.8"/><path d="m1010 46.8c-1.7-1.6 1.2-3.7 1.4-1-.3.3-1.1.8-1.4 1" id="2l" style="opacity:.8"/><path d="m1151 44.9c1.5-.3 2.2.3 2.2 1.8-1.2.1-2-.5-2.2-1.8" id="2m" style="opacity:.8"/><path d="m2484 46.8c-1.8-1.6 1-3.7 1.3-1.1-.3.3-1 .8-1.3 1.1" id="2n" style="opacity:.8"/><path d="m2625 44.9c1.5-.3 2.2.3 2.2 1.8-1.3.1-2-.5-2.2-1.8" id="2o" style="opacity:.8"/><path d="m1146 45.8c1.4-.3 2.1.4 2 2-1.3-.1-1.9-.8-2-2" id="2p" style="opacity:.8"/><path d="m1228 48.8c.5-1.6 1.8-2.9 3.5-2.9-.3 1.7-1.7 3.1-3.5 2.9" id="2q" style="opacity:.8"/><path d="m1385 45.8c1.4-.2 2.2.4 2.5 1.8-1.4.1-2.3-.5-2.5-1.8" id="2r" style="opacity:.8"/><path d="m2620 45.8c1.4-.3 2 .3 1.9 2-1.3-.1-1.9-.8-1.9-2" id="2s" style="opacity:.8"/><path d="m2702 48.8c.5-1.5 1.7-2.9 3.5-2.9-.3 1.7-1.7 3.1-3.5 2.9" id="2t" style="opacity:.8"/><path d="m2859 45.8c1.3-.2 2.2.4 2.5 1.8-1.4.1-2.3-.5-2.5-1.8" id="2u" style="opacity:.8"/><path d="m218 46.5c1.6-.7 2.6 1.5 2.3 2.8-1.3-.3-2.4-1.4-2.3-2.8" id="2v" style="opacity:.8"/><path d="m742 46.8c.8-1.2 2.9.1 2 1.3-.8 1.1-2.9-.1-2-1.3" id="2w" style="opacity:.8"/><path d="m1287 47.8c.8-1.2 1.8-1.7 3.1-1.4.2 1.8-2 2.2-3.1 1.4" id="2x" style="opacity:.8"/><path d="m1350 48.8c-2.8-.3.5-3.8 1-1-.2.3-.7.8-1 1" id="2y" style="opacity:.8"/><path d="m1692 46.8c1.5-.8 2.6 1.3 2.4 2.6-1.3-.3-2.5-1.2-2.4-2.6" id="2z" style="opacity:.8"/><path d="m2216 46.8c.8-1.2 2.9.1 2 1.3-.8 1.1-2.9-.1-2-1.3" id="30" style="opacity:.8"/><path d="m2761 47.8c.7-1.2 1.8-1.7 3.2-1.4.1 1.8-2 2.2-3.2 1.4" id="31" style="opacity:.8"/><path d="m2824 48.8c-2.8-.3.5-3.8 1-1-.2.3-.7.8-1 1" id="32" style="opacity:.8"/><path d="m199 50c.8-1.1 1.8-1.7 3.1-1.9.8 1.9-1.8 2.5-3.1 1.9" id="33" style="opacity:.8"/><path d="m289 49.7c.5-1.3 1.4-1.8 2.7-1.4-.4 1.3-1.3 1.8-2.7 1.4" id="34" style="opacity:.8"/><path d="m325 47.8c1.5-.5 2.2-.1 2.2 1.3-1.3.4-2-.1-2.2-1.3" id="35" style="opacity:.8"/><path d="m1189 48.6c1.3-1 2.1-.8 2.5.8-1 .5-1.9.2-2.5-.8" id="36" style="opacity:.8"/><path d="m1355 47.8c1.5.7 1.6 1.6.4 2.7-.9-.8-1-1.7-.4-2.7" id="37" style="opacity:.8"/><path d="m1673 50c.8-1.1 1.8-1.7 3.1-1.9.8 1.9-1.8 2.4-3.1 1.9" id="38" style="opacity:.8"/><path d="m1763 49.7c.5-1.3 1.4-1.8 2.7-1.4-.4 1.3-1.3 1.8-2.7 1.4" id="39" style="opacity:.8"/><path d="m1799 47.8c1.5-.5 2.2-.1 2.2 1.3-1.3.4-2-.1-2.2-1.3" id="3A" style="opacity:.8"/><path d="m2663 48.6c1.3-1 2.1-.8 2.5.8-1.1.5-1.9.2-2.5-.8" id="3B" style="opacity:.8"/><path d="m2829 47.8c1.4.7 1.6 1.6.4 2.7-.9-.8-1-1.7-.4-2.7" id="3C" style="opacity:.8"/><path d="m236 48.8c1.6-2.1 2.8 1.1.6 1.6-.2-.4-.5-1.2-.6-1.6" id="3D" style="opacity:.8"/><path d="m244 50.8c2.4-.7 4.9-1.1 7.4-1.4-2.5.4-5 .8-7.4 1.4" id="3E" style="opacity:.8"/><path d="m1006 48.7c.7 0 2 .1 2.6.2-.1 1.8-2.3 1.1-2.6-.2" id="3F" style="opacity:.8"/><path d="m1710 48.8c1.6-2.1 2.8 1.1.6 1.6-.2-.4-.5-1.2-.6-1.6" id="3G" style="opacity:.8"/><path d="m1718 50.8c2.4-.7 4.9-1.1 7.4-1.4-2.5.4-5 .8-7.4 1.4" id="3H" style="opacity:.8"/><path d="m2481 47.8c.6.3 1.8.8 2.4 1-.3 2.1-2.7.4-2.4-1" id="3I" style="opacity:.8"/><path d="m285 52c-1.6-1.1-.2-3.5 1.6-2.8-.2 1.1-.8 2-1.6 2.8" id="3J" style="opacity:.8"/><path d="m300 53.8c-1.8.3-3.2-1.6-2.4-3.2 1.4.3 2.2 1.9 2.4 3.2" id="3K" style="opacity:.8"/><path d="m855 52.8c1.3-1.4 2.8-2.5 4.6-3.1.5 2.6-2.5 3.6-4.6 3.1" id="3L" style="opacity:.8"/><path d="m958 50.8c-.3-1.8 2.5-1.6 2.4.1-.6 0-1.8 0-2.4-.1" id="3M" style="opacity:.8"/><path d="m1759 52c-1.6-1.1-.2-3.5 1.6-2.8-.2 1.1-.8 2-1.6 2.8" id="3N" style="opacity:.8"/><path d="m1774 53.8c-1.8.3-3.2-1.6-2.4-3.2 1.4.3 2.2 1.9 2.4 3.2" id="3O" style="opacity:.8"/><path d="m2329 52.8c1.3-1.4 2.8-2.5 4.6-3.1.5 2.6-2.5 3.6-4.6 3.1" id="3P" style="opacity:.8"/><path d="m2432 50.8c-.4-1.8 2.5-1.6 2.4.1-.6 0-1.8 0-2.4-.1" id="3Q" style="opacity:.8"/><path d="m227 51c2.1-.4 3 2.7.4 2.4-.1-.6-.3-1.8-.4-2.4" id="3R" style="opacity:.8"/><path d="m731 51.8c1.3-.2 4-.7 5.4-.9-1.3.4-3.8 1.2-5 1.6l-.3-.6" id="3S" style="opacity:.8"/><path d="m806 50.8c1.4-.4 2.3.2 2.7 1.7-1.3.1-2.2-.5-2.7-1.7" id="3T" style="opacity:.8"/><path d="m996 50.8c1.4.3 2.1 1.1 2 2.4-1.4-.1-2-1-2-2.4" id="3U" style="opacity:.8"/><path d="m1048 50.8c2.2-.5 3.8 1.3 4.5 3.2-2.1.1-3.7-1.4-4.5-3.2" id="3V" style="opacity:.8"/><path d="m1216 52.8c-.3-1.3.2-2.1 1.5-2.3.5 1.3 0 2.1-1.5 2.3" id="3W" style="opacity:.8"/><path d="m1701 51c2.1-.3 3 2.7.4 2.4-.1-.6-.3-1.8-.4-2.4" id="3X" style="opacity:.8"/><path d="m2205 51.8c1.3-.3 4-.8 5.3-1-1.3.4-3.8 1.2-5 1.6l-.3-.6" id="3Y" style="opacity:.8"/><path d="m2280 50.8c1.4-.4 2.3.2 2.7 1.7-1.3.1-2.3-.5-2.7-1.7" id="3Z" style="opacity:.8"/><path d="m2470 50.8c1.4.2 2.1 1 2 2.4-1.4-.1-2.1-.9-2-2.4" id="3a" style="opacity:.8"/><path d="m2522 50.8c2.2-.5 3.8 1.3 4.5 3.2-2.1.1-3.7-1.4-4.5-3.2" id="3b" style="opacity:.8"/><path d="m2690 52.8c-.3-1.3.1-2.1 1.4-2.4.5 1.3.1 2.1-1.4 2.4" id="3c" style="opacity:.8"/><path d="m236 53.8c-1.7-.3-.8-2.9.7-2.3-.2.6-.5 1.8-.7 2.3" id="3d" style="opacity:.8"/><path d="m770 53.8c-1.2 2.5-3.9-2.2-1.1-2.1.3.5.9 1.6 1.1 2.1" id="3e" style="opacity:.8"/><path d="m1138 51.8c1.5 0 1.2 2.4-.2 2.4-1.5 0-1.3-2.4.2-2.4" id="3f" style="opacity:.8"/><path d="m1235 51.6c1.4-.1 2 .6 1.8 2-1.4 0-2-.6-1.8-2" id="3g" style="opacity:.8"/><path d="m1262 51.8c.4-.1 1.1-.4 1.5-.6 1.8 1.7-1.7 3.1-1.5.6" id="3h" style="opacity:.8"/><path d="m1710 53.8c-1.7-.3-.8-2.9.7-2.3-.2.6-.5 1.8-.7 2.3" id="3i" style="opacity:.8"/><path d="m2244 53.8c-1.2 2.5-3.9-2.2-1.1-2.1.3.5.8 1.6 1.1 2.1" id="3j" style="opacity:.8"/><path d="m2612 51.8c1.5 0 1.2 2.4-.2 2.4-1.6 0-1.3-2.4.2-2.4" id="3k" style="opacity:.8"/><path d="m2709 52c1.4-.1 2 .6 1.8 2.1-1.4 0-2-.7-1.8-2.1" id="3l" style="opacity:.8"/><path d="m2736 51.8c.4-.1 1.1-.4 1.5-.6 1.8 1.7-1.7 3.1-1.5.6" id="3m" style="opacity:.8"/><path d="m237 54.7c0-1.2.7-2 2-2.2-.3.6-1 1.9-1.3 2.6l-.7-.4" id="3n" style="opacity:.8"/><path d="m327 54.8c-1.4 1-2.6-1.1-1.4-2.1.3.5 1.1 1.5 1.4 2.1" id="3o" style="opacity:.8"/><path d="m328 54.6c.6-1.5 3.3-3.5 3.9-.9-1.1.8-2.6.8-3.9.9" id="3p" style="opacity:.8"/><path d="m335 52c1 .3 1.6 1 1.9 2-1.8.4-2.4-.3-1.9-2" id="3q" style="opacity:.8"/><path d="m732 52.8c1.7 0 3.5-.3 5 .7-1.5 1.5-4.1 1.5-5-.7" id="3r" style="opacity:.8"/><path d="m761 53c.4-.2 1.3-.7 1.7-.9.3 1 .5 2 .7 3-.3.1-1.1.3-1.4.4-.3-.6-.8-1.9-1-2.5" id="3s" style="opacity:.8"/><path d="m954 54.8c.4-1.5 1.8-2.5 3.4-2.5.1 1.8-1.8 2.9-3.4 2.5" id="3t" style="opacity:.8"/><path d="m1711 54.7c0-1.2.6-2 2-2.2-.3.6-1 1.9-1.3 2.6l-.7-.4" id="3u" style="opacity:.8"/><path d="m1801 54.8c-1.4 1-2.6-1.1-1.4-2.1.4.5 1 1.5 1.4 2.1" id="3v" style="opacity:.8"/><path d="m1802 54.6c.6-1.5 3.3-3.5 3.9-.9-1.1.8-2.6.8-3.9.9" id="3w" style="opacity:.8"/><path d="m1809 52c.9.3 1.6 1 1.9 2-1.8.4-2.4-.3-1.9-2" id="3x" style="opacity:.8"/><path d="m2206 52.8c1.6 0 3.5-.3 5 .7-1.5 1.5-4.1 1.5-5-.7" id="3y" style="opacity:.8"/><path d="m2235 53c.4-.2 1.3-.7 1.7-.9.2 1 .5 2 .7 3-.4.1-1.1.3-1.4.4-.3-.6-.8-1.9-1-2.5" id="3z" style="opacity:.8"/><path d="m2428 54.8c.4-1.5 1.8-2.5 3.4-2.5.1 1.8-1.8 2.9-3.4 2.5" id="40" style="opacity:.8"/><path d="m229 54.8c.3-1.3 1.1-1.9 2.5-1.8-.3 1.6-1.2 2.2-2.5 1.8" id="41" style="opacity:.8"/><path d="m747 54.8c.5-1.4 3.4-2.2 3.4-.1-1.1.5-2.2.6-3.4.1" id="42" style="opacity:.8"/><path d="m936 53.6c1.4-.1 2.8 2.1.9 2.5-.2-.6-.7-1.9-.9-2.5" id="43" style="opacity:.8"/><path d="m1228 54.8c-.5 2.4-3.8.7-2.1-1.1.5.3 1.6.8 2.1 1.1" id="44" style="opacity:.8"/><path d="m1703 54.8c.2-1.3 1.1-1.9 2.5-1.8-.3 1.6-1.2 2.2-2.5 1.8" id="45" style="opacity:.8"/><path d="m2221 54.8c.5-1.4 3.4-2.2 3.4-.1-1.1.5-2.2.6-3.4.1" id="46" style="opacity:.8"/><path d="m2410 53.6c1.4-.1 2.8 2.1.9 2.5-.2-.6-.7-1.9-.9-2.5" id="47" style="opacity:.8"/><path d="m2702 54.6c-.9 2.2-3.9 1-2.2-1 .5.3 1.6.8 2.2 1" id="48" style="opacity:.8"/><path d="m799 55.8c-1-2 2.2-1.5 2.6-.1-.6 0-1.9.1-2.6.1" id="49" style="opacity:.8"/><path d="m849 57.8c0-2.2 2.3-2.9 4-3.4-.8 1.6-1.9 3.4-4 3.4" id="4A" style="opacity:.8"/><path d="m1062 54.8c1.5-.6 3.2-.2 4.2 1.1-1.5.5-3.2.1-4.2-1.1" id="4B" style="opacity:.8"/><path d="m1230 55.8c-1.2-1.9 2.1-1.6 2.6-.3-.6.1-1.9.2-2.6.3" id="4C" style="opacity:.8"/><path d="m1281 57.8c-.3-2 1.9-4.5 3.6-2.4-1 1.1-2.2 1.9-3.6 2.4" id="4D" style="opacity:.8"/><path d="m1303 55.8c-1.6 1.9-2.9-1.1-.8-1.7.2.4.6 1.2.8 1.7" id="4E" style="opacity:.8"/><path d="m1314 56.8c-1.6.3-2.2-2.3-.4-2.4.1.6.3 1.8.4 2.4" id="4F" style="opacity:.8"/><path d="m2273 55.8c-1-2 2.1-1.5 2.6-.1-.6 0-1.9.1-2.6.1" id="4G" style="opacity:.8"/><path d="m2323 57.8c-.1-2.2 2.3-2.9 4-3.4-.8 1.6-2 3.4-4 3.4" id="4H" style="opacity:.8"/><path d="m2536 54.8c1.5-.6 3.2-.2 4.2 1.1-1.6.5-3.2.1-4.2-1.1" id="4I" style="opacity:.8"/><path d="m2704 55.8c-1.2-1.9 2-1.6 2.6-.3-.6.1-1.9.2-2.6.3" id="4J" style="opacity:.8"/><path d="m2755 57.8c-.3-2 1.9-4.5 3.6-2.4-1 1.1-2.3 1.9-3.6 2.4" id="4K" style="opacity:.8"/><path d="m2777 55.8c-1.6 1.9-3-1.1-.8-1.7.2.4.6 1.2.8 1.7" id="4L" style="opacity:.8"/><path d="m2788 56.8c-1.6.3-2.2-2.3-.4-2.4.1.6.3 1.8.4 2.4" id="4M" style="opacity:.8"/><path d="m270 55.6c1.6-.5 3.5-.3 4.6 1.1-1.6.7-3.6.3-4.6-1.1" id="4N" style="opacity:.8"/><path d="m1142 55.8c1.2-.4 2 .1 2.3 1.3-.6-.2-1.9-.5-2.6-.6l.2-.7" id="4O" style="opacity:.8"/><path d="m1744 55.6c1.6-.5 3.5-.3 4.6 1.1-1.6.7-3.6.3-4.6-1.1" id="4P" style="opacity:.8"/><path d="m2616 55.8c1.2-.4 2 0 2.4 1.3-.7-.1-1.9-.4-2.6-.5l.2-.7" id="4Q" style="opacity:.8"/><path d="m308 56.8c1.3-.9 2.5 1.1 1.2 1.9-.3-.5-.9-1.4-1.2-1.9" id="4R" style="opacity:.8"/><path d="m311 59.8c.5-1.2 1.4-2.2 2.5-2.9 1.4 1.4-.9 4.1-2.5 2.9" id="4S" style="opacity:.8"/><path d="m374 58.8c-.2-1.7 2.4-2.8 2.9-.9-.8.8-1.8 1.1-2.9.9" id="4T" style="opacity:.8"/><path d="m736 57.8c1.1-2.5 3.4 1.7.7 1.3-.2-.3-.5-1-.7-1.3" id="4U" style="opacity:.8"/><path d="m758 56.8c1.2-1.1 2.5.7 1.6 1.8-.4-.5-1.2-1.4-1.6-1.8" id="4V" style="opacity:.8"/><path d="m762 56.8c1.2-1.6 3.9 1.3 1.9 2.1-.9-.5-1.5-1.2-1.9-2.1" id="4W" style="opacity:.8"/><path d="m799 56.7c1.4.1 3.2.9 3 2.5-1.5 0-2.8-1.1-3-2.5" id="4X" style="opacity:.8"/><path d="m1286 56.7c1.6.3 3.1.9 4.3 2.1-1.9 1.1-3.8-.3-4.3-2.1" id="4Y" style="opacity:.8"/><path d="m1782 56.8c1.3-.9 2.5 1.1 1.2 1.9-.3-.5-.9-1.4-1.2-1.9" id="4Z" style="opacity:.8"/><path d="m1785 59.8c.5-1.2 1.4-2.2 2.5-2.9 1.3 1.4-.9 4.1-2.5 2.9" id="4a" style="opacity:.8"/><path d="m1848 58.8c-.2-1.7 2.4-2.8 2.9-.9-.9.8-1.8 1.1-2.9.9" id="4b" style="opacity:.8"/><path d="m2210 57.8c1.1-2.5 3.4 1.7.7 1.3-.2-.3-.5-1-.7-1.3" id="4c" style="opacity:.8"/><path d="m2232 56.8c1.2-1.1 2.4.7 1.6 1.8-.4-.5-1.2-1.4-1.6-1.8" id="4d" style="opacity:.8"/><path d="m2236 56.8c1.2-1.6 3.8 1.3 1.9 2.1-.9-.5-1.5-1.2-1.9-2.1" id="4e" style="opacity:.8"/><path d="m2273 56.7c1.3.1 3.1.9 3 2.5-1.5 0-2.8-1.1-3-2.5" id="4f" style="opacity:.8"/><path d="m2760 56.7c1.6.3 3.1.9 4.3 2.1-1.9 1.1-3.8-.3-4.3-2.1" id="4g" style="opacity:.8"/><path d="m254 61c-.7-1.5 1.2-3.4 2.5-2-.6 1.1-1.4 1.7-2.5 2" id="4h" style="opacity:.8"/><path d="m260 57.7c1.3 1.9-1.5 3-2.6 1.4.6-.4 1.9-1 2.6-1.4" id="4i" style="opacity:.8"/><path d="m1109 59.8c-2-1.6 1.1-3.7 2-1.4-.5.4-1.5 1-2 1.4" id="4j" style="opacity:.8"/><path d="m1270 60.8c-.5-1.9 1.9-2.5 3.1-1.3-.8.9-1.9 1.3-3.1 1.3" id="4k" style="opacity:.8"/><path d="m1728 61c-.7-1.5 1.2-3.4 2.5-2-.6 1.1-1.4 1.7-2.5 2" id="4l" style="opacity:.8"/><path d="m1734 57.7c1.3 1.9-1.5 3-2.6 1.4.6-.4 1.9-1 2.6-1.4" id="4m" style="opacity:.8"/><path d="m2583 59.8c-2-1.6 1-3.6 2-1.4-.5.3-1.5 1-2 1.4" id="4n" style="opacity:.8"/><path d="m2744 60.8c-.5-1.9 1.9-2.5 3.1-1.3-.9.9-1.9 1.3-3.1 1.3" id="4o" style="opacity:.8"/><path d="m378 60c1.3-1.5 2.6.8 1.7 2-.4-.5-1.3-1.5-1.7-2" id="4p" style="opacity:.8"/><path d="m1112 59.8c.2-.3.7-1 .9-1.4 2.4.4.2 3.7-.9 1.4" id="4q" style="opacity:.8"/><path d="m1118 59.7c-.5-2.1 2.4-1.1 2.7.2-.7-.1-2-.2-2.7-.2" id="4r" style="opacity:.8"/><path d="m1263 59.8c2 .5 4.1.8 6.2.9-2.1.2-4.4.4-6.2-.9" id="4s" style="opacity:.8"/><path d="m1852 60c1.3-1.5 2.5.8 1.7 2-.4-.5-1.3-1.5-1.7-2" id="4t" style="opacity:.8"/><path d="m2586 59.8c.2-.3.7-1 .9-1.4 2.4.4.2 3.7-.9 1.4" id="4u" style="opacity:.8"/><path d="m2592 59.7c-.5-2.1 2.4-1.1 2.7.2-.7-.1-2-.2-2.7-.2" id="4v" style="opacity:.8"/><path d="m2737 59.8c2 .5 4.1.8 6.2.9-2.1.2-4.4.4-6.2-.9" id="4w" style="opacity:.8"/><path d="m265 60c.4 2.6-2.3 3.4-4.4 3.2 1-1.6 2.6-2.6 4.4-3.2" id="4x" style="opacity:.8"/><path d="m311 60.7c.1 2.6-4.4.3-2-1 .5.3 1.5.8 2 1" id="4y" style="opacity:.8"/><path d="m653 59.8c.5.3 1.4.8 1.9 1.1-.3 2.1-3.5.2-1.9-1.1" id="4z" style="opacity:.8"/><path d="m805 59.8c1.5.2 2.1 1 1.9 2.4-1.3-.3-1.9-1.1-1.9-2.4" id="50" style="opacity:.8"/><path d="m1180 62.8c-1.1 2.7-4.7-1.7-1.8-2.2.3 1 .9 1.7 1.8 2.2" id="51" style="opacity:.8"/><path d="m1739 60c.4 2.6-2.4 3.4-4.4 3.2 1-1.6 2.6-2.6 4.4-3.2" id="52" style="opacity:.8"/><path d="m1785 60.7c.1 2.6-4.4.3-2-1 .5.3 1.5.8 2 1" id="53" style="opacity:.8"/><path d="m2127 59.8c.5.3 1.4.8 1.9 1.1-.3 2.1-3.5.2-1.9-1.1" id="54" style="opacity:.8"/><path d="m2279 59.8c1.5.2 2.1 1 1.9 2.4-1.3-.3-1.9-1.1-1.9-2.4" id="55" style="opacity:.8"/><path d="m2654 62.8c-1.1 2.7-4.7-1.7-1.8-2.2.3 1 .9 1.7 1.8 2.2" id="56" style="opacity:.8"/><path d="m1230 61.8c.9-.9 1.8-.9 2.7.1-1 1.1-1.9 1.1-2.7-.1" id="57" style="opacity:.8"/><path d="m2704 61.8c.9-.9 1.8-.9 2.7.1-1 1.1-1.9 1.1-2.7-.1" id="58" style="opacity:.8"/><path d="m371 64c.1-1.5.9-2.1 2.3-1.8-.2 1.3-1 1.9-2.3 1.8" id="59" style="opacity:.8"/><path d="m1845 64c.1-1.5.8-2.1 2.3-1.8-.2 1.3-1 1.9-2.3 1.8" id="5A" style="opacity:.8"/><path d="m345 63c.6.2 1.8.6 2.4.8-.8 1-3 .9-2.4-.8" id="5B" style="opacity:.8"/><path d="m360 62.8c1.3-.2 3.4.5 2.4 2.2-1.4 0-2.2-.7-2.4-2.2" id="5C" style="opacity:.8"/><path d="m434 64c.7-.2 2.2-.6 2.9-.8-.1 1.6-1.9 1.9-2.9.8" id="5D" style="opacity:.8"/><path d="m548 62.8c2.2-.7 4.3.9 4.7 3-1.9-.4-3.7-1.3-4.7-3" id="5E" style="opacity:.8"/><path d="m558 64.8c.3-2.5 4.1-2.4 3.6.3-1.2.1-2.5 0-3.6-.3" id="5F" style="opacity:.8"/><path d="m656 63.8v-.8c.3 1.4.6 2.9.9 4.3-.8 0-2.3-.1-3.1-.2 0-.8.1-2.3.1-3.1-.3 2.5 2.8 2 2.1-.3" id="5G" style="opacity:.8"/><path d="m941 62.8c1.1-.6 2.7 0 3 1.3-1 1.3-2.7 0-3-1.3" id="5H" style="opacity:.8"/><path d="m1324 62.8c1.5-1.2 3.1 1.4 1.6 2.4-1.5 1.2-3.1-1.4-1.6-2.4" id="5I" style="opacity:.8"/><path d="m1819 63c.6.2 1.8.6 2.4.8-.8 1-3 .9-2.4-.8" id="5J" style="opacity:.8"/><path d="m1834 62.8c1.2-.2 3.4.5 2.4 2.2-1.4 0-2.2-.7-2.4-2.2" id="5K" style="opacity:.8"/><path d="m1908 64c.7-.2 2.2-.6 2.9-.8-.2 1.6-2 1.9-2.9.8" id="5L" style="opacity:.8"/><path d="m2022 62.8c2.2-.7 4.2.9 4.7 3-1.9-.4-3.7-1.3-4.7-3" id="5M" style="opacity:.8"/><path d="m2032 64.8c.3-2.5 4.1-2.4 3.7.3-1.3.1-2.5 0-3.7-.3" id="5N" style="opacity:.8"/><path d="m2130 63.8v-.8c.3 1.4.6 2.9.9 4.3-.8 0-2.3-.1-3.1-.2 0-.8.1-2.3.1-3.1-.3 2.5 2.8 2 2.1-.3" id="5O" style="opacity:.8"/><path d="m2415 62.8c1.1-.6 2.7 0 3 1.3-1 1.3-2.8 0-3-1.3" id="5P" style="opacity:.8"/><path d="m2798 62.8c1.4-1.2 3.1 1.4 1.6 2.4-1.5 1.2-3.2-1.4-1.6-2.4" id="5Q" style="opacity:.8"/><path d="m382 64.8c.6-1.6 2.7-1 3.5 0-1.3.9-2.4.8-3.5 0" id="5R" style="opacity:.8"/><path d="m458 64.8c1.2-.1 2.4-.1 3.6-.1-1.5 1.1-3 2.2-4.6 3.2.9-.9.8-1.7-.3-2.4.3-.2.9-.5 1.3-.7" id="5S" style="opacity:.8"/><path d="m811 63.8c1.5.2 2.4 1.5 2.9 2.8-1.4-.2-3.3-1.1-2.9-2.8" id="5T" style="opacity:.8"/><path d="m1856 64.8c.6-1.6 2.6-1 3.5 0-1.3.9-2.5.8-3.5 0" id="5U" style="opacity:.8"/><path d="m1932 64.8c1.2-.1 2.4-.1 3.6-.1-1.5 1.1-3 2.2-4.6 3.2.8-.9.7-1.7-.3-2.4.3-.2.9-.5 1.3-.7" id="5V" style="opacity:.8"/><path d="m2285 63.8c1.5.2 2.4 1.5 2.9 2.8-1.5-.2-3.3-1.1-2.9-2.8" id="5W" style="opacity:.8"/><path d="m444 66c.6-.1 1.9-.4 2.5-.6 0 1.4-2.6 2.7-2.5.6" id="5X" style="opacity:.8"/><path d="m464 65c1.4.1 2 .9 1.8 2.4-1.4-.3-2-1.1-1.8-2.4" id="5Y" style="opacity:.8"/><path d="m532 64.8c1.3-.5 2.1-.1 2.5 1.2-1.3.6-2.1.2-2.5-1.2" id="5Z" style="opacity:.8"/><path d="m1116 64.8h2.8c1 2.8-2.9 2.6-2.8 0" id="5a" style="opacity:.8"/><path d="m1216 64.8c1.5-.3 2.2.3 2.2 1.8-1.3.1-2-.5-2.2-1.8" id="5b" style="opacity:.8"/><path d="m1918 66c.6-.1 1.9-.4 2.5-.6 0 1.4-2.6 2.7-2.5.6" id="5c" style="opacity:.8"/><path d="m1938 65c1.4.1 2 .9 1.8 2.4-1.4-.3-2-1.1-1.8-2.4" id="5d" style="opacity:.8"/><path d="m2006 64.8c1.3-.5 2.1-.1 2.5 1.2-1.3.6-2.2.2-2.5-1.2" id="5e" style="opacity:.8"/><path d="m2590 64.8c.9 0 1.8 0 2.8.1 1 2.9-3 2.5-2.8-.1" id="5f" style="opacity:.8"/><path d="m2690 64.8c1.5-.3 2.2.3 2.3 1.7-1.3.2-2-.4-2.3-1.7" id="5g" style="opacity:.8"/><path d="m565 68c-1.9 1.4-4.1-.2-3.3-2.4 1.4.3 2.6 1.2 3.3 2.4" id="5h" style="opacity:.8"/><path d="m1132 68.8c-.4-1.2-.2-2.4.7-3.5.9 1 1.3 3.5-.7 3.5" id="5i" style="opacity:.8"/><path d="m2039 68c-1.9 1.4-4.1-.2-3.3-2.4 1.4.3 2.5 1.2 3.3 2.4" id="5j" style="opacity:.8"/><path d="m2606 68.8c-.5-1.2-.2-2.4.7-3.5.9 1 1.3 3.5-.7 3.5" id="5k" style="opacity:.8"/><path d="m740 69.8c.2-1.6 1.5-3.1 3.2-2.9-.1 1.7-1.6 2.8-3.2 2.9" id="5l" style="opacity:.8"/><path d="m814 67c1.3.6 1.7 1.6 1.2 2.8-1.3-.5-1.7-1.4-1.2-2.8" id="5m" style="opacity:.8"/><path d="m2214 69.8c.2-1.6 1.5-3.1 3.2-2.9-.1 1.7-1.6 2.8-3.2 2.9" id="5n" style="opacity:.8"/><path d="m2288 67c1.3.7 1.7 1.6 1.2 2.9-1.3-.5-1.7-1.5-1.2-2.9" id="5o" style="opacity:.8"/><path d="m724 70c-.2-3.9 4.7.1.6.4l-.6-.4" id="5p" style="opacity:.8"/><path d="m2198 70c-.3-3.9 4.7.1.6.4l-.6-.4" id="5q" style="opacity:.8"/><path d="m1435 67.8c1.4.3 2.1 1.2 1.9 2.5-1.4-.3-2-1.1-1.9-2.5" id="5r" style="opacity:.8"/><path d="m2909 67.8c1.4.3 2.1 1.2 1.9 2.5-1.4-.3-2-1.1-1.9-2.5" id="5s" style="opacity:.8"/><path d="m713 72c.3-1.3 1.1-1.8 2.5-1.5-.3 1.4-1.1 1.9-2.5 1.5" id="5t" style="opacity:.8"/><path d="m737 72c-.1-1.4.6-2.2 2.1-2.3-.1 1.3-.8 2.1-2.1 2.3" id="5u" style="opacity:.8"/><path d="m816 70c2.3 1 5.9 1.2 6.2 4.4-2.1-1.4-4.1-2.9-6.2-4.4" id="5v" style="opacity:.8"/><path d="m2187 72c.3-1.3 1.2-1.8 2.6-1.8-.3 1.5-1.2 2.1-2.6 1.8" id="5w" style="opacity:.8"/><path d="m2211 72c-.2-1.4.5-2.2 2.1-2.3-.1 1.3-.8 2.1-2.1 2.3" id="5x" style="opacity:.8"/><path d="m2290 70c2.2.8 4.6 1.5 6.7 2.5-.1.4-.3 1.3-.3 1.7-2.2-1.4-4.3-2.8-6.4-4.2" id="5y" style="opacity:.8"/><path d="m568 72c2.3-1.6 4.3.7 4.8 2.9-1.7-.7-3.5-1.4-4.8-2.9" id="5z" style="opacity:.8"/><path d="m723 72c-.6 4-4.8-1.1-.7-1 .2.2.6.7.7 1" id="60" style="opacity:.8"/><path d="m762 71c.3.5 1 1.4 1.3 1.8-1 1.8-3.2-1.2-1.3-1.8" id="61" style="opacity:.8"/><path d="m803 71c1.6-.1 3.2-.2 4.8-.1 0 2.4-4.7 2.5-4.8.1" id="62" style="opacity:.8"/><path d="m1110 71l.6.2c1.9.7 3.9 1 6 1.2v.2c-1.5.9-3.1 1.7-4.7 2.4-.7-1.3-1.3-2.7-1.9-4" id="63" style="opacity:.8"/><path d="m2042 72c2.3-1.5 4.3.6 4.7 2.9-1.7-.8-3.5-1.5-4.7-2.9" id="64" style="opacity:.8"/><path d="m2197 72c-.6 4-4.8-1.1-.7-1 .2.2.6.7.7 1" id="65" style="opacity:.8"/><path d="m2236 71c.3.5 1 1.4 1.3 1.8-1 1.8-3.2-1.2-1.3-1.8" id="66" style="opacity:.8"/><path d="m2277 71c1.6-.1 3.2-.2 4.8-.1 0 2.4-4.7 2.5-4.8.1" id="67" style="opacity:.8"/><path d="m2584 71l.6.2c1.9.7 3.9 1 6 1.2v.2c-1.5.9-3.2 1.7-4.7 2.4-.7-1.3-1.3-2.7-1.9-4" id="68" style="opacity:.8"/><path d="m179 72c1.3 0 2 .7 2.2 2.1-1.5 0-2.3-.8-2.2-2.1" id="69" style="opacity:.8"/><path d="m1653 72c1.3 0 2 .7 2.2 2.1-1.6 0-2.3-.8-2.2-2.1" id="6A" style="opacity:.8"/><path d="m394 73c1.3.1 2.7.4 4 .8-.9 2.5-3.9 1.7-4-.8" id="6B" style="opacity:.8"/><path d="m718 75c-.4-1.3 0-2.2 1.2-2.7 1.8.2.3 2.2-.6 2.6h-.6" id="6C" style="opacity:.8"/><path d="m732 76c.2-1.6 1.1-3.2 2.9-3.3.2 1.7-1.2 3.2-2.9 3.3" id="6D" style="opacity:.8"/><path d="m1868 73c1.3.1 2.6.4 4 .8-1 2.5-3.9 1.7-4-.8" id="6E" style="opacity:.8"/><path d="m2192 75c-.4-1.3 0-2.2 1.2-2.7 1.8.2.3 2.2-.6 2.6h-.6" id="6F" style="opacity:.8"/><path d="m2206 76c.1-1.6 1.1-3.2 2.8-3.3.2 1.7-1.2 3.2-2.8 3.3" id="6G" style="opacity:.8"/><path d="m824 77c.5-2.2 2.9-2.6 4.7-1.7-1.4 1-2.9 2.1-4.7 1.7" id="6H" style="opacity:.8"/><path d="m1149 76c1.5-.6 3-1.2 4.5-1.8l-.6.8c-1.5 2-3 4.2-5.1 5.7.1-.4.3-1.3.4-1.7.2-1 .5-2 .7-3" id="6I" style="opacity:.8"/><path d="m1418 76c.9-1.8 3.2-2 4.7-.9-1.3 1.1-3.1 1.7-4.7.9" id="6J" style="opacity:.8"/><path d="m1444 74c2.3-1.5 4.4.4 5.3 2.5-2-.4-3.8-1.2-5.3-2.5" id="6K" style="opacity:.8"/><path d="m2298 77c.4-2.3 2.9-2.6 4.7-1.7-1.4 1-2.9 2.1-4.7 1.7" id="6L" style="opacity:.8"/><path d="m2623 76c1.5-.6 3-1.2 4.5-1.8l-.6.8c-1.5 2-3 4.2-5.1 5.7.1-.4.3-1.3.4-1.7.2-1 .4-2 .7-3" id="6M" style="opacity:.8"/><path d="m2892 76c.9-1.8 3.1-2 4.7-.9-1.3 1.1-3.1 1.7-4.7.9" id="6N" style="opacity:.8"/><path d="m2918 74c2.2-1.5 4.4.4 5.3 2.5-2-.4-3.8-1.2-5.3-2.5" id="6O" style="opacity:.8"/><path d="m474 75c1.4 0 2.3.5 2.7 1.8-1.3 1.4-2.9-.3-2.7-1.8" id="6P" style="opacity:.8"/><path d="m765 75c1.7-.4 2.3.3 1.9 2-1.1-.3-1.7-.9-1.9-2" id="6Q" style="opacity:.8"/><path d="m829 75c1.1.2 1.8.8 2.1 1.9-.3.5-.8 1.4-1 1.9-.4-.3-1.1-.9-1.4-1.1.1-.7.2-2 .3-2.6" id="6R" style="opacity:.8"/><path d="m851 76c.9-.5 1.9-.9 2.9-1 1.5 1.8-2.1 2.5-2.9 1" id="6S" style="opacity:.8"/><path d="m1144 75c1.5.8 1.5 2.7.2 3.7-1.3-.6-1.5-2.9-.2-3.7" id="6T" style="opacity:.8"/><path d="m1948 75c1.4 0 2.3.5 2.7 1.8-1.3 1.4-2.9-.3-2.7-1.8" id="6U" style="opacity:.8"/><path d="m2239 75c1.6-.4 2.3.3 1.9 2-1.1-.3-1.7-.9-1.9-2" id="6V" style="opacity:.8"/><path d="m2303 75c1.1.2 1.8.8 2.2 1.9-.3.5-.8 1.4-1 1.9-.4-.3-1.1-.9-1.4-1.1.1-.7.2-2 .3-2.6" id="6W" style="opacity:.8"/><path d="m2325 76c.9-.6 1.8-.9 2.9-1 1.5 1.8-2.2 2.5-2.9 1" id="6X" style="opacity:.8"/><path d="m2618 75c1.5.8 1.5 2.7.2 3.7-1.3-.6-1.5-2.9-.2-3.7" id="6Y" style="opacity:.8"/><path d="m182 78c.5-.4 1.6-1.1 2.1-1.5 1.7 1.3-1 2.4-2.1 1.5" id="6Z" style="opacity:.8"/><path d="m742 79c-1.3-1.3 1-3.5 2.4-2.3-.6 1-1.3 1.9-2.4 2.3" id="6a" style="opacity:.8"/><path d="m1236 76c1.3-1.1 2.7.9 1.6 1.9-.4-.5-1.2-1.5-1.6-1.9" id="6b" style="opacity:.8"/><path d="m1656 78c.5-.4 1.6-1.1 2.1-1.5 1.7 1.3-1 2.4-2.1 1.5" id="6c" style="opacity:.8"/><path d="m2216 79c-1.3-1.3 1-3.5 2.4-2.3-.6 1-1.3 1.9-2.4 2.3" id="6d" style="opacity:.8"/><path d="m2710 76c1.2-1.2 2.6.8 1.6 1.9-.4-.5-1.2-1.4-1.6-1.9" id="6e" style="opacity:.8"/><path d="m407 81c-.3-1.9.6-4 2.6-4.3 0 1.8-.9 3.6-2.6 4.3" id="6f" style="opacity:.8"/><path d="m1209 78c.7-1.4 3.7-.8 3.3 1-1.2.4-2.3-.4-3.3-1" id="6g" style="opacity:.8"/><path d="m1881 81c-.3-1.9.6-4 2.6-4.3-.1 1.8-1 3.6-2.6 4.3" id="6h" style="opacity:.8"/><path d="m2683 78c.7-1.4 3.7-.8 3.3 1-1.2.4-2.3-.4-3.3-1" id="6i" style="opacity:.8"/><path d="m505 79c.7-1.6 2.7-1.2 4-.7-1.1.9-2.7 1.7-4 .7" id="6j" style="opacity:.8"/><path d="m720 79c2.6.1 5.2.2 7.8.3-1.7.1-5.1.3-6.8.4-.3-.2-.8-.5-1-.7" id="6k" style="opacity:.8"/><path d="m1452 78c1.2.2 2.7.9 2.7 2.3-1.5.6-3-.8-2.7-2.3" id="6l" style="opacity:.8"/><path d="m1465 80c.2-2.6 2.8-3.3 4.8-2.2-1.6.9-3.2 1.6-4.8 2.2" id="6m" style="opacity:.8"/><path d="m1471 78c1.3-.8 2.6.9 1.8 2.1-.5-.5-1.4-1.6-1.8-2.1" id="6n" style="opacity:.8"/><path d="m1979 79c.7-1.6 2.6-1.2 4-.7-1.1.9-2.7 1.7-4 .7" id="6o" style="opacity:.8"/><path d="m2194 79c2.5.1 5.2.2 7.8.3-1.7.1-5.1.3-6.8.4-.3-.2-.8-.5-1-.7" id="6p" style="opacity:.8"/><path d="m2926 78c1.2.2 2.6.9 2.7 2.3-1.5.6-3-.8-2.7-2.3" id="6q" style="opacity:.8"/><path d="m2939 80c.2-2.6 2.7-3.3 4.8-2.2-1.6.9-3.2 1.6-4.8 2.2" id="6r" style="opacity:.8"/><path d="m2945 78c1.3-.8 2.6.9 1.8 2.1-.5-.5-1.4-1.6-1.8-2.1" id="6s" style="opacity:.8"/><path d="m176 80c.6-.2 1.9-.6 2.5-.8 0 1.4-2.4 2.8-2.5.8" id="6t" style="opacity:.8"/><path d="m247 80c.2 2.8-4.5.1-1.9-1 .5.3 1.4.8 1.9 1" id="6u" style="opacity:.8"/><path d="m714 79h1.6c.1.4.4 1 .5 1.4-.6.1-1.8.3-2.4.4.1-.5.3-1.4.4-1.9" id="6v" style="opacity:.8"/><path d="m844 81c-1.7.1-1.7-2.3-.1-2.4 0 .6.1 1.8.1 2.4" id="6w" style="opacity:.8"/><path d="m1403 81c2.5-1.1 5.1-1.1 7.2.8-.5 1.3-.9 2.7-1.2 4-.6-1.9-1.2-3.7-1.8-5.5-1.4.2-2.8.5-4.2.7" id="6x" style="opacity:.8"/><path d="m1650 80c.6-.2 1.9-.6 2.5-.8 0 1.4-2.4 2.8-2.5.8" id="6y" style="opacity:.8"/><path d="m1721 80c.2 2.8-4.5.1-1.9-1 .5.3 1.4.8 1.9 1" id="6z" style="opacity:.8"/><path d="m2188 79h1.6c.1.4.4 1 .5 1.4-.6.1-1.8.3-2.4.4.1-.5.3-1.4.4-1.9" id="70" style="opacity:.8"/><path d="m2318 81c-1.7.1-1.7-2.3-.1-2.4 0 .6.1 1.8.1 2.4" id="71" style="opacity:.8"/><path d="m2877 81c2.5-1.1 5.1-1.1 7.2.8-.5 1.3-.9 2.7-1.2 4-.6-1.9-1.2-3.7-1.8-5.5-1.4.2-2.8.5-4.2.7" id="72" style="opacity:.8"/><path d="m647 80c1.4.2 2.1 1 2.1 2.3-1.4 0-2.1-.8-2.1-2.3" id="73" style="opacity:.8"/><path d="m1461 80c1.3 0 2.5.7 3.5 1.5-1.1 1.9-3.7.4-3.5-1.5" id="74" style="opacity:.8"/><path d="m2121 80c1.4.3 2.1 1 2.1 2.3-1.4 0-2.1-.8-2.1-2.3" id="75" style="opacity:.8"/><path d="m2935 80c1.3 0 2.5.7 3.5 1.5-1.1 1.9-3.7.4-3.5-1.5" id="76" style="opacity:.8"/><path d="m708 83c-.9-1.5 1.4-2.5 2.7-2.3-.2 1.3-1.4 2.3-2.7 2.3" id="77" style="opacity:.8"/><path d="m2182 83c-.9-1.5 1.4-2.5 2.7-2.3-.3 1.3-1.4 2.3-2.7 2.3" id="78" style="opacity:.8"/><path d="m402 84c-2.1-1.6 1.4-3.2 1.4-.7-.4.2-1.1.5-1.4.7" id="79" style="opacity:.8"/><path d="m570 82c1.5-1.2 3.1 1.4 1.6 2.4-1.5 1.2-3.1-1.4-1.6-2.4" id="7A" style="opacity:.8"/><path d="m640 86c1.9-1.5 3.8-2.9 5.9-4.2l.5 1.1c-2.1 1.1-4.2 2.1-6.3 3.1" id="7B" style="opacity:.8"/><path d="m650 82h2.8c.1 1.9-2.4 1.3-2.8 0" id="7C" style="opacity:.8"/><path d="m1212 82c2.7.1-.3 3.8-.9 1.2.2-.3.7-.9.9-1.2" id="7D" style="opacity:.8"/><path d="m1228 84c.2-1.4 1-2.1 2.4-2.1-.3 1.4-1.1 2.1-2.4 2.1" id="7E" style="opacity:.8"/><path d="m1876 84c-2.1-1.6 1.4-3.2 1.4-.7-.4.2-1.1.5-1.4.7" id="7F" style="opacity:.8"/><path d="m2044 82c1.4-1.2 3.1 1.4 1.6 2.4-1.5 1.2-3.1-1.4-1.6-2.4" id="7G" style="opacity:.8"/><path d="m2114 86c1.9-1.5 3.8-2.9 5.8-4.2l.5 1.1c-2.1 1.1-4.2 2.1-6.3 3.1" id="7H" style="opacity:.8"/><path d="m2124 82h2.8c.1 1.9-2.4 1.3-2.8 0" id="7I" style="opacity:.8"/><path d="m2686 82c2.7.1-.3 3.8-.9 1.2.2-.3.7-.9.9-1.2" id="7J" style="opacity:.8"/><path d="m2702 84c.2-1.4 1-2.1 2.5-2.1-.3 1.4-1.1 2.1-2.5 2.1" id="7K" style="opacity:.8"/><path d="m62.9 86c.1-1.5.9-2 2.3-1.6-.1 1.3-.9 1.8-2.3 1.6" id="7L" style="opacity:.8"/><path d="m74 86c1.1-1.4 3-2.4 4.8-1.6-1.1 1.6-3.1 1.7-4.8 1.6" id="7M" style="opacity:.8"/><path d="m166 87c-.5-2.4 3-3.6 3.3-.8-1 .6-2.1.9-3.3.8" id="7N" style="opacity:.8"/><path d="m1537 86c.1-1.5.8-2 2.3-1.6-.2 1.3-.9 1.8-2.3 1.6" id="7O" style="opacity:.8"/><path d="m1548 86c1.1-1.4 3-2.4 4.8-1.6-1.1 1.6-3.1 1.7-4.8 1.6" id="7P" style="opacity:.8"/><path d="m1640 87c-.5-2.4 3-3.6 3.3-.8-1 .6-2.1.9-3.3.8" id="7Q" style="opacity:.8"/><path d="m83 85c1.4-.5 2.4-.1 3.2 1.1-1.3.5-2.4.1-3.2-1.1" id="7R" style="opacity:.8"/><path d="m124 87c.6-1.9 3.1-2.3 3.9-.4-1.2.7-2.6.6-3.9.4" id="7S" style="opacity:.8"/><path d="m727 87c.9-.6 2.4-.9 3.2.2l-.2.8c-.3.3-.7.9-1 1.2-.8-.6-1.5-1.3-2-2.2" id="7T" style="opacity:.8"/><path d="m1228 85c1.7.3 1.5 2.4.1 2.9 0-.7-.1-2.1-.1-2.9" id="7U" style="opacity:.8"/><path d="m1557 85c1.4-.5 2.4-.1 3.2 1.1-1.4.5-2.5.1-3.2-1.1" id="7V" style="opacity:.8"/><path d="m1598 87c.5-1.9 3.1-2.3 3.9-.4-1.2.7-2.6.6-3.9.4" id="7W" style="opacity:.8"/><path d="m2201 87c.9-.6 2.4-.9 3.2.2l-.2.8c-.3.3-.7.9-1 1.2-.8-.6-1.5-1.3-2-2.2" id="7X" style="opacity:.8"/><path d="m2702 85c1.6.3 1.5 2.4.1 2.9 0-.7-.1-2.2-.1-2.9" id="7Y" style="opacity:.8"/><path d="m129 88c.4-.9 1-1.8 1.7-2.5 1.3 1.2-.3 4.4-1.7 2.5" id="7Z" style="opacity:.8"/><path d="m480 86c1.4 1.7-.8 3.6-2.5 3.2.5-1.3 1.3-2.5 2.5-3.2" id="7a" style="opacity:.8"/><path d="m630 86c1.3.4 2 1.3 2 2.7-1.5-.3-2.1-1.2-2-2.7" id="7b" style="opacity:.8"/><path d="m735 89c-2.3.1-1.1-4 .8-2.8-.4.9-.7 1.8-.8 2.8" id="7c" style="opacity:.8"/><path d="m1603 88c.4-.9.9-1.8 1.7-2.5 1.3 1.2-.3 4.4-1.7 2.5" id="7d" style="opacity:.8"/><path d="m1954 86c1.4 1.7-.8 3.6-2.5 3.2.5-1.3 1.3-2.5 2.5-3.2" id="7e" style="opacity:.8"/><path d="m2104 86c1.3.4 2 1.3 2 2.7-1.5-.3-2.2-1.2-2-2.7" id="7f" style="opacity:.8"/><path d="m2209 89c-2.3.1-1.1-4 .8-2.8-.4.9-.7 1.8-.8 2.8" id="7g" style="opacity:.8"/><path d="m747 87c.7.9.5 2.7-1 2.5.3-.6.8-1.9 1-2.5" id="7h" style="opacity:.8"/><path d="m1142 87c1-.3 2.1-.4 3.2-.2.5 1.9-3.4 2.2-3.2.2" id="7i" style="opacity:.8"/><path d="m1146 87c1.3 0 2.7 0 4 .3.1 2-4.2 1.7-4-.3" id="7j" style="opacity:.8"/><path d="m2221 87c.7.9.5 2.7-1 2.5.3-.6.8-1.9 1-2.5" id="7k" style="opacity:.8"/><path d="m2616 87c1-.3 2-.4 3.2-.2.5 1.9-3.4 2.2-3.2.2" id="7l" style="opacity:.8"/><path d="m2620 87c1.3 0 2.6 0 4 .3.1 2-4.2 1.7-4-.3" id="7m" style="opacity:.8"/><path d="m1160 90c-2.2-.6.3-3.9 1.7-2.2-.5.8-1 1.5-1.7 2.2" id="7n" style="opacity:.8"/><path d="m2634 90c-2.3-.6.3-3.9 1.7-2.2-.5.8-1.1 1.5-1.7 2.2" id="7o" style="opacity:.8"/><path d="m105 91c-.1-1.8 2.7-1.7 2.5.1-.6 0-1.9-.1-2.5-.1" id="7p" style="opacity:.8"/><path d="m1579 91c-.1-1.8 2.7-1.7 2.5.1-.6 0-1.9-.1-2.5-.1" id="7q" style="opacity:.8"/><path d="m45 91c.6-1.3 2.6-1.3 2.7.4-.7-.1-2-.3-2.7-.4" id="7r" style="opacity:.8"/><path d="m49 90c2.2.9 0 4.8-1 2 .3-.5.8-1.5 1-2" id="7s" style="opacity:.8"/><path d="m111 90c1.5-.8 2.4 1.7.9 2.2-.2-.6-.7-1.7-.9-2.2" id="7t" style="opacity:.8"/><path d="m745 90c.5.2 1.6.6 2.1.8.1 2-3.3.8-2.1-.8" id="7u" style="opacity:.8"/><path d="m1132 91c.5-.2 1.5-.6 2.1-.7 1.4 1.6-2.2 2.9-2.1.7" id="7v" style="opacity:.8"/><path d="m1519 91c.6-1.3 2.6-1.3 2.7.3-.7-.1-2-.3-2.7-.3" id="7w" style="opacity:.8"/><path d="m1523 90c2.2.9 0 4.8-1 2 .3-.5.8-1.5 1-2" id="7x" style="opacity:.8"/><path d="m1585 90c1.5-.7 2.4 1.7.9 2.2-.2-.6-.7-1.7-.9-2.2" id="7y" style="opacity:.8"/><path d="m2219 90c.5.2 1.6.6 2.1.8.1 2-3.3.8-2.1-.8" id="7z" style="opacity:.8"/><path d="m2606 91c.5-.2 1.6-.6 2.1-.7 1.4 1.6-2.3 2.9-2.1.7" id="80" style="opacity:.8"/><path d="m141 91c1 1.1 1.1 2.1.2 3.2-1-.9-1.1-2-.2-3.2" id="81" style="opacity:.8"/><path d="m1494 92c2-1 4.5-.3 5.2 2-1.9-.1-3.9-.6-5.2-2" id="82" style="opacity:.8"/><path d="m1615 91c1 1.1 1.1 2.1.2 3.2-1-.9-1.1-2-.2-3.2" id="83" style="opacity:.8"/><path d="m2968 92c2-1 4.5-.3 5.2 2-2 0-3.9-.6-5.2-2" id="84" style="opacity:.8"/><path d="m118 92c1.6.2 2.6 3.2.5 3.2-.6-1-.7-2.1-.5-3.2" id="85" style="opacity:.8"/><path d="m146 93c.6-1.6 2.8-.5 2.3 1-.6-.2-1.7-.7-2.3-1" id="86" style="opacity:.8"/><path d="m480 96c-.6-1.4-1.3-2.9-1-4.4 2.6.2 2.6 2.9 1 4.4" id="87" style="opacity:.8"/><path d="m604 94c-1.5.6-2.2-1.6-1-2.3.3.6.7 1.7 1 2.3" id="88" style="opacity:.8"/><path d="m1221 93c.7-2.1 3.5-.7 1.6.9-.4-.2-1.2-.6-1.6-.9" id="89" style="opacity:.8"/><path d="m1592 92c1.6.2 2.6 3.2.5 3.2-.6-1-.8-2.1-.5-3.2" id="8A" style="opacity:.8"/><path d="m1620 93c.5-1.6 2.8-.5 2.3 1-.6-.2-1.7-.7-2.3-1" id="8B" style="opacity:.8"/><path d="m1954 96c-.6-1.4-1.3-2.9-1-4.4 2.6.2 2.5 2.9 1 4.4" id="8C" style="opacity:.8"/><path d="m2078 94c-1.6.6-2.2-1.6-1-2.3.2.6.7 1.7 1 2.3" id="8D" style="opacity:.8"/><path d="m2695 93c.6-2.1 3.5-.7 1.7.9-.4-.2-1.2-.6-1.7-.9" id="8E" style="opacity:.8"/><path d="m577 96c-1.3-1-.5-3 .9-3.5.4 1.2.3 2.8-.9 3.5" id="8F" style="opacity:.8"/><path d="m610 96c-2.5.8-2.4-3.9 0-3.1-.1 1-.1 2.1 0 3.1" id="8G" style="opacity:.8"/><path d="m2051 96c-1.5-.9-.3-3 .9-3.5.3 1.2.2 2.8-.9 3.5" id="8H" style="opacity:.8"/><path d="m2084 96c-2.5.8-2.4-3.9 0-3.1-.1 1-.1 2.1 0 3.1" id="8I" style="opacity:.8"/><path d="m155 97c-1.6-.2-1.2-2.3.2-2.6 0 .6-.1 2-.2 2.6" id="8J" style="opacity:.8"/><path d="m859 94c1-2.3 3.5 1.7.9 1.4-.2-.3-.7-1-.9-1.4" id="8K" style="opacity:.8"/><path d="m1164 97c-.3-1-.1-1.9.6-2.7 1.2 1.3 1 2.2-.6 2.7" id="8L" style="opacity:.8"/><path d="m1477 94c.6.3 1.9 1 2.5 1.4-1.2 1.1-2.9.2-2.5-1.4" id="8M" style="opacity:.8"/><path d="m1629 97c-1.7-.2-1.2-2.3.2-2.6 0 .6-.1 2-.2 2.6" id="8N" style="opacity:.8"/><path d="m2333 94c.9-2.3 3.4 1.7.9 1.4-.2-.3-.7-1-.9-1.4" id="8O" style="opacity:.8"/><path d="m2638 97c-.4-1-.2-1.9.6-2.7 1.2 1.3 1 2.2-.6 2.7" id="8P" style="opacity:.8"/><path d="m2951 94c.6.3 1.9 1 2.5 1.4-1.2 1.1-2.9.2-2.5-1.4" id="8Q" style="opacity:.8"/><path d="m38 98c-1.8-.9-.5-2.8 1-3.1.4 1.3 0 2.3-1 3.1" id="8R" style="opacity:.8"/><path d="m148 95c1.3.4 1.9 1.2 1.8 2.4-1.4 0-2-.8-1.8-2.4" id="8S" style="opacity:.8"/><path d="m1512 99c-1.1-1.4-.3-3.2 1.4-3.5.1 1.4-.4 2.5-1.4 3.5" id="8T" style="opacity:.8"/><path d="m1622 95c1.3.4 1.9 1.2 1.8 2.4-1.4 0-2-.8-1.8-2.4" id="8U" style="opacity:.8"/><path d="m480 96c1.2-.4 3.1.3 3.2 1.8-1.3.5-2.9-.4-3.2-1.8" id="8V" style="opacity:.8"/><path d="m1223 99c-.3-1.4.4-2.3 1.9-2.6-.1 1.4-.7 2.2-1.9 2.6" id="8W" style="opacity:.8"/><path d="m1954 96c1.2-.4 3 .3 3.2 1.7-1.3.5-3-.3-3.2-1.7" id="8X" style="opacity:.8"/><path d="m2697 99c-.3-1.4.3-2.3 1.9-2.6-.1 1.4-.7 2.2-1.9 2.6" id="8Y" style="opacity:.8"/><path d="m647 97c1.1.3 2 .9 2.8 1.8-1.2 1.5-3.5 0-2.8-1.8" id="8Z" style="opacity:.8"/><path d="m748 99c3.5-.8 7.1-.9 10.7 0h.8c-3 0-9 0-12 .1h.7" id="8a" style="opacity:.8"/><path d="m1507 97c1.4.7 2.8 1.5 4.1 2.4-1.7 2.5-4.5-.1-4.1-2.4" id="8b" style="opacity:.8"/><path d="m2121 97c1.1.3 2 .9 2.7 1.8-1.3 1.5-3.5-.1-2.7-1.8" id="8c" style="opacity:.8"/><path d="m2222 99c3.5-.8 7.1-.9 10.7 0h.8c-3 0-9 0-12 .1h.7" id="8d" style="opacity:.8"/><path d="m2982 97c1.7 1.5 3.4 3 5.1 4.4-.9 0-1.9.1-2.8.2-.8-1.5-1.6-3.1-2.4-4.6" id="8e" style="opacity:.8"/><path d="m29.8 104c2.1-2.5 5.1-3.8 7.9-5.3-2.4 2.1-5.2 3.7-7.9 5.3" id="8f" style="opacity:.8"/><path d="m1157 102c.9-1 2.4-.4 2.5.9-.6-.2-1.9-.7-2.5-.9" id="8g" style="opacity:.8"/><path d="m2631 102c.9-1 2.3-.4 2.5.9-.6-.2-1.9-.7-2.5-.9" id="8h" style="opacity:.8"/><path d="m1169 104c2.7.1-.5 3.8-1 1.2.3-.3.7-.9 1-1.2" id="8i" style="opacity:.8"/><path d="m2643 104c2.7.1-.5 3.8-1 1.2.3-.3.7-.9 1-1.2" id="8j" style="opacity:.8"/><path d="m30.5 109c1.5-.5 3.6 2 1.5 2.6-.9-.7-1.4-1.5-1.5-2.6" id="8k" style="opacity:.8"/><path d="m486 112c-2.1.8-5.3-.5-3.9-3.1 1.4.8 2.7 1.9 3.9 3.1" id="8l" style="opacity:.8"/><path d="m1960 112c-2.1.8-5.3-.5-3.8-3 1.4.8 2.7 1.9 3.8 3" id="8m" style="opacity:.8"/><path d="m25.3 111c1.4-.3 2.2.3 2.5 1.6-1.4.4-2.2-.1-2.5-1.6" id="8n" style="opacity:.8"/><path d="m11 113c.5-1.3 1.3-1.9 2.7-1.8-.3 1.4-1.1 2-2.7 1.8" id="8o" style="opacity:.8"/><path d="m4.8 114c1.4-1.8 3.8-1.4 5.4-.2-1.3.1-4 .2-5.4.2" id="8p" style="opacity:.8"/><path d="m475 114c1.2-1.5 3.4.6 2 1.9-1.1 1.5-3.3-.6-2-1.9" id="8q" style="opacity:.8"/><path d="m1949 114c1.2-1.5 3.3.6 2 1.9-1.2 1.5-3.3-.6-2-1.9" id="8r" style="opacity:.8"/></g></svg>