<?xml version="1.0" encoding="UTF-8" standalone="no"?>
<svg width="2106px" height="130px" viewBox="0 0 2106 130" version="1.1" xmlns="http://www.w3.org/2000/svg" xmlns:xlink="http://www.w3.org/1999/xlink" xmlns:sketch="http://www.bohemiancoding.com/sketch/ns">
    <!-- Generator: Sketch 3.3.2 (12043) - http://www.bohemiancoding.com/sketch -->
    <title>horse-shapes</title>
    <desc>Created with Sketch.</desc>
    <defs></defs>
    <g id="Page-1" stroke="none" stroke-width="1" fill="none" fill-rule="evenodd" sketch:type="MSPage">
        <g id="horse-shapes" sketch:type="MSArtboardGroup" fill="#111111">
            <g id="Group1" sketch:type="MSLayerGroup" transform="translate(28.000000, 18.000000)">
                <g id="Group" sketch:type="MSShapeGroup">
                    <path d="M83,1.9 C85.1,1.2 87.2,0.6 89.3,0 C90.2,1.6 91.1,3.3 92,5 L91.4,4.6 C89.4,3.4 87.3,2.3 85.1,1.4 C84.2,5.3 84.9,10 82.1,13.2 C78.1,18 75.1,23.5 73.2,29.5 C73.7,21.7 78.2,14.9 84,9.9 C83.7,7.3 83.4,4.6 83.2,2" id="Shape" opacity="0.8"></path>
                    <path d="M88,12.4 C88.5,9.9 89.8,7.6 91,5.4 C90.2,7.8 89.2,10.1 88,12.4" id="Shape" opacity="0.8"></path>
                    <path d="M88,13 L88.3,11.9 C89.1,16 88.1,20.1 87.5,24.1 C90.3,25.1 93.1,27.9 96.1,27.6 C101,24.4 105.1,20.1 108.9,15.6 C114.1,17.2 119.1,19.6 123.5,22.9 C119.1,20.9 114.7,18.2 109.8,17.8 C105.3,20.7 102.3,25.4 97.6,28 C93.7,30.2 89.3,27.4 86.8,24.5 C86.2,20.6 87.4,16.8 88.1,13" id="Shape" opacity="0.8"></path>
                    <path d="M124,23 C127,24.2 130,25.6 133,26.9 C132.1,28.7 131.3,30.6 130,32.2 C124.6,32.7 119.1,31.6 113.7,32 C111.8,34.4 110.7,37.2 109.1,39.7 C110.1,37 110.2,33.7 112.1,31.4 C118.5,29.5 126.1,32.9 132,28.7 C129.3,26.8 126.7,24.8 124,22.9" id="Shape" opacity="0.8"></path>
                    <path d="M81,25 C85.4,26.5 89.7,28.3 94,30 C92.8,33.5 90.1,35.2 86.2,34.6 C88.5,33.5 90.7,32.4 92.9,31.2 C89.1,29.6 85.4,28 81.6,26.5 C82,29.5 82.3,32.6 82.8,35.6 C82.1,35.2 80.8,34.5 80.2,34.2 C80.4,31.1 80.7,28.1 81.1,25" id="Shape" opacity="0.8"></path>
                    <path d="M73,30 L73,30.8 C73.2,33.1 73.5,35.3 73.7,37.5 C63.7,38.2 53.7,37.1 43.7,37.4 C33.5,38.2 23.9,42.2 14.8,46.6 C10.6,48.9 5.8,46.9 1.5,46.3 C3.7,49.6 5.8,55.2 10.8,54.2 C19.7,52.2 26.5,45.7 33.8,40.9 C33.5,43.7 33.2,46.4 32.8,49.2 L32.7,49.9 C32.7,47.5 32.7,45 32.8,42.6 C27.9,47.5 21.9,51.3 15.5,54.1 C11.8,55.4 7.1,56.5 4,53.5 C1.8,50.8 1.6,47 0.4,43.8 C3.2,45 6.1,46.1 9,47.2 C11.9,46.9 14.4,44.9 17.1,44 C24.8,40.1 33.1,37.8 41.7,36.4 C51.7,35 62.2,38.6 72.2,35.9 C72.3,34 72.5,32 72.7,30.1" id="Shape" opacity="0.8"></path>
                    <path d="M101,53 C103.1,48.5 106.3,44.5 108.9,40.3 C105.8,47.7 101.1,54.3 98.6,62 C97.9,64 95.6,64.4 93.9,65.1 C97.5,61.9 98.8,57.1 100.9,52.9" id="Shape" opacity="0.8"></path>
                    <path d="M33,49 C34.6,51.6 36.1,54.4 37.4,57.2 C33.3,57.4 29.2,57.6 25.1,57.9 C24.5,63.9 24.2,70.1 23.2,75.9 C22.8,75.9 21.9,75.7 21.5,75.7 C23.6,69.6 23.4,62.9 24,56.7 C27.9,56.6 31.8,56.6 35.6,56.5 C34.7,54 33.7,51.5 32.9,49" id="Shape" opacity="0.8"></path>
                    <path d="M50,60 C53.9,58.2 58.2,59.7 62,60.8 C53,59.1 45,64 36.3,65.6 C38.5,68.8 40.8,72 42.9,75.2 C39.9,71.9 37.1,68.6 34.4,65.2 C39.6,63.6 44.7,61.9 49.8,60" id="Shape" opacity="0.8"></path>
                    <path d="M63,61 C64.5,61.4 65.8,62.1 67.1,62.8 C65.9,64.6 62.2,63.2 63,61" id="Shape" opacity="0.8"></path>
                    <path d="M27.7,61.9 C34.7,66.9 40,73.9 43.6,81.7 C43.9,82.3 44.6,83.6 44.9,84.2 C43.7,83.7 42.5,83.2 41.3,82.7 C40.9,74.8 33.9,70 29.7,63.9 C28.8,64.5 28,65.2 27.1,65.8 C27.3,64.8 27.6,62.8 27.7,61.8" id="Shape" opacity="0.8"></path>
                    <path d="M68,63 C72.6,63.9 77.3,64.5 82,65.3 C77.2,65.5 72.4,65.2 68,63" id="Shape" opacity="0.8"></path>
                    <path d="M82,65 C83.9,65 84,67.1 83.4,68.4 C82.1,68.1 81,66.1 82,65" id="Shape" opacity="0.8"></path>
                    <path d="M80,90 C80.2,80.7 83.4,70.3 92.7,66.3 C84.9,71.8 82.1,81.2 80,90" id="Shape" opacity="0.8"></path>
                    <path d="M21,80 C25,76.8 26.9,71.8 27,66.7 C26.6,70.3 27.7,74.4 25.7,77.7 C23.8,80 20.7,80.5 18.1,81.6 C18.6,79.7 19.1,77.8 19.9,76 C20.3,77.4 20.6,78.7 20.9,80.1" id="Shape" opacity="0.8"></path>
                    <path d="M78,80 C81,77.3 81.8,73.1 83.8,69.7 C82.8,74.6 81.7,81.2 75.5,81.7 C73.3,81.8 71.2,81.5 69.1,81.3 L69.4,80.5 C70,79.4 69.9,78.5 69,77.9 C67.3,77.6 67.8,80 68.8,80.6 L64.3,79.1 L64.5,78.6 C65.2,77.5 65,76.7 64.1,76 C62.4,75.7 62.9,78.1 63.9,78.7 C62.8,78.4 60.7,77.9 59.6,77.6 C61.1,76.8 62.4,74.9 64.2,75.8 C69,76.9 73.2,80.4 78.2,80.3" id="Shape" opacity="0.8"></path>
                    <path d="M42.8,76 C45.1,75.9 45.4,80 43.4,80.8 C43.2,79.6 43,77.2 42.8,76" id="Shape" opacity="0.8"></path>
                    <path d="M63,78 C62,77.4 61.5,75.1 63.2,75.3 C64.1,76 64.3,76.9 63.6,77.9 L62.9,77.9" id="Shape"></path>
                    <path d="M68,80 C67,79.4 66.5,77.1 68.2,77.3 C69.1,78 69.3,78.9 68.6,79.9 L67.9,79.9" id="Shape"></path>
                    <path d="M100,95 C103.5,94.6 107.4,94.1 110.5,96.4 C107,96.3 103.5,95.6 100,95" id="Shape"></path>
                    <path id="Shape" d="M58,97 C61.3,96.8 64.7,96.6 68,96.6 C64.6,96.8 61.3,97 58,97"></path>
                </g>
                <path d="M76,82 C76.5,82.2 77.6,82.5 78.1,82.6 C78.4,86.7 78.5,90.9 79,95 C75.4,95.7 71.8,96.3 68.2,96.9 C74.9,97.1 81.7,97.2 88.2,97.4 C85.7,95.4 83.3,93.2 81,91 C82.9,92 84.7,93.1 86.5,94.3 C97.2,95.5 107.8,93.7 118.5,94.5 C128,95 137.5,94.8 147,96 C134.6,98.3 122,98.9 109.4,98.3 C77.4,97.6 44.4,99.3 12.4,98.1 C11.9,97.2 11.4,96.2 10.9,95.3 C32.3,94.6 53.7,96 74.9,94.9 C77.7,91.3 76.6,86.2 75.5,82.1 M99.5,95.5 C103,96.1 106.4,96.7 110,96.9 C107,94.6 103,95.1 99.5,95.5 M57.5,96.9 C60.8,96.9 64.2,96.7 67.5,96.5 C64.2,96.5 60.8,96.7 57.5,96.9" id="Shape" opacity="0.8" sketch:type="MSShapeGroup"></path>
                <path d="M85,1.3 C87.2,2.2 89.3,3.3 91.3,4.5 L90.8,5.4 C89.6,7.6 88.4,9.9 87.8,12.4 L87.6,13.2 C86.8,17 85.7,20.9 86.3,24.7 C88.8,27.6 93.2,30.4 97.1,28.2 C101.8,25.6 104.8,20.9 109.3,18 C114.2,18.4 118.6,21.1 123,23.1 L123.6,23.5 C126.3,25.4 129,27.4 131.6,29.3 C125.7,33.4 118.1,30.1 111.7,32 C109.8,34.3 109.6,37.5 108.7,40.3 L108.5,41 C105.9,45.2 102.7,49.1 100.6,53.7 C98.4,57.8 97.1,62.7 93.6,65.9 L92.9,66.3 C83.6,70.3 80.5,80.7 80.2,90 C80.5,90.3 81.2,90.9 81.5,91.2 C83.9,93.4 86.3,95.5 88.7,97.6 C82,97.4 75.2,97.3 68.7,97.1 C72.3,96.5 75.9,95.9 79.5,95.2 C79,91.1 78.9,86.9 78.6,82.8 C78.1,82.6 77,82.3 76.5,82.2 L75.3,81.9 C81.5,81.4 82.6,74.8 83.6,69.9 L83.8,68.9 C84.4,67.6 84.3,65.4 82.4,65.5 L81.6,65.5 C77,64.7 72.3,64.1 67.6,63.2 L66.8,62.9 C65.5,62.2 64.1,61.5 62.7,61.1 L61.8,60.8 C57.9,59.7 53.6,58.2 49.8,60 C44.7,61.8 39.6,63.5 34.4,65.2 C37,68.7 39.9,72.1 42.9,75.2 L42.9,76.1 C43.1,77.3 43.3,79.7 43.5,80.9 L43.7,82.2 C40.2,74.4 34.9,67.3 27.8,62.4 C27.7,63.4 27.4,65.4 27.2,66.4 L27.1,67.3 C27,72.4 25.2,77.3 21.1,80.6 C20.8,79.2 20.4,77.9 20.1,76.5 L22,76.8 C22.4,76.8 23.3,77 23.7,77 C24.7,71 25,65 25.6,59 C29.7,58.8 33.8,58.6 37.9,58.3 C36.6,55.5 35.1,52.8 33.5,50.1 L33,49.3 C33.4,46.5 33.7,43.8 34,41 C26.6,45.9 19.7,52.3 11,54.3 C6,55.2 3.9,49.7 1.7,46.4 C6.1,47.1 10.9,49 15,46.7 C24,42.3 33.7,38.2 43.9,37.5 C53.9,37.2 63.9,38.3 73.9,37.6 C73.7,35.4 73.3,33.1 73.2,30.9 L73.4,30 C75.3,24 78.4,18.5 82.3,13.7 C85.1,10.5 84.4,5.8 85.3,1.9 M81,25.9 C80.6,28.9 80.4,32 80.1,35.1 C80.7,35.4 82.1,36.2 82.7,36.5 C83.8,36.2 85,36 86.1,35.5 C90,36.1 92.7,34.4 93.9,30.9 C89.6,29.1 85.3,27.4 80.9,25.9" id="Shape" sketch:type="MSShapeGroup"></path>
            </g>
            <g id="Group2" sketch:type="MSLayerGroup" transform="translate(222.000000, 17.000000)">
                <g id="Group" sketch:type="MSShapeGroup">
                    <path d="M86,0.9 C88.1,0.6 90.2,0.4 92.3,0.2 C93.1,1.3 93.9,2.4 94.7,3.5 C93.5,10.7 90.6,17.5 89.1,24.5 C91.1,28.9 96.4,28 100,26.1 L100,27.4 C97.6,29 95.4,30.7 93.1,32.4 C90,34.7 85.9,34.3 82.3,34.9 C82.1,34 81.9,33.1 81.7,32.2 C85.6,32.5 89.4,32.8 93.3,32.8 C93.3,32.1 93.3,30.7 93.2,30 C91.1,29.4 86.8,28.2 84.7,27.6 C83.9,28.8 83,29.9 82.2,31.1 C82.8,29.7 83.4,28.2 84,26.8 C85.6,27 87.1,27.2 88.7,27.3 C88.3,19.4 91.5,12.3 93,4.6 C93.3,1.3 89.3,1.1 87,0.6 C87.3,3.4 88.1,6.3 87.7,9.2 C85.7,12.8 82.3,15.5 80,18.9 C77,24.3 76.1,30.4 75.1,36.4 C68.4,36.2 61.7,36.2 55.1,35.4 C48.8,33.4 43.8,38 38.4,40.2 C32.6,42.2 26.5,43 20.5,44.5 C25.3,41.9 30.9,41.6 36.1,39.9 C40.1,38.7 43.3,35.9 47.1,34.4 C56.1,33.7 65,35.6 74,35.5 C74.5,26.5 77.4,16.9 84.8,10.9 C88.3,8.4 85.9,3.9 85.8,0.6" id="Shape" opacity="0.8"></path>
                    <path d="M108,15 C108.5,14.5 109.1,14 109.7,13.4 C116.8,17.6 124.2,21.4 130.5,26.9 C132.8,28.8 130.8,31.6 130.2,33.8 C124.8,32.3 119.3,31.6 113.7,30.7 C111.8,34.8 109.8,38.8 107.4,42.6 C108.7,38.6 109.5,34.3 112,30.9 C113.4,28.2 117.3,31.4 119.1,30.2 C122.3,30.6 125.5,31.3 128.6,31.9 C129.4,31.1 130.3,30.2 131.1,29.4 C123.9,23.8 116.4,18.4 108.1,14.8" id="Shape" opacity="0.8"></path>
                    <path d="M101,21 C102.5,18.5 105.1,17.1 107.7,16 C105.9,17.5 104,19 102.1,20.3 L101,21" id="Shape" opacity="0.8"></path>
                    <path d="M103,21 C103.5,21.7 104.1,22.5 104.6,23.3 C103.3,23.8 102,24.4 100.7,24.9 L99.8,25.3 C100.9,23.9 102,22.5 103.1,21" id="Shape" opacity="0.8"></path>
                    <path d="M12,57 C20.3,52.4 27.7,46 36.7,42.5 C37,45.5 36.7,48.8 37.9,51.6 C40,54.5 43.1,56.6 45.5,59.2 C44.7,63 40.7,64.9 38.4,67.7 C45.4,71.7 53,76.1 61.4,75.3 C60.8,74.9 59.6,74.3 59,73.9 C64,75.9 68.8,78.4 74,80.1 C75.9,80.9 77.8,79.2 78.4,77.5 C80.9,73.7 82.3,69.4 83.9,65.1 C77.6,63.8 71.3,62.2 65.2,60 C71.8,61.2 78.4,62.7 85,64.1 C83,70.1 82,77.8 76.3,81.5 C72,81.8 68.3,78.6 64.7,76.5 C66.2,78.3 67.6,80.1 69,81.9 C66,82.3 63,82.7 60.1,83.3 C66.5,82.8 73.9,84.6 79.5,80.6 C84,77.3 85.8,71.9 88.7,67.4 C93.8,64.3 98.2,69.4 100.7,73.4 C99.8,74.4 98.8,75.3 97.8,76.1 C98.2,74.4 98.5,72.6 98.9,70.9 C95.9,69.9 93.1,68.4 90.1,67.8 C88.2,69.9 86.6,72.4 84.9,74.7 C86.8,75.1 88.6,75.4 90.5,75.7 C86.7,77.9 91.2,78.6 93.9,77.9 C93.1,77.1 92.3,76.4 91.4,75.8 C93.2,76 95,76.1 96.8,76.1 C98.8,76 100.8,75.8 102.8,75.6 C101.1,71.2 95.9,67.2 98.3,61.9 C100.6,55.4 104,49.4 107.1,43.2 C105.1,50.8 102.1,58.2 97.5,64.6 C100.1,67.8 102.7,71 105.3,74.1 C99.6,79.7 90.8,78.2 83.5,78 C78.4,86.8 66.5,84.4 57.8,84.3 C60,80.5 64.3,80.8 68.1,81 C64.3,78.6 60.2,77 56.2,75.2 C55,78.3 55.1,82.7 51.3,83.6 L52.1,82.8 C53.1,82 54.9,80.2 53.4,79 C51.7,78.8 51.4,81.1 51.6,82.3 C51.6,80.3 51.8,78.3 52,76.4 C46.6,73.4 40.5,71.1 36.2,66.4 C39.1,64.1 42.6,62.3 44.8,59.4 C41.9,57 38.8,54.8 35.8,52.5 C35.9,49.6 36.2,46.8 36.3,43.9 C27.9,47.5 21.1,53.9 13,57.9 C6.3,61.2 3.3,53.5 0.4,49.3 C3.9,46.6 7.9,47.4 11.4,49.4 C14,47.5 16.9,45.8 20,44.8 C18.8,45.7 17.6,46.6 16.4,47.4 C12.6,50.7 7.1,49 2.5,49.3 C4.5,52.7 7,59.1 12.1,57" id="Shape" opacity="0.8"></path>
                    <path d="M62,58 C63.2,56.7 65.5,57.9 64.9,59.7 C63.7,59.5 62.7,59 62,58" id="Shape" opacity="0.8"></path>
                    <path d="M57,63 C56.7,60.7 58.8,59.5 60.7,59 C59.9,60.7 58.9,62.5 57,63" id="Shape" opacity="0.8"></path>
                    <path d="M56,73 C56.4,70 57,67 57.3,63.9 C57.5,67.3 58,70.8 58.5,74.2 C57.7,73.8 56.8,73.4 56,73" id="Shape" opacity="0.8"></path>
                    <path d="M94,78 C91.2,78.7 86.8,78 90.6,75.8 L91.5,75.8 C92.4,76.4 93.2,77.1 94,77.9" id="Shape"></path>
                    <path d="M52,83 C51.8,81.8 52.1,79.5 53.8,79.7 C55.2,80.9 53.5,82.7 52.5,83.5 L52,83" id="Shape"></path>
                    <path d="M43,65 C46.3,64.6 49.5,64.2 52.8,63.7 C52.7,66.9 52.8,70.2 52.7,73.4 C48.6,71.8 43.2,70.6 43,65 M44.7,65.9 C44.8,66.6 44.9,67.9 45,68.6 C47.3,69.7 49.6,70.8 51.8,71.9 C51.8,70.1 51.7,66.6 51.7,64.8 C49.4,65.2 47,65.6 44.7,65.9" id="Shape" opacity="0.8"></path>
                </g>
                <path d="M13,96 C43.5,93.4 74,95.9 105,94.1 C112.5,93.5 119.9,94.5 127.4,95.1 C104.8,97.3 82.4,97.2 59.4,97.2 C44.1,97.2 28.5,99.9 13.4,95.9" id="Shape" opacity="0.8" sketch:type="MSShapeGroup"></path>
                <path d="M87,1 C89.3,1.5 93.3,1.7 93,5 C91.5,12.6 88.3,19.8 88.7,27.7 C87.1,27.5 85.6,27.3 84,27.2 C83.4,28.7 82.8,30.1 82.2,31.5 L81.6,32.6 C81.8,33.5 82,34.4 82.2,35.3 C85.8,34.7 89.9,35.1 93,32.8 C95.3,31.1 97.5,29.4 99.9,27.8 L99.9,26.5 L99.9,25.3 C101.2,24.8 102.5,24.2 103.8,23.7 C103.3,22.9 102.7,22.2 102.2,21.4 L101.5,20.5 C103.5,19.2 105.3,17.7 107.1,16.2 L107.9,15.5 C116.4,19.1 123.9,24.5 130.9,30.1 C130,30.9 129.2,31.7 128.4,32.6 C125.2,32 122.1,31.3 118.9,30.9 C117.1,32 113.2,28.9 111.8,31.6 C109.2,35 108.5,39.3 107.2,43.3 L106.9,43.9 C103.8,50.1 100.4,56.1 98.1,62.6 C95.7,67.8 100.9,71.8 102.6,76.3 C100.6,76.5 98.6,76.7 96.6,76.8 L97.8,76.8 C98.8,76 99.8,75.1 100.7,74.1 C98.2,70.2 93.7,65.1 88.7,68.1 C85.9,72.6 84,78 79.5,81.3 C73.8,85.3 66.5,83.4 60.1,84 C63,83.3 66,83 69,82.6 C67.6,80.7 66.2,79 64.7,77.2 C68.3,79.3 72,82.5 76.3,82.2 C82,78.5 83,70.8 85,64.8 C78.4,63.4 71.8,61.9 65.2,60.7 L64.3,60.5 C64.8,58.8 62.6,57.5 61.4,58.8 L60.8,59.2 C58.9,59.7 56.8,61 57.1,63.2 L57.1,64 C56.7,67 56.2,70 55.8,73.1 C56.6,73.5 57.5,73.9 58.3,74.3 L59.1,74.7 C59.7,75 60.9,75.7 61.5,76.1 C53.1,76.9 45.6,72.5 38.5,68.5 C40.8,65.7 44.9,63.8 45.6,60 C43.2,57.3 40.1,55.3 38,52.4 C36.8,49.5 37.2,46.3 36.8,43.3 C27.9,46.8 20.5,53.2 12.1,57.8 C7,59.9 4.5,53.6 2.5,50.1 C7.1,49.9 12.5,51.5 16.4,48.2 C17.6,47.3 18.8,46.4 20,45.6 L20.6,45.2 C26.5,43.7 32.6,42.9 38.5,40.9 C43.9,38.8 48.9,34.2 55.2,36.1 C61.8,36.9 68.5,36.9 75.2,37.1 C76.2,31.1 77,25.1 80.1,19.6 C82.4,16.2 85.8,13.6 87.8,9.9 C88.2,7 87.3,4.2 87.1,1.3 M43.1,65.3 C43.3,70.9 48.7,72.1 52.8,73.7 C52.9,70.5 52.8,67.2 52.9,64 C49.6,64.4 46.4,64.9 43.1,65.3" id="Shape" sketch:type="MSShapeGroup"></path>
            </g>
            <g id="Group3" sketch:type="MSLayerGroup" transform="translate(422.000000, 15.000000)">
                <g id="Group" sketch:type="MSShapeGroup">
                    <path d="M84,3 C86.2,2.2 88.3,1.3 90.5,0.5 C91.3,2 92.1,3.4 92.8,4.9 C91.5,3.9 90.1,3 88.8,2 C87.3,3.1 85.8,4.2 84.3,5.3 L83.7,5.7 C83.8,5 83.9,3.6 84,2.9" id="Shape" opacity="0.8"></path>
                    <path d="M84,25.7 C86.7,19 89.3,12.1 92.9,5.8 C93.2,6.3 93.7,7.4 94,8 C90.4,12.3 88.5,17.6 86.7,22.8 C85.5,25.3 87.8,27.4 88.7,29.5 C87.2,28.2 85.6,27 84,25.8" id="Shape" opacity="0.8"></path>
                    <path d="M85,6.4 C85.7,7.5 86.4,8.7 87,9.8 C82.6,13.1 78.7,16.8 74.7,20.5 L73.9,21.2 C76.7,16.4 80.3,12.2 85.3,9.6 C85.2,8.5 85,7.4 84.9,6.3" id="Shape" opacity="0.8"></path>
                    <path d="M106,16 C114.8,19.3 122.8,24.2 129.9,30.3 C129.8,32.4 129,34.4 128.4,36.5 C125.8,35.7 123.3,34.8 120.8,33.9 C124,34.4 127.3,33.8 130,31.9 C123.6,27.3 117.4,22.1 110.1,19 C108.9,18.6 107.4,17.9 106.5,19.1 C100.6,24.5 96.3,31.9 88.8,35.4 C86,35.8 83.2,35.1 80.5,34.9 C83.6,34.8 86.8,34.7 89.9,34.6 C90,34 90.1,32.8 90.1,32.2 C87.5,31.1 84.9,30 82.4,28.8 C81.8,30.4 81.3,32 80.7,33.7 C81,31.8 81.2,29.9 81.5,28 C84.1,28.6 86.7,29.4 89.3,29.8 L95.8,29.8 C99.2,25.2 102.8,20.8 106.1,16.1" id="Shape" opacity="0.8"></path>
                    <path d="M75,21.6 C75.1,27.1 74.7,32.6 74.8,38.1 C70.5,37.7 66.3,37.3 62,36.9 C65.9,36.7 69.7,36.6 73.6,36.6 C73.1,31.6 73.2,26.4 75,21.6" id="Shape" opacity="0.8"></path>
                    <path d="M111,31.8 C114,32.5 117,33.3 120,33.9 L120.8,34 C118.5,34.7 114.1,36.2 111.8,36.9 C113.8,35.6 115.7,34.5 117.7,33.3 C114.8,33.7 112.1,34.1 109.2,34.7 C109.7,33.7 110.3,32.7 110.9,31.7" id="Shape" opacity="0.8"></path>
                    <path d="M46,35.6 C51.2,34.4 56.5,35.8 61.6,36.8 C56.4,36.4 50.9,35.8 45.8,37.6 C42.2,39.1 38.9,41.2 35.2,42.7 C38.7,40.3 42,37.4 45.9,35.7" id="Shape" opacity="0.8"></path>
                    <path d="M99,63 C102.1,53.8 104,44.2 108.8,35.7 C106.5,44.7 103.5,53.5 100.5,62.2 C103.8,65.1 108.2,67.1 110.3,71.1 C107.2,74.8 103.4,77.8 100.1,81.3 C97.2,80.8 94.3,80.3 91.5,79.8 C92.9,78.4 94.3,77.1 95.8,75.9 L95.4,77 C95,78 94.6,79 94.3,80.1 C96.7,79.7 99.2,79.3 101.7,78.8 C100.1,78.3 98.4,77.9 96.8,77.4 C100.3,76.5 103.5,74.7 106.2,72.2 C101.7,68.2 95.6,68.2 90,67.8 C87.4,73.3 86.1,79.2 84.3,84.8 C70,83.1 57.3,76 43.3,73.2 C45,69.6 46.6,65.9 47.7,62 C43.4,60 39.1,57.8 36,54.1 C40.1,56.4 44.7,58.2 48.2,61.4 C47.8,65.3 46.8,69 45.7,72.7 C52.5,74.3 59.3,76.2 65.7,78.7 C71.3,80.7 76.7,83.5 82.7,83.1 C85.8,78.8 85.4,72.9 88.4,68.5 C89.7,65.6 94.1,68.3 96,67.1 C100.8,66.2 104.3,69.4 107.3,72.5 C107.8,71.9 108.4,71.2 108.9,70.6 C105.6,68.1 102.3,65.5 99,63" id="Shape" opacity="0.8"></path>
                    <path d="M9,52 C15.9,45.6 25,42.9 34.4,42.5 C30.4,43.7 26.3,44.5 22.4,46 C15.8,48.5 9.9,54.6 2.4,52.6 C3.6,54.8 4.8,57 6.1,59.2 C15.7,53.4 25.8,48.2 36.1,44.2 C36,47 36,49.8 35.9,52.5 L35.9,53.3 C35.7,51.4 35.3,47.5 35.1,45.6 C25.1,51.1 14.5,55.5 4.4,60.5 C3,57.5 1.8,54.3 0.7,51.1 C3.5,51.2 6.3,51.5 9.1,52" id="Shape" opacity="0.8"></path>
                    <path d="M60,61 C67.7,62.5 75.2,65.1 82.8,66.9 C83.4,71.7 84,76.5 83.7,81.3 C81.8,81.3 77.9,81.2 76,81.2 L76.8,81 C85.5,81.6 82.4,73.3 82.1,68.1 C74.8,66.6 67.7,64.1 60.6,62 C61.8,65.3 60.2,70.5 63.3,73 C67.3,75.7 71.5,78.1 75.8,80.4 C70.7,79 65.9,76.8 61.6,73.8 C59.4,70 60.9,65.1 60,61" id="Shape" opacity="0.8"></path>
                    <path d="M48,72 C48.9,68.2 51.3,65.2 55.9,65.4 C56.8,68.4 57.3,71.6 57.3,74.7 C54.2,73.9 51,72.9 48,72 M49,70.7 C51.2,71.5 53.4,72.4 55.6,73.3 C55.9,72.8 56.5,71.8 56.7,71.3 C55.9,69.7 55,68.1 54.1,66.6 C52.3,67.9 50.5,69.3 48.9,70.8" id="Shape" opacity="0.8"></path>
                    <path d="M94,80 C94.4,79 94.8,78 95.1,76.9 L96.4,77.3 C98,77.8 99.7,78.2 101.3,78.7 C98.9,79.2 96.3,79.6 93.9,80" id="Shape"></path>
                    <path d="M68,98 C71,97.8 77,97.5 80,97.4 C76.1,98.5 72,99.1 68,98" id="Shape"></path>
                </g>
                <path d="M49,97 C73.5,93.2 98,96.8 123,97 C106.1,100.3 89,100.6 72,100.7 C64.3,100.9 56.5,99.7 49.3,97 M68.3,97.7 C72.3,98.8 76.4,98.2 80.3,97.1 C77.3,97.3 71.3,97.6 68.3,97.7" id="Shape" opacity="0.8" sketch:type="MSShapeGroup"></path>
                <path d="M89,2.2 C90.3,3.2 91.7,4.1 93,5.1 L92.7,5.7 C89.1,12.1 86.6,18.9 83.8,25.6 C85.4,26.8 86.9,28.1 88.5,29.3 L89,29.7 C86.4,29.2 83.8,28.5 81.2,27.9 C81,29.8 80.7,31.7 80.4,33.6 L80.1,34.8 C82.9,35 85.7,35.7 88.4,35.3 C95.9,31.8 100.2,24.4 106.1,19 C107,17.8 108.6,18.5 109.7,18.9 C117,22 123.2,27.2 129.6,31.8 C126.9,33.6 123.7,34.3 120.4,33.8 L119.7,33.7 C116.7,33.1 113.7,32.3 110.7,31.6 C110.1,32.6 109.5,33.6 109,34.6 L108.6,35.3 C103.8,43.8 102,53.3 98.8,62.6 C102.1,65.1 105.4,67.7 108.7,70.2 C108.2,70.8 107.6,71.5 107.1,72.1 C104.1,69 100.6,65.9 95.8,66.7 C93.9,67.9 89.5,65.2 88.2,68.1 C85.2,72.5 85.7,78.4 82.5,82.7 C76.4,83.1 70.9,80.2 65.5,78.3 C58.9,75.8 52.1,74 45.5,72.3 C46.6,68.6 47.6,64.8 48,61 C44.5,57.8 40,56 35.8,53.7 L35.8,52.6 C35.9,49.8 35.9,47 36,44.3 C25.5,48.4 15.4,53.5 6,59.3 C4.7,57.1 3.5,54.9 2.3,52.7 C10,54.6 15.8,48.6 22.3,46.1 C26.2,44.6 30.3,43.9 34.3,42.6 L35,42.4 C38.6,40.9 41.9,38.8 45.6,37.3 C50.7,35.5 56.1,36.1 61.4,36.5 L62.2,36.5 C66.5,36.9 70.7,37.3 75,37.7 C74.9,32.2 75.3,26.7 75.2,21.2 L75.2,20.2 C79.1,16.5 83.1,12.7 87.5,9.5 C86.8,8.4 86.1,7.2 85.5,6.1 L84.9,5.1 C86.4,4 87.9,2.9 89.4,1.8 M60.4,60.8 C61.3,64.9 59.8,69.8 62,73.6 C66.3,76.7 71.1,78.8 76.2,80.2 L77.1,80.7 L76.3,80.9 C78.2,80.9 82.1,81 84,81 C84.3,76.2 83.7,71.4 83.1,66.6 C75.5,64.7 68.1,62.2 60.3,60.7 M48.9,71.7 C52,72.7 55.1,73.6 58.2,74.4 C58.2,71.2 57.7,68.1 56.8,65.1 C52.2,64.9 49.8,67.9 48.9,71.7" id="Shape" sketch:type="MSShapeGroup"></path>
            </g>
            <g id="Group4" sketch:type="MSLayerGroup" transform="translate(613.000000, 16.000000)">
                <g id="Group" sketch:type="MSShapeGroup">
                    <path d="M90,1.6 C91.7,1.4 95,1.1 96.7,0.9 C96.9,3.3 96.9,5.8 97.2,8.2 C92.4,13 91.4,20 89.5,26.2 C88.6,17.4 94.6,10.3 96.6,2.2 C94.4,2 92.1,1.7 89.9,1.5" id="Shape" opacity="0.8"></path>
                    <path d="M89,5 C86.9,4.8 88.5,1.2 90.1,2.5 C90,3.5 89.6,4.3 89,5" id="Shape" opacity="0.8"></path>
                    <path d="M90,8 C88.3,8.7 88,5.4 89.8,5.9 C89.9,6.4 90,7.5 90,8" id="Shape" opacity="0.8"></path>
                    <path d="M79,18.4 C81.4,14 85.5,10.9 90,8.6 C87.3,11.8 83.8,14.3 81.3,17.6 C76.8,23.5 75.2,31.1 78.4,37.9 C69.8,38 61.4,37 52.8,35.6 L52,35.5 C60.5,35.5 68.9,36.4 77.3,36.9 C72.8,31.2 76.1,24 79,18.3" id="Shape" opacity="0.8"></path>
                    <path d="M110,20 C109.6,17.7 114.5,16.8 114.8,19.3 C113.2,19.5 111.6,19.8 110,20" id="Shape" opacity="0.8"></path>
                    <path d="M96,30.8 C100.4,27.4 103.6,22.6 108.6,20.2 C105.3,24 102.3,28.4 97.8,31 C95.3,32.2 93.2,30.8 91.4,29.5 C92.9,29.9 94.4,30.4 95.9,30.9" id="Shape" opacity="0.8"></path>
                    <path d="M119,20 C125.4,24 130.9,29.1 136.2,34.4 C134.9,36 133.5,37.5 132.1,39 C128.1,37.5 123.9,36 119.6,36.4 C110.6,34.8 111,45.9 107.9,51.1 C109.4,45.1 110,37.5 115.5,33.7 C122.1,33.9 128.3,36.9 134.9,36.7 C130.2,30.7 124.9,25.2 119,20.1 M116.2,34.1 C114.5,34.6 115.4,37.2 117,36.5 C118.7,36.1 117.7,33.4 116.2,34.1" id="Shape" opacity="0.8"></path>
                    <path d="M84,29.6 C85.5,28 87.8,28.4 89.8,28.1 C87.5,29.4 85.3,30.8 83,32.2 C83.4,32.9 84.3,34.2 84.8,34.8 C87.2,34.7 89.6,34.6 92.1,34.5 C91.5,32.8 90.9,31 90.3,29.3 C91.9,31 93.5,32.8 95,34.7 C91,35.2 87,35.7 83,36.1 C83.1,33.9 82.2,31.1 84.1,29.5" id="Shape" opacity="0.8"></path>
                    <path d="M44,39 C45.9,36.9 48.5,35.7 51.4,35.4 C48.9,36.5 46.5,37.8 44,39" id="Shape" opacity="0.8"></path>
                    <path d="M26,44 C32,42.7 37.9,41.2 43.8,39.5 C38.5,42.1 32.6,43.6 26.8,43.9 L26.1,43.9" id="Shape" opacity="0.8"></path>
                    <path d="M17,44 C19.9,44 23,43.9 25.9,44 C16.4,44.9 10.6,53.1 2.9,57.3 C4.1,58.6 5.4,59.9 6.6,61.2 C12.6,56.7 18.8,52.5 25.9,50 C20.2,53.5 14.7,57.4 9.1,61 C4,64.3 2.5,57.8 0.2,54.9 C2.2,55 4.3,55.1 6.4,55.2 C9.9,51.4 13.6,47.7 17.2,44" id="Shape" opacity="0.8"></path>
                    <path d="M26,49.9 C30.1,48.3 34.2,46.4 38.2,44.7 C38.2,45.8 38.2,46.9 38.3,48 C38,47.5 37.4,46.6 37.1,46.2 C33.5,48.7 29.5,51 25.1,50.3 L26.2,49.9" id="Shape" opacity="0.8"></path>
                    <path d="M38,48.8 C39.5,59.6 53.5,61.7 55.8,71.8 C52,65.4 44.9,61.9 39.8,56.8 C37.8,54.7 38.1,51.5 37.9,48.8" id="Shape" opacity="0.8"></path>
                    <path d="M104,60 C105.3,57.3 106.7,54.7 107.9,52 C107.5,54.8 107,57.6 105.8,60.1 C105.4,60.1 104.5,60.1 104,60" id="Shape" opacity="0.8"></path>
                    <path d="M108,60 C111.8,60.5 117.2,58.8 120,62.3 C121,69.3 121.2,76.3 120.2,83.3 C118.9,82.5 117.6,81.7 116.4,80.9 C118.2,75.3 118,69.4 116.7,63.7 C111.8,64.6 106.9,65.6 101.9,66 C107.1,64.7 112.4,63.8 117.6,62.8 C118,64.7 118.9,68.5 119.3,70.4 C119.2,67.7 118.9,65 118.9,62.3 C115.3,61.5 111.6,60.7 107.9,60 M118.5,78.3 C117,78.3 117,80.7 118.5,80.7 C120,80.7 120,78.3 118.5,78.3" id="Shape" opacity="0.8"></path>
                    <path d="M64,63 C75.3,65.9 87,66.1 98.4,69.6 C87.2,68.2 75.9,67.3 64.9,64.4 C65.1,66.7 65.3,69.1 65.5,71.4 C69,72.6 72.6,73.7 76.2,74.9 C72.3,74 68.3,73.3 64.4,72.5 C64.4,69.3 64.1,66.1 64,63" id="Shape" opacity="0.8"></path>
                    <path d="M102,67 C103.6,68.5 105.5,69.9 106.7,71.8 C106.4,73.2 105.8,74.5 105.3,75.9 C104.8,72.7 103.5,69.8 102,67" id="Shape" opacity="0.8"></path>
                    <path d="M103,71 C104,72.8 105,74.7 106,76.5 C103.9,76.9 101.9,77.3 99.8,77.8 C100,77.4 100.4,76.6 100.6,76.2 C101.4,74.5 102.3,72.8 103,71.1" id="Shape" opacity="0.8"></path>
                    <path d="M89,73 L94.9,73.7 L94.2,73.9 C93.3,74.1 91.6,74.5 90.7,74.7 C93.4,76.4 96.2,77.9 99.2,79.2 C94.3,80.9 91.2,76.7 89,73" id="Shape" opacity="0.8"></path>
                    <path d="M61,75 C69.6,75.9 78,78.2 86,81 C82.9,79 79.7,77.1 76.3,75.6 C81,75.9 85.4,78.1 88.2,81.9 C78.9,81.8 70.5,76.5 61.2,76 L60.8,74.9" id="Shape" opacity="0.8"></path>
                    <path d="M94,76 C95,74.5 97.8,75.5 98.3,77 C97.3,77 95.4,77.1 94.4,77.2 C94.3,76.9 94.1,76.3 94,76" id="Shape" opacity="0.8"></path>
                    <path d="M63,80 C68.1,84.3 73.5,88.4 78,93.3 C72,90.2 66.8,85.6 63,80" id="Shape" opacity="0.8"></path>
                    <path d="M90,75 C90.9,74.8 92.6,74.4 93.5,74.2 L94,75.7 C94.1,76 94.3,76.6 94.4,76.9 C95.4,76.9 97.3,76.8 98.3,76.7 L99.9,76.7 C99.7,77.1 99.3,77.9 99.1,78.3 L98.5,79.6 C95.6,78.3 92.7,76.8 90,75.1" id="Shape"></path>
                    <path d="M118,78 C119.5,77.9 119.5,80.4 118,80.4 C116.5,80.4 116.5,78 118,78" id="Shape"></path>
                </g>
                <path d="M57,73 C57.9,76.3 59.3,79.6 61.7,82 C67.1,87.9 73.1,93.2 79,98.7 C79.2,97.2 79.4,95.7 79.6,94.2 L79.7,93.4 C80,94.1 80.7,95.5 81,96.2 C88.3,96.2 95.6,96.2 103,95.9 C109.4,95.9 116.4,94.6 122.5,97.5 C106.9,98.5 91.5,98.4 75.6,98.9 C59.1,98.3 42.6,98 26.6,98.9 C22.3,99.4 18.1,98.3 14,97.2 C34.4,95.2 54.8,98 75,96.2 C69.4,91.5 64.1,86.4 59.2,81 C57.1,78.9 57.6,75.7 57.4,73" id="Shape" opacity="0.8" sketch:type="MSShapeGroup"></path>
                <path d="M90,2.4 L90.1,1.6 C92.3,1.8 94.5,2.1 96.8,2.3 C94.8,10.4 88.8,17.5 89.7,26.3 C90.2,27.4 90.8,28.4 91.5,29.3 C93.3,30.6 95.5,32.1 97.9,30.8 C102.4,28.3 105.3,23.9 108.7,20 L109.5,19.8 C111.1,19.6 112.7,19.3 114.3,19.1 C115.8,19.1 117.3,19.4 118.7,19.8 C124.5,24.8 129.7,30.3 134.6,36.4 C128,36.7 121.7,33.6 115.2,33.4 C109.6,37.3 109,44.8 107.6,50.8 L107.4,51.5 C106.2,54.3 104.8,56.9 103.5,59.5 C103.9,59.5 104.8,59.5 105.3,59.6 C105.8,59.6 106.9,59.8 107.4,59.8 C111.1,60.4 114.8,61.2 118.4,62.1 C118.5,64.8 118.7,67.5 118.8,70.2 C118.4,68.3 117.5,64.5 117.1,62.6 C111.8,63.6 106.6,64.6 101.4,65.8 L102,67 C103.5,69.8 104.8,72.7 105.3,75.9 L105.4,76.6 C104.3,74.8 103.3,73 102.4,71.1 C100.9,70.5 99.5,69.9 98.1,69.4 C86.9,65.9 75.1,65.8 63.7,62.8 C63.8,66 64.1,69.1 64.1,72.3 C68,73.1 72,73.8 75.9,74.7 L76.7,74.9 C80.1,76.4 83.3,78.3 86.4,80.3 C78.2,77.4 69.8,75.1 61.4,74.3 L61.8,75.4 C62.3,76.9 62.7,78.4 63.3,79.9 C67.1,85.5 72.3,90.1 78.3,93.2 L79.3,93.7 C79.1,95.2 78.9,96.7 78.7,98.2 C72.8,92.7 66.8,87.4 61.4,81.5 C59,79 57.6,75.7 56.7,72.5 L56.4,71.7 C54,61.5 40,59.4 38.6,48.7 L38.6,48 C38.6,46.9 38.5,45.8 38.5,44.7 C34.4,46.5 30.4,48.3 26.3,49.9 L25.4,50.2 C18.3,52.6 12.1,56.9 6.1,61.4 C4.9,60.1 3.6,58.8 2.4,57.5 C10.3,53.3 16.1,45.1 25.4,44.2 L26.3,44.1 C32.2,43.8 38.1,42.3 43.3,39.7 L43.9,39.4 C46.4,38.2 48.8,36.9 51.3,35.8 L52.2,35.7 C60.7,37.1 69.2,38.1 77.8,38 C74.5,31.2 76.1,23.6 80.7,17.7 C83.2,14.3 86.7,11.8 89.4,8.7 L89.8,8.1 C89.8,7.6 89.7,6.5 89.6,6 L89,5 C89.7,4.3 90,3.4 90.1,2.5 M83.6,29.5 C81.7,31.2 82.6,33.9 82.5,36.1 C86.5,35.7 90.5,35.2 94.5,34.7 C93,32.9 91.4,31.1 89.8,29.3 L89.3,28 C87.3,28.2 85,27.9 83.5,29.5" id="Shape" sketch:type="MSShapeGroup"></path>
            </g>
            <g id="Group5" sketch:type="MSLayerGroup" transform="translate(801.000000, 18.000000)">
                <g id="Group" sketch:type="MSShapeGroup">
                    <path d="M88,2.8 C90.5,1.6 93,-0.3 96,0.2 C97.6,2.1 98.9,4.5 98.6,7 C96.2,12.7 93.6,18.3 90.2,23.4 C93.4,25.2 96.4,30.2 100.5,28.1 C104.5,26.7 106,22.1 109.8,20.5 C112,19.5 114.3,18.8 116.7,18.1 C111.9,20.9 107.7,24.6 103.4,28 C98.8,31.6 92.1,28.7 89.7,23.9 C91.2,16.1 98.4,9.4 96.2,1.1 C93.9,1.6 91.6,2.2 89.2,2.7 L88.1,2.9" id="Shape" opacity="0.8"></path>
                    <path d="M89,3.5 C90.1,5.6 91.2,7.8 92.3,9.9 C88.4,12 84.6,14.1 80.7,16 C83.5,13.3 87,11.3 90.3,9.3 C89.8,7.4 89.3,5.4 89,3.5" id="Shape" opacity="0.8"></path>
                    <path d="M74,29 C75.2,24.5 78,20.6 80.3,16.6 C78.3,22.5 73.4,29.2 77.5,35.4 C76,33.6 73.1,31.8 74,29.1" id="Shape" opacity="0.8"></path>
                    <path d="M117,17.7 C125.2,22 131.7,28.6 137.8,35.4 C136.1,36.5 134.7,39.1 132.4,38.4 C126.5,36.8 120.4,36.3 114.4,35.9 C111.6,41.6 108.8,47.7 108.6,54.2 C108.5,55.9 110.1,57.1 111,58.3 C109.7,58 108.4,57.7 107.1,57.4 C108.3,49.1 108.6,38.4 116.7,33.6 C123.3,33.5 129.6,36.6 136.2,37.4 C131.4,29.5 124,23.7 117.2,17.7 M118.3,34.3 C117.9,36.1 121.7,36.1 121.3,34.3 C120.7,33.2 118.8,33.2 118.3,34.3" id="Shape" opacity="0.8"></path>
                    <path d="M86,25 C89.4,26.8 92.7,28.8 95.9,30.9 C95.9,31.7 96,33.2 96.1,34 C91.9,34.3 87.6,34.6 83.4,35 C84.1,31.6 84.9,28.3 85.9,25.1 M86.9,26.6 C86,29.1 85.3,31.5 84.6,34.1 C88.1,33.7 91.7,33.3 95.3,32.9 C92.5,30.8 89.7,28.7 86.9,26.6" id="Shape" opacity="0.8"></path>
                    <path d="M46,37 C50.6,34.2 56,35.4 60.9,36.3 C55.4,35.5 49.9,36.4 44.9,38.9 C35.9,43 25.5,41.5 16.1,44.1 C8.6,47.3 7.1,55.8 3.2,62.1 C13.7,53.7 25,45.8 38.2,43.1 C37.7,45.8 37.6,48.6 37.3,51.3 L37.3,52.1 C37.2,49.5 37.2,47 37.3,44.4 C29.8,47.2 21.6,49 15.6,54.4 C11.1,57.9 6.7,63.3 0.6,62.2 C2.6,59.6 5,57.2 6.1,54 C7,48.4 11.7,44.4 16.6,42.3 C26.4,40.4 37.1,42.2 46,36.8" id="Shape" opacity="0.8"></path>
                    <path d="M62,36.7 C65.2,36.7 68.6,36.6 71.8,37.2 L70.9,37.2 C68,37.1 64.9,36.9 62,36.7" id="Shape" opacity="0.8"></path>
                    <path d="M78,36 C78.2,36.4 78.5,37.2 78.7,37.6 C76.3,37.4 73.9,37.1 71.5,36.9 C73.6,36.6 75.8,36.3 77.9,36" id="Shape" opacity="0.8"></path>
                    <path d="M38,52 C40.7,57 45.1,61.4 45.4,67.3 C42.7,62.3 39.5,57.5 38,52" id="Shape" opacity="0.8"></path>
                    <path d="M112,58 C113.6,58 116.9,58 118.6,57.9 C121.9,64.1 129.6,66.5 132.2,73.1 C130.4,71.6 128.7,70.1 126.8,68.6 C128.7,70.4 130.6,72 132.7,73.5 C135.1,74.9 136.4,77.4 137,80 C131.9,78.4 129.4,73.5 125.7,70.1 C122.7,68 119.2,66.6 115.8,65.2 C114.1,68.5 112.5,71.8 111,75.1 C107.6,76.1 104.1,77 100.6,77.6 C101.8,75.7 103.2,73.8 105.3,72.8 C108.5,71.3 110.4,68.1 113,65.8 C117.2,64.4 121.5,66 125.5,67.2 C121.4,63.6 118,58.6 112,58 M110.6,70.3 C109.3,70.8 108.2,72.8 109,74.1 C110.7,74.7 112.4,71 110.6,70.3 M104.4,73.8 C102.8,74.1 103.1,76.8 104.8,76.2 C106.5,76 106,73.3 104.4,73.8 M132.4,76.1 C131.5,77.3 133.6,78.6 134.4,77.4 C135.2,76.2 133.1,74.9 132.4,76.1" id="Shape" opacity="0.8"></path>
                    <path d="M47,88 C43.3,78.3 49.7,68.5 56.9,62.2 C52.1,70 44.9,78.1 47,88" id="Shape" opacity="0.8"></path>
                    <path d="M65,63 C80.7,65 96.9,62.5 112,66 C96.2,65.2 80.5,65.9 65,63.8 L64.9,62.9" id="Shape" opacity="0.8"></path>
                    <path d="M58,63 C63,68.7 67,75.4 74.3,78.6 C71.1,77.2 67.5,76.4 64.8,74.2 C62.1,70.7 60,66.9 58,63" id="Shape" opacity="0.8"></path>
                    <path d="M65,65 C68.7,76.2 82,78.6 91.7,82.4 C90.3,83.1 88.9,83.8 87.5,84.4 C88,83.7 88.5,83.1 89,82.4 C81.3,80.1 73.3,77.6 67.3,72.1 C65.9,70 65.7,67.4 65.2,65" id="Shape" opacity="0.8"></path>
                    <path d="M40,77 C41.2,73.9 43.3,71.3 45.1,68.5 C43.4,73.2 40.7,78 42.5,83.1 C41.6,81.1 39.8,79.2 40.1,77" id="Shape" opacity="0.8"></path>
                    <path d="M75,79 C78.9,80.6 82.8,82.2 86.7,83.8 C82.5,82.9 78.1,82.2 75,79" id="Shape" opacity="0.8"></path>
                    <path d="M43,84 C43.9,84.7 44.6,85.7 44.8,86.8 C43.2,87.7 41.6,85 43,84" id="Shape" opacity="0.8"></path>
                    <path d="M45,87 C45.8,89.3 46.6,91.5 47.4,93.8 C46.4,91.6 45.6,89.3 45,87" id="Shape" opacity="0.8"></path>
                    <path d="M126,69 C127.8,70.4 129.6,71.9 131.4,73.5 L131.9,73.9 C129.8,72.4 127.9,70.7 126,69" id="Shape"></path>
                    <path d="M110,71 C111.8,71.6 110.2,75.4 108.4,74.8 C107.6,73.5 108.6,71.5 110,71" id="Shape"></path>
                    <path d="M104,74 C105.7,73.5 106.1,76.2 104.4,76.4 C102.7,77 102.3,74.2 104,74" id="Shape"></path>
                    <path d="M132,77 C132.8,75.8 134.9,77.1 134,78.3 C133.2,79.5 131.1,78.2 132,77" id="Shape"></path>
                </g>
                <path d="M81,95 C94.9,93.6 109,91.6 123,95 C110.6,96.2 98.1,96.5 86,96.2 C84.4,96.1 82.8,95.5 81.3,95 L81,95 Z M47,89 C52.3,91.6 57.6,94.8 63.8,95 C69.7,95.2 75.6,94 81.5,95.4 C71,96.6 60.5,98.5 49.9,97 C39.1,97.7 28.2,97.7 17.4,96.1 C27.4,95.5 37.7,95.1 47.9,95.5 C51.1,95.7 54.3,95.9 57.5,96.1 C53.9,93.9 50.2,92 47.1,89.1 L47,89 Z" id="Shape" opacity="0.8" sketch:type="MSShapeGroup"></path>
                <path d="M89,2.6 C91.3,2.1 93.6,1.6 96,1 C98.2,9.3 91,16 89.5,23.8 C91.9,28.6 98.5,31.5 103.2,27.9 C107.6,24.5 111.7,20.9 116.5,18 L117.2,17.6 C124.1,23.6 131.5,29.4 136.2,37.3 C129.6,36.5 123.3,33.4 116.7,33.5 C108.5,38.2 108.3,49.1 107.1,57.3 C108.4,57.6 109.7,57.9 111,58.2 L111.9,58.4 C117.8,59 121.3,64 125.4,67.6 C121.4,66.4 117.1,64.9 112.9,66.2 L112.2,66 C96.7,62.5 80.5,65 65.2,63 L65.3,63.9 L65.5,64.9 C66,67.3 66.2,69.9 67.6,72 C73.7,77.5 81.6,80 89.3,82.3 C88.8,83 88.3,83.7 87.8,84.3 L87,84 C83.1,82.4 79.2,80.8 75.3,79.2 L74.7,78.9 C67.5,75.7 63.4,69 58.4,63.3 L57.3,62.1 C50.2,68.3 43.7,78.1 47.4,87.9 L47.8,88.7 C50.8,91.6 54.6,93.6 58.2,95.7 C55,95.5 51.8,95.3 48.6,95.1 L48.3,94.3 C47.5,92 46.7,89.8 45.9,87.5 L45.7,86.8 C45.5,85.6 44.8,84.7 43.9,84 L43.3,83.3 C41.6,78.2 44.3,73.4 45.9,68.7 L46.2,67.8 C45.9,61.9 41.5,57.4 38.8,52.5 L38.4,51.7 C38.7,48.9 38.8,46.2 39.3,43.5 C25.9,46.3 14.6,54.2 4.3,62.5 C8.1,56.2 9.8,47.7 17.2,44.5 C26.6,41.9 37,43.4 46,39.3 C51,36.8 56.5,35.9 62,36.7 L62.8,36.7 C65.7,36.9 68.7,37.1 71.7,37.2 L72.6,37.2 C75,37.4 77.3,37.7 79.8,37.9 C79.6,37.5 79.3,36.7 79.1,36.3 L78.8,35.5 C74.7,29.3 79.7,22.7 81.6,16.7 L81.9,15.9 C85.8,14 89.6,11.8 93.5,9.8 C92.4,7.7 91.3,5.5 90.2,3.4 L89.7,2.5 M86.9,25.1 C85.9,28.4 85,31.7 84.4,35 C88.6,34.6 92.8,34.3 97.1,34 C97,33.2 96.9,31.7 96.9,30.9 C93.6,28.9 90.4,26.8 87,25" id="Shape" sketch:type="MSShapeGroup"></path>
            </g>
            <g id="Group6" sketch:type="MSLayerGroup" transform="translate(996.000000, 19.000000)">
                <g id="Group" opacity="0.8" sketch:type="MSShapeGroup">
                    <path d="M89,2 C91.7,1.6 94.3,1.3 97,0.9 C97.1,3.5 98.1,6.4 96.5,8.7 C93.8,13.3 91.5,18.1 89.7,23.2 C93,25.5 95.9,29.5 100.5,28.5 C107.4,26.4 112.7,20.6 119.5,18.6 C128.2,20.5 133.2,29.1 137.9,35.9 C140.1,38.5 137.4,43.4 134.1,41.5 C128.8,39 123.1,37.8 117.2,36.9 C115.7,38.5 112.7,41.6 111.2,43.2 C113.5,40.6 115.3,37.4 118.1,35.2 C124.4,34.5 129.9,37.8 135.1,40.9 C136.1,40 137.1,39 138.1,38.1 C133.6,32.5 129.8,26.1 123.9,21.8 C121.5,19.3 118.1,20.5 115.5,21.8 C106,26.5 97.5,33 87.5,36.2 C90.5,34.9 93.5,33.5 96.5,32.2 C92.5,29.9 88.4,28 84.1,26.5 C84.4,30 85.1,33.4 86.3,36.7 C85.1,35.7 84,34.7 82.8,33.7 C83,31 83.6,28.3 83.8,25.7 C87.5,26.8 91.2,28 94.8,29.2 C92.7,27.4 90.5,25.6 88.3,23.8 C90.4,16.2 95.2,9.8 96.6,1.9 C94.4,2.3 92.2,2.7 90,3.1 C90,5.5 89.8,7.8 89.8,10.1 C86,12.9 81.5,15.1 79,19.1 C77.1,23.4 75.6,27.8 74,32.3 C74.5,27.6 75.8,23 77.3,18.6 C79.8,13.9 84.9,11.8 89.3,9.4 C89.3,6.9 88.5,4.5 88.8,2" id="Shape"></path>
                    <path d="M76,32.9 C77.5,33.6 79.1,34.8 78.9,36.7 C77.1,37.4 75.1,34.5 76,32.9" id="Shape"></path>
                    <path d="M43,39 C53.4,35 64.6,38.9 75,38.9 C69,39 63,38.6 57,38.3 C45.1,37.6 34.2,45.1 22.1,42.1 C29,42 36.1,41.5 42.6,39.1" id="Shape"></path>
                    <path d="M77,39 C76.7,37.5 77.4,37 78.9,37.4 C78.9,38.6 78.3,39.2 77,39" id="Shape"></path>
                    <path d="M2,49 C8.5,48 13.8,43.1 20.4,42.6 C16,44.2 11.8,46.4 8.2,49.4 C4.5,52.8 3.5,57.9 1.9,62.4 C6.9,57.1 12.1,51.7 18.9,49.2 C12.2,53.4 7.4,59.8 0.9,64.2 C1.5,59 2.9,53.8 5.8,49.4 C4.5,49.2 3.2,49.1 1.9,48.9" id="Shape"></path>
                    <path d="M109,48 C109,46.2 110,44.7 111.1,43.4 C112.4,44.9 111.1,48.4 109,48" id="Shape"></path>
                    <path d="M20,49 C25.9,47.2 32,46.2 38.2,45.2 C36.8,52.2 36,59.4 34.9,66.2 C35.4,59.5 35.4,52.7 36.7,46.2 C31.2,47.6 25.7,48.7 20,48.9" id="Shape"></path>
                    <path d="M109,58 C108.9,55.2 109,52.5 109.1,49.7 C109.6,52.2 110.1,54.6 110.6,57.1 C114.8,57.9 119.3,57.5 123.1,59.6 C125.3,62.6 123.1,66.9 123.7,70.2 C126.3,72.6 128.9,74.9 131.5,77.3 C128.6,75.6 125.7,73.8 123.2,71.6 C122,68 122.6,64 122.4,60.2 C117.9,59.4 113.4,58.7 108.9,58.1" id="Shape"></path>
                    <path d="M56,61 C65.5,62.9 75,65.3 84.9,64.9 C91.2,65 97.5,63.7 103.8,63.8 C110.3,64.6 115.5,69.3 121.2,72.1 C120.4,74.5 119.6,76.9 118.8,79.3 C120.2,77.7 121.5,76 122.9,74.4 C128.6,77.7 134.4,81 140.9,81.9 C137.8,80.4 134.6,79.1 131.6,77.5 C135.6,78.2 139.6,79.1 143.6,80 C142.3,81.1 141.1,82.3 139.6,83.1 C133.5,83 128.4,79.2 123.6,76.2 C122.1,78 120.6,79.8 119.1,81.6 C118.3,80.2 117.6,78.8 116.8,77.3 C117.8,75.9 118.9,74.4 119.9,73 C114.3,70.3 109.3,65.5 102.9,64.8 C93.4,65.5 83.9,66.9 74.2,65.8 C68.5,64.8 62.9,63.4 57.2,62.1 C56.7,65.2 56.6,68.4 56.1,71.6 C56.1,68.9 56,63.7 55.9,61" id="Shape"></path>
                    <path d="M114,62 C115.6,61.5 118.7,60.4 120.3,59.8 C120.4,62.7 120.7,65.5 121.2,68.3 C118,67.3 114,65.9 114,61.9 M114.7,62.8 C116.5,64.3 118.3,65.8 120.3,67.2 C120,65.2 119.7,63.3 119.4,61.3 C117.8,61.8 116.2,62.3 114.7,62.8" id="Shape"></path>
                    <path d="M45,64 C50.1,62.6 51.4,69.1 52.4,72.6 C53.5,81.4 59.4,88.1 63.9,95.4 C65.8,95.3 69.5,95.1 71.4,95 C68,92.6 64,91 61.1,88 C57.4,83.7 55.8,78 56,72.4 C57.7,78.6 59.1,86.4 65.3,89.4 C69.2,90.3 71.7,93.4 74,96.4 C64.4,97.2 55,95.2 45.3,94.6 C50.8,93.5 56.3,93.6 61.9,93.9 C58.9,89.1 54.9,84.9 52.9,79.5 C51.8,74 50.6,68.2 46.9,63.9 C39.9,68.4 33.4,73.6 26.6,78.4 C31.7,72.5 37.9,66.9 45.1,63.8" id="Shape"></path>
                    <path d="M19,90 C23.3,81.9 24.3,70.7 33.8,66.7 C28.5,72.5 23.8,79.2 22.1,87 C21.2,91.4 25.4,94.5 28.4,97 C27.2,93.5 24.7,90.4 24,86.7 C24.8,84.1 25.8,81.7 26.9,79.2 C26.3,82.2 25.6,85.1 24.9,88 C27.3,90.4 30.1,92.8 30.6,96.4 C27.1,98.6 22.6,96.2 19,95.4 C20.6,94.9 22.3,94.3 23.9,93.8 C22.3,92.5 20.7,91.2 19,90" id="Shape"></path>
                </g>
                <path d="M106,94 C114.3,93.2 122.3,95.9 130.5,95.9 C136.2,96.1 142.1,95.4 147.5,96.8 C135.1,99.1 122.5,98.7 110,97 C100.8,96.3 91.5,97.9 82.4,95.9 C90.2,95.3 98,94.7 105.8,94" id="Shape" opacity="0.8" sketch:type="MSShapeGroup"></path>
                <path d="M90,3 C92.2,2.6 94.4,2.2 96.6,1.8 C95.2,9.6 90.4,16.2 88.3,23.7 C90.5,25.5 92.6,27.2 94.8,29.1 C91.1,27.9 87.5,26.7 83.8,25.6 C83.5,28.3 83,31 82.8,33.6 C83.9,34.6 85.1,35.6 86.3,36.6 L87.4,36.1 C97.6,32.9 106.2,26.4 115.4,21.7 C118,20.4 121.4,19.2 123.8,21.7 C129.7,26 133.5,32.4 138,38 C137,38.9 136,39.9 135,40.8 C129.9,37.7 124.3,34.4 118,35.1 C115.2,37.2 113.4,40.5 111.1,43.1 L110.6,43.8 C109.5,45.1 108.5,46.7 108.5,48.4 L108.5,49.3 C108.4,52.1 108.3,54.8 108.4,57.6 C112.9,58.3 117.4,59 121.9,59.7 C122.1,63.5 121.4,67.5 122.7,71.1 C125.2,73.3 128.1,75.1 131,76.8 L131.6,77.1 C134.6,78.7 137.8,80 140.9,81.5 C134.3,80.6 128.4,77.3 122.9,74 C121.5,75.6 120.2,77.3 118.8,78.9 C119.6,76.5 120.4,74.1 121.2,71.7 C115.5,68.9 110.3,64.2 103.8,63.4 C97.5,63.3 91.2,64.6 84.9,64.5 C75.1,64.9 65.6,62.5 56,60.6 C56,63.3 56.1,68.5 56.2,71.2 L56.2,72.8 C56,78.4 57.5,84.2 61.3,88.4 C64.2,91.4 68.3,92.9 71.6,95.4 C69.7,95.5 66,95.7 64.1,95.8 C59.6,88.5 53.7,81.8 52.6,73 C51.6,69.4 50.3,63 45.2,64.4 C38,67.6 31.8,73.1 26.7,79 L26.3,79.6 C25.1,82 24.1,84.5 23.4,87.1 C24.1,90.8 26.5,93.9 27.8,97.4 C24.8,95 20.6,91.8 21.5,87.4 C23.2,79.6 27.9,72.9 33.2,67.1 C33.5,66.8 34,66.2 34.3,65.9 C35.4,58.9 36.3,51.7 37.6,44.9 C31.5,46 25.3,46.9 19.4,48.7 L18.6,49 C11.6,51.5 6.4,56.9 1.6,62.2 C3.2,57.7 4.2,52.6 7.9,49.2 C11.5,46.2 15.7,44 20.1,42.4 L22.7,42.4 C34.7,45.5 45.7,37.9 57.6,38.6 C63.6,38.9 69.6,39.3 75.6,39.2 L76.7,39.2 C78,39.4 78.6,38.8 78.6,37.6 L78.6,36.7 C78.8,34.9 77.2,33.6 75.7,32.9 L74.4,32.2 C76,27.8 77.5,23.3 79.4,19 C81.9,14.9 86.4,12.7 90.2,10 C90.2,7.6 90.4,5.3 90.4,3 M113.9,62 C113.9,66 117.9,67.4 121.1,68.4 C120.6,65.6 120.3,62.7 120.2,59.9 C118.6,60.4 115.5,61.5 113.9,62.1" id="Shape" sketch:type="MSShapeGroup"></path>
            </g>
            <g id="Group7" sketch:type="MSLayerGroup" transform="translate(1187.000000, 18.000000)">
                <g id="Group" sketch:type="MSShapeGroup">
                    <path d="M96,2 C98.8,1.7 101.1,1.3 104,0.9 C104.4,3.3 104.9,5.8 105.3,8.2 L104.9,7.4 C104,5.6 103.3,3.8 102.5,2 C100.6,2.4 98.8,2.7 96.9,3.1 C97.5,5.3 98.2,7.5 98.8,9.7 C90.1,13.8 86.8,23 82.8,30.7 L82.4,31.4 C83.8,25.7 85.9,20.1 89.3,15.2 C91.7,12.9 94.8,11.4 97.6,9.6 C97,7.1 96.2,4.5 95.9,1.9" id="Shape" opacity="0.8"></path>
                    <path d="M98,25 C99,19 101.1,13.1 104.6,8 C102.6,13.5 100.6,19 98.9,24.7 C103.9,28.6 110.2,28.6 116.2,28 C116.3,26.3 116.5,24.6 116.6,23 C122,22.5 127.4,21 132.8,21.2 C139.4,25.8 143.8,33 147.8,39.8 L147.3,39.2 C142.5,33.6 138.3,27.3 132.4,22.8 C128,22.1 123.5,23.8 119.2,24.4 C115,29.7 108,31.4 102.2,34 C103.4,33.1 104.6,32.2 105.8,31.3 C102,30.1 98.2,29 94.3,27.8 C93.9,30.2 93.4,32.7 92.9,35.1 C95.4,34.8 98.7,34.6 101.4,34.2 C98.4,35.2 95.1,35.8 92.1,36.5 C92.4,33.2 92.8,29.9 93.2,26.6 C96.2,27.3 99.2,28.1 102.2,28.8 C100.8,27.5 99.4,26.2 97.9,25" id="Shape" opacity="0.8"></path>
                    <path d="M83,31.6 C84.7,34.3 86.2,37.2 87.5,40.1 C72.2,43.7 56.7,37.7 41.5,40.8 C56.1,34.8 71.1,42.7 85.5,39.3 C84.5,36.8 83.6,34.2 82.8,31.7" id="Shape" opacity="0.8"></path>
                    <path d="M127,35 C130.5,36.2 134,37.7 137.3,39.4 C134.4,38.6 131.6,37.7 128.8,36.6 C126.8,37.8 124.7,39.1 122.7,40.2 C124.1,38.5 125.6,36.7 127,35" id="Shape" opacity="0.8"></path>
                    <path d="M138,39 C141.2,40.6 144.8,41.1 148.3,40.3 C147.3,41.3 146.4,42.3 145.4,43.4 C142.6,42.4 140.2,40.9 138,39" id="Shape" opacity="0.8"></path>
                    <path d="M38,42 C38.4,40.3 39.3,40 40.7,41.1 C39.9,41.8 39,42.1 38,42" id="Shape" opacity="0.8"></path>
                    <path d="M116,56 C116.4,50 117.5,44 122.5,40.1 C119.3,45 117.6,50.5 116,56" id="Shape" opacity="0.8"></path>
                    <path d="M34,43 C34.3,41.2 35.2,40.9 36.7,42.1 C35.9,42.8 35,43.1 34,43" id="Shape" opacity="0.8"></path>
                    <path d="M7,52 C13.6,46.6 22.2,44.8 30.6,44.3 C22.6,46.3 14.8,49.1 7,52" id="Shape" opacity="0.8"></path>
                    <path d="M42,45 C42.5,44.9 43.4,44.6 43.9,44.4 C43.1,48.9 42.1,53.4 41.2,57.8 C41.2,53.5 41.8,49.2 42.1,45" id="Shape" opacity="0.8"></path>
                    <path d="M25,50.8 C30.5,48.6 36,46.4 41.6,44.8 C36.5,47.9 30.9,50.2 25,50.8" id="Shape" opacity="0.8"></path>
                    <path d="M17,53 C19.4,52.4 21.8,51.7 24.2,50.9 C21.9,51.9 19.4,52.5 17,53" id="Shape" opacity="0.8"></path>
                    <path d="M1,55 C2.5,54 4,53.1 5.5,52.2 C5.4,52.9 5.2,54.2 5.1,54.9 C8.7,54.6 12.3,54.2 15.9,53.5 C11.4,56.3 6,55.7 1,55" id="Shape" opacity="0.8"></path>
                    <path d="M115,59 C115,58.6 115.2,57.8 115.2,57.4 C125.5,60.8 136.2,64.3 143.7,72.4 C142.2,71.6 140.7,71 139.2,70.3 C141.8,73.3 144.7,76.1 147.6,78.7 C146.9,77.2 146.1,75.7 145.4,74.2 C147.2,75.5 148.9,76.9 150.6,78.4 C148.7,78.4 146.4,79.7 144.8,78.1 C140.9,74.7 137.3,70.9 133.2,67.8 L133.5,67.3 C133.7,67 134.1,66.3 134.3,65.9 C127.9,63.4 121.4,61.1 115,58.9" id="Shape" opacity="0.8"></path>
                    <path d="M29,69 C33,65.6 37,62.2 40.9,58.7 C38.6,63.8 33.5,66.3 29,69" id="Shape" opacity="0.8"></path>
                    <path d="M56,62 C59.9,58.8 65,61.4 69.4,62.3 C65.1,62 60,60.3 56.4,63.4 C51.9,67.3 47.6,71.3 43.4,75.3 C39.3,78.9 39.1,84.8 38,89.7 C39,85 37.4,78.8 41.4,75.3 C46.2,70.7 51.1,66.3 56.1,62" id="Shape" opacity="0.8"></path>
                    <path d="M73,63 C83.3,65.9 93.9,65.7 104.4,64.4 C110.6,62.5 112.8,69.4 116,72.9 C113.6,70.1 110.7,67.7 107.7,65.7 C102.5,64.7 97.1,66.3 91.9,66.2 C85.4,66.7 79.2,64.8 73.1,62.9" id="Shape" opacity="0.8"></path>
                    <path d="M124,65 C126.8,65.6 129.8,66.2 132.6,66.9 C129.7,66.6 126.6,66.3 123.9,65.9 L123.9,64.9" id="Shape" opacity="0.8"></path>
                    <path d="M39,68 C40.1,67.7 41.2,67.3 42.3,67 C38.2,73.6 34.9,80.6 34.9,88.5 C32.2,81.5 35.3,73.8 40.5,68.8 C40.1,68.6 39.4,68.2 39.1,67.9" id="Shape" opacity="0.8"></path>
                    <path d="M16,78 C20.6,75.5 24.5,72.1 28.7,69 C22.6,75.8 15,80.9 6.3,83.7 C12.9,82.8 19.3,80.5 24.3,76.2 C20.8,81.9 14,84.2 7.7,84.9 C6.1,84.9 3.7,84.3 4.9,82.2 C8.3,80.2 12.4,79.9 15.8,78" id="Shape" opacity="0.8"></path>
                    <path d="M31,70 C33.3,69.1 35.6,68.2 37.9,67.5 C35.6,68.4 33.3,69.2 31,70" id="Shape" opacity="0.8"></path>
                    <path d="M28,72 C28.4,71 29.1,70.4 30.2,70.2 C30.4,72 29.7,72.5 28,72" id="Shape" opacity="0.8"></path>
                    <path d="M25,76 C25.9,75.1 26.8,74.2 27.9,73.4 C29.3,75 26.5,77.6 25,76" id="Shape" opacity="0.8"></path>
                    <path d="M6,94 C10.8,94.3 15.5,94.7 20.3,95 C19.5,96.8 18.8,98.5 18,100.3 C16.9,98.9 15.8,97.6 14.7,96.2 C11.9,96.3 9.9,96.5 7.3,96.7 C6.8,95.8 6.4,94.9 6,94" id="Shape" opacity="0.8"></path>
                    <path d="M140,70 C141.5,70.7 143,71.4 144.5,72.1 C145.2,72.6 145.7,73.2 146.2,73.9 C147,75.4 147.7,76.9 148.4,78.4 C145.4,75.8 142.6,73 140,70" id="Shape"></path>
                    <path d="M122,82 C127.4,86.6 133.8,90.7 136.8,97.4 C130.4,94.4 126.8,88 122.5,82.6 L122,82" id="Shape"></path>
                    <path d="M88,96 C88.9,95 91,95 91.9,96 C91.9,97.7 88,97.7 88,96" id="Shape"></path>
                </g>
                <path d="M115,64 C117.7,64.3 120.4,64.6 123,64.9 C121.3,65.1 117.9,65.3 116.2,65.5 C120.5,74.3 125.1,83.5 133,89.8 C135.8,92 138.4,94.6 141,97.1 C126,98.2 111,96.7 96,98.2 C75.1,99.3 54.2,98.6 33,98.5 C28.5,98.5 24.1,97.6 20.1,95.6 C24.9,94.9 29.7,94.8 34.5,94.5 C33.9,93.4 33.4,92.3 32.9,91.2 C33.3,90.9 34.2,90.4 34.7,90.1 C34.9,92 35.2,93.9 35.6,95.8 C33,96.1 27.9,96.6 25.4,96.9 C44,97.3 62.4,98.9 81.3,96.7 C70.5,96.2 59.6,96.5 48.8,95.7 C44,96.2 40.7,92.8 37.1,90.4 C40.8,90.8 44.3,91.1 48,91.5 C46.5,92 43.6,93.1 42.1,93.6 C71.5,97.3 101.1,93.9 131.1,95.2 C127.6,91.6 124.9,87.5 122.9,82.9 C127.1,88.3 130.8,94.6 137.2,97.7 C134.2,91 127.8,86.9 122.4,82.3 C119.9,79.8 118,76.8 116.1,73.8 C118.1,76.2 120.3,78.5 122.5,80.7 C119.8,75.3 117.1,69.8 115.1,64.1 M88.1,96.5 C88.1,98.2 92,98.2 92,96.5 C91,95.5 89,95.5 88.1,96.5" id="Shape" opacity="0.8" sketch:type="MSShapeGroup"></path>
                <path d="M97,3 C98.8,2.6 100.7,2.3 102.6,1.9 C103.3,3.7 104.1,5.6 105,7.3 L104.5,8.1 C101,13.2 98.9,19 97.9,25.1 C99.3,26.4 100.8,27.6 102.2,28.9 C99.2,28.2 96.2,27.4 93.2,26.7 C92.8,30 92.4,33.3 92.1,36.6 C95.1,35.9 98.4,35.3 101.4,34.3 L102.1,34 C108,31.3 115,29.7 119.1,24.4 C123.4,23.8 127.9,22.1 132.3,22.8 C138.2,27.3 142.3,33.6 147.2,39.2 L148.1,40.4 C144.6,41.2 141,40.7 137.8,39.1 L137.2,38.8 C133.9,37.1 130.4,35.6 126.9,34.4 C125.5,36.2 124,37.9 122.6,39.6 L122.1,40.2 C117.1,44.2 116,50.2 115.6,56.1 L115.6,57 C115.6,57.4 115.4,58.2 115.4,58.6 C121.9,60.9 128.3,63.1 134.7,65.6 C134.5,65.9 134.1,66.6 133.9,67 L132.8,66.7 C130,66 127,65.3 124.2,64.8 L123.4,64.8 C120.7,64.5 118,64.2 115.4,63.9 C117.4,69.6 120,75.1 122.8,80.5 C120.6,78.3 118.4,76 116.4,73.6 L116,73 C112.9,69.5 110.6,62.6 104.4,64.5 C93.9,65.8 83.4,65.9 73,63.1 C71.7,62.7 70.5,62.3 69.2,61.9 C64.8,60.9 59.7,58.4 55.8,61.6 C50.8,65.9 45.9,70.4 41.1,74.9 C37.1,78.5 38.7,84.7 37.7,89.3 L37.7,90.2 C41.2,92.6 44.6,96 49.4,95.5 C60.2,96.3 71,96 81.9,96.5 C63.3,98.7 44.9,97.1 26,96.7 C28.5,96.4 33.6,95.9 36.2,95.6 C35.9,93.7 35.6,91.8 35.3,89.9 C35.3,89.5 35.2,88.7 35.2,88.2 C35.2,80.2 38.6,73.2 42.6,66.7 C41.5,67 40.4,67.3 39.3,67.7 L38.5,68 C36.2,68.7 33.9,69.6 31.6,70.5 L30.9,70.8 C29.9,71 29.2,71.6 28.7,72.6 L28.2,73.1 C27.2,73.9 26.2,74.8 25.3,75.7 L24.8,76.1 C19.7,80.4 13.2,82.7 6.8,83.6 C15.5,80.8 23.1,75.7 29.2,68.9 L29.7,68.5 C34.2,65.8 39.3,63.3 41.6,58.2 L41.8,57.4 C42.8,52.9 43.7,48.5 44.5,44 C44,44.1 43.1,44.4 42.6,44.6 L41.7,44.9 C36,46.5 30.5,48.7 25.1,50.9 L24.4,51.1 C22,51.9 19.6,52.5 17.2,53.2 L16.5,53.4 C12.9,54 9.3,54.5 5.7,54.8 C5.8,54.1 6,52.8 6.1,52.1 L7,51.8 C14.8,48.9 22.6,46.2 30.6,44.1 C31.9,43.8 33.3,43.5 34.7,43.4 C35.7,43.4 36.6,43.1 37.4,42.5 L38.4,42.3 C39.4,42.4 40.3,42.1 41.1,41.4 L41.9,40.9 C57.3,37.8 72.8,43.8 87.9,40.2 C86.5,37.3 85.1,34.4 83.4,31.7 L83,31 C87.1,23.1 90.4,14 99,10 C98.3,7.8 97.7,5.6 97.1,3.4" id="Shape" sketch:type="MSShapeGroup"></path>
            </g>
            <g id="Group8" sketch:type="MSLayerGroup" transform="translate(1381.000000, 18.000000)">
                <g id="Shape-+-Shape-+-Shape" sketch:type="MSShapeGroup">
                    <path d="M92,2.8 C94.9,2 97.5,1.3 100.6,0.7 C101.6,8.4 97.6,15.1 95,22 C98.2,24.2 101.1,27 104.8,28.5 C108.7,29.3 112.5,28 116.2,26.9 C115.5,25.5 114.8,24 114.1,22.6 C119,22.6 123.8,21.8 128.5,20.8 C132.4,20.6 134.7,24.7 137.3,27 C140.4,31.4 145.3,35.2 146.2,40.8 C145.3,41.5 144.5,43.1 143.2,42.8 C138.9,41.8 135.1,39.5 130.8,38.4 C130.7,37.4 130.6,36.4 130.5,35.4 C125.1,37.6 121.1,42.1 118,46.8 C115.6,50.2 117.4,54.7 117.1,58.5 C123.1,62.7 128.9,67.3 135.3,70.9 C140.7,74 147,73.9 152.9,75 C149,79.5 142.6,77.4 137.9,75.4 C131.6,72.3 124.9,69.8 119,66 C123.4,67.5 127.8,69.3 132.2,71 C127.1,67.4 121.8,64 117.3,59.8 C111.8,51.2 117.7,39.9 126.2,36 C133.2,35.1 138.7,41.2 145.7,41.1 C142,35.1 137.9,29.2 132.8,24.3 C127.7,21.1 121.4,23.5 115.8,23.2 C116.4,24.5 116.9,25.7 117.5,26.9 C108,29.7 99.8,36.6 89.6,36.6 C94.8,35.5 99.8,33.5 104.6,31.2 C99.8,29.5 95,27.8 90.1,26.3 C89.3,29.8 88.6,33.2 88.1,36.8 C88.2,33 88.4,29.2 88.8,25.4 C92.8,26.2 96.9,27.1 100.8,28.1 C98.5,26 96.2,24 94.3,21.6 C94.8,14.4 100.3,8.3 99.6,0.7 C97.8,1.6 95.9,2.4 94.4,3.7 C94,5.7 94.3,7.8 94.4,9.9 C87.3,14.8 82.2,22.4 81.4,30.9 C81.8,34 83.4,36.8 84.4,39.7 C72.4,40.7 60.4,38.9 48.4,38.8 C40.7,38 34.2,42.7 26.9,43.9 C22.4,44.8 17.7,44.8 13.2,45 C25.9,45.3 36.7,37.5 49.2,37.3 C60.6,37.8 72,39.6 83.2,38.7 C81.9,35.8 78.7,33 80,29.6 C80.9,26.5 82,23.5 83.1,20.4 C84.9,15.4 89.3,11.8 93.7,9 C93.1,6.8 92.4,4.6 91.9,2.4 M138.9,74.3 C142.6,74.7 146.3,75 150.1,75.2 C146.4,74.8 142.6,74.6 138.9,74.3" id="Shape" opacity="0.8"></path>
                    <path d="M22,50.8 C29.8,48.3 36.5,43.2 44,40.2 C42,45.8 40.2,51.5 38.8,57.2 C37.4,61.8 31.4,62.2 28,64.4 C20,68.3 12.4,73.2 3.6,75 C14.3,74.7 23.2,67.8 33.6,66.4 C28.8,75.4 21.9,83 14.6,90 C24.2,85.4 28.9,75.2 37.2,69 C44.6,63.2 53.5,56.2 63.6,60 C74.8,63.5 86.4,65.6 98.2,65.5 L98.2,67 C88.5,66.2 78.6,66.3 69.4,62.8 C64,60.9 57.8,58.6 52.4,61.1 C42.4,65.9 33.4,73.1 26.6,82.1 C23.2,86.5 18.6,91.3 12.6,90.2 C15.5,86 19.8,83.3 23.3,79.6 C26.5,75.6 29.2,71.3 32.2,67.1 C21.9,70.1 12.9,77.6 1.5,75.5 C3,73.8 4.8,72.1 7.2,72.1 C16.5,71.3 23,63.3 31.9,61.1 C34.4,60.1 37.8,59.1 38.3,56 C39.1,50.9 40.4,45.7 42.9,41.1 C32.7,47.5 22,54.8 9.3,52.8 C5.3,53.1 2.5,49.9 0.6,46.9 C4.1,45.8 7.8,45 11.5,45.2 C8.2,46 5.1,47.3 2.1,48.7 C8,52.4 15.6,52.9 22.1,50.6" id="Shape" opacity="0.8"></path>
                    <path d="M139,75 C142.7,75.3 146.5,75.5 150.2,75.9 C146.4,75.7 142.7,75.4 139,75" id="Shape"></path>
                </g>
                <path d="M109,64 C112.1,64.7 115.3,65.3 118.4,66.2 C115.7,66 112.5,65.8 110,65.6 C109.8,73.4 108.4,81.4 110.8,89 C116.5,95.5 125.7,96.1 133.8,95.1 C126,96.4 118.3,98.4 110.3,97.8 C85.3,96.9 60.3,96 34.3,96.9 C29.5,96.7 24.6,96.9 20,95.3 C49,94.7 78,95 107,94.5 C105.8,86.5 104.9,78.5 103.8,70.6 C103.7,68 100.8,67.1 98.9,66.1 C100.6,66.1 102.4,66.2 104.1,66.2 C105.4,76.1 107,85.9 108.9,95.7 C111.6,95.9 114.7,96.1 117.6,96.3 C114.7,94.1 111.7,92.1 108.7,90.1 C107.6,81.5 108.3,72.8 108.7,64.1" id="Shape" opacity="0.8" sketch:type="MSShapeGroup"></path>
                <path d="M94,3.9 C95.6,2.6 97.4,1.9 99.2,0.9 C99.9,8.4 94.4,14.5 93.9,21.8 C95.8,24.2 98.1,26.2 100.4,28.3 C96.4,27.3 92.3,26.4 88.4,25.6 C88,29.4 87.8,33.2 87.7,37 L89.1,36.8 C99.4,36.8 107.5,29.9 117,27.1 C116.4,25.8 115.8,24.6 115.3,23.4 C121,23.7 127.3,21.3 132.3,24.5 C137.4,29.4 141.4,35.3 145.2,41.3 C138.2,41.4 132.7,35.4 125.7,36.2 C117.2,40.1 111.3,51.4 116.8,60 C121.3,64.2 126.6,67.6 131.7,71.2 C127.3,69.4 122.9,67.7 118.5,66.2 L117.8,66 C114.7,65.1 111.5,64.5 108.4,63.8 C108,72.4 107.3,81.1 108.4,89.8 C111.4,91.7 114.5,93.7 117.3,96 C114.5,95.8 111.4,95.6 108.6,95.4 C106.7,85.6 105.1,75.8 103.8,65.9 C102,65.8 100.3,65.8 98.6,65.8 L97.7,65.8 C85.9,65.9 74.3,63.9 63.1,60.3 C53.1,56.6 44.1,63.5 36.7,69.3 C28.4,75.5 23.7,85.7 14.1,90.3 C21.6,83.4 28.5,75.8 33.1,66.7 C22.6,68.1 13.8,75 3.1,75.3 C11.9,73.4 19.5,68.6 27.5,64.7 C31,62.5 37,62.2 38.3,57.5 C39.7,51.7 41.5,46.1 43.5,40.5 C35.9,43.5 29.2,48.5 21.5,51.1 C14.9,53.5 7.5,52.9 1.5,49.2 C4.5,47.8 7.6,46.5 10.9,45.7 C11.3,45.7 12,45.6 12.4,45.6 C17,45.5 21.6,45.5 26.1,44.5 C33.4,43.3 39.9,38.6 47.6,39.4 C59.6,39.4 71.6,41.3 83.6,40.3 C82.6,37.4 81,34.6 80.6,31.5 C81.4,22.8 86.5,15.2 93.6,10.5 C93.6,8.4 93.2,6.4 93.6,4.3" id="Shape" sketch:type="MSShapeGroup"></path>
            </g>
            <g id="Group9" sketch:type="MSLayerGroup" transform="translate(1576.000000, 18.000000)">
                <g id="Group" sketch:type="MSShapeGroup">
                    <path d="M89,2.7 C91.3,2 93.6,1.1 96,1.1 C97.7,2.6 99.8,5 98.6,7.4 C96.3,12.2 94.4,17.4 94.6,22.8 C97.6,27 103.1,29.2 108.1,28.9 C111.9,28.4 112.8,24.1 115,21.7 C120.1,20.8 126.5,18.2 131,22.2 C136,26.5 140.2,31.8 144.3,36.9 C146.4,38.9 143.8,42.6 141.3,41.6 C135.2,39.8 128.8,39.2 122.5,38.9 C118.9,45.4 114.5,51.4 111.1,57.9 C112.6,49.8 117.9,42.9 123.1,36.9 C129.5,35 135.9,38.6 141.9,40.7 C142.5,39.9 143.2,39.1 143.9,38.4 C138.5,33.1 134.5,26.1 128,22.1 C123.8,20.9 117.6,20.5 114.8,24.6 C111.6,29.2 105.8,30.3 101.2,33 C96.6,35.8 91,36.1 85.9,37.1 C86.4,33.1 87.1,29.2 88.3,25.3 C92.3,26.6 96.2,27.9 100.2,29.1 C97.8,27.4 95.4,25.8 93.1,24.3 C93.5,18.6 94.6,13 96.6,7.7 C97.8,4.9 95.1,2.6 94,0.4 C91.5,3.5 90.6,7.4 90.5,11.4 C86.5,15.2 80.8,18.6 80.7,24.9 C79.3,30.1 80.5,35.3 82,40.3 C77.6,40.3 73.3,40.3 69,40 C73.1,39.7 77.1,39.3 81.2,38.9 C79.9,36.9 78.6,34.9 77.3,32.9 C78.7,28.5 79.3,24 80.7,19.6 C82.7,15.2 87.3,12.9 91,10 C90.2,7.6 89.4,5.2 88.7,2.8 M89,26.8 C88.2,29.7 87,32.7 86.5,35.7 C91.5,35.3 97.4,35.4 101.2,31.6 C97.3,29.6 93.2,28.2 89,26.9 M125,37.3 C124.7,39.1 128.3,39.1 128,37.3 C127.4,36.2 125.5,36.2 125,37.3" id="Shape" opacity="0.8"></path>
                    <path d="M23,43.7 C36.6,36 53.6,34.7 68,39.8 C57.2,38.9 46.1,36.7 35.5,39.7 C30.7,41.1 26.3,43.6 21.5,44.9 C15,45.7 8.5,45.4 2.1,43.8 C5.5,46.7 8.8,50 13,51.8 C23.2,52.7 30.8,44.4 39.7,40.8 L39.4,41.9 C30.9,46.8 22.5,54.5 11.9,52.8 C7.4,51 3.9,47.3 0.3,44.2 C1.2,43 2.2,41.9 3.1,40.7 C4.4,41.9 5.7,43.1 7,44.3 C12.1,43.4 17.4,44.7 22.5,43.8" id="Shape" opacity="0.8"></path>
                    <path d="M34,59 C37,54.1 37.1,48 39.4,42.8 C38.6,47.8 38.1,52.7 37.6,57.7 C36.4,58.1 35.2,58.5 34.1,59" id="Shape" opacity="0.8"></path>
                    <path d="M15,71 C21.8,68.7 22.5,59.3 29.6,57.4 C25.8,61.7 23,66.9 18.6,70.4 C14.1,73.2 8.9,74.4 4.2,76.9 C14.2,79.8 22.1,71.7 31,68.8 C26.2,71.8 21.3,74.7 16.3,77.3 C11.9,79.7 6.7,77.6 2.3,76.9 C6,73.9 10.6,72.4 15.1,70.9" id="Shape" opacity="0.8"></path>
                    <path d="M30,59 C30.7,59.2 32,59.7 32.6,59.9 C31.6,60.7 29.9,60.5 30,59" id="Shape" opacity="0.8"></path>
                    <path d="M45,65 C49.3,62.8 53.2,59.5 58.3,59.4 C65.4,59.6 71.3,63.8 77.7,66.2 C70.5,65.8 64.7,60.4 57.3,60.4 C53,61.7 49.4,64.4 45,65" id="Shape" opacity="0.8"></path>
                    <path d="M111,58.9 C120,70.1 128.4,83.3 142.9,87.8 C142.1,89.4 141.3,91 140.6,92.6 C125.8,87.8 119.6,70.9 104.7,66.2 C101.7,66.2 98.7,67.6 96.7,69.9 C91.3,75.8 87.3,82.8 82.9,89.4 C83.2,87.6 83.5,85.8 83.8,83.9 C82.5,85.7 81.1,87.5 79.8,89.3 C82.7,82 86.9,75.4 90.8,68.7 C88.8,73.5 86.7,78.3 84.7,83.2 C88.6,78 92.1,72.5 96.7,68 C100.2,64.7 105.7,64.1 109.7,67 C120.5,73.6 128,84.3 138.5,91.3 C139.4,90.5 140.4,89.8 141.4,89 C128,83.2 117,72.1 110.9,59" id="Shape" opacity="0.8"></path>
                    <path d="M25,64 L29,64 L29,67 L25,67 L25,64" id="Shape" opacity="0.8"></path>
                    <path d="M32,69 C36,67.6 40.1,66.6 44.3,65.5 C40.2,66.7 36.1,67.9 32,69" id="Shape" opacity="0.8"></path>
                    <path d="M78,66 C82.3,66.5 86.8,66.9 91.2,67.5 C86.5,67.1 81.8,66.5 77.2,65.9 L78,65.9" id="Shape" opacity="0.8"></path>
                    <path d="M80,89 C81.3,87.2 82.7,85.4 84,83.6 C83.7,85.4 83.4,87.2 83.1,89.1 L82.9,90.3 C86.5,92.8 90.2,95.1 94.1,97.2 C92,97.1 87.8,97 85.6,96.9 C83.9,94.2 81.8,91.8 79.5,89.6 L80,89" id="Shape"></path>
                </g>
                <path d="M47,97 C50.6,95.6 54.7,95.2 58.4,96.5 C54.6,97.4 50.8,97.9 47,97 Z M31,95 C36.2,94.9 41.2,95.7 46.4,96.1 C41.2,95.9 35.6,98 31,95 Z M79,89 L79.6,89.6 C81.9,91.8 84,94.2 85.7,96.9 C87.8,97 92,97.1 94.2,97.2 C90.4,95 86.6,92.8 83,90.3 C86,91.7 88.8,94.1 92.3,94.5 C109,95.6 126,93.2 142.3,96.6 C132.9,97.9 123.4,97.3 114.3,97.4 C96.1,96.1 77.6,101.3 59.7,96.1 C67.5,94.2 75.5,95.6 83.4,95.8 C81.9,93.6 80.4,91.4 79.1,89.1 L79,89 Z" id="Shape" opacity="0.8" sketch:type="MSShapeGroup"></path>
                <path d="M90,11 C90.1,7.1 91,3.2 93.5,0 C94.6,2.3 97.3,4.6 96.1,7.3 C94.1,12.6 93,18.2 92.6,23.9 C95,25.5 97.4,27.1 99.7,28.7 C95.7,27.5 91.8,26.2 87.8,24.9 C86.6,28.7 85.9,32.7 85.4,36.7 C90.5,35.8 96.1,35.4 100.7,32.6 C105.3,29.9 111.1,28.8 114.3,24.2 C117.1,20.1 123.3,20.5 127.5,21.7 C134,25.8 138,32.7 143.4,38 C142.7,38.8 142.1,39.6 141.4,40.3 C135.4,38.2 129,34.6 122.6,36.5 C117.2,42.5 112,49.4 110.6,57.5 L110.9,58.5 C117.1,71.7 127.9,82.5 141.4,88.5 C140.4,89.3 139.4,90 138.5,90.8 C127.9,83.8 120.5,73.1 109.7,66.5 C105.7,63.6 100.1,64.2 96.7,67.5 C92.1,72.1 88.6,77.5 84.7,82.7 C86.7,77.9 88.8,73.1 90.8,68.2 L91.2,67.1 C86.8,66.5 82.3,66.1 78,65.6 L77.1,65.4 C70.7,63 64.7,58.8 57.7,58.6 C52.6,58.7 48.7,61.9 44.4,64.2 L43.7,64.4 C39.5,65.5 35.4,66.5 31.4,67.9 L30.7,68.2 C21.8,71.1 13.9,79.2 3.9,76.3 C8.5,73.8 13.8,72.6 18.3,69.8 C22.8,66.2 25.6,61 29.3,56.8 L29.8,58.5 C29.8,60 31.5,60.2 32.4,59.4 L33.6,58.9 C34.8,58.5 35.9,58 37.1,57.6 C37.6,52.6 38.2,47.6 38.9,42.7 L39.1,41.4 L39.4,40.3 C30.5,44 22.9,52.2 12.7,51.3 C8.5,49.6 5.3,46.2 1.8,43.3 C8.1,44.9 14.7,45.3 21.2,44.4 C26,43.1 30.4,40.6 35.2,39.2 C45.8,36.1 56.9,38.4 67.7,39.3 L68.5,39.3 C72.8,39.6 77.1,39.6 81.5,39.6 C80,34.6 78.7,29.4 80.2,24.2 C80.3,17.9 86,14.5 90,10.7 M25,63.4 L25,66.4 L29,66.4 L29,63.4 L25,63.4" id="Shape" sketch:type="MSShapeGroup"></path>
            </g>
            <g id="Group10" sketch:type="MSLayerGroup" transform="translate(1779.000000, 20.000000)">
                <g id="Group" sketch:type="MSShapeGroup">
                    <path d="M80,4.4 C82.6,2.2 85.5,0.8 89,0.1 C91.9,8.2 86.8,15.5 85.4,23.1 C87.9,25.1 90.5,27.1 92.9,29.2 C89.8,27.7 86.7,26.1 83.7,24.6 C84.7,16.7 90.4,9.6 88.4,1.6 C86,2.4 83.6,3.3 81.2,4.1 L80.1,4.5" id="Shape" opacity="0.8"></path>
                    <path d="M82,5.4 C82.7,7.4 83.3,9.5 84,11.5 C81.4,13.5 78.8,15.5 76.3,17.6 C78.4,15 80.7,12.5 82.9,10 C82.6,8.4 82.2,6.9 81.9,5.3" id="Shape" opacity="0.8"></path>
                    <path d="M113,17 C121.4,20.1 127.2,27 133.7,32.9 C133.4,34.8 132.7,36.5 132.1,38.3 C128.6,37.4 125.3,36.4 121.9,35.3 C125.8,36 129.8,36 133.6,34.8 C127.2,29.8 122.3,22.3 114.6,19.4 C106.9,21 102.7,30.7 94,29.4 C96.8,28.7 99.8,28 101.8,25.8 C105.1,22.3 109.8,20.5 113.1,17" id="Shape" opacity="0.8"></path>
                    <path d="M74,21.8 C72.2,20.8 73.7,17.3 75.7,18.2 C75.2,19.4 74.7,20.6 74,21.8" id="Shape" opacity="0.8"></path>
                    <path d="M71,35 C71.8,30.8 72.5,26.5 73.7,22.4 C73,27.1 72.7,31.8 72.4,36.4 L70,36.4 L69.6,36.4 C69.9,36 70.6,35.3 71,34.9" id="Shape" opacity="0.8"></path>
                    <path d="M81,26.6 C84.2,27.9 87.2,29.3 90.4,30.8 C87.6,30 84.9,29.2 82.2,28.4 C81.3,29.3 80.3,30.3 79.4,31.2 L79.1,31.5 C79.7,29.8 80.3,28.2 81,26.5" id="Shape" opacity="0.8"></path>
                    <path d="M93,31 C93.2,31.9 93.3,32.9 93.7,33.8 C90,34.7 86.2,35.3 82.7,36 C82.2,34.5 81.7,33 81.3,31.5 C84.6,35.3 90,34.3 93.2,30.9" id="Shape" opacity="0.8"></path>
                    <path d="M113,35 C113.6,34.2 114.3,33.4 114.9,32.6 C116.8,33.5 119.4,34.4 121.5,35.2 C118.5,36.5 115.2,37.5 112,38.4 C106.1,46.9 102.1,56.4 96.5,65.3 C94.4,70.8 94.1,76.8 93,82.5 L93,81.9 C92.8,75.3 93.3,68.4 96.6,62.5 C101.9,53.6 106.1,44 112.4,35.7 C114.7,35.1 117,34.6 119.3,33.9 C117.1,34.2 115,34.5 113,35" id="Shape" opacity="0.8"></path>
                    <path d="M41,35.8 C47.3,35.1 54,34 60,37.2 C54,36.1 47.8,36 42,35.8 L41.2,35.8" id="Shape" opacity="0.8"></path>
                    <path d="M68,35 C68.6,35.4 69.6,36.3 70.2,36.8 C68.8,37.4 67.4,38 66,38.3 C66.7,37.2 67.4,36.1 68.1,35" id="Shape" opacity="0.8"></path>
                    <path d="M21,40 C27.2,38.1 33.6,36.3 40,35.7 C28,39.2 15.5,44.1 3,41 C9,40.9 15.2,41.7 21,40" id="Shape" opacity="0.8"></path>
                    <path d="M61,38 C61.9,36.6 65.2,37 65.1,38.9 C63.6,39.3 62.2,38.5 61,38" id="Shape" opacity="0.8"></path>
                    <path d="M0,40 C0.5,40 1.5,40 2,40.1 L2.4,40.9 C4.5,44.8 6,49.9 10.5,51.6 C19.4,51.1 26.5,45 33.5,40.6 C33.5,46.2 34.5,51.8 36.2,57.2 L35.4,57 C32.7,52.5 32.7,47.1 32.8,42 C26,47.7 17.9,53.2 8.8,52.6 C4.7,49.5 2.8,44.3 0.2,40" id="Shape" opacity="0.8"></path>
                    <path d="M22,57 C24.4,55.7 27,55.7 29.6,56.3 L28.6,56.3 C26.4,56.5 24.2,56.7 22,56.9" id="Shape" opacity="0.8"></path>
                    <path d="M51,59 C54.9,57.5 59.1,59 62.5,61.2 C58.5,60 54,58.9 50,60.8 C44.5,63.4 38.2,63.5 32.2,64 C34.4,69.4 36.2,76 31.7,80.8 C28,80.9 29.7,76.4 29.8,74.1 C31.8,69.5 28.3,65.8 26.7,61.8 C24.3,63.8 21.9,65.8 19.5,67.8 C21,65.6 22.4,63.3 23.8,61 C26.6,63 29.4,65.1 32,67.3 C31.7,65.9 31.3,64.5 31,63.1 C37.7,62.3 44.5,61.1 50.9,58.7 M32.9,69.1 C31.9,72.5 31.1,75.8 30.4,79.3 C32.9,76.5 34.1,72.8 32.9,69.1" id="Shape" opacity="0.8"></path>
                    <path d="M18,69 C19.3,65.6 20.7,62.3 22.1,59 C20.9,62.4 19.6,65.8 18,69" id="Shape" opacity="0.8"></path>
                    <path d="M63,62 C69.3,63.7 75.9,64 82.4,64.9 C80.1,70.9 79.5,79.5 72.4,81.7 C77.2,77.6 79.2,71.7 81.3,65.8 C75.3,64.6 68.3,65.8 63.3,62" id="Shape" opacity="0.8"></path>
                    <path d="M6,75 C8.2,70.8 12.7,69.6 17,68.9 C14.2,70.9 11.2,72.4 8.3,74.1 C11.6,73.6 14.9,73.1 18.3,72.7 C14.3,74.1 10.3,75.6 6,75" id="Shape" opacity="0.8"></path>
                    <path d="M18,72 C17.5,70.8 18.2,69.7 18.9,68.8 C20.3,69.5 19.6,72.3 18,72" id="Shape" opacity="0.8"></path>
                    <path d="M81,76 C83.1,72.7 86.1,70.2 89.4,68.1 C89.6,70 89.9,71.8 90.2,73.7 L90.2,74.4 C89.6,72.9 89,71.4 88.5,70 C86,72.1 83.6,74.1 81,76" id="Shape" opacity="0.8"></path>
                    <path d="M77,83 C78.2,80.8 79.4,78.7 80.8,76.7 C80.2,79.2 79,81.4 77,83" id="Shape" opacity="0.8"></path>
                    <path d="M54,84 C56.2,81.5 59.2,79.9 62.3,81.9 C60.3,82.1 58.3,82.5 56.4,82.8 C57.7,83.4 59,83.9 60.3,84.5 C58.2,84.3 56.1,84.2 54,84" id="Shape" opacity="0.8"></path>
                    <path id="Shape" opacity="0.8" d="M63,81 C66,80.9 68.9,80.9 71.9,81.1 C69.2,81.1 66.4,81 63.9,81 L63.1,81"></path>
                    <path d="M72,82 C73.1,81.6 74.3,81.2 75.4,81.9 C75.3,83.6 72.3,83.5 72,82" id="Shape" opacity="0.8"></path>
                    <path d="M61,84 C64.4,83.5 67.5,82.9 71,82.3 C67.4,83.5 63.8,84.2 60.1,84.1 L61,84.1" id="Shape" opacity="0.8"></path>
                    <path d="M33,70 C34.2,73.7 33.1,77.4 30.5,80.2 C31.2,76.8 32,73.4 33,70" id="Shape"></path>
                    <path d="M35,96 C45.2,95.5 55.5,94.6 65.7,94.9 C55.7,97.2 45.2,97.4 35,96" id="Shape"></path>
                    <path d="M31,95 C32.4,92.8 34.2,96.9 31.6,96.3 C31.5,96 31.2,95.3 31,95" id="Shape"></path>
                </g>
                <path d="M90,75 C91.2,81.7 92.5,88.5 93.2,95.3 C84.9,95.2 76.6,95 68.3,95.3 C90.2,96.7 112.3,99.5 134.3,95 C124.1,94.9 113.7,96.5 103.6,94.4 C98.2,93.2 92.6,89.6 93.1,83.4 C94.2,89.4 100.3,90.7 104.4,94 C115.8,94.5 127.4,92.7 138.4,94.6 C124,100.4 108.4,97.6 93.4,98 C67.4,96.9 41.4,100.7 15.4,95.1 C40.9,94.4 66.3,93.4 91.4,93.4 C90.7,87.3 90.1,81.1 89.8,75 M33.8,96 C44,97.4 54.5,97.2 64.5,94.9 C54.3,94.6 44,95.5 33.8,96 M29.7,95.6 C29.9,95.9 30.1,96.6 30.3,96.9 C32.9,97.5 31.1,93.4 29.7,95.6" id="Shape" opacity="0.8" sketch:type="MSShapeGroup"></path>
                <path d="M82,4 C84.4,3.2 86.8,2.3 89.2,1.5 C91.2,9.7 85.5,16.9 84.5,24.5 C87.5,26 90.6,27.6 93.7,29.1 L94.6,29.5 C103.3,30.7 107.5,21.1 115.2,19.5 C123,22.3 127.9,29.9 134.2,34.9 C130.4,36.1 126.4,36.1 122.5,35.4 L122.1,35.3 C120,34.5 117.3,33.6 115.5,32.7 C114.8,33.5 114.2,34.3 113.6,35.1 L113,35.8 C106.7,44.1 102.5,53.7 97.2,62.6 C93.9,68.5 93.4,75.4 93.6,82 L93.6,82.8 C93.1,89 98.7,92.6 104.1,93.8 C114.1,95.9 124.6,94.3 134.8,94.4 C113.1,98.9 90.8,96.1 68.8,94.7 C77.1,94.4 85.4,94.7 93.7,94.7 C93,87.9 91.7,81.2 90.5,74.4 L90.5,73.5 C90.2,71.6 90,69.7 89.7,67.9 C86.4,70 83.4,72.5 81.3,75.8 L80.9,76.3 C79.5,78.3 78.3,80.5 77.1,82.6 L76,82.1 C74.9,81.4 73.6,81.8 72.6,82.2 L71.7,82.5 C68.2,83.1 65.1,83.7 61.7,84.2 L60.8,83.8 C59.5,83.3 58.2,82.7 56.9,82.1 C58.9,81.7 60.8,81.4 62.8,81.2 L63.7,81.2 C66.2,81.2 69.1,81.3 71.7,81.3 L72.6,81.3 C79.9,79.1 80.4,70.5 82.6,64.5 C76.1,63.6 69.6,63.3 63.2,61.6 L62.5,61.3 C59.1,59.1 54.9,57.7 51,59.1 C44.6,61.5 37.8,62.6 31.1,63.5 C31.4,64.9 31.7,66.3 32.1,67.7 C29.5,65.5 26.7,63.3 23.9,61.4 C22.5,63.7 21.1,66 19.6,68.2 L19.2,68.8 C18.4,69.6 17.7,70.8 18.3,72 L18.6,73.2 C15.3,73.6 11.9,74.1 8.6,74.6 C11.5,72.9 14.6,71.4 17.3,69.4 L17.7,68.8 C19.3,65.6 20.6,62.2 21.8,58.8 L22.2,57.6 C24.4,57.4 26.6,57.2 28.8,57 C30.9,56.9 33.1,57 35.3,57.3 L36.1,57.5 C34.4,52.1 33.4,46.5 33.4,40.9 C26.2,45.4 19,51.5 10.4,51.9 C5.9,50.3 4.4,45.1 2.3,41.2 L3.6,41.5 C16.3,44.6 28.6,39.7 40.6,36.2 L41.5,36 C47.5,36.2 53.7,36.3 59.5,37.4 L60.5,37.8 C61.8,38.3 63.2,39.1 64.6,38.7 L65.7,38.5 C67.2,38.1 68.5,37.5 69.9,37 L70.2,37 L72.6,37 C73,32.3 73.3,27.6 73.9,23 L74.2,22.2 C74.8,21.1 75.4,19.9 75.9,18.6 L76.2,17.9 C78.7,15.8 81.3,13.7 83.9,11.8 C83.2,9.8 82.6,7.7 81.9,5.7 L81.4,4.4 M81.3,27 C80.6,28.7 80,30.3 79.4,32 L79.7,31.7 L80.5,32.3 C80.9,33.8 81.4,35.3 81.9,36.8 C85.6,36.1 89.3,35.5 92.9,34.6 C92.6,33.7 92.4,32.7 92.2,31.8 L90.5,31.3 C87.4,29.8 84.3,28.4 81.1,27.1" id="Shape" sketch:type="MSShapeGroup"></path>
            </g>
            <g id="Group11" sketch:type="MSLayerGroup" transform="translate(1972.000000, 18.000000)">
                <g id="Group" sketch:type="MSShapeGroup">
                    <path d="M85,0.6 C86.9,1 92.3,0.9 92.4,4.4 C94.2,8.6 90.6,11.3 88.6,14.2 C89.5,11.2 91,8.4 91.5,5.2 C90.3,3.1 87.9,2.2 86,1.1 L85.1,0.6" id="Shape" opacity="0.8"></path>
                    <path d="M82,5 C83,3.5 84.1,2 85.2,0.5 C85,3.4 84.9,6.3 84.8,9.2 C83.9,7.8 82.9,6.4 82,5" id="Shape" opacity="0.8"></path>
                    <path d="M73,32 C71.8,22.7 77.1,14.3 84.9,9.5 C82.3,13.6 78.6,16.9 76.2,21.1 C74.7,24.6 73.6,28.2 73,32" id="Shape" opacity="0.8"></path>
                    <path d="M86,26.5 C86.9,22.8 87.9,19.1 89,15.5 C88.9,18.8 88.5,22 87.8,25.2 C90.9,27.2 94.2,29.3 97.5,31.1 C93.6,29.8 89.7,28.1 86,26.5" id="Shape" opacity="0.8"></path>
                    <path d="M98,30 C100.1,22.4 107.3,16.3 115.4,17.3 C121.9,20.1 127.2,25.5 132.2,30.7 C134.7,32.7 132.3,37.1 129.4,36.4 C127.2,36.1 125.1,35.2 123.1,34.5 C126.5,34.8 129.9,34.5 133.1,33.7 C127.2,28 121.5,21.1 113.7,18.2 C106.6,18.2 102.3,25.2 98,30.1" id="Shape" opacity="0.8"></path>
                    <path d="M82,28.6 C84.9,29.4 87.9,30.3 90.8,31.1 C90.8,32.5 90.9,33.8 91,35.2 C87.5,35.3 84.1,35.3 80.6,35.2 C81.1,33 81.5,30.8 81.9,28.6 M83.1,29.6 C82.6,31.2 82.1,32.8 81.7,34.4 C84.7,34.6 87.7,34.3 90.7,33.9 C88.3,32.3 85.7,30.9 83.1,29.6" id="Shape" opacity="0.8"></path>
                    <path d="M113,32.9 C115.9,33.5 118.9,34.3 121.9,34.8 C117.6,36.6 113.4,38.2 109.5,40.6 C110.7,38.1 111.8,35.5 113,32.9 M112.2,35.8 C114.6,35.4 117,34.8 119.2,34 C116.8,34.3 114.4,34.8 112.2,35.8" id="Shape" opacity="0.8"></path>
                    <path d="M73,34 L73,36.8 C70.2,37.4 67.4,38 64.6,38.1 C67.5,36.9 70.3,35.6 73,33.9" id="Shape" opacity="0.8"></path>
                    <path d="M39,39 C46,33.5 55.6,34.8 63.3,38.1 C55.3,36.2 46.7,35.5 39,39" id="Shape" opacity="0.8"></path>
                    <path d="M33,40 C34.7,39.7 36.4,39.4 38.1,39.2 C26.9,44.3 14.3,40.6 2.6,42.7 C3.9,48.1 5.8,54.4 12.1,55.5 L12.9,55.8 C9.9,55.4 7.7,55.1 4.9,54.7 C4.2,51.6 2.3,49.1 0.1,46.9 C0.7,46.8 2,46.6 2.6,46.6 C2,45.3 1.3,44 0.7,42.7 C10.9,37.6 22.3,42.9 32.7,40.1" id="Shape" opacity="0.8"></path>
                    <path d="M101,60 C102.9,53.4 106.2,47.3 109.5,41.3 C107.8,48 104.3,54 101,60" id="Shape" opacity="0.8"></path>
                    <path d="M32,45.9 C33,44.4 35.9,42.7 35.6,45.8 C35,47.1 32.6,47.2 32,45.9" id="Shape" opacity="0.8"></path>
                    <path d="M39,59 C35.9,55.7 33.2,51.9 35.2,47.1 C35.3,51.9 38,55.9 40.3,59.9 C36.7,60.9 33.2,62 29.7,63.1 C32.1,65.9 34.7,68.6 36.8,71.6 C39.4,75.2 39.6,79.6 40.5,83.8 C40.4,79.9 40.3,75.9 40.2,72 C42.2,72.6 44.2,73.3 46.2,74 C44.5,73.9 42.9,73.8 41.2,73.7 C41.3,77.5 41.5,81.3 41.7,85.1 C40.2,84.3 38.7,83.5 37.2,82.7 C37.6,80 38.8,76.9 37,74.3 C34.1,70.1 30.3,66.6 27.2,62.5 C31,61.2 34.9,60.1 38.9,59" id="Shape" opacity="0.8"></path>
                    <path d="M13,55 C17.7,52.2 22.9,50.3 27.9,48.1 C23.8,52 18.4,53.8 13,55" id="Shape" opacity="0.8"></path>
                    <path d="M46,69 C48.7,65.9 50.8,61.9 54.6,60 C59.8,59.5 64.8,61.6 69.6,63.4 C64.8,62.7 60.2,61.5 55.6,60.6 C52.5,63.5 49.3,66.2 46.1,68.9" id="Shape" opacity="0.8"></path>
                    <path d="M94,65 C96.1,63.6 98.1,62.1 100.2,60.5 C99.7,61.8 99.2,63.2 98.7,64.5 C97.1,64.7 95.6,64.8 94,65" id="Shape" opacity="0.8"></path>
                    <path d="M36,63.9 C38,63.9 42.1,64.1 44.1,64.1 C43.3,67.6 40.6,69.6 37.4,70.8 C37.1,69.1 36.4,65.6 36,63.9 M37,64.9 C37.4,66.4 37.9,67.9 38.4,69.4 C39.9,68.1 41.5,66.7 42.9,65.3 C40.9,65.2 39,65.1 37,65" id="Shape" opacity="0.8"></path>
                    <path d="M45,70 C48.5,71.4 51.9,73 55.3,74.6 C51.8,73.2 48.4,71.6 45,70" id="Shape" opacity="0.8"></path>
                    <path d="M79,74 C81.8,72.4 84.8,70.8 87.7,69.4 C88.2,72.8 88.4,76.1 88.9,79.4 C85.5,79.1 82.2,78.5 78.9,77.9 L78.9,74 M79.3,76.6 C82.3,77.1 84.8,77.6 88,78 C87.5,75.5 87,73.1 86.5,70.6 C84,72.5 81.7,74.5 79.3,76.6" id="Shape" opacity="0.8"></path>
                    <path d="M47,74 C51.6,76.1 55.4,79.6 58.7,83.4 C57.8,80.7 56.9,78.1 56.1,75.4 C57.9,78.1 59.3,81.1 60.5,84.2 C59.2,84.2 57.9,84.1 56.6,84.1 C54.2,80 50.5,77.2 47,74.1" id="Shape" opacity="0.8"></path>
                    <path d="M77,96 C77.9,94.5 80.9,95.8 79.9,97.5 C78.9,99 76,97.7 77,96" id="Shape"></path>
                </g>
                <path d="M70,64 C74.4,64.8 78.7,65.2 83,65.8 C76.6,75.7 68.1,84.4 63,95.2 C60.5,96.2 57.9,97 55.4,97.9 C59.8,98 64.1,98.2 68.4,98.4 C67.6,95.8 66.3,93.2 66.4,90.4 C68.5,86 72.6,82.9 75.9,79.4 C80.7,79.9 85.5,80.4 90.3,80.8 C90.7,76.3 91.1,71.8 91.6,67.2 C92,66.9 92.9,66.4 93.4,66.1 C92.4,71.4 91.8,76.8 91,82.1 C87.7,81.8 81.1,81.1 77.7,80.8 C73.1,83.3 70,87.6 66.5,91.3 C67.6,92.8 68.7,94.4 69.7,96.1 C86.4,95.5 103.6,93.2 119.7,96.4 C104.8,97.5 89.9,97.2 75.1,98.7 C56.3,99.5 37.5,98 19.1,96.6 C33,93.6 47.1,97.3 61.1,95.1 C63.5,88.4 67.7,82.8 72.8,77.9 C72.3,76.8 71.9,75.7 71.5,74.5 C75.3,73 78.6,70.6 80.8,67.1 C76.8,66.4 73,65.5 69.3,64 M76,96 C75,97.7 77.9,99 78.9,97.5 C79.9,95.8 77,94.5 76,96" id="Shape" opacity="0.8" sketch:type="MSShapeGroup"></path>
                <path d="M85,0.5 L86.2,1.1 C88.2,2.2 90.6,3.1 91.7,5.2 C91.2,8.3 89.7,11.2 88.8,14.2 C88.7,14.5 88.5,15.2 88.4,15.5 C87.4,19.2 86.4,22.8 85.4,26.5 C89.2,28.2 93,29.8 96.9,31.1 L97.6,30.4 C101.8,25.6 106.1,18.6 113.3,18.5 C121.1,21.4 126.8,28.3 132.7,34 C129.4,34.8 126,35.1 122.7,34.8 L122.1,34.8 C119.1,34.3 116.1,33.6 113.2,32.9 C112.1,35.5 110.9,38 109.7,40.6 L109.3,41.4 C106,47.4 102.6,53.4 100.8,60.1 L100.5,61.1 C98.5,62.6 96.4,64.2 94.3,65.6 L93.6,66.1 C93.2,66.4 92.3,66.9 91.8,67.2 C91.3,71.7 90.9,76.2 90.5,80.8 C85.7,80.4 80.9,79.9 76.1,79.4 C72.8,83 68.7,86 66.6,90.4 C66.5,93.2 67.8,95.8 68.6,98.4 C64.1,98.2 59.8,98 55.6,97.9 C58.1,97 60.7,96.2 63.2,95.2 C68.3,84.4 76.7,75.7 83.2,65.8 C78.8,65.2 74.5,64.8 70.2,64 L69.5,63.8 C64.7,62 59.7,59.8 54.5,60.4 C50.7,62.3 48.6,66.3 45.9,69.4 L45.2,70.4 C48.5,72.1 52,73.7 55.5,75 L56.5,75.4 C57.3,78.1 58.2,80.8 59.1,83.4 C55.8,79.6 52,76.1 47.4,74 L46.7,73.7 C44.7,73 42.7,72.4 40.7,71.7 C40.8,75.6 40.9,79.6 41,83.5 C40.1,79.4 39.8,74.8 37.3,71.3 C35.1,68.3 32.5,65.6 30.2,62.8 C33.7,61.7 37.2,60.6 40.8,59.6 C38.5,55.6 35.8,51.6 35.7,46.8 L35.7,46 C36,42.9 33.1,44.5 32.1,46.1 C31.1,47 30,47.8 28.8,48.3 C23.8,50.5 18.6,52.4 13.9,55.2 L12.8,55.8 C6.5,54.7 4.6,48.4 3.3,43 C15.1,40.9 27.6,44.6 38.8,39.5 L39.5,39.2 C47.2,35.7 55.7,36.5 63.8,38.3 L64.7,38.4 C67.5,38.3 70.3,37.6 73.1,37.1 L73.1,34.3 C73.1,33.9 73.1,33 73.2,32.5 C73.8,28.7 74.9,25.1 76.4,21.6 C78.8,17.4 82.5,14.1 85.1,10 L85.1,9.2 C85.2,6.3 85.3,3.4 85.5,0.5 M82.6,28.5 C82.2,30.7 81.7,32.9 81.3,35.1 C84.7,35.2 88.2,35.1 91.7,35.1 C91.6,33.7 91.6,32.4 91.5,31 C88.5,30.1 85.6,29.2 82.7,28.5 M36.7,63.5 C37,65.2 37.7,68.7 38.1,70.4 C41.3,69.3 44.1,67.2 44.8,63.7 C42.8,63.6 38.7,63.5 36.7,63.5 M79.7,73.5 C79.7,74.8 79.6,76.1 79.7,77.4 C83,78 86.3,78.6 89.7,78.9 C89.2,75.5 89,72.2 88.5,68.9 C85.5,70.4 82.6,72 79.8,73.5" id="Shape" sketch:type="MSShapeGroup"></path>
            </g>
        </g>
    </g>
</svg>