<svg xmlns="http://www.w3.org/2000/svg" width="2106" height="130" viewBox="0 0 2106 130">
  <title>
    horse-shapes
  </title>
  <g id="Page-1" fill="none" fill-rule="evenodd">
    <g id="horse-shapes" fill="#111">
      <g id="Group1">
        <g id="Group">
          <path id="Shape" d="M111 20c2-.8 4.2-1.4 6.3-2 1 1.6 1.8 3.3 2.7 5l-.6-.4c-2-1.2-4-2.3-6.3-3.2-.8 4 0 8.6-3 11.8-4 4.8-7 10.3-8.8 16.3.5-7.8 5-14.6 10.8-19.6l-.8-8" opacity=".8"/>
          <path id="Shape" d="M116 30.4c.5-2.5 1.8-4.8 3-7-.8 2.4-1.8 4.7-3 7M116 31l.3-1c.8 4-.2 8-.8 12 2.8 1 5.6 4 8.6 3.6 5-3.2 9-7.5 13-12 5 1.6 10 4 14.5 7.3-4.4-2-8.8-4.8-13.7-5.2-4.5 3-7.5 7.6-12.2 10.2-4 2.2-8.3-.6-10.8-3.5-.6-4 .6-7.7 1.3-11.5M152 41c3 1.2 6 2.6 9 4-1 1.7-1.7 3.6-3 5.2-5.4.5-11-.6-16.3-.2-2 2.4-3 5.2-4.6 7.7 1-2.7 1.2-6 3-8.3 6.5-2 14 1.5 20-2.7-2.7-2-5.3-4-8-5.8M109 43c4.4 1.5 8.7 3.3 13 5-1.2 3.5-4 5.2-7.8 4.6 2.3-1 4.5-2.2 6.7-3.4l-11.4-4.7 1.2 9-2.6-1.3c.2-3 .5-6 1-9.2M101 48v.8l.7 6.7c-10 .7-20-.4-30 0-10.2.7-19.8 4.7-29 9-4 2.4-9 .4-13.2-.2 2.2 3.3 4.3 9 9.3 8 9-2 15.7-8.6 23-13.4l-1 8.2v-6.7c-5 5-11 8.7-17.3 11.5-3.7 1.4-8.4 2.5-11.5-.5-2.2-2.7-2.4-6.5-3.6-9.7l8.6 3.4c3-.3 5.4-2.3 8-3.2 7.8-4 16-6.2 24.7-7.6 10-1.4 20.5 2.2 30.5-.5 0-2 .3-4 .5-6M129 71c2-4.5 5.3-8.5 8-12.7-3.2 7.4-8 14-10.4 21.7-.7 2-3 2.4-4.7 3 3.5-3 4.8-8 7-12" opacity=".8"/>
          <path id="Shape" d="M61 67c1.6 2.6 3 5.4 4.4 8.2L53 76c-.5 6-.8 12-1.8 18l-1.7-.3c2-6 2-12.8 2.5-19 4 0 7.8 0 11.6-.2-1-2.5-2-5-2.7-7.5M78 78c4-1.8 8.2-.3 12 .8-9-1.7-17 3.2-25.7 4.8l6.6 9.6c-3-3.3-6-6.6-8.6-10 5.2-1.6 10.3-3.3 15.4-5.2M91 79c1.5.4 2.8 1 4 1.8-1 1.8-4.8.4-4-1.8" opacity=".8"/>
          <path id="Shape" d="M55.7 80c7 5 12.3 12 16 19.7l1.2 2.5-3.7-1.5C69 92.7 62 88 57.7 82c-1 .5-1.7 1.2-2.6 1.8.3-1 .6-3 .7-4M96 81c4.6 1 9.3 1.5 14 2.3-4.8.2-9.6 0-14-2.3" opacity=".8"/>
          <path id="Shape" d="M110 83c2 0 2 2 1.4 3.4C110 86 109 84 110 83M108 108c.2-9.3 3.4-19.7 12.7-23.7-7.8 5.5-10.6 15-12.7 23.7M49 98c4-3.2 6-8.2 6-13.3-.4 3.6.7 7.7-1.3 11-2 2.3-5 2.8-7.6 4 .6-2 1-4 2-5.7l1 4" opacity=".8"/>
          <path id="Shape" d="M106 98c3-2.7 3.8-7 5.8-10.3-1 5-2 11.5-8.3 12-2.2 0-4.3-.2-6.4-.4l.4-.8c.6-1 .5-2-.4-2.6-1.7-.4-1.2 2-.2 2.6L92.3 97l.2-.4c.7-1 .5-2-.4-2.6-1.6-.3-1 2 0 2.7l-4.4-1c1.5-1 2.8-2.8 4.6-2 4.8 1.2 9 4.7 14 4.6M70.8 94c2.3 0 2.6 4 .6 4.8l-.6-4.8" opacity=".8"/>
          <path id="Shape" d="M91 96c-1-.6-1.5-3 .2-2.7 1 .7 1 1.6.4 2.6H91M96 98c-1-.6-1.5-3 .2-2.7 1 .7 1 1.6.4 2.6H96M128 113c3.5-.4 7.4-1 10.5 1.4-3.5 0-7-.8-10.5-1.4M86 115c3.3-.2 6.7-.4 10-.4-3.4.2-6.7.4-10 .4"/>
        </g>
        <path id="Shape" d="M104 100l2 .6c.4 4 .5 8.3 1 12.4l-10.8 2c6.7 0 13.5.2 20 .4-2.5-2-5-4.2-7.2-6.4 2 1 3.7 2 5.5 3.3 10.7 1.2 21.3-.6 32 .2 9.5.5 19 .3 28.5 1.5-12.4 2.3-25 3-37.6 2.3-32-.7-65 1-97-.2l-1.5-2.7c21.3-.7 42.7.7 64-.4 2.7-3.7 1.6-8.8.5-13m24 13.5c3.5.6 7 1.2 10.5 1.4-3-2.4-7-2-10.5-1.5m-42 1.4c3.3 0 6.7-.3 10-.5-3.3 0-6.7.2-10 .4" opacity=".8"/>
        <path id="Shape" d="M113 19.3c2.2 1 4.3 2 6.3 3.2l-.5 1c-1.2 2-2.4 4.4-3 7l-.2.7c-.8 3.8-2 7.7-1.3 11.5 2.5 3 7 5.7 10.8 3.5C130 43.6 133 39 137.4 36c5 .4 9.3 3 13.7 5l.6.5 8 5.8c-6 4-13.5.8-20 2.7-1.8 2.3-2 5.5-3 8.3v.7c-2.7 4.2-6 8-8 12.7-2.2 4-3.5 9-7 12.2l-.7.3c-9.4 4-12.5 14.4-12.8 23.7l1.3 1.2 7.2 6.4-20-.5c3.6-.5 7.2-1 10.8-1.8-.5-4-.6-8.3-1-12.4l-2-.6-1.2-.3c6.2-.6 7.3-7.2 8.3-12l.2-1c.6-1.4.5-3.6-1.4-3.5h-.8c-4.6-.8-9.3-1.4-14-2.3l-.8-.3c-1.3-.8-2.7-1.5-4-2l-1-.2c-4-1-8.2-2.6-12-.8-5 1.8-10.2 3.5-15.4 5.2 2.6 3.5 5.5 7 8.5 10v1c0 1 .3 3.5.5 4.7l.2 1.2c-3.5-7.8-8.8-15-16-19.8 0 1-.3 3-.5 4v1c-.2 5-2 10-6 13.2-.4-1.4-.8-2.7-1-4l1.8.2 1.7.2c1-6 1.3-12 2-18l12.2-.7c-1.4-2.8-3-5.5-4.5-8.2l-.5-.7 1-8.3c-7.4 5-14.3 11.3-23 13.3-5 1-7-4.6-9.3-8 4.4.8 9.2 2.7 13.3.4 9-4.4 18.7-8.5 29-9.2 10-.3 20 .8 30 0-.3-2-.7-4.4-.8-6.6l.2-1c2-6 5-11.5 9-16.3 2.7-3.2 2-8 3-11.8M109 44l-1 9 2.7 1.5c1-.3 2.3-.5 3.4-1 4 .6 6.7-1 8-4.6-4.4-2-8.7-3.6-13-5"/>
      </g>
      <g id="Group2">
        <g id="Group">
          <path id="Shape" d="M308 18c2-.4 4.2-.6 6.3-.8l2.4 3.3c-1.2 7.2-4 14-5.6 21 2 4.4 7.4 3.5 11 1.6v1.4l-7 5c-3 2.3-7 2-10.7 2.5l-.6-2.8c4 .3 7.7.6 11.6.6V47l-8.6-2.4-2.5 3.5L306 44l4.7.5c-.4-8 2.8-15 4.3-22.7.3-3.3-3.7-3.5-6-4 .3 2.8 1 5.7.7 8.6-2 3.6-5.4 6.3-7.7 9.7-3 5.3-4 11.4-5 17.4-6.6-.2-13.3-.2-20-1-6.2-2-11.2 2.6-16.6 4.8-5.8 2-12 2.8-18 4.3 5-2.6 10.5-3 15.7-4.6 4-1.3 7.3-4 11-5.6 9-.7 18 1.2 27 1 .5-9 3.4-18.5 10.8-24.5 3.5-2.6 1-7 1-10.4M330 32l1.7-1.6c7 4.2 14.5 8 20.8 13.5 2.3 1.8.3 4.6-.3 6.8-5.4-1.5-11-2.2-16.5-3-2 4-4 8-6.3 11.8 1.3-4 2-8.3 4.6-11.7 1.4-2.8 5.3.4 7-.8 3.3.4 6.5 1 9.6 1.7.8-1 1.7-1.8 2.5-2.6-7-5.6-14.6-11-23-14.6M323 38c1.5-2.5 4-4 6.7-5-1.8 1.5-3.7 3-5.6 4.3l-1 .7M325 38l1.6 2.3-4 1.6-.8.3L325 38M234 74c8.3-4.6 15.7-11 24.7-14.5.3 3 0 6.3 1.2 9 2 3 5 5 7.5 7.7-.8 3.8-4.8 5.7-7 8.5 7 4 14.5 8.4 23 7.6-.7-.4-2-1-2.5-1.4 5 2 9.8 4.4 15 6 2 1 3.8-.8 4.4-2.5 2.5-3.8 4-8 5.5-12.4-6.4-1.2-12.7-2.8-18.8-5 6.6 1.2 13.2 2.7 19.8 4-2 6-3 13.8-8.7 17.5-4.3.3-8-3-11.6-5 1.5 1.8 3 3.6 4.3 5.4-3 .3-6 .7-9 1.3 6.5-.5 14 1.3 19.5-2.7 4.5-3.3 6.3-8.7 9.2-13.2 5-3 9.5 2 12 6-1 1-2 2-3 2.7.5-1.6.8-3.4 1.2-5-3-1-6-2.6-9-3.2-1.8 2-3.4 4.6-5 7l5.5 1c-3.8 2 .7 2.8 3.4 2l-2.6-2 5.4.3c2 0 4-.2 6-.4-1.7-4.4-7-8.4-4.5-13.7 2.3-6.6 5.7-12.6 8.8-18.8-2 7.6-5 15-9.5 21.4l7.8 9.5c-5.7 5.7-14.5 4.2-21.8 4-5 8.8-17 6.4-25.7 6.3 2.2-3.8 6.5-3.5 10.3-3.3-3.7-2.4-7.8-4-11.8-5.8-1.2 3-1 7.5-5 8.4l1-.8c1-.8 2.7-2.6 1.2-3.8-1.7-.2-2 2-1.8 3.3 0-2 .2-4 .4-6-5.4-3-11.5-5.2-15.8-10 3-2.2 6.4-4 8.6-7l-9-6.8c0-3 .4-5.7.5-8.6C250 64.4 243 71 235 75c-6.7 3.2-9.7-4.5-12.6-8.7 3.5-2.7 7.5-2 11 0C236 64.6 239 63 242 62c-1.2 1-2.4 1.8-3.6 2.6-3.8 3.3-9.3 1.6-14 2 2 3.3 4.6 9.7 9.7 7.6" opacity=".8"/>
          <path id="Shape" d="M284 75c1.2-1.3 3.5 0 3 1.7-1.3-.2-2.3-.7-3-1.7M279 80c-.3-2.3 1.8-3.5 3.7-4-.8 1.7-1.8 3.5-3.7 4M278 90c.4-3 1-6 1.3-9 .2 3.3.7 6.8 1.2 10.2L278 90" opacity=".8"/>
          <path id="Shape" d="M316 95c-2.8.7-7.2 0-3.4-2.2h1l2.4 2M274 100c-.2-1.2 0-3.5 1.8-3.3 1.4 1.2-.3 3-1.3 3.8l-.5-.5"/>
          <path id="Shape" d="M265 82l9.8-1.3v9.7c-4.2-1.6-9.6-2.8-9.8-8.4m1.7 1l.3 2.6c2.3 1 4.6 2.2 6.8 3.3v-7.2c-2.4.4-4.8.8-7 1" opacity=".8"/>
        </g>
        <path id="Shape" d="M235 113c30.5-2.6 61 0 92-2 7.5-.5 15 .5 22.4 1-22.6 2.3-45 2.2-68 2.2-15.3 0-31 2.7-46-1.3" opacity=".8"/>
        <path id="Shape" d="M309 18c2.3.5 6.3.7 6 4-1.5 7.6-4.7 14.8-4.3 22.7l-4.7-.5-1.8 4.3-.6 1 .6 2.8c3.6-.6 7.7-.2 10.8-2.5 2.3-1.7 4.5-3.4 7-5v-2.5l3.8-1.6-1.6-2.3-.7-1c2-1.2 3.8-2.7 5.6-4.2l1-.7c8.4 3.6 16 9 23 14.6l-2.6 2.6c-3.2-.6-6.3-1.3-9.5-1.7-2 1-5.8-2-7.2.6-2.6 3.4-3.3 7.7-4.6 11.7l-.3.6c-3.2 6-6.6 12-9 18.6-2.3 5.2 3 9.2 4.6 13.7l-6 .5h1.2l3-2.7c-2.6-3.8-7-9-12-6-3 4.6-4.8 10-9.3 13.3-5.7 4-13 2-19.4 2.7 3-.7 6-1 9-1.4-1.4-2-2.8-3.6-4.3-5.4 3.6 2 7.3 5.3 11.6 5 5.7-3.7 6.7-11.4 8.7-17.4-6.6-1.4-13.2-3-19.8-4l-1-.3c.6-1.7-1.6-3-2.8-1.7l-.6.4c-2 .5-4 1.8-3.7 4v.8l-1.2 9c.8.5 1.7 1 2.5 1.3l.8.4c.7.3 2 1 2.5 1.4-8.4 1-16-3.5-23-7.5 2.3-2.8 6.4-4.7 7-8.5-2.3-2.7-5.4-4.7-7.5-7.6-1.2-3-.8-6-1.2-9-9 3.4-16.3 9.8-24.7 14.4-5 2-7.5-4.2-9.5-7.7 4.6 0 10 1.5 14-1.8 1-1 2.3-1.8 3.5-2.6l.6-.4c6-1.5 12-2.3 18-4.3 5.3-2.2 10.3-6.8 16.6-5 6.6 1 13.3 1 20 1 1-6 1.8-12 5-17.4 2.2-3.4 5.6-6 7.6-9.7.4-3-.5-5.8-.7-8.7m-44 64c.3 5.6 5.7 6.8 9.8 8.4V81c-3.2.4-6.4 1-9.7 1.3"/>
      </g>
      <g id="Group3">
        <g id="Group">
          <path id="Shape" d="M506 18l6.5-2.5 2.3 4.4-4-3-4.5 3.3-.6.4.3-2.8M506 40.7c2.7-6.7 5.3-13.6 9-20l1 2.3c-3.6 4.3-5.5 9.6-7.3 14.8-1.2 2.5 1 4.6 2 6.7-1.5-1.3-3-2.5-4.7-3.7M507 21.4l2 3.4c-4.4 3.3-8.3 7-12.3 10.7l-.8.7c2.7-4.8 6.3-9 11.3-11.6 0-1-.3-2.2-.4-3.3" opacity=".8"/>
          <path id="Shape" d="M528 31c8.8 3.3 16.8 8.2 24 14.3-.2 2-1 4-1.6 6.2l-7.6-2.6c3.2.4 6.5-.2 9.2-2-6.4-4.7-12.6-10-20-13-1-.4-2.6-1-3.5 0-6 5.5-10.2 13-17.7 16.4-2.8.4-5.6-.3-8.3-.5l9.4-.4v-2.4c-2.5-1-5-2.2-7.6-3.4l-1.7 5 .8-5.8c2.6.6 5.2 1.4 7.8 1.8h6.5c3.4-4.6 7-9 10.3-13.7M497 36.6c0 5.5-.3 11-.2 16.5L484 52c4-.3 7.7-.4 11.6-.4-.5-5-.4-10.2 1.4-15" opacity=".8"/>
          <path id="Shape" d="M533 46.8c3 .7 6 1.5 9 2l.8.2-9 3c2-1.4 4-2.5 6-3.7-3 .4-5.7.8-8.6 1.4.5-1 1-2 1.7-3M468 50.6c5.2-1.2 10.5.2 15.6 1.2-5.2-.4-10.7-1-15.8.8-3.6 1.5-7 3.6-10.6 5 3.5-2.3 6.8-5.2 10.7-7M521 78c3-9.2 5-18.8 9.8-27.3-2.3 9-5.3 17.8-8.3 26.5 3.3 3 7.7 5 9.8 9-3 3.6-7 6.6-10.2 10l-8.5-1.4 4.3-4-.4 1.2c-.4 1-.8 2-1 3l7.3-1.2-5-1.4c3.6-1 6.8-2.7 9.5-5.2-4.5-4-10.6-4-16.2-4.4-2.6 5.5-4 11.4-5.7 17-14.3-1.7-27-8.8-41-11.6 1.7-3.6 3.3-7.3 4.4-11.2-4.3-2-8.6-4.2-11.7-8 4 2.4 8.7 4.2 12.2 7.4-.4 4-1.4 7.6-2.5 11.3 6.8 1.6 13.6 3.5 20 6 5.6 2 11 4.8 17 4.4 3-4.2 2.7-10 5.7-14.5 1.3-3 5.7-.2 7.6-1.4 4.8-.8 8.3 2.4 11.3 5.5l1.6-2c-3.4-2.4-6.7-5-10-7.5M431 67c7-6.4 16-9 25.4-9.5-4 1.2-8 2-12 3.5-6.6 2.5-12.5 8.6-20 6.6l3.7 6.6c9.7-5.8 19.8-11 30-15V68.3l-1-7.7c-10 5.5-20.5 10-30.6 15-1.4-3-2.6-6.3-3.7-9.5 2.8.2 5.6.5 8.4 1" opacity=".8"/>
          <path id="Shape" d="M482 76c7.7 1.5 15.2 4 22.8 6 .6 4.7 1.2 9.5 1 14.3H498l.8-.3c8.7.6 5.6-7.7 5.3-13-7.2-1.4-14.3-4-21.4-6 1.2 3.3-.4 8.5 2.7 11 4 2.7 8.2 5 12.5 7.4-5-1.4-10-3.6-14.2-6.6C481.4 85 483 80 482 76M470 87c1-3.8 3.3-6.8 8-6.6.8 3 1.3 6.2 1.3 9.3L470 87m1-1.3l6.6 2.6c.3-.5 1-1.5 1-2-.7-1.6-1.6-3.2-2.5-4.7-1.7 1.3-3.5 2.7-5 4.2" opacity=".8"/>
          <path id="Shape" d="M516 95c.4-1 .8-2 1-3l1.4.3 5 1.4c-2.5.5-5 1-7.5 1.3M490 113l12-.6c-4 1-8 1.7-12 .6"/>
        </g>
        <path id="Shape" d="M471 112c24.5-3.8 49-.2 74 0-17 3.3-34 3.6-51 3.7-7.7.2-15.5-1-22.7-3.7m19 .7c4 1 8 .5 12-.6-3 .3-9 .6-12 .7" opacity=".8"/>
        <path id="Shape" d="M511 17.2l4 3-.3.5c-3.6 6.4-6 13.2-9 20 1.7 1 3.2 2.4 4.8 3.6l.5.4-7.8-1.8-.8 5.6-.3 1.2c3 .2 5.7 1 8.4.5 7.5-3.5 11.8-11 17.7-16.3 1-1.2 2.6-.5 3.7 0 7.3 3 13.5 8.2 20 12.8-2.8 1.8-6 2.5-9.3 2h-.7l-9-2.2-1.7 3-.4.7c-4.8 8.5-6.6 18-9.8 27.3l10 7.6-1.7 2c-3-3.2-6.4-6.3-11.2-5.5-2 1.2-6.3-1.5-7.6 1.4-3 4.5-2.5 10.4-5.7 14.7-6 .4-11.6-2.5-17-4.4-6.6-2.5-13.4-4.3-20-6 1-3.7 2-7.5 2.5-11.3-3.5-3.2-8-5-12.2-7.3v-1c0-3 0-5.7.2-8.4-10.5 4-20.6 9.2-30 15l-3.7-6.6c7.7 2 13.5-4 20-6.6 4-1.4 8-2 12-3.4l.7-.2c3.6-1.5 7-3.6 10.6-5 5-2 10.5-1.3 15.8-1h.8c4.3.5 8.5 1 12.8 1.3 0-5.5.3-11 .2-16.5v-1c4-3.7 8-7.5 12.3-10.7l-2-3.4-.6-1c1.4-1 3-2 4.4-3.2m-29 59c1 4-.6 9 1.6 12.8 4.3 3 9 5.2 14.2 6.6l1 .5-1 .2h7.8c.3-4.8-.3-9.6-1-14.4-7.5-2-15-4.4-22.7-6m-11.4 11c3 1 6 2 9.2 2.8 0-3.2-.5-6.3-1.4-9.3-4.6 0-7 3-8 6.7"/>
      </g>
      <g id="Group4">
        <g id="Group">
          <path id="Shape" d="M703 17.6l6.7-.7c.2 2.3.2 4.8.5 7.2-4.8 4.8-5.8 11.8-7.7 18-1-8.8 5-16 7-24l-6.6-.7" opacity=".8"/>
          <path id="Shape" d="M702 21c-2-.2-.5-3.8 1-2.5 0 1-.4 1.8-1 2.5M703 24c-1.7.7-2-2.6-.2-2l.2 2M692 34.4c2.4-4.4 6.5-7.5 11-9.8-2.7 3.2-6.2 5.7-8.7 9-4.5 6-6 13.5-3 20.3-8.5 0-17-1-25.5-2.4h-.8c8.5 0 17 .8 25.3 1.3-4.5-5.8-1.2-13 1.7-18.7M723 36c-.4-2.3 4.5-3.2 4.8-.7l-4.8.7M709 46.8c4.4-3.4 7.6-8.2 12.6-10.6-3.3 3.8-6.3 8.2-10.8 10.8-2.5 1.2-4.6-.2-6.4-1.5L709 47M732 36c6.4 4 12 9 17.2 14.4l-4 4.6c-4-1.5-8.3-3-12.6-2.6-9-1.6-8.6 9.5-11.7 14.7 1.4-6 2-13.5 7.5-17.3 6.6.2 12.8 3.2 19.4 3-4.8-6-10-11.5-16-16.6m-2.8 14c-1.7.6-.8 3.2.8 2.5 1.7-.4.7-3-.8-2.4M697 45.6c1.5-1.6 3.8-1.2 5.8-1.5l-6.8 4.2 1.8 2.6 7.3-.3c-.5-1.7-1-3.5-1.7-5.2 1.6 1.7 3.2 3.5 4.7 5.4L696 52c0-2-.8-5 1-6.5M657 55c2-2 4.5-3.3 7.4-3.6-2.5 1-5 2.4-7.4 3.6M639 60c6-1.3 12-2.8 17.8-4.5-5.3 2.6-11.2 4-17 4.4h-.7M630 60h9c-9.6 1-15.4 9-23 13.3 1 1.3 2.4 2.6 3.6 4 6-4.6 12.2-8.8 19.3-11.3-5.8 3.5-11.3 7.4-17 11-5 3.3-6.5-3.2-8.8-6 2 0 4 0 6.2.2 3.5-3.8 7.2-7.5 10.8-11.2" opacity=".8"/>
          <path id="Shape" d="M639 66l12.2-5.3V64l-1-1.8c-3.7 2.5-7.7 4.8-12 4l1-.3M651 64.8c1.5 10.8 15.5 13 17.8 23-3.8-6.4-11-10-16-15-2-2-1.7-5.3-2-8M717 76l4-8c-.5 2.8-1 5.6-2.2 8H717M721 76c3.8.5 9.2-1.2 12 2.3 1 7 1.2 14 .2 21l-3.8-2.4c1.8-5.7 1.6-11.6.3-17.3-5 1-9.8 2-14.8 2.3 5-1.3 10.4-2.2 15.6-3.2l1.7 7.6c0-2.7-.4-5.4-.4-8-3.7-1-7.4-1.7-11-2.4m10.5 18.3c-1.5 0-1.5 2.4 0 2.4s1.5-2.4 0-2.4M677 79c11.3 3 23 3 34.4 6.6-11.2-1.4-22.5-2.3-33.5-5.2 0 2.3.3 4.7.5 7l10.7 3.5c-4-1-8-1.7-11.8-2.5 0-3.2-.3-6.4-.4-9.5M715 83c1.6 1.5 3.5 3 4.7 4.8-.3 1.4-1 2.7-1.4 4-.5-3-1.8-6-3.3-8.8M716 87l3 5.5-6.2 1.3.8-1.6 2.4-5M702 89l6 .7-.8.2c-1 0-2.6.5-3.5.7 2.7 1.7 5.5 3.2 8.5 4.5-5 1.7-8-2.5-10.2-6.2M674 91c8.6 1 17 3.2 25 6-3-2-6.3-4-9.7-5.4 4.7.3 9 2.5 12 6.3-9.4-.2-17.8-5.5-27-6l-.5-1" opacity=".8"/>
          <path id="Shape" d="M707 92c1-1.5 3.8-.5 4.3 1-1 0-3 0-4 .2L707 92M676 96c5 4.3 10.5 8.4 15 13.3-6-3-11.2-7.7-15-13.3" opacity=".8"/>
          <path id="Shape" d="M703 91l3.5-.8.5 1.5.4 1.2 4-.3h1.5l-1 1.6-.5 1.3c-3-1.3-5.8-2.8-8.5-4.5M731 94c1.5 0 1.5 2.4 0 2.4s-1.5-2.4 0-2.4"/>
        </g>
        <path id="Shape" d="M670 89c1 3.3 2.3 6.6 4.7 9 5.4 6 11.4 11.2 17.3 16.7l.6-4.5v-.8l1.4 2.8c7.3 0 14.6 0 22-.3 6.4 0 13.4-1.4 19.5 1.5-15.6 1-31 1-47 1.4-16.4-.7-33-1-49 0-4.2.4-8.4-.7-12.5-1.8 20.4-2 40.8.8 61-1-5.6-4.7-11-9.8-15.8-15.2-2-2-1.6-5.3-1.8-8" opacity=".8"/>
        <path id="Shape" d="M703 18.4v-.8l6.8.7c-2 8-8 15.2-7 24 .4 1 1 2 1.7 3 1.8 1.3 4 2.8 6.4 1.5 4.4-2.5 7.3-7 10.7-10.8l.8-.2 4.8-.7c1.5 0 3 .4 4.4.8 5.8 5 11 10.5 16 16.6-6.7.3-13-2.8-19.5-3-5.6 4-6.2 11.4-7.6 17.4l-.2.7c-1.2 2.8-2.6 5.4-4 8h2l2 .3c3.7.6 7.4 1.4 11 2.3 0 2.8.3 5.5.4 8.2l-1.7-7.6c-5.2 1-10.4 2-15.6 3.2l.6 1.2c1.5 2.8 2.8 5.7 3.3 9v.6l-3-5.5-4.2-1.6c-11-3.5-23-3.6-34.3-6.6 0 3.2.4 6.3.4 9.5l12 2.4.7.2c3.4 1.4 6.6 3.3 9.7 5.3-8.2-3-16.6-5.2-25-6l.4 1 1.5 4.6c3.8 5.5 9 10 15 13.2l1 .5-.6 4.5c-6-5.5-12-10.8-17.3-16.7-2.4-2.5-3.8-5.8-4.7-9l-.3-.8c-2.4-10.2-16.4-12.3-17.8-23V64v-3.3c-4.2 1.8-8.2 3.6-12.3 5.2l-1 .2c-7 2.4-13.2 6.7-19.2 11.2-1-1.3-2.4-2.6-3.6-4 8-4 13.7-12.3 23-13.2h1c5.8-.4 11.7-2 17-4.5l.5-.3c2.4-1.2 4.8-2.5 7.3-3.6h1c8.4 1.3 17 2.3 25.5 2.2-3.3-6.8-1.7-14.4 3-20.3 2.4-3.4 6-6 8.6-9l.4-.6c0-.4 0-1.5-.2-2l-.6-1c.7-.7 1-1.6 1-2.5m-6.4 27c-2 1.7-1 4.4-1 6.6 4-.3 8-.8 12-1.3l-4.8-5.4-.5-1.3c-2 .2-4.3 0-5.8 1.5"/>
      </g>
      <g id="Group5">
        <g id="Group">
          <path id="Shape" d="M889 20.8c2.5-1.2 5-3 8-2.6 1.6 2 3 4.3 2.6 6.8-2.4 5.7-5 11.3-8.4 16.4 3.2 1.8 6.2 6.8 10.3 4.7 4-1.3 5.5-6 9.3-7.5 2.2-1 4.5-1.7 7-2.4-5 3-9 6.6-13.4 10-4.6 3.6-11.3.7-13.7-4 1.5-8 8.7-14.6 6.5-23l-7 1.7-1 .2" opacity=".8"/>
          <path id="Shape" d="M890 21.5l3.3 6.4-11.6 6c2.8-2.7 6.3-4.7 9.6-6.7-.5-2-1-4-1.3-5.8M875 47c1.2-4.5 4-8.4 6.3-12.4-2 6-7 12.6-2.8 18.8-1.5-1.8-4.4-3.6-3.5-6.3M918 35.7c8.2 4.3 14.7 11 20.8 17.7-1.7 1-3 3.7-5.4 3-6-1.6-12-2-18-2.5-2.8 5.6-5.6 11.7-5.8 18.2 0 1.7 1.5 3 2.4 4l-4-.8c1.3-8.3 1.6-19 9.7-23.8 6.6 0 13 3 19.5 3.8-4.8-8-12.2-13.7-19-19.7m1 16.6c-.3 1.8 3.5 1.8 3 0-.5-1-2.4-1-3 0M887 43c3.4 1.8 6.7 3.8 10 6v3l-12.6 1c.7-3.4 1.5-6.7 2.5-10m1 1.6c-1 2.5-1.7 5-2.4 7.5l10.7-1-8.4-6.4M847 55c4.6-2.8 10-1.6 15-.7-5.6-.8-11 0-16 2.6-9 4-19.5 2.5-29 5-7.4 3.3-9 11.8-12.8 18 10.5-8.3 21.8-16.2 35-19-.5 2.8-.6 5.6-1 8.3v-6.8c-7.4 2.8-15.6 4.6-21.6 10-4.5 3.5-9 9-15 7.8 2-2.6 4.4-5 5.5-8.2 1-5.6 5.7-9.6 10.6-11.7 9.8-2 20.5 0 29.4-5.5M863 54.7c3.2 0 6.6 0 9.8.5h-1c-2.8 0-6-.3-8.8-.5M879 54l.7 1.6-7.2-.7 6.4-1M839 70c2.7 5 7 9.4 7.4 15.3-2.7-5-6-9.8-7.4-15.3M913 76h6.6c3.3 6 11 8.5 13.6 15-1.8-1.4-3.5-3-5.4-4.4 2 1.8 3.8 3.4 6 5 2.3 1.3 3.6 3.8 4.2 6.4-5-1.6-7.6-6.5-11.3-10-3-2-6.5-3.4-10-4.8l-4.7 10c-3.4 1-7 1.8-10.4 2.4 1.2-2 2.6-3.8 4.7-4.8 3.2-1.5 5-4.7 7.7-7 4.2-1.4 8.5.2 12.5 1.4-4-3.6-7.5-8.6-13.5-9.2m-1.4 12.3c-1.3.5-2.4 2.5-1.6 3.8 1.7.7 3.4-3 1.6-3.7m-6.2 3.5c-1.6.3-1.3 3 .4 2.4 1.7-.2 1.2-3-.4-2.4m28 2.3c-1 1.3 1.2 2.6 2 1.4.8-1.2-1.3-2.5-2-1.3M848 106c-3.7-9.7 2.7-19.5 10-25.8-5 7.8-12 16-10 25.8M866 81c15.7 2 32-.5 47 3-15.8-.8-31.5 0-47-2.2v-1M859 81c5 5.7 9 12.4 16.3 15.6-3.2-1.4-6.8-2.2-9.5-4.4C863 88.7 861 85 859 81" opacity=".8"/>
          <path id="Shape" d="M866 83c3.7 11.2 17 13.6 26.7 17.4l-4.2 2 1.5-2c-7.7-2.3-15.7-4.8-21.7-10.3-1.4-2-1.6-4.6-2-7M841 95c1.2-3 3.3-5.7 5-8.5-1.6 4.7-4.3 9.5-2.5 14.6-1-2-2.7-3.8-2.4-6M876 97l11.7 4.8c-4.2-1-8.6-1.6-11.7-4.8M844 102c1 .7 1.6 1.7 1.8 2.8-1.6 1-3.2-1.8-1.8-2.8M846 105l2.4 6.8c-1-2.2-1.8-4.5-2.4-6.8" opacity=".8"/>
          <path id="Shape" d="M927 87l5.4 4.5.5.4c-2.2-1.6-4-3.3-6-5M911 89c1.8.6.2 4.4-1.6 3.8-.8-1.3.2-3.3 1.6-3.8M905 92c1.7-.5 2 2.2.4 2.4-1.7.6-2-2.2-.4-2.4M933 95c.8-1.2 3 0 2 1.3-.8 1.2-3 0-2-1.3"/>
        </g>
        <path id="Shape" d="M882 113c14-1.4 28-3.4 42 0-12.4 1.2-25 1.5-37 1.2-1.6 0-3.2-.7-4.7-1.2h-.3zm-34-6c5.3 2.6 10.6 5.8 16.8 6 6 .2 11.8-1 17.7.4-10.5 1.2-21 3-31.6 1.6-11 .7-21.8.7-32.6-1 10-.5 20.3-1 30.5-.5l9.5.6c-3.6-2-7.3-4-10.4-7z" opacity=".8"/>
        <path id="Shape" d="M890 20.6l7-1.6c2.2 8.3-5 15-6.5 22.8 2.4 4.8 9 7.7 13.7 4 4.4-3.3 8.5-7 13.3-9.8l.7-.4c7 6 14.3 11.8 19 19.7-6.6-.8-13-4-19.5-3.8-8.2 4.7-8.4 15.6-9.6 23.8l4 1h1c5.8.7 9.3 5.7 13.4 9.3-4-1.2-8.3-2.7-12.5-1.4l-.8-.2c-15.5-3.5-31.7-1-47-3v1l.3 1c.5 2.3.7 5 2 7 6.2 5.5 14 8 21.8 10.3l-1.5 2-.8-.3-11.7-4.8-.6-.3c-7.2-3.3-11.3-10-16.3-15.7l-1-1.2c-7.2 6.3-13.7 16-10 26l.4.7c3 3 6.8 5 10.4 7l-9.6-.6-.3-.7-2.4-6.8-.3-.7c-.2-1.2-1-2-1.8-2.8l-.7-.7c-1.7-5 1-10 2.6-14.6l.2-1c-.3-5.8-4.7-10.3-7.4-15.2l-.4-.8c.3-2.8.4-5.5 1-8.2-13.5 2.8-24.8 10.7-35 19 3.7-6.3 5.4-14.8 12.8-18 9.4-2.6 19.8-1 28.8-5.2 5-2.5 10.5-3.4 16-2.6h.8l9 .5h.8l7.2.7-.7-1.7-.2-.8c-4-6.2 1-12.8 2.8-18.8l.3-.8 11.5-6.2-3.3-6.4-.5-1M888 43.2c-1 3.4-2 6.7-2.6 10l12.7-1v-3c-3.4-2-6.6-4.2-10-6"/>
      </g>
      <g id="Group6">
        <g id="Group" opacity=".8">
          <path id="Shape" d="M1085 21l8-1c0 2.5 1 5.4-.5 7.7-2.7 4.6-5 9.4-6.8 14.5 3.3 2.3 6.2 6.3 10.8 5.3 7-2 12.2-8 19-10 8.7 2 13.7 10.6 18.4 17.4 2 2.5-.6 7.4-4 5.5-5.2-2.5-11-3.7-16.8-4.6l-6 6.2c2.3-2.6 4-5.8 7-8 6.2-.7 11.7 2.6 17 5.7l3-3c-4.6-5.5-8.4-12-14.3-16.2-2.5-2.5-6-1.3-8.5 0-9.5 4.7-18 11.2-28 14.4l9-4c-4-2.3-8-4.2-12.4-5.7.4 3.5 1 7 2.3 10.2l-3.5-3c.2-2.7.8-5.4 1-8 3.7 1 7.4 2.3 11 3.5-2-1.8-4.3-3.6-6.5-5.4 2-7.6 7-14 8.3-22-2.2.5-4.4 1-6.6 1.3l-.2 7c-3.8 3-8.3 5-10.8 9-2 4.4-3.4 8.8-5 13.3.5-4.7 1.8-9.3 3.3-13.7 2.5-4.7 7.6-6.8 12-9.2 0-2.5-.8-5-.5-7.4M1072 52c1.5.6 3 1.8 3 3.7-2 .7-4-2.2-3-3.8M1039 58c10.4-4 21.6 0 32 0-6 0-12-.4-18-.7-12-.7-22.8 6.8-35 3.8 7 0 14-.5 20.6-3M1073 58c-.3-1.5.4-2 2-1.6 0 1.2-.7 1.8-2 1.6M998 68c6.5-1 11.8-6 18.4-6.4-4.4 1.6-8.6 3.8-12.2 6.8-3.7 3.4-4.7 8.5-6.3 13 5-5.3 10-10.7 17-13.2-6.8 4.2-11.6 10.6-18 15 .5-5.2 2-10.4 4.8-14.8l-4-.5M1105 67c0-1.8 1-3.3 2-4.6 1.4 1.5 0 5-2 4.6M1016 68c6-1.8 12-2.8 18.2-3.8-1.4 7-2.2 14.2-3.3 21 .4-6.7.4-13.5 1.7-20-5.5 1.4-11 2.5-16.7 2.7M1105 77v-8.3l1.6 7.4c4.2 1 8.7.5 12.5 2.6 2.3 3 0 7.3.7 10.6l7.8 7c-3-1.6-5.8-3.4-8.3-5.6-1.2-3.6-.6-7.6-.8-11.4-4.5-.8-9-1.5-13.5-2M1052 80c9.5 2 19 4.3 29 4 6.2 0 12.5-1.3 18.8-1.2 6.5.8 11.7 5.5 17.4 8.3l-2.4 7.3 4-5c5.8 3.4 11.6 6.7 18 7.6-3-1.6-6.2-3-9.2-4.5 4 .7 8 1.6 12 2.5-1.3 1-2.5 2.3-4 3-6 0-11.2-3.8-16-6.8l-4.5 5.4-2.2-4.3 3-4.3c-5.5-2.7-10.5-7.5-17-8.2-9.4.7-19 2-28.6 1-5.7-1-11.3-2.4-17-3.7-.5 3.2-.6 6.4-1 9.6l-.3-10.6"/>
          <path id="Shape" d="M1110 81l6.3-2.2c0 3 .4 5.7 1 8.5-3.3-1-7.3-2.4-7.3-6.4m.7.8c1.8 1.5 3.6 3 5.6 4.4l-1-6-4.6 1.6M1041 83c5-1.4 6.4 5 7.4 8.6 1 8.8 7 15.5 11.5 22.8l7.4-.4c-3.4-2.4-7.4-4-10.3-7-3.6-4.3-5.2-10-5-15.6 1.7 6.2 3 14 9.3 17 4 1 6.4 4 8.7 7-9.6.8-19-1.2-28.7-1.8 5.5-1 11-1 16.6-.7-3-5-7-9-9-14.5-1.2-5.5-2.4-11.3-6-15.6-7 4.4-13.6 9.6-20.4 14.4 5-6 11.3-11.5 18.5-14.6"/>
          <path id="Shape" d="M1015 109c4.3-8 5.3-19.3 14.8-23.3-5.3 5.8-10 12.5-11.7 20.3-.8 4.4 3.4 7.5 6.4 10-1.2-3.5-3.7-6.6-4.4-10.3.8-2.6 1.8-5 3-7.5l-2 8.8c2.3 2.4 5 4.8 5.6 8.4-3.5 2.2-8-.2-11.6-1l5-1.6-5-3.8"/>
        </g>
        <path id="Shape" d="M1102 113c8.3-.8 16.3 2 24.5 2 5.7 0 11.6-.6 17 .8-12.4 2.3-25 2-37.5.2-9.2-.7-18.5 1-27.6-1l23.4-2" opacity=".8"/>
        <path id="Shape" d="M1086 22l6.6-1.2c-1.4 7.8-6.2 14.4-8.3 22l6.5 5.3c-3.7-1-7.3-2.3-11-3.4-.3 2.7-.8 5.4-1 8 1 1 2.3 2 3.5 3l1-.5c10.3-3 19-9.6 28-14.3 2.7-1.3 6-2.5 8.5 0 6 4.3 9.7 10.7 14.2 16.3l-3 2.8c-5-3-10.7-6.4-17-5.7-2.8 2.2-4.6 5.5-7 8l-.4.8c-1 1.3-2 3-2 4.6v1c-.2 2.7-.3 5.4-.2 8.2l13.5 2c0 4-.6 8 .7 11.5 2.5 2.3 5.4 4 8.3 5.8l.6.3c3 1.7 6.2 3 9.3 4.5-6.7-1-12.6-4.2-18-7.5-1.5 1.6-2.8 3.3-4.2 5l2.4-7.3c-5.7-2.8-11-7.5-17.4-8.3-6.3 0-12.6 1.2-19 1-9.7.5-19.2-2-28.8-3.8 0 2.7 0 8 .2 10.6v1.6c-.2 5.6 1.3 11.4 5 15.6 3 3 7 4.5 10.4 7-2 0-5.6.3-7.5.4-4.4-7.3-10.3-14-11.4-22.8-1-3.6-2.3-10-7.4-8.6-7.2 3.2-13.4 8.7-18.5 14.6l-.4.6c-1.2 2.4-2.2 5-3 7.5.8 3.8 3.2 7 4.5 10.4-3-2.4-7.2-5.6-6.3-10 1.7-7.8 6.4-14.5 11.7-20.3l1-1c1.2-7 2-14.3 3.4-21-6 1-12.3 2-18.2 3.7l-.8.3c-7 2.5-12.2 8-17 13.2 1.6-4.5 2.6-9.6 6.3-13 3.5-3 7.7-5.2 12-6.8h2.7c12 3 23-4.5 35-3.8 6 .3 12 .7 18 .6h1c1.3.2 2-.4 2-1.6v-1c0-1.7-1.5-3-3-3.7l-1.3-.8c1.6-4.4 3-9 5-13.2 2.5-4 7-6.3 10.8-9l.2-7m23.5 59c0 4 4 5.4 7 6.4-.4-2.8-.7-5.7-.8-8.5-1.6.4-4.7 1.5-6.3 2"/>
      </g>
      <g id="Group7">
        <g id="Group">
          <path id="Shape" d="M1283 20l8-1c.4 2.3 1 4.8 1.3 7.2l-.4-.8c-1-1.8-1.7-3.6-2.5-5.4l-5.6 1c.5 2.3 1.2 4.5 1.8 6.7-8.7 4-12 13.3-16 21l-.4.7c1.4-5.7 3.5-11.3 7-16.2 2.3-2.3 5.4-3.8 8.2-5.6-.6-2.5-1.4-5-1.7-7.7" opacity=".8"/>
          <path id="Shape" d="M1285 43c1-6 3-12 6.6-17-2 5.5-4 11-5.7 16.7 5 4 11.2 4 17.2 3.3 0-1.7.3-3.4.4-5 5.4-.5 10.8-2 16.2-1.8 6.6 4.6 11 11.8 15 18.6l-.5-.6c-4.8-5.6-9-12-15-16.4-4.3-.7-8.8 1-13 1.6-4.3 5.3-11.3 7-17 9.6 1-1 2.3-1.8 3.5-2.7l-11.5-3.5-1.4 7.3c2.4-.2 5.7-.4 8.4-.8-3 1-6.3 1.6-9.3 2.3l1.2-10 9 2.3-4.3-3.8M1270 49.6c1.7 2.7 3.2 5.6 4.5 8.5-15.3 3.7-30.8-2.3-46 .8 14.6-6 29.6 2 44-1.5-1-2.5-2-5-2.7-7.6M1314 53c3.5 1.2 7 2.7 10.3 4.4-3-.8-5.7-1.7-8.5-2.8l-6 3.6 4.2-5.2M1325 57c3.2 1.6 6.8 2 10.3 1.3l-3 3c-2.7-1-5-2.4-7.3-4.3M1225 60c.4-1.7 1.3-2 2.7-1-.8.8-1.7 1-2.7 1M1303 74c.4-6 1.5-12 6.5-16-3.2 5-5 10.5-6.5 16M1221 61c.3-1.8 1.2-2 2.7-1-.8.8-1.7 1-2.7 1M1194 70c6.6-5.4 15.2-7.2 23.6-7.7-8 2-15.8 4.8-23.6 7.7M1229 63c.5 0 1.4-.4 2-.6-1 4.5-2 9-2.8 13.4 0-4.3.6-8.6 1-12.8M1212 68.8c5.5-2.2 11-4.4 16.6-6-5 3-10.7 5.4-16.6 6M1204 71l7.2-2c-2.3 1-4.8 1.5-7.2 2M1188 73c1.5-1 3-2 4.5-2.8 0 .7-.3 2-.4 2.7 3.7-.4 7.3-.8 11-1.5-4.6 2.8-10 2.2-15 1.5M1302 77l.2-1.6c10.3 3.4 21 7 28.5 15-1.5-.8-3-1.4-4.5-2 2.6 3 5.5 5.7 8.4 8.3l-2.2-4.5c1.8 1.3 3.5 2.7 5.2 4.2-2 0-4.2 1.3-5.8-.3-4-3.3-7.5-7-11.6-10.2l.3-.5.8-1.4c-6.4-2.6-13-5-19.3-7M1216 87l12-10.3c-2.4 5-7.5 7.6-12 10.3M1243 80c4-3.2 9-.6 13.4.3-4.3-.3-9.4-2-13 1-4.5 4-8.8 8-13 12-4 3.6-4.3 9.5-5.4 14.4 1-4.7-.6-11 3.4-14.4 4.8-4.6 9.7-9 14.7-13.3M1260 81c10.3 3 21 2.7 31.4 1.4 6.2-2 8.4 5 11.6 8.5-2.4-3-5.3-5.3-8.3-7.3-5.2-1-10.6.6-15.8.5-6.6.5-12.8-1.4-19-3.3" opacity=".8"/>
          <path id="Shape" d="M1311 83c2.8.6 5.8 1.2 8.6 2l-8.7-1v-1M1226 86l3.3-1c-4 6.6-7.4 13.6-7.4 21.5-2.8-7 .3-14.7 5.5-19.7l-1.4-1M1203 96c4.6-2.5 8.5-6 12.7-9-6 6.8-13.7 12-22.4 14.7 6.6-1 13-3.2 18-7.5-3.5 5.7-10.3 8-16.6 8.7-1.6 0-4-.7-2.8-2.8 3.3-2 7.4-2.3 10.8-4.2M1218 88c2.3-1 4.6-1.8 7-2.5-2.4 1-4.7 1.7-7 2.5M1215 90c.4-1 1-1.6 2.2-1.8.2 1.8-.5 2.3-2.2 1.8M1212 94c1-1 1.8-1.8 3-2.6 1.3 1.6-1.5 4.2-3 2.6M1193 112l14.3 1-2.3 5.3c-1-1.4-2.2-2.7-3.3-4-2.8 0-4.8.2-7.4.4-.5-1-1-1.8-1.3-2.7" opacity=".8"/>
          <path id="Shape" d="M1327 88l4.5 2c.7.6 1.2 1.2 1.7 2l2.2 4.4c-3-2.6-5.8-5.4-8.4-8.4M1309 100c5.4 4.6 11.8 8.7 14.8 15.4-6.4-3-10-9.4-14.3-14.8l-.5-.6M1275 114c1-1 3-1 4 0 0 1.7-4 1.7-4 0"/>
        </g>
        <path id="Shape" d="M1302 82l8 1c-1.7 0-5 .3-6.8.5 4.3 8.8 9 18 16.8 24.3 2.8 2.2 5.4 4.8 8 7.3-15 1.2-30-.3-45 1.2-21 1-41.8.4-63 .3-4.5 0-9-1-13-3 5-.6 9.7-.7 14.5-1-.6-1-1-2.2-1.6-3.3.3-.3 1.2-.8 1.7-1 .2 1.8.5 3.7 1 5.6l-10.3 1c18.6.5 37 2 56 0-11-.6-21.8-.3-32.6-1-4.8.4-8-3-11.7-5.4l11 1-6 2.2c29.5 3.7 59 .3 89 1.6-3.4-3.6-6-7.7-8-12.3 4 5.3 7.8 11.6 14.2 14.7-3-6.7-9.4-10.8-14.8-15.4-2.5-2.5-4.4-5.5-6.3-8.5 2 2.4 4.3 4.7 6.5 7-2.7-5.5-5.4-11-7.4-16.7m-27 32.5c0 1.7 4 1.7 4 0-1-1-3-1-4 0" opacity=".8"/>
        <path id="Shape" d="M1284 21l5.6-1c.7 1.7 1.5 3.6 2.4 5.3l-.5.8c-3.5 5.2-5.6 11-6.6 17 1.3 1.4 2.8 2.6 4.2 4l-9-2.3c-.4 3.3-.8 6.6-1 10 3-.8 6.2-1.4 9.2-2.4l.7-.3c6-2.7 13-4.3 17-9.6 4.4-.6 9-2.3 13.3-1.6 6 4.5 10 10.8 15 16.4l.8 1.2c-3.4.8-7 .3-10.2-1.3l-.6-.2c-3.3-1.7-6.8-3.2-10.3-4.4l-4.4 5.2-.5.6c-5 4-6 10-6.4 16v.8l-.2 1.6c6.5 2.3 13 4.5 19.3 7l-.8 1.4-1.2-.3-8.6-2h-.8l-8-.8c2 5.6 4.6 11 7.4 16.5-2.2-2.2-4.4-4.5-6.4-7l-.4-.5c-3-3.5-5.4-10.4-11.6-8.5-10.5 1.3-21 1.4-31.4-1.4l-3.8-1c-4.4-1-9.5-3.6-13.4-.4-5 4.3-10 8.8-14.7 13.3-4 3.5-2.3 9.7-3.3 14.3v1c3.5 2.3 7 5.7 11.7 5.2 10.8.8 21.6.5 32.5 1-18.7 2.2-37 .6-56 .2l10.2-1-1-5.8V106c0-8 3.4-15 7.4-21.5l-3.3 1-.8.3c-2.3.7-4.6 1.6-7 2.5l-.6.3c-1 .2-1.8.8-2.3 1.8l-.5.5-3 2.7-.4.4c-5 4.4-11.6 6.7-18 7.6 8.7-2.8 16.3-8 22.4-14.7l.5-.5c4.5-2.7 9.6-5.2 12-10.3v-.8c1-4.5 2-9 2.8-13.4-.5 0-1.4.4-2 .6l-.8.3c-5.7 1.5-11.2 3.7-16.6 6h-.6c-2.4 1-4.8 1.5-7.2 2.2l-.7.2c-3.6.6-7.2 1-10.8 1.4 0-.7.3-2 .4-2.7l1-.2c7.8-3 15.6-5.6 23.6-7.7l4-.6c1 0 2-.3 2.8-1h1c1 0 2-.3 2.7-1l1-.5c15.3-3.2 30.8 2.8 46-.8-1.5-3-3-5.8-4.6-8.5l-.4-.7c4-8 7.4-17 16-21l-2-6.6"/>
      </g>
      <g id="Group8">
        <g id="Shape-+-Shape-+-Shape">
          <path id="Shape" d="M1473 20.8c3-.8 5.5-1.5 8.6-2 1 7.6-3 14.3-5.6 21.2 3.2 2.2 6 5 9.8 6.5 4 .8 7.7-.5 11.4-1.6l-2-4.4c4.8 0 9.6-.8 14.3-1.8 4-.2 6.2 4 8.8 6.2 3 4.4 8 8.2 9 13.8-1 .7-1.8 2.3-3 2-4.4-1-8.2-3.3-12.5-4.4l-.3-3c-5.4 2.2-9.4 6.7-12.5 11.4-2.4 3.4-.6 8-1 11.7 6 4.2 12 8.8 18.3 12.4 5.4 3 11.7 3 17.6 4-4 4.5-10.4 2.4-15 .4-6.4-3-13-5.6-19-9.4 4.4 1.5 8.8 3.3 13.2 5-5-3.6-10.4-7-15-11.2-5.4-8.6.5-20 9-23.8 7-1 12.5 5.2 19.5 5-3.7-6-7.8-11.8-13-16.7-5-3.2-11.3-.8-17-1l1.8 3.6c-9.5 2.7-17.7 9.6-28 9.6 5.3-1 10.3-3 15-5.4l-14.4-5-2 10.6c.2-3.8.4-7.6.8-11.4l12 2.7c-2.3-2-4.6-4-6.5-6.4.5-7.2 6-13.3 5.3-21-1.8 1-3.7 1.8-5.2 3-.4 2 0 4.2 0 6.3-7 4.8-12.2 12.4-13 21 .4 3 2 5.8 3 8.7-12 1-24-.8-36-1-7.7-.7-14.2 4-21.5 5.2-4.6.8-9.3.8-13.8 1 12.7.3 23.5-7.5 36-7.7 11.4.5 22.8 2.3 34 1.4-1.3-3-4.5-5.7-3.2-9l3-9.3c2-5 6.3-8.6 10.7-11.4l-1.8-6.6m47 72l11 .8-11-1" opacity=".8"/>
          <path id="Shape" d="M1403 68.8c7.8-2.5 14.5-7.6 22-10.6-2 5.6-3.8 11.3-5.2 17-1.4 4.6-7.4 5-10.8 7.2-8 4-15.6 8.8-24.4 10.6 10.7-.3 19.6-7.2 30-8.6-4.8 9-11.7 16.6-19 23.6 9.6-4.6 14.3-14.8 22.6-21 7.4-5.8 16.3-12.8 26.4-9 11.2 3.5 22.8 5.6 34.6 5.5V85c-9.7-.8-19.6-.7-28.8-4.2-5.4-2-11.6-4.2-17-1.7-10 5-19 12-25.8 21-3.4 4.5-8 9.3-14 8.2 3-4.2 7.2-7 10.7-10.6 3.2-4 6-8.3 9-12.5-10.4 3-19.4 10.6-30.8 8.5 1.5-1.7 3.3-3.4 5.7-3.4 9.3-.7 15.8-8.7 24.7-11 2.4-1 5.8-2 6.3-5 .8-5 2-10.3 4.6-15-10.3 6.5-21 13.8-33.7 11.8-4 .3-6.8-3-8.7-6 3.5-1 7.2-1.8 11-1.6-3.4.8-6.5 2-9.5 3.5 6 3.7 13.6 4.2 20 2" opacity=".8"/>
          <path id="Shape" d="M1520 93c3.7.3 7.5.5 11.2 1l-11.2-1"/>
        </g>
        <path id="Shape" d="M1490 82c3 .7 6.3 1.3 9.4 2.2l-8.4-.6c-.2 7.8-1.6 15.8.8 23.4 5.7 6.5 15 7 23 6-7.8 1.4-15.5 3.4-23.5 2.8-25-1-50-1.8-76-1-4.8 0-9.7 0-14.3-1.5 29-.6 58-.3 87-.8-1.2-8-2-16-3.2-24 0-2.5-3-3.4-5-4.4l5.3.2c1.4 10 3 19.7 5 29.5l8.6.6c-3-2.2-6-4.2-9-6.2-1-8.5-.3-17.2 0-26" opacity=".8"/>
        <path id="Shape" d="M1475 22c1.6-1.4 3.4-2 5.2-3 .7 7.4-4.8 13.5-5.3 20.8 1.8 2.4 4 4.4 6.4 6.5-4-1-8-2-12-2.7-.4 3.8-.6 7.6-.7 11.4l1.4-.2c10.4 0 18.5-7 28-9.7l-1.7-3.6c5.7.3 12-2 17 1 5 5 9 11 13 17-7 0-12.6-6-19.6-5.2-8.5 4-14.4 15.2-9 23.8 4.6 4.2 10 7.6 15 11.2-4.4-1.8-8.8-3.5-13.2-5l-.7-.2c-3-1-6.3-1.5-9.4-2.2-.4 8.6-1 17.3 0 26 3 2 6 4 9 6.2l-8.8-.6c-2-9.8-3.5-19.6-4.8-29.5-1.8-.2-3.5-.2-5.2-.2h-1c-11.7 0-23.3-2-34.5-5.5-10-3.7-19 3.2-26.3 9-8.3 6.2-13 16.4-22.6 21 7.6-7 14.5-14.5 19-23.6-10.4 1.4-19.2 8.3-30 8.6 9-2 16.5-6.7 24.5-10.6 3.5-2.2 9.5-2.5 10.8-7.2 1.4-5.8 3.2-11.4 5.2-17-7.6 3-14.3 8-22 10.6-6.6 2.5-14 2-20-1.8 3-1.4 6-2.7 9.4-3.5h1.4c4.6-.2 9.2-.2 13.7-1.2 7.4-1.2 14-6 21.6-5 12 0 24 1.8 36 .8-1-3-2.6-5.7-3-8.8.8-8.7 6-16.3 13-21 0-2-.4-4 0-6.2"/>
      </g>
      <g id="Group9">
        <g id="Group">
          <path id="Shape" d="M1665 20.7c2.3-.7 4.6-1.6 7-1.6 1.7 1.6 3.8 4 2.6 6.4-2.3 4.8-4.2 10-4 15.4 3 4.2 8.5 6.4 13.5 6 4-.4 4.8-4.7 7-7 5-1 11.5-3.6 16 .4 5 4.3 9.2 9.6 13.3 14.7 2 2-.5 5.6-3 4.6-6-1.8-12.5-2.4-18.8-2.7-3.6 6.4-8 12.4-11.4 19 1.6-8.2 7-15 12-21 6.5-2 13 1.6 19 3.7.5-.8 1.2-1.6 2-2.3-5.5-5.3-9.5-12.3-16-16.3-4.2-1-10.4-1.5-13.2 2.6-3.2 4.6-9 5.7-13.6 8.4-4.6 2.8-10.2 3-15.3 4 .4-4 1-7.8 2.3-11.7l12 3.8-7.2-4.7c.5-5.7 1.6-11.3 3.6-16.6 1.2-2.8-1.5-5-2.6-7.3-2.5 3-3.4 7-3.5 11-4 3.8-9.7 7.2-9.8 13.5-1.4 5-.2 10.3 1.3 15.3-4.4 0-8.7 0-13-.3l12.2-1-4-6c1.5-4.5 2-9 3.5-13.4 2-4.4 6.6-6.7 10.3-9.6l-2.3-7.2m.3 24c-.8 3-2 6-2.5 9 5-.5 11-.4 14.7-4.2-4-2-8-3.4-12.2-4.7m36 10.3c-.3 1.8 3.3 1.8 3 0-.6-1-2.5-1-3 0M1599 61.7c13.6-7.7 30.6-9 45-4-10.8-.8-22-3-32.5 0-4.8 1.4-9.2 4-14 5.2-6.5.7-13 .4-19.4-1.2 3.5 3 6.8 6.2 11 8 10.2 1 17.8-7.4 26.7-11l-.3 1c-8.5 5-17 12.7-27.5 11-4.6-1.8-8-5.5-11.7-8.6 1-1.2 2-2.3 2.8-3.5l4 3.6c5-1 10.4.4 15.5-.5" opacity=".8"/>
          <path id="Shape" d="M1610 77c3-5 3-11 5.4-16.2-.8 5-1.3 10-1.8 15-1.2.3-2.4.7-3.5 1.2M1591 89c6.8-2.3 7.5-11.7 14.6-13.6-3.8 4.3-6.6 9.5-11 13-4.5 2.8-9.7 4-14.4 6.5 10 2.8 18-5.3 26.8-8.2-4.8 3-9.7 6-14.7 8.5-4.4 2.4-9.6.3-14-.4 3.7-3 8.3-4.6 12.8-6M1606 77l2.6 1c-1 .7-2.7.5-2.6-1M1621 83c4.3-2.2 8.2-5.5 13.3-5.6 7 .2 13 4.4 19.4 6.8-7.2-.4-13-5.8-20.4-5.8-4.3 1.3-8 4-12.3 4.6M1687 77c9 11 17.4 24.3 32 28.8-1 1.6-1.7 3.2-2.4 4.8-14.8-4.8-21-21.7-36-26.4-3 0-6 1.4-8 3.7-5.3 5.8-9.3 12.8-13.7 19.4l.8-5.5-4 5.3c3-7.3 7-14 11-20.6l-6 14.5c3.8-5.2 7.3-10.7 12-15.2 3.4-3.3 9-4 13-1 10.7 6.6 18.2 17.3 28.7 24.3l3-2.3c-13.5-5.8-24.5-17-30.6-30" opacity=".8"/>
          <path id="Shape" d="M1601 82h4v3h-4v-3M1608 87c4-1.4 8-2.4 12.3-3.5L1608 87M1654 84l13.2 1.5c-4.7-.4-9.4-1-14-1.6h.8" opacity=".8"/>
          <path id="Shape" d="M1656 107l4-5.4-1 5.5v1.3c3.5 2.5 7.2 4.8 11 7-2-.2-6.2-.3-8.4-.4-1.7-2.8-3.8-5.2-6-7.4l.4-.6"/>
        </g>
        <path id="Shape" d="M1623 115c3.6-1.4 7.7-1.8 11.4-.5-3.8 1-7.6 1.4-11.4.5zm-16-2c5.2 0 10.2.7 15.4 1-5.2 0-10.8 2-15.4-1zm48-6l.6.6c2.3 2.2 4.4 4.6 6 7.3 2.2 0 6.4 0 8.6.2-3.8-2.2-7.6-4.4-11.2-7 3 1.5 5.8 4 9.3 4.3 16.7 1 33.7-1.3 50 2-9.4 1.4-19 .8-28 1-18.2-1.4-36.7 3.8-54.6-1.4 7.8-1.8 15.8-.4 23.7-.2-1.5-2.2-3-4.4-4.3-6.7z" opacity=".8"/>
        <path id="Shape" d="M1666 29c0-4 1-7.8 3.5-11 1 2.3 3.8 4.6 2.6 7.3-2 5.3-3 11-3.4 16.6 2.4 1.5 4.8 3 7 4.7L1664 43c-1.2 3.7-2 7.7-2.4 11.7 5-1 10.7-1.3 15.3-4 4.6-2.8 10.4-4 13.6-8.5 2.8-4 9-3.7 13.2-2.5 6.5 4 10.5 11 16 16.3l-2 2.3c-6-2-12.5-5.7-19-3.8-5.3 6-10.5 13-12 21l.4 1c6 13.2 17 24 30.4 30l-3 2.3c-10.5-7-18-17.7-28.7-24.3-4-3-9.6-2.3-13 1-4.6 4.6-8 10-12 15.2l6-14.5.5-1c-4.4-.7-9-1-13.2-1.6l-1-.2c-6.3-2.4-12.3-6.6-19.3-6.8-5 0-9 3.3-13.3 5.6l-.7.2c-4.2 1-8.3 2-12.3 3.5l-.7.2c-9 3-16.8 11-26.8 8 4.5-2.4 9.8-3.6 14.3-6.4 4.5-3.6 7.3-8.8 11-13l.5 1.7c0 1.5 1.7 1.7 2.6 1l1.2-.6 3.5-1.4c.6-5 1.2-10 2-15v-1.2l.4-1c-9 3.6-16.5 11.8-26.7 11-4.2-1.8-7.4-5.2-11-8 6.4 1.5 13 2 19.5 1 4.8-1.3 9.2-3.8 14-5.2 10.6-3 21.7-.8 32.5 0h.8c4.3.4 8.6.4 13 .4-1.5-5-2.8-10.2-1.3-15.4 0-6.3 5.8-9.7 9.8-13.5m-65 52.7v3h4v-3h-4"/>
      </g>
      <g id="Group10">
        <g id="Group">
          <path id="Shape" d="M1859 24.4c2.6-2.2 5.5-3.6 9-4.3 3 8.2-2.2 15.5-3.6 23 2.5 2 5 4 7.5 6.2-3.2-1.5-6.3-3-9.3-4.6 1-8 6.7-15 4.7-23l-7.2 2.5-1 .5" opacity=".8"/>
          <path id="Shape" d="M1861 25.4l2 6c-2.6 2-5.2 4-7.7 6.2 2-2.6 4.4-5 6.6-7.6-.4-1.6-.8-3-1-4.7M1892 37c8.4 3 14.2 10 20.7 16-.3 1.8-1 3.5-1.6 5.3l-10-3c3.8.7 7.8.7 11.6-.5-6.4-5-11.3-12.5-19-15.4-7.7 1.6-12 11.3-20.6 10 2.8-.7 5.8-1.4 7.8-3.6 3.3-3.5 8-5.3 11.3-8.8M1853 41.8c-1.8-1-.3-4.5 1.7-3.6-.5 1.2-1 2.4-1.7 3.6M1850 55c.8-4.2 1.5-8.5 2.7-12.6-.7 4.7-1 9.4-1.3 14h-2.8l1.4-1.5M1860 46.6c3.2 1.3 6.2 2.7 9.4 4.2l-8.2-2.4-2.8 2.8-.3.3 2-5M1872 51c.2 1 .3 2 .7 2.8-3.7 1-7.5 1.5-11 2.2l-1.4-4.5c3.3 3.8 8.7 2.8 12-.6M1892 55l2-2.4c1.8 1 4.4 1.8 6.5 2.6-3 1.3-6.3 2.3-9.5 3.2-6 8.5-10 18-15.5 27-2 5.4-2.4 11.4-3.5 17v-.5c-.2-6.7.3-13.6 3.6-19.5 5.3-9 9.5-18.5 15.8-26.8 2.3-.6 4.6-1 7-1.8-2.3.2-4.4.5-6.4 1M1820 55.8c6.3-.7 13-1.8 19 1.4-6-1-12.2-1.2-18-1.4h-.8M1847 55l2.2 1.8c-1.4.6-2.8 1.2-4.2 1.5l2-3.3M1800 60c6.2-2 12.6-3.7 19-4.3-12 3.5-24.5 8.4-37 5.3 6 0 12.2.7 18-1M1840 58c1-1.4 4.2-1 4 1-1.4.3-2.8-.5-4-1" opacity=".8"/>
          <path id="Shape" d="M1779 60h2l.4 1c2 3.8 3.6 9 8 10.6 9-.5 16-6.6 23-11 0 5.6 1 11.2 2.8 16.6l-.8-.2c-2.7-4.5-2.7-10-2.6-15-6.8 5.7-15 11.2-24 10.6-4-3-6-8.3-8.6-12.6M1801 77c2.4-1.3 5-1.3 7.6-.7h-1l-6.6.6M1830 79c4-1.5 8 0 11.5 2.2-4-1.2-8.5-2.3-12.5-.4-5.5 2.6-11.8 2.7-17.8 3.2 2.2 5.4 4 12-.5 16.8-3.7 0-2-4.4-2-6.7 2-4.5-1.4-8.2-3-12.2l-7.2 6c1.5-2.2 3-4.5 4.3-6.8 2.8 2 5.6 4 8.2 6.3l-1-4.2c6.7-.7 13.5-2 20-4.3M1812 89c-1 3.5-2 6.8-2.6 10.3 2.5-2.8 3.7-6.5 2.5-10.2M1797 89l4-10c-1 3.4-2.4 6.8-4 10M1842 82c6.3 1.7 13 2 19.4 3-2.3 6-3 14.5-10 16.7 4.8-4 6.8-10 9-16-6-1-13 0-18-3.7M1785 95c2.2-4.2 6.7-5.4 11-6-2.8 2-5.8 3.4-8.7 5 3.3-.4 6.6-1 10-1.3-4 1.4-8 3-12.3 2.3M1797 92c-.5-1.2.2-2.3 1-3.2 1.3.7.6 3.5-1 3.2M1860 96c2-3.3 5-5.8 8.4-8l.8 5.7v.7l-1.7-4.4-7.5 6M1856 103c1.2-2.2 2.4-4.3 3.8-6.3-.6 2.5-1.8 4.7-3.8 6.3M1833 104c2.2-2.5 5.2-4 8.3-2-2 0-4 .5-6 .8 1.4.6 2.7 1 4 1.7l-6.3-.5M1842 101h9-9M1851 102c1-.4 2.3-.8 3.4 0 0 1.6-3 1.5-3.4 0" opacity=".8"/>
          <path id="Shape" d="M1840 104c3.4-.5 6.5-1 10-1.7-3.6 1.2-7.2 2-11 1.8h1" opacity=".8"/>
          <path id="Shape" d="M1812 90c1.2 3.7 0 7.4-2.5 10.2.7-3.4 1.5-6.8 2.5-10.2M1814 116c10.2-.5 20.5-1.4 30.7-1-10 2.2-20.5 2.4-30.7 1M1810 115c1.4-2.2 3.2 2 .6 1.3 0-.3-.4-1-.6-1.3"/>
        </g>
        <path id="Shape" d="M1869 95c1.2 6.7 2.5 13.5 3.2 20.3-8.3 0-16.6-.3-25 0 22 1.4 44 4.2 66-.3-10 0-20.5 1.5-30.6-.6-5.4-1.2-11-4.8-10.5-11 1.2 6 7.3 7.3 11.4 10.6 11.4.5 23-1.3 34 .6-14.4 5.8-30 3-45 3.4-26-1-52 2.7-78-3 25.5-.6 51-1.6 76-1.6-.7-6-1.3-12.3-1.6-18.4m-56 21c10.2 1.4 20.7 1.2 30.7-1-10.2-.4-20.5.5-30.7 1m-4-.4c0 .3.3 1 .5 1.3 2.6.5.8-3.6-.6-1.4" opacity=".8"/>
        <path id="Shape" d="M1861 24l7.2-2.5c2 8.2-3.7 15.4-4.7 23l9.2 4.6 1 .5c8.6 1.2 12.8-8.4 20.5-10 7.8 2.8 12.7 10.4 19 15.4-3.8 1-7.8 1-11.7.4h-.4c-2-1-4.7-1.8-6.5-2.7l-2 2.4-.5.8c-6.3 8.3-10.5 18-15.8 26.8-3.3 6-3.8 12.8-3.6 19.4v.8c-.5 6.2 5 9.8 10.5 11 10 2 20.6.5 30.8.6-21.7 4.5-44 1.7-66 .3 8.3-.3 16.6 0 25 0-.8-6.8-2-13.5-3.3-20.3v-1l-.8-5.5c-3.3 2-6.3 4.5-8.4 7.8l-.4.5c-1.5 2-2.7 4.2-4 6.3l-1-.5c-1-.6-2.4-.2-3.4.2l-1 .3-10 1.7-.8-.4-4-1.7 6-.8h9.8c7.3-2 7.8-10.7 10-16.7-6.5-1-13-1.2-19.4-3l-.7-.2c-3.4-2.2-7.6-3.6-11.5-2.2-6.4 2.5-13.2 3.6-20 4.5l1 4.2c-2.5-2.2-5.3-4.4-8-6.3l-4.4 6.8-.4.6c-.8.8-1.5 2-1 3.2l.4 1.2-10 1.4c3-1.7 6-3.2 8.7-5.2l.4-.6c1.6-3.2 3-6.6 4-10l.5-1.2 6.6-.6c2 0 4.3 0 6.5.3l.8.2c-1.6-5.4-2.6-11-2.6-16.6-7.2 4.4-14.4 10.5-23 11-4.5-1.7-6-7-8-10.8l1.2.3c12.7 3 25-1.8 37-5.3l1-.2c6 .2 12 .3 18 1.4l1 .4c1.2.5 2.6 1.3 4 1l1-.3c1.6-.4 3-1 4.3-1.5h2.6c.4-4.7.7-9.4 1.3-14l.2-.8c.6-1 1.2-2.3 1.7-3.6l.2-.7c2.5-2.2 5-4.3 7.7-6.2-.8-2-1.4-4-2-6l-.6-1.4m0 22.6c-.8 1.7-1.4 3.3-2 5l.3-.3.8.6 1.4 4.5c3.6-.7 7.3-1.3 11-2.2-.4-1-.6-2-.8-2.8l-1.7-.5c-3-1.5-6.2-3-9.4-4.2"/>
      </g>
      <g id="Group11">
        <g id="Group">
          <path id="Shape" d="M2057 18.6c2 .4 7.3.3 7.4 3.8 1.8 4.2-1.8 7-3.8 9.8 1-3 2.4-5.8 3-9-1.3-2-3.7-3-5.6-4l-1-.6" opacity=".8"/>
          <path id="Shape" d="M2054 23c1-1.5 2-3 3.2-4.5l-.4 8.7c-1-1.4-2-2.8-2.8-4.2M2045 50c-1.2-9.3 4-17.7 12-22.5-2.7 4-6.4 7.4-8.8 11.6-1.5 3.6-2.6 7.2-3.2 11M2058 44.5l3-11c0 3.3-.5 6.5-1.2 9.7 3 2 6.4 4 9.7 6-4-1.4-7.8-3-11.5-4.7M2070 48c2-7.6 9.3-13.7 17.4-12.7 6.5 2.8 11.8 8.2 16.8 13.4 2.5 2 0 6.4-2.8 5.7-2.2-.3-4.3-1.2-6.3-2 3.5.4 7 0 10-.7-5.8-5.7-11.5-12.6-19.3-15.5-7 0-11.4 7-15.7 12M2054 46.6l8.8 2.5c0 1.5 0 2.8.2 4.2h-10.4c.5-2.2 1-4.4 1.3-6.6m1 1c-.4 1.6-1 3.2-1.3 4.8 3 .2 6 0 9-.5-2.4-1.7-5-3-7.6-4.4" opacity=".8"/>
          <path id="Shape" d="M2085 51l9 1.8c-4.4 1.8-8.6 3.4-12.5 5.8l3.5-7.7m-.8 2.8c2.4-.4 4.8-1 7-1.8-2.4.3-4.8.8-7 1.8M2045 52v2.8c-2.8.6-5.6 1.2-8.4 1.3 3-1 5.7-2.4 8.4-4M2011 57c7-5.5 16.6-4.2 24.3-1-8-1.8-16.6-2.5-24.3 1M2005 58l5-.8c-11 5-23.7 1.4-35.4 3.5 1.3 5.4 3.2 11.7 9.5 12.8l1 .3-8-1c-.8-3.2-2.7-5.7-5-8l2.6-.2-2-4c10.3-5 21.7.3 32-2.5M2073 78c2-6.6 5.2-12.7 8.5-18.7-1.7 6.7-5.2 12.7-8.5 18.7M2004 64c1-1.6 4-3.3 3.6-.2-.6 1.3-3 1.4-3.6 0M2011 77c-3-3.3-5.8-7-3.8-12 0 5 2.8 9 5 13l-10.5 3c2.4 3 5 5.6 7 8.6 2.7 3.6 3 8 3.8 12.2 0-4-.2-8-.3-11.8l6 2c-1.7 0-3.3-.2-5-.3 0 3.8.3 7.6.5 11.4l-4.5-2.3c.4-2.7 1.6-5.8-.2-8.4-3-4.2-6.7-7.7-9.8-11.8 3.8-1.3 7.7-2.4 11.7-3.5" opacity=".8"/>
          <path id="Shape" d="M1985 73c4.7-2.8 10-4.7 15-7-4.2 4-9.6 5.8-15 7M2018 87c2.7-3 4.8-7 8.6-9 5.2-.5 10.2 1.6 15 3.4-4.8-.7-9.4-2-14-2.8-3 3-6.3 5.6-9.5 8.3M2066 83l6.2-4.5-1.5 4-4.7.5M2008 82h8c-.7 3.6-3.4 5.6-6.6 6.8l-1.4-7m1 1l1.4 4.6 4.5-4-6-.4M2017 88c3.5 1.4 7 3 10.3 4.6-3.5-1.4-7-3-10.3-4.6M2051 92c2.8-1.6 5.8-3.2 8.7-4.6.5 3.4.7 6.7 1.2 10-3.5-.3-6.8-1-10-1.5v-4m.3 2.6c3 .5 5.5 1 8.7 1.4l-1.5-7.4-7.2 6M2019 92c4.6 2 8.4 5.6 11.7 9.4-1-2.7-1.8-5.3-2.6-8 2 2.7 3.3 5.7 4.5 8.8h-4c-2.3-4.2-6-7-9.5-10" opacity=".8"/>
          <path id="Shape" d="M2049 114c1-1.5 4-.2 3 1.5-1 1.5-4 .2-3-1.5"/>
        </g>
        <path id="Shape" d="M2042 82c4.4.8 8.7 1.2 13 1.8-6.4 10-15 18.6-20 29.4-2.5 1-5 1.8-7.6 2.7 4.4 0 8.7.2 13 .4-.8-2.6-2-5.2-2-8 2-4.4 6.2-7.5 9.5-11l14.3 1.4 1.3-13.6 1.8-1c-1 5.2-1.6 10.6-2.4 16l-13.3-1.4c-4.6 2.5-7.7 6.8-11.2 10.5 1 1.5 2.2 3 3.2 4.8 16.7-.5 34-2.8 50 .4-15 1-29.8.8-44.6 2.3-18.7.8-37.5-.7-56-2 14-3 28 .6 42-1.6 2.5-6.6 6.7-12.2 11.8-17-.5-1.2-1-2.3-1.3-3.5 3.8-1.5 7-4 9.3-7.4-4-.6-7.8-1.5-11.5-3m6.7 32c-1 1.7 2 3 3 1.5 1-1.7-2-3-3-1.5" opacity=".8"/>
        <path id="Shape" d="M2057 18.5l1.2.6c2 1.2 4.4 2 5.5 4.2-.5 3-2 6-3 9l-.3 1.3-3 11c3.8 1.7 7.6 3.3 11.5 4.6l.6-.6c4.2-4.8 8.5-11.8 15.7-12 7.8 3 13.5 10 19.4 15.6-3.3.8-6.7 1-10 .8h-.6c-3-.5-6-1.2-8.8-2-1 2.7-2.3 5.2-3.5 7.8l-.4.8c-3.3 6-6.7 12-8.5 18.7l-.3 1c-2 1.6-4 3.2-6.2 4.6l-.7.5c-.4.4-1.3 1-1.8 1.2-.5 4.5-1 9-1.3 13.6l-14.4-1.4c-3.2 3.6-7.3 6.6-9.4 11 0 2.8 1.2 5.4 2 8l-13-.5 7.6-2.8c5-10.8 13.5-19.5 20-29.4-4.4-.6-8.7-1-13-1.8l-.7-.2c-4.8-1.8-9.8-4-15-3.4-3.8 2-6 6-8.6 9l-.8 1c3.3 1.7 6.8 3.3 10.3 4.6l1 .4 2.6 8c-3.2-3.8-7-7.3-11.6-9.4l-.7-.3-6-2c0 4 .2 8 .3 11.8-1-4-1.2-8.7-3.7-12.2-2.2-3-4.8-5.7-7-8.5l10.5-3.2c-2.3-4-5-8-5-12.8V64c.2-3-2.7-1.5-3.7 0-1 1-2 1.8-3.2 2.3-5 2.2-10.2 4-15 7l-1 .5c-6.3-1-8.2-7.4-9.5-12.8 11.8-2 24.3 1.6 35.5-3.5l.7-.3c7.7-3.5 16.2-2.7 24.3-1l1 .2c2.7 0 5.5-.8 8.3-1.3v-2.7c0-.4 0-1.3.2-1.8.6-3.8 1.7-7.4 3.2-11 2.4-4 6-7.4 8.7-11.5v-.8l.5-8.7m-3 28l-1.2 6.6c3.4.2 7 0 10.4 0 0-1.3 0-2.6-.2-4-3-1-6-1.8-8.8-2.5m-46 35l1.4 7c3.3-1.2 6-3.3 6.8-6.8l-8-.2m43 10c0 1.3-.2 2.6 0 4l10 1.4c-.6-3.5-.8-6.8-1.3-10-3 1.4-6 3-8.7 4.5"/>
      </g>
    </g>
  </g>
</svg>
