<?xml version="1.0" encoding="UTF-8" standalone="no"?>
<svg width="1500px" height="375px" viewBox="0 0 1500 375" version="1.1" xmlns="http://www.w3.org/2000/svg" xmlns:xlink="http://www.w3.org/1999/xlink" xmlns:sketch="http://www.bohemiancoding.com/sketch/ns">
    <!-- Generator: Sketch 3.3.2 (12043) - http://www.bohemiancoding.com/sketch -->
    <title>sprite-shapes</title>
    <desc>Created with Sketch.</desc>
    <defs></defs>
    <g id="Page-1" stroke="none" stroke-width="1" fill="none" fill-rule="evenodd" sketch:type="MSPage">
        <g id="sprite-shapes" sketch:type="MSArtboardGroup" fill="#111111">
            <g id="gr-run" sketch:type="MSLayerGroup" transform="translate(31.000000, 22.000000)">
                <path d="M419,0.7 C421.6,1.2 424.4,1.8 427.1,2.4 C428.1,7.4 425.8,11.7 423.4,15.8 C422.3,20.8 422.6,26 421.6,31.1 C423.3,37.9 434.2,37.2 434.6,44.8 C435.9,51.5 428.7,55.6 426.1,61.1 C422.6,64.8 426.2,69.6 428.1,73.1 C424.5,71.4 420.8,69.8 417.2,68.1 C420.8,61.6 422.9,54.3 426.8,48.1 C422,47.9 417.2,47.5 412.4,47.2 C405.9,56.3 397.6,64 391.4,73.2 C387.7,76.5 389.5,81.3 389.7,85.5 C387.1,83.1 384.6,80.7 382.1,78.3 C386.2,73 387.9,66.3 392.5,61.3 C400.4,52.1 405.1,39.5 403.3,27.3 C405.7,20.6 411.9,15.9 415.7,10.1 C416.9,7 418.1,4 419.2,0.9" id="Shape4" sketch:type="MSShapeGroup"></path>
                <path d="M545,1.3 C549,1 553.6,5.3 551.3,9.6 C550.2,12.8 546.7,15.3 547.5,19 C548.3,24 548.8,29.5 552.5,33.3 C555.3,37.3 560.5,36.7 564.8,37.2 C564.3,39 563.8,40.8 563.4,42.6 C556.2,40.5 549.6,37 543.4,33.4 C543.3,34.5 543.3,35.5 543.2,36.6 C548.4,39.3 555.1,40.6 559.1,45.1 C560.8,52.6 558.2,60.4 557.9,68 C560.3,69 562.8,70 565.3,71 C561.6,72.1 557.9,73.1 554.3,74.1 C553.5,65.8 551.8,57.3 553.8,49.1 C547.5,49 540.9,47.5 534.8,48.7 C522.1,57.7 507.8,66.1 500,80.2 C498.2,71.4 504.2,64.4 509.9,58.7 C515.8,55.3 520.2,50.1 523.9,44.5 C517.4,39 524.6,30 524.9,23.5 C529.7,18.6 535.9,15.4 541.4,11.5 C541.7,8 541.1,2.6 545.5,1.5 M526.1,39 C531.9,36.3 531.4,30 530.9,24.5 C528,28.8 526.9,33.9 526.1,39" id="Shape5" sketch:type="MSShapeGroup"></path>
                <path d="M1169,0.7 C1171.5,1.2 1174.5,1.8 1177.1,2.4 C1178.1,7.4 1175.8,11.7 1173.4,15.8 C1172.4,21 1172.4,26.5 1171.6,31.8 C1174.6,36.6 1179.9,38.9 1184.9,41.1 C1184.5,43.9 1184.7,46.8 1184.1,49.5 C1181.1,54.3 1177.3,58.5 1174.5,63.5 C1174.1,67.2 1176.4,70.1 1178,73.1 C1174.4,71.4 1170.7,69.8 1167.1,68.1 C1170.8,61.6 1172.8,54.3 1176.7,48.1 C1171.9,47.9 1167.1,47.6 1162.3,47.3 C1155.5,56.2 1147.1,63.8 1141,73.2 C1137.4,76.6 1139.2,81.4 1139.3,85.6 C1136.7,83.2 1134.2,80.8 1131.7,78.4 C1135.6,73 1137.4,66.2 1142.1,61.4 C1150.3,52.1 1154.6,39.4 1153,26.9 C1157.7,17.9 1166.6,11.4 1168.9,1" id="Shape10" sketch:type="MSShapeGroup"></path>
                <path d="M1293,2 C1296.3,1.1 1299.6,3 1302.8,3.5 C1302.7,8.7 1299.2,12.4 1297.3,16.9 C1297.7,22.4 1297.5,29.4 1302.6,32.9 C1305.4,36.2 1309.7,34.8 1313.4,35.1 C1313,35.5 1312.5,35.9 1312.1,36.3 C1313.7,37.1 1315.3,38 1316.8,38.8 C1315.9,39.9 1315.1,40.9 1314.3,42 C1306.9,39.8 1299.6,37.1 1292.9,33.2 C1292.8,34.2 1292.8,35.3 1292.8,36.3 C1298.8,39.2 1304.4,42.7 1309.6,46.8 C1308.8,54.2 1307.9,61.7 1307.7,69.1 C1310.4,69.8 1313.2,70.5 1315.9,71.3 C1311.8,72.5 1307.9,73.7 1303.9,74.9 C1303,66.6 1301.8,58.3 1302.5,50 C1297,49.2 1291.5,48.1 1286,48.1 C1280.1,52.8 1276.1,60.1 1269,63 C1261.7,66.7 1252.1,69.2 1249.3,78 C1248.8,74.6 1248.5,71.2 1248.1,68 C1257.3,62.1 1268.9,58.3 1273.9,48 C1277.6,40.5 1281.9,33 1280.4,24.1 C1277.1,29.1 1276.1,35 1275.2,40.8 L1270.1,40.8 C1271.6,34.5 1272.7,28.1 1275,22 C1279.8,18 1285.5,15.3 1290.7,12 C1291.4,8.7 1291.7,5.2 1293.3,2.2" id="Shape11" sketch:type="MSShapeGroup"></path>
                <path d="M295,2.7 C297.7,3.2 300.4,3.8 303.1,4.4 C303.4,8.8 302.1,12.8 300.2,16.6 C298,24.3 295.3,31.6 292.9,39.3 C298.3,44.2 306.1,48.4 306.5,56.7 C298.1,62 285.5,65.3 284,77 C283.5,75.3 283,73.7 282.5,72 C280.3,74.3 278,76.5 275.9,78.8 C278,80.6 280.2,82.3 282.3,84.1 C278,83.5 273.7,82.7 269.4,81.7 C273.4,74.2 277.7,66.3 285.2,61.9 C283.9,55.4 280.4,49.5 278.8,43.1 C280.8,33.8 281.1,23.2 288.2,16.1 C292.1,12.6 293.1,7.4 295.1,2.7 M293.2,51.7 L293.2,56.9 C294.4,56.1 295.6,55.3 296.9,54.5 L296.9,54.1 C295.7,53.3 294.5,52.5 293.2,51.7" id="Shape3" sketch:type="MSShapeGroup"></path>
                <path d="M670,3 C674.2,2.4 679.9,5.8 677.7,10.9 C676.8,14.2 672.9,16.5 673.5,20.2 C673.8,23.8 674.4,27.5 674.9,31.1 C680.8,32.3 686.9,32.1 692.9,31.9 C692.7,36.3 688.1,37.3 684.7,36.8 C679,36.9 673.3,36.2 667.9,34.5 C665,43.1 676.9,46.9 679.4,54 C681.2,60.9 682,68 683.8,74.9 C686.8,74.8 689.9,74.6 692.9,74.4 C689.5,77 686.2,79.7 682.9,82.3 C679.6,75.5 675.7,68.6 674.7,61 C673.8,54.4 666,53 661.1,50.1 C657.5,54.8 655.8,62.4 649.6,64.6 C643.1,63 637.8,58.2 631.3,56.6 C627.5,55.8 624,57.5 620.6,58.8 C622.8,55.6 625,52.4 627.3,49.3 C633.8,52.8 641.3,53.2 647.9,56.6 C651.2,45.9 655.3,35.6 656.9,24.2 C655.4,23.7 653.9,23.2 652.4,22.6 C649.7,26.9 647.1,31.4 646,36.5 C645.6,36 645.2,35.6 644.9,35.1 C644.6,36.6 644.3,38.1 644,39.5 C642.5,38.4 641,37.3 639.6,36.2 C643.3,30.4 646.8,24.5 649.9,18.3 C654.9,16.8 660.9,16.9 665.3,13.6 C667.8,10.6 667.4,6 669.9,3" id="Shape6" sketch:type="MSShapeGroup"></path>
                <path d="M1045,2.7 C1047.5,3.2 1050.5,3.8 1053.1,4.4 C1054,10.6 1050,15.4 1048.8,21.3 C1047.3,27.4 1044.8,33.1 1042.7,39 C1048.3,44 1054.7,48.8 1057.7,55.9 C1049.4,62.2 1035.4,64.7 1034.2,76.9 C1033.6,75.3 1033.1,73.6 1032.5,71.9 C1030.3,74.1 1028.1,76.3 1025.9,78.6 C1027.7,80.4 1029.5,82.2 1031.3,84.1 C1027.3,83.5 1023.3,82.6 1019.3,81.6 C1023.2,73.8 1028,66 1035.6,61.3 C1033.6,55.1 1030.1,49.4 1028.6,43.1 C1030.6,33.8 1030.9,23.2 1038,16.1 C1041.9,12.6 1042.9,7.4 1044.9,2.7 M1043,51.7 L1043,56.9 C1044.2,56.1 1045.4,55.3 1046.7,54.5 L1046.7,54.1 C1045.5,53.3 1044.2,52.5 1043,51.7" id="Shape9" sketch:type="MSShapeGroup"></path>
                <path d="M1421,4 C1425.4,2.1 1430.9,6.1 1428.8,11 C1428.3,14.2 1425.5,16.3 1424.3,19.2 C1423.7,23.2 1424.7,27.3 1424.6,31.2 C1429.4,31.4 1434.5,31.3 1438.4,28.1 C1438.3,28.5 1438.2,29.4 1438.2,29.8 C1439.8,29.2 1441.3,28.5 1443,27.9 C1442.3,30 1442.7,33.5 1439.9,33.9 C1432.7,35.4 1424.9,38.4 1417.9,35.5 C1417.7,38.3 1417.5,41.2 1419.1,43.7 C1424.5,53.7 1426.7,65.4 1432.8,75.2 C1434.9,78.6 1439.4,76.4 1442.5,76.4 C1439.5,79 1436.5,81.6 1433.5,84 C1428.9,77.6 1422.5,72.2 1420.5,64.3 C1418.5,59.6 1415.2,55.5 1412,51.6 C1409.7,55.6 1408,60.1 1405,63.6 C1403.8,65.1 1401.5,65.3 1400,64.2 C1394.8,60.1 1391.3,54 1385.7,50.4 C1382.4,50.1 1379.2,50.7 1376.1,51.4 C1379,48.7 1381.8,45.9 1384.7,43.1 C1389.7,47.3 1395,51 1400.3,54.8 C1403.2,44.3 1406.5,33.8 1408.4,23.1 C1406.9,22.7 1405.5,22.3 1404.1,21.9 C1399.9,26.3 1397.2,31.7 1394.2,36.9 C1388.7,32 1395.5,26.2 1398.1,21.7 C1401.4,13.7 1411.3,18.1 1416.9,13.5 C1419.1,10.6 1419.4,6.7 1421.6,3.8" id="Shape12" sketch:type="MSShapeGroup"></path>
                <path d="M45,6 C49.4,4.1 54.9,8.1 52.8,13 C52.3,16.2 49.5,18.3 48.3,21.2 C47.7,25.2 48.7,29.2 48.6,33.2 C54.6,34.1 60.2,31.5 65.9,30 C66.2,31.8 66.4,33.5 66.6,35.3 C58.4,35.8 50.1,40.7 41.9,37.9 C43.8,46.3 54.7,49.3 55.9,57.9 C55.3,64.5 54.3,71.1 53.6,77.7 C56.4,78.3 59.2,78.8 62,79.4 C58.2,81.1 54.4,82.7 50.4,83.9 C49.3,75.4 47.5,66.6 49.5,58 C45.6,56.2 41.8,54.4 37.9,52.6 C36.2,56.7 35,61.1 32.8,65 C31.4,67 29.7,70 26.5,67.2 C21.3,63.8 16.6,59.7 11.1,56.9 C7.7,56.1 4.1,56.5 0.7,56.5 C3.5,54.1 6.4,51.8 9.2,49.5 C14.4,53.9 20.9,56.1 27,59 C27.6,48.2 29.4,37.7 31.9,27.2 C30.5,26.7 29.1,26.2 27.7,25.7 C24.5,30.2 22,35.1 19.6,40 C18.2,39.6 16.9,39.1 15.5,38.7 C17.4,34.7 19.5,30.7 21.7,26.8 C24.5,18.6 34.4,19.5 41,16.5 C42.3,13 42.8,8.9 45.3,5.9" id="Shape1" sketch:type="MSShapeGroup"></path>
                <path d="M169,7 C172.6,3.6 178.3,8 177.4,12.4 C177.3,17 171.8,19.4 172.1,24.1 C172.5,28.7 170.9,33 168.8,37 C173.7,39.3 179.3,38.6 184.1,41.1 C183.7,42.9 183.6,45.5 181.5,46.1 C176.4,44.6 171.6,42 166.5,40.8 C169.2,48.7 177.7,54.3 176.5,63.4 C172.9,68.8 167,72.4 164.5,78.4 C166.3,80.5 168.6,82 170.8,83.6 C166.6,83.5 162.4,83.5 158.2,83.4 C159.5,78.6 161.2,74 162.7,69.4 C153.5,68.6 143.9,67.9 135,70.9 C137.9,68 139.8,62 144.7,63.1 C150.1,63.4 155.5,62.5 160.9,62.1 C158.6,57.1 155.1,52.7 153.2,47.5 C153.2,43.3 154.9,39.3 155.3,35.2 C152.4,39.6 150.2,44.5 147.8,49.1 C146.7,48.2 145.5,47.2 144.4,46.3 C149.3,35.3 156,25.3 164.1,16.3 C166.8,13.8 167,9.9 169,7" id="Shape2" sketch:type="MSShapeGroup"></path>
                <path d="M795,5 C798,5.5 802.8,6.2 803.4,10.1 C803.9,14.5 800.2,17.5 798.3,21.1 C797.7,25.1 798.7,29.2 798.6,33.1 C804.5,34.2 809.8,31.2 815.3,29.9 C817.1,35 813.3,35.6 810.4,36.3 C804.6,37.5 798.8,38.2 792.9,38.6 C792.6,39.5 792.4,40.4 792.2,41.4 C797.3,46.3 804.5,50.4 806.2,57.7 C805.8,64.5 804.4,71.2 804,78.1 C806.8,78.5 809.5,78.9 812.4,79.4 C808.6,81.4 804.6,82.8 800.5,83.8 C799,75.6 798.8,67.3 799,59 C796.6,55.7 791.9,54.5 788.3,52.5 C786.7,57 785,61.5 783,65.9 C782,67.2 780.2,69.2 778.5,68 C773,64.7 768.3,60.1 762.5,57.1 C758.9,55.8 755,56.2 751.3,55.9 C754.1,53.6 757,51.5 760,49.3 C764.9,53.7 771,55.7 776.9,58.6 C778.1,48 779.2,37.6 781.8,26.9 C780.4,26.4 779,25.9 777.6,25.4 C772.4,30.2 772.9,41.2 764.4,41.7 C765.9,34.5 770.2,28.3 774.4,22.4 C779.4,19.2 785.4,18.3 791,16.2 C792.3,12.4 793.6,8.7 795,4.9" id="Shape7" sketch:type="MSShapeGroup"></path>
                <path d="M919,7 C922.6,3.6 928.3,8 927.4,12.4 C927.3,17 921.8,19.4 922.1,24.1 C922.5,28.7 921,33 918.9,36.9 C923.4,38.6 928.1,39.7 932.8,41 C932,42.6 931.3,44.2 930.5,45.8 C925.9,43.8 921.2,42 916.5,41 C919.2,48.6 926.5,54.2 927.3,62.5 C923.7,68.4 917.3,72.2 914.5,78.7 C916.3,80.8 918.6,82.3 920.8,83.9 C916.6,83.8 912.4,83.8 908.2,83.7 C909.5,79 911.1,74.4 912.7,69.7 C903.5,69 893.8,67.3 885,71.2 C887.9,68.3 889.8,62 894.7,63.4 C900.1,63.9 905.5,62.5 910.7,62.1 C908.4,57.2 904.9,52.8 903,47.6 C903,43.4 904.7,39.4 905.1,35.2 C901.7,40 899.8,45.6 897.4,50.9 C895.9,49.8 894.5,48.8 893,47.7 C898.6,37.8 903.9,27.7 911.7,19 C915.6,15.9 916.5,11.1 918.7,7" id="Shape8" sketch:type="MSShapeGroup"></path>
            </g>
            <g id="gr-duck" sketch:type="MSLayerGroup" transform="translate(37.000000, 163.000000)">
                <path d="M1421,1 C1425.1,-1.2 1430.1,4 1427.8,8 C1427.2,11.9 1423,12.9 1419.8,13.6 C1419.5,14.5 1419.3,15.4 1419.1,16.3 C1425.7,21.6 1433.1,26.6 1442,27.2 C1445.3,27 1445.6,30.8 1446.5,33.1 C1436.9,31.4 1427.6,28.5 1418.8,24.3 C1417.8,26.8 1416.5,29.3 1416.3,32.1 C1421,36.9 1428.5,37.6 1433.3,42.1 C1434.3,43.6 1435.5,45.8 1434.3,47.5 C1430.3,53 1425.6,58 1421.5,63.5 C1423.7,64.9 1425.9,66.3 1428.2,67.6 C1424.2,67.5 1420.3,67.4 1416.4,67.1 C1416.9,64.8 1417.5,62.5 1418,60.2 C1411.9,59.2 1405.7,58 1399.5,58.5 C1398,61 1397.2,63.8 1396.2,66.5 C1395,62.6 1394,58.6 1392.9,54.7 C1399.7,53.9 1406.5,52.9 1413.4,52 C1410.9,48.4 1407.6,45.2 1405.6,41.3 C1404.6,35.2 1404,29 1402.9,22.9 C1398.9,26.5 1395.8,30.9 1394.6,36.2 C1393.4,36 1392.2,35.8 1391,35.6 C1395.2,24.7 1402.6,15 1412.5,8.6 C1415.9,6.6 1418.1,3.4 1421,0.8 M1420.3,45.8 C1421.1,47.6 1421.8,49.4 1422.6,51.2 C1423.9,49.9 1425.2,48.5 1426.5,47.2 C1424.4,46.7 1422.3,46.3 1420.3,45.8" id="Shape12" sketch:type="MSShapeGroup"></path>
                <path d="M47,3 C50.3,3.2 54.8,4.5 54.9,8.5 C54.4,13.8 49.6,16.8 45.7,19.7 C50.1,22.5 54.7,25 58.7,28.2 C57.9,29.2 57,30.3 56.2,31.3 C52.5,28.8 48.6,26.6 44.4,25.1 C43.6,26.4 42.8,27.8 42,29.1 C47,31.2 52,33.2 57,35.4 C56.6,36.4 56.3,37.4 55.9,38.4 C50.1,36.1 44.2,33.6 37.9,33.3 C42.1,36.7 49.3,38.4 50.1,44.5 C47.4,51 42,56.1 38.6,62.3 C40.9,63.9 43.2,65.4 45.5,67.1 C41.3,67.2 37.2,67.4 33,67.3 C35,59.7 37.7,52.3 41.9,45.4 C38.3,44.8 34.7,44.1 31,43.6 C30,47.7 31.1,54.5 26.1,56.6 C19.8,57.6 13.5,55.3 7.2,55.8 C4,56.6 2.2,59.6 1.42108547e-14,61.8 C0.3,58.1 0.7,54.5 1.1,50.8 C8.1,50.9 15.1,50.4 22.1,50.3 C22.1,44.4 15.7,37.3 20.6,32 C24.7,27 26.9,20.7 31.5,16.1 C37.6,12.8 43.9,9.6 46.9,2.9" id="Shape1" sketch:type="MSShapeGroup"></path>
                <path d="M636,7 C638.1,7.6 640.1,8.2 642.2,8.7 C642,15.9 643.2,23 643.4,30.2 C648.2,29.7 653,28.5 657.9,28.5 C660.2,28.4 663.1,29.7 662.9,32.5 C662.9,40.3 664.7,48 663.3,55.5 C661.5,60.4 655.8,62.4 651.7,65 C646.4,68.5 640.1,65.9 634.2,66.2 C635,57.4 632.8,48.5 625.4,42.9 C622.3,38.6 617.1,41 613.1,42.3 C615.4,39.3 617.6,36.3 619.9,33.3 C626.4,37.9 633.5,41.9 638.7,48 C640.2,45.2 641.8,42.3 643.3,39.5 C641,37.7 638.1,36.2 637,33.3 C636.7,24.5 639.4,15.1 635.7,6.7" id="Shape6" sketch:type="MSShapeGroup"></path>
                <path d="M1286,11 C1290,10 1293.6,14.4 1292.3,18.2 C1292.1,21.8 1288.7,23.4 1286,24.9 C1287.8,29.3 1288.9,34.7 1293.5,37.1 C1297.7,39.9 1303.9,36.2 1307.5,40 C1309.7,47.1 1308,54.6 1306.5,61.7 C1308.4,61.5 1310.4,61.3 1312.3,61.1 C1312.6,63.2 1312.8,65.3 1313.2,67.3 C1309.6,67.4 1305.9,67.5 1302.4,67.5 C1301.3,62.3 1299.7,57.2 1299,51.9 C1294.5,53.8 1290.1,56 1285.3,57.2 C1283.7,57.7 1282,56.9 1281.2,55.5 C1278.2,51 1276.1,46 1273.5,41.3 C1271,45.8 1269.1,50.7 1265.2,54.2 C1267.9,42.9 1270,30.9 1277.8,21.8 C1281,18.5 1282.2,13.6 1286.1,11" id="Shape11" sketch:type="MSShapeGroup"></path>
                <path d="M179,16 C182.2,16.8 185.8,19.6 183.7,23.6 C182.2,27.7 177.2,28.8 174.7,32.1 C181,37.8 187.9,42.7 194.1,48.5 C195.9,50.2 195.5,52.8 195.8,55.1 C188.6,48.3 180.2,43.1 171.5,38.6 C172.4,41.2 173.2,43.8 173.6,46.5 C170.4,52 166.6,57 163.4,62.5 C165.7,64.1 168,65.6 170.3,67.3 C166.1,67.4 162,67.6 157.8,67.5 C159.8,60 162.2,52.6 165.6,45.6 C161.1,45.7 156.6,45.8 152.1,45.9 C149.9,50.1 148.1,55 143.7,57.5 C138.8,59.1 133.7,60 128.7,61.7 C129.2,64.1 129.7,66.5 130.2,68.9 C126.9,66.4 124.3,63.3 121.6,60.2 C128.2,56.7 135.4,54.4 141.6,50.6 C141.5,46 140.6,41.4 139.9,36.9 C145.4,33.5 150.6,29.8 155.4,25.4 C160,20.8 166.8,22.1 172.6,22.5 C174.4,20.1 176.1,17.2 179,16.1" id="Shape2" sketch:type="MSShapeGroup"></path>
                <path d="M487,21 C488.6,19.7 490.2,18.4 491.9,17.2 C498.2,22.5 505.7,26.3 511.4,32.2 C517.3,28.5 522.8,24 529.4,21.6 C534.8,30 547.2,34.4 546.6,45.6 C545.7,51.9 544.5,58.2 542.6,64.2 C539.8,63.5 537.5,63 534.8,62.4 C535.9,63.7 537,64.9 538.1,66.2 C535.5,66.4 533,66.8 530.4,66.5 C527.1,63.3 524.2,59.8 522.3,55.6 C524.6,55.7 526.9,55.8 529.2,56.1 C528.6,52.1 527.9,48.1 527.7,44.1 C525.2,48 523.7,52.9 519.7,55.6 C512.9,57.9 505.3,56.4 498.7,58.5 C495.7,59.7 493.8,62.5 491.8,64.9 C492.2,61.1 492.7,57.3 493.3,53.6 C501,53.3 508.5,51.2 515.9,49.4 C517.2,45.9 517.4,42.2 518.2,38.6 C503.8,41.2 500.2,22.3 487.2,20.8" id="Shape5" sketch:type="MSShapeGroup"></path>
                <path d="M782,18 C785.3,21.7 788.9,25.1 792,28.8 C793,35.3 790.1,41.4 789.6,47.8 C790.9,52.6 794.2,56.6 795,61.6 C789.6,65.6 782.3,64.9 776.1,66.9 C770.1,69.9 765.1,65.4 761.1,61.6 C757.2,57.2 754,52.2 752.4,46.6 C754.8,44.6 758.7,43.4 759.2,39.9 C760.6,33.7 763.8,26.9 770.6,25.3 C768.4,30.4 764,34.4 763.4,40.2 C769.3,36.7 775.2,32.9 780.1,28.2 C781.9,25.2 781.4,21.5 781.9,18.2 M779,41.7 C778.5,44.3 780.9,46 782.4,47.7 C785.1,41.4 788.6,35.1 787.9,28 C783.3,31.2 777.6,35.2 779,41.6 M774.1,40.9 C772.4,41.4 773.3,44 774.9,43.3 C776.6,42.9 775.6,40.2 774.1,40.9" id="Shape7" sketch:type="MSShapeGroup"></path>
                <path d="M1156,24 C1157.8,19.1 1165.8,22.4 1165.7,26.9 C1165.7,30.9 1162.3,33.4 1160.2,36.3 C1160.8,40.7 1166,42.1 1169.8,41.6 C1176.4,42.7 1185.4,40.6 1189.6,47.3 C1187.2,47.2 1184.8,47.2 1182.4,47.1 C1185.6,55.1 1190,63 1197.8,67.4 C1191.2,67.6 1184.8,66.7 1178.1,66.6 C1176.6,62.9 1174.8,59.3 1172.9,55.9 C1169.6,59.9 1166.5,64.2 1162.6,67.6 C1158,67.2 1153.9,64.9 1149.7,63.3 C1148.8,55.9 1146.7,48.5 1147.2,41.3 C1148.9,35 1154,30.4 1156.2,24.3 M1162.1,47.3 C1161.6,48.9 1162.1,49.5 1163.8,49 C1164.3,47.4 1163.8,46.8 1162.1,47.3 M1179.8,57 C1180,58.6 1180.2,60.1 1180.4,61.7 C1182,61.9 1183.5,62 1185.1,62.2 C1183.3,60.5 1181.5,58.8 1179.8,57 M1152.2,59.7 C1151,60.6 1152.5,62.5 1153.7,61.6 C1154.8,60.7 1153.4,58.8 1152.2,59.7" id="Shape10" sketch:type="MSShapeGroup"></path>
                <path d="M272,27 C279.4,26.6 286.6,24.9 293.9,24.3 C298.2,25.7 302.2,28 305.9,30.5 C308.8,28.6 314,25.1 315.9,30 C318.8,36.4 309.1,37.7 305.4,38.8 C301,39.6 304.1,45.3 304,47.8 C304.7,52.6 309.6,54.5 312.6,57.7 C309.8,57.3 307.1,56.7 304.4,55.9 C305.8,59.3 306.9,63.2 304.5,66.5 C300.7,59.8 297.7,52.7 295.3,45.5 C293.8,43.9 291.7,42.9 289.8,41.7 C291.5,45.7 296.7,49.9 293.6,54.5 C287.3,57.9 279.6,57.8 272.7,60 C273.6,62.8 274.6,65.6 275.6,68.4 C272.2,65.7 268.8,62.9 265.4,60.1 C271.5,56.5 277.4,52.8 284,50.1 C280.3,47.2 277,43.5 272.7,41.6 C263.3,45.6 254.7,51.4 246.9,58 C243.8,60.5 244.6,64.8 244,68.3 C242,65.2 240,62.1 238.1,59 C241.6,56.9 244.5,54.2 247.1,51.1 C250.7,46.1 257.1,44.8 261.4,40.4 C265.5,36.5 267.7,30.9 271.7,27" id="Shape3" sketch:type="MSShapeGroup"></path>
                <path d="M398,24 C405.3,25.2 412.7,26.1 419.8,28.5 C427.2,30.7 426,41.7 433.7,43.8 C435.7,44.9 438.6,46.8 436.6,49.3 C434.2,53.5 429.1,50.8 425.4,50.4 C425.7,55.2 428.3,59.1 430.9,62.9 C425.8,61.7 420.6,62.5 415.4,63.1 C416.3,60.6 418.5,57.9 417.3,55.1 C415.2,50.5 411.7,46.8 408.7,42.8 C407.4,47.8 410.4,55 405.9,58.8 C399.3,60.4 392.1,58.6 385.5,60.5 C382.7,62.1 384.1,66 384.1,68.7 C381.8,65.4 379.7,62 377.6,58.5 C385.2,55.7 392.9,53.4 401,52.8 C398.9,48 397,43.2 395.1,38.4 C382.2,42 368.1,40.9 356.1,47.1 C356.5,45.1 356.9,43.2 357.4,41.2 C365.9,40.3 373.3,35.5 381.9,34.9 C388.5,33.5 393.2,28.4 397.9,24.1" id="Shape4" sketch:type="MSShapeGroup"></path>
                <path d="M925,32 C929.4,31.7 931.1,27.2 933.4,24.2 C933.3,28 933.3,31.8 933.3,35.7 C925.6,36.5 918.3,39.5 910.4,39.4 C911.8,40.9 913.3,42.2 914.5,43.8 C914.2,46 913.3,48.1 912.8,50.3 C916,50.5 919.5,49.3 922.5,50.8 C924.9,52.5 926.6,55.1 928.6,57.3 C931.1,56.4 933.6,55.5 936.2,54.6 C936.4,56.3 936.6,58.1 936.8,59.8 C930.6,61.6 924,61 918.8,56.9 C916.7,60.5 914.6,64.1 912.5,67.7 C904.8,66.8 897.1,66.1 889.5,65.6 C882.1,62.2 879.6,53.8 877.5,46.6 C876.7,44.1 876.4,40.2 879.4,39 C882.4,37.6 885.2,40.2 887.7,41.5 C889.7,39.6 891.4,37.2 893.9,35.8 C904.2,33.7 914.8,33.1 924.9,31.8 M896.9,38.4 C894.7,41.9 893.1,46.1 896.4,49.6 C898,48.8 901.1,47.1 902.7,46.3 C902.8,43.8 903.2,41.3 903.4,38.7 C901.8,38.6 898.5,38.5 896.9,38.4" id="Shape8" sketch:type="MSShapeGroup"></path>
                <path d="M1015,35 C1014.8,31.5 1016.1,24.1 1021.2,25.1 C1026.1,25.7 1025.9,31.4 1026.4,35.1 C1034.2,37.2 1041.7,41.8 1050.1,40.8 C1059.9,38.3 1064.4,49.9 1072.7,52.3 C1075.6,52.4 1078.7,52.2 1081.7,51.8 C1079,54.5 1076.4,57.3 1073.7,60 C1068.7,56 1062.9,52.9 1056.8,51 C1056.6,53.7 1056.3,59.2 1056.2,62 C1058.8,61.8 1061.5,61.5 1064.1,61.3 C1063,66.2 1058.5,68.2 1053.6,67 C1052,63.3 1050.9,59.4 1049.6,55.5 C1045.8,58.3 1042.7,62 1039.4,65.4 C1032.8,62.9 1026.5,59.4 1020.7,55.4 C1013.5,51.3 1014.3,41.9 1014.9,34.9 M1030.9,41.1 C1031.2,42.3 1031.4,43.5 1031.7,44.6 C1034.9,45.1 1038.3,45.6 1041.6,45.9 C1041.8,45.1 1042.1,43.6 1042.3,42.8 C1038.5,42.1 1034.7,41.6 1030.9,41" id="Shape9" sketch:type="MSShapeGroup"></path>
            </g>
            <g id="gr-jump" sketch:type="MSLayerGroup" transform="translate(49.000000, 249.000000)">
                <path d="M405,1 C408.6,1.1 413,4.2 410.9,8.6 C410.5,12.4 406.6,14.3 404.1,16.7 C404.4,18.8 404.7,20.9 405,23 C407.3,23.3 409.6,23.7 412,24.1 C413.7,28 415.2,32.3 419.9,33.6 C422.9,34.7 423.4,37.3 422.3,40.1 C419.5,39 416.7,37.8 414,36.6 C415.3,39.9 416.1,43.5 415.7,47.1 C418.3,48.1 420.5,48.8 423.3,49.9 C419.5,50.8 415.6,51.6 411.7,52.5 C410.9,49 410.2,45.5 409.2,42 C407.7,45.2 405.6,48.2 404.8,51.6 C405.9,54.3 407.9,56.5 409.4,58.9 C405.8,57.4 402.2,55.9 398.6,54.4 C400.5,48.8 402.4,43.1 403.9,37.4 C398.6,39.5 393.6,43.7 387.7,43.3 C383.7,42.3 381.9,37 383.3,33.3 C386,24.5 391.3,16.4 398.2,10.3 C400.9,7.6 400.8,2.4 404.9,1.1" id="Shape4" sketch:type="MSShapeGroup"></path>
                <path d="M269,13 C270.7,9.6 270.7,0.6 276.8,2.7 C281.7,3.8 282.1,9.4 279.8,13.2 C278.9,15.5 276.4,17.9 278.1,20.3 C282,27.3 290,30.6 297.1,33.7 C300.9,34.8 299,39.2 298.6,41.9 C295.6,40.9 292.6,39.8 289.6,38.7 C290.4,42.3 290.2,46.4 292.1,49.6 C294,51.7 296.8,52.4 299.2,53.5 C295.7,54.5 292.1,55.4 288.5,56.4 C286.6,49.4 284.2,42.6 282.7,35.5 C280.2,37.4 277.8,39.2 275.3,41.1 C278.8,44.9 283.3,48.1 285.8,52.8 C287.6,56.8 280.8,58.9 278.1,58.2 C271,59 260.6,58.8 259.8,68.5 C258.8,64.8 258,61.1 257.2,57.5 C262.7,56.6 268,54.9 272.6,51.8 C268,49.9 263.3,48.2 258.7,46.4 C259.2,34.6 263.6,23.4 269,13.4" id="Shape3" sketch:type="MSShapeGroup"></path>
                <path d="M530,1 C532.5,2 535.7,2.7 537.4,5.1 C539.7,13 528.5,14.1 529.5,21.6 C531.9,22.4 534.7,22.9 537,24.3 C539.4,27.8 538.1,33.8 543.8,34.6 C543.4,34.9 543.1,35.2 542.7,35.5 C544,35.7 545.3,35.9 546.6,36.1 C546.1,37.6 545.6,39.2 545.1,40.7 C542.6,39.9 540.1,39 537.7,38.1 C538.4,40.8 538.5,43.9 539.9,46.4 C542.1,48.1 544.9,48.6 547.5,49.5 C545,50.2 542.6,51 540.2,51.8 C541.7,52.5 543.3,53.1 544.9,53.8 C541.4,54.2 537.9,55 534.3,54.5 C531.9,48.4 527.6,43.3 524.3,37.7 C519.9,39.2 514.3,43.9 509.9,40.6 C506.8,37.3 507.2,31.9 509.2,28.1 C512.7,21.7 516.9,15.2 523.1,11.1 C526.9,8.9 528.2,4.5 530.2,1.1 M527.1,34.1 C528.3,36.7 529.8,39.2 531.7,41.4 C533.3,37 529.7,35.7 527.1,34.1" id="Shape5" sketch:type="MSShapeGroup"></path>
                <path d="M655,1 C658.2,2 662.9,3.2 662.5,7.5 C662.5,12 658.2,14.2 654.9,16.2 C654.9,18.3 654.8,20.4 654.8,22.5 C663.3,22.8 663.8,32.3 669.2,36.8 C668.9,37.9 668.7,39 668.4,40.2 C666.8,40.1 665.1,40 663.5,39.9 C663.5,46.3 668.4,49.2 673.8,50.3 C671.4,50.8 668.9,51.4 666.5,52 C668,53.2 669.5,54.4 671,55.6 C667,55.6 663.1,55.5 659.1,55.5 C659.3,48.6 657.5,41.9 656.4,35.2 C654,35.9 651.7,36.7 649.4,37.5 C650.5,41.4 652,45.1 652.9,49 C651.5,49.3 650.1,49.5 648.7,49.8 C647.7,46.5 646.8,43.2 645.9,39.9 C641.5,42.9 633.7,43.8 632.1,37.2 C631.6,27.4 639.3,19.2 646.1,13.2 C650.7,10.5 652.8,5.6 655.1,1.2" id="Shape6" sketch:type="MSShapeGroup"></path>
                <path d="M779,4 C782.8,3.4 786.8,7.7 785.5,11.5 C784,16.4 777.9,18.3 777.7,23.8 C776.8,26.6 775.8,29.3 774.7,32 C779.2,32.9 784.6,32.7 788.2,36.1 C790.5,42.1 790.5,48.7 792.8,54.7 C794.2,58.2 798.8,58.4 801.7,59.9 C797.9,60.9 794.2,61.9 790.4,63 C792.5,64.4 794.7,65.7 796.8,67 C792.9,67.1 789,66.9 785.2,66.7 C784.2,59 782,51.4 781.9,43.7 C775.7,44.5 768.2,44.6 765.6,51.7 C761.1,49.7 757,44.9 756.1,40 C759.1,30.2 762.4,19.4 771.5,13.5 C775.2,11.3 775.4,6.1 779,4" id="Shape7" sketch:type="MSShapeGroup"></path>
                <path d="M143,4 C146.8,4.5 151.8,6.1 151.6,10.8 C152,14.2 149.5,17.1 148.1,20 C151.8,24.6 155.9,29.3 161.6,31.5 C165.9,32.8 170.4,33.7 174.8,35.1 C174,36.8 173.3,38.5 172.4,40.1 C169.9,39.4 167.5,38.7 165,38 C165.7,43.4 165,49.6 167.7,54.5 C169.9,56.2 172.8,56.8 175.4,57.8 C171.8,58.9 168.1,59.9 164.5,61 C162.3,53.9 159.5,47 157.6,40 C154.6,42.4 151.1,44.3 148.7,47.4 C148.5,54 156.7,61.7 151.2,67.8 C144.2,69.1 136.8,67.2 129.8,69.4 C126.7,70.6 124.9,73.5 122.9,76 C123.4,72.3 124.1,68.6 124.8,65 C131.4,64.7 137.8,62.6 144.3,61.5 C141,57.4 137.3,53.6 134.3,49.3 C133.4,41.1 136.4,33.1 136.5,24.9 C141.1,18.8 142.7,11.7 143.2,4.2" id="Shape2" sketch:type="MSShapeGroup"></path>
                <path d="M890,18 C892,15.2 891.6,9.2 896,8.5 C900.7,7.8 903.7,14 901.2,17.9 C896.2,25.7 897,35.4 895.9,44.2 C901,47.6 906.9,50.4 910.9,55.2 C912.5,62.5 913.4,69.9 915.1,77.1 C917.3,77 919.6,76.9 921.9,76.8 C921.8,78 921.7,79.1 921.6,80.3 C918.6,81.7 915.7,83.1 912.8,84.5 C909.5,76.5 905.5,68.5 905.3,59.7 C898.7,57.9 892,56.6 885.5,54.5 C884.3,54.1 882.8,53.3 882.7,51.8 C882.5,46 883.1,40.3 882.8,34.6 C879.4,39.7 879,46 878.2,52 C876.8,51.8 875.4,51.5 874.1,51.3 C875,45.4 875.1,39.4 876.7,33.7 C879.9,27.4 886.2,23.5 890.2,17.9" id="Shape8" sketch:type="MSShapeGroup"></path>
                <path d="M11.9,18 C11.9,13.5 19.9,14.1 20.9,18 C22.3,22.7 19.8,27.4 20.1,32 C21,35.3 22.5,38.5 23.8,41.8 C28.2,40.2 33.2,35.8 38.1,38.6 C38.7,39.9 38.9,41.4 39.2,42.8 C35.3,43.3 31.4,43.6 27.6,44.3 C32.1,45.2 36.6,45.7 41.2,46.4 C41,47.8 40.8,49.2 40.7,50.7 C34,50 27.4,49 20.8,48.3 C27.1,50.2 33.8,51.1 39.5,54.8 C37.9,62.1 35.7,69.2 35.2,76.6 C37,78.6 39.1,80.3 41,82.2 C37.1,82 33.2,81.8 29.3,81.6 C29.9,74 29.9,66.4 31.4,58.9 C27.7,59.6 24.1,60.3 20.4,61 C20.8,66.6 22.1,72.4 20.9,78 C17.3,83.8 11.9,88.4 8.4,94.4 C7.8,97.2 9.6,100 10.5,102.7 C7.2,100.8 4,98.7 0.9,96.6 C5.5,89.8 9.2,82.3 13.9,75.7 C13.2,69.6 9.1,64.2 6.4,58.9 C8.7,51.2 7.3,43.3 6.6,35.5 C8.1,29.7 12.5,24.7 11.8,18.3" id="Shape1" sketch:type="MSShapeGroup"></path>
                <path d="M1014,30 C1015.4,26.6 1016.8,17.5 1022.7,20.4 C1029.2,23.1 1025,31.3 1021.8,35.2 C1020.1,42.5 1021.7,50.2 1021.4,57.8 C1025.9,62.5 1032.4,66.4 1033.9,73.1 C1035.3,79.7 1036.5,86.3 1038.3,92.8 C1040.9,92.9 1043.7,93.1 1046.4,93.2 C1042.2,95.9 1038,98.6 1033.4,100.2 C1030.9,91.7 1026.2,83.4 1027.5,74.2 C1024,72.7 1020.7,69.7 1016.6,70.4 C1014.7,70.5 1012.1,71.5 1011.1,69.2 C1004.7,62.3 1010.5,52.4 1006.7,44.5 C1001.4,48.6 999.1,55 998.7,61.5 C996.9,61.1 995.2,60.6 993.4,60.2 C995.1,55 996.9,49.8 999.4,45 C1003.2,39 1009.9,35.7 1014,30" id="Shape9" sketch:type="MSShapeGroup"></path>
                <path d="M1269,28 C1272,27.9 1275.3,29.4 1276.6,32.3 C1278.3,38 1271.6,41.4 1272.6,46.9 C1273.3,52.9 1272.3,58.8 1271.1,64.6 C1276.8,67.9 1282.1,71.6 1287.5,75.4 C1286,87.4 1267.5,89.4 1270.5,102.8 C1268.8,101.1 1267.1,99.4 1265.4,97.9 C1265.8,101.1 1266.5,104.4 1267.3,107.5 C1264,105.7 1260.8,103.7 1257.6,101.8 C1262.5,95.7 1267.5,89.8 1272.9,84.1 C1268,80.3 1262.6,77.2 1258,73.2 C1258.3,65.6 1256.8,57.9 1258.3,50.4 C1259.6,46.2 1262.7,42.8 1265.1,39.2 C1267.4,35.9 1266,31 1269.2,28.2" id="Shape11" sketch:type="MSShapeGroup"></path>
                <path d="M1143,31 C1146.1,27.6 1152.4,30.8 1152,35.3 C1152.1,40 1146.9,43 1147.3,47.7 C1147.8,53.9 1147.1,60.2 1146.7,66.4 C1151.5,70.4 1157.5,73.5 1161.2,78.6 C1162.7,86 1160.9,93.9 1161.3,101.4 C1163.8,102.7 1166.2,104 1168.6,105.3 C1161.9,105.9 1155.2,106.3 1148.6,106.4 C1149.9,98.3 1149.7,89.7 1153.8,82.4 C1149,80.5 1144.1,78.6 1139.1,77.2 C1136.3,78 1134.1,80.1 1131.1,80.5 C1131.8,72.5 1133.3,64.5 1133.6,56.5 C1127.7,60.2 1124.9,66.4 1123.1,72.8 C1121.6,72 1120.1,71.2 1118.6,70.4 C1123.7,59.7 1130.6,50 1138.6,41.5 C1141.4,38.8 1141.2,34.6 1142.6,31.2 M1155.2,96.2 C1154.7,98.5 1154.3,100.7 1153.9,103 C1154.8,103.2 1156.5,103.5 1157.4,103.7 C1156.7,101.2 1156,98.7 1155.2,96.2" id="Shape10" sketch:type="MSShapeGroup"></path>
            </g>
        </g>
    </g>
</svg>