<svg xmlns="http://www.w3.org/2000/svg" width="1500" height="375" viewBox="0 0 1500 375">
  <title>
    sprite-shapes
  </title>
  <defs>
    <filter id="f004">
            <feGaussianBlur in="SourceGraphic" stdDeviation="10 0.3"/>
        </filter>
    </defs>
  <g id="Page-1" fill="none" fill-rule="evenodd">
    <g id="sprite-shapes" fill="#111">
      <g id="gr-run">
        <path id="Shape4" d="M450 22.7c2.6.5 5.4 1 8 1.7 1 5-1.2 9.3-3.6 13.4-1 5-.8 10.2-1.8 15.3 1.7 7 12.6 6.2 13 13.8 1.3 6.7-6 10.8-8.5 16.3-3.4 3.8.2 8.6 2 12-3.5-1.6-7.2-3.2-10.8-5 3.6-6.4 5.7-13.7 9.6-20-4.8 0-9.6-.5-14.4-.8-6.5 9-14.8 16.8-21 26-3.7 3.3-2 8-1.7 12.3l-7.6-7.2c4.2-5.3 6-12 10.5-17 8-9.2 12.6-21.8 10.8-34 2.4-6.7 8.6-11.4 12.4-17.2l3.5-9"/>
        <path id="Shape5" d="M576 23.3c4-.3 8.6 4 6.3 8.3-1 3.2-4.6 5.7-3.8 9.4.8 5 1.3 10.5 5 14.3 2.8 4 8 3.4 12.3 4l-1.4 5.3c-7.2-2-13.8-5.6-20-9.2 0 1 0 2-.2 3.2 5.2 2.7 12 4 16 8.5 1.6 7.6-1 15.4-1.3 23l7.3 3-11 3c-.8-8.2-2.5-16.7-.5-25-6.3 0-13-1.5-19-.3-12.7 9-27 17.4-34.8 31.5-1.8-8.8 4.2-15.8 10-21.5 5.8-3.4 10.2-8.6 14-14.2-6.6-5.5.6-14.5 1-21 4.7-5 11-8 16.4-12 .3-3.5-.3-9 4-10M557.2 61c6-2.7 5.4-9 5-14.5-3 4.3-4 9.4-5 14.5"/>
        <path id="Shape10" d="M1200 22.7c2.5.5 5.5 1 8 1.7 1 5-1.2 9.3-3.6 13.4-1 5.2-1 10.7-1.8 16 3 4.8 8.3 7 13.3 9.3-.5 3-.3 5.8-1 8.5-3 4.8-6.7 9-9.5 14-.4 3.7 2 6.6 3.5 9.6-3.6-1.6-7.3-3.2-11-5 3.8-6.4 5.8-13.7 9.7-20-4.8 0-9.6-.4-14.4-.7-6.8 9-15.2 16.5-21.3 26-3.6 3.3-1.8 8-1.7 12.3l-7.6-7.2c4-5.4 5.7-12.2 10.4-17 8.3-9.3 12.6-22 11-34.5 4.7-9 13.6-15.6 16-26"/>
        <path id="Shape11" d="M1324 24c3.3-1 6.6 1 9.8 1.5 0 5.2-3.6 9-5.5 13.4.4 5.4.2 12.4 5.3 16 2.8 3.2 7 1.8 10.8 2l-1.3 1.3 4.8 2.5c-1 1-1.7 2-2.5 3.2-7.4-2.2-14.7-5-21.4-8.8-.2 1-.2 2-.2 3 6 3 11.6 6.5 16.8 10.6-.8 7.4-1.7 15-2 22.3l8.3 2.3-12 3.6c-1-8.4-2.2-16.7-1.5-25-5.5-.8-11-2-16.5-2-6 4.8-10 12-17 15-7.3 3.7-17 6.2-19.7 15l-1.2-10c9.3-6 21-9.7 26-20 3.6-7.5 8-15 6.4-24-3.3 5-4.3 11-5.2 16.8h-5c1.4-6.3 2.5-12.7 4.8-18.8 4.8-4 10.5-6.7 15.7-10 .7-3.3 1-6.8 2.6-9.8"/>
        <path id="Shape3" d="M326 24.7c2.7.5 5.4 1 8 1.7.4 4.4-1 8.4-2.8 12.2-2.2 7.7-5 15-7.3 22.7 5.3 5 13 9 13.5 17.4-8.4 5.3-21 8.6-22.5 20.3l-1.5-5-6.6 6.8 6.3 5.3c-4.3-.5-8.6-1.3-13-2.3 4-7.5 8.4-15.4 16-19.8-1.4-6.6-5-12.5-6.5-19 2-9.2 2.3-19.8 9.4-27 4-3.4 5-8.6 7-13.3m-2 49V79c1.2-1 2.4-1.7 3.7-2.5V76l-3.8-2.3"/>
        <path id="Shape6" d="M701 25c4.2-.6 10 2.8 7.7 8-1 3.2-4.8 5.5-4.2 9.2.3 3.6 1 7.3 1.4 11 5.8 1 12 1 18 .7-.3 4.3-5 5.3-8.3 4.8-5.7 0-11.4-.6-16.8-2.3-3 8.6 9 12.4 11.4 19.5 1.8 7 2.6 14 4.4 21l9-.6-10 8c-3.2-7-7-13.8-8-21.4-1-6.6-8.8-8-13.7-11-3.5 4.8-5.2 12.4-11.4 14.6-6.5-1.6-11.8-6.4-18.3-8-3.8-.8-7.3 1-10.7 2.2l6.7-9.5c6.5 3.5 14 4 20.6 7.3 3.2-10.7 7.3-21 9-32.4l-4.6-1.6c-2.7 4.3-5.3 8.8-6.4 14-.4-.6-.8-1-1-1.5l-1 4.5-4.4-3.3c3.7-5.8 7.2-11.7 10.3-18 5-1.4 11-1.3 15.3-4.6 2.5-3 2-7.6 4.6-10.6"/>
        <path id="Shape9" d="M1076 24.7c2.5.5 5.5 1 8 1.7 1 6.2-3 11-4.2 17-1.5 6-4 11.7-6 17.6 5.5 5 12 9.8 15 17-8.4 6.2-22.4 8.7-23.6 21-.6-1.7-1-3.4-1.7-5-2.2 2-4.4 4.3-6.6 6.6l5.3 5.5c-4-.5-8-1.4-12-2.4 4-7.8 8.7-15.6 16.3-20.3-2-6.2-5.5-12-7-18.2 2-9.2 2.3-19.8 9.4-27 4-3.4 5-8.6 7-13.3m-2 49V79c1.2-1 2.4-1.7 3.7-2.5V76l-3.7-2.3"/>
        <path id="Shape12" d="M1452 26c4.4-2 10 2 7.8 7-.5 3.2-3.3 5.3-4.5 8.2-.6 4 .4 8 .3 12 4.8.2 10 0 13.8-3l-.2 1.6 4.8-2c-.7 2.2-.3 5.7-3 6-7.3 1.6-15 4.6-22 1.7-.3 2.8-.5 5.7 1 8.2 5.5 10 7.7 21.7 13.8 31.5 2 3.4 6.6 1.2 9.7 1.2-3 2.6-6 5.2-9 7.6-4.6-6.4-11-11.8-13-19.7-2-4.7-5.3-8.8-8.5-12.7-2.3 4-4 8.5-7 12-1.2 1.5-3.5 1.7-5 .6-5.2-4-8.7-10.2-14.3-13.8-3.3-.3-6.5.3-9.6 1 3-2.7 5.8-5.5 8.7-8.3 5 4.3 10.3 8 15.6 11.8 3-10.5 6.2-21 8-31.7l-4.2-1c-4 4.3-6.8 9.7-9.8 15-5.5-5 1.3-10.8 4-15.3 3.2-8 13-3.6 18.7-8.2 2-3 2.4-6.8 4.6-9.7"/>
        <path id="Shape1" d="M76 28c4.4-2 10 2 7.8 7-.5 3.2-3.3 5.3-4.5 8.2-.6 4 .4 8 .3 12 6 1 11.6-1.7 17.3-3.2l.6 5.3C89.4 57.8 81 62.7 73 60c1.8 8.3 12.7 11.3 14 20-.7 6.5-1.7 13-2.4 19.7 2.8.6 5.6 1 8.4 1.7-3.8 1.7-7.6 3.3-11.6 4.5-1-8.6-3-17.4-1-26L69 74.6c-1.8 4-3 8.5-5.2 12.4-1.4 2-3 5-6.3 2.2-5.2-3.4-10-7.5-15.4-10.3-3.3-1-7-.5-10.3-.5l8.5-7C45.4 76 52 78 58 81c.6-10.8 2.4-21.3 5-31.8l-4.3-1.5c-3.2 4.5-5.7 9.4-8 14.3-1.5-.4-2.8-1-4.2-1.3 2-4 4-8 6.2-12 2.8-8 12.7-7.2 19.3-10.2C73.3 35 73.8 31 76.3 28"/>
        <path id="Shape2" d="M200 29c3.6-3.4 9.3 1 8.4 5.4 0 4.6-5.6 7-5.3 11.7.5 4.7-1 9-3.2 13 5 2.3 10.5 1.6 15.3 4-.3 2-.4 4.5-2.5 5-5-1.4-10-4-15-5.2 2.7 8 11.2 13.5 10 22.6-3.6 5.4-9.5 9-12 15 1.8 2 4 3.6 6.3 5.2-4.2 0-8.4 0-12.6-.2 1.3-4.8 3-9.4 4.5-14-9.2-.8-18.8-1.5-27.7 1.5 3-3 4.8-9 9.7-8 5.4.4 10.8-.5 16.2-1-2.4-5-6-9.3-7.8-14.5 0-4.2 1.7-8.2 2-12.3-2.8 4.4-5 9.3-7.4 14l-3.4-3c5-11 11.6-21 19.7-30 2.8-2.4 3-6.3 5-9.2"/>
        <path id="Shape7" d="M826 27c3 .5 7.8 1.2 8.4 5 .5 4.5-3.2 7.5-5 11-.7 4 .3 8.2.2 12 6 1.2 11.2-1.8 16.7-3 1.8 5-2 5.6-5 6.3-5.7 1.2-11.5 2-17.4 2.3-.4 1-.6 1.8-.8 2.8 5 5 12.3 9 14 16.3-.4 6.8-1.8 13.5-2.2 20.4l8.4 1.4c-3.8 2-7.8 3.4-12 4.4C830 97.6 830 89.3 830 81c-2.4-3.3-7-4.5-10.7-6.5-1.6 4.5-3.3 9-5.3 13.4-1 1.2-2.8 3.2-4.5 2-5.5-3.3-10.2-8-16-11-3.6-1.2-7.5-.8-11.2-1 2.8-2.4 5.7-4.5 8.7-6.7 5 4.4 11 6.4 17 9.3 1-10.6 2.2-21 4.8-31.7l-4.2-1.6c-5.2 4.8-4.7 15.8-13.2 16.3 1.5-7.2 5.8-13.4 10-19.3 5-3.2 11-4 16.6-6.2l4-11.3"/>
        <path id="Shape8" d="M950 29c3.6-3.4 9.3 1 8.4 5.4 0 4.6-5.6 7-5.3 11.7.5 4.7-1 9-3 13 4.4 1.6 9 2.7 13.8 4l-2.3 4.8c-4.6-2-9.3-3.8-14-4.8 2.7 7.6 10 13.2 10.8 21.5-3.6 6-10 9.7-12.8 16.2 1.8 2 4 3.6 6.3 5.2l-12.6-.3c1.3-4.7 3-9.3 4.5-14-9.2-.7-19-2.4-27.7 1.5 3-3 4.8-9.2 9.7-7.8 5.4.5 10.8-1 16-1.3-2.3-4.8-5.8-9.2-7.7-14.4 0-4.2 1.7-8.2 2-12.4-3.3 4.8-5.2 10.4-7.6 15.7l-4.4-3.3c5.6-10 11-20 18.7-28.7 4-3 4.8-8 7-12"/>
      </g>
      <g id="gr-duck" filter="url(#f004)" >
        <path id="Shape12" d="M1458 164c4-2.2 9 3 6.8 7-.6 4-4.8 5-8 5.6l-.7 2.7c6.7 5.3 14 10.3 23 11 3.3-.3 3.6 3.5 4.5 5.8-9.6-1.6-19-4.5-27.7-8.7-1 2.5-2.3 5-2.5 7.8 4.7 5 12.2 5.6 17 10 1 1.6 2.2 3.8 1 5.5-4 5.5-8.7 10.5-12.8 16 2.2 1.4 4.4 2.8 6.7 4-4 0-8 0-11.8-.4l1.6-6.8c-6-1-12.3-2.2-18.5-1.7-1.5 2.5-2.3 5.3-3.3 8l-3.3-11.8 20.4-2.7c-2.5-3.6-5.8-6.8-7.8-10.7-1-6-1.6-12.3-2.7-18.4-4 3.5-7.2 8-8.4 13.2l-3.6-.6c4.2-11 11.6-20.6 21.5-27 3.4-2 5.6-5.2 8.5-7.8m-.7 45l2.3 5.4 4-4-6.3-1.4"/>
        <path id="Shape1" d="M84 166c3.3.2 7.8 1.5 8 5.5-.6 5.3-5.4 8.3-9.3 11.2 4.4 2.8 9 5.3 13 8.5l-2.5 3c-3.7-2.4-7.6-4.6-11.8-6l-2.4 4c5 2 10 4 15 6.2l-1 3c-6-2.3-11.8-4.8-18-5 4 3.3 11.3 5 12 11-2.6 6.6-8 11.7-11.4 18l7 4.7c-4.3.2-8.4.4-12.6.3 2-7.6 4.7-15 9-22l-11-1.7c-1 4 0 11-5 13-6.2 1-12.5-1.3-18.8-.8-3.2.8-5 3.8-7.2 6l1-11c7 0 14-.4 21-.5 0-6-6.3-13-1.4-18.3 4-5 6.3-11.3 11-16 6-3.2 12.3-6.4 15.3-13"/>
        <path id="Shape6" d="M673 170l6.2 1.7c-.2 7.2 1 14.3 1.2 21.5 4.8-.5 9.6-1.7 14.5-1.7 2.2 0 5 1.2 5 4 0 7.8 1.7 15.5.3 23-1.8 5-7.5 7-11.6 9.5-5.3 3.5-11.6 1-17.5 1.2.8-8.8-1.4-17.7-8.8-23.3-3-4.4-8.3-2-12.3-.7l7-9c6.4 4.6 13.5 8.6 18.7 14.7l4.6-8.5c-2.3-1.8-5.2-3.3-6.3-6.2-.3-8.8 2.4-18.2-1.3-26.6"/>
        <path id="Shape11" d="M1323 174c4-1 7.6 3.4 6.3 7.2-.2 3.6-3.6 5.2-6.3 6.7 1.8 4.3 3 9.7 7.5 12 4.2 3 10.4-.8 14 3 2.2 7 .5 14.6-1 21.7l5.8-.6c.3 2.2.5 4.3 1 6.3l-11 .2c-1-5.2-2.6-10.3-3.3-15.6-4.5 1.8-9 4-13.7 5.2-1.6.5-3.3-.3-4-1.7-3-4.5-5.2-9.5-7.8-14.2-2.5 4.5-4.4 9.4-8.3 13 2.7-11.4 4.8-23.4 12.6-32.5 3.2-3.3 4.4-8.2 8.3-10.8"/>
        <path id="Shape2" d="M216 179c3.2.8 6.8 3.6 4.7 7.6-1.5 4-6.5 5.2-9 8.5 6.3 5.8 13.2 10.7 19.4 16.5 2 1.7 1.5 4.3 1.8 6.6-7.2-6.7-15.6-12-24.3-16.4 1 2.6 1.7 5.2 2 8-3 5.4-7 10.4-10 16l6.8 4.7c-4.2 0-8.3.3-12.5.2 2-7.5 4.4-15 7.8-22l-13.5.4c-2 4-4 9-8.3 11.5-5 1.6-10 2.5-15 4.2l1.5 7.2c-3.3-2.6-6-5.7-8.6-8.8 6.6-3.5 13.8-5.8 20-9.6 0-4.6-1-9.2-1.7-13.7 5.4-3.5 10.6-7.2 15.4-11.6 4.6-4.6 11.4-3.3 17.2-3 1.8-2.3 3.5-5.2 6.4-6.3"/>
        <path id="Shape5" d="M524 184c1.6-1.3 3.2-2.6 5-3.8 6.2 5.3 13.7 9 19.4 15 6-3.7 11.4-8.2 18-10.6 5.4 8.4 17.8 12.8 17.2 24-1 6.3-2 12.6-4 18.6l-7.8-1.8 3.3 3.8c-2.5.2-5 .6-7.6.3-3.3-3.2-6.2-6.7-8-11l6.8.6c-.6-4-1.3-8-1.5-12-2.5 4-4 9-8 11.6-6.8 2.3-14.4.8-21 3-3 1-5 4-7 6.3l1.6-11.4c7.7-.3 15.2-2.4 22.6-4.2 1.2-3.5 1.4-7.2 2.2-10.8-14.4 2.6-18-16.3-31-17.8"/>
        <path id="Shape7" d="M819 181c3.3 3.7 7 7 10 10.8 1 6.5-2 12.6-2.4 19 1.3 4.8 4.6 8.8 5.4 13.8-5.4 4-12.7 3.3-19 5.3-6 3-11-1.6-15-5.4-3.8-4.4-7-9.4-8.6-15 2.4-2 6.3-3.2 6.8-6.7 1.4-6.3 4.6-13 11.4-14.7-2.2 5-6.6 9-7.2 15 6-3.6 11.8-7.4 16.7-12 2-3 1.4-6.8 2-10m-3 23.4c-.5 2.6 2 4.3 3.4 6 2.7-6.3 6.2-12.6 5.5-19.7-4.7 3.2-10.4 7.2-9 13.6m-5-.7c-1.6.4-.7 3 1 2.3 1.6-.4.6-3-1-2.4"/>
        <path id="Shape10" d="M1193 187c1.8-5 9.8-1.6 9.7 3 0 4-3.4 6.4-5.5 9.3.6 4.4 5.8 5.8 9.6 5.3 6.6 1 15.6-1 19.8 5.7-2.4 0-4.8 0-7.2-.2 3.2 8 7.6 16 15.4 20.4-6.6.2-13-.7-19.7-.8-1.4-3.7-3.2-7.3-5-10.7-3.4 4-6.5 8.2-10.4 11.6-4.6-.4-8.7-2.7-13-4.3-.8-7.4-3-14.8-2.4-22 1.7-6.3 6.8-11 9-17m6 23c-.6 1.6 0 2.2 1.6 1.7.5-1.6 0-2.2-1.7-1.7m17.8 9.7l.6 4.7 4.7.5-5.2-5.2m-27.6 2.7c-1.2 1 .3 2.8 1.5 2 1-1-.3-3-1.5-2"/>
        <path id="Shape3" d="M309 190c7.4-.4 14.6-2 22-2.7 4.2 1.4 8.2 3.7 12 6.2 2.8-2 8-5.4 10-.5 2.8 6.4-7 7.7-10.6 8.8-4.4.8-1.3 6.5-1.4 9 .7 4.8 5.6 6.7 8.6 10-2.8-.5-5.5-1-8.2-2 1.4 3.5 2.5 7.4 0 10.7-3.7-6.7-6.7-13.8-9-21-1.6-1.6-3.7-2.6-5.6-3.8 1.7 4 7 8.2 3.8 12.8-6.3 3.4-14 3.3-21 5.5l3 8.4-10.2-8.3c6-3.5 12-7.2 18.6-10-3.7-2.8-7-6.5-11.3-8.4-9.4 4-18 9.8-25.8 16.4-3.2 2.5-2.4 6.8-3 10.3l-6-9.3c3.6-2 6.5-4.8 9-8 3.7-5 10-6.2 14.4-10.6 4-4 6.3-9.5 10.3-13.4"/>
        <path id="Shape4" d="M435 187c7.3 1.2 14.7 2 21.8 4.5 7.4 2.2 6.2 13.2 14 15.3 2 1 4.8 3 2.8 5.5-2.4 4.2-7.5 1.5-11.2 1 .3 5 3 8.8 5.5 12.6-5.2-1.3-10.4-.5-15.6 0 1-2.4 3-5 2-8-2.2-4.5-5.7-8.2-8.7-12.2-1.3 5 1.7 12.2-2.8 16-6.7 1.6-14-.2-20.5 1.7-2.8 1.6-1.4 5.5-1.4 8.2-2.2-3.3-4.3-6.7-6.4-10.2 7.6-2.8 15.3-5 23.4-5.7l-6-14.4c-12.8 3.6-27 2.5-39 8.7l1.4-5.8c8.5-1 16-5.7 24.5-6.3 6.5-1.5 11.2-6.6 16-11"/>
        <path id="Shape8" d="M962 195c4.4-.3 6-4.8 8.4-7.8v11.5c-7.8.8-15 3.8-23 3.7 1.4 1.5 3 2.8 4 4.4-.2 2.2-1 4.3-1.6 6.5 3.2.2 6.7-1 9.7.5 2.4 1.7 4 4.3 6 6.5l7.7-2.7.6 5.2c-6.2 1.8-12.8 1.2-18-3-2 3.7-4.2 7.3-6.3 11-7.7-1-15.4-1.7-23-2.2-7.4-3.4-10-11.8-12-19-.8-2.5-1-6.4 2-7.6 3-1.4 5.7 1.2 8.2 2.5 2-2 3.7-4.3 6.2-5.7 10.2-2 20.8-2.7 31-4m-28 6.6c-2.3 3.5-4 7.7-.6 11.2l6.3-3.3c0-2.5.5-5 .7-7.6l-6.5-.3"/>
        <path id="Shape9" d="M1052 198c-.2-3.5 1-11 6.2-10 5 .7 4.7 6.4 5.2 10 7.8 2.2 15.3 6.8 23.7 5.8 10-2.5 14.4 9 22.7 11.5 3 0 6 0 9-.5l-8 8.2c-5-4-10.8-7-17-9 0 2.7-.4 8.2-.5 11l8-.7c-1.2 5-5.7 7-10.6 5.7-1.6-3.7-2.7-7.6-4-11.5-3.8 2.8-7 6.5-10.2 10-6.6-2.6-13-6-18.7-10-7.2-4.2-6.4-13.6-5.8-20.6m16 6l.7 3.6c3.2.5 6.6 1 10 1.3 0-1 .4-2.4.6-3.2L1068 204"/>
      </g>
      <g id="gr-jump" filter="url(#f004)" >
        <path id="Shape4" d="M454 250c3.6 0 8 3.2 6 7.6-.5 3.8-4.4 5.7-7 8l1 6.4 7 1c1.7 4 3.2 8.3 8 9.6 3 1 3.4 3.7 2.3 6.5-2.8-1-5.6-2.2-8.3-3.4 1.3 3.3 2 7 1.7 10.5l7.6 3-11.6 2.5c-.8-3.5-1.5-7-2.5-10.5-1.5 3.2-3.6 6.2-4.4 9.6 1 2.7 3 5 4.6 7.3l-10.8-4.6c2-5.6 3.8-11.3 5.3-17-5.4 2-10.4 6.3-16.3 6-4-1-5.8-6.4-4.4-10 2.7-9 8-17 15-23 2.6-2.8 2.5-8 6.6-9.3"/>
        <path id="Shape3" d="M318 262c1.7-3.4 1.7-12.4 7.8-10.3 5 1 5.3 6.7 3 10.5-1 2.3-3.4 4.7-1.7 7 4 7 12 10.4 19 13.5 4 1 2 5.5 1.6 8.2l-9-3.3c.8 3.6.6 7.7 2.5 11 2 2 4.8 2.7 7.2 3.8l-10.7 3c-2-7-4.3-14-5.8-21l-7.4 5.6c3.5 4 8 7 10.5 11.8 1.8 4-5 6-7.7 5.4-7 .8-17.4.6-18.2 10.3-1-3.7-1.8-7.4-2.6-11 5.5-1 10.8-2.6 15.4-5.7-4.6-2-9.3-3.6-14-5.4.6-11.8 5-23 10.4-33"/>
        <path id="Shape5" d="M579 250c2.5 1 5.7 1.7 7.4 4 2.3 8-9 9-8 16.6 2.5.8 5.3 1.3 7.6 2.7 2.4 3.5 1 9.5 6.8 10.3l-1 1c1.2 0 2.5.3 3.8.5l-1.5 4.7-7.3-2.6c.7 2.8.8 6 2.2 8.4 2 1.7 5 2.2 7.5 3l-7.3 2.4 4.7 2c-3.6.4-7 1.2-10.7.7-2.4-6-6.7-11.2-10-16.8-4.4 1.5-10 6.2-14.4 3-3.2-3.4-2.8-8.8-.8-12.6 3.5-6.3 7.7-12.8 14-17 3.7-2 5-6.5 7-10m-3 33c1 2.7 2.6 5.2 4.5 7.4 1.6-4.4-2-5.7-4.6-7.3"/>
        <path id="Shape6" d="M704 250c3.2 1 8 2.2 7.5 6.5 0 4.5-4.3 6.7-7.6 8.7l-.2 6.3c8.5.3 9 9.8 14.4 14.3l-.8 3.4-5-.3c0 6.3 5 9.2 10.4 10.3-2.4.5-5 1-7.3 1.7l4.5 3.6h-12c.3-7-1.5-13.7-2.6-20.4l-7 2.3c1 4 2.6 7.6 3.5 11.5l-4.3.8c-1-3.3-2-6.6-2.8-10-4.5 3-12.3 4-14-2.6-.4-9.8 7.3-18 14-24 4.7-2.7 6.8-7.6 9-12"/>
        <path id="Shape7" d="M828 253c3.8-.6 7.8 3.7 6.5 7.5-1.5 5-7.6 6.8-7.8 12.3l-3 8.2c4.5 1 10 .7 13.5 4 2.3 6 2.3 12.7 4.6 18.7 1.4 3.5 6 3.7 9 5.2l-11.4 3c2 1.4 4.3 2.7 6.4 4-4 0-7.8 0-11.6-.3-1-7.7-3.2-15.3-3.3-23-6.3.8-13.8 1-16.4 8-4.5-2-8.6-6.8-9.5-11.7 3-9.8 6.4-20.6 15.5-26.5 3.7-2.2 4-7.4 7.5-9.5"/>
        <path id="Shape2" d="M192 253c3.8.5 8.8 2 8.6 6.8.4 3.4-2 6.3-3.5 9.2 3.8 4.6 8 9.3 13.6 11.5 4.3 1.3 8.8 2.2 13.2 3.6-.8 1.8-1.5 3.5-2.4 5l-7.4-2c.7 5.4 0 11.6 2.7 16.5 2.2 1.7 5 2.3 7.7 3.3-3.6 1-7.3 2-11 3.2-2-7-5-14-6.8-21-3 2.4-6.5 4.3-9 7.4 0 6.6 8 14.3 2.6 20.4-7 1.3-14.4-.6-21.4 1.6-3 1.2-5 4-7 6.6l2-11c6.6-.3 13-2.4 19.5-3.5-3.3-4-7-8-10-12.2-1-8.2 2-16.2 2.2-24.4 4.6-6.2 6.2-13.3 6.7-20.8"/>
        <path id="Shape8" d="M939 267c2-2.8 1.6-8.8 6-9.5 4.7-.7 7.7 5.5 5.2 9.4-5 7.7-4.2 17.4-5.3 26.2 5 3.4 11 6.2 15 11 1.5 7.3 2.4 14.7 4 22l7-.4-.4 3.5-8.8 4.2c-3.3-8-7.3-16-7.5-24.8-6.6-1.8-13.3-3-19.8-5.2-1.2-.4-2.7-1.2-2.8-2.7-.2-5.8.4-11.5 0-17.2-3.3 5-3.7 11.4-4.5 17.4l-4-.7c.8-6 1-12 2.5-17.6 3.2-6.3 9.5-10.2 13.5-15.8"/>
        <path id="Shape1" d="M61 267c0-4.5 8-4 9 0 1.3 4.7-1.2 9.4-1 14 1 3.3 2.5 6.5 3.8 9.8 4.4-1.6 9.4-6 14.3-3.2.7 1.3 1 2.8 1.2 4.2-4 .5-7.8.8-11.6 1.5 4.5 1 9 1.4 13.6 2l-.5 4.4c-6.7-.7-13.3-1.7-20-2.4 6.4 2 13 2.8 18.8 6.5-1.6 7.3-3.8 14.4-4.3 21.8 1.8 2 4 3.7 5.8 5.6l-11.7-.6c.6-7.6.6-15.2 2-22.7l-11 2c.5 5.6 1.8 11.4.6 17-3.7 5.8-9 10.4-12.6 16.4-.6 2.8 1.2 5.6 2 8.3l-9.5-6c4.5-7 8.2-14.4 13-21-.8-6-5-11.5-7.6-16.8 2.3-7.8 1-15.7.2-23.5 1.5-5.8 6-10.8 5.2-17.2"/>
        <path id="Shape9" d="M1063 279c1.4-3.4 2.8-12.5 8.7-9.6 6.5 2.7 2.3 11-1 14.8-1.6 7.3 0 15-.3 22.6 4.5 4.7 11 8.6 12.5 15.3 1.3 6.7 2.5 13.3 4.3 19.8 2.6 0 5.4.3 8 .4-4 2.7-8.3 5.4-13 7-2.4-8.5-7-16.8-5.8-26-3.5-1.5-6.8-4.5-11-3.8-1.8 0-4.4 1-5.4-1.2-6.3-7-.5-16.8-4.3-24.7-5.3 4-7.6 10.5-8 17-1.8-.4-3.5-1-5.3-1.3 1.7-5.2 3.5-10.4 6-15.2 3.8-6 10.5-9.3 14.6-15"/>
        <path id="Shape11" d="M1318 277c3 0 6.3 1.4 7.6 4.3 1.7 5.7-5 9-4 14.6.7 6-.3 11.8-1.5 17.6 5.8 3.3 11 7 16.5 10.8-1.5 12-20 14-17 27.4l-5-5c.3 3.3 1 6.6 1.8 9.7-3.3-1.8-6.5-3.8-9.7-5.7 5-6 10-12 15.3-17.7-5-3.7-10.4-6.8-15-10.8.3-7.6-1.2-15.3.3-22.8 1.3-4.2 4.4-7.6 6.8-11.2 2.4-3.3 1-8.2 4.2-11"/>
        <path id="Shape10" d="M1192 280c3-3.4 9.4-.2 9 4.3 0 4.7-5 7.7-4.7 12.4.5 6.2-.2 12.5-.6 18.7 4.8 4 10.8 7 14.5 12.2 1.5 7.4-.3 15.3 0 22.8l7.4 4c-6.7.5-13.4 1-20 1 1.3-8 1-16.7 5.2-24-4.8-2-9.7-3.8-14.7-5.2-2.7.8-5 3-8 3.3.8-8 2.3-16 2.6-24-6 3.7-8.7 10-10.5 16.3l-4.4-2.4c5-10.7 12-20.4 20-29 2.8-2.6 2.6-6.8 4-10.2m12.6 65c-.5 2.3-1 4.5-1.3 6.8l3.4.7-2.2-7.5"/>
      </g>
    </g>
  </g>
</svg>
