<svg xmlns="http://www.w3.org/2000/svg" viewBox="0 0 401 382" style="enable-background:new 0 0 401 382"><g style="fill:#010102"><path d="m156 8.5c3.3-1 6.9-1.7 10.1-.1 3.7 1.7 7.7 3.6 9.5 7.4 2.2 4.9 1.5 10.2.8 15.3-1.4-5.7-1.1-12.7-6.3-16.6-.4 1.1-.9 2.2-1.3 3.3-1.6 4-2.9 8-3.7 12.2-.2-1.4-.5-2.8-.7-4.2-.8 1.5-1.7 3-2.5 4.5-.9-3.1-1.5-6.3-1.6-9.5.3-2.1.5-4.3.6-6.5-5.1 4.8-7.3 12-7.7 18.9 0 1.1 0 2.3.1 3.5-3.9 3.2-8.8 4.3-13.6 4.9-.1 1.8-.2 3.6-.3 5.4 7.1-1.1 14-3.3 21.3-3.5 6.7-.1 13.4 0 20-.5-1.2-2-1.8-5.1-4.6-5.5-6.8-1.5-13.8.5-20.6-1.1.6-.8 1.1-1.6 1.7-2.5 2 .2 3.9.5 5.9.6.7 0 2 .1 2.6.1 1.9 0 3.7.1 5.6.2 2 .1 4 .4 6 .5 2.5.2 4.9.4 7.4.8-.1-.2-.2-.7-.3-1 1.3 4 2.3 8.2 3.8 12.2.3 2.1.2 4.3.2 6.4 2.5 1.4 5 2.9 7.4 4.5-1.3.2-2.5.3-3.8.5-.2 4.2-1.3 8.3-2 12.5-.3 2 1.2 3.5 2 5.1-2.3.5-4.6 1-6.9 1.6 1.6 2.1 3.2 4.2 4.8 6.3-2.2-.4-4.4-.8-6.6-1.2.2 2.1.4 4.3.4 6.4-.1 3.9-3.1 7.2-2.4 11.2.5 2.7 1 5.6 2.6 8 3.2 2.4 8.1 2.9 9.3 7.3-2.2-1.4-4.2-3.1-6.4-4.6-2.1-1.7-4.8.7-5.5 2.7.8 2.3 2.8 3.9 4.4 5.7-.6 1-1.2 2-1.8 3 1.9 3.4 3.8 6.8 5.6 10.2-1.2 1.7-2.4 3.4-3.6 5.1 2.9 1 6.1.9 9.1.4.4.7.9 1.4 1.3 2.1-1.3.8-2.7 1.6-4 2.5 1.7 1.7 4 3.1 4.7 5.5 1 3.2 1.4 6.5 1.9 9.8l-.8-.2c-2.4-.8-5-.7-7.3.3-6 2.2-12.3 3.5-18.4 5.6 1.3 1.5 2.2 3.9 4.4 4.3 3.2.7 6.5 1 9.7 1.5-2.9 2.4-6.4 3.9-10 5-2.9-3.6-4.8-7.7-6.3-12-2.7-5.3-5.7-11-11-14.2.1 4.6 2.2 8.7 5.2 12-1.3 1.4-2.5 2.9-3.7 4.4-1 1.1-1.8 2.3-3 3.3-2.7 1.2-5-1.4-6.7-3.2 2.3-.1 4.6-.1 6.8-.8 1.3-.9 2.2-2.2 3.3-3.4-1.5-.9-3.1-1.8-4.6-2.8-2.1 1.2-4.1 2.4-6.2 3.7-1-.6-2-1.2-3-1.8-3-3.3-5.7-6.8-8.4-10.3 4.5.5 9-.1 12.7-3 0-.8.1-2.4.1-3.2-4.2-2-8.6-.4-12.7.9-.5 1.1-1 2.2-1.5 3.3-3-5.6-4.8-11.7-7.5-17.5.7-5.2.6-10.5-.6-15.6 2.1-.2 4.2-.4 6.3-.5 5.2.1 10.4 0 15.4-1.8.4-6.8-1.4-13.4-1.1-20 .6.2 1.7.5 2.2.7.2 6.1 2.6 12 1.3 18.2-.3 1.6-.7 3.2-1 4.7 5.3 3.5 14.4 1.1 15.7-5.5 1.4-4.2.6-8.6-.1-12.8-2.6-.8-5.3-1.4-7.8-2.6-2.3-1.1-3.6-3.5-5-5.5 4.9.7 9.6 2.6 13.5 5.7 1.2-5.1 2.3-10.3 1.2-15.5-1-4.5-2.1-9-1.4-13.6 4.4 6.8 3.7 15 5.6 22.5 4.7-2.7 5.1-8.4 6.2-13 3.3-2.2 6.9-4.7 7.9-8.8 1.1-3.6-1.1-6.9-2.2-10.2-1.2-3-.7-6.3-.6-9.4-9.1-3.4-18.9-1.2-28-1.2-6.9.3-13.8 2-19.9 5.3 1.7.8 3.3 2.5 5.3 1.9 4.6-1.3 9-3.1 13.9-3.3 1.3 1.9 1.3 5.7 3.9 6 1.6-1 2.9-2.4 4.3-3.5-.2 1.4-.5 2.9-.5 4.4 1.2 2.4 3.1 4.2 4.8 6.2-.2.7-.3 1.4-.4 2.1-2.2-2.1-4.6-3.8-7-5.5-3.8 2.5-7 5.7-11 7.8-3.2 1.8-6.4-.9-9.3-2.1-2.2 2.9-4.6 5.8-5.8 9.3-1 2 .5 4.1 1.1 6 3.1-2.7 6.4-5.1 10.4-6.2 1.2-.3 2.7-1.1 3.8-.1 2.3 1.8 4.3 4 6.6 5.8 1.4.6 2.8 1.1 4.1 1.8 1 2 .6 4.3.7 6.5-2-1.7-4-3.5-6-5.2-1.6 3-3.5 6-6.3 8-.4-1.8-.8-3.6-1.2-5.4-5.6.7-10.2-3.2-14.4-6.3-1.9-4.7 2.1-9 3-13.4.5-5.6-.3-11.2-1-16.8-1-5.8 3-10.7 4.3-16 2.5-9.4 7-19 15.5-24.4m-7.3 13.5c-2.5 5-4.7 10.6-4.2 16.3 2.5-1.3 4.8-2.9 7-4.5-.7-1.9-1.3-3.7-1.9-5.6 1.9-2.8 3.1-6 3-9.5-1.4.9-3.2 1.6-3.9 3.3m.8 37.8c.4 1 .9 2 1.3 3.1.7.1 2.1.2 2.7.2 0-.8 0-2.3 0-3.1-1.3-.1-2.7-.1-4.1-.2m-8.4 18.4c.9 1.6 1.1 4.6 3.5 4.7 3.3 0 7 .5 10-1 .4-2.8-3.2-3.2-5-4.4-2.6 1.8-5.6 1.5-8.5.8m36.6 9.9c-2.2 3.5-4 7.1-5.4 11 1.9.4 4.7 1.9 6-.3 2.2-3.2 2.2-7.2 2.4-10.8-.8 0-2.3.1-3 .2m-4.6 19.3c-1.3 4.2-.5 8.7.6 12.9 1.4-.6 3.4-.5 4.1-2.2 1.8-3.7 2.7-7.9 2.5-12-.1-1.6-1.6-2.5-2.5-3.7-1.6 1.5-3.6 2.8-4.7 4.9m-40.6 10.5c1 1.7 1.7 3.7 3.4 4.8 2.4.6 5 0 7.4-.1-.2-2.3-.4-4.5-.5-6.8-3.6-.2-7.2.1-10.3 2.1m13.7-1c.9 3 2.1 5.9 3.7 8.7 2.5 4.4 2.6 9.5 3.6 14.4.8 0 2.4.1 3.2.1 1.2-3.3 0-6.6-.4-9.9-.4-5-4.1-8.8-6-13.3-1.3 0-2.7 0-4 0m14.9 2.6c1.8 2.3 4.8 2.8 7.5 3.5.5-2 .8-4 .5-6-2.7.8-5.3 1.6-8 2.5m-22.3 6.9c-1.8.2-4.1 0-5.2 1.7-.3 1.7.5 3.9 2.3 4.2 2.9.4 6 .4 8.8-.4 2.5-1.3 3.2-4.5 2.2-7-2.6.8-5.3 1.4-8 1.5m33 4.8c-2.1 1.3-3.6 4.8-1.1 6.5 3.6.1 7-1.3 10.5-2.1-.1 2.5-.6 5.1-.1 7.6.7 2.5 3.2 3.6 5.1 4.9.3-3.1.3-6.3-.8-9.3-1.4-3.9-2.3-8.1-4.5-11.7-3.6-1.3-6.6 2.1-9.2 4.1m-36.9 5.8c1 5.7 7.9 4.1 11.5 1.9 1.9-.8 4.6-3.3 1.8-4.8-4.6.2-9 1.6-13.3 2.9m24.6-.3c.7 1.9 1.4 3.8 2.1 5.6-2.3-.2-4.8-.6-6.6 1.1 4.2 2.6 8.9 4.6 13.9 4.5-1.3-4.2-4.9-7-7-10.8-.6-.1-1.8-.3-2.4-.4m11 12.4c-.5 2.4-.1 4.8 0 7.2 3.8-2.6 5-7.2 5-11.5-1.8 1.3-4 2.3-5 4.3m-25.4 5c1.3 1.7 2.5 4.4 5.1 3.8 3.4-.1 5.4-3.1 6.3-6-4-1.1-7.9.7-11.5 2.3m32-3.5c.4 1.7-.2 4.1 1.6 5.2 2.3.7 4.7-.2 6.3-1.9-2.1-2.1-5-2.8-7.9-3.2z"/><path d="m171 32.8c-1.2-3.6-1.2-7.3-.9-11 1.3 3.5 1.1 7.3.9 11"/><path d="m193 48.7c2.8.6 5.9.9 8.4 2.5 2.3 1.6 4.1 3.9 5.7 6.2 2.6 3.7 3 8.4 4.6 12.5 1.6.9 3.5 1.3 5.3 1.5.9.1 1.8.3 2.7.4-1 1.8-2.2 3.5-2.8 5.5-1.5 14.5 5.7 29.4 17.9 37-1.9 1.8-3.8 3.5-5.6 5.3 5.6 4.2 12.4.5 17.2-3.1-1.3-3.7-2.6-7.6-1.5-11.5l.3-1.1c1.6 1.9 3.3 4 3.3 6.6.3 5.8.8 11.7 2.8 17.2-2.2-1.4-4.3-3.2-6.8-3.8-3.3-.1-6.4 1.2-9.6 2-2-2.8-5.2-2.8-8.2-2.1-1.2-1.4-2.4-2.7-3.6-4.1-1.1.3-2.2.7-3.4 1.1.2 2.8-.3 6 1 8.6 4.2 5 11.3 4.3 16.8 6.5 1.2-.5 2.5-1.1 3.7-1.6.8.9 1.7 1.7 2.5 2.6 2.7-.9 5.3-1.7 8-2.4.9-.2 1.8-.4 2.7-.6.1 1.2.2 2.4.3 3.6-.3.3-.9.9-1.2 1.2-2.6 1.3-5.4 2.3-8.1 3.3.1 3.3-.5 6.7.9 9.8 1.3 1.4 3.3 1.6 5 2.4-.4-2.9-.8-5.9-1.1-8.9 2.1 3.3 4 6.9 4.1 10.9-3.5.1-7 0-10.5-.2-4.7-.4-9.3 1.1-13.9 2 0 .5 0 1.6-.1 2.1-1.1-.7-2.2-1.4-3.3-2.1-3.4-1.9-6.9-4.1-10.8-4.7-1.3.7-2.5 1.6-3.8 2.4-.3 0-.6 0-.9.1.6-4.9-.7-9.7-2.2-14.3-1.2-.4-2.4-.9-3.7-1.3.4-1.7.8-3.4 1.1-5.2-2-.9-4-1.8-5.9-2.7 1.1-1.6 2.2-3.1 3-4.8-.4-1.9-2.6-2.4-3.9-3.5-1.8-1-2.8-2.7-3.9-4.3 1.8.2 3.5.4 5.3.6.1-.5.4-1.5.5-2-1.4-.5-2.7-.9-4.1-1.4 1.5-2.1 4.2-4.1 3.7-7-.5-4.1-1.5-8.2-1.9-12.4-2.3 1-4.6 2-7 3 2.6-3.4 6-6 9.4-8.4-.9-1.2-1.7-2.4-2.6-3.5 3.2-4.2 5.5-9 6.8-14 .8-3.6 3.7-7.3 2.1-11-2.7-6.5-8.9-10.8-15.4-12.9.2-.7.3-1.5.5-2.2m15.9 33.4c-1.2 3.9-2.8 7.7-4.8 11.4-1.8 5.5-.5 11.5 1.6 16.7 2.2-.3 4.3-.9 6.2-2-1.4-7.6-.7-15.4-.6-23-.2-1.3-.6-3.6-2.5-3.1m-5 31.9c1.5 1.8 3.6 2.3 5.8 2.1-1.7 1.4-3.3 3.1-4 5.2-.9 3 .7 6 1.9 8.7 1.7 3.5 2.8 7.3 4.3 10.9.3-.1 1-.2 1.3-.2 1.7-3.4 2.9-7.3 1.7-11-1.1-3.7-1-7.6-.4-11.3-1-.7-2-1.4-3.1-2h.9c-.1-.7-.2-2.2-.2-3-2.8-.4-5.6-.3-8.2.8m10.2 30.5c-1.1 2.1.1 4.3.6 6.4 1.2 0 2.4.1 3.6.1 1.1-5.1 2.3-10 4-15-.4-.3-1.3-.8-1.8-1.1-2.3 3.1-4.9 6-6.5 9.6m9.9-6c-2 4.1-2.1 8.8-2.5 13.3 1.9 1.6 4.1 3.2 6.8 2.4-1.9-5.3-.8-10.9.1-16.3-1.5-.2-3.4-1.1-4.4.6m6.9 1.9c-.9 3.7-1.6 7.8-.4 11.6 1 2.8 4.2 3.1 6.7 3.2-1.7-4.3-1.7-8.8-1-13.3 1.2-3.2-4.7-4.5-5.3-1.5m8.6-.4c-.8 3.6-1.3 7.3-.1 10.9.7 0 2.1 0 2.8 0 .4-3.6.7-7.3.3-11-.8 0-2.3 0-3.1 0z"/><path d="m167 50.9c1.8-.6 3.5-1.2 5.3-1.8 3.1 3.4 6.3 7 7.2 11.6.7 4-.1 8.1.2 12.1-1.6.4-3.2.8-4.8 1.3 2-5 4.5-10.8 1.5-15.9-1.7-3.9-5.7-5.9-9.4-7.3"/><path d="m163 63c.4 4.1-.3 8.3-.4 12.4.1 1.9-1.8 2.8-3.2 3.7-.4-5.6-.4-11.7 3.5-16"/><path d="m193 126c1.3.7 2.5 1.4 3.8 2.2.1.7.2 2.1.3 2.8-2.1-.9-3.3-2.9-4.1-4.9"/><path d="m200 167c6.2-1 12.5-.6 18.6.8 3.2.6 5.1 3.5 6.5 6.1.3.9.7 1.8 1 2.6-3.8 3.5-7.4 7.8-8.4 13-.6 4.8.5 9.6.1 14.4-.4 5-.8 10-.4 15 4.1.4 8.3.4 12.4.2 1.8-4.1 3.5-8.3 3.4-12.8 0-6.9-2.1-13.5-3.1-20 1 .8 2.1 1.6 3.2 2.3 1.7 5.9 4.2 11.6 4.5 17.8.6 5.9.7 11.9 2 17.7 1.6 7.2.4 14.7 1.3 21.9.6 3.9-.1 8.4 2.6 11.8 3.1 4 4.4 9.2 3.8 14.2-1.7 3.5-5.7 6.1-5.7 10.4.3 6 1.9 11.9 1.8 18-.2 11.9 1.3 24-3.3 35.5-1.4 3.8-4.1 6.9-5.7 10.6.9 6.4 5 11.9 6.2 18.2.7 3.1-3.4 5.8-6.1 4.1-3.9-2.8-6.6-6.9-10.1-10 .1 3.1.9 6.1.8 9.2-.8 2.1-2.9 3.3-4.4 4.7-3.7-.5-7.3-1.3-10.9-2.1-3.4.6-6.5 2.3-10 2.4-5.9.3-11.8-.4-17.6.1-7.3-4.1-16.2-.7-23.8-4.1-2.9-3.2-4.6-7.8-4.3-12.2 1.9-3.9 6-6.7 10.3-7.2-1 2.6-2.5 5.1-3.1 7.9 0 2.6 4.1 3.3 5.6 1.5 3.9-3.7 7-8 10.5-12-6-3-12.2-6.3-16.4-11.7-2.1-3.7-2-8.2-1.8-12.4.8-7.1.9-14.3 2.6-21.3 1.7-6.4.8-13.2 2.2-19.7 1-5.4 1.7-10.8 2-16.3.9-10.2 2.9-20.4 1.4-30.6-.7-5-.5-10.2-2.7-14.9-1.1-2.6-2.8-5.1-2.5-8 .2-4 1.3-8.7 4.9-11 4.3-1.3 7.7 2.7 11.4 4.2.4-4 .2-8.2 2-11.8.8-2.2 2.3-4.4 2.2-6.8-1.5-3.8-3.9-7.2-5.7-10.8 1.9 1.4 3.8 2.8 5.8 4.2 6.6-2.9 10-9.9 16.7-12.7m3.4 2.9c-.7.8-1.4 1.6-2.1 2.3 1.9 3.3 2.8 7.1 3.1 10.9.6 0 1.9-.1 2.6-.1 1.6-4.5.6-10.3-3.6-13m-17 17.8c-3.4 5.9-2.6 12.8-2.9 19.3 0 5-.9 10.2.6 15 .8 0 2.4-.1 3.3-.1 2.1-4.3 1.1-9 1.4-13.6.2-5.7 1.5-11.4.8-17 0-1.9-1.9-2.7-3.2-3.7m5.8 2.4c-.9 2.9-.7 6-.8 9 0 6.7-.6 13.4-1.3 20 .8 0 2.3 0 3 0 1.1-2.3 2.6-4.5 2.5-7.2-.3-7.9 2.3-16-.7-23.8-1.3 0-2.4.7-2.8 1.9m6.1 5.7c1.7 1.7 3.4 3.4 5.1 5.1-1.7 1.8-4.8 3.2-4.3 6.1.1 3.8 4.5 4.9 7.1 6.8-2.6.3-6.2-1.1-7.9 1.6-.7 2.7 2.2 4.7 2.3 7.3.1 2.8-.1 5.6.1 8.4-1.3 1.6-2.6 3.1-3.8 4.7 1.7.6 3.4 1.1 5.1 1.7-2.2 1.8-4.2 3.7-6.2 5.7 2.8 3.8 7.8 3.1 11.9 3.3-1.3 4.3-6 1.8-9.2 1.9-1.8.7-1 2.7-.8 4.1.2 2.3 2.3 3.5 3.8 4.8-1.4 1.2-3.3 2.2-4.2 3.9.5 2 2.1 3.5 3.2 5.1-.3 1.4-.6 2.9-.8 4.3 2.1 1.4 3.9 3 5.4 5 1.6-.7 3.1-1.5 4.7-2.2 1.4.9 2.6 2.1 4.2 2.6 1.1-.8 2.1-1.7 3.1-2.6.9 1.7 1.7 3.3 2.6 5 1-1.4 2-2.8 3-4.1 2.4-.3 4.9-.6 7.3-1.1.6 1.2 1.2 2.4 1.8 3.6.5 0 1.5.1 2 .1.7-1.5 1.4-3.1 2.1-4.6 1.1.9 2.2 1.9 3.5 2.7 2.3-.6 4.3-1.9 6.3-3-.1-1.3-.2-2.5-.3-3.8-1.4.1-2.8.1-4.2.2-.1-1.3-.2-2.6-.3-3.8 1.3.1 2.7.1 4 .2-1.2-2.4-2.4-4.9-3.8-7.2-1 .6-2.1 1.2-3 2-.3 1.5-.2 3.1-.3 4.6-3.6-.5-7.6-1.9-10.8.7-4-.3-7.9-.5-11.9-1.1-1.4-.2-3.2-.5-3.7-2.1.2-3.3 1.6-6.5 1-9.8-.4-3.1-2-5.8-3.6-8.4.8-1.8 1.8-3.6 2.3-5.6-.5-1.8-1.6-3.3-2.6-4.9 1.8-.8 3.5-2 4.8-3.4-2.6-.9-5.3-1.8-7.9-2.7 2.3-1.5 4.7-2.8 7.3-3.8.8-3.7-.8-7-3.6-9.4 1.7-1.1 3.4-2.1 5.1-3.2-.2-1.6.3-3.5-.6-5-.9-.7-1.9-1.3-2.9-1.9 2.6-3 5.1-7 4.2-11.2-1.5-1.9-3.4-3.6-5.8-4.4-4.4 1.1-8.9 3.3-10.9 7.6m-32 10.4c-1.4 3.2-.7 6.7-.1 9.9.8 0 2.3.1 3 .1.9-2.8 1.9-5.5 2.9-8.3-.2 6.1 1.2 14.6 8 16.4 1.3-1.4-.3-2.9-.7-4.3-2.6-5.1-1-12.3-6.2-15.9-2.1-2.6-6-.5-7 2m2.8 12.7c.1 5.2 3.6 10 1.6 15.2 3.1-.7 6-2 8.5-4.1 2.5-2.1 6.1-.6 8.7-2.2 1.1-1 1.9-2.3 2.8-3.5-5.5-1-10.8.8-15.3 3.7-.7-2.5-1-5.2-2.5-7.4-1.2-.7-2.5-1.2-3.8-1.7m47.8 5.1c4.8 2.6 12.2 4.3 15.9-.8-3.8-.8-7.6-1.6-11.5-1.6-1.8-.2-3.1 1.4-4.4 2.4m-25.3 2.4c-2.5 1.4-.5 4.7 0 6.8 4 .4 2.6-4.9 2.9-7.4-.7.1-2.2.4-2.9.6m26.8 1.6c-1.3 5.8-3.4 11.8-1.9 17.8.8 3.9 1.1 7.9 1.3 11.8 3.2.7 6.6 1.8 9.9.8 3.5-1 7.6-2.5 8.8-6.3-1.4-2-3.7-3.2-5.1-5.3-.2-1.7-.1-3.5 0-5.3 1.8-.6 3.6-1.1 5.4-1.7.2-4-1.7-7.9-5-10.2-4.3-1.3-8.9-1.1-13.3-1.7m-40.6 8.2c1.4 1.3 3 2.5 4.7 3.4 0-2.3-.4-4.7-1-6.9-1.2 1.2-2.5 2.3-3.7 3.5m6.8 2.4c-.1 1.4-.1 2.8 0 4.1.7 1.6 2.7 2 4.1 2.8-.3-2.5-.8-4.9-1.2-7.4-.7.1-2.1.3-2.8.5m-12.9 2.1c-.7 7-.8 14-1.7 21-.6 4.4-.7 8.9-.7 13.4 0 4.8-2 9.4-2.4 14-.6 8.3-2.1 16.7-1 25-.9 5.8-2.5 11.6-1.1 17.5 3.1 3.6 8 1.3 11.7-.1-.6-6.4-2.8-12.4-4.3-18.5.6-1.5 1.3-3 1.8-4.5 1.5 6.8 2.9 14 7.7 19.3 1.3.1 2.6.1 3.8.2-.3-4.4-1.3-8.8-3.4-12.7-2.9-5.4-1.5-11.6-1.6-17.4.1-5.4-2.1-10.5-2.1-15.9-.2-5.2.7-10.5-.5-15.7.5-5 1-10.1.1-15-1-4-2.5-8.5-6.4-10.6m6.7 1c.3 4.1 1.3 8.2 3.1 11.9 4-3.5 1.5-10.3-3.1-11.9m12.2 7.1c-.7 3-1.2 6-1.6 9.1-1.8-.2-3.7-.4-5.5-.6.4 2.6.5 5.4 1.5 7.9-1.6.1-3.1.2-4.7.3.1 8.2.9 16.4 1.8 24.5.9 3.8 1.5 7.7 1.8 11.6-1.4 4.1-.1 8.4 2 12 1.9 3.3 2.8 7 4.6 10.4 1.2 1.6 3.3.3 4.8.1-.8-3.9-2.1-7.7-3.6-11.4-2.7-6.9-2.4-14.7-5.5-21.5-.3-3-1.2-5.9-1.8-8.8 2-4.6-.3-10 2.1-14.6 1.5 2.2 2.9 4.5 4.1 6.9 2.2-1.5 4.5-2.9 6.4-4.8-1.8-7.1-3-14.6-6.6-21m2.6 24.5c.3 1.9.9 3.8 2.1 5.4.4-1.8.8-3.6 1.3-5.4-.8 0-2.5 0-3.4 0m5.6.2c.2 3.7.8 7.8 4.4 9.9-.4-3.7-1.8-7.2-4.4-9.9m-6.5 5.2c.1 2.5.1 5.1 1.3 7.3.4-.1 1.2-.1 1.6-.2 2.1-2.9-.8-5.4-2.9-7.1m15.4.5c-2.2 1.3-.9 4.1-.7 6.1.8 4.3 4.4 7 7.4 9.8.2 3 .4 6.1.6 9 1 3 2.2 5.9 3.7 8.6.6.1 1.9.2 2.5.3 2.2-4.6 5-9 6.1-14 .7-5.2.1-10.5-.1-15.8-1.5-.5-3-1-4.5-1.5-1.4-.2-2.8-.4-4.3-.6-1.1.8-2.2 1.7-3.2 2.5-2.1-1.9-4.2-5-7.5-4.5m24 4c-1.9 7.7-2.3 15.7-4.5 23.4-1 4.3-2.6 8.4-3.5 12.8-.8 2.5.9 4.8 1.9 7 1.5-.8 3.5-1.4 3.8-3.3 1.8-5.9 3.4-11.9 4-18 .4-7.4 2.8-14.6 2-22-1.2.1-2.5.1-3.7.2m-43 6c2.9 9 4.1 18.6 8.8 26.9 2.8 5 4.2 12.2 10.4 14-.4-8.6-6.3-15.4-9.2-23-2.7-7.3-4.1-15-8.3-21.7-2.4-.9-2.1 2.5-1.7 3.9m52 1.6c-1.5 4.6-1.7 9.4-1.5 14.2.3 6.7-1.5 13.2-3.4 19.5-1.1 4.2-5.9 6.6-5.8 11.3 1 .4 2 .8 3.1 1.2 3-4.9 7-9.5 7.9-15.4.8-4.9.8-9.8 1.3-14.6.6-5.4.5-11-1.5-16m-33.7 22c1.1 1.8 2.2 3.7 3.3 5.6 3.9-2.3 3.1-6.9 2.8-10.7-2.2 1.6-4.2 3.3-6.2 5.1m-22.7 18.3c-.8 3.2 2.5 4.6 5 5.2.6-2.2 1-4.4 1.2-6.6-2.1.3-4.7-.5-6.2 1.4m11.6-.1c.6 2.4 1.5 4.8 2.6 7 1.7-1 3.4-2.1 5.2-3.2-1.9-2.5-4.8-3.5-7.8-3.9m27.7 1.4c-.8 1.5-1.6 2.9-2.2 4.6.7 4.1 3.2 7.6 5.3 11.1 1.3-1.7 2.6-3.4 3.8-5.1-1.9-3.8-3.5-7.9-6.9-10.6m-27 14.8c-.7 3 .5 6 1.2 8.9 2.9-1.3 5.9-2.8 7.7-5.6 1.3-4.7-6.6-7.9-8.8-3.4m-26.7 13c-2.6 1.9-5.9.8-8.9.9 2.1 3.9 6.7 4.7 10.6 5.5 2.6.4 6.4.9 7.5-2.2.4-2.1 1-5-1-6.4-3-1-5.8.6-8.2 2.2m19.9-2.7c-.1 1.4-.2 2.8-.3 4.1 1.4 0 2.9-.1 4.4-.1-1.1-1.6-2.5-3-4.1-4m12.3.7c-2.3 2.4-3.5 5.6-4.8 8.6 3.7-.3 7.3-.8 11-1.3.4-1.7 1-3.5.9-5.3-1.9-1.7-4.7-3.2-7.1-2z"/><path d="m204 239c.6-.2 1.7-.5 2.2-.7 0 .7.1 2.1.2 2.8-1 .4-1.9.8-2.9 1.1.2-1.1.4-2.1.5-3.2"/><path d="m172 301c-.9-14.9-1.1-30 2.8-44.8.2 1.5.4 3.1.7 4.6-.4 6.2-.3 12.4-.9 18.6-.4 3.9-.8 7.8-.7 11.8.1 3.4-.7 6.7-1.8 9.8"/></g><g style="fill:#80660a"><path d="m154 33c.4-6.9 2.6-14 7.7-18.9-.1 2.2-.3 4.4-.6 6.5-1.7 4.1-2.9 8.5-3 13-.6.8-1.1 1.7-1.7 2.5-.8-1-1.6-2-2.4-3.1"/><path d="m171 14.5c5.2 3.9 4.9 10.9 6.3 16.6.3 1.4.6 2.8.9 4.2-2-.2-4-.4-6-.5-.1-.5-.3-1.5-.4-2 .3-3.7.4-7.5-.9-11-.4-1.3-.8-2.6-1.3-4 .4-1.1.9-2.2 1.3-3.3"/><path d="m149 22c.7-1.7 2.4-2.4 3.9-3.3.1 3.4-1.1 6.7-3 9.5.6 1.9 1.3 3.7 1.9 5.6-2.3 1.7-4.6 3.2-7 4.5-.4-5.7 1.7-11.3 4.2-16.3"/><path d="m158 45.8c9.4 0 19-2.2 28 1.2-.1 3.1-.6 6.4.6 9.4 1 3.3 3.2 6.6 2.2 10.2-1.1 4-4.6 6.6-7.9 8.8-.1-.7-.4-2-.6-2.6-.3-4 .5-8.1-.2-12.1-.9-4.6-4.2-8.2-7.2-11.6-1.8.6-3.6 1.1-5.3 1.8-.8.4-1.6.8-2.4 1.3-1.4 1.2-2.8 2.5-4.3 3.5-2.6-.3-2.6-4.2-3.9-6 .3-1.3.5-2.5.8-3.8m18.7 6.1c1.1.4 2.2.9 3.3 1.3.2-1.3.4-2.6.6-3.8 1.2 0 2.4-.1 3.7-.1-1.1-.6-2.3-1.6-3.7-1.3-2 .2-2.7 2.5-3.8 3.9z"/><path d="m189 47c1.6.5 3.1 1 4.7 1.4-.2.7-.3 1.5-.5 2.2 6.5 2.1 12.7 6.4 15.4 12.9 1.6 3.8-1.3 7.4-2.1 11-1.2 5.1-3.6 9.9-6.8 14 .9 1.2 1.7 2.4 2.6 3.5-3.4 2.4-6.9 5-9.4 8.4 2.4-.9 4.7-1.9 7-3 .5 4.1 1.4 8.2 1.9 12.4.5 2.9-2.2 4.8-3.7 7 1.4.5 2.7.9 4.1 1.4-.1.5-.4 1.5-.5 2-1.8-.2-3.5-.4-5.3-.6 1.1 1.6 2.2 3.3 3.9 4.3 1.3 1.1 3.5 1.6 3.9 3.5-.8 1.7-2 3.2-3 4.8 2 .9 3.9 1.8 5.9 2.7-.4 1.7-.7 3.4-1.1 5.2 1.2.4 2.4.9 3.7 1.3 1.4 4.6 2.8 9.4 2.2 14.3-3.6 2.4-7.8 4.2-12 2.3-.5-3.3-.9-6.6-1.9-9.8-.7-2.4-3-3.8-4.7-5.5 1.3-.8 2.7-1.7 4-2.5-.4-.7-.9-1.4-1.3-2.1-3 .5-6.2.6-9.1-.4 1.2-1.7 2.4-3.4 3.6-5.1-1.8-3.4-3.7-6.8-5.6-10.2.6-1 1.2-2 1.8-3-1.6-1.8-3.7-3.4-4.4-5.7.7-2 3.4-4.4 5.5-2.7 2.2 1.5 4.2 3.2 6.4 4.6-1.2-4.4-6.1-4.9-9.3-7.3-1.6-2.3-2.2-5.2-2.6-8-.7-4 2.3-7.3 2.4-11.2.1-2.2-.2-4.3-.4-6.4 2.2.4 4.4.8 6.6 1.2-1.6-2.1-3.2-4.2-4.8-6.3 2.3-.6 4.6-1.1 6.9-1.6-.8-1.6-2.4-3.1-2-5.1.7-4.2 1.8-8.3 2-12.5 1.3-.2 2.5-.3 3.8-.5-2.4-1.6-4.9-3.1-7.4-4.5 0-2.1 0-4.3-.2-6.4m7.5 20.5c.3 1.7.7 3.3 1.1 5 .8 0 2.3 0 3 0-1.2-1.8-2.5-3.5-4.1-5m5.1 1.6c-1.6 1.4.8 3.6 2.1 1.9 1.6-1.4-.8-3.6-2.1-1.9m-3 8.7c-1.9.4-1.1 3.5.8 2.9 1.9-.4 1.1-3.6-.8-2.9m-4 1.5c-.1 1.5-.2 3-.3 4.6.8 0 2.5-.2 3.3-.2-1-1.5-2-2.9-3-4.4m-.7 6.5c.5 1.4.9 2.8 1.6 4 2.3.4 2.3-2.5 3.3-4-1.6 0-3.3 0-4.9 0m-2.4 5.9c-.8 1.8-1.6 3.5-2.1 5.4-.4 1.1-.3 3 1.3 2.5 1.2-2.3 2.1-4.8 3.1-7.2-.6-.2-1.7-.5-2.3-.7m-5.2 3.6c0 1.7 0 3.4.3 5.1 1 1.1 2.2 2 3.3 3-1.1-2.7-.7-6.6-3.6-8m9.3 13.4c-1.7.4-.8 3 .8 2.4 1.7-.4.8-3.1-.8-2.4m-2.5 17.4c.8 2.1 2 4 4.1 4.9-.1-.7-.2-2.1-.3-2.8-1.2-.7-2.5-1.5-3.8-2.2m.8 7.6c1.7 1.1 3.5 1.9 5.4 2.7 0-1.6 0-3.3 0-4.9-2.1.2-4.1.5-5.5 2.3m8.6 11.9c1 .6 2 1.2 3 1.8-.4-2-.9-3.9-1.4-5.8-.7 1.3-1.5 2.6-1.6 4m4 6.7c-1.8.4-1.1 3.6.7 3.3 1.8-.4 1.1-3.5-.7-3.3z"/><path d="m162 59c2.4 1.7 4.8 3.5 7 5.5 0 .3 0 .9-.1 1.2-.6 4.6.5 9.2 1.4 13.6 1.1 5.2-.1 10.5-1.2 15.5-3.9-3.1-8.6-4.9-13.5-5.7 1.5 2 2.7 4.4 5 5.5 2.5 1.2 5.2 1.8 7.8 2.6.7 4.2 1.4 8.7.1 12.8-1.3 6.7-10.4 9-15.7 5.5.4-1.6.7-3.1 1-4.7 1.3-6.1-1.1-12-1.3-18.2-.6-.2-1.7-.5-2.2-.7 0-.5-.1-1-.1-1.6 2.8-2 4.7-5 6.3-8 2 1.8 3.9 3.5 6 5.2-.1-2.2.3-4.5-.7-6.5-1.3-.7-2.7-1.2-4.1-1.8.7-.4 1.4-.8 2.1-1.1 1.3-1 3.3-1.8 3.2-3.7.1-4.1.8-8.3.4-12.4-.4-1.1-.9-2.2-1.4-3.3m4 20.8c-.6 3.3 0 6.7-.8 10 .8.3 1.7.7 2.5 1 .4-3.2 1.2-6.5 1-9.7-.6-1-1.6-1.5-2.8-1.2m-11.2 13.6c0 1.7-.1 3.4.1 5.1 1 .6 2.1 1.2 3.2 1.7.1-2.8.6-6.6-3.2-6.8m5.1 15.4c.1.9.1 2.7.2 3.7 1.3-.8 2.3-2.1 3.1-3.4-.8-.1-2.5-.2-3.3-.3z"/><path d="m178 88c.8 0 2.3-.1 3-.2-.3 3.7-.3 7.7-2.4 10.8-1.4 2.2-4.1.7-6 .3 1.4-3.9 3.2-7.5 5.4-11m-.8 5.5c-1.1.4-1.5 2.2-.6 3 1.7.7 2.4-3 .6-3z"/><path d="m204 114c2.6-1.1 5.4-1.2 8.2-.8.1.7.2 2.2.2 3h-.9c-.4 0-1.3 0-1.7 0-2.2.2-4.4-.3-5.8-2.1"/><path d="m133 118c3.1-2 6.7-2.3 10.3-2.1.2 2.3.3 4.5.5 6.8-2.5.2-5 .8-7.4.1-1.7-1.1-2.4-3.2-3.4-4.8"/><path d="m147 117c1.3 0 2.7 0 4 0 1.9 4.5 5.6 8.2 6 13.3.4 3.3 1.6 6.6.4 9.9-.8 0-2.4-.1-3.2-.1-1-4.8-1.2-10-3.6-14.4-1.5-2.8-2.8-5.6-3.7-8.7"/><path d="m220 121c1.1-.4 2.2-.7 3.4-1.1 1.2 1.4 2.4 2.7 3.6 4.1 3-.7 6.2-.6 8.2 2.1 3.1-.8 6.3-2.1 9.6-2 2.6.7 4.7 2.4 6.8 3.8.4 2.2.5 4.5.6 6.7-2.7.7-5.4 1.5-8 2.4-.8-.9-1.7-1.8-2.5-2.6-1.2.5-2.5 1.1-3.7 1.6-5.6-2.2-12.7-1.5-16.8-6.5-1.3-2.7-.8-5.8-1-8.6"/><path d="m139 127c2.8-.1 5.4-.7 8-1.5 1.1 2.5.4 5.7-2.2 7-2.8.8-5.9.8-8.8.4-1.9-.3-2.7-2.6-2.3-4.2 1.2-1.8 3.4-1.6 5.2-1.7m-2.7 3.1c2.6.3 5.2.3 7.8.2-2.5-1.2-5.3-1.8-7.8-.2z"/><path d="m136 137c4.3-1.3 8.7-2.7 13.3-2.9 2.8 1.5.1 4.1-1.8 4.8-3.5 2.2-10.4 3.8-11.5-1.9"/><path d="m215 145c1.5-3.6 4.1-6.5 6.5-9.6.4.3 1.3.8 1.8 1.1-1.7 4.9-3 9.9-4 15-1.2-.1-2.4-.1-3.6-.1-.5-2.1-1.7-4.3-.6-6.4m2.7-.9c-1.4.5-1.9 2.7-1 3.8 1.9.6 2.8-3.4 1-3.8z"/><path d="m225 139c1-1.6 2.9-.8 4.4-.6-.9 5.4-2 11-.1 16.3-2.7.8-4.9-.8-6.8-2.4.5-4.5.5-9.2 2.5-13.3m1 10.8c.6-2.9 1.1-5.9 1.3-8.9-1.8 2.6-4 6.1-1.3 8.9z"/><path d="m231 140c.6-3 6.6-1.7 5.3 1.5-.7 4.4-.7 9 1 13.3-2.6-.2-5.7-.4-6.7-3.2-1.2-3.7-.6-7.8.4-11.5m.6 3.9c-.9 2.1.8 4.1 1.5 5.9.8-2.8 1.4-5.8 1.6-8.7-1.2.7-2.8 1.2-3.2 2.8z"/><path d="m246 142c2.8-1 5.5-2 8.1-3.3-1.7 1.8-3.9 3.9-3.3 6.6.3 3 .7 5.9 1.1 8.9-1.7-.7-3.7-1-5-2.4-1.4-3-.8-6.5-.9-9.8"/><path d="m240 140c.8 0 2.3 0 3.1 0 .4 3.7.1 7.3-.3 11-.7 0-2.1 0-2.8 0-1.2-3.6-.7-7.3.1-10.9"/><path d="m139 145c4.1-1.3 8.6-2.9 12.7-.9 0 .8-.1 2.4-.1 3.2-3.6 2.9-8.2 3.5-12.7 3-.5-.7-1-1.4-1.5-2.1.5-1.1 1-2.2 1.5-3.3m2.1 3.6c2.9-.1 7.2.4 7.9-3.4-2.9.3-6.6.2-7.9 3.4z"/><path d="m146 154c3.6-1.6 7.5-3.3 11.5-2.3-.9 2.9-2.9 5.9-6.3 6-2.7.6-3.8-2-5.1-3.8"/><path d="m151 162c2.1-1.3 4.1-2.5 6.2-3.7 1.5.9 3.1 1.8 4.6 2.8-1 1.2-2 2.5-3.3 3.4-2.2.7-4.5.6-6.8.8-1.3-1.6-2.5-3.3-3.8-4.9 1 .6 2 1.2 3 1.7"/><path d="m198 196c1.9-4.3 6.5-6.5 10.8-7.6 2.3.8 4.2 2.5 5.8 4.4.9 4.2-1.6 8.1-4.2 11.2 1 .6 2 1.2 2.9 1.9.8 1.5.4 3.3.6 5-1.7 1-3.4 2.1-5.1 3.2 2.8 2.4 4.4 5.7 3.6 9.4-2.6 1-5 2.3-7.3 3.8 2.6 1 5.3 1.8 7.9 2.7-1.4 1.5-3 2.6-4.8 3.4.9 1.6 2 3.2 2.6 4.9-.5 1.9-1.5 3.7-2.3 5.6 1.6 2.6 3.3 5.3 3.6 8.4.6 3.3-.8 6.5-1 9.8.6 1.6 2.3 1.9 3.7 2.1 3.9.5 7.9.7 11.9 1.1 3.1-2.7 7.2-1.3 10.8-.7.1-1.6 0-3.1.3-4.6.9-.8 2-1.4 3-2 1.4 2.3 2.6 4.7 3.8 7.2-1.3-.1-2.7-.1-4-.2.1 1.3.2 2.5.3 3.8 1.4-.1 2.8-.1 4.2-.2.1 1.3.2 2.5.3 3.8-2.1 1.1-4 2.4-6.3 3-1.2-.8-2.3-1.8-3.5-2.7-.7 1.5-1.4 3.1-2.1 4.6-.5 0-1.5-.1-2-.1-.6-1.2-1.2-2.4-1.8-3.6-2.4.4-4.9.8-7.3 1.1-1 1.3-2 2.7-3 4.1-.9-1.7-1.8-3.3-2.6-5-1 .9-2 1.8-3.1 2.6-1.6-.5-2.9-1.7-4.2-2.6-1.6.7-3.1 1.5-4.7 2.2-1.5-2-3.3-3.7-5.4-5 .3-1.4.6-2.9.8-4.3-1.1-1.6-2.8-3.1-3.2-5.1.9-1.7 2.7-2.6 4.2-3.9-1.5-1.4-3.6-2.6-3.8-4.8-.2-1.4-1-3.4.8-4.1 3.1-.1 7.9 2.4 9.2-1.9-4.2-.3-9.1.5-11.9-3.3 2-2 4.1-3.9 6.2-5.7-1.7-.5-3.4-1.1-5.1-1.7 1.3-1.6 2.6-3.1 3.8-4.7-.1-2.8 0-5.6-.1-8.4-.1-2.6-3-4.6-2.3-7.3 1.7-2.7 5.3-1.3 7.9-1.6-2.6-1.8-7-2.9-7.1-6.8-.4-2.9 2.6-4.4 4.3-6.1-1.7-1.7-3.4-3.4-5.1-5.1m12 11.4c-.5 1.6 0 2.2 1.7 1.7.5-1.6 0-2.2-1.7-1.7m-6.5 31.6c-.2 1.1-.4 2.1-.5 3.2 1-.4 1.9-.8 2.9-1.1 0-.7-.1-2.1-.2-2.8-.6.2-1.7.5-2.2.7z"/><path d="m182 290c.2-2.7 1.2-5.2 2.3-7.6.7 2.9 1.5 5.8 1.8 8.8-.4 3.5-1.4 6.9-2.3 10.4-.3-3.9-1-7.8-1.8-11.6"/><path d="m195 347c2.2-4.6 10-1.4 8.8 3.4-1.8 2.8-4.8 4.2-7.7 5.6-.7-2.9-1.8-5.9-1.2-8.9"/></g><g style="fill:#422612"><path d="m176 15.8c3.8 6 6.3 12.7 8.9 19.3.1.2.2.7.3 1-2.4-.4-4.9-.6-7.4-.8-.3-1.4-.7-2.8-.9-4.2.7-5.1 1.4-10.4-.8-15.3"/><path d="m196 67.8c1.5 1.5 2.9 3.2 4.1 5-.8 0-2.3 0-3 0-.4-1.6-.7-3.3-1.1-4.9"/><path d="m217 71c2.8-.9 5.7-2.7 8.7-1.6 5.8 1.6 9.3 6.8 12.6 11.5 4.4 5.9 6.3 13.2 7.7 20.3-.2.7-.6 2.1-.7 2.8l-.3 1.1c-1.5-2.8-2.7-5.7-3.6-8.8-1-.3-2-.5-3-.7-2-.5-3.9-.9-5.9-1.4 2.4-.4 4.8-.8 7.3-1.1 0-7-4.7-12.6-9.2-17.4-2.7-3.1-6.9-3.7-10.8-4.3-.9-.1-1.8-.3-2.7-.4"/><path d="m194 80c1 1.5 2 2.9 3 4.4-.8 0-2.5.2-3.3.2.1-1.5.2-3.1.3-4.6"/><path d="m191 92c.6.2 1.7.5 2.3.7-1 2.4-2 4.9-3.1 7.2-1.6.5-1.7-1.5-1.3-2.5.5-1.9 1.4-3.6 2.1-5.4"/><path d="m160 109c.8.1 2.5.2 3.3.3-.8 1.3-1.8 2.5-3.1 3.4 0-.9-.1-2.7-.2-3.7"/><path d="m110 116c.4-.1 1.1-.4 1.5-.6 5.4 4.2 13.4 3.2 17.7 9-4.3-.3-8.2-2.1-11.6-4.5-1.7 1.3-3.5 2.5-5.2 3.8 3.5 2.9 6.9 5.8 9.9 9.2-5.3.4-9-4-11.5-8.1-1.7-2.6-1-5.9-.8-8.8"/><path d="m227 158c1.1.7 2.2 1.4 3.3 2.1.1 3.5-1.4 6.8-2.6 10-1.2-2.6-2.2-5.4-3.2-8.1.8-1.3 1.7-2.7 2.5-4"/><path d="m225 174c.4.3 1.4.8 1.8 1.1 3.8 3.4 4.9 8.7 6.4 13.3-1.1-.8-2.2-1.5-3.2-2.3-1.5-3.1-2.9-6.2-4.1-9.4-.3-.9-.7-1.8-1-2.6"/><path d="m173 291c.3 5.9.7 11.9.2 17.8-.5 1.5-1.2 3-1.8 4.5-.7-4.1-.6-8.3-.2-12.5 1.1-3.2 1.9-6.5 1.8-9.8"/></g><g style="fill:#810711"><path d="m169 17.8c.5 1.3.9 2.6 1.3 4-.3 3.7-.3 7.5.9 11 .1.5.3 1.5.4 2-1.9-.1-3.7-.1-5.6-.2-.2-1.5-.5-3-.7-4.5.8-4.2 2.1-8.3 3.7-12.2"/><path d="m158 33.9c.1-4.5 1.3-8.8 3-13 .2 3.2.7 6.4 1.6 9.5.4 1.4.8 2.7 1.3 4.1-2-.2-3.9-.4-5.9-.6"/><path d="m210 116c.4 0 1.3 0 1.7 0 1.1.6 2.1 1.3 3.1 2-.6 3.8-.7 7.7.4 11.3 1.2 3.7 0 7.7-1.7 11-.3.1-1 .2-1.3.2-1.6-3.6-2.6-7.3-4.3-10.9-1.2-2.7-2.8-5.7-1.9-8.7.8-2.1 2.3-3.8 4-5.2"/><path d="m172 131c2.6-2 5.5-5.4 9.2-4.1 2.2 3.6 3.1 7.8 4.5 11.7 1.1 3 1.1 6.2.8 9.3-2-1.3-4.5-2.4-5.1-4.9-.5-2.5 0-5 .1-7.6-3.5.8-6.9 2.2-10.5 2.1-2.5-1.7-1-5.2 1.1-6.5"/><path d="m191 158c2.3-.9 4.9-1.1 7.3-.3.4 2.9.7 5.8 1.2 8.6-6.6 2.9-10 9.9-16.7 12.8-1.9-1.4-3.8-2.8-5.8-4.2l-.4-.6c3.6-1.1 7.1-2.5 10-5-3.2-.5-6.5-.8-9.7-1.5-2.2-.4-3.1-2.8-4.4-4.3 6.1-2.1 12.4-3.4 18.4-5.6"/><path d="m171 241c3.9 2.1 5.4 6.5 6.4 10.6.9 5 .3 10.1-.1 15-.8-2-1.8-4-2.6-6-.2-1.6-.4-3.1-.7-4.6-3.9 14.6-3.6 29.9-2.8 44.9-.3 4.1-.5 8.3.2 12.5 1.5 6.2 3.7 12.2 4.3 18.5-3.6 1.3-8.6 3.7-11.7.1-1.4-5.9.2-11.7 1.1-17.5-1.1-8.4.4-16.7 1-25 .4-4.8 2.4-9.3 2.4-14 0-4.5.1-8.9.7-13.4 1-7 1-14 1.7-21"/><path d="m180 265c1.6-.1 3.1-.2 4.7-.3.5.9 1 1.8 1.6 2.7-2.3 4.6-.1 9.9-2.1 14.6-1.1 2.4-2.1 4.9-2.3 7.6-.9-8.1-1.7-16.3-1.8-24.5"/><path d="m231 283c1.2-.1 2.4-.1 3.7-.2.8 7.4-1.6 14.6-2 22-.5 6.1-2.2 12.1-4 18-.3 1.9-2.3 2.5-3.8 3.3-1-2.2-2.7-4.5-1.9-7 .9-4.3 2.5-8.5 3.5-12.8 2.2-7.6 2.6-15.6 4.5-23.3"/><path d="m186 291c3.1 6.8 2.8 14.6 5.5 21.5 1.5 3.7 2.9 7.4 3.6 11.4-1.6.1-3.6 1.5-4.8-.1-1.8-3.3-2.7-7.1-4.6-10.4-2.1-3.6-3.4-8-2-12 .9-3.4 1.9-6.8 2.3-10.3"/><path d="m239 291c2 5.1 2.1 10.7 1.5 16-.6 4.9-.6 9.8-1.3 14.6-1 5.8-5 10.4-7.9 15.4-1-.4-2-.8-3.1-1.2-.1-4.7 4.7-7 5.8-11.3 1.9-6.3 3.7-12.9 3.4-19.5-.2-4.8 0-9.6 1.5-14.2"/><path d="m195 331c3 .4 5.9 1.4 7.8 3.9-1.7 1.1-3.4 2.2-5.2 3.2-1.2-2.2-2.1-4.6-2.6-7"/><path d="m168 360c2.4-1.6 5.2-3.2 8.2-2.2 2 1.4 1.5 4.3 1 6.4-1.1 3.1-4.9 2.6-7.5 2.2-3.9-.8-8.6-1.6-10.6-5.5 2.9-.1 6.3 1 8.9-.9"/><path d="m188 358c1.7 1 3.1 2.4 4.1 4-1.5 0-2.9.1-4.4.1.1-1.4.2-2.8.3-4.1"/><path d="m201 358c2.5-1.2 5.3.4 7.1 2 .1 1.8-.5 3.5-.9 5.3-3.7.6-7.3 1.1-11 1.3 1.3-3 2.5-6.2 4.8-8.6"/></g><g style="fill:#726434"><path d="m162 30.4c.8-1.5 1.7-3 2.5-4.5.3 1.4.5 2.8.7 4.2.2 1.5.4 3 .7 4.5-.7 0-2-.1-2.6-.1-.4-1.4-.9-2.7-1.3-4.1"/><path d="m150 59.8c1.3.1 2.7.1 4.1.2 0 .8 0 2.3 0 3.1-.7-.1-2.1-.2-2.7-.2-.5-1-.9-2.1-1.4-3.1"/><path d="m142 78c2.9.7 6 1 8.5-.8 1.8 1.2 5.4 1.7 5 4.4-3.1 1.6-6.7 1-10 1-2.4-.1-2.5-3.1-3.5-4.7"/><path d="m246 102c1.4 3 3.1 6 3.5 9.3 1 5.3 0 11.2 3.4 15.7 2.4 3.2 3.5 7.3 2 11.2-.1-1.2-.2-2.4-.3-3.6-.9.2-1.8.4-2.7.6-.1-2.2-.2-4.5-.6-6.7-2-5.5-2.5-11.4-2.8-17.2 0-2.7-1.7-4.7-3.3-6.6.2-.7.6-2.1.7-2.8"/><path d="m174 107c1-2 3-3.3 4.7-4.9.9 1.2 2.4 2.1 2.5 3.7.2 4.1-.7 8.3-2.5 12-.7 1.7-2.7 1.6-4.1 2.2-1-4.2-1.9-8.7-.6-12.9m1.4 8.1c4.4-1.3 3.2-6.5 3-10-3.1 2.4-3.3 6.3-3 10z"/><path d="m162 120c2.7-.8 5.3-1.6 8-2.5.3 2 0 4-.5 6-2.7-.8-5.6-1.3-7.5-3.6"/><path d="m160 149c5.4 3.1 8.4 8.8 11 14.2-.6-1-1.2-1.9-1.8-2.8-2.7 1.5-5.5 3-7.8 5.1 1.2-1.5 2.4-3 3.7-4.4-3-3.3-5.1-7.5-5.2-12"/><path d="m169 219c1.3.5 2.6 1 3.8 1.7 1.5 2.2 1.8 4.9 2.5 7.4 4.6-2.9 9.9-4.7 15.3-3.7-.9 1.2-1.7 2.5-2.8 3.5-2.6 1.7-6.3.2-8.7 2.2-2.5 2.1-5.4 3.4-8.5 4.1 1.9-5.2-1.6-10-1.6-15.2"/><path d="m193 273c.8 0 2.5 0 3.4 0-.4 1.8-.8 3.6-1.3 5.4-1.3-1.5-1.8-3.4-2.1-5.4"/><path d="m198 273c2.5 2.7 3.9 6.2 4.4 9.9-3.5-2.1-4.2-6.2-4.4-9.9"/></g><g style="fill:#7f3809"><path d="m154 33c.8 1 1.6 2.1 2.4 3.1 6.8 1.6 13.8-.3 20.6 1.1 2.8.3 3.4 3.5 4.6 5.5-6.7.5-13.4.4-20 .5-7.2.1-14.2 2.3-21.3 3.5.1-1.8.2-3.6.3-5.4 4.8-.5 9.7-1.7 13.6-4.9 0-1.2-.1-2.3-.1-3.5"/><path d="m138 51c6.1-3.3 13-5 19.9-5.3-.3 1.3-.5 2.5-.8 3.8-4.8.2-9.3 2-13.9 3.3-2 .6-3.6-1.1-5.3-1.9"/><path d="m165 52c.8-.5 1.6-.9 2.4-1.3 3.8 1.4 7.7 3.4 9.4 7.3 3 5.1.5 11-1.5 15.9 1.6-.4 3.2-.8 4.8-1.3.1.7.4 2 .6 2.6-1.1 4.7-1.5 10.4-6.2 13-1.9-7.5-1.2-15.8-5.6-22.5 0-.3 0-.9.1-1.2.1-.7.3-1.4.4-2.1-1.7-2-3.6-3.8-4.8-6.2-.1-1.5.2-2.9.5-4.4"/><path d="m151 67c4-2.2 7.3-5.4 11-7.9.5 1.1.9 2.2 1.3 3.3-3.9 4.5-3.9 10.5-3.5 16-.7.4-1.4.8-2.1 1.1-2.4-1.7-4.3-4-6.6-5.8-1.1-1-2.6-.2-3.8.1-4 1.1-7.4 3.5-10.4 6.2-.6-1.9-2.1-4-1.1-6 1.2-3.5 3.6-6.3 5.8-9.3 2.9 1.2 6.1 3.9 9.3 2.1"/><path d="m120 112c5.5-.7 10.8 1.7 16.3 1.9-2.1.1-4.2.3-6.3.5 1.3 5.1 1.3 10.4.6 15.6-2.8.9-5.6 1.7-8.6 2-3-3.4-6.5-6.3-9.9-9.2 1.7-1.3 3.5-2.5 5.2-3.8 3.5 2.4 7.4 4.2 11.6 4.5-4.3-5.7-12.3-4.8-17.7-9 2.9-1.1 5.8-2.3 8.9-2.5"/><path d="m160 137c.6.1 1.8.3 2.4.4 2 3.8 5.7 6.6 7 10.8-5 .1-9.7-1.9-13.9-4.5 1.8-1.8 4.3-1.3 6.6-1.1-.7-1.9-1.4-3.8-2.1-5.6"/><path d="m171 149c1.1-2 3.3-3 5-4.3 0 4.4-1.3 8.9-5 11.5-.1-2.4-.5-4.8 0-7.2"/><path d="m178 151c2.9.4 5.7 1.2 7.9 3.2-1.6 1.8-3.9 2.7-6.3 1.9-1.8-1.1-1.2-3.4-1.6-5.2"/><path d="m212 156c1.2-.8 2.4-1.7 3.8-2.4 3.9.6 7.4 2.8 10.8 4.7-.8 1.3-1.7 2.7-2.5 4 1 2.7 2 5.4 3.2 8.1-.4 1.4-.7 2.9-1 4.4-.5-.3-1.4-.8-1.8-1.1-1.4-2.7-3.3-5.6-6.5-6.1-6-1.4-12.4-1.8-18.6-.8-.4-2.9-.8-5.8-1.2-8.6l.8.2c4.2 1.9 8.5.1 12-2.3.3 0 .6-.1.9-.1"/><path d="m203 170c4.2 2.8 5.2 8.6 3.6 13-.6 0-1.9.1-2.6.1-.3-3.8-1.2-7.6-3.1-10.9.7-.8 1.4-1.6 2.1-2.3"/><path d="m186 188c1.3 1 3.1 1.8 3.2 3.7.7 5.7-.6 11.4-.8 17-.3 4.5.7 9.3-1.4 13.6-.8 0-2.4.1-3.3.1-1.5-4.9-.7-10-.6-15 .3-6.5-.5-13.4 2.9-19.4"/><path d="m192 190c.4-1.2 1.5-1.9 2.8-1.9 3.1 7.7.4 15.9.7 23.8.1 2.6-1.3 4.9-2.5 7.2-.8 0-2.3 0-3 0 .7-6.7 1.3-13.3 1.3-20 .1-3-.1-6.1.8-9"/><path d="m166 206c1-2.6 4.9-4.6 7-2.1 5.3 3.7 3.6 10.8 6.2 15.9.4 1.4 2.1 2.9.7 4.3-6.9-1.8-8.3-10.3-8-16.4-1 2.8-1.9 5.5-2.9 8.3-.8 0-2.3-.1-3-.1-.6-3.3-1.4-6.8 0-9.9"/><path d="m217 224c1.3-1 2.6-2.6 4.4-2.4 3.9 0 7.7.8 11.5 1.6-3.8 5-11.2 3.4-15.9.8"/><path d="m191 226c.7-.2 2.2-.4 2.9-.6-.3 2.4 1 7.7-2.9 7.4-.4-2.1-2.4-5.4 0-6.8"/><path d="m177 236c1.2-1.2 2.5-2.4 3.7-3.5.6 2.3 1 4.6 1 6.9-1.7-.9-3.3-2.1-4.7-3.4"/><path d="m184 239c.7-.1 2.1-.3 2.8-.5.5 2.4.9 4.9 1.2 7.4-1.4-.8-3.3-1.2-4.1-2.8-.1-1.4 0-2.8 0-4.1"/><path d="m178 242c4.7 1.6 7.1 8.4 3.1 11.9-1.9-3.7-2.8-7.7-3.1-11.9"/><path d="m190 249c3.5 6.5 4.8 14 6.6 21-1.9 1.9-4.2 3.3-6.4 4.8-1.2-2.4-2.6-4.6-4.1-6.9-.6-.9-1.1-1.8-1.6-2.7-1-2.5-1.1-5.3-1.5-7.9 1.8.2 3.7.4 5.5.6.4-3.1.9-6.1 1.6-9.1"/><path d="m174 279c.7-6.2.5-12.4.9-18.6.8 2 1.8 4 2.6 6 1.2 5.1.2 10.4.5 15.7-.1 5.4 2.2 10.5 2.1 15.9.1 5.8-1.3 12 1.6 17.4 2.1 3.9 3.1 8.3 3.4 12.7-1.3-.1-2.6-.1-3.8-.2-4.8-5.3-6.2-12.6-7.7-19.3.5-5.9.1-11.9-.2-17.8-.1-3.9.2-7.9.7-11.8"/><path d="m192 279c2.1 1.7 5 4.2 2.9 7.1-.4.1-1.2.1-1.6.2-1.2-2.3-1.2-4.8-1.3-7.3"/><path d="m207 279c3.3-.5 5.4 2.5 7.5 4.5 1.1-.8 2.2-1.7 3.2-2.5 1.4.2 2.8.4 4.3.6-.8 2.6-.9 5.4-.2 8 1.1 4.6 1 9.4.4 14-2.6.1-5.3.2-7.9.3-.3-3-.5-6-.6-9-2.9-2.8-6.6-5.5-7.4-9.8-.2-2-1.5-4.8.7-6.1"/><path d="m188 289c-.4-1.4-.7-4.9 1.7-3.9 4.3 6.6 5.7 14.4 8.3 21.7 2.9 7.8 8.8 14.6 9.2 23-6.2-1.9-7.6-9-10.4-14-4.7-8.4-5.8-18-8.8-26.9"/><path d="m206 313c2-1.8 4-3.6 6.2-5.1.3 3.8 1.1 8.4-2.8 10.7-1.1-1.9-2.2-3.7-3.3-5.6"/><path d="m183 331c1.5-1.9 4.2-1.1 6.2-1.4-.3 2.2-.7 4.4-1.2 6.6-2.5-.6-5.8-2-5-5.2"/><path d="m222 333c3.4 2.7 5 6.9 6.9 10.6-1.2 1.7-2.5 3.4-3.8 5.1-2-3.6-4.5-7-5.3-11.1.5-1.6 1.4-3.1 2.2-4.6"/></g><g style="fill:#f6c51f"><path d="m176 51.9c1.1-1.4 1.8-3.7 3.8-3.9 1.4-.4 2.5.6 3.7 1.3-1.2 0-2.4.1-3.7.1-.2 1.3-.4 2.6-.6 3.8-1.1-.4-2.2-.8-3.3-1.3"/><path d="m201 69c1.3-1.7 3.6.5 2.1 1.9-1.3 1.7-3.6-.5-2.1-1.9"/><path d="m198 78c1.9-.6 2.7 2.5.8 2.9-1.9.6-2.7-2.5-.8-2.9"/><path d="m166 80c1.2-.2 2.1.2 2.8 1.2.1 3.3-.6 6.5-1 9.7-.8-.3-1.7-.7-2.5-1 .8-3.3.1-6.7.8-9.9"/><path d="m194 86c1.6 0 3.3 0 4.9 0-.9 1.5-.9 4.4-3.3 4-.7-1.3-1.1-2.7-1.6-4"/><path d="m177 94c1.8.1 1.1 3.7-.6 3-.9-.8-.5-2.6.6-3"/><path d="m155 94c3.8.2 3.4 4 3.2 6.8-1.1-.5-2.1-1.1-3.2-1.7-.2-1.7-.1-3.4-.1-5.1"/><path d="m186 96c2.9 1.5 2.5 5.4 3.6 8-1.1-1-2.3-1.9-3.3-3-.3-1.7-.3-3.4-.3-5.1"/><path d="m175 116c-.4-3.6-.1-7.5 3-10 .3 3.4 1.4 8.7-3 10"/><path d="m195 109c1.6-.7 2.5 2 .8 2.4-1.6.7-2.5-1.9-.8-2.4"/><path d="m137 130c2.5-1.6 5.3-1.1 7.8.2-2.6.1-5.2.1-7.8-.2"/><path d="m193 134c1.3-1.7 3.4-2.1 5.5-2.3 0 1.6 0 3.3 0 4.9-1.9-.7-3.7-1.6-5.4-2.7"/><path d="m226 149c-2.7-2.8-.4-6.3 1.3-8.9-.2 3-.7 6-1.3 8.9"/><path d="m202 146c.1-1.5.9-2.8 1.6-4 .5 1.9 1 3.9 1.4 5.8-1-.6-2-1.2-3-1.8"/><path d="m232 144c.3-1.6 1.9-2.1 3.2-2.8-.2 3-.8 5.9-1.6 8.7-.7-1.9-2.4-3.8-1.5-5.9"/><path d="m217 144c1.9.4.9 4.5-1 3.8-.9-1.1-.4-3.3 1-3.8"/><path d="m141 148c1.4-3.2 5.1-3 7.9-3.4-.7 3.8-5 3.2-7.9 3.4"/><path d="m206 152c1.8-.3 2.4 2.8.7 3.3-1.8.3-2.5-2.8-.7-3.3"/><path d="m210 207c1.6-.5 2.2 0 1.7 1.7-1.6.5-2.2 0-1.7-1.7"/></g><g style="fill:#7e0404"><path d="m220 71.8c3.8.6 8 1.2 10.8 4.3 4.5 4.8 9.2 10.4 9.2 17.4-2.4.4-4.9.8-7.3 1.1-.5 1.2-1 2.3-1.5 3.5.9.8 1.8 1.7 2.7 2.5 1.6-1.5 3.1-3.1 4.7-4.7 1 .2 2 .5 3 .7.9 3 2.1 6 3.6 8.8-1.1 3.9.2 7.8 1.5 11.5-4.8 3.6-11.6 7.2-17.2 3.1 1.9-1.8 3.7-3.6 5.6-5.3-12.3-7.9-19.4-22.8-17.9-37 .6-2 1.8-3.8 2.8-5.6"/><path d="m209 82c1.9-.6 2.2 1.7 2.5 3.1-.1 7.7-.8 15.5.6 23-1.9 1.1-4 1.7-6.2 2-2.2-5.2-3.5-11.2-1.6-16.7 1.9-3.6 3.5-7.4 4.8-11.4"/><path d="m218 189c1-5.2 4.6-9.5 8.4-13 1.2 3.2 2.6 6.3 4.1 9.4.9 6.8 3 13.4 3.1 20 .1 4.5-1.7 8.8-3.4 12.8-4.2.3-8.3.2-12.4-.2-.3-5 0-10 .4-15 .4-4.8-.7-9.6-.1-14.4"/><path d="m218 228c4.4.6 9 .4 13.3 1.7 3.3 2.3 5.1 6.2 5 10.2-1.8.6-3.6 1.2-5.4 1.7-.1 1.7-.2 3.5 0 5.3 1.4 2 3.6 3.3 5.1 5.3-1.2 3.9-5.3 5.4-8.8 6.3-3.3.9-6.6-.1-9.9-.8-.2-4-.5-7.9-1.3-11.8-1.5-6 .6-12 1.9-17.8"/><path d="m222 282c1.5.5 3 1 4.5 1.5.2 5.2.8 10.5.1 15.8-1.1 5-3.9 9.5-6.1 14-.6-.1-1.9-.2-2.5-.3-1.4-2.8-2.7-5.7-3.7-8.6 2.6-.1 5.3-.2 7.9-.3.6-4.7.7-9.4-.4-14-.7-2.7-.6-5.4.2-8"/></g></svg>