<svg xmlns="http://www.w3.org/2000/svg" viewBox="0 0 401 382" style="enable-background:new 0 0 401 382"><g style="fill:#fffffe"><path d="m315 240c1-1.5 3.5.1 2.3 1.6-1 1.5-3.5-.1-2.3-1.6"/><path d="m270 245c1-1.4 3.5.2 2.4 1.7-1 1.4-3.6-.2-2.4-1.7"/><path d="m279 245c.7-1 2.9-.8 3 .6-.1 2.1-4.1 1.4-3-.6"/></g><g style="fill:#7e7a60"><path d="m187 106c4.5-3.2 9.7-5.3 15-6.6.4 1.6.9 3.2 1.3 4.8 2.8.7 5.6 1.7 8.5 1.9 3.3-.1 6.4-1.6 9.7-1.7 2.2 0 4 1.5 5.6 2.8-2.3-.8-4.8-1.5-7.2-2.1.7 1.4 1.4 2.8 2.1 4.1-4 3.4-8.4 6.3-13.2 8.5 3.3 1 6.8.8 9.8-1 .6 2.6 1 5.3 2.2 7.6 1.4-.2 2.7-.6 4.1-.9-.1-1.8-1.3-4 .1-5.5 1.2-1.2 3.3-2.7 4.9-1.3 4.8 2.8 8.3 7.4 10.9 12.3.1-2.3.3-4.7.4-7 .3 2.8.4 5.6 0 8.3-2.1.5-4.1 1.2-6.2 1.8 1.2.7 2.5 1.3 3.7 2 .8-.9 1.6-1.9 2.3-2.8-.6 4 .1 8 1.2 12 2.2 6.9-1.7 14.8-8 18-4.1 2.6-9 2.2-13.6 2.4h-.9c.4-.4 1.1-1.1 1.5-1.4 3.6 0 7.4.5 10.8-1.2 3.6-1.9 7.3-4.6 8.5-8.7 1.7-6 0-12.2-1.7-18-3.4 5.5-6.2 12-12.8 14.4-.9-2.2-1.9-4.3-2.8-6.4.1-1.2.1-2.3.2-3.5-1.9 1.7-3.8 3.5-5.8 5.2 1.7.2 3.3.5 5 .7-.1 1.5-.2 3-.2 4.5-3.5-1.7-7.3-3.5-9.6-6.8 1.8-.9 3.7-1.6 5.5-2.4-1.8-1.3-3.7-2.5-5.6-3.5-2 1.1-3 3.2-4.4 4.9-2.1-.6-4.2-1.4-6.4-1.6-1.8.7-3.4 1.9-5.1 2.9-.2-.4-.7-1.3-1-1.7 2.3-2.3 4.4-4.7 6-7.6-2.8 1.3-5.3 3.1-7.9 4.7-3.1 2.2-6.6-.9-9.7-1.8.8-.3 2.4-1 3.3-1.3-1.1-1-2.2-2.1-3.2-3.1-.3 1.1-.7 2.1-1 3.2-3.6 1.5-7 3.5-10.7 4.6-4.4.3-9.2-3.3-9.2-7.9 1.2-4.8 6-7.4 10.5-8.4-2 2.7-5.4 4.9-6 8.4.2 3.8 4.3 4.4 7.3 4.7-.8-2.1-1.6-4.3-2.3-6.4 4.5.7 9.2 1.2 13.3-1.1 2.4 1.5 4.8 3.4 7.5 4.4 1.5-.1 2.1-1.7 2.9-2.7 1.8-2.7 3.8-5.3 6.1-7.5-1.7.1-3.3.2-5 .3-.6 1.8-1.2 3.5-2 5.2-2.3 1.2-5 .9-7.5 1.1 4.8-5.9 9.9-11.5 14-17.9 1.9 1.3 4.1 2.1 6.4 2.4-1.6-1.2-3.2-2.4-4.8-3.6 1-1.6 1.9-3.1 2.9-4.7-1.5.1-3 .2-4.5.4-.5-2.2-.9-4.3-1.4-6.4-3.3 1.6-6.5 3.3-9.5 5.5 2.9 1.8 6.1 3.1 9.4 4-3 3.6-5.3 7.7-8.5 11-3.9.7-7-2.1-7.9-5.7-.4-.3-1.1-1-1.5-1.3-.7 2-1.4 4-2.2 5.9 2.9.4 5.8.8 8.7 1.3-1.3 3.3-3.1 6.9-6.8 8-3.1 1.8-6-1.1-8.5-2.6 2.1-1.8 4.2-3.5 6.2-5.3-3.5 0-7.1.1-10.6.8 3-1.1 6.2-1.7 9.1-2.9 3.3-3.9 4.1-9.4 8.2-12.7m.5.4c-1.4 1.4-1.6 3.6-2.2 5.4 2.4-1.4 4.5-3.3 6.3-5.5-1.4-.1-3-.9-4.1.1m21.7 6.5c3.6-.7 7.9-2.4 8.6-6.4-3.7.3-7.6 2.6-8.6 6.4m-22.9 2.7c2.4-.9 4.9-1.8 7.4-2.5-.3-.5-.9-1.5-1.2-2-2.6.6-5 2-6.2 4.5m14.2 5c2.3-.4 4.4-1 5.7-3-2.5-.2-4.8.4-5.7 3m27 1.9c1.8.7 3.6 1.3 5.4 2-.7-1.5-1.4-2.9-2.2-4.4-1.1.8-2.2 1.6-3.3 2.4m-21-1c-.1 3 .2 6 .7 9 .8-.3 1.6-.5 2.5-.8-.6-2.9-1.6-5.7-3.1-8.2m18.6 6.5c1.3 1 2.7 2 4 3 1-.3 2-.6 3-.9.1-.4.4-1.3.5-1.8-2-.3-4-.7-6-1.1-.5.3-1 .5-1.5.8m10-1.3c-1.7.5-.8 3.1.8 2.4 1.7-.4.8-3.1-.8-2.4m-17.2 1c0 .8.1 2.3.2 3 1.4-.9 2.7-1.8 4.1-2.8-1.4-.1-2.8-.2-4.3-.3m-14.8 2.2c-1.2 1.5 1.4 3.1 2.4 1.6 1.2-1.5-1.4-3.1-2.4-1.6m12 1.7c0 .8 0 2.3 0 3.1 2.9.1 5.8-.2 8.6.1 1.4 1.2 2.4 2.6 3.6 4 .2-2.5.5-5 .7-7.4-2.5.4-5 .9-7.4 1.6-1.8-.4-3.6-.9-5.5-1.3m-48.7 2.3c-.5 1.4 0 1.9 1.4 1.5.5-1.4 0-1.9-1.4-1.5m37 .9c-1 1.3 1.2 2.9 2.2 1.6 1-1.3-1.2-2.9-2.2-1.6m27.8 7.5c-1.4.2-3.2 1.7-2.6 3.2 1.5.8 4.3-2.2 2.6-3.2z"/><path d="m181 133c.2 3.3 3-1.5 0 0"/><path d="m196 106c.4-2.2 3-1.7 4.6-2.4-.4 1.7-.8 3.3-1.2 5-1.3-.7-3.1-.9-3.3-2.6"/><path d="m302 109c11-3.1 22.6-3.2 33.9-1.9 2.8 1.1 4.4 3.9 6.2 6.2-2.5-2-5-4-7.5-6-6.5 2.7-13.2-1.2-19.8.5-4.1.9-8.2 1.7-12.3 2.8-3.7.9-5.7 4.3-8.1 6.9-2.5 3.1-5.8 5.4-9.1 7.5-1.2-4.3-2.5-8.6-4.5-12.6.7.2 1.4.3 2 .4 1.1 3.4 2.4 6.7 4 9.8 2-2 3.9-4 5.8-6-.8-.9-1.6-1.7-2.4-2.6 4.5 0 7.8-3.5 11.7-5"/><path d="m314 109c3.1-.3 6.3-.4 9.4-.3-1.7 1.8-3.4 3.7-5.2 5.4 1.8 1.1 3.6 2.2 5.1 3.7-1.1 1.3-2.4 2.5-3.7 3.7-.1.5-.3 1.6-.4 2.2 4.6-3 9.4-6.3 15.2-6.2-1.6-.8-3.2-1.7-4.8-2.6-1.7.8-3.4 1.5-5.1 2.3 0-1.7-.1-3.4-.1-5.1 3.1-.8 6-2 9-3 2 .6 3.5 2.3 4.6 4.1.5 3-1 6.1-3.2 8-2.6.7-5.3.7-7.9 1-.9 1.2-1.9 2.4-3 3.4-1.3.1-2.5 0-3.8-.1 1.1 1.1 2.2 2.2 3.3 3.3-.1.6-.3 1.7-.4 2.2-1 .5-2 1-2.9 1.6-.4 1.5-.4 3-.5 4.5-.9 1.7-1.8 3.3-2.7 4.9 1.6 1.3 3.2 2.7 4.8 4-2.9-.3-5.9-.1-8.6 1.3.4-1.3.7-2.6 1.1-3.9-2.6.4-5.2.7-7.9.7 1.1-2.1 2.2-4.2 3.3-6.2-3.1.5-6.2.3-9-1.3-.1-2.5-.2-5-.4-7.4-3.6-.7-6.9-2.6-8.6-6 5.1 1.3 10.2 2.3 15.3 3.5 2.6-2.5 6-2.1 9.2-1.2-.2-1.9-.4-3.9-.6-5.8-.9-.3-1.9-.6-2.8-.9-.8 1.4-1.6 2.8-2.5 4.1-2.3.3-4.7 0-7-.2 0-.7 0-2.2 0-2.9 4.9-.5 9-3.2 13.2-5.6-.9-1.8-1.7-3.5-2.5-5.3m1.3 18c0 .9.1 2.8.1 3.7 1.4-.4 2.9-.9 4.3-1.3-1.5-.7-3-1.5-4.4-2.4m-9.8 5c1.9.9 3.7 2 5.7 2.7 2.1-2.2-.7-4.8-1.7-6.8-1.4 1.4-2.7 2.8-4.1 4.2m5.2 7c1.5-.1 2.9-.2 4.4-.4 1.1-1.2 1.6-2.8 2.3-4.2-3.3-.3-5.7 1.6-6.7 4.6z"/><path d="m219 113c2.3-1.5 4.8-2.5 7.2-3.9 1.1 1.5 2 3.3 2 5.2-1.1-.2-2.3-.4-3.4-.5-.4 1-.9 2.1-1.3 3.1-1.4 0-2.8 0-4.1 0-.1-1.3-.3-2.6-.3-3.9"/><path d="m302 113c3-1.1 6.3-1.9 9.5-1-2.6 2.4-5.5 5.1-9.3 4.5 0-.9-.1-2.6-.2-3.5"/><path d="m342 113c.6 4.8-3.4 8.3-5 12.5-1.6 4.1-2.7 8.4-4.1 12.7-2.3 2.8-4.8 5.5-7.3 8.3 1.2 2.6 2.5 5.2 3.3 8 .9 3.2.5 6.6 1.3 9.8.7 1.7 2.3 2.8 3.5 4.2 4.4 3.8 6.9 9.5 6.2 15.4-.8 4.8-1.2 9.7-.6 14.6-.8-1.7-1.8-3.4-1.7-5.3.1-6 1.2-12 .5-18-1.3 1.9-2.3 3.9-3.1 5.9-2.4-.5-5.4-.5-7.2-2.4-.5-2.4-.2-5 1.3-7 2.8-.9 5.4 1.5 8 2.2-2.1-3.3-5.4-5.2-8.4-7.4-1.3-4.3.1-8.9-1.3-13.2-1-2.6-3-4.5-4.8-6.6 3-2.6 6.2-5.1 8.2-8.6 2.8-4.6 2.7-10.3 5.6-14.8 2.1-3.2 4-6.6 5.5-10.1"/><path d="m296 118c1.4-.1 2.2 1.1 3 2-1.6.5-3.1.9-4.7 1.4.5-1.1 1.1-2.3 1.7-3.4"/><path d="m326 125c2.4-.5 4.9-.9 7.3-1.3-.9 2.5-1.9 4.9-3 7.3-2.3-1.4-4.3-3.1-4.3-6"/><path d="m322 134c2.9-.9 5.9-1.6 8.9-2-1.2 3.2-2.6 7.1-6.3 8.1-1.1-1.9-1.8-4-2.6-6.1"/><path d="m236 142c.7.1 2.2.2 2.9.2-.7 2.9-1.4 5.8-2.1 8.8-.7 5-6.9 5.4-10.8 6.2-.7-1.8-1.4-3.5-1.9-5.3 2-.3 3.9.6 5.8 1.3-.5.3-1.5.9-2 1.2.3.5.9 1.5 1.3 1.9 2.7-1.3 5.3-3.2 6.3-6.1-1.2.6-2.5 1.3-3.7 1.9 1.9-3.1 3.3-6.5 4.2-10"/><path d="m286 142c1.7 1.1 3.5 2.1 5.2 3.2-2.2.8-4.5 1.5-6.8 2.3 1.1-1.2 2.2-2.3 3.4-3.5-1.4.2-2.7.4-4.1.7.7-.9 1.5-1.8 2.2-2.8"/><path d="m316 150c2.4 0 4.8-.1 7.2-.1.8 1.9 1.5 3.8 2.3 5.7-1.2.8-2.3 1.6-3.5 2.3-.3-1.4-.5-2.8-.8-4.2-1.8.3-3.6.7-5.4 1.1l-.4-.8c-.2-.3-.7-1.1-.9-1.4.5-.9 1.1-1.8 1.6-2.6"/><path d="m271 156h.8c2.7 1.8 5.4 3.7 7.4 6.2.8.8 1 1.8.6 2.9-1.8-.4-3.5-1.1-5.2-1.9-.8 1.9-.8 4.9-3.2 5.5-2.7.2-5.1-1.3-7.6-2 2.7.2 5.4.3 8.2.4.3-3.8.5-7.7-1-11.2"/><path d="m315 159c3.5.8 7.2.8 10.8.6-.5 1.1-.9 2.1-1.4 3.2.5.8 1.1 1.6 1.6 2.4-1.2.9-2.4 1.7-3.5 2.6-.7-1.3-1.3-2.6-2-3.8-2.6 0-5.2-.1-7.8-.1.2-.6.7-1.7.9-2.3 1.3 2.9 4.3-.5 1.9-2l-.4-.5"/><path d="m20.4 184c3.3 4.4 6.3 9.2 7 14.3.1.7.2 1.4.3 2 3.1 3.4 4.7 7.6 5 12.2.8 1.4 1.6 3 2.3 4.2-.2.2-.4.3-.7.5 2.4 2.9 4.6 6.1 6.4 9.5-.1-1.1-.2-2.3-.2-3.2 6.2 10.2 15.8 17.5 24.6 25 6 3.9 11.8 8.3 17.8 12.2-.9-1.2-1.7-2.4-2.5-3.6-1.1-.7-2.2-1.3-3.3-2-12-7-22.5-16.5-31-27-6.7-9.7-14.5-19-17.7-30.6-1.5-4.9-3.7-9.5-5.7-14.2-.4-.9-.8-1.7-1.3-2.6-2.1-3.8-5-7.1-7.6-10.6 2.7.6 5.3 1.5 7.8 2.6 1.1-1.3 2.3-2.6 3.4-4-3-.9-6.2-1.6-9.3-1.8.8-1.7 1.5-3.4 2.1-5.2 1.6 1.4 3.2 2.9 4.7 4.4.6-2 1.1-4.1 1.7-6.1-.8.6-1.6 1.3-2.3 1.9-1.7-.3-3.5-.7-5.3-.6-3 2.3-3.3 6.9-2.8 10.3 2.3 4.1 5 8.1 6.7 12.6"/><path d="m158 163c0 3.8-.9 7.6-2.4 11 1.5-.5 3.1-.9 4.6-1.4 1.5 2.8 3 5.5 4.4 8.3-4.4-.3-7.9-3.1-11-6-1.7 2.4-2.9 5.1-3.5 8 2.9 3.2 5.8 6.4 8.8 9.6-.8.4-1.6.9-2.4 1.3-.4 0-1.1-.1-1.5-.1.2-5.1-5.9-7.6-6.2-12.5 1.2-7 8.6-11 9.3-18.2"/><path d="m282 165c1.4 1.3 2.6 2.8 3.5 4.5-2.6-.2-3.3-2.3-3.5-4.5"/><path d="m307 169c2.8-.9 5.7-1.7 8.6-2.5.4 2.1.8 4.2 1.1 6.3 2.9-2.3 6.6-2.7 10-1.5-1.1 2.4-1.8 5.3-4 7-2 .6-3.6-1.3-5.3-2.1-1.8.6-3.6 1.2-5.4 1.9-.8 1.2-1.6 2.5-2.5 3.6-1.8-.1-3.5-.6-5.2-1-.4 1.7-.9 3.4-1.3 5.1-1.8-1.9-3.4-4.1-5.7-5.5-2.1-1.3-3.9.9-5.7 1.7 2.2-.2 4.3-.4 6.5-.6.3 1.4.6 2.9.9 4.3-3.9.1-7.6-1.3-10.4-4.1 1.6-1.9 3.1-3.8 4.7-5.7 1.9.4 3.8.7 5.6 1.1.5.1 1.5.3 2 .4.2-1.2.4-2.5.6-3.7 1.1.1 2.2.2 3.3.2-.1 1.6-.1 3.2-.2 4.9 1.3-1.7 2.5-3.4 3.8-5.1 1.7.5 3.3 1 5 1.4-.4-.8-.8-1.7-1.2-2.6-2.2-.5-4.3-1-6.5-1.3.3-.5 1-1.5 1.3-2m5.5 1.6c-.4 1.4.1 1.9 1.5 1.4.4-1.4-.1-1.9-1.5-1.4m-4.1 4.9c.2 3.3 3-1.6 0 0z"/><path d="m216 173c2.2.4 3.6 2 4.7 3.8-1.7.3-3.4.6-5.1.9 2.1 1.4 4.2 2.9 6.4 4.3-1 .3-2 .6-3 .9-1.2 1.9-2 5.3-4.7 5.3-2.5-.4-5-.9-7.5-1.5-.3-.5-.8-1.5-1.1-2 1.6-1 3.2-2 4.8-3 2.1-2.7 4-5.6 5.4-8.7m-2.5 6.5c-1.7 1.3.6 3.6 2 2.1 1.7-1.3-.6-3.6-2-2.1m-5.2 4.9c-.4 1.4 0 1.9 1.4 1.4.4-1.4 0-1.9-1.4-1.4z"/><path d="m165 183c0-1.7 1.2-3.2 3-3 .7 1.4 1.1 2.9 1.5 4.5-1.5-.4-3-.9-4.5-1.5"/><path d="m322 182c3.4-3.2 7.9 0 11 2-1 1.7-2.1 3.4-3.2 5.1-2.3-.6-4.6-1.1-6.9-1.6-.4-1.8-.9-3.6-1-5.4"/><path d="m227 193c-.9-3.2 1.7-7.9 5.3-6.2 3.2 1.4 2 5.1 1.4 7.7-2.3-.4-4.9.2-6.8-1.4m2.9-4.7c-1.3 1.7-.5 3.8-.2 5.7 1.2-1.1 2.4-2.3 3.3-3.6-.5-1.4-1.6-2.5-3.1-2z"/><path d="m290 188c2.7.6 5.4 1.2 8 1.9-.4 1-.8 2.1-1.2 3.1-1.9-.3-3.8-.6-5.7-.8.1.5.4 1.6.5 2.1 1.9.5 3.7.9 5.6 1.4-.8 1-1.6 2.1-2.6 3-1.9.3-3.9.3-5.8.3-1.1-3.7-.7-7.6 1.1-11"/><path d="m198 191c1.8-.7 3.6-1.3 5.3-1.9.1.7.2 2 .3 2.6-.6.3-1.8.8-2.4 1 1 1.7 2 3.4 3 5.1-3 1.3-6 2.5-9 3.6.2-1.2.3-2.4.5-3.5.9-.6 1.8-1.2 2.7-1.8-.3-.7-.6-1.4-.9-2.1 2.9 1.3 3.3-3.2.4-3.1m.2 6.4c-.4 1.4 0 1.9 1.4 1.4.4-1.4 0-1.9-1.4-1.4z"/><path d="m319 190c3.1-1.6 6.6-.5 9.9-.2-.1.8-.3 2.2-.4 3-2.8.9-5.6-.2-8.4-.6.3 1.3 1.3 2.2 2.1 3.2 0 .9.1 1.8.1 2.7 1.1.6 2.3 1.3 3.4 2-.7 2.8-2.4 5.1-3.8 7.5-3.4-.5-5.9-3.5-9.4-3.6-1.7-.2-3.4-.2-5.2-.4 1.9-2.2 4.6-3 7.4-3.3-1.3-.9-2.6-1.9-3.8-2.9-.2-1.2 1-1.8 1.7-2.6 1.9-1.8 3.9-3.7 6.3-4.7m5.8.9c-.5 1.6 0 2.2 1.6 1.7.5-1.6 0-2.2-1.6-1.7m-7.6 11.7c1.2-.2 2.4-.5 3.6-.7-.1-.9-.4-2.8-.5-3.7-1.6 1.1-3 2.3-3.1 4.4z"/><path d="m324 197c3.4-2.8 7-5.4 10.9-7.6-.7 2.3-1.4 4.6-2.2 6.9 1.8 1.6 3.6 3.1 5.3 4.7.2-.9.3-1.9.5-2.8.2.5.7 1.5.9 2-.4 1.8-1 3.6-1.1 5.4 2.2 4.3 4.8 8.3 6.4 12.9.4-1.9.7-3.8 1-5.7 1.8-.6 4-.8 5.2-2.3.1-1.8-.1-3.6-.1-5.4 4.4.3 9.2 1 13.5-.6 3-2 4.9-5.2 7.4-7.9 3.3 4.3.5 9.8-1.2 14.2-3.7 7-8.8 13.4-14.4 19 .1-.6.5-1.9.6-2.6 2.4-2.9 6.7-5.3 6.2-9.6-2.2-.2-4.4.1-6.3 1.3.6.7 1 1.6 1.3 2.5-1.2.9-2.3 1.8-3.5 2.7l-.6.4c-.3-.5-.8-1.5-1-2-.3-.2-.8-.5-1.1-.7 3.5-2.6 7-4.9 10.4-7.5-1.9-.5-4.1-1.2-5.9.2-4.8 3-9.8 5.6-14.9 7.9-4.8 2.3-9.9 3.6-15 5.2-3.1.9-6 2.1-8.9 3.3-1-.3-2-.6-3-.8 1.5-3.8 5.6-4.4 9-5.5 3.1-.9 5.2-3.5 7.3-5.8 1.6.3 3.1.7 4.7 1-1.8-1.9-3.5-3.8-5.2-5.7 1.7-1.1 3.3-2.2 5.2-2.9 2.3 1.2 4.3 2.8 6.4 4.2-.9-4.9-6-7.8-6.1-12.9-2.7-2.7-6.2-4.4-10-4-.4-.4-1.2-1.1-1.6-1.4m39 12.6c1.3-.1 2.5-.1 3.8-.2-1.1 1.9-2.2 3.8-3.4 5.6.1.8.2 2.5.2 3.3 5.8-4.9 7.4-12.9 8-20-3.7 3.1-5.9 7.4-8.6 11.3m-4.4-2.6c-.5 1.6 0 2.2 1.7 1.7.5-1.6 0-2.2-1.7-1.7m-5.9 4.9c-1.1.2-2.6 1.4-1.9 2.6 1.7 1.7 5-2.8 1.9-2.6m-19.7 1.7c.8 2.6 3.3 3.2 5.8 3.3-1.4-2-3.4-3-5.8-3.3m-5.9 11.3c2.4-.7 4.5-2.1 5.9-4.2-2.4.7-4.4 2.1-5.9 4.2z"/><path d="m303 191c1.9.8 4.3 1.3 5.1 3.5-.9 1.7-2.7 3.2-4.8 2.8-2.1-1.5-.5-4.3-.4-6.4m1.1 2.8c-1.6 3 3.3.2 0 0z"/><path d="m102 201c.7-1.8 2.1-3.1 3.2-4.7l-.2.8c-.3.9-.6 1.9-1 2.8 3.2 1.8 6.4 3.8 10 4.6l.7-.5c-.3 1.8-.6 3.7-1 5.5-1.5-.8-2.9-1.6-4.4-2.4 0 3.8-.1 7.7 0 11.5-1.5 0-2.9.1-4.3.1 1.2-4.8 1.4-9.8.9-14.7-.6-.3-1.8-1-2.5-1.3.1 5.2.1 10.5 0 15.7-1.6 0-3.3.1-4.9.1 1-1 2-1.9 2.8-3.1.9-4.7-.3-9.6.6-14.4"/><path d="m212 200c3.6.9 7.2 1.3 10.9 1.5 1.4 0 2.4 1 2 2.4-1.7.8-3.6.9-5.4 1.1 1.7.5 3.3 1.1 5 1.6.2 1.7.3 3.3.5 5-2.2 1.2-4.5 2.6-5.3 5.2-1.8 5.2-7.1 7.4-10.7 11.1-1.6 1.2-3.2 3.9-5.6 2.8-2.4-.6-.8-3.2-.5-4.8 1.8-4.9 6-10.5 11.9-9.3-.1-.5-.2-1.4-.3-1.8-1.6-.8-3.1-1.7-4.6-2.6.1-4.1 1.4-8.1 2-12.2m1 10c2.1-.1 4.2-.2 6.3-.4-.5-1.2-1-2.3-1.6-3.5-1.7 1.1-3.3 2.5-4.7 3.9m-2.8 9.3c-.5 1.6 0 2.2 1.7 1.7.5-1.6 0-2.2-1.7-1.7z"/><path d="m260 203c.3-.3.9-1.1 1.2-1.4 1.3 1.8 2.6 3.6 3.9 5.3.2 1 .4 2.1.6 3.2-1.5-.5-2.9-.9-4.4-1.4.1.6.3 1.9.4 2.6-.4-.3-1.3-1-1.7-1.3.1-2.3.1-4.6.1-6.9"/><path d="m182 207c2.3 0 4.7-.3 6.9-1 .5-.2 1.6-.6 2.2-.8.5 1.1.9 2.2 1.4 3.3-1.9.9-3.8 2.2-5.9 2.5-1.4-.3-2.8-.9-4.2-1.4-.1-.7-.3-2-.4-2.6"/><path d="m330 207c3-1.5.1 3.3 0 0"/><path d="m194 211c1-1.5 3.6.1 2.4 1.6-1 1.4-3.6-.2-2.4-1.6"/><path d="m263 212c.7.6 1.5 1.2 2.2 1.8-.6 1.4-1.3 2.8-1.9 4.2 2 1.7 3.9 3.4 5.9 5.1-.1-1.8-.2-3.6-.3-5.3 1.5.8 3 1.7 4.5 2.4-.7-.1-2.2-.3-2.9-.4.9 5.7.7 11.5-1.3 17 7.6.8 15.3.1 22.7-1.8-.8-5.9-3.4-11.4-5.9-16.8-.6-.1-1.9-.3-2.5-.3 1-.7 2-1.3 2.9-2 3 6.7 6.5 13.3 8 20.5-6.7.7-13.4 1.9-20 2.4-5 .5-9.9-1.8-14.8-.6-3.4.6-6.8.9-10.2.8-7-.3-14.2 1.5-21-.8 8.9.5 17.9.6 26.7-1.3 3-8 6.6-16 8-24.7m-1.2 9.2c-1.1 1.3 1.1 3.3 2.3 2.2 1-1.3-1.1-3.3-2.3-2.2m-2.8 7.6c1.6-.3 3.2-.6 4.8-.9-.9-.8-1.8-1.5-2.8-2.2-1.6.2-1.6 2-2.1 3.2m6.9-3.1c.4 1.2.7 2.5.9 3.8 1.2.3 2.4.4 3.6.4-.2-1.1-.5-2.1-.7-3.2-1.3-.4-2.5-.8-3.8-1m-8.6 6.3c-.8 1.7.2 3.3 1 4.8.9-1.6 1.7-3.3 2.4-4.9-.9 0-2.6.1-3.5.2m7.1 1.5c.6 1.5 1.3 2.9 2.1 4.3.7-1.6 1.6-3 2.5-4.5-1.5.1-3 .1-4.6.2z"/><path d="m291 221c2.1-.3 4.3-.6 6.5-.8 1.1.2 2.3.5 3.4.8.4 2.2.9 4.5 1.3 6.7 2.2-.6 4.4-1.2 6.6-1.8 1.1 1.9 2.2 3.9 3.3 5.9-1.9-.4-3.8-.9-5.8-1-1.4 1.3-2.4 2.9-3.6 4.4-.2-2.2-.4-4.3-.6-6.5-2.6.3-5.1.6-7.6 1-1.7-2.6-2.9-5.6-3.4-8.7m4.8 3.3c-1.5 1 .2 3.5 1.7 2.3 1.5-1-.3-3.5-1.7-2.3z"/><path d="m178 220c2 2.2 6.2 7 1.8 8.8-1.1-.3-2.2-.6-3.3-1 .5-2.6.9-5.2 1.5-7.8"/><path d="m172 233c2.7-2.3 6.1-3.3 9.6-2.9.1 1.1.1 2.1.2 3.2-1.4.5-2.9 1.1-4.3 1.7 1.2.2 2.4.4 3.5.5-.4 1.1-.7 2.2-1.1 3.3-.7 0-2.1 0-2.7.1-.8-.9-1.7-1.8-2.5-2.7-1.4.1-2.7.2-4.1.3-.4-.3-1.1-1-1.4-1.3 1-.7 1.9-1.4 2.9-2.1"/><path d="m186 235c3-1.6.2 3.3 0 0"/><path d="m191 236c2.3-.3 5.6-2.4 7.2.1.6 1.4-.6 2.7-2 2.7-2.2.4-3.7-1.5-5.3-2.8"/><path d="m167 243c1.3 1 3.5 1.4 3.5 3.4-1.7 1.4-4 .8-6 .6.8 0 2.3-.1 3.1-.1-.2-1.3-.4-2.6-.6-3.9"/><path d="m187 248c1.6-.5 2.2 0 1.7 1.7-1.6.5-2.2 0-1.7-1.7"/><path d="m87 263c9.6 3.6 19.5 6.4 29.6 8.6.3.1.9.2 1.2.3 5.8 3.8 12.9 4 19.5 5.1 7 1 14 2 20.8 4.1 8.1 2.3 16.5 3.1 24.9 3.2 2.8.3 5.6.9 8.3 1.4l-.9.4c-8.4-.7-16.8-1.2-25-2.1-6.5-.6-12.3-3.7-18.7-4.5-10.5-1.5-21-2.6-31-6.7-6.6-2.6-13.8-3-20.3-5.8-2.8-1.1-5.4-2.5-8.1-3.9"/></g><g style="fill:#7b631d"><path d="m275 133c1.8-.8 3.6-1.5 5.4-2.2.8.6 1.5 1.1 2.3 1.6 1.8 1.3 3.6 2.5 5.5 3.8 1.2.8 2.5 1.6 3.8 2.3 2.6 1.3 5.5 1.8 8.3 2.3-.6 1.8-1.2 3.5-1.9 5.3 1.9.5 3.7 1 5.6 1.6-.2 1.1-.4 2.3-.6 3.4 3.2.9 6.4 2 9.4 3.5.4-.7.9-1.5 1.3-2.2.2.4.7 1.1.9 1.4l.4.8c-.6.2-1.9.6-2.6.8.8 1.1 1.5 2.3 2.3 3.3l.4.5c-.5.5-1.4 1.5-1.9 2-.2.6-.7 1.7-.9 2.3-2.9 0-5.7 1.3-5.9 4.5-.3.5-1 1.5-1.3 2-1.3-.1-2.5 0-3.7 0-.1.6-.3 1.9-.4 2.5-.2 1.2-.4 2.5-.6 3.7-.5-.1-1.5-.3-2-.4.5-1.2.9-2.5 1.4-3.7-3.6.5-7.2 1.1-10.8 1.7-1.1 2-2.2 4.1-3.3 6.1-.7-.6-1.4-1.2-2.1-1.8 2.3-.9 3.8-2.8 4.7-5.1-2.7.4-5.4.9-8 1.5.9 1 1.8 2 2.8 3-1.2.2-2.5.3-3.7.4-1.5-.2-3-.4-4.5-.6 0 5.8-2.7 11.8-.3 17.3 2.8-1.4 6.2-2 8.4-4.2.9-3.4.3-7 .1-10.5 2 1.5 4.6 3.5 4.1 6.3-.9 4.4-1.9 8.9-1.8 13.4-1.6-.3-3.2-.6-4.8-1 .8-.1 2.4-.2 3.2-.3.1-1.6.1-3.1.2-4.7-2.6.2-5.1 1-6.7 3.1-2-1.2-3.8-2.8-5.9-3.8-1 .5-2 1.2-2.9 1.8 4.1 2.1 8 4.8 12.4 6.1 4.3 1.3 8.9-1.1 13 .9 4.6 2 9.7 2.8 14.3 4.9 2.1-.3 4.1-.6 6.2-1 4.3 2.7 9.2 4.4 14.2 5.1 0 2.9 1.4 6.8-1.6 8.7-4.9 4-11.7 3.6-17.6 3.2-1.3-1.1-2.5-2.3-4-3-1.5 0-3 .2-4.6.4-1.1-.3-2.3-.5-3.4-.8.5-.1 1.4-.2 1.9-.2-.3-.9-.5-1.7-.8-2.6-4.2.2-8-1.7-12-2.9-4.2.5-7.9 3.9-12.3 3.1-3.9-.8-8.8-3.2-8.3-7.9 1.1.9 2.3 1.9 3.4 2.8-.2-3.7.4-7.4-.4-11-1.6-2.8-3.7-5.4-5.3-8.3 1.5-.6 3.1-1.1 4.7-1.6-2.7-.8-5.2-2-7.7-2.9 0 .2-.1.7-.1.9-.3-1.3-.8-2.6-1-4 1-.1 1.9-.1 2.9-.2-.1-.9-.2-1.8-.3-2.7-1-.1-1.9-.1-2.9-.2-.2-2.7-.3-5.4-.4-8 2 0 4-.1 6-.1-.4-1.5-.7-2.9-1.2-4.3 3.9 3.5 9.2 4.3 13.9 6 3.9-2.4 8.8-3.8 11.4-7.8 1.9-2.8 3.7-5.7 5.2-8.7 1.3-2.6.9-5.7.8-8.5 1.2.2 2.3.3 3.5.5-.7-1.1-1.4-2.3-2.1-3.4-1.6.9-3.1 1.8-4.7 2.7.7 1.1 1.4 2.2 2.2 3.3-3.4 3.3-6.9 6.7-10.3 10-1-.8-2-1.6-3-2.4.9-1.1 1.8-2.2 2.6-3.3-3.8-1.5-7.8-3-12-2.9h-.8c-.6-.5-1.1-1.1-1.7-1.6.1-.5.3-1.4.4-1.9 1.4 0 2.7 0 4.1-.1-1.1-1.1-2.2-2.1-3.4-3.2.8-2 1.8-3.9 3.1-5.6 1.4.7 2.6 1.8 3.8 2.9.5.2 1.5.4 2 .6-1.5-2.6-3.1-5.1-4.7-7.6-1.5 1.6-3 3.1-4.4 4.7 2.2-3.2 3.7-6.8 4.9-10.5m1.4 1.6c-.4.5-1.3 1.4-1.7 1.9 3 .9 5.9 2.1 8.7 3.4-1.3 1.2-4.3 5.6-.5 4.8-.8.6-1.6 1.1-2.3 1.7.9.2 2.8.4 3.7.6-1.6.5-3.1 1.4-4.6 2.1 5.3 1 10.4-.8 14.3-4.4-5-4.7-11.8-6.6-17.6-10m2.1 6.4c-1.3.9.2 3.2 1.5 2.2 1.3-.9-.2-3.2-1.5-2.2m-5.5 7.6c.4 1 .7 2 1.1 2.9.7 0 2.1.1 2.9.1-.1-.6-.4-1.9-.5-2.5-1.2-.2-2.3-.4-3.5-.5m12.6 1.1c1 1.1 2.1 2.2 3.2 3.3.4-1.2.9-2.3 1.3-3.4-1.5.1-3 .1-4.5.2m20.9 7.2c1.4 1.4 2.9 2.8 4.3 4.1.5-1.2.9-2.3 1.4-3.4-1.9-.3-3.8-.5-5.7-.7m-9.7 2.8c1.1.9 2.3 1.8 3.5 2.5 1.3-.1 2.1-1.4 3-2.1-2.2-.2-4.4-.3-6.5-.4m1.4 3.7c-2.7 2.4-4.9 5.3-6.2 8.6 3.6-.9 7.3-1.9 10.4-3.9 2.7-1.7 3.6-4.9 4.8-7.7-2.9 1.2-5.9 2.4-9 2.9m-38.5 10.9c.3 1.8.6 3.6.9 5.4.9-.1 2.8-.2 3.8-.3-1.3-1.9-1.7-5.4-4.6-5.1m4.4 2.8c.5.7 1.6 2 2.1 2.6 1-.4 2-.8 3.1-1.2-.5-1-1.1-1.9-1.7-2.9-1.2.3-2.3 1-3.4 1.5m6 2.5c.7 1 1.5 2.1 2.2 3.1-.5.2-1.4.6-1.9.8-1.8-2.2-4.5-1.1-6.8-.5 1.4.6 2.7 1.8 4.3 1.6-1.4.6-2.7 1.3-4.1 2 2.7-.1 5.6.4 8-1.1 2-1 1.8-3.6 2.3-5.5-1.4-.2-2.7-.3-4-.4m-5 9.9c1.8.3 3.7-.1 4.3-2.1-1.4.5-4.4-.3-4.3 2.1m2.1 3.2c.2 3.3 2.9-1.6 0 0m4.3 5.4c-.1 5.5-1.3 11.2.6 16.5 2.6-.9 5.3-1.7 8.1-1.4 10.9-1.9 21 3.5 31.4 6 1.9-.8 3.9-1.1 5.9-1.2-.2 1.3-.4 2.5-.6 3.8 3-.1 6.6.2 8.8-2.3 2-1.4 1.1-4.2-.3-5.7-11.3-3.8-23-5.2-34.5-8.6-6.6-2.2-14.3-1.9-19.5-7.2m4.8 16.6c-.5 1.4 0 1.9 1.4 1.5.5-1.4 0-1.9-1.4-1.5z"/><path d="m208 144c.7 0 2.2 0 2.9 0 0 .8 0 2.3-.1 3-1.3-.1-2.7-.1-4-.1.4-1 .7-1.9 1.1-2.9"/><path d="m177 149c4.7-2.2 10-2.4 14.7.1 6.6 2.9 13.4 5.3 19 9.9 2.9 2.4 6.5 3.8 10.3 3.7-.4.4-1.1 1.1-1.5 1.4-2 1.8-4 3.6-6 5.3.6.4 1.3.8 1.9 1.3-5.4 4.1-8.5 10.3-13.6 14.7-3.5 2.4-7.7 4-9.7 8 1.8-.8 3.6-1.7 5.4-2.4-.8.9-.9 2-.4 3.1.3.7.6 1.4.9 2.1-.9.6-1.8 1.2-2.7 1.8-.7.5-1.4.9-2.2 1.4 0 1.5.1 2.9.1 4.4-1 .4-2 .8-3.1 1.2-.5.2-1.6.6-2.2.8 1.2-4.2 2.2-8.3 3.2-12.5-2.1-.3-4.2-.6-6.2-.9-1 1.3-1.9 2.8-3.1 3.9-1.4 0-2.7-.3-4-.5 1.7-.4 3.5-.8 5.2-1.3-.1-.9-.3-2.8-.4-3.7-2 .2-3.9.3-5.9.5 0 1.4 0 2.9.1 4.3 2.7 2.4 5.7 4.6 8.3 7.1-2.6.4-5.1.8-7.7 1.1 1.2 1 2.5 2 3.7 2.9.1.7.3 1.9.4 2.6-4.6 1.1-9.3 1.9-13.9 2.7 3.8 1.8 8 2.6 12.2 2.6-2.2 2.6-4.4 5.3-4.7 8.8-.2 3-2.1 5.3-4.1 7.4.2.9.3 1.8.5 2.6-1 .7-1.9 1.4-2.9 2.1-.8-.8-1.7-1.5-2.5-2.3-.8 1.4-1.5 2.9-2.3 4.3-1.8-3-3.8-6.3-7.3-7.5 1.1-1 2.2-2.1 3.3-3.1 2.8 1.9 5.6 3.8 8.4 5.6 1.8-2.7 4.1-5.3 4.7-8.6.5-2.9.4-5.8.4-8.7-3.6-.2-7.7.7-11-1-3.8-3.1-6.9-7.1-11-9.7-2.6 4.5-2.3 9.7-1.5 14.7-4.3-2.4-8.8-4.1-13.3-6.1 2.5-.2 5-.6 7.5-.9-4.8-2.1-11.9-1.9-14.3-7.4 4.1-.4 6.6 3.9 10.5 4.3 2.1-2 3.7-4.5 5.3-6.9-3-2.6-5.7-5.5-7.9-8.8 5 3.3 9 8.3 15.2 9.4-1.1-1.3-2.2-2.6-3.4-3.8 1.4 0 2.8 0 4.3 0-.2-.3-.6-.9-.8-1.3 1.4.5 2.9.9 4.3 1.4-.6-1.8-1.3-3.6-1.9-5.5.8-.5 1.6-.9 2.4-1.3 3.5-1.5 7.4-2 11-.9 4.7 1.6 9.1-1.2 13.6-2.1.7-2.2 1.4-4.5 3.5-5.8 3.3-2.2 5.9-5.1 7.4-8.7-6.5.7-12.6 3.3-19 4.2-3.7.7-6.5-2.4-8.9-4.7-2.6-2.8-5.8-5.4-6.8-9.3-.5-1.9 1.6-2.9 2.9-3.9-.9 1.6-1.8 3.2-2.7 4.8 4.1.4 8.3.1 12.3-.5-1.2-2.5-2.4-4.9-3.5-7.4 3-2.3 5.5-5.2 8.9-7 4.8 1.3 8.6 5 13.2 7-1.7-2.2-3.8-4.2-6.3-5.4.9.1 3-.4 2.1-1.7-.9-.9-2.3-.7-3.5-.7.4.8.8 1.6 1.4 2.3-2.2-1.2-4.4-2.3-6.6-3.6m13.5 3.1c3.3 3.2 6.1 6.8 9.1 10.2 1.3.3 2.7.3 4 .4-.8-1.5-1.7-2.9-2.5-4.4 1-.3 2.9-.9 3.8-1.2-2.3-1.1-4 .5-5.6 2-.7-.6-1.3-1.2-2-1.8 1.1-.7 2.3-1.3 3.4-2-2.9-2.5-6.6-3.2-10.3-3.3m-20.4 9.9c2.7 1.9 5.2 4.5 8.5 5.2 3.7-.1 7.8-1 10.4-3.9-.8.1-2.4.2-3.3.2 0-.8-.1-2.5-.1-3.4-.4.1-1.2.3-1.6.4-.1-.9-.2-2.6-.3-3.4-1.1-.4-2.1-.8-3.2-1.2-1 1.4-2 2.7-2.8 4.2.3-1.1.6-2.3.8-3.4-1 .6-2 1.3-3 1.9-.6 2.1.6 4.1 1 6-2.8-1.9-1.7-5.8-2.3-8.7-1.7 1.9-3.1 3.9-4.2 6.2m20.9-5.4c-1.1 1.3.7 3.8 2.3 3 1-1.3-.7-3.9-2.3-3m-1.4 2.5c.8 2.4 1.2 5.2 3.3 6.8-6.7.7-13.3 2.7-20 2.5.2 1 .5 2 .7 3 2.8-1.4 5.9-1.8 9-1.8-.7 1.4-1.3 2.8-2 4.3 3.6-1.6 7.2-3.5 11-4 2.9-.6 4.4 2.4 6.5 3.8-2.6 1.8 2.6 3.8 1.5.8-.1-1.3-.2-2.6-.3-3.9-.7-.2-2.2-.6-2.9-.8.2-1.3.5-2.5.7-3.8-.6 0-1.7 0-2.3-.1-1-2.8-3-5.1-5.4-6.9m17.2 1.1c-1.2 1.4-1.9 3.5-3.7 4.4-1.7-.1-3.3-.5-4.9-.8.7 1.1.9 3.1 2.6 3 1.7-.7 3.2-1.8 4.9-2.6 1.4.4 2.8 1 4.1 1.6-.6-2.1-1.4-4.1-3.1-5.6m-42 7.3c.7.2 1.9.7 2.6.9.9 2.5 1.8 5 2.7 7.5.8-.4 1.6-.8 2.4-1.2-1-3-2.3-5.8-3.9-8.5-1.3.4-2.6.9-3.8 1.3m39-.3c-1.9.4-1.3 3.6.7 2.9 1.9-.4 1.3-3.6-.7-2.9m-3.4 5.7c2.3 1.6 4.9 1.4 7.3.4-.1-.8-.3-2.4-.4-3.1-2.3.9-4.6 1.8-6.9 2.7m-5.9 4.7c1.4 1.2 2.8 2.4 4.4 3.4-3.4.5-6.7 1.6-10 2.3.3 1.7.5 3.3.7 4.9-1.7-.3-3.3-.6-5-.9.7 1.3 1.5 2.7 2.2 4 4.6-1.8 9.5-3.4 13.5-6.4 1.4-.9.5-2.6.5-3.9h.9c0-.7 0-2.1 0-2.8-2.4-.2-4.8-.5-7.2-.7m-37 16.7c.4 1.6.8 3.2 1.2 4.8 3.4-1.2 6.7-2.7 9.7-4.7-3.6-.4-7.2-.4-10.9-.1m35.5.8c-1.7.4-.8 3.1.8 2.4 1.7-.4.8-3.1-.8-2.4m-32 4.9c4.1.2 8.1-1.1 11.2-3.9-4.1.1-7.9 1.6-11.2 3.9m13.4-4.3c-.1 2.1-.3 4.3-.4 6.4.9 0 2.6 0 3.4.1 0-1.4.4-2.8 0-4.1-.8-1-2-1.6-3-2.3m-10.2 9.5c3.9-.2 7.5-2.2 9.5-5.6-3.6.9-6.7 3.2-9.5 5.6m-9.8-1.3c2.5 2.7 5.2 6.6 9.5 5-1.4-1.1-2.9-2.1-4.4-3.2.4-1.3.8-2.5 1.2-3.8-2.1.6-4.2 1.3-6.3 2m15.4 4.3c2.3-.6 4.4-1.8 5.5-4-2.3.7-4.2 2.1-5.5 4m-1.5-2.8c-1.3-.5-2.5 1.7-.9 2.1 1.3.6 2.5-1.7.9-2.1z"/><path d="m204 177c.1 3.3 3-1.5 0 0"/><path d="m26 172c-.2-3.4.1-6.8.5-10 .2 1.7.5 3.4.8 5.2.9 4 2 8 3.5 11.8-1.1-1.4-2.1-2.8-3.2-4.2-2.1 1.5-4.3 3.2-7 3.1-.8-3.2 3.4-4.1 5.4-5.8"/><path d="m116 167c1.7-1.1 3.7 0 5.5.3-1.4 0-2.8 0-4.3-.1-1.9 1.5-3.8 3-5.8 4.4 4.1 1.7 7.7 4.3 10.8 7.3-1.4.9-2.6 2.3-4.3 2.6-3.1-.5-5.9-1.9-8.8-2.8-1-2.4-2.2-4.7-3.3-7 3.6-1.2 6.9-2.9 10-4.8m-7.6 9.6c1.2.5 2.5 1.1 3.7 1.6.7-1.5 1.3-2.9 1.9-4.4-1.9.9-3.8 1.8-5.6 2.8m7.4 1.7c.7.9 1.5 1.9 2.3 2.8.4-.9.9-1.9 1.3-2.8-.9 0-2.7 0-3.6 0z"/><path d="m223 174c3.5 2.3 7.4 4.2 11.3 5.9 3 1.4 6.3 3.2 7.3 6.6 1.3 4.1-1.1 8.2-3.6 11.2-4.8 5.3-7.3 12.1-11.6 17.8-3.1 4.2-5.1 9-7.7 13.5-2.7 3.4-5.9 6.4-8.3 10 5.8-.3 11.6-1.8 17.5-1-6.9.2-13.6 2.4-20.4 3.1 1.4-3.6 3.6-6.7 6.4-9.3 4.6-4.4 6.8-10.5 10.4-15.6 3.7-5.1 6.4-10.8 10-16 2.8-3.9 7-7.9 5.7-13.2-.3-4.7-5.7-5.5-9.1-7-3.3-1-5.6-3.6-7.9-6"/><path d="m21.3 181c3-.3 7.1-2.6 9 1 3.4 5.2 8 9.3 13.4 12.4.3 2.5.6 4.9.9 7.4-2.5-.1-5-.3-7.5-.4.7 2.4 1.4 4.9 2 7.4-1.9-.7-4.6-.8-5.3-3.1-1.9-4.7-3.9-9.3-5.4-14.2 4.3.1 5.6 4.9 7.7 7.8 1.3-.5 2.6-1 3.9-1.4-4-4.7-9.3-8-15-9.8.9-1.4 1.9-2.8 2.9-4.2-1.7-.1-3.5-.1-5.2-.2-.4-.9-.8-1.7-1.3-2.6"/><path d="m106 186c.3-2.4 1-4.8 2.7-6.7 2.9 2.2 5.9 4.3 8.9 6.4-1.7.5-3.3 1.1-5 1.6 1 1.1 2 2.1 3 3.2-1.5.3-3.1.6-4.6.8.1 1.1.1 2.1.2 3.2 1.5.3 2.9.7 4.4 1-2 .3-3.9.6-5.9.9 3 1.6 6 3.2 8.9 5.1-1.1.9-2.2 1.8-3.4 2.8l-.7.5c.4-1.5.8-2.9 1.1-4.4-3.5-.8-6.9-1.8-10.2-3l.2-.8c.4-1.1.5-2.3.7-3.5 1.4.6 2.9 1.1 4.3 1.6-.8-1.4-1.7-2.8-2.6-4.1 1.1-.4 2.2-.8 3.4-1.2h-1c-.3-.7-.8-2.2-1.1-2.9-1.2-.2-2.3-.3-3.5-.5"/><path d="m205 184l.3.6c.3.5.8 1.5 1.1 2 2.5.6 5 1.1 7.5 1.5-.5.3-1.6 1-2.1 1.4.3 1.2.6 2.4.9 3.7-1.1.8-2.3 1.5-3.4 2.3-.3-.6-.9-1.9-1.2-2.5-1-.7-2.1-1.4-3-2.2-.3-2.2-.1-4.5-.1-6.7"/><path d="m45 196c1.7.3 3.4.5 5 1.1.5 1 .9 2.1 1.3 3.2-.8.5-2.3 1.5-3.1 2-2-1.6-3.4-3.6-3.2-6.3"/><path d="m48 197c-1.5 3 3.3.1 0 0"/><path d="m52 201c.4-.4 1.3-1.1 1.7-1.5 2.4 1.1 4.2 3.1 5.9 4.9-2.9.8-7.6.5-7.6-3.4m1.9.3c-.4 1.4.1 1.9 1.5 1.4.4-1.4-.1-1.9-1.5-1.4z"/><path d="m44.7 207c.9-1.8 1.8-3.5 2.8-5.2 3 1.7 5.9 3.7 9 5 2.4 1 4.8-.7 7.1-1 2.2 1.2 4 3.1 5.8 4.8-.2-1.7-.4-3.5-.6-5.2 1.3.9 2.6 1.9 4 2.8 1.3.4 2.7.8 4.1 1.3-1.3-.3-2.5-.6-3.8-.8-1.4 3.6-2.8 7.5-6.6 9.2-3.1-.9-5.6-3-7.7-5.3-1 .4-2 .8-3 1.3-1.3-1.8-2.6-3.7-3.8-5.6-2.4-.3-4.9-.7-7.3-1.1m17.7-.5c-1 1.3 1.2 2.9 2.2 1.6 1-1.3-1.2-2.9-2.2-1.6z"/><path d="m72.9 211c6.3 1.8 9.2 7.8 14 11.7 1.8 1.8 4.2 1.1 6.4.8-1.8-.9-3.7-1.8-5.6-2.7 1.2.2 3.5-.4 2.7-2-1.2-1.6-3.5-.1-3.3 1.6-1-.9-1.9-1.9-2.9-2.9 4.8-.5 8.7 2.1 12 5.2 1.5-.7 2.9-1.6 4.5-1.9 1.7.3 2 2.3 2.9 3.6-2.1.1-4.2.2-6.3.2 3.2 2.4 6.2 5.3 8.8 8.3-4.3-.5-8.3-2.6-10.8-6.1-.9 1.1-1.9 2.3-2.8 3.4-5.1-2.1-9.2-5.9-12.8-9.9.1 1.5.2 3 .3 4.5-1.2-.4-2.5-.8-3.7-1.3l-.9-.3c-1.7-1.1-3.2-2.4-4.8-3.6.8-.8 1.7-1.5 2.5-2.2 1.8.5 3.6 1.1 5.4 1.6-1.8-1.6-3.5-3.3-5.3-4.9 0-.8-.2-2.3-.2-3m2.6 2.7c-.9 1.1 1 2.6 2 1.5.9-1.1-1.1-2.6-2-1.5m23.7 8c-.5 1.6 0 2.2 1.7 1.7.5-1.6 0-2.2-1.7-1.7"/><path d="m88 225c.1 3.3 3-1.5 0 0"/><path d="m327 228c5-1.6 10.2-2.8 15-5.2 3 .2 6 .4 9.1.3-.8.9-1.6 1.9-2.3 2.9.7.2 2.1.5 2.9.7l.9.2c-2 .5-6.4-.9-5.6 2.4.4.2 1.1.5 1.4.6l.7.2c-3.5 3.7-8.2 5.5-12.3 8.4.5-1.5 1-3 1.2-4.6-.1-1.1-.1-2.1-.2-3.2-2.8.5-6.4.8-7 4.3.8 0 2.4.1 3.2.2-1.2.4-2.4.8-3.6 1.3l-.6.2c-2-1.3-4.4-1.3-6.6-.8.1.9.5 2.8.6 3.7-3-1.8-6.4-2.4-9.9-2.3 2.4 1.5 4.8 2.8 7.2 4.2-.4.5-1.3 1.5-1.7 2-3.1-1.1-6.1-2.2-9-3.4.3 1.6.5 3.2.8 4.8-.8 0-2.4-.1-3.1-.1.6-.9 1.3-1.8 1.9-2.7-.8 0-2.4-.1-3.2-.1-.1.8-.3 2.5-.4 3.3-.4.1-1.1.4-1.5.5-.5-1.8-1.1-3.5-1.6-5.3 4.7-2.4 9.5-5.3 12-10.2 1 .3 2 .6 3 .8 4.3.7 8.8-.2 12.5-2.6-.9-.2-2.7-.5-3.5-.7m13 4.5c2.2-.7 4.4-1.4 6.7-2.2-.8-.9-1.7-1.8-2.5-2.8-1.4 1.6-2.8 3.3-4.2 5m-24.4 7.9c-1.2 1.5 1.4 3.1 2.3 1.6 1.2-1.5-1.4-3.1-2.3-1.6z"/><path d="m109 223c3.1 1.5 6 3.1 9 4.8-.5.7-1.6 2.2-2.2 2.9 2.1.5 4.2.9 6.3 1.4 2.7 2.3 5.1 4.9 6.8 8-.5 0-1.6 0-2.1 0-3.3-1.1-5.9-3.4-8-6-.9.6-1.8 1.1-2.7 1.7h-.7c-4.5-2.7-5.3-8.2-6.4-12.9m4.2 7.7c-.9 1.2 1 3 2.2 2.1.9-1.2-1-3-2.2-2.1z"/><path d="m120 227c1.8-.2 3.5-.4 5.3-.5-1.5-.2-3.2 2.1-1.3 2.9 1.5-.1 2.1-.9 2-2.4 2 2 3.5 4.5 5.8 6.1 1.4.3 2.8.3 4.2.3-2.5-2.6-5.1-5.1-7.8-7.4 3.3.7 6.6.6 9.9 1-1.2.3-2.4.6-3.6.9.7.3 2.1 1 2.9 1.4-1.2.4-1.6 2.5-.1 2.8.9-.1 1.7-.5 2.4-1.2.4-.3 1.3-1 1.7-1.3 0-.4-.1-1.2-.1-1.6.3.1.9.3 1.2.4 1.3.4 2.6.9 3.8 1.3-.3 1.2-.6 2.4-.9 3.5 1.6 0 3.3 0 4.9 0-.4-.9-.8-1.8-1.2-2.7 3.3 1.1 6.8 1.4 10 2.7.8 1.5 1.3 3.2 1.9 4.8 7.2.6 13.7 4.4 21 4.8.1 2.6.1 5.1.2 7.7-2.6-.6-5.2-1.1-7.8-1.8-1.4-4.9-6.5-6.9-11.2-6.6-2.7.5-5.1 1.9-7.8 2.5-1.7-1.2-2.9-2.8-4.3-4.2-1.6.7-3.2 1.4-4.9 1.8-2-1.3-3.7-2.9-5.4-4.6-.4.1-1.2.3-1.5.4.9 1.7 1.9 3.3 2.9 4.9-1.1 0-2.1 0-3.2-.1-7.2-4-13.6-9.5-18.8-15.9m17.6 6.5c3 .8 6 1.3 9.1 1.4.4 1.5.8 3.1 1.2 4.6.7-1.6 1.5-3.2 2.5-4.7-4.2-.8-8.6-3.4-12.8-1.3m17.8 8c-1.2 2.2 3.2 2.7 3.3.5-.2-1.5-2.5-1.6-3.3-.5m20.9 4.9c-1 1.3 1.2 2.8 2.2 1.6 1-1.3-1.3-2.9-2.2-1.6z"/><path d="m292 238c4.7-1.4 8.2 2.6 10.4 6.1-.4.2-1 .5-1.4.6-1.7-1.8-3.5-.8-5.3.4-2.8 2-6.3 2.3-9.6 2.3-.5-.9-.9-1.8-1.4-2.8-1 1.1-2 2.2-3.2 3.1-2 0-3.9-.6-5.7-1.1-2.3 1-4.6 2.1-6.9 3.2-1.3-2.7-2.1-5.7-2.4-8.7 8.6-.1 17-1.2 25.5-3.2m-5.7 8c1.6.2 3.2.3 4.8.4-.1-.7-.2-2-.3-2.6-1.6.5-3.3 1-4.5 2.2m-15.9-.6c-1.2 1.4 1.3 3.1 2.4 1.7 1.2-1.4-1.3-3.1-2.4-1.7m8.2.1c-1.1 2 2.9 2.7 3 .6-.1-1.4-2.2-1.6-3-.6z"/><path d="m246 240c3-.1 6.1-.5 9.1.2 1.5 2.4 3.1 5.7 1.7 8.4-3.1 2-6.9 1-8.8-2.1-2.3-.3-4.5-.5-6.8-.7.3.3.9.9 1.1 1.2-.9.9-1.8 1.8-2.8 2.8 1.9.4 3.9.8 5.8 1.1-.5-1.1-1-2.3-1.5-3.4 1.5.7 3.6 1 3.5 3-1.9.5-4 1.2-6 .6-1.9-1.1-3.4-2.6-5-4.1-.5.2-1.4.7-1.9.9-1.1.4-2.1.9-3.2 1.3-.1.9-.1 1.8-.1 2.7 1.4.3 2.8.6 4.1.9l-.6.5c-1.2 0-2.4.1-3.6.1-.8-1.6-1.6-3.2-2.4-4.7-1.9 1.6-3.7 4.1-6.5 3.6-2.2.1-3.2-2.2-4.5-3.6-1.1 1.4-2.2 2.8-3.3 4.2.3-1.2.5-2.4.8-3.6-1.7 0-3.5.1-5.2.1.4 1 .8 1.9 1.1 2.9-.6-.1-1.7-.3-2.2-.4-.3-1.4-.7-2.9-1-4.3-2 3.2-5.1 5.2-8.9 5.1-.9-.3-1.9-.7-2.8-1.1.1-.6.3-1.7.4-2.2 3.7-1.8 6.6-4.9 10-7 4.3-.8 8.7-.6 12.9-1.4 8.8-1.5 17.6-.4 26.4-1m6.3 5.5c-.6 1.1-1.2 2.3-1.8 3.5 1.8-.5 3.6-.9 5.4-1.5-1.2-.7-2.3-1.6-3.6-2m-53.9 5.8c1.9.2 3.9.4 5.8.5 0-.9-.1-2.7-.2-3.7-2.1.6-4.1 1.5-5.6 3.1m22.3-2.2c-.1.7-.4 2-.6 2.6 1.7.1 3.5.1 5.2.2-.1-.8-.3-2.5-.4-3.3-1.4.2-2.8.3-4.3.5z"/><path d="m263 276c1.8-.8 3.5-1.7 5.2-2.5l.6.6c.5.5 1.4 1.4 1.9 1.9-1.4 1.8-2.9 3.5-4.1 5.4-.2 0-.7-.1-.9-.1-2.6-2.4-5.6-4.4-8.9-5.8l.8-.3c1.8.2 3.5.5 5.3.8m3.1.4c-.9 1.2 1.1 2.5 1.9 1.3 1-1.2-1.1-2.5-1.9-1.3z"/></g><g style="fill:#eadcba"><path d="m231 143c1.7 1-1.1 4.1-2.6 3.2-.5-1.5 1.3-3 2.6-3.2"/><path d="m284 145c1.3-.3 2.7-.5 4.1-.7-1.2 1.1-2.3 2.3-3.4 3.5-.9-.2-2.8-.4-3.7-.6.8-.6 1.5-1.2 2.3-1.7l.7-.4"/><path d="m183 150c1.2 0 2.5-.2 3.5.7.9 1.3-1.2 1.8-2.1 1.7-.5-.7-1-1.5-1.4-2.3"/><path d="m191 156c1.5-.9 3.3 1.7 2.3 3-1.5.8-3.3-1.7-2.3-3"/><path d="m199 174c.4.2 1.1.6 1.5.8 1.1 3-4.1 1-1.5-.8"/><path d="m204 177c3-1.5.1 3.3 0 0"/><path d="m267 193c2.9-1.6.2 3.3 0 0"/><path d="m198 197c1.4-.5 1.9 0 1.4 1.4-1.4.5-1.9 0-1.4-1.4"/><path d="m54 201c1.4-.5 1.9 0 1.5 1.4-1.4.5-1.9 0-1.5-1.4"/><path d="m76 213c.9-1.1 2.8.4 2 1.5-.9 1.1-2.8-.4-2-1.5"/><path d="m87 220c-.2-1.7 2.2-3.1 3.3-1.6.8 1.6-1.6 2.2-2.7 2l-.6-.4"/><path d="m99 221c1.6-.5 2.2 0 1.7 1.7-1.6.5-2.2 0-1.7-1.7"/><path d="m137 229c.6.4 1.7 1.2 2.2 1.6-.6.7-1.4 1.1-2.4 1.2-1.5-.3-1.1-2.4.1-2.8"/><path d="m114 230c1.2-.9 3.1.9 2.2 2.1-1.2.9-3.1-1-2.2-2.1"/><path d="m155 241c.8-1.1 3.1-1 3.3.5-.1 2.2-4.4 1.7-3.3-.5"/><path d="m296 245c1.7-1.2 3.6-2.2 5.3-.4-.8.3-2.4 1-3.1 1.4-.5-.3-1.6-.8-2.1-1"/><path d="m335 243c1 .3 2 .6 3.1.9-2.2 1.8-1.8 4.2-.6 6.5-3.2.4-6.3.3-9.5.4.4-.6 1.2-1.8 1.6-2.4l.7.3c3.2 1.7 3.9-3.4 4.7-5.5"/><path d="m163 244c1.1-.1 3.2-.4 4.2-.5.2 1.3.4 2.6.6 3.9-.8 0-2.3.1-3.1.1-.6-1.1-1.2-2.3-1.8-3.5"/><path d="m318 256c1.2.5 2.4 1 3.6 1.5-2.4 1.6-4.8 3.5-7.8 3.8v-.9c1.3-1.5 2.7-3 4.2-4.4"/><path d="m317 265c1.6-1 3.2-2.1 4.8-3.1.6-.1 1.6-.2 2.2-.3-1.6 2.4-4 4-7 3.4"/></g><g style="fill:#010101"><path d="m192 106c3-2.1 6.2-3.9 9.5-5.5.5 2.2.9 4.3 1.4 6.4 1.5-.1 3-.2 4.5-.4-1 1.6-1.9 3.1-2.9 4.7 1.6 1.2 3.2 2.3 4.8 3.6-2.3-.3-4.5-1.1-6.4-2.4-4.3 6.3-9.3 12-14 17.9 2.5-.2 5.2.1 7.5-1.1.8-1.7 1.4-3.4 2-5.2 1.7-.1 3.3-.2 5-.3-2.3 2.3-4.3 4.8-6.1 7.5-.8 1-1.4 2.6-2.9 2.7-2.7-1-5-2.9-7.5-4.4-4.1 2.3-8.8 1.8-13.3 1.1.8 2.1 1.6 4.3 2.3 6.4-3-.3-7.1-.9-7.3-4.7.7-3.5 4-5.6 6-8.4-4.5 1-9.3 3.7-10.5 8.4 0 4.6 4.8 8.2 9.2 7.9 3.8-1 7.1-3.1 10.7-4.6.3-1.1.7-2.1 1-3.2 1.1 1 2.2 2.1 3.2 3.1-.8.3-2.4 1-3.3 1.3 3.1.9 6.6 4.1 9.7 1.8 2.6-1.7 5.1-3.4 7.9-4.7-1.6 2.8-3.7 5.3-6 7.6.2.4.7 1.3 1 1.7 1.7-1 3.3-2.2 5.1-2.9 2.2.1 4.3.9 6.4 1.6 1.4-1.7 2.4-3.8 4.4-4.9 2 1 3.8 2.3 5.6 3.5-1.8.8-3.7 1.5-5.5 2.4 2.3 3.3 6 5.1 9.6 6.8.1-1.5.2-3 .2-4.5-1.7-.2-3.3-.4-5-.7 1.9-1.7 3.8-3.4 5.8-5.2-.1 1.2-.2 2.3-.2 3.5.9 2.2 1.9 4.3 2.8 6.4 6.6-2.3 9.4-8.9 12.8-14.4 1.7 5.8 3.4 12 1.7 18-1.2 4.1-4.8 6.8-8.5 8.7-3.3 1.7-7.2 1.2-10.8 1.2-3.8.1-7.4-1.3-10.3-3.7-5.7-4.5-12.6-7-19-9.9-4.6-2.4-10-2.3-14.7-.1 2.2 1.3 4.3 2.4 6.6 3.6 2.6 1.2 4.6 3.2 6.3 5.4-4.6-2-8.3-5.7-13.2-7-3.4 1.8-5.9 4.8-8.9 7-2 1.2-4.1 2.1-6.2 3.1-1.3 1-3.3 1.9-2.9 3.9.9 3.8 4.2 6.5 6.8 9.3 2.4 2.3 5.2 5.3 8.9 4.7 6.5-.8 12.5-3.5 19-4.2-1.5 3.7-4.2 6.6-7.4 8.7-2.1 1.3-2.8 3.6-3.5 5.8-4.5.9-8.9 3.7-13.6 2.1-3.7-1.1-7.6-.6-11 .9-3-3.1-5.8-6.4-8.8-9.6.7-2.9 1.8-5.6 3.5-8 3.1 2.8 6.6 5.6 11 6-1.4-2.8-2.9-5.5-4.4-8.3-1.5.5-3.1.9-4.6 1.4 1.5-3.5 2.4-7.2 2.4-11 .2-1.6.3-3.4 2.1-4 5.5-2.7 12-4.7 15.2-10.4-4.3-1.4-9.2-2.3-12.4-5.8-2.8-2.9-5.5-6.8-4.7-11 2.3-4.9 7.7-7.2 12.3-9.7 3.5-.7 7-.8 10.6-.8-2.1 1.8-4.1 3.5-6.2 5.3 2.6 1.5 5.4 4.4 8.5 2.6 3.7-1.1 5.5-4.7 6.8-8-2.9-.5-5.8-.9-8.7-1.3.7-2 1.4-4 2.2-5.9.4.3 1.1 1 1.5 1.3.9 3.6 4 6.5 7.9 5.7 3.2-3.4 5.5-7.5 8.5-11-3.3-.9-6.4-2.2-9.4-4m4 .5c.2 1.7 2 2 3.3 2.6.4-1.7.8-3.3 1.2-5-1.6.7-4.1.2-4.6 2.4m40.5 35.9c-.9 3.5-2.3 6.9-4.2 10-.5.3-1.4.8-1.9 1.1-1.9-.6-3.7-1.5-5.8-1.3.5 1.8 1.2 3.6 1.9 5.3 4-.8 10.2-1.2 10.8-6.2.7-2.9 1.3-5.8 2.1-8.8-.7-.1-2.2-.2-3-.2m-28 2c-.4 1-.7 1.9-1.1 2.9 1.3 0 2.7.1 4 .1 0-.8 0-2.3.1-3-.7 0-2.2 0-3 0m-43 38.9c1.4.6 3 1.1 4.5 1.5-.4-1.5-.8-3.1-1.5-4.5-1.8-.2-3 1.3-3 3z"/><path d="m188 107c1.2-1.1 2.8-.2 4.1-.1-1.8 2.2-3.9 4.1-6.3 5.5.6-1.8.8-4 2.2-5.4"/><path d="m220 105c2.4.6 4.8 1.3 7.2 2.1 5.1 4.5 7.5 11.6 13.9 14.7-.2 2.3-.3 4.7-.4 7-2.6-4.9-6-9.5-10.9-12.3-1.6-1.3-3.7.2-4.9 1.3-1.5 1.5-.2 3.7-.1 5.5-1.3.3-2.7.7-4.1.9-1.2-2.4-1.6-5-2.2-7.6-3 1.8-6.4 2-9.8 1 4.8-2.1 9.2-5.1 13.2-8.5-.7-1.4-1.4-2.8-2.1-4.1m-1 7.9c0 1.3.2 2.6.3 3.9 1.4 0 2.8 0 4.1 0 .4-1 .9-2.1 1.3-3.1 1.1.2 2.3.4 3.4.5 0-2-.9-3.7-2-5.2-2.4 1.3-4.9 2.4-7.2 3.9z"/><path d="m209 113c.9-3.8 4.8-6.1 8.6-6.4-.7 4-5 5.8-8.6 6.4"/><path d="m302 110c4.1-1 8.2-1.8 12.3-2.8 6.6-1.7 13.3 2.3 19.8-.5 2.5 2 4.9 4.1 7.5 6-1.5 3.5-3.4 6.9-5.5 10.1-3 4.5-2.8 10.3-5.6 14.9-2 3.5-5.3 6-8.2 8.6 1.8 2.1 3.8 4 4.8 6.6 1.4 4.3 0 8.9 1.3 13.2 3 2.3 6.4 4.2 8.4 7.4-2.6-.7-5.2-3.1-8-2.2-1.5 2-1.8 4.6-1.3 7 1.9 1.9 4.8 1.9 7.2 2.4.8-2.1 1.9-4.1 3.1-5.9.8 6-.4 12-.5 18-.1 1.9.9 3.6 1.7 5.3-.2.9-.3 1.9-.5 2.8-1.8-1.6-3.6-3.1-5.3-4.7.8-2.3 1.5-4.6 2.2-6.9-3.9 2.2-7.4 4.8-10.9 7.6.4.4 1.2 1.1 1.6 1.4 3.9-.5 7.4 1.3 10 4 .2 5.2 5.3 8 6.1 12.9-2.1-1.4-4.1-3-6.4-4.2-1.9.7-3.5 1.9-5.2 2.9 1.7 1.9 3.5 3.8 5.2 5.7-1.6-.3-3.1-.7-4.7-1-2.1 2.3-4.2 4.9-7.3 5.8-3.4 1.1-7.5 1.7-9 5.5-2.5 4.9-7.3 7.8-12 10.2.5 1.8 1.1 3.5 1.6 5.3-1.9 2-4.5 1.7-6.7.3.8-.3 2.4-1 3.1-1.4.4-.2 1-.5 1.4-.6-2.2-3.5-5.8-7.5-10.4-6.1-8.4 1.9-16.9 3-25.5 3.2.3 3 1.1 5.9 2.4 8.7 2.3-1.1 4.6-2.1 6.9-3.2 1.9.5 3.8 1.1 5.7 1.1 1.2-.9 2.2-2 3.2-3.1.5.9.9 1.8 1.4 2.8 2 .3 4 .6 6 .9-.7.8-1.4 1.5-2.1 2.3-4.4-1.2-9-1.9-13.6-1-4.6.6-8.8 3-13.4 3.8-2-.4-3.6-1.7-5.4-2.7-7.3 2.7-15 3.7-22.9 3.2l.6-.5c.9-.9 1.9-1.8 2.8-2.6-1.2-.8-2.4-1.6-3.6-2.3.5-.2 1.4-.7 1.9-.9 1.6 1.4 3.1 3 5 4.1 2 .6 4.1-.1 6-.6 0-2.1-2.1-2.4-3.5-3-.4-.1-1.2-.4-1.5-.6-.3-.3-.8-.9-1.1-1.2 2.3.2 4.5.4 6.8.7 1.9 3.1 5.7 4.1 8.8 2.1 1.3-2.7-.2-6-1.7-8.4-3-.7-6.1-.3-9.1-.2-8.8.6-17.7-.5-26.4 1.1-4.3.8-8.7.6-12.9 1.4-3.5 2.2-6.3 5.2-10 7-.1.6-.3 1.7-.4 2.2-1.2 9.8-2.4 19.6-5.6 29 .8 1.3 1.6 2.6 2.4 3.8-.4.2-1.3.5-1.8.7-2.8-.5-5.5-1.1-8.3-1.4.1-.5.4-1.5.6-2 .4-6.1-.3-12.2.7-18.2.7-4.1-.8-8-2.3-11.8-4.9-1.3-9.8-2.1-14.8-2.6-8.8-.7-15.8-7.9-25-6.8-1-1.7-1.9-3.3-2.9-4.9.4-.1 1.2-.3 1.5-.4 1.7 1.6 3.4 3.3 5.4 4.6 1.7-.5 3.3-1.1 4.9-1.8 1.4 1.5 2.7 3.1 4.3 4.2 2.7-.6 5.1-2 7.8-2.5 4.7-.4 9.8 1.7 11.2 6.6 2.6.7 5.2 1.2 7.8 1.8-.1-2.6-.1-5.1-.2-7.7-7.3-.4-13.8-4.2-21-4.8-.6-1.6-1.1-3.2-1.9-4.8-3.2-1.2-6.7-1.6-10-2.7-.7-.2-2.1-.7-2.8-.9-1.3-.4-2.6-.9-3.8-1.3 1.9-.7 3.7-1.7 5.7-1.8 3.2.6 6.1 2.2 9 3.5 3.6 1.2 5.5 4.5 7.3 7.5.8-1.4 1.5-2.9 2.3-4.3.8.8 1.7 1.5 2.5 2.3.4.3 1.1 1 1.4 1.3 1.4-.1 2.7-.2 4.1-.3.8.9 1.7 1.8 2.5 2.7.7 0 2.1 0 2.7-.1.4-1.1.7-2.2 1.1-3.3-1.2-.2-2.4-.4-3.5-.5 1.4-.6 2.8-1.1 4.3-1.7-.1-1.1-.1-2.1-.2-3.2-3.5-.3-6.9.6-9.6 2.9-.2-.9-.3-1.8-.5-2.6 2-2.1 3.9-4.4 4.1-7.4.3-3.5 2.5-6.2 4.7-8.8-4.2 0-8.4-.8-12.2-2.6 4.6-.8 9.3-1.6 13.9-2.7 1.4.5 2.7 1.1 4.2 1.4 2.2-.3 4-1.6 5.9-2.5-.5-1.1-.9-2.2-1.4-3.3 1-.4 2-.8 3.1-1.2 0-1.5-.1-2.9-.1-4.4.7-.5 1.4-.9 2.2-1.4-.2 1.2-.4 2.3-.5 3.5 3-1.1 6-2.3 9-3.6-1-1.7-2-3.4-3-5.1.6-.3 1.8-.8 2.4-1-.1-.7-.2-2-.3-2.6-1.8.6-3.6 1.2-5.3 1.9-1.8.8-3.6 1.6-5.4 2.4 2-4 6.2-5.7 9.7-8 5-4.4 8.2-10.6 13.6-14.7 2.5.9 4.9 1.9 7.1 3.4 2.3 2.4 4.6 5 7.9 6 3.4 1.6 8.8 2.4 9.1 7 1.3 5.3-3 9.3-5.7 13.2-3.6 5.2-6.3 10.9-10 16-3.6 5.1-5.8 11.3-10.4 15.6-2.8 2.6-5 5.7-6.4 9.3 6.9-.7 13.5-2.9 20.4-3.1 6.8 2.3 14 .5 21 .8 3.4.1 6.8-.1 10.2-.8 4.9-1.1 9.8 1.1 14.8.6 6.7-.5 13.4-1.7 20-2.4-1.6-7.2-5.1-13.8-8-20.5-1 .7-2 1.3-2.9 2-2.9 2.2-6.5 3.3-10.1 2.4-1.5-.8-3-1.6-4.5-2.4.1 1.8.2 3.6.3 5.3-2-1.7-3.9-3.4-5.9-5.1.6-1.4 1.3-2.8 1.9-4.2-.8-.6-1.5-1.2-2.2-1.8-.4-.3-1.1-.8-1.4-1.1-.1-.6-.3-1.9-.4-2.6 1.4.4 2.9.9 4.4 1.4-.2-1.1-.4-2.1-.6-3.2-1.3-1.8-2.6-3.5-3.9-5.3 3.5-3.1 1.4-7.9.3-11.7 0-.2.1-.7.1-.9 2.6 1 5.1 2.1 7.7 2.9-1.6.5-3.1 1-4.7 1.6 1.6 2.8 3.6 5.4 5.3 8.3.8 3.6.2 7.4.4 11-1.1-1-2.3-1.9-3.4-2.8-.5 4.7 4.3 7.1 8.3 7.9 4.4.8 8.1-2.6 12.3-3.1 4 1.1 7.8 3 12 2.9.3.8.5 1.7.8 2.6-.5.1-1.4.2-1.9.2-2.2.2-4.3.5-6.5.8.6 3.1 1.7 6 3.4 8.7 2.5-.4 5.1-.8 7.6-1 .2 2.2.4 4.3.6 6.5 1.2-1.5 2.2-3.1 3.6-4.4 1.9.1 3.9.6 5.8 1-1.1-1.9-2.2-3.9-3.3-5.9-2.2.6-4.4 1.2-6.6 1.8-.4-2.3-.8-4.5-1.3-6.7 1.5-.2 3-.4 4.6-.4 1.5.7 2.7 1.9 4 3 5.9.4 12.7.8 17.6-3.2 3-1.9 1.7-5.8 1.6-8.7-5.1-.7-9.9-2.4-14.2-5.1-2.1.3-4.1.7-6.2 1-4.6-2.2-9.7-2.9-14.3-4.9-4.2-2-8.8.4-13-.9-4.4-1.3-8.3-4-12.4-6.1.9-.7 1.9-1.3 2.9-1.8 2.1 1.1 3.9 2.6 5.9 3.8 1.1.6 2.2 1.2 3.3 1.8 1.6.4 3.2.7 4.8 1-.1-4.6.9-9 1.8-13.4.6-2.8-2.1-4.8-4.1-6.3-1.2-.7-2.5-1.4-3.8-2 1.2-.1 2.5-.3 3.7-.4l.6.6c.7.6 1.4 1.2 2.1 1.8 1.1-2 2.3-4 3.3-6.1 3.6-.6 7.2-1.2 10.8-1.7-.5 1.2-.9 2.5-1.4 3.7-1.9-.3-3.8-.7-5.6-1.1-1.6 1.9-3.2 3.8-4.7 5.7 2.8 2.8 6.5 4.2 10.4 4.1-.3-1.4-.6-2.9-.9-4.3-2.2.2-4.3.4-6.5.6 1.8-.8 3.6-3.1 5.7-1.7 2.3 1.3 3.9 3.5 5.7 5.5.4-1.7.9-3.4 1.3-5.1 1.7.4 3.4.9 5.2 1 .9-1.1 1.7-2.4 2.5-3.6 1.8-.7 3.6-1.3 5.4-1.9 1.7.8 3.3 2.7 5.3 2.1 2.2-1.7 2.9-4.6 4-7-3.5-1.1-7.1-.7-10 1.5-.4-2.1-.7-4.2-1.1-6.3-2.9.8-5.7 1.6-8.6 2.5.1-3.2 3-4.5 5.9-4.5 2.6 0 5.2 0 7.8.1.7 1.3 1.3 2.6 2 3.8 1.2-.9 2.3-1.7 3.5-2.6-.5-.8-1.1-1.6-1.6-2.4.5-1.1.9-2.1 1.4-3.2-3.6.3-7.3.3-10.8-.6-.8-1.1-1.6-2.2-2.3-3.3.6-.2 1.9-.6 2.6-.8 1.8-.4 3.6-.7 5.4-1.1.3 1.4.5 2.8.8 4.2 1.2-.8 2.3-1.6 3.5-2.3-.8-1.9-1.5-3.8-2.3-5.7-2.4 0-4.8 0-7.2.1-.5.9-1.1 1.8-1.6 2.6-.4.7-.9 1.5-1.3 2.2-3-1.5-6.2-2.7-9.4-3.5.2-1.1.4-2.3.6-3.4-1.9-.5-3.8-1.1-5.6-1.6.6-1.8 1.2-3.5 1.9-5.3-2.8-.5-5.7-1-8.3-2.3 1.3-.5 2.6-.9 3.9-1.4 0-.5 0-1.6 0-2.1-1.8-.9-3.6-1.9-5.4-2.8 0-1.3.1-2.7.1-4-2.2-.8-4.5-1.4-6.5-2.7-1.8-1.7-2.6-4.1-3.7-6.2-1.1 2-2.3 4-2.9 6.2-.5 2.2 1.4 3.9 2.8 5.4-1.8.7-3.6 1.4-5.4 2.2-3.1-7.5 2-15 5.5-21.5 2 4 3.4 8.3 4.5 12.6 3.3-2.2 6.6-4.5 9.1-7.5 2.4-2.6 4.4-6 8.1-6.9m11.6-1c.8 1.8 1.6 3.5 2.5 5.3-4.1 2.5-8.3 5.2-13.2 5.6 0 .7 0 2.2 0 2.9 2.3.2 4.7.5 7 .2.9-1.3 1.7-2.7 2.5-4.1.9.3 1.9.6 2.8.9.2 2 .3 3.9.6 5.8-3.2-.9-6.6-1.3-9.2 1.2-5.1-1.2-10.3-2.2-15.3-3.5 1.7 3.4 4.9 5.3 8.6 6 .2 2.5.3 5 .4 7.4 2.7 1.6 5.9 1.8 9 1.3-1.1 2-2.3 4.1-3.3 6.2 2.6 0 5.3-.3 7.9-.7-.4 1.3-.7 2.6-1.1 3.9 2.7-1.4 5.6-1.5 8.6-1.3-1.6-1.3-3.2-2.7-4.8-4 .9-1.7 1.8-3.3 2.7-4.9.1-1.5.1-3 .5-4.5.9-.6 1.9-1.1 2.9-1.6.1-.6.3-1.7.4-2.2-1.1-1.1-2.2-2.2-3.3-3.3 1.3 0 2.5.1 3.8.1 1.1-1 2-2.2 3-3.4 2.6-.3 5.3-.3 7.9-1 2.2-1.9 3.7-5 3.2-8-1.1-1.7-2.6-3.5-4.6-4.1-3 1-6 2.2-9 3 0 1.7 0 3.4.1 5.1 1.7-.8 3.4-1.5 5.1-2.3 1.6.9 3.2 1.7 4.8 2.6-5.8-.2-10.6 3.2-15.2 6.2.1-.5.3-1.6.4-2.2 1.3-1.2 2.6-2.3 3.7-3.7-1.5-1.5-3.3-2.6-5.1-3.7 1.8-1.8 3.5-3.5 5.2-5.4-3.2-.1-6.3 0-9.4.3m-11.8 3.7c0 .9.1 2.6.2 3.5 3.8.6 6.7-2.1 9.3-4.5-3.2-.9-6.4 0-9.5 1m-5.6 5c-.6 1.1-1.2 2.2-1.7 3.4 1.6-.4 3.1-.9 4.7-1.4-.8-.9-1.6-2.1-3-2m29.4 7.3c0 2.9 2.1 4.6 4.3 6 1.1-2.4 2.1-4.8 3-7.3-2.4.4-4.9.8-7.3 1.3m-4.2 8.8c.8 2.1 1.5 4.2 2.6 6.1 3.6-1 5-5 6.3-8.1-3 .4-6 1.1-8.9 2m-106 38.7c-1.4 3.1-3.3 6-5.4 8.7-1.6 1-3.2 2-4.8 3l-.3-.6c0 2.2-.2 4.5.1 6.7.9.8 2 1.5 3 2.2.3.6.9 1.9 1.2 2.5 1.1-.8 2.3-1.5 3.4-2.3-.3-1.2-.6-2.4-.9-3.7.5-.3 1.6-1 2.1-1.4 2.7.1 3.4-3.4 4.7-5.3 1-.3 2-.6 3-.9-2.1-1.4-4.3-2.8-6.4-4.3 1.7-.3 3.4-.6 5.1-.9-1.1-1.8-2.5-3.4-4.7-3.8m106 9.6c.2 1.8.6 3.6 1.1 5.4 2.3.5 4.6 1.1 6.9 1.6 1.1-1.7 2.1-3.4 3.2-5.1-3.1-2-7.7-5.2-11-2m-95 10.3c1.8 1.6 4.5 1.1 6.8 1.4.6-2.6 1.8-6.3-1.4-7.7-3.7-1.7-6.3 3.1-5.3 6.2m62.8-4.7c-1.8 3.4-2.2 7.3-1.1 11 1.9-.1 3.9 0 5.8-.3.9-.9 1.8-1.9 2.6-3-1.9-.5-3.7-.9-5.6-1.4-.1-.5-.4-1.6-.5-2.1 1.9.3 3.8.5 5.7.8.4-1 .8-2.1 1.2-3.1-2.7-.6-5.4-1.3-8-1.9m29.5 2.3c-2.5 1-4.4 2.9-6.3 4.7-.7.8-1.9 1.4-1.7 2.6 1.2 1.1 2.5 2 3.8 2.9-2.8.3-5.5 1.1-7.4 3.3 1.7.1 3.4.2 5.2.4 3.5.1 6 3 9.4 3.6 1.4-2.4 3.1-4.8 3.8-7.5-1.1-.7-2.2-1.3-3.4-2 0-.9-.1-1.8-.1-2.7-.8-1-1.8-1.9-2.1-3.2 2.8.4 5.6 1.5 8.4.6.1-.8.3-2.2.4-3-3.3-.3-6.8-1.3-9.9.2m-16.4.2c-.1 2.1-1.8 4.8.4 6.3 2.1.3 3.8-1.1 4.8-2.8-.8-2.2-3.2-2.7-5.1-3.5m-91 9.5c-.6 4.1-1.9 8-2 12.2 1.5.9 3 1.8 4.6 2.6.1.4.2 1.4.3 1.8-5.9-1.1-10 4.5-11.9 9.3-.3 1.6-1.9 4.2.5 4.8 2.3 1.1 3.9-1.6 5.6-2.8 3.6-3.7 8.9-5.9 10.7-11.1.8-2.6 3.1-3.9 5.3-5.2-.2-1.7-.3-3.3-.5-5-1.7-.5-3.3-1.1-5-1.6 1.8-.2 3.7-.3 5.4-1.1.4-1.4-.6-2.5-2-2.4-3.7-.2-7.3-.5-10.9-1.5m-17.6 11.2c-1.2 1.5 1.4 3.1 2.4 1.6 1.2-1.5-1.4-3.1-2.4-1.6m-16 9.3c-.6 2.6-1 5.2-1.5 7.8 1.1.4 2.2.7 3.3 1 4.4-1.9.2-6.6-1.8-8.8m12.4 15.7c1.5 1.2 3 3.2 5.3 2.8 1.4 0 2.5-1.3 2-2.7-1.7-2.4-5-.4-7.2-.1m-27.4 7.8c.5 1.2 1.1 2.3 1.8 3.5 2 .2 4.3.9 6-.6 0-2-2.2-2.4-3.5-3.4-1 .1-3.2.4-4.2.5m23.9 4.3c-.5 1.6 0 2.2 1.7 1.7.5-1.6 0-2.2-1.7-1.7z"/><path d="m330 207c.1 3.3 3-1.5 0 0"/><path d="m186 235c.2 3.3 3-1.6 0 0"/><path d="m201 121c.9-2.6 3.2-3.2 5.7-3-1.3 2-3.4 2.7-5.7 3"/><path d="m228 123c1.1-.8 2.2-1.6 3.3-2.4.7 1.5 1.4 2.9 2.2 4.4-1.8-.7-3.6-1.3-5.4-2"/><path d="m207 122c1.5 2.5 2.5 5.3 3.1 8.2-.8.3-1.7.5-2.5.8-.4-3-.8-6-.7-9"/><path d="m225 128c.5-.3 1-.5 1.5-.8 2 .4 4 .7 6 1.1-.1.4-.4 1.3-.5 1.8-1 .3-2 .6-3 .9-1.3-1-2.7-2-4-3"/><path d="m218 128c1.4.1 2.8.2 4.3.3-1.4.9-2.8 1.8-4.1 2.8 0-.8-.1-2.3-.1-3"/><path d="m315 127c1.4.9 2.8 1.7 4.4 2.4-1.4.5-2.9.9-4.3 1.3 0-.9-.1-2.8-.1-3.7"/><path d="m305 132c1.3-1.4 2.7-2.8 4.1-4.2.9 2 3.7 4.7 1.7 6.8-2-.7-3.9-1.7-5.7-2.7"/><path d="m215 132c1.8.5 3.7.9 5.5 1.3 2.4-.7 4.9-1.2 7.4-1.6-.2 2.5-.4 4.9-.7 7.4-1.2-1.4-2.2-2.9-3.6-4-2.9-.3-5.8 0-8.6-.1 0-.8 0-2.3 0-3.1"/><path d="m283 133c2.1.1 4.3 0 6.4 0-.3 1.3-.6 2.5-.9 3.8-1.8-1.2-3.6-2.5-5.5-3.8"/><path d="m204 135c.9-1.3 3.2.3 2.2 1.6-.9 1.3-3.2-.3-2.2-1.6"/><path d="m276 135c5.8 3.5 12.6 5.4 17.6 10-3.9 3.6-9 5.4-14.3 4.4 1.5-.7 3-1.6 4.6-2.1 2.2-.8 4.5-1.5 6.8-2.3-1.8-1.1-3.5-2.1-5.2-3.2-.7.9-1.5 1.8-2.2 2.8l-.7.4c-3.8.8-.9-3.6.5-4.8-2.8-1.4-5.7-2.5-8.7-3.4.4-.5 1.3-1.4 1.7-1.9"/><path d="m310 139c1-3 3.4-4.9 6.7-4.6-.7 1.4-1.2 3-2.3 4.2-1.5.2-2.9.3-4.4.4"/><path d="m274 139c1.6 2.5 3.2 5.1 4.7 7.6-.5-.2-1.5-.4-2-.6-1.2-1.1-2.3-2.2-3.8-2.9-1.3 1.7-2.3 3.7-3.1 5.6-.2.8-.5 2.4-.7 3.2-.1.5-.3 1.4-.4 1.9-1.4-1.3-2.8-2.7-4.2-4.1 1.7-2.1 3.4-4.1 5.1-6.1 1.4-1.6 2.9-3.2 4.4-4.7"/><path d="m292 151c1.6-.9 3.1-1.8 4.7-2.7.7 1.1 1.4 2.3 2.1 3.4-1.2-.2-2.3-.4-3.5-.5.1 2.8.5 5.9-.8 8.5-1.5 3-3.3 5.9-5.2 8.7-2.6 4-7.5 5.4-11.4 7.8-4.7-1.8-10-2.6-13.9-6-.7-1.3-1.5-2.6-2.2-3.9.4.1 1.3.2 1.8.2 2.5.8 4.9 2.3 7.6 2 2.4-.7 2.4-3.6 3.2-5.5 1.6.8 3.4 1.5 5.2 1.9.4-1.1.1-2.1-.6-2.9-2.1-2.5-4.8-4.4-7.4-6.2 4.2-.1 8.1 1.4 12 2.9-.9 1.1-1.8 2.2-2.6 3.3 1 .8 2 1.6 3 2.4 3.4-3.3 6.9-6.6 10.3-10-.7-1.1-1.4-2.2-2.2-3.3m-10.2 13.7c.2 2.3.9 4.3 3.5 4.5-.9-1.7-2.1-3.2-3.5-4.5z"/><path d="m170 162c1.1-2.3 2.5-4.3 4.2-6.2.6 2.9-.4 6.7 2.3 8.7 3.1-.2 6-.7 9.1-1 .8-.1 2.4-.2 3.3-.2-2.6 2.9-6.7 3.8-10.4 3.9-3.3-.7-5.8-3.3-8.5-5.2"/><path d="m178 160c.8-1.5 1.9-2.8 2.8-4.2 1.1.4 2.1.8 3.2 1.2.1.9.2 2.6.3 3.4-2.3.6-4.6 1.1-6.9 1.5.2-.5.5-1.5.6-2"/><path d="m307 157c1.9.2 3.8.4 5.7.7-.5 1.1-.9 2.3-1.4 3.4-1.4-1.4-2.8-2.8-4.3-4.1"/><path d="m24 160c.9-.8 1.9-1.5 2.9-2.1 0 1.4-.1 2.8-.1 4.2-.4 3.3-.7 6.7-.5 10-1.9 1.7-6.1 2.6-5.4 5.8 2.7.1 4.9-1.6 7-3.1 1.1 1.4 2.1 2.8 3.2 4.2 1.1 1.5 2.3 3 3.5 4.4 2.6 3 5.7 5.7 9.3 7.4 4 1.9 8.1 3.8 11.7 6.6 4.1 3.1 9.2 4.6 13.4 7.6.2 1.7.4 3.5.6 5.2-1.9-1.7-3.6-3.6-5.9-4.8-2.4.3-4.8 2-7.1 1-3.2-1.3-6-3.2-9-5-1 1.7-1.9 3.4-2.8 5.2 2.5.4 4.9.7 7.4 1.1 1.3 1.9 2.5 3.7 3.8 5.6-.9.4-1.8.8-2.7 1.1 1 5.6 2.9 11.2 7.1 15 1.8 1.2 4.1 1.4 6.1 1.9.6 3.3.8 7 3.3 9.6 4.2 4.5 10 7 15.8 8.9-.9.8-1.8 1.7-2.8 2.4-4.8-2.1-9-5.4-14.3-6.6 2.6 2.9 5.6 5.4 8.8 7.7 0 .4-.1 1.3-.2 1.7-12-7-22.5-16.5-31-27-6.7-9.7-14.5-19-17.7-30.6-1.5-4.9-3.7-9.5-5.7-14.2 1.7.1 3.5.1 5.2.2-.9 1.4-1.9 2.8-2.9 4.2 5.9 1.8 11 5.1 15 9.8-1.3.5-2.6 1-3.9 1.4-2.1-2.9-3.5-7.7-7.7-7.8 1.5 4.8 3.5 9.5 5.4 14.2.7 2.3 3.4 2.4 5.3 3.1-.6-2.5-1.3-4.9-2-7.4 2.5.2 5 .3 7.5.4-.3-2.5-.6-4.9-.9-7.4-5.3-3.2-10-7.3-13.4-12.4-1.8-3.5-6-1.3-9-1-2.1-3.8-5-7.1-7.6-10.6 2.7.6 5.3 1.5 7.8 2.6 1.1-1.3 2.3-2.6 3.4-4-3-.9-6.2-1.6-9.3-1.8.8-1.7 1.5-3.4 2.1-5.2 1.6 1.4 3.2 2.9 4.7 4.4.5-2 1.1-4.1 1.7-6.1m21.4 35.4c-.1 2.6 1.3 4.7 3.2 6.3.8-.5 2.3-1.5 3.1-2-.4-1.1-.9-2.1-1.3-3.2-1.6-.6-3.3-.8-4.9-1.1m6.8 5.6c0 3.9 4.8 4.3 7.6 3.4-1.8-1.9-3.5-3.9-5.9-4.9-.4.4-1.3 1.1-1.7 1.5z"/><path d="m190 159c2.4 1.8 4.4 4 5.4 6.9-.5 0-1.6 0-2.1 0-2.1-1.6-2.6-4.4-3.3-6.8"/><path d="m207 160c1.7 1.4 2.5 3.5 3.1 5.6-1.4-.6-2.7-1.2-4.1-1.6-1.7.8-3.2 1.9-4.9 2.6-1.7.1-1.9-1.9-2.6-3 1.6.3 3.2.7 4.9.8 1.7-.9 2.5-2.9 3.7-4.4"/><path d="m297 160c2.2.1 4.4.2 6.5.4-1 .7-1.8 2-3 2.1-1.2-.7-2.3-1.6-3.5-2.5"/><path d="m165 167c1.3-.4 2.6-.9 3.8-1.3 1.6 2.7 2.9 5.5 3.9 8.5-.8.4-1.6.8-2.4 1.2-.9-2.5-1.8-5-2.7-7.5-.7-.2-1.9-.7-2.6-.9"/><path d="m111 172c2-1.4 3.9-2.9 5.8-4.4 1.4 0 2.8.1 4.3.1.1 2.4-.2 4.8.4 7.1 2.6 2.8 5.9 4.6 8.7 7.1 4.1 3.8 8 7.9 12.5 11.3 2.4 1.9 4.8 3.9 7 6.2 1.2 1.2 2.3 2.5 3.4 3.8-6.2-1.1-10.2-6.2-15.2-9.4 2.2 3.3 4.9 6.2 7.9 8.8-1.7 2.4-3.2 4.9-5.3 6.9-3.9-.4-6.4-4.7-10.5-4.3 2.4 5.5 9.5 5.3 14.3 7.4-2.5.4-5 .7-7.5.9-4.5-2-8.2-5.4-12.4-7.9 1.9-5.7 6.6-9.3 10.8-13.2-3.6-5.1-8.6-8.9-13.2-13-3.2-3.1-6.8-5.6-10.9-7.3m25.3 26.5c-.3 1.5-1.5 3.1-1 4.7 1 1.7 3.1 1.5 4.8 1.8.2-3-1-5.4-3.8-6.5z"/><path d="m201 173c2.3-.9 4.6-1.8 6.9-2.7.1.8.3 2.3.4 3.1-2.5 1-5.1 1.2-7.3-.4"/><path d="m302 171c1.2 0 2.5 0 3.7 0 2.2.3 4.3.8 6.5 1.3.4.8.8 1.7 1.2 2.6-1.7-.5-3.3-1-5-1.4-1.3 1.7-2.5 3.4-3.8 5.1.1-1.6.1-3.3.2-4.9-1.1-.1-2.2-.2-3.3-.2.1-.6.3-1.9.4-2.5"/><path d="m108 177c1.8-1 3.7-1.9 5.6-2.8-.6 1.5-1.3 2.9-1.9 4.4-1.3-.5-2.5-1.1-3.7-1.6"/><path d="m260 175c2.9-.4 3.4 3.2 4.6 5.1-.9.1-2.8.2-3.8.3-.3-1.8-.6-3.6-.9-5.4"/><path d="m195 177c2.4.2 4.8.5 7.2.7 0 .7 0 2.1 0 2.8h-.9c-.5 0-1.5-.1-2-.1-1.6-1-3-2.2-4.4-3.4"/><path d="m116 178c.9 0 2.7 0 3.6 0-.4 1-.9 1.9-1.3 2.8-.8-.9-1.5-1.9-2.3-2.8"/><path d="m270 180c1.3.1 2.7.3 4 .4-.5 1.9-.3 4.5-2.3 5.5-2.4 1.5-5.3 1-8 1.1 1.4-.7 2.7-1.4 4.1-2 .6-.3 1.9-.8 2.5-1.1.5-.2 1.4-.6 1.9-.8-.8-1-1.5-2.1-2.2-3.1"/><path d="m260 183c.9.1 1.9.1 2.9.2.1.9.2 1.8.3 2.7-1 .1-1.9.1-2.9.2-.1-1-.2-2-.3-3.1"/><path d="m106 186c1.2.2 2.3.3 3.5.5.3.7.8 2.2 1.1 2.9-1.7-.1-3.3-.2-5-.2.1-.8.3-2.4.4-3.2"/><path d="m106 191c.4-.2 1.2-.6 1.5-.8.9 1.4 1.7 2.7 2.6 4.1-1.5-.5-2.9-1-4.3-1.6.1-.4.2-1.3.2-1.7"/><path d="m185 192c2.1.3 4.1.6 6.2.9-1 4.2-2 8.4-3.2 12.5-2.2.7-4.6 1-6.9 1-1.3-.9-2.5-2-3.7-2.9 2.6-.3 5.1-.7 7.7-1.1-2.6-2.5-5.5-4.7-8.3-7.1l1.1.1c1.3.2 2.7.5 4 .5 1.2-1.2 2.1-2.6 3.1-3.9"/><path d="m151 193c1.2.1 2.4.1 3.6.2.4 0 1.1 0 1.5.1.6 1.8 1.3 3.6 1.9 5.5-1.4-.5-2.9-.9-4.3-1.4-.9-1.4-1.8-2.9-2.7-4.3"/><path d="m161 200c3.3-2.3 7.2-3.8 11.2-3.9-3.1 2.8-7.1 4.1-11.2 3.9"/><path d="m104 200c.3-.9.7-1.9 1-2.8 3.3 1.2 6.7 2.3 10.2 3-.4 1.5-.8 2.9-1.1 4.4-3.6-.9-6.8-2.8-10-4.6"/><path d="m164 205c2.8-2.4 5.8-4.7 9.5-5.6-2 3.5-5.5 5.4-9.5 5.6"/><path d="m318 203c.1-2.1 1.5-3.3 3.1-4.4.1.9.4 2.8.5 3.7-1.2.2-2.4.5-3.6.7"/><path d="m154 204c2.1-.7 4.2-1.3 6.3-2-.4 1.3-.8 2.5-1.2 3.8 1.5 1.1 2.9 2.1 4.4 3.2-4.2 1.6-6.9-2.3-9.5-5"/><path d="m104 203c.6.3 1.8 1 2.5 1.3.5 4.9.3 9.9-.9 14.7 1.5-.1 2.9-.1 4.3-.1-.1-3.8 0-7.7 0-11.5 1.5.8 3 1.6 4.4 2.4-.7 3.2-2.2 6.7-1 9.9.9 2 2.1 4 4.1 5 3.7.1 7.5-.3 11 1.2 2.8 2.3 5.3 4.8 7.8 7.4-1.4-.1-2.8 0-4.2-.3-2.3-1.7-3.9-4.1-5.8-6.1l-.6-.5c-1.8.1-3.5.3-5.3.5 5.2 6.4 11.6 11.9 18.8 15.9-3.5.1-6.6-1.4-9.5-3.1-1.7-3.1-4.1-5.7-6.8-8-2.1-.4-4.2-.9-6.3-1.4.5-.7 1.6-2.2 2.2-2.9-2.9-1.7-5.9-3.3-9-4.8 1.1 4.7 1.9 10.2 6.5 12.9-1.3.2-2.6.4-3.8.7.9 1.6 1.8 3.1 2.7 4.6-.6.2-1.7.4-2.3.6.6 5.6-.5 11.3-2.7 16.5-.8 2.2-3.2 4.1-5.6 3.4-6.8-1.4-13.6-3.7-19.4-7.6 3.4-.4 6.8-1.4 9.9-3-1.2-1.2-2.3-2.4-3.5-3.7 1.2-1.3 2.5-2.6 3.5-4.1-.7-1.6-1.7-3-2.5-4.4 1.5-2 3.1-3.9 4.7-5.8 0-.5-.1-1.5-.2-2-2.9-.3-5.9-.3-8.6-1.7-2.8-1.4-5.3-3.3-8-4.8-.1-1.5-.2-3-.3-4.5 3.7 4 7.7 7.9 12.8 9.9.9-1.1 1.9-2.3 2.8-3.4 2.6 3.5 6.5 5.6 10.8 6.1-2.6-3.1-5.6-5.9-8.8-8.3 2.1 0 4.2-.1 6.3-.2-.9-1.2-1.2-3.3-2.9-3.6-1.6.3-3 1.2-4.5 1.9-3.3-3.1-7.2-5.7-12-5.2 1 1 1.9 2 2.9 2.9l.6.4c1.8.9 3.7 1.8 5.6 2.7-2.2.2-4.6.9-6.4-.8-4.7-3.8-7.7-9.9-14-11.7 0 .8.2 2.3.2 3.1 1.8 1.6 3.5 3.2 5.3 4.9-1.8-.5-3.6-1.1-5.4-1.6-.8.7-1.7 1.5-2.5 2.2-1.3-.6-2.6-1.1-3.9-1.6 3.8-1.7 5.2-5.6 6.6-9.2 1.3.2 2.5.5 3.8.8 2.2.9 3.6 3 5.6 4.3 2.8.6 6-.1 8.6 1.4 2.5 1.4 5 2.9 7.7 3.8 1.6 0 3.3 0 4.9-.1.1-5.2.1-10.5 0-15.7"/><path d="m170 208c1.3-1.9 3.2-3.3 5.5-4-1.1 2.3-3.2 3.4-5.5 4"/><path d="m213 210c1.5-1.4 3-2.8 4.7-3.9.6 1.2 1.1 2.3 1.6 3.5-2.1.2-4.2.3-6.3.4"/><path d="m210 219c1.6-.5 2.2 0 1.7 1.7-1.6.5-2.2 0-1.7-1.7"/><path d="m358 222c1.7-1.3 3.4-2.5 5-3.8.4 4.3-3.8 6.7-6.2 9.6-.8-1.1-1.6-2.1-2.3-3.2 1.2-.9 2.3-1.8 3.5-2.7"/><path d="m261 221c1.2-1.2 3.4.8 2.3 2.2-1.2 1.1-3.4-.8-2.3-2.2"/><path d="m72 227c1.1-1.6 2.3-3.2 3.5-4.6l.9.3c-1.4 1.5-2.9 2.9-4.4 4.3"/><path d="m296 224c1.4-1.2 3.2 1.3 1.7 2.3-1.4 1.1-3.2-1.3-1.7-2.3"/><path d="m259 229c.5-1.2.4-3 2.1-3.2.9.7 1.9 1.4 2.8 2.2-1.6.3-3.2.7-4.8.9"/><path d="m266 226c1.3.3 2.6.6 3.8 1 .2 1.1.4 2.1.7 3.2-1.2 0-2.4-.2-3.6-.4-.2-1.3-.5-2.5-.9-3.8"/><path d="m134 228c1.2-.3 2.4-.6 3.6-.9 1 .3 2 .6 3 1 0 .4.1 1.2.1 1.6-.4.3-1.3 1-1.7 1.3-.6-.4-1.7-1.2-2.2-1.6-.7-.4-2.1-1-2.9-1.4"/><path d="m347 229c-.7-3.3 3.6-2 5.6-2.4.5.1 1.6.4 2.2.5-2.1.9-4.2 1.7-6.3 2.5-.4-.1-1.1-.5-1.4-.6"/><path d="m71.8 234c2.1-3 5.5-4.9 9-6 .5 1.1 1 2.3 1.5 3.4-3.3 1.1-6.9 4.9-10.5 2.6"/><path d="m318 231c3-1.2 5.9-2.4 8.9-3.3.9.2 2.6.5 3.5.7-3.7 2.4-8.1 3.3-12.5 2.6"/><path d="m352 231c.5.5 1.6 1.4 2.1 1.9-2.1 1.2-4.2 2.3-6.3 3.5-.2-.7-.6-1.9-.8-2.6 1.7-.9 3.4-1.8 5-2.8"/><path d="m138 233c4.2-2.2 8.6.4 12.8 1.3-.9 1.5-1.7 3.1-2.5 4.7-.4-1.5-.8-3.1-1.2-4.6-3.1-.1-6.1-.6-9.1-1.4"/><path d="m257 232c.9-.1 2.6-.2 3.5-.2-.8 1.7-1.6 3.3-2.4 4.9-.8-1.5-1.8-3-1-4.8"/><path d="m117 235c.9-.6 1.8-1.1 2.7-1.7 2.2 2.6 4.8 4.9 8 6-4.1.5-7.6-1.9-10.7-4.3"/><path d="m264 234c1.5-.1 3-.1 4.6-.2-.9 1.5-1.8 2.9-2.5 4.5-.8-1.4-1.5-2.8-2.1-4.3"/><path d="m314 237c3.5-.2 6.9.4 9.9 2.3-.9.6-1.9 1.3-2.7 1.9-2.4-1.4-4.8-2.8-7.2-4.2"/><path d="m332 242c.5.1 1.5.3 2 .4.1.4.4 1.1.5 1.5-.8 2.1-1.5 7.2-4.7 5.5.7-2.5 1.5-4.9 2.2-7.4"/><path d="m341 243c1.4-.5 2.7-1 4.1-1.3-.8 1.7-1.6 3.4-2.6 5-1.6 1.6-3.2 3-4.8 4.5-1.2-2.3-1.6-4.6.6-6.5.9-.6 1.8-1.2 2.7-1.7"/><path d="m128 248c6.1.1 12.2-1.2 18.4-.6 2.7 0 3.8 2.7 5.7 4.1 2.1 1 4.4 1.5 6.5 2.6 2.2 1.2 3.2 3.7 4.3 5.8-3.2.3-6.3.7-9.4 1.4 0 .7 0 2.1 0 2.8 1.4.3 2.9.6 4.3.8 1 3.4 1.8 6.8 1.9 10.3-3.1.1-6.2.5-9.3-.1-3.4-1-6.5-2.8-10-2.9-5.6-.4-11.2-1.2-16.5-3.1-1.3-.6-3.2-.8-3.6-2.4 2.1-.9 4.2-1.6 6.3-2.6-.4-1.6-1.6-2.9-2.6-4.1 1.6-3.9 3.1-7.8 4.1-11.9m1.8 11.5c1 1.1 1.6 3.3 3.4 2.8 2.3.1 3.4-2.2 4.4-3.9-2.7.2-5.3.6-7.9 1.1z"/><path d="m208 248c.3 1.4.7 2.9 1 4.3.6.1 1.7.3 2.2.4.8.2 2.5.4 3.3.6 1.1-1.4 2.2-2.8 3.3-4.2 1.3 1.4 2.3 3.7 4.5 3.6 2.8.5 4.7-2 6.5-3.6.8 1.6 1.6 3.2 2.4 4.7-10.7.1-21.8 2.5-32-.7 3.8.1 6.9-1.9 8.9-5.1"/><path d="m312 258c4.2-2.4 8.6-4.7 13-6.5l.8-.3c-.4 1.7-.7 3.3-1 5-2.4-.3-4.8-.3-7 .2-1.4 1.4-2.8 2.9-4.2 4.4-.4-.7-1.2-2.1-1.6-2.8"/><path d="m80 257c12 5.3 24.4 9.9 37.4 12.1-.4.5-1.1 1.6-1.5 2.1-10-2.1-19.9-4.9-29.6-8.6-1.3-.6-2.6-1.3-3.8-2.1-.9-1.2-1.7-2.4-2.5-3.6"/><path d="m259 257c2.8.1 5.6.2 8.4.3.1 3.4.1 6.9.2 10.4-3.9.1-8.3.2-11 3.5 3.6 1.9 7.6 1.4 11.1-.5.2.8.5 1.7.7 2.5-1.8.8-3.5 1.7-5.2 2.5-1.8-.3-3.5-.6-5.3-.8-.7-.1-2.2-.3-2.9-.4 2.4-5.5 4.5-11.3 4.1-17.4"/><path d="m163 260c2.5 1.3 4.4 3.2 5.8 5.7-2.3.7-4.5 1.4-6.8 1.9-.4-2.6-.1-5.2 1-7.6"/><path d="m108 261c3.5-.2 7 .6 9.6 3.2-2.7.6-5.6 1.1-8.3.1-.3-1.1-.8-2.3-1.3-3.4"/></g><g style="fill:#44321e"><path d="m187 116c1.3-2.5 3.6-3.9 6.2-4.5.3.5.9 1.5 1.2 2-2.5.7-5 1.6-7.4 2.5"/><path d="m235 127c1.6-.7 2.5 1.9.8 2.4-1.6.7-2.5-1.9-.8-2.4"/><path d="m203 130c1-1.5 3.6.2 2.4 1.6-1 1.5-3.5-.2-2.4-1.6"/><path d="m235 132c2-.7 4.1-1.3 6.2-1.8l-.1 1c-.8.9-1.6 1.9-2.3 2.8-1.2-.7-2.5-1.3-3.7-2"/><path d="m273 149c1.2.2 2.3.3 3.5.5.1.6.4 1.9.5 2.5-.7 0-2.1-.1-2.9-.1-.4-1-.7-2-1.1-2.9"/><path d="m364 210c2.7-3.9 4.9-8.2 8.6-11.3-.6 7.2-2.2 15.2-8 20-.1-.8-.2-2.5-.2-3.3 1.1-1.9 2.3-3.8 3.4-5.6-1.3.1-2.5.1-3.8.2"/><path d="m357 215c1.8-1.4 3.9-.7 5.9-.2-3.4 2.6-7 5-10.4 7.5-.3.2-.9.7-1.3.9-3 .1-6.1-.1-9.1-.3 5.1-2.4 10.1-5 14.9-7.9"/><path d="m334 235c1.3-.4 2.6-.8 4-1.3-.2 1.6-.7 3.1-1.2 4.6-.9.7-1.8 1.4-2.7 2.2-1.2-1.4-2.4-2.8-3.7-4.2 1.2-.5 2.4-.9 3.7-1.3"/><path d="m310 240c3 1.2 6 2.4 9 3.4-.3.3-.8.9-1 1.2-2.4.3-4.9.3-7.3.2-.3-1.6-.5-3.2-.8-4.8"/><path d="m318 256c2.3-.5 4.7-.6 7-.2 1.1.3 2.1.5 3.2.8-2.3 1.7-4.6 3.6-7 5.3-1.6 1-3.2 2.1-4.8 3.1-2.5 1.5-5.1 2.8-7.6 4.1-3.5-1.4-7.2-1.3-10.8-.6 1.1-1.1 2.2-2.3 3.3-3.5.1-.3.3-1 .4-1.3.1-.4.3-1.2.4-1.6 3.9-.5 7.8-.6 11.8-.7 3-.3 5.4-2.1 7.8-3.8-1.2-.5-2.4-1-3.6-1.5m-8.9 5.8c-.4.4-1.3 1.2-1.7 1.7.9 2.1 2.7 2.7 4.9 2.3-.2-1.6-1.3-4.2-3.2-4z"/><path d="m289 268c3-.8 6-1.5 9-2.4-1.3 2.9-2.3 5.9-3.1 8.9-2.2.6-4.3 1.3-6.3 2.3-3.8-1-7.7-1.1-11.4.4-.2-1.2-.4-2.3-.6-3.5 1.4-1.1 2.7-2.3 4.1-3.4.5-.1 1.4-.3 1.9-.4 1.7 1.5 3.2 3.3 5.4 4.1 1.4-.5 2.7-1.2 4-1.9-1-1.4-2-2.8-3-4.1"/><path d="m118 272c3.5-.2 6.9 0 10.2 1.1 6.4 2.2 13.3 1.6 19.8 2.9 6.9 1.3 13.5 4.1 20.6 4.5 5.1.3 10.2.7 15.2 1.8-.1.5-.4 1.5-.6 2-8.4-.1-16.8-.9-24.9-3.2-6.8-2.1-13.8-3.1-20.8-4.1-6.6-1.1-13.7-1.3-19.5-5.1"/><path d="m267 281c1.2-1.9 2.6-3.7 4.1-5.4l.4-.6c.3.7.9 2.2 1.2 2.9-.2 1.1-.4 2.2-.6 3.3-1.7 0-3.4-.1-5.1-.3"/><path d="m244 283c1.1-1.1 2.6-1.7 4.1-1.4.1 1.5-1.4 2.6-2.8 2.7-.3-.3-1-1-1.3-1.3"/></g><g style="fill:#7e0906"><path d="m277 126c.6-2.2 1.8-4.2 2.9-6.2 1.1 2.1 1.9 4.5 3.7 6.2 2 1.3 4.3 1.9 6.5 2.7 0 1.3-.1 2.7-.1 4 1.8.9 3.6 1.9 5.4 2.8 0 .5 0 1.6 0 2.1-1.3.5-2.6.9-3.9 1.4-1.3-.7-2.5-1.5-3.8-2.3.3-1.3.6-2.5.9-3.8-2.1 0-4.3.1-6.4 0-.8-.5-1.6-1-2.3-1.6-1.4-1.5-3.3-3.1-2.8-5.4"/><path d="m55.9 213c1-.4 2-.8 3-1.3 2.1 2.3 4.6 4.4 7.7 5.3 1.3.5 2.6 1 3.9 1.6 1.6 1.2 3.2 2.4 4.8 3.6-1.3 1.5-2.4 3-3.5 4.6 1.5-1.4 3-2.8 4.4-4.3 1.2.4 2.5.8 3.7 1.3 2.8 1.5 5.3 3.4 8 4.8 2.7 1.3 5.7 1.3 8.6 1.7 0 .5.1 1.5.2 2-1.6 1.9-3.1 3.9-4.7 5.8.9 1.4 1.9 2.8 2.5 4.4-1 1.5-2.3 2.8-3.5 4.1 1.2 1.2 2.3 2.4 3.5 3.7-3.1 1.6-6.5 2.5-9.9 3 5.8 3.9 12.6 6.2 19.4 7.6 2.4.7 4.8-1.1 5.6-3.4 2.1-5.2 3.3-10.8 2.7-16.5.6-.2 1.7-.4 2.3-.6-.9-1.5-1.8-3.1-2.7-4.6 1.3-.2 2.6-.5 3.8-.7h.7c3.1 2.4 6.6 4.8 10.7 4.3.5 0 1.6 0 2.1 0 2.9 1.7 6.1 3.2 9.5 3.1 1.1 0 2.1.1 3.2.1 9.1-1.1 16.2 6.1 25 6.8 5 .5 10 1.3 14.8 2.6 1.5 3.8 2.9 7.7 2.3 11.8-.9 6-.2 12.2-.7 18.2-5-1.1-10-1.5-15.2-1.8-7.1-.4-13.7-3.2-20.6-4.5-6.6-1.4-13.4-.8-19.8-2.9-3.3-1.1-6.8-1.3-10.2-1.1-.3-.1-.9-.2-1.2-.3.4-.5 1.1-1.6 1.5-2.1-13-2.2-25.4-6.8-37.4-12.1-1.1-.7-2.2-1.3-3.3-2 0-.4.1-1.3.2-1.7-3.2-2.2-6.3-4.7-8.8-7.7 5.2 1.2 9.5 4.5 14.3 6.6 1-.7 1.9-1.6 2.8-2.4-5.8-1.9-11.6-4.4-15.8-8.9-2.5-2.6-2.7-6.3-3.3-9.6-2-.6-4.3-.8-6.1-1.9-4.2-3.9-6.2-9.6-7.1-15 .9-.4 1.8-.7 2.7-1.1m15.9 20.5c3.6 2.3 7.2-1.5 10.5-2.6-.5-1.1-1-2.3-1.5-3.4-3.4 1.1-6.8 3-9 6m55.8 13.7c-.9 4.1-2.5 8-4.1 11.9 1 1.3 2.2 2.5 2.6 4.1-2 1-4.2 1.7-6.3 2.6.5 1.6 2.3 1.8 3.6 2.4 5.3 2 10.9 2.7 16.5 3.1 3.6.2 6.7 2 10 2.9 3.1.6 6.2.2 9.3.1-.1-3.5-.9-7-1.9-10.3-1.4-.3-2.9-.6-4.3-.8 0-.7 0-2.1 0-2.8 3.1-.6 6.3-1.1 9.4-1.4-1.2-2.1-2.1-4.6-4.3-5.8-2.1-1.1-4.4-1.6-6.5-2.6-1.9-1.4-3.1-4.2-5.7-4.1-6.1-.7-12.2.6-18.4.6m35 12c-1.1 2.4-1.4 5-1 7.6 2.3-.6 4.6-1.3 6.8-1.9-1.4-2.4-3.3-4.4-5.8-5.7m-54 1.4c.5 1.1.9 2.2 1.3 3.4 2.7 1 5.6.5 8.3-.1-2.5-2.6-6-3.4-9.6-3.2z"/><path d="m351 226c.7-.4 2.1-1.4 2.8-1.8l.6-.4c.8 1.1 1.5 2.1 2.3 3.2-.1.6-.5 1.9-.6 2.6l-.4.6c-1.2-.3-2.4-.4-3.7-.4-.9-.1-2.8-.1-3.7-.2l-.7-.2c2.1-.8 4.2-1.6 6.3-2.5-.5-.1-1.6-.4-2.2-.5l-.9-.2"/><path d="m324 239c2-1 4-1.9 6-2.9l.6-.2c1.2 1.4 2.5 2.7 3.7 4.2.1.3.4 1 .6 1.3-.5-.1-1.5-.3-2-.4-.7 2.5-1.5 4.9-2.2 7.4l-.7-.3c-2.3-1.3-4.7-1.1-6.9.4.7.6 2 1.8 2.7 2.4-4.5 1.9-8.9 4.1-13 6.5.4.7 1.2 2.1 1.6 2.8v.9c-3.9 0-7.9.2-11.8.7-.1.4-.3 1.2-.4 1.6-1.3.4-2.6.7-3.9 1.1-3 .9-6 1.6-9 2.4-2.1.6-4.3 1.3-6.4 1.9-.5.1-1.4.3-1.9.4-2.7-.1-5.4.4-7.6 2-1.2.7-2.4 1.3-3.6 1.9l-.6-.6c-.3-.9-.5-1.7-.7-2.5-3.5 1.9-7.5 2.5-11.1.5 2.8-3.3 7.1-3.4 11-3.5-.1-3.5-.1-6.9-.2-10.4-2.8-.1-5.6-.2-8.4-.3.5 6.1-1.7 11.9-4.1 17.4.7.1 2.2.3 2.9.4l-.8.3c-1.4 2.4 0 4.7 1.5 6.6-1.3.1-2.6.1-3.9.1-.8-.9-1.5-1.8-2.3-2.7.8-3.3 1.1-6.6.7-10-4.2-4.2-1.6-11-5.6-15.2-.7 3.3-.8 6.6-.7 10-3.8-.8-7.7-1.2-11.6-.9 1.2 3.5 4.2 5.1 7.6 6 .3.6.7 1.8 1 2.3-5.7 1.8-12 1.3-17.4-1.3-.7-2.4.3-4.9.8-7.3-3.3-1.8-6.4-3.9-9.7-5.6-3.4-1.9-7.4-1.2-11-1-.3.5-.9 1.6-1.3 2.2-1.9.5-3.8.9-5.6 1.7-1.9 3.2-1.6 7.2-2 10.8 2.4-.1 4.7-.1 7.1 0-2.9 1-5.9 1.7-9 1.7-.3 4.3.3 8.7 3 12.2-2 .6-3.9 1.2-5.9 1.7-.7-.1-2-.2-2.7-.3l.9-.4c.4-.2 1.3-.5 1.8-.7-.8-1.3-1.6-2.6-2.4-3.8 3.2-9.4 4.4-19 5.6-29 .9.4 1.8.8 2.8 1.1 10.4 3.2 21.5.8 32 .7 1.2-.1 2.4-.1 3.6-.1 7.8.5 15.6-.5 22.9-3.2 1.7 1 3.4 2.3 5.4 2.7 4.6-.8 8.8-3.2 13.4-3.8 4.5-.9 9.2-.2 13.6 1 .7-.8 1.4-1.5 2.1-2.3-2-.3-4-.6-6-.9 3.3-.1 6.8-.3 9.6-2.3.5.3 1.6.8 2.1 1 2.2 1.4 4.7 1.7 6.7-.3.4-.1 1.1-.4 1.5-.5.4-.1 1.3-.4 1.7-.5.8 0 2.4.1 3.1.1 2.4.1 4.9.1 7.3-.2.3-.3.8-.9 1-1.2.4-.5 1.3-1.5 1.7-2 .9-.7 1.8-1.4 2.7-2m-68 19c-2 2.3-1.7 5.9.6 7.9 1.7-2.7 1.4-5.9-.2-8.6l-.5.7m46 .9c-1.2 2.1 3 3.1 3.2.8-.1-1.5-2.3-2-3.2-.8m-14 2.9c-1 .8-.9 2.3-1.5 3.3 2.7.3 5.5.4 8.3.3.1-3.6-4-4.3-6.8-3.6m-17.9 1.8c.5.8 1.1 1.6 1.6 2.4 1.4-.1 2.8-.6 4.2-.9-1.7-1.3-3.8-1.5-5.9-1.6z"/><path d="m129 259c2.6-.6 5.2-.9 7.9-1.1-1.1 1.7-2.1 4-4.4 3.9-1.9.5-2.5-1.7-3.4-2.8"/><path d="m205 262c2.5-1.1 5.3 0 7.8.5-2 2.5-4.4 4.7-7.2 6.4-.4-2.3-.9-4.6-.7-6.9"/><path d="m209 270c.4 0 1.3 0 1.7-.1.2 4.5-.5 11.7 5.4 12.7 8.1 0 16.3-1.7 24.4.2-7.8 2.8-16 1.9-24 2.4-4.6 0-9.2-.4-13.7-.8 2.4-1.8 5.1-3.4 6.9-5.9.4-2.9-.1-5.7-.4-8.6"/><path d="m244 271c2.6-.9 5.6-1.3 7.5 1.1-.2 1.4-.5 2.9-.8 4.3-2.7-1.2-5.2-2.8-6.8-5.4"/><path d="m220 277c6.3-2 12.9-2.3 19.4-2.6 2.1-.2 5.5.2 5.2 3.1-8 2-16.6 1-24.6-.5"/></g><g style="fill:#fef6bf"><path d="m181 133c3-1.5.2 3.3 0 0"/><path d="m278 141c1.3-1 2.8 1.3 1.5 2.2-1.3 1-2.8-1.3-1.5-2.2"/><path d="m198 191c2.9-.1 2.5 4.4-.4 3.1-.5-1.1-.4-2.1.4-3.1"/><path d="m278 198c1.6-2.1 4.1-3 6.7-3.1-.1 1.6-.1 3.1-.2 4.7-.8.1-2.4.2-3.2.3-1.1-.6-2.2-1.1-3.3-1.8"/><path d="m32.7 215c.3.4.5.7.7.9.3.4.6.7.9 1.1.2-.2.4-.3.7-.5-.8-1.2-1.5-2.7-2.3-4.2.1.9.1 1.7 0 2.6"/><path d="m353 212c3.2-.2-.1 4.2-1.9 2.6-.7-1.2.8-2.4 1.9-2.6"/><path d="m357 219c1.9-1.2 4.1-1.5 6.3-1.3-1.7 1.3-3.4 2.6-5 3.8-.3-.9-.7-1.8-1.3-2.5"/><path d="m146 230c.7.2 2.1.6 2.8.9.4.9.8 1.8 1.2 2.7-1.6 0-3.3 0-4.9 0 .3-1.2.6-2.4.9-3.5"/><path d="m331 235c.6-3.4 4.2-3.8 7-4.3.1 1.1.1 2.1.2 3.2-1.3.4-2.6.8-4 1.3-.8 0-2.4-.1-3.2-.2"/><path d="m176 246c.9-1.3 3.2.2 2.2 1.6-.9 1.3-3.2-.2-2.2-1.6"/><path d="m198 252c1.5-1.6 3.6-2.5 5.6-3.1 0 .9.1 2.7.2 3.7-1.9-.2-3.9-.3-5.8-.5"/><path d="m210 250c1.7 0 3.5-.1 5.2-.1-.3 1.2-.5 2.4-.8 3.6-.8-.2-2.5-.4-3.3-.6-.4-1-.8-2-1.1-2.9"/><path d="m267 276c.8-1.2 2.9.1 1.9 1.3-.8 1.2-2.9-.1-1.9-1.3"/></g><g style="fill:#fcf9b1"><path d="m167 134c1.4-.4 1.9.1 1.4 1.5-1.4.4-1.9-.1-1.4-1.5"/><path d="m314 162c.5-.5 1.4-1.5 1.9-2 2.4 1.5-.6 4.9-1.9 2"/><path d="m214 169c2-1.8 4-3.5 6-5.3h.9c.1 1.7.3 3.4.4 5.2-1.8.5-3.6 1-5.4 1.5-.6-.4-1.3-.8-1.9-1.3"/><path d="m281 175c2.7-.6 5.4-1.1 8-1.5-.9 2.3-2.4 4.1-4.7 5.1l-.6-.6c-.9-1-1.8-2-2.8-3"/><path d="m264 183c2.3-.6 5-1.8 6.8.5-.6.3-1.9.8-2.5 1.1-1.6.2-2.9-1-4.3-1.6"/><path d="m265 190c-.2-2.3 2.8-1.5 4.3-2.1-.5 2-2.5 2.3-4.3 2.1"/><path d="m143 193c2.6.2 5.2.3 7.8.5.9 1.4 1.8 2.9 2.7 4.3.2.3.6.9.8 1.3-1.4 0-2.8 0-4.3 0-2.1-2.2-4.5-4.2-7-6.2"/><path d="m304 193c3.3.2-1.6 3 0 0"/><path d="m193 195c1.6-.7 2.5 1.9.8 2.4-1.6.7-2.5-1.9-.8-2.4"/><path d="m226 215c4.2-5.7 6.8-12.5 11.6-17.8.2 1.3.5 2.7.7 4-1.9 2.5-3.6 5.2-4.8 8-3 7-8.3 12.7-12.4 19-.7.1-2.1.2-2.8.3 2.6-4.5 4.6-9.3 7.7-13.5"/><path d="m168 205c1.6.4.4 2.6-.9 2.1-1.6-.4-.4-2.6.9-2.1"/><path d="m62 206c.9-1.3 3.2.3 2.2 1.6-.9 1.3-3.2-.3-2.2-1.6"/><path d="m334 214c2.3.3 4.4 1.4 5.8 3.3-2.4-.1-5-.7-5.8-3.3"/><path d="m276 215c1.4-.4 1.9.1 1.4 1.5-1.4.4-1.9-.1-1.4-1.5"/><path d="m328 225c1.4-2.1 3.5-3.4 5.9-4.2-1.4 2.1-3.5 3.5-5.9 4.2"/><path d="m124 229c-1.9-.8-.2-3.2 1.3-2.9l.6.5c.2 1.5-.5 2.3-1.9 2.4"/><path d="m323 236c2.3-.4 4.6-.5 6.6.8-2 .9-4 1.8-6 2.9-.2-.9-.5-2.8-.6-3.7"/><path d="m306 242c.8 0 2.4.1 3.2.1-.6.9-1.2 1.8-1.9 2.7-.4.1-1.3.4-1.7.5.1-.8.3-2.5.4-3.3"/><path d="m286 246c1.2-1.3 2.9-1.8 4.6-2.2.1.7.2 2 .3 2.6-1.6-.1-3.2-.2-4.8-.4"/><path d="m342 246c1.4-.8 2.7-1.5 4.1-2.3-2.1 2.9-4.3 5.9-7.2 8.2-3.3 2.2-7.3 3.1-10.8 4.9-1.1-.3-2.1-.6-3.2-.8.3-1.7.7-3.3 1-5 .4 0 1.3-.1 1.8-.1 3.2-.1 6.4 0 9.5-.4 1.6-1.5 3.3-3 4.8-4.5"/><path d="m252 246c1.3.4 2.4 1.2 3.6 2-1.8.6-3.6 1-5.4 1.5.6-1.2 1.2-2.3 1.8-3.5"/><path d="m221 250c1.4-.2 2.8-.3 4.3-.5.1.8.3 2.5.4 3.3-1.7-.1-3.5-.1-5.2-.2.1-.7.4-2 .6-2.6"/><path d="m231 250c1.1-.4 2.1-.9 3.2-1.3 1.2.8 2.4 1.6 3.6 2.3-.9.9-1.8 1.8-2.8 2.6-1.4-.3-2.8-.6-4.1-.9 0-.9.1-1.8.1-2.7"/><path d="m309 262c1.9-.2 3 2.3 3.2 3.9-2.1.4-4-.2-4.9-2.3.4-.4 1.3-1.2 1.7-1.7"/><path d="m273 272c2.3-1.6 4.9-2.1 7.6-2-1.4 1.1-2.8 2.3-4.1 3.4.2 1.2.4 2.3.6 3.5-1.4.4-2.8.9-4.2 1.3-.3-.7-.9-2.2-1.2-2.9.5-1.1.8-2.2 1.2-3.3"/></g><g style="fill:#fccf0b"><path d="m270 149c1.1 1 2.2 2.1 3.4 3.2-1.4 0-2.7 0-4.1.1.2-.8.5-2.4.7-3.2"/><path d="m286 150c1.5-.1 3-.1 4.5-.2-.4 1.2-.9 2.3-1.3 3.4-1.1-1-2.2-2.1-3.2-3.3"/><path d="m191 152c3.7.1 7.4.8 10.3 3.3-1.1.7-2.3 1.3-3.4 2 .7.6 1.3 1.2 2 1.8 1.6-1.5 3.3-3.1 5.6-2-.9.3-2.9.9-3.8 1.2.9 1.4 1.7 2.9 2.5 4.4-1.3-.1-2.7-.2-4-.4-3.1-3.4-5.9-7-9.1-10.2"/><path d="m168 158c1.1 2.5 2.3 5 3.5 7.4-4.1.6-8.2.8-12.3.5.9-1.6 1.8-3.2 2.7-4.8 2.1-1 4.2-1.9 6.2-3.1"/><path d="m298 164c3.2-.5 6.1-1.7 9-2.9-1.2 2.7-2.1 6-4.8 7.7-3.2 2-6.9 3-10.4 3.9 1.3-3.4 3.5-6.2 6.2-8.6"/><path d="m173 168c6.8.2 13.4-1.8 20-2.5.5 0 1.6 0 2.1 0 .6 0 1.7.1 2.3.1-.2 1.3-.5 2.5-.7 3.8.7.2 2.2.6 2.9.8.1 1.3.2 2.6.3 3.9-.4-.2-1.1-.6-1.5-.8-2.1-1.4-3.6-4.4-6.5-3.8-4 .5-7.5 2.4-11 4 .7-1.4 1.3-2.8 2-4.3-3.1 0-6.2.4-9 1.8-.3-1-.5-2-.7-3"/><path d="m204 167c1.9-.7 2.5 2.5.7 2.9-2 .7-2.5-2.5-.7-2.9"/><path d="m264 178c1.1-.6 2.2-1.2 3.4-1.5.6.9 1.1 1.9 1.7 2.9-1 .4-2 .8-3.1 1.2-.5-.7-1.5-2-2.1-2.6"/><path d="m275 178c1.5.2 3 .4 4.5.6 1.3.6 2.5 1.3 3.8 2 .2 3.5.9 7.1-.1 10.5-2.2 2.2-5.7 2.8-8.4 4.2-2.4-5.6.3-11.6.3-17.3"/><path d="m109 179c3 .8 5.8 2.3 8.8 2.8 1.7-.3 2.9-1.7 4.3-2.6 4.6 4.1 9.6 7.9 13.2 13-4.2 3.9-9 7.5-10.8 13.2-2.1-1.2-4.1-2.5-6.2-3.7-2.9-1.8-5.9-3.4-8.9-5.1 2-.3 3.9-.6 5.9-.9-1.5-.3-2.9-.7-4.4-1-.1-1.1-.1-2.1-.2-3.2 1.5-.3 3.1-.6 4.6-.8-1-1.1-2-2.1-3-3.2 1.7-.6 3.3-1.1 5-1.6-3-2.1-6-4.2-8.9-6.4l.7-.5"/><path d="m189 183c3.4-.7 6.6-1.8 10-2.3.5 0 1.5.1 2 .1.1 1.3.9 3-.5 3.9-4 3-8.9 4.6-13.5 6.4-.7-1.3-1.5-2.7-2.2-4 1.7.3 3.3.6 5 .9-.2-1.6-.5-3.3-.7-4.9"/><path d="m339 198c-.6-4.9-.2-9.8.6-14.6.2 5.5 1.8 11.1.3 16.6-.2-.5-.7-1.5-.9-2"/><path d="m158 194c3.6-.3 7.3-.3 10.9.1-3 2-6.3 3.5-9.7 4.7-.4-1.6-.8-3.2-1.2-4.8"/><path d="m174 196c1 .7 2.2 1.3 3 2.3.4 1.3 0 2.8 0 4.1-.9 0-2.6 0-3.4-.1.1-2.1.3-4.3.4-6.4"/><path d="m272 199c5.1 5.4 12.9 5 19.5 7.2 11.4 3.4 23.3 4.8 34.5 8.6 1.4 1.5 2.3 4.3.3 5.7-2.2 2.5-5.8 2.1-8.8 2.3.2-1.3.4-2.6.6-3.8-2 .1-4 .4-5.9 1.2-10.3-2.5-20.5-7.9-31.4-6-2.8-.3-5.5.5-8.1 1.4-2-5.4-.7-11-.6-16.5"/><path d="m152 204c4.3 2.6 7.3 6.6 11 9.7 3.4 1.8 7.4.8 11 1 0 2.9.1 5.8-.4 8.7-.6 3.3-2.9 5.9-4.7 8.6-2.8-1.8-5.6-3.7-8.4-5.6-3.6-2.3-6.8-5.1-10.1-7.7-.7-5-1-10.2 1.5-14.7"/><path d="m298 265c1.3-.4 2.6-.7 3.9-1.1-.1.3-.3 1-.4 1.3-1 1.2-2.1 2.4-3.3 3.5 3.6-.7 7.4-.7 10.8.6l-.7.4c-4.1 2.5-8.8 3.4-13.4 4.2.9-3 1.9-6 3.1-8.9"/><path d="m269 274c1.2-.6 2.4-1.3 3.6-1.9-.4 1.1-.8 2.2-1.2 3.3l-.4.6c-.5-.5-1.4-1.4-1.9-1.9"/><path d="m277 277c3.6-1.4 7.6-1.4 11.4-.4-4.9 3-10.4 5-16 5 .2-1.1.4-2.2.6-3.3 1.4-.4 2.8-.9 4.2-1.3"/><path d="m259 282c-1.5-1.9-2.9-4.2-1.5-6.6 3.3 1.4 6.3 3.4 8.9 5.8-2.5.2-4.9.6-7.4.8"/></g><g style="fill:#fd0809"><path d="m353 230c1.2-.1 2.5.1 3.7.4-.5.9-1.2 1.5-2 1.9-.5-.5-1.6-1.4-2.1-1.9l.5-.4"/><path d="m323 249c2.1-1.4 4.6-1.7 6.9-.4-.4.6-1.2 1.8-1.6 2.4-.4 0-1.3.1-1.8.1l-.8.3c-.7-.6-2-1.8-2.7-2.4"/><path d="m247 264c-.1-3.3 0-6.7.7-10 4 4.2 1.4 11 5.6 15.2.4 3.3.1 6.7-.7 10 .7.9 1.5 1.8 2.3 2.7-2.3 0-4.6 0-6.9-.1-1.5-.2-3 .4-4.1 1.4-1.1-.2-2.2-.3-3.3-.4-8.1-1.9-16.3-.1-24.4-.2-5.9-1-5.2-8.2-5.4-12.7-.4 0-1.3 0-1.7.1.2 2.8.8 5.7.4 8.6-1.8 2.5-4.5 4.1-6.9 5.9 4.6.4 9.1.8 13.7.8-3.6.4-7.1 1.2-10.7 1.5-4.3.1-8.6 0-12.8-.4 2-.4 4-1.1 5.9-1.7-2.7-3.5-3.3-7.9-3-12.2 3.1-.1 6.1-.8 9-1.7-2.4-.1-4.7-.1-7.1 0 .4-3.6.1-7.6 2-10.8 1.8-.8 3.7-1.2 5.6-1.7.3-.5.9-1.6 1.3-2.2 3.7-.2 7.7-.9 11 1 3.3 1.8 6.4 3.8 9.7 5.6-.5 2.4-1.5 4.8-.8 7.3 5.4 2.6 11.7 3.1 17.4 1.3-.3-.6-.7-1.8-1-2.3-3.4-.8-6.4-2.5-7.6-6 3.9-.4 7.8 0 11.6.9m-42.6-1.4c-.2 2.3.3 4.6.7 6.9 2.7-1.7 5.1-3.9 7.2-6.4-2.6-.5-5.3-1.7-7.8-.5m39.9 8.6c1.5 2.6 4.1 4.2 6.8 5.4.3-1.4.6-2.9.8-4.3-1.9-2.4-4.9-2-7.5-1.1m-24.8 6.4c8 1.5 16.6 2.4 24.6.5.3-2.9-3.1-3.3-5.2-3.1-6.5.3-13.2.6-19.4 2.6z"/><path d="m255 258l.5-.7c1.6 2.7 1.8 5.9.2 8.6-2.3-1.9-2.6-5.6-.6-7.9"/><path d="m301 259c.9-1.1 3.1-.7 3.2.8-.1 2.3-4.4 1.2-3.2-.8"/><path d="m287 262c2.8-.7 6.9.1 6.8 3.6-2.8.1-5.5 0-8.3-.3.6-1.1.5-2.6 1.5-3.3"/><path d="m270 264c2.1 0 4.2.3 5.9 1.6-1.4.3-2.8.7-4.2.9-.6-.8-1.1-1.6-1.6-2.4"/></g></svg>