<svg xmlns="http://www.w3.org/2000/svg" viewBox="0 0 401 382" style="enable-background:new 0 0 401 382"><g style="fill:#d5d1a9"><path d="m86 72c.6 0 1.9.1 2.6.1 0 .6.1 1.9.1 2.5-.5-.2-1.5-.5-2-.6-.2-.5-.5-1.5-.6-2"/><path d="m93 73c.1-.3.4-1 .6-1.3 1 1 2 1.9 3 2.9-.3.6-.8 1.8-1 2.5-.4-.1-1.1-.2-1.5-.2-.4-1.3-.8-2.5-1-3.8"/><path d="m82 79c3 1.1 5 3.7 6.1 6.6-1.1 0-2.1 0-3.2 0-1-2.2-2-4.4-2.9-6.6"/><path d="m109 80c1.5.6 3.1 1.2 4.7 1.8-1 .4-2 .7-3.1 1-.5-1-1-1.9-1.6-2.9"/><path d="m61 111c2-.6 3.9-1.3 5.9-2 .1.3.3.9.5 1.2-.6.7-1.2 1.3-1.8 2-1.6.4-3.1.8-4.7 1.3 2.3 1.2 4.6 2.3 6.9 3.4-1.4.4-2.8.8-4.2 1.1l-.6-.4c-.5-.3-1.6-1-2.1-1.3-3.4-2-7.1-3.4-10.7-5.1 3.6.1 7.2.3 10.8-.2"/><path d="m97 119c2.1 0 4.1.4 5.8 1.7-.5 0-1.5 0-2 0-1.3-.5-2.5-1.1-3.7-1.8"/><path d="m57 121c2.8-.7 5.1 1.1 7.4 2.5-2.4 2.2-4.6 4.7-6.6 7.2-.4.4-1.3 1.3-1.8 1.7-1.1-.4-2.1-.8-3.2-1.2 1.3-3.4 2.3-7 4.2-10.1"/><path d="m95 123c.6 0 1.8-.2 2.4-.2l.4.7c0 3-4.3 2.3-2.7-.5"/><path d="m110 124c.5 0 1.5.2 1.9.2.9 4.2 1.9 8.4 3 12.6 1 3.7 1.4 7.5 1.3 11.3 0 1.1 0 2.2 0 3.3-.5.2-1.4.6-1.8.8-1.2-.9-2.3-1.9-3.4-2.9-1.2-1.4-2.2-2.8-3.2-4.3-3-3.9-4.3-8.8-5-13.6 2.5-2.4 4.8-5 7.2-7.4"/><path d="m38.9 133c.1-3.5 2.7-5.8 5.7-7.1 1.1 2.6 2.1 5.2 3.1 7.8-2.9-.2-5.8-.5-8.8-.7"/><path d="m44 149c.5-.8 1-1.6 1.5-2.4 1.7 1.3 3.3 2.6 5.1 3.8 1.8 1.2 3.8 2.4 5.6 3.7.7.6 1.4 1.2 2.1 1.8 2.4 2.3 4.6 4.8 6.6 7.4-8.2-2.7-13-10.6-20.8-14.2"/><path d="m94 167c2.2-1.1 4.5-1.7 6.9-2 .3 1.1.7 2.2 1 3.3-1.7 1.3-3.1 4.3-5.7 3.6-2.1-.5-1.8-3.2-2.3-4.9"/><path d="m244 187c5 1.3 8.9 6.1 8.8 11.3-3.5-3.3-5.7-7.7-8.8-11.3"/><path d="m280 188c4.1 2.4 7.5 6.4 7.9 11.3-3.9-2.7-6.4-6.9-7.9-11.3"/><path d="m214 195c.4-1 .9-2 1.3-2.9 2.3 2.4 4 5.3 5.3 8.4-2.3-1.8-4.4-3.6-6.6-5.5"/><path d="m183 230c0-1.9.8-3.5 2.3-4.6.1 1.7.2 3.5.3 5.2-.7-.2-2-.5-2.7-.6"/><path d="m243 241c3.2 1 6.6 2.7 7.1 6.5-3.4-.8-5.4-3.7-7.1-6.5"/><path d="m231 263c3.8.8 6.3 4 6.1 7.9-3.4-1.3-5.2-4.5-6.1-7.9"/><path d="m205 274c1.9 1.4 3.9 2.6 5.5 4.4 0 1.3-.2 2.6-.4 3.8-2.4-2.3-3.9-5.2-5.2-8.2"/><path d="m190 282c1.8-.8 3.7-1.4 5.6-1.9 1.8.9 3.6 1.8 5.4 2.8-3.7.2-7.3-.3-10.9-.9"/></g><g style="fill:#844708"><path d="m81 36.7c3.8-3.9 6.6-8.5 9.7-12.9 1.5 3.8 1.9 7.9 1.4 12-1.7.6-3.2 1.5-4.7 2.5.4-1.1.9-2.2 1.3-3.4-2.5.9-5 1.8-7.5 2.8-.7-1.1-1.4-2.3-2.1-3.4-.8.8-1.7 1.6-2.5 2.5 1.4-2.7 2.8-5.5 4.4-8.2 0 2.7 0 5.4 0 8"/><path d="m97 34c3.3-2 6.3-5.3 10.4-5.3 2 .1 4.7.5 5.5 2.7 1.5 4 .4 8.4-.3 12.5-2.2-2.5-4.8-4.5-7.4-6.4 1-1.2 1.9-2.4 2.9-3.6-1.4-.3-2.8-.5-4.1-.8-.4 2.6-.7 5.3-1.7 7.8-1.3-.2-2.7-.5-4-.8.6-1.4 1.2-2.8 1.8-4.3-1-.6-2-1.2-3-1.8"/><path d="m89 43c1.9-3.3 5.8-3.6 9.2-2.9.8 2.5 1.6 5 2.3 7.5-2.9.4-5.7.8-8.5 1.4-.1-.6-.4-1.9-.6-2.5-.3-.9-.7-1.9-1-2.8-.4-.2-1-.6-1.4-.8"/><path d="m100 42.8c2.7-.9 5.5-1.6 8.3-2.1.7 2.9 2.3 5.8 1.8 8.9-3.2 1.3-7.4 1-9.8-1.7-.3-1.7-.3-3.4-.4-5.1"/><path d="m64 46.8c1.7 1.4 3.5 2.6 4.8 4.4 1.1 2.4.8 5.2 1 7.8-.8-1.2-1.7-2.4-2.5-3.6-1.6 1-3.2 2-4.8 3.1.1-.3.2-.9.3-1.1-1.1-.8-2.3-1.6-3.3-2.5-.1-1.6.4-3.2.8-4.8 1.2-1.1 2.4-2.2 3.7-3.3"/><path d="m83 63.8c1 .9 2 1.8 2.9 2.8-.1 1.2-.2 2.5-.3 3.7 2.9 1.2 4.5 3.8 6 6.4.5.1 1.5.2 1.9.3.4.1 1.1.2 1.5.2 1 .1 1.9.2 2.9.3-.3.5-.9 1.4-1.2 1.9-3-.9-6.1-1.9-9.1-2.8.1 1 .3 1.9.4 2.9-1.1-1.5-2-3.1-3-4.7-.8.1-1.5.1-2.2.2-.4-1.3-.8-2.7-1.2-4-.2-.9-.3-1.8-.4-2.7-.1-.5-.2-1.4-.2-1.9.7-.9 1.3-1.7 2-2.6m2.9 8.5c.2.5.5 1.5.6 2 .5.2 1.5.5 2 .6 0-.6-.1-1.9-.1-2.5-.6 0-1.9-.1-2.6-.1z"/><path d="m18.6 99c-.5-11.7.1-23.9 4.5-34.9 2.4 6.9 3 15 9.1 20-.6 0-1.9 0-2.6 0 2.3 3.6 6.2 5.5 10.4 5.9 1.2.2 2.4.4 3.5.6 1.8 1 3.4 2.1 5.3 2.8 2.2-.6 4.2-1.9 6.2-3-.6-1.8-1.1-3.6-1.7-5.4 2 1.2 4 2.4 6.1 3.6.2-1.5.4-3.1.7-4.6 1 0 2-.1 3.1-.1-.7.5-2.2 1.5-2.9 2.1 1.2.8 2.5 1.6 3.7 2.4 4.3 3.2 9.2 5.6 14.6 5.3.9 1.3 1.8 2.5 2.7 3.8 1.3 0 2.6 0 3.8-.1-1.4-2.2-3-4.3-4.5-6.4-1.8-2.5-1.8-5.6-2.5-8.5l-.2-.8c2.1 1.4 4.4 2.7 6.8 3.5 1 0 2.1 0 3.2 0 .8 1.8 1.5 3.6 2.3 5.5.7-2.3 1.5-4.6 2.3-6.9-.2.6-.5 1.9-.6 2.5 2.3 2.4 4.6 4.8 6.7 7.4-2-1-4-1.9-6-2.8-.2 1.3-.5 2.6-.6 3.9-.8-1.3-1.8-2.6-2.7-3.8-1.3 3.1-1.7 6.5-1.7 9.9.8.1 2.3.2 3.1.3.8-.8 1.5-1.7 2.3-2.5 1 2 2.3 3.9 3.5 5.8.7-.4 2.2-1.3 3-1.7-.8 1.5-1.7 3-2.6 4.5-2.5-1.8-5-3.5-7.5-5.2-.6 1.5-1.2 2.9-1.8 4.4-2.7-.2-5.4-.2-8.2-.3 1.4-1.2 2.8-2.5 4.2-3.7-1.8 0-3.5-.1-5.2.1-1.5-1.2-3.1-2.3-4.6-3.5-1.4-1.1-2.8-2.2-4.2-3.2-1.8 1.4-3.3 3.2-5.5 4-2.3.3-4.7-.1-7-.2-1.7 0-3.4.3-5.1.5-5.7-1.6-11.7.4-17.3-1.5.1-.6.3-1.7.4-2.3 0-.4.1-1.1.2-1.4-1.7-3.3-4.2-6.1-7.6-7.6-.7 1.2-1.4 2.3-2.1 3.5-1.1-.6-2.2-1.1-3.3-1.7-.2 1.1-.5 2.3-.7 3.4-.2 1.6-.3 3.2-.2 4.8 0 .7 0 2 0 2.6 1.3.3 2.5.6 3.8.8 1.3 2.3 2.3 4.8 3.2 7.3-1.4 1.5-2.8 3.1-4.2 4.7-2.8-4.2-5.5-8.7-5.6-13.9m38-7.1c.1 1.2.2 2.4.3 3.7 1.7.6 3.4 1.2 5 1.8 1.1-1.5 2.2-3.1 3.3-4.6-2.8-.5-5.7-.7-8.6-.8m7.3 3.2c-1.2 1.5 1.4 3.1 2.4 1.7 1.2-1.5-1.4-3.1-2.4-1.7z"/><path d="m41.8 65c5.6 1 11 4.4 16.8 2.9-3.1 1.7-4.7 4.9-4.5 8.4.5 0 1.5.1 2 .1.8-1 1.6-2 2.4-3 2.5 2.7 3.5 6.3 3.8 9.9-4.7-.1-9.3-1-13.7-2.6-.7 1.1-1.4 2.1-2.1 3.2 1.3 1.5 2.5 2.9 3.8 4.3-1.9.8-3.9 1.5-5.8 2.3-1.3-1-2.7-1.9-4-2.8-2.2-1.5-4.7-2.4-7.2-3.2 4.9-5.4 5.3-13 8.6-19.4m.3 2c0 .8 0 2.3.1 3 2.2-.2 4.4-.4 6.5-.7-.4.4-1 1.1-1.4 1.5 2 1 4.1 2 6.2 3-.8-1.6-.6-4.9-3.1-4.7-2.1-2.5-5.5-1.9-8.3-2.1m-4.9 12.6c2 1.7 4.4 3 7.1 3.3.1-.7.5-2 .6-2.7-2.5-1-5.2-2.4-7.7-.5z"/><path d="m93 71.8c1.2-2.5 2.4-4.9 3.9-7.2.6.3 1.7 1 2.3 1.3-.6 3.1-2 5.9-3.2 8.7-1-1-2-1.9-3-2.9"/><path d="m70 77c1.4.1 2.7.3 4 .6.4.5.8 1 1.2 1.5 0 1.4-.1 2.8 0 4.1 0 1.7.2 3.5.3 5.2-.9.9-1.8 1.9-2.7 2.8-.7-1.3-1.4-2.7-2-4-.2.5-.6 1.4-.8 1.8-.5-.9-1-1.7-1.5-2.6-1.3-1.1-2.8-2-3.7-3.5-.4-1.9-.4-3.8-.5-5.8 1.9-.1 3.8-.3 5.7-.3"/><path d="m97 107c2.1 2 4.3 4.1 7.1 5.1 1.1.3 2.2.6 3.3.8.9 1 1.9 2 2.8 3-2.8.6-5.9 1.2-8.8.3-1.9-.9-3.3-2.4-4.8-3.7-2.2.7-4.4 1.5-6.6 2.3-.1-2.3-.3-4.7-.4-7 1.7 1.3 3.3 2.5 5.1 3.8.7-1.5 1.5-3 2.2-4.6"/><path d="m61 113c1.5-.4 3.1-.8 4.7-1.3 3.5 3.3 7.4 6.2 11.2 9 1.9-1.5 3.8-3.1 5.3-5 1.8-.8 3.6-1.5 5.5-1.9 1.1 3.8 1 8.2 4.5 10.8.9-.7 1.8-1.3 2.7-2-1.6 2.8 2.7 3.6 2.7.5.5.9.9 1.8 1.3 2.7-1.1.7-2.3 1.4-3.4 2.2-.7-.8-1.4-1.7-2-2.5-1.4 1.7-3 3.3-3.6 5.5-.2 1.4-.2 2.8-.4 4.2-1.4-1.6-2.9-3.1-4.3-4.7 2-1.1 4-2.2 6-3.4-2.5-2.7-4.8-5.6-7.7-7.9-1.7.3-3.3 1-4.8 1.5 2.1 2.5 4.8 4.2 7.7 5.5-3.2 2-6.1 4.4-9.1 6.6-1.8-3.8.7-7.7 1.4-11.5-1.7 1.5-3.7 2.8-4.7 4.9-.7 2.1 0 4.4.2 6.5-.7.8-1.3 1.5-1.9 2.3 1.2 1.7 2.4 3.5 3.6 5.2-2.3 1.5-4.7 2.7-7.3 3.5.3.9.5 1.9.8 2.8-1.7.1-3.4.2-5.1.2.8 1.5 1.6 2.9 2.3 4.4-2.8-.5-5.6-1-8.4-1.5 1.8 1.3 3.6 2.6 5.4 3.8-1.8.7-3.6 1.4-5.3 2.2-.7-.6-1.4-1.2-2.1-1.8l.2-1c.4-1.8.8-3.5 1.2-5.3 1.7-.3 3.4-.4 5-.5 1.5-1.6 3.1-3.1 4.6-4.7 1.7 0 3.3 0 5-.1-2.2-2.9-5.4-4.9-9-5.3.1-1 .2-1.9.3-2.9 2.3-.9 4.8-1.4 6.8-2.9 1.5-1.8 2.6-4.4 1.9-6.7-2.1-3.1-5.5-4.9-8.4-7 1.4-.4 2.8-.8 4.2-1.1-2.3-1.1-4.6-2.2-6.9-3.4"/><path d="m50.8 119c3.3-1.9 7.1-1 10.4.3 1.7 2.1 3.9 4.5 3.5 7.4-2 2.2-4.9 3.1-7.4 4.4 2-2.6 4.2-5 6.6-7.2-2.2-1.3-4.6-3.2-7.4-2.5-1.9 3.1-2.9 6.7-4.2 10.1 1 .4 2.1.8 3.2 1.2.7 2.1 1.4 4.1 2 6.2-1.9 1.6-4.1 3.2-5.5 5.3-1 1.9-.9 4.1-1.1 6.2-1.7-1.2-3.4-2.5-5.1-3.8.2-.4.6-1.2.8-1.6.6-1.8.9-3.6 1.3-5.5-2.9-.6-5.9-1.2-8.2-3.2 2.2.6 4.4 1 6.7 1.5 1.5-5.2 5.1-9.4 7.2-14.2 1.3-2.3-1.5-3.5-2.8-4.8m-.1 14.4c1.2 1.2 2.5 2.3 4 3.2 0-.8.1-2.5.1-3.4-1.4.1-2.7.1-4.1.2z"/><path d="m100 134c.8-.8 1.6-1.6 2.4-2.4.7 4.8 2 9.7 5 13.6-.4 2.5-1.2 4.9-2.1 7.2-1.5-2.2-3.8-4.3-3.9-7.2 0-3.2 0-6.5-1-9.6-.1-.4-.4-1.2-.5-1.6"/><path d="m79 146c1.2.8 2.4 1.4 3.6 2.2.2.3.6 1.1.8 1.4-1.5.2-3 .3-4.5.5-.8 4.7 1.4 8.9 4.2 12.6-1.9.1-3.8.1-5.7.4-1.2.3-2.3.7-3.5 1.1.7-2.5 1.8-4.8 2.9-7.1.5-3.7 1.5-7.3 2.2-11"/><path d="m127 148c2.6-.8 5.2-1.7 7.8-2.5.2.5.5 1.5.7 2-1.2-.2-2.4-.3-3.5-.5-.4 2-.8 4-1.3 6-1.3-1.6-2.5-3.2-3.6-5"/><path d="m38 164c2.3-.2 4.6-.4 6.9-.6.7 1.1 1.3 2.2 2 3.3-4 2.2-8 4.7-11.3 8-.6-1.9-1.3-3.8-2.1-5.7 1.5-1.7 3-3.5 4.6-5.1"/><path d="m145 174c2.1 1.4 4.4 2.5 6.6 3.7-1.3.1-2.5.2-3.8.3 4.3 3.5 6.6 8.6 7.8 13.9-1.9.4-3.8.8-5.7 1.3.5 1.6.9 3.1 1.4 4.7 1.7.3 3.3.6 5 .8-1.1 2.7-2.7 5-5 6.8-2.7-2.1-6-3.3-9.5-3.3-.7-1.4-1.3-2.8-2-4.1-.8 0-1.5 0-2.2 0-.4 2.2-.9 4.5-1.3 6.7-2.7-1.4-5.3-3.2-8.4-3.5-2.7-.2-5.3.1-8 .2-.3-.8-.5-1.7-.8-2.5 2.6-2.7 4.9-5.7 7.3-8.5-.1 2.4.1 4.8.3 7.2 3.5-1.1 6.9-3 10.7-3.1 3.9 2.5 7.7 5.3 12.4 5.7-.3-1.3-.5-2.7-.8-4-1.2-.7-2.4-1.3-3.6-2 1.4-1.4 2.8-2.9 4.2-4.3-1.9-.2-3.8-.5-5.6-.8-.1-1.1-.1-2.2-.2-3.3-1.7-1.4-3.3-2.8-5-4.3 1.5.4 3.1.8 4.6 1.2-.2-3.1.1-6.2 1.3-9.1"/><path d="m111 205c1.8-1.6 3.3-4.2 5.9-4.4 2.1-.1 2.1 2.6 2.9 4-2.1.9-4.2 1.8-6.3 2.8-.9-.8-1.7-1.5-2.5-2.3"/><path d="m194 208c2.9-1.2 5.4-3.1 7.8-5.1 2 0 3.6 1.8 4.1 3.6.9 3.1 1.2 6.3 1.7 9.4.7 0 2 0 2.7 0 .2-1.3.4-2.6.6-3.9.7 0 2.1 0 2.8 0 .9 3.1-.7 6-2.1 8.7-5.3-2.1-8.2-7-10.6-11.9-1.2.8-2.4 1.7-3.7 2.5-1.1-1.1-2.2-2.2-3.3-3.3"/><path d="m279 204c1.4-1.5 3.8-1.5 5.5-.6 2.8 3.2 4.4 7.2 6 11-3.3.3-6.2-.9-8.7-2.9-2.1.8-4.1 1.7-6.1 2.6 0 2.3 1.2 5.1-.6 7-3 3.2-7.4 4.2-11.4 5.6-1.3 1.7-2.7 3.5-4 5.2-1.2-2.2-2.4-4.4-3.6-6.6-3.8.5-7.7 2-11.4 1.1-3.6-2.7-6.5-6.3-9.8-9.4 3.2-2.1 6.9-1.1 10.3-.4.6 1.3 1.1 2.5 1.7 3.8 3.9-1.7 7.7-3.8 11.2-6.1 3.3-2.4 7.3.1 10.6 1.4 1.7-1.3 3.5-2.5 5.2-3.8 2.6-2 3.2-5.4 5.1-7.9"/><path d="m368 229c3.1-.3 6.2-.7 9.4-.9-.1 2.9-.4 5.8-1.6 8.4-.5-1.7-.9-3.4-1.4-5.1-2.1-.9-4.2-1.7-6.4-2.4"/><path d="m221 285c1.3 1.2 2.7 2.3 3.8 3.7-.4 3.5-2.2 6.9-1.5 10.5.7 3.8 1.3 7.7 1 11.6-2.4 1.4-4.5 3.4-6.2 5.6-1.4-5.4-3-10.8-4.6-16-.5-2.2-1-4.4-1.7-6.6.7 1.2 1.4 2.4 2.1 3.6.6-.6 1.1-1.3 1.7-1.9 2.6-2.9 4-6.7 5.3-10.3"/></g><g style="fill:#311405"><path d="m104 33c1.4.3 2.8.5 4.1.8-1 1.2-1.9 2.4-2.9 3.6 2.7 1.9 5.2 3.9 7.4 6.4 1.1 1.2 2.1 2.4 3.2 3.5-1.2 2.6-3 4.8-5.5 6.3-2.7-.9-5.5-1.5-8.3-1.2-4.2.2-9 1-12.2-2.4.5-.3 1.6-.9 2.2-1.1 2.8-.7 5.7-1 8.5-1.4-.8-2.5-1.5-5-2.3-7.5 1.3.3 2.7.6 4 .8 1-2.5 1.3-5.2 1.7-7.8m-3.1 9.6c.1 1.7.1 3.4.4 5.1 2.4 2.7 6.6 3 9.8 1.7.5-3.1-1.1-6-1.8-8.9-2.8.5-5.6 1.2-8.3 2.1z"/><path d="m83 63.8c.2-2 .3-4.1.5-6.1 5.1.3 10.2.6 15.4.6 0 .3-.1.9-.2 1.3-.7 2.4.5 4.5 2.1 6.1.9-1.1 1.8-2.3 2.7-3.5.9 1.2 1.7 2.5 2.5 3.8 1.2.5 2.4 1 3.6 1.5.4 3.2 1.1 6.3 2 9.4 1.8-.1 3.7-.1 5.6-.2-1.1 1.9-2.1 3.8-3.9 5.2-1.5-.6-3.1-1.2-4.7-1.8-1 1.3-2 2.7-3.2 4-.5-.1-1.5-.2-1.9-.2-.3-3.8 1.6-7 3.1-10.4 1.2-2.5-1.8-4.3-3.3-5.9-1.8 3.3-3.6 6.7-5.5 9.9-1-.1-2-.2-2.9-.3.3-.6.8-1.8 1-2.5 1.2-2.8 2.6-5.7 3.2-8.7-.6-.3-1.7-1-2.3-1.3-1.5 2.3-2.7 4.7-3.9 7.2-.1.3-.4 1-.6 1.3.3 1.3.6 2.6 1 3.8-.5-.1-1.5-.2-1.9-.3-1.5-2.6-3.1-5.2-6-6.4.1-1.2.2-2.5.3-3.7-1-.9-2-1.8-2.9-2.8m6-1.4c.1 1 .3 2 .4 3 .5.1 1.6.4 2.1.5 0-1.2 0-2.3 0-3.5-.6 0-1.9 0-2.5 0z"/><path d="m61 66c.7.1 1.4.2 2.1.2.6.5 1.7 1.5 2.3 2 1.9 1.2 4 2.1 6 3.3.2.2.6.6.8.8-1.4.3-2.7.6-4.1.9.8 1 1.7 2 2.6 3-1.9 0-3.8.2-5.7.3.1 1.9.1 3.9.5 5.8.8 1.5 2.4 2.4 3.7 3.5.5.8 1 1.7 1.5 2.6.6 1.1 1.2 2.2 1.9 3.2.2-.3.7-.8 1-1.1.9-1 1.8-1.9 2.7-2.8-.1-1.8-.2-3.5-.3-5.2.7-.1 2.1-.2 2.8-.2.7 2.8.7 6 2.5 8.5 1.5 2.1 3.1 4.2 4.5 6.4-1.3 0-2.6.1-3.8.1-.9-1.3-1.8-2.5-2.7-3.8-5.4.3-10.4-2.1-14.6-5.3-.3-1.5-.5-3-.8-4.5-1 0-2 .1-3.1.1-.2 1.5-.5 3.1-.7 4.6-2-1.2-4-2.4-6.1-3.6.5 1.8 1.1 3.6 1.7 5.4-2 1.1-4 2.4-6.2 3-1.9-.7-3.6-1.9-5.3-2.8l.8-.3c2-.7 3.9-1.5 5.8-2.3-1.3-1.5-2.5-2.9-3.8-4.3.7-1.1 1.4-2.1 2.1-3.2 4.4 1.7 9 2.6 13.7 2.6-.2-3.6-1.3-7.2-3.8-9.9-.8 1-1.6 2-2.4 3-.5 0-1.5-.1-2-.1-.3-3.5 1.4-6.7 4.5-8.4.5-.4 1.5-1.1 2-1.4"/><path d="m42 67c2.9.2 6.2-.4 8.3 2.1-.4.1-1.3.2-1.7.3-2.2.3-4.4.5-6.5.7 0-.8-.1-2.3-.1-3"/><path d="m72.9 75c3.4.3 6.8.6 10.2.4.7-.1 1.5-.1 2.2-.2 1 1.6 1.9 3.2 3 4.7 1.5 1.2 3.1 2.3 4.6 3.6l-.2.8c-.8 2.3-1.5 4.6-2.3 6.9-.7-1.8-1.5-3.7-2.3-5.5-1.1-3-3-5.5-6.1-6.6.9 2.2 1.9 4.4 2.9 6.6-2.5-.8-4.7-2.1-6.8-3.5-.9-1-1.8-2-2.6-3.1-.4-.5-.8-1-1.2-1.5-.4-.6-1.1-1.9-1.4-2.6"/><path d="m37 80c2.5-1.8 5.2-.5 7.7.5-.2.7-.5 2-.6 2.7-2.7-.3-5.1-1.5-7.1-3.3"/><path d="m29.7 84c.6 0 1.9 0 2.6 0l.9.3c2.5.8 5 1.7 7.2 3.2-.1.6-.3 1.8-.4 2.5-4.2-.4-8-2.4-10.4-5.9"/><path d="m27.7 87c3.4 1.5 5.9 4.3 7.7 7.6 0 .4-.1 1.1-.2 1.4-1.2-.3-2.4-.7-3.6-1 1.1 1.1 2.1 2.2 3.3 3.3 5.6 1.9 11.6-.1 17.3 1.5-1.3 1-2.5 2-3.8 2.9-2.4-.7-4.8-1.4-7.3-1.7-.3.3-.8.8-1.1 1.1-2.8 3.6-7.3 4.6-11.4 5.6-1-2.5-1.9-5-3.2-7.3-1.2-1.2-2.5-2.3-3.8-3.5 0-1.6.1-3.2.2-4.8 1.3.4 2.6.7 3.9 1.1 0-.7 0-2.1 0-2.8.7-1.2 1.4-2.3 2.1-3.5"/><path d="m100 90c3 .5 5.9 1.2 8.6 2.5 0 .4.1 1.2.2 1.6-1.5.5-3.1 1-4.6 1.5-.3.1-1 .4-1.3.5-.8 4.5-1.6 9.8 1.8 13.5-.2.6-.6 1.8-.8 2.5-2.8-1-5-3.1-7.1-5.1.9-1.5 1.8-2.9 2.6-4.5 0-2.8-.2-5.6-.3-8.4.3-1.4.6-2.7.9-4.1"/><path d="m57 92c2.9.1 5.7.3 8.6.8-1.1 1.5-2.2 3-3.3 4.6-1.7-.6-3.4-1.2-5-1.8-.1-1.2-.2-2.4-.2-3.7"/><path d="m88 101c0-3.4.4-6.8 1.7-9.9.9 1.3 1.8 2.5 2.7 3.8.3 1.3.7 2.6 1.1 3.8-.8.8-1.5 1.7-2.3 2.5-.8-.1-2.3-.2-3.1-.3"/><path d="m64 100c2.2-.7 3.7-2.6 5.5-4 1.4 1 2.8 2.1 4.2 3.2.7 1.3 1.4 2.7 2.2 4.1.6-.2 1.8-.5 2.5-.6 1.7-.1 3.5-.1 5.2-.1-1.4 1.2-2.8 2.5-4.2 3.7 2.7.1 5.5.1 8.2.3.5.4 1.5 1.2 2 1.6.1 2.3.2 4.7.4 7 2.2-.8 4.4-1.5 6.6-2.3 1.5 1.3 3 2.8 4.8 3.7 2.9.9 5.9.3 8.8-.3 2-1 3.9-2.4 5.7-3.7-.1 1.4-.1 2.7-.2 4.1v.8c-.2 1.3-.5 2.7-.7 4-.4.1-1.2.3-1.6.5-3.8-.3-7.5-1.2-11.2-1.5-1.7-1.3-3.7-1.8-5.8-1.7 1.2.6 2.5 1.3 3.7 1.8 0 .7.2 2.1.2 2.8-1-.2-2.1-.5-3.1-.7-.6.1-1.8.2-2.4.2-.9.6-1.8 1.3-2.7 2-3.5-2.6-3.4-7-4.5-10.8-1.9.5-3.7 1.2-5.5 1.9-1.8-.7-3.6-1.4-5.4-2 1.3-.8 2.5-1.5 3.7-2.3 0-.7.1-2 .1-2.7-2.7.4-5.8 1.5-8.3 0-2.6-1.5-3.4-4.5-4.5-7-4.1 2.1-8.7 2.4-13.2 2.1.8-1.3 1.6-2.7 2.4-4 2.3.1 4.7.5 7 .2"/><path d="m50.8 119c1.4 1.3 4.1 2.5 2.8 4.8-2.2 4.9-5.7 9-7.2 14.2-2.2-.4-4.5-.9-6.7-1.5-.3-.2-.9-.7-1.2-.9.1-.9.3-1.8.4-2.8 2.9.2 5.9.5 8.8.7-1-2.6-2-5.2-3.1-7.8-.3-.7-.6-1.4-.9-2.1 1.8-1.3 3.7-2.6 5.5-3.8.4-.2 1.2-.6 1.6-.8"/><path d="m79 121c1.6-.6 3.2-1.3 4.8-1.5 2.9 2.3 5.1 5.2 7.7 7.9-2 1.1-4 2.3-6 3.4 1.5 1.5 2.9 3.1 4.3 4.7-1.8 1.3-3.7 2.6-5.7 3.6-1.8-1.4-3.5-2.7-5.3-4.1 0 3.2 0 6.4.1 9.6 0 .3 0 .9 0 1.2-.6 3.7-1.7 7.3-2.2 11-1.1 2.3-2.2 4.6-2.9 7.1-.7 2.7-.7 5.7-2.5 7.9-2.2 2.4-4.8 4.3-6.9 6.8-.7-1.8-1.3-3.7-2-5.5-3.8-1-8.6-1.5-10.2-5.7 1.9.7 3.8 1.6 5.9 1.8 2.1-.1 4.1-1 6.1-1.6-5.3-.6-10.4-2.2-15-4.7-3.6-2.1-7.5-.2-10.7 1.8-1.6 1.6-3 3.4-4.6 5.1-.6-1.1-1.4-2.2-2.1-3.2.2-1.6.5-3.2.7-4.8 2.2-.4 4.3-.7 6.5-1.2 2.7-1.5 4.5-4.1 4.8-7.2-1.4-1.1-3-1.9-4.6-2.6-.3-.8-.5-1.7-.8-2.6 2.4-2 5.3-3.4 8.5-3.1-.2.4-.6 1.2-.8 1.6-.5.8-1 1.6-1.5 2.4 7.7 3.6 12.6 11.5 20.8 14.2-2-2.6-4.2-5.1-6.6-7.4 1.8-.7 3.5-1.5 5.3-2.2-1.8-1.3-3.6-2.5-5.4-3.8 2.8.5 5.6 1 8.4 1.5-.8-1.5-1.5-2.9-2.3-4.4 1.7-.1 3.4-.2 5.1-.2-.3-.9-.5-1.9-.8-2.8 2.6-.8 5-2 7.3-3.5-1.2-1.7-2.4-3.5-3.6-5.2.7-.8 1.3-1.5 1.9-2.3-.2-2.2-.8-4.4-.2-6.5 1-2.1 3-3.4 4.7-4.9-.8 3.8-3.3 7.7-1.4 11.5 3-2.3 5.9-4.6 9.1-6.6-3-1.2-5.6-3-7.7-5.4"/><path d="m120 138c.6 0 1.8 0 2.4 0 .7.8 1.5 1.7 2.2 2.6-1.4.7-2.7 1.3-4.1 2-.2-1.5-.3-3.1-.5-4.6"/><path d="m93 153c2.2.8 4.5 1.2 6.4 2.6 1 2.9.9 6.1 1.8 9.2-2.4.3-4.8.9-6.9 2-.9.6-1.8 1.2-2.7 1.8-.2-.5-.5-1.4-.7-1.9 2.1-1.7 4.1-3.5 6.2-5.2-1.5-2.8-2.8-5.6-4.1-8.5"/><path d="m300 190c.8-.7 1.5-1.5 2.3-2.2 3.6 2.2 6.9 4.8 10.3 7.3.6-2.3 1.2-4.7 1.8-7 4.1 1.2 7.6 3.8 10.4 7-1 1.3-2 2.7-2.9 4 .6 1 1.2 2 1.8 3 0 .5.1 1.5.1 2-1 .6-2.1 1.3-3.1 1.9-1-4-2.1-8-3.4-11.9-3.8 3.7-4.9 8.8-5 13.9-.5.4-1.4 1.3-1.9 1.8-5-3.9-9.2-8.9-11.3-14.9.6 0 1.8-.1 2.4-.1 2.2 2.7 4.4 5.4 7 7.8.4-4.6-2.8-7.8-6.1-10.4-.8-.7-1.6-1.4-2.4-2.1"/><path d="m339 232c5-4.6 12.2-5.2 17.7-9 2.1 4.2 6.5 5.8 10.9 6.2 2.1.7 4.3 1.5 6.4 2.4.4 1.7.9 3.4 1.4 5.1-4.7 4.6-11.3 6-17.5 7.3 2.6 5.4 4.7 11.3 4.1 17.4-.8 8.5 4.4 16.4 2.4 25-1.8-.9-3.6-1.8-5.4-2.8-.6 3.9-1.3 7.7-2.2 11.5-.5-.1-1.6-.1-2.1-.2-.7-1.4-1.4-2.8-2.1-4.2-1 4.4-2.2 8.7-4 12.8-3 7.7-4 15.9-4.7 24-2.8 1.8-5.9 3.5-7.7 6.4-2 3.1-2.3 6.9-3.6 10.4-1.9 6.1-7 11-13 13-3.6.1-6.3-2.7-8.9-4.7 4.1-6.7 9.7-12.4 13-19.7 1.8-3.9 4.2-7.6 4.7-11.9.6-6.6-1.4-13-3.6-19-3.2 3.7-5.9 7.8-8.2 12-1.8 3.3-1.9 7.2-3.3 10.6-2 3-5.4 4.9-7 8.1-1.6 3.1-2.5 6.6-4.7 9.4-3.8 4.8-7.2 9.9-11.5 14.3-2.1-.6-4.2-1.3-6.3-2.1-1.8-1.4-3.8-2.9-4.7-5.1 1.6-5.3 4.9-10 9-13.6 3.8-3.3 5.7-8.2 10-10.9 3.3-1.9 4.3-5.8 4.2-9.3-.3-8.2-3.4-16-4.7-24 1.3-1.6 2.5-3.3 3.8-5-6 1.4-10.2 6.2-15 9.5-2.1-3.4-3.8-7.1-6.4-10.2-4.6-.7-7.9 4-12.3 4.7-2.4-.5-4.6-1.9-6.8-3-1.5 2.1-2.9 4.2-4.4 6.3-8.6.4-16.7-2.6-24.9-4.9-.1 1.8-.2 3.6-.3 5.5-.9-2.4-2-4.8-3.1-7.1 2-1.1 4-2.1 5.9-3.2-2.4-2.4-4.9-4.6-7.5-6.7 2.1-1 4.1-2 6.2-3-1.6-1.5-3.2-2.9-4.8-4.4 1.5-3 .6-6.3.1-9.4 3.3-.7 6.3 1.2 9.2 2.5.5-5 3.2-9.2 4.8-13.7-.3-3.1-2.3-5.8-3.8-8.4 1.7-1 3.3-2.1 5.2-2.7 3.8.3 6.9 3.4 8.3 6.8 1.7 4.8-.2 9.8-1.1 14.5 2.6-.6 7.1-.1 7.8-3.6.7-7.5-.3-15-1.1-22.5 3 1.5 6 3.1 9 4.7.8-2.9 1.6-5.9 2.3-8.8.3-.2 1-.4 1.3-.6 1.1.5 2.1 1 3.2 1.5.1-.7.4-2.2.5-3 .4-.1 1.3-.4 1.7-.6.8 2.9 1.6 5.8 2.4 8.8 3-2 6-5.1 9.9-4.8 4 .6 7.6 2.6 11.2 4.2.6-2.2.7-5.6 3.7-5.7 4.4-1 6.3 3.8 8.5 6.6 1.4-.8 2.9-1.5 4.3-2.2 1.9 2.4 3.6 5.2 6.2 6.9 3.4.5 6.9-.2 10.4.5 3.1.3 6.8 1.9 9.4-.6 1.8-1.2 2-3.4 1.9-5.4-3.3.2-6 2-8.8 3.5-.9-.7-1.8-1.3-2.7-2 .8-1.9 1.6-3.8 2.4-5.7 1.6.5 3.1 1 4.7 1.4m-34.9.1c.3 1.3.6 2.5 1 3.8.7 0 2.2 0 3-.1-1.3-1.3-2.6-2.5-3.9-3.7m-15.6 2.9c-.5 2.7.4 5.2 1.6 7.6-1.7 1.3-3.4 2.7-5 4 .2.5.5 1.5.7 1.9 1.2-.8 2.5-1.6 3.7-2.4 3 7.3 4.6 15 6.1 22.7 1.3 0 2.6 0 4 .1.1-5.8-4.1-10.5-4.5-16.2-.3-3.9-2.4-7.7-.9-11.6-1.6-2.3-3.5-4.3-5.6-6.2m-28.8 2.6c0 2.9 1 5.5 3.7 6.8-.3-2.3-.6-4.5-1-6.7-.7 0-2-.1-2.7-.1m23.3-.5c.4 1.4.9 2.9 1.4 4.3.6.1 1.9.4 2.6.5-.8-2-2.2-3.6-4-4.9m-40 3.8c1.7 2.8 3.7 5.7 7.1 6.5-.5-3.8-3.9-5.5-7.1-6.5m63 4.1c.5 3.2 1.6 6.3 2.9 9.2.8-.1 2.3-.3 3-.4-1.2-3.4-2.5-7-5.9-8.9m-43.9 5.7c.1.9.2 1.8.3 2.7.5.2 1.5.5 2.1.7 0-1.6 0-3.2-.1-4.8-.8.5-1.5.9-2.3 1.4m25-.2c0 1.2 0 2.4 0 3.6.7-.4 1.5-.8 2.2-1.2-.1-.5-.3-1.4-.4-1.9-.5-.1-1.4-.5-1.9-.6m10.9 1.2c.4 1 .9 2 1.4 2.9.4-1.5.8-3 1.2-4.5-.9.5-1.8 1-2.6 1.6m-52.9 8.8c.7.1 1.9.3 2.6.4.4-3 .7-6 .6-9-2.7 2.1-3.3 5.4-3.2 8.6m65.9-3.2c0 1.3 0 2.6 0 3.8.5-.2 1.6-.5 2.1-.7.1-.5.4-1.5.5-1.9-.9-.4-1.7-.8-2.6-1.2m-32.6 2.6c.3 1.8.2 4.3 2.5 4.6-.3-1.9-.1-4.3-2.5-4.6m-13.6 2.3c.4 2.4 1.6 4.6 4.1 5.4-.1-2.7-1.6-4.6-4.1-5.4m-34 1.5c.9 3.3 2.7 6.5 6.1 7.9.2-3.9-2.3-7.1-6.1-7.9m23.4.5c.3 2 .7 3.9 1 5.9.6-.1 1.8-.4 2.4-.5 0-2.4-1.4-4.3-3.4-5.4m-10 1.3c-.4 2.2-.7 4.4-1.1 6.6.6 0 1.8-.1 2.4-.1.4-1.9.8-3.7 1.2-5.5-.9-.3-1.7-.6-2.5-.9m70 2.6c-.9 3.2.4 6.3 2.8 8.5.2-3.2-.6-6.2-2.8-8.5m-77 5.5c-1.2 1.7-2.4 3.4-3.7 5 .9 1.2 1.1 3.8 3.2 3.5.9-2.5 1.5-5 2.1-7.6-.4-.2-1.2-.7-1.6-.9m32.7 1c.8 2.1 1.7 4.2 2.9 6.1.4-1.6.8-3.3 1.1-4.9-1.3-.4-2.7-.8-4-1.2m-15 1.2c.6 1.7 1.3 3.4 2 5 .5-1.7.9-3.4 1.4-5.1-.9 0-2.6.1-3.4.1m-13 11.6c2.2-2.3 3.9-6.1 1.2-8.7-2.1 2.4-1.8 5.8-1.2 8.7m79-7.8c.9 2.2 3.1 2.6 5.2 3-.1-.7-.2-2-.3-2.7-1.7-.1-3.3-.2-5-.3m-63 4.1c-1.5 1 .3 3.5 1.7 2.3 1.5-1-.3-3.5-1.7-2.3m48.9-.1c.2.6.5 1.7.6 2.3 1.3.2 2.6.4 4 .6 0-.7.1-2.1.1-2.8-1.6 0-3.2 0-4.7 0m27.4 14.7c.9-.3 1.7-.7 2.6-1-1.2-2.1-2.4-4.1-3.8-6-.9 2.4.3 4.8 1.2 7m-10.7 44c.9 2.4 3.3 2.8 5.5 2.7-1.1-2.1-3.3-2.7-5.5-2.7z"/><path d="m207 244c1.6 1.9 4 4 3.4 6.7-.8 2.4-2.7 4.2-4.2 6.2.9 3.3 1.9 6.9-.9 9.6-.2-1.9-.4-3.9-.6-5.8-1.5.8-3.1 1.5-4.6 2.3 1.6 1.9 3.2 3.7 5 5.3 3.5 3.3 8 5.1 12.5 6.4-1.9 2.4-3.7 4.9-5.4 7.4 1.9 1 3.8 2 5.7 3-1.2 1.7-2.4 3.4-3.7 5 .5 1.6 1 3.1 1.4 4.6-.5.6-1.1 1.3-1.7 1.9-.7-1.2-1.5-2.4-2.1-3.6-.3-.5-.8-1.5-1-2-2.6 2.1-5.4 4-7.7 6.4-2.7 3-3.5 7.1-4.5 10.9-1.4-1.2-2.7-2.3-4.1-3.5 1.3-3.7.5-7.4-1.5-10.7 3.4-.7 6.8-1.3 10.2-1.9-2.1-2-4-4.3-6.8-5.4-2.5-.9-5.2-1.4-7.9-2 .3-.7 1-2.1 1.3-2.8 3.6.7 7.3 1.1 10.9.9-1.8-1-3.6-2-5.4-2.8.6-1 1.1-2 1.8-2.9 1.9-.6 4-.4 6-.5-2.4-5.7-6.9-11.2-6.1-17.7.2-3.5 3.9-4.8 6.3-6.5 1.5-1 2.8-2 4.3-3.1-.2-1.2-.3-2.3-.5-3.5-.1-.6-.2-1.7-.2-2.2m-1.8 29.9c1.2 3 2.8 5.9 5.2 8.2.2-1.3.4-2.6.4-3.8-1.6-1.7-3.6-3-5.5-4.4z"/><path d="m213 300c1.6 5.4 3.2 10.7 4.6 16 1.2 1.9 2.6 3.7 4.1 5.5 3.2-3.7 5-8.3 5.8-13 1.2-.2 2.3-.5 3.5-.7-.7 6.2.7 13.4-3.7 18.6-3.2 4.1-6.3 8.3-8.2 13-1.5 3.6-2.7 7.3-3.8 11-1.8-.4-3.7-.9-5.6-1.3-1.1 1.6-2.3 3.3-3.5 4.8-4.5 3.5-10.4 1.8-15.5 1 .7-2.5 1.4-5 2.6-7.3 4.2-3.5 9.2-6 12.8-10.3 4.4-4.8 5.9-11.4 7.2-17.6 1.6-6.6.3-13.3-.5-19.9"/><path d="m190 318c1.5-.3 3.1-.6 4.6-.9.1 4.3.2 8.6-.8 12.8-2.4 5.7-3.1 12-5.3 17.8-.6.5-1.7 1.4-2.3 1.9-1.9-3.1-1.8-7.3-4-10-4 0-7.9 1.6-12 1.5-.4.9-.9 1.7-1.3 2.6-.4-.6-.8-1.3-1.2-1.9 4.4-3.2 8.4-7.3 9.5-12.9-.1 2.1-.1 4.2 0 6.4 4.5-2.3 9.1-4.8 12.2-8.9 1.5-2.5.7-5.7.8-8.5"/></g><g style="fill:#b68908"><path d="m77 36.8c.8-.8 1.7-1.6 2.5-2.5.7 1.1 1.4 2.3 2.1 3.4 2.5-.9 5-1.8 7.5-2.8-.4 1.1-.8 2.2-1.3 3.4-1.1 2.5-1.9 5.3-4 7.3-2.7 2.5-5.6 4.6-8.3 7.1-1.8-3.7-4.9-6.4-8.5-8.2.6-2.2 1.3-4.5 2-6.6 1.1.7 2.1 1.4 3.2 2.1.3.2.8.5 1 .7 1.3-1.2 2.5-2.5 3.7-3.8"/><path d="m52 55.8c1.5-6.6 5.1-12.5 9.6-17.5-.1 3.9-.4 7.9-1.4 11.7-.4 1.6-.9 3.2-.8 4.8 1 1 2.1 1.7 3.3 2.5-.1.3-.2.9-.3 1.1-.8 2.6-1.4 5.3-2 8-.5.3-1.5 1.1-2 1.4-5.8 1.5-11.3-1.8-16.8-2.9 1.2-4.9 2.4-10 5.6-14 1.6 1.6 3.2 3.3 4.8 4.9"/><path d="m89 43c.3.2 1 .6 1.4.8.3.9.7 1.9 1 2.8-1.6 0-3.3 2.5-1.6 3.6 3.2 3.3 8 2.6 12.2 2.4.8 1.2 1.7 2.4 2.6 3.5 2.1-.2 3.9-1.2 5.7-2.3 2.5-1.5 4.3-3.7 5.5-6.3 2.2-1.6 4.5-3 6.9-4.2.8 5.6-1.9 10.8-3.2 16 2.1-.6 4.2-1.1 6.3-1.6-.7 4.1-1.8 8.2-3.2 12-2-.5-4.1-.8-6.1-1.1-1.3-1.4-2.5-3-4.1-4.2-2 .1-3.9.8-5.8 1.2-.8-1.3-1.6-2.5-2.5-3.8-1.5-1-3.2-1.8-4.8-2.6 0-.3.1-1 .2-1.3-5.1 0-10.3-.3-15.4-.6-.5-.8-1-1.5-1.5-2.2 2.2 0 4.5-.1 6.7-.2-.9-1.2-1.7-2.4-2.7-3.5-1.7-.6-3.5-.7-5.2-.9.1-.3.3-.8.5-1 2-.5 3.9-.9 5.9-1.4.4-1.8.9-3.6 1.4-5.4"/><path d="m69 61.9c1.4-.5 2.7-1 4.1-1.5-.4 2.8-.8 5.6-.5 8.4 2.7 1.4 5.8 1.8 8.8 2.2.3 1.4.8 2.7 1.2 4-3.4.3-6.8-.1-10.2-.4-.3-.5-.8-1.4-1.1-1.9-.2-.2-.6-.6-.8-.8-2-1.1-4.1-2-6-3.3 1.8-2.1 3.3-4.3 4.5-6.8"/><path d="m104 68c1.5 1.6 4.5 3.3 3.3 5.9-1.5 3.3-3.4 6.6-3.1 10.4.5.1 1.5.2 1.9.2 3.4.2 7.9 1.3 10.3-1.9 2.3-3.5 4.3-7.2 7.2-10.3-.3-.6-.6-1.3-1-1.9 2.9-.1 5.7-.9 8.3-1.9-.5 1.1-.9 2.2-1.3 3.3-1.6 4.3-3.8 8.4-6.5 12 .3 1 .5 2 .8 3-1.8.9-3.6 1.9-5.6 2.2-2.9-1.8-5.9-3.7-9.5-2.9.1 2.4.2 4.8.5 7.2-2.7-1.3-5.7-2-8.6-2.5-2.4-2.5-4.7-5.1-7.4-7.3-1.5-1.2-3.1-2.3-4.6-3.6-.1-1-.3-1.9-.4-2.9 3 .9 6.1 1.8 9.1 2.8.3-.5.9-1.5 1.2-1.9 1.9-3.3 3.7-6.6 5.5-9.9"/><path d="m93 91c2 .9 4 1.8 6 2.8l.6.7c.2 2.8.4 5.6.3 8.4-.7.4-2.2 1.2-3 1.7-1.2-1.9-2.5-3.8-3.5-5.8-.4-1.3-.7-2.5-1.1-3.8.2-1.3.4-2.6.6-3.9"/><path d="m114 98c1.1-1.5 2.3-3.1 3.4-4.6.4 2.4.7 4.8 1.1 7.1 1.3-.5 2.6-.9 4-1.4.2.3.6 1 .8 1.3-1.3 2.4-3.1 4.7-3 7.6.2 3.3 1.9 6.2 3.4 9-2.2-.1-4.4-.3-6.6-.4 1-3.4 2.2-6.9 2.1-10.5-.5-3.3-2.9-5.8-5.1-8"/><path d="m103 97c.3-.1 1-.4 1.3-.5.3.3.8.9 1 1.2 2.9 3.6 6.2 6.8 9.7 9.7-1.6 3.1-3.3 6.3-4.9 9.4-.9-1-1.9-2-2.8-3-.9-1.1-1.7-2.2-2.6-3.3-3.5-3.7-2.6-8.9-1.8-13.5"/><path d="m52 100c.9 1.2 1.8 2.3 2.7 3.5 4.5.3 9.1 0 13.2-2.1 1.2 2.5 2 5.6 4.5 7 2.6 1.5 5.6.4 8.3 0 0 .7-.1 2-.1 2.7-1.3.8-2.5 1.5-3.7 2.3 1.8.7 3.6 1.4 5.4 2-1.6 1.9-3.4 3.5-5.3 5-3.8-2.9-7.7-5.8-11.2-9 .6-.7 1.2-1.3 1.8-2-.1-.3-.3-.9-.5-1.2-1.9.7-3.9 1.4-5.9 2-5-1.8-10.5-2.7-14.8-6.1.4-.3 1.3-1 1.7-1.3 1.3-1 2.5-1.9 3.8-2.9"/><path d="m90 102c2.5 1.7 5.1 3.4 7.5 5.2-.8 1.5-1.5 3-2.2 4.6-1.7-1.2-3.4-2.5-5.1-3.8-.5-.4-1.5-1.2-2-1.6.6-1.5 1.2-2.9 1.8-4.4"/><path d="m63 117l.6.4c2.9 2.2 6.3 4 8.4 7 .7 2.3-.4 4.9-1.9 6.7-2 1.5-4.5 2-6.8 2.9-.1 1-.2 1.9-.3 2.9 3.7.5 6.8 2.4 9 5.3-1.7 0-3.3.1-5 .1-1.5 1.6-3 3.2-4.6 4.7-1.7.1-3.4.3-5 .5-1.6.3-3.3.7-4.9 1 1.2 1.4 2.5 2.8 3.6 4.3l-.2 1c-1.8-1.3-3.7-2.4-5.6-3.7.2-2.1.1-4.3 1.1-6.2 1.5-2.1 3.6-3.6 5.5-5.3-.7-2.1-1.4-4.2-2-6.2.4-.4 1.3-1.3 1.8-1.7 2.6-1.3 5.4-2.3 7.4-4.4.4-2.9-1.8-5.3-3.5-7.4.7-.6 1.4-1.2 2.1-1.9"/><path d="m114 122c.4-.1 1.2-.3 1.6-.5.2.3.5 1.1.7 1.4 1.1.3 2.2.7 3.4 1 .2.3.7.8.9 1.1-.7 0-2.1.2-2.8.2.7 2.5 1.4 4.9 2.1 7.4.6.1 1.8.3 2.4.3 0-1.9.1-3.8.1-5.6.5 2.1.9 4.3 1.2 6.5-3 .6-6 1.7-8.7 3.3-1.1-4.2-2.2-8.4-3-12.6-.5-.1-1.5-.2-1.9-.2 1.3-.9 2.6-1.6 4-2.3"/><path d="m90 131c1.3-.2 2.7-.5 4-.7 2.1 3.8.4 7.8-1.4 11.4-1.5-.8-3.1-1.7-4.6-2.5-1.3 3.6-2.4 7.2-3.4 10.9 4.3.8 8.7.7 12.9-.6.8-4.7 2-9.2 2.8-13.9 1 3.1 1 6.4 1 9.6 0 2.9 2.3 5 3.9 7.2.9-2.3 1.7-4.8 2.1-7.2 1 1.5 2.1 2.9 3.2 4.3-.5 2.2-1.6 4.8.2 6.6 2.2 1.4 4.3-.3 6-1.5-.9-.8-1.9-1.5-2.8-2.2.5-.2 1.4-.6 1.8-.8 1.9-.8 3.7-1.7 5.6-2.6 2.4 1.3 4.6 3.2 6.1 5.5-1.9-.7-3.8-1.5-5.7-2.3-.3 1.2-.7 2.3-1 3.5 3.9.9 7.8 1.5 11.8 2 1-3.3 1.9-6.6 2.7-10 1.3 3.5 2.2 7.2 2.7 10.9-5.8 1.5-11.6 2.6-17.2 4.6-1.2-.6-2.3-1.2-3.5-1.8-1.8-.9-3.7-1.6-5.6-2.3 1.3 1.4 2.8 2.8 4.3 4.1-1.8 2.8-3 6.1-5.5 8.3-2.7 1.8-6.3 1.4-9.4 1.9 2.3-1.9 4.5-3.8 6.7-5.7-1.9.1-3.8.1-5.8.2-.4-1.1-.7-2.2-1-3.3-.8-3-.7-6.2-1.8-9.2-1.8-1.4-4.2-1.9-6.4-2.6 1.2 2.9 2.6 5.7 4.1 8.5-2 1.8-4.1 3.5-6.2 5.2-1.3-.8-2.7-1.6-4-2.3-.2 1.9-.4 3.8-.4 5.7.1 3.8 1.8 7.2 3.4 10.6 1.2-.3 2.4-.6 3.6-.9.7-1.8 1.4-3.5 2.1-5.2.3.2 1 .6 1.3.8 1.7 1.6 3.2 3.3 4.8 4.9-4.6 2.1-9.5 3.7-14.6 3.1-1.6-2.8-3.8-5.2-6.2-7.3.6-4.8-1.2-9.3-3.7-13.3 1.9-.2 3.8-.3 5.7-.4-2.7-3.7-5-7.9-4.2-12.6 1.5-.2 3-.3 4.5-.5-.2-.3-.6-1.1-.8-1.4-1.2-.7-2.4-1.4-3.6-2.2 0-.3 0-.9 0-1.2.8-.2 1.5-.4 2.3-.5-.2-1.1-.3-2.3-.4-3.4 1.1-.6 2.2-1.1 3.3-1.7 2-1.1 3.9-2.3 5.7-3.6.2-1.4.3-2.8.4-4.2"/><path d="m120 138h.6c.2 1.5.3 3.1.5 4.6 1.3-.7 2.7-1.3 4.1-2 1 1.8 1.5 3.8 1.8 5.8-2.8.3-5.5.7-8.2 1.2 1-3.1 1.3-6.4 1.2-9.6"/><path d="m127 191c2.8-2.4 6.4-3.5 9.6-5.1 2.5 1.6 5.2 3 8 3.8 1.9.3 3.8.6 5.6.8-1.4 1.4-2.8 2.9-4.2 4.3 1.2.7 2.4 1.3 3.6 2 .3 1.3.5 2.6.8 4-4.8-.3-8.6-3.2-12.4-5.7-3.8.1-7.2 2-10.7 3.1-.2-2.4-.4-4.8-.3-7.2"/><path d="m202 192c.5-.1 1.5-.4 2-.5.7 1.6 0 4.6 2.3 4.8 3-.8 5.5-2.8 8.3-4.1.2 0 .6-.1.8-.1-.5 1-.9 1.9-1.3 2.9.1 1.8.4 3.5.7 5.2-1.6-.9-3.1-1.8-4.6-2.7-.2 2-.4 4-.6 6-4.8-2.4-9.7-5.2-12.2-10.2 1.6-.5 3.2-.9 4.8-1.4"/></g><g style="fill:#572c0a"><path d="m88 38c1.4-1 3-1.9 4.7-2.5 1.4-.5 2.9-1.1 4.3-1.7 1 .6 2 1.2 3 1.8-.6 1.4-1.2 2.8-1.8 4.3-3.4-.7-7.3-.4-9.2 2.9-.5 1.8-.9 3.6-1.4 5.4-2 .5-3.9.9-5.9 1.4-.1.3-.3.8-.5 1 1.8.2 3.5.3 5.2.9 1 1 1.8 2.3 2.7 3.5-2.2.1-4.5.1-6.7.2.5.7 1 1.5 1.5 2.2-.2 2-.3 4.1-.5 6.1-.7.8-1.3 1.7-2 2.5-1.8-1-3.6-2-5.4-3-.2 1.1-.4 2.2-.7 3.3 2.1.6 4.2 1.1 6.3 1.7.1.9.3 1.8.4 2.7-3-.5-6.1-.8-8.8-2.2-.3-2.8.2-5.6.5-8.4-1.4.5-2.7 1.1-4.1 1.5-1.4.3-2.7.5-4.1.8-.9 1.3-1.8 2.7-2.7 4-.7-.1-1.4-.2-2.1-.2.6-2.7 1.3-5.3 2-8 1.5-1.1 3.2-2.1 4.8-3.1.8 1.2 1.7 2.4 2.5 3.6-.2-2.6.2-5.4-1-7.8-1.3-1.8-3.1-3-4.8-4.4.9-.8 1.8-1.6 2.8-2.4 3.6 1.8 6.7 4.5 8.5 8.2 2.7-2.5 5.6-4.6 8.3-7.1 2.1-1.9 2.9-4.7 4-7.3"/><path d="m106 65.9c1.9-.5 3.8-1.1 5.8-1.2 1.5 1.2 2.8 2.7 4.1 4.2 2.1.3 4.1.6 6.1 1.1.3.6.6 1.3 1 1.9-2.9 3.1-4.9 6.8-7.2 10.3-2.3 3.3-6.9 2.2-10.3 1.9 1.1-1.3 2.1-2.7 3.2-4 .5 1 1 1.9 1.6 2.9 1-.3 2.1-.7 3.1-1 1.7-1.3 2.8-3.3 3.9-5.2-1.9 0-3.7.1-5.6.2-.9-3.1-1.6-6.2-2-9.4-1.2-.5-2.4-1-3.6-1.5"/><path d="m111 96c.9.7 1.8 1.4 2.6 2.1 2.2 2.3 4.7 4.8 5.1 8 .1 3.6-1.1 7.1-2.1 10.5h-.8c0-1.4.1-2.7.2-4.1-1.8 1.3-3.7 2.7-5.7 3.7 1.6-3.1 3.2-6.3 4.9-9.4-3.5-3-6.8-6.2-9.7-9.7 2.1 1 4.2 1.9 6.3 2.9-.3-1.3-.6-2.6-.8-4"/><path d="m41 102c2.5.2 4.9 1 7.3 1.7-.4.3-1.3 1-1.7 1.3 4.3 3.4 9.7 4.3 14.8 6.1-3.6.5-7.2.3-10.8.2 3.6 1.7 7.3 3.1 10.7 5.1-6.1-1.1-12.4-1.2-18.6-.9-1.5 2.1-2.8 4.3-4.8 6-1.5 1.2-3.4-.2-5-.4.5-1.3 1-2.6 1.5-4 4.8-2.8 8.1-7.6 8.7-13.2-.8-.2-2.4-.6-3.2-.8.3-.3.8-.8 1.1-1.1"/><path d="m41.5 124c2.4-1.7 5.1-2.7 7.7-4-1.9 1.2-3.7 2.5-5.5 3.8.3.7.6 1.4.9 2.1-3 1.3-5.6 3.6-5.7 7.1-.1.9-.3 1.8-.4 2.8-1.3-1.2-2.6-2.5-3.9-3.7 2-2.9 3.9-6 6.8-8.1"/><path d="m102 120c3.8.3 7.5 1.2 11.2 1.5-1.4.7-2.8 1.4-4 2.3-2.4 2.5-4.7 5.1-7.2 7.4-.8.8-1.6 1.6-2.4 2.4-1.3-2.1-2.7-4-4.2-5.9 1.1-.7 2.3-1.4 3.4-2.2-.5-.9-.9-1.8-1.3-2.7l-.4-.7c1 .2 2 .5 3.1.7 0-.7-.2-2.1-.2-2.8.5 0 1.5 0 2 0"/><path d="m117 125c.7 0 2.1-.2 2.8-.2.6.7 1.2 1.5 1.8 2.3 0 1.9-.1 3.7-.1 5.6-.6-.1-1.8-.3-2.4-.3-.7-2.5-1.4-4.9-2.1-7.3"/><path d="m50.7 133c1.4-.1 2.7-.2 4.1-.2 0 .8-.1 2.5-.1 3.4-1.5-.9-2.8-1.9-4-3.2"/><path d="m118 148c2.7-.5 5.5-.8 8.2-1.2.1.4.3 1.2.3 1.6 1.1 1.8 2.3 3.4 3.6 5 .4-2 .8-4 1.3-6 1.2.2 2.3.3 3.5.5-.8 3.4-1.6 6.7-2.7 10-3.9-.4-7.9-1.1-11.8-2 .3-1.2.7-2.3 1-3.5 1.9.8 3.8 1.6 5.7 2.3-1.6-2.3-3.7-4.2-6.1-5.5-1.8.9-3.7 1.8-5.6 2.6 0-1.1 0-2.2 0-3.3.6-.1 1.9-.3 2.5-.4"/><path d="m111 156c-1.8-1.9-.7-4.5-.2-6.6 1.1 1 2.2 1.9 3.4 2.9.9.7 1.9 1.5 2.8 2.2-1.7 1.3-3.8 3-6 1.5"/><path d="m112 159c1.9.7 3.8 1.4 5.6 2.3-.3.5-1 1.4-1.3 1.8-1.5-1.3-2.9-2.7-4.3-4.1"/><path d="m38 164c3.1-2 7.1-3.9 10.7-1.8 0 .9 0 1.9 0 2.9 1.1.6 2.1 1.1 3.2 1.6 1.6 4.2 6.4 4.7 10.2 5.7.6 1.8 1.3 3.7 2 5.5-.8 1.2-1.6 2.4-2.4 3.5-4 4.5-9.8 7.3-15.9 7.4-7 .5-13.8-1.5-20.3-4-.7-1.5-1.4-3-2.1-4.4 4.2-1.7 8.5-3.1 12.2-5.7 3.3-3.3 7.3-5.8 11.3-8-.7-1.1-1.3-2.2-2-3.3-2.3.2-4.6.4-6.9.6"/><path d="m107 177c5.9-2.9 10.8-8.5 17.6-9 4.2.5 8.4.6 12.6 1.4 3.1.6 5.3 3.1 7.6 5-1.2 2.9-1.5 6-1.3 9.1-1.5-.4-3.1-.8-4.6-1.2 1.6 1.4 3.3 2.8 5 4.3.1 1.1.1 2.2.2 3.3-2.9-.8-5.5-2.3-8-3.8-3.2 1.6-6.8 2.7-9.6 5.1-2.4 2.8-4.7 5.8-7.3 8.5.3.8.5 1.7.8 2.5 2.7-.2 5.3-.4 8-.2 3.1.3 5.7 2.1 8.4 3.5.4-2.2.9-4.5 1.3-6.7.7 0 1.5 0 2.2 0 .7 1.4 1.3 2.8 2 4.1 3.5.1 6.7 1.2 9.5 3.3 2.3-1.8 3.9-4.2 5-6.8-1.7-.3-3.3-.6-5-.8-.5-1.6-.9-3.2-1.4-4.7 1.9-.4 3.8-.9 5.7-1.3-1.2-5.3-3.5-10.4-7.8-13.9 1.3-.1 2.5-.2 3.8-.3 4 1.8 7.5 4.8 11.9 5.5 1.5-1.1 2.8-2.3 4.1-3.6 5.4 2.5 10.5 5.5 16 7.7-.4-1.6-.8-3.2-1.2-4.9 6.6 2.4 13.4 4.7 19 8.8-1.6.4-3.2.9-4.8 1.4 2.4 5 7.4 7.8 12.2 10.2.2-2 .4-4 .6-6 1.6.9 3.1 1.8 4.6 2.7-.3-1.7-.6-3.5-.7-5.2 2.2 1.9 4.3 3.7 6.6 5.5-1.3-3.1-3-6-5.3-8.4-.2 0-.6.1-.8.1-2.8 1.3-5.3 3.3-8.3 4.1-2.3-.2-1.6-3.2-2.3-4.8-.4-2.3-.8-4.6-1.2-6.8 6.2 1.5 12.3 3.4 18.2 5.7-.1-1.8-.3-3.5-.4-5.3 5.7.7 11.2 2.8 16.5 4.9-.2-2.1-.4-4.2-.5-6.3 3.9.2 8 .5 11.6 2.3 2.9 1.5 6 2.7 9.3 3.3-.6-2.6-1.3-5.1-2-7.7 6 1.2 11.6 3.8 17 6.4 0-1.7-.1-3.4-.1-5.2 6.1 1.2 11.9 3.7 17.6 6.3.8-1.7 1.5-3.3 2.3-5 3.3 1.3 6.6 2.4 9.7 4.1-.8.7-1.5 1.5-2.3 2.2.8.7 1.6 1.4 2.4 2.1-.3.9-.6 1.8-.9 2.7-.6 0-1.8.1-2.4.1 2.1 6.1 6.3 11 11.3 14.9.5-.4 1.4-1.3 1.9-1.8.1-5.1 1.3-10.2 5-13.9 1.2 3.9 2.3 7.9 3.4 11.9 1-.6 2-1.3 3.1-1.9-.1 2.9.4 5.8 1.9 8.4 1.3-3.7.3-7.4-1.9-10.4-.6-1-1.2-2-1.8-3 1-1.3 2-2.7 2.9-4 3.5 3.6 9 2.4 13.2 4.6 4 3.2 5.6 8.3 8.8 12 2 2.1 4.7 3.3 6.6 5.4 1.5 1.7 2.6 3.8 3.9 5.7-5.5 3.9-12.7 4.4-17.7 9-1.6-.5-3.2-.9-4.7-1.4-.8 1.9-1.6 3.8-2.4 5.7.9.7 1.8 1.3 2.7 2 2.8-1.5 5.6-3.3 8.8-3.5.2 2-.1 4.2-1.9 5.4-2.6 2.5-6.3.9-9.4.6-3.4-.7-6.9 0-10.4-.5-2.6-1.7-4.3-4.5-6.2-6.9-1.4.7-2.9 1.5-4.3 2.2-2.2-2.8-4.1-7.6-8.5-6.6-3.1 0-3.2 3.4-3.7 5.7-3.6-1.6-7.3-3.6-11.2-4.2-3.9-.3-6.9 2.8-9.9 4.8-.8-2.9-1.6-5.8-2.4-8.8-.4.2-1.3.4-1.7.6-1.3.4-2.5.9-3.7 1.5-.3.2-1 .4-1.3.6-.7 2.9-1.5 5.9-2.3 8.8-3-1.6-5.9-3.2-9-4.7.8 7.5 1.8 15 1.1 22.5-.6 3.5-5.2 2.9-7.8 3.6.9-4.7 2.9-9.7 1.1-14.5-1.3-3.4-4.5-6.5-8.3-6.8-1.8.7-3.5 1.7-5.2 2.7 1.4 2.7 3.5 5.3 3.8 8.4-1.7 4.6-4.4 8.8-4.8 13.7-2.9-1.3-5.9-3.2-9.2-2.5.5 3.1 1.4 6.4-.1 9.4 1.6 1.5 3.2 3 4.8 4.4-2.1 1-4.1 2-6.2 3 2.6 2.1 5.1 4.4 7.5 6.7-2 1.1-4 2.1-5.9 3.2 1.1 2.4 2.1 4.7 3.1 7.1.1 4.6-.3 9.3-.5 13.9-1.2.2-2.3.5-3.5.7-.8 4.8-2.6 9.4-5.8 13-1.5-1.8-2.9-3.6-4.1-5.5 1.7-2.3 3.8-4.2 6.2-5.6.2-3.9-.4-7.7-1-11.6-.8-3.6 1.1-7 1.5-10.5-1.1-1.4-2.5-2.5-3.8-3.7-1.3 3.6-2.7 7.4-5.3 10.3-.5-1.6-1-3.1-1.4-4.6 1.2-1.7 2.5-3.4 3.7-5-1.9-1-3.8-2-5.7-3 1.7-2.5 3.6-5 5.4-7.4-4.5-1.3-9-3.1-12.5-6.4.1-.4.2-1.4.2-1.8 2.8-2.7 1.8-6.4.9-9.6 1.5-1.9 3.4-3.8 4.2-6.2.6-2.8-1.8-4.8-3.4-6.7.1.6.2 1.7.2 2.2-1.7 1.8-6 3.7-3.8 6.5-2.4 1.8-6.2 3-6.3 6.5-.8 6.5 3.7 12 6.1 17.7-2 .1-4.1-.1-6 .5-.7.9-1.2 1.9-1.8 2.9-1.9.5-3.8 1.1-5.6 1.9-.3.7-1 2.1-1.3 2.8 2.6.6 5.3 1.1 7.9 2 2.8 1 4.7 3.4 6.8 5.4-3.4.6-6.8 1.2-10.2 1.9 2 3.2 2.9 7 1.5 10.7 1.3 1.2 2.7 2.3 4.1 3.5-1.7 7-1.7 14.4-4.3 21 1-4.2.9-8.6.8-12.8-1.5.3-3.1.5-4.6.9-.1 2.8.7 6-.8 8.5-3.1 4.1-7.7 6.6-12.2 8.9 0-2.1-.1-4.3 0-6.4 1.7-5.6 5-10.4 6.6-16 1.6-5.9 3.3-12 1.7-18-2.2-8.9-4.4-18-9.8-25.7-3.1-4.6-4.8-10-8.9-14-3.2-3.2-6.3-6.4-8.8-10.2-4.9-7.3-12.2-12.6-18.8-18.2-8.3-6.8-17.7-11.9-25.7-19 2.1-.9 4.2-1.9 6.3-2.8-.8-1.4-.8-4.1-2.9-4-2.6.2-4.1 2.8-5.9 4.4-2.7-2.8-5-6-7.1-9.3-2.7-6.6.9-13 3.3-19m48 4.9c.6 4.8 3.9 8.5 6.2 12.5.5-.4 1.5-1.3 2-1.8-2.4-3.8-4.8-7.8-8.2-10.7m17.4 3.3c.6 4.2 1.9 8.2 3.7 12 .8-.7 1.8-1.2 2.2-2.2-1.1-3.1-2.6-6.1-3.8-9.2-.5-.2-1.6-.5-2.1-.7m71 1.8c3.1 3.7 5.3 8 8.8 11.3.1-5.2-3.8-10-8.8-11.3m19 .1c-.2.5-.6 1.4-.7 1.9 2.1 3 4 6.7 7.7 8-1.2-4-4-7.1-6.9-10m-74 .9c.3 4.4 3.7 7.5 6.9 10.1-1.2-3.9-2.5-8.7-6.9-10.1m91 0c1.6 4.4 4.1 8.6 7.9 11.3-.4-4.8-3.9-8.9-7.9-11.3m-49.6 4.1c2.1 3.9 5.1 8 9.7 9.1-2.6-4-5.9-7.4-8.5-11.4-.4.8-.9 1.5-1.2 2.3m-36.8 16c1.1 1.1 2.2 2.2 3.3 3.3 1.2-.8 2.5-1.7 3.7-2.5 2.3 4.9 5.3 9.8 10.6 11.9 1.4-2.7 3-5.6 2.1-8.7-.7 0-2.1 0-2.8 0-.2 1.3-.4 2.6-.6 3.9-.7 0-2 0-2.7 0-.5-3.2-.8-6.3-1.7-9.4-.5-1.8-2.1-3.6-4.1-3.6-2.4 2-4.8 4-7.8 5.1m85-4.3c-1.9 2.5-2.5 5.9-5.1 7.9-1.6 1.4-3.4 2.6-5.2 3.8-3.3-1.3-7.2-3.8-10.6-1.4-3.6 2.4-7.3 4.5-11.2 6.1-.6-1.3-1.1-2.6-1.7-3.8-3.4-.7-7.2-1.7-10.3.4 3.2 3.1 6.1 6.7 9.8 9.4 3.8.9 7.7-.6 11.4-1.1 1.2 2.2 2.4 4.4 3.6 6.6 1.3-1.7 2.6-3.5 4-5.2 4-1.4 8.4-2.5 11.4-5.6 1.8-1.9.6-4.7.6-7 2-.9 4.1-1.8 6.1-2.6 2.5 2 5.5 3.2 8.7 2.9-1.7-3.8-3.2-7.9-6-11-1.7-1-4.1-1-5.5.6m58 2.5c-.4 2.6-.7 5.2-.9 7.8.6.1 1.7.4 2.3.6.5-2.8.9-5.7 1.3-8.5-.7 0-2 .1-2.7.1m-191 3.3c0 1.9-.1 3.8 0 5.7 2.1-1.4 2.3-3.8 2.5-6.1-.6.1-1.8.3-2.5.4m-4.1 13.6c-.5 2.1 2.1 2.8 3.4 4 .7-2.8.9-5.7.5-8.5-1.4 1.4-2.9 2.8-3.9 4.5m12.8-4c.2 1 .4 1.9.7 2.9.5.2 1.5.5 2 .6-.1-.6-.3-1.7-.3-2.2-.8-.4-1.5-.9-2.3-1.3m-1 7.1c.2 1 .3 1.9.5 2.9.6.2 1.7.5 2.2.6-.1-1.2-.1-2.4-.1-3.6-.6 0-1.9 0-2.6 0m29 3.9c.7.2 2 .5 2.7.6-.1-1.7-.2-3.5-.3-5.2-1.5 1.1-2.3 2.7-2.3 4.6m-29.9 1.9c0 1.2 0 2.4 0 3.6.7 0 1.9 0 2.6 0-.2-1-.4-1.9-.6-2.9-.5-.2-1.5-.5-2-.6m27 4.2c-.4 1.9-.8 3.8-1.2 5.6 1.4-.8 2.8-1.7 4.3-2.5.1-1.1.1-2.1.2-3.2-1.1 0-2.2 0-3.2.1m-16 4.1c-1.3 1.4 1 3.5 2.3 2.2 1.4-1.4-1-3.5-2.3-2.2m10.8 7.8c.2 1 .3 2 .5 3 .5.1 1.6.4 2.2.6-.2-1-.3-2.1-.5-3.1-.6-.1-1.7-.4-2.2-.5z"/><path d="m289 235c2.1 1.8 3.9 3.9 5.6 6.2-1.5 3.9.6 7.7.9 11.6.4 5.7 4.6 10.4 4.5 16.2-1.3 0-2.6 0-4-.1-1.6-7.7-3.2-15.4-6.1-22.7-1.2.8-2.5 1.6-3.7 2.4-.2-.5-.5-1.5-.7-1.9 1.7-1.3 3.4-2.6 5-4-1.1-2.4-2-5-1.6-7.6"/><path d="m306 245c3.4 1.8 4.7 5.4 5.9 8.9-.8.1-2.3.3-3 .4-1.3-3-2.4-6-2.9-9.2"/><path d="m306 283c1.6 0 3.1 0 4.7 0 0 .7-.1 2.1-.1 2.8-1.3-.2-2.6-.4-4-.6-.2-.6-.5-1.7-.6-2.3"/><path d="m170 341c4.1.1 8-1.6 12-1.5 2.2 2.7 2.2 6.9 4 10-6.3 1.7-13.3-.9-17.3-5.9.4-.9.8-1.7 1.3-2.6m3.9 2.9c1.5.7 3 1.4 4.5 2.1 0-1.4.1-2.8.1-4.2-1.5.7-3.1 1.4-4.6 2.2z"/></g><g style="fill:#87724c"><path d="m102 52.6c2.8-.3 5.6.3 8.3 1.2-1.8 1-3.6 2.1-5.7 2.3-1-1.1-1.8-2.3-2.6-3.4"/><path d="m101 66c-1.7-1.6-2.8-3.8-2.1-6.1 1.6.8 3.2 1.7 4.8 2.6-.8 1.2-1.7 2.4-2.6 3.5"/><path d="m65 63c1.4-.3 2.7-.5 4.1-.8-1.2 2.4-2.8 4.7-4.5 6.8-.6-.5-1.7-1.5-2.3-2 .9-1.3 1.8-2.7 2.7-4"/><path d="m93 83.9l.2-.8c2.7 2.3 5 4.8 7.4 7.3-.3 1.4-.6 2.7-.9 4.1l-.6-.7c-2.2-2.5-4.4-5-6.7-7.4.2-.6.5-1.9.6-2.5"/><path d="m79 135c1.8 1.3 3.5 2.7 5.3 4.1-1.1.6-2.2 1.1-3.3 1.7.1 1.1.3 2.3.4 3.4-.8.2-1.5.4-2.3.5 0-3.2-.1-6.4-.1-9.6"/><path d="m30.8 154c1.6-.3 3.3-.6 4.9-.6 1.9 2 2.2 4.8 3 7.4-2.1.5-4.3.8-6.5 1.2-.2 1.6-.5 3.2-.7 4.8l-.4-.6c-.7-3.3-1.4-6.6-2.7-9.7.8-.8 1.5-1.6 2.3-2.4"/><path d="m87 164c1.3.8 2.7 1.6 4 2.3.2.5.5 1.4.7 1.9.9-.6 1.8-1.3 2.7-1.8.5 1.7.1 4.3 2.3 4.9 2.5.7 4-2.2 5.7-3.6 1.9-.1 3.8-.2 5.8-.2-2.3 1.8-4.5 3.8-6.7 5.7-1.4.6-2.8 1.2-4.3 1.8-.3-.2-1-.6-1.3-.8-2.1-1.2-4.4-2.1-6.8-2.8-.8-.6-1.6-1.1-2.4-1.7.1-1.9.3-3.8.4-5.7"/><path d="m80.9 176c2.4 2.1 4.5 4.6 6.2 7.3h-1c-1.6-.4-3.6-.3-5-1.4-.7-1.9-.2-3.9-.2-5.9"/><path d="m142 223c1-1.7 2.5-3.1 3.9-4.5.4 2.8.2 5.7-.5 8.5-1.2-1.2-3.9-1.9-3.4-4"/><path d="m270 228c1.2-.6 2.4-1.1 3.7-1.5-.1.8-.4 2.2-.5 3-1.1-.5-2.1-1-3.2-1.5"/><path d="m164 240c1.3-1.3 3.7.8 2.3 2.2-1.3 1.3-3.7-.8-2.3-2.2"/><path d="m279 260c2.4.4 2.3 2.8 2.5 4.6-2.3-.4-2.2-2.8-2.5-4.6"/><path d="m237 273c.4.2 1.2.7 1.6.9-.6 2.6-1.2 5.1-2.1 7.6-2 .3-2.2-2.2-3.2-3.5 1.3-1.7 2.5-3.3 3.7-5"/><path d="m242 287c-.7-2.9-1-6.2 1.2-8.7 2.7 2.6 1 6.4-1.2 8.7"/><path d="m320 279c1.6.1 3.3.2 5 .3.1.7.2 2 .3 2.7-2.1-.4-4.3-.8-5.2-3"/><path d="m257 283c1.4-1.2 3.2 1.3 1.7 2.3-1.4 1.2-3.2-1.3-1.7-2.3"/><path d="m333 298c-.9-2.2-2.2-4.6-1.2-7 1.4 1.9 2.6 4 3.8 6-.9.3-1.7.7-2.6 1"/><path d="m174 344c1.5-.7 3.1-1.4 4.6-2.1 0 1.4-.1 2.8-.1 4.2-1.5-.7-3-1.4-4.5-2.1"/><path d="m323 342c2.3 0 4.4.6 5.5 2.7-2.3.1-4.6-.4-5.5-2.7"/></g><g style="fill:#cbc69c"><path d="m123 83c2.7-3.7 5-7.8 6.6-12-2.2 5.6 2.9 11.6-.7 16.9-.1-1.4-.2-2.9-.4-4.3-1.6.8-3.1 1.7-4.7 2.5-.3-1-.5-2-.8-3"/><path d="m53 149c1.6-.3 3.2-.7 4.9-1-.4 1.8-.8 3.5-1.2 5.3-1.2-1.5-2.4-2.9-3.6-4.3"/><path d="m90 181c-1.7-3.3-3.3-6.8-3.4-10.6.8.6 1.6 1.1 2.4 1.7 2.3.7 4.6 1.5 6.8 2.8-.7 1.7-1.4 3.5-2.1 5.2-1.2.3-2.4.6-3.6.9"/><path d="m156 182c3.5 3 5.8 6.9 8.2 10.7-.5.4-1.5 1.3-2 1.8-2.4-4-5.6-7.7-6.2-12.5"/><path d="m173 185c.5.2 1.6.5 2.1.7 1.2 3.1 2.8 6 3.8 9.2-.5.9-1.5 1.5-2.2 2.2-1.7-3.8-3.1-7.9-3.7-12"/><path d="m263 187c2.9 2.9 5.8 6 6.9 10-3.7-1.4-5.5-5-7.7-8 .2-.5.6-1.4.7-1.9"/><path d="m304 232c1.3 1.2 2.7 2.4 3.9 3.7-.7 0-2.2 0-3 .1-.3-1.3-.7-2.5-1-3.8"/><path d="m203 253c-2.3-2.9 2.1-4.7 3.8-6.5.2 1.2.3 2.3.5 3.5-1.4 1.1-2.8 2.1-4.3 3.1"/><path d="m175 248c.6.1 1.7.4 2.2.5.2 1 .3 2.1.5 3.1-.5-.1-1.6-.4-2.2-.6-.2-1-.3-2-.5-3"/><path d="m200 263c1.5-.8 3.1-1.5 4.6-2.3.2 1.9.4 3.9.6 5.8-.1.4-.2 1.4-.2 1.8-1.8-1.6-3.5-3.5-5-5.3"/></g><g style="fill:#cea60d"><path d="m124 86c1.6-.8 3.1-1.7 4.7-2.5.1 1.4.3 2.9.4 4.3-1.8 4.1-3.4 8.3-5.7 12.2-.2-.3-.6-1-.8-1.3-1.3.5-2.6.9-4 1.4-.3-2.4-.7-4.8-1.1-7.1-1.1 1.5-2.3 3.1-3.4 4.6-.8-.7-1.7-1.4-2.6-2.1-.5-.4-1.5-1.2-2-1.5 0-.4-.1-1.2-.2-1.6-.2-2.4-.3-4.8-.5-7.2 3.6-.8 6.6 1.1 9.5 2.9 2-.3 3.8-1.3 5.6-2.2"/><path d="m39.9 103c.8.2 2.4.6 3.2.8-.6 5.6-3.9 10.4-8.7 13.2-2 .4-3.9.7-5.9 1 0-1.4 0-2.7 0-4.1-1.6 0-3.1 0-4.7.1l.4-.6c1.3-1.6 2.8-3.2 4.2-4.7 4.2-1.1 8.7-2.1 11.4-5.6"/><path d="m42.7 115c6.2-.2 12.5-.2 18.6.9.5.3 1.6 1 2.1 1.3-.7.6-1.4 1.3-2.1 1.9-3.3-1.4-7.1-2.3-10.4-.3-.4.2-1.2.6-1.6.8-2.6 1.3-5.3 2.3-7.7 4-2.9 2.1-4.8 5.2-6.8 8.1 1.3 1.3 2.5 2.5 3.9 3.7.3.2.9.7 1.2.9 2.3 2 5.3 2.7 8.2 3.2-.3 1.8-.6 3.7-1.3 5.5-3.2-.3-6 1.1-8.5 3.1.3.8.5 1.7.8 2.6-1.1-.4-2.2-.9-3.3-1.3 1.3-1.7 2.6-3.4 3.9-5-1.4-.2-2.9-.3-4.3-.5.5-3.6.7-7.4-2.4-9.9-1 3.3-1.9 6.5-2.9 9.8-.3-1.6-.7-3.2-.9-4.8.1-.7.3-1.9.4-2.6.7-5.3 1.3-10.8 3.4-15.7 1.6.2 3.5 1.7 5 .4 2-1.7 3.3-3.9 4.8-6"/><path d="m117 117c2.2.1 4.4.3 6.6.4 2.1 3.3 4.1 6.7 5.1 10.5 1.7 6.2 4.5 12 6.3 18.3-2.6.8-5.2 1.7-7.8 2.5-.1-.4-.3-1.2-.3-1.6-.4-2-.8-4.1-1.8-5.8-.7-.9-1.4-1.7-2.2-2.6-.6 0-1.8 0-2.4 0h-.6c.1 3.3-.2 6.5-1.2 9.7-.6.1-1.9.3-2.5.4 0-3.8-.3-7.6-1.3-11.3 2.7-1.6 5.6-2.7 8.7-3.3-.3-2.2-.7-4.4-1.2-6.5-.6-.8-1.2-1.5-1.8-2.3-.2-.3-.7-.8-.9-1.1-1.2-2.1-2.4-4.2-3.4-6.4v-.8h.8"/><path d="m90 131c.6-2.2 2.2-3.8 3.6-5.5.7.8 1.4 1.7 2 2.5 1.5 1.9 2.9 3.8 4.2 5.9.1.4.4 1.2.5 1.6-.8 4.6-2 9.2-2.8 13.9-4.2 1.3-8.6 1.4-12.9.6 1-3.7 2.2-7.3 3.4-10.9 1.5.8 3.1 1.7 4.6 2.5 1.8-3.6 3.5-7.6 1.4-11.4-1.3.2-2.7.5-4 .7"/></g><path d="m189 188c4.4 1.4 5.7 6.2 6.9 10.1-3.3-2.6-6.6-5.7-6.9-10.1" style="fill:#e8e5ce"/></svg>