<svg xmlns="http://www.w3.org/2000/svg" viewBox="0 0 401 382" style="enable-background:new 0 0 401 382"><path d="m261 187c1.6-.5 2.2 0 1.7 1.7-1.6.5-2.2 0-1.7-1.7" style="fill:#67665f"/><g style="fill:#010101"><path d="m202 12.3c5-1.8 10.2-.1 14.5 2.5 5 2.5 7 8.2 10.9 11.9 3.2 3.4 7.9 4.4 11.2 7.7 4.1 4.5 10.7 4.9 16.3 5.2 6.1-.2 11.5 3 16.5 6.1 2.1 1.5 4.5 2.7 6.2 4.6 4.6 7.7 10 15.5 18.3 19.5 6.4 2.9 12.7 6 18.9 9.3 2.2 1.2 4 3 5.5 5-3 0-6-.3-8.9-1.2-4.5-1.5-8.3-4.7-13-5.8-3.1-.9-6.5-1.3-8.9-3.5-3.7-3.3-6.8-7-10.1-10.7-1.9 1.4-3.9 2.8-5.8 4.2.3-1.8.6-3.5.9-5.3-1.9 1.3-3.9 2.6-5.8 3.9 1.9-3.1 3.6-6.2 5.3-9.5-3-1.2-6-2.4-9-3.5-1.1-1.6-2-3.4-3.4-4.7-2.2-1.4-5.1-.8-7.4.1-2.5 1.1-3.4 4-4.7 6.3 2.4-1.3 4.7-2.7 6.9-4.3-.4 2-1.2 4.1-.9 6.3 1.5 2.1 3.5 3.7 5.4 5.4 2.6-1.9 5.2-3.7 7.8-5.4-1.2 2.4-3.3 4.6-3.5 7.4 1.5 3.6 5.2 5.6 8.4 7.6 7.4 4.1 14 10.2 22.7 11.7 8.3 1.2 16.6 2.8 25 3.7.5.8 1.1 1.5 1.6 2.3-2.7 3.2-5.5 6.5-9.4 8.2-3 1.3-6.2 1.8-9.3 2.7 5.1 12.6 15 22 25 30.8 4.1 3.1 6 7.9 8.3 12.4.9 2.2 2.1 5.6-.2 7.4-5.3 4.5-11.7 7.5-16.4 12.7-3.9 4.5-8.6 8.3-14 10.8-3.1 1.5-6.7.3-9.3-1.8-5.3-3.1-7.3-9.4-12-13-.4 2.8-.5 6-2.7 8-4.6 4.5-10.6 7.4-14.9 12.2-2.2 3.1-2 7-3.8 10.3-2.4 3.4-6 5.6-9.6 7.6-1.2 5-.8 10.2-1.4 15.3-.8 3.8-5.5 3.5-8.3 2.4-5.8-1.5-10.5-5.3-16-7.4-4.7.6-9.3 1.7-14 1.7-3-.4-5.9-1.3-8.9-1.6-9-1.1-16.6-6.6-25.4-8.5-.6 10-1.8 19.9-1.1 29.9-.1 4.9 6.3 6.6 7.3 10.8-1.6 3.5-5.7 5.5-7 9.2-.4 2.2-.4 4.4-.5 6.6 2.6.7 5.4 1 7.8 2.4 3.8 3.4 4.2 8.9 6.7 13 1.8 3.6 4.5 6.8 5.7 10.6l-1-.4c-4.8-1.1-7-5.8-8.6-10-3.3.2-6.5 1.4-8.7 3.9 2.7.3 5.4.5 8.1.7-3 .8-6 1.5-9 2.3 1.3 2.7 2.2 6 5.1 7.4 3.8-.1 7.4-2.4 11.3-1.7 1.7 3.9 2.1 8.7 5.6 11.5 8.3 8.2 16.4 16.9 21.6 27.5-3.5 3.6-7.9 6.1-12 8.8 2.2 4.3 5.4 7.9 8.4 11.6 3 3.9 7 7.2 8.8 12-5.4 2.8-11.5 3.3-17.2 5.2-4.2 1.1-5.3 6.7-9.7 7.3-7 1.4-14.2 0-21 .7-2.4.3-4.6 1.3-6.9 1.7-5.9-.6-11.7-3.5-17.7-2.4-4.6.7-9.2.6-13.7 1.4-10.6 1.4-21-2.1-31.6-.5-6 1.1-12.2 1-18.2.1-6.9-.9-14 .5-20.9-1.2-.3-5.6 3.6-10.2 4.5-15.6.7-3.8 2.8-7 4.5-10.3 1.7-3.2.2-6.7-.3-9.9-.7-3.8.3-7.5.7-11.2.4-4.2-1.6-8.1-2.4-12.2-1.6-6.6.5-13.3.5-19.9.3-11.6 7.7-21.7 7.2-33 1.3-5.2 1.8-10.4 2.1-15.8 2.4-6.8 1.7-14 1.6-21.3-5-3.3-9.5-7.7-12-13.3-3.9-6.4-5.7-13.9-5.7-21.4.5-4 .4-8.4 2.8-12 2.8-4.7 7.7-7.6 11.7-11.1 4.3-3.7 8.7-7.2 12.7-11-2.2-4-3.8-8.3-5.4-12.5-4.7-6.3-7.8-13.5-12.3-19.9-4.9 1.3-9.7 2.9-13.7 6.1-2.7-7.9-7.5-15.7-5.7-24.3 1-2.1 3.6-2.3 5.5-3 2.7-.7 5-2 7.4-3.4-1.4-3.9-3-7.9-3.1-12.1.3-11.6-1.9-23-2-34.7-1-2-2.5-3.7-3.9-5.6 3.1-6.3.6-13.6 3.2-20 2.1-3.4 5.7-6.8 10-6.3 4.9.3 8.3 4.3 12.5 6.3 6.7 0 13.4-.9 20 .3 3.7.7 7.4-.9 11-.2 6.1 1.2 12.3.3 18.4.8 8.8 1.8 16.9 5.9 25.4 8.4 5 1.6 9.8 3.9 14.8 5.6 2.6-3.7 4.6-7.8 6-12 2.2-5.9 8-9.4 14-10.4m.8 5.9c.7 1.1 1.4 2.2 2.2 3.4.4-1.5.9-3 1.3-4.6-1.2.4-2.3.8-3.4 1.2m5.4-.9c-.5 1.6 0 2.2 1.7 1.7.5-1.6 0-2.2-1.7-1.7m4.3 1.5c-1.5 1.3.7 3.6 2.1 2.2 1.5-1.3-.8-3.6-2.1-2.2m-18.4 1c-.4 1.6-.8 3.2-1.2 4.8 2.1-.8 4-1.9 5.8-3.3-1.5-.5-3.1-1-4.6-1.5m-119 12.3c3.9 7.3 12.4 9.6 19.7 11.8.4-4.1-.3-8.2-2.2-11.9-2.1-4.4-4.3-10-9.6-11.2-6-2.2-11.6 6.4-7.9 11.3m140-11.1c.6 1.1 1.1 2.1 1.7 3.2.7 0 2.1.1 2.7.1 0-.8.1-2.3.1-3-1.5-.1-3-.2-4.5-.3m-117 3.3c1.2 1.4 2.3 2.9 4 3.4 5.7 2 11.7 2.6 17.6 3.2 7.7.6 14.9 3.2 22.5 4.5 3.9.6 7.4 2.9 11.3 3.7 3.3-1.8 5.4-5.2 6.7-8.6-13.7-6-29-7.2-43.7-5.5-6.2.7-12.2-1.2-18.4-.7m111-1c-1 5.7-4.6 10.2-7.3 15 1.1.1 3.2.3 4.2.3 3.7-3.5 7.3-7 10.8-10.8-2.1-2.3-4.7-4.1-7.8-4.7m-6.6 3.4c-.2.6-.7 1.8-.9 2.4.8 0 2.4 0 3.2 0 0-.8 0-2.4 0-3.2-.6.2-1.8.7-2.4.9m-3.5 1.5c-.5 1.4 0 1.9 1.4 1.4.5-1.4 0-1.9-1.4-1.4m-8.8.9c-1.9.4-1.1 3.5.8 3 1.9-.4 1.1-3.6-.8-3m-89 3.3c.4 2.6.9 5.2 1.5 7.8 5.9 2.1 11.9 4.5 18.3 4.4 1.2-2.7 2.4-5.3 3.7-8-7.7-1.9-15.6-3.2-23.4-4.3m60.7 8.6c.5 2.1 2.4 3.5 3.8 5.2 2.8-2.1 5.8-3.9 8.8-5.8 1.1-.8 2.5-1.5 2.5-3-2.7-1.9-5.8-3.2-8.8-4.6-2.4 2.4-5.3 4.7-6.2 8.2m30.7-6.6c.3 1.3.7 2.6 1.1 3.9 1.2.4 2.5.7 3.8 1-1-2.2-2.7-3.9-4.9-4.9m30.5.9c-1 3.1-2 6.2-3.1 9.2.9.1 1.8.2 2.8.2 1.6-1.4 1.8-3.7 2.5-5.6 2.7-.3 5.3-1.1 7.3-3-3.2-.4-6.3-.6-9.5-.9m10.1.1c-1.4 1.3.8 3.7 2.1 2.2 1.5-1.3-.8-3.6-2.1-2.2m-48 2.9c.4 1.8.8 3.6 1.5 5.2 1.8 2.1 4.4 3.3 6.7 4.7 1-.4 2-.8 3-1.2-1.1-2-2.2-3.9-3.3-5.9-1.4.1-2.8.2-4.1.4-.1-2-.3-3.9-.4-5.9-1.1.9-2.3 1.8-3.4 2.7m-56 1.4c-.7 3.3-.5 6.8-2.5 9.6-2.5 4-3.9 8.5-4.3 13 3-3.2 6-6.7 7-11.1 1.1-4.6 2.9-9 4.3-13.6-1.5.6-3.1 1.2-4.5 2m87 .6c-1.8.9-2 3.1-2.8 4.8 2-.1 3.9-.3 5.9-.5.2-1.3.5-2.5.7-3.8-1.3-.1-2.5-.8-3.8-.5m10.7 1.8c0 .9.1 2.6.1 3.4 1.9-.9 3.7-1.9 5.3-3.2-.4-.6-1.2-1.9-1.5-2.5-1.3.8-2.6 1.5-3.8 2.3m-88-2c-1 3.6-1.7 7.3-2.3 11 1.9.5 3.9 1 5.8 1.5 2.3-3.2 3.9-6.9 4.6-10.8-2.7-.6-5.4-1.1-8.2-1.6m104 1.8c.9 1.4 1.8 2.8 2.9 4 1.5 0 2.9-.5 4.4-.8-.9-1.4-1.8-2.8-3-4-1.5.1-2.9.5-4.3.8m-70 8.4c-.4 3.3 2.5 5.5 4.7 7.5.3-2.4-.1-5.2 1.6-7.1 2.2-2.7 4-5.6 4.7-9-4.8 1.1-8.4 4.7-11 8.7m36-8.2c.2 3.3 3-1.5 0 0m-129 15.8c4.1 3 9 4.6 14 5.3 2-4.4 2.8-9.2 3.3-14-3.5-1.7-7.2-3.1-11-4.3-3.7 3.5-5.9 8-6.3 13m25.7-12.9c1.6 1.2 3.3 2.3 5 3.4.5-.7 1.4-2 1.9-2.7-2.3-.3-4.6-.5-6.9-.7m45.5.1c-1.7 2.9-3 6-3.3 9.4 4-1.5 5.8-5.5 6.6-9.4-.8 0-2.5 0-3.3 0m88 .2c-1.5 1 .2 3.5 1.6 2.4 1.5-1-.2-3.5-1.6-2.4m-79.9.9c-1.1.7-2.2 1.3-3.2 2 0 1.2 0 2.3.1 3.5 1.3.3 2.5.6 3.8.8.3.3.9.9 1.3 1.2-3 1.4-6.3.7-9.5 1.4.9 2.3 3 3.7 5 5 3.1-2 7.4-2.1 10.2-4.5.7-4.6-4.6-6.9-7.6-9.3m50.6 1c-.2 1.8-.4 3.5-.6 5.3 2.9-.9 6-1 9-1.6 2.1-.4 1.5-2.8 1.4-4.3-3.2 1-6.5 1.1-9.8.6m10.6 4c3 .1 5.7-1 7-3.7-.7-.5-2.1-1.4-2.8-1.9-1.5 1.8-3 3.6-4.2 5.6m30.6-5.2c-.4 1.5-.8 3-1.2 4.5 2.4-.5 4.1-2 4.6-4.4-.9 0-2.5-.1-3.4-.1m-133 1.8c0 .9 0 2.5 0 3.4 1.4-.4 2.9-.8 4.3-1.3-.4-.5-1.3-1.4-1.7-1.9-.7-.1-2-.2-2.6-.3m80 .3c-1.8 1.3-.5 3.5-.5 5.2 1.2-.9 2.4-1.8 3.6-2.6-.9-1-1.3-3-3.1-2.6m-94 .7c-.6 2.4-.7 4.9-.9 7.4 1.1-.5 2.3-1 3.4-1.5 3.5.7 7 1.5 10.1 3.2-3.7 1.7-7.7-.2-11.5-.6 0 .7-.1 2-.1 2.7 3.4 1.2 7 2.1 10.6 2.6 1.9-2.3 3.9-4.7 5.8-7-5.1-4-11.5-5.3-17.6-6.8m77 6.4c1.7.4 3.3 1 5 1.2 2.4-.8 4.6-2.2 6.9-3.4-2-1.8-3.7-5.1-6.8-4.5-2.8 1.1-4.3 4-5.1 6.7m48.7-.5c-2.8 2.4-6.2 4.1-8.4 7.1 1.7.5 3.3 1 5 1.4 1.2-2.1 2.4-4.2 3.8-6.3 1.3 2.4 2.3 5 4.1 7.1 1.6 1 3.6 1.2 5.5 1.7.1-1.2.2-2.3.3-3.5-1.8-1-3.6-1.9-5.4-2.8 1.6-3.5 3.4-7.3 1.4-11-2.2 2-4 4.3-6.2 6.3m11-4.4c1 7.2 4.9 13.8 10.7 18 3.3 2.1 6.9 3.7 9.8 6.2 3.7 3.2 7.2 6.6 11 9.7 1.4-1.6 2.8-3.3 4.2-5-1.5-.5-3.1-.9-4.6-1.4-1.1-2.1-2.4-4.2-4.3-5.6-3.5-2.9-6.9-6-11.3-7.4-1.6-2.7-3.9-4.9-6-7.2-2.2-2.8-3.8-6-6.1-8.8-1.1.4-2.3.9-3.4 1.3m-36.8 2.7c-.4 1-.9 2-1.3 3 2.1.9 4.1 1.7 6.2 2.5.4-1.4.9-2.8 1.3-4.2-2.1-.4-4.1-.8-6.2-1.3m10.8.8c-1.9 1.1-1.6 3.7-2.1 5.6 2.9-1 5.4-2.7 6.9-5.4-1.6-.2-3.3-1.3-4.8-.2m-79-.3c-.1.9-.2 2.7-.3 3.6 2.2-.1 4.4-.2 6.6-.4-2-1.3-4.2-2.3-6.4-3.3m12.9 4c0 .9 0 2.8 0 3.7 1.5-.1 2.9-.1 4.4-.2-1-1.8-2.6-2.8-4.4-3.5m30.9 4.3c.8 2.5 1.6 5 2.9 7.2 6.7 11.6 11.2 24.6 11.5 38-.1 3.8 1.3 7.3 1.9 11 .6 11.6.1 23.4-3 34.6-1 3-3.3 5.3-5.3 7.7 8.5 7.2 20 7.8 30 10.7 4 1.2 7.8-1.6 10.9-3.8 3.5-3.6 7-7.3 9.4-11.8.7-3.4-1.8-6.7-1-10.1.7-2.8 2.2-5.3 2.9-8 1.1-3.3.1-6.8-.5-10-3.3-4.5-9.5-5.1-13-9.4-5-5.9-11.2-11-14.3-18.5-1.9-4.7-5.2-9-5.8-14-1-4.6-.1-9.4-.9-14-1.4-4.9-5.2-8.7-7.3-13.3-6.3.7-12.6 2.2-18.7 3.9m-10.6-2.9c-1 1.8-2 3.5-2.9 5.3-1.9.1-3.9.2-5.8.6-1 1.4-1.3 3.2-1.8 4.9-2.9.5-6.3.4-8.3 3-1.9 2.4-4.7 3.6-7.3 4.9-3.2 1.6-4.1 6-7.7 7.1-2.4.8-4.6 2-6.3 3.8-2.4 2.7-6.2 3-9 4.8-.8 1.2-1.2 2.7-1.8 4 3.3-1 6.5-2.3 9.8-3.3-.2 4.2-4.9 4.9-8.3 4.7-3.9-.3-7.7.5-11.2 2.3 0 .8.1 2.5.1 3.4 2.8-.7 5.7-1.4 8.5-2-.9 1.4-1.4 3.4-3.1 4-4.1-.1-8-1.8-12.2-.9-2.8.5-3.8 3.6-5 5.8-2.3.5-4.6 1-6.9 1.7 1.8 2.3 4 4.2 6.4 5.8 1.6-1.1 3-2.9 5.1-2.6 1.8-.1 3.9.5 5.5-.8 2.4-1.5 2.7-4.5 3.7-7 1.1 1.1 2.4 3.2 4.2 1.8 3.5-1.3 4.5-5.2 5.5-8.4 2.7.8 5.7.9 8.1-.9 1.9-.9 1.3-3.3 1.6-5 2.7.2 5.7.3 8-1.5 2.3-1.4 2.6-4.2 3.4-6.5 2.3-.6 4.8-.9 6.6-2.5 1.2-1.5 1.3-3.6 1.8-5.4 2.2.6 4.5 2 6.7.9 2.7-1 3.7-3.8 5-6.2 1.8 0 4 1 5.3-.6 2.5-2.9 4.3-6.3 7.8-8.3-1.7-.3-3.3-.7-4.9-1 1-1.7 2.1-3.4 3-5.2-1.3-.4-2.5-.8-3.8-1.1m-36.6.4c-2.5 4.8-4.1 9.9-6.1 14.9 2.4 1.5 4.9 4.5 8 2.9 6.6-3.1 12.4-7.8 17.3-13.2-6-2.8-12.6-4-19-4.6m74 1c-1.4.9.1 3.2 1.4 2.1 1.4-.9-.1-3.2-1.4-2.1m-128 2.5c.6 1 1.2 2 1.9 3 1.7.3 3.4.2 5 .3-1.7-2.2-4.2-3.3-7-3.2m23.5-.3c.4.7 1.2 2.2 1.6 2.9 3.6 2.3 7.7 3.6 11.6 5.4.6-1.3 1.2-2.7 1.7-4-5-1.4-9.9-2.9-14.9-4.3m17.9.6c-.5 3.1-.7 6.3 0 9.5 3.3-2.2 3.4-6 3.3-9.6-.8 0-2.4.1-3.3.2m100 1.5c0 .9.1 2.6.1 3.5 1.9.3 3.7.6 5.6.8 1.4 1.9 2.9 3.7 4.5 5.5.8-3.5.7-7 .7-10.5-1.5.7-3 1.4-4.5 2.1-2-1.1-4.1-1.9-6.4-1.4m-130 2.3c1.1 2.5 3.1 4.3 5.9 4.5-.3-1.3-.6-2.5-1.1-3.7-1.4-.8-3.2-.6-4.8-.8m144 .4c0 1.6.1 3.2.1 4.9 2.4.1 4.8 0 7.2-.2 1 1.8 1.9 3.5 2.9 5.2 1.1-1.2 2.3-2.4 3.4-3.6-.6 2-1.2 3.9-1.8 5.9 2.8.3 5.7.5 8.5.7-2.3-5.3-7.6-8-11-12.4-3.1 0-6.2-.2-9.3-.4m-133 2.6c2 4.8 7.5 5.8 12 6.3-2-4.8-7.3-6.1-12-6.3m110 1.9c-.8 1.3-.4 3-.5 4.5 1.2.1 2.4.2 3.6.3-.8 1.5-2.3 3-2.1 4.9.6 7 4.6 13 7.8 19 2.4 3.9 3.9 8.5 7.6 11.4 3.2 2.8 7.3 4.1 11.4 5.2-3.1-7.1-10.3-11.3-13-18.7-4.9-9.1-7.8-19-11.2-28.9-1.2.7-2.5 1.2-3.6 2.2m9.6-.6c.7 5.3 2.9 10.2 5.3 14.9 1.2-.1 2.3-.1 3.5-.2.4-2.2.8-4.4.8-6.7-1.4-.6-2.9-1.1-4.3-1.7.1-1.7.3-3.5.4-5.2-1.2-.8-2.4-1.7-3.7-2.5-.5.3-1.4 1-1.9 1.4m-50 2.9c1.4 5.5 2.6 11.3 5.5 16.3 3.3 5.8 2.8 12.8 5.2 18.9 2 4.9 4 10.5 9.6 12.2.9-3.6-.2-7.1-.8-10.6-.1-3.9.9-7.9-.4-11.7-1.1-6.2-4.8-11.2-7.6-16.6-2-3.6-1.5-8.6-4.9-11.3-2.5-.2-4.5 1.8-6.6 3m-90-1.7c-.3 5.5.4 10.9 2.1 16 4.4 0 8.7.4 13 0-.3-3.9-.3-8.2-2.6-11.6-3.9-2.3-8.4-3.1-12.7-4.5m150 4.6c2.8.4 6 1.4 8.7-.1 0-.4.1-1.3.1-1.8-3-2-7.5-2-8.8 1.9m-110-.4c-.4 1.3-.8 2.7-1.2 4 2.1.8 4.2 1.5 6.3 2.3.3-.9.7-1.9 1-2.8-2-1.2-4.1-2.4-6.1-3.5m41.6 7.7c2.2-.5 4.8-.6 6.3-2.5-.2-1.5-.5-2.9-.8-4.3-2.9 1.3-5 3.7-5.5 6.9m-62.7-5.3c.8 5.4.9 11.4 4.9 15.6.2-5.3-.5-10.5-1.7-15.7-.8 0-2.4.1-3.2.1m141 .2c-.1 2.9-.2 5.8-.3 8.8.8 0 2.5 0 3.4.1.6-3.1.6-6.2.1-9.3-.8.1-2.5.3-3.3.4m-8 2.6c.4.7 1.3 2 1.8 2.6.9 0 2.7 0 3.6.1 0-.9 0-2.7 0-3.7-.7-.4-2-1.3-2.7-1.7-.9.9-1.8 1.8-2.7 2.7m22.7-2.4c-.5 3.5-.1 7 .5 10.5 1.2-.1 2.4-.2 3.6-.3.3-2.1.9-4.2.6-6.3-.4-2.3-3-3-4.7-4m19.9 8c1.2-.7 2.5-1.3 3.6-2.2.5-1.5.6-3.2.8-4.8-3.1 1-4 4.1-4.4 7m-168-6.3c-.3 4.1.7 8 2.4 11.8 4.1-.6 7.2-3.3 9-7-3.6-2-7.4-3.7-11.4-4.8m140 2.7c-.1.9-.2 2.7-.2 3.5 2.1 1.1 4.3.8 6.4.1-.8-1.7-1.7-3.4-2.6-5-1.2.5-2.4 1-3.6 1.5m15.6-.3c-.4 1.2-.9 2.4-1.3 3.6 2.1.5 4.2 1 6.4 1.3-.3-1.3-.6-2.6-1-3.9-1.3-.4-2.7-.7-4.1-1m17.7 2.3c.1.7.2 2 .3 2.6 5.6 1.8 11.3 4.4 17.4 3.7-1.7-2.3-3.8-4.3-6.5-5.4-3.5-1.6-7.9-4.2-11.2-.9m-130 1.4c-5.1 2.4-8.8 7.4-9.7 13 1.9.9 3.9 1.8 5.8 2.8-.8 3.7 2.7 5.5 4.1 8.3.3 2.4-.9 4.7-1.4 7 2.2-1.3 4.4-2.6 6.6-3.9-.7-.9-1.4-1.8-2.1-2.7.8-1.3 1.5-2.6 2.3-3.9-4.2-1.2-6.6-5.1-7.6-9 .2-1.3.8-2.6 1.3-3.8-.7-1.1-1.5-2.1-2.2-3.2 3.3-.9 6.6-2.2 10-2.1 5.2 3 6.1 9.3 7.8 14.5 2.2-2 4.8-3.8 6.2-6.5-.1-4.3-2.4-8.1-3.7-12.2-5.8.5-11.9-.1-17.5 1.8m79 .2c.5 2.9 1.1 5.8 1.6 8.7 3.4.6 6.7 1.3 10 2 .1.6.4 1.8.5 2.5-2.3-.2-4.5-.4-6.8-.5 1.1 1.8 2.3 3.5 3.5 5.2 1.8-1.3 3.7-2.7 5.3-4.3 1.9-1.8 2.1-5.2.3-7.2-4.4-.4-9.4.9-12.8-2.7 2.8-.1 5.6-.1 8.3-.1 0-.8 0-2.4-.1-3.2-3.3-.7-6.7-1-10-.4m75 1.2c-.1 1.7-.2 3.3-.2 5 1.8-.4 3.7-.7 5.5-1.1 0-.7 0-2 0-2.6-1.8-.4-3.5-.9-5.3-1.3m-60 .9c.1.8.2 2.3.2 3.1 4 1.3 8.1 2.2 12.4 2-2.6-4.4-8.2-4.2-12.6-5.1m16.9 1.1c0 .8.1 2.3.1 3 3.3 0 6.6 0 10 0 0-1.4 0-2.8 0-4.1-3.4.1-6.8.5-10 1.1m-166 4.3c1.6-.3 3.4.1 4.8-.8.5-1.2.8-2.4 1.1-3.7-2.8.3-4.8 2-5.9 4.5m180-4c.1 3.3 3-1.5 0 0m-188 1.2c-1.4.4-1.8 1.2-1.3 2.6 1.7 2.2 6.5 1.6 6-1.7-1.3-.9-3.1-1.7-4.7-.8m192-.6c-.4 1.4-.8 2.8-1.3 4.2 2.3.3 4.5.9 6.8.9.7-.8 1.4-1.6 2-2.5-2.5-1-5-1.8-7.6-2.6m-21.3 2.3c-.6 3.5-.7 7.1.2 10.6 1.4-1.5 3.3-2.8 3.7-4.9.2-1.8-.4-3.6-.7-5.4-.8-.1-2.4-.2-3.2-.3m-154 2.5c-1.5 1.3.8 3.7 2.1 2.2 1.5-1.3-.8-3.6-2.1-2.2m143-.5c-.1.8-.2 2.4-.3 3.2 3 1.2 6.3 2 9.5 1.1-2.2-3-5.8-4-9.3-4.4m-155 5.6c-1.5-.5-3-1-4.5-1.5-.9 3.8.6 7.5 4 9.5.4-1.7.9-3.4 1.3-5 1.4.8 2.9 1.5 4.3 2.3 1.6-1.3 3.3-2.6 4.5-4.3.7-1.9-.7-3.7-1.3-5.4-2.8 1.4-5.6 2.8-8.3 4.5m182-4.3c-.6 2.9-1.2 5.8-1.8 8.7.8.8 1.6 1.6 2.5 2.5 2.4-3.3 3.4-7.4 2.3-11.4-.8.1-2.3.2-3 .3m-102 3.2c-2.2 3.5-3.4 7.4-5 11-3.3 0-6.5.1-9.7.4 1 1.1 2.1 2.1 3.1 3.2l.8-.3c.7.5 2.1 1.6 2.8 2.2-1.7.3-2.8 1.8-4 2.8 2.5 1.8 5.5 3 8.7 2.8-.6-1.8-1.3-3.5-1.8-5.3 2.3.2 4.4 1.3 6.3 2.7 1.4-.6 2.8-1.1 4.1-2 .7-2.4 1.2-4.9 2.3-7.2-.3-1.3-.6-2.5-.9-3.8-1.4.9-2.8 1.8-4.1 2.6-.1-.4-.3-1.3-.4-1.7.1-3.8 2.1-7 3.7-10.3-2 .7-4.6.8-5.7 2.8m93-3c-.5 2-.9 3.9-1.4 5.9 1.8.6 3.5 1.1 5.3 1.7.6-2.4 1.1-4.9 1.4-7.4-1.8-.1-3.6-.1-5.3-.2m15.8 1.9c-2 1.8-1.9 4.6-1.7 7 3.2-1.8 6-4.3 8-7.4-2.1-.3-4.7-1.7-6.3.4m-210 3.1c-.1 3.8.8 7.5 2.3 10.9 3.8-1.5 7.5-3.5 11-5.6-.1-3.2-1.2-6.1-3.1-8.6-3.4 1-6.8 2.1-10.2 3.3m176-.6c1.4 4 5.8 4.3 9.2 5.7 3.6 1.4 6.7 4 10.5 4.9 1.7.2 4.5-1 3.8-3.1-2.6-1.5-5.6-2-8.4-2.8-5.2-1.1-9.5-5.2-15-4.7m47 3c.2 1.3.5 2.6.7 3.9 1.9.2 3.8.3 5.7.4-.1-1.3-.3-2.6-.6-3.8-1.1-2.4-3.9-.7-5.8-.5m-166 .2c-.5 4.1-3.1 7.5-5.3 10.9 2.6-1.6 5-4.2 8.3-4.1 3.1 1.4 5.7 3.7 7.6 6.5.7 2 .4 4.2.6 6.2 2.7-2.2 5-4.9 5.1-8.5-3-1.2-5.7-2.9-7.6-5.5-2.1-2.9-5.6-4-8.7-5.5m113 .2c-1.9.5-1.1 3.5.8 2.9 1.9-.4 1-3.6-.8-2.9m-79 .9c.1 3.3 3-1.5 0 0m129 .5c-1.2.8.1 2.9 1.3 1.9 1.2-.8-.2-2.8-1.3-1.9m-42.9 1.8c-1 1.2-2 2.5-2.9 3.7 3 4 6.1 8 9.4 11.8 1.4-.6 2.8-1.2 4.2-1.8-.8-6.2-5.6-10.6-10.7-13.7m21.5 8c3.8-1.1 7.4-3.4 7.7-7.7-4 .7-7.7 3.3-7.7 7.7m15.4-3.7c1 1.7 2 3.3 3 5-2.5-.4-5-1-7.4-1.8-2.7 3.5-2.2 8.4-5.9 11.3.4.5 1.3 1.6 1.7 2.2 1.5-1.9 2.9-3.8 4.5-5.6 2.4-2.8 6.7-2.9 8.9-5.9 1.6-1.9 3.7-4.9 1.2-6.9-2.1-2.1-4.6.1-6.1 1.8m8.6.8c1.5 0 3.2.8 4.4-.5-.5-1.3-1.1-2.6-1.6-3.8-.9 1.4-1.8 2.9-2.7 4.3m-147-.3c.2 3.3 3-1.6 0 0m114 .9c1.5 2.3 3.3 4.3 5.3 6.2 1.1-.5 2.1-1 3.2-1.5-.1-1.1-.1-2.2-.2-3.3-2.7-.5-5.5-1-8.3-1.4m-147 1.8c-.8 1.7-1.6 3.5-2.3 5.2 1.3 0 2.7-.1 4.1-.1.5-1.3.9-2.6 1.4-3.8-1-.4-2.1-.8-3.1-1.3m6.9.8c-1.1 3.1-3.2 6.9-.6 9.9 1.1 2.4 3.9 2 6.1 2.3 1.4 1.2 3 2 4.8 1.6-1.4-5.9-6.3-9.8-10.4-13.8m-18.9 5.8c-.6 2.1.9 3.9 1.9 5.6 2.5 4.1 5.9 7.5 9.5 10.6 3 2.6 5.9 5.5 9.5 7.4 6.3 3.2 12.7 7 19.9 7.3 1.4-2.6 3.5-5.1 3.6-8.1-.8-2.7-2.4-5-3.6-7.5 1.3-.1 2.5-.3 3.7-.6-.2.5-.7 1.6-.9 2.2 5.3-.4 6.8-5.9 8.7-10-2.2-.7-4.6-1-6.6-2.2-1-2 .7-4.2 1.1-6.2-1-.4-2-.9-3-1.3-1.3 2.3-2.6 4.7-2.5 7.4-.4 2 .4 4.7-1.5 6.1-3.4.1-6.9-.9-10.3-.6-2 1-3.5 2.6-5.1 4-4.4-3.2-9-6.2-12-10.8-1.9-2.9-4.3-5.3-7.2-7.2-1.7 1.2-3.5 2.3-4.9 3.8m50 2c2.8-.5 5-2.1 6.9-4.1-.7-.4-2-1.2-2.7-1.6-1.6 1.7-3.1 3.6-4.2 5.7m91-5.2c-.5 1.6 0 2.2 1.7 1.7.5-1.6 0-2.2-1.7-1.7m-64.9.9c-1.8.4-1.2 3.3.6 2.7 1.8-.4 1.2-3.3-.6-2.7m97 .1c-.5 1.6 0 2.2 1.7 1.7.5-1.6 0-2.2-1.7-1.7m-88 2c-.5 1.6 0 2.2 1.7 1.7.5-1.6 0-2.2-1.7-1.7m-30.5 4.6c.4.6 1.1 1.9 1.5 2.5 1.6-1.1 3.3-2.2 4.7-3.5-.2-1.3-1-2.3-1.6-3.4-1.5 1.5-3.1 3-4.6 4.5m106-4.3c-1.6 3.9 1 7.4 4.3 9.2.2-1.4 1-2.8.6-4.3-1-2.2-3.1-3.5-4.9-4.9m7 2.7c.8 1.3 1.6 2.6 2.6 3.8 1.5.4 2.4-.9 3.1-2-.3-1.5-.8-3-1.3-4.4-1.5.8-2.9 1.7-4.3 2.6m-134-1c-.5 1.6 0 2.2 1.7 1.7.5-1.6 0-2.2-1.7-1.7m156 5c2.5-.3 4.9-.7 7.4-1.1 0-1.5 0-2.9 0-4.4-3.3.5-7 1.6-7.4 5.5m-123-4.1c-.4 1.2-.8 2.4-1.2 3.7 1.7-.9 3.3-2 4.6-3.4-.8-.1-2.5-.2-3.4-.2m8.3.7c1.5 3.1 3.2 6 5.4 8.7-.2-3.1 1-7.3-2.2-9.2-1.1.1-2.1.3-3.2.5m124 1.6c-.1.7-.2 2-.2 2.7 1.4 0 2.9 0 4.3.1-.4-1.4-.7-2.9-1.1-4.3-1 .5-2 1-3 1.5m-114 1.4c-2.1 4.3-.2 9-.7 13.5-.4 2.8-.3 5.7.5 8.5-10.2-.3-20-2-30.4-1.6-.8 1.3-1.6 2.7-2.4 4 3.9 1.5 8.1 2 12.3 1.9 5-.1 9.8 1.5 14.7 1.3 4.2-.9 8.4-3.2 10.7-7 2.1-7 1.1-14.4 1.4-21.6-2-.1-4.4-.5-6.1.9m66-2.4c-.4 2.1-1.4 4.2-.9 6.4.7 1.4 1.7 2.6 2.7 3.8.8-1.8 1.8-3.6 2.1-5.6.5-2.5-2.5-3.3-3.9-4.6m-89 3.8c.2 3.3 3-1.6 0 0m155-.6c-.9 1.6-1.8 3.1-2.7 4.6 1.9 2.8 3.9 6.3 7.7 6.6 1.8-1.1 4.5-3 3.3-5.5-2.3-2.5-5.5-4-8.4-5.7m-149 5.5c-1.3 2.3-2 4.8-2.9 7.2 2.6 3.4 6.9 3.3 10.5 4.7 3.3-2 5-5.5 5.7-9.2-2.8 1.9-5.3 4.2-7.8 6.5-.1-1.5 0-3-.6-4.4-1.4-.1-2.8-.1-4.3-.2 2.2-2.5 4.5-5 6.7-7.6-2.5.9-5.1 1.6-7.4 3m133-2.4c-2 .5-2.3 2.9-3.1 4.5 1.4.3 2.9.7 4.4.8 2.8-.7 3.7-3.6 4.6-5.9-2 .1-4 .1-5.9.6m-146 8.9c3-2.2 5.3-5.1 6.8-8.5-2.8 2.3-8.2 4-6.8 8.5m19.7-6.2c1.2 1.2 2.4 2.3 3.6 3.5 0-.9.1-2.8.1-3.8-.9.1-2.8.2-3.7.3m84 8c3.7-.3 6.9-2.3 9-5.3-4.1-2.2-8.5 1-9 5.3m.1 10c6.1-1 10.5-5.6 14.8-9.6-1.2-1.5-2.4-2.9-3.6-4.4-5 3.5-8.7 8.5-11.2 13.9m-108-12.3c-2.4 1-.8 4.8 1.6 3.8 2.4-1 .8-4.7-1.6-3.8m4.6 3.5c2.8 1.2 5.8 1.8 8.8 2.4-1.5-2.2-3.2-4.1-5-6-1.4 1.1-3.3 1.8-3.8 3.7m132 3.2c2.6 3.7 5.8 7 9.2 10 3.5-1.9 7.1-4 9.2-7.6-3.3-3.5-6.6-6.8-10-10-2.8 2.5-5.5 5.1-8.3 7.6m41.9-2.9c2.2.6 4.4.8 6.7.6-.9-1.7-1.8-3.3-2.6-4.9-2.4.4-3.7 2-4 4.4m-21.5-2.1c.9 3.2 4.2 2.7 6.9 2.7-.6-1.5-1.2-2.9-2-4.3-1.8 0-3.5.5-4.9 1.5m-59 2.2c.4 1.4.8 2.9 1.3 4.4 2.3-1.4 4.3-3.2 5.5-5.5-2.3.3-4.5.7-6.8 1.1m78 1.1c.5 1.7 1.1 3.4 1.7 5 1.4-.4 2.8-.9 4.2-1.3-.1-.7-.1-2.2-.2-2.9-1.9-.3-3.8-.6-5.7-.8m-8.6 5c2.9.8 5.9 1.1 9 .9-.9-1.8-1.3-4.6-3.7-4.9-2.7-.7-3.9 2.3-5.3 4m-171-1.8c-1.3 1.2.8 3.3 2.1 2.1 1.3-1.2-.8-3.3-2.1-2.1m122 6c1.4-.4 3-.8 4.3-1.4.7-1.4 1-2.9 1.4-4.3-2.7 1-4.8 3-5.8 5.8m5.1 5c3.9-1.7 7-4.8 8.7-8.7-4.5.8-7.9 4.3-8.7 8.7m-162-6.5c1.2 5.6 2.2 11.2 1.7 16.9 3.6.4 5.5-3.2 7.8-5.4 2.2-2 1.3-5.3 1.5-7.9-3.3-2-6.8-4.2-10.9-3.6m203-.4c1 2.1 2.4 4.1 4 5.8 1.9-1.8 3.6-3.7 5.1-5.9-3-.1-6-.1-9 .2m-15 8.2c1.4 1.7 2.8 3.4 4.5 4.8.7-1.2 1.3-2.5 1.8-3.8 1.9 1.5 4.2 2.6 6.6 1.6-1.1-1.7-2.2-3.3-3.4-4.8 2.1 0 4.3-.1 6.4-.2-1-1.9-2.1-3.7-3.2-5.5-3.8 3.4-7.9 6.4-12.8 7.9m-37-4.3c-1.5 1.3.9 3.6 2.2 2.2 1.5-1.3-.8-3.6-2.2-2.2m-131 .7c0 1.4 0 2.8 0 4.2 3.3.4 6.6.7 9.9 1.1-.2 1.8-.3 3.6-.5 5.4-.5-1.4-.9-2.8-1.4-4.3-2.1-.3-4.1-.6-6.1-.8.4 3 .5 6.1 1.5 9 2.3 2.6 5.8 4.5 5.3 8.5-3 .8-6 1.6-9 2.2-.1-1.5-.2-2.9-.3-4.4-2.3.3-4.5.7-6.8 1.1-.3-.3-1-.8-1.4-1.1 2.7-1.1 5.3-2.5 7.6-4.4-3.9-.2-8.4.3-10.7 3.9 1.5 3.8 3.2 7.6 2.9 11.8 2.1-1.8 4.2-4.1 7.1-4.4 3-.6 5.2 1.8 7.5 3.3.4-1.6.8-3.2 1.2-4.7 2.4 1.3 5 2.4 7.7 1.2-1.2-1.3-2.5-2.5-3.7-3.8 2.9-5.5 3-11.8 2.9-17.9.6 1.2 1.3 2.4 1.9 3.7 1.4 0 2.7.1 4.1.1-1.6 2.6-3.3 5.2-4.8 7.8 3.7 2.7 6.7 6.2 9.9 9.4-1.8.5-3.6 1-5.4 1.5 1.1 1 1.8 3 3.6 2.7 1.8-.6 3.3-1.9 4.9-2.9-.8 4-1.3 8-1.4 12-.6-.1-1.7-.2-2.2-.3-.6-2.3-1.2-4.5-1.8-6.8-1-.1-2-.1-3.1-.1 0 1.6 0 3.2 0 4.8-1.1.2-2.1.5-3.2.7.5-1.3 1.1-2.6 1.6-3.9-1.4-.2-2.9-.4-4.3-.6-.7 4.5-1.7 8.9-3.5 13 3-.8 6-1.5 9-2.1 0 2.6-.1 5.3-.3 7.9-1-1.6-1.9-3.2-2.7-4.9-1.8.2-3.6.5-5.4.8 1.5 1.6 3 3.2 4.5 4.8-1.9.1-4.2.7-5.8-.7-1.9-1.8-2.6-4.5-3.7-6.8-1.9.1-3.9.3-5.8.4 1.7 1.8 3.5 3.6 5.2 5.4-2.3-.6-4.6-1.4-6.8-2.3.6-1.8 1.1-3.5 1.7-5.3-1.3-.1-2.7-.2-4-.3-.5 2.2-1.6 4.5-.6 6.7 2.3 3.3 5.9 5.4 8.4 8.6 1.6 2.2 2 5 2.5 7.6-1.2-2.4-2.1-4.9-2.9-7.4-1.4-.1-2.7-.3-4.1-.4-.7 3.5-1.2 7-.6 10.6 2.9-.8 6-.7 8.9.2.9-2.1 1.8-4.3 2.7-6.3.4 1.9.8 3.8 1.1 5.8 3-.4 6.1-.6 8.9-1.8 2-1.3 3-3.4 4.2-5.4-1.3.7-2.7 1.5-4 2.3-3.5-1.7-7.3-2.5-11-2.8-.8-1.9-1.6-3.7-2.4-5.6 1.6.4 3.2 1.2 4.9 1.2 1.7-.4 3.2-1.4 4.7-2.2 1.2.6 2.3 1.2 3.5 1.8 1.9-3.5 2.8-7.5 2.7-11.5 1.7 3.1 3.9 6.6 2.9 10.3-1.8 1.7-4.4 2.1-6.6 3-.1.7-.2 2-.3 2.6 3.2-1.2 6.4-2.3 9.4-3.9 1.8-3.1.9-6.8-.2-10 .6-.8 1.2-1.7 1.8-2.6-.8-3.6-1.5-7.2-1.9-10.8 1.5.1 2.9.2 4.4.3 0 1.6 0 3.3.1 4.9 2.2-.4 5.1.2 6.7-1.9 3.2-3.3 5.2-7.6 5.9-12.2-.9-.4-1.9-.9-2.8-1.4-.9 2.5-1.8 5-2.7 7.4-2.2-1.6-4.5-3.2-7-4.4 1.4 2.2 3 4.3 4.7 6.3-1.9-.8-3.9-1.6-5.8-2.3.1-1.8.2-3.6.3-5.4-2.1-.2-4.2-.4-6.3-.6-.8-1.9-1.3-3.9-2.7-5.5-1.7-1.4-3.7-2.4-5.5-3.6 2.4.6 4.9 1.7 7.4 1 1.1-2.1-1.2-3.1-2.6-4.1 1.1-2.8 2.2-5.6 3.1-8.5-1.9.5-3.8 1.1-5.7 1.7-6.2-2.7-12.8-4.7-19.5-5.6m33.8 5.8c-1.8-.6-3.5-1.1-5.3-1.6-3.6 4.5-2.7 10.3-2.9 15.7 1-.3 2.1-.6 3.1-.9.3-2.9.7-5.8 1.1-8.7 3.3-.7 6.8-1.2 9.9-2.7.8-1.1 1.3-2.3 1.9-3.4-2.9-1.6-5.5 0-7.8 1.7m7.6 2.5c2.1-.6 4-1.6 5.1-3.4-2.1.6-4 1.5-5.1 3.4m97-3.1c-1.3.7-1.3 1.3 0 2 1.3-.7 1.3-1.3 0-2m-7.2 1.7c-1 .9-1.7 2.1-2.5 3.2 2.9.2 6.1.2 7.2-3.1-1.5-.1-3.2-.6-4.7-.1m12.5 4.2c1.5-.7 3-1.4 4.5-2.2 0-.9-.1-2.6-.1-3.4-2.3 1.2-3.7 3.2-4.4 5.6m-169-.9c1 .9 2.1 1.7 3.3 2.3-.4-1.7-.8-3.4-1.3-5.1-.7.9-1.4 1.8-2 2.8m131 2.5c1.2.6 2.5 1.2 3.8 1.8.4-2.3.7-4.5.9-6.8-1.7 1.6-3.2 3.3-4.7 5m-109-4.2c0 2.4 1.3 4.2 3.5 5.1.1-2.4-1.3-4.1-3.5-5.1m34 5.1c-.1.7-.2 2-.3 2.7 2.5.4 5 .6 7.6.6.1-1.9.3-3.8.4-5.7-2.5.9-5.1 1.7-7.7 2.4m-65-1.6c0 2.8 0 5.6.1 8.4 1.6-.4 3.5-.4 4.7-1.7-.1-2.2-.6-4.4-1-6.6-1.3-.1-2.5-.1-3.8-.2m75 1.8c-.5 1.4-.8 2.8-1.1 4.2.9 0 2.6.1 3.5.2.6-2.2 1.2-4.5 1.8-6.7-1.4.7-2.9 1.3-4.2 2.4m89-.7c.4 1.4.7 2.7 1.1 4.1 1-.5 1.9-1 2.9-1.5.1-.7.2-2 .3-2.6-1.4 0-2.9 0-4.3 0m-59 2.1c-1.2 1.5 1.4 3.1 2.4 1.6 1.2-1.5-1.4-3.1-2.4-1.6m-19 1.1c-1.5 1 .2 3.5 1.6 2.4 1.5-1-.2-3.5-1.6-2.4m26-.2c.2 3.3 3-1.6 0 0m31.4 4.4c2.2-.8 3.5-2.7 3.6-5-2.3.8-3.4 2.7-3.6 5m-75.8-1.5c.7 2.6 1.5 5.2 2.4 7.7 3.7-1.7 2.4-5.8 1.8-8.9-1.4.4-2.8.8-4.2 1.2m-32.8 3.3c2.4 0 4.8-.2 7.2-.3-.1-.8-.3-2.4-.3-3.2-3.1-1-5.7.6-6.8 3.5m57-4.1c-.1 4-.1 7.9 0 11.9 6.5 2.4 12.7 5.5 19.4 7.2 8.4 3.9 20 1.8 25-6.3-1.4-3.4-4.1-6-7.1-8-2.8-1.8-6 .4-8.8 1.2-5-2-10.7-1-15.8-2.7-4.2-1.3-8.4-2.6-12.7-3.2m52.8 3c1.1 1.2 2.3 2.3 3.5 3.4.5-1.7 1-3.3 1.5-5-1.7.5-3.3 1-5 1.5m7 .8c.1 3.3 3-1.5 0 0m9.1.4c.1 2.9.1 5.8.3 8.7 3.3-1.8 4.9-5.2 6.2-8.5-2.2-.1-4.4-.1-6.6-.2m-154 1.5c0 .8 0 2.3 0 3 .8 0 2.3 0 3 0 0-.8 0-2.3 0-3-.8 0-2.3 0-3 0m44-.3c-.8 2-1.7 4-2.5 6-4.2 1.2-8.5 2.1-12.5 3.8-2.1 2 1.5 3 3.1 2.9 4.7.7 8.4-2.7 12-5.1 2.2-1.2 2.2-4 2.8-6.1-1-.5-2-1-3-1.5m-33.5 2.1c.5 1 1 2 1.5 3 1.3.1 2.5.2 3.8.3-.5-1.4-.9-2.9-1.4-4.3-1.3.4-2.6.7-3.9 1.1m149 3.3c-.5 1.6.1 2.2 1.7 1.7.5-1.6-.1-2.2-1.7-1.7m-138 3c-3.4 1.4-7 1.2-10.6 1.3.2 1.6.4 3.2.8 4.8 1.5 1.3 3.2 2.3 4.8 3.4-2.5 2.6-5.2 5.1-6.9 8.3.8-.1 2.3-.3 3-.3.7-1.1 1.4-2.3 2.1-3.4 1.5 2.9 2.9 5.9 4.6 8.7 1.2 2.4 4.1 3.1 6.3 4.1 0-4.1-4-5.6-6.1-8.4-2.3-3.6-.5-7.7.6-11.4-2.1-1.3-4.2-2.6-6.3-3.9 1.8.5 3.6 1 5.5 1.5 1 1.8 1.9 3.5 2.9 5.3 3.3.5 6.6.7 10 .7 0-1.6.1-3.1.1-4.7-2.6.5-5.3 1-7.9 1.2 3.1-2.5 3.9-6.3 3.9-10-2.3.9-4.5 1.9-6.7 2.9m112 11.7c3.6 2.6 7.6 4.7 11.9 5.9 1.3-6.5 1.5-13 2.3-19.7-5.1 4.2-9.6 9-14.2 13.8m-138-10.6c-.7 2.9-1.4 5.8-2.1 8.6.7.5 2.2 1.5 2.9 2 2.9-2.8 3.4-6.6 3.3-10.5-1 0-3.1-.1-4.1-.1m72 4.9c-.3 3.1-.7 6.1-1.3 9.2-.8 3.8-.1 7.7-.4 11.5-1.2-1.4-2.8-2.6-3.5-4.4.5-4.4 1.8-8.7 2.7-13-1.8-.3-3.6-.5-5.3-.7 1.4 7.4.2 14.9-2 21.9 1.8-.8 3.6-2 5.6-2.3 2.1.3 4.1 1.1 6.1 1.7.6-4.8-.5-9.7.5-14.5.5-3.2.6-6.4.7-9.7-.7.1-2.2.3-3 .4m59-.2c.2 3.3 3-1.6 0 0m-91 1.9c-1.9.4-1.1 3.5.8 3 1.9-.4 1.1-3.6-.8-3m-25 1.3c-1.5 1 .2 3.5 1.6 2.4 1.5-1-.2-3.5-1.6-2.4m89-.1c-.2.8-.5 2.3-.6 3.1 2.6-.5 5.1-1 7.6-1.7-2.3-.8-4.6-1.2-7-1.4m16.6 1.9c-1.3.7-1.3 1.4 0 2 1.3-.7 1.3-1.4 0-2m-101 9.4c-.5 1.2-1.1 2.4-1.6 3.6 1.6.3 3.2.7 4.8 1-1-1.6-2.1-3.1-3.2-4.6m-5.5 6.2c-.6 2-1.3 5.6 1.9 5.3.6-1.3 1.2-2.6 1.8-3.9-1.2-.5-2.4-1-3.6-1.4m8.5 1.7c1.1 1 2.2 2 3.5 2.9.6-1.5 1.2-3.1 1.8-4.7-1.8.6-3.5 1.1-5.2 1.8m-14.6 3.3c-.2.6-.7 1.8-.9 2.4.8 0 2.4 0 3.2 0 0-.8 0-2.4 0-3.2-.6.2-1.8.7-2.4.9m10.5 2.7c-1.7-.4-3.3-.9-4.9-1.3-.4.5-1.1 1.5-1.5 2 1.7.7 3.5 1.6 5.3 2 2.1 0 4.1-1.1 6-1.8-.5-1.2-1-2.3-1.6-3.5-1.1.9-2.3 1.8-3.4 2.7m5.3.3c1.3.5 2.6 1 3.9 1.5-.5-1.4-1.1-2.8-1.6-4.2-.8.9-1.5 1.8-2.3 2.7m-22-1.6c.6.9 1.3 1.8 2 2.7 1.8.6 2.2-1.8 3.2-2.7-1.7 0-3.4 0-5.2 0m57 0c.7 2.3 2.3 4.2 4.3 5.4.1-1.9.2-3.8.3-5.7-1.5.1-3.1.1-4.6.2m9.7-.2c-1.1 1.8-2.3 3.5-3.4 5.3 2.4.1 4.9 0 7.3-.1 0-.8-.1-2.3-.2-3-1.3-.7-2.5-1.4-3.8-2.1m-59 3.3c-1.5 3 3.3.1 0 0m-7 7.3c-.6.2-1.8.6-2.5.8 1.4 2.7 3.6 4.9 5.9 6.8 1.7-1 3.5-1.8 5.2-2.6.4 3.7 2.4 7.3 6.4 7.8 2.5-.7 4.8-2.1 6.5-4 .3-1.9.2-3.9.1-5.8-2.7-.7-5.4-1.3-8.2-1.7.8 2.1 2 4 3.5 5.7 0 .8 0 2.3 0 3-3.1-2-5.2-5.1-7.2-8.1-3.4.5-6.9 0-9.8-1.9m58.9-.2c-.4 1.4-.9 2.8-1 4.3 1.3.9 2.6 1.7 3.9 2.4-1.5 1.8-3.3 3.4-3.9 5.8 1.2 1.8 3.4 1 4.7-.2 1.6-1.3 3.8-3 3.2-5.4-1-3.3-3.7-5.8-6.9-6.9m-37.5 2.8c1.3 1.5 2.8 2.7 4.5 3.7.9 4.1 4.5 9.4 9.3 7.4-1.7-2.4-3.4-4.8-4.8-7.3 1.4.1 2.7.2 4.1.2.6 1.6 1.1 3.2 1.7 4.8.7 0 2.2.1 2.9.1-.2-1.8-.2-3.7-.6-5.5-1.5-1.8-3.5-3.1-5.3-4.5-1 1.2-2 2.4-3.1 3.6-1.4-1.3-2.8-2.7-4.5-3.7-1.5.2-2.8.8-4.2 1.2m17.3 0c.5 1.8 1.9 3.1 3.1 4.5 1.2-1.4 3-2.5 3.2-4.4-1.7-1.8-4.5-1.5-6.3 0m.9 12c2.7-.9 5.8-1.5 7.5-4 1.6-2.3 3.3-4.5 5.8-5.7 0 1.6-.1 3.3-.1 4.9-1.4.3-2.8.7-4.2 1 .4 1.2.8 2.4 1.2 3.6 2.3-1.4 4.8-2.7 6.7-4.7.4-2 .4-4.1.4-6.2-2-.7-3.9-1.5-6-1.9-5.5 2.3-9.9 7-11.4 12.9m27.5-13.6c-.4 1-.9 1.9-1.3 2.9 1.7.9 3.4 1.8 5.1 2.8 0 .5 0 1.6 0 2.1-1.5.4-3.1.8-4.6 1.2-.1 1-.2 2-.3 3 1 .4 2 .9 3 1.3 1.9-1.5 4-2.8 5.7-4.6 1-4.7-4.3-6.8-7.5-8.7m13 4.7c-.7 1.8 1.8 2.2 2.8 3.2 0-1.7-.1-3.4-.1-5.2-.9.6-1.8 1.3-2.7 2m-83 2.6c0 .8 0 2.2 0 3 1.3 0 2.7 0 4 0 0-.8 0-2.3 0-3-1.3 0-2.6 0-4 0m9 1.3c-1.6 3 3.3.2 0 0m15.4.9c.5 2.3 2 3.8 4.3 4.3.1-1.5.2-3.1.3-4.6-1.5.1-3.1.2-4.6.3m44.7 7.2c-1.4 1.3.8 3.7 2.2 2.2 1.5-1.3-.8-3.6-2.2-2.2m-32.5 2.3c-.7 1.4-.7 3.1-1 4.6 1.8-.7 3.5-1.5 5.3-2.3 0-.8 0-2.5 0-3.4-1.4.3-3 .3-4.3 1.1m-32.7 1.2c-1.4 1.8-2.1 4.1-2.8 6.2-1.7 5.1-3.7 10-4.2 15.4 4.3-2.6 5.8-8 10.3-10.4 5-2.9 10.1-5.8 15.6-7.7.1-.7.3-2 .3-2.7-4.5-1.5-9.3-.5-13.9-.9-1.7-.1-3.5-.3-5.2.1m52 5.1c1.4.2 2.8 1 4.3.6 1.5-1.1 2.6-2.6 3.8-4-3.3-.6-6 1-8.1 3.4m18.7-.8c-1.5 3 3.3.2 0 0m-51.7 2.8c-.4 1.4 0 1.9 1.5 1.4.4-1.4-.1-1.9-1.5-1.4m24.8.1c-.5 1.6 0 2.2 1.7 1.7.5-1.6 0-2.2-1.7-1.7m17.5 2.2c.5 3.5 2.7 6.3 6.2 7 .1-3.3-.3-6.6-1.7-9.6-1.5.9-3 1.8-4.5 2.6m16.8-.5c-.1 1.4-.1 2.7 0 4.1 1.3 1.7 3.6 1.4 5.6 1.7.4-.7 1.2-2.1 1.6-2.8-.9-1.6-1.8-3.3-2.7-4.9-1.6.4-3.2.7-4.5 1.8m-30.6-.3c.1.8.2 2.3.3 3 2.7 1 5.5 2 8.3 2.5-1.6-3.4-5.4-4.2-8.6-5.5m-44 8.7c2.8-1.2 5.1-3.3 6.8-5.9-3.3.6-5.8 2.7-6.8 5.9m-14.3-4.1c-1.1 1.3 1.2 2.9 2.1 1.6 1-1.3-1.2-2.9-2.1-1.6m37.8-.3c.6 1.8 1.2 3.5 1.8 5.3-.8.2-1.6.4-2.3.6-.7-1.2-1.5-2.4-2.2-3.6-.6-.1-1.7-.3-2.3-.4-.6 4-.7 8-.5 12 2.3-.6 4.5-1.3 6.8-2-.1.7-.3 2.1-.4 2.8-2.2.2-4.4.5-6.6.3-2.2-3.4-1.6-7.8-2.5-11.6-2.7.9-5.5 1.8-7.8 3.4.6 2 2.9 2.6 4.3 3.9-1.1.6-2.1 1.8-3.5 1.5-.9-1.1-1.6-2.3-2.4-3.4-1.5 1-2.9 2-4.3 3 .5 1.4 1.1 2.9 1.6 4.3-1.8 0-3.6.1-5.5.1-.8 2.1-1.6 4.1-2.3 6.2 1.6-1.3 3.1-2.7 4.5-4.2 1.7 1.9 3.4 3.9 5.2 5.7-2.2-.3-4.3-.6-6.5-.9-1.2 2.5-3 4.9-3 7.8-.1 2.3 1.5 4.3 1.9 6.5.5 2.7.3 5.4.3 8.2 2.1 1.9 4.2 3.9 6.1 6 1.1-.4 2.3-.9 3.4-1.3.1 3.1.3 6.5 3.4 8.1.5-1.9 1.1-3.8 1.6-5.6 1 3 1.6 6.1 2.2 9.2 1.5-.6 3.1-1.2 4.6-1.8 1.6 1.4 3.3 2.9 5.1 4 1.4 1.1 3.1-.2 4.5-.5 1.7-.7 3.6-.1 5.4 0-.6-1.9-1.1-3.9-1.6-5.8 1 .1 2 .3 3 .4 1.2 1.4 2.4 2.8 3.7 4.1.7-3.5 1.3-7 2-10.4.2 1.8.4 3.6.7 5.5 4.5-1.9 6-6.7 8.5-10.5 1.5-2.1.4-4.8 1.1-7 2-4.3 6.4-6.8 10.8-8.3-.1.6-.4 1.7-.6 2.3-2.5 1.1-5.8 1.6-7.3 4.2-1.2 2.9-.7 6.3-1.8 9.2-1.1 2.3-2.6 4.4-3.8 6.6 2.5-.1 5.2.2 7.5-.9 2-.9 2.6-3.1 3.6-4.9-2.2.1-4.4.3-6.5.5.8-.8 1.7-1.5 2.5-2.3 1.6 0 3.2 0 4.8 0 .8-3.8 2.9-7.1 4.4-10.6.5-3.1-.7-6.1-1.3-9.1-2.3 1-4.6 2.2-6.9 3.4 1.7-1.9 3.3-3.9 4.5-6.1-2.9-2.1-3.2-5.5-2.7-8.7-3.5-3.5-6.6-7.5-10.7-10.4-2.7.5-3.2 3.9-4.6 5.8-2.8-2.1-6.5-3.9-6.7-7.9 2.5 1.7 5 3.4 7.7 4.7-.1-3-1.8-6.7-5.2-6.7-5.4.5-10.7-.1-16-.8m31 .2c-1.8.4-1.2 3.3.7 2.7 1.7-.4 1.1-3.3-.7-2.7m7.6 8.5c1.1 1.2 2.2 2.4 3.3 3.6.4-1.2.8-2.4 1.2-3.6-1.5 0-3 0-4.5-.1m-72 3.7c1.1 1.1 2.2 2.1 3.3 3.2.6-2 1.2-4 1.7-6-1.7.9-3.4 1.9-5 2.8m80 .6c.1 3.3 3-1.5 0 0m-1 3.9c-1.8.4-1.2 3.3.6 2.7 1.8-.4 1.2-3.3-.6-2.7m.8 4.5c-1.3.9.3 3.2 1.6 2.1 1.3-.9-.3-3.2-1.6-2.1m-83 2.6c-1.5 1.3.9 3.6 2.2 2.1 1.5-1.3-.8-3.6-2.2-2.1m100 1.7c2.1 4.5 5.1 8.7 8.8 12 1.4-.1 2.8-.6 4.2-.9-2.2-4.1-4.6-8.3-8.3-11.2-1.4-1.2-3.2-.1-4.7.1m-14.3 2.4c-1.6.4-.9 3 .7 2.5 1.6-.4.9-3-.7-2.5m4 1.9c-.5 1.6 0 2.2 1.7 1.7.5-1.6 0-2.2-1.7-1.7m-94 1.4c-1.9.6-5.4 3.6-2.5 5.2 2.9-.7 5.6-2.1 8.4-3.3-1.2-2.1-3.6-3.3-5.9-1.9m88 9.6c-.5 1.6 0 2.2 1.7 1.7.5-1.6 0-2.2-1.7-1.7m-85 2.2c1.3 1.4 2.8 2.5 4.4 3.3.1-.9.3-2.8.3-3.7-1.6.1-3.2.3-4.8.4m108 5.2c3 3.1 5.7 6.4 8.4 9.8 4.2-2.1 8.2-4.6 11.9-7.5-3.6-3.1-7-7.2-12-7.5-3.2.9-5.6 3.3-8.2 5.2m-26 .7c1.1-.4 2.3-.7 3.4-1.1-.6-1.2-1.1-2.4-1.7-3.6-2.1.9-2.6 2.6-1.8 4.7m-77-1.1c.1 3.3 3-1.6 0 0m75.9 3.2c-1.4.9.1 3.2 1.4 2.1 1.4-.9-.1-3.2-1.4-2.1m8 1.4c-5.2 7.8-12.8 13.3-20.5 18.3-.3 5.5-1.5 11 0 16.6 7.4 0 14.9-.8 21.9-3.4 8.1-1.5 17-1.6 23.8-7-1.8-2.3-4-4.3-6.1-6.4-2.7-2.5-4.4-5.9-7.5-8-2.3-.4-4.6.3-6.8.8-.9-2.1-2-4.3-2.3-6.6.3-1.5.8-3 1.3-4.5-1.2.1-2.5.2-3.7.3m-13.7 4.5c1.1.2 2.2.4 3.3.5 1.7-.9.4-2.8.4-4.2-1.3 1.2-2.5 2.4-3.7 3.7m-13 .5c1.5.6 3 1.1 4.5 1.6 0-.9-.1-2.9-.2-3.8-1.4.7-2.9 1.5-4.4 2.2m-53.9-.1c1.7 2.1 3.7 4 5.8 5.6-.4-1.5-.6-3-1.2-4.4-1.2-1.3-3-1.1-4.6-1.2m48.7.9c-.5 1.2-1 2.5-1.5 3.7 1.6-.5 3.2-.9 4.7-1.4-1.1-.8-2.2-1.5-3.3-2.3m-53.8 1.6c.2 5 1.6 9.8 2 14.8-1.2 4.5-4.1 8.2-6.3 12.2 10 4.1 21 1.3 31 4.6 1.6-4.8 1-9.9.9-14.8-5.1-2-10.4-3.7-15.2-6.3-5-2.6-8.2-7.3-12.7-10.5m67 1.1c-1.8.4-1.2 3.3.6 2.7 1.8-.4 1.2-3.3-.6-2.7m-55 1.8c.2.6.7 1.8.9 2.4.6.2 1.8.7 2.4.9 0-.8 0-2.4 0-3.2-.8 0-2.4 0-3.2 0m4.4 3.2c-.5 1.6 0 2.2 1.7 1.7.5-1.6 0-2.2-1.7-1.7m4.4.9c-.9 1.2 1.1 2.6 1.9 1.3 1-1.2-1.1-2.6-1.9-1.3m37.9-.6c-.6 1.3-1.1 2.6-1.7 3.9 1.7 0 3.8.9 5.2-.6.7-2.3-2.1-2.5-3.5-3.3m-29 2.7c-1.6.4-.9 3 .7 2.5 1.6-.4.9-3-.7-2.5m11.5 4.4c-.6 5.4.7 10.9.8 16.3.1 4.1 3.7 7.3 7.7 7.4.1-2-.1-4.1-.6-6.1-1.5.5-2.9.9-4.4 1.4-.3-.3-.8-.9-1.1-1.2 1.6-1.5 4.3-2.6 4.4-5.1.3-5.8.1-11.8-2.7-16.9-1.7 1-4.1 1.8-4.1 4.2m-8.4-2.5c-1.2 1.5 1.4 3.1 2.4 1.6 1.2-1.5-1.4-3.1-2.4-1.6m24.3 1.4c-.2.6-.7 1.8-.9 2.4.8 0 2.4 0 3.2 0 0-.8 0-2.4 0-3.2-.6.2-1.8.7-2.4.9m-22.4 2.4c-1.8.4-1.1 3.3.7 2.7 1.8-.4 1.2-3.3-.7-2.7m21.5 3c.2.6.7 1.8.9 2.4.6.2 1.8.6 2.4.9 0-.8 0-2.4 0-3.2-.8 0-2.4 0-3.2 0m.5 6.4c-1.4 1.3.8 3.6 2.1 2.2 1.5-1.3-.8-3.6-2.1-2.2m48 3.7c.2 3.3 3-1.6 0 0m-48 1.1c-1.4 1-.4 2.8-.3 4.2 1.3-1.2 2.5-2.4 3.7-3.6-1.1-.2-2.2-.4-3.4-.6m20.3 5.9c2.7-.4 5.6-.8 7.3-3.2-3-.2-6.3-.2-7.3 3.2m-8.3-2.2c-.3.5-1 1.5-1.3 2.1.9.4 1.9.8 2.9 1.2.4-.6 1.1-1.6 1.5-2.2-1-.4-2-.7-3-1m-78 1.2c-.5 1.4 1.9 2 2.3.7.5-1.4-1.9-2-2.3-.7m68-.1c-1.9.4-1.1 3.5.8 3 1.9-.4 1.1-3.6-.8-3m5.8.1c-1.5.4-.7 2.7.7 2.2 1.5-.4.7-2.7-.7-2.2z"/><path d="m123 137c1.3-.3 2.7-1.2 4.1-.8 2 1.2 3.3 3.3 5.3 4.5 1.9 1 4.2 1.5 5.7 3.2-3 0-6.3.1-8.9-1.6-2.3-1.5-4.2-3.4-6.2-5.3"/><path d="m148 199c2.3-.4 4.6 0 6.9.6.2 1.2.5 2.5.7 3.8-2.6-1.4-5.1-2.8-7.6-4.3"/><path d="m145 199c1.3-1.1 2.9 1.2 1.4 2.1-1.3 1.1-2.8-1.2-1.4-2.1"/><path d="m132 274c.6 0 1.8.1 2.4.2 0 2 0 4 0 6-1.3.1-2.5.3-3.8.4.5-2.2 1-4.4 1.4-6.6"/><path d="m142 277c1.1 2.4 2.1 4.8 3.1 7.2 2.8-1.8 6.1-5 9.6-2.6-2.1.7-4.3 1.3-6.4 2-.4.9-.8 1.7-1.2 2.6 2.2 0 4.3 0 6.5.1-1.5.9-3 1.8-4.5 2.7.8 1.2 1.5 2.4 2.3 3.6 2.7-2.4 5.3-4.8 7.9-7.3.2 2.9.3 5.8.6 8.7-2.8.1-5.8-.3-8.4.8-.7 1.9-.7 4.1-1.1 6-1 4.6 1.9 8.8 2.3 13.3-1.3 3.1-5.1 3.5-7.9 4.4-1-1.6-2-3.1-2.9-4.6-1.3.2-2.5.4-3.7.7-2-1.6-4.3-2.8-6.8-3.1.7-.9 1.4-1.7 2.2-2.6 3 1.4 6.1 3.3 9.6 2.9 1.8-.3 2.2-2.4 2.3-4-1.7-1.6-4 .1-5.9.3-1.4-.9-2.8-1.8-4.2-2.7-2.2.6-4.4 1.4-6.7 1.6-2.7-.4-2.7-3.6-3.6-5.6 3.2-.8 6.5 0 9.7.3 1.4-1.6 2.4-3.5 3.5-5.3.1 3.3.2 6.5.2 9.8 3.4-1.1 6.9-.9 10.3.1-.8-2.5-1.1-5.1-.3-7.6-1-.8-1.9-1.6-2.9-2.4 1.1-1.5 2.2-3 3.3-4.5-2 .1-4 .3-5.9.4 1.2-1.8 2.4-3.6 3.7-5.3-1.9 0-3.7 0-5.6 0-.4 1.9-.7 3.9-1.5 5.8-3.5 2.5-8 2.6-12 3.8 0-1.6 0-3.3 0-4.9 3.9-1.6 8.1-2.1 12.2-3.1-.2-2.4-3.1-2.4-4.9-3.2 1.1-1.2 2.2-2.5 3.4-3.6 1.4-.1 2.9.1 4.3.3-.1-1.6-.2-3.2-.2-4.8m3.3 34.7c-1.1 1.5-1.1 3.5-1.5 5.2 1.6-.6 3.9-.4 4.7-2.1.6-1.5.7-3.2.9-4.8-1.4.5-2.9.7-4.1 1.7z"/><path d="m112 289c.3-3.7 4.1-5.3 6.7-7.3-1 2-2.1 3.9-3.2 5.9 1.3.7 2.6 1.3 3.9 2-1.4.3-2.8.6-4.2 1 1.8 1.9 3.7 3.7 5.5 5.5-1.8 3.1-3.8 6.2-6 9 .8-3 1.7-6 2.7-9-2.3-1.9-5.6-3.8-5.4-7.2"/><path d="m121 288c2.3-1.6 5-2.3 7.8-1.1-2.1 2.5-5 2.2-7.8 1.1"/><path d="m104 296c1.4.3 2.8.6 4.2 1 .7 1.4.1 3 0 4.5-1.6-1.7-3-3.5-4.2-5.4"/><path d="m155 299c1.5-1.1 3.3-1.7 5.1-2.4 0 .8-.1 2.4-.1 3.2-2.2 1.4-4.3 2.9-6.5 4.3.5-1.7.6-3.6 1.6-5.1"/><path d="m117 314c-.4-4.9 3.9-8 5.4-12.3.6 1.9 1.4 3.9 1.5 5.9-.7 1.8-2 3.2-3 4.9 3.5.9 6.2-1.6 9-3.1-1.5 1.7-2.8 3.7-4.8 4.8-2.6 1.2-5.5.1-8.2-.2"/></g><g style="fill:#808080"><path d="m203 18c1.2-.4 2.3-.8 3.4-1.2-.4 1.5-.8 3-1.3 4.6-.7-1.1-1.4-2.2-2.2-3.4"/><path d="m208 17.3c1.6-.5 2.2 0 1.7 1.7-1.6.5-2.2 0-1.7-1.7"/><path d="m212 18.7c1.3-1.4 3.6.9 2.1 2.2-1.4 1.4-3.6-.9-2.1-2.2"/><path d="m194 19.8c1.5.5 3.1 1 4.6 1.5-1.7 1.4-3.7 2.6-5.8 3.3.3-1.6.7-3.2 1.1-4.8"/><path d="m215 20.9c1.5.1 3 .2 4.5.3 0 .8-.1 2.3-.1 3-.7 0-2.1-.1-2.7-.1-.6-1.1-1.1-2.1-1.7-3.2"/><path d="m97 24c6.2-.5 12.3 1.4 18.4.7 14.7-1.7 30-.4 43.7 5.5-1.3 3.4-3.3 6.8-6.7 8.6-3.9-.8-7.4-3-11.3-3.7-7.5-1.3-14.8-3.9-22.5-4.5-5.9-.6-12-1.2-17.6-3.2-1.8-.5-2.9-2.1-4.1-3.5m4.8 1.6c6.6 4.3 14.6 3.1 22 4.2 9 2.4 18 4.1 27 7 3.7 1.1 4.7-3.5 6.3-5.8-9.3-5.3-20.3-4.6-30.6-6.2-4.6-.6-9.1.8-13.7 1-3.7.3-7.4-.2-11-.3z"/><path d="m202 26.7c.6-.2 1.8-.7 2.4-.9 0 .8 0 2.4 0 3.2-.8 0-2.4 0-3.2 0 .2-.6.7-1.8.9-2.4"/><path d="m198 28c1.4-.5 1.9 0 1.4 1.4-1.4.5-1.9 0-1.4-1.4"/><path d="m189 29c1.9-.6 2.7 2.6.8 3-1.9.6-2.7-2.5-.8-3"/><path d="m161 41c.9-3.4 3.8-5.8 6.2-8.2 3 1.4 6.1 2.7 8.8 4.6 0 1.5-1.4 2.2-2.5 3-3 1.9-6 3.7-8.8 5.8-1.3-1.6-3.2-3.1-3.8-5.2m5.3-6.4c-.8 1.5-1.5 2.9-2.3 4.4 1.7.7 3.3 1.4 5 1.8 1.6-.5 3-1.4 4.4-2.1-2.2-1.7-4.6-3.1-7.2-4.1z"/><path d="m192 34.5c2.2 1 3.9 2.7 4.9 4.9-1.3-.3-2.5-.6-3.8-1-.4-1.3-.8-2.6-1.1-3.9"/><path d="m222 35c3.2.3 6.3.5 9.5.9-2 1.9-4.6 2.7-7.3 3-.7 1.9-.9 4.1-2.5 5.6-.9 0-1.9-.1-2.8-.2 1.1-3.1 2.1-6.1 3.1-9.2"/><path d="m232 35.5c1.3-1.5 3.6.9 2.1 2.2-1.3 1.5-3.6-.9-2.1-2.2"/><path d="m184 38.4c1.1-.9 2.3-1.8 3.4-2.7.2 2 .3 3.9.4 5.9 1.4-.1 2.8-.3 4.1-.4 1.1 2 2.2 4 3.3 5.9-1 .4-2 .8-3 1.2-2.3-1.5-4.9-2.6-6.7-4.7-.7-1.7-1-3.5-1.5-5.2m6.2 5c-1.5 3 3.3.1 0 0z"/><path d="m128 39.8c1.4-.9 3-1.4 4.5-2-1.3 4.6-3.2 9-4.3 13.6-1.1 4.4-4 7.9-7 11.1.5-4.6 1.8-9.2 4.3-13 2-2.8 1.9-6.4 2.5-9.6"/><path d="m214 40c1.3-.4 2.5.3 3.8.5-.2 1.3-.5 2.5-.7 3.8-2 .2-4 .4-5.9.5.8-1.6 1-3.9 2.8-4.8m-.1 1.8c.2 3.3 3-1.5 0 0z"/><path d="m225 42c1.3-.8 2.6-1.5 3.8-2.3.4.6 1.2 1.9 1.5 2.5-1.7 1.2-3.4 2.3-5.3 3.2 0-.9 0-2.6-.1-3.4"/><path d="m240 42c1.4-.3 2.9-.8 4.3-.8 1.2 1.2 2 2.6 3 4-1.4.3-2.9.7-4.4.8-1.2-1.2-2.1-2.6-2.9-4"/><path d="m170 50c2.6-4 6.3-7.6 11-8.7-.7 3.4-2.5 6.4-4.7 9-1.8 2-1.4 4.7-1.6 7.1-2.2-1.9-5.1-4.2-4.7-7.5m.2.6c.5.6 1.4 1.9 1.9 2.5 2.8-2.5 5.4-5.4 6.8-8.9-3.5 1.1-6.2 3.8-8.7 6.4z"/><path d="m206 42c3-1.5.2 3.3 0 0"/><path d="m77 58c.4-5.1 2.7-9.6 6.3-13 3.8 1.2 7.4 2.6 11 4.3-.5 4.8-1.4 9.6-3.3 14-5-.7-9.9-2.3-14-5.3m3.9-3.8c2.6 2.6 5.9 4.5 9.7 4.9-2.2-3.2-6-4.3-9.7-4.9z"/><path d="m102 45c2.3.2 4.6.5 6.9.7-.5.7-1.4 2-1.9 2.7-1.7-1.1-3.3-2.3-5-3.4"/><path d="m148 45c.8 0 2.5 0 3.3 0-.8 3.9-2.6 7.9-6.6 9.4.3-3.4 1.6-6.5 3.3-9.4"/><path d="m236 45c1.4-1.2 3.1 1.4 1.6 2.4-1.5 1.2-3.1-1.4-1.6-2.4"/><path d="m156 46c3 2.5 8.3 4.8 7.6 9.3-2.8 2.4-7 2.5-10.2 4.5-2-1.3-4.1-2.6-5-5 3.1-.6 6.5 0 9.5-1.4 1.5.5 3 .8 4.5 1.2-1.6-3.3-4.3-5.8-7.6-7.2.6 1.6 1.2 3.3 1.9 4.8-1.3-.3-2.5-.6-3.8-.8 0-1.2 0-2.3-.1-3.5 1.1-.7 2.1-1.3 3.2-2"/><path d="m207 47c3.3.5 6.6.4 9.8-.6.1 1.5.7 3.9-1.4 4.3-3 .5-6 .6-9 1.6.2-1.8.4-3.5.6-5.3"/><path d="m217 51c1.2-2 2.7-3.9 4.2-5.6.7.5 2.1 1.4 2.8 1.9-1.4 2.7-4.1 3.8-7 3.7"/><path d="m248 46c.8 0 2.5.1 3.4.1-.5 2.5-2.2 3.9-4.6 4.4.4-1.5.8-3 1.2-4.5"/><path d="m254 48c2.3-.9 5.2-1.5 7.4-.1 1.4 1.4 2.3 3.1 3.4 4.7 3 1.1 6 2.3 9 3.5-1.6 3.2-3.4 6.4-5.3 9.4 1.9-1.3 3.8-2.7 5.8-3.9-.3 1.8-.6 3.5-.9 5.3 1.9-1.4 3.8-2.8 5.8-4.2 3.3 3.6 6.4 7.4 10.1 10.7 2.4 2.3 5.8 2.7 8.9 3.5 4.7 1.2 8.5 4.3 13 5.8 2.9.9 5.9 1.1 8.9 1.2-1.5-2-3.3-3.8-5.5-5-6.1-3.4-12.4-6.5-18.9-9.3-8.3-4-13.7-11.9-18.3-19.5 4.9 4.9 8.2 11.2 13.9 15.3 4.2 3.2 9.4 4.4 13.8 7.1 4.2 2.6 8.7 4.6 12.9 7.2 2.6 1.3 2.6 4.5 2.9 7-8.4-.9-16.6-2.4-25-3.7-8.6-1.5-15.3-7.6-22.7-11.7-3.2-2-6.8-4-8.4-7.6.2-2.8 2.3-5 3.5-7.4-2.6 1.7-5.3 3.5-7.8 5.4-1.9-1.7-3.9-3.3-5.4-5.4-.3-2.1.5-4.2.9-6.3-2.2 1.5-4.5 3-6.9 4.3 1.2-2.2 2.1-5.1 4.7-6.3"/><path d="m115 48c.7.1 2 .2 2.6.3.4.5 1.3 1.4 1.7 1.9-1.5.4-2.9.8-4.3 1.3 0-.9 0-2.6 0-3.4"/><path d="m195 48c1.7-.4 2.2 1.5 3.1 2.6-1.2.9-2.4 1.8-3.6 2.6 0-1.7-1.3-4 .5-5.2"/><path d="m101 48.9c6.1 1.6 12.5 2.9 17.6 6.8-1.9 2.4-3.9 4.7-5.8 7-3.6-.5-7.2-1.4-10.6-2.6 0-.7.1-2 .1-2.7 3.8.4 7.8 2.3 11.5.6 1.2-.6 2.3-1.2 3.5-1.8-4.7-2.9-10.3-6.6-16-4.2.4 1.2 1.5 1.9 2.4 2.7-1.1.5-2.3 1-3.4 1.5.2-2.5.3-5 .9-7.4"/><path d="m227 54.8c2.2-2 4-4.3 6.2-6.3 1.9 3.7.1 7.6-1.4 11 1.8.9 3.6 1.9 5.4 2.8-.1 1.1-.2 2.3-.3 3.5-1.8-.5-3.8-.7-5.5-1.7-1.7-2.1-2.8-4.7-4.1-7.1-1.3 2.1-2.5 4.2-3.8 6.3-1.7-.5-3.3-.9-5-1.4 2.2-3 5.6-4.7 8.4-7.1m3.1 2.8c2.7-1.4 2.2-4.6 2.1-7.1-1.4 2.1-2.1 4.6-2.1 7.1m2.7 4.8c-.9 1.1 1 2.7 1.9 1.5.9-1.1-1-2.7-1.9-1.5z"/><path d="m238 50c1.1-.4 2.3-.9 3.4-1.3 2.3 2.7 3.9 5.9 6.1 8.8 2.1 2.3 4.5 4.5 6 7.2 4.4 1.4 7.8 4.5 11.3 7.4 1.9 1.5 3.1 3.6 4.3 5.6 1.5.5 3.1.9 4.6 1.4-1.4 1.7-2.8 3.3-4.2 5-3.8-3.1-7.3-6.5-11-9.7-2.9-2.6-6.6-4.2-9.8-6.2-5.8-4.3-9.7-10.9-10.7-18"/><path d="m201 53c2.1.4 4.1.9 6.2 1.3-.4 1.4-.9 2.8-1.3 4.2-2.1-.8-4.2-1.6-6.2-2.5.4-1 .9-2 1.3-3"/><path d="m212 53.9c1.4-1.1 3.2 0 4.8.2-1.5 2.7-4 4.4-6.9 5.4.5-1.9.2-4.4 2.1-5.6m.3 1.4c-.5 1.4 0 1.9 1.4 1.4.5-1.4 0-1.9-1.4-1.4z"/><path d="m133 54c2.2.9 4.3 2 6.4 3.3-2.2.1-4.4.3-6.6.4.1-.9.2-2.7.3-3.6"/><path d="m146 58c1.8.7 3.5 1.7 4.4 3.5-1.5.1-2.9.1-4.4.2 0-.9 0-2.8 0-3.7"/><path d="m166 59c1.3.4 2.5.7 3.8 1.1-1 1.7-2 3.5-3 5.2 1.7.3 3.3.6 4.9 1-3.4 1.9-5.3 5.4-7.8 8.3-1.3 1.6-3.6.6-5.3.6-1.3 2.3-2.3 5.2-5 6.2-2.2 1.1-4.6-.3-6.7-.9-.5 1.8-.7 3.8-1.8 5.4-1.9 1.6-4.3 1.9-6.6 2.5-.8 2.3-1.1 5.1-3.4 6.5-2.2 1.9-5.3 1.7-8 1.5-.3 1.7.3 4.1-1.6 5-2.4 1.8-5.4 1.7-8.1.9-1.1 3.2-2 7-5.5 8.4-1.8 1.4-3.1-.7-4.2-1.8-.9 2.4-1.3 5.5-3.7 7-1.6 1.2-3.7.7-5.5.8-2.1-.3-3.5 1.5-5.1 2.6-2.4-1.7-4.6-3.5-6.4-5.8 2.3-.7 4.6-1.2 6.9-1.7 1.2-2.2 2.1-5.3 5-5.8 4.1-.9 8.1.8 12.2.9 1.7-.6 2.2-2.7 3.1-4-2.9.6-5.7 1.3-8.5 2 0-.8-.1-2.5-.1-3.4 3.4-1.8 7.3-2.6 11.2-2.3 3.3.2 8-.5 8.3-4.7-3.3 1-6.5 2.3-9.8 3.3.5-1.4.9-2.8 1.8-4 2.9-1.8 6.7-2.1 9-4.8 1.7-1.8 3.9-3 6.3-3.8 3.6-1 4.4-5.4 7.7-7.1 2.6-1.3 5.4-2.6 7.3-4.9 1.9-2.6 5.4-2.4 8.3-3 .5-1.7.8-3.5 1.8-4.9 1.9-.5 3.8-.5 5.8-.6 1-1.8 2-3.5 3-5.3m-8.4 7.4c-1.6 3 3.3.2 0 0m1.1 2.9c.4 1 .8 2 1.2 3 1.4-1 2.9-2.1 4.3-3.2-.8-.8-1.7-1.5-2.5-2.3-1 .8-2 1.7-3 2.5m-10.6 9.6c2.8-1 5.5-2.5 7.9-4.3-.4-.7-1.2-2-1.6-2.7-2.7 1.8-5 4-6.3 7m3.8-.6c-1.1 1.3 1.2 2.9 2.1 1.5 1.1-1.3-1.3-2.8-2.1-1.5m-13.9 6.9c3.1-1.1 5.7-3 6.9-6.1-3.4.7-5.8 2.9-6.9 6.1m-8.9 5c.1 3.6 3.8 1.1 5.5.1-.4-1.2-.8-2.3-1.2-3.5-1.5 1.1-3 2.1-4.2 3.4m4.3 3c1.4.5 1.9.1 1.7-1.3-1.3-.5-1.9-.1-1.7 1.3m-14.8-.2c-1.4.4-.7 2.8.7 2.1 1.4-.4.7-2.8-.7-2.1m12.7 1.7c.9 1.1 2.8-.4 2.1-1.5-.9-1-2.9.3-2.1 1.5m-12.2 5.3c.4.5 1.3 1.7 1.7 2.2 1.9-1.1 3.5-2.7 5.1-4.2-2.3.6-4.6 1.3-6.9 2m-10.3 1.2c.2 3.3 3-1.6 0 0m-11.7 9.7c.6 1 1.1 2 1.7 3 1.8-1 3.6-2.1 5.4-3.1-.2-1-.5-2.1-.7-3.1-2.1 1-4.2 2-6.3 3.1m-2.3 2.3c.2 3.3 3-1.6 0 0m6.8-.2c-1.4.4-.7 2.8.7 2.1 1.4-.4.7-2.8-.7-2.1z"/><path d="m204 60c1.3-1.1 2.8 1.3 1.4 2.1-1.3 1.1-2.8-1.3-1.4-2.1"/><path d="m76 62.9c2.8-.1 5.3 1 7 3.2-1.7 0-3.4 0-5-.3-.7-.9-1.4-1.9-1.9-3"/><path d="m118 63c.8 0 2.4-.1 3.3-.2.1 3.6.1 7.5-3.3 9.6-.7-3.1-.5-6.3 0-9.5"/><path d="m218 65c2.3-.6 4.4.2 6.4 1.4 1.5-.7 3-1.4 4.5-2.1 0 3.5.1 7.1-.7 10.5-1.6-1.8-3.1-3.6-4.5-5.5-1.9-.3-3.8-.6-5.6-.8 0-.9-.1-2.6-.1-3.5m2.4 1.5c.1 3.3 3-1.5 0 0m5.7-.7c-.1 1.8-.2 3.6-.2 5.5.6.3 1.7.9 2.3 1.2 0-2.3.9-5.9-2.1-6.6z"/><path d="m87 67c1.6.3 3.4 0 4.8.8.4 1.2.8 2.5 1.1 3.7-2.8-.3-4.8-2-5.9-4.5"/><path d="m231 67c3.1.2 6.2.4 9.3.4 3.5 4.4 8.7 7.2 11 12.4-2.8-.1-5.7-.3-8.5-.7.6-2 1.2-3.9 1.8-5.9-1.2 1.2-2.3 2.4-3.4 3.6-1-1.7-2-3.5-2.9-5.2-2.4.2-4.8.3-7.2.2 0-1.6-.1-3.2-.1-4.9m2.2.8c-.6 1-1.2 2-1.8 3 1.7 0 3.4 0 5.1-.1-1.1-1-2.1-2-3.2-3m6.9 2.7c-1.3 1 0 3.6 1.6 2.6 1.3-1-.1-3.6-1.6-2.6m5.3 7.5c.1 1.5.8 1.7 1.9.8-.1-1.4-.8-1.7-1.9-.8z"/><path d="m98 70c4.7.2 10 1.4 12 6.3-4.6-.5-10-1.5-12-6.3"/><path d="m209 71.9c1.1-.9 2.3-1.5 3.6-2.2 3.4 9.8 6.3 19.8 11.2 28.9 2.6 7.4 9.9 11.6 13 18.7-4-1.1-8.2-2.4-11.4-5.2-3.7-2.9-5.2-7.5-7.6-11.4-3.2-6.1-7.2-12-7.8-19-.3-1.9 1.2-3.4 2.1-4.9-1.2-.1-2.4-.2-3.6-.3.2-1.5-.3-3.2.5-4.5"/><path d="m218 71c.5-.3 1.4-1 1.8-1.4 1.2.8 2.4 1.7 3.7 2.5-.1 1.7-.2 3.5-.4 5.2 1.4.6 2.9 1.1 4.3 1.7 0 2.3-.3 4.5-.8 6.7-1.2.1-2.3.1-3.5.2-2.4-4.7-4.5-9.6-5.3-14.9m5.9 8.2c0 1.8 0 3.5 0 5.3 1.1-.9 2.2-1.8 3.2-2.7-1-.9-2.1-1.8-3.2-2.6z"/><path d="m168 74c2.1-1.1 4-3.2 6.6-3 3.4 2.8 2.9 7.7 4.9 11.3 2.8 5.4 6.6 10.5 7.6 16.6 1.3 3.8.3 7.8.4 11.7.6 3.5 1.6 7 .8 10.6-5.5-1.7-7.6-7.3-9.6-12.2-2.4-6.1-1.9-13-5.2-18.9-2.9-5-4-10.7-5.5-16.3m12.6 24.7c-.6 1.2-1.1 2.3-1.6 3.5 1.8-1.2 3.6-2.5 5.3-4-1.2.1-2.4.3-3.6.4z"/><path d="m228 77c1.3-3.9 5.8-3.9 8.8-1.9 0 .4-.1 1.3-.1 1.8-2.7 1.5-5.8.5-8.7.1"/><path d="m118 77c2 1.2 4.1 2.3 6.1 3.5-.3.9-.7 1.9-1 2.8-2.1-.8-4.2-1.5-6.3-2.3.4-1.4.8-2.7 1.2-4"/><path d="m160 84c.5-3.2 2.6-5.6 5.5-6.9.3 1.4.7 2.9.8 4.3-1.5 2-4.1 2-6.3 2.6"/><path d="m97 79c.8 0 2.4-.1 3.2-.1 1.1 5.2 1.9 10.4 1.7 15.7-4-4.2-4-10.2-4.9-15.6"/><path d="m238 79c.8-.1 2.5-.3 3.3-.4.5 3.1.4 6.2-.1 9.3-.8 0-2.5 0-3.4-.1 0-2.9.1-5.8.2-8.8m.8 1.7c0 1.7 0 3.4 0 5.1.6 0 1.7.1 2.3.1 0-1.8 0-3.5 0-5.3-.6 0-1.7.1-2.3.1z"/><path d="m253 80c1.7 1.1 4.3 1.7 4.7 4 .3 2.1-.3 4.2-.6 6.3-1.2.1-2.4.2-3.6.3-.6-3.5-1-7-.5-10.5m1.1 2.2c0 2.1 0 4.2 0 6.4.6 0 1.7 0 2.2 0 0-1.6-.1-3.1-.1-4.7-.5-.4-1.6-1.2-2.1-1.6z"/><path d="m273 88c.5-2.9 1.3-5.9 4.4-7-.2 1.6-.3 3.2-.8 4.8-1.1.9-2.4 1.5-3.6 2.2"/><path d="m260 84c1.4.3 2.7.6 4.1 1 .4 1.3.8 2.6 1 3.9-2.1-.3-4.3-.8-6.4-1.3.4-1.2.9-2.4 1.3-3.6m1 2.5c.1 3.3 3-1.5 0 0z"/><path d="m278 86c3.3-3.3 7.7-.7 11.2.9 2.6 1.1 4.8 3.1 6.5 5.4-6 .7-11.8-1.9-17.4-3.7-.1-.7-.2-2-.3-2.6"/><path d="m147 88c5.6-2 11.7-1.3 17.5-1.8 1.2 4 3.6 7.9 3.7 12.2-1.5 2.7-4 4.5-6.2 6.5-1.7-5.2-2.6-11.6-7.8-14.5-3.5 0-6.8 1.3-10 2.1.7 1 1.5 2.1 2.2 3.2-.5 1.3-1.1 2.5-1.3 3.8 1 4 3.4 7.8 7.6 9-.7 1.3-1.5 2.6-2.3 3.9.7.9 1.4 1.8 2.1 2.7-2.2 1.3-4.4 2.6-6.6 3.9.6-2.3 1.7-4.6 1.4-7-1.4-2.8-4.9-4.7-4.1-8.3-1.9-1-3.8-1.9-5.8-2.8.8-5.6 4.5-10.6 9.7-13m13.7 6.8c-.1.7-.2 2.2-.2 2.9.8 0 2.4 0 3.3 0-.3.6-.8 1.7-1.1 2.3 1.5-1.4 2.9-2.9 4.1-4.6-.5.1-1.6.3-2.1.4.2-.3.6-1 .8-1.4-.2-.5-.6-1.6-.8-2.1-1.3.8-2.6 1.6-3.9 2.4z"/><path d="m226 88c3.3-.6 6.7-.4 10 .4 0 .8 0 2.4.1 3.2-2.8 0-5.6 0-8.3.1 3.4 3.7 8.4 2.3 12.8 2.7 1.9 1.9 1.6 5.3-.3 7.2-1.6 1.7-3.5 3-5.3 4.3-1.3-1.7-2.5-3.4-3.5-5.2 2.3.1 4.5.3 6.8.5-.1-.6-.4-1.8-.5-2.5-3.4-.7-6.7-1.3-10-2-.6-2.9-1.1-5.8-1.6-8.7m3.1.2c-.1.5-.1 1.7-.2 2.2 1.8 0 3.6 0 5.4.1-.4-.6-1.2-1.7-1.6-2.3-1.2 0-2.4 0-3.7 0m4.1 7.4c-.5 1.6 0 2.2 1.7 1.7.5-1.6 0-2.2-1.7-1.7m5.9 1.4c-.9 1.1-.7 1.8.8 1.9.9-1.1.7-1.8-.8-1.9m-4.8 5.5c.2 3.3 3-1.6 0 0z"/><path d="m301 89c1.8.4 3.5.9 5.3 1.3 0 .7 0 2 0 2.6-1.8.3-3.7.7-5.5 1.1 0-1.7.1-3.4.2-5"/><path d="m241 90c4.4.8 10 .7 12.6 5.1-4.2.3-8.4-.6-12.4-2-.1-.8-.2-2.3-.2-3.1m4.9 2.4c-.7 1.9 3.3 3 3.6 1-.3-1.4-2.6-2-3.6-1z"/><path d="m258 91c3.3-.6 6.7-1 10-1.1 0 1.4 0 2.7 0 4.1-3.3 0-6.6 0-10 0 0-.8-.1-2.3-.1-3m3.4 0c-.4.6-1.2 1.8-1.6 2.3 2.1 0 4.3-.1 6.4-.1 0-.6-.1-1.7-.1-2.2-1.6 0-3.1 0-4.6 0z"/><path d="m91 95c1.1-2.5 3.1-4.3 5.9-4.5-.3 1.3-.6 2.5-1.1 3.7-1.4.9-3.2.6-4.8.8"/><path d="m271 91c3-1.5.1 3.3 0 0"/><path d="m83 92c1.6-.8 3.3-.1 4.7.8.5 3.3-4.4 3.9-6 1.7-.5-1.3 0-2.2 1.3-2.6"/><path d="m275 92c2.6.8 5.1 1.6 7.6 2.6-.6.8-1.3 1.7-2 2.5-2.3 0-4.6-.5-6.8-.9.4-1.4.8-2.8 1.3-4.2"/><path d="m254 94c.8.1 2.4.2 3.2.3.3 1.8.9 3.6.7 5.4-.4 2.1-2.3 3.4-3.7 4.9-.9-3.5-.8-7.1-.2-10.6m0 3.3c.1 1.8.1 3.6.2 5.4 2.1-1.8 2.9-4.2 2.4-6.8-.7.4-2 1.1-2.6 1.5z"/><path d="m100 97c1.3-1.5 3.6.9 2.1 2.2-1.3 1.5-3.6-.8-2.1-2.2"/><path d="m243 96c3.5.4 7 1.4 9.3 4.3-3.2.8-6.5.1-9.5-1.1.1-.8.2-2.4.3-3.2m1.2.8c.9 2.7 3.8 2.9 6.2 3.5-1.8-1.6-3.9-2.8-6.2-3.5z"/><path d="m88 102c2.7-1.6 5.5-3.1 8.3-4.5.6 1.7 2 3.5 1.3 5.4-1.3 1.7-2.9 3-4.5 4.3-1.4-.8-2.9-1.6-4.3-2.3-.4 1.7-.8 3.4-1.3 5-3.4-1.9-4.9-5.7-4-9.5 1.5.5 3 1 4.5 1.5m2.9-.6c.6 1.2 1.1 2.4 1.7 3.6 1.8-.9 3.5-2 5.2-3.2-.5-.6-1.4-1.8-1.8-2.4-1.7.7-3.3 1.3-5 1.9z"/><path d="m270 97c.8-.1 2.3-.2 3-.3 1.1 4 .1 8-2.3 11.4-.8-.8-1.7-1.6-2.5-2.5.6-2.9 1.2-5.8 1.8-8.6m-.5 8.4c3.3-.9 3.3-4.5 3.6-7.2-3 1.2-3.1 4.5-3.6 7.2z"/><path d="m168 101c1.2-2 3.7-2.1 5.7-2.8-1.6 3.3-3.6 6.5-3.7 10.3-.5-2-.9-4.1-1.3-6.2-1.4 3-2.5 6.3-4.4 9-1.9 2-4.7 2.8-7.1 4l-.8.3c-1.1-1.1-2.1-2.1-3.1-3.2 3.2-.3 6.5-.4 9.7-.4 1.7-3.7 2.9-7.6 5-11"/><path d="m277 99c1.6-2 4.2-.7 6.3-.4-2 3.1-4.8 5.6-8 7.4-.2-2.4-.3-5.3 1.7-7m.8.8c-1.8.3-1.4 3.3.4 2.6 1.8-.2 1.5-3.3-.4-2.6z"/><path d="m66.9 102c3.4-1.2 6.8-2.3 10.2-3.3 1.9 2.5 3 5.4 3.1 8.6-3.5 2.1-7.2 4.1-11 5.6-1.6-3.4-2.4-7.1-2.3-10.9"/><path d="m242 102c5.6-.5 9.9 3.5 15 4.7 2.8.8 5.8 1.3 8.4 2.8.6 2.2-2.1 3.3-3.8 3.1-3.8-.9-6.9-3.5-10.5-4.9-3.4-1.4-7.8-1.7-9.2-5.7m13.9 6.7c2.4 1.8 5.3 2.8 8.3 2.8-1.3-3.4-5.3-3.6-8.3-2.8z"/><path d="m290 105c1.9-.2 4.8-1.9 5.8.5.3 1.3.4 2.5.6 3.8-1.9-.1-3.8-.3-5.7-.4-.2-1.3-.5-2.6-.7-3.9m2.6 1.4c-.4 1.4 0 1.9 1.4 1.5.4-1.4 0-1.9-1.4-1.5z"/><path d="m124 105c3.1 1.5 6.6 2.5 8.7 5.5 1.9 2.6 4.6 4.3 7.6 5.5-.1 3.6-2.4 6.4-5.1 8.5-.2-2.1.1-4.2-.6-6.2-1.9-2.8-4.6-5.1-7.6-6.5-3.3 0-5.7 2.6-8.3 4.1 2.2-3.4 4.8-6.8 5.3-10.9"/><path d="m237 105c1.8-.6 2.8 2.5.8 2.9-1.9.6-2.8-2.5-.8-2.9"/><path d="m158 106c3-1.5.1 3.3 0 0"/><path d="m287 107c1.2-.9 2.6 1.1 1.3 1.9-1.2 1-2.5-1.1-1.3-1.9"/><path d="m171 110c1.4-.9 2.8-1.8 4.1-2.6.3 1.3.6 2.5.9 3.8-1.1 2.3-1.6 4.8-2.3 7.2-1.2.9-2.7 1.4-4.1 2-1.8-1.4-3.9-2.6-6.3-2.7.6 1.8 1.2 3.5 1.8 5.3-3.2.2-6.1-1-8.7-2.8 1.2-1 2.3-2.5 4-2.8 3.3-.7 7.3-.3 10-2.5 1.6-1.1.5-3.2.4-4.8"/><path d="m266 116c0-4.4 3.7-7 7.7-7.7-.3 4.3-3.9 6.7-7.7 7.7"/><path d="m281 113c1.5-1.6 4-3.8 6.1-1.8 2.5 2.1.3 5.1-1.2 6.9-2.2 3-6.5 3.1-8.9 5.9-1.6 1.8-3 3.8-4.5 5.6-.4-.5-1.3-1.6-1.7-2.2 3.7-2.9 3.2-7.8 5.9-11.3 2.4.7 4.9 1.4 7.4 1.8-1-1.7-2-3.4-3-5m1.6-1c.5 1.3 1 2.6 1.5 3.9 1.2-.8 2.3-1.6 3.5-2.4-1.7-.5-3.3-1-5-1.5m-6.8 6.2c0 .8.1 2.3.2 3.1.8 0 2.4.2 3.2.2-.1-.8-.2-2.4-.2-3.2-.8 0-2.3-.1-3.1-.2z"/><path d="m290 113c.9-1.4 1.8-2.9 2.7-4.3.6 1.2 1.2 2.5 1.6 3.8-1.2 1.3-2.9.5-4.4.5"/><path d="m142 113c3-1.6.2 3.3 0 0"/><path d="m256 114c2.8.3 5.5.8 8.3 1.4.1 1.1.1 2.2.2 3.3-1.1.5-2.1 1-3.2 1.5-2-1.9-3.8-3.9-5.3-6.2m4 2.2c-1 1.3 1.2 2.9 2.1 1.6 1.1-1.3-1.2-2.9-2.1-1.6z"/><path d="m109 116c1 .4 2.1.8 3.1 1.3-.5 1.3-.9 2.6-1.4 3.8-1.3 0-2.7.1-4.1.1.8-1.7 1.5-3.5 2.3-5.2"/><path d="m116 117c4.1 4.1 9 7.9 10.3 13.8-1.9.4-3.5-.4-4.8-1.6-2.2-.3-5 .1-6.1-2.3-2.7-3-.5-6.8.6-9.9m3.1 6.3c-.4 1.5-.8 2.9-1.3 4.4.7-.1 2.2-.2 2.9-.2.4-.5 1.3-1.6 1.7-2.2-1.1-.7-2.2-1.3-3.3-2z"/><path d="m97 122c1.4-1.5 3.2-2.6 4.9-3.8 2.8 1.9 5.3 4.4 7.2 7.2 3.1 4.6 7.7 7.7 12 10.8 1.6-1.4 3.2-3 5.1-4 3.4-.3 6.9.7 10.3.6 1.9-1.4 1.2-4.1 1.5-6.1-.1-2.7 1.2-5.1 2.5-7.4 1 .4 2 .8 3 1.3-.4 2-2.1 4.1-1.1 6.2 2 1.2 4.4 1.5 6.6 2.2-1.8 4-3.4 9.6-8.7 10 .2-.5.6-1.6.9-2.2 1.2-.3 2.5-.6 3.7-1 0-4.4-2.3-8-5.6-10.7-.5 2.6-.9 5.3-1.4 7.9-3.3.3-6.7.7-10 1.3 2.8 2 6 3.7 9.6 3 1.2 2.5 2.8 4.8 3.6 7.5-.1 3-2.2 5.6-3.6 8.1-7.3-.3-13.6-4.1-19.9-7.3-3.5-1.9-6.4-4.8-9.5-7.4-3.6-3.1-7-6.5-9.5-10.6-1-1.7-2.4-3.5-1.9-5.6m12.8 12.4c-.3.6-.9 1.8-1.3 2.3 3.3 2.8 6.3 6.4 10.5 7.9 3.2 1.1 4-2.5 5.2-4.6-4-3.2-8-6.7-12.7-8.8-.3.6-1 1.8-1.3 2.4-.1-.4-.4-1.1-.5-1.5-2.5-1.4-2.3 3.7.1 2.2m13.5 2.5c2 1.8 3.9 3.8 6.2 5.3 2.7 1.7 5.9 1.6 8.9 1.6-1.5-1.7-3.7-2.2-5.7-3.2-2-1.3-3.3-3.3-5.3-4.5-1.4-.4-2.8.5-4.1.8m.5 6c-1.5 3 3.4 0 0 0m10.8 2.7c.8 1.5 1.7 3 2.6 4.5.5-1.5 1-3.1 1.6-4.6-1.4 0-2.8.1-4.1.1z"/><path d="m147 124c1.1-2.1 2.6-4 4.2-5.7.7.4 2 1.2 2.7 1.6-1.9 2-4.1 3.6-6.9 4.1"/><path d="m238 119c1.6-.5 2.2 0 1.7 1.7-1.6.5-2.2 0-1.7-1.7"/><path d="m173 120c1.8-.6 2.4 2.3.6 2.7-1.8.6-2.4-2.3-.6-2.7"/><path d="m270 120c1.6-.5 2.2 0 1.7 1.7-1.6.5-2.2 0-1.7-1.7"/><path d="m182 122c1.6-.5 2.2 0 1.7 1.7-1.6.5-2.2 0-1.7-1.7"/><path d="m152 127c1.5-1.5 3-3 4.6-4.5.6 1.1 1.4 2.1 1.6 3.4-1.5 1.3-3.1 2.4-4.7 3.6-.4-.6-1.1-1.9-1.5-2.5"/><path d="m258 123c1.8 1.4 3.9 2.8 4.9 4.9.4 1.4-.4 2.9-.6 4.3-3.3-1.8-5.9-5.3-4.3-9.2"/><path d="m265 125c1.4-.9 2.9-1.7 4.3-2.6.5 1.5 1 2.9 1.3 4.4-.7 1.1-1.6 2.3-3.1 2-.9-1.2-1.7-2.5-2.5-3.8"/><path d="m131 124c1.6-.5 2.2 0 1.7 1.7-1.6.5-2.2 0-1.7-1.7"/><path d="m288 129c.4-3.9 4.1-5 7.4-5.5 0 1.5 0 2.9 0 4.4-2.5.4-4.9.8-7.4 1.1m3.7-3c.2 3.3 2.9-1.6 0 0z"/><path d="m164 125c.8.1 2.6.2 3.4.2-1.3 1.4-2.8 2.5-4.6 3.4.4-1.2.8-2.4 1.2-3.7"/><path d="m173 126c1.1-.2 2.1-.4 3.2-.5 3.2 1.9 2 6.1 2.2 9.2-2.2-2.7-3.9-5.6-5.4-8.7"/><path d="m296 127c1-.5 2-1 3-1.5.4 1.4.7 2.9 1.1 4.3-1.4 0-2.9-.1-4.3-.1 0-.7.2-2 .2-2.7"/><path d="m182 129c1.8-1.3 4.1-.9 6.1-.8-.3 7.2.7 14.6-1.4 21.6-2.3 3.7-6.5 6.1-10.7 7-4.9.1-9.8-1.4-14.7-1.3-4.2.1-8.4-.4-12.3-1.9.8-1.3 1.6-2.7 2.4-4 10.2-.4 20.2 1.3 30.4 1.6-.8-2.8-.9-5.7-.5-8.5.5-4.5-1.4-9.3.7-13.5"/><path d="m248 126c1.5 1.3 4.4 2.2 3.9 4.6-.4 2-1.3 3.8-2.1 5.6-1-1.2-2-2.4-2.7-3.8-.6-2.2.4-4.3.9-6.4m1.2 4.3c-.9 1.1-.7 1.8.8 1.9.9-1.1.7-1.8-.8-1.9z"/><path d="m159 130c3-1.6.2 3.3 0 0"/><path d="m165 135c2.3-1.4 4.9-2.1 7.4-3-2.2 2.6-4.4 5.1-6.7 7.6 1.4 0 2.8 0 4.3.2.5 1.4.4 3 .6 4.4 2.4-2.3 5-4.6 7.8-6.5-.7 3.7-2.4 7.3-5.7 9.2-3.6-1.3-7.9-1.3-10.5-4.7 1-2.4 1.6-5 2.9-7.2"/><path d="m297 133c1.9-.5 3.9-.5 5.9-.6-.9 2.3-1.8 5.3-4.6 5.9-1.5-.1-3-.5-4.4-.8.8-1.6 1.1-4 3.1-4.5m.5.1c-.4 1.2-.9 2.5-1.3 3.7 1.9-.7 3.7-1.6 4.9-3.2-.9-.1-2.8-.4-3.7-.5z"/><path d="m152 142c-1.5-4.5 4-6.2 6.8-8.5-1.4 3.4-3.8 6.3-6.8 8.5"/><path d="m171 135c.9-.1 2.8-.2 3.7-.3 0 .9-.1 2.8-.1 3.8-1.2-1.2-2.4-2.3-3.6-3.5"/><path d="m256 143c.5-4.3 4.9-7.5 9-5.3-2.1 3-5.3 5.1-9 5.3m2.7-3.2c.3 3.3 2.9-1.6 0 0z"/><path d="m256 153c2.6-5.5 6.3-10.4 11.2-13.9 1.2 1.4 2.4 2.9 3.6 4.4-4.3 4-8.7 8.6-14.8 9.5m3.9-3.3c3.8-1.7 8.6-3.6 8.9-8.6-4.7.5-7.4 4.4-8.9 8.6z"/><path d="m148 141c2.4-.9 4 2.8 1.6 3.8-2.4 1-3.9-2.8-1.6-3.8"/><path d="m153 145c.5-1.9 2.4-2.6 3.8-3.7 1.8 1.9 3.5 3.9 5 6-3-.5-6-1.1-8.8-2.4"/><path d="m327 145c.3-2.3 1.7-3.9 4-4.4.9 1.6 1.8 3.3 2.6 4.9-2.2.3-4.5 0-6.7-.5"/><path d="m246 145c2.3-.4 4.5-.8 6.8-1.2-1.3 2.4-3.3 4.1-5.5 5.5-.4-1.4-.9-2.9-1.3-4.4"/><path d="m324 146c1.9.3 3.8.5 5.7.8.1.7.2 2.2.2 2.9-1.4.4-2.8.9-4.2 1.3-.6-1.7-1.2-3.3-1.7-5"/><path d="m315 151c1.4-1.7 2.5-4.7 5.3-4 2.5.3 2.9 3.1 3.7 4.9-3 .2-6.1-.1-9-.9m4.7-3.1c-1.5.4-.7 2.7.7 2.2 1.5-.4.6-2.7-.7-2.2z"/><path d="m144 149c1.2-1.3 3.4.8 2.1 2.1-1.2 1.3-3.3-.8-2.1-2.1"/><path d="m267 155c1-2.7 3.1-4.8 5.8-5.8-.4 1.4-.8 3-1.4 4.3-1.4.7-2.9 1-4.3 1.5"/><path d="m272 160c.8-4.4 4.3-7.9 8.7-8.7-1.7 3.9-4.8 7-8.7 8.7"/><path d="m110 154c4.1-.6 7.5 1.7 10.9 3.6-.2 2.7.8 5.9-1.5 7.9-2.2 2.2-4.2 5.8-7.8 5.4.6-5.7-.5-11.4-1.7-16.9m2 .8c.4 3.5.9 6.9 1.5 10.4 1.4 0 2.8.1 4.1-.1 1.8-1 3.6-3.4 2.2-5.4-2-2.4-5.1-3.5-7.8-4.9z"/><path d="m312 153c3-.2 6-.3 9-.2-1.4 2.2-3.2 4.1-5.1 5.9-1.6-1.7-3-3.6-4-5.8m3 1.8c-.9 1.2 1.1 2.6 1.9 1.3.9-1.2-1.1-2.6-1.9-1.3z"/><path d="m297 162c4.9-1.5 9-4.5 12.8-7.9 1.1 1.8 2.3 3.6 3.2 5.5-2.1.1-4.3.2-6.4.2 1.2 1.6 2.3 3.2 3.4 4.8-2.4 1.1-4.7-.1-6.6-1.6-.5 1.3-1.1 2.6-1.8 3.8-1.7-1.4-3.1-3.1-4.5-4.8m11.7-5.6c-1.6.4-.8 3.1.8 2.4 1.6-.4.7-3.1-.8-2.4m-3 6.2c.1 3.3 3-1.5 0 0z"/><path d="m260 157c1.3-1.4 3.6.8 2.2 2.2-1.3 1.4-3.6-.8-2.2-2.2"/><path d="m129 158c6.7.9 13.3 3 19.5 5.7 1.9-.6 3.8-1.1 5.7-1.7-.9 2.9-1.9 5.7-3.1 8.5 1.3 1 3.6 2.1 2.6 4.1-2.5.7-5-.4-7.4-1 1.9 1.1 3.9 2.1 5.5 3.6 1.3 1.6 1.8 3.7 2.7 5.5 2.1.2 4.2.4 6.3.6-.1 1.8-.2 3.6-.3 5.4 1.9.8 3.9 1.6 5.8 2.3-1.6-2.1-3.3-4.1-4.7-6.3 2.5 1.3 4.8 2.8 7 4.4.9-2.5 1.8-5 2.7-7.4.9.4 1.9.9 2.8 1.4-.7 4.6-2.6 8.8-5.9 12.2-1.6 2.1-4.4 1.5-6.7 1.9 0-1.6 0-3.3-.1-4.9-1.5-.1-2.9-.2-4.4-.3.4 3.6 1.1 7.2 1.9 10.8-.6.8-1.2 1.7-1.8 2.6 1.1 3.2 2 7 .2 10-3 1.7-6.3 2.7-9.4 3.9.1-.7.2-2 .3-2.6 2.2-.9 4.8-1.3 6.6-3 .9-3.7-1.2-7.2-2.9-10.3.1 4-.8 8-2.7 11.5-1.2-.6-2.3-1.2-3.5-1.8-1.5.8-3 1.8-4.7 2.2-1.7 0-3.3-.8-4.9-1.2.8 1.8 1.6 3.7 2.4 5.6 3.8.4 7.6 1.2 11 2.8 1.3-.8 2.7-1.6 4-2.3-1.2 1.9-2.3 4.1-4.2 5.4-2.8 1.2-5.9 1.4-8.9 1.8-.4-1.9-.8-3.9-1.1-5.8-.9 2.1-1.8 4.2-2.7 6.3-2.9-.8-6-.9-8.9-.2-.6-3.6-.1-7.1.6-10.6 1.4.1 2.7.3 4.1.4.8 2.5 1.7 5.1 2.9 7.4-.5-2.6-.9-5.4-2.5-7.6-2.5-3.2-6.1-5.3-8.4-8.6-1-2.2.1-4.6.6-6.7 1.3.1 2.7.2 4 .3-.6 1.8-1.1 3.5-1.7 5.3 2.2.9 4.5 1.6 6.8 2.3-1.8-1.8-3.5-3.5-5.2-5.4 1.9-.2 3.9-.3 5.8-.4 1.1 2.3 1.8 5 3.7 6.8 1.7 1.4 3.9.8 5.8.7-1.5-1.6-3-3.2-4.5-4.8 1.8-.3 3.6-.6 5.4-.8.8 1.7 1.8 3.3 2.7 4.9.2-2.6.3-5.3.3-7.9-3 .7-6 1.4-9 2.1 1.8-4.1 2.9-8.6 3.5-13 1.4.2 2.9.4 4.3.6-.6 1.3-1.1 2.6-1.6 3.9 1.1-.2 2.1-.5 3.2-.7 0-1.6 0-3.2 0-4.8 1 0 2 .1 3.1.1.6 2.3 1.1 4.5 1.8 6.8.6.1 1.7.2 2.2.3.1-4.1.6-8.1 1.4-12-1.6 1.1-3.1 2.3-4.9 2.9-1.8.3-2.5-1.7-3.6-2.7 1.8-.5 3.6-1.1 5.4-1.5-3.3-3.2-6.3-6.6-9.9-9.4 1.5-2.7 3.1-5.3 4.8-7.8-1.4 0-2.7-.1-4.1-.1-.6-1.2-1.3-2.4-1.9-3.7.1 6.1 0 12.4-2.9 17.9 1.3 1.2 2.5 2.5 3.7 3.8-2.7 1.3-5.3.2-7.7-1.2-.4 1.6-.8 3.2-1.2 4.7-2.3-1.5-4.5-3.9-7.5-3.3-3 .2-5 2.5-7.1 4.4.3-4.2-1.4-8-2.9-11.8 2.3-3.6 6.8-4.1 10.7-3.9-2.2 1.9-4.8 3.3-7.6 4.4.3.3 1 .8 1.4 1.1 2.3-.4 4.5-.7 6.8-1.1.1 1.5.2 2.9.3 4.4 3.1-.5 6.1-1.3 9-2.2.5-4-3-6-5.3-8.5-1.1-2.9-1.2-6-1.5-9 2.1.3 4.1.5 6.1.8.5 1.4.9 2.8 1.4 4.3.2-1.8.3-3.6.5-5.4-3.3-.4-6.6-.7-9.9-1.1 0-1.4 0-2.8 0-4.2m7.1 13.6c-1.4.9.2 3.2 1.6 2.1 1.3-.9-.3-3.2-1.6-2.1m-15 9.6c-.1.8-.3 2.3-.4 3.1 2.4.5 4.9.9 7.4 1.2-.6-1.8-1.3-3.6-1.9-5.3-1.7.4-3.4.7-5 1.1m44 11.2c-1.5 1 .2 3.5 1.6 2.3 1.5-1-.2-3.5-1.6-2.3m-17.6 6.4c2.5 1.5 5 2.9 7.6 4.3-.3-1.3-.5-2.5-.7-3.8-2.3-.6-4.6-1-6.9-.6m-2.5.6c-1.4.9.1 3.2 1.4 2.1 1.4-.9-.1-3.2-1.4-2.1m-11.9 12.2c-1.7 0-1.8 3 0 3 1.7 0 1.8-3 0-3z"/><path d="m163 164c2.3-1.8 4.9-3.4 7.8-1.8-.6 1.2-1.1 2.4-1.9 3.4-3.1 1.5-6.6 1.9-9.9 2.7-.4 2.9-.8 5.8-1.1 8.7-1.1.3-2.1.6-3.1.9.2-5.4-.7-11.2 2.9-15.7 1.8.5 3.5 1.1 5.3 1.6m3.5-.7c.1 3.3 3-1.5 0 0z"/><path d="m170 166c1.2-1.9 3.1-2.8 5.1-3.4-1.2 1.8-3.1 2.8-5.1 3.4"/><path d="m267 163c1.3.7 1.3 1.3 0 2-1.3-.7-1.3-1.3 0-2"/><path d="m260 165c1.5-.5 3.1.1 4.7.1-1 3.3-4.3 3.2-7.2 3.1.8-1.1 1.5-2.3 2.5-3.2"/><path d="m272 169c.8-2.4 2.2-4.4 4.4-5.6 0 .9.1 2.6.1 3.4-1.5.7-3 1.5-4.5 2.2"/><path d="m104 168c.7-.9 1.3-1.9 2-2.8.4 1.7.8 3.4 1.3 5.1-1.2-.7-2.3-1.5-3.3-2.3"/><path d="m234 171c1.5-1.8 3-3.5 4.7-5-.3 2.3-.6 4.6-.9 6.8-1.3-.6-2.5-1.2-3.8-1.8"/><path d="m126 167c2.2.9 3.6 2.6 3.5 5.1-2.2-.9-3.5-2.7-3.5-5.1"/><path d="m160 172c2.6-.7 5.2-1.5 7.7-2.4-.2 1.9-.3 3.8-.4 5.7-2.5 0-5.1-.2-7.6-.6.1-.7.2-2 .3-2.7"/><path d="m95 170c1.3.1 2.5.1 3.8.2.4 2.2.9 4.4 1 6.6-1.3 1.2-3.1 1.2-4.7 1.7-.1-2.8-.1-5.6-.1-8.4m2.1 2.5c-1.8 0-1.8 3 0 3 1.7 0 1.7-3 0-3z"/><path d="m170 172c1.2-1.1 2.8-1.7 4.2-2.4-.6 2.3-1.1 4.5-1.8 6.7-.9 0-2.6-.1-3.5-.2.3-1.4.6-2.8 1.1-4.2"/><path d="m259 171c1.4 0 2.9 0 4.3 0-.1.7-.2 2-.3 2.6-1 .5-2 1-2.9 1.5-.4-1.4-.8-2.8-1.1-4.1"/><path d="m199 173c1-1.5 3.5.2 2.4 1.6-1 1.5-3.5-.2-2.4-1.6"/><path d="m180 174c1.4-1.2 3.1 1.4 1.6 2.4-1.5 1.2-3.1-1.4-1.6-2.4"/><path d="m206 174c3-1.6.2 3.3 0 0"/><path d="m238 179c.1-2.3 1.3-4.3 3.6-5 0 2.4-1.3 4.2-3.6 5"/><path d="m162 177c1.4-.4 2.8-.8 4.2-1.2.6 3.1 1.9 7.2-1.8 8.9-.9-2.5-1.7-5.1-2.4-7.7"/><path d="m129 180c1.1-2.9 3.8-4.5 6.8-3.5.1.8.3 2.4.3 3.2-2.4.2-4.8.3-7.2.3"/><path d="m239 179c1.7-.5 3.3-1 5-1.5-.5 1.7-1 3.3-1.5 5-1.2-1.1-2.3-2.3-3.5-3.5"/><path d="m215 182c2.8-.8 6-3 8.8-1.2 3 1.9 5.8 4.6 7.1 8-5.1 8.1-16.7 10.2-25 6.3 8.4 1.6 20 1.3 23.9-8-2.8-.3-5.6-.3-8.3-1-2.4-.8-4.3-2.7-6.4-4.1"/><path d="m101 182c.8 0 2.3 0 3 0 0 .8 0 2.3 0 3-.8 0-2.3 0-3 0 0-.7 0-2.3 0-3"/><path d="m145 182c1 .5 2 1 3 1.5-.6 2.1-.6 4.9-2.8 6.1-3.6 2.4-7.3 5.8-12 5.1-1.6.1-5.2-.9-3.1-2.9 4-1.7 8.3-2.6 12.5-3.8.8-2 1.7-4 2.5-6"/><path d="m112 184c1.3-.4 2.6-.7 3.9-1.1.5 1.4.9 2.9 1.4 4.3-1.3-.1-2.5-.2-3.8-.3-.5-1-1-2-1.5-3"/><path d="m123 190c2.2-.9 4.4-2 6.7-2.9 0 3.8-.8 7.6-3.9 10 2.7-.3 5.3-.7 7.9-1.2 0 1.6-.1 3.1-.1 4.7-3.3 0-6.7-.2-10-.7-1-1.8-1.9-3.6-2.9-5.3-1.8-.5-3.6-1-5.5-1.5 2.1 1.3 4.2 2.6 6.3 3.9-1.1 3.7-2.8 7.8-.6 11.4 2.1 2.8 6.1 4.3 6.1 8.4-2.3-1.1-5.2-1.7-6.3-4.1-1.7-2.8-3.1-5.8-4.6-8.7-.7 1.1-1.4 2.2-2.1 3.4-.8.1-2.3.3-3 .3 1.7-3.2 4.4-5.7 6.9-8.3-1.6-1.1-3.3-2.1-4.8-3.4-.5-1.6-.6-3.2-.8-4.8 3.6-.1 7.3.1 10.6-1.3"/><path d="m169 196c.7-.1 2.2-.3 3-.4 0 3.2-.1 6.5-.7 9.7-1 4.8.1 9.7-.5 14.5-2-.6-4-1.4-6.1-1.7-2 .3-3.8 1.5-5.6 2.3 2.2-7 3.4-14.6 2-21.9 1.8.2 3.6.5 5.3.7-.9 4.3-2.2 8.6-2.7 13 .7 1.8 2.3 3 3.5 4.4.3-3.8-.4-7.7.4-11.5.6-3 1-6.1 1.3-9.2"/><path d="m228 196c3-1.6.2 3.3 0 0"/><path d="m137 198c1.9-.6 2.7 2.5.8 3-1.9.6-2.7-2.5-.8-3"/><path d="m112 199c1.5-1.2 3.1 1.4 1.6 2.4-1.5 1.2-3.1-1.4-1.6-2.4"/><path d="m201 199c2.4.2 4.7.6 7 1.4-2.5.7-5.1 1.2-7.6 1.7.2-.8.5-2.3.6-3.1"/><path d="m218 201c1.3.7 1.3 1.3 0 2-1.3-.7-1.3-1.3 0-2"/><path d="m117 211c1.1 1.5 2.1 3.1 3.2 4.6-1.6-.3-3.2-.7-4.8-1 .5-1.2 1.1-2.4 1.6-3.6"/><path d="m112 217c1.2.5 2.4 1 3.6 1.4-.6 1.3-1.1 2.6-1.8 3.9-3.2.3-2.5-3.3-1.9-5.3"/><path d="m120 218c1.7-.6 3.5-1.2 5.2-1.8-.6 1.6-1.1 3.1-1.8 4.7-1.2-.9-2.4-1.9-3.5-2.9"/><path d="m106 222c.6-.2 1.8-.7 2.4-.9 0 .8 0 2.4 0 3.2-.8 0-2.4 0-3.2 0 .2-.6.7-1.8.9-2.4"/><path d="m116 224c1.1-.9 2.3-1.8 3.4-2.7.5 1.2 1 2.3 1.6 3.5-2 .7-3.9 1.8-6 1.8-1.9-.4-3.6-1.3-5.3-2 .4-.5 1.1-1.5 1.5-2 1.6.4 3.3.9 4.9 1.3"/><path d="m121 225c.8-.9 1.5-1.8 2.3-2.7.6 1.4 1.1 2.8 1.6 4.2-1.3-.5-2.6-1-3.9-1.5"/><path d="m99 223c1.7 0 3.4 0 5.2 0-1 1-1.4 3.3-3.2 2.7-.7-.9-1.4-1.8-2-2.7"/><path d="m156 223c1.5-.1 3.1-.2 4.6-.2-.1 1.9-.2 3.8-.3 5.7-2.1-1.3-3.7-3.1-4.3-5.4"/><path d="m166 223c1.3.7 2.5 1.4 3.8 2.2.1.8.1 2.3.2 3-2.4.2-4.9.2-7.3.1 1.1-1.8 2.2-3.5 3.4-5.3"/><path d="m107 226c3.3.1-1.5 3 0 0"/><path d="m100 234c2.9 1.9 6.4 2.3 9.8 1.9 2 3 4.1 6.1 7.2 8.1 0-.8 0-2.3 0-3-1.5-1.7-2.7-3.6-3.5-5.7 2.8.4 5.5 1 8.2 1.7 0 1.9.2 3.9-.1 5.8-1.7 1.9-4 3.4-6.5 4-4-.5-6-4.2-6.4-7.8-1.8.8-3.5 1.7-5.2 2.6-2.3-2-4.5-4.1-5.9-6.8.6-.2 1.9-.6 2.5-.8m19 6c-.9 1.1-.7 1.8.8 1.9.9-1.1.7-1.8-.8-1.9m-7.8 1.5c.1 3.3 3-1.5 0 0z"/><path d="m159 233c3.2 1.1 5.8 3.7 6.8 6.9.7 2.3-1.6 4-3.2 5.4-1.3 1.2-3.6 2-4.7.2.6-2.3 2.5-4 3.9-5.8-1.4-.7-2.7-1.5-3.9-2.4.2-1.5.6-2.9 1-4.3m4.2 6.8c-.5 1.6 0 2.2 1.7 1.7.5-1.6 0-2.2-1.7-1.7z"/><path d="m121 236c1.4-.4 2.8-1.1 4.3-1.2 1.6 1 3 2.4 4.5 3.7 1-1.2 2-2.4 3.1-3.6 1.8 1.4 3.8 2.7 5.3 4.5.4 1.8.4 3.7.6 5.5-.7 0-2.2-.1-2.9-.1-.6-1.6-1.1-3.2-1.7-4.8-1.4-.1-2.7-.2-4.1-.2 1.4 2.6 3.1 5 4.8 7.3-4.8 2-8.4-3.3-9.3-7.4-1.7-1-3.2-2.3-4.5-3.7m6.6 4.4c-1.2.8.1 2.9 1.3 1.9 1.2-.8-.2-2.8-1.3-1.9z"/><path d="m139 236c1.8-1.4 4.6-1.8 6.3 0-.2 2-2 3.1-3.2 4.4-1.2-1.4-2.6-2.7-3.1-4.5m2.5 1c.2 3.3 3-1.5 0 0z"/><path d="m140 248c1.5-5.8 5.9-10.6 11.4-12.9 2.1.3 4 1.2 6 1.9-.1 2.1 0 4.2-.4 6.2-1.9 2-4.4 3.3-6.7 4.7-.4-1.2-.8-2.4-1.2-3.6 1.4-.3 2.8-.7 4.2-1 0-1.6.1-3.3.1-4.9-2.6 1.2-4.3 3.4-5.8 5.7-1.7 2.5-4.9 3.1-7.5 4m5.5-7.2c-.5 1.6 0 2.2 1.6 1.7.5-1.6 0-2.2-1.6-1.7z"/><path d="m167 235c3.2 2 8.6 4 7.5 8.7-1.7 1.8-3.8 3.1-5.7 4.6-1-.4-2-.9-3-1.3.1-1 .2-2 .3-3 1.5-.4 3.1-.8 4.6-1.2 0-.5 0-1.6 0-2.1-1.7-.9-3.4-1.8-5.1-2.8.4-1 .9-1.9 1.3-2.9"/><path d="m180 240c.9-.7 1.8-1.4 2.7-2 .1 1.7.1 3.4.1 5.2-1-1-3.5-1.4-2.8-3.2"/><path d="m97 242c1.3 0 2.6 0 4 0 0 .8 0 2.3 0 3-1.3 0-2.7 0-4 0 0-.7 0-2.2 0-3"/><path d="m106 243c3.3.2-1.6 3 0 0"/><path d="m121 244c1.5-.1 3.1-.2 4.6-.3-.1 1.5-.2 3.1-.3 4.6-2.3-.5-3.8-2-4.3-4.3"/><path d="m166 252c1.3-1.4 3.6.9 2.2 2.2-1.3 1.5-3.6-.8-2.2-2.2"/><path d="m134 254c1.3-.7 2.8-.7 4.3-1.1 0 .8 0 2.5 0 3.4-1.8.8-3.5 1.5-5.3 2.3.3-1.5.3-3.2 1-4.6"/><path d="m101 255c1.7-.4 3.5-.2 5.2-.1 4.6.5 9.4-.5 13.9.9-.1.7-.3 2-.3 2.7-5.5 1.9-10.6 4.7-15.6 7.7-4.5 2.4-5.9 7.9-10.3 10.4.6-5.4 2.6-10.4 4.2-15.4.8-2.2 1.5-4.4 2.9-6.2m1 1.1c-2.5 4.7-4.4 9.7-5.3 15 5.6-6.2 13.6-8.8 20.2-13.6-.3-.4-.9-1.1-1.2-1.4-4.6.8-9.2.8-13.8-.1z"/><path d="m153 260c2.1-2.4 4.9-4 8.1-3.4-1.2 1.4-2.3 2.9-3.8 4-1.4.4-2.9-.4-4.3-.6"/><path d="m172 259c3.3.2-1.5 3 0 0"/><path d="m120 262c1.4-.4 1.9 0 1.5 1.4-1.4.4-1.9-.1-1.5-1.4"/><path d="m145 262c1.6-.5 2.2 0 1.7 1.7-1.6.5-2.2 0-1.7-1.7"/><path d="m163 265c1.5-.9 3-1.8 4.5-2.6 1.4 3 1.8 6.3 1.7 9.6-3.5-.8-5.7-3.5-6.2-7m.8 1.8c1.1 1 2.3 2.1 3.4 3.1.1-1.5.1-3 .2-4.6-1.2.5-2.4 1-3.6 1.4z"/><path d="m149 264c3.2 1.3 7 2.1 8.6 5.5-2.9-.5-5.6-1.5-8.3-2.5-.1-.8-.2-2.3-.3-3"/><path d="m105 272c1-3.2 3.5-5.3 6.8-5.9-1.7 2.5-4 4.7-6.8 5.9"/><path d="m90 268c.9-1.3 3.2.3 2.1 1.6-.9 1.3-3.2-.3-2.1-1.6"/><path d="m128 268c5.3.7 10.7 1.3 16 .8 3.4 0 5.1 3.7 5.2 6.7-2.7-1.4-5.2-3.1-7.7-4.7.1 4 3.8 5.9 6.7 7.9 1.4-1.9 1.9-5.3 4.6-5.8 4.1 2.8 7.2 6.9 10.7 10.4-.4 3.2-.2 6.6 2.7 8.7-1.3 2.2-2.8 4.2-4.5 6.1 2.3-1.2 4.5-2.4 6.9-3.4.6 3 1.8 6 1.3 9.1-1.5 3.5-3.6 6.8-4.4 10.6-1.6 0-3.2 0-4.8 0-.8.8-1.7 1.5-2.5 2.3 2.2-.2 4.4-.3 6.5-.5-1 1.7-1.6 4-3.6 4.9-2.3 1.1-5 .8-7.5.9 1.2-2.2 2.7-4.3 3.8-6.6 1.1-3 .6-6.3 1.8-9.2 1.4-2.7 4.7-3.2 7.3-4.2.1-.6.4-1.7.6-2.3-4.3 1.5-8.7 4-10.8 8.3-.7 2.3.4 5-1.1 7-2.5 3.7-4 8.6-8.5 10.5-.2-1.8-.4-3.6-.7-5.5-.8 3.5-1.3 6.9-2 10.4-1.3-1.4-2.5-2.7-3.7-4.1-1-.1-2-.3-3-.4.5 1.9 1.1 3.9 1.6 5.8-1.8-.2-3.6-.7-5.4 0-1.5.3-3.1 1.6-4.5.5-1.9-1.1-3.5-2.6-5.1-4-1.5.6-3.1 1.2-4.6 1.8-.6-3.1-1.3-6.2-2.2-9.2-.5 1.9-1.1 3.8-1.6 5.6-3.1-1.6-3.3-5-3.4-8.1-1.1.4-2.3.9-3.4 1.3-1.9-2.1-4-4.1-6.1-6 .1-2.7.2-5.5-.3-8.2-.5-2.2-2-4.1-1.9-6.5 0-2.9 1.8-5.3 3-7.8 2.2.3 4.3.6 6.5.9-1.8-1.9-3.5-3.8-5.2-5.7-1.5 1.5-3 2.9-4.5 4.2.7-2.1 1.5-4.1 2.3-6.2 1.8 0 3.6 0 5.5-.1-.5-1.4-1.1-2.9-1.6-4.3 1.4-1 2.9-2 4.3-3 .8 1.2 1.5 2.4 2.4 3.4 1.4.3 2.4-1 3.5-1.5-1.5-1.2-3.8-1.8-4.3-3.9 2.4-1.6 5.1-2.6 7.8-3.4.9 3.8.3 8.2 2.5 11.6 2.2.1 4.4-.2 6.6-.3.1-.7.3-2.1.4-2.8-2.2.7-4.5 1.4-6.8 2-.3-4-.1-8.1.5-12 .6.1 1.7.3 2.3.4.7 1.2 1.5 2.4 2.2 3.6.8-.2 1.6-.4 2.3-.6-.6-1.8-1.2-3.5-1.8-5.3m6.4 6.9c1 .9 1.9 1.9 2.9 2.8.3-2 .6-4.1.9-6.1-1.3 1.1-2.5 2.2-3.8 3.3m-2.9-1.2c-.4 2.2-.9 4.4-1.4 6.6 1.3-.1 2.5-.3 3.8-.4 0-2 0-4 0-6-.6 0-1.8-.1-2.4-.2m-5.3 1.6c-1.3.9.2 3.2 1.5 2.1 1.4-.9-.2-3.2-1.5-2.1m27 1.1c-1.4 1.3.9 3.6 2.2 2.2 1.4-1.3-.9-3.6-2.2-2.2m-11.6.1c.1 1.6.1 3.2.2 4.8-1.4-.1-2.9-.4-4.3-.3-1.3 1.1-2.3 2.4-3.4 3.6 1.7.8 4.7.8 4.9 3.2-4.1 1.1-8.3 1.6-12.2 3.1 0 1.6 0 3.3 0 4.9 4-1.3 8.6-1.3 12-3.8.8-1.8 1.1-3.8 1.5-5.8 1.9 0 3.7 0 5.6 0-1.3 1.8-2.5 3.5-3.7 5.3 2-.1 4-.3 5.9-.4-1.1 1.5-2.2 3-3.3 4.5 1 .8 2 1.6 2.9 2.4-.8 2.5-.5 5.2.3 7.6-3.4-.9-6.9-1.1-10.3-.1-.1-3.3-.1-6.5-.2-9.8-1.1 1.8-2.2 3.7-3.5 5.3-3.3-.3-6.5-1.1-9.7-.3.9 2 .9 5.3 3.6 5.6 2.3-.2 4.5-1 6.7-1.6 1.4.9 2.8 1.8 4.2 2.7 1.9-.3 4.3-1.9 5.9-.3 0 1.5-.5 3.6-2.3 4-3.5.4-6.6-1.5-9.6-2.9-.7.9-1.4 1.7-2.2 2.6 2.6.3 4.9 1.4 6.8 3.1 1.2-.2 2.5-.4 3.7-.7 1 1.5 2 3.1 2.9 4.6 2.8-.9 6.6-1.3 7.9-4.4-.3-4.5-3.3-8.7-2.3-13.3.4-2 .3-4.1 1.1-6 2.6-1 5.6-.6 8.4-.8-.3-2.9-.4-5.8-.6-8.7-2.6 2.5-5.2 4.9-7.9 7.3-.8-1.2-1.5-2.4-2.3-3.6 1.5-.9 3-1.8 4.5-2.7-2.2 0-4.3 0-6.5-.1.4-.9.8-1.8 1.2-2.6 2.2-.6 4.3-1.3 6.4-2-3.5-2.4-6.7.9-9.6 2.6-1-2.4-2-4.9-3.1-7.2m-32.9 5.3c1.4 1.3 2.9 2.4 4.4 3.5-.5-2.2-2.6-2.8-4.4-3.5m3.6 7.3c-.2 3.4 3.1 5.4 5.4 7.2-1 3-1.9 5.9-2.7 9 2.2-2.9 4.2-5.9 6-9-1.9-1.8-3.8-3.6-5.5-5.5 1.4-.3 2.8-.6 4.2-1-1.3-.7-2.6-1.3-3.9-2 1.1-1.9 2.2-3.9 3.2-5.9-2.6 2-6.4 3.6-6.7 7.3m42.8-6.8c-.5 1.6 0 2.2 1.7 1.7.5-1.6 0-2.2-1.7-1.7m-24.8 1.8c-.9 1.2 1.1 2.6 1.9 1.4 1-1.2-1.1-2.6-1.9-1.4m-9.5 3.9c2.7 1 5.7 1.4 7.8-1.1-2.7-1.2-5.4-.5-7.8 1.1m1.3 3.4c.3 2.7.8 5.3 1.2 7.9.9-1.7 1.8-3.4 2.7-5-1.3-1-2.6-1.9-3.9-2.9m7.5 4.7c.2 1.3.4 2.7.6 4 1.8-.2 3.6-.8 5.3-1.7-.6-1.3-1.3-2.5-1.9-3.8-1.3.5-2.7 1-4 1.5m-25.5-.6c1.3 1.9 2.7 3.8 4.2 5.4 0-1.5.6-3.1 0-4.5-1.4-.4-2.8-.7-4.2-1m36.8 0c-.2 2.5 0 5 .7 7.4.9-2.5 2.5-5.8-.7-7.4m13.7 3.4c-1 1.5-1.1 3.4-1.6 5.1 2.2-1.4 4.3-2.9 6.5-4.3 0-.8.1-2.4.1-3.2-1.7.7-3.6 1.3-5.1 2.4m-48.6 3.3c-1.2 1.4 1.3 3.2 2.3 1.7 1.2-1.4-1.3-3.2-2.3-1.7m10.5 11.8c2.7.3 5.6 1.4 8.2.2 2-1.1 3.3-3.1 4.8-4.8-2.8 1.5-5.6 4.1-9 3.1 1-1.6 2.3-3.1 3-4.9-.1-2.1-1-4-1.5-5.9-1.5 4.3-5.8 7.4-5.4 12.3m44-3.6c2.4-1.2 4.4-3.1 5.8-5.4-2.4 1.2-4.5 3-5.8 5.4m-55-2.5c1.3 3 2.7 6 3.8 9 1.7-1.2 3.4-2.4 5.2-3.5-2-.8-3.9-1.6-5.8-2.6-.2-2.5 3.4-2.3 5-3.4-.3-.3-1-.8-1.3-1.1-2.3.5-4.6 1.1-6.9 1.6m21.8 8c.3 2.6.6 5.3.8 7.9.5-.1 1.4-.2 1.8-.3-.4-2.8-.7-5.6-1-8.5-.4.2-1.3.6-1.7.8m-11-.1c.7 2.9 2.9 4.8 5.6 5.8-1.4-2.3-3.3-4.3-5.6-5.8m16.4 0c-.3 1.2-.7 2.3-1 3.5 1.6-.8 3.3-1.7 4.6-3-.9-.1-2.7-.4-3.5-.5m3.9 2.7c1.2 2.5 2.7 4.8 4.4 6.9-.6-2.9-1.2-5.7-1.3-8.6-1.1.6-2.1 1.1-3.2 1.7m-15.3 7.3c1-.4 2-.8 3-1.2.1-1.4.1-2.8.1-4.1-2.4.8-2.6 3.3-3.2 5.4m10.8-3.9c0 1.2.1 2.4.1 3.6-1.7 1-3.4 2-5.1 3.1 3.5-.1 6.7-1.4 8.6-4.4-.8-1.1-1.6-2.1-2.4-3.1-.3.2-1 .6-1.3.8z"/><path d="m159 268c1.8-.6 2.4 2.3.7 2.7-1.8.6-2.4-2.3-.7-2.7"/><path d="m181 275c2.2-2.5 5.4-3.7 8.7-3.9 1.5 4.2 3.7 8.9 8.6 10 .8 4.8 1.2 9.9 3.9 14-3.6-2.8-3.9-7.6-5.6-11.5-3.9-.7-7.5 1.7-11.3 1.7-2.9-1.4-3.8-4.8-5.1-7.4 3-.8 6-1.6 9-2.3-2.7-.2-5.4-.4-8.1-.7m2.2 3.8c-1.1 1.2 1 2.5 1.8 1.3 1.1-1.2-1-2.5-1.8-1.3m3.9.9c-.8 0-2.4 1.3-1.1 1.9 1.3.3 3.2 0 3.9-1.3-.2-1.2-2-.8-2.8-.6m1.8 2c-1.3-.6-2.3 1.7-.8 2.1 1.3.6 2.3-1.7.8-2.1z"/><path d="m167 277c1.5 0 3 0 4.5.1-.4 1.2-.8 2.4-1.2 3.6-1.1-1.2-2.2-2.4-3.3-3.6"/><path d="m94 281c1.7-.9 3.3-1.9 5-2.8-.5 2-1.1 4-1.7 6-1.1-1.1-2.2-2.1-3.3-3.2"/><path d="m174 281c3-1.5.1 3.3 0 0"/><path d="m173 285c1.8-.6 2.4 2.3.6 2.7-1.8.6-2.4-2.3-.6-2.7"/><path d="m174 290c1.3-1.1 2.9 1.2 1.6 2.1-1.3 1.1-2.9-1.2-1.6-2.1"/><path d="m91 292c1.3-1.4 3.7.8 2.2 2.1-1.3 1.5-3.6-.8-2.2-2.1"/><path d="m191 294c1.5-.1 3.3-1.3 4.7-.1 3.7 2.9 6.2 7.1 8.3 11.2-1.4.3-2.8.8-4.2.9-3.7-3.3-6.7-7.5-8.8-12m2.2.8c1 2.9 2.6 5.8 5.7 6.9-.4-1.8-.6-3.7-1.6-5.2-1.3-.7-2.7-1.2-4.1-1.7m6.6 8.4c.2 3.3 3-1.6 0 0z"/><path d="m177 296c1.6-.5 2.3 2.1.7 2.5-1.6.5-2.3-2.1-.7-2.5"/><path d="m181 298c1.6-.5 2.2 0 1.7 1.7-1.6.5-2.2 0-1.7-1.7"/><path d="m88 300c2.3-1.4 4.7-.3 5.9 1.9-2.8 1.2-5.5 2.6-8.4 3.3-2.8-1.6.6-4.6 2.5-5.2"/><path d="m175 309c1.6-.5 2.2 0 1.7 1.7-1.6.5-2.2 0-1.7-1.7"/><path d="m145 311c1.2-.9 2.7-1.1 4.1-1.7-.3 1.6-.4 3.2-.9 4.8-.8 1.8-3.1 1.6-4.7 2.1.4-1.7.4-3.7 1.5-5.2"/><path d="m90 311c1.6-.2 3.2-.3 4.8-.4-.1.9-.3 2.8-.3 3.7-1.7-.8-3.2-1.9-4.4-3.3"/><path d="m199 317c2.6-1.9 5-4.3 8.2-5.2 5 .3 8.5 4.4 12 7.5-3.7 2.9-7.7 5.4-11.9 7.5-2.7-3.4-5.4-6.7-8.4-9.8m6.1-2.5c.8 1.5 1.9 2.9 3.1 4.1-.9-1.5-2-2.8-3.1-4.1m4.8 4.4c-1.1 1.1.8 3.1 1.9 2 1.1-1.1-.8-3.1-1.9-2z"/><path d="m173 317c-.9-2.1-.3-3.7 1.8-4.7.6 1.2 1.1 2.4 1.7 3.6-1.1.4-2.3.7-3.4 1.1"/><path d="m95 316c3-1.6.1 3.3 0 0"/><path d="m171 319c1.3-1.1 2.8 1.3 1.4 2.1-1.3 1.1-2.8-1.3-1.4-2.1"/><path d="m165 325c1.2-1.3 2.4-2.5 3.7-3.7 0 1.4 1.3 3.3-.4 4.2-1.1-.1-2.2-.3-3.3-.5"/><path d="m152 326c1.4-.7 2.9-1.5 4.4-2.2 0 1 .1 2.9.2 3.8-1.5-.5-3-1.1-4.5-1.6"/><path d="m98 326c1.6.1 3.4-.1 4.6 1.2.6 1.4.9 2.9 1.2 4.4-2.1-1.7-4.1-3.5-5.8-5.6"/><path d="m147 327c1.1.8 2.2 1.5 3.3 2.3-1.6.5-3.2.9-4.7 1.4.5-1.2 1-2.5 1.5-3.7"/><path d="m160 329c1.8-.6 2.4 2.3.6 2.7-1.8.6-2.4-2.3-.6-2.7"/><path d="m105 331c.8 0 2.4 0 3.2 0 0 .8 0 2.4 0 3.2-.6-.2-1.8-.7-2.4-.9-.2-.6-.7-1.8-.9-2.4"/><path d="m109 334c1.6-.5 2.2 0 1.7 1.7-1.6.5-2.2 0-1.7-1.7"/><path d="m113 335c.8-1.2 2.9.1 1.9 1.3-.8 1.2-2.8-.2-1.9-1.3"/><path d="m151 335c1.4.8 4.2 1 3.5 3.3-1.3 1.5-3.4.6-5.2.6.6-1.3 1.1-2.6 1.7-3.9"/><path d="m122 337c1.6-.5 2.3 2.1.7 2.5-1.6.5-2.3-2.1-.7-2.5"/><path d="m134 342c0-2.4 2.4-3.2 4.1-4.2 2.8 5.2 3.1 11.2 2.7 16.9-.1 2.5-2.8 3.6-4.4 5.1.3.3.8.9 1.1 1.2 1.5-.5 2.9-.9 4.4-1.4.5 2 .6 4 .6 6.1-4-.2-7.6-3.3-7.7-7.4-.2-5.4-1.4-10.9-.8-16.3m2.4.5c-1.9.4-1.1 3.5.8 2.9 1.9-.4 1.1-3.5-.8-2.9m1 3.9c-1.3.7-1.3 1.4 0 2 1.3-.7 1.3-1.4 0-2m-.9 4.1c-1.2 1.4 1.3 3.1 2.3 1.7 1.2-1.5-1.3-3.2-2.3-1.7m.2 4.1c-1.5 1.3.8 3.6 2.2 2.2 1.5-1.3-.8-3.6-2.2-2.2z"/><path d="m125 339c1-1.5 3.5.2 2.4 1.6-1 1.5-3.5-.2-2.4-1.6"/><path d="m150 341c.6-.2 1.8-.7 2.4-.9 0 .8 0 2.4 0 3.2-.8 0-2.4 0-3.2 0 .2-.6.7-1.8.9-2.4"/><path d="m127 343c1.8-.6 2.4 2.3.7 2.7-1.8.6-2.4-2.3-.7-2.7"/><path d="m149 346c.8 0 2.4 0 3.2 0 0 .8 0 2.4 0 3.2-.6-.2-1.8-.6-2.4-.9-.2-.6-.7-1.8-.9-2.4"/><path d="m149 353c1.3-1.4 3.6.9 2.1 2.2-1.3 1.5-3.6-.8-2.1-2.2"/><path d="m197 356c3-1.6.2 3.3 0 0"/><path d="m149 357c1.1.1 2.2.4 3.4.6-1.2 1.2-2.4 2.4-3.7 3.6 0-1.4-1.1-3.2.3-4.2"/><path d="m169 363c1-3.4 4.3-3.4 7.3-3.2-1.7 2.4-4.6 2.9-7.3 3.2"/><path d="m161 361c1 .3 2 .7 3 1-.4.6-1.1 1.6-1.5 2.2-1-.4-1.9-.8-2.9-1.2.3-.5 1-1.5 1.3-2.1"/><path d="m83 362c.4-1.3 2.8-.7 2.3.7-.5 1.3-2.8.7-2.3-.7"/><path d="m151 362c1.9-.6 2.7 2.5.8 3-1.9.6-2.7-2.5-.8-3"/><path d="m157 362c1.4-.6 2.2 1.8.7 2.2-1.4.5-2.2-1.8-.7-2.2"/></g><g style="fill:#4b4b4a"><path d="m81 54c3.6.7 7.4 1.7 9.7 4.9-3.7-.4-7-2.3-9.7-4.9"/><path d="m181 99c1.2-.2 2.4-.3 3.6-.4-1.7 1.4-3.4 2.7-5.3 4 .5-1.2 1.1-2.3 1.6-3.5"/></g><g style="fill:#050505"><path d="m159 69c1-.8 2-1.6 3-2.5.8.8 1.7 1.5 2.5 2.3-1.4 1.1-2.9 2.1-4.3 3.2-.4-1-.8-2-1.2-3"/><path d="m149 79c1.2-3 3.6-5.3 6.3-7 .4.7 1.2 2 1.6 2.7-2.4 1.8-5 3.3-7.9 4.3"/><path d="m138 85c1.1-3.2 3.6-5.5 6.9-6.1-1.2 3.1-3.9 5.1-6.9 6.1"/><path d="m130 90c1.3-1.3 2.8-2.4 4.2-3.4.4 1.2.8 2.3 1.2 3.5-1.6 1-5.4 3.5-5.5-.1"/><path d="m164 97c.2-.5.7-1.4 1-1.8.5-.1 1.6-.3 2.1-.4-1.2 1.7-2.6 3.2-4.1 4.6.3-.6.8-1.7 1.1-2.3"/><path d="m98 111c2.1-1.1 4.2-2.1 6.3-3.1.2 1 .5 2 .7 3.1-1.8 1-3.6 2-5.4 3.1-.6-1-1.1-2-1.7-3"/><path d="m136 172c1.3-1 2.9 1.2 1.6 2.1-1.3 1.1-2.9-1.2-1.6-2.1"/><path d="m133 212c1.7 0 1.7 3 0 3-1.7 0-1.7-3 0-3"/><path d="m134 275c1.3-1.1 2.5-2.2 3.8-3.3-.3 2-.6 4-.9 6.1-1-.9-1.9-1.8-2.9-2.8"/><path d="m126 275c1.3-1.1 2.9 1.2 1.5 2.1-1.3 1.1-2.9-1.2-1.5-2.1"/><path d="m153 277c1.3-1.4 3.6.9 2.2 2.2-1.3 1.4-3.6-.9-2.2-2.2"/><path d="m187 280c.8-.2 2.7-.6 2.8.6-.8 1.2-2.6 1.6-3.9 1.3-1.3-.6.3-1.8 1.1-1.9"/><path d="m109 282c1.8.7 3.9 1.4 4.4 3.5-1.5-1.1-3-2.2-4.4-3.5"/><path d="m155 282c1.6-.5 2.2 0 1.7 1.7-1.6.5-2.2 0-1.7-1.7"/><path d="m122 292c1.3 1 2.6 1.9 3.9 2.9-.9 1.7-1.8 3.4-2.7 5-.5-2.6-.9-5.3-1.2-7.9"/><path d="m141 296c3.1 1.6 1.6 4.9.7 7.4-.7-2.4-.8-4.9-.7-7.4"/><path d="m106 302c1-1.5 3.5.3 2.3 1.7-1 1.5-3.5-.3-2.3-1.7"/><path d="m161 310c1.3-2.4 3.4-4.2 5.8-5.4-1.4 2.3-3.4 4.2-5.8 5.4"/><path d="m106 308c2.3-.5 4.6-1 6.9-1.6.3.3 1 .8 1.3 1.1-1.6 1.1-5.2.8-5 3.4 1.8 1.1 3.8 1.8 5.8 2.6-1.8 1.1-3.5 2.3-5.2 3.5-1.1-3.1-2.5-6-3.8-9"/><path d="m205 314c1.2 1.3 2.2 2.7 3.1 4.1-1.3-1.2-2.3-2.6-3.1-4.1"/><path d="m128 316c.4-.2 1.3-.6 1.7-.8.3 2.8.6 5.7 1 8.5-.5.1-1.4.2-1.8.3-.3-2.7-.6-5.3-.8-8"/><path d="m117 316c2.3 1.4 4.2 3.4 5.6 5.8-2.7-1-4.9-2.9-5.6-5.8"/><path d="m133 316c.9.1 2.7.4 3.6.5-1.3 1.3-2.9 2.2-4.6 3 .3-1.2.7-2.3 1-3.5"/><path d="m137 319c1-.6 2.1-1.1 3.2-1.7.1 2.9.7 5.8 1.3 8.6-1.7-2.1-3.2-4.4-4.4-6.9"/><path d="m122 326c.6-2 .8-4.6 3.2-5.4 0 1.4-.1 2.7-.1 4.1-1 .4-2 .8-3 1.2"/><path d="m133 322c.3-.2 1-.6 1.3-.8.8 1.1 1.6 2.1 2.4 3.1-2 2.9-5.2 4.3-8.6 4.4 1.6-1.1 3.3-2.1 5.1-3.1 0-1.2-.1-2.4-.1-3.6"/><path d="m136 342c1.9-.6 2.7 2.5.8 2.9-1.9.6-2.7-2.5-.8-2.9"/><path d="m136 350c1-1.5 3.5.2 2.3 1.7-1 1.5-3.5-.2-2.3-1.7"/></g><g style="fill:#2e2e2d"><path d="m110 135c-2.4 1.5-2.7-3.6-.1-2.2.1.4.4 1.1.5 1.5l-.4.7"/><path d="m124 143c3.4 0-1.5 3 0 0"/><path d="m165 192c1.4-1.2 3.1 1.3 1.6 2.3-1.5 1.2-3.1-1.4-1.6-2.3"/><path d="m131 284c.8-1.2 2.8.2 1.9 1.4-.8 1.2-2.8-.2-1.9-1.4"/><path d="m210 319c1.2-1.1 3 .9 1.9 2-1.1 1.1-3-.9-1.9-2"/></g><path d="m246 180c3-1.5.1 3.3 0 0" style="fill:#878787"/></svg>