<svg xmlns="http://www.w3.org/2000/svg" viewBox="0 0 401 382" style="enable-background:new 0 0 401 382"><g style="fill:#7f7d75"><path d="m226 44.8c6.2-3.7 12.8-7.1 19.9-8.9 6.2-.8 11.8 3.1 16.7 6.4-4.1-1.7-8-3.6-12.3-4.9-4.7-1.7-9.1 1.8-13.4 3.3-5 1.9-9.2 5.2-13.9 7.6-5-.2-10-2.8-15-.5-7.1 2.3-8.4 10.8-8.9 17.3-.2 8.4-3.1 16.5-2.3 24.9.3 4.9 1.1 10 0 14.8-.4 2.3-2.7 3.3-4.5 4.4-6 3.2-11.5 7.3-17.6 10.3-4.2 2-7.8 5-11.9 7.1-3.1 1.6-6.6 1.3-9.9 1.3-1.1 1.2-2.1 2.4-3.2 3.7-3.5-2.9-5.3-7.2-5.3-11.8 4.6.7 9.1 2.5 13.8 2.4 3.2-1.7 6.4-4.4 7.5-7.9.1-4.1-4.7-5.5-7.5-7.5-.1 1.8-.2 3.6-.4 5.4-2.2-2-4.1-4.1-6-6.3 1.8.2 3.6.4 5.4.6-.6-1.7-1.2-3.4-1.8-5 4 1.5 7.9 3.3 12.2 3.8 2.8.3 5.3-1.8 6.7-4 0-2.2-.6-4.3-1-6.4-2.7-.1-5.5-.2-8.2-.3.9-2 1.5-5.2 4.3-5 2.4.8 4.2 2.8 6.1 4.4.3-.2.8-.7 1.1-.9-1.8-5.3-7.6-8.1-8.7-13.7-1.4-6.1-2.4-12.3-4-18.4-1.5-5.5-7.3-8.2-12.3-9.8-9.5-3.3-19.8-3.5-29.7-2-6 2.1-10.7 6.8-16.5 9.5 5.7-4.3 10.9-10.3 18.3-11.7 8.2-.6 16.5-.4 24.5 1.7 6.9 1.5 14.2 5 17 11.9 2.4 7.6 1.9 16.5 7.1 23 2.1 3.2 5.7 6.3 4.7 10.5-1.1 4.1-1.9 8.8-5.4 11.6-2.5 2.1-6 1.2-9 1 2 2.5 5.8 5.4 3.9 8.9-1.9 3.5-4.8 6.8-8.5 8.3-4 .5-8-.6-12-1.1.8 1.7 1.6 3.5 2.4 5.2 5.2-1.9 11-2 16-4.5 9.8-5.4 19.3-11.3 28.7-17.3 1-.7 1.9-1.7 2-2.9.9-6-.6-12.2 0-18.2.5-5.4 1.4-10.8 1.9-16 .6-5.3.8-10.8 3-15.8 1.8-4.1 6.1-6.8 10.5-7.3 5-.7 10.5 1.9 15-1"/><path d="m258 45c2.3.3 4.5.7 6.8.9-.8 0-2.3 0-3-.1.9 1.2 1.8 2.4 2.7 3.6-2.2-.5-4.4-1-6.6-1.5 0-.7.1-2.2.1-2.9"/><path d="m255 50.6c2.5.5 4.9 1.1 7.4 1.4-.7 1.1-1.4 2.1-2 3.2-1.5-.5-3-1-4.5-1.5-.3-1.1-.6-2.1-.9-3.1"/><path d="m129 52c3.1 2.1 6.3 4.7 6.5 8.7-3 1-6 1.9-9 2.9-2.6.8-4.1 3.1-5.9 4.9-2.7-2.2-5.9-3.3-9.1-4.5-1.1-1.9 1.6-2.3 2.9-2.6 2.5.1 4.5 1.8 6.7 3-1.3-1.6-2.6-3.2-3.9-4.8.5-.3 1.6-.9 2.1-1.2 1.4 1.1 2.9 2.1 4.3 3.2-1.2-2-2.4-4-3.5-6 2.3 0 4.7-.1 7 .4 1.7.7 2.8 2.2 4.1 3.4-1.3-2.2-2.4-4.6-2.3-7.2"/><path d="m108 60c.6.2 1.8.5 2.4.7.2.6.5 1.8.7 2.4-.8 0-2.3 0-3.1 0 0-.8 0-2.3 0-3.1"/><path d="m203 60.9c2 .7 4.7 1.5 5.1 4 .1 3.9.4 8-.8 11.8-.9 2.6-.8 5.4-.7 8.2-1 .4-2.1.8-3.1 1.2-.4 1.5-.8 3.1-1.3 4.7-1.3-1.2-3.6-2.2-3.3-4.4.2-4.9 5-8.1 5.1-13 .6-4.2-.2-8.4-1.1-12.5"/><path d="m103 70c.8-2.2 2.4-3.9 4.1-5.6-.3 4.7-1.9 9.3-4.2 13.4-3.1 5.4-3.1 11.9-6.4 17.2-2.5-.7-5-1.6-7.7-2-3.9-.6-8.2 1.2-10 4.8-2.9 5.1-3.4 11-5.7 16.4-3.1 7.2-6 14.6-7.9 22-1.5 5.9 1.2 11.7 3.7 16.9 2.3 4.8 6.5 8.2 9.9 12.1 2.4 2.6 2.8 6.3 3.4 9.7.7 4 1.9 7.9 3 11.9-1.8 2.3-3.7 4.5-5 7.1-1.2 3-1 6.4-2 9.5-1 3.7-3.1 7.2-3.1 11 0 3 .4 6.1 1.4 9 1.4 3.9 4.8 6.5 6.6 10.2 1 4-.3 8.5 1.9 12.2 1.9 3.6 3.8 7.1 5.4 10.9 1.5-.9 3.1-1.9 4.7-2.8-1.2 4.1-2.8 8-4.5 11.9-5.6-1.2-11.3-2.5-17-1.4-3.9.7-7.9.1-11.8-.3-3.7-.4-7 1.8-10.7 1.6-4.2-.3-8.4-1.3-12.7-.8-5 .5-10 .4-14.9-.3-3.1-.5-5.8 1.2-8.5 2.4.3 5.4.9 10.8 1.9 16 1.4 7.4.1 14.8.7 22.3.4 4.8-.4 9.9 1.5 14.5.7 2.1 3.2 1.5 4.9 1.6 4.4-.1 9.7-2.1 10.8-6.9 1.5-4.6-2.6-8.3-3.6-12.5 1.1-3.4 3.5-6.6 6.6-8.3 5-1.7 10 1.2 14.6 2.8 4.8 2.1 10-.4 15 .5 3.4.6 6.9 1.3 10.3.8 6.1-.8 12.2.3 18.3-.8 4.6-.9 9.2 1.3 13.8.8 3.3-1.1 5.8-3.5 8.7-5.3 3.7-2.6 8.2-4.5 10.9-8.3 2.1-3.1 2.1-6.9 2.6-10.5.6-5.5 4.1-10 5.3-15.3 1.9-5.6.2-11.7 2.2-17.3 1.2-3.2.1-6.6-.6-9.8 1.7 0 3.5-.4 5 .5 7.3 3.9 13.7 9.1 21 13 5.7 2.6 11.6 4.6 17 7.4-1.6 5.9-4.1 11.8-8.7 16 1.9-5 4.6-9.6 6.7-14.4-5.8-3.6-12.5-5.3-18.4-8.8-6.8-4.2-13.3-8.8-20.4-12.4.1 3.9-.1 7.7-.7 11.5-.8 4.8.3 9.9-1.5 14.6-1.6 4.8-4 9.4-5 14.4-1.1 4.5-1.6 9.4-4.4 13.3-2.7 3.6-7.2 4.9-10.8 7.3-3.1 1.8-5.6 4.6-9 5.7-4.7.1-9.3-1.7-13.9-.7-6 1.2-12.2-.2-18.3.6-3.4.4-6.9-.1-10.3-.6-4-.7-8 .5-12 .2-5-1-9.6-4.3-14.8-3.6-2.8.2-5.3 2-6.5 4.5-1.6 2.7 1.2 5.4 1.9 8 2.5 4.3-.4 9.3-3.8 12-3.7 3-8.6 2.9-13 3.2-1.1-2.7-2.2-5.5-2.7-8.4-1-7.9-1.4-15.9-.7-23.9-.2-8-2.2-15.8-2.6-23.8 2.9-2 6-4.6 9.7-4.4 5 .2 10 .2 15 .1 5.6-.3 11 1.6 16.7.6 6.6-1.3 13.3-.1 19.9-.9 5.4-.7 10.7.4 16 1.4-.5-3.3-1-6.7-2.5-9.7-1.5-3.1-3.8-5.8-5.2-8.9-1.6-3.6-.7-7.6-1.9-11.3-1.6-4.1-5.2-7-6.5-11.3-.7-2.7-1-5.4-1-8.2 0-3.9 1.8-7.4 2.7-11 .7-2.9.9-5.9 1.8-8.7 1.2-2.9 3.6-5.2 4.8-8-.6-4.6-2.5-9-2.9-13.7-.2-3.9-2.8-6.9-5.3-9.6-5.1-5.6-9.3-12.2-11.6-19.4-1.1-3.1-.2-6.3.7-9.3 1.9-6.3 3.8-12.6 6.7-18.5 3.6-7.2 3.6-16.3 9.7-22 4.3-3.7 10.4-2.3 15.5-1.4-.7-3.2-1.6-6.5-.7-9.8 1.5-5.6 3.3-11.2 5.7-16.5-1.8 7-4.2 14-5.6 21 3.7-5.3 5.8-11.5 8-17.5"/><path d="m111 67c2.6-.9 5.3-.1 7.7 1-1.2 2.5-2.4 5.1-3.7 7.6-2.8-.7-5.4-2.2-7.2-4.6 2.5-.3 5-.2 7.5.1-1.5-1.4-3-2.8-4.3-4.2"/><path d="m218 67c.9-.4 1.9-.9 2.8-1.3.5 2.6 1.3 5.3.5 7.9-.6 1.3-2 .9-3.1 1 .3-2.5.2-5.1-.2-7.6"/><path d="m276 71c3.2-1 6.7-2.8 10-1.4 5.3 1.8 10.9 6.1 10.7 12.3-.3 5.5-2.4 10.6-4.3 15.7-3.1 6.2-3.9 13.7-9.3 18.6 1 2 1.8 4.2 3.3 6 4.8 2.8 10-.7 14.9-.8 6.7 3.9 9.4 11.8 12.5 18.5-4.8-5.6-7.2-12.8-12.9-17.8-4.4 2-9.2 4.1-14 2.5-3.8-.7-3.3-6.9-7.5-6.9-2.3.5-4.1 1.9-6.2 2.9-1.4-3.9 2.6-7.4.4-11.3-1.5 1.3-3 2.6-4.4 3.9-1.2-1.3-2.3-2.5-3.5-3.8-1.6.2-3.1.4-4.7.7-.1-1.2-.1-2.5-.2-3.7 4.4.5 8.9.8 13.3 0-1.1-2.6-5-5.8-2.1-8.6 3.1-3.7 9.6-.5 9.6 3.9.2 4.6-.8 9.2-1.3 13.7 1.8-1.3 3.8-2.3 5.1-4.1 1.2-2.2 1.4-4.7 2-7 .9-4.5 4.4-7.8 5.3-12.2 1.2-4.8 3.8-10 1.5-14.8-2.1-4.7-7.4-6.4-11.9-7.6-.5 2-.2 4.9-2.6 5.8-3.5 1.8-7.3 2.9-11 4.2-.3-.9-.6-1.9-.9-2.8 3.9-1.5 7.7-3.1 11.3-5.3-6 .8-12.3 2.5-17 6.4-4.5 3.7-9.9 6.8-12.5 12.2-.3 3.8 1.4 7.4 2 11-3.1 1.5-6 3.4-8.5 5.8 3.6 0 7.8-.2 9.9-3.5 1.2-.3 2.5-.6 3.7-.8-1.3-1.8-2.8-3.6-3.7-5.7-.4-2 .1-4.2.2-6.2 3.7.4 7.4.8 11.1 1.2.2 1.1.3 2.2.5 3.3-2.3.1-4.6.3-7 .4 1.6 2 3.3 3.9 4.4 6.2-.2 2.9-3.6 3.9-5.6 5.4 1.5 2.7 3.8 5.6 2.8 8.9-1.1 2.3-3.4 3.6-5.2 5.2.4-3.7.9-7.3 1.4-11-4.9-1.3-10-.1-14.9.4.5 2.4 2.4 4 4.5 5.1-.7 1.7-1.4 3.4-2.2 5.1 1.8 1.2 3.6 2.5 5.4 3.7-.7 2-1.3 4.1-2 6.2-1.4-1.7-2.8-3.5-4.2-5.2.3 3.3.6 6.7.9 10-2.7-6.8 0-14.3-2.4-21-.3-1.5-1.1-3.3-.2-4.8 1.8-4.1 5.5-6.9 9-9.5-.5-3.6-2-7.2-1.2-10.8 2.4-5 7-8.4 11.4-11.7 4.7-3.6 10.5-5 16-6.9m-3.7 29.9c2-.5 4-1 5.9-1.6-.7-.5-2-1.6-2.7-2.1-1.1 1.2-2.2 2.4-3.3 3.7m3.6 0c-1.5.4-.6 2.7.7 2.2 1.5-.4.6-2.7-.7-2.2m-17.9 1.3c-1.5 1 .2 3.5 1.6 2.4 1.5-1-.2-3.5-1.6-2.4m16.9 3c-1.5 3 3.3.1 0 0m2.1 6.2c1.3-1.7 1.9-3.8 2.1-5.9-3.3.2-2.1 3.7-2.1 5.9z"/><path d="m148 74c1.8-1.2 3.7-3.2 6-2.7 3.1.8 6.1 2.5 8.1 5 .9 3.3-2.7 4.5-5.2 4.8-1.2-2.2-1.3-5.6-3.9-6.7-1.2.4-2.4 1-3.5 1.6.7 2.1 1.3 4.2 1.9 6.3-3.1.3-6.1 0-9.2-.5 0-.8-.1-2.3-.2-3 .4.1 1.1.2 1.5.3 1.6.3 3.3.7 4.9 1-.1-2-.3-4-.5-6m8-.5c.6 2.2 1.7 4.2 2.9 6 .5-.7 1.4-2.2 1.9-3-1.5-1.2-3.1-2.3-4.8-3.1z"/><path d="m219 78c.7-1.5 2.4-.7 3.6-.8-1.2 3.4-3.1 6.5-4.6 9.8.1 4.6 3.6 9 1.5 13.7-2.2.6-2.7-2-3.4-3.5-.9-2.9-2-5.9-1.8-9 1-3.6 2.5-7.2 4.6-10.3"/><path d="m129 81c1.1.5 2.2.9 3.3 1.4-.8.9-1.6 1.8-2.4 2.7-.6-.2-1.7-.6-2.3-.8.5-1.1.9-2.2 1.4-3.3"/><path d="m160 83c1.4.1 1.7.8.8 1.9-1.4-.1-1.7-.8-.8-1.9"/><path d="m161 89c-.2-1.7 1-3.6 2.9-3 2.3 2 .8 5.1.2 7.5-1.1-1.4-3.2-2.5-3.1-4.5"/><path d="m199 92c2.5 1 4.2 3 5.4 5.3-.4.6-1.1 1.8-1.5 2.5-2.5-1.9-4.3-4.5-3.9-7.8"/><path d="m127 104c1.6 1.6 2.9 3.3 4 5.3 1.3-.5 2.6-1.1 3.8-1.6 0 1.6.6 3.4-.6 4.7-2.3 3.3-4.6 6.8-7.4 9.8-.3-1.9-.6-3.8-.8-5.8-1.1.1-2.2.3-3.2.4-.8 1.4-1.6 2.9-2.4 4.3-2.3-1.1-4.7-2-7.1-3 .4-2.7 2.9-4.1 4.8-5.7.9 1 1.8 2.1 2.7 3.1 1.8-1.6 4.1-3 5.3-5.3.7-2 .7-4.1 1-6.2"/><path d="m151 110c2 1.7 3.6 3.8 4.1 6.4-2.7.1-5.1-.9-6.8-3 .9-1.1 1.8-2.3 2.7-3.4"/><path d="m76 115c1.2.3 2.5.6 3.7 1 .4 1.2.7 2.4 1 3.7-1.2-.3-2.5-.6-3.7-1-.4-1.2-.7-2.4-1-3.7"/><path d="m187 117c4.5-1.3 9.6-2.1 13.6 1-3.7 5.5-10.8 6.5-16.9 6.3-1.2 1.4-2.4 2.7-3.7 4.1-3.7-.3-7.9-.3-10.8 2.4-1.7 1.9.6 3.9 1.3 5.7 2.3-.2 4.7-.3 6.9.2-1 1.8-2.9 2.6-4.5 3.7-.8 2.3-2.1 4.2-4.6 4.8.5-2 1.1-4 1.6-5.9-3-.1-6 .2-8.9.5 2.1-1.9 4-3.9 5.7-6.3-3.8.5-7.1 2.4-10.6 3.9-1.3-.4-2.6-1.1-3.8-1.7 0-.7-.1-2.2-.1-3 6.6.5 13-1.8 18.4-5.5 2.8-2.5 5.5-5.1 8.5-7.4.9 1 1.8 2 2.7 3 1.7-2 3.1-4.2 5.2-5.8"/><path d="m157 118c1.5-1.2 3.1 1.4 1.6 2.4-1.5 1.2-3.1-1.4-1.6-2.4"/><path d="m261 122c1.6-.3 3.1-.5 4.7-.8-1.1 1-2.1 2.2-3.1 3.4-.4-.6-1.2-1.9-1.6-2.6"/><path d="m118 125c2.4 1 4.4 3 4.8 5.7-.5 2.4-2.2 4.3-3.3 6.3-1.5-1.7-3.5-3.2-3.6-5.6-.1-2.3 1.3-4.3 2.2-6.4"/><path d="m181 132c3.2-2.7 7-6.6 11.6-4.7-2.8 2.5-6 4.4-9.3 6.1-.6-.3-1.7-1-2.3-1.4"/><path d="m194 136c5-3.1 8.3-8.9 14.4-10.2-1.2 3.1-2.4 6.4-4.9 8.7-2.8 2.8-6.7 4.1-10.1 5.9-3.1 1.4-4.3 5.3-7.5 6.6-1.6.8-2.8-.7-4.1-1.3 3.6-3.8 7.9-6.8 12.2-9.7"/><path d="m110 128c1.1.5 2.3.9 3.4 1.4-1 1.1-2.1 2.2-3.1 3.3-.1-1.6-.2-3.1-.3-4.7"/><path d="m301 130c.8 0 2.4 0 3.2 0 0 .8 0 2.4 0 3.2-.6-.2-1.9-.6-2.5-.8-.2-.6-.6-1.8-.7-2.4"/><path d="m184 139c2.2-3.2 5.2-5.8 8.7-7.7 1.6 3.5-2.2 5.4-4.6 7.1-1.1 1-2.7.6-4 .6"/><path d="m265 132c1.4-.5 1.9 0 1.5 1.4-1.4.5-1.9 0-1.5-1.4"/><path d="m86 134c3.5 2.4 4.4 6.5 4.2 10.5-.7-.2-2.1-.5-2.8-.7-.6-3.2-1.2-6.5-1.5-9.8"/><path d="m288 139c2.5 2.5 4.7 5.3 6 8.6-3.1-1.3-5.4-3.7-7.5-6.2.4-.6 1.1-1.8 1.4-2.4"/><path d="m97 140c5.6 2.8 5.5 10.5 11 13.6 3.2 2.8 7.6 1.2 11.3.8.3 1.1 1 2.4.2 3.5-3.3 1.2-7 2.1-10.3.5-7.2-3.2-12-10.5-12.2-18.4"/><path d="m171 149c2-1.7 4.2-3.1 6.5-4.4.4 1.8.8 3.7 1.2 5.6-2.7.6-5.3 0-7.7-1.2"/><path d="m256 156c4.5-3 10.8-4.8 12-10.8.4 1.9.9 3.9 1.3 5.8-4.9 2.7-9.6 5.9-14.2 9.2-1.9 1.4-3.7 3.4-3.9 5.9 1.1 1.8 2.6 4.1 5.1 4.1 5.1.2 10.5.1 14.9 3.2 0 .7.1 2.1.1 2.8-3.1-1.4-6.4-.8-9.7-.4-5.4-2.1-10.6-5.2-14.8-9.2 2.5-3.9 4.9-8.1 9-10.6"/><path d="m108 148c1.6-1.1 3.3-1.8 5.2-2.3-.4 1.5-.7 3.1-1.5 4.5-1.5-.2-2.5-1.3-3.7-2.2"/><path d="m139 150c.8-.2 2.3-.6 3.1-.7-.2 3.5-.7 7-1.8 10.4-.7-3.2-1.2-6.4-1.3-9.7"/><path d="m91 153c2.2-.8 4.4-1.7 6.7-2.6.8 2.9 2.5 6.1 1 9.2-.4 0-1.1.1-1.5.1-1.1-2-1.8-4.2-2.7-6.3 0 3.1 1.4 7.3-2.3 8.8-.5-3.1-.9-6.1-1.2-9.2"/><path d="m85 155c.7-.1 2-.2 2.6-.3-.1 1.9-.3 3.7-.4 5.6-.9-1.7-1.6-3.5-2.2-5.3"/><path d="m133 156c1.5.3 3 .6 4.5.9-.6 1.2-1.1 2.4-1.7 3.7-1.5-1.1-2.6-2.7-2.8-4.6"/><path d="m122 157c.7.1 2.1.3 2.8.4 1.5 2.4 2.9 5.1 5.3 6.8 4.7 2 10.3.7 14.8 3.5-4.4 3.3-10.1 2.2-14.9.6-4.3-2.1-7.6-6.4-8-11.3"/><path d="m298 157c4.8-.5 6.9 6 4.2 9.3-1.8-.8-3.3-2-4.8-3.2.9 5.4-.2 10.8-1.8 16-1.2 3.5-.2 8.6-4.2 10.4.3-6.9.5-14.2 4.8-20-.8-.3-2.4-.9-3.1-1.2 1.4-3.9 3.3-7.6 4.9-11.5m1.5 2.4c-2.2.6-.2 4.2 1.5 3 1.1-1.1 0-3.2-1.5-3z"/><path d="m103 159c.6-.2 1.8-.5 2.3-.7 1.5 3.7.6 8.6-3.7 9.7.5-3 1-6 1.4-9"/><path d="m171 161c1.4-.7 2.8-1.5 4.3-2.2-.4 1.7-.8 3.5-1.2 5.2-.8 0-2.4-.1-3.2-.1 0-.7.1-2.2.1-2.9"/><path d="m177 160c.9-.1 2.8-.3 3.8-.4-.1.9-.3 2.8-.4 3.8-1.1-1.1-2.2-2.2-3.4-3.3"/><path d="m108 162c2 .4 4 .7 5.9 1.1-.3 2.3-.8 4.7-2.6 6.3-.4-1.6-.7-3.2-1-4.8-1.6 1.2-3.2 2.3-4.8 3.4.8-2 1.7-4 2.5-6"/><path d="m119 166c1.7-.8 3.3-1.7 5-2.5-1.4 3-3 5.9-4.9 8.7 0-2.1-.1-4.1-.1-6.2"/><path d="m165 164c.7 0 2.1-.1 2.8-.1-.5 2.6-1.1 5.1-1.7 7.7-1.4-2.3-1.1-5-1.1-7.6"/><path d="m175 165c1.5.8 2.9 1.6 4.4 2.5-1.9.5-3.9 1-5.9 1.5.5-1.3 1-2.6 1.5-3.9"/><path d="m170 170c2.4.1 4.8.3 6.7 1.9-1.8.6-3.6 1.1-5.3 1.7-.5-1.2-.9-2.4-1.4-3.5"/><path d="m254 177c1.6 0 3.2 0 4.9 0 .2 3.2 1.1 6.5-.2 9.6-1.5.8-3.1 1.3-4.7 1.9-1.4-3.8-1.3-7.8 0-11.5"/><path d="m265 177c.9 0 2.6-.1 3.4-.1.4 1.8.8 3.6 1.1 5.4-2.5-.9-4.1-2.8-4.6-5.3"/><path d="m146 184c1.7.5 3.4.9 5.1 1.6.9 3.2-4.3 3.5-5.8 1.6.2-1.1.4-2.1.7-3.2"/><path d="m141 187c1.7 1.2 4.3 2.1 4.3 4.6.7 5.1 3.3 9.7 3.5 14.9-1.1-.1-2.2-.1-3.3-.1-.8-6.6-5.1-12.4-4.5-19.3"/><path d="m149 197c-.9-2.1-.7-4.8 1.6-5.9 3.1 4.7 4.6 10.4 6.2 15.8-4.6-1.1-6.2-5.9-7.8-9.8"/><path d="m174 195c2.9.6 3.5 3.3 3.4 5.8-3-.5-3.6-3.2-3.4-5.8"/><path d="m84 219c-5.3-2.6-3.5-9.7.1-12.9-.1 4.3-.2 8.6-.1 12.9"/><path d="m92 217c-3.8-3.7.7-8.4 3.5-11-.6 3.8-1.8 7.6-3.5 11"/><path d="m114 216c1.5-.9 2.7-3 4.7-2.6 2.1 3.3 3.5 6.9 4.8 10.6-.8 0-2.2 0-3 0-1-2.7-2.3-5.3-4.2-7.5.7 4 2.4 7.8 4.1 11.5-.3.6-.9 1.7-1.2 2.2-2.4-2.6-5.2-4.8-7.6-7.4-1.8-2.6-2.3-5.8-3.4-8.7 1.9.7 3.9 1.3 5.8 2"/><path d="m95 230c-4.6-2.4-2.8-10 1.3-12-.1 4-.6 8-1.3 12"/><path d="m181 224c.6-2.7 2.2-4.7 5-5.2 1.4 2.6 3 5.1 4.5 7.6-3.3-.1-6.5-.9-9.4-2.4"/><path d="m127 221c2.5 1.7 4.8 3.8 5.7 6.8-.8.3-2.6.9-3.4 1.2 1.2 3.5 4 8.5-.1 11.1.4 1.3.8 2.5 1.2 3.8-.8.3-2.3.8-3.1 1.1 1.3 2.9 2.6 5.8 3.4 8.9-2.4-1.1-4.3-2.9-5.3-5.4-1.6-2.4-.3-5.2-.5-7.7-.5-2.4-1.8-4.6-2-7 2.1-4 4.9-8 4.2-12.8"/><path d="m86 230c-.2-2.8 1-5.3 2.3-7.7-.3 5.5 1 10.8 1.8 16-3.6-1.2-3.9-5.3-4-8.5"/><path d="m194 230c.9-1.1 1.3-3.3 3.2-2.8.7.9 1.3 1.9 1.9 2.8-1.7 0-3.4 0-5 0"/><path d="m91 241c-.8-1.8 1-3 1.8-4.4.5 4.4 3.3 7.8 5.1 11.7-.4 1.5-.3 4.5-2.6 3.8-1.3-3.7-2.9-7.4-4.3-11"/><path d="m123 248c3.1 2.9 5.6 6.3 7.4 10-1.5-.1-3-.2-4.6-.4.9 2.2 1.7 4.4 2.5 6.6-1.5-.6-3-1.3-4.5-1.9.5 2.5.9 4.9 1.2 7.4-2.1-1.2-3.8-3.1-4.1-5.6-.8-2.6 1.4-4.7 2.3-6.9 2-2.9.1-6.3-.2-9.4"/><path d="m100 253c.6-.2 1.8-.7 2.4-.9-1.3 2.9-2 6-1.3 9.1 1.6-.9 3.1-1.9 4.8-2.4 1.4.9 2.8 1.9 4.1 2.9-1.6 4.5-8.6 5.2-10.6.7-2-2.9-.2-6.3.5-9.3"/><path d="m68 272c6.5-.4 13.5-2.2 19.6 1-6 3.2-13 2.6-19.5 2.6-5.7 2-13.6 3.1-17.4-2.7 5.8.8 11.5-1 17.3-.9"/><path d="m43 272c4.5 0 6.6 4.1 8.5 7.6-3.5-1.6-6.6-4.2-8.5-7.6"/><path d="m31 275c3.1-.2 6.3-1.3 9.4-.7-1.2 2.2-2.5 4.2-3.8 6.3-2.9-.7-4.7-2.9-5.6-5.7"/><path d="m23 275c1.5 0 3-.1 4.6-.1.3 2.1.4 4.3.2 6.5-2.3-1.6-4-3.7-4.7-6.4"/><path d="m375 280c1.4-1.5 2.9-2.9 4.3-4.4.6.9 1.3 1.9 1.8 2.9.2 1.9-1.3 3.4-2 5-1.4-1.2-2.8-2.4-4.1-3.5"/><path d="m40.9 284c3.5.8 7.2.9 10.7 1.9 1 2.3-2.2 2.6-3.7 3.2-3.3.2-6.4-1.6-9.6-2.1.8-1 1.7-2.1 2.6-3"/><path d="m58 291c1.9-1.5 3.8-2.9 5.7-4.4.3 1.3.7 2.6 1 4-4.9 2.1-10.4 1.6-15.6 1.9 2.1-2.5 4.9-4 7.9-5 .3.9.8 2.7 1.1 3.5"/><path d="m76 289c2.4-.1 4.3-1.6 6.3-2.8 3.4 1.5 6.4 3.6 8.5 6.6-2.9-.8-5.9-2.1-9-1.9-4.9.5-9.7 1.9-14.4 3.2-.5-1-.9-1.9-1.4-2.9 3.2-1.3 6.6-2.2 10-2.3"/><path d="m25.3 288c1.7 0 4.1-1.6 5.1.5.7 1.8-1.5 2.1-2.6 2.9-.8-1.2-1.7-2.3-2.5-3.4"/><path d="m95 292c2.1-1.6 4.4-2.9 6.8-4.1 0 1.4 0 2.8-.1 4.2-2.2 0-4.5 0-6.7-.1"/><path d="m102 291c1.9.1 3.7.2 5.6.4-1.6 1.3-3.3 2.4-5.2 3.3-.1-.9-.3-2.8-.4-3.7"/></g><path d="m89 121c1.9 2.9 1.9 6.4 1.8 9.7-1.4-3-2.2-6.3-1.8-9.7" style="fill:#3a3a33"/><g style="fill:#58574f"><path d="m257 122c1.2.8 2.3 1.7 3.5 2.5-1.2.7-2.3 1.5-3.5 2.1-1.2-1.3-.1-3.1 0-4.6"/><path d="m274 133c1 .7 2 1.5 3 2.2-.4 1.2-.8 2.3-1.3 3.5-1.3-.6-2.7-1-4-1.5.7-1.4 1.5-2.8 2.2-4.2"/></g><g style="fill:#1e1e19"><path d="m113 94c1.3-1.1 2.9 1.1 1.6 2.1-1.3 1.1-2.9-1.1-1.6-2.1"/><path d="m277 111c.1-2.2-1.2-5.8 2.1-5.9-.2 2.1-.8 4.2-2.1 5.9"/><path d="m137 134c1.8-1.1 2.9 2 1.3 2.8-1.8 1.1-2.9-2-1.3-2.8"/><path d="m107 245c.1-3 .1-6.3 2.4-8.6-.1 3 0 6.4-2.4 8.6"/></g><g style="fill:#010001"><path d="m237 40.7c4.3-1.5 8.7-5 13.4-3.3 4.2 1.3 8.2 3.2 12.3 4.9 1.7 1.1 3.3 2.5 4.8 4-.7 0-2.2-.1-2.9-.1-2.3-.2-4.5-.6-6.8-.9 0 .7-.1 2.2-.1 2.9 2.2.5 4.4 1 6.6 1.5.6.8 1.1 1.6 1.7 2.4-.8 0-2.4 0-3.2 0-2.5-.3-5-.9-7.4-1.4.3 1 .6 2.1.9 3.1 1.5.5 3 1 4.5 1.5.2.6.6 1.9.8 2.5-2.6-1.1-5.3-2.2-7.9-3.3-.4.9-.7 1.8-1.1 2.7 1.4.7 2.8 1.4 4.3 2.1.1.6.2 1.7.3 2.3-.6.1-1.7.2-2.3.3-3.3-1.4-6.5-3.1-10-3.9-4.1 2.3-6.7 6.6-10.7 9-2.6 1.3-5.7.9-8.6 1 1.6 7.5.7 15 .5 22.7-.2 4.9-2.1 9.6-1.9 14.5-.1 3.2.7 6.6-1.2 9.4-2.3 3.5-3.6 7.6-5.8 11.2-3.1 3.2-6.8 5.9-9.8 9.2-4.1 4.6-10 6.5-14.6 10.4-2 1.6-2.2 4.3-3.1 6.5-.9 2.9-3.3 5-5.2 7.3 1.2 3.3 2.6 7 1.4 10.5-1.5 4-4.4 7.3-7.8 10-2.8 2.5-6.9 2.4-10.4 1.9-5.3-.9-8.3-6.1-13-8-2.4.2-5.1 2.5-4.5 5.1 2.8 3.9 8.8 6.3 8.4 11.8-.2 3.2.8 6.9 4.3 7.7 3.6.7 5.7-2.7 7.2-5.3-2.8-1-5.6-2.1-8.3-3.2 3.5-.4 7.3-.9 10.4 1 5 2.6 8 7.5 11.2 11.8-1.8.1-3.6.2-5.4.3.9 1.2 1.7 2.6 2.9 3.5 2.2-.5 4.4-1.3 6.8-1.4-.5 1.8-1.1 3.7-1.8 5.4 1.4-.7 2.8-1.4 4.2-2 .9.7 1.8 1.3 2.8 2-1.6.7-3.1 1.4-4.7 2.1 2.2 1.8 5.1 1.7 7.8 1.5-.7 3.1-.7 6.3 1.2 9 .4-1.5.8-3 1.2-4.5 1.1 1.2 2.2 2.4 3.6 3.4 2.4 1.2 5.3.4 7.7 1.7 2.9 3.5 3.4 8.2 4.7 12.4 1.7 6.5 4.8 13.3 2.2 20-2.5 5.8-5.7 11.4-7 17.7-.9 4.7-2.6 9.2-4.8 13.4-2.5 4.9-2.1 10.9-5.7 15.3-4 4.9-6.6 10.6-9.9 15.9 1.9 3.3 3.3 7.8 7.3 9.3 5 .5 10.5-3.7 15-.2 5.1 4.3 5.8 12.2 3.6 18.2-5.6-.9-11.3-1.3-16.6-3-6.8-2.2-13.4-4.9-19.6-8.4-4.8-2.7-10.4-2.4-15.6-3.5-3.4-.6-5.6-4.1-5.7-7.4.8-3.5 3.7-6 5.9-8.7-.6-.9-1.3-1.7-1.9-2.5 2.8-5 3.2-10.9 6-15.9 2.4-4.3 1.3-9.4 3.2-13.9 1.2-3 2.6-5.9 3.8-8.8-.7-.9-1.4-1.8-2.1-2.7.2-.7.4-1.4.7-2 4.6-4.3 7-10.1 8.7-16-5.6-2.8-11.5-4.8-17-7.4-7.3-3.8-13.8-9-21-13-1.5-.9-3.3-.5-5-.5.6 3.2 1.8 6.6.6 9.8-1.9 5.6-.3 11.7-2.2 17.3-1.2 5.3-4.7 9.9-5.3 15.3-.6 3.6-.5 7.4-2.6 10.5-2.7 3.8-7.2 5.7-10.9 8.3-2.9 1.8-5.5 4.2-8.7 5.3-4.6.5-9.2-1.7-13.8-.8-6 1.1-12.2-.1-18.3.8-3.5.5-6.9-.2-10.3-.8-5-.9-10.2 1.6-15-.5-4.6-1.6-9.6-4.5-14.6-2.8-3.1 1.7-5.5 4.9-6.6 8.3 1 4.2 5.1 7.9 3.6 12.5-1.1 4.8-6.3 6.8-10.8 6.9-1.7-.1-4.2.6-4.9-1.6-1.9-4.6-1-9.7-1.5-14.5-.6-7.4.6-14.9-.7-22.3-1-5.3-1.5-10.7-1.9-16 2.7-1.3 5.4-3 8.5-2.4 4.9.7 9.9.8 14.9.3 4.3-.5 8.4.5 12.7.8 3.7.3 7-2 10.7-1.6 3.9.4 7.9 1 11.8.3 5.7-1 11.4.3 17 1.4 1.7-3.9 3.2-7.9 4.5-11.9-1.6.9-3.1 1.9-4.7 2.8-1.6-3.7-3.5-7.3-5.4-10.9-2.2-3.7-.8-8.2-1.9-12.2-1.7-3.7-5.1-6.3-6.6-10.2-1-2.9-1.4-5.9-1.4-9 0-3.9 2.2-7.4 3.1-11 .9-3.1.8-6.4 2-9.5 1.3-2.6 3.2-4.8 5-7.1-1.1-3.9-2.4-7.8-3-11.9-.6-3.4-1-7-3.4-9.7-3.4-4-7.6-7.4-9.9-12.1-2.5-5.2-5.3-11-3.7-16.9 2-7.6 4.8-15 7.9-22 2.3-5.3 2.8-11.3 5.7-16.4 1.8-3.6 6.1-5.4 10-4.8 2.6.4 5.1 1.3 7.7 2 3.3-5.3 3.3-11.8 6.4-17.2 2.3-4.1 3.8-8.7 4.2-13.4-1.6 1.7-3.3 3.3-4.1 5.6-2.3 6-4.3 12.2-8 17.5 1.4-7.2 3.8-14 5.6-21 1.4-3 3-6 5.5-8.2 5.8-2.7 10.5-7.4 16.5-9.5 9.9-1.5 20-1.2 29.7 2 5 1.6 10.8 4.3 12.3 9.8 1.6 6.1 2.6 12.3 4 18.4 1.2 5.5 7 8.4 8.7 13.7-.3.2-.8.7-1.1.9-1.9-1.6-3.7-3.6-6.1-4.4-2.8-.1-3.4 3-4.3 5 2.7.1 5.5.2 8.2.3.5 2.1 1.1 4.2 1 6.4-1.4 2.2-3.9 4.3-6.7 4-4.3-.5-8.2-2.3-12.2-3.8.6 1.7 1.2 3.4 1.8 5-1.8-.2-3.6-.4-5.4-.6 1.8 2.2 3.8 4.3 6 6.3.1-1.8.2-3.6.4-5.4 2.8 2 7.5 3.3 7.5 7.5-1.1 3.5-4.3 6.3-7.5 7.9-4.7 0-9.2-1.7-13.8-2.4-.1 4.6 1.7 8.9 5.3 11.8 1.1-1.2 2.1-2.4 3.2-3.7 3.3 0 6.8.3 9.9-1.3 4.1-2.1 7.7-5.1 11.9-7.1 6.1-3 11.6-7.1 17.6-10.3 1.8-1.1 4.1-2.1 4.5-4.4 1.1-4.9.3-9.9 0-14.8-.8-8.4 2.1-16.5 2.3-24.9.5-6.5 1.8-14.9 8.9-17.3 4.9-2.2 10 .4 15 .5 4.7-2.4 8.9-5.7 13.9-7.6m-108 11.3c-.1 2.6 1.1 5 2.3 7.2-1.3-1.2-2.5-2.7-4.1-3.4-2.3-.5-4.7-.4-7-.4 1.1 2 2.3 4 3.5 6-1.5-1-2.9-2.1-4.3-3.2-.5.3-1.6.9-2.1 1.2 1.3 1.6 2.6 3.2 3.9 4.8-2.1-1.1-4.2-2.8-6.7-3-1.3.3-4 .6-2.9 2.6 3.2 1.2 6.4 2.4 9.1 4.5 1.8-1.8 3.3-4.1 5.9-4.9 3-1 6-1.9 9-2.9-.3-4-3.5-6.6-6.5-8.7m-16.9 7.7c2.6-.3 3.3-2.5 3.6-4.7-2.2.7-3.6 2.4-3.6 4.7m26.8-3c-2 2.9-3.9 6-4.6 9.5.5 2.5 2.9 3.9 5 4.9 2.3-1.6 4.1-4 7-4.4-2.9 4.5-7.3 8.1-8.3 13.6.8-.1 2.2-.3 3-.3 1.8-2.8 3.9-5.5 5.9-8.2.7-.4 2.1-1.2 2.8-1.6 2.2-.4 4.4-.7 6.7-1.1.5.5 1.5 1.4 1.9 1.9 1.9.8 4.1 4.3 5.9 2.3-1.1-3.1-2.9-6.5-6.3-7.5-3.7-1.4-7.5.5-11 1.4 2.7-2.3 6-3.7 9-5.5-2.8-.6-5.8-.9-7.9-3-2.5-1.8-6.3-4.9-9.1-2.1m-31.5 3.5c0 .8 0 2.3 0 3.1.8 0 2.3 0 3.1 0-.2-.6-.5-1.8-.7-2.4-.6-.2-1.8-.5-2.4-.7m95 .8c.9 4.1 1.7 8.3 1.1 12.5-.1 4.9-4.9 8.1-5.1 13-.3 2.2 2 3.1 3.3 4.4.4-1.5.8-3.1 1.3-4.7 1-.4 2-.8 3.1-1.2-.1-2.7-.2-5.5.7-8.2 1.2-3.8.9-7.8.8-11.8-.4-2.5-3.1-3.3-5.1-4m-91 6.2c1.4 1.5 2.9 2.8 4.3 4.2-2.5-.4-5-.5-7.5-.1 1.8 2.4 4.3 3.8 7.2 4.6 1.2-2.5 2.5-5.1 3.7-7.6-2.4-1.1-5-1.9-7.7-1m107 .4c.4 2.5.5 5 .2 7.6 1.1-.1 2.6.3 3.1-1 .8-2.6 0-5.3-.5-7.9-1 .4-1.9.9-2.8 1.3m-98 6.6c-2.3 4.8-1 10.5 2 14.7 2.5 3.4 3.3 7.8 6.2 10.9 2.6 2.1 4.9-1.2 6.9-2.5.5 3.8.9 7.9 3.5 11 2 3 5.4 4.5 8.7 5.7.3-1.4.8-2.8 1-4.2-4.2-3.9-9.3-7.6-10.9-13.3-.9-3.6 2.9-4.9 5.7-5.4-.7 2.9-2.5 6.2-.3 8.9 1.5-2.5 3-5.2 5.5-6.9-.5 3.2-1.4 6.4-2.1 9.5 2.4-.4 4.8-.8 7.2-1.2-.8-3-2.1-6.3-1-9.5 1.2-2.8 2.8-5.4 4.2-8.1-.4-.3-1.3-1-1.8-1.3-1.3 2.2-2.7 4.4-4.2 6.6-1.5-1.3-3-2.6-4.5-3.8.2 1.5.4 3 .6 4.6-.2.1-.7.4-.9.6-.9-2.1-1.8-4.2-2.8-6.2-2.8.4-4.7 2-5.2 4.8-1.1-.2-2.1-.4-3.2-.6.8 3 1.7 6.3-.4 9-2.8-2-3-5.5-3.3-8.7 2.2-2 4.8-3.7 6-6.5-.3-2.7-1.8-5-2.8-7.5-1.3-3.1-3.5-6.2-6.9-7-3.6-.1-5.8 3.5-7.2 6.3m28 .3c-1.5 1.7-2.9 3.4-4.4 5-.4-.1-1.1-.2-1.5-.3.1.8.1 2.3.2 3 3 .5 6.1.8 9.2.5-.6-2.1-1.2-4.2-1.9-6.3 1.2-.6 2.3-1.2 3.5-1.6 2.5 1.1 2.7 4.5 3.9 6.7 2.5-.3 6.1-1.5 5.2-4.8-2-2.5-5-4.2-8.1-5-2.4-.5-4.2 1.5-6 2.7m71 3.3c-2.2 3.1-3.7 6.6-4.6 10.3-.2 3.1.9 6.1 1.8 9 .7 1.5 1.1 4.1 3.4 3.5 2.2-4.6-1.3-9.1-1.5-13.7 1.5-3.3 3.4-6.4 4.6-9.8-1.3 0-2.9-.7-3.6.8m-108 9.5c-.2 1.6.1 3.2.2 4.9-1.5-.7-2.9-1.3-4.4-2 1.3 5 2.3 10.2 4.1 15-1.6-.2-3.1-.4-4.7-.6.6 4.2 1.7 8.2 2.8 12.3 4.2-3.7 6.3-8.9 8.1-14 2-1.6 3.9-3.6 4.5-6.2 2.2-5.3-3.1-9.4-4.7-14-2.1 1.5-4.2 2.8-6 4.6m48.6-4.2c-.9 1.1-.7 1.8.8 1.9.9-1.1.7-1.8-.8-1.9m.8 6.5c0 2 2 3.1 3.1 4.5.5-2.4 2-5.5-.2-7.5-1.9-.6-3.1 1.3-2.9 3m-4.2 3.1c-.7 1.5-1.3 2.9-2 4.3 6 2.2 12.4 4.8 18.8 2.5-1.2-1-2.5-2.2-4.2-2.4-4.4-.7-8.6-2.4-12.6-4.5m43-.6c-.3 3.3 1.5 5.8 3.9 7.8.4-.6 1.1-1.8 1.5-2.5-1.3-2.3-2.9-4.3-5.4-5.3m-72 12c-.3 2.1-.3 4.2-1 6.2-1.2 2.2-3.5 3.6-5.3 5.3-.9-1-1.8-2.1-2.7-3.1-1.9 1.6-4.4 3-4.8 5.7 2.3 1 4.8 1.9 7.1 3 .8-1.5 1.6-2.9 2.4-4.3 1.1-.1 2.1-.3 3.2-.4.3 1.9.5 3.8.8 5.8 2.8-3 5.1-6.4 7.4-9.8 1.2-1.3.6-3.1.6-4.7-1.3.5-2.6 1.1-3.8 1.6-1.1-1.9-2.5-3.7-4-5.2m23.7 6.3c-.9 1.1-1.8 2.3-2.7 3.4 1.7 2 4.1 3 6.8 3-.5-2.6-2.1-4.7-4.1-6.4m8.4 3.3c.4 1.3.9 2.6 1.3 4 .9-.4 1.8-.9 2.6-1.3.1-.7.4-2 .5-2.7-1.5 0-3 0-4.4 0m-73.9 7.4c.3 4 .7 8.3 3 11.8 2.7 2.8 6.4.6 9.3-.5 0-3.8-1-7.3-2.7-10.7 1.1-1.7 2.1-3.4 3.2-5.1-1 4-.8 8 .7 11.9 1.9.1 3.8.2 5.6.3.6-4.6 1.5-9.2 2.3-13.7-3.3.8-6.7-.2-10-.3-4 1.9-7.3 4.7-11.4 6.3m-9.2-5.8c.3 1.2.6 2.5 1 3.7 1.2.4 2.4.7 3.7 1-.3-1.2-.6-2.5-1-3.7-1.2-.4-2.5-.7-3.7-1m58 .4c-.6 1-1 2.1-1.4 3.2 2.8 1.2 5.6 2.5 8.4 3.8.2-1.3.5-2.6.6-3.9-1-3-4.9-2.9-7.6-3.2m54 2.1c-2.1 1.5-3.5 3.8-5.2 5.8-.9-1-1.8-2-2.7-3-3 2.3-5.7 5-8.5 7.4-5.4 3.7-11.8 6-18.4 5.5 0 .8.1 2.2.1 3 1.3.6 2.5 1.3 3.8 1.7 3.5-1.5 6.8-3.4 10.6-3.9-1.6 2.3-3.6 4.4-5.7 6.3 3-.3 5.9-.5 8.9-.5-.6 2-1.1 3.9-1.6 5.9 2.4-.6 3.8-2.6 4.6-4.8 1.6-1.1 3.6-1.9 4.5-3.7-2.3-.6-4.6-.4-6.9-.2-.7-1.8-3-3.8-1.3-5.7 2.9-2.7 7-2.7 10.8-2.4 1.2-1.4 2.4-2.7 3.7-4.1 6.2.2 13.2-.9 16.9-6.3-4-3.1-9.1-2.3-13.6-1m-30.5.2c-1.5 1 .2 3.5 1.6 2.4 1.5-1-.2-3.5-1.6-2.4m-39 7.1c-.8 2.1-2.3 4.1-2.2 6.4.1 2.4 2.2 3.9 3.6 5.6 1.2-2 2.8-3.9 3.3-6.3-.4-2.7-2.4-4.7-4.8-5.7m63 7.3c.6.3 1.7 1 2.3 1.4 3.3-1.7 6.5-3.6 9.3-6.1-4.6-1.9-8.4 2-11.6 4.7m13 4.1c-4.4 2.8-8.7 5.8-12.2 9.7 1.3.6 2.6 2.1 4.1 1.3 3.3-1.2 4.4-5.1 7.5-6.6 3.5-1.8 7.3-3.1 10.1-5.9 2.5-2.3 3.7-5.6 4.9-8.7-6.1 1.3-9.4 7-14.4 10.2m-85-8c.1 1.6.2 3.1.3 4.7 1-1.1 2-2.2 3.1-3.3-1.1-.5-2.2-.9-3.4-1.4m32.7-.1c-.3.8-.8 2.4-1 3.2-2.1-.6-4.4-1.8-6.6-1-3.4 1-6.9 1.8-10.3 3.1-2.4 3-.8 7.2-.6 10.7 1.6.3 3.2.8 4.8.8 2-1.1 3.5-3 5.8-3.4 1.7-.5 3.5-.6 5.1-1.3 1.8-2.1 1.6-5.1 2-7.7 1.1 1.8 2.4 3.3 4 4.6 0-2.1.2-4.2-.2-6.2-.8-1.1-2-1.8-3.1-2.7m42 10.7c1.4 0 2.9.4 4.1-.6 2.4-1.7 6.2-3.5 4.6-7.1-3.5 1.8-6.4 4.5-8.7 7.7m-99-4.7c.3 3.3.8 6.6 1.5 9.8.7.2 2.1.5 2.8.7.2-4-.7-8-4.2-10.5m10.9 5.9c.1 7.9 5 15.2 12.2 18.4 3.3 1.5 7 .6 10.3-.5.8-1.1.1-2.3-.2-3.5-3.7.5-8.1 2.1-11.3-.8-5.5-3.1-5.4-10.8-11-13.6m75 9.4c2.4 1.2 5.1 1.8 7.7 1.2-.4-1.9-.8-3.7-1.2-5.6-2.3 1.2-4.5 2.7-6.5 4.4m-63-1c1.1.9 2.2 2 3.7 2.2.8-1.4 1.1-3 1.5-4.5-1.8.5-3.6 1.3-5.2 2.3m31 1.7c.1 3.3.6 6.5 1.3 9.7 1.1-3.4 1.6-6.9 1.8-10.4-.8.2-2.3.6-3.1.7m-48 2.7c.4 3.1.8 6.2 1.3 9.2 3.7-1.6 2.3-5.7 2.3-8.8.8 2.1 1.6 4.3 2.7 6.3.4 0 1.1-.1 1.5-.1 1.4-3-.3-6.2-1-9.2-2.2.8-4.5 1.7-6.7 2.6m-5.6 1.9c.5 1.8 1.3 3.6 2.2 5.3.2-1.9.3-3.7.4-5.6-.7.1-2 .2-2.6.3m48 1.7c.2 1.9 1.3 3.5 2.8 4.6.6-1.2 1.1-2.4 1.7-3.7-1.5-.3-3-.6-4.5-.9m-11 1.1c.4 4.9 3.7 9.2 8 11.3 4.8 1.7 10.5 2.7 14.9-.6-4.5-2.8-10-1.5-14.8-3.5-2.4-1.7-3.8-4.4-5.3-6.8-.7-.1-2.1-.3-2.8-.4m-19 1.5c-.4 3-.9 6-1.4 9 4.4-1.1 5.2-6 3.7-9.7-.6.2-1.8.5-2.3.7m67 2.6c0 .7-.1 2.2-.1 2.9.8 0 2.4.1 3.2.1.4-1.7.8-3.5 1.2-5.2-1.4.7-2.8 1.5-4.3 2.2m6.3-1.8c1.1 1.1 2.3 2.2 3.4 3.3.1-.9.3-2.8.4-3.8-.9.1-2.8.3-3.8.4m-69 2.9c-.8 2-1.7 4-2.5 6 1.6-1.1 3.2-2.3 4.8-3.4.3 1.6.7 3.2 1 4.8 1.8-1.7 2.3-4 2.6-6.3-2-.4-3.9-.7-5.9-1.1m10.7 3.9c0 2.1 0 4.1.1 6.2 1.9-2.7 3.5-5.7 4.9-8.7-1.7.8-3.3 1.6-5 2.5m46-2.1c0 2.6-.4 5.3 1.1 7.6.6-2.6 1.2-5.1 1.7-7.7-.7 0-2.1.1-2.8.1m10.3.4c-.5 1.3-1 2.6-1.5 3.9 2-.4 3.9-.9 5.9-1.5-1.5-.8-2.9-1.6-4.4-2.5m-4.5 5.4c.5 1.2.9 2.4 1.4 3.5 1.8-.5 3.6-1.1 5.3-1.7-1.9-1.6-4.4-1.8-6.7-1.9m-24 14c-.3 1.1-.5 2.1-.7 3.2 1.6 1.9 6.7 1.6 5.8-1.6-1.7-.6-3.4-1.1-5.1-1.6m-5.7 2.8c-.7 6.9 3.6 12.7 4.4 19.3 1.1.1 2.2.1 3.3.1-.2-5.2-2.8-9.8-3.5-14.9 0-2.5-2.6-3.3-4.3-4.6m8.3 10c1.6 3.9 3.2 8.7 7.8 9.8-1.7-5.4-3.1-11-6.2-15.8-2.3 1.1-2.4 3.8-1.5 5.9m25.4-2c-.1 2.6.4 5.3 3.4 5.8.1-2.6-.5-5.3-3.4-5.8m-6.6 2.8c-.7 1.9-2.7 3.8-1.7 6 .7 2.9 4.1 3.4 6.2 4.9 2 2.2 3.1 5 4.4 7.6 1.3 0 2.6 0 3.9.1-1.1-3.3-2.1-6.9-5-9.1-3.4-2.5-5.2-6.4-7.9-9.5m-9.4 1c-2.3 5 2.8 8.6 4.7 12.6.1 2.9-1.1 5.6-1.2 8.5 3 4.7 8.4 7.9 14 7.5-2.6-4.9-9.5-4.8-11.8-10.1 3.8 1.7 7.5 3.8 11.7 4.3-1.3-5.3-7.7-4.5-11-7.7 1.7-.4 3.4-.7 5.2-1.1-4.2-4.4-7.9-9.2-11.6-13.9m-74 20c0-4.3 0-8.6.1-12.9-3.6 3.2-5.4 10.4-.1 12.9m8-2c1.8-3.5 2.9-7.2 3.5-11-2.8 2.7-7.3 7.3-3.5 11m22-.5c-1.9-.7-3.9-1.3-5.8-2 1 2.9 1.6 6.1 3.4 8.7 2.4 2.6 5.2 4.8 7.6 7.4.3-.6.9-1.7 1.2-2.2-1.7-3.7-3.3-7.5-4.1-11.5 1.9 2.2 3.2 4.8 4.2 7.5.8 0 2.2 0 3 0-1.3-3.6-2.7-7.3-4.8-10.6-2-.4-3.2 1.7-4.7 2.6m27.5-3.2c.1 2.9.1 5.8.1 8.8 4.6 2 9.4 3.8 13.9 6 4.7 2.2 7.7 6.6 12.2 9 3.3 1.8 6.9 3.3 10.4 4.7.4-1.3.8-2.6 1.2-3.9-9.1-6-19-10.8-26.6-19-2.9-3.3-7.4-4.1-11.3-5.7m-46.7 16.8c.6-4 1.2-8 1.3-12-4.1 2.1-5.9 9.7-1.3 12m85.9-5.6c2.9 1.6 6.2 2.3 9.4 2.4-1.5-2.5-3-5.1-4.5-7.6-2.8.5-4.4 2.5-5 5.2m-82 11.8c2 2.4 3.8 4.8 5.6 7.4 2.3 3.5 5.8 5.9 9.2 8.4 1.3-2.7.3-5.3-1-7.8-1.5-2.8-.5-5.9 0-8.8 2.2 3.3 3.8 6.8 5.2 10.5 1.6-.8 3.2-1.6 4.5-2.7.2-2.1.1-4.2 0-6.2-3.5-1.4-6.6-3.6-9.2-6.3-1.1-1.2-2.8-1.1-4.2-1.4-1 1.6-1.9 3.3-2.9 4.9-.5.1-1.6.4-2.1.5-.2-4.8-1.6-9.4-4.1-13.4-3 4.1-5 10.8-1 14.9m28-15c.7 4.8-2.1 8.8-4.2 12.8.2 2.4 1.6 4.6 2 7 .1 2.6-1.2 5.4.5 7.7 1 2.4 2.9 4.3 5.3 5.4-.8-3.1-2-6-3.4-8.9.8-.3 2.3-.8 3.1-1.1-.4-1.3-.8-2.5-1.2-3.8 4.1-2.6 1.3-7.6.1-11.1.8-.3 2.6-.9 3.4-1.2-1-3-3.3-5-5.7-6.8m-41.6 9.4c.2 3.2.5 7.3 4 8.5-.8-5.4-2.1-10.7-1.8-16-1.3 2.4-2.5 4.9-2.3 7.7m108-.1c1.7 0 3.4 0 5 0-.6-1-1.2-1.9-1.9-2.8-1.8-.5-2.2 1.8-3.2 2.8m-103 10.9c1.4 3.7 2.9 7.3 4.3 11 2.2.7 2.2-2.4 2.6-3.8-1.8-3.8-4.7-7.3-5.1-11.7-.7 1.4-2.5 2.7-1.8 4.4m90 3.1c1.5.5 3 1 4.5 1.4 0-2.3 0-4.6-.1-6.9-2.2 1.1-3.9 2.9-4.4 5.4m-59 3.8c.3 3.1 2.2 6.5.2 9.4-1 2.2-3.2 4.3-2.3 6.9.3 2.5 2 4.3 4.1 5.6-.3-2.5-.7-4.9-1.2-7.4 1.5.6 3 1.3 4.5 1.9-.8-2.2-1.7-4.4-2.5-6.6 1.5.1 3.1.2 4.6.4-1.8-3.8-4.3-7.2-7.4-10m87 1.9c-.5 4.1-2.1 7.8-3.6 11.5-1.1 2.7-.4 6.1-2.5 8.4-3.4 4.1-5.7 9.2-5.9 14.5-.2 4.5-3.2 8.1-4.5 12.3-.8 3.3-4.5 3.5-6.8 5.2-2.4 3.8-3.9 8.5-3.1 13 .3 1.9 2.8 1.7 3-.1 2.3-6.6 9.5-10.4 10.5-17.6.7-4.8 3.7-8.9 4.8-13.6 1.3-5.3 4.8-9.7 5.7-15 .9-4.8 2.7-9.4 6.5-12.6.3-2.7-2.3-4.4-4.1-5.9m-109 3c-.6 3-2.4 6.4-.5 9.3 2 4.5 9 3.9 10.6-.7-1.4-1-2.7-2-4.1-2.9-1.8.5-3.3 1.6-4.8 2.4-.7-3.1 0-6.2 1.3-9.1-.6.2-1.8.7-2.4.9m86 .1c-1.2 3.5-2.5 6.9-4.3 10.2-1.8 3.5-3.5 7.8-1.2 11.6-1.8 2.9-4.4 5.6-4.5 9.1-.3 4.2-.3 8.6-2.4 12.4 1.6 3.1-1 5.4-3.1 7.4.7 4.4-1.6 8.2-3 12 0 3 .8 5.9 1.1 8.9 5.2-.6 10 2.4 15.2 1.5 0-.4 0-1.1 0-1.5-2.8-1-5.9-1.3-8.6-2.8-1.7-1.1-2.9-2.8-4.2-4.4 2.2-1.6 4.5-3.1 6.8-4.7-.5-2.1-1-4.1-1.5-6.1.9-1.6 1.9-3.2 2.6-5 .5-2.6-.2-5.3.5-7.9 2-3.6 6.8-5.9 6.2-10.6-1.2-9.8 5.4-18.2 5.3-27.9-1.7-.8-3.3-1.6-5-2.4m-117 18.8c-5.8-.1-11.5 1.6-17.3.9 3.8 5.9 11.7 4.7 17.4 2.7 6.5-.1 13.5.6 19.5-2.6-6.1-3.2-13-1.4-19.6-1m-25 .4c1.9 3.4 4.9 6 8.5 7.6-1.8-3.5-3.9-7.7-8.5-7.6m-12 2.8c.9 2.7 2.7 4.9 5.6 5.7 1.3-2.1 2.6-4.1 3.8-6.3-3.1-.7-6.3.4-9.4.7m-8 .5c.7 2.7 2.4 4.8 4.7 6.4.3-2.1.1-4.3-.2-6.5-1.5 0-3 0-4.6.1m17.7 8.2c-1 .9-1.8 1.9-2.6 2.9 3.2.5 6.3 2.3 9.6 2.1 1.5-.5 4.7-.9 3.7-3.2-3.5-1-7.1-1.2-10.7-1.9m17.2 7c-.3-.9-.8-2.6-1.1-3.5-3 1.1-5.9 2.6-7.9 5 5.2-.3 10.7.2 15.6-1.9-.3-1.3-.7-2.6-1-4-1.9 1.4-3.8 2.9-5.7 4.4m18.2-1.5c-3.5.1-6.8 1.1-10 2.3.5 1 .9 1.9 1.4 2.9 4.7-1.3 9.5-2.6 14.4-3.2 3.1-.3 6.1 1 9 1.9-2.1-3.1-5.1-5.2-8.5-6.6-2 1.1-3.9 2.7-6.3 2.8m-51-1.1c.8 1.1 1.7 2.3 2.5 3.4 1.1-.8 3.3-1.1 2.6-2.9-1.1-2.1-3.4-.5-5.1-.5m69.9 4.1c2.2.1 4.5.1 6.7.1 0-1.4 0-2.8.1-4.2-2.4 1.2-4.7 2.5-6.8 4.1m7.3-1c.1.9.3 2.8.4 3.7 1.8-.9 3.6-1.9 5.2-3.3-1.9-.2-3.7-.3-5.6-.4m83 36c.5 2.5 2.1 4.3 4.5 5.3-.3-1.8-.7-3.6-1.1-5.3-.8 0-2.5.1-3.4.1m18.8.4c-.5 4.4-1.2 8.9-.5 13.4.7 0 2.2.1 2.9.1.2-2.4.4-4.9.6-7.3 1.3-1.1 3.8-1.5 3.6-3.6-1.9-1.6-4.3-2.1-6.6-2.7z"/><path d="m282 69c4.6 1.2 9.9 3 11.9 7.6 2.4 4.8-.3 10-1.5 14.8-.9 4.5-4.5 7.8-5.3 12.2-.6 2.4-.8 4.9-2 7-1.3 1.8-3.3 2.9-5.1 4.1.4-4.6 1.5-9.1 1.3-13.7-.1-4.5-6.5-7.7-9.6-3.9-2.9 2.8 1 6 2.1 8.6-4.4.8-8.9.5-13.3 0 .1 1.2.1 2.5.2 3.7 1.6-.2 3.1-.4 4.7-.7 1.2 1.3 2.3 2.5 3.5 3.8 1.5-1.3 2.9-2.6 4.4-3.9 2.2 3.8-1.8 7.4-.4 11.3 2-1 3.9-2.4 6.2-2.9 4.2 0 3.7 6.2 7.5 6.9 4.9 1.5 9.7-.6 14-2.5 5.6 4.9 8.1 12.2 12.9 17.8.4 2 .8 4 1.1 6-2.1-1.7-4.2-3.5-6.3-5.3-.5 2-1 4-1.5 6-1.7-.4-3.4-.8-5.1-1.3-.8 2.3-1.9 4.6-2 7 .7 1.4 1.7 2.6 2.7 3.9 4.4-3.8 8.7-7.7 14-10 1.9 5.6 3.1 11.4 4.1 17 .6 3.3-1.1 6.3-2.3 9.2-2.8 5.7-4.8 11.7-7.9 17.2-2 3.6-5.3 6.1-8.3 8.7 4.1 4.3 7.3 9.2 10.4 14.2 2.5 4.1 6.7 6.7 9.4 10.7 1.6 3.1-.3 6.8.7 10 .9 2.8 2.5 5.4 3 8.4 1 4.7-.1 9.7 1.7 14.2 2.1 1.9 4.6.1 6.9-.4 5.6-2.4 11.8-.4 17 1.5 6.1 2.2 9.9 7.7 15.3 10.9 4.7 1 9.4-1.1 14-1.7 2.9-.5 5.8 1.6 7.1 4 1.5 4.8-1.3 9.3-3.2 13.5-2 4.2-1.6 8.9-2.8 13.3-1.1 4.2-3.4 7.8-5.6 11.4-3.7-1.1-7.4-2.4-10.9-4 2.4-3.5 4.9-7 7.3-10.6-3.1-3.9-4.6-8.8-7.5-12.9-3.6-2.4-8.2-2.4-12.4-2.8-7.1-.3-14.2-1.3-21.3-.9-4.3.3-8.4-.9-12.3-2.4-4.8-2-10.1-.9-15-1.8-4.1-.8-8.4-1.2-12.2-2.9-6.6-4-11.4-10.4-14.9-17 6.3-5.8 6.2-17.9-1.7-22-.4 3.1.2 6.7-1.9 9.4-3.2 4.4-7.3 8.1-10 12.8-1.4 2.3-2.4 4.9-4.1 7-2.1 2.1-5.1 2.9-7.3 4.8-1.8 2.9-.7 6.4 0 9.4 1.9 6.8 3.2 13.9 2.5 21-.8 6.1-3.8 11.8-4 18-.5 4.7 2.3 8.7 3.5 13 .3 1.4 1.2 3.1-.3 4.2-3.4 3.6-8.5.4-12.7.8-7.2.6-14 2.9-21 4.1-1.3-3.5-2.6-7-3.6-10.7 3.9-.1 8 .8 11.8-.3 3.2-1.9 5.5-5 8.1-7.6 1.4-1.8 3.8-3.5 3.3-6-1.4-9.8-3.6-19.4-4-29-.1-3.9-1-7.7-2-11.4-1.5-5.2 1.1-10.5.4-15.7-1.1-2.4-2.8-4.6-4.2-6.8-1-.4-2.1-.8-3.1-1.2 1.6-2.6 3.3-5 5.2-7.3-1.2-2.8-2.5-5.7-3.8-8.5 1.2-.8 2.3-1.7 3.5-2.5-1.1-2.7-2.5-5.7-1.4-8.7 1.3-4.8 5.9-7.3 9.1-10.6 3.8-3.5 4.4-9.1 8.1-12.7 2-2 4.3-3.6 6.6-5.3-1.4-1.3-2.4-3.3-4.2-3.9-4.3.3-8.4 1.9-12.7 2.5-1.5-5.1-3.6-10-5.9-14.9 7.6-1 15 .5 22.4 2.2-3.1-4.6-8.1-9.2-14-7.7 3.2-4.1 4.7-9.9 9.8-12 5-2.3 10-4.8 13.7-9-.7-2.8-2.1-5.6-1.3-8.5 1.1-4 2.6-7.9 3.4-12-5.5-.5-11 .7-16.2 2.2-.8 1.6-1.5 3.1-2.4 4.7-1 .6-2 1.1-3 1.6-.3-3.3-.6-6.7-.9-10 1.4 1.7 2.8 3.5 4.2 5.2.7-2.1 1.3-4.1 2-6.2-1.8-1.3-3.6-2.5-5.4-3.7.7-1.7 1.4-3.4 2.2-5.1-2.1-1.1-4-2.6-4.5-5.1 4.9-.4 10-1.7 14.9-.4-.5 3.7-1.1 7.3-1.4 11 1.8-1.6 4.1-3 5.2-5.2 1-3.3-1.3-6.2-2.8-8.9 2-1.5 5.4-2.5 5.6-5.4-1.1-2.3-2.8-4.2-4.4-6.2 2.3-.1 4.6-.2 7-.4-.2-1.1-.4-2.2-.5-3.3-3.7-.4-7.4-.8-11.1-1.2-.1 2.1-.7 4.2-.2 6.2.9 2.1 2.4 3.8 3.7 5.7-1.2.3-2.5.5-3.7.8-2.2 3.4-6.3 3.6-9.9 3.5 2.4-2.5 5.4-4.3 8.5-5.8-.6-3.7-2.2-7.3-2-11 2.6-5.4 8-8.5 12.5-12.2 4.8-3.9 11-5.6 17-6.4-3.6 2.1-7.4 3.8-11.3 5.3.3.9.6 1.9.9 2.8 3.7-1.3 7.5-2.4 11-4.2 2.4-.9 2-3.8 2.6-5.8m-20.8 52.8c.4.6 1.2 1.9 1.6 2.6.9-1.2 2-2.3 3.1-3.4-1.6.3-3.1.5-4.7.8m7.3 4.1c1.4 3.8 5.3 5.6 8.7 7.3 1.4-2.8 4.3-6.1 2.6-9.4-2-5.1-11.8-3.9-11.3 2.1m-12-4.4c-.1 1.5-1.3 3.3 0 4.6 1.2-.7 2.4-1.4 3.5-2.1-1.2-.8-2.3-1.7-3.5-2.5m44.7 8.5c.2.6.6 1.8.7 2.4.6.2 1.8.6 2.5.8 0-.8 0-2.4 0-3.2-.8 0-2.4 0-3.2 0m-36.7 1.5c-.4 1.4.1 1.9 1.5 1.4.4-1.4-.1-1.9-1.5-1.4m8.9 1.3c-.8 1.4-1.6 2.7-2.2 4.2 1.3.5 2.7 1 4 1.5.4-1.2.8-2.3 1.3-3.5-1-.7-2-1.5-3-2.2m-9.2 4.1c-1 2.1-.5 3.7 1.7 4.5.5-1.1 1-2.3 1.4-3.4-1.1-.4-2.1-.7-3.2-1.1m3.6 3.5c1.1 1.1 2.2 2.2 3.2 3.2.5-1.5.9-3.1 1.4-4.6-1.5.4-3.1.9-4.6 1.4m19.8-1.5c-.4.6-1.1 1.8-1.4 2.4 2.1 2.6 4.4 4.9 7.5 6.2-1.3-3.3-3.5-6.1-6-8.6m-31.6 16.9c-4.1 2.4-6.5 6.7-9 10.6 4.3 4 9.4 7.1 14.8 9.2 3.3-.4 6.5-.9 9.7.4 0-.7-.1-2.1-.1-2.8-4.4-3.1-9.8-3.1-14.9-3.2-2.4.1-3.9-2.2-5.1-4.1.2-2.5 2-4.5 3.9-5.9 4.5-3.3 9.2-6.5 14.2-9.2-.4-1.9-.9-3.9-1.3-5.8-1.3 6-7.6 7.8-12 10.8m38-7c.2 2.7 1 5.3 2.2 7.7.8-.8 1.6-1.6 2.4-2.4-1.4-1.9-2.9-3.7-4.6-5.4m3.9 8.3c-1.6 3.8-3.5 7.6-4.9 11.5.8.3 2.4.9 3.1 1.2-4.3 5.8-4.5 13-4.8 20 4-1.8 3-6.9 4.2-10.4 1.6-5.2 2.7-10.6 1.8-16 1.5 1.2 3 2.4 4.8 3.2 2.8-3.3.7-9.8-4.2-9.3m-44.7 20c-1.3 3.8-1.4 7.8 0 11.5 1.6-.6 3.2-1.1 4.7-1.9 1.3-3.1.3-6.4.2-9.6-1.6 0-3.2 0-4.9 0m11.5.1c.4 2.6 2.1 4.5 4.6 5.3-.4-1.8-.7-3.6-1.1-5.4-.9 0-2.6.1-3.4.1m110 103c1.4 1.2 2.7 2.4 4.1 3.5.8-1.6 2.3-3.1 2-5-.6-1-1.2-2-1.8-2.9-1.4 1.4-2.9 2.9-4.3 4.4m-138 47c2.2.8 4.4.6 6.6 0-.1-1.9-.1-3.7-.2-5.6-3 .7-5 3-6.5 5.6z"/><path d="m126 80c1.6-3.4 5.8-2.1 8.5-1.2-.8 3.5-2.4 6.8-4.6 9.7-1.9-2.5-3.9-5.3-4-8.5m3 .6c-.4 1.1-.9 2.2-1.3 3.3.6.2 1.7.6 2.3.8.8-.9 1.6-1.8 2.4-2.7-1.1-.5-2.2-.9-3.3-1.4z"/><path d="m276 100c1.4-.5 2.2 1.8.7 2.2-1.4.5-2.2-1.8-.7-2.2"/></g><g style="fill:#7e7767"><path d="m254 54c2.6 1.1 5.3 2.2 7.9 3.3-1.6.5-3.1 1-4.7 1.5-1.4-.7-2.9-1.4-4.3-2.1.3-.9.7-1.8 1.1-2.7"/><path d="m112 59.7c0-2.4 1.3-4 3.6-4.7-.3 2.3-1 4.4-3.6 4.7"/><path d="m139 56.7c2.8-2.9 6.7.2 9.1 2.1 2.2 2.1 5.2 2.4 7.9 3-3.1 1.8-6.4 3.1-9 5.5 3.6-.9 7.3-2.8 11-1.4 3.4 1 5.2 4.4 6.3 7.5-1.8 2-4-1.5-5.9-2.3.6-.5 1.7-1.4 2.3-1.8-2.1-.7-4.3-1.5-6.4-2.2.7.7 1.4 1.4 2.1 2.1-2.2.3-4.4.7-6.7 1.1 0-.6.1-1.9.2-2.5-1.5.8-3.1 1.6-4.6 2.4.4.4 1.2 1.3 1.6 1.7-2.1 2.7-4.1 5.4-5.9 8.2-.7.1-2.2.3-3 .3 1-5.5 5.4-9.2 8.3-13.6-2.9.3-4.7 2.8-7 4.4-2.1-1-4.5-2.5-5-4.9.7-3.5 2.6-6.6 4.6-9.5"/><path d="m234 66.9c4-2.5 6.6-6.8 10.7-9 3.5.7 6.7 2.5 10 3.9-3.4.5-6.6-1.2-9.9-1.7-3.4 1.5-5.8 4.6-8.8 6.8-2.3 1.8-5.3 2.3-8.1 3.1.2 3.9.2 7.9 0 11.8-.2 5 .5 10.1-1 15-1.4 4.2-1.4 8.6-1.2 13 .2 3.9-2.6 7-4 10.5-1.4 2.9-2.1 6.4-4.8 8.4-3.8 2.8-7.2 6.1-10.7 9.3-3.9 3.5-9 5.5-12.5 9.5-1.9 2.9-3 6.3-5 9.2-3.2 3.8.3 8.7-1.2 12.9-1.5 4.3-4.2 8.2-7.5 11.4-3.5 3.9-9.4 2.7-13.9 2-5.5-.9-8.7-8-14.9-6 3.2 3.5 5.9 7.4 9.6 10.4 3.6 1.6 7.9.7 11.6 2.3 5.9 2.5 8.6 8.8 13.2 12.8 4.3 3.7 8 8.1 11.3 12.7 1.8 2.2 3.7 5 6.7 5.4 2.4.7 5.4.6 7.2 2.7 3.3 3.8 4.3 8.8 5.6 13.5 1.3 5.2 3.2 10.4 2.4 15.8-.5 4.5-3 8.4-4.4 12.6-2.6 7.1-4.4 14.6-7.5 21.5-2.5 5.4-3 11.6-6.6 16.4-3.4 4.6-6.7 9.4-8.8 14.8-.4 2.6 1.6 4.8 3.1 6.7 2.2 2.8 5.8.9 8.6.7 3.5-.8 6.9.5 10.2 1.6 1.5-1.3 2.9-2.8 4.8-3.6 3.3-.9 6.9.1 10-1.1 3.3-2.2 6.1-5.3 8.4-8.6 1.2-1.5.5-3.5.3-5.2-.9-5.2-1.6-10.4-2.5-15.6-1.3-7 .2-14.4-2.8-21-2.3-5.4.8-10.9.1-16.4-1.3-3.7-4.8-6.1-6.1-9.8.7-3.1 3.7-5.9 2.4-9.3-1.6-5.1-.6-10.4-.3-15.6.3-2.6 0-5.7 2.5-7.3 3.6-2.8 7.1-5.8 9.4-9.7 3.2-5.3 7.8-9.6 11.7-14.4-3.8-.2-7.6.7-11.3 1.5-1.7.4-3.9.1-4.7-1.7-2.7-4.8-4.1-10.2-5.9-15.4 5.3-.9 10.6-1 15.9-1.4-2.5-1.1-5-2.1-7.5-3.1 2.2-5.3 4.8-11.3 10.4-13.7 4.3-1.9 8.6-3.9 12.4-6.8-.5-3.2-1.5-6.4-.6-9.6 1.1-3.7 1.9-7.4 2.2-11.3-5.7 1.1-11.4 2.7-16 6.3.9-1.5 1.6-3.1 2.4-4.7 5.3-1.5 10.7-2.7 16.2-2.2-.9 4.1-2.3 8-3.4 12-.9 2.9.5 5.8 1.3 8.5-3.7 4.3-8.7 6.8-13.7 9-5.1 2.2-6.6 8-9.8 12 6-1.5 11 3.1 14 7.7-7.4-1.7-14.8-3.2-22.4-2.2 2.3 4.8 4.4 9.8 5.9 14.9 4.3-.6 8.3-2.2 12.7-2.5 1.8.6 2.8 2.6 4.2 3.9-2.2 1.7-4.6 3.3-6.6 5.3-3.7 3.6-4.4 9.1-8.1 12.7-3.3 3.3-7.8 5.8-9.1 10.6-1.1 3 .3 6 1.4 8.7-1.2.8-2.3 1.6-3.5 2.5 1.3 2.8 2.6 5.6 3.8 8.5-1.9 2.3-3.7 4.7-5.2 7.3 1 .4 2.1.8 3.1 1.2 1.4 2.3 3.1 4.4 4.2 6.8.6 5.2-1.9 10.5-.4 15.7 1 3.8 1.9 7.5 2 11.4.4 9.9 2.5 19.6 4 29 .5 2.5-1.9 4.3-3.3 6-2.6 2.6-4.8 5.7-8.1 7.6-3.8 1.1-7.9.2-11.8.3 1.1 3.6 2.3 7.1 3.6 10.7 7.1-1.3 14-3.5 21-4.1 4.2-.4 9.3 2.8 12.7-.8 1.5-1 .6-2.8.3-4.2-1.3-4.3-4-8.4-3.5-13 .2-6.2 3.2-11.9 4-18 .7-7-.5-14.2-2.5-21-.7-3-1.8-6.6 0-9.4 2.3-1.9 5.2-2.7 7.3-4.8 1.7-2.1 2.7-4.7 4.1-7 2.7-4.7 6.8-8.5 10-12.8 2.1-2.6 1.5-6.2 1.9-9.4 7.9 4.3 8 16.4 1.7 22 3.5 6.8 8.3 13 14.9 17 3.8 1.7 8 2.1 12.2 2.9 5 .9 10.3-.2 15 1.8 3.9 1.5 8 2.7 12.3 2.4 7.1-.4 14.2.6 21.3.9 4.2.4 8.8.3 12.4 2.8 2.8 4.1 4.4 8.9 7.5 12.9-2.4 3.5-4.9 7-7.3 10.6.6-3.9 2.9-7.1 5.4-10-2.1-3.9-3.6-8.2-6.1-11.9-4-2.4-8.9-2.4-13.5-2.8-6-.3-12-1.3-18-.8-4.4.4-8.8-.8-13-2.1-5.5-1.9-11.4-.5-17-1.9-4.9-1.2-10.6-.9-14.4-4.6-5.1-4.6-10.3-9.5-12.6-16 .9-5.6 3.2-11 2.4-16.9-6.6 6.5-12 14-16.3 22-2 4-6.3 5.8-10 7.6 1 7.8 3.4 15.3 3.8 23 1 8-3.9 15.2-4.1 23-.8 5.4 2.7 10 3.3 15.3.3 2.3-2.1 4-4.1 4.4-4.5.6-9-.4-13.6.5-6.5 1.2-13 2.4-19.5 3.2 0 .4.1 1.2.1 1.6-.4 2.4-.5 5-1.8 7.2-3.3 1.5-7 .9-10.5.9-9.3-2.3-18.4-5.6-26.9-10.2-4-2.3-8.6-2.6-13-3.1-3.2-.4-6.6-1.6-8-4.7-2.1-3.1-.6-6.8.7-9.9 2.3-5.3 2.4-11.2 4.8-16.4 1.7-3.7 3.8-7.4 4.2-11.6.6-6.7 4.5-12.6 4.8-19.4.7.9 1.4 1.8 2.1 2.7-1.3 2.9-2.6 5.8-3.8 8.8-1.8 4.4-.8 9.6-3.2 13.9-2.8 5-3.3 10.9-6 15.9.6.8 1.3 1.7 1.9 2.5-2.2 2.7-5.1 5.2-5.9 8.7.2 3.2 2.3 6.8 5.7 7.4 5.2 1.1 10.8.8 15.6 3.5 6.3 3.4 12.9 6.1 19.6 8.4 5.4 1.7 11 2.1 16.6 3 2.2-6 1.5-13.9-3.6-18.2-4.7-3.5-10 .7-15 .2-4-1.4-5.3-5.9-7.3-9.3 3.2-5.4 5.9-11 9.9-15.9 3.6-4.4 3.2-10.4 5.7-15.3 2.2-4.3 3.8-8.8 4.8-13.4 1.3-6.3 4.5-11.9 7-17.7 2.6-6.7-.5-13.6-2.2-20-1.3-4.2-1.8-8.9-4.7-12.4-2.3-1.3-5.3-.5-7.7-1.7-1.3-1-2.4-2.2-3.6-3.4-.4 1.5-.8 3-1.2 4.5-2-2.6-1.9-5.9-1.2-9-2.7.2-5.6.3-7.8-1.5 1.5-.7 3.1-1.4 4.7-2.1-.9-.7-1.8-1.3-2.8-2-1.4.7-2.8 1.3-4.2 2 .7-1.8 1.3-3.6 1.8-5.4-2.3.1-4.5.9-6.8 1.4-1.3-.9-2-2.3-2.9-3.5 1.8-.1 3.6-.2 5.4-.3-3.2-4.4-6.3-9.3-11.2-11.8-3.1-2-6.9-1.4-10.4-1 2.8 1.1 5.6 2.2 8.3 3.2-1.5 2.6-3.6 6-7.2 5.3-3.6-.8-4.5-4.6-4.3-7.7.4-5.5-5.6-7.9-8.4-11.8-.6-2.6 2-4.9 4.5-5.1 4.8 1.9 7.7 7 13 8 3.5.5 7.5.6 10.4-1.9 3.3-2.6 6.3-5.9 7.8-10 1.2-3.6-.2-7.2-1.4-10.5 1.9-2.3 4.3-4.3 5.2-7.3.9-2.2 1.1-4.9 3.1-6.5 4.6-3.9 10.5-5.9 14.6-10.4 3-3.4 6.7-6 9.8-9.2 2.2-3.6 3.5-7.7 5.8-11.2 1.9-2.8 1.1-6.3 1.2-9.4-.2-5 1.8-9.6 1.9-14.5.2-7.6 1.1-15.2-.5-22.7 2.8-.2 5.9.3 8.5-1.1"/><path d="m120 74c1.4-2.9 3.6-6.5 7.2-6.3 3.4.8 5.6 3.9 6.9 7 1 2.4 2.6 4.8 2.8 7.5-1.2 2.8-3.8 4.5-6 6.5.3 3.2.5 6.6 3.3 8.7 2.1-2.7 1.2-6 .4-9 1.1.2 2.1.4 3.2.6.5-2.8 2.4-4.5 5.2-4.8.9 2.1 1.8 4.2 2.8 6.2.2-.1.7-.4.9-.6-.2-1.5-.4-3-.6-4.6 1.5 1.3 3 2.6 4.5 3.8 1.5-2.1 2.8-4.3 4.2-6.6.4.3 1.3 1 1.8 1.3-1.4 2.7-3 5.3-4.2 8.1-1.2 3.1.2 6.4 1 9.5-2.4.4-4.8.8-7.2 1.2.7-3.2 1.6-6.3 2.1-9.5-2.5 1.7-4 4.3-5.5 6.9-2.2-2.7-.4-6 .3-8.9-2.7.6-6.5 1.9-5.7 5.4 1.6 5.7 6.7 9.4 10.9 13.3-.2 1.4-.6 2.8-1 4.2-3.3-1.1-6.7-2.6-8.7-5.7-2.6-3.1-3-7.2-3.5-11-1.9 1.4-4.3 4.6-6.9 2.5-2.8-3.1-3.7-7.5-6.2-10.9-3-4.2-4.3-9.9-2-14.7m.3 8.2c1.8 6 6 11 9.1 16.3.5-.3 1.4-1 1.8-1.3-.6-2.5-.8-5.3-2.6-7.4-2.5-3.1-5.3-6.8-4-10.9 1.9-1.7 4.4-2.4 6.8-3.3-.1-3-1.8-6.3-5.1-6.5-4.7 2.3-6.3 8.2-6.1 13m4.9-1.7c.1 3.3 2.1 6 4 8.5 2.2-2.9 3.8-6.2 4.6-9.7-2.7-1-7-2.2-8.5 1.2z"/><path d="m111 87c1.8-1.8 3.9-3.2 6-4.6 1.6 4.6 6.9 8.8 4.7 14-.7 2.6-2.5 4.6-4.5 6.2-1.9 5.1-3.9 10.4-8.1 14-1.2-4-2.2-8.1-2.8-12.3 1.6.2 3.1.4 4.7.6-1.8-4.9-2.8-10-4.1-15 1.5.7 3 1.3 4.4 2-.2-1.6-.4-3.2-.2-4.9m1.7 6.6c-1.3 1 .4 3.2 1.6 2.1 1.3-1-.4-3.2-1.6-2.1z"/><path d="m156 92c4 2.1 8.2 3.8 12.6 4.5 1.7.2 2.9 1.3 4.2 2.4-6.4 2.3-12.8-.3-18.8-2.5.7-1.4 1.4-2.9 2-4.3"/><path d="m159 113c1.5 0 3 0 4.4 0-.1.7-.4 2-.5 2.7-.9.4-1.8.9-2.6 1.3-.4-1.3-.9-2.6-1.3-4"/><path d="m85 121c4.1-1.6 7.5-4.5 11.4-6.3 3.3.1 6.6 1.1 10 .3-.9 4.5-1.8 9.1-2.3 13.7-1.9-.1-3.8-.2-5.6-.3-1.5-3.8-1.7-7.9-.7-11.9-1 1.7-2.1 3.4-3.2 5.1 1.7 3.3 2.7 6.9 2.7 10.7-2.9 1.1-6.6 3.3-9.3.5-2.3-3.4-2.8-7.7-3-11.8m3.2.1c-.3 3.4.4 6.7 1.8 9.7.1-3.3.1-6.8-1.8-9.7z"/><path d="m134 115c2.7.3 6.6.1 7.6 3.2-.1 1.3-.4 2.6-.6 3.9-2.8-1.3-5.6-2.7-8.4-3.8.5-1.1.9-2.2 1.5-3.2"/><path d="m142 128c1.1.8 2.3 1.6 3.1 2.7.4 2.1.2 4.2.2 6.2-1.6-1.3-3-2.8-4-4.6-.4 2.6-.2 5.6-2 7.7-1.7.6-3.4.8-5.1 1.3-2.3.4-3.8 2.4-5.8 3.4-1.6-.1-3.2-.5-4.8-.8-.2-3.5-1.8-7.7.6-10.7 3.4-1.2 6.9-2 10.3-3.1 2.2-.8 4.5.4 6.6 1 .2-.8.7-2.4 1-3.2m-5.4 5.8c-1.6.9-.4 3.9 1.3 2.8 1.6-.9.4-3.9-1.3-2.8z"/><path d="m264 137c1.1.4 2.1.7 3.2 1.1-.5 1.1-1 2.3-1.4 3.4-2.2-.8-2.7-2.4-1.7-4.5"/><path d="m268 141c1.5-.5 3.1-.9 4.6-1.4-.4 1.5-.9 3.1-1.4 4.6-1.1-1.1-2.2-2.2-3.2-3.2"/><path d="m314 140c1 2.1 2.1 4.2 2.9 6.3-5.4 2.4-9.7 6.3-14 10-.9-1.3-1.9-2.5-2.7-3.9.1-2.5 1.2-4.7 2-7 1.7.4 3.4.8 5.1 1.3.5-2 1-4 1.5-6 2.1 1.8 4.1 3.6 6.3 5.3-.3-2-.6-4-1.1-6m-10.5 11.6c.8 0 2.5.1 3.3.2.4-1.2.7-2.4 1.1-3.6-1.8.7-3.5 1.7-4.4 3.4z"/><path d="m294 149c1.7 1.6 3.2 3.4 4.6 5.3-.8.8-1.6 1.6-2.4 2.4-1.1-2.4-1.9-5-2.2-7.7"/><path d="m168 198c2.7 3.1 4.5 7 7.9 9.5 2.9 2.2 3.9 5.8 5 9.1-1.3 0-2.6-.1-3.9-.1-1.4-2.6-2.4-5.4-4.4-7.6-2.1-1.6-5.5-2-6.2-4.9-.9-2.1 1.1-4.1 1.7-6"/><path d="m159 199c3.8 4.8 7.4 9.6 11.6 13.9-1.7.4-3.4.7-5.2 1.1 3.4 3.2 9.7 2.4 11 7.7-4.2-.4-7.9-2.5-11.7-4.3 2.3 5.3 9.3 5.2 11.8 10.1-5.7.5-11-2.8-14-7.5.1-2.9 1.2-5.6 1.2-8.5-1.9-4.1-6.9-7.7-4.7-12.6"/><path d="m142 213c3.9 1.6 8.4 2.4 11.3 5.7 7.4 8.2 17.5 13 26.6 19-.4 1.3-.8 2.6-1.2 3.9-3.6-1.4-7.1-2.9-10.4-4.7-4.5-2.5-7.5-6.9-12.2-9-4.6-2.2-9.3-4.1-13.9-6 0-2.9 0-5.8-.1-8.8"/><path d="m99 236c-4-4.1-2-10.8 1-14.9 2.5 4 3.9 8.7 4.1 13.4.5-.1 1.6-.4 2.1-.5 1-1.6 1.9-3.3 2.9-4.9 1.5.3 3.2.2 4.2 1.4 2.7 2.7 5.8 4.8 9.2 6.3.1 2.1.2 4.2 0 6.2-1.4 1.1-3 1.9-4.5 2.7-1.4-3.7-3-7.3-5.2-10.5-.4 2.9-1.4 6 0 8.8 1.2 2.5 2.2 5.1 1 7.8-3.4-2.4-6.8-4.9-9.2-8.4-1.8-2.6-3.6-5-5.6-7.4m8 8.6c2.4-2.2 2.3-5.6 2.4-8.6-2.3 2.3-2.3 5.6-2.4 8.6z"/><path d="m181 244c.5-2.5 2.2-4.3 4.4-5.4.1 2.3.1 4.6.1 6.9-1.5-.5-3-1-4.5-1.4"/><path d="m209 250c1.8 1.6 4.4 3.2 4.1 5.9-3.8 3.2-5.6 7.9-6.5 12.6-.9 5.4-4.4 9.9-5.7 15-1.1 4.7-4 8.8-4.8 13.6-1 7.2-8.2 11-10.5 17.6-.2 1.9-2.7 2.1-3 .1-.7-4.5.7-9.2 3.1-13 2.3-1.7 6-1.9 6.8-5.2 1.3-4.2 4.3-7.8 4.5-12.3.2-5.3 2.5-10.4 5.9-14.5 2.1-2.3 1.4-5.7 2.5-8.4 1.5-3.8 3.1-7.5 3.6-11.5"/><path d="m186 253c1.7.8 3.3 1.6 5 2.4 0 9.7-6.6 18-5.3 27.9.6 4.6-4.3 7-6.2 10.6-.7 2.6 0 5.3-.5 7.9-.6 1.8-1.7 3.3-2.6 5 .5 2 1 4.1 1.5 6.1-2.3 1.5-4.6 3.1-6.8 4.7 1.3 1.5 2.4 3.3 4.2 4.4 2.6 1.5 5.7 1.8 8.6 2.8 0 .4 0 1.1 0 1.5-5.1.9-10-2.1-15.2-1.5-.3-3-1.2-5.9-1.1-8.9 1.4-3.9 3.7-7.7 3-12 2.1-2 4.7-4.3 3.1-7.4 2.1-3.8 2.1-8.2 2.4-12.4.2-3.6 2.7-6.3 4.5-9.1-2.3-3.7-.6-8 1.2-11.6 1.8-3.2 3.1-6.7 4.3-10.2"/><path d="m237 327c1.4-2.6 3.4-4.9 6.5-5.6.1 1.9.1 3.7.2 5.6-2.2.6-4.5.8-6.6 0"/><path d="m185 327c.8 0 2.5-.1 3.4-.1.4 1.8.7 3.6 1.1 5.3-2.3-.9-4-2.7-4.5-5.3"/><path d="m204 328c2.3.6 4.8 1.1 6.6 2.7.2 2.1-2.3 2.5-3.6 3.6-.3 2.4-.4 4.8-.6 7.3-.7 0-2.2-.1-2.9-.1-.7-4.5 0-9 .5-13.4"/></g><path d="m269 126c-.5-6 9.3-7.2 11.3-2.1 1.7 3.3-1.1 6.5-2.6 9.4-3.4-1.7-7.4-3.5-8.7-7.3" style="fill:#7b4813"/></svg>