<svg xmlns="http://www.w3.org/2000/svg" viewBox="0 0 401 382" style="enable-background:new 0 0 401 382"><g style="fill:#010101"><path d="m194 17.4c10-1.8 20.5-4.2 30.7-1.4 1.1.9 1.7 2.2 2 3.5 1 4.4 1.4 8.9 1.6 13.4 1.2.6 2.5 1.1 3.7 1.7.1 1.1.2 2.1.3 3.2.8 4.8.6 9.8-1.4 14.2-1.5 4.6-6.2 7.6-6.7 12.6 5.1.9 10.3.6 15.4 1.7 3.4-2.3 6.4-5.2 9.7-7.7 1.9-1.5 4.4-.7 6.6-.4 5.2 1 9.9 3.8 15.2 4.4 3.4.4 6.7.9 10 1.3.2-1.5.4-3 .6-4.4-3.1.2-6.3.6-9.4.9 3.7-2.4 8-4.4 9.9-8.6 2-4.2 4.5-8.3 8.4-10.9 4.7-3.8 10.9-3.3 16.4-4.8 3 0 6-.1 9 .3 3.9 1.1 7.6 2.7 10.9 5.1 4.1 3.2 7.4 7.4 10.8 11.2 2.3 2.6 5.7 4.4 7 7.8 2.7 6.4 6.4 12.4 9 18.9 2.7 6.5 8.8 10.9 11 17.6-6.9-2.3-12.4-7.7-19.5-9.5-.2 1-.4 2.1-.6 3.1 2.2 1.1 4.5 2.1 6.6 3.4 2.8 1.7 4.8 4.5 7.5 6.3 2.4 1.5 4.9 2.8 7.3 4.2-.3 1.5-.5 2.9-.8 4.4-4.2-.8-8.3-2.1-12.5-3.1-4.4-.6-8.9-.1-13.4-.5-3.2-.7-5.9-2.9-9.1-3.8-1.6.5-3.1 1.7-2.5 3.5.6 5.7 5.2 9.7 8.3 14 3.2 4.5 6.8 8.7 10.8 12.6-.5 1.7-1.1 3.3-1.2 5 .2 2.7 3.5 2.8 5.4 3.8-.3-2-.6-3.9-.9-5.9.3.1.9.3 1.2.5 3.5 1.7 6.9 3.8 10.3 5.7 2 2.8 3.6 5.9 5.3 8.9-.9.9-1.9 1.8-2.8 2.7 1.5 1.9 3 3.9 4.4 5.9-2 .9-3.9 1.8-5.9 2.7.8 2.2 1.9 4.3 2.4 6.7-.8 1.5-2.4 2.3-3.7 3.4.7 1.4 1.3 2.9 2 4.3-1.6.8-3.2 1.5-4.8 2.3.3 2.1.5 4.1.7 6.2-1.6-.6-3.2-1.2-4.7-1.9-.1 5.2-6.2 5.5-7.9 9.8-2.1-.9-4.4-1.4-6-3-3.7-5.3-5.4-11.7-9-16.9-2.8-4.1-4.5-8.8-6.9-13-1.4-2.7-4.3-3.9-6.7-5.6-3.7-2.2-7-5.4-11-7-7.4-3-14.7-6.6-22.6-8-1.1 3.8-2.1 7.7-2.4 11.7-.1 2.8-1.5 6-4.3 7-5.6 2.1-11.5 2.6-17.3 3.7-2.3.2-3.8 2.2-5.6 3.5-1.7-2-3.4-4-5.2-5.9-1.3.3-2.7.5-4 .7.2-.4.5-1.1.6-1.5 2-2.7.4-5.8-.8-8.4-1.6.4-3.1.8-4.6 1.2 1.1 1.6 2.3 3.2 3.4 4.8-.7.2-1.9.7-2.6 1-1.3-1.9-3.9-3.8-2.8-6.4 1.2-2 3.6-2.2 5.6-2.9 3.8 2.8 7.7 6.7 12.8 6.2 4.3-.4 8.9-1.1 12.6-3.5 1.4-4.1 0-8.4-1.2-12.3-1.8-6.1-8.6-7.8-13.8-10.2-.1 2.4-.2 4.8-.4 7.3-7 2.9-13.3 7.6-20.7 9.7-1.8-1.2-3.6-2.3-5.4-3.4-1.4.5-2.8 1.1-4.1 1.6.7-1.6 1.4-3.2 2.1-4.8-1.3-1.5-2.6-2.9-3.9-4.4-.9.6-1.8 1.2-2.7 1.8-1.2 1-3 1.8-4.2.3.6-2.3 2.8-4 5.1-4.3 3.7.2 7.1 1.7 10 3.9.8.3 1.7 1.5 2.6 1 3.9-1.8 7.5-4.3 10.8-7 2.4-1.5 1.1-4.5 1.2-6.8-.6-4 1.2-7.8 2.1-11.5.7-2.7-.5-5.4-1.5-7.9-2.6-6-9-8.8-13-13.6-1.3-1.3-.7-3.3-.7-4.9.6-4.8.8-9.7 1.1-14.6-3.5-.5-7-1.1-10.5-1.7.7 1.8 1.5 3.6 2.2 5.4-1.3.4-2.7.8-4 1.2-1.1-3.2-2.3-6.4-4.2-9.2-5.2 5.5-10.2 11.3-15 17-4.7-1.6-9.4-3.3-14.4-3.9.7-.9 1.4-1.8 2.1-2.7 1.4.6 2.9 1.3 4.3 1.9 1-1.5 2.1-3 3.1-4.6-2-.4-4-.8-6-1.2-.3-1.8-.7-3.5-1-5.3 3.3-1 6.6-2.5 8.4-5.6 3.7-6.7 3.8-14.9 1.2-22-3.6 1.5-4.2 5.3-4.7 8.8 1.2 0 2.3 0 3.5-.1-1.4 2.1-2.7 4.3-4.1 6.4-.3.4-.8 1.1-1 1.4-.4-.4-1.3-1.3-1.7-1.8 0-6.2-.7-12.3-1.3-18.4 6.1 1.3 11.7 4.1 16 8.7 3.9-.7 7.8-1 11.8-.9.2-2.4.4-4.8.5-7.2-2.8 1.8-6 4.1-9.6 3.4-4.6-1.2-7.9-4.9-12.3-6.4-3.9-1.1-8-.9-12-.7 1.4-1.2 2.9-2.4 4.3-3.5 12.2 2.6 24.9 1.6 37-.2-1.2-2-1.9-4.5-3.8-6-3.7-1.5-7.7.1-11.3 1.2-.8-.4-1.6-.7-2.3-1.1-3.2 1.5-6.7 2-10 .6-5.3 1.8-11.5 1.8-15 6.6-1.1-2.2-2.3-4.3-3.4-6.5-.2-.3-.5-.9-.6-1.2 4.7-2.1 9.6-4 14.8-4.1m11.8 13.2c-.5 1.1-.9 2.1-1.4 3.2 2.4.3 4.8.5 7.2.8.3-.3.8-.9 1.1-1.2-2.3-.9-4.5-1.9-6.8-2.8m20 9.1c.9 2.8 3.9-.3 5.7-.6-1.3-1.7-2.6-3.5-4-5.1-.6 1.8-2.1 3.7-1.7 5.7m78-.1c1.9 1.8 3.9 3.6 6 5.3 1-1.2 2.4-2.3 2.2-4-2.6-1.2-5.4-1.9-8.2-1.3m10.8 1.9c.9 1.6 1.4 3.7 3.1 4.7 2.2.4 4.5.2 6.8.1-.9-4.7-6-4.9-9.9-4.9m-105 2.5c0 .7 0 2.2 0 3 .7 0 2.2 0 3 0 0-.7 0-2.2 0-3-.7 0-2.2 0-2.9 0m13.8.5c-.9 1.6-1.7 3.2-2.6 4.8 1.2.4 2.4.8 3.7 1.1 1.5-.9 2.7-2.1 3.9-3.3-.5-.7-1.4-2-1.9-2.7-.8 0-2.3 0-3.1 0m-9.9 3c.1 2.7.5 5.4 1.3 8 .6-.9 1.2-1.8 1.8-2.8 0-2.1-1.8-3.6-3-5.2m109 4.2c-.4 1.5-.7 2.9-1 4.4-3-.1-6.5-1.9-9.1 0-.4 1.8 1.3 2.5 2.6 3.3 2.9 1.8 6.4 1.7 9.8 1.8 1 2.9 2.8 5.3 5.3 7.1 2.8 2 4.4 5.2 5.4 8.3-2.9-1.7-5.3-3.9-7.3-6.4-1.1.4-2.1.8-3.2 1.1 1.9 4.5 6.5 6.8 9.4 10.6 1.6 2.2 3.9 3.8 6.7 4.3.3-1.1.7-2.2 1-3.4-.4-.2-1.1-.6-1.5-.8l-.6.5c-1.3-1.1-2.6-2.2-3.9-3.3.1-.7.4-2 .5-2.7 3.3 1.2 6.1 3.3 8.5 5.7 1.3 1.6 3.3 1.5 5 1.1-2.4-4.3-5.8-8-10-10.6-2.9-1.2-5.2-3.6-6.9-6-.8-1.2-1.6-2.3-2.5-3.4-1.4-1.3-2.9-2.6-4.4-3.8 1.6 0 3.1 0 4.7-.1.6-1.4 1.1-2.9 1.7-4.3-3.2-1.6-6.6-2.8-10-3.5m-110 9.6c2-1.3 3.2-3.3 3.5-5.6-2 1.3-3.2 3.3-3.5 5.6m86-2c3.4 0 9 .7 9.8-3.8-3.7-.4-7.8.3-9.8 3.8m35.9-2.9c-1.7 2.9-.9 6 .5 8.8 2.4 1.7 4.6 3.9 7.4 4.6 1 1.8 2.4 3.3 4.2 4.4-.2-2.3-.6-4.6-2-6.4-2.9-4.2-5.1-9.3-10-11.4m-46.7 3.6c-2 .5-2.3 2.9-3.2 4.4 2.9-.3 5.8-.6 8.6-1.5 2-.6 1.6-2.9 2-4.4-2.5.5-5 .8-7.4 1.5m-76 2.2c-1.6 3 3.3.1 0 0m90 4.3c1.7.2 3.5.3 5.3.5-.2.6-.6 1.7-.7 2.2-1.8 0-3.6.2-5.4.3 1 1.2 1.9 2.5 3 3.5 1.3.5 2.8-.1 4.2-.1.1-.3.2-.8.3-1.1.1 1.4.3 2.9.7 4.3 1 1.7 3 2.3 4.6 3.2 1.7-3 3.3-6.1 4.7-9.3 2-.2 4.1-.3 6.1-.5-.4-1.2-.8-2.4-1.3-3.5-5.6-2.5-11.8-3.3-17.9-2.8-1.9.1-2.6 2.1-3.7 3.3m-105-1.5c-1.9.4-1.4 3.6.6 2.9 1.9-.4 1.4-3.6-.6-2.9m80 2.2c-2.2.5-2.6 3.1-3.6 4.8 4.2 1.4 8.4-.3 12.6-1 2.8.8 5 3.1 7.9 3.3 2.1.3 4.4.1 6.2 1.3 3.8 2.4 5.2 8.1 10.4 8.1.5 4.1 1.7 8 3.7 11.7-1.7-1-3.4-1.9-5-2.8-.1 1.5-.2 3-.3 4.5 2.3.4 4.6 1.2 6.9.6 3-3.1 3.4-9-.7-11.5-.2-1-.3-1.9-.4-2.9-5.1-4.3-10.3-8.4-15.4-12.6-3.4-1.3-7.1-1.3-10.4-2.7-3.7-1.5-7.9-1.8-11.7-.9m-13.7 4.9c-.9.9-1.8 1.8-2.1 3.1-.8 2.3 1.9 3.5 3.2 5-.5 1.3-1 2.6-1.5 3.9 1.7.4 3.5.8 5.3 1-.4-2.3-1.1-4.6-1.2-7 .5-1.5 1.4-2.9 2.1-4.3-1.9-.7-3.7-1.6-5.7-1.8m19.7 1c.1 1.1.1 2.3.2 3.4 1.1.6 2.1 1.2 3.1 1.8 1.2-1.7 2.3-3.5 3.2-5.4-2.2 0-4.3.1-6.5.2m-12.2 1.4c.5 1.4 1.1 2.7 1.6 4.1-.9 1.4-1.9 2.8-2.8 4.3 1.4.5 2.8.9 4.1 1.3 1.5-3 2.8-6.1 3.6-9.3-2.1-.5-4.3-.7-6.5-.4m-71 1.5c-1.9.4-1.4 3.6.6 2.9 1.9-.4 1.4-3.6-.6-2.9m77 .8c.4 1.4.9 2.8 1.5 4.2 1.8.2 4.5-.6 3.8-2.9-1.5-1.2-3.5-1-5.3-1.3m20.4-.5c-.6 2.2-1.1 4.5-1.6 6.8 2.3.6 4.7.6 7 0-1.3-2.6-3.1-4.9-5.5-6.7m21.9.2c-2.9 1.4-1.1 6 2 4.8 2.9-1.4 1.1-5.9-2-4.8m-31.4 2.3c2.7 3.7 4.2 8 5.2 12.4-2.1 2.2-3.9 4.7-5.2 7.5 2 .4 4 .9 6 .9 1.7-1.4 2.6-3.5 3.7-5.3-1.1-1.1-2.1-2.2-3.2-3.3.5-1 .9-2 1.4-3-.9-3.4-1.4-6.9-2.8-10.2-1.7.2-3.4.6-5.1 1m-11.7 4.2c.1 3.8 4.5 3.7 7.3 3.6-.5 2.8-1.4 5.7-.4 8.4.5 1.3 1 3.4 2.9 2.9 1.4-3.9 4.9-9.2 1-12.7-2.4-3.4-7.3-3.6-10.9-2.2m-23.6-.5c.4 2 .2 4.3 1.7 6 3.6.6 3.6-3.5 3.8-6-1.9 0-3.7 0-5.5 0m69 1.1c1.7 3.1 3.6 6.5 7.5 7-1-2.5-2.3-4.9-3.5-7.2-1 0-2.9.2-3.9.2m-51 2c-.8 2.1-1.3 4.3-1.8 6.5-1.8-1.5-3.6-3-5.4-4.5-.3 1.6-2.4 3.6-.7 5 3.5 3 3.5 7.8 4.4 11.9 3.3.5 6.7.4 9.9-.4-1.7-2.8-4-5.3-7.3-6.1.4-2.2.8-4.3 1.2-6.4 2.1 2.3 3.9 4.9 6.2 7 1.1 1 2.7.2 3.5-.8-.2-5.8-6-8.7-9.9-12m28.7 3.5c.2 1.6.5 3.1.7 4.7 1.4-.2 3.2.3 4.1-1.2 1.7-1.6 1-4 .6-6-1.8.8-3.6 1.6-5.4 2.4m33.7 2.9c-1 1.3 1.2 3 2.1 1.6 1-1.3-1.2-2.9-2.1-1.6m-84 2.7c-2.3 2.5-.6 6.1-.5 9 1.3 0 2.6.1 3.9.2.3-2.5.4-5.1.3-7.7 1.6.7 3.2 1.3 4.8 1.9-.4-1.7.1-3.9-1.5-5.1-2.4-.4-5.4-.5-6.9 1.7m86-.7c1.6 3.6 5.6 3.8 9 3.1-2.4-2.4-5.7-3-9-3.1m-35.6.5c-1 1.6-2 3.2-3 4.9.9 1.2 1.9 2.5 2.9 3.7-3.9-.1-7.8-.3-11.7-.1 1.5 2.5 3.5 4.6 5.6 6.5 1.5-.5 3-1 4.5-1.6-.7 1.4-1.4 2.8-2 4.3 1.4 2.1 3.8.1 5.7-.1-.8-2-1.6-4-2.5-6 3.2-.2 6.4-.4 9.6-1-.6-2.7-2.2-4.8-4.8-5.8-1.4-1.6-2.8-3.1-4.3-4.6m19.4-.1c-.5 2.2-1.4 5.2 1.3 6.4 2.7 1 3.2-2.7 2.8-4.5-1.2-.9-2.7-1.3-4.1-1.8m-4.9 5c-.6 3.2-.8 6.5-.9 9.7 2.4-.4 4.8-.9 7.2-1.4-.4-3.7-2.2-7.5-6.3-8.3m-54.8 2c-.1 1.5-.2 3-.3 4.5 1.5-.1 3.1-.1 4.6-.2-.5-2.3-2-3.8-4.3-4.3m3.7 4.7c.3 1.3-.1 3 .8 4 1.1.5 2.1.9 3.3 1.3.4-1.8.8-3.6 1.1-5.4-1.7 0-3.5 0-5.2 0m7.9 2.6c-1.8 1.2-.6 3.6-.5 5.3-2.4.2-4.9.2-7.3.2 0 1.3.1 2.6.1 3.8 3.9.2 8.3-1.7 11.8.8 2.5 1.5 5.5 1.8 8.4 2 .1-3.6.2-7.3.6-10.9 1.3 2.4 2.4 5 3.8 7.4.6 1.5 2.4.7 3.6.7 1.6-.5 5.1-.3 4.4-2.9-2.6-3-5.9-5.2-8.7-8-2.4.9-4.8 1.7-7.2 2.6-.3 2.1-.5 4.2-.8 6.3-.8 0-2.4-.1-3.3-.1 1-2.8 1.9-5.7 2.3-8.6-2.4.3-5.1.1-7.2 1.4m-18 0c.4 1.7.3 3.6 1.4 5 1.2.7 2.5 1.1 3.8 1.6.1-1.5.1-3 .2-4.5-1.8-.8-3.5-1.5-5.3-2.2m49.9 2.2c.8 1.6 1.6 3.3 2.4 4.9 2.4-.7 4.9-1.2 7.2-2.2 0-1.1-.3-2-.9-2.9-2-3.1-6-.3-8.7.2m-7 8.1c2 .4 4 1.2 6 .7 3-1.7.6-5.4-1.5-6.8-1.5 2-3 4-4.5 6.1m12.9 2c1.8.3 3.9 1.5 5.6.1 2.7-1.6 1.6-5.1 1.9-7.7-3.7 1.1-5.9 4.3-7.5 7.6m-61.8-4.4c0 2.2 0 4.3.1 6.5 1.7-1.5 3.4-3.1 4.5-5.1-1.5-.5-3.1-.9-4.6-1.4m37 3.2c.5 2.7.6 5.5 1.3 8.1.3 2 3.5 2.6 4.4.7 2.9-2.8-.4-6.2-1.8-8.7-1.3 0-2.6-.1-3.9-.1m-31.6 1.3c-1.4 1.3.8 3.6 2.2 2.1 1.5-1.3-.8-3.6-2.2-2.1m20.8-.2c-1.8 1.2-.4 3.3-.4 5 1.5 0 3.1-.1 4.6-.1-.7-2.1-1.6-4.7-4.3-4.8m-8.3.4c-.2 1.7-1.6 4 .3 5.4 1.2.8 2.6 1.2 3.9 1.7.1-1.5.9-3.2 0-4.5-1.2-1.1-2.8-1.7-4.2-2.5m28.9 6.4c1.1.6 2.3 1.2 3.4 1.7 1.3-1.4 2.6-2.8 3.9-4.3-1.1-.9-2.2-1.8-3.2-2.7-1.4 1.7-2.8 3.4-4.1 5.2m8.8.3c1.6 1.2 3 3.1 5.2 2.9 2.1-2.2 1.7-5.9.1-8.3-2.6.8-3.7 3.5-5.3 5.4m29-5.5c.4 1.7.8 3.5 1.6 5 1.6.8 3.3 1.2 5 1.6-.6-1.8-.7-4-2.3-5.3-1.3-.7-2.9-1-4.3-1.4m-51.8 4.1c-.5 1.7-.9 3.4-1.2 5.2 1.8 0 3.6 0 5.3 0-.1-1.3-.2-2.5-.3-3.8-1.3-.5-2.6-1-3.9-1.5m14.4 7.3c1.8 1.8 4.1 1.3 6.3.4-.1-1.1-.3-3.3-.3-4.4-2.4.7-4.9 1.5-5.9 4m39.8-1.5c.7 2.6 1.4 5.2 1.5 7.8-1.3-1.8-2.4-3.8-3.8-5.5-1.1 0-2.1.4-2.8 1.2-.1 3.1 2.1 5.6 3.4 8.1 5 1.9 10 3.8 14.8 6.1-.6.3-1.7.8-2.2 1.1-1.6-.7-3.3-1.3-4.9-1.9-.1 1.5-.1 3-.2 4.4 2.3.4 4.7.3 6.8 1.3 1.4 1.9 0 5.1 2 6.7 3.7.3 7.3 1 10.5 2.9.1-4.1-.7-8.5-3.5-11.7-2.3-.8-4.7-.9-7.1-1.3-.1-1.8.1-3.6-.4-5.3-1.6-2.6-5.3-1.8-7.4-3.7-1.1-2.6 0-5.5.1-8.2-2.1-1.1-4.5-1.9-6.8-2.3m-14.3 9.4c.3 2 .6 4 1.2 6 .4 2 2.6 2.7 4 3.9 3.1 1.6 3.1 5.5 5 8 1 1.2 2.2 2.2 3.4 3.3.4 2.3.9 4.6 1.4 6.9 1.5-.5 3-1 4.5-1.5-.8-3.2-1.9-6.3-3.2-9.3-1.5-1.3-3.2-2.5-4.4-4.1-.7-1.8-1-3.7-1.4-5.5-3.1-1.7-5.1-4.6-6.7-7.6-1.3 0-2.5-.1-3.8-.1m-7.8 1.5c-1.3.9.3 3.2 1.6 2.2 1.3-.9-.3-3.2-1.6-2.2m44.5 3c1.4.5 2.9 1.1 4.4 1.6-.1-1.9-.2-3.7-.3-5.6-2.2.4-3.7 1.7-4.1 4m-5.8-.4c.1 2.9 3.1 3.6 5.3 4.3-.1-1.4-.3-2.8-.6-4.1-.6-2.4-3.4-1.2-4.8-.2m-14 29.7c1.7 1.3 3.9 1.1 6 1.4.1-1.5.2-3 .2-4.5-2.7-.9-5.8-.1-6.2 3.1m4 1.4c-.4 1.9-1.6 4.3.2 5.8 1.7-.2 3.2-1.3 3.8-2.9-1.3-1.1-2.7-2-4.1-2.9z"/><path d="m184 46.6c.1-4-.2-8.9 3.6-11.4-.7 3.8.7 9.5-3.6 11.4"/><path d="m49 46.7c.8-.7 1.5-1.4 2.3-2 .6.8 1.2 1.6 1.8 2.4 4.1 0 8.2.6 12.2 1.4.4 1.7.7 3.4 1.1 5.1 1 0 2 0 3 0 0-2.4 0-4.8.1-7.2 1.9.3 3.9.6 5.8.9-.5 1.7-.9 3.4-1.4 5 2.5 1.3 5.1 2.7 7.6 4.1.7-.7 1.4-1.4 2.1-2.1 2.9-1.7 6.5-1.3 9.2.6 3.6 2 3.2 6.6 4.3 10 .3 2.5 2.2 5.3.4 7.5-2 2.6-5.6 2.8-8.5 3.8 1 .9 2 1.8 3 2.7-1.2.5-2.3 1-3.5 1.5-6.1 2.3-12.4 4.5-17.5 8.8-3.4 2.6-6 6.3-9.6 8.7-2.9 1.3-6.2-.5-8.5-2.2-2.9-1.8-2.3-5.4-2.5-8.3.1-5.5-1.2-11-.9-16.5.2-8 2-16.3-.5-24m5 2.6c-1.5 1 .2 3.5 1.6 2.4 1.5-1-.2-3.5-1.6-2.4m13 9c-.1.9-.3 2.8-.5 3.7.9-.1 2.8-.3 3.7-.5-1.1-1.1-2.2-2.1-3.3-3.3m4.7 4.6c0 1.3 0 2.6 0 4 .5 0 1.5 0 2 0 0-1.3 0-2.7 0-4-.5 0-1.5 0-2 0m3.9 2.9c.7 1.7 1.5 3.3 2.2 4.9-1.2.4-2.4.9-3.6 1.3 1.1 1.9 2.1 3.9 3 5.9 1.5-.8 2.9-1.7 4.3-2.5-.8-.6-1.6-1.3-2.5-1.9.8-2.9.9-6 .6-9-1.4.4-2.7.8-4.1 1.1m13.3 5.5c-1.7.1-1.7 3 0 3.2 1.7-.1 1.7-3.1 0-3.2m-27 3.8c-1.6 3 3.3.2 0 0m5.1 1.3c-1 .8-.8 2.8.6 3 2.1-.1 1.3-4-.6-3m16.2.6c1.2 1 2.3 2.1 3.5 3.1.5-1.1.9-2.2 1.4-3.3-1.6 0-3.3.1-4.9.2z"/><path d="m180 49c2.4-1.4 5.3-1.3 8-1.5-.7 2.9-1.1 5.9-1.6 8.9-2.7-2.1-5.9-3.4-9.4-3.1.8-1.5 1.8-2.9 2.9-4.3"/><path d="m189 62c0-1.2 0-2.3 0-3.5.8.5 2.5 1.4 3.4 1.9-1.1.6-2.2 1.1-3.4 1.6"/><path d="m182 64c1.2-1.2 2.4-2.4 3.6-3.6 1 1.5 1.9 3.1 2.8 4.6-2.7.7-5.5 1-8.2.7.4-.5 1.4-1.4 1.8-1.8"/><path d="m160 64c2.1.1 4.4.2 6.2 1.5-2.2.6-4.4 1.3-6.6 2 1.3 2.3 2.4 4.9 4.5 6.6 1.8-.3 3.5-.9 5.3-1.5.7 2.5 1.4 5.1 2.3 7.6-.3.1-.9.4-1.2.5-2.8 1.2-5.6 2.4-8.4 3.5.7 3 1.4 5.9 2.1 8.9-1.1-.1-2.2-.2-3.3-.3-.3-1.7-.6-3.5-.8-5.2-.3-1.6-.6-3.2-.9-4.8-1.1 2.1-2.2 4.1-3.2 6.2 2.3-5.6-.5-11.3-.9-17 1-3 3.3-5.4 5-8"/><path d="m168 65c1.2.7 2.4 1.4 3.6 2.1-1.8 1-3.5 1.9-5.3 2.9.6-1.6 1.1-3.3 1.6-5"/><path d="m311 67.8c2.8.2 5.6.5 8.3 1-3.1 1.5-6.4 2.5-9.8 3.2.4-1.4.9-2.8 1.5-4.1"/><path d="m173 74c.8-.2 2.4-.5 3.3-.7-.3 1.5-.7 3-1.2 4.5-.7-1.3-1.4-2.6-2.1-3.9"/><path d="m77 90c3.5-1.4 6.9-3.5 10.7-3.7 2.5.9 4 3.4 6 5.1-.4-2-.9-4-1.2-6 2.3 1.8 4.3 3.7 6 6 1.2 0 2.3-.1 3.5-.2 3.3 6.8 8 12.7 10.8 19.8 1.2 3.2 3.4 5.8 6.3 7.7-4.8-.5-7.9 3.2-11.5 5.5-1.2-2.8-1.6-5.9-3.1-8.6-1.6-1-3.5-1.4-5.2-2-.1-.4-.2-1.1-.3-1.5.3-.2 1-.7 1.3-.9 1.6-1 3.2-1.9 4.8-2.8.5 1.8.8 3.6 1.5 5.2 1.6 1.4 3.8 1.7 5.7 2.4-.9-5.1-4.3-9.2-7.3-13.2-4.8 2.5-9.5 5.5-13.4 9.3 2.4 2.5 5.3 4.3 8 6.4 3.5 2.7 4 8.7 8.8 9.8 3.8.7 6.7-2.2 8.2-5.3 1.3 1 2.5 1.9 3.6 3.1.9 2 .6 4.3.5 6.5-.5 5.5 1.5 10.8 3.1 16-9.3 3.3-18.8-2.8-28-.8-2.5 1.8-3.8 4.8-5.5 7.3-1.6 2.6-4.1 4.6-6.4 6.6 2.3 2.3 4.9 4.3 7.8 5.8 6.3 3.3 12.5 7.3 16.7 13.2 2.9-2.3 5.5-6 9.5-6.4 2.5 1.5 4.3 3.8 6.3 5.9-.8-3.1-2.1-6-2.8-9 .5-.1 1.4-.4 1.8-.5 5.8-1.4 11-4.1 16.7-6 1.7-.7 3.5.2 5.2.7 4.2-6 10.7-9.6 17.7-11.3-.4 4.3-.6 8.5-1.2 12.8-.4 2.8-1.8 5.6-4.3 7.2-4 2.6-8.7 3.9-13 5.9-3.4 1.4-6.7 3.4-10.3 4.2-2.7.6-5.3-.6-7.8-1.5.6 1.3 1.3 2.6 1.9 3.9-3.2-2.1-6.8-3.5-10.6-3.2.2 1 .4 2.1.5 3.1 2-.3 4-.6 6-.8-3.3 2.9-7.7 3.3-11.9 3.7-2 4.1-4.8 7.7-6.6 11.8-1.7 3.3.7 6.7 2.1 9.7-.2.6-.7 1.7-.9 2.3-1.7.7-3.4 1.3-5.1 2-.8 3.3-1 7-3 9.9-5.9 3.5-12.7 4.9-19 7.5-2.6 1.1-5.3 1.8-8 2.4.4 1.7.8 3.4 1.2 5.1 3.8-1 7.6-2 11.1-3.8 5.2-2.7 11-3.7 16-6.5.6 5.9-1.9 11.2-5.2 15.9 4.4 2.6 9.1 5.4 11.8 9.9 4.1 6.8 5.6 14.8 10 21.5.3.5.9 1.6 1.1 2.1.2 5.7-.4 11.4-.3 17 .2 10.4-3 20.5-4 30.8-.4 2.7 1.7 4.7 3.2 6.7-.7 1.2-1.3 2.4-2 3.6.5.7 1.1 1.4 1.6 2.1 4.2-1 9.8-3.3 13.3.6 2.2 3.5-1 7.5-2.3 10.8-.3.5-.7 1.4-1 1.9-4 .1-8.3-.3-11.3-3.2-2.4-2.5-5.9-1.7-8.9-2.3-2.8-2-5.5-4.3-7.1-7.3.4-2.3 1.4-4.5 1.8-6.9-.2-5.2-3.3-9.8-3.9-15-.8-6.6-2.9-13-3.3-19.6-6.1 7.4-11.9 15.2-19.6 21-4.4 3.3-8.4 7.2-12 11.4 2.4 5.1 2.1 10.8 3.3 16.2-2 1.1-4.3 2.1-6.6 1.3-3.7-1.9-7.2-4.9-8-9.2-.9-4.3-5.9-6.1-6.5-10.6-.5-1.9 0-4 1.4-5.5 2.3-1.4 5.1-1.5 7.5-2.6 5.5-7.9 9-17 12.2-26 .3-1.4 1.2-2.8.6-4.1-1.8-4.1-4.8-7.7-5.5-12.2.1-5.7 2-11.2 4.2-16.4 1.3-2.9 4.5-4.6 5.6-7.6-.3-4.4-4.9-6.3-8-8.4-5.4-2.9-9.8-7.4-15.6-9.6-5.4-.4-10.8-.6-16-1.9-5-1.3-6.6-7.2-11.4-8.9.7-5.2.7-10.7 3.5-15.4 1.4 1.5 2.7 3 4 4.6 3.1-1.5 6.5-3.3 10-2.8 3.4 1.3 5.7 4.3 8 7 1.1 1.5 2.2 3 3.2 4.5-4.3 0-7.2-3.1-9.3-6.5-1.3.6-2.6 1.2-3.9 1.8 2.2 3.5 5.9 5.4 9 8-.3 2.2-1.2 4.2-1.8 6.3 1.5.1 2.9.2 4.4.3.5-2.9 1-5.8 1.6-8.7 1.9 1.3 3.7 2.6 5.6 3.9 2-2.1 3.1-4.8 3.3-7.7 1-.3 2.1-.5 3.1-.8-1.9-1.2-3.8-2.4-5.8-3.6.5-2.1 1.4-4.2 1.2-6.4-1.2-1.7-2.8-2.8-4.4-4.1.6 2.1 1.3 4.3 2 6.4-1.9-1.6-3.9-3.2-5.9-4.6.4 5.9 4 10.6 7.7 14.8-1 .1-2.1.2-3.1.3-.7-1-1.4-2-2.1-3.1-.8-1.1-1.4-2.2-2.1-3.3-2.4-5.6-8.6-7.7-11.9-12.7-2.6-3-2.2-7.3-1.9-10.9 1.9-5.9 6.2-10.8 10.8-14.9 4.8-3.5 9.8-6.9 14.7-10.3 4.8-3.7 11.2-3.1 16.4-6-1.1-3.4-2.8-6.9-1.9-10.6 1.1-6.6 2.8-13 3.7-19.8-1.5-1.2-2.9-2.4-4.3-3.7.3-.2 1-.5 1.3-.7 1.2-.7 2.5-1.3 3.7-2-3.3-6.1-7-12.3-7.5-19.5-.8-5.8 1.5-12.8 7.3-15m2.3 27c-1.2 1.5 1.4 3.1 2.4 1.6 1.2-1.5-1.4-3.1-2.4-1.6m6.7 5.6c2.6 3.3 4.6-2 6.2-3.7-.3-.6-1-1.7-1.4-2.3-1.9 1.7-4.9 3.1-4.8 6m12-1.6c-.5 1.6 0 2.2 1.7 1.7.5-1.6 0-2.2-1.7-1.7m-19 4.8c1 2 2 4 3 6 1.1-.4 2.2-.9 3.2-1.3-.7-2.4-1.5-4.7-2.3-7.1-1.3.8-2.6 1.6-4 2.4m11.5.7c.8.1 2.5.2 3.4.3.3-1.2.7-2.4 1-3.6-1.8.7-3.4 1.7-4.4 3.3m15.8 2.4c-.5 1.6 0 2.2 1.7 1.7.5-1.6 0-2.2-1.7-1.7m7 1.1c-1.6.3-.9 3 .7 2.5 1.6-.3.9-3-.7-2.5m-28 3.9c-.5 1.6 0 2.2 1.7 1.7.5-1.6 0-2.2-1.7-1.7m10.6 2.9c.4 1 .8 2 1.2 3 1-.4 2-.8 2.9-1.3 0-.8 0-2.3 0-3-1.4.4-2.8.8-4.2 1.2m-13.5 7.9c1.1 1.4 2.4 2.6 3.6 3.8 1-1.7 1.9-3.4 2.9-5.2-2.3-1.2-5.3-1.7-6.5 1.3m23.9-.8c-.5 1.6 0 2.2 1.7 1.7.5-1.6 0-2.2-1.7-1.7m-29 4.1c-1.7.4-1.2 3.4.6 2.7 1.8-.3 1.2-3.3-.6-2.7m51 23.9c-.1.7-.2 2.1-.2 2.8 1.5.6 3.1 1.3 4.6 1.9 1.1-2.9 4.3-5.2 3.9-8.4-3.3-.4-5.8 2.1-8.4 3.7m-53-.9c-1 .8-2 1.7-3.1 2.6-3.9-.8-7.8-.3-11.7-1-2.5-.7-4.4 1.3-6.4 2.3 1.2 2.7 3.5 5.5 2.8 8.6-1.3 3.1-5.7 4.4-6 8-.4 3.3-.8 6.7-2.1 9.8 1.3.7 2.6 1.5 4.1 1.6 1.9-4.7.9-10.2 3.6-14.7 1.2-2.1 3.2-3.6 4.3-5.7.1-1.4 0-2.7-.1-4.1 1.5.7 2.9 1.5 4.5 1.8 2.3-.6 4.6-1.7 7-1.4 2.7.4 4.8-1.8 6.9-3.1.5 1.4 1 2.8 1.6 4.2 3.3-1 6.5-2.5 9.5-4.3-.5-2-.9-4-1.4-6-3.9 3.2-9 2.9-13.6 1.4m15.9-.9c-1.6 3 3.3.2 0 0m.2 5.8c.1 3.3 3-1.5 0 0m23.3.4c-.2 2-.3 3.9-.5 5.9 1.2-.6 2.8-.6 3.7-1.7.2-1.6.2-3.2.3-4.8-1.2.2-2.3.4-3.5.6m-65.9.2c1 2.2 2.3 4.4 3.5 6.5-1.7-.7-3.4-1.4-5-2.1-1.8 1.9-3.8 3.7-5.6 5.6-2.5 2.7-3.6 6.3-4.8 9.6 3.6-.1 7.3-.3 10.8.7-.1-6.4 4.6-11 7.4-16.3-2-1.5-4.1-2.9-6.4-4m42.6 6.7c.2 2.2 1.1 4.3 1.2 6.5-.6 2.8-1.7 5.6-2.4 8.4 3.6 2.3 6.9 5.1 10.7 7.3-.4-2.4-.7-4.9-.6-7.4-.8-1.6-1.7-3.2-2.6-4.8 1.7.7 3.4 1.4 5.2 1.8.4-1.2.7-2.4.9-3.6.7-.3 2-.8 2.7-1.1-1-1.8-2.1-3.5-3.2-5.2 1-1.2 2.6-2.2 2.8-3.9-2.3-1.6-4.8-2.7-7.2-4.2-2.6 2-5.8 3.4-7.4 6.3m-15.6 2.8c-.6 4.6 1.8 8.8 2.3 13.3 2.8-.3 6.4 1 8.5-1.5-.3-4.5-2.3-8.8-2.3-13.4-2.8.4-6.5-1.1-8.5 1.5m-39 13.2c1 2 2.4 3.6 4.2 4.9.4-.6 1.3-1.7 1.7-2.2-.8-1.4-1.6-2.8-2.5-4.2-1.1.5-2.3 1-3.5 1.5m6.6-1.7c.2 1.9.5 3.9.8 5.8 1.4-.3 2.7-.6 4-.9 1.6-2.9-2.6-4.5-4.8-4.9m36.6 4.9c-1.7 2.1-2.9 4.5-4.3 6.8-1.5-.9-3.1-1.7-4.7-2.6-.5 3.5.5 6.9.8 10.4.2 3.3 2.6 5.7 4.1 8.4 4.8.2 9.8.1 14.3-1.7 1.4-2.1.5-5 1.8-7.2 1.3-.8 2.8-1.3 4.2-1.9-.4-2.4-.8-4.9-1.1-7.4-2.1-.8-4.1-1.7-6.2-2.5 0-1.3.1-2.6.1-3.9-3 .3-6.2.3-9 1.5m-20.8 10.3c.5 1 .9 2.1 1.4 3.1 1.2.1 2.5.1 3.7.2 0-1.4 0-2.9 0-4.3-1.7.3-3.4.7-5 1m-30.6 2c-.7 3.6-2.6 7-2.8 10.7 1.2 1.5 2.7 2.7 4.1 3.9.4-5.3 4.2-9.3 5-14.4-2.1-.1-4.2-.1-6.3-.2m-7 1.2c-.4.8-1.3 2.6-1.8 3.4 1.8 1.1 3.6 1 5.2-.3-.7-1.5-2.3-2.1-3.4-3.1m37.8 6.3c-1.5 3 3.3.1 0 0m-26.8 5.5c1.4 1 2.7 2 4 3.1 1-2.3 1.2-4.6-.2-6.8-1.3 1.2-2.6 2.5-3.9 3.7m23.4 2.6c1.3-.3 2.5-.6 3.7-1 1-1.4.5-3.2.8-4.8-2.6 1-4.3 3-4.5 5.8m7.5-5c-1.5 1 .2 3.5 1.6 2.4 1.5-1-.2-3.6-1.6-2.4m-1.6 10.6c2 1.4 4.1 2.7 6.3 3.7 0-.9.1-2.8.1-3.7-2.1 0-4.3-.1-6.4 0m1.1 5.1c2.2 2.1 4.5 4.2 6.7 6.2.9-1 1.8-2.1 2.5-3.2-1.8-3.1-6.3-2.2-9.3-3m12.5 4.6c-1.7 1.2-1.5 3.4-1.7 5.2 3.2-.6 6.1-1.9 8.7-3.8-2.2-1-4.5-2-6.9-1.4m3.3 6.9c1.6.2 3.2.5 4.8.7-.2-.8-.7-2.5-1-3.3-1.3.9-2.6 1.8-3.8 2.7m-5.3 2.1c-1.2.8.1 2.9 1.3 1.9 1.2-.8-.2-2.9-1.3-1.9m1.6 7.2c-2.3 2.9-4.8 5.8-7 8.8.4 3.5-.1 6.8-1.1 10.1.8 2.6 3.1 4.6 3.9 7.3.9 3.2 3.4 5.4 5.7 7.6 1.2-.4 2.4-.8 3.6-1.2 1.9 1.1 3.8 2.7 6 3 2.2-.4 3-3 4.3-4.5 1.8-.1 3.7-.1 5.5-.1 1.3-1.7 2.7-3.3 3.8-5.1-.3-1.5-1-2.8-1.6-4.2-3.3.8-5 3.6-6.8 6.2-1.4-1.3-2.8-2.6-4.2-3.9-2.2.5-4.5.9-6.8 1.3.3-.7.6-1.4.9-2.2 2.4.1 4.6-.6 6.3-2.3-1.2-1.5-2.5-3-3.5-4.7-.3-1.6 1.6-2.4 2.7-1.4 1.5 3 2.2 6.3 3 9.5 1 0 2.1 0 3.1 0 .2-1.6.3-3.1.5-4.7 1.3-.3 2.5-.5 3.8-.7 1.1-4.1.3-8.7-3.3-11.5-2 .1-3.8 1-5.7 1.7-.4-2.2-.4-4.5-.3-6.8-.6 0-1.8.1-2.4.1-2.7 1.6-5.5 3-8.3 4.4 0-1.1-.1-2.2-.1-3.3.3-.2.8-.6 1-.8 3.7-.7 7.3-2.1 10.7-3.6-.6-1.3-1.1-2.5-1.8-3.7-4.3.6-8.5 2.2-12 4.7m34 15.6c-.2 2.9-2.2 6.2-.2 8.9.9 1.9 2.8 2.9 4.5 3.9.2-3.4 1.1-6.9.3-10.2-1-1.5-3.1-1.7-4.6-2.5m-43 33.7c1.4 1.9 3.5 5.6 6.3 4.2 3-2.9 4.9-6.7 7-10.3-1.8-2.1-3.5-5.4-6.7-5.4-4.1 2.2-5.9 7.2-6.6 11.5z"/><path d="m149 99c4.2-.4 8.5-1.3 11.4-4.5 1.8 2.5 3.8 5.5 2.5 8.7-.5 2.8-3.7 2.1-5.7 1.7.3-1.1.6-2.1 1-3.2-3.3 0-6.6-.6-9.2-2.7"/><path d="m148 98c1.5 4.4 1.9 9.2 3.6 13.5 1.7 1.2 3.6 1.8 5.5 2.6-1.7 2.8-3.3 5.5-5.1 8.2 1.4 4.1 2.6 8.3 4.8 12 2.6 3.8 3.5 8.4 5.3 12.5-.4.5-1.3 1.4-1.8 1.9-2.8-4.2-3.8-9.3-6.2-13.7-2.3-3.2-6.3-1.1-9.3-.3 1.1 4.8 2.9 9.4 4.8 13.9 1.2 2.6 1.2 5.6.2 8.3-5.2-6.7-6.6-15.2-8.7-23 3.7-.9 7-2.6 10.3-4.6-.9-2.1-1.8-4.2-2.7-6.3-1.2 2.5-2.4 5-3.6 7.6-1.5-1.4-3.7-2.5-4-4.7-.7-4.8.2-9.7 2.4-14 2.1-4.4 3.5-9 4.4-13.7"/><path d="m155 109c2.2-.7 4.3-1.4 6.5-2.1-.7 2-1.4 3.9-2.1 5.8-1.5-1.2-3-2.5-4.4-3.7"/><path d="m156 151c1.2-1.3 3.4.7 2.2 2-1.2 1.3-3.4-.7-2.2-2"/><path d="m352 155c1.6 1.3 3.1 2.6 4.5 3.9-2 .4-3.8-.7-5.4-1.7.2-.6.7-1.7.9-2.2"/><path d="m290 179c4.7-1.7 9.8-.1 14.7-.2 4.3.3 9.7-.7 12.8 3.1 3.8 5 4.7 11.7 3.6 17.8-1.3 6-6.3 10-10 14.5-6.5 8.9-5.9 21.5-.6 30.9 2.9 5.4 1.6 12 4.7 17.4 3.7 2.9 8.7 3.4 12.5 6.3 4.5 3.4 9.2 6.8 13.2 10.9 4.4 6.4 7.6 13.7 12 20 3.1 4.6 7.4 8.4 9.2 13.8 1.4 3.8.2 8.9-3.7 10.7-4.1 2-8.5 2.8-12.6 4.6-5.6 2.2-10.7 6-16.9 6.7-5.1-2.8-7.3-8.9-10.2-13.7-2.4-5.3-7.3-8.9-10.2-13.9-1.1-1.7-2-3.4-3.2-5-1.9.5-3.4 1.8-5 2.9-.8-.6-1.7-1.2-2.5-1.8-.3.3-.9.8-1.2 1.1.1 1 .2 2 .4 3-3.1 1.6-5.8 3.8-7.8 6.6 1.8.1 3.6.3 5.4.5-.5.5-1.4 1.6-1.9 2.1-2.4.7-4.8 1.1-7.2 1.6-1-1.6-2.1-3.2-3.1-4.7-1.4-.1-2.9-.1-4.3-.2-.1-1.4-.2-2.7-.3-4.1 1.5 0 3 0 4.6 0 1.2-2.1 2.4-4.1 3.7-6.2 2.6-.1 5.2-.2 7.8-.3-.6-1.6-1.2-3.2-1.7-4.7 1.9 1.1 3.7 2.2 5.6 3.3-2.7-6.1-3.7-12.8-4-19.4-2.7-.2-5.3-.4-8-.5h-.9c-1.6-.1-3.3-.1-4.9-.2 0 1.3 0 2.5 0 3.8 3.3 1 6.7 1.6 9.8 3.3 1.1 1.2 1.9 2.7 2.7 4.1-4 2.3-7.6 5.2-11.5 7.4-5.3 2.2-11.9-.1-15.3-4.4-3-6.4-3.9-13.5-4.6-20.5 8.5 2.8 17.7 6 26.7 3.5 2.5-.5 4.3-2.4 5.9-4.3-4.3.5-8.6 1.6-12.9.9-6.6-1-13.3-.2-19.7-2.4.6-2.3 1.2-4.6 1.8-7-2.5 1.3-5 2.9-6.6 5.4-4.1 5.9-9.3 10.9-13.2 17 5.3-1.2 8.9-5.4 11.5-9.9.7 0 2 .1 2.6.1-1.3 2.9-2.4 5.9-4.8 8-3.1 2.7-6.4 5.2-8.5 8.8 6.9-.2 10.9-6.4 14.6-11.4-.2 3.1-.2 6.3 0 9.4-6 2-10.9 6-16.3 9.2.4 1 .8 2 1.2 3 4.6-2.1 8.6-5.3 12.4-8.7 1.3 2.6 2.5 5.1 3.8 7.7-6.1 3.6-13.3 1.9-20 1.9-.1 1.4-.2 2.9-.3 4.3-1.8 0-3.5 0-5.3 0 1.3 1.8 2.6 3.6 3.9 5.4-3.9-.7-7.9-1.6-11.8-2.3 4.3 5 11 6 16.7 8.9-6.9 2.3-14.2-1-20-4.2-6.1-5.7-6.4-14.9-7.4-22.7-.4-5.7-.4-11.7 1.1-17.3.7-1.7 1.5-3.4 2.2-5.1-1.8-.9-3.6-1.9-5.3-2.8.2-1.9.2-3.8.7-5.6 1.1-3.6 4.7-6.1 4.7-10 .2-5-.5-10-1.2-15-.4-2-.7-4.4-2.6-5.5-11.9 2.3-23 7.8-35 8.5.1-1.8.2-3.5.4-5.3 5.8-3.4 8.8-9.7 13.4-14.4 4.4-7.3 11.4-12.4 19-15.7 3.3-1.2 6.9-.9 10.4-.8.8 2 1.5 4.1 2.9 5.7 2.5.3 5.1-.2 7.6-.6 1.3 7 2.1 14 2.3 21-6 1.1-12 3-17.3 6 1.1 1.6 2 3.2 3.3 4.6 4.3 1.2 8.6-.4 12.6-1.9-.9-1.2-1.7-2.4-2.6-3.7 1.2-.7 2.4-1.4 3.6-2 .4 4.8.3 9.6.3 14.4-1.1-1.7-2.2-3.4-3.2-5.2-1.2.2-2.3.4-3.4.6 1.1 1.7 1.9 3.8 3.6 5.1 4.9 2.3 10.4.9 15.7.8 5.2-.3 10.3 1.7 15.5.8 3-3.1 4.6-7.3 7.6-10.5 3.2-3.4 4.9-7.8 5.3-12.4.1-1.1.1-2.4-1.1-2.8-4.2-1.4-9.3-.5-12.9-3.5-1.9-2.6-4-6.2-2.9-9.4 3.2-2.6 7-4.2 9.9-7.1-4.8-1.8-8.1 2.5-11.4 5.1 0-6.3 5.4-10.8 7.3-16.5 4.5-1 9.2-2.1 12.7-5.2 4.6-3.4 6.6-9.7 12.1-12m-3.9 5.7c1.9 2.5 4.6 4.1 7.4 5.4 2.5 1.1 3.9 3.7 5.5 5.8 2.7-.6 5.3-1.4 7.9-2.2-.1-.7-.4-2.2-.5-2.9-5.2-2.8-11-3.7-16.7-5.1 1-.7 2.1-1.4 3.1-2.2 3.9 2 8.7 1 12.4 3.5 2.5 1.7 5.6 1.6 8.6 1.7-.1-1.7-.1-3.4-.1-5.1-7.3-.3-14-3.9-21.5-2.8-2.6-.1-4.3 2.1-6 3.7m-2.4 4.7c0 .8.1 2.4.1 3.3 3.1 2.1 6.4 4 9.8 5.4-.2 3.2-.5 6.4-.9 9.6 1.3 0 2.6-.1 3.8-.1 3.6-5.2.1-11.5-3.6-15.5-.6-.1-1.7-.2-2.3-.3-1.8-2-4.6-2.2-7.1-2.3m18 9.4c0 .8.1 2.4.1 3.2 6.1-.1 11-4.3 16.9-5.4 0-.8-.1-2.3-.1-3-5.9.9-11 4.6-17 5.2m-27-3.1c-2.4 3.2-.8 7.3.6 10.6 2.4 5.6 8.8 7.6 14.2 9 1.3-4.2-3.3-6.1-6.6-6.9-.8-.3-2.3-1-3.1-1.3.6-4.2-1.4-8.5-1.6-12.8-1.2.4-2.4.8-3.6 1.4m6.2-.2c0 1.8 0 3.7.1 5.5 3.1-.4 4.9-2.6 5.3-5.7-1.8 0-3.6.1-5.4.1m27.3 8.6c-1.8.1-3.8-.2-5.5.8-.1 1.4.1 2.9 1.3 3.8 4.9-1.4 9-4.8 14.2-5.7.2-1.2.4-2.4.6-3.6-3.9.7-7.5 2.4-10.6 4.7m-40.8-1.4c1.9 6 7.1 9.8 10.7 14.7 1.9 2.1 4.9 5.4 7.9 3.1-6-5-12.7-10.8-14-18.9-1.5.3-3.1.7-4.6 1.1m17 .8c.3 1.2.6 2.4.9 3.7 1.1.2 2.1.4 3.2.6.8-1.5 1.6-2.9 2.4-4.4-2.2-.6-4.4-.5-6.5.1m16.9 10c-2.6.4-5.1-.3-7.6-.7-.1 1.3-.1 2.7-.2 4.1 5.1 2 10-.7 14.5-2.9 2.2-.9 2.4-3.6 2.9-5.6-3.5 1.2-6.3 3.6-9.6 5.2m-39.5 2.2c.6 2.1 1.6 4.1 2.4 6.2 3.2-1.3 6.3-2.8 9.3-4.5 0-.7.1-2.2.1-3-3 1.4-6 2.7-9.2 3.4 1.9-2.3 4-4.3 6.3-6.3-.5-.3-1.5-.7-2-1-2.3 1.6-4.8 3.1-6.9 5.1m-59.9 1.3c-1.2 2.4 1.1 4.3 3.5 3.7 1.4-1.4 1.1-3.6 1.4-5.4-1.7.5-3.4.9-4.9 1.7m27.5-1.7c-1 4.4-2.6 8.6-5 12.4 2.1-.8 4.1-1.6 6.2-2.3.2-3.4.4-7-1.2-10m60 .3c-.5 1.1-1 2.3-1.4 3.5 5 2.9 8.3 8.3 14.2 9.9-.1-1.2-.2-2.4-.3-3.6-4.8-2.4-7.6-7.6-12.5-9.8m11.3 5.9c1.5.1 3 .2 4.6.3-.1-1.5-.2-3-.2-4.5-2.5.2-4.1 1.7-4.3 4.3m-32.7 1.5c.4.8.7 1.6 1.1 2.4 2.6-1.4 5.2-2.8 7.9-4.1 0-.8.1-2.3.1-3.1-3.1 1.4-6.1 3-9 4.8m-74 3.9c0 .7-.1 2.1-.2 2.7 1.9.7 3.8 1.4 5.8 2.1 1.3-2.2 2.5-4.4 3.6-6.7-.6-.3-1.9-.8-2.6-1.1-2.2 1-4.4 2-6.7 2.9m10.8 7.8c1.5 0 3-.1 4.5-.1-.7-2-1.3-4.1-2.6-5.9-3.8-.3-2.4 3.8-1.9 6m79.9-6.2c.4 1.8.9 3.6 1.4 5.4 1.8-.4 5.4-.4 4.7-3.2-.3-2.9-4.1-1.9-6.1-2.3m-98 6.5c-1.8 1-2.1 3.2-2.7 4.9 1.9-.2 3.9-.2 5.7-.9 2.1-.8 1.8-3.4 2.5-5.2-1.8.3-3.8.3-5.4 1.2m33.8 12.9c-.4 2.2-.8 4.3-.9 6.5 1.1.6 2.1 1.2 3.2 1.8.4-2.1.8-4.2 1.3-6.2.8 1.6 1.7 3.2 2.5 4.8.9-.8 1.8-1.6 2.8-2.3-1-2-2.1-4-3.1-6-1.9.5-3.8 1-5.8 1.4m55.7-1.8c-.5 2.2-2.3 4.6-1.3 6.9 1.3 1.5 3.3 2.5 5.3 2.5 3.8-.4 3.4-5.4 4.9-8-2.9-.9-5.9-1.4-8.9-1.4m11.1 2.5c-.9 3-1.1 6.4-3.3 8.8-4.2 3.2-10 4.2-15 2.5-1.3 2.5-2.9 4.8-4 7.4-.5 1.3-1.4 3.4.6 3.9 2.6-.2 5.3-.6 7.9-.2.7-2.6 1.4-5.3 3.3-7.2.4 2.5.7 4.9 1 7.4 3.3-1.7 3-5.7 3.8-8.9 1 2.8 1.3 5.7 1.2 8.7 1.5-.4 3.1-.5 4.3-1.5-.3-3.2-1.2-6.4-1.8-9.6.6-.1 1.9-.4 2.6-.5-.1 4 .4 8 1.1 12 2.5-.6 5-1.1 7.5-1.3.5-1.8.9-3.7 1.3-5.5.4.3 1 .8 1.4 1.1-.9 2.4-2.2 4.7-2.3 7.3.4 2.4 2.2 4.3 3 6.5.4 3.7-1.8 7.2-1.6 10.9.4 1.8 1.1 3.5 1.7 5.2 1.3-1.7 2.5-3.4 4-4.9.2 2.2.3 4.4.4 6.6-1.1-.2-2.2-.4-3.3-.5-.3 1.2-.7 2.4-1 3.6 3.2-1.4 6.7-1.6 10.2-1.6 1.2-2.3.4-5.2.6-7.7.5-4.2-3.7-6.2-6.5-8.4 2-3.7 3.4-9 0-12.3-1.9-1.8-2.1-4.4-2.2-6.9.9.3 1.8.5 2.7.8-.1 1.3-.3 2.7-.4 4 .7.1 2 .2 2.7.2 1-2.2 2.1-4.3 3.1-6.5-1.1-.9-2.2-1.7-3.4-2.5 1.1-.9 2.2-1.7 3.4-2.6-1.1-3.2-2.4-6.6-5.6-8.4-5.3 3.6-11.8.9-17.4-.1m-56 18c-1.6 1.4-1.8 3.5-2.2 5.4 3.4-1.6 6.3-4.1 8.9-6.7 3.8-4 9.2-5.7 14.2-8 .1-.7.2-2.2.2-3-8.3 1.2-15.4 6.3-21 12.3m-5.3-4.3c-2.7 2.5-6.2 4.8-6.9 8.7 2.8-.8 5.3-2.3 7.4-4.3 3.5-3.4 7.6-6.6 9.3-11.4-4.3.6-6.7 4.3-9.7 6.9m16.4 4.4c-2.7 1.7-4.8 4.1-5.3 7.4 6.8-3.1 13.8-7.6 16.6-14.8-4.5 1.2-7.5 5-11.3 7.4m69.8-2.4c.5 2.2 1.2 4.3 2.1 6.3-1.8-.3-3.6-.6-5.4-.8 4.7 5.1 10.3 9.4 16 13.2.1-1.2.3-2.5 0-3.7-3.2-2.4-7.1-4.1-9-7.8 2.9.6 5.7 1.8 8 3.7 3.6 2.8 7.6 5 10.3 8.8 2.8 3.7 5.4 7.7 9.5 10.1-.9-5.4-5.5-8.9-8.5-13.1-2.3-3.5-6.6-4.7-9.6-7.4-4.1-3.5-8.7-6.5-13.3-9.3m-62 3.5c-3.3 4.3-8.7 7.3-9.7 13 5.9-2.3 10.3-7.4 12.9-13-.8 0-2.4 0-3.2 0m-28.3 7.1c-1.9 2.1-3.8 4.2-5.6 6.4.1.9.3 2.6.3 3.5.6 1.2 1.1 2.4 1.7 3.5-.7 2-1.7 4-1.7 6.1 1.4 3.5 5.2 5.1 8.7 5.4-.3-1.5.1-3.2-.8-4.5-1.2-.3-2.4-.5-3.6-.7.3-3.2.3-6.8 2.5-9.3 0 2.4-.2 4.8-.3 7.2.4.3 1.3.9 1.8 1.2 1.1 1.8 2.2 3.5 3.4 5.3.3.3.9.7 1.2 1-1 .9-1.5 2.2-1.5 3.5 1 1.7 3.1 1.9 4.8 2.5.3-1.3.5-2.6.8-3.9 1.2.2 2.4.3 3.6.5 2.8-5.6.4-12 3-17.8-1.4-.6-2.9-1.2-4.3-1.7-.9-2.6-2.2-5.1-3.8-7.4-3.4 1.3-7 1.6-10-.8m90 7.9c1.4 2.2 2.9 4.4 4.9 6.1 6.3 5.4 12 11.6 16 18.8 2.6 5.5 4.2 11.7 8.4 16.4.5-3.4-.4-6.6-2-9.5-3.3-6.5-5.2-14.2-11-19-5-4.4-9.7-9-14.4-13.8-.5.2-1.4.7-1.9 1m13.2-.7c0 .8.1 2.4.1 3.3 3.1 2.5 6 5.2 9.1 7.6-1-4.9-4.3-9.5-9.3-10.8m-51.9 12c-.4 1.4.1 1.9 1.5 1.4.4-1.4-.1-1.9-1.5-1.4m41 .3c-.5 1.1-.9 2.1-1.4 3.2 3.8 3.3 8 6.1 11.5 9.9 2.6 6.9 4.6 14 8.9 20.2.8 0 2.4-.1 3.3-.1-3.7-8.2-7.8-16.3-12-24-2.1-4.2-6.6-6.2-10.2-8.9m19.9-.1c1.2 2.9 2.5 5.6 4 8.4.9 0 2.5-.1 3.4-.1-.5-4.1-4.2-6.3-7.4-8.3m9.7 3.1c.5 5.9 5.1 10 8.3 14.5.6-6.2-4.3-10.6-8.3-14.5m-127 .4c-.1 1-.2 3-.2 4 1-.1 3-.3 4-.4-1.1-1.3-2.4-2.5-3.7-3.6m.8 10.5c2.1.4 4.1.9 6.2 1.3.2-.4.7-1.3.9-1.7-.7-1-1.4-2.1-2.1-3.1 2.3 1.8 4.8 3.4 7.6 4.1-1.2-3.5-3.6-6.3-6.2-8.8-2.8 2.1-6.2 4.2-6.3 8.1m93-7.7c-.7.9-1.8 2.5-.7 3.6 5.7 5.6 7.8 13.5 12.1 20 1.6 2.4 3 4.9 4.1 7.5 1.2-.3 2.4-.7 3.6-1-3.1-8.4-9.4-15.2-13-23.4-1.4-2.7-2.8-6.2-6.2-6.8m31 4.5c-.4 1.4 0 1.9 1.4 1.4.4-1.4-.1-1.9-1.4-1.4m1.7 4.3c1 4.1 2.5 8 3.6 12.1.7 0 2.1 0 2.8.1-.2-4.9-3.1-8.9-6.4-12.2m8.3 3.9c-1.1.9-.6 3.1.8 3.2 2.3-.1 1.2-4.4-.8-3.2z"/><path d="m94 184c3 1.3 5.4 3.6 7.2 6.3-3.2-1-6.4-2.7-7.2-6.3"/><path d="m45.9 185c.9.2 2.7.5 3.6.6-1 .9-2 1.8-3 2.8-.1-.8-.4-2.5-.6-3.4"/><path d="m41.8 193c.2-2 2.2-2.9 3.5-4.1-.2 1.8-.9 6.7-3.5 4.1"/><path d="m94 191c1.2-.9 2.6 1.1 1.5 1.9-1.1.9-2.6-1.1-1.5-1.9"/><path d="m80 206c1.9-.3 3.9-.7 5.8-1-.8 1.4-1.5 2.8-2.3 4.3-1.2-1.1-2.3-2.2-3.5-3.3"/><path d="m90 208c1.2 1.1 2.3 2.1 3.4 3.2-.5 1.1-1.1 2.2-1.6 3.3-1.4-1.9-2.4-4.1-1.8-6.5"/><path d="m80 213c1.1-1 2.2-2.1 3.3-3.1 1.2.8 2.4 1.5 3.6 2.3-.5 1.6-1.1 3.2-1.6 4.8 1.2.9 2.5 1.9 3.7 2.8-1.6 1.3-3.3 2.5-4.9 3.7-.2-2.5-.3-5-.5-7.6-1.2-1-2.4-2-3.6-3"/><path d="m73 214c1.7-1.5 3.9-1.5 5.9-.8-1 1.5-2 3-3 4.6-1-1.3-2-2.5-3-3.8"/><path d="m77 223c.3-1.6.6-3.2.9-4.8 1.4.9 2.7 1.8 4.1 2.7-1.6.8-3.3 1.5-5 2.2"/><path d="m290 254c.6 0 1.8 0 2.4.1 0 1.7 0 3.4 0 5.1.6 1.6 2 3.9-.3 5-1.1-2.8-2.3-5.7-2.4-8.7.1-.3.2-1 .3-1.4"/><path d="m295 254c2.3-2.1 3.3.8 4.5 2.5-1.6-.6-3.1-1.5-4.5-2.5"/><path d="m301 253c1-.2 2.9-.7 3.8-.9.2 1.4.5 2.9.7 4.3-2.1-.2-3.6-1.6-4.5-3.4"/><path d="m296 259c3.3.4 6.7.5 10 .5-.9 2.9-4.5 2.6-7 2.8-1.9.2-2.2-2.1-3-3.3"/><path d="m270 265c1.6-1 2.6 1.9 1.3 2.7-1.6 1-2.6-1.9-1.3-2.7"/><path d="m293 265c1.7-.5 2.5 2.4.7 2.8-1.8.5-2.4-2.4-.7-2.8"/><path d="m82 269c2.8-1.1 3.6 2.3 4.2 4.3-2.2-.1-5.7-1.4-4.2-4.3"/><path d="m72 271c1.4-.3 2.8-.6 4.3-.7 1.4 1.2 2.6 2.6 3.8 3.9-.4.6-1.3 1.9-1.7 2.5-2.9-1-5-3.1-6.3-5.8"/><path d="m91 272c.9.3 1.9.6 2.8.9-.5 1.4-1.1 2.9-1.6 4.4-.8-.2-2.5-.6-3.3-.7.7-1.5 1.4-3 2.1-4.5"/><path d="m71.8 277c.4-.3 1.2-.8 1.6-1.1 1.8 3.6 3.3 7.3 3.9 11.3 1.3.3 2.6.6 3.9.9-.8 1.4-1.5 2.7-2.3 4-3.4-4.5-7.1-9.3-7.1-15.2"/><path d="m256 276c1.4-.4 1.9.1 1.4 1.4-1.4.4-1.9 0-1.4-1.4"/><path d="m79 278c.9.4 1.8.7 2.8 1.1.1.8.3 2.3.3 3-1.3-.2-2.5-.4-3.8-.6.2-1.2.4-2.3.7-3.4"/><path d="m222 281c1.3-1.7 3.6.6 2.1 1.9-1.3 1.7-3.6-.6-2.1-1.9"/><path d="m227 283c2.9 1.8 5.7 3.6 8.5 5.6-1.6-.1-3.2-.1-4.7-.4-2.3-.7-2.8-3.3-3.8-5.2"/><path d="m302 286c3.3.2-1.6 3 0 0"/><path d="m84 290c.7.1 1.9.2 2.6.2.4 1.1.7 2.3 1.1 3.5-1.6-.4-3.3-.9-4.9-1.3.3-.6.9-1.8 1.3-2.4"/><path d="m227 290c3.9 1.8 5.3 6 6.9 9.6-3.6-2.1-5.6-5.8-6.9-9.6"/><path d="m234 291c1-1.5 3.5.2 2.3 1.7-1 1.5-3.5-.2-2.3-1.7"/><path d="m260 298c.9-.8 1.9-1.5 2.8-2.3 0 1.8 0 3.6 0 5.4-.8-.9-1.6-1.7-2.4-2.6l-.5-.6"/><path d="m260 303c1.1-.4 2.2-.8 3.3-1.1.1 1.6.1 3.1.1 4.7-1.1-1.2-2.3-2.4-3.4-3.5"/><path d="m268 305c2.2-.6 4.5-.9 6.8-1.2-.1.7-.2 2-.2 2.7-2.8.1-5.6-.1-8.3-.9.4-.2 1.3-.5 1.7-.6"/><path d="m271 308c.3.5.7 1 1 1.6-.2 1.5-.5 2.9-.7 4.4 1.9.4 3.7.8 5.6 1.3-.3.7-.5 1.4-.8 2.1-1.6-.2-3.2-.4-4.8-.4-1.7 1.4-2.8 3.7-4.9 4.6-.7-1.3-1.2-2.7-1.8-4.1 1.9-.5 6.5.6 5.7-2.5-1.3-1-2.6-1.8-4-2.6l.6-.6c1.3-1.2 2.7-2.4 4-3.6"/><path d="m257 309c1.6.7 3.2 1.3 4.8 2-.3.5-.8 1.5-1 2-1.3-.1-2.6-.2-3.9-.2 0-1.3.1-2.5.1-3.8"/><path d="m241 312c1.4-.6 2.8-1.2 4.2-1.7-.2 1.1-.4 2.3-.7 3.4-1.2-.6-2.3-1.1-3.5-1.7"/><path d="m250 310c1 .2 2.1.4 3.1.7.2 1.2.3 2.4.3 3.6-.5 1.5-1.2 2.9-2 4.3-.6-2.8-.9-5.7-1.4-8.5"/><path d="m258 316c1.4 0 2.8-.1 4.2-.1-.3 1.9-.5 3.8-.8 5.8 1.9 1.5 3.8 3.1 5.8 4.5-2.6 0-5.2.3-7.7.9.4-1.2.9-2.4 1.3-3.7-2-2-3-4.7-2.8-7.5"/><path d="m240 318c2.9.6 5.8.6 8.6-.3.3.9.7 1.7 1 2.6-.3.2-.9.7-1.2.9-3.1 1.6-6-1.6-8.5-3.1"/><path d="m276 321c1.9-1.3 3.1 1.7 1.1 2.4-1.9 1.3-3-1.7-1.1-2.4"/><path d="m278 326c3.7-1.6 7.5-3 11.3-4.4-.6 5.9-1.9 11.8-.4 17.6 1.5 6 2.2 12 3.4 18-4.1.1-8.2.1-12.3 0 .1-1.8.1-3.5.2-5.3-1.3-.8-2.6-1.5-4-2.3-1.7 2.6-3.3 6.4-7 6.3-2.8-.3-5.1-2.4-7.5-3.7-.3-.2-1-.6-1.3-.8 1.1-5.8 1.3-12-.4-17.7-3.8.1-7.2 1.8-10.6 3.1-4.3 1.2-8.2-1.7-11.3-4.4.4-.5 1.2-1.5 1.6-2 2.3-3.2 5.6-6.3 9.9-5.8 3.5-.2 5.2 3.3 6.9 5.7 7.3-.7 14.7-1.8 21.5-4.6m-34.7 3.9c2.3 1 4.8 3.1 7.5 2.1 1.6-.4 2.4-1.9 3.4-3.1-3.6-.1-7.3.1-10.9 1m28.4.2c-.2 4.4.4 8.8 1.3 13 1.2-.5 2.5-1 3.6-1.7.3-4.2-.9-9.1-4.9-11.3z"/></g><g style="fill:#7e7d69"><path d="m199 22.6c3.3 1.3 6.8.9 10-.6.8.4 1.6.7 2.3 1.1 3.6-1.1 7.6-2.7 11.3-1.2 1.9 1.5 2.6 4 3.8 6-12.2 1.9-24.9 2.8-37 .2-1.4 1.2-2.9 2.4-4.3 3.5 4-.1 8.1-.4 12 .7 4.4 1.4 7.8 5.2 12.3 6.4 3.6.7 6.8-1.5 9.6-3.4-.1 2.4-.3 4.8-.5 7.2-4 0-7.9.3-11.8.9-4.3-4.6-9.9-7.4-16-8.7.6 6.1 1.3 12.3 1.3 18.5-.4-.4-1.2-1.2-1.6-1.5-.4 2.4-.7 4.7-.8 7.1 0 1.2 0 2.3 0 3.5 1.1-.5 2.3-1 3.4-1.6 4.4-2 5.7-6.9 6.4-11.3-1.6 1.3-3.2 2.7-4.7 4.2 1.4-2.1 2.7-4.3 4.1-6.4-1.2 0-2.3 0-3.5.1.5-3.4 1-7.3 4.7-8.8 2.6 7.1 2.6 15.4-1.2 22-1.7 3.1-5.1 4.6-8.4 5.6.3 1.8.7 3.5 1 5.3 2 .4 4 .8 6 1.2-1 1.5-2.1 3-3.1 4.6-1.4-.6-2.9-1.3-4.3-1.9-.7.9-1.4 1.8-2.1 2.7-4.8-3.1-4.9-9.8-9.6-12.9.6.1 1.7.3 2.3.4 2.8.2 5.6 0 8.2-.7-.8-1.6-1.8-3.2-2.8-4.6-1.2 1.2-2.4 2.4-3.6 3.6-1.6-.3-3.2-.6-4.8-1-.2-.6-.5-1.9-.6-2.5 2.1-.1 4.2-.2 6.3-.3-2.1-.7-4.1-1.4-6.2-2.1.1-1.4.2-2.8.4-4.3 3.5-.3 6.7 1 9.4 3.1.4-3 .9-6 1.6-8.9-2.7.2-5.6.1-8 1.5-.3.2-.9.5-1.2.7 2.4-3.4 3.3-7.5 4.5-11.4.9-3.7 5.4-4 8.1-6-2.4.1-4.9.3-7.3.6-1.9-3.1-3.5-6.5-4-10.2 1.1 2.2 2.3 4.3 3.4 6.5 3.7-4.8 9.9-4.9 15-6.6m18.2 1.6c-.5 2.5 2.7 3 4.1 4.4.3-1.4.6-2.9.7-4.4-1-2-3.8-1.8-4.8 0m-23.6 9.3c0 1.8 4 2.5 4.7.9-1.2-1.1-3.3-1.6-4.7-.9m-9.7 13c4.2-1.9 2.9-7.6 3.6-11.4-3.8 2.5-3.5 7.4-3.6 11.4m-1 22.3c.7 1.7 1.4 3.4 2.1 5.2 1.5-.6 3-1.2 4.5-1.8-1.6-1.4-3.2-2.7-4.8-4.1-.4.2-1.3.5-1.8.7z"/><path d="m226 39.7c-.4-2 1.1-3.9 1.7-5.7 1.4 1.7 2.7 3.4 4 5.1-1.8.3-4.8 3.5-5.7.6"/><path d="m60 41.5c.8-.1 1.5-.3 2.3-.4-.5.5-1.4 1.6-1.8 2.2 0 .6-.1 1.8-.1 2.4 2-.1 3.9-.3 5.9-.4.1-.5.2-1.4.3-1.9 5 2 10.2 3.2 15 5.4-1 .1-2.9.4-3.9.5 1.7 2.2 4 4 6.6 5-.7.7-1.4 1.4-2.1 2.1-2.5-1.4-5.1-2.8-7.6-4.1.5-1.7.9-3.4 1.4-5-1.9-.3-3.9-.6-5.8-.9 0 2.4 0 4.8-.1 7.2-1 0-2 0-3 0-.4-1.7-.7-3.4-1.1-5.1-4-.8-8.1-1.4-12.2-1.4-.6-.8-1.2-1.6-1.8-2.4 2.4-1.6 5.2-2.6 8-3.2"/><path d="m48.6 44l.2.8c.1.4.3 1.1.4 1.5 2.6 7.9.8 16 .5 24-.3 5.5 1 11 .9 16.5.1 2.9-.4 6.5 2.5 8.3 2.4 1.7 5.6 3.5 8.5 2.2 3.6-2.4 6.2-6 9.6-8.7 5.1-4.2 11.4-6.5 17.5-8.8-1.2 1.1-2.4 2.2-3.7 3.3 6.8 1 14.5 2.3 19 8 3.5 6.2 7 12.4 10 18.9 1.8 4 5.5 6.6 8.7 9.4-.6 5.2-.7 10.4-.3 15.6.9 4.6 2.3 9.1 2.5 13.8-7.2 3.8-15.2.9-22.7-.2-2.7-.1-6.5-1.2-8 1.8-2.5 4-5.1 7.9-8.8 10.9 4.3 3.3 9.5 5.1 13.6 8.7 3 2.5 6.5 4.3 9.9 6.2 3.9-2.3 7.9-4.2 12-6 .7 3.1 1.9 6 2.8 9-2-2.1-3.8-4.4-6.3-5.9-4 .4-6.6 4-9.5 6.4-4.3-5.8-10.4-9.9-16.7-13.2-2.9-1.4-5.5-3.5-7.8-5.8 2.3-2 4.8-4 6.4-6.6 1.8-2.5 3-5.5 5.5-7.3 9.5-2 19 4.1 28 .8-1.6-5.2-3.6-10.5-3.1-16 .1-2.2.4-4.5-.5-6.5-1.1-1.2-2.3-2.1-3.6-3.1-1.4 3.2-4.4 6-8.2 5.4-4.8-1.1-5.3-7.1-8.8-9.8-2.8-2-5.7-3.8-8-6.4 4-3.8 8.6-6.8 13.4-9.3 3 4 6.4 8.1 7.3 13.2-1.9-.7-4.1-1-5.7-2.4-.8-1.7-1.1-3.5-1.5-5.2-1.6.9-3.3 1.8-4.8 2.8 1.8-2.1 3.5-4.3 5.2-6.6-4.6 1.6-8.8 4.3-12.3 7.7 1.9 1.1 4.1 1.4 5.8-.3.1.4.2 1.1.3 1.5 1.8.5 3.7.9 5.2 2 1.5 2.7 2 5.8 3.1 8.6 3.7-2.3 6.7-6 11.5-5.5-2.8-1.9-5.1-4.5-6.3-7.7-2.7-7-7.5-13-10.8-19.8-1.2 0-2.3.1-3.5.2-1.7-2.3-3.8-4.3-6-6 .4 2 .8 4 1.2 6-1.9-1.8-3.4-4.2-6-5.1-3.8.2-7.3 2.2-10.7 3.7-5.8 2.3-8.1 9.3-7.3 15 .4 7.1 4.2 13.3 7.5 19.5-1.2.7-2.5 1.3-3.7 2 .4-1.1.8-2.3 1.2-3.4-5.3-9-8.2-20-4.5-30-3.4 2.4-6 6.3-10.2 7.2-4.3-.5-9-3.1-10.3-7.5-1.8-16-1.5-32-1.1-48m60.7 81c.1 3.3 3-1.5 0 0z"/><path d="m54 49c1.5-1.2 3.1 1.4 1.6 2.4-1.5 1.2-3.1-1.4-1.6-2.4"/><path d="m335 56c5 2.1 7.2 7.2 10 11.4 1.4 1.9 1.8 4.2 2 6.4-1.7-1.1-3.2-2.6-4.2-4.4.5.1 1.5.3 2 .4-2-4.2-4.7-8.1-8.4-11-.4 2-.7 3.9-1 5.9-1.4-2.8-2.2-5.9-.5-8.8"/><path d="m67 58c1.1 1.1 2.2 2.2 3.3 3.3-.9.1-2.8.4-3.7.5.1-.9.3-2.8.5-3.7"/><path d="m72 63c.5 0 1.5 0 2 0 0 1.3 0 2.6 0 4-.5 0-1.5 0-2 0 0-1.3 0-2.6 0-4"/><path d="m75.9 65.9c1.4-.4 2.7-.8 4.1-1.1.3 3 .3 6-.6 9 .8.6 1.6 1.3 2.5 1.9-1.4.8-2.9 1.7-4.3 2.5-.9-2-1.9-4-3-5.9 1.2-.4 2.4-.9 3.6-1.3-.7-1.7-1.5-3.3-2.2-4.9"/><path d="m167 66c.3-.1 1-.2 1.3-.3-.5 1.7-1.1 3.3-1.6 5 1.8-1 3.5-1.9 5.3-2.9l.5-.3c-.5 2.2-.7 4.6.7 6.5.7 1.3 1.4 2.6 2.1 3.9-1 .9-1.9 1.9-2.9 2.8-.8-2.5-1.6-5-2.3-7.6-1.7.6-3.5 1.2-5.3 1.5-2.1-1.8-3.2-4.3-4.5-6.6 2.2-.7 4.4-1.4 6.6-2"/><path d="m277 67c3.9-.9 8-.7 11.8.9 3.3 1.4 7 1.4 10.4 2.7 5.1 4.2 10.3 8.4 15.4 12.6.1 1 .3 1.9.4 2.9 4.1 2.4 3.6 8.3.7 11.5-2.3.6-4.6-.2-6.9-.6.1-1.5.2-3 .3-4.5 1.7.9 3.4 1.9 5 2.8-2-3.6-3.2-7.6-3.7-11.7-5.1 0-6.6-5.8-10.4-8.1-1.8-1.3-4.1-1-6.2-1.3-2.9-.3-5.2-2.5-7.9-3.3-4.2.6-8.4 2.4-12.6 1 1-1.7 1.4-4.3 3.6-4.8m1 .7c-.7 1-1.5 2-2.2 3.1 1.3 0 2.6 0 3.9 0 .3-.5 1-1.5 1.3-2-1-.3-2.1-.7-3.1-1m7.1.4c-.4 1.4 0 1.9 1.4 1.5.4-1.4-.1-1.9-1.4-1.5m7 2.8c-.5 1.6 0 2.2 1.7 1.7.5-1.6 0-2.2-1.7-1.7m13.5 7.2c-.7 1.4 1.6 3.1 2.8 2.3.7-1.4-1.6-3.1-2.8-2.3m9.3 16c.9-1.2 1.8-2.3 2.6-3.5-1.4-1.2-2.7-2.5-4.1-3.6-.6 2.5.4 4.9 1.5 7.2z"/><path d="m89 71c1.7.1 1.7 3 0 3.2-1.7-.1-1.7-3 0-3.2"/><path d="m283 73c2.2-.1 4.3-.2 6.5-.2-.9 1.9-1.9 3.7-3.2 5.4-1.1-.6-2.1-1.2-3.1-1.8-.1-1.1-.1-2.3-.2-3.4m2.1 1.3c-.5 1.4 0 1.9 1.4 1.5.4-1.4 0-1.9-1.4-1.5z"/><path d="m67 77c2-1.1 2.7 2.8.6 3-1.4-.1-1.6-2.2-.6-3"/><path d="m298 76c2.4 1.8 4.2 4.1 5.5 6.7-2.3.7-4.7.7-7 0 .4-2.3 1-4.5 1.6-6.8m1.1 3.9c-1.6 3 3.3.1 0 0z"/><path d="m163 84c2.8-1.2 5.6-2.4 8.4-3.5-1.8 2.5-4.7 4.8-4.8 8.2-.5 7.1-1.2 14.4-4.3 20.9-1.9 4.5-6.3 7.5-7.7 12.3.3 4.1 1.8 8 2.6 12-2.3-3.7-3.4-8-4.8-12 1.7-2.7 3.4-5.4 5.1-8.2-1.8-.8-3.8-1.5-5.5-2.6-1.7-4.4-2.1-9.1-3.6-13.5-1 4.7-2.3 9.4-4.4 13.7-2.2 4.3-3.1 9.2-2.4 14 .3 2.2 2.5 3.4 4 4.7 1.2-2.5 2.4-5.1 3.6-7.6.9 2.1 1.8 4.2 2.7 6.3-3.2 2-6.6 3.7-10.3 4.6l-.6.2c-.5-5.8-1.3-11.7-.7-17.5 1.3-5 5.1-9 5.5-14.3.2-2.8.8-5.5 1.9-8 .7.9 1.4 1.9 2.1 2.8 3.8-2.9 7.6-5.7 11-8.9.3 1.7.6 3.5.8 5.2 1.1.1 2.2.2 3.3.3-.7-3-1.4-6-2.1-8.9m-13.2 14.3c2.6 2.2 5.9 2.7 9.2 2.7-.3 1.1-.7 2.1-1 3.2 2 .4 5.2 1.1 5.7-1.7 1.3-3.3-.8-6.2-2.5-8.7-3 3.2-7.2 4.1-11.4 4.5m.9 8.4c1.9.4 3.9.7 5.8 1-.3-2-.6-3.9-1-5.8-2 1.2-3.7 2.8-4.8 4.8m4.5 2.3c1.5 1.3 2.9 2.5 4.4 3.7.7-1.9 1.4-3.9 2.1-5.8-2.2.7-4.3 1.4-6.5 2.1z"/><path d="m300 89c1.8-.8 3.6-1.7 5.4-2.5.5 2 1.1 4.3-.6 6-.9 1.5-2.7 1-4.1 1.2-.2-1.6-.5-3.1-.7-4.7m3.3.1c-1.6 0-1.8 2.7-.1 2.7 1.6 0 1.7-2.7.1-2.7z"/><path d="m254 109c1.8.7 3.6 1.4 5.3 2.2-.1 1.5-.1 3-.2 4.5-1.3-.5-2.6-.9-3.8-1.6-1-1.4-1-3.4-1.4-5"/><path d="m304 111c2.7-.5 6.6-3.4 8.7-.2.5.9.8 1.9.9 2.9-2.3 1-4.8 1.5-7.2 2.2-.8-1.6-1.6-3.3-2.4-4.9m6.5.3c-1.5 3 3.3.1 0 0z"/><path d="m297 119c1.5-2.1 3-4.1 4.5-6.1 2.1 1.4 4.5 5.1 1.5 6.8-2 .5-4-.3-6-.7m3.5-3c-.4 1.4 0 1.9 1.4 1.4.4-1.4 0-1.9-1.4-1.4z"/><path d="m86 123c-.1-2.9 2.9-4.3 4.8-6 .3.6 1 1.7 1.4 2.3-1.5 1.8-3.5 7-6.2 3.7"/><path d="m253 121c1.3-1.5 3.6.8 2.2 2.1-1.3 1.5-3.6-.8-2.2-2.1"/><path d="m266 121c1.4.8 3 1.3 4.2 2.5.8 1.4 0 3.1 0 4.5-1.3-.5-2.7-.9-3.9-1.7-1.8-1.3-.5-3.6-.3-5.4"/><path d="m79 126c1.3-.8 2.7-1.6 4-2.4.8 2.3 1.6 4.7 2.3 7.1-1.1.4-2.2.9-3.2 1.3-1-2-2-4-3-6"/><path d="m255 127c5.1 2.4 12 4.1 13.8 10.2 1.2 3.9 2.6 8.3 1.2 12.3-3.7 2.4-8.3 3.1-12.6 3.5-5.1.5-9-3.4-12.8-6.2 3.6 1.1 6.6 3.5 10.1 4.6 4.8.5 9.3-1.6 14-2.5 0-4.8 0-9.9-2.6-14-2.4-2.5-5.8-3.8-8.9-5.4-.9 2.3-1.1 5.5-3.7 6.7-5.2 2.6-10 5.8-15.4 7.8-2.8 1.1-5 3.3-7.5 5 .2-1.6.3-3.2.5-4.8-2.3-.9-4.7-1.3-7.1-1.4-1.5-2.6-2.9-5.2-4.3-7.8.9-.6 1.8-1.2 2.7-1.8 1.3 1.5 2.6 2.9 3.9 4.4-.7 1.6-1.4 3.2-2.1 4.8 1.4-.6 2.8-1.1 4.1-1.6 1.8 1.1 3.6 2.3 5.4 3.4 7.4-2.1 13.7-6.8 20.7-9.7.1-2.4.2-4.8.4-7.3"/><path d="m281 127c1.3.5 2.6 1 3.9 1.5.1 1.3.2 2.5.3 3.8-1.8 0-3.6 0-5.3 0 .3-1.8.7-3.5 1.2-5.2"/><path d="m106 129c1.6-.5 2.2 0 1.7 1.7-1.6.5-2.2 0-1.7-1.7"/><path d="m113 130c1.6-.5 2.3 2.1.7 2.5-1.6.5-2.3-2.2-.7-2.5"/><path d="m348 132c1.5 1.1 3 2.2 4.5 3.3-.3-.1-.9-.4-1.2-.5.3 2 .6 3.9.9 5.9-1.9-1-5.1-1.1-5.4-3.8.1-1.7.8-3.4 1.2-5m1.4 5.6c-1.5 3 3.3.1 0 0z"/><path d="m85 134c1.6-.5 2.2 0 1.7 1.7-1.6.5-2.2 0-1.7-1.7"/><path d="m128 172c2.6-1.7 5.1-4.1 8.4-3.7.4 3.2-2.9 5.5-3.9 8.4-1.6-.6-3.1-1.3-4.7-1.9.1-.7.2-2.1.2-2.8"/><path d="m75 171c4.5 1.5 9.7 1.8 13.6-1.4.5 2 .9 4 1.4 6-3 1.8-6.2 3.3-9.5 4.3-.5-1.4-1-2.8-1.6-4.2-2.1 1.3-4.1 3.5-6.9 3.1-2.5-.3-4.7.8-7 1.4-1.6-.4-3-1.2-4.5-1.8.1 1.4.2 2.7.1 4.1-1.1 2.1-3.1 3.6-4.3 5.7-2.7 4.4-1.7 10-3.6 14.7-1.5-.1-2.8-.9-4.1-1.6 1.3-3.1 1.7-6.5 2.1-9.8.3-3.7 4.7-4.9 6-8 .7-3.2-1.6-5.9-2.8-8.6 2-1.1 4-3 6.4-2.3 3.9.7 7.8.2 11.7 1 1-.9 2-1.7 3.1-2.6m-23 23c-1.3.7-1.3 1.3 0 2 1.3-.7 1.3-1.3 0-2z"/><path d="m91 170c3.3.2-1.6 3 0 0"/><path d="m115 176c1.2-.2 2.3-.4 3.5-.6 0 1.6 0 3.2-.3 4.8-.9 1.1-2.5 1.1-3.7 1.7.1-2 .3-4 .5-5.9"/><path d="m91 183c1.6-2.9 4.9-4.3 7.5-6.3 2.3 1.5 4.9 2.6 7.2 4.2-.2 1.7-1.8 2.7-2.8 3.9 1.1 1.7 2.2 3.5 3.2 5.2-.7.3-2 .8-2.7 1.1-.3 1.2-.5 2.4-.9 3.6-1.8-.5-3.5-1.2-5.2-1.8.9 1.6 1.8 3.2 2.6 4.8-.1 2.5.2 4.9.6 7.4-3.8-2.1-7.1-4.9-10.7-7.3.7-2.8 1.8-5.5 2.4-8.4-.1-2.2-1-4.3-1.2-6.5m7.8-1.9c-1.5 1 .2 3.5 1.6 2.3 1.5-1-.2-3.5-1.6-2.3m-4.6 2.4c.8 3.6 3.9 5.3 7.2 6.3-1.8-2.7-4.2-5-7.2-6.3m-.2 6.9c-1.1.9.3 2.8 1.5 1.9 1.1-.9-.3-2.8-1.5-1.9z"/><path d="m282 184c3.2-4.7 8.9-7.7 14.6-7.3 4.1.2 8.1.7 12.2.2 4.9-.6 9.1 3 11.9 6.6 2.6 5.7 3.4 12.4 1 18.3-1.3 2.6-2.9 5-4.5 7.4-2.1 3.2-6 5-7.2 8.9-3.1 6.2-2 13.3-.8 19.8.6 4.2 4 7.4 4.3 11.7.6 4.3.5 9.3 3.4 12.9 3.1 1.3 6.8 1.1 9.6 3.4 5.3 4 10.4 8.3 15.6 12.4 2 4.2 3.8 8.4 6.6 12.2 3.9 7.9 11.2 13.6 14.3 22 2.2 4.4.5 10.2-3.7 12.7-3.2 1.8-6.8 2.6-10.1 3.9-7.1 2.6-13.5 7-21 8.2-3.4-2.6-5.9-6.2-8.1-9.8-2.8-4.3-3.6-9.9-8-12.9-3.6-2.5-5-6.8-7.7-10-3.1 2.8-6.8 4.6-9.8 7.5-.1 1.1 0 2.2 0 3.3-1.8-.2-3.6-.3-5.4-.5 2-2.8 4.8-5 7.8-6.6-.1-1-.2-2-.4-3 .3-.3.9-.8 1.2-1.1.8.6 1.7 1.2 2.5 1.8 1.5-1.1 3.1-2.4 5-2.9 1.2 1.6 2.2 3.4 3.2 5 2.9 5 7.8 8.6 10.2 13.9 2.9 4.8 5 10.9 10.2 13.7 6.1-.7 11.3-4.5 16.9-6.7 4.1-1.8 8.6-2.6 12.6-4.6 3.9-1.8 5.1-6.9 3.7-10.7-1.8-5.4-6.1-9.2-9.2-13.8-4.4-6.5-7.5-13.7-12-20-3.9-4.1-8.7-7.4-13.2-10.9-3.7-2.9-8.8-3.4-12.5-6.3-3.1-5.3-1.8-12-4.7-17.4-5.2-9.3-5.8-22 .6-30.9 3.8-4.5 8.7-8.5 10-14.5 1.1-6 .1-12.8-3.6-17.8-3.1-3.8-8.5-2.9-12.8-3.1-4.9.1-9.9-1.4-14.7.2-5.5 2.3-7.5 8.5-12.1 12-3.5 3.1-8.2 4.3-12.7 5.2-2 5.7-7.4 10.2-7.3 16.5 3.3-2.7 6.7-6.9 11.4-5.1-2.9 2.9-6.7 4.6-9.9 7.1-1.2 3.3.9 6.8 2.9 9.4 3.5 3.1 8.6 2.1 12.9 3.5 1.2.5 1.1 1.8 1.1 2.8-.4 4.6-2.2 9-5.3 12.4-2.9 3.2-4.5 7.4-7.6 10.5-5.2.8-10.3-1.1-15.5-.8-5.2.1-10.7 1.5-15.7-.8-1.7-1.3-2.5-3.4-3.6-5.1 1.1-.2 2.3-.4 3.4-.6 1 1.7 2.1 3.4 3.2 5.2.1-4.8.1-9.6-.3-14.4-1.2.7-2.4 1.3-3.6 2 .9 1.2 1.7 2.4 2.6 3.7-4 1.5-8.3 3.2-12.6 1.9-1.3-1.4-2.3-3-3.3-4.6 5.4-3.1 11.3-4.9 17.3-6-.1-7.1-1-14.2-2.3-21 3.1 4.6 3.4 10.3 3.4 15.7.3 7.9-1.4 15.8.4 23.6 4.3-.6 8.6-1.3 13-.8 4.2.3 8.5 1.5 12.6.4 2.2-1.2 3.1-3.8 4.4-5.8 1.5-2.7 4-4.6 5.7-7.1 1.4-3.1 1.8-6.5 2.5-9.8-4.4-.7-9.3-.4-13-3.1-3.8-3.6-4.1-9.3-4.8-14.2-.8-4 2.2-7.1 4-10.3 1.4-2.1 2.4-4.7 4.5-6.3 2.7-1.1 5.8-1.1 8.2-2.9 3.1-2.2 6.1-4.7 8.3-7.9m-60 55.8c2.3 2.5 5.6 1.2 8.2 0-2.7-.2-5.5-.2-8.2 0z"/><path d="m342 177c1.4.9 2.8 1.8 4.1 2.9-.6 1.6-2.1 2.8-3.8 2.9-1.9-1.6-.6-3.9-.2-5.8"/><path d="m286 185c1.7-1.7 3.4-3.9 6-3.7 7.4-1.1 14.2 2.5 21.5 2.8.1 1.7.1 3.4.1 5.1-2.9-.1-6 0-8.6-1.7-3.7-2.5-8.5-1.6-12.4-3.5-1 .7-2.1 1.4-3.1 2.2 5.6 1.5 11.5 2.3 16.7 5.1.1.7.4 2.2.5 2.9-2.6.8-5.3 1.5-7.9 2.2-1.6-2.1-2.9-4.7-5.5-5.8-2.8-1.3-5.5-2.9-7.4-5.4m8.9-1.2c1.6.6 3.2 1.1 4.9 1.7-.1-.9-.3-2.7-.4-3.6-1.7 0-3.1 1.1-4.5 1.9m9 1.4c2.1 2.1 5.1 1.8 7.8 1.9-.4-.6-1.1-1.7-1.4-2.3-2.1.1-4.3.2-6.4.4m-6.3 3c-.1 1.6-.3 3.3-.4 4.9 1.6.5 3.3.9 5 1.1.4-.7 1.3-2.1 1.8-2.7-2.1-1.2-4.2-2.3-6.4-3.3z"/><path d="m284 190c2.6.1 5.3.3 7.1 2.3-1.6.1-3.2.3-4.8.5 2.4 2.2 5.5 3.4 8.6 4.2-.5-1.4-1-2.9-1.6-4.3 3.7 4.1 7.2 10.3 3.6 15.5-1.3 0-2.6.1-3.8.1.4-3.2.7-6.4.9-9.6-3.5-1.4-6.8-3.3-9.8-5.4 0-.8-.1-2.4-.1-3.3m12.2 11.8c-.9 1.1-.7 1.8.8 1.9.9-1.1.7-1.8-.8-1.9z"/><path d="m275 196c1.1-.6 2.4-1 3.6-1.4.2 4.3 2.2 8.5 1.6 12.8-.3.7-.9 1.9-1.2 2.6 2.5 1.1 5 2.2 7.6 3.2-1.1-1.5-2.2-3-3.4-4.4 3.2.8 7.8 2.6 6.6 6.9-5.4-1.4-11.8-3.4-14.2-9-1.4-3.2-3-7.4-.6-10.6m.8 2.8c.1 2.7.6 5.4 2.1 7.7.2-2.1.4-4.2.5-6.3-.6-.3-1.9-1-2.6-1.4z"/><path d="m281 196c1.8-.1 3.6-.1 5.4-.1-.4 3-2.2 5.2-5.3 5.7-.1-1.8-.1-3.7-.1-5.5"/><path d="m36.5 199c1.1-.5 2.3-1 3.5-1.5.8 1.4 1.6 2.8 2.5 4.2-.4.6-1.3 1.7-1.7 2.2-1.8-1.3-3.2-2.9-4.2-4.9"/><path d="m308 204c3.1-2.3 6.7-4 10.6-4.7-.2 1.2-.4 2.4-.6 3.6-5.1 1-9.3 4.3-14.2 5.7-1.2-.9-1.4-2.4-1.3-3.8 1.6-1 3.6-.7 5.5-.8"/><path d="m268 203c1.5-.4 3-.8 4.6-1.1 1.3 8.1 8 13.9 14 18.9-3 2.2-6-1-7.9-3.1-3.6-4.9-8.8-8.7-10.7-14.7"/><path d="m285 204c2.1-.6 4.4-.7 6.5-.1-.8 1.5-1.6 2.9-2.4 4.4-1.1-.2-2.1-.4-3.2-.6-.3-1.2-.6-2.4-.9-3.7"/><path d="m50 206c1.5 1.3 3.2 2.4 4.4 4.1.2 2.2-.7 4.3-1.2 6.4 1.9 1.2 3.8 2.4 5.8 3.6-1 .3-2.1.5-3.1.8-.1 2.9-1.2 5.6-3.3 7.7-1.9-1.3-3.7-2.6-5.6-3.9-.6 2.9-1.1 5.8-1.6 8.7-1.5-.1-2.9-.2-4.4-.3.6-2.1 1.5-4.1 1.8-6.3-3.1-2.6-6.7-4.5-9-8 1.3-.6 2.6-1.2 3.9-1.8 2.1 3.4 5 6.4 9.3 6.5-1-1.5-2.1-3-3.2-4.5.8-.8 1.7-1.6 2.5-2.4.7 1.1 1.4 2.3 2.1 3.3-.6 2.8.8 5 3.2 6.3-.3-1.1-.7-2.2-1.1-3.3 1-.1 2.1-.2 3.1-.3-3.7-4.2-7.3-9-7.7-14.8 2 1.5 4 3 5.9 4.6-.7-2.1-1.4-4.3-2-6.4m-12.8 13.8c-1.3.9.3 3.2 1.6 2.2 1.3-.9-.3-3.2-1.6-2.2z"/><path d="m302 214c3.3-1.5 6.1-3.9 9.6-5.2-.5 2.1-.6 4.7-2.9 5.6-4.5 2.2-9.4 5-14.5 2.9.1-1.4.1-2.7.2-4.1 2.5.4 5.1 1.1 7.6.7"/><path d="m262 216c2-2 4.5-3.5 6.9-5.1.5.3 1.5.7 2 1-2.3 1.9-4.4 4-6.3 6.3 3.2-.8 6.3-2 9.2-3.4 0 .8-.1 2.2-.1 3-3 1.7-6.1 3.2-9.3 4.5-.8-2.1-1.8-4.1-2.4-6.2"/><path d="m101 215c1.7-.7 3.4-1.3 5.1-2-1.8 1.7-4.3 3.1-4.5 5.8-.7 4.7.3 9.5-.5 14.2-.3 4.3-2.8 7.9-4.5 11.8 5.1 3.3 10 7.4 12.3 13.3 2.7 6.2 5.8 12.3 7.1 18.9-4.4-6.6-6-14.6-10-21.5-2.7-4.5-7.4-7.3-11.8-9.9 3.3-4.7 5.8-10 5.2-15.9-5.1 2.8-10.9 3.8-16 6.5-3.5 1.7-7.3 2.8-11.1 3.8-.4-1.7-.8-3.4-1.2-5.1 2.7-.6 5.5-1.3 8-2.4 6.3-2.5 13.2-3.9 19-7.5 2-2.9 2.2-6.6 3-9.9"/><path d="m28 215c2.1 0 4.2.1 6.3.2-.8 5.1-4.6 9.1-5 14.4-1.4-1.2-2.9-2.4-4.1-3.9.2-3.7 2-7.1 2.8-10.7m.1 4.1c1.6 0 3.2-.1 4.8-.1-.6-1.3-1.4-2.5-2.1-3.7-.9 1.2-1.8 2.5-2.6 3.8m-.3 2.5c-1.4.1-1.5 2.5 0 2.4 1.4 0 1.5-2.5 0-2.4z"/><path d="m230 216c1.6 3.1 1.4 6.7 1.2 10-2.1.8-4.1 1.6-6.2 2.3 2.5-3.8 4-8 5-12.4"/><path d="m290 216c4.9 2.2 7.6 7.4 12.5 9.8.1 1.2.2 2.4.3 3.6-5.8-1.6-9.1-7-14.2-9.9.4-1.2.8-2.4 1.4-3.5"/><path d="m302 222c.2-2.6 1.8-4 4.3-4.3.1 1.5.2 3 .2 4.5-1.5-.1-3-.2-4.6-.3"/><path d="m55.6 230c.2-2.8 1.9-4.8 4.5-5.8-.3 1.6.2 3.4-.8 4.8-1.2.4-2.4.7-3.7 1"/><path d="m187 235c1.6-1 3.6-.9 5.4-1.2-.7 1.8-.4 4.4-2.5 5.2-1.8.7-3.8.7-5.7.9.7-1.7 1-3.9 2.7-4.9"/><path d="m62 236c2.1-.1 4.3-.1 6.4 0 0 .9-.1 2.8-.1 3.7-2.2-1-4.3-2.2-6.3-3.7"/><path d="m221 248c1.9-.5 3.8-1 5.8-1.4 1.1 2 2.1 4 3.1 6-.9.8-1.8 1.5-2.8 2.3-.8-1.6-1.7-3.2-2.5-4.8-.4 2.1-.9 4.2-1.3 6.2-1.1-.6-2.2-1.2-3.2-1.8.1-2.2.6-4.4.9-6.5"/><path d="m288 249c5.7.9 12.1 3.6 17.4.1 3.2 1.7 4.4 5.2 5.6 8.4-1.1.9-2.3 1.7-3.4 2.6 1.1.8 2.2 1.7 3.4 2.5-1 2.2-2.1 4.3-3.1 6.5-.7-.1-2-.2-2.7-.2.1-1.3.3-2.7.4-4-.9-.3-1.8-.5-2.7-.8.1 2.5.3 5 2.2 6.9 3.4 3.4 2 8.6 0 12.3 2.7 2.2 7 4.2 6.5 8.4-.2 2.5.5 5.4-.6 7.7-3.5-.1-7 .1-10.2 1.6.3-1.2.7-2.4 1-3.6 1.1.2 2.2.4 3.3.5-.1-2.2-.2-4.4-.4-6.6-1.4 1.5-2.7 3.2-4 4.9-.6-1.7-1.4-3.4-1.7-5.2-.2-3.7 2-7.2 1.6-10.9-.8-2.2-2.6-4.1-3-6.5.1-2.6 1.5-4.9 2.3-7.3-.4-.3-1-.8-1.4-1.1-.4 1.8-.9 3.7-1.3 5.5-2.5.2-5 .7-7.5 1.3-.7-4-1.2-8-1.1-12-.6.1-1.9.4-2.6.5.6 3.2 1.4 6.3 1.8 9.6-1.2 1-2.9 1.1-4.3 1.5.1-2.9-.2-5.9-1.2-8.7-.8 3.1-.5 7.1-3.8 8.9-.3-2.5-.6-4.9-1-7.4-1.9 2-2.6 4.7-3.3 7.2-2.6-.4-5.3 0-7.9.2-1.9-.5-1-2.6-.6-3.9 1.1-2.6 2.7-5 4-7.4 5 1.7 10.8.7 15-2.5 2.1-2.4 2.3-5.9 3.3-8.8m.6 1.9c-.8 2.5-1.4 5.1-1.9 7.7 1.2-1.1 2.8-2 3.1-3.6.1 3 1.4 5.9 2.4 8.7 2.3-1 1-3.3.3-5 0-1.7 0-3.4 0-5.1.4 0 1.1 0 1.5 0-1.2-1.8-3.5-2.1-5.5-2.7m15.5-.5c.1.5.2 1.6.3 2.1-.9.2-2.9.7-3.8.9.9 1.8 2.4 3.1 4.5 3.4.1.4.2 1.1.3 1.5 1.2-.4 2.5-.7 3.7-1.1-1.2-2.5-2.6-5.1-4.9-6.8m-5.8 1.8c-.4 1.4 0 1.9 1.4 1.5.4-1.4 0-1.9-1.4-1.5m-3.8 1.8c1.4 1 2.9 1.9 4.5 2.5-1.1-1.7-2.2-4.6-4.5-2.5m5.5 2.3c-1.6.3-.9 3 .7 2.5 1.6-.4.9-3-.7-2.5m-6 .9c-.5 1.4 0 1.9 1.4 1.4.5-1.4 0-1.9-1.4-1.4m1.5 1.6c.9 1.2 1.1 3.6 3 3.3 2.4-.2 6.1.1 7-2.8-3.4 0-6.7-.1-10-.5m-18.2 5.2c3.5-.7 7.3-1.8 9-5.3-3.3 1.1-6.7 2.5-9 5.3m17.7-1.9c-.5 1.6 0 2.2 1.6 1.7.5-1.6 0-2.2-1.6-1.7m11.2.2c-1.3 1.2.9 3.3 2.1 2.1 1.3-1.2-.8-3.3-2.1-2.1m-22 1.1c-.4 1.4.1 1.9 1.5 1.4.4-1.4-.1-1.9-1.5-1.4m5.3-.3c-.4 1.4.1 1.9 1.4 1.4.4-1.4 0-1.9-1.4-1.4m10.8 0c-.5 1.6 0 2.2 1.7 1.7.5-1.6 0-2.2-1.7-1.7m-29.9 1.6c-1.4.8-.4 3.7 1.3 2.7 1.4-.8.4-3.7-1.3-2.7m2.9-.5c-.5 1.4 0 1.9 1.4 1.4.5-1.4 0-1.9-1.4-1.4m20 .7c-1.8.4-1.1 3.3.7 2.8 1.8-.4 1-3.3-.7-2.8m-25 1.4c-1.6 2.9 3.3.2 0 0m33.9 20c-1.6 3 3.3.2 0 0z"/><path d="m78 252c1.3-.9 2.5-1.8 3.8-2.7.2.8.7 2.5 1 3.3-1.6-.2-3.2-.4-4.8-.7"/><path d="m232 267c5.6-5.9 12.8-11 21-12.3-.1.8-.2 2.2-.2 3-4.9 2.2-10.3 3.9-14.2 8-2.6 2.7-5.5 5.1-8.9 6.7.4-1.9.7-4 2.2-5.4"/><path d="m243 267c3.8-2.4 6.8-6.2 11.3-7.4-2.8 7.2-9.9 11.7-16.6 14.8.5-3.2 2.6-5.7 5.3-7.3"/><path d="m251 268c.8 0 2.4 0 3.2 0-2.6 5.6-7 10.8-12.9 13 1-5.7 6.4-8.7 9.7-13"/><path d="m223 275c3 2.3 6.6 2.1 10 .8 1.6 2.3 2.9 4.8 3.8 7.4 1.4.6 2.9 1.2 4.3 1.7-2.6 5.7-.2 12.2-3 17.8-1.2-.2-2.4-.3-3.6-.5-.3 1.3-.5 2.6-.8 3.9-1.7-.6-3.8-.8-4.8-2.5 0-1.3.5-2.6 1.5-3.5 1.3-.5 1.7-3.2-.3-2.3-.2.3-.7 1-.9 1.4-1.2-1.7-2.3-3.5-3.4-5.3 1.5.2 2.1-.4 1.7-1.7-1.3-.4-1.9.2-1.7 1.7-.4-.3-1.3-.9-1.8-1.2.2-2.4.3-4.8.3-7.2-2.3 2.6-2.2 6.1-2.5 9.3 1.2.2 2.4.4 3.6.7.8 1.3.5 3 .8 4.5-3.5-.3-7.3-1.9-8.7-5.4 0-2.2 1-4.1 1.7-6.1-.6-1.2-1.1-2.4-1.7-3.5.6.2 1.9.6 2.5.8.4-1.6.8-3.2 1.1-4.9-1.3.2-2.7.4-4 .6 1.8-2.2 3.6-4.4 5.5-6.4m5.8 8.2c2.7-.8 3.1-3.5 3.4-5.9-1.6 1.7-2.7 3.7-3.4 5.9m-6.5-2.1c-1.6 1.4.8 3.6 2.1 1.9 1.5-1.4-.8-3.6-2.1-1.9m4.4 1.1c1 1.9 1.5 4.5 3.8 5.2 1.6.3 3.2.3 4.7.4-2.8-2-5.6-3.8-8.5-5.6m10.7 3.7c-.5 1.6 0 2.2 1.7 1.7.5-1.6 0-2.2-1.7-1.7m-10.9 1.1c-1 1.3 1.2 2.9 2.2 1.6 1-1.3-1.2-2.9-2.2-1.6m5.2 1.9c-1.3 2.1 2.8 2.4 2.9.4-.1-1.5-2.3-1.4-2.9-.4m-4.2.4c1.3 3.8 3.3 7.6 6.9 9.6-1.5-3.7-3-7.8-6.9-9.6m6.9 1.6c-1.2 1.4 1.3 3.1 2.3 1.7 1.2-1.5-1.3-3.2-2.3-1.7m-.9 3c-.4 1.4 0 1.9 1.4 1.4.4-1.4-.1-1.9-1.4-1.4m-10.1 3c-.5 1.6 0 2.2 1.7 1.7.5-1.6 0-2.2-1.7-1.7m11.5 4.3c2.5-.6 3.8-2.5 3.7-5-2.3.7-3.6 2.6-3.7 5z"/><path d="m117 279c1 6.9.8 13.8 1.2 20.7-.5 9.8-4.7 19-3.4 29 .1 1.3 1.5 2 2.3 2.8 4.3 3 9 5.1 13.6 7.6.4 4.4-.8 8.7-4.2 11.6 1.2-3.4 4.5-7.3 2.3-10.8-3.5-3.9-9-1.6-13.3-.6-.5-.7-1.1-1.4-1.6-2.1.7-1.2 1.3-2.4 2-3.6-1.5-2-3.6-4-3.2-6.7 1-10.3 4.3-20.4 4-30.8-.2-5.7.4-11.4.3-17"/><path d="m313 283c.5-.3 1.4-.7 1.9-1 4.7 4.7 9.4 9.4 14.4 13.8 5.9 4.8 7.8 12.5 11 19 1.6 2.9 2.6 6.2 2 9.5-4.2-4.7-5.7-10.8-8.4-16.4-4.1-7.2-9.8-13.4-16-18.8-2-1.7-3.5-3.9-4.9-6.1"/><path d="m326 282c5 1.4 8.2 5.9 9.3 10.8-3.2-2.4-6.1-5-9.1-7.6 0-.8-.1-2.4-.1-3.3"/><path d="m312 301c3.4.6 4.8 4.1 6.2 6.8 3.6 8.2 9.9 14.9 13 23.4-1.2.3-2.4.7-3.6 1-1.2-2.6-2.5-5.1-4.1-7.5-4.3-6.6-6.4-14.4-12.1-20-1.1-1.1-.1-2.7.7-3.6"/><path d="m353 314c2.1-1.2 3.1 3.1.8 3.2-1.5-.1-1.9-2.3-.8-3.2"/><path d="m272 330c4 2.2 5.2 7.1 4.9 11.3-1.1.7-2.4 1.2-3.6 1.7-.9-4.3-1.5-8.7-1.3-13"/></g><g style="fill:#7f7f73"><path d="m206 30.6c2.3.9 4.5 1.9 6.8 2.8-.3.3-.8.9-1.1 1.2-2.4-.3-4.8-.6-7.2-.8.5-1.1 1-2.1 1.4-3.2"/><path d="m285 44.7c5.5-6.9 15-10.9 23.8-8.7l-1 .2c-5.5 1.5-11.8 1-16.4 4.8-4 2.6-6.4 6.7-8.4 10.9-1.8 4.2-6.2 6.3-9.9 8.6 3.1-.4 6.3-.7 9.4-.9-.2 1.5-.4 2.9-.6 4.4-3.4-.5-6.7-.9-10-1.3-5.3-.6-10-3.4-15.2-4.4-2.1-.4-4.7-1.2-6.6.4-3.3 2.5-6.2 5.4-9.7 7.7-5.1-1.1-10.3-.9-15.4-1.7.6-5 5.2-8 6.7-12.6 2-4.5 2.2-9.5 1.4-14.2.8 2.1 1.8 4.1 2.1 6.3 0 3-1.2 5.9-2 8.8 1.3 1.2 2.6 2.3 3.9 3.5.1 3.1.6 6.2 2 9 4.1-3 7.6-7.2 12.4-9 5.4.1 10.6 2.1 15.6 4 1.2.4 2.5 1.1 3.7.2 2.9-1.7 5.7-3.5 8.1-5.8 2.3-3.2 3.4-7.1 6.1-10"/><path d="m210 44c.7 0 2.2 0 2.9 0 0 .7 0 2.2 0 3-.7 0-2.2 0-3 0 0-.7 0-2.2 0-3"/><path d="m214 47.6c1.2 1.6 3 3.1 3 5.2-.6.9-1.2 1.9-1.8 2.8-.7-2.6-1.1-5.3-1.3-8"/><path d="m323 51.7c3.5.8 6.9 2 10 3.5-.5 1.5-1 2.9-1.7 4.3-1.6.1-3.1.1-4.7.1 1.5 1.2 2.9 2.5 4.4 3.8-1.3 0-2.7 0-4 0 1.7 1.8 3.7 4.1 6.5 3.4 1.7 2.4 4.1 4.8 6.9 6-1 .2-2.1.5-3.1.7-.2 1-.3 2.1-.5 3.1-.1.7-.4 2-.5 2.7-1.3-1-2.6-1.9-3.9-2.9 1.8 2.7 3.7 5.2 5.7 7.7.5-.4 1.6-1.2 2.1-1.6l.6-.5c.4.2 1.1.6 1.5.8-.4 1.1-.7 2.2-1 3.4-2.8-.5-5-2.1-6.7-4.3-2.9-3.8-7.5-6.1-9.4-10.6 1.1-.4 2.1-.8 3.2-1.1 2.1 2.5 4.5 4.8 7.3 6.4-1.1-3.2-2.6-6.3-5.4-8.3-2.5-1.8-4.3-4.3-5.3-7.1-3.3-.2-6.8 0-9.8-1.8-1.2-.7-3-1.5-2.6-3.3 2.6-1.9 6.1-.1 9.1 0 .3-1.5.7-2.9 1-4.4m2.4 3.2c1.5 1.8 3.4 3.2 5.9 3.4-.6-1.1-1.1-2.2-1.8-3.2-1.4-.1-2.7-.2-4.1-.2m-10 2.1c1.5 1 3.1 2.1 4.8 2.8 1.9.9 3.5-1 5.2-1.7-3.2-1.3-6.6-1.5-10-1m13 16.3c-.7 1.4 1.5 3.2 2.8 2.3.7-1.4-1.5-3.2-2.8-2.3z"/><path d="m213 61c.3-2.4 1.5-4.4 3.5-5.6-.3 2.4-1.5 4.4-3.5 5.6"/><path d="m212 62c3.3.1-1.6 3 0 0"/><path d="m303 67c1.1-1.2 1.8-3.2 3.7-3.3 6-.5 12.3.3 17.9 2.8.5 1.1.9 2.3 1.3 3.5-2.1.2-4.1.3-6.1.5-1.5 3.2-3.1 6.3-4.7 9.3-1.6-.9-3.6-1.6-4.6-3.2-.4-1.4-.6-2.8-.7-4.3 3.4-.6 6.7-1.7 9.8-3.2-2.8-.5-5.5-.8-8.3-1-.5 1.4-1 2.7-1.5 4.1-.1.3-.2.8-.3 1.1-.1-1.2-.2-2.5-.4-3.7-.4 0-1.1 0-1.5 0 .2-.6.6-1.7.7-2.2-1.8-.1-3.5-.3-5.3-.5m7.4-1.7c0 .5.1 1.6.1 2.1 2.6-.1 5.1-.3 7.7-.6-2.2-1.8-5.1-1.4-7.8-1.5m9.8 2.3c-.6 1.6 3 2.4 3 .6-.4-1.2-2.2-1.6-3-.6m-9.4 5.9c.8 1.6 1.6 3.2 2.4 4.8 1.8-1.6 3.3-3.6 3.6-6.1-2 .4-4 .8-6 1.3z"/><path d="m197 65c2-.8 2.5 2.5.6 2.9-2 .8-2.5-2.5-.6-2.9"/><path d="m223 67c3.5.6 7 1.2 10.5 1.7-.3 4.9-.6 9.8-1.1 14.6 0 1.6-.6 3.6.7 4.9 4.1 4.8 10.4 7.6 13 13.6 1 2.4 2.3 5.2 1.5 7.9-1 3.8-2.7 7.5-2.1 11.5-.1 2.3 1.3 5.3-1.2 6.8-3.3 2.7-6.9 5.2-10.8 7-1 .5-1.8-.7-2.6-1 4.5-1.9 9.3-4.1 12.6-7.8-.3-7.2 2.7-14.2 2.2-21.4-2.1-6.6-8.2-10.5-13-14.9-3.8-3.7.4-9.3-1.2-13.7-1-2.5-3.9-2.9-6-3.8-.8-1.8-1.5-3.6-2.2-5.4"/><path d="m271 75c2.2-.3 4.4-.2 6.5.4-.8 3.3-2.1 6.3-3.6 9.3-1.4-.4-2.8-.9-4.1-1.3.9-1.4 1.9-2.9 2.8-4.3-.5-1.4-1.1-2.7-1.6-4.1m2.5 1.5c-.4 1.4 0 1.9 1.4 1.5.4-1.4 0-1.9-1.4-1.5z"/><path d="m62 75c3.3.2-1.6 3 0 0"/><path d="m200 76c2-.7 2.4 2.5.6 2.9-2 .7-2.4-2.5-.6-2.9"/><path d="m278 76.9c1.8.3 3.8 0 5.3 1.3.7 2.3-2 3.1-3.8 2.9-.6-1.3-1.1-2.8-1.5-4.2"/><path d="m289 78.9c1.7-.4 3.4-.8 5.1-1 1.4 3.2 1.9 6.8 2.8 10.2-.5 1-.9 2-1.4 3 1.1 1.1 2.1 2.2 3.2 3.3-1.1 1.8-2 3.9-3.7 5.3-2 0-4-.5-6-.9 1.3-2.8 3.1-5.2 5.2-7.5-1-4.4-2.5-8.7-5.2-12.4m3.5 1.4c-1.6 3 3.3.2 0 0m-1.6 17.5c1.6.2 3.2.3 4.9.5.3-2 .6-3.9.9-5.8-2.6 1-4.6 2.9-5.7 5.4z"/><path d="m277 83c3.6-1.4 8.5-1.2 10.9 2.2 3.9 3.5.4 8.8-1 12.7-1.9.5-2.4-1.5-2.9-2.9-1-2.8-.1-5.7.4-8.4-2.8.1-7.2.3-7.3-3.6m8 5.1c0 2.5.1 5 .3 7.4 2.3-2 3-4.9 3.8-7.6-.5-.4-1.4-1.1-1.9-1.5-.6.4-1.7 1.2-2.2 1.6z"/><path d="m271 86c3.9 3.4 9.7 6.2 9.9 12-.8 1-2.4 1.8-3.5.8-2.3-2.1-4.1-4.7-6.2-7-.4 2.1-.8 4.3-1.2 6.4 3.3.8 5.6 3.3 7.3 6.1-3.2.9-6.6.9-9.9.4-.8-4.2-.8-9-4.4-11.9-1.7-1.4.4-3.4.7-5 1.8 1.5 3.6 3 5.4 4.5.5-2.2 1.1-4.4 1.8-6.5m2.5 6c1.3 2.4 3.2 4.4 5.7 5.6-.6-1.6-1.1-3.2-2-4.6-1.2-.4-2.4-.7-3.7-1m-5.3 11c2 .1 3.9.2 5.9.2-.5-1.2-1-2.4-1.4-3.6-1.5 1.1-3 2.2-4.5 3.4z"/><path d="m250 95c1.6-2.2 4.6-2.1 7-1.7 1.6 1.2 1.2 3.4 1.5 5.1-1.6-.6-3.2-1.2-4.8-1.9.1 2.6 0 5.1-.3 7.7-1.3 0-2.6-.1-3.9-.2-.1-2.9-1.8-6.5.5-9m-.2 6.1c.7 0 1.9 0 2.6 0-.1-2.2-.2-4.4-.3-6.6-1.7 1.8-2 4.2-2.3 6.5z"/><path d="m300 95c1.5 1.5 2.9 3.1 4.3 4.6 2.6 1 4.2 3.2 4.8 5.8-3.2.6-6.4.8-9.6 1 .9 2 1.7 4 2.5 6-1.9.2-4.3 2.3-5.7.1.6-1.5 1.3-2.8 2-4.3-1.5.5-3 1-4.5 1.6-2.1-1.9-4.1-4.1-5.6-6.5 3.9-.2 7.8 0 11.7.1-1-1.2-1.9-2.5-2.9-3.7 1-1.6 2-3.3 3-4.9m-.3 2.7c-1.4.9.1 3.3 1.4 2.1 1.4-.9-.1-3.3-1.4-2.1m5.2 4.8c.2 3.3 3-1.6 0 0m-13.7 3.4c1.1.8 2 2.1 3.4 2.4 1.6-.3 3.1-.9 4.6-1.5-.4-.6-1.3-1.9-1.8-2.6-2.1.5-4.1 1.1-6.2 1.6m7.5 4.6c-1.3.7-1.3 1.3 0 2 1.3-.7 1.3-1.3 0-2z"/><path d="m320 94c1.4.5 2.9 1 4.1 1.8.4 1.9-.1 5.6-2.8 4.5-2.7-1.2-1.9-4.1-1.3-6.4m1.2 2.9c-1.5 3 3.3.1 0 0z"/><path d="m315 99c4.1.8 5.9 4.6 6.3 8.3-2.4.5-4.8 1-7.2 1.4.1-3.3.3-6.5.9-9.7m1.1 1.9c-.1 1.9-.3 3.8-.4 5.7.9 0 2.7 0 3.7 0-.3-2.3-.7-4.9-3.3-5.6z"/><path d="m264 106c1.7 0 3.5 0 5.2 0-.4 1.8-.7 3.6-1.1 5.4-1.1-.4-2.2-.8-3.3-1.3-.9-1.1-.5-2.7-.8-4"/><path d="m272 109c2.1-1.3 4.8-1.2 7.2-1.4-.4 3-1.4 5.8-2.3 8.6.8 0 2.4.1 3.3.1.2-2.1.5-4.2.8-6.3 2.4-.8 4.8-1.7 7.2-2.6 2.8 2.7 6.1 5 8.7 8 .6 2.6-2.8 2.5-4.4 2.9-1.2 0-3 .9-3.6-.7-1.4-2.4-2.4-5-3.8-7.4-.4 3.6-.4 7.3-.6 10.9-2.9-.3-5.8-.5-8.4-2-3.5-2.5-7.8-.5-11.8-.8 0-1.3-.1-2.6-.1-3.8 2.4 0 4.9 0 7.3-.2-.1-1.7-1.3-4.1.5-5.3m-.4 1.8c1 1.6 2 3.2 3.1 4.8 1.5-2 2.5-4.3 2.9-6.8-2 .6-4 1.3-6 2m15.3-1.8c.6 2.9 1.4 5.7 2.3 8.5 2.1-.5 4.2-1 6.3-1.6-2.4-2.8-5.3-5.2-8.6-6.9m-6.9 10.2c.9 0 2.5 0 3.4 0-.1-2.5-.1-5.1-.3-7.6-1.8 2.2-2.6 4.9-3.1 7.6z"/><path d="m310 121c1.6-3.3 3.8-6.5 7.5-7.6-.3 2.5.9 6.1-1.9 7.7-1.6 1.4-3.8.2-5.6-.1m2.2-1.2c.9.1 2.6.2 3.5.2-.2-1.5-.3-3-.5-4.6-1.1 1.4-2.1 2.9-3 4.3z"/><path d="m79 117c1-1.5 3.5.2 2.4 1.6-1 1.5-3.5-.2-2.4-1.6"/><path d="m285 120c1.3 0 2.6.1 3.9.2 1.5 2.5 4.8 6 1.8 8.7-.9 1.9-4.1 1.3-4.4-.7-.6-2.7-.8-5.4-1.3-8.1m3.1 6.3c-.5 1.4 0 1.9 1.4 1.4.5-1.4 0-1.9-1.4-1.4z"/><path d="m98 121c1.6-.5 2.2 0 1.7 1.7-1.6.5-2.2 0-1.7-1.7"/><path d="m274 121c2.7.1 3.5 2.7 4.3 4.8-1.5 0-3.1.1-4.6.1-.1-1.7-1.4-3.8.4-5"/><path d="m295 128c1.3-1.7 2.7-3.5 4.1-5.2 1.1.9 2.1 1.8 3.2 2.7-1.3 1.4-2.6 2.8-3.9 4.3-1.1-.6-2.3-1.2-3.4-1.7m3.4-2.6c-1.6 3 3.3.2 0 0z"/><path d="m304 128c1.6-1.9 2.7-4.6 5.3-5.4 1.6 2.4 2 6.1-.1 8.3-2.2.2-3.6-1.8-5.2-2.9m3.6-1.8c-1.6-.1-1.8 2.7-.1 2.7 1.6.1 1.8-2.7.1-2.7z"/><path d="m333 123c1.4.4 2.9.7 4.3 1.4 1.6 1.2 1.7 3.5 2.3 5.3-1.7-.4-3.5-.8-5-1.6-.8-1.6-1.2-3.3-1.6-5"/><path d="m90 127c1.1-1.6 2.7-2.6 4.4-3.3-.3 1.2-.7 2.4-1 3.6-.9-.1-2.6-.2-3.4-.3"/><path d="m335 133c2.4.5 4.7 1.2 6.8 2.3-.2 2.7-1.3 5.6-.1 8.2 2.1 1.8 5.8 1.1 7.4 3.7.5 1.7.3 3.5.4 5.3 2.4.4 4.8.5 7.1 1.3 2.8 3.2 3.6 7.6 3.5 11.7-3.2-1.9-6.8-2.6-10.5-2.9-2-1.6-.5-4.8-2-6.7-2.1-1-4.6-.9-6.8-1.3.1-1.5.1-2.9.2-4.4 1.6.6 3.3 1.2 4.9 1.9.6-.3 1.7-.8 2.2-1.1-4.8-2.3-9.8-4.2-14.8-6.1-1.4-2.6-3.5-5.1-3.4-8.1.8-.8 1.7-1.3 2.8-1.2 1.4 1.7 2.6 3.7 3.8 5.5-.2-2.7-.8-5.3-1.5-7.8m3 2.5c-.5 1.6 0 2.2 1.7 1.7.5-1.6 0-2.2-1.7-1.7m-6 2.2c-1.5 3 3.3.1 0 0m8.2 7.4c-1 1.2.9 3.1 2.1 2.1.9-1.2-.9-3.1-2.1-2.1m4.4 1.5c-.8 1.2 1.3 2.4 2.1 1.3.8-1.2-1.3-2.5-2.1-1.3m3.8 7c-.4 1.4 0 1.9 1.4 1.4.4-1.4-.1-1.9-1.4-1.4m3.7 1.6c-.2.6-.7 1.7-.9 2.2 1.7 1 3.4 2.1 5.4 1.7-1.5-1.4-3-2.7-4.5-3.9m-1.7 4.4c-.4 1.4 0 1.9 1.4 1.4.4-1.4 0-1.9-1.4-1.4m6.9 2c.2 3.3 3-1.6 0 0z"/><path d="m96 137c1.4-.4 2.8-.8 4.2-1.2 0 .8 0 2.3 0 3-1 .4-2 .8-2.9 1.3-.4-1-.8-2-1.2-3"/><path d="m321 142c1.3.1 2.5.1 3.8.2 1.6 3 3.6 5.9 6.7 7.6.4 1.8.7 3.7 1.4 5.5 1.2 1.6 2.9 2.8 4.4 4.1 1.2 3.1 2.4 6.1 3.2 9.3-1.5.5-3 1-4.5 1.5-.5-2.3-1-4.6-1.4-6.9-1.2-1.1-2.4-2.1-3.4-3.3-1.9-2.5-1.9-6.4-5-8-1.4-1.2-3.6-1.9-4-3.9-.6-2-.9-4-1.2-6m3.5 6.1c-.4 1.4 0 1.9 1.4 1.5.4-1.4 0-1.9-1.4-1.5m12.7 17c-1.6 3 3.3.2 0 0z"/><path d="m313 144c1.3-1 2.9 1.2 1.6 2.2-1.3 1.1-2.9-1.2-1.6-2.2"/><path d="m358 147c.4-2.3 1.9-3.6 4.1-4 .1 1.9.2 3.7.3 5.6-1.5-.5-2.9-1.1-4.4-1.6"/><path d="m106 144c1.6-.5 2.2 0 1.7 1.7-1.6.5-2.2 0-1.7-1.7"/><path d="m352 146c1.3-1 4.2-2.2 4.8.2.3 1.4.4 2.7.6 4.1-2.3-.7-5.2-1.4-5.3-4.3"/><path d="m241 150c1.5-.4 3.1-.8 4.6-1.2 1.2 2.7 2.8 5.7.8 8.4-.7-.8-1.3-1.7-2-2.5-1.2-1.6-2.3-3.2-3.4-4.8"/><path d="m338 176c.4-3.2 3.5-4.1 6.2-3.1-.1 1.5-.2 3-.2 4.5-2-.3-4.2-.1-6-1.4"/><path d="m91 176c3-1.5.1 3.3 0 0"/><path d="m48.7 177c2.3 1.1 4.4 2.5 6.4 4-2.9 5.3-7.5 9.9-7.4 16.3-3.5-1-7.2-.8-10.8-.7 1.2-3.4 2.3-7 4.8-9.6 1.8-1.9 3.7-3.7 5.6-5.6 1.7.7 3.3 1.4 5 2.1-1.2-2.1-2.5-4.3-3.5-6.5m-2.8 8.3c.1.8.4 2.6.6 3.4 1-.9 2-1.8 3-2.8-.9-.2-2.7-.5-3.6-.6m-4.1 8c2.6 2.6 3.3-2.3 3.5-4.1-1.4 1.1-3.3 2.1-3.5 4.1m-1.6.4c-1.5 3 3.3.1 0 0z"/><path d="m302 199c6-.6 11-4.3 17-5.2 0 .8.1 2.3.1 3-5.9 1-10.9 5.3-16.9 5.4 0-.8-.1-2.4-.1-3.2"/><path d="m43 198c2.3.4 6.4 1.9 4.8 4.9-1.3.4-2.7.7-4 .9-.3-1.9-.6-3.9-.8-5.8m1.1 1.8c-.5 1.4 0 1.9 1.4 1.5.4-1.4 0-1.9-1.4-1.5z"/><path d="m80 202c2.8-1.3 6-1.2 9-1.5 0 1.3-.1 2.6-.1 3.9 2.1.8 4.1 1.6 6.2 2.5.3 2.5.7 4.9 1.1 7.4-1.4.6-2.8 1.2-4.2 1.9-1.3 2.2-.4 5.1-1.8 7.2-4.5 1.8-9.5 1.9-14.3 1.7-1.5-2.7-4-5.1-4.1-8.4-.3-3.5-1.3-6.9-.8-10.4 1.6.8 3.1 1.7 4.7 2.6 1.4-2.3 2.6-4.7 4.3-6.8m.5 3.2c1.2 1.1 2.3 2.2 3.5 3.3.8-1.4 1.5-2.8 2.3-4.3-1.9.3-3.9.6-5.8 1m6.5-.1c-.3 1.7-.5 3.3-.8 5 1.2-1.1 2.4-2.2 3.6-3.2-.7-.5-2.1-1.4-2.8-1.8m-8.9.8c-.8 2-.7 4.1 0 6.2 1.3-1.2 2.6-2.4 3.9-3.6-1.3-.9-2.6-1.7-3.9-2.5m11.8 1.3c-.6 2.4.3 4.6 1.8 6.5.5-1.1 1.1-2.2 1.6-3.3-1.1-1.1-2.3-2.2-3.4-3.2m-17.5 1.8c-1.2.8.1 2.9 1.3 1.9 1.2-.8-.1-2.9-1.3-1.9m7.7 3.2c1.2 1 2.4 2 3.6 3 .2 2.5.3 5 .5 7.6 1.6-1.2 3.3-2.5 4.9-3.7-1.2-.9-2.5-1.9-3.7-2.8.5-1.6 1.1-3.2 1.6-4.8-1.2-.8-2.4-1.6-3.6-2.3-1.1 1-2.2 2.1-3.4 3.1m-6.6.8c1 1.3 2 2.5 3 3.8 1-1.5 2-3.1 3-4.6-2.1-.7-4.2-.7-5.9.8m14.8-1.3c-1 2.1-1 4.3-.1 6.5.8-.9 1.7-1.9 2.4-2.9-.2-1.5-1.5-2.4-2.3-3.6m-10.5 4.1c1.7 1.7 3.7 2.9 6.1 3-1-1.7-2.1-3.4-3.3-5-.7.5-2.1 1.5-2.8 2m-.7 6.9c1.7-.7 3.4-1.4 5-2.2-1.4-.9-2.7-1.8-4.1-2.7-.3 1.6-.6 3.2-.9 4.8z"/><path d="m58.9 213c1.7-.4 3.4-.7 5-1 0 1.4 0 2.8 0 4.3-1.2-.1-2.5-.1-3.7-.2-.5-1-.9-2.1-1.4-3.1"/><path d="m202 217c1.6-.8 3.3-1.2 4.9-1.7-.3 1.8 0 4-1.4 5.4-2.4.6-4.7-1.3-3.5-3.7"/><path d="m269 223c2.9-1.7 5.9-3.4 9-4.8 0 .8-.1 2.3-.1 3.1-2.6 1.3-5.3 2.7-7.9 4.1-.4-.8-.7-1.6-1.1-2.4"/><path d="m59 222c3.3.1-1.5 3 0 0"/><path d="m195 227c2.2-.9 4.4-1.9 6.7-2.9.6.3 1.9.8 2.6 1.1-1.1 2.3-2.3 4.5-3.6 6.7-1.9-.7-3.8-1.4-5.8-2.1 0-.7.1-2 .2-2.7m4 0c-1.6 0-1.8 2.7-.1 2.7 1.6.1 1.8-2.7.1-2.7z"/><path d="m63 225c1.5-1.2 3.1 1.4 1.6 2.4-1.5 1.2-3.1-1.4-1.6-2.4"/><path d="m206 235c-.5-2.3-1.9-6.3 1.9-6 1.2 1.8 1.9 3.9 2.6 5.9-1.5 0-3 .1-4.5.1"/><path d="m286 229c2 .4 5.8-.6 6.1 2.3.7 2.8-2.9 2.7-4.7 3.2-.5-1.8-1-3.6-1.4-5.4m2.4 2.3c.2 3.3 3-1.6 0 0z"/><path d="m63 241c3 .8 7.5-.1 9.3 3-.8 1.1-1.7 2.2-2.5 3.2-2.3-2-4.6-4-6.8-6.2"/><path d="m73 255c1.2-.9 2.5 1.1 1.3 1.9-1.2 1-2.5-1.1-1.3-1.9"/><path d="m227 263c3-2.6 5.4-6.3 9.7-6.9-1.7 4.8-5.7 8-9.3 11.4-2.1 2-4.6 3.5-7.4 4.3.7-3.9 4.2-6.2 6.9-8.7"/><path d="m75 262c3.5-2.5 7.8-4.1 12-4.7.7 1.2 1.2 2.5 1.8 3.7-3.4 1.6-7 2.9-10.7 3.6-.1-1-1-2.8-2.2-1.9-.9 1 .4 2.2 1.2 2.7 0 1.1.1 2.2.1 3.3 2.8-1.4 5.6-2.7 8.3-4.4.6 0 1.8-.1 2.4-.1-.1 2.3 0 4.5.3 6.8 1.8-.7 3.7-1.6 5.7-1.7 3.5 2.8 4.3 7.3 3.3 11.5-1.3.2-2.5.5-3.8.7-.2 1.6-.3 3.1-.5 4.7-1 0-2.1 0-3.1 0-.8-3.2-1.5-6.5-3-9.5-1.1-1-2.9-.1-2.7 1.4 1 1.7 2.3 3.2 3.5 4.7-1.7 1.7-3.9 2.4-6.3 2.3-.3.7-.6 1.4-.9 2.2 2.3-.4 4.5-.8 6.8-1.3 1.4 1.3 2.8 2.6 4.2 3.9 1.8-2.6 3.5-5.4 6.8-6.2.6 1.4 1.2 2.7 1.6 4.2-1.1 1.8-2.5 3.4-3.8 5.1-1.8 0-3.7.1-5.5.1-1.3 1.5-2.1 4.1-4.3 4.5-2.3-.3-4.1-1.9-6-3-1.2.4-2.4.8-3.6 1.2-2.3-2.2-4.8-4.4-5.7-7.6-.8-2.7-3-4.7-3.9-7.3 1-3.3 1.5-6.7 1.1-10.1 2.2-3 4.7-5.9 7-8.8m6.5-1.4c-1.5 3 3.3.1 0 0m3 5.9c-.5 1.6 0 2.2 1.7 1.6.5-1.6 0-2.2-1.7-1.6m-11 1c-.5 1.6 0 2.2 1.7 1.7.5-1.6 0-2.2-1.7-1.7m6 1.1c-1.5 1 .2 3.5 1.6 2.4 1.5-1-.2-3.5-1.6-2.4m-9.1.9c-1.8.4-1.2 3.3.6 2.7 1.8-.4 1.2-3.3-.6-2.7m12-.2c-1.5 2.9 1.9 4.1 4.2 4.3-.6-1.9-1.3-5.4-4.2-4.3m-9.8 1.8c1.3 2.7 3.5 4.8 6.3 5.8.4-.6 1.3-1.9 1.7-2.5-1.2-1.4-2.4-2.8-3.8-3.9-1.4.1-2.9.4-4.3.7m14.9 1.5c-1.4.9 0 3.3 1.4 2.2 1.4-.9 0-3.2-1.4-2.2m3.8 0c-.7 1.5-1.4 3-2.1 4.5.8.2 2.5.5 3.3.7.5-1.5 1.1-2.9 1.6-4.4-.9-.3-1.9-.6-2.8-.9m-19.9 2.1c-1.6 3 3.3.2 0 0m9.9-.3c-.4 1-.8 2-1.2 3 .5.3 1.6.8 2.1 1.1.8-1.4 1.6-2.7 2.4-4.1-.8 0-2.5 0-3.3 0m-9.3 3.3c0 5.9 3.8 10.7 7.1 15.2.8-1.3 1.5-2.7 2.3-4-1.3-.3-2.6-.6-3.9-.9-.6-4-2.1-7.7-3.9-11.3-.4.3-1.2.8-1.6 1.1m22.3-1.1c-.5 1.6 0 2.2 1.7 1.6.5-1.6 0-2.2-1.7-1.6m-18 1.3c-.4 1.4.1 1.9 1.5 1.4.4-1.4-.1-1.9-1.5-1.4m2.8.7c-.2 1.1-.4 2.3-.7 3.4 1.3.2 2.5.4 3.8.6-.1-.8-.3-2.3-.3-3-.9-.4-1.8-.7-2.8-1.1m10.3-.9c-.2 1-.5 3-.6 4 1-.1 3-.4 4-.6-1.2-1.1-2.3-2.3-3.4-3.5m-21.4 1.8c0 .7 0 2.2-.1 2.9 1.1.4 2.2.9 3.2 1.3 0-1.4 0-2.8 0-4.3-.8 0-2.4 0-3.2 0m15.3 2.2c-.5 1.6 0 2.2 1.7 1.7.5-1.6 0-2.2-1.7-1.7m-11 5c-.5 1.6 0 2.2 1.7 1.7.5-1.6 0-2.2-1.7-1.7m23 0c-.4 1.4.1 1.9 1.5 1.4.4-1.4-.1-1.9-1.5-1.4m-1.3 3.1c-1.5 3 3.3.1 0 0m-9.9.5c-.3.6-1 1.8-1.3 2.4 1.6.4 3.3.9 4.9 1.3-.4-1.2-.7-2.3-1.1-3.5-.7-.1-1.9-.2-2.6-.2m-9 1.4c-.5 1.6 0 2.2 1.7 1.7.5-1.6 0-2.2-1.7-1.7m9.2 2.9c-.5 1.4 0 1.9 1.4 1.5.5-1.4 0-1.9-1.4-1.5z"/><path d="m313 265c4.7 2.8 9.2 5.8 13.3 9.3 3.1 2.7 7.3 3.9 9.6 7.4 3 4.3 7.6 7.7 8.5 13.1-4.1-2.4-6.7-6.4-9.5-10.1-2.6-3.8-6.7-6-10.3-8.8-2.3-1.9-5.1-3-8-3.7 2 3.7 5.9 5.4 9 7.8.2 1.2 0 2.5 0 3.7-5.8-3.8-11.4-8-16-13.2 1.8.2 3.6.5 5.4.8-.9-2.1-1.5-4.2-2.1-6.3"/><path d="m256 272c1.6-2.4 4.1-4.1 6.6-5.4-.5 2.3-1.1 4.6-1.8 7 6.4 2.1 13.2 1.3 19.7 2.4 4.3.7 8.6-.4 12.9-.9-1.6 1.8-3.4 3.8-5.9 4.3-9 2.5-18-.7-26.7-3.5.8 6.9 1.6 14 4.6 20.5 3.4 4.3 10 6.6 15.3 4.4 4-2.2 7.6-5.2 11.5-7.4-.8-1.4-1.6-2.9-2.7-4.1-3-1.7-6.5-2.3-9.8-3.3 0-1.3 0-2.5 0-3.8 1.6.1 3.3.1 4.9.2-1 1.1-2 2.3-3 3.4 2.5 0 5 .1 7.6.1.1-.8.4-2.4.5-3.2-1.4-.1-2.8-.2-4.2-.3 2.7.1 5.3.2 8 .5.3 6.6 1.3 13.3 4 19.4-1.9-1.1-3.7-2.2-5.6-3.3.6 1.6 1.1 3.1 1.7 4.7-2.6.1-5.2.2-7.8.3-1.2 2.1-2.5 4.1-3.7 6.2-1.5 0-3.1 0-4.6 0 .1 1.4.2 2.7.3 4.1 1.4.1 2.9.1 4.3.2 1 1.6 2.1 3.1 3.1 4.7 2.4-.5 4.8-1 7.2-1.6-3.1 8.3-3.5 17.6-.7 26 1.4 4.8 1.2 9.9 1.6 14.8-4.7.5-9.4.5-14.2.2-.6-1.6-1.2-3.1-1.8-4.6-3.4 1.9-7.1 4.2-11.1 3.4-1.7-1.4-3.1-3.1-4.5-4.7 2.4 1.3 4.7 3.4 7.5 3.7 3.7 0 5.3-3.7 7-6.3 1.3.8 2.6 1.5 4 2.3-.1 1.8-.1 3.5-.2 5.3 4.1.1 8.2.1 12.3 0-1.2-6-1.9-12.2-3.4-18-1.5-5.8-.2-11.8.4-17.6-3.8 1.3-7.6 2.8-11.3 4.4-6.8 2.8-14.2 3.9-21.5 4.6-1.7-2.4-3.4-5.9-6.9-5.7-4.3-.5-7.6 2.6-9.9 5.8.4-1.6.8-3.3 1.2-5-6.3-1-12.9-1.4-18.5-4.8-3.9-2-5.1-6.6-6.5-10.4-1.1-4.6-2.3-9.5-.9-14.2 1 7.8 1.4 16.9 7.4 22.7 6 3.2 13.3 6.4 20 4.2-5.6-2.9-12.4-3.9-16.7-8.9 3.9.7 7.9 1.6 11.8 2.3-1.3-1.8-2.6-3.6-3.9-5.4 1.8 0 3.5 0 5.3 0 .1-1.4.2-2.9.3-4.3 6.7 0 13.8 1.6 20-1.9-1.3-2.6-2.5-5.2-3.8-7.7-3.8 3.3-7.8 6.5-12.4 8.7-.4-1-.8-2-1.2-3 5.3-3.2 10.3-7.2 16.3-9.2-.3-3.1-.3-6.3 0-9.4-3.7 4.9-7.7 11.2-14.6 11.4 2.1-3.6 5.4-6.1 8.5-8.8 2.4-2.1 3.6-5.1 4.9-8-.7 0-2-.1-2.6-.1-2.5 4.6-6.1 8.7-11.5 9.9 3.9-6 9.1-11 13.2-17m2-.3c-.4.6-1.2 1.9-1.5 2.5 1 .9 2.1 1.5 3.4 2 0-.8.1-2.3.1-3.1-.5-.3-1.5-1.1-1.9-1.4m-2 4.6c-.5 1.4 0 1.9 1.4 1.4.5-1.4 0-1.9-1.4-1.4m2 3.3c-1.4 1-.2 4 1.6 2.9 1.4-1 .1-3.9-1.6-2.9m1.8 5.8c-.4 1.5-1 3.1-1.2 4.6.1 2.3 2 3.9 3.3 5.7.9-3.6-.3-7.2-2.1-10.3m0 12.7c-1.2-1.6-3.1.4-1.9 1.8.8 1.4 2.9.2 2.4-1.2.8.9 1.6 1.7 2.4 2.6 0-1.8 0-3.6 0-5.4-1 .8-1.9 1.5-2.8 2.3m25.6 1.6c1.9.2 3.8.3 5.7.5-.1-.9-.3-2.8-.4-3.7-1.9.8-3.7 1.8-5.3 3.2m-20.3-1c-.1 2.6-.2 5.2-.3 7.8.4-.1 1.1-.4 1.5-.6 2.7.8 5.5 1 8.3.9.1-.7.2-2 .2-2.7-2.3.3-4.6.6-6.8 1.2 1.5-.7 3-1.6 4.4-2.5-2.3-1.5-4.8-2.8-7.3-4m-5.3 4.5c1.1 1.2 2.3 2.4 3.4 3.5 0-1.6 0-3.1-.1-4.7-1.1.4-2.2.8-3.3 1.1m17.3-.2c-1.2 2.1-2.5 4.1-3.4 6.3-.7 2 .7 3.8 1.6 5.5.1-1.3.2-2.5.3-3.7 1.7-1.7 3.5-3.4 5.2-5-.4-1-.7-1.9-1.1-2.9-.6 0-1.9 0-2.6-.1m-17 3.1c-.3.5-.9 1.5-1.2 2 2.4 1.7 4.8 3.2 7.4 4.6 1.4.8 2.8 1.6 4 2.6.8 3.1-3.8 2-5.7 2.5.6 1.4 1.1 2.8 1.8 4.1 2.1-.9 3.2-3.2 4.9-4.6 1.6-.1 3.2.2 4.8.4.3-.7.5-1.4.8-2.1-1.9-.4-3.8-.8-5.6-1.3.2-1.5.5-2.9.7-4.4-.3-.5-.7-1-1-1.6-1.3 1.2-2.7 2.4-4 3.6.8-.8 1.6-1.6 2.4-2.4-3.3-.7-6.4-1.9-9.2-3.6m-2.9 3c-.1 1.3-.1 2.5-.1 3.8 1.3.1 2.6.2 3.9.2.3-.5.8-1.5 1-2-1.6-.7-3.2-1.3-4.8-2m-16.5 2.5c1.2.6 2.3 1.1 3.5 1.7.2-1.1.4-2.3.7-3.4-1.4.6-2.8 1.1-4.1 1.7m9-1.6c.5 2.8.8 5.7 1.4 8.5-.6.6-1.1 1.1-1.8 1.6-.3-.9-.7-1.7-1-2.6-2.8.9-5.8.9-8.6.3 2.5 1.5 5.3 4.7 8.5 3.1-1.8 1.3-3.6 2.6-5.3 3.9 4-.6 8-.6 12 0 1.6-4.9 2.8-10.5 0-15.2-.6 1.5-1.1 3-1.7 4.5-.1-1.2-.2-2.4-.3-3.6-1-.2-2.1-.4-3.1-.7m-6.1 4.5c-.9-.5-1.8-1.1-2.7-1.6-.8.8-1.7 1.7-2.5 2.5 1.9.7 3.7 1.6 5.7 1.8 2.4-.1 4.4-1.8 6.1-3.3-1.1-3.6-4.7-.8-6.6.5m14 1.8c-.1 2.8.9 5.4 2.8 7.5-.4 1.2-.9 2.4-1.3 3.7 2.5-.6 5.1-.9 7.7-.9-2-1.5-3.9-3-5.8-4.5.3-1.9.5-3.9.8-5.8-1.4 0-2.8.1-4.2.1m17 3.6c2.3.4 4.6 1 6.9 1.1.6-1.1 1.2-2.3 1.8-3.5-.7-.5-2.1-1.5-2.9-2-2 1.3-4 2.8-5.9 4.4m1.6 1.4c-2 .7-.8 3.7 1.1 2.4 2.1-.7.8-3.7-1.1-2.4z"/><path d="m274 294c1.4-.5 1.9 0 1.5 1.4-1.4.5-1.9 0-1.5-1.4"/><path d="m315 295c3.6 2.8 8 4.7 10.2 8.9 4.2 8 8.3 16 12 24-.8 0-2.4.1-3.3.1-4.2-6.1-6.2-13.4-8.9-20.2-3.4-3.7-7.7-6.5-11.5-9.9.5-1.1.9-2.1 1.4-3.2"/><path d="m335 295c3.2 2 6.9 4.1 7.4 8.3-.9 0-2.5.1-3.4.1-1.4-2.8-2.8-5.5-4-8.4"/><path d="m345 298c4.1 3.9 8.9 8.3 8.3 14.5-3.2-4.6-7.8-8.6-8.3-14.5"/><path d="m218 298c1.3 1.1 2.6 2.3 3.7 3.6-1 .1-3 .3-4 .4.1-1 .2-3 .2-4"/><path d="m219 309c.2-3.9 3.6-6 6.3-8.1 2.6 2.5 5 5.3 6.2 8.8-2.8-.7-5.3-2.3-7.6-4.1.7 1 1.4 2.1 2.1 3.1-.2.4-.7 1.3-.9 1.7-2.1-.5-4.1-.9-6.2-1.3"/><path d="m343 305c1.4-.4 1.9 0 1.4 1.4-1.4.4-1.9-.1-1.4-1.4"/><path d="m345 310c3.3 3.3 6.3 7.3 6.4 12.2-.7 0-2.1-.1-2.8-.1-1.1-4.1-2.6-8-3.6-12.1"/><path d="m244 330c3.5-.9 7.2-1.1 10.9-1-1 1.1-1.8 2.7-3.4 3.1-2.7 1.1-5.1-1.1-7.5-2.1"/></g><g style="fill:#3a392f"><path d="m49 39.8c2.9-.2 5.7-.4 8.6-.5.5.6 1.5 1.7 2 2.3-2.9.6-5.6 1.6-8 3.2-.8.6-1.5 1.3-2.3 2-.1-.4-.3-1.1-.4-1.5 0-1.8.1-3.6.2-5.5"/><path d="m60 43c.5-.5 1.4-1.6 1.8-2.2 1.4.6 2.9 1.1 4.3 1.6v.7c-.1.5-.2 1.4-.3 1.9-2 .1-3.9.3-5.9.4 0-.6.1-1.8.1-2.4"/><path d="m173 59c-.3-4 2.7-7.2 5.9-9.1.3-.2.9-.5 1.2-.7-1.1 1.4-2.1 2.8-2.9 4.3-.2 1.4-.3 2.8-.4 4.3 2.1.7 4.2 1.4 6.2 2.1-2.1.1-4.2.2-6.3.3.2.6.5 1.9.6 2.5 1.6.3 3.2.6 4.8 1-.4.5-1.4 1.4-1.8 1.8-.6-.1-1.7-.3-2.3-.4-2.9-.3-5.3-3.1-4.9-6"/><path d="m183 68.9c.4-.2 1.3-.5 1.8-.7 1.6 1.4 3.2 2.8 4.8 4.1-1.5.6-3 1.2-4.5 1.8-.7-1.7-1.4-3.4-2.1-5.2"/><path d="m156 89c1.1-2.1 2.1-4.2 3.2-6.2.3 1.6.6 3.2.9 4.8-3.5 3.2-7.3 6-11 8.9-.7-.9-1.4-1.8-2.1-2.8 1.9-3.3 5.6-4.2 9.1-4.7"/><path d="m99 181c1.5-1.2 3.1 1.3 1.6 2.3-1.4 1.2-3.1-1.3-1.6-2.3"/><path d="m197 216c4.9-3.8 9.9-8 16-9.8 4.6-.6 9.6-.8 13.7 1.6 2.3 1.2 4.3 3 6.3 4.7-2.5.4-5 .9-7.6.6-1.4-1.6-2.2-3.7-2.9-5.7-3.5 0-7.1-.3-10.4.8-7.7 3.3-14.8 8.4-19 15.7-4.6 4.7-7.6 11-13.4 14.4-.1 1.8-.3 3.5-.4 5.3 12.2-.8 23.5-6.2 35-8.5 2 1.1 2.2 3.5 2.6 5.5.7 5 1.4 10 1.2 15 0 3.9-3.7 6.5-4.7 10-.4 1.8-.5 3.7-.7 5.6 1.8.9 3.6 1.9 5.3 2.8-.7 1.7-1.5 3.4-2.2 5.1.2-1.5.5-3 .8-4.5-1.6-.8-3.3-1.6-4.9-2.4.2-3.4-.6-7.1 1.5-10 1.9-2.9 4-6 3.6-9.6-.4-5.5-.9-11-2.2-16.4-6.2 2.1-12.8 3.1-18.9 5.6-6 2.4-12.5 2.9-18.9 2.4.1-1.9-.1-4 .5-5.8.9-1.4 2.3-2.4 3.5-3.5 3.2-2.6 5-6.2 7.8-9.1 3-3 4.8-7.1 8.2-9.8"/><path d="m222 240c2.7-.3 5.5-.2 8.2 0-2.6 1.3-5.9 2.5-8.2 0"/></g><g style="fill:#66624d"><path d="m77 49c1-.1 2.9-.4 3.9-.5 5.7 1.7 12.4 2.8 16 8 2.2 3.3 2.1 7.5 2.6 11.3.7 5-4 8.2-7.5 10.8-1-.9-2-1.8-3-2.7 2.9-.9 6.5-1.2 8.5-3.8 1.8-2.3 0-5.1-.4-7.5-1.1-3.4-.8-8-4.3-10-2.7-1.9-6.3-2.3-9.2-.6-2.6-1.1-4.9-2.8-6.6-5"/><path d="m188 77.9c5 .6 9.7 2.3 14.4 3.9-2.5.7-5.5 3-7.9 1-2.3-1.5-4.3-3.3-6.4-5"/></g><g style="fill:#82827c"><path d="m263 72c2 .1 3.9 1.1 5.7 1.8-.7 1.4-1.6 2.7-2.1 4.3.1 2.4.8 4.7 1.2 7-1.8-.3-3.5-.6-5.3-1 .5-1.3 1-2.6 1.5-3.9-1.3-1.5-4-2.7-3.2-5 .4-1.2 1.2-2.2 2.1-3.1m-.6 1.5c.4 1.6.9 3.2 1.4 4.8 1.1-1.1 2.3-2.3 3.4-3.4-1.6-.5-3.2-1-4.8-1.4z"/><path d="m260 102c2.3.5 3.8 2 4.3 4.3-1.5.1-3.1.1-4.6.2.1-1.5.2-3 .3-4.5"/></g><g style="fill:#7e7250"><path d="m83 77c1.6-.1 3.3-.1 4.9-.2-.5 1.1-1 2.2-1.4 3.3-1.2-1-2.4-2.1-3.5-3.1"/><path d="m248 117c1.5.4 3.1.8 4.6 1.4-1.1 2-2.8 3.6-4.5 5.1-.1-2.2-.1-4.3-.1-6.5"/><path d="m145 135c2.9-.8 7-2.9 9.3.3 2.4 4.4 3.4 9.5 6.2 13.7.4-.5 1.3-1.4 1.8-1.9l.5-.6c.3 5.6 1.4 11 .9 16.7.4 5-2 10.4-6.6 12.8-7 3.8-14.2 7.1-21.8 9.4-7.2 1.3-14.2 3.6-21.3 5.6-2.6 2.1-4.4 5-6.3 7.7-2.8 3.9-.2 8.7.1 13l-.4-.7c-1.4-3-3.8-6.4-2.1-9.7 1.9-4.1 4.7-7.8 6.6-11.8 4.2-.3 8.6-.7 11.9-3.7-2 .2-4 .5-6 .8-.2-1-.4-2.1-.5-3.1 3.8-.3 7.5 1.1 10.6 3.2-.6-1.3-1.3-2.6-1.9-3.9 2.5.9 5.1 2.1 7.8 1.5 3.7-.8 6.9-2.8 10.3-4.2 4.3-2 9-3.3 13-5.9 2.5-1.6 3.9-4.4 4.3-7.2.6-4.2.8-8.5 1.2-12.8-7 1.7-13.5 5.3-17.7 11.3-1.7-.5-3.4-1.4-5.2-.7-5.6 1.9-10.9 4.6-16.7 6 4.7-3.2 9.9-5.7 15.4-7.1 4.1-1.3 9.6-2 11.3-6.7 1-2.7 1-5.7-.2-8.3-2-4.5-3.7-9-4.8-13.9m2.3 1.7c-1.2 4.2.8 9 4.9 10.7 1.5-.5 3-1.3 4.4-2-.8-3.4-1-7.3-3.5-10-2-.2-4.6-.8-5.8 1.3m9.1 14.3c-1.3 1.3 1 3.3 2.2 2 1.3-1.3-1-3.2-2.2-2z"/></g></svg>