<svg xmlns="http://www.w3.org/2000/svg" viewBox="0 0 401 382" style="enable-background:new 0 0 401 382"><g style="fill:#7f7d70"><path d="m108 58c1.5-2 2.5-4.3 3.8-6.4-.3 3.1-.2 6.3-.4 9.4.8 1.6 1.7 3.2 2.4 4.8-2.7.1-5.4.2-8.1.3 1.3-2 2.5-3.9 3.8-5.9-2.3.7-4.6 1.5-6.9 2.2-1.3-1-2.7-2.1-4.1-3-.7.9-1.4 1.9-2.1 2.8 3 .8 6 1.7 7.8 4.4-1.5.3-2.9.8-4.5.8-3.5-1.2-6.3-3.9-9.2-6.1-1.3.8-2.6 1.6-3.9 2.4-2.2-.7-4.6-1.1-6.6.3-2.8 2.1-5.2-2.2-8-1.3-.9 2.2 1.3 3.9 2.2 5.6-1.1.8-2.2 1.5-3.2 2.3.5 1.3.9 2.5 1.4 3.8-1.6.5-3.3 1.1-4.9 1.6 2.2 3.3 4.7 6.5 8 8.9.8-3.3 1-6.7.6-10 1-.9 2.1-1.8 3.2-2.7-.2-1.9-.3-3.7-.5-5.6 1.6 0 3.2 0 4.8-.1-.2 2.1-.5 4.2-.7 6.3 3.9 0 7.8.5 11.7 1.1 0 2.4 0 4.9 0 7.3-.6 0-1.7 0-2.3.1-.9-1.9-1.6-3.9-3-5.5-2-.3-4-.2-6-.3-.7 3.2-2 6.3-3.8 9 2-.7 3.9-1.4 5.9-2 3.6 3.3 8.2 5.3 12 8.5.8 2-2.1 2.8-3.1 4.2 3.3 2.2 7 3.5 11 3.3.1-.7.4-2.1.5-2.8-1.4-1.6-2.9-3.1-3.9-5 .8-2.2 3.1-3.4 3.9-5.5-1.7-.6-3.5-1.3-5.2-2 2.4-4.2 4.2-8.6 6.1-13 1.9 1 4.3 1.7 5.4 3.7-.3 2.8-1.6 5.4-2.6 8 2-.6 3.9-1.2 5.9-1.8.8 1.1 1.6 2.3 2.4 3.4 1.9-1 3.8-1.9 5.6-2.9-3.1-1.9-6.5-3.5-9.5-5.7-1-2.4-.9-5.1-1.1-7.7 1.6.5 3.3 1 3.8 2.8 1.1 1.5 1.7 5.7 4.4 4 .5-4.6-4.4-7.4-6.1-11.4 5.1.4 10.3 1 15.3 2.2-.3-1.4-.5-2.9-.7-4.3 3.6.1 7.4-.7 10.8 1.2-.7.5-1.4 1.1-2.2 1.6-1.5-.3-2.5-1.8-3.7-2.6-.8 1.1-1.5 2.3-2.1 3.4 4.4.6 8.7 1.3 13 2.2-.7.9-1.5 1.8-2.3 2.7-6.6-.8-13-1.8-19.7-2.5.2 4.1.9 8.1 2.7 11.9-1.6 3.1-3 6.2-4.4 9.3-2.3-.5-4.7-.2-6.9.5-.2-1.3-.4-2.7-.6-4-1.2.6-2.5 1.2-3.7 1.8.9 2.6 1.7 5.2 2.5 7.8 1.3.1 2.6.1 3.9.2.7 2.2 1.3 4.4 2 6.6 1.3-1.3 2.6-2.7 3.8-4-2.2-1.9-4.3-4.1-4.2-7.2 1.7.5 4.1.1 5 2 1.1 2 1.8 4.4 1.6 6.8-.8 2-2.8 3.3-4.3 4.8 1.3 2.5 2.9 4.8 3.5 7.6-.2 2.7-2.2 5.4-1 8 .7 1.9 1.7 3.7 2.1 5.6-1 1.6-2.2 3-3.4 4.4 2.1 4.3 3 9.1 3.4 13.9-2.2-1.1-4.4-2.1-6.6-3.2-.7 1.2-1.3 2.5-2 3.7-.7.1-2.1.3-2.8.3.3-1.4.5-2.8 1-4.1 2.6-2 5.3-3.7 7.7-5.9-2-.3-4-.5-6-.7-1.1-.9-2.1-1.7-3.2-2.6-.7 2.7-.8 5.4-.7 8.2-2.8 1.3-5.6 2.5-8.5 3.5-.7-1.1-1.3-2.2-1.9-3.3 1.7-2.5 4.3-4.2 6.5-6.3-5.1-1.7-10.3-2.8-15.6-3.3 1-1.6 2-3.2 3-4.7-3.2 1-6.5 2-9.7 2.9-.3 1-.5 2-.8 3.1 2.2-.2 4.3-.4 6.5-.7-.1.6-.2 1.7-.3 2.2-1.5.6-2.8 1.5-4.2 2.2 1.9 0 3.7.1 5.6.2.3 4-1.9 7.4-4.4 10.4.4 1.5.8 3 1 4.6-1.2 2.5-3.8 3.9-5.8 5.7-2.1-1.2-3.8-2.9-4.4-5.3 1.9.1 3.9.1 5.8.2-2.1-4.2-4.4-8.5-3.7-13.3-1.1-.4-2.2-.9-3.3-1.3-.2 1.8-.4 3.5-.7 5.2-1.4-.1-2.7-.2-4.1-.3-.7-2.1-1.3-4.1-2-6.2-2.4 2.1-2 5.1-1 7.8-1.8.3-3.5.5-5.3.8-.9-2.8-1.7-5.5-2.5-8.3 2.9-1 6-1.6 9.1-1.5.4-.4 1.2-1.1 1.7-1.4-.8-1-1.6-1.9-2.4-2.9-2 1-3.9 2.2-6 2.8-2.3 0-2.2-2.8-2.5-4.5-.2-4.2.4-8.6-1.3-12.6 2.6-.2 5.5-1.4 7.9 0 2.4 4 1.1 8.8 1.9 13.2 2.1.2 2.2-2.2 2.5-3.7.3-3.7-1.4-7.2-2.4-10.6 1.6-.2 3.1-.4 4.7-.4-.8 1.4-1.8 2.8-1.6 4.5.1 4 .1 8.1-.4 12 2 .5 4.1 1 6.1 1.5 3.1-5.6 2.7-12.4-.2-18 5-1.5 10.3-2.4 15-4.6 0-1.3.1-2.5.2-3.8-3.2 1.4-6.5 2.9-10.1 2.3.7-4.3 2-8.5 2.7-12.8.7-2.9-1.8-5.1-3.3-7.3-3 1-6 1.9-9.1 2.7.7 2.6 1.9 5.1 3.9 7-.3-1.8-.7-3.7-1.1-5.5 1.4-.3 2.7-.6 4.1-.9 1.1 2.5 2.1 4.9 3.1 7.4-1.1 1.7-2.3 3.4-3 5.3.5 2.1 1.6 4 2.5 5.9-1.1.4-2.2.8-3.2 1.2-.2-4.5-.4-8.9-.6-13.4-2.2.1-4.4.2-6.7.4-.4 4.9-1.9 11 2.7 14.5-.5.2-1.5.5-2 .6-.4-.4-1.3-1.1-1.7-1.4-1.4-5.6-.6-11.4.6-16.9-1.1.1-2.3.2-3.4.3-1.1 4.9-2.8 10.5.8 14.8-1.6 1.3-2.9 3.8-5.3 3.8-4-1-7.4-3.8-10.5-6.4 1.8-.7 3.7-1.3 5.5-2 .1-2 .2-4 .3-6-3.9 0-8.3-.7-11-3.8-.5-1.7-.8-3.4-1.1-5.1 2.4-1.1 4.8-2.3 7.1-3.5-1.3 2.1-2.8 4.3-3.1 6.8 2.7-.7 5.2-2.1 7.7-3.3 0 .7-.1 2.1-.2 2.8-1 .9-2 1.8-3 2.7 2.4-.8 4.9-1.5 7.3-2.3-.1-1.4-.1-2.8-.2-4.2-1.6-.3-3.2-.7-4.8-1 1-1.6 2.2-3.1 3-4.9.8-2.3-1.1-4.1-2.2-5.9-1.2 1.5-1.9 3.6-3.8 4.4-2.7-.8-2.9-3.8-3.4-6.1 3.6.1 7.5 1.1 10.9-.4 2.6-1.1 4.3-3.5 6-5.7-1.6-1.6-3.2-3.3-4.9-4.9-3.7 1.6-7.9 1.2-11.6 2.8-2.3 1.4-4.2-1-6.1-1.9-.9 1.3-1.6 2.6-2.3 4-1.9-.7-3.9-1.4-5.8-2.1.1 1.1.3 2.2.4 3.3 1.8.9 3.6 1.7 5.3 2.8-1.7 0-3.5.1-5.2-.2-2.5-1.7-4.5-4.1-6.7-6.1-.7 1.3-1.4 2.6-2.2 4-.5.1-1.5.2-2.1.3-1.1-1.5-2.2-2.9-3.4-4.3-.9 1.1-1.7 2.2-2.6 3.4 1.8 1.3 3.1 4 5.6 3.7 1.8 0 3.5-.2 5.3-.4-1.3 2.2-2.7 4.3-4 6.5.6 2 1.3 4.1 1.9 6.1-2 0-4-.1-6-.1-1.3-3.7-1.1-7.6-.9-11.4-1.2-2.4-3.9-3.3-6.2-4.1 1.8 7.9 1.3 16 2 24-.9 6 .5 12-.3 18 .1 4.5.7 8.9.7 13.4 1.1 11.2.4 22.4.9 33.6 0 3.2 2.2 5.7 2.9 8.6 1.7 11.2.6 22.6.6 33.9 1.2 12.6.9 25.3 2 38 .3 4.1-.6 8.2-.2 12.3 1 8 .4 16 1 24 1.1 17 1.9 34 3.5 51 .4 7.4 1.6 14.8 1.9 22 .2 3.9 3.1 8.1.3 11.6-1.8 2.6-5.2 1-7.7.8 2.8-.4 7.2-.8 7-4.5-1.5-8.5-3.4-17-3.2-25.7 0-8.1-1.9-16-1.9-24-.4-10.7-1.9-21.4-2.2-32 .6-7.7-.8-15.4-.3-23 .4-6.2-1.2-12.3-.6-18.4.5-6.6-1-13.2-1-19.8.5-15-1.3-30-.9-45 .2-3.2-2.9-5.4-3-8.5 0-4.1-.1-8.1-.5-12.2-.7-13-.2-26-1.2-39 .1-9-.6-18-.2-27 0-4.1-1.8-8.4-.1-12.3 2.6-3.4 7.4-5.1 11.4-3.2.8-.6 1.6-1.3 2.4-1.9 6 1.7 11.8-1.2 17.8-.7 1.7.1 3.3-.2 4.9-.6 5.9-2 12.6 1.1 18-2.7 4.1 1.3 8.4 1.3 12.5.1 3-1 6-.6 9 .3.4-.6 1.1-1.9 1.5-2.5 3.7.5 8.2 2 11.3-.9m-39 29.7c0 .7-.1 2.1-.1 2.8 1.4 0 2.8 0 4.1 0 0-.7-.1-2.2-.1-2.9-.5-.4-1.5-1.2-2-1.6-.5.4-1.4 1.2-1.9 1.7m38 2.3c-1 1.3.8 3.9 2.3 3 1-1.3-.8-3.8-2.3-3m1.5 10.9c1.3.9 2.7 1.8 3.9 2.9.1 1.5-1.3 2.6-1.9 3.9.3.5 1 1.5 1.4 2.1 3.5-.4 6.2-3.3 5.9-6.8-1.2-.4-2.4-.7-3.5-1.1-.3-1.5-.7-3.1-1-4.6-1.7 1-3.3 2.3-4.7 3.8m-16 .3c2.1 1.4 4.9 3.3 6.9.6-.5-.7-1.5-2-2-2.6-1.7.5-3.4 1.2-4.9 2m9.3.3c1 1.3 2.1 2.7 3.2 4-3.2.8-7.5.8-8.6 4.6 3.5.2 6.9.5 10.3 1.2-.8-3.2-1-6.6-1.1-9.9-1.3 0-2.6 0-3.8 0m17.3 7.2c-1.7 1.3.6 3.6 2 2 1.7-1.3-.6-3.6-2-2m-6.5 2.6c-.5 1.6-.1 3.2-.3 4.8-1.3 1.3-3.5 2-3.5 4 2.1 1 4.3 1.6 6.5 2.4-1.7 1-3.3 2-5 3 1.2 1.3 2.3 2.6 3.5 4 2.8-2.1 6.3-3.8 7.9-7.2-.9-2.8-2-5.7-2.3-8.7-2.2-.8-4.5-1.6-6.7-2.4m-26 11.5c.6-.3 1.7-1 2.3-1.4-.9-2.9-2-5.8-4.2-8-1.6 3.3 0 6.6 1.9 9.3m8.2-7.3c0 1.3 0 2.6 0 3.8 3.6 1.2 7.3 1.3 11 1 .1-2 .1-4.1.2-6.1-3.8-.1-7.6.2-11.2 1.2m11.3 6c-.5 1.6 0 2.2 1.7 1.7.5-1.6-.1-2.2-1.7-1.7m-7.5 1.7c.1.7.4 2.1.5 2.8.8 1.9 3.3 1 4.9 1.5-.2-1.2-.5-2.4-.8-3.5-1.4-.7-3.1-.5-4.6-.7m-23 7.9c.8 1.3 1.6 2.7 2.4 4.1 1-1.2 1.8-2.5 2.4-3.9-1.6-.1-3.2-.1-4.8-.2m12.3 6.8c0 .8-.1 2.6-.2 3.4.9 0 2.7-.1 3.5-.2-.6-1.6-1.7-2.7-3.4-3.3z"/><path d="m150 62c3.1.7 6.3 1.1 9.5 1.3-.1 1-.3 2-.4 3 1.6.4 3.3.7 4.9 1.3.4 1.1.7 2.2.7 3.4-2.8-.2-5.6-.7-8.3-1.3-.6-2.2-1.2-4.4-1.8-6.6-.9.5-1.8 1-2.6 1.4.5 1.7 1 3.4 1.5 5-2.3-.3-4.6-1-6.5-2.4 1.1-1.7 2.1-3.3 3-5.1"/><path d="m176 64c2.6 2.9 6.6 2 10 2.3 4.9.1 9.7 1.5 14.6 1.8.2.8.7 2.5.9 3.3 1.1 0 2.3 0 3.4 0 .1-.7.2-2 .2-2.6.7.4 1.4.8 2.2 1.2.3 0 .9 0 1.3 0 1.3.8 2.5 1.8 3.9 2.5.3-.7.9-2.1 1.2-2.8 1.3-.1 2.7-.2 4.1-.2-.2 1-.5 1.9-.7 2.9 1.9 1.7 3.8 3.4 5.7 5.1-1.2 1.9-2.4 3.8-3.5 5.7 1.4 2.5 3.6 5 2.8 8.1-.7 4.3-.7 8.7.2 13-.7 0-2.2.1-2.9.2-.9-2.2-2-4.3-2.4-6.6-.1-2.8 1.2-5.4 1.2-8.1-1-2.7-4.4-4.8-3.4-8 .5-2.1 1.3-4.2 2-6.2-2.4.3-4.8.6-7.2.9-1-1.3-1.9-2.5-2.9-3.8-.8.9-1.7 1.8-2.5 2.7-5.2-2.1-10.8-.3-16-2.3.9-1.9 1.7-3.9 2.6-5.8-1-.2-2-.4-3-.6-.9 2.4-1.9 4.8-2.9 7.2-5.2-1.9-10.5-3.4-16-3.6.1-1.8.3-3.6.4-5.4 1.3 0 2.5-.1 3.8-.3-.1 1-.3 2-.4 2.9 1.2.3 2.4.6 3.6.8 0-1.5 0-3-.1-4.5m3.8 4.5c1.5.3 2.9.7 4.4.9-.3-1.1-.7-2.1-1.3-3.1-1.6-.5-2.3 1.1-3.1 2.1m13 .4c1.1 1.5 2.5 2.7 4.1 3.6-.2-1.5-.5-3-.7-4.5-.8.2-2.5.6-3.4.8z"/><path d="m87 65c2.5 0 5.3-.4 7.6 1.1-1.3 3.3-7.3 2.7-7.6-1.1"/><path d="m58 68c2.4-1 5.4-1.8 7.7 0-1.1 3.2-6.1 2.5-7.7 0"/><path d="m95 66.8c2.6 2 5 4.3 7.4 6.6-.8.5-1.5 1.1-2.3 1.6-1.8-.9-3.4-2.1-5-3.2 0-1.7 0-3.4 0-5"/><path d="m49.6 69c1.5-.1 2.9-.1 4.4-.2 0 .8 0 2.5 0 3.3-1.5-1-3-2-4.4-3.1"/><path d="m50 74c.9.3 1.8.7 2.7 1 0 .7.1 2 .1 2.7-1.6.1-3.3.2-4.9.3-.1 2.4-.1 4.8-.3 7.1-1.1-.2-2.2-.5-3.3-.9-.5-1.7-.7-3.5-.9-5.2-2.8-.4-7.1.8-8-2.9 3.7-.9 7.8-1.6 11.2.6 1.1-1 2.2-1.9 3.3-2.8"/><path d="m95 84c-.2-2 2.7-1.8 3.9-2.3 0 1.5 0 3.1 0 4.7-1.3-.6-4.1-.3-3.9-2.3"/><path d="m36 84c2.6 1.1 7 2.6 5.4 6.2-2.2-.8-4.4-1.6-6.6-2.4.4-1.3.8-2.6 1.2-3.8"/><path d="m39.6 94c.6-1.5 1.7-2.8 3.3-3.3 0 .9.1 2.6.2 3.5-.9 0-2.6-.1-3.5-.2"/><path d="m33.4 93c1.6-1 4.5.4 3.4 2.4-2.1 1.5-4.6 2-7.1 2.5.8-1.9 1.7-4 3.7-4.9"/><path d="m41 97c1.9.5 1.6 2.7 1.9 4.2.3 2.4.5 4.8.9 7.3-2.2 1.3-4.2-.4-6.1-1.4 1-3.4 1.9-6.8 3.4-10"/><path d="m44.7 104c.9-3.9 5-5.2 8.2-6.6.9 2.1 1.6 4.3 2.3 6.5-1.4-.6-2.7-1.2-4.1-1.8-2 1-4.2 1.6-6.4 1.9"/><path d="m51 107c1.6.3 4.4.5 3.8 2.8-1.7.7-3.4 1-5.2 1.4.4-1.4.2-3.2 1.4-4.3"/><path d="m36 109c1.8.2 1.5 3.4-.2 3.6-1.8-.2-1.5-3.4.2-3.6"/><path d="m54.7 114c1.7-1.3 3.5-3.8 5.5-1.4-2.4 1.7-4.5 4.2-7.3 5.3-3.4-.1-7-.2-10-1.8.3-1.5 1.3-2.6 2.1-3.8 3.2.7 6.4 1.8 9.7 1.8"/><path d="m24.9 112c3.7 1.1 7.2 2.8 11 3.4 3.6.1 4 4.4 5.3 7-3.8-4.3-9.7-4.5-14.9-5.4-2.2-.4-1.1-3.4-1.5-4.9"/><path d="m115 118c2.8-.3 4.6 1.5 4.3 4.3-1.3 0-2.5-.3-3.7-.6-.4-1.2-.6-2.4-.6-3.7"/><path d="m54.9 121c1.1-.9 2.2-1.8 3.3-2.7.9.9 1.8 1.7 2.6 2.7.5 1.3-.5 2.5-.7 3.8-1.7-.6-3.3-1.2-5-1.8-3.1 1.4-6.6 1.6-10 1.5-1.5.2-1.8-1.6-2.5-2.4 4.1 0 8.2-2.2 12.3-1"/><path d="m31 125c2.7.3 6.4-.1 7.4 3.1-2.5.1-5 .1-7.5.2 0-.8 0-2.5 0-3.3"/><path d="m55.7 130c1-.9 1.7-2.4 3.1-2.7 1.8 1.1 2.1 3.2 2.4 5.1-2-.3-3.9-1.2-5.5-2.4"/><path d="m48 129c1.4.2 2.8.4 4.2.8.9 1.9.5 4.1.5 6.2-1.7.7-3.4 1.5-5 2.3.7-3.1.8-6.2.3-9.3"/><path d="m40.9 135c.8-2.1 1.8-4.4 4.4-4.7-.4 2.4-2.1 4-4.4 4.7"/><path d="m29 135c3.1-2.7 8 .2 9.2 3.7-1 .8-1.9 1.5-2.9 2.2-1.9-2.1-5.3-3.1-6.3-5.9"/><path d="m47.8 142c4.8-.4 8.2-3.7 11.3-6.9 1.4 1.4 3.5 2.7 2.9 5-2.7 1.4-5.4 2.7-7.9 4.5-2.3 1.8-5.5-.3-6.3-2.6"/><path d="m95 139c1.4-.5 2.8-.9 4.3-1.4.9 1.8.7 3.7 0 5.6-1.7-1.1-3.2-2.5-4.3-4.2"/><path d="m40.9 141c1.8.4 4 .7 4.9 2.6.1 1.4-.6 2.7-.9 4-.6-.2-2-.4-2.6-.6-2.3-1-1-4.1-1.4-6"/><path d="m105 144c.8-.8 1.6-1.7 2.3-2.5 2.7.9 5.3 1.9 7.9 3.1-.6 2.7-.7 5.6-2.4 7.9-4.1.4-6.6-3.2-7.7-6.7-1.3.2-2.6.4-3.9.5-1.7.4-1.7-2-2.5-2.9 2.1.1 4.1.3 6.2.5m5.3 2.1c-1.1.9-.6 3.1.8 3.3 2.2-.2 1.2-4.4-.8-3.3z"/><path d="m62 146c1.1-2.2 3.8-2.1 5.9-2.7-.8 1.4-2.3 2.1-3.6 2.9 2.7 4 8.3 3.2 12 1.3 2.7 2.5.5 7.4-2.9 7.8-2.1-.8-3.3-2.8-5.3-3.9-2.8-.9-4.5 1.9-6.6 3.1-2.1-2.5-1.1-6.1.5-8.6"/><path d="m121 143c4 .4 4.3 7.2 1 8.5-1.8-2.5-1-5.7-1-8.5"/><path d="m95 144c.8-1.2 3 .1 2 1.3-.8 1.2-2.9-.1-2-1.3"/><path d="m47 149c1.9-.7 5.4-.1 4.6 2.7-1.3 2.2-4.1.8-5.9 0-.2-1.2.2-2.1 1.3-2.7"/><path d="m95 152c1.2-.8 2.6-1.1 4-1.4 0 .9 0 2.8 0 3.7-1.2-.7-4.1-.4-4-2.3"/><path d="m114 162c.9-1.3 1.6-3.4 3.5-3.5 3.6-.2 7.6.2 10.7 2.2 0 .4.1 1.2.1 1.6-2.4 1.1-5.1 1.6-7.7 2.3 3.3 2.4 7.6 2.6 10.9 4.9-1.7 3.1-2.5 7.5-6.5 8.3.9-2.3 2-4.4 3.1-6.6-1.1.2-2.2.3-3.3.5-.6 2.2-3.8 5.6-5.5 2.5 0-2 .5-3.9.9-5.9-3.6.8-7.6 2-11-.1-.2-4.4 5.2-1.9 7.8-1.8.3-.5 1-1.4 1.4-1.9-1.5-.9-3-1.7-4.4-2.6"/><path d="m133 160c2.1.6 5.1.5 5.7 3.1-2.6.2-5-.3-5.7-3.1"/><path d="m77 169c-.1-2.2 2.4-3.1 4.1-3.9 1.4.1 1.7 1.9 2.3 2.9-2 1-4.3 2.7-6.4 1"/><path d="m29.7 169c.3-3.1 3.2-4.2 5.5-2.1-.6 2.6-3.6 1.8-5.5 2.1"/><path d="m58 166c2.2.6 4.4 1.4 6.4 2.5-1.6 2.4-4.2 1.6-6.5.8 0-.8.1-2.5.1-3.3"/><path d="m68 168c1.6-2.8 4.8-1.8 6.7 0-2.2 1-4.5 1-6.7 0"/><path d="m87 166c2.5 0 5 0 7.5.2-1.2 3-4.8 2.6-7.4 3.1 0-.8-.1-2.5-.1-3.3"/><path d="m98 166c2.5-.1 4.9-.1 7.4-.1 0 .8 0 2.4 0 3.2-2.8-.1-6.8.8-7.4-3"/><path d="m36.9 169c.8-3.1 5.1-1.6 7.4-1.9-.4 3.7-5.1 4-7.4 1.9"/><path d="m47.7 167c1.9 0 3.8 0 5.8 0-.5 1-1.1 2-1.7 2.9-1.9.4-2.8-1.9-4.1-2.9"/><path d="m132 167c2.6 0 5.9-.3 6.5 3-2.2.1-4.4.1-6.5.1 0-.8 0-2.4 0-3.1"/><path d="m117 181c.8-3.9 5.5-2.2 8.3-2.7-.7 2.8-.7 7-4.3 7.6-2.2-.6-5-2.1-4-4.9"/><path d="m46.7 201c1.2-.3 2.5-1.4 3.7-.3 2.8 1.8 5.4 4 8.2 5.8 2.6 1.5 2.2 5 2.8 7.5.5-.1 1.6-.2 2.2-.3 0-2.1-.9-4.7 1.1-6.1 1.8-1.7 4 .5 5.8 1.2-.5.4-1.6 1.3-2.2 1.7 1.8.5 3.6 1 5.4 1.6 2 6.7-1 13.5 1 20-4.2-.8-8.5-1.6-12.6-.4-.3-.9-.6-1.8-.9-2.6 1.3-1.9 2.2-4.1 2.3-6.4-3.4-.4-3.6 3.1-4.1 5.5-2.9-1.6-5.7-3.4-8.3-5.4-.8 2.2-1.5 4.4-2.4 6.6-3-2.1-1.9-6.1.6-8 2.2-1.8 3.3-4.3 3.7-7-1.2-1-2.3-2-3.4-3 1.6-.8 3.1-1.6 4.7-2.4-1.5-.6-3.1-1-4.5-1.8-1.7-1.7-2.2-4.1-3.2-6.2m19.3 12c0 5.3-.4 10.6-1.1 15.8 2.4.8 4.9 1.6 7.3 2.3 1.6-6 2.8-12.7-.1-18.4-2 .1-4.1.2-6.1.3m-7.8 5.4c.1.5.4 1.6.5 2.1 2.8.6 5.1-.5 6.4-2.9-2.3.3-4.6.6-7 .8z"/><path d="m92 210c1.5-4.7 5.7-7.2 10.2-8.2 1.3 2.6 2.4 5.4 3.3 8.2-2.1 3.1-5.2 5.3-8.4 7 2.2.5 4.3.3 6.3-.7 1.8 2 2.9 5.4.6 7.6-2.7 3.3-7.4 3.3-10.7 5.4-.1.7-.3 2.1-.4 2.8 2.2-.1 4.5 0 6.5-.7 2.3-.7 3-4.1 5.6-4.2 3.2 2.4-1.7 5.2-3.3 7 1.4.8 2.7 1.6 4.1 2.4.3 2.8.7 5.6 1.2 8.4-2.9 2.2-5.8 5.5-9.7 5.5-1.3-.2-4-1.1-2.7-2.8 1.7-.8 3.4-1.4 5-2.3-3.2-.4-7-.4-9.5 2 .1 3.2.4 6.3.8 9.4.3 1.8 2.2 2.6 3.4 3.8 1-2.4.4-5-.1-7.4 2.3-1.9 5.4-1.7 8.2-1.6.8-1.2 1.5-2.4 2.3-3.6 2.1 2.5 2.4 5.8 2 9-1.2 2-3.5 3.1-5.2 4.6 0 3.6-1.2 7-3.4 9.8-3.2.2-6.4-.4-9.1-2.2.5-.9.9-1.8 1.2-2.7 2.5.4 5 .7 7.5.9-1.1-2.6-3.1-4.6-5.3-6.3-2.3 1.6-4.4 4.5-7.6 3.8-2.4-.4-5.4-.2-7.2-2-.2-2.6.8-5.2 0-7.8-1.2-3.5.4-7.1.3-10.7-.1-3-.8-5.9-1.3-8.8.4-.3 1.3-1 1.7-1.4 3.6.9 7.3 1.2 10.9 2.2 2 1.2 2.8 3.7 3.9 5.6 2.5-.5 4.9-1 7.4-1.6.2-.4.7-1.3 1-1.7-2.3 1-4.8 1.6-7.3 1.6.5-1.8 1.3-3.6 2-5.3-6.7-1.3-13.5-2.6-20-4.4 2.2-6 2.2-12.4 1.6-18.6-1.6-.5-3.2-1-4.8-1.4.4-.6 1.3-1.9 1.7-2.5 2.6.7 5 1.9 7.6 2.6 1.4-.6 2.5-2.1 4-2.3 2 .3 3.8 1.2 5.7 1.9m3.9 2.2c1.9-.1 3.8-.3 5.7-.5-1.8-.8-5.2-2.8-5.7.5m-5.5-1.4c-.4 1.7-.8 3.4-1.2 5.1 2-.9 3.9-1.9 5.9-2.9-1.5-.8-3.1-1.5-4.7-2.2m-12.4 3.2c1.8 5.3-.3 10.6.2 16 3 .5 6 .9 9 1.3.1-4.8.2-9.5.1-14.3-.1-1.4.1-3.1-1.3-3.8-2.7-.6-5.5-.4-8 .8m13 4.8c1.8.2 3.6.3 5.3.4 0-.6 0-1.9 0-2.6-1.9.4-3.7 1.1-5.4 2.2m-1.4 1.5c0 1.3-.1 2.5-.1 3.8 4.5.8 8.9-.3 12.9-2.1-.3-.4-.9-1.2-1.2-1.6-2 .9-3.9 2-6 2.4-2-.4-3.8-1.6-5.7-2.5m-11.6 15.7c.2 2.5.5 5 .8 7.4.4 3.2-.7 6.3-.4 9.4.3 3 .8 6 1 9 2.5.4 5.1 1.1 7.6 1.1 2.1-1.2 1.1-3.9 1.1-5.8-1.2-6.5 1.4-13-.5-19.5-1.9-3.3-6.5-1.5-9.6-1.8m22 7.2c1.3.8 2.6 1.4 4 2-.1-.7-.4-2.1-.5-2.8-1.1.3-2.3.6-3.4.7z"/><path d="m204 204c.8-.2 2.5-.7 3.3-.9.5 2.9-.6 5.6-2.5 7.8-2.3-1.8-1.6-4.5-.9-6.9"/><path d="m52 228c3.1 1.3 6.1 3.1 8.4 5.7.2 1.4-1 2.5-1.5 3.8.7 3.1 1.6 6.1 2.8 9 .5-.3 1.5-.8 1.9-1.1-1-3.6-1.1-7.3-.6-10.9 3.5.4 8-.9 10.8 1.8.8 5.4.5 10.8-.2 16.2.1 4 1.5 8 1.3 12-7-.1-14.7-2.8-21 .7-.1-1.8-.1-3.5-.2-5.3-2.7-1.5-5.9-2.9-7.1-6-.4-2 .3-4.1.5-6.1 1.2-.9 2.5-1.8 3.6-2.9.7-2.2-1.9-3.7-2.6-5.6.8-2.8 2.5-5.3 4.3-7.6 0-1.2-.1-2.5-.1-3.7m13.3 7.9c-1.2 2.2-.5 4.9-.6 7.3.4 4-1.4 7.8-.7 11.8.3 2.2.2 4.3-.2 6.5 2.8 1.2 5.8 1.3 8.7 1.1-.4-8.3 2-16.7-.2-24.8-1.6-1.7-5-3.5-7.2-1.8m-8.2 10.1c.6 1.6 1.3 3.2 1.8 4.9-.9.2-2.7.6-3.6.8 1.1 1 2.3 2 3.5 3-.9.5-1.8 1-2.6 1.5 1.7 2.3 3.7 4.8 6.9 4.6 0-2.6-.4-5.2-1.2-7.7.9-2.4.5-4.7-1.1-6.6-1.2-.2-2.3-.3-3.5-.5m-6.9 1.7c-1 1.8 2.9 2.9 3.1.9-.2-1.3-2.2-1.8-3.1-.9z"/><path d="m116 244c2.8-.3 5.2.7 6.8 3.2-1.1.4-2.2.7-3.3 1-2.1-.2-2.7-2.6-3.4-4.1"/><path d="m121 283c-.3-6-3.8-12.6-.1-18 2.1 3.3 5.2 6.1 5.9 10-.5.1-1.6.2-2.2.2-.1-1.5-.2-3-.3-4.5-1.3.5-2.7.8-3.9 1.7.4 3 2.6 5.3 3.7 8 .9.7 1.8 1.5 2.6 2.3-1.9.1-3.9.2-5.8.3"/><path d="m66 267c2.7-1.7 6.6-.3 7.3 2.8-2.4-.2-8 1.2-7.3-2.8"/><path d="m75 268c2.6-2.2 6.1-1.2 9-.4 1.4.2 2.3 1.3 2.8 2.6-4.1.4-8.4.4-11.8-2.2"/><path d="m56.6 267c2.8-.1 6.3-.5 6.8 3.1-2.8.1-6.3.5-6.8-3.1"/><path d="m129 288c.4-2.4 2.6-3.5 4.7-4.3-.3 1.2-.6 2.4-.9 3.5-1.2.5-2.4.8-3.7.8"/><path d="m119 286c1-.4 1.9-.9 2.9-1.3.2.4.6 1.4.8 1.8-.7 1.7-1.5 3.4-2.1 5.1.7 0 2.2.1 3 .1.2-.7.4-2.2.6-2.9.7 0 2.2 0 2.9 0-.1 1.2-.2 2.5-.4 3.7-1.5 1.6-3.8 1.7-5.7 2.5-2.3-2.4-2-5.8-1.9-8.9"/><path d="m169 289c1.3 0 2.7 0 4 0 .7 1.3 1.4 2.6 2.2 3.9-.5 1.1-.9 2.2-1.4 3.3-1.7-.4-3.7-.8-4.4-2.6-.3-1.5-.3-3.1-.4-4.7"/><path d="m129 292c1.4-.1 2.9-.1 4.3-.2.9 1.9 1.8 3.8 2.5 5.8 1 1.9-.7 3.7-1.5 5.4-.7-.1-2.1-.2-2.8-.2-.3-.8-.6-1.7-.8-2.5.9-1.1 1.8-2.2 2.7-3.4-1.5-1.6-3.1-3.1-4.4-4.8"/><path d="m121 298c1.7.2 3.6 0 5.2.7.9 2.2.5 4.6.5 6.9-1.4-.6-2-2-2.6-3.3-.6 0-1.8 0-2.4-.1-.2 1.3-.4 2.7-.6 4-.3-.1-1-.1-1.3-.2.4-2.7.8-5.4 1.2-8"/><path d="m170 299c1.7-.4 3.3-.9 5-1.1 2.6 1.9.8 5.2-.2 7.5.9 1.6 1.7 3.1 2.6 4.7-1 1.1-2.1 2.2-3.2 3.2-1-1.1-2.5-2-2.9-3.5.4-1.4 1.2-2.7 1.8-4.1-1.6-2-2.9-4.2-3.1-6.8"/><path d="m132 307c2.7.7 4.3 2.8 4.3 5.6-.7-.1-2.2-.3-3-.4-2-.9-1-3.4-1.4-5.1"/><path d="m126 310c4 .8 3.7 6.4 1.1 8.6-2.5 2-2.4 5.2-2.3 8.2 1.3-.7 2.6-1.4 3.9-2.2.4 1.1.8 2.3 1.2 3.4 1.8-1.1 3.8-1.9 5.8-1.1-.6 1.7-1.5 3.4-1.7 5.2 1.3 2.7 3 5.4 2.9 8.5-4.6-.9-4.4-6.1-5.7-9.6-3.8-.8-7.6-2.6-10-5.8.4-1.1.9-2.1 1.5-3.1-1-1.3-1.9-2.5-2.9-3.8 2-.1 4-.1 5.9-.1 0-2.8.1-5.5.2-8.3"/><path d="m120 316c.4-1.9.7-4.7 3.1-5.1 2.7 1.7-1.8 3.9-3.1 5.1"/><path d="m133 314c.8 0 2.3.1 3.1.1-.6 1.6-1.2 3.2-1.8 4.9.8 1.4 1.7 2.7 2.5 4.1-.4.2-1.2.7-1.7.9-1.4-2-2.9-4-4.4-5.9.7-1.3 1.5-2.7 2.2-4"/><path d="m119 332c-1-1.6.8-2.9 2.3-2.5 1.4 1.3.8 3.2.9 4.9.9 1.2 1.8 2.3 2.7 3.5-.8.6-1.6 1.2-2.4 1.8-3.2-1-2.5-5-3.4-7.6"/><path d="m128 345c-1.1-3-1.2-6.8.7-9.5.8 2.8 1.4 5.9.7 8.8-.3.2-1 .5-1.3.7"/><path d="m185 342c.9-1.2 3.2.2 2.2 1.6-1 1.2-3.3-.2-2.2-1.6"/><path d="m121 343c3 1 2.1 5 2.9 7.5-.7 0-2.2 0-2.9-.1 0-2.5 0-4.9 0-7.4"/><path d="m167 346c-.8-1.9 2-3.7 3.2-2 1.1.9-.2 2.5-.2 3.6-1-.5-2.1-1-3.1-1.6"/><path d="m177 343c1.6-.5 2.2 0 1.7 1.7-1.6.5-2.2 0-1.7-1.7"/><path d="m191 343c1.6 0 3.3 0 4.9 0 0 .5 0 1.5 0 2-1.7 0-3.3 0-4.9 0 0-.5 0-1.5 0-2"/><path d="m198 348c1.8-2.5 4-4.6 7-5.6-.7 2.2-1.5 4.4-2.2 6.6-1.6-.3-3.2-.7-4.8-1"/><path d="m181 347c1.3-1.6 3.4-1.1 5.2-1.3-.5 1.4-.2 4.2-2.3 4.1-1.7.4-3.4-1.1-2.8-2.8"/><path d="m174 347c1.4-.4 1.9.1 1.5 1.4-1.4.4-1.9-.1-1.5-1.4"/><path d="m190 347c2.3.3 4.5.7 6.7 1.4-1.7 2.9-6.3 1.9-6.7-1.4"/><path d="m129 349c1.6-.5 2.3 2.1.7 2.5-1.6.5-2.3-2.1-.7-2.5"/><path d="m169 351c2 .6 2.5 2.7 3.2 4.4-.8 0-2.5.1-3.4.1 0-1.5.1-3 .2-4.4"/><path d="m200 353c2-.6 2.4 1.6 3.2 2.9-1.6 0-3.2 0-4.8 0 .5-1 1.1-2 1.7-2.9"/><path d="m135 354c1.6-.5 2.2 0 1.7 1.7-1.6.5-2.2 0-1.7-1.7"/><path d="m183 355c1.5-.4 3-.8 4.6-1.2-.8 1.7-1.9 3.2-3.2 4.4-.5-1.1-.9-2.1-1.3-3.2"/><path d="m207 356c1.1-2.3 3.5-2.3 5.7-2.2-1.3 2-3.5 2.2-5.7 2.2"/><path d="m192 355c.9-1.2 3.3.2 2.2 1.6-.9 1.2-3.3-.3-2.2-1.6"/></g><g style="fill:#80725b"><path d="m220 71c1.9 1.7 4.2 3.3 5.2 5.7.7 3.8.2 7.6.2 11.5-.5 8.3.3 16.6.3 24.9 1 13 .3 26 .9 39 .2 5.8-.6 11.8.2 17.6 1 2.2 2.8 3.8 4.4 5.5-2 2-4.1 3.9-6.2 5.8 1.7-2.1 3.2-4.2 4.7-6.4-5-4.2-11.7-2.8-17.7-3.3-1.9.1-2.6-1.9-3.5-3.1 5.2-.2 10.6 1.1 15.7 0 1.6-1.7.9-4.2.9-6.3-.4-3.8.4-7.7.1-11.5-.6-6.9-.3-13.8-1-20.7-1.8 1.2-3.6 2.3-5.4 3.6 1.6 1.6 4.9 2.8 4 5.6-.8 3.6-1.1 7.3-.7 11 .3 2.8-3.4 2.7-5.2 3.6.4-3.7 1.1-7.4 1.3-11 .3-3.6-1.7-6.8-2-10.3.7-2.8 3.1-5.3 2.1-8.4-1.3-4.8-2-9.9-.5-14.8.7.1 2.1.4 2.7.6 1 5.4 1.2 11 1.7 16.5 0 1.8 1.8 2.4 2.9 3.5-.7-6.3-.2-12.7-1.7-18.8-.8-2.8.6-5.6.7-8.4.1-3.3 0-6.6.1-10 .2-3.8-1.1-7.5-.4-11.3 1.1-3.9-2.2-6.9-4-9.9"/><path d="m157 90c1.6-.9 2.8-3.4 4.9-2.7 1.2.9 2.2 2.2 2.8 3.5 1.2 2.1-.8 4.2-1.4 6.2 1 1.3 2.1 2.7 3.1 4-1.3.6-2.7 1.1-4 1.8-.6 2.2 1.8 3.7 2.8 5.5-.9 2-1.5 4-1.3 6.2.4 2.2-1.3 3.9-2.4 5.5 1.1 1.3 3 2.4 3.3 4.1-.8 3.1-2.7 6.3-1.9 9.6 1.5 2.4 3.7 4.3 5.5 6.4-3.6 3.7-9.9 3.6-12.7-.7 1.3-.5 2.5-1 3.8-1.5-2.1-3.3-2.1-7.1-1.6-10.8 1-.7 2-1.5 3-2.3-1.5-1.7-3-3.4-4.5-5.1-.2 2.5-.3 4.9-.5 7.4-.3 3.5-.6 7-.7 10.5-.3 1.2-.7 2.4-1.1 3.6-5-.5-9.8-2.2-14.8-2.2-3.1-.3-7-.3-8.9-3.2-.7-2.9 2.9-4.3 3.6-6.8 0-1.5-.3-2.9-.5-4.3 2.5-.6 4.8-2.1 3.6-5-1.6-.3-3.2-.6-4.8-.8 0-1.7 0-3.4.1-5.1 1.6 1 2.9 2.3 4.4 3.5.1-2-.7-4.4.8-6 2.7-.5 5.6.1 7.7 1.9-1 5.2-.3 10.5.4 15.6.4.5 1.3 1.6 1.8 2.1 1.5-4.2 1-8.7.5-13-.4-2.1.7-4 1.6-5.9 4.1.2 7.3 2.6 9.7 5.7-.3-1.8-.6-3.6-.8-5.4.8-1.4 1.6-2.7 2.5-4.1-2.5-.8-3.5-3-3.6-5.5 1-.6 2.1-1.3 3.1-1.9-1.2-1.7-2.4-3.3-3.7-4.9-1.2 5.1-1 10.3 1.1 15.2-3.4-.4-9.2 1.5-10-3.2-.2-3.6 1.4-7 1.5-10.6-.3-2.1-2.1-4.1-4.3-3.4.8 5.3.4 10.7-1.7 15.7-2.3-.5-4.5-1.2-6.8-2-.7.5-1.4 1.1-2.1 1.6-.7-1.1-1.3-2.2-2-3.3 1.3-.7 2.9-.9 3.8-2.1.3-1.4.4-2.9.6-4.3-1.4.3-2.7.5-4.1.7-.3-2.7-.7-5.4-1.1-8 1.6.2 3.2.4 4.8.6 1.5-1.4 2.9-2.8 4.4-4.3 5.5.1 11.4-1.5 16.5 1.5m1.1.8c.4 1.1.8 2.2 1.3 3.2.7 0 2.1.1 2.8.2 0-.8-.1-2.3-.1-3.1-1.3-.1-2.6-.2-4-.3m-15.9 42c.2 1.9.5 3.7.9 5.6 1-.8 2.1-1.7 3-2.6-.1-1.9-2.5-2.2-3.9-3z"/><path d="m200 94c4.3.6 8.4-.2 12.4-1.8.6 4.1 3.3 8 1.7 12.3-.8 6.2.1 12.6-1.8 18.7.9 1.1 1.8 2.1 2.5 3.3-.2 2.8-2.3 4.7-4.3 6.4 2.8 4 2.8 9 4.2 13.5.6 1.5-1.8 1.9-2.8 1.9-5.6.4-11.2.3-16.6-1.2-5.9-.7-11.9-.8-17.7-2.4-1.8-.4-3.2-2.8-1.7-4.4 1.8-1.3 3.8-2 5.8-2.9-1.6-1.2-3.2-2.4-4.8-3.5.7-2 1.8-3.8 2.8-5.7-.5-2.2-1.2-4.4-1.5-6.6 1.2-1.4 3.1-.6 4.6-.8-1.5-1.9-3.3-3.6-4.5-5.6.1-1.6.9-3.1 1.4-4.7-2.7-4.3-.4-9.3-.4-13.9 1-.5 2-1 3-1.4 1.6 4.3.6 9 0 13.5-1.1 2.6-.1 5.2.9 7.7 3 .5 6.4.1 9 1.8 1.4 4.9 1.3 10.2-.6 15 1 1.7 2.3 3.3 2.8 5.3.6 2.2-1.1 3.9-2 5.6 2.6-.4 5.2-.5 7.8-.3-1.8-1.9-4.1-3.6-4.4-6.3-1-4.7.1-9.5-.6-14.3-.7-3.6 1.3-7 .5-10.7-.8-4.2.1-8.4 1.2-12.5-1.4-.3-2.8-.7-4.3-1-.1 3.6-.4 7.3-.6 10.9-1.6-.4-3.2-.8-4.8-1.2.1.5.2 1.5.3 1.9 2.3.5 4.7 1 7 1.5-.6 1.3-1.1 2.6-1.8 3.9-2.8.2-5.6-1-7.8-2.6-2-2.1-1.1-5.4-.8-8 .8-4.1.6-8.2 0-12.3 5.3 1.2 10.8 1.5 16 .7m8.2 11.2c-1.3-.9-2.7-1.6-4-2.5.1 2.2.2 4.3.4 6.5 2.9-.6 5.4-2.2 7.8-3.8-.5-1.3-1.1-2.6-1.6-4-.8 1.2-1.7 2.5-2.5 3.8m-10.8 11c.4 3.6 4.9 2.3 7.5 2.9 0-.7-.1-2-.2-2.7-2.4-.2-4.9-.2-7.3-.2m8.3 11.2c-.7 2.2-.9 4.6-2.3 6.5-1.2.3-2.4.3-3.6.3 3.1 1.6 6.2 3.3 9.3 4.9-2.1-2.1-3.9-4.4-3.4-7.5.8-.2 2.5-.7 3.4-.9-.4-1.9-1.4-3-3.2-3.3m-23.7 2.5c-.1.9-.2 2.8-.2 3.7.9-.1 2.6-.3 3.4-.3-.7-1.4-1.3-3.2-3.2-3.3m1.5 12.6c1.5.1 3 .1 4.6.1.4-1.9.8-3.7 1.1-5.6-2.9.6-5.1 2.6-5.7 5.5m17.9 3c.8.1 2.6.1 3.4.2.4-.7 1.2-2 1.7-2.7-2.3-1.7-4.8-.3-5.1 2.5z"/><path d="m73 141c2.2.8 4.4 1.7 6.5 2.7-2.6 2.1-5.9.5-6.5-2.7"/><path d="m142 162c3.5.2 8.5-.8 10.4 3-3.5-1-7.2-2.2-10.6-.2.1-.7.2-2.1.2-2.8"/><path d="m161 164c6.9-1 13.8.3 20.3 2.4-.8.9-1.6 1.9-2.6 2.7-2.6-.5-4.9-1.7-7.5-2.1-3-.4-6 .4-9 .2-1.3-.4-.9-2.1-1.3-3.2"/><path d="m183 165c6.8 1.5 14-.3 20.4 2.8 2.1.9 3 3.2 4.5 4.7 1.8 1 3.9 1.5 5.9 2 3.4.7 6.8-.9 10.3-.4 3.1 1.8-.3 4.6-2.5 5 .3-1.1.6-2.1.9-3.2-4.4-.2-8.7-.2-13 0-.4 4.7-.2 9.4 1.9 13.7 1.9-1.8 3.7-3.6 5.4-5.6-1.1 4.1-4.3 7.1-8.6 7.7-1 2.1-2.1 4.1-3 6.2-1.2-.2-2.3-.5-3.5-.8 2.4-4.4 2.1-10.2-1.4-14-1.8-1.9-1.9-4.6-2.3-7-3.9-.1-8.7-1.6-11.8 1.5-2.6 2.4-5.9 4.5-6.8 8.2-.7 2.7-2.6 4.8-5 6.2-2.6 1.7-5.6 0-8.3-.4.7-2.7 2.1-5 3.9-7 4.3-4.7 7.3-10.5 12-14.8 4 3.4 9.5 3.1 14 1.3 2.5 1.7 5.3 3.1 8.4 2.8-2.2-5.5-9-3.6-13.6-4.7-2.8-.8-7-.8-8-4.2m-2.3 10.3c-1.1 1.4 1.4 2.8 2.2 1.3 1.1-1.4-1.4-2.8-2.2-1.3m21.7 2.9c.1 1.1.1 2.1.2 3.2 1.4.5 2.7 1 4.1 1.4-.1 2.8-.2 5.6-.1 8.4.8-1.1 2.1-2.2 1.9-3.7-.3-3.8-.9-7.5-1.9-11.2-1.5.6-2.9 1.2-4.3 1.8m-28 7.9c2.1-1.6 5.7-3 4.8-6.2-2.6 1.2-5.3 2.9-4.8 6.2z"/><path d="m141 171c.5-4.3 7.3-4.3 7.8 0-2.6.1-5.2.1-7.8 0"/><path d="m149 170c4.7-.2 9.7-.9 14.3.9 3.5.1 7.2-1 10.6.5 0 .8.1 2.3.1 3-3.6.3-7.2-.3-10.6-1.2-4.1-1.2-6.5 3.3-8.4 6.1-1.3 3.9-2.5 8-5.3 11.3-2.3-.9-4.6-1.8-6.8-2.7.5-2.2.8-4.7 2.3-6.5 3.1-.8 2.2 3.4 2.4 5.2 1.9-2.4 3.4-5.1 4.7-7.9-1.5.2-3.1.4-4.6.6.6-2 1.6-3.8 2.9-5.4-.5-1.3-1-2.6-1.5-3.9"/><path d="m112 189c2-.9 4.1-2.6 6.4-1.8 2.9.4 3.4 3.6 4.7 5.7 2-1.8 4-3.5 6.1-5.2-.6 3.6-2 7.3-1.2 11 .8 4 3 7.9 2.2 12-1.3.1-2.6.1-4 .2.3-2.3.5-4.6.7-7-1.4-.4-2.8-.8-4.3-1.3 0 2.5.3 5 .6 7.5-.7 1.4-2.2 2.7-2.1 4.3 2.3 2.2 5.7 3.1 8 5.3 2.1 3-.9 6.2-2.1 8.9.4.2 1.1.7 1.5.9 1.3-1.4 2.5-2.9 4.1-4.1 6.3.2 12.7.3 19 .5 3.3.1 7-2.1 10 .1 2.7 3.1 2.3 7.6 1.5 11.3-2.9-2.1-3.9-5.5-5.3-8.6-1.4-1-3.3-.5-4.9-.8.8 4 3.4 7.6 3.6 11.7.2 3.3.7 6.5 1.3 9.8-3.4-.3-6.9-.2-10.1-1.4-3.3-5-1.2-11.4-1-17-1.9-.2-3.9-.3-5.9-.4.6 4.8 1.3 9.5 2.1 14.3-2.1 1-4.3 2-6.4 3-.7-1.3-1.3-2.6-1.9-3.9-.7.1-2 .3-2.7.4.5 2.3.7 4.9 2.7 6.4 2.7.7 5.7-.4 8.1 1 .9 3 1.1 6.1 1.7 9.1-1.1.6-2.2 1.1-3.3 1.7 1.3.1 2.5.3 3.8.4 0 1.2 0 2.5 0 3.7-1.3 0-2.5.1-3.8.1 1.5 1.1 3.7 1.8 4 3.8-3.2 1.1-6.6.1-9.8.1 1 2.1 3.3 2.2 5.3 2.5 5.1.6 10.3 1.7 15.4.4-2.4-.9-4.9-1.5-7.1-2.8-.6-6.3-1.2-12.7-2.8-18.9 3.5-.1 7.5-1.1 10.6 1.1 3.4 3.8 3.9 9.4 1.4 13.8 1.3 1.8 2.7 3.5 4 5.2.2-2.3.3-4.6.5-6.9.6-.1 1.8-.4 2.4-.5-.2 2-.3 4-.5 6 .4.4 1.2 1.1 1.6 1.5.4-.4 1.4-1.3 1.8-1.7-.2-2.4-.6-4.8-.1-7.1 1.2-1.8 3.6-1.7 5.4-2-.4 3-1.3 5.9-1.3 8.9.7 1.7 1.9 3.1 2.9 4.5 1.1-.6 2.3-1.2 3.4-1.8h.9c-.1.3-.4 1-.5 1.4-.2.7-.7 2-.9 2.6 5.9 1.1 11.8.2 17.8.5-1.2-1.1-2.5-2.1-4-2.8-.1 0-.2-.1-.2-.1l-.7-.2c-.4-.1-1.2-.3-1.6-.3.5-.9 1.1-1.8 1.6-2.7-.5-.5-.9-1-1.4-1.5.5-.9 1.1-1.9 1.6-2.8-1.7.1-3.4.2-5.2.3 2.5-.8 4.9-1.6 7.4-2.3-1.7-6.5-1.3-13.2-2-19.8-5.1-.5-10.2-1.5-15.4-1.8.7 1.2 1.5 2.3 2.2 3.5.6 1 1.3 1.9 1.9 2.9-.7 0-2-.1-2.7-.1.1 1 .1 2 .1 3 1.8.5 3.6.8 5.4 1.4-2.1.4-4.1.8-6.2 1.3 1 .7 1.8 1.5 2.3 2.6 0 .4-.1 1.1-.1 1.4-.4 2.4-1 4.8-1.6 7.1 1.7.3 3.4.7 5.1.9-2.3 0-4.7 0-7-.1.1-3.4-.3-6.9-1.7-10 1-3.4 2-6.7 2.9-10.1-2.5-.2-4.8.6-6.4 2.6 1.1 1.6 3.3 3.1 2.6 5.4-.8 4.3-5.7 5.4-8.9 7.4-3-3.7-2.9-8.8-2.2-13.2 1.1-.8 2.4-1.4 3.6-2.1-.3 3.2-1.2 6.2-1.7 9.4.4.9 1.1 1.1 2 .7 1.4-1.8 2.5-3.8 3.6-5.8-1.6-3.1-4.3-5.3-7.4-6.8-2.7-1.1-1-4.2-.9-6.2.6.2 1.9.5 2.5.6.4 1.6.9 3.2 1.3 4.8 4.3-3.1-.8-8.4 2.4-11.9 1.8 1 2.7 3.1 3.7 4.8 2.1.1 4.2.2 6.3.4-1.5 2.2-3 4.5-4.6 6.7 6.1-3.2 12.8.4 19.3-.5 2.3 4.6 1.7 9.7 2.2 14.6 1.2 3.9.9 8 1 12 2.5 3.9 6.5.2 9.4-1 2 .5 3.9 1.2 5.8 2-.6 5.6.7 11.2 2.1 16.6-.9 1.4-1.8 2.7-2.7 4.1 1.1 1.7 2.3 3.3 3.4 5 .8-3.1 1.8-6.2 1-9.4-1.2-4.9-.9-9.9-.7-14.9.2-2.3.5-4.5.7-6.7-.1 6.9 1.3 13.7 1.2 20.6-.1 4.1.1 8.3.5 12.4-.7-.4-1.4-.8-2.1-1.1-.6 3.6-1.7 7-2.8 10.5-.7 2.1.5 4.2.9 6.3-.3 2.2-.6 4.4-.7 6.6.6 2.5 1.4 4.9 2.1 7.3-1.4 1-2.8 1.9-4.3 2.9 2.3.5 4.6 1.1 6.9 1.6.4-3.8.2-7.7-1.3-11.3.6-1 1.1-1.9 1.6-2.9.3 8.3 1 16.7 3.8 24.6.6 2.1 2.9 1.2 4.3.7-.3 1.1-.5 2.2-.8 3.4-4.7 1.5-9.6 1.5-14.4 1 .3-2.2.6-4.3 1-6.5 1.8.1 3.7.2 5.6.3-1.1 1.6-2.2 3.1-3.3 4.7 2.6-.2 5.1-.5 7.7-.5-2.3-2.5-3.6-5.8-3.4-9.2-5.6 1.4-11.4.8-17 .6-.1-2-.2-4-.2-6 2 1.1 4 2.1 6 3.2.1-.4.3-1.3.4-1.7-.9-2.2-2-4.3-2.8-6.6 1.8-.3 3.7-.6 5.5-.8-2.1-1.2-4.2-2.3-6-3.9-.5-2.1.1-4.3-.1-6.4-.3-3.1-1.3-6-2-9 2 .1 4.1.3 6.1.5-.1-.7-.2-2-.2-2.6-1.6.1-3.3.3-4.9.4-2-8-2.5-16.3-2.6-24.5 1.2.5 2.4.9 3.7 1.4 1-2.1 2-4.3 3-6.4-.5-.4-1.5-1.2-1.9-1.6-1.2 1.8-2.3 3.7-3.5 5.5-.8-1.3-1.7-2.6-2.5-3.9-.2 1.4-.4 2.8-.6 4.3-6.3-.6-12.8 2.2-18.9-.3-3.9-1.6-7.9-3.2-12.2-3.2 1.8 2.6 4.8 3.6 7.2 5.4.8 1.4 1.3 3 1.8 4.5-7-1-13.7-3.4-20.8-3.4-.2-1.6-.3-3.1-.5-4.6-.6 1.8-1.1 3.6-1.7 5.4-3.1.3-5-2.1-6.5-4.5-3.1 1.9-6.5 2.1-9.8.5-.2.8-.6 2.3-.8 3-3.3.1-5.2-2.3-6.7-4.9 1.9-1.3 3.7-2.6 5.6-3.9-2-1.1-4-2.1-6.1-3.1-.1-.5-.2-1.6-.3-2.2 3-.4 6.1-.5 9-1.4 1.4-1.5 0-3.6-.1-5.3-1.8 1-3.5 2.1-5.2 3.1-1-.6-1.9-1.2-2.9-1.8-2.7.6-5.5 1.8-8.2.6-2.3-.8-2.2-3.7-3-5.7 2.1.9 4.2 1.8 6.3 2.8 1-.9 2.1-1.8 3.2-2.6 1.4.6 2.8 1.3 4.2 2 2.2-1.8 4.2-4 5.9-6.3-2.4.5-4.9.9-7.4.5-4.5-.8-8.6 2-12.9 2.8.5-1.9.8-4.1 2.3-5.5 1.3-.7 2.8-.9 4.1-1.2 1.3-3 2.5-5.9 3.8-8.9-1.8-.5-3.5-1.2-5.4-1.3-2.1.2-4.1 1.3-6 2 1-2.4 2.6-4.8 2.8-7.5-.4-2.8-2.3-5-3.6-7.4 1.9.2 3.8.3 5.7.4.6-1 1.3-1.9 2-2.9 1.6-.1 3.2-.1 4.8-.5.8-.9 1.5-2 2.2-3.1-4.8-1.9-9 1.9-13.5 3 .3-3.1 1.9-5.8 4-8-1.9-.2-3.8-.4-5.8-.6-.8-2.7-1.2-5.6-.3-8.3 1.3-4.2-.1-8.4-.9-12.6 1.6.8 3.9.9 4.6 2.8.9 2.1 1.2 4.5 1.4 6.8.3 2.8-2.9 4.5-2.6 7.3 1.5.4 3 .6 4.5.8-.2-3.9-.4-7.8-.7-11.7 1.9-.3 3.8-.7 5.7-1-.1-1.3-.2-2.6-.3-3.9-1.6-.1-3.2-.2-4.8-.3-.8-1.7-.9-4.1-2.7-5.1-1.8.8-3.5 1.9-5.2 2.9 0-1.3.1-2.7.1-4m10.2 40.9c-1.1.8-1 2.3-1.4 3.6 3 1.2 6.3 3.2 9.6 1.6-2.4-2-4.7-5.3-8.2-5.2m7.5 6.1c.3 1.7.7 3.3 1 4.9 1.2-.5 2.3-.9 3.5-1.4-.3-1.6-.6-3.3-.9-4.9-1.2.4-2.4.9-3.6 1.3m-3.6 8.5c-.1 2.1-.1 4.2-.1 6.3.8 0 2.5-.1 3.3-.1 0-2.6-1.2-4.7-3.2-6.2m25.8 17.4c.1.6.3 1.9.4 2.5.7.1 2 .2 2.6.3 0-.7.1-2.2.1-2.9-.8 0-2.4.1-3.2.1m6.4 13.8c1 .8 1.9 1.7 2.8 2.6.5-1.6.8-3.2 1.2-4.8-1.4.7-2.7 1.4-4 2.2m47.9 3.4c-1.4 1 .1 3.6 1.6 2.4 1.4-1-.1-3.6-1.6-2.4m-5.4 5.1c1 2.5 1.8 5 2.4 7.6 1-2.6 2.8-4.6 5.1-6.1-.3-.4-1-1.1-1.3-1.5-2.1 0-4.1 0-6.2 0m1.1 9.7c.4 2.4 2.3 4 4.2 5.4.9-1 2.6-1.8 1.7-3.3-1.8-1-3.8-1.6-5.8-2.1m3 19.7c0 .8 0 2.4 0 3.2.8 0 2.4 0 3.3.1 0-.8-.1-2.4-.1-3.2-.8 0-2.4-.1-3.2-.1z"/><path d="m205 211c.9.9 1.9 1.8 2.9 2.7-.4 2.2-.8 4.3-1.3 6.5-.1.4-.3 1.2-.4 1.6-.6.2-1.8.5-2.4.6-.4-1.8-.8-3.6-1.1-5.3.8-2 1.5-4 2.3-6"/><path d="m188 222c2.3-4.7 8.7-3.4 13-3.2 1.1 2.4 2.3 4.8 3.5 7.1 1.1-.5 2.2-.9 3.3-1.4.1.8.3 1.7.4 2.5.3 1.4.5 2.8.8 4.2l-.3.6c-.6 1-1.1 2-1.7 3 1 2 2.3 3.9 2.7 6.2.1 2.5-.5 4.9-.8 7.3-.9-.1-2.7-.3-3.7-.3.7-2.1 1.3-4.3 2-6.4-1.1-.3-2.1-.6-3.2-.8.3 3.3.6 6.7 1 10 2.1-.2 4.3-.3 6.4-.4-1.2 2.1-2.4 4.1-3.6 6.1 1 1.4 1.9 2.7 2.9 4.1-.6 2.7-.9 5.5-1.2 8.2-.7.1-2 .1-2.7.2-1.5-1.6-3.2-3.1-4.8-4.5.8-3.5.8-7-.7-10.4 1.6-10-1.2-20.2-1-30.4-1.1-.2-2.2-.4-3.3-.5-.2 12.2 2 24.3 1.5 36.5-.7.1-2.2.3-3 .4.2-6.6-.6-13.2-2.6-19.5-5.1.9-10.9 1.6-15.3-1.8.9-.8 1.9-1.7 2.8-2.5-2.8 0-5.6 0-8.4-.1-2.4-2.8-5.2-5.3-7.4-8.2-.1-3 2.4-5.3 4.1-7.5 4.2.4 8.5-.9 12.6.3-.6 1.8-1.1 3.5-1.7 5.3-3.2-.3-6.4-.6-9.6-.8-.3.5-1.1 1.6-1.4 2.1 4.5.9 9.2.8 13.7 0 .8.7 1.6 1.3 2.4 2-4.7.3-9.4.6-14 .2.1 1.5.2 3 .4 4.6 2.6-.2 5.1-.5 7.7-.5 3 .1 5.8 1.5 8.8 1.8 1.7-.2 3.3-.8 4.9-1.3.1-1.3.2-2.6.2-3.9-1.3-.3-2.7-.5-4-.7.2-.7.5-2 .6-2.6 1.3-.3 2.7-.6 4.1-.9-1.9-1.1-3.6-2.6-5.4-3.8m14.7 10.7c2.4-.7 3.7-2.6 3.3-5.1-2.8 0-2.7 3.1-3.3 5.1m-13.7 3.6c-2.3.7-4.8.2-7.1-.1.1.6.4 1.7.5 2.2 4.3.3 8.5-.6 12.3-2.3-1.9-.8-3.9-.3-5.8.2m16.8 26c-1.3.9 0 3.3 1.4 2.2 1.3-.9 0-3.3-1.4-2.2z"/><path d="m182 220c2 0 4.1 0 6.1 0 .2 2.4.5 5.2-2 6.6-1.5-1.2-3-2.4-4.5-3.6.1-.7.3-2.2.4-2.9"/><path d="m59 254c1-.6 2-1.1 3-1.6.8 2.5 1.2 5.1 1.2 7.7-3.2.2-5.2-2.3-6.9-4.6.9-.5 1.8-1 2.6-1.5"/><path d="m197 270c-.4-3.4-1.4-9 3.2-9.8.1 3.4 1.6 9-3.2 9.8"/><path d="m214 308c.5-2.4 1.2-4.7 1.6-7.1-.1 4.1-.3 8.2.2 12.3-.6-1.8-1.3-3.5-1.8-5.2"/><path d="m170 318c1.7-1.6 3.3-3.1 5-4.6 3.6 2.5-.2 7.1 2.1 10.3 1.6 2.4-.1 4.9-.9 7.2 1.7 1.2 3.4 2.4 5.2 3.5 3.5-1.9 7.7-1.2 11.6-1.5 3-.7 5.9 4.1 2.8 5.9-2.4.5-4-1.9-5.9-3-2.9 1.9-6.2 1.8-9.5 1.5-2.9-.3-5.2 1.4-7.2 3.3-.8-2.6-2-5.1-2.3-7.9-.2-3.4 1.2-6.7 1.4-10-.3-1.7-1.4-3.2-2.2-4.7"/><path d="m300 347c6.1-1.4 12.9 2.4 14.8 8.4-3 2.6-6.7 4.2-10.7 4.4-7.7-1.6-15.6 1.4-23-.9 5.6-.1 11.3-.2 16.9-1-.7-.6-1.4-1.2-2.1-1.8.4-.3 1.1-1 1.5-1.3l.4-.4c.7-2.4-.3-6.2 2.5-7.4m-1.6 2.7c.6 2.6 1.7 5.2 1.9 8 3.7.3 8 1.5 11-1.2 1.9-.8 2-4-.1-4.7-3.3-1.7-7-2.6-10.7-3.4-.6.3-1.6 1-2.2 1.3z"/><path d="m224 351c.6-.3 1.8-1 2.3-1.3.9 2.1 1.4 4.4 1.4 6.7-1.1.8-2.1 1.7-3.1 2.5 5 2.3 10.6.3 15.9 1.2 3.6 0 7.9 1.7 11-.9-.2-1.6-.2-4-2.4-3.8-3.7.1-7.2 1.4-10.9 2.1.2-1 .3-1.9.5-2.9 3.7.3 7.4-.7 11-.9 1.2 1.4 2 3 3.1 4.5-.7.9-1.4 1.9-2.1 2.8-14 0-28 1.7-42 .3 1.6-.5 3.2-1.1 4.9-1.5 3.6-1.5 7.7 2.2 10.8-1.3-2.6-1.1-5.3-1.9-8-2.6 0-.6-.1-1.9-.2-2.6 2.3.7 4.5 1.4 6.8 2.1.3-1.5.6-2.9.9-4.4"/></g><g style="fill:#f3fef3"><path d="m66 213c2-.1 4.1-.2 6.1-.3 3 5.8 1.7 12.5.1 18.4-2.5-.8-4.9-1.5-7.3-2.3.7-5.3 1.1-10.5 1.1-15.8"/><path d="m171 229c4.7.4 9.4 0 14-.2 1.3.1 2.6.1 3.9.3 1.3.2 2.7.4 4 .7-.1 1.3-.2 2.6-.2 3.9-1.6.5-3.2 1.1-4.9 1.3-3-.3-5.8-1.7-8.8-1.8-2.6-.1-5.2.3-7.7.5-.1-1.5-.2-3-.4-4.6"/><path d="m176 244c5.2.3 10.2 1.3 15.4 1.8.8 6.6.4 13.3 2 19.8-2.5.7-4.9 1.5-7.4 2.3-1.1.1-2.3.1-3.4.1-1.7-.3-3.4-.6-5.1-.9.6-2.4 1.1-4.7 1.6-7.1 3.2.5 6.5.9 9.7.9-2.3-3.1-6.4-2.2-9.7-2.4-.5-1.1-1.4-1.9-2.3-2.6 2-.5 4.1-.9 6.2-1.3-1.8-.6-3.6-1-5.4-1.4-.1-1-.1-2-.1-3 .7 0 2 .1 2.7.1 3.2.2 6.4.7 9.7.7-3.2-2.7-7.7-2.6-11.6-3.6-.8-1.2-1.5-2.3-2.2-3.5m5.7 19.7c-.3 1.7 3.6 2.5 4.1.9-.9-1.1-2.8-1.6-4.1-.9z"/><path d="m174 270c5.2-.6 10.4 1.3 15.6.3.4.5.9 1 1.4 1.5-.5.9-1.1 1.8-1.6 2.7-3.2-.7-6.5-1.3-9.8-1.1h-.9c-1.7-.9-3.3-2-4.7-3.4"/><path d="m178 277c.2-.7.7-2 .9-2.6 3.9.7 8 1.3 11.9 0l.7.2.2.1c1.4.7 2.8 1.7 4 2.8-5.9-.3-11.9.7-17.8-.5"/><path d="m264 331c3.4-.3 6.4-1.7 9-3.9.2 1 .4 1.9.7 2.9.7 8.3 7.8 14.4 8.1 22.7-.3 1.9-.9 3.6-1.3 5.4l.1.7 1 .2c7.6 2.3 15.5-.7 23 .9-2.3 1-4.5 2.5-7.1 2.4-6.9-.1-13.9-.3-20.7-2-7.1-1.9-14.6-1.6-21.8 0-.8-.9-1.6-1.8-2.3-2.7-1-1.5-1.9-3.1-3.1-4.5-3.7.2-7.3 1.2-11 .9.3-2.4-.2-4.9.6-7.3 3.1-2.6 7-4.1 10-6.8 4.4-3.7 9.5-6.5 14.6-9"/></g><path d="m112 51c.5-.8 1-1.6 1.5-2.3.9.8 1.7 1.5 2.6 2.3.5 1.7.8 3.5 1.6 5.1 3.7 2.3 8.2 2.8 12.4 4 .2 1.4.5 2.9.7 4.3-5-1.3-10.2-1.8-15.3-2.2 1.7 3.9 6.6 6.8 6.1 11.4-2.7 1.6-3.2-2.5-4.4-4-.5-1.8-2.2-2.3-3.8-2.8.2 2.6.1 5.3 1.1 7.7 2.9 2.2 6.3 3.8 9.5 5.7-1.8 1-3.7 1.9-5.6 2.9-.8-1.1-1.6-2.3-2.4-3.4-2 .6-3.9 1.2-5.9 1.8 1-2.6 2.2-5.2 2.6-8-1.1-2-3.5-2.6-5.4-3.7-1.9 4.4-3.8 8.9-6.1 13 1.7.7 3.5 1.3 5.2 2-.9 2.1-3.1 3.3-3.9 5.5 1 1.8 2.5 3.4 3.9 5-.1.7-.4 2.1-.5 2.8-4 .2-7.8-1.2-11-3.3 1-1.3 3.9-2.2 3.1-4.2-3.8-3.1-8.4-5.1-12-8.5-2 .7-3.9 1.3-5.9 2 1.8-2.8 3.1-5.8 3.8-9 2 0 4 0 6 .3 1.4 1.6 2.1 3.6 3 5.5.6 0 1.7 0 2.3-.1 0-2.4 0-4.9 0-7.3-3.8-.7-7.7-1.1-11.7-1.1.2-2.1.5-4.2.7-6.3-1.6 0-3.2 0-4.8.1.2 1.9.3 3.7.5 5.6-1 .9-2.1 1.8-3.2 2.7.4 3.4.2 6.8-.6 10-3.2-2.4-5.8-5.5-8-8.9 1.6-.5 3.3-1 4.9-1.6-.5-1.3-.9-2.5-1.4-3.8 1.1-.8 2.2-1.5 3.2-2.3-.9-1.8-3.1-3.5-2.2-5.6 2.9-.9 5.3 3.4 8 1.3 2-1.4 4.4-1 6.6-.3 1.3-.8 2.6-1.6 3.9-2.4 2.9 2.2 5.7 4.8 9.2 6.1 1.5 0 3-.5 4.5-.8-1.8-2.7-4.9-3.6-7.8-4.4.7-1 1.4-1.9 2.1-2.8 1.4 1 2.7 2 4.1 3 2.3-.8 4.6-1.5 6.9-2.2-1.2 2-2.5 3.9-3.8 5.9 2.7 0 5.4-.2 8.1-.3-.7-1.6-1.6-3.2-2.4-4.8.2-3.1.1-6.3.4-9.4m-25.6 13.9c.3 3.8 6.3 4.4 7.6 1.1-2.3-1.5-5-1-7.6-1.1m8.4 1.8c0 1.7 0 3.4 0 5 1.7 1.1 3.3 2.3 5 3.2.8-.5 1.5-1 2.3-1.6-2.3-2.4-4.7-4.6-7.4-6.6m0 17.2c-.1 2 2.6 1.7 3.9 2.3 0-1.5 0-3.1 0-4.7-1.3.6-4.1.3-3.9 2.3z"/><path d="m133 64c.6-1.2 1.3-2.4 2.1-3.4 1.2.9 2.2 2.3 3.7 2.6.7-.5 1.5-1 2.2-1.6 1.3.6 2.5 1.6 3.9 1.9 1.8-.4 3.6-1.2 5.5-1.2-.9 1.7-2 3.4-3 5.1 1.9 1.4 4.2 2.1 6.5 2.4-.5-1.7-1-3.4-1.5-5 .9-.5 1.8-.9 2.6-1.4.6 2.2 1.2 4.4 1.8 6.6 2.7.6 5.5 1.1 8.3 1.3 0-1.2-.3-2.3-.7-3.4-1.6-.6-3.2-.9-4.9-1.3.1-1 .3-2 .4-3 3.1.3 6 1.5 9 2.2-.2 1.8-.3 3.6-.4 5.4 5.6.2 10.9 1.7 16 3.6 1-2.4 1.9-4.8 2.9-7.2 1 .2 2 .4 3 .6-.9 1.9-1.8 3.9-2.6 5.8 5.2 2 10.8.2 16 2.3.8-.9 1.7-1.8 2.5-2.7 1 1.3 1.9 2.5 2.9 3.8 2.4-.3 4.8-.6 7.2-.9-.7 2-1.5 4.1-2 6.2-1 3.2 2.4 5.3 3.4 8-.1 2.8-1.3 5.3-1.2 8.1.4 2.3 1.5 4.4 2.4 6.6.7 0 2.2-.1 2.9-.2-.8-4.3-.8-8.7-.2-13 .7-3.1-1.4-5.7-2.8-8.1 1.2-1.9 2.4-3.8 3.5-5.7-1.9-1.7-3.8-3.4-5.7-5.1.2-1 .5-2 .7-2.9.3 0 .8 0 1.1 0 .3.3 1 .8 1.3 1 1.7 3.1 5 6.1 4 10-.7 3.8.6 7.5.4 11.3-.1 3.3 0 6.6-.1 10-.1 2.8-1.4 5.6-.7 8.4 1.6 6.1 1 12.5 1.7 18.8-1.1-1-2.9-1.7-2.9-3.5-.5-5.5-.7-11-1.7-16.5-.7-.1-2.1-.4-2.7-.6-1.5 4.9-.8 10 .5 14.8 1 3-1.4 5.6-2.1 8.4.4 3.5 2.3 6.7 2 10.3-.2 3.7-.9 7.4-1.3 11 1.8-.8 5.5-.8 5.2-3.6-.4-3.7-.1-7.4.7-11 .9-2.8-2.4-4-4-5.6 1.8-1.2 3.6-2.4 5.4-3.6.7 6.9.4 13.8 1 20.7.3 3.8-.5 7.7-.1 11.5 0 2.1.7 4.6-.9 6.3-5.2 1.1-10.5-.2-15.7 0 .9 1.3 1.6 3.2 3.5 3.1 5.9.5 12.7-.9 17.7 3.3-1.5 2.2-3 4.3-4.7 6.4-4.1 3.5-7 8.2-11 11.8-2 1.2-4.1 2.2-6.1 3.3.6 2 1.2 3.9 1.8 5.9-.7.2-1.4.4-2.1.7-.8.2-2.5.7-3.3.9-.7 2.4-1.4 5.1.9 6.8l.4.4c-.8 2-1.5 4-2.3 6-.6.7-1.2 1.3-1.8 2-4.4-.2-10.8-1.5-13 3.2 1.8 1.2 3.4 2.7 5.4 3.8-1.4.3-2.7.6-4.1.9-.2.7-.5 2-.6 2.6-1.3-.1-2.6-.2-3.9-.3-.8-.7-1.6-1.3-2.4-2-4.5.8-9.2.9-13.7 0 .3-.5 1-1.6 1.4-2.1 3.2.3 6.4.5 9.6.8.6-1.8 1.1-3.5 1.7-5.3-4.1-1.2-8.4.1-12.6-.3-1.7 2.2-4.1 4.5-4.1 7.5 2.2 3 5 5.4 7.4 8.2 2.8.1 5.6.1 8.4.1-.9.8-1.9 1.7-2.8 2.5 4.3 3.4 10.2 2.8 15.3 1.8 2 6.3 2.8 12.9 2.6 19.5.8-.1 2.2-.3 3-.4.6-12.2-1.6-24.3-1.5-36.5 1.1.2 2.2.4 3.3.5-.2 10.1 2.6 20.3 1 30.4 1.5 3.3 1.5 6.9.7 10.4 1.6 1.5 3.2 3 4.8 4.5-.7.1-2.1.4-2.8.5-2.9 1.1-6.9 4.9-9.4 1-.1-4 .2-8-1-12-.5-4.9.1-10-2.2-14.6-6.4.9-13-2.8-19.3.5 1.6-2.2 3.1-4.4 4.6-6.7-2.1-.1-4.2-.2-6.3-.4-1-1.7-1.8-3.8-3.7-4.8-3.2 3.5 1.9 8.8-2.4 11.9-.5-1.6-.9-3.2-1.3-4.8-.6-.2-1.9-.5-2.5-.6-.1 2-1.8 5.2.9 6.2 3.1 1.5 5.8 3.7 7.4 6.8-1.2 1.9-2.2 4-3.6 5.8-.9.4-1.6.2-2-.7.5-3.1 1.4-6.2 1.7-9.4-1.2.7-2.4 1.3-3.6 2.1-.7 4.4-.8 9.5 2.2 13.2 3.3-2 8.1-3.1 8.9-7.4.7-2.2-1.6-3.7-2.6-5.4 1.6-2 3.9-2.8 6.4-2.6-.9 3.4-1.9 6.8-2.9 10.1 1.3 3.2 1.8 6.6 1.7 10 2.3.1 4.7.1 7 .1 1.1 0 2.2 0 3.4-.1 1.7-.1 3.4-.2 5.2-.3-.5.9-1.1 1.9-1.6 2.8-5.2 1-10.4-.9-15.6-.3 1.4 1.3 3 2.4 4.7 3.4-1.2.6-2.3 1.2-3.4 1.8-1-1.5-2.2-2.9-2.9-4.5-.1-3 .8-5.9 1.3-8.9-1.9.4-4.2.3-5.4 2-.4 2.4 0 4.8.1 7.1-.5.4-1.4 1.3-1.8 1.7-.4-.4-1.2-1.1-1.6-1.5.2-2 .3-4 .5-6-.6.1-1.8.4-2.4.5-.1 2.3-.3 4.6-.5 6.9-1.4-1.7-2.7-3.5-4-5.2 2.5-4.4 2-10-1.4-13.8-3.1-2.2-7.1-1.2-10.6-1.1 1.6 6.2 2.2 12.5 2.8 18.9 2.2 1.3 4.7 2 7.1 2.8-5.1 1.3-10.3.2-15.4-.4-2-.3-4.4-.4-5.3-2.5 3.3-.1 6.7 1 9.8-.1-.3-2.1-2.6-2.7-4-3.8 1.3 0 2.5-.1 3.8-.1 0-1.3 0-2.5 0-3.7-1.3-.1-2.5-.3-3.8-.4 1.1-.6 2.2-1.1 3.3-1.7-.6-3-.8-6.2-1.7-9.1-2.5-1.4-5.5-.3-8.1-1-2-1.5-2.2-4.2-2.7-6.4.7-.1 2-.3 2.7-.4.7 1.3 1.3 2.6 1.9 3.9 2.1-1 4.3-2 6.4-3-.9-4.7-1.6-9.5-2.1-14.3 2 .2 3.9.3 5.9.4-.2 5.6-2.3 12 1 17 3.2 1.2 6.8 1.1 10.1 1.4-.6-3.2-1.1-6.5-1.3-9.8-.2-4.2-2.8-7.7-3.6-11.7 1.6.3 3.5-.2 4.9.8 1.4 3.1 2.4 6.5 5.3 8.6.9-3.7 1.2-8.2-1.5-11.3-3-2.2-6.7 0-10-.1-6.3-.2-12.7-.3-19-.5-1.6 1.1-2.8 2.7-4.1 4.1-.4-.2-1.1-.7-1.5-.9 1.3-2.7 4.3-5.8 2.1-8.9-2.3-2.2-5.6-3.1-8-5.3-.1-1.7 1.4-2.9 2.1-4.3-.3-2.5-.6-5-.6-7.5 1.4.4 2.8.8 4.3 1.3-.2 2.3-.5 4.6-.7 7 1.3-.1 2.6-.1 3.9-.2.8-4.2-1.4-8-2.2-12-.8-3.7.6-7.4 1.2-11-2.1 1.7-4.1 3.4-6.1 5.2-1.2-2.1-1.8-5.3-4.7-5.7-2.3-.9-4.4.9-6.4 1.8 0 1.3-.1 2.7-.1 4 1.7-1 3.4-2.1 5.2-2.9 1.8 1 1.8 3.4 2.7 5.1 1.6.1 3.2.2 4.8.3.1 1.3.2 2.6.3 3.9-1.9.3-3.8.7-5.7 1 .3 3.9.6 7.8.7 11.7-1.5-.3-3-.5-4.5-.8-.3-2.7 2.9-4.5 2.6-7.3-.1-2.3-.5-4.7-1.4-6.8-.8-1.8-3-2-4.6-2.8.8 4.1 2.2 8.4.9 12.6-.9 2.8-.5 5.6.3 8.3 1.9.2 3.8.4 5.8.6-2.1 2.2-3.6 4.9-4 8 4.5-1.1 8.7-4.9 13.5-3-.7 1-1.4 2.1-2.2 3.1-1.6.3-3.2.4-4.8.5-.7 1-1.3 1.9-2 2.9-1.9-.2-3.8-.3-5.7-.4 1.4 2.4 3.2 4.7 3.6 7.4-.2 2.7-1.8 5.1-2.8 7.5 2-.7 3.9-1.7 6-2 1.8.1 3.6.8 5.4 1.3-1.3 3-2.5 5.9-3.8 8.9-1.4.3-2.9.5-4.1 1.2-1.5 1.4-1.7 3.6-2.3 5.5 4.3-.7 8.4-3.5 12.9-2.8 2.5.4 5 0 7.4-.5-1.7 2.3-3.7 4.5-5.9 6.3-1.4-.7-2.8-1.3-4.2-2-1.1.9-2.1 1.8-3.2 2.6-2.1-1-4.2-1.9-6.3-2.8.8 1.9.7 4.8 3 5.7 2.7 1.2 5.5-.1 8.2-.6 1 .6 1.9 1.2 2.9 1.8 1.7-1.1 3.5-2.1 5.2-3.1.1 1.7 1.5 3.9.1 5.3-2.9.9-6 .9-9 1.4.1.5.2 1.6.3 2.2 2.1 1 4.1 2 6.1 3.1-1.8 1.3-3.7 2.6-5.6 3.9 1.4 2.6 3.4 5 6.7 4.9.2-.8.6-2.3.8-3 3.2 1.6 6.7 1.4 9.8-.5 1.5 2.4 3.4 4.8 6.5 4.5.5-1.8 1.1-3.6 1.7-5.4.2 1.6.3 3.1.5 4.6 7.1 0 13.9 2.4 20.8 3.4-.6-1.5-1-3.1-1.8-4.5-2.4-1.8-5.4-2.8-7.2-5.4 4.3 0 8.3 1.6 12.2 3.2 6.1 2.5 12.6-.4 18.9.3.2-1.4.4-2.8.6-4.3.8 1.3 1.7 2.6 2.5 3.9 1.2-1.8 2.4-3.6 3.5-5.5.5.4 1.5 1.2 1.9 1.6-1 2.1-2.1 4.2-3 6.4-1.2-.5-2.4-.9-3.7-1.4 0 8.2.6 16.5 2.6 24.5 1.6-.1 3.3-.3 4.9-.4.1.6.2 2 .2 2.6-2-.2-4.1-.3-6.1-.5.7 3 1.7 5.9 2 9 .2 2.1-.4 4.3.1 6.4 1.8 1.6 4 2.7 6 3.9-1.8.3-3.7.5-5.5.8.8 2.2 1.9 4.4 2.8 6.6-.1.4-.3 1.3-.4 1.7-2-1.1-4-2.2-6-3.2.1 2 .1 4 .2 6 5.7.2 11.5.9 17-.6-.2 3.5 1.1 6.7 3.4 9.2-2.6.1-5.1.3-7.7.5 1.1-1.5 2.2-3.1 3.3-4.7-1.9-.1-3.7-.2-5.6-.3-.3 2.1-.7 4.3-1 6.5 4.8.6 9.8.5 14.4-1 .3-1.1.5-2.3.8-3.4.9-.3 1.8-.5 2.6-.8 2.4.3 4.8.7 7.2 1.2-.3.6-.6 1.3-.9 1.9-2.2-.1-4.5-.1-6.7-.2-.1 1-.2 2.1-.3 3.1-.6.3-1.8 1-2.3 1.3-.3 1.5-.6 2.9-.9 4.4-2.3-.7-4.5-1.4-6.8-2.1 0 .6.1 1.9.2 2.6 2.7.7 5.4 1.6 8 2.6-3.1 3.5-7.2-.2-10.8 1.3-1.6.5-3.2 1.1-4.9 1.5-8.5.6-17 .6-25.5.7-6.6.8-13.3 1.2-20 1-10.7-.1-21.3 0-32 0-5.3 0-10.6 1.2-16 1-15-.1-30 0-45-.1-5-.2-10 .9-15 1-7.8 0-15.5.2-23.3-.4-5.8-.4-11.7.6-17.6-.2.2-1.3.4-2.6.5-3.9 4.3.6 8.7.6 13 1.3 2.5.2 5.9 1.8 7.7-.8 2.8-3.5-.1-7.8-.3-11.6-.3-7.4-1.5-14.8-1.9-22-1.6-17-2.4-34-3.5-51-.6-8 0-16-1-24-.4-4.1.4-8.2.2-12.3-1-12.7-.8-25.3-2-38 0-11.3 1.1-22.7-.6-33.9-.7-2.9-2.9-5.4-2.9-8.6-.5-11.2.2-22.4-.9-33.6 0-4.5-.6-8.9-.7-13.4.8-6-.6-12 .3-18-.8-8-.3-16-2-24 2.3.8 5 1.7 6.2 4.1-.2 3.8-.4 7.7.9 11.4 2 0 4 .1 6 .1-.6-2-1.2-4.1-1.9-6.1 1.3-2.2 2.7-4.3 4-6.5-1.8.2-3.5.4-5.3.4-2.5.2-3.8-2.4-5.6-3.7.8-1.2 1.6-2.3 2.6-3.4 1.2 1.3 2.4 2.8 3.4 4.3.5-.1 1.5-.2 2.1-.3.7-1.3 1.4-2.6 2.2-4 2.3 2 4.3 4.3 6.7 6.1 1.7.3 3.5.2 5.2.2-1.7-1-3.5-1.9-5.3-2.8-.1-1.1-.3-2.2-.4-3.3 1.9.7 3.9 1.4 5.8 2.1.7-1.4 1.5-2.7 2.3-4 2 .9 3.9 3.3 6.1 1.9 3.7-1.5 7.9-1.2 11.6-2.8 1.7 1.6 3.3 3.3 4.9 4.9-1.7 2.1-3.3 4.5-6 5.7-3.5 1.5-7.3.5-10.9.4.5 2.3.7 5.3 3.4 6.1 1.9-.8 2.6-2.9 3.8-4.4 1.1 1.8 3 3.7 2.2 5.9-.7 1.8-1.9 3.3-3 4.9 1.6.3 3.2.7 4.8 1 .1 1.4.1 2.8.2 4.2-2.4.8-4.9 1.5-7.3 2.3 1-.9 2-1.8 3-2.7 0-.7.1-2.1.2-2.8-2.5 1.2-5 2.6-7.7 3.3.4-2.5 1.8-4.7 3.1-6.8-2.4 1.2-4.7 2.4-7.1 3.5.3 1.7.5 3.4 1.1 5.1 2.7 3.1 7.1 3.8 11 3.8-.1 2-.2 4-.3 6-1.8.7-3.7 1.3-5.5 2 3.1 2.6 6.5 5.3 10.5 6.4 2.4 0 3.7-2.4 5.3-3.8.6.6 1.3 1.2 2 1.8.4.4 1.3 1.1 1.7 1.4.5-.2 1.5-.5 2-.6 1.5-.5 3-1 4.5-1.5 1.1-.4 2.2-.8 3.2-1.2-.9-1.9-2.1-3.8-2.5-5.9.7-1.9 2-3.6 3-5.3-1-2.5-2-5-3.1-7.4-1.4.3-2.7.6-4.1.9.4 1.8.8 3.7 1.1 5.5-2-1.9-3.2-4.4-3.9-7 3.1-.8 6.1-1.6 9.1-2.7 1.5 2.2 4 4.4 3.3 7.3-.6 4.3-2 8.5-2.7 12.8 3.6.6 6.9-.9 10.1-2.3-.1 1.3-.1 2.5-.2 3.8-4.8 2.2-10 3.1-15 4.6-1.3 0-2.6 0-3.9-.1-1.6 0-3.2.2-4.7.4 1 3.5 2.7 6.9 2.4 10.6-.3 1.5-.3 3.9-2.5 3.7-.9-4.3.4-9.2-1.9-13.2-2.4-1.4-5.3-.2-7.9 0 1.7 4 1.1 8.4 1.3 12.6.4 1.6.2 4.5 2.5 4.5 2.1-.6 4-1.8 6-2.8.8 1 1.6 1.9 2.4 2.9-.4.4-1.2 1.1-1.7 1.4-3.1-.1-6.2.5-9.1 1.5.8 2.8 1.6 5.5 2.5 8.3 1.8-.3 3.5-.5 5.3-.8-.9-2.7-1.3-5.7 1-7.8.7 2 1.3 4.1 2 6.2 1.4.1 2.7.2 4.1.3.2-1.8.4-3.5.7-5.2 1.1.4 2.2.8 3.3 1.3-.6 4.8 1.6 9.2 3.7 13.3-1.9-.1-3.9-.2-5.8-.2.6 2.4 2.3 4.1 4.4 5.3 2-1.8 4.5-3.3 5.8-5.7-.2-1.6-.6-3.1-1-4.6 2.4-3 4.6-6.3 4.4-10.4-1.8-.1-3.7-.2-5.6-.2 1.4-.8 2.7-1.6 4.2-2.2.1-.6.2-1.7.3-2.2-2.2.2-4.3.4-6.5.7.3-1 .5-2 .8-3.1 3.3-.9 6.5-1.9 9.7-2.9-1 1.6-2 3.2-3 4.7 5.3.6 10.6 1.6 15.6 3.3-2.2 2.1-4.8 3.7-6.5 6.3.6 1.1 1.2 2.2 1.9 3.3 2.9-1 5.7-2.2 8.5-3.5-.2-2.8 0-5.5.7-8.2 1.1.9 2.2 1.7 3.2 2.6 2 .2 4 .4 6 .7-2.4 2.2-5.2 3.9-7.7 5.9-.6 1.3-.7 2.7-1 4.1.7-.1 2.1-.3 2.8-.3.7-1.3 1.3-2.5 2-3.7 2.2 1.1 4.4 2.1 6.6 3.2-.5-4.8-1.3-9.6-3.4-13.9 1.2-1.4 2.4-2.8 3.4-4.4-.4-2-1.4-3.8-2.1-5.6-1.3-2.7.8-5.4 1-8-.6-2.7-2.3-5.1-3.5-7.6 1.5-1.5 3.5-2.7 4.3-4.8.2-2.3-.5-4.7-1.6-6.8-.9-1.8-3.3-1.5-5-2-.1 3.1 2 5.3 4.2 7.2-1.3 1.3-2.6 2.7-3.8 4-.7-2.2-1.3-4.4-2-6.6-1.3-.1-2.6-.1-3.9-.2-.8-2.6-1.6-5.3-2.5-7.8 1.2-.6 2.5-1.2 3.7-1.8.2 1.3.4 2.7.6 4 2.3-.7 4.6-1 6.9-.5 1.4-3.1 2.8-6.3 4.4-9.3-1.7-3.7-2.4-7.8-2.7-11.9 6.6.7 13.1 1.7 19.7 2.5.8-.9 1.6-1.8 2.3-2.7-4.3-.9-8.7-1.6-13-2.2m-74 4.3c1.6 2.5 6.5 3.2 7.7 0-2.3-1.9-5.2-1.1-7.7 0m-8.9 1.1c1.4 1.1 2.9 2.1 4.4 3.1 0-.8 0-2.5 0-3.3-1.5.1-2.9.1-4.4.2m.6 5c-1.1.9-2.2 1.9-3.3 2.8-3.4-2.2-7.5-1.6-11.2-.6.9 3.6 5.2 2.5 8 2.9.2 1.8.4 3.5.9 5.2 1.1.4 2.1.7 3.3.9.1-2.4.2-4.8.3-7.1 1.6-.1 3.3-.2 4.9-.3 0-.7-.1-2-.1-2.7-.9-.3-1.8-.7-2.7-1m-14 9.5c-.5 1.3-.8 2.6-1.2 3.8 2.2.7 4.4 1.5 6.6 2.4 1.6-3.6-2.8-5.1-5.4-6.2m121 6.1c-5-3-10.9-1.3-16.5-1.5-1.5 1.4-3 2.8-4.4 4.3-1.6-.2-3.2-.4-4.8-.6.4 2.7.8 5.4 1.1 8 1.3-.3 2.7-.5 4.1-.7-.2 1.5-.3 2.9-.6 4.3-.9 1.2-2.6 1.4-3.8 2.1.7 1.1 1.3 2.2 2 3.3.7-.5 1.4-1.1 2.1-1.6 2.2.8 4.5 1.5 6.8 2 2.1-5 2.5-10.4 1.7-15.7 2.3-.7 4 1.3 4.3 3.4-.1 3.6-1.7 7-1.5 10.6.9 4.7 6.7 2.8 10 3.2-2-4.9-2.3-10-1.1-15.2 1.3 1.5 2.6 3.2 3.7 4.9-1 .6-2.1 1.3-3.1 1.9.1 2.5 1.1 4.7 3.6 5.5-.8 1.4-1.7 2.7-2.5 4.1.3 1.8.5 3.6.8 5.4-2.4-3.1-5.7-5.4-9.7-5.7-.8 1.9-2 3.8-1.6 5.9.5 4.3 1.1 8.9-.5 13-.4-.5-1.3-1.6-1.8-2.1-.7-5.2-1.4-10.5-.4-15.6-2.1-1.9-4.9-2.4-7.7-1.9-1.5 1.5-.8 4-.8 6-1.5-1.1-2.8-2.5-4.4-3.5-.1 1.7 0 3.4-.1 5.1 1.6.3 3.2.5 4.8.8 1.2 2.8-1.1 4.4-3.6 5 .2 1.5.4 2.9.5 4.3-.7 2.5-4.3 3.9-3.6 6.8 1.9 2.9 5.8 2.9 8.9 3.2 5 .1 9.8 1.7 14.8 2.2.4-1.2.8-2.4 1.1-3.6.2.4.4 1.3.6 1.7 2.8 4.2 9.1 4.3 12.7.7-1.9-2.1-4-4-5.5-6.4-.7-3.3 1.1-6.5 1.9-9.6-.3-1.8-2.2-2.8-3.3-4.1 1.1-1.7 2.8-3.3 2.4-5.5-.2-2.2.4-4.2 1.3-6.2-1-1.8-3.4-3.3-2.8-5.5 1.3-.7 2.6-1.2 4-1.8-1-1.3-2.1-2.7-3.1-4 .6-2 2.7-4.1 1.4-6.2-.7-1.4-1.6-2.6-2.8-3.5-2.1-.8-3.3 1.7-4.9 2.7m-117 4.1c.9 0 2.6.1 3.5.2 0-.9-.1-2.6-.2-3.5-1.6.5-2.7 1.8-3.3 3.3m161-.3c-5.4.8-10.8.5-16-.7.6 4.1.8 8.2 0 12.3-.3 2.6-1.2 5.8.8 8 2.2 1.6 5 2.8 7.8 2.6.7-1.3 1.2-2.6 1.8-3.9.3.1.9.2 1.2.3.8 3.6-1.2 7-.5 10.7.7 4.7-.4 9.6.6 14.3.3 2.7 2.7 4.4 4.4 6.3-2.6-.2-5.2-.1-7.8.3.9-1.8 2.7-3.5 2-5.6-.5-2-1.7-3.6-2.8-5.3 1.9-4.8 2.1-10.1.6-15-2.6-1.7-6-1.3-9-1.8-.9-2.5-2-5.1-.9-7.7.6-4.4 1.6-9.2 0-13.5-1 .5-2 1-3 1.4 0 4.6-2.3 9.6.4 13.9-.5 1.5-1.3 3-1.4 4.7 1.2 2.1 3 3.8 4.5 5.6-1.5.1-3.4-.6-4.6.8.3 2.3 1 4.4 1.5 6.6-1 1.9-2.1 3.7-2.8 5.7 1.6 1.2 3.2 2.3 4.8 3.5-1.9.9-4 1.7-5.8 2.9-1.5 1.6-.1 3.9 1.7 4.4 5.8 1.6 11.8 1.7 17.7 2.4 5.4 1.4 11 1.6 16.6 1.2 1-.1 3.4-.4 2.8-1.9-1.4-4.5-1.4-9.6-4.2-13.5 2-1.7 4.1-3.6 4.3-6.4-.7-1.2-1.6-2.2-2.5-3.3 1.8-6.1.9-12.5 1.8-18.7 1.6-4.2-1.1-8.2-1.7-12.3-4 1.6-8.1 2.5-12.4 1.8m-167-.3c-2 .9-2.9 3-3.7 4.9 2.5-.5 5-1 7.1-2.5 1-2-1.9-3.4-3.4-2.4m7.8 3.6c-1.5 3.2-2.4 6.7-3.4 10 1.9 1 4 2.6 6.1 1.4-.4-2.4-.6-4.8-.9-7.3-.3-1.5 0-3.7-1.9-4.2m3.5 7.4c2.2-.2 4.4-.9 6.4-1.9 1.4.6 2.7 1.2 4.1 1.8-.7-2.2-1.4-4.4-2.3-6.5-3.2 1.4-7.3 2.7-8.2 6.6m6.5 2.8c-1.2 1.1-1.1 2.8-1.4 4.3 1.8-.4 3.5-.8 5.2-1.4.6-2.3-2.2-2.5-3.8-2.8m-15 2.3c-1.7.2-2 3.3-.2 3.6 1.7-.2 2-3.3.2-3.6m18.5 4.5c-3.3 0-6.5-1.1-9.7-1.8-.9 1.2-1.9 2.3-2.1 3.8 3 1.6 6.6 1.7 10 1.8 2.8-1 4.9-3.5 7.3-5.3-2-2.4-3.8.1-5.5 1.4m-29.8-2.1c.4 1.5-.7 4.5 1.5 4.9 5.2 1 11 1.2 14.9 5.4-1.3-2.5-1.7-6.9-5.3-7-3.9-.5-7.4-2.3-11-3.4m30 9.6c-4.1-1.2-8.2 1-12.3 1 .7.9 1.1 2.6 2.5 2.4 3.4.2 6.9-.1 10-1.5 1.7.6 3.3 1.2 5 1.8.2-1.3 1.2-2.5.7-3.8-.8-1-1.7-1.8-2.6-2.7-1.1.9-2.2 1.8-3.3 2.7m-23.9 3.4c0 .8 0 2.4 0 3.3 2.5 0 5 0 7.5-.2-1-3.3-4.8-2.8-7.4-3.1m24.7 5c1.6 1.3 3.5 2.2 5.5 2.4-.3-1.9-.6-4-2.4-5.1-1.4.3-2.1 1.8-3.1 2.7m-7.4-1.1c.5 3.1.4 6.2-.3 9.3 1.7-.8 3.4-1.5 5-2.3-.1-2.1.3-4.3-.5-6.2-1.4-.4-2.8-.6-4.2-.8m-7.4 6.7c2.3-.7 3.9-2.3 4.4-4.7-2.6.3-3.6 2.5-4.4 4.7m-11.9-.3c1 2.8 4.4 3.8 6.3 5.9 1-.7 1.9-1.5 2.9-2.2-1.2-3.5-6.1-6.3-9.2-3.7m18.8 6.4c.7 2.3 4 4.4 6.3 2.6 2.5-1.8 5.2-3.1 7.9-4.5.7-2.3-1.5-3.7-2.9-5-3.2 3.2-6.6 6.5-11.3 6.9m47-2.3c1.1 1.7 2.5 3.1 4.3 4.2.7-1.8.9-3.8 0-5.6-1.4.5-2.8.9-4.3 1.4m-53.9 1.5c.4 1.9-.9 5 1.4 6 .6.1 2 .4 2.6.6.3-1.3 1-2.6.9-4-.9-1.9-3.1-2.2-4.9-2.6m31.8.2c.6 3.1 3.9 4.7 6.5 2.7-2.1-1-4.3-1.9-6.5-2.7m32 3.6c-2.1-.2-4.1-.4-6.2-.5.7.9.8 3.3 2.5 2.9 1.3-.1 2.6-.3 3.9-.5 1.1 3.4 3.6 7 7.7 6.7 1.7-2.3 1.8-5.3 2.4-7.9-2.6-1.2-5.2-2.2-7.9-3.1-.8.8-1.6 1.7-2.4 2.5m-43 1.1c-1.6 2.5-2.6 6.1-.5 8.6 2.1-1.2 3.8-4 6.6-3.1 1.9 1.1 3.2 3.1 5.3 3.9 3.5-.4 5.6-5.4 2.9-7.8-3.8 1.9-9.4 2.7-12-1.3 1.4-.8 2.8-1.5 3.6-2.9-2 .5-4.8.5-5.9 2.7m59-3c.1 2.8-.8 6.1 1 8.5 3.3-1.3 3-8.1-1-8.5m-26.5 1.5c-1 1.2 1.2 2.5 2 1.3 1-1.2-1.2-2.5-2-1.3m-47 5c-1.1.6-1.5 1.5-1.3 2.7 1.8.8 4.5 2.2 5.9 0 .8-2.7-2.7-3.3-4.6-2.7m47.7 3c-.1 1.9 2.7 1.6 4 2.3 0-.9 0-2.8 0-3.7-1.3.4-2.8.6-4 1.4m18.8 9.5c1.5.9 3 1.7 4.4 2.6-.3.5-1 1.4-1.4 1.9-2.6-.1-8-2.7-7.8 1.8 3.4 2.1 7.4.8 11 .1-.4 1.9-.9 3.9-.9 5.9 1.8 3 4.9-.3 5.5-2.5 1.1-.2 2.2-.3 3.3-.5-1.1 2.2-2.2 4.3-3.1 6.6 4-.8 4.8-5.2 6.4-8.3-3.3-2.3-7.6-2.5-10.9-4.9 2.6-.7 5.2-1.2 7.7-2.3 0-.4-.1-1.2-.1-1.6-3.1-2-7.1-2.4-10.7-2.2-1.9.1-2.6 2.2-3.5 3.5m18.9-1.6c.7 2.8 3.1 3.3 5.7 3.1-.6-2.6-3.6-2.5-5.7-3.1m9.4 2c-.1.7-.2 2.1-.2 2.8 3.4-2.1 7.1-.8 10.6.2-1.9-3.8-6.9-2.7-10.4-3m19 1.7c.3 1-.1 2.7 1.3 3.2 3 .2 6-.6 9-.2 2.6.3 5 1.6 7.5 2.1 1-.8 1.8-1.7 2.6-2.7-6.6-2.1-13.4-3.4-20.3-2.4m-84 5.2c2.2 1.6 4.4 0 6.4-1-.7-1-.9-2.8-2.3-2.9-1.7.8-4.2 1.7-4.1 3.9m106-3.8c1 3.4 5.2 3.4 8 4.2 4.6 1.1 11.3-.9 13.6 4.7-3.1.3-5.9-1.1-8.4-2.8-4.6 1.8-10 2.1-14-1.3-4.8 4.3-7.8 10-12 14.8-1.9 2-3.3 4.4-3.9 7 2.7.3 5.8 2.1 8.3.4 2.4-1.3 4.3-3.5 5-6.2.8-3.7 4.2-5.7 6.8-8.2 3.1-3.1 7.9-1.6 11.8-1.5.4 2.4.4 5.1 2.3 7 3.5 3.8 3.8 9.6 1.4 14 1.1.4 2.3.7 3.5.8 1-2.1 2-4.2 3-6.2 4.2-.6 7.4-3.6 8.6-7.7 1.5-1.8 3.1-3.5 5-4.9 2.2-.5 5.6-3.2 2.5-5-3.4-.5-6.8 1.1-10.3.4-2-.4-4.1-1-5.9-2-1.6-1.5-2.4-3.8-4.5-4.7-6.3-3.2-13.7-1.4-20.4-2.8m-153 4c1.9-.3 4.9.4 5.5-2.1-2.3-2.1-5.2-1-5.5 2.1m28.4-3.5c0 .8-.1 2.5-.1 3.3 2.3.8 4.9 1.6 6.5-.8-2-1.1-4.2-1.9-6.4-2.5m9.6 2.2c2.2.9 4.5 1 6.7 0-2-1.8-5.1-2.8-6.7 0m19.3-1.9c0 .8.1 2.5.1 3.3 2.6-.6 6.3-.1 7.4-3.1-2.5-.1-5-.1-7.5-.2m10.7.1c.6 3.8 4.6 3 7.4 3.1 0-.8 0-2.4 0-3.2-2.5 0-4.9 0-7.4.1m-60.7 2.9c2.3 2 7 1.8 7.4-1.9-2.3.3-6.6-1.2-7.4 1.9m10.7-1.9c1.2 1 2.1 3.3 4.1 2.9.6-.9 1.2-1.9 1.7-2.9-1.9-.1-3.8-.1-5.8 0m84-.2c0 .8 0 2.3 0 3.1 2.2 0 4.3-.1 6.5-.1-.6-3.3-3.9-3-6.5-3m8.7 4.1c2.6.1 5.2.1 7.8 0-.5-4.3-7.3-4.3-7.8 0m8.4-1.3c.5 1.3 1 2.6 1.5 3.9-1.3 1.6-2.3 3.4-2.9 5.4 1.6-.2 3.1-.4 4.6-.6-1.3 2.8-2.8 5.5-4.7 7.9-.2-1.8.7-6-2.4-5.2-1.6 1.8-1.8 4.3-2.3 6.5 2.3.9 4.6 1.7 6.8 2.7 2.8-3.2 4-7.3 5.3-11.3 1.9-2.8 4.4-7.3 8.4-6.1 3.4.9 7 1.5 10.6 1.2 0-.8-.1-2.3-.1-3-3.4-1.4-7.1-.4-10.6-.5-4.5-1.8-9.5-1.1-14.3-.9m-32 11.5c-1 2.7 1.8 4.2 4 4.8 3.7-.6 3.6-4.7 4.3-7.6-2.8.5-7.6-1.2-8.3 2.7m-70 19.8c.9 2.1 1.5 4.6 3.2 6.2 1.4.8 3 1.3 4.5 1.8-1.6.8-3.1 1.6-4.7 2.4 1.1 1.1 2.2 2.1 3.4 3-.5 2.7-1.5 5.2-3.7 7-2.5 2-3.6 6-.6 8 .8-2.2 1.6-4.4 2.4-6.6 2.7 1.9 5.4 3.8 8.3 5.4.4-2.4.7-5.9 4.1-5.5-.1 2.3-1.1 4.5-2.3 6.4.3.9.6 1.8.9 2.6 4.2-1.2 8.5-.4 12.6.4-2-6.6 1-13.4-1-20-1.8-.5-3.6-1.1-5.4-1.6.5-.4 1.6-1.3 2.2-1.7-1.8-.8-4-2.9-5.8-1.2-2.1 1.4-1.1 4.1-1.1 6.1-.5.1-1.6.2-2.2.3-.6-2.6-.2-6-2.8-7.5-2.8-1.9-5.4-4-8.2-5.8-1.2-1.1-2.4 0-3.7.3m45 9c-1.9-.7-3.7-1.5-5.7-1.8-1.6.2-2.6 1.6-4 2.3-2.6-.8-5-1.9-7.6-2.6-.4.6-1.3 1.9-1.7 2.5 1.6.5 3.2 1 4.8 1.4.6 6.3.5 12.6-1.6 18.6 6.6 1.8 13.4 3.2 20 4.4-.7 1.8-1.5 3.5-2 5.3 2.5 0 5-.6 7.3-1.6-.2.4-.7 1.3-1 1.7-2.5.5-4.9 1.1-7.4 1.6-1.1-2-1.9-4.4-3.9-5.6-3.6-1-7.3-1.2-10.9-2.2-.4.3-1.3 1-1.7 1.4.5 2.9 1.2 5.8 1.3 8.8.1 3.6-1.5 7.1-.3 10.7.9 2.6-.1 5.2 0 7.8 1.8 1.8 4.8 1.6 7.2 2 3.1.7 5.3-2.2 7.6-3.8 2.2 1.7 4.2 3.6 5.3 6.3-2.5-.2-5-.5-7.5-.9-.3.9-.7 1.9-1.2 2.7 2.7 1.8 5.9 2.4 9.1 2.2 2.3-2.8 3.4-6.2 3.4-9.8 1.8-1.4 4-2.5 5.2-4.6.4-3.1.1-6.5-2-9-.8 1.2-1.5 2.4-2.3 3.6-2.8-.1-5.9-.3-8.2 1.6.5 2.4 1.1 5 .1 7.4-1.2-1.2-3.2-1.9-3.4-3.8-.4-3.1-.7-6.3-.8-9.4 2.5-2.4 6.3-2.4 9.5-2-1.6.9-3.4 1.5-5 2.3-1.3 1.8 1.4 2.7 2.7 2.8 3.9 0 6.8-3.3 9.7-5.5-.4-2.8-.8-5.6-1.2-8.4-1.4-.8-2.7-1.6-4.1-2.4 1.6-1.8 6.4-4.6 3.3-7-2.6.1-3.3 3.5-5.6 4.2-2.1.7-4.4.6-6.5.7.1-.7.3-2.1.4-2.8 3.4-2.1 8-2.1 10.7-5.4 2.3-2.1 1.2-5.6-.6-7.6-2 1-4.2 1.3-6.3.7 3.2-1.8 6.3-3.9 8.4-7-.9-2.8-2-5.6-3.3-8.2-4.5 1-8.8 3.5-10.2 8.2m90 10.2c-.1.7-.3 2.2-.4 2.9 1.5 1.2 3 2.4 4.5 3.6 2.5-1.4 2.3-4.1 2-6.6-2 0-4.1 0-6.1 0m-130 7.4c0 1.2.1 2.5.1 3.7-1.8 2.3-3.6 4.7-4.3 7.6.7 1.9 3.3 3.4 2.6 5.6-1.1 1.1-2.4 2-3.6 2.9-.2 2-1 4.1-.5 6.1 1.2 3.1 4.4 4.4 7.1 6 .1 1.8.2 3.5.2 5.3 6.5-3.5 14.2-.8 21-.7.2-4.1-1.3-8-1.3-12 .7-5.4 1-10.8.2-16.2-2.8-2.7-7.3-1.4-10.8-1.8-.5 3.7-.3 7.4.6 10.9-.5.3-1.5.8-1.9 1.1-1.2-2.9-2.1-5.9-2.8-9 .5-1.3 1.8-2.4 1.5-3.8-2.2-2.6-5.2-4.4-8.4-5.7m63 16.2c.8 1.6 1.4 3.9 3.4 4.1 1.1-.3 2.2-.6 3.3-1-1.5-2.4-3.9-3.5-6.8-3.2m81 26.6c4.8-.8 3.3-6.4 3.2-9.8-4.6.8-3.6 6.4-3.2 9.8m-76 12.5c1.9-.1 3.9-.3 5.8-.3-.8-.9-1.7-1.6-2.6-2.3-1.2-2.7-3.3-5-3.7-8 1.1-.9 2.5-1.2 3.9-1.7.1 1.5.2 3 .3 4.5.5-.1 1.6-.2 2.2-.2-.7-4-3.8-6.8-5.9-10-3.7 5.6-.3 12.2.1 18m-54-15.8c-.7 4 5 2.7 7.3 2.8-.7-3.2-4.7-4.6-7.3-2.8m8.5.6c3.4 2.6 7.8 2.6 11.8 2.2-.5-1.3-1.4-2.3-2.8-2.6-3-.9-6.4-1.8-9 .4m-18-.8c.5 3.6 4 3.3 6.8 3.1-.4-3.6-4-3.3-6.8-3.1m72 21c1.3 0 2.6-.3 3.7-.8.4-1.2.7-2.3.9-3.5-2.1.8-4.2 1.9-4.7 4.3m-9.5-1.9c-.1 3.1-.4 6.5 1.9 8.9 1.9-.7 4.2-.9 5.7-2.5.2-1.2.3-2.5.4-3.7-.7 0-2.2 0-2.9 0-.2.7-.4 2.2-.6 2.9-.7 0-2.2-.1-3-.1.7-1.7 1.4-3.4 2.1-5.1-.2-.4-.6-1.4-.8-1.8-1 .4-1.9.8-2.9 1.3m49.7 2.7c.1 1.6.1 3.1.4 4.7.7 1.8 2.8 2.1 4.4 2.6.4-1.1.9-2.2 1.4-3.3-.7-1.3-1.5-2.6-2.2-3.9-1.3 0-2.7 0-4 0m-87 3.2c-3.6 3.4-6 9.7-2.9 14.3 1.9 3.5 1.9 8.2 5.3 10.8 2 1.8 4.3 3.2 6.9 4.1.6-2.3 1.1-4.6 1.8-6.9.8-3.2 4-4.7 6.4-6.6.3-4.6.2-9.1 0-13.7-5.6-2.1-11.7-2.9-17.6-1.9m46-.1c1.3 1.8 2.9 3.3 4.4 4.8-.8 1.2-1.7 2.3-2.7 3.4.3.8.6 1.7.8 2.5.7.1 2.1.2 2.8.2.8-1.7 2.4-3.5 1.5-5.4-.7-2-1.6-3.9-2.5-5.8-1.5.1-2.9.1-4.3.2m-7.3 5.7c-.4 2.7-.8 5.4-1.2 8 .3.1 1 .1 1.3.2.2-1.3.4-2.7.6-4 .6 0 1.8.1 2.4.1.6 1.3 1.3 2.6 2.6 3.3 0-2.3.4-4.7-.5-6.9-1.6-.7-3.5-.5-5.2-.7m48 1.3c.2 2.6 1.5 4.8 3.1 6.8-.6 1.3-1.3 2.6-1.8 4.1.4 1.5 1.9 2.3 2.9 3.5 1.1-1.1 2.1-2.1 3.2-3.2-.9-1.6-1.8-3.1-2.6-4.7 1-2.3 2.8-5.6.2-7.5-1.7.2-3.3.6-5 1.1m-37.8 7.5c.3 1.7-.6 4.2 1.4 5.1.7.1 2.2.3 3 .4 0-2.8-1.6-4.9-4.3-5.6m-5.8 3c-.1 2.8-.2 5.5-.3 8.3-2 0-4 .1-5.9.1 1 1.3 1.9 2.5 2.9 3.8-.5 1-1 2.1-1.5 3.1 2.5 3.1 6.2 5 10 5.8 1.3 3.5 1.1 8.8 5.7 9.6.1-3.2-1.6-5.8-2.9-8.5.2-1.8 1.1-3.5 1.7-5.2-2.1-.8-4.1 0-5.8 1.1-.4-1.1-.8-2.3-1.2-3.4-1.3.7-2.6 1.4-3.9 2.2-.1-2.9-.2-6.1 2.3-8.2 2.6-2.2 3-7.8-1.1-8.6m-6.4 6.6c1.3-1.2 5.8-3.4 3.1-5.1-2.4.4-2.7 3.2-3.1 5.1m13.3-2.2c-.7 1.3-1.5 2.7-2.2 4 1.5 2 2.9 4 4.4 5.9.4-.2 1.2-.7 1.7-.9-.8-1.4-1.7-2.7-2.5-4.1.6-1.6 1.2-3.2 1.8-4.9-.8 0-2.3-.1-3.1-.1m37 4.1c.8 1.5 1.9 3 2.2 4.7-.2 3.4-1.6 6.7-1.4 10 .3 2.7 1.4 5.3 2.3 7.9 1.9-1.9 4.3-3.6 7.2-3.3 3.3.3 6.6.3 9.5-1.5 1.8 1.1 3.5 3.4 5.9 3 3.1-1.8.2-6.6-2.8-5.9-3.9.2-8-.5-11.6 1.5-1.8-1.1-3.5-2.3-5.2-3.5.9-2.3 2.5-4.8.9-7.2-2.3-3.3 1.6-7.9-2.1-10.3-1.7 1.5-3.3 3.1-5 4.6m-51.6 13.4c1 2.6.2 6.6 3.5 7.6.8-.6 1.6-1.2 2.4-1.8-.9-1.2-1.8-2.3-2.7-3.5-.1-1.6.5-3.6-.9-4.9-1.5-.3-3.2 1-2.3 2.5m9.5 13.6c.3-.2 1-.5 1.3-.7.7-2.9.1-6-.7-8.8-1.9 2.7-1.8 6.5-.7 9.5m57-2.8c-1 1.3 1.3 2.8 2.2 1.6 1-1.3-1.3-2.8-2.2-1.6m-64 .3c-.1 2.5-.1 4.9 0 7.4.7 0 2.2 0 2.9.1-.8-2.5.1-6.4-2.9-7.5m46 3.1c1 .6 2 1.1 3.1 1.6 0-1.2 1.3-2.7.2-3.6-1.2-1.7-4.1.1-3.2 2m10-2.5c-.5 1.6 0 2.2 1.7 1.7.5-1.6 0-2.2-1.7-1.7m13.9-.2c0 .5 0 1.5 0 2 1.7 0 3.3 0 4.9 0 0-.5 0-1.5 0-2-1.6 0-3.3 0-4.9 0m6.7 5.1c1.6.3 3.2.7 4.8 1 .7-2.2 1.4-4.4 2.2-6.6-3 1-5.2 3.1-7 5.6m-16.6-.9c-.6 1.7 1.2 3.2 2.8 2.8 2.2.1 1.9-2.7 2.3-4.1-1.8.3-3.9-.3-5.2 1.3m-6.7-.1c-.4 1.4.1 1.9 1.5 1.4.4-1.4-.1-1.9-1.5-1.4m15.3-.3c.4 3.3 5 4.2 6.7 1.4-2.2-.6-4.4-1.1-6.7-1.4m-61 2.4c-1.6.4-.9 3 .7 2.5 1.6-.4.9-3-.7-2.5m40 1.3c-.1 1.5-.1 3-.2 4.4.8 0 2.5-.1 3.4-.1-.8-1.7-1.2-3.8-3.2-4.4m31 2.4c-.6.9-1.1 1.9-1.7 2.9 1.6 0 3.2 0 4.8 0-.8-1.3-1.2-3.5-3.2-2.9m-65 1.2c-.5 1.6 0 2.2 1.7 1.7.5-1.6 0-2.2-1.7-1.7m47.6 1c.4 1.1.9 2.1 1.3 3.2 1.4-1.3 2.5-2.7 3.2-4.4-1.5.4-3 .8-4.6 1.2m23.8 1c2.2 0 4.4-.2 5.7-2.2-2.2-.1-4.6-.1-5.7 2.2m-14.2-1c-1 1.3 1.3 2.8 2.2 1.6 1-1.3-1.3-2.8-2.2-1.6z"/><path d="m173 65c.8-.6 1.5-1.1 2.3-1.7.2.3.6.8.8 1 .1 1.5.1 3 .1 4.5-1.2-.3-2.4-.5-3.6-.8.1-1 .3-2 .4-2.9"/><path d="m180 69c.8-1 1.5-2.6 3.1-2.1.6 1 1 2 1.3 3.1-1.5-.3-2.9-.6-4.4-.9"/><path d="m200 69c1.1 0 2.2.1 3.3.2.3.2.9.4 1.3.6-.1.7-.2 2-.2 2.6-1.2 0-2.3 0-3.4 0-.2-.8-.7-2.5-.9-3.3"/><path d="m208 71c.8-.8 1.7-1.6 2.5-2.5.8.7 1.7 1.4 2.5 2.1-.3.7-.9 2.1-1.2 2.8-1.4-.7-2.6-1.7-3.9-2.5"/><path d="m193 69c.8-.2 2.5-.6 3.4-.8.3 1.5.5 3 .7 4.5-1.6-1-3-2.2-4.1-3.6"/><path d="m69 87c.5-.4 1.4-1.2 1.9-1.7.5.4 1.5 1.2 2 1.6 0 .7.1 2.2.1 2.9-1.4 0-2.8 0-4.1 0 0-.7.1-2.1.1-2.8"/><path d="m107 90c1.5-.8 3.3 1.7 2.3 3-1.6.8-3.3-1.8-2.3-3"/><path d="m158 91c1.3 0 2.6.2 4 .3 0 .8.1 2.4.1 3.1-.7 0-2.1-.1-2.8-.2-.4-1.1-.8-2.2-1.3-3.2"/><path d="m109 100c1.4-1.5 3-2.7 4.7-3.8.4 1.5.7 3.1 1 4.6 1.2.4 2.3.8 3.5 1.1.3 3.6-2.4 6.4-5.9 6.8-.3-.5-1-1.5-1.4-2.1.6-1.3 2-2.4 1.9-3.9-1.2-1.1-2.6-2-3.9-2.9"/><path d="m93 101c1.5-.9 3.2-1.5 4.9-2 .5.7 1.5 2 2 2.6-2 2.7-4.8.8-6.9-.6"/><path d="m102 101c1.3 0 2.6 0 3.8 0 0 3.3.3 6.6 1.1 9.9-3.4-.7-6.9-1-10.3-1.2 1.1-3.8 5.4-3.8 8.6-4.6-1.1-1.4-2.1-2.7-3.2-4"/><path d="m119 108c1.3-1.6 3.7.8 2 2-1.4 1.5-3.6-.8-2-2"/><path d="m113 111c2.2.8 4.5 1.6 6.7 2.4.4 3 1.4 5.8 2.3 8.7-1.5 3.3-5 5.1-7.9 7.2-1.2-1.3-2.4-2.6-3.5-4 1.7-1 3.3-2 5-3-2.2-.8-4.5-1.3-6.5-2.4 0-2.1 2.3-2.8 3.5-4 .3-1.6-.2-3.2.4-4.8m2 6.9c0 1.3.2 2.5.6 3.7 1.2.4 2.4.6 3.7.6.3-2.8-1.5-4.6-4.3-4.3z"/><path d="m87 122c-1.9-2.7-3.5-6.1-1.9-9.3 2.3 2.1 3.3 5.1 4.2 8-.6.3-1.7 1-2.3 1.4"/><path d="m95 115c3.7-1 7.5-1.3 11.2-1.2-.1 2-.1 4.1-.2 6.1-3.7.2-7.5.2-11-1 0-1.3 0-2.6 0-3.8"/><path d="m156 120c1.5 1.7 3 3.4 4.5 5.1-1 .8-2 1.5-3 2.3-.5 0-1.5 0-2 0 .2-2.5.4-4.9.5-7.4"/><path d="m99 123c1.5.2 3.2 0 4.6.7.4 1.2.6 2.3.8 3.5-1.6-.4-4.1.4-4.9-1.5-.1-.7-.4-2.1-.5-2.8"/><path d="m206 127c1.9.3 2.9 1.4 3.2 3.3-.8.2-2.5.7-3.4.9-.5 3.1 1.3 5.5 3.4 7.5-3.1-1.7-6.1-3.4-9.3-4.9 1.2-.1 2.4-.1 3.6-.3 1.5-1.8 1.7-4.3 2.3-6.5"/><path d="m142 133c1.4.7 3.8 1 3.9 3-.9.9-2 1.8-3 2.6-.4-1.8-.7-3.7-.9-5.6"/><path d="m88 138c1.6.5 2.8 1.6 3.4 3.3-.9 0-2.7.1-3.5.2 0-.9.1-2.6.2-3.4"/><path d="m110 147c2-1.1 3.1 3.1.8 3.3-1.5-.2-1.9-2.4-.8-3.3"/><path d="m180 175c.8-1.4 3.3 0 2.2 1.3-.8 1.4-3.3 0-2.2-1.3"/><path d="m202 178c1.4-.6 2.9-1.2 4.3-1.8 1 3.7 1.5 7.4 1.9 11.2.1 1.5-1.2 2.6-1.9 3.7-.1-2.8-.1-5.6.1-8.4-1.4-.5-2.7-1-4.1-1.4-.1-1.1-.1-2.1-.2-3.2"/><path d="m174 186c-.5-3.3 2.1-5 4.8-6.2.9 3.3-2.6 4.7-4.8 6.2"/><path d="m96 212c.5-3.3 3.8-1.3 5.7-.5-1.9.2-3.8.4-5.7.5"/><path d="m90 211c1.6.7 3.1 1.4 4.7 2.2-2 1-3.9 2-5.9 2.9.4-1.7.8-3.4 1.2-5.1"/><path d="m208 214c.5 0 1.6-.1 2.1-.1-.4 2.9-.9 5.8-1.6 8.7-.4-.5-1.3-1.6-1.8-2.1.5-2.2.9-4.3 1.3-6.5"/><path d="m91 219c1.7-1.1 3.5-1.7 5.4-2.2 0 .6 0 1.9 0 2.6-1.8-.1-3.6-.2-5.3-.4"/><path d="m89 220c1.8.9 3.6 2 5.7 2.5 2.1-.4 4.1-1.5 6-2.4.3.4.9 1.2 1.2 1.6-4.1 1.8-8.5 3-12.9 2.1 0-1.3 0-2.5.1-3.8"/><path d="m246 223c1.9-2.1 5.1-.1 7.5 0-.4.6-1.2 1.8-1.6 2.4-2.9 2.9.3 7.1-1.9 10.3l-.3.7c-.4-.4-1.2-1.2-1.6-1.6-2.1-3.5-3.3-7.8-2.1-11.8"/><path d="m209 227c.5-1.4 1.5-2.6 2.7-3.5.1 2.7-.4 5.4-1.8 7.7-.3-1.4-.6-2.8-.8-4.2"/><path d="m264 232c1-2.4 2.4-4.6 4.1-6.6.2.4.7 1.2.9 1.6-.5 1.4-1.1 2.9-1.6 4.3-1.1.2-2.3.4-3.4.6"/><path d="m122 230c3.5-.1 5.7 3.2 8.2 5.2-3.3 1.6-6.5-.4-9.6-1.6.4-1.2.3-2.7 1.4-3.6"/><path d="m209 232c2.5 4 2.5 8.8 2.9 13.3.2 1.6.6 3.2.9 4.9.1 3.6-1 7-1.9 10.4-1-1.4-1.9-2.7-2.9-4.1 1.3-2 2.5-4 3.6-6.1-2.1.1-4.3.3-6.4.4-.3-3.3-.7-6.7-1-10 1.1.3 2.1.6 3.2.8-.7 2.1-1.3 4.3-2 6.4.9.1 2.7.3 3.7.3.4-2.4.9-4.8.8-7.3-.3-2.2-1.6-4.2-2.7-6.2.6-1 1.1-2 1.7-3"/><path d="m256 235c.8-.4 1.5-.7 2.3-1.1 1.4 2 2.4 4.4 4.5 5.8 2.1.7 4.4.7 6.7.9.8.6 1.6 1.2 2.4 1.8-.4.9-.9 1.9-1.3 2.9-2.3-.2-4.5-.4-6.8-.7-3.4-2.5-6.1-5.7-7.8-9.6"/><path d="m130 236c1.2-.4 2.4-.9 3.6-1.3.3 1.6.7 3.2.9 4.9-1.2.5-2.3.9-3.5 1.4-.4-1.6-.7-3.3-1-4.9"/><path d="m189 236c1.9-.5 3.9-1 5.8-.2-3.9 1.8-8.1 2.6-12.3 2.3-.1-.5-.4-1.6-.5-2.2 2.3.3 4.8.8 7.1.1"/><path d="m240 243c2.4-1 5-1.7 7.5-2.1l-.2.9c-.4 1.4-.3 3.5-2.2 3.7-2.1.6-3.6-1.4-5.1-2.5"/><path d="m100 243c1.2-.2 2.3-.4 3.4-.7.1.7.4 2.1.5 2.8-1.4-.6-2.7-1.2-4-2"/><path d="m126 245c2 1.5 3.2 3.7 3.2 6.2-.8 0-2.5.1-3.3.1 0-2.1.1-4.2.1-6.3"/><path d="m57 246c1.2.2 2.3.3 3.5.5 1.6 1.9 2 4.3 1.1 6.6-1 .5-2 1.1-3 1.6-1.1-1-2.3-2-3.5-3 .9-.2 2.7-.6 3.6-.8-.5-1.7-1.2-3.3-1.8-4.9"/><path d="m50.6 247c.9-.9 2.9-.4 3.1.9-.2 2-4.1.9-3.1-.9"/><path d="m178 247c3.9 1 8.4.9 11.6 3.6-3.2 0-6.5-.5-9.7-.7-.6-1-1.3-1.9-1.9-2.9"/><path d="m179 258c3.3.2 7.4-.7 9.7 2.4-3.3 0-6.5-.5-9.7-.9 0-.4.1-1.1.1-1.4"/><path d="m237 259c.6.1 1.8.2 2.4.2 2 3 4.3 5.8 6.7 8.6-.8.9-1.7 1.7-2.5 2.6-1.8-4.1-4.8-7.3-6.6-11.4"/><path d="m263 269c1.2-.7 2.4-1.3 3.6-2 1.2 3.9 3.3 8.2.7 12-1-2.2-1-4.6-.9-6.9-1.1-1-2.3-2.1-3.4-3.1"/><path d="m210 271c1.1.5 2.2 1 3.2 1.5-.3 5-.6 10 .7 14.9.8 3.2-.3 6.3-1 9.4-1.2-1.7-2.3-3.3-3.4-5 .9-1.4 1.8-2.8 2.7-4.1-1.5-5.4-2.8-11-2.1-16.6"/><path d="m179 273c3.3-.2 6.6.3 9.8 1.1.4.1 1.2.3 1.6.3-3.9 1.3-8 .6-11.9 0 .1-.4.4-1.1.5-1.4"/><path d="m239 283c.6-1.8 1.1-3.5 1.7-5.3.9.7 1.7 1.4 2.4 2.1-.4 1.4-1 2.8-1.6 4.2-.7-.3-1.9-.8-2.6-1.1"/><path d="m201 284c2.1 0 4.1 0 6.2 0 .3.4 1 1.1 1.3 1.5-2.2 1.5-4.1 3.6-5.1 6.1-.6-2.6-1.4-5.2-2.4-7.6"/><path d="m202 294c2 .6 4 1.1 5.8 2.1.9 1.6-.7 2.4-1.7 3.3-1.9-1.4-3.7-3-4.2-5.4"/><path d="m214 298c.7.4 1.4.8 2.1 1.1 0 .4 0 1.3 0 1.7-.5 2.4-1.1 4.7-1.6 7.1-.7 2.3-1.6 4.5-2.4 6.8-.4-2.1-1.6-4.1-.9-6.3 1.1-3.4 2.2-6.9 2.8-10.5"/><path d="m205 314c.8 0 2.4.1 3.2.1 0 .8.1 2.4.1 3.2-.8 0-2.4-.1-3.3-.1 0-.8 0-2.4 0-3.2"/><path d="m260 318c1.2-.8 2.4-1.6 3.6-2.4 2.2.2 4.3.5 6.5.7.3 2.6 1.5 5.5-.4 7.8-1.2-1.4-2.4-2.8-3.6-4.2-2.1-.6-4.1-1.2-6.1-1.9"/><path d="m211 321c1.1.1 2.3.3 3.4.5 1.4 3.6 1.7 7.5 1.3 11.3-2.3-.5-4.6-1.1-6.9-1.6 1.4-1 2.8-1.9 4.3-2.9-.7-2.4-1.5-4.8-2.1-7.3"/><path d="m249 324c.9-.9 2-1.7 3.1-2.4 1.1.5 2.2 1 3.3 1.5-1.6.9-3.2 1.8-4.9 2.7-.4-.5-1.1-1.4-1.5-1.9"/><path d="m299 350c.6-.3 1.6-1 2.2-1.3 3.7.7 7.4 1.6 10.7 3.4 2.1.7 2 3.9.1 4.7-3.1 2.7-7.4 1.4-11 1.2-.2-2.8-1.3-5.3-1.9-8"/><path d="m280 359c1.3-1.7 2.7-3.4 4.1-5 1.3 1 2.5 2 3.8 3 1.8-.8 3.6-1.6 5.3-2.4.9.6 1.7 1.2 2.6 1.8.7.6 1.4 1.1 2.1 1.8-5.6.9-11.3.9-16.9 1l-1-.2"/><path d="m238 357c3.6-.6 7.2-2 10.9-2.1 2.2-.2 2.3 2.2 2.4 3.8-3.1 2.5-7.4.9-11 .9-5.3-.9-10.9 1.1-15.9-1.2 1-.9 2-1.7 3.1-2.5 3.4 1.2 7 1.6 10.6 1.1"/><g style="fill:#4e4331"><path d="m71 93c1.1-.1 2.3-.2 3.4-.3-1.2 5.5-2 11.3-.6 16.9-.7-.6-1.3-1.2-2-1.8-3.7-4.3-1.9-10-.8-14.8"/><path d="m192 99c1.4.3 2.8.7 4.3 1-1 4.1-1.9 8.3-1.2 12.5-.3-.1-.9-.2-1.2-.3-2.3-.5-4.7-1-7-1.5-.1-.5-.2-1.5-.3-1.9 1.6.4 3.2.8 4.8 1.2.3-3.6.5-7.3.6-10.9"/><path d="m208 105c.8-1.3 1.7-2.5 2.5-3.8.5 1.3 1.1 2.6 1.6 4-2.4 1.7-4.9 3.2-7.8 3.8-.1-2.2-.3-4.3-.4-6.5 1.3.9 2.7 1.6 4 2.5"/><path d="m198 116c2.4 0 4.9.1 7.3.2 0 .7.1 2 .2 2.7-2.6-.7-7.1.7-7.5-2.9"/><path d="m106 121c1.6-.5 2.2 0 1.7 1.7-1.6.5-2.2 0-1.7-1.7"/><path d="m156 127c.5 0 1.5 0 2 0-.5 3.7-.4 7.5 1.6 10.8-1.3.5-2.5 1-3.8 1.5-.1-.4-.4-1.3-.6-1.7.2-3.5.4-7 .7-10.5"/><path d="m182 129c1.9.1 2.5 1.9 3.2 3.3-.9.1-2.6.3-3.4.3.1-.9.2-2.8.2-3.7"/><path d="m76 131c1.6 0 3.2.1 4.8.2-.7 1.4-1.5 2.7-2.4 3.9-.8-1.3-1.6-2.7-2.4-4"/><path d="m184 142c.6-2.9 2.8-4.9 5.7-5.4-.3 1.9-.7 3.7-1.1 5.6-1.5 0-3-.1-4.6-.1"/><path d="m202 145c.2-2.8 2.7-4.1 5.1-2.5-.4.7-1.3 2-1.7 2.7-.8 0-2.6-.1-3.4-.2"/><path d="m208 196c2-1.1 4.1-2.1 6.1-3.3-1.3 1.6-2.9 3.2-3.1 5.3-.7 6.4.7 12.8.3 19-.4 9.4 2.2 18.7.9 28-.5-4.5-.4-9.3-2.9-13.3l.3-.6c1.4-2.3 1.9-5 1.8-7.7-1.2.9-2.2 2.1-2.7 3.5-.2-.8-.3-1.7-.4-2.5-1.1.5-2.2.9-3.3 1.4-1.2-2.3-2.4-4.7-3.5-7.1.6-.7 1.2-1.3 1.8-2 .3 1.8.7 3.6 1.1 5.3.6-.2 1.8-.5 2.4-.6.1-.4.3-1.2.4-1.6.4.5 1.3 1.6 1.8 2.1.7-2.8 1.2-5.7 1.6-8.7-.5 0-1.6.1-2.1.1-1-.9-1.9-1.8-2.9-2.7l-.4-.4c1.9-2.2 3-4.9 2.5-7.8.7-.2 1.4-.4 2.1-.7-.6-2-1.2-3.9-1.8-5.9"/><path d="m245 223c2.5-3.6 6.3-6.2 10.3-8 5 .4 9.6 3.6 11.6 8.2-4.3-.8-8.4-2.2-12.5-3.6.4 1.9.8 3.8 1.2 5.7-1.2.1-2.4.1-3.6.2.4-.6 1.2-1.8 1.6-2.4-2.4-.1-5.6-2.2-7.5 0-1.2 4 0 8.3 2.1 11.8-3.5-2.8-4.7-7.7-3.1-11.9"/><path d="m203 233c.6-2 .5-5.1 3.3-5.1.3 2.5-.9 4.4-3.3 5.1"/><path d="m251 238c3.3 1.4 5.9 4.1 8.3 6.8 2.2 2.9 4.8 5.5 7.7 7.8 1 1.7 1.7 3.5 2.4 5.4-1-.6-2-1.2-3-1.8-.3-.2-1-.6-1.4-.8-1.4-.3-2.9-.3-4.3-.5-.4-2.2-.4-4.5-1.4-6.5-1.1-1.8-2.8-3.1-4.3-4.6-1.8-1.5-3.2-3.5-4-5.8"/><path d="m279 246c2.1-.2 4.1-.4 6.2-.6 0 1.8.4 3.7-.1 5.5-1.4 1.5-3.2 2.5-4.8 3.7-1.2.8-2.3 1.7-3.4 2.6l-.6.6c-.8-1.5-1.6-3.1-2.3-4.6 1.9-2.3 3.5-4.7 5.1-7.2"/><path d="m213 250c.7 5.3.9 10.6 1.1 16-.2 2.3-.5 4.5-.7 6.7-1.1-.5-2.2-1-3.2-1.5-1.9-.8-3.8-1.5-5.8-2 .7-.1 2.1-.4 2.8-.5.7 0 2-.1 2.7-.2.3-2.7.6-5.5 1.2-8.2.9-3.4 2.1-6.8 1.9-10.4"/><path d="m152 262c.8 0 2.4 0 3.2-.1 0 .7-.1 2.2-.1 2.9-.7-.1-2-.2-2.6-.3-.1-.6-.3-1.9-.4-2.5"/><path d="m206 262c1.4-1.1 2.7 1.3 1.4 2.2-1.4 1.1-2.8-1.3-1.4-2.2"/><path d="m181 263c1.3-.7 3.2-.1 4.1.9-.5 1.6-4.3.8-4.1-.9"/><path d="m273 269c.9-.9 1.9-1.7 2.9-2.6.2 1.6.4 3.1.7 4.7-1.2-.7-2.4-1.5-3.5-2.2"/><path d="m158 276c1.3-.8 2.7-1.5 4-2.2-.4 1.6-.7 3.2-1.2 4.8-.9-.9-1.8-1.8-2.8-2.6"/><path d="m191 275c.1 0 .2.1.2.1l-.2-.1"/><path d="m206 279c1.5-1.2 3 1.5 1.6 2.4-1.5 1.2-3-1.5-1.6-2.4"/><path d="m240 302c1.1.6 2.1 1.3 3.2 1.9-1 3.5-1.7 7.8 1.5 10.5 1.2 1.9 3.4.4 5.1.1 1 .8 2 1.6 3 2.4-2.7.8-5.3 1.8-7.8 2.9-6.4-3.4-6.4-11.8-4.9-17.9"/><path d="m212 315c.8-2.3 1.7-4.5 2.4-6.8.6 1.8 1.3 3.5 1.8 5.2.3 1.9.2 3.8.2 5.7-.5 1-1.1 1.9-1.6 2.9-1.1-.2-2.3-.3-3.4-.5.1-2.2.4-4.4.7-6.6"/></g><g style="fill:#7f5109"><path d="m254 220c4.1 1.4 8.2 2.8 12.5 3.6.4.6.8 1.2 1.2 1.8-1.7 2-3 4.2-4.1 6.6 1.1-.2 2.2-.4 3.4-.6.6-1.4 1.1-2.9 1.6-4.3 2.9 4 1.2 8.8.6 13.2-2.2-.2-4.5-.2-6.7-.9-2.1-1.4-3.1-3.8-4.5-5.8-.8.3-1.6.7-2.3 1.1 1.6 3.8 4.4 7.1 7.8 9.6-1.5.3-3 .7-4.5 1.1-2.4-2.7-4.9-5.4-8.3-6.8-.3-.8-.7-1.5-1-2.3 2.2-3.2-1-7.4 1.9-10.3 1.2-.1 2.4-.1 3.6-.2-.4-1.9-.8-3.8-1.2-5.7m5.1 4.5c.4 1.2.9 2.4 1.4 3.6-.6.7-1.1 1.5-1.7 2.2 1.1 2.4 2.2 5 4.7 6.2-.2-4.1-.2-8.3.1-12.4-1.5.1-3 .3-4.5.4z"/><path d="m248 242c1 3.2 4 4.6 7.1 5.3 0-.7.1-2.2.1-2.9 1.5 1.4 3.1 2.8 4.3 4.6 1 2 1 4.3 1.4 6.5 1.4.1 2.9.2 4.3.5.3.2 1 .6 1.4.8-2 1.1-4 2.2-6.1 3.2-2.6-3.8-4.7-8.5-9.3-10.1 2.7 4.7 7.1 8.8 7.8 14.4-.4 2.4-2.4 4.2-3.6 6.2 1.2-.1 2.4-.2 3.6-.4.9-1.4 1.9-2.9 2.8-4.3 1.4.1 2.9.3 4.4.4-.3-1.3-.6-2.6-.8-3.9 2.1.4 4.1.8 6.1 1.1-.6 1.4-1.2 2.7-1.8 4.1-.1 1.7.1 3.4.3 5.1.2 1.4.4 2.8.6 4.2.1 1.4.1 2.8.1 4.2-1.7.8-3.4 1.6-5.2 2.3-5.3 1.2-10.7 3.8-16 1.2-1.4 3.9-1.8 8.3-4 11.8-1.2.1-2.4.2-3.7.2.6-3.4 1.4-6.7 2.3-9.9-.8-.6-1.7-1.2-2.5-1.8.6-1.4 1.2-2.7 1.6-4.2-.8-.8-1.6-1.5-2.4-2.1-.9-.7-1.8-1.3-2.7-1.9-1.4 2.5-3 5.3-6.3 5.2-1-4.2-2.4-8.4-2.1-12.8.3-3.1-.5-6.2-1.4-9.1.4-2.4 1.9-4.5 3-6.7 1.2-.1 2.4-.2 3.6-.3.7-2.7 1.5-5.3 2.3-8 1.2-.6 2.5-1.1 3.7-1.6 1.5 1 3 3.1 5.1 2.5 1.9-.2 1.8-2.3 2.2-3.7m-10.2 8.2c-1 1.3 1.3 2.8 2.2 1.6 1-1.3-1.3-2.8-2.2-1.6m-.6 9.3c1.7 4.1 4.8 7.3 6.6 11.4.8-.9 1.7-1.7 2.5-2.6-2.4-2.7-4.7-5.5-6.7-8.6-.6-.1-1.8-.2-2.4-.2m15 3.9c-1.6 3 3.3.2 0 0m-20.6 3.7c.3 3.1.7 6.1 1.4 9 3.3-1.4 6.6-3.4 8.2-6.8-.3-.7-1.1-2-1.4-2.7-2.6 1-4.3 3.2-6.4 4.8.1-1.8.2-3.6.3-5.4-.7.3-1.4.6-2.1.9m31.9 2.2c1.1 1 2.3 2 3.4 3.1-.1 2.4-.1 4.8.9 6.9 2.6-3.8.5-8.1-.7-12-1.2.7-2.4 1.3-3.5 2m-17.3 1.9c.6 2.7 3.8 1 5.3.1-1.7-.2-4.1-2.3-5.3-.1z"/><path d="m82 292c5.9-1 12-.2 17.6 1.9.2 4.6.3 9.1 0 13.7-2.4 1.9-5.6 3.4-6.4 6.6-.7 2.3-1.3 4.6-1.8 6.9-2.6-.8-4.9-2.2-6.9-4.1-3.5-2.5-3.4-7.2-5.3-10.8-3.1-4.6-.7-10.8 2.9-14.3"/><path d="m254 301c3.1.4 4.3 4.7 1.2 6.1-.7-1.9-1-4-1.2-6.1"/><path d="m276 312c2.9-1.7 6.4-1.5 9.6-1.6.4.8.7 1.7 1.1 2.5.6 1.9 1.2 3.9 1.7 5.8-2.4.3-4.9.7-7.3 1.1.8 2.2 2.6 3.6 4.7 4.5.9 1.8 1.8 3.7 2.5 5.6 0 1.3 0 2.7 0 4-1.5-1.2-2.9-2.5-4.4-3.7-1.6 2.1-3.4 4.1-5.3 5.9 1.1 2.8 3.2 5 5.7 6.6 1.4-1.3 2.9-2.5 4.4-3.8.4 1.4.9 2.8 1.3 4.2-1.1 2.7-2.2 5.4-3.3 8.2 1.4.6 2.8 1.3 4.2 2 1.1.6 2.2 1.2 3.2 1.8-1.8.8-3.6 1.6-5.3 2.4-1.3-1-2.5-2-3.8-3-1.4 1.6-2.8 3.3-4.1 5l-.1-.7c.4-1.8 1.1-3.6 1.3-5.4-.3-8.3-7.4-14.5-8.1-22.7.7-3.6 1.4-7.3 1.9-10.9-1.1-.9-2.3-1.8-3.4-2.7.9-1.8 1.5-4.1 3.5-5"/><path d="m257 320c1.1-.6 2.3-1.1 3.4-1.8 2 .7 4 1.3 6.1 1.9 1.2 1.4 2.4 2.8 3.6 4.2-2.1 2.3-4.2 4.6-6.4 6.9-5.2 2.5-10.3 5.3-14.6 9-3.1 2.6-6.9 4.2-10 6.8-.8 2.3-.3 4.9-.6 7.3-.1 1-.3 1.9-.5 2.9-3.6.5-7.2.1-10.6-1.1 0-2.3-.5-4.6-1.4-6.7.1-1 .2-2.1.3-3.1 2.2 0 4.5.1 6.7.2.3-.6.6-1.3.9-1.9-2.4-.4-4.8-.9-7.2-1.2 2.6-.7 5.1-1.3 7.7-1.9 2-3.2 4.1-6.3 6.4-9.3 3.3-2 5.9-4.8 7.9-8 .4.5 1.1 1.4 1.5 1.9 1.6-.9 3.3-1.8 4.9-2.7-1.1-.5-2.2-1-3.3-1.5 1.7-.6 3.5-1.1 5.3-1.7m-13.4 17c2.1-.1 4.2-.4 6.3-1-.2-.7-.5-2.1-.7-2.8-2.8-.7-4.9 1.1-5.7 3.8z"/></g><g style="fill:#fca708"><path d="m259 224c1.5-.2 3-.3 4.5-.4-.3 4.1-.3 8.3-.1 12.4-2.6-1.1-3.6-3.8-4.7-6.2.6-.7 1.1-1.5 1.7-2.2-.5-1.2-.9-2.4-1.4-3.6"/><path d="m251 250c4.7 1.6 6.7 6.3 9.4 10.1 2.1-1 4.1-2.1 6.1-3.2 1 .6 2 1.2 3 1.8-.7-1.8-1.4-3.7-2.4-5.4 2.3-.1 4.5-.1 6.8-.1.8 1.5 1.5 3.1 2.3 4.6-.4 3-.7 6-.6 9-1 .9-1.9 1.7-2.9 2.6-1.1-.6-2.1-1.2-3.2-1.8.6-1.4 1.2-2.7 1.8-4.1-2.1-.4-4.1-.8-6.1-1.1.3 1.3.6 2.6.8 3.9-1.5-.1-2.9-.3-4.4-.4-.9 1.4-1.9 2.9-2.8 4.3-1.2.1-2.4.2-3.6.4 1.3-2 3.3-3.8 3.6-6.2-.7-5.6-5.2-9.7-7.8-14.4"/><path d="m249 284c5.3 2.6 10.7 0 16-1.2-1.9 3.5-3.3 7.3-5.8 10.4-2.4 2.1-5.6 3-8 5-2.1 4.7.1 9.9 1.4 14.5-.8.7-1.7 1.5-2.5 2.2-1.7.3-3.9 1.8-5.1-.1-3.2-2.7-2.5-7-1.5-10.5-1.1-.7-2.1-1.3-3.2-1.9.3-2.1.7-4.2 1-6.2 1.2 0 2.4 0 3.7-.2 2.2-3.6 2.6-7.9 4-11.8"/><path d="m283 330c1.4 1.3 2.9 2.5 4.4 3.7 0 1.7.1 3.4.4 5.1-1.5 1.2-2.9 2.5-4.4 3.8-2.5-1.7-4.6-3.8-5.7-6.6 1.9-1.9 3.7-3.9 5.3-5.9"/><path d="m244 337c.7-2.6 2.8-4.5 5.7-3.8.2.7.5 2.1.7 2.8-2.1.6-4.2.9-6.3 1"/></g><g style="fill:#ecb54b"><path d="m250 237l.3-.7c.3.8.6 1.5 1 2.3.8 2.3 2.2 4.3 4 5.8 0 .7-.1 2.2-.1 2.9-3.1-.7-6.1-2.1-7.1-5.3l.2-.9c.5-1.4 1.1-2.7 1.7-4.1"/><path d="m231 253c1.6-3 2.3-7 5.9-8.3-.8 2.7-1.6 5.3-2.3 8-1.2.1-2.4.2-3.6.3"/><path d="m246 271c1.1-2.2 3.5-.1 5.3.1-1.5.9-4.6 2.6-5.3-.1"/><path d="m289 343c.9 3.3.9 6.8.8 10.1-1.4-.7-2.8-1.3-4.2-2 1.1-2.7 2.3-5.4 3.3-8.2"/></g><g style="fill:#fce884"><path d="m279 246c1.6-2.9 6.3-3.8 8.3-.8 1.5 2.8.1 6-.2 8.9-2.3.2-4.6.3-6.8.5 1.6-1.2 3.4-2.2 4.8-3.7.6-1.8.2-3.7.1-5.5-2.1.2-4.1.4-6.2.6"/><path d="m276 258l.6-.6c.8 5.3.9 10.6.4 16-2.4-.1-4.9-.3-7.4-.5-.2-1.7-.4-3.4-.3-5.1 1.1.6 2.1 1.2 3.2 1.8 1.2.7 2.4 1.4 3.5 2.2-.3-1.6-.5-3.1-.7-4.7-.1-3 .2-6 .6-9"/><path d="m232 283c-5.7-6.2-5.5-15.3-3.7-23 .9 2.9 1.7 6 1.4 9.1-.3 4.4 1.1 8.6 2.1 12.8 3.3.1 4.9-2.7 6.3-5.2.9.6 1.8 1.3 2.7 1.9-.6 1.7-1.2 3.5-1.7 5.3-2.4-.2-4.8-.1-7.2-.8"/><path d="m252 263c3.3.2-1.6 3 0 0"/><path d="m270 277c3.5 3.6 6.3 7.8 9.6 11.6 4.4 4.9 8 10.4 11.7 15.9-2.1 2.1-4.2 4-6.4 5.9-3.2.1-6.7-.1-9.6 1.6-2 .9-2.6 3.2-3.5 5 1.1.9 2.3 1.8 3.4 2.7-.5 3.7-1.2 7.3-1.9 10.9-.2-1-.4-2-.7-2.9-2.6 2.2-5.6 3.6-9 3.9 2.1-2.3 4.3-4.6 6.4-6.9 1.9-2.3.8-5.2.4-7.8-2.2-.2-4.3-.4-6.5-.7-.3-2.9-1.4-6 .1-8.8 1.9-3.7 4.1-7.2 5.9-10.9 5.3.8 10.3 3 14.7 6-1.1-4.6-2.9-9.3-6.5-12.5-2.9-2.5-5.5-5.2-8-8v-.9c0-1.4 0-2.8-.1-4.2"/><path d="m286 312c1.2 1 3 1.8 3 3.6.7 5.3-.4 10.7-.5 16-.1 3.6 1.6 7 2.3 10.5.6 2.9.6 6 1.3 9 1.5 1.5 3.4 2.5 5.2 3.6-.4.3-1.1 1-1.5 1.3-.8-.6-1.7-1.3-2.6-1.8-1.1-.7-2.1-1.3-3.2-1.8.1-3.4.1-6.9-.8-10.1-.4-1.4-.9-2.8-1.3-4.2-.2-1.7-.4-3.4-.4-5.1 0-1.3 0-2.7 0-4 .2-3.7.5-7.4.1-11.1-.5-2-1.1-3.9-1.7-5.8"/><path d="m245 320c2.5-1.2 5.2-2.1 7.8-2.9 1.3.9 2.6 1.8 3.9 2.6-1.8.6-3.5 1.1-5.3 1.7-1.1.7-2.1 1.5-3.1 2.4-2 3.2-4.6 6-7.9 8 1.7-3.8 4.8-7.3 4.5-11.7"/></g><g style="fill:#fdc90f"><path d="m238 250c.9-1.3 3.3.2 2.2 1.6-.9 1.3-3.2-.2-2.2-1.6"/><path d="m231 267c.7-.3 1.4-.6 2.1-.9-.1 1.8-.2 3.6-.3 5.4 2.1-1.6 3.8-3.8 6.4-4.8.4.7 1.1 2 1.4 2.7-1.7 3.4-4.9 5.3-8.2 6.8-.7-3-1.1-6-1.4-9"/><path d="m265 283c1.8-.7 3.5-1.5 5.2-2.3v.9c-.1 2.7-.2 5.3-.4 8-1.6 1.4-3.6 2.5-4.8 4.4-1.3 3.7-1 7.8-2.7 11.4-1.4 2.2-3.8 3.6-5.9 5.2 1 3.1 1.1 6.3.5 9.4-1.3-.8-2.7-1.7-3.9-2.6-1-.8-2-1.6-3-2.4.8-.7 1.7-1.4 2.5-2.2-1.4-4.6-3.6-9.8-1.4-14.5 2.5-2 5.7-2.9 8-5 2.5-3.1 3.9-6.9 5.8-10.4m-11.3 17.6c.1 2.1.4 4.1 1.2 6.1 3.1-1.4 2-5.7-1.2-6.1z"/><path d="m281 319c2.4-.4 4.9-.8 7.3-1.1.4 3.7.1 7.4-.1 11.1-.8-1.9-1.6-3.7-2.5-5.6-2.1-.9-3.9-2.3-4.7-4.5"/></g><path d="m270 282c2.5 2.9 5.1 5.6 8 8 3.7 3.2 5.4 7.9 6.5 12.5-4.4-3.1-9.4-5.3-14.7-6-1.8 3.7-4 7.2-5.9 10.9-1.4 2.7-.3 5.9-.1 8.8-1.2.8-2.4 1.6-3.6 2.4-1.1.6-2.2 1.3-3.4 1.8.6-3.1.5-6.4-.5-9.4 2.1-1.6 4.4-2.9 5.9-5.2 1.7-3.6 1.4-7.7 2.7-11.4 1.1-1.9 3.1-3 4.8-4.4.2-2.7.3-5.3.4-8" style="fill:#fde451"/></svg>