<?xml version="1.0" encoding="utf-8"?>
<!-- Generator: Adobe Illustrator 17.0.0, SVG Export Plug-In . SVG Version: 6.00 Build 0)  -->
<!DOCTYPE svg PUBLIC "-//W3C//DTD SVG 1.1//EN" "http://www.w3.org/Graphics/SVG/1.1/DTD/svg11.dtd">
<svg version="1.1" id="Layer_1" xmlns="http://www.w3.org/2000/svg" xmlns:xlink="http://www.w3.org/1999/xlink" x="0px" y="0px"
	 width="401px" height="382px" viewBox="0 0 401 382" enable-background="new 0 0 401 382" xml:space="preserve">
<g>
	<path fill="#7E7D79" d="M211.09,12.91c0.73,0.02,2.21,0.04,2.95,0.06c-1,3.37-1.88,6.78-2.54,10.24c-1.3-0.43-2.58-0.87-3.86-1.32
		C208.67,18.85,209.85,15.87,211.09,12.91z"/>
	<path fill="#7E7D79" d="M216.53,15.46c1.2-0.68,2.41-1.35,3.63-2.01c0.28,1.28,0.48,2.57,0.61,3.87
		C219.35,16.69,217.94,16.07,216.53,15.46z"/>
	<path fill="#7E7D79" d="M216.58,20.72c2.57,2.46,5.13,4.94,7.69,7.41c-1.81,3.65-3.82,7.21-6.27,10.47
		c-1.32-1.56-2.8-3.05-3.74-4.89C214.62,29.32,216.26,25.13,216.58,20.72 M217.91,25.69c-1.04,2.38-2.33,4.71-2.75,7.3
		c0.27,1.6,1.89,2.57,2.8,3.85c2.02-2.91,3.66-6.09,4.57-9.53C220.99,26.77,219.45,26.23,217.91,25.69z"/>
	<path fill="#7E7D79" d="M277.32,27.02c1.88-0.62,2.69,2.55,0.78,2.96C276.23,30.55,275.41,27.45,277.32,27.02z"/>
	<path fill="#7E7D79" d="M240.28,34.05c1.8-0.63,2.4,2.34,0.64,2.7C239.14,37.35,238.51,34.42,240.28,34.05z"/>
	<path fill="#7E7D79" d="M202.11,43.17c1.4-0.46,1.88,0.01,1.42,1.42C202.12,45.05,201.65,44.58,202.11,43.17z"/>
	<path fill="#7E7D79" d="M201.92,45.59c1.8,0.46,3.6,0.92,5.4,1.41c-0.45,1.33-0.91,2.66-1.38,3.99c-1.3,0.07-2.6,0.09-3.89,0.05
		C202,49.22,201.96,47.41,201.92,45.59z"/>
	<path fill="#7E7D79" d="M260.17,60.16c1.62-0.52,2.18,0.04,1.66,1.67C260.2,62.35,259.64,61.79,260.17,60.16z"/>
	<path fill="#7E7D79" d="M201.71,70.13c3.04,0.95,6.13,1.75,9.27,2.37c-0.01,0.6-0.02,1.81-0.03,2.42
		c-3.37,1.12-8.2,3.77-10.72-0.21C200.58,73.14,201.15,71.63,201.71,70.13 M203.25,71.51c-0.48,0.82-1.44,2.46-1.92,3.27
		c2.03,0.27,4.08,0.41,6.12,0.47C206.09,73.96,204.66,72.75,203.25,71.51z"/>
	<path fill="#7E7D79" d="M72.39,70.94c1.26,0.38,2.52,0.77,3.77,1.15c-0.52,1.86-1.36,3.6-1.92,5.44
		c5.52,1.16,11.32,3.98,13.47,9.56c-1.36,3.79-4.02,6.92-6.26,10.22c-1.35-1.66-3.06-3.3-3.19-5.58c-0.59-3.13,1.03-6.01,2.26-8.76
		c-3.24-1.69-7.05-0.82-10.32-2.17C70.64,77.46,71.64,74.22,72.39,70.94 M78.91,89.04c0.33,2.24,1.28,4.33,2.1,6.44
		c2.22-2.77,4.1-5.79,5.54-9.03c-1.31-1.01-2.61-2.02-3.92-3.03C81.27,85.2,79.58,86.85,78.91,89.04z"/>
	<path fill="#7E7D79" d="M226.37,90.8c0.73-2.16,2.24-3.73,4.39-4.5c0.53,1.56,1.05,3.13,1.57,4.69
		C230.34,90.94,228.35,90.89,226.37,90.8z"/>
	<path fill="#7E7D79" d="M276.41,88.05c1.85-0.15,3.72-0.27,5.58-0.36c-0.04,1.65-0.1,3.3-0.15,4.95
		C279.52,91.78,277.64,90.19,276.41,88.05z"/>
	<path fill="#7E7D79" d="M284.1,88.2c0.99-0.42,1.99-0.84,2.99-1.26c0.71,1.76,1.42,3.52,2.11,5.28c-1.81-0.35-3.6-0.71-5.39-1.09
		C283.88,90.4,284.03,88.93,284.1,88.2z"/>
	<path fill="#7E7D79" d="M220.92,90.67c-0.13-2.08,2.36-2.32,3.7-3.26c0.49,1.66,0.97,3.33,1.44,5.01
		C224.33,91.88,222.59,91.36,220.92,90.67z"/>
	<path fill="#7E7D79" d="M289.67,88.01c1.61,0.06,3.22,0.12,4.84,0.19c-1.1,1.44-2.23,2.86-3.35,4.29
		C290.65,91,290.16,89.5,289.67,88.01z"/>
	<path fill="#7E7D79" d="M95.45,90.98c6.41-1.11,12.96-0.42,19.37,0.26c2.49,0.24,2.48,3.41,3.52,5.13
		c-2.46-0.74-4.88-1.63-7.26-2.61c-0.48,0.21-1.44,0.63-1.92,0.84c-3.33-1-6.02,1.46-9.03,2.36C97.24,96.34,95.95,93.62,95.45,90.98
		z"/>
	<path fill="#7E7D79" d="M137.73,104.18c3.78-3.82,9.13-4.18,14.12-4.94c0.36,0.47,1.07,1.42,1.43,1.89
		C148.18,102.51,142.97,103.52,137.73,104.18z"/>
	<path fill="#7E7D79" d="M277.7,100.44c1.54-0.57,3.09-1.14,4.64-1.69c0.2,1.34,0.47,2.68,0.52,4.05c-0.72,1.59-2.08,2.77-3.18,4.08
		C278.94,104.76,278.29,102.6,277.7,100.44 M280.11,101.34c-1.64-0.08-1.8,2.67-0.09,2.63C281.64,104.06,281.78,101.3,280.11,101.34
		z"/>
	<path fill="#7E7D79" d="M106.13,100.46c1.39-0.46,1.88,0.01,1.47,1.42C106.2,102.34,105.71,101.87,106.13,100.46z"/>
	<path fill="#7E7D79" d="M246.44,100.12c1.4-0.44,1.88,0.04,1.44,1.45C246.48,102,246,101.52,246.44,100.12z"/>
	<path fill="#7E7D79" d="M225.97,114.65c0.26-2.23-0.74-7.26,2.92-6.66C230.8,110.84,228.42,113.32,225.97,114.65z"/>
	<path fill="#7E7D79" d="M98.3,114.38c6.45,1.5,13.14,0.94,19.64,1.99c2.05,0.19,3.36,1.91,4.72,3.24
		c-6.22,0.35-12.35-0.86-18.5-1.56c-4.63-0.64-10.04,1.84-13.69-2.2c2.08,0.06,4.16,0.22,6.23,0.43
		C97.23,115.65,97.77,115.01,98.3,114.38z"/>
	<path fill="#7E7D79" d="M71.42,124.13c1.41-0.44,1.89,0.05,1.45,1.45C71.47,126.01,70.99,125.53,71.42,124.13z"/>
	<path fill="#7E7D79" d="M218.42,131.13c1.4-0.44,1.89,0.04,1.45,1.45C218.47,133.01,217.99,132.53,218.42,131.13z"/>
	<path fill="#7E7D79" d="M263,132.46c1-0.76,2.03-1.49,3.08-2.18c0.84,2.47,1.59,4.96,2.25,7.49c-0.89,0.09-2.65,0.27-3.54,0.36
		C264.14,136.26,263.32,134.43,263,132.46 M265.14,133.56c-1.34,0.95,0.27,3.17,1.58,2.12
		C268.08,134.74,266.43,132.52,265.14,133.56z"/>
	<path fill="#7E7D79" d="M205.33,134.57c1.21,0.4,2.45,0.73,3.61,1.27c0.39,1.19,0.61,2.44,0.88,3.67
		c-1.96,0.19-3.91,0.37-5.87,0.54C204.4,138.22,204.86,136.39,205.33,134.57 M206.3,137.07
		C206.43,140.41,209.28,135.54,206.3,137.07z"/>
	<path fill="#7E7D79" d="M56.25,138.09C59.22,136.54,56.4,141.43,56.25,138.09z"/>
	<path fill="#7E7D79" d="M265.43,147.42c2.49,1.66,4.83,3.69,5.88,6.58c-3.91,2.58-4.74,7.41-7.36,10.99
		c-0.64,0.8-1.2,2.6-2.39,1.39c-0.44-0.87-0.85-1.75-1.21-2.65c-1.58,0.44-3.17,0.88-4.76,1.31c1.43-3.14,2.98-6.21,4.39-9.36
		c2.8-0.99,5.61-1.97,8.39-3.03c-1.85-0.19-3.71-0.35-5.56-0.54C263.68,150.55,264.55,148.98,265.43,147.42 M262.19,158.33
		c0.28,1.08,0.75,2.08,1.2,3.1c0.57-1.65,1.11-3.31,1.64-4.96C264.06,157.05,263.11,157.68,262.19,158.33z"/>
	<path fill="#7E7D79" d="M237.55,157.69c1.42-0.25,2.84-0.52,4.28-0.57c2.49,0.97,4.26,3.09,6.29,4.74
		c4.35,4.17,10.65,6.29,13.13,12.21c-1.36,0.39-2.72,0.79-4.07,1.19c-0.33-1.61-0.65-3.23-0.96-4.84c-2.9-0.12-5.84-0.06-8.66-0.77
		c-1.25-1.6-2.09-3.46-3.04-5.23c-1.12,0.04-2.23,0.04-3.34-0.01C239.53,162.44,238.65,159.97,237.55,157.69 M242.16,160.24
		c-1.7,0.46-0.49,2.92,0.97,2.45C244.81,162.25,243.6,159.74,242.16,160.24 M247.63,165.27c-0.98,1.15,0.91,3.04,2.07,2.05
		C250.68,166.16,248.78,164.26,247.63,165.27z"/>
	<path fill="#7E7D79" d="M94.38,161.7c1.09-1.12,2.19-2.23,3.31-3.32c0.12,0.95,0.36,2.84,0.48,3.79
		C97.22,162.05,95.33,161.81,94.38,161.7z"/>
	<path fill="#7E7D79" d="M107.99,160c0.51,0,1.52,0,2.02,0c0.02,1.33,0.02,2.66,0,3.99c-0.5,0-1.51,0.01-2.02,0.01
		C107.97,162.66,107.97,161.33,107.99,160z"/>
	<path fill="#7E7D79" d="M56.6,162.89c2.42-0.43,4.86-0.76,7.31-1.03c0.18,3.03,0.29,6.06,0.26,9.09c-0.75-0.02-2.25-0.05-3-0.07
		C59.62,168.23,58.08,165.58,56.6,162.89 M58.24,165.06c1.63,1.56,3.27,3.1,4.98,4.58c-0.28-2.41-0.49-5-2.02-6.99
		C60.2,163.44,59.21,164.24,58.24,165.06z"/>
	<path fill="#7E7D79" d="M53.39,167.31c0.94-0.12,2.83-0.35,3.77-0.47c-0.12,0.94-0.35,2.83-0.47,3.77
		C55.58,169.52,54.48,168.42,53.39,167.31z"/>
	<path fill="#7E7D79" d="M49.01,172.42c1.4-0.44,1.88,0.04,1.44,1.44C49.04,174.29,48.56,173.81,49.01,172.42z"/>
	<path fill="#7E7D79" d="M102.3,175.28c1.71-0.54,3.44-1.04,5.17-1.51c-0.55,1.12-1.14,2.22-1.76,3.31
		C104.54,176.55,103.42,175.9,102.3,175.28z"/>
	<path fill="#7E7D79" d="M225.29,174.04c1.8-0.63,2.39,2.34,0.64,2.71C224.14,177.34,223.53,174.41,225.29,174.04z"/>
	<path fill="#7E7D79" d="M78.35,176.27c3.17,1.24,6.4,0.69,9.22-1.12c-0.05,2.68,1.61,6.52-1.48,8.03
		c-1.99,1.17-4.98,1.19-6.29-0.99C78.23,180.62,78.35,178.32,78.35,176.27 M79.39,178.56c0.8,1.19,1.56,2.42,2.52,3.49
		c1.26,0.7,2.82,0.24,4.2,0.35c-0.03-1.43-0.07-2.85-0.13-4.28C83.79,178.3,81.59,178.44,79.39,178.56z"/>
	<path fill="#7E7D79" d="M112.26,183.09C115.24,181.54,112.41,186.42,112.26,183.09z"/>
	<path fill="#7E7D79" d="M70.76,186.02c0.84-0.07,2.53-0.21,3.37-0.28c0.61,4.69,1.65,9.36,1.66,14.11c0.07,1.38-1.06,2.6-2.48,2.04
		C70.8,197.02,70.39,191.41,70.76,186.02 M72.15,188.48c-0.12,1.88-0.23,3.77-0.34,5.65c0.69-0.07,2.09-0.23,2.78-0.31
		C73.79,192.04,72.98,190.25,72.15,188.48 M73.07,196.27C71.53,199.25,76.4,196.41,73.07,196.27z"/>
	<path fill="#7E7D79" d="M147.15,185.95c1.56,0.13,3.03,0.78,4.58,1.05c-1.8,1.54-3.85,2.75-6.1,3.5
		C146.11,188.97,146.55,187.44,147.15,185.95z"/>
	<path fill="#7E7D79" d="M62.3,189.17c0.88-1.4,3.22,0.08,2.13,1.43C63.56,192.01,61.22,190.51,62.3,189.17z"/>
	<path fill="#7E7D79" d="M126.19,192.38c2.63,1.36,4.72,4.05,3.36,7.11c0.11,2.34-2.62,1.79-3.21,0.13
		C124.71,197.45,125.71,194.74,126.19,192.38 M127.19,195.67c-1.47,0.95-0.18,3.93,1.52,2.88
		C130.21,197.6,128.88,194.65,127.19,195.67z"/>
	<path fill="#7E7D79" d="M91.29,198.04c1.8-0.63,2.39,2.34,0.63,2.7C90.13,201.34,89.53,198.41,91.29,198.04z"/>
	<path fill="#7E7D79" d="M64.17,204.17c1.62-0.52,2.18,0.03,1.66,1.66C64.2,206.35,63.65,205.79,64.17,204.17z"/>
	<path fill="#7E7D79" d="M99.86,216.9c3.08,1.9,5.9,4.19,8.42,6.79c3.68,3.73,8.21,6.43,12.2,9.79c3.58,2.91,7.75,4.91,11.69,7.26
		c1.5-0.55,2.97-1.5,4.61-1.46c1.76,0.78,2.61,2.68,3.77,4.09c-2.36-0.06-4.71-0.33-7.03-0.73c2.19,1.67,4.11,3.7,5.01,6.37
		c-5.29-1.58-11.23-2.17-15.51-6c-4.23-3.44-8.35-7.02-12.99-9.9c-5.06-2.86-8.53-7.79-13.68-10.53
		C97.55,220.71,98.73,218.82,99.86,216.9 M102.44,223.08c-0.43,1.4,0.06,1.88,1.46,1.44C104.33,223.11,103.84,222.63,102.44,223.08
		 M108.28,227.69c-1.01,1.16,0.91,3.03,2.05,2.01C111.35,228.54,109.42,226.68,108.28,227.69 M114.69,232.37
		c-1.19,1.2,0.57,3.79,2.09,2.83C118.03,233.99,116.21,231.41,114.69,232.37 M126.28,240.81c0.11,0.64,0.35,1.91,0.46,2.55
		c1.15,0.08,2.29,0.15,3.44,0.21C128.88,242.64,127.58,241.73,126.28,240.81 M131.28,243.08
		C131.43,246.42,134.25,241.53,131.28,243.08z"/>
	<path fill="#7E7D79" d="M89.13,228.15c0.72-1.22,1.62-2.32,2.49-3.44c3.93,2.62,8.35,4.66,11.68,8.07
		c1.11,0.93,0.47,2.52-0.38,3.38c-2.26-1.04-4-2.85-5.8-4.5c-0.46,2.01-0.91,4.02-1.45,6.02C92.31,235.54,89.64,232.19,89.13,228.15
		 M90.58,226.47c0.27,3.28,1.51,6.33,3.47,8.97c1.04-1.87,2.08-3.73,3.12-5.59C95.01,228.64,92.82,227.51,90.58,226.47z"/>
	<path fill="#7E7D79" d="M279.17,227.17c1.62-0.52,2.18,0.03,1.66,1.66C279.2,229.35,278.64,228.79,279.17,227.17z"/>
	<path fill="#7E7D79" d="M135.95,230.44c2.07-0.5,3.59,0.51,4.65,2.26c-0.86,0.1-2.58,0.3-3.44,0.4
		C136.85,232.43,136.25,231.1,135.95,230.44z"/>
	<path fill="#7E7D79" d="M248.15,232.59c2.87-0.08,5.65,0.8,8.4,1.52c-1.85,3.9-4.41,7.46-7.69,10.28c0.79-2.55,1.78-5.03,2.86-7.47
		c-2.61,0.83-5.28,1.49-8.02,1.64C245.03,236.47,246.16,234.13,248.15,232.59 M252.44,235.19c-0.45,1.39,0.02,1.88,1.43,1.47
		C254.33,235.26,253.85,234.77,252.44,235.19z"/>
	<path fill="#7E7D79" d="M83.41,246.21c0.02-4.67-0.66-9.65,1.69-13.92c1.5,5.68,2.13,11.67,0.41,17.39
		C84.68,248.61,83.25,247.74,83.41,246.21z"/>
	<path fill="#7E7D79" d="M292.56,250.49c3.61-4.23,4.06-10.56,9.02-13.7c3.02,5.11,6.11,10.24,8.24,15.8
		c1.73,5.26,1.85,11.02,4.57,15.95c0.77,1.84,2.7,4.58,0.3,6.04c-4.15,4.21-10.41,3-15.71,3.21c-7.26-0.38-14.18,2.46-21.42,2.29
		c-0.3-1.44-0.59-2.87-0.89-4.3c-0.51,1.81-0.88,3.68-1.63,5.42c-1.33,1.23-3.2,1.6-4.82,2.32c-0.71-1.73-1.41-3.46-2.1-5.19
		c7-2.88,9.22-10.49,13.03-16.32c1.4,0.52,2.79,1.05,4.2,1.58C286.18,258.48,289.41,254.4,292.56,250.49 M299.73,244.75
		c1.05,2.03,2.66,4.18,5.11,2.46C303.16,246.34,301.45,245.52,299.73,244.75 M302.79,252.14c0.72,0.02,2.17,0.05,2.89,0.06
		c0.03-1.83,0.06-3.66,0.1-5.49C304.78,248.52,303.77,250.33,302.79,252.14 M296.53,250.84c1.83,1.68,4.27,2.76,5.86,0.12
		C300.43,250.92,298.48,250.78,296.53,250.84 M302.3,255.18c1.26,0.64,2.53,1.29,3.79,1.94c-0.26-1.6-0.51-3.19-0.77-4.79
		C304.3,253.26,303.29,254.21,302.3,255.18 M293.6,255.09c1.43,1.23,2.96,2.36,4.67,3.19C298.19,255.63,295.78,255.09,293.6,255.09
		 M300.33,255.09C300.47,258.42,303.31,253.55,300.33,255.09 M299.77,259.87c1.06,1.16,2.45,1.93,3.89,0.85
		c-0.44-0.7-1.34-2.09-1.79-2.79C301.35,258.41,300.3,259.39,299.77,259.87 M298.89,271.03c0.55-0.03,1.66-0.09,2.21-0.12l0.33-0.57
		c1.39,0.2,2.79,0.39,4.19,0.58c-0.09-1.63-0.8-3.08-2.06-4.12c0.8-1.28,1.63-2.53,2.43-3.8c-1.66,2.12,1.81,2.73,3.13,3.37
		c-0.7-1.64-1.44-3.25-2.21-4.85l0.43-0.7c-0.44-0.53-1.34-1.59-1.78-2.12C302.95,262.59,300.77,266.75,298.89,271.03
		 M292.13,260.13c0.11,0.73,0.31,2.19,0.42,2.92c1.17-0.56,2.34-1.11,3.52-1.67C294.75,260.96,293.44,260.54,292.13,260.13
		 M296.96,262.99c-0.04,0.74-0.13,2.22-0.17,2.96c1.12,0.48,2.25,0.97,3.38,1.46c-0.03-0.81-0.08-2.43-0.11-3.24
		C299.04,263.75,298,263.35,296.96,262.99 M295.16,264.24C293.63,267.22,298.5,264.37,295.16,264.24 M287.74,266.14
		c0.62,0.59,1.85,1.77,2.47,2.37c0.61-1.02,1.25-2.01,1.93-2.98C290.67,265.72,289.2,265.91,287.74,266.14 M281.28,266.28
		c-0.02,0.63-0.05,1.9-0.06,2.53c0.64-0.01,1.93-0.04,2.57-0.05c0-0.61-0.02-1.84-0.03-2.46
		C283.14,266.3,281.9,266.28,281.28,266.28 M307.03,266.53c-0.06,0.91-0.17,2.72-0.23,3.63c1.91-0.68,3.83-1.32,5.75-1.99
		C310.71,267.6,308.87,267.06,307.03,266.53 M294.35,267.4c-0.11,0.96-0.31,2.87-0.42,3.82c0.86-0.14,2.57-0.41,3.42-0.54
		C296.35,269.58,295.35,268.48,294.35,267.4 M286.28,270.33c-1.47,1.37,0.9,3.6,2.17,2.02
		C289.91,270.97,287.54,268.75,286.28,270.33 M306.56,272.91c1.42,0.43,2.86,0.87,4.29,1.3c0.04-1.65,0.09-3.29,0.14-4.93
		C309.51,270.49,308.04,271.71,306.56,272.91 M279.21,271.05c-1.94,0.36-1.25,3.53,0.68,2.9
		C281.85,273.59,281.15,270.41,279.21,271.05 M313.15,271.14c-1.32,0.67-1.34,1.34-0.04,2.03
		C314.43,272.5,314.45,271.82,313.15,271.14 M297.15,271.93c-1.45,0.44-0.65,2.79,0.77,2.11
		C299.35,273.59,298.56,271.24,297.15,271.93 M300.26,271.75c-0.4,1.18-0.78,2.38-1.15,3.57c1.37-0.44,2.75-0.88,4.13-1.32
		C302.25,273.25,301.25,272.5,300.26,271.75 M283.24,274.11c0.03,0.64,0.09,1.94,0.12,2.58c0.63,0.03,1.9,0.08,2.54,0.1
		c-0.19-0.48-0.57-1.44-0.76-1.92C284.66,274.68,283.72,274.3,283.24,274.11 M292.13,274.19c-0.51,1.63,0.05,2.18,1.68,1.64
		C294.31,274.19,293.75,273.64,292.13,274.19z"/>
	<path fill="#7E7D79" d="M268.14,244.31c1.67-0.04,1.54,2.73-0.08,2.65C266.37,246.98,266.51,244.24,268.14,244.31z"/>
	<path fill="#7E7D79" d="M276.13,245.41c1.4-0.43,1.88,0.05,1.44,1.46C276.16,247.3,275.68,246.81,276.13,245.41z"/>
	<path fill="#7E7D79" d="M264.23,248.85c0.98,0.47,1.99,0.85,3.03,1.15c-3.38,3.93-6.13,8.57-10.59,11.42
		C258.5,256.84,261.79,253.09,264.23,248.85z"/>
	<path fill="#7E7D79" d="M96.31,250.02c1.88-0.62,2.69,2.55,0.78,2.96C95.22,253.55,94.39,250.45,96.31,250.02z"/>
	<path fill="#7E7D79" d="M137.2,254.02c1.79,0.29,3.58,0.61,5.37,0.94c-1.46,1.2-2.92,2.39-4.41,3.56
		C137.83,257.02,137.51,255.52,137.2,254.02z"/>
	<path fill="#7E7D79" d="M93.46,255.71c2.27,0.28,4.29,1.31,5.1,3.57C96.1,259.3,94.47,257.82,93.46,255.71z"/>
	<path fill="#7E7D79" d="M123.7,262.81c4.13-3.01,8.9-5.16,13.93-6.15c-1.57,5.39-6.74,8.87-11.98,10.08
		c-1.39,0.49-2.71-0.23-3.93-0.82C122.16,264.76,122.64,263.54,123.7,262.81 M131.1,260.43c-0.46,1.4,0.02,1.89,1.43,1.46
		C132.98,260.49,132.5,260.01,131.1,260.43z"/>
	<path fill="#7E7D79" d="M102.16,258.13c1.3,0.67,1.29,1.35-0.02,2.03C100.84,259.49,100.84,258.81,102.16,258.13z"/>
	<path fill="#7E7D79" d="M94,262c0.75,0,2.25,0,3,0c0,0.75,0,2.25,0,3c-0.76,0-2.26,0.01-3.02,0.01
		C93.99,264.26,93.99,262.75,94,262z"/>
	<path fill="#7E7D79" d="M254.09,262.33C257.43,262.48,252.54,265.3,254.09,262.33z"/>
	<path fill="#7E7D79" d="M268.08,262.42c1.41,0.62,2.85,1.21,4.27,1.85c-1.28,0.99-2.89,1.41-4.12,2.46
		C268.19,265.65,268.12,263.5,268.08,262.42z"/>
	<path fill="#7E7D79" d="M100,265c0.75,0,2.24,0.01,2.99,0.01c0.01,0.75,0.02,2.25,0.02,3c-0.75,0-2.26,0-3.01-0.01
		C100,267.25,100,265.75,100,265z"/>
	<path fill="#7E7D79" d="M250.17,266.17c1.62-0.52,2.18,0.03,1.66,1.66C250.2,268.35,249.65,267.8,250.17,266.17z"/>
	<path fill="#7E7D79" d="M244.67,284.43c2.42,0.76,3.3,2.96,3.79,5.26C246.27,288.65,244.71,286.94,244.67,284.43z"/>
	<path fill="#7E7D79" d="M312.54,289.68c1.48-1.8,3.01-3.56,4.56-5.29c0.99,1.22,2.03,2.41,2.86,3.76c-0.5,1.34-1.15,2.61-1.76,3.9
		C316.31,291.26,314.42,290.48,312.54,289.68 M316.3,287c-1.91,0.43-1.07,3.53,0.8,2.97C319,289.55,318.17,286.39,316.3,287z"/>
	<path fill="#7E7D79" d="M275.28,288.09C278.26,286.55,275.42,291.42,275.28,288.09z"/>
	<path fill="#7E7D79" d="M268.14,289.14c1.41-0.46,1.88,0.01,1.42,1.42C268.15,291.02,267.68,290.54,268.14,289.14z"/>
	<path fill="#7E7D79" d="M129.36,292.34c1.28-0.89,3.62-2.24,4.52-0.2c-0.26,1.75-1.26,3.28-1.74,4.98
		c-0.88-0.02-2.64-0.06-3.53-0.07C128.8,295.5,128.28,293.62,129.36,292.34z"/>
	<path fill="#7E7D79" d="M120.08,292.25c1.78-0.6,2.39,2.33,0.64,2.7C118.91,295.58,118.32,292.61,120.08,292.25z"/>
	<path fill="#7E7D79" d="M287.18,293.3c1.35-1.08,2.84,1.27,1.43,2.14C287.25,296.52,285.78,294.16,287.18,293.3z"/>
	<path fill="#7E7D79" d="M116.13,297.15c1.41-0.47,1.88,0,1.43,1.41C116.16,299.03,115.68,298.55,116.13,297.15z"/>
	<path fill="#7E7D79" d="M120.09,299.28C123.42,299.43,118.54,302.26,120.09,299.28z"/>
	<path fill="#7E7D79" d="M103.08,309.25c1.78-0.6,2.4,2.33,0.64,2.7C101.92,312.58,101.31,309.61,103.08,309.25z"/>
	<path fill="#7E7D79" d="M257.04,336.87c0.59,0.18,1.79,0.54,2.38,0.72c0.19,0.59,0.56,1.78,0.74,2.38
		c-0.77-0.01-2.31-0.03-3.08-0.04C257.07,339.16,257.05,337.63,257.04,336.87z"/>
	<path fill="#7E7D79" d="M311.36,351.1c2.77-1.1,6.07-2.44,8.71-0.22c1.95,0.54,2.69,2.91,0.7,3.98
		C317.2,355.22,313.91,353.44,311.36,351.1z"/>
	<path fill="#FFFFFF" d="M260.55,36.55c-0.99-2.53-1.98-7.97,2.47-7.01c0.75,2.26,1.28,4.58,1.84,6.88
		C263.79,36.46,261.63,36.52,260.55,36.55z"/>
	<path fill="#FFFFFF" d="M223.25,42.98c0.24-3.51,1.42-7.18,5.29-8.03c-0.35,2.03,0.59,4.75-1.4,6.14
		C225.88,41.8,224.59,42.43,223.25,42.98z"/>
	<path fill="#FFFFFF" d="M272.87,37c2.95-1,6.02-1.61,9.14-1.57c-0.55,2.31-2.47,4.25-4.95,4.13C275.58,38.84,274.23,37.9,272.87,37
		z"/>
	<path fill="#FFFFFF" d="M203.25,71.51c1.41,1.24,2.84,2.45,4.2,3.74c-2.04-0.06-4.09-0.2-6.12-0.47
		C201.81,73.97,202.77,72.33,203.25,71.51z"/>
	<path fill="#FFFFFF" d="M257.29,89.09C260.26,87.54,257.43,92.42,257.29,89.09z"/>
	<path fill="#FFFFFF" d="M198.7,105.91c1.39-1.01,2.77-2.12,4.43-2.66c1.09,2.37,1.83,4.89,2.51,7.4
		C203.26,109.17,200.96,107.56,198.7,105.91z"/>
	<path fill="#FFFFFF" d="M66.15,105.34c1.67-0.03,1.53,2.73-0.09,2.64C64.37,108.01,64.52,105.27,66.15,105.34z"/>
	<path fill="#FFFFFF" d="M91.1,148.32C94.44,148.49,89.54,151.29,91.1,148.32z"/>
	<path fill="#FFFFFF" d="M127.19,195.67c1.69-1.02,3.02,1.93,1.52,2.88C127.01,199.6,125.72,196.62,127.19,195.67z"/>
	<path fill="#FFFFFF" d="M120.06,199.31C123.4,199.44,118.53,202.3,120.06,199.31z"/>
	<path fill="#FFFFFF" d="M313.15,271.14c1.3,0.68,1.28,1.36-0.04,2.03C311.81,272.48,311.83,271.81,313.15,271.14z"/>
	<path fill="#010101" d="M270.58,17.22c1.5-5.02,4.33-9.59,7.28-13.9c4.02,2.27,9.6,3.39,11.33,8.25c2.23,5.33,6.18,9.95,7.23,15.74
		c0.45,5.54-1.58,10.86-3.16,16.06c-0.54,4.02,2.21,7.94,0.91,11.98c-0.77,4.35-3.97,7.56-6.63,10.86c1.69,3.64,4.09,6.89,7.27,9.37
		c-0.17,2.14-0.55,4.25-0.81,6.38c1.47,0.74,2.95,1.48,4.44,2.21c0.05,3.28,0.3,6.57-0.08,9.83c-0.56,2.49-2.05,4.64-2.72,7.09
		c-0.24,2.61,0.69,5.14,0.71,7.74c-1.01,4.14-4.59,7.59-3.87,12.12c0.82,7.43,3.21,14.73,7.36,20.98c2.08,6.8,0.42,15.02-4.81,20.06
		c-1.52,1.62-3.32,3.04-4.42,5.01c0.25,3.45,1.02,6.84,1.31,10.28c-2.62,0.67-5.21,1.48-7.75,2.41c1.05,5.65,2.04,11.31,2.86,16.99
		c2.06,2.98,5.01,5.17,7.36,7.9c3.38,3.97,6.92,7.8,10.71,11.37c2.52,2.62,7.57,0.77,9.14,4.62c2.64,5.92,3.74,12.37,5.36,18.61
		c1.27,4.89,5.38,8.41,6.67,13.31c2.17,7.33,4.22,14.83,4.35,22.54c0.32,5.4,3.88,11.27,0.76,16.42
		c-4.52,4.19-11.13,4.59-16.21,7.79c-1.54,3.64-3,7.62-2.57,11.63c1.2,4.16,4.18,7.46,6.04,11.32c3,5.96,6.88,11.5,9.11,17.82
		c1.13,2.93-1.26,5.81-0.84,8.75c1.24,2.74,3.49,5.43,2.53,8.65c-3.47,4.04-8.8,5.75-12.93,8.99c-4.4,2.79-7.51,7.75-12.78,9.04
		c-5.33-0.09-10.64-1.37-15.57-3.36c1.46-3.54,2.56-7.26,4.52-10.57c2.68-3.69,8.18-4.97,9.63-9.57c0.47-7.67,0.35-15.41-0.7-23.02
		c-0.07-5.9-0.83-11.87-3.01-17.38c-1.89-2.92-4.47-5.3-6.72-7.93c-5.95-0.06-12.1-0.83-17.82,1.23c-3.04,1.18-6.25,0.25-9.29-0.41
		c-1.77,3.06-3.26,6.29-4.59,9.58c2.51,3.04,5.34,6.01,6.59,9.85c2.02,7.16,7.35,13.12,7.77,20.79c-2.39-0.19-4.76-0.45-7.13-0.75
		c1.28,2.82,3.32,5.55,3.22,8.8c0.28,1.49-1.58,1.79-2.6,2.11c-3.45,0.83-7.19-0.08-10.49,1.52c-2.97,0.86-6.34,3.42-9.38,1.48
		c-2.96-2.01-4.62-5.35-6.51-8.29c3.26-2.07,7.02-3.43,9.88-6.08c2.67-3.92,1.81-8.96,1.99-13.44c-0.18-4.03,0.59-8.33-1.24-12.08
		c-1.71-3.89-3.98-7.55-5.06-11.69c-0.83-2.63-1.1-5.68-3.32-7.59c-4.02,0.28-8.34,1.74-12.07-0.58c-1.32-1.77,0-4.03,0.59-5.83
		c2.49-5.33,3.44-11.16,5.32-16.7c2.23-7.4,4.64-15.02,3.92-22.84c-0.17-3.75-1.31-7.33-1.94-11c-0.77-5.96-0.2-12.05,1.44-17.82
		c1.21-4.76,3.91-8.94,5.63-13.51c2.78-1.07,5.59-2.08,8.4-3.07c-1.24-3.16-2.74-6.34-2.88-9.78c2.06-1.35,4.57-1.62,6.85-2.45
		c3.73-1.25,6.91-3.63,10-5.98c-3.35-2.45-6.79-4.77-10.31-6.98c-3.77,3.67-7.74,7.64-9.04,12.93c-1.25,5.05-2.19,10.19-3.02,15.33
		c-4.38-0.82-10.41-0.78-12.53-5.46c-2-3.86-2.14-8.4-4.21-12.23c-7.22-0.52-15.65,1-21.6-4.12c-5.24-6.15-6.54-14.72-6.03-22.57
		c-0.48-6.48,2.22-12.96,0.25-19.35c-1.28-4.38-1.06-8.95-1.63-13.41c-2.18-5.22-8.65-6.91-11.11-12.03
		c-3.64-6.32-0.46-13.64,2.85-19.34c-2.53-2.2-5.92-3.93-7-7.33c-0.59-3.35-0.31-6.78-0.43-10.17c1.92-0.47,3.86-0.91,5.8-1.31
		c0.27-2.05,0.14-4.22,0.9-6.16c1.95-2.52,5.19-3.94,6.52-6.92c-1.04-5.19-7.14-7.82-7.87-13.25c-0.72-6.65-1.37-13.31-1.92-19.98
		c-0.09-3.99,1.77-8.27-0.32-12.01c-1.93-3.5-4.33-6.76-5.59-10.61c3.96-3.12,8.55,0.7,11.6,3.36c4.82,5.54,0.19,13.42,3.31,19.61
		c1.95-1.88,4.23-3.64,5.28-6.23c1.84-4.36,1.17-9.22,2.36-13.73c0.39-3,3.43-4.38,5.53-6.1c3.23-2.09,5.42-5.95,9.6-6.24
		c0.99,4.28,1.32,8.71,2.51,12.95c0.75,2.6,3.02,4.28,4.79,6.18c2.71-2.93,5.58-6.35,10.01-6.07c-0.28,2.87-0.87,5.71-1.5,8.53
		c5.49,1.64,11.19,2.49,16.93,2.13c0.17-2.22,0.03-4.51,0.66-6.67c2.01-2.85,5.66-0.58,8.25,0.08c4.11,1.02,7.53,3.52,10.43,6.52
		C272.16,24.66,270.73,21.03,270.58,17.22 M273.57,16.98c0.32,0.62,0.96,1.85,1.27,2.46c1.45-0.95,2.74-2.24,4.42-2.81
		c1.88-0.12,3.77,0.12,5.66,0.19c-0.92-3.6-3.2-6.53-6-8.9C276.98,10.85,275.2,13.87,273.57,16.98 M211.09,12.91
		c-1.24,2.96-2.42,5.94-3.45,8.98c1.28,0.45,2.56,0.89,3.86,1.32c0.66-3.46,1.54-6.87,2.54-10.24
		C213.3,12.95,211.82,12.93,211.09,12.91 M216.53,15.46c1.41,0.61,2.82,1.23,4.24,1.86c-0.13-1.3-0.33-2.59-0.61-3.87
		C218.94,14.11,217.73,14.78,216.53,15.46 M216.58,20.72c-0.32,4.41-1.96,8.6-2.32,12.99c0.94,1.84,2.42,3.33,3.74,4.89
		c2.45-3.26,4.46-6.82,6.27-10.47C221.71,25.66,219.15,23.18,216.58,20.72 M284.99,23.5c-2.93,3.36-2.23,7.76-1.31,11.72
		c1.85,0.51,3.71,1.04,5.58,1.54c0.52-2.91,1.7-6.01,0.15-8.83C288.42,26.09,287.76,22.7,284.99,23.5 M277.32,27.02
		c-1.91,0.43-1.09,3.53,0.78,2.96C280.01,29.57,279.2,26.4,277.32,27.02 M272.13,29.55c-0.94,1.15-0.69,1.8,0.75,1.95
		C273.81,30.35,273.56,29.7,272.13,29.55 M260.55,36.55c1.08-0.03,3.24-0.09,4.31-0.13c-0.56-2.3-1.09-4.62-1.84-6.88
		C258.57,28.58,259.56,34.02,260.55,36.55 M208.03,32.2c-1.23,2.34-2.45,4.68-3.68,7.01c3.6,1.9,7.47,3.4,11.6,3.45
		C214.67,38.28,211.41,35.06,208.03,32.2 M240.28,34.05c-1.77,0.37-1.14,3.3,0.64,2.7C242.68,36.39,242.08,33.42,240.28,34.05
		 M251.22,34.41c-1.45,1.34,0.82,3.66,2.15,2.16C254.82,35.26,252.53,32.96,251.22,34.41 M223.25,42.98
		c1.34-0.55,2.63-1.18,3.89-1.89c1.99-1.39,1.05-4.11,1.4-6.14C224.67,35.8,223.49,39.47,223.25,42.98 M272.87,37
		c1.36,0.9,2.71,1.84,4.19,2.56c2.48,0.12,4.4-1.82,4.95-4.13C278.89,35.39,275.82,36,272.87,37 M202.11,43.17
		c-0.46,1.41,0.01,1.88,1.42,1.42C203.99,43.18,203.51,42.71,202.11,43.17 M194.76,44.83c0.29,2.12,0.69,4.23,1.02,6.36
		c0.94-0.04,2.82-0.12,3.76-0.16c-0.09-1.36-0.12-2.73-0.36-4.08C197.77,46.12,196.24,45.5,194.76,44.83 M201.92,45.59
		c0.04,1.82,0.08,3.63,0.13,5.45c1.29,0.04,2.59,0.02,3.89-0.05c0.47-1.33,0.93-2.66,1.38-3.99
		C205.52,46.51,203.72,46.05,201.92,45.59 M210.54,47.63c-1.46,1.65-2.5,3.61-3.66,5.46c4.08-0.82,8.37-1.26,12.1,1.02
		c-0.01-1.32-0.03-2.65-0.06-3.97C216.21,49.11,213.52,47.52,210.54,47.63 M272.93,54.9c1.81,2,2.91,5.69,6.07,5.65
		c3.43,0.48,7.16-0.74,9.11-3.73c0.97-2.73,0.34-5.7,0.33-8.52C282.83,49,276.18,49.52,272.93,54.9 M264.86,51.32
		c-0.64,2.8-0.19,5.63,0.5,8.37c0.95,3.32-1.03,6.54-0.77,9.85c0.61,2.47,1.81,4.75,2.85,7.06c4.1-2.12,7.76-5.75,8.41-10.51
		c-0.79-2.03-2.49-3.51-3.89-5.11C269.17,58.08,267.46,54.37,264.86,51.32 M198.4,57.46c0.05,0.97,0.14,2.91,0.19,3.88
		c4.03,0.81,8.18,1.63,12.3,1.01c1.81-0.48,4.38-0.96,3.71-3.45C209.66,56.42,203.66,55.39,198.4,57.46 M260.17,60.16
		c-0.53,1.63,0.03,2.19,1.66,1.67C262.35,60.2,261.79,59.64,260.17,60.16 M214.48,67.08c-0.4,2.85,2.14,4.89,3.49,7.1
		c2.56-4.36,5.39-8.95,4.51-14.26C219.34,61.66,216.16,63.79,214.48,67.08 M227.69,65.5c-0.9,3.93-1.65,7.89-2.42,11.85
		c3.57,1.22,7.25,2.12,11.02,2.46c2.14-4.47,2.51-9.41,2.24-14.29C234.92,65.54,231.3,65.53,227.69,65.5 M247.68,66.2
		c-0.16,4.21-0.27,8.42-0.4,12.63c3.87,1.49,8.01,1.87,12.12,1.8c1.84-4.69,1.3-10.28-2.53-13.83
		C253.83,66.3,250.74,66.37,247.68,66.2 M279.28,67.61c-1.33,2.64-2.58,5.32-3.68,8.07c4.05-0.9,8.03,0.08,11.76,1.69
		c0.16-1.8,1.01-3.89-0.25-5.48C285.42,69.17,282.07,68.57,279.28,67.61 M201.71,70.13c-0.56,1.5-1.13,3.01-1.48,4.58
		c2.52,3.98,7.35,1.33,10.72,0.21c0.01-0.61,0.02-1.82,0.03-2.42C207.84,71.88,204.75,71.08,201.71,70.13 M271.16,81.14
		c-1.32,0.68-1.33,1.35-0.02,2.02C272.45,82.48,272.46,81.81,271.16,81.14 M236.28,85.48c-0.57,1.49-1.13,2.98-1.68,4.47
		c0.98-0.04,2.93-0.11,3.9-0.15C237.77,88.36,237.03,86.91,236.28,85.48 M241.25,85.37c-0.13,1.58-0.25,3.17-0.36,4.75
		c1.58-0.12,3.16-0.24,4.74-0.37C244.88,87.63,243.37,86.12,241.25,85.37 M191.52,86.92c0.95,2.09,1.67,4.46,3.45,6.02
		c1.96,1.41,4.25,2.25,6.45,3.22c-0.93-2.2-1.68-4.57-3.24-6.42C196.15,88.4,193.79,87.73,191.52,86.92 M209.59,87
		c-0.9,1.23-1.75,2.49-2.75,3.63c-2.26-1.58-4.66-3.1-7.47-1.77c1.63,1.62,3.24,3.73,5.78,3.75c4.61,0.26,9.23-0.32,13.83-0.53
		c-0.04-1.89-0.1-3.79-0.17-5.68c-2.3,0.83-4.18,2.37-5.69,4.27C211.95,89.44,210.77,88.21,209.59,87 M226.37,90.8
		c1.98,0.09,3.97,0.14,5.96,0.19c-0.52-1.56-1.04-3.13-1.57-4.69C228.61,87.07,227.1,88.64,226.37,90.8 M248.35,86.84
		c-0.42,1.45-0.84,2.9-1.26,4.35c1.54-0.1,3.08-0.2,4.62-0.29c0.47-1.05,0.96-2.09,1.45-3.13
		C251.55,87.45,249.95,87.14,248.35,86.84 M254.99,89.09c-0.62,3.49,4.06,2.73,6.22,2.98c-0.35-1.71-0.22-3.68-1.48-5.06
		C258.05,86.8,254.99,86.77,254.99,89.09 M270.47,90.83c1.47,0.08,2.95,0.15,4.43,0.19c0.38-1.49,0.77-2.98,1.14-4.47
		C273.37,86.89,270.88,87.84,270.47,90.83 M276.41,88.05c1.23,2.14,3.11,3.73,5.43,4.59c0.05-1.65,0.11-3.3,0.15-4.95
		C280.13,87.78,278.26,87.9,276.41,88.05 M284.1,88.2c-0.07,0.73-0.22,2.2-0.29,2.93c1.79,0.38,3.58,0.74,5.39,1.09
		c-0.69-1.76-1.4-3.52-2.11-5.28C286.09,87.36,285.09,87.78,284.1,88.2 M220.92,90.67c1.67,0.69,3.41,1.21,5.14,1.75
		c-0.47-1.68-0.95-3.35-1.44-5.01C223.28,88.35,220.79,88.59,220.92,90.67 M264.08,87.53c-0.04,1.45-0.06,2.9-0.06,4.35
		c1.43,0.45,2.86,0.91,4.3,1.38c0.26-1.37,0.54-2.74,0.66-4.12C267.4,88.43,265.73,87.99,264.08,87.53 M289.67,88.01
		c0.49,1.49,0.98,2.99,1.49,4.48c1.12-1.43,2.25-2.85,3.35-4.29C292.89,88.13,291.28,88.07,289.67,88.01 M261.26,92.05
		C261.36,95.39,264.26,90.54,261.26,92.05 M277.7,100.44c0.59,2.16,1.24,4.32,1.98,6.44c1.1-1.31,2.46-2.49,3.18-4.08
		c-0.05-1.37-0.32-2.71-0.52-4.05C280.79,99.3,279.24,99.87,277.7,100.44 M207.55,100.9c-0.46,2.39,1.64,3.97,2.79,5.78
		c2.37,3,2.41,7.03,3.64,10.52c3.77-4.54,4.39-10.77,2.03-16.11C213.69,98.64,210.3,100.4,207.55,100.9 M246.44,100.12
		c-0.44,1.4,0.04,1.88,1.44,1.45C248.32,100.16,247.84,99.68,246.44,100.12 M252.2,101.05c-1.88,0.37-1.4,3.62,0.61,2.89
		C254.68,103.57,254.2,100.32,252.2,101.05 M257.1,102.33c0.09,2.34,0.28,4.68,0.53,7.01c0.71-0.43,2.12-1.28,2.83-1.71
		C259.5,105.77,258.38,103.99,257.1,102.33 M262.1,111.55c2.88-2.25,3.23-5.81,2.91-9.21C261.04,103.84,261.98,108.18,262.1,111.55
		 M269.41,108.8c-1.99,5.56-5.67,10.96-4.88,17.12c1.38,2.67,4.31,4.1,5.93,6.62c0.7,2.38-0.09,4.89,0.08,7.33
		c1.27,3.05,3.65,5.53,6.08,7.72c1.09,1.29,2.82,1.03,4.3,0.81c2.72-1.68,1.54-5.33,0.64-7.76c-2.64-5.93-3.03-12.54-5.51-18.53
		c-1.04-2.95-2.73-5.83-2.56-9.06c0.18-3.72,1.09-7.36,1.05-11.1C271.1,102.53,270.53,106.12,269.41,108.8 M198.7,105.91
		c2.26,1.65,4.56,3.26,6.94,4.74c-0.68-2.51-1.42-5.03-2.51-7.4C201.47,103.79,200.09,104.9,198.7,105.91 M225.97,114.65
		c2.45-1.33,4.83-3.81,2.92-6.66C225.23,107.39,226.23,112.42,225.97,114.65 M220.13,118.56c0.48,1.73,0.99,3.46,1.5,5.18
		c1.28-0.54,2.55-1.09,3.82-1.64c0.05-0.91,0.14-2.73,0.19-3.65C223.8,118.49,221.96,118.53,220.13,118.56 M285.22,124.41
		c-1.45,1.32,0.81,3.65,2.15,2.16C288.82,125.27,286.54,122.96,285.22,124.41 M212.08,127.38c-1.04,4.94-0.37,10.02,2.26,14.37
		c0.89-1.08,2.58-1.87,2.26-3.52c-0.17-4.17-0.79-8.32-1.34-12.45C214.2,126.31,213.14,126.85,212.08,127.38 M218.42,131.13
		c-0.43,1.4,0.05,1.88,1.45,1.45C220.31,131.17,219.82,130.69,218.42,131.13 M263,132.46c0.32,1.97,1.14,3.8,1.79,5.67
		c0.89-0.09,2.65-0.27,3.54-0.36c-0.66-2.53-1.41-5.02-2.25-7.49C265.03,130.97,264,131.7,263,132.46 M205.33,134.57
		c-0.47,1.82-0.93,3.65-1.38,5.48c1.96-0.17,3.91-0.35,5.87-0.54c-0.27-1.23-0.49-2.48-0.88-3.67
		C207.78,135.3,206.54,134.97,205.33,134.57 M258.53,135.14c-1.07,2.14-2.36,4.28-4.77,5.05c-2.65,0.92-4.43,3-5.33,5.62
		c1.46,0.05,2.93,0.09,4.4,0.12c0.09-1.27,0.19-2.54,0.3-3.81c0.8,0.94,1.6,1.88,2.41,2.82c1.78-1.33,3.71-2.54,5.1-4.31
		c0.78-1.68,0.37-3.63,0.45-5.43C260.45,135.18,259.17,135.16,258.53,135.14 M244.4,147.69c0.93,0.11,2.8,0.34,3.74,0.45
		c-0.12-0.94-0.34-2.8-0.45-3.74C246.57,145.49,245.48,146.58,244.4,147.69 M245.73,154.93c2.35,1.83,4.66,5.29,8.07,4.42
		c3.61-4.27,6.58-9.11,9.04-14.13C256.6,147.39,251.23,151.39,245.73,154.93 M219.65,148.5c-0.72,1.76-1.83,3.44-2.01,5.36
		c0.41,4.29,2.34,8.22,4.3,11.99c5.9-6.07,13.28-11.19,16.75-19.17C232.4,147.75,226.07,148.91,219.65,148.5 M265.43,147.42
		c-0.88,1.56-1.75,3.13-2.62,4.69c1.85,0.19,3.71,0.35,5.56,0.54c-2.78,1.06-5.59,2.04-8.39,3.03c-1.41,3.15-2.96,6.22-4.39,9.36
		c1.59-0.43,3.18-0.87,4.76-1.31c0.36,0.9,0.77,1.78,1.21,2.65c1.19,1.21,1.75-0.59,2.39-1.39c2.62-3.58,3.45-8.41,7.36-10.99
		C270.26,151.11,267.92,149.08,265.43,147.42 M277.19,154.64c1.53,1.58,3.08,3.18,4.85,4.52c1.23-2.07-0.46-4.25-1.31-6.1
		C279.55,153.58,278.39,154.17,277.19,154.64 M237.55,157.69c1.1,2.28,1.98,4.75,3.63,6.72c1.11,0.05,2.22,0.05,3.34,0.01
		c0.95,1.77,1.79,3.63,3.04,5.23c2.82,0.71,5.76,0.65,8.66,0.77c0.31,1.61,0.63,3.23,0.96,4.84c1.35-0.4,2.71-0.8,4.07-1.19
		c-2.48-5.92-8.78-8.04-13.13-12.21c-2.03-1.65-3.8-3.77-6.29-4.74C240.39,157.17,238.97,157.44,237.55,157.69 M230.34,163.17
		c1.2,6.54,3.39,12.87,5.96,18.98l0.81,0.55c2.97-2.83,4.63-6.8,5.48-10.74C239.82,167.54,234.91,165.25,230.34,163.17
		 M282.17,166.16c-0.53,1.63,0.03,2.18,1.66,1.67C284.35,166.2,283.79,165.64,282.17,166.16 M253.16,172.16
		c-0.53,1.62,0.02,2.18,1.66,1.67C255.34,172.2,254.79,171.64,253.16,172.16 M262.12,173.33
		C260.62,176.33,265.45,173.42,262.12,173.33 M225.29,174.04c-1.76,0.37-1.15,3.3,0.64,2.71
		C227.68,176.38,227.09,173.41,225.29,174.04 M245.81,174.9c0.91,1.56,1.82,3.11,2.72,4.68c-1.64-0.2-3.28-0.39-4.92-0.58
		c-0.73,4.13-0.04,8.3,1.26,12.24c4.28-4.03,7.83-8.73,11.21-13.51c-2.26-0.16-4.52,0.01-6.76,0.24c0.21-1.4,0.41-2.79,0.6-4.18
		C248.55,174.15,247.18,174.52,245.81,174.9 M259.92,176.23c2.32,2.63,5.2,4.65,7.78,6.99c3.4-0.01,6.74,0.62,9.97,1.66
		c0.54-2.61-1.75-3.86-3.65-5.01c1.86-0.05,3.73-0.12,5.6-0.2c-0.99-1.36-1.33-4.19-3.61-3.4
		C270.58,177.19,265.25,173.68,259.92,176.23 M227.24,177.89c-0.24,2.34-0.78,4.65-1.08,6.99c0.44,0.32,1.33,0.96,1.77,1.27
		c0.69-2.35,1.36-4.7,2.07-7.05C229.13,178.58,228.21,178.17,227.24,177.89 M278.54,189.4c-0.6,1.4-1.18,2.8-1.75,4.21
		c1.38-0.11,3.1,0.48,4.07-0.84C281.25,191.12,279.48,190.38,278.54,189.4 M274.28,194.08
		C274.42,197.42,277.26,192.55,274.28,194.08 M280.68,215.61c2.26-0.56,4.23-1.84,6.09-3.22c1.4,0.98,2.8,1.96,4.3,2.79
		c0.38-0.9,0.64-1.83,0.77-2.79c-1.57-1.43-3.35-2.6-5.05-3.85C284.45,210.63,282.34,212.95,280.68,215.61 M277.41,216.23
		c-1.46,1.32,0.86,3.59,2.17,2.14C281.06,217.03,278.73,214.78,277.41,216.23 M279.17,227.17c-0.53,1.62,0.03,2.18,1.66,1.66
		C281.35,227.2,280.79,226.65,279.17,227.17 M248.15,232.59c-1.99,1.54-3.12,3.88-4.45,5.97c2.74-0.15,5.41-0.81,8.02-1.64
		c-1.08,2.44-2.07,4.92-2.86,7.47c3.28-2.82,5.84-6.38,7.69-10.28C253.8,233.39,251.02,232.51,248.15,232.59 M255,240.03
		c0.01,0.81,0.02,2.43,0.02,3.23c2.95-1.41,6.2-2.59,8.27-5.28C260.37,236.19,257.6,238.9,255,240.03 M292.56,250.49
		c-3.15,3.91-6.38,7.99-7.21,13.1c-1.41-0.53-2.8-1.06-4.2-1.58c-3.81,5.83-6.03,13.44-13.03,16.32c0.69,1.73,1.39,3.46,2.1,5.19
		c1.62-0.72,3.49-1.09,4.82-2.32c0.75-1.74,1.12-3.61,1.63-5.42c0.3,1.43,0.59,2.86,0.89,4.3c7.24,0.17,14.16-2.67,21.42-2.29
		c5.3-0.21,11.56,1,15.71-3.21c2.4-1.46,0.47-4.2-0.3-6.04c-2.72-4.93-2.84-10.69-4.57-15.95c-2.13-5.56-5.22-10.69-8.24-15.8
		C296.62,239.93,296.17,246.26,292.56,250.49 M280.17,240.18c-0.52,1.62,0.03,2.18,1.66,1.66
		C282.35,240.21,281.8,239.65,280.17,240.18 M268.14,244.31c-1.63-0.07-1.77,2.67-0.08,2.65
		C269.68,247.04,269.81,244.27,268.14,244.31 M276.13,245.41c-0.45,1.4,0.03,1.89,1.44,1.46
		C278.01,245.46,277.53,244.98,276.13,245.41 M264.23,248.85c-2.44,4.24-5.73,7.99-7.56,12.57c4.46-2.85,7.21-7.49,10.59-11.42
		C266.22,249.7,265.21,249.32,264.23,248.85 M254.09,262.33C252.54,265.3,257.43,262.48,254.09,262.33 M268.08,262.42
		c0.04,1.08,0.11,3.23,0.15,4.31c1.23-1.05,2.84-1.47,4.12-2.46C270.93,263.63,269.49,263.04,268.08,262.42 M250.17,266.17
		c-0.52,1.63,0.03,2.18,1.66,1.66C252.35,266.2,251.79,265.65,250.17,266.17 M244.67,284.43c0.04,2.51,1.6,4.22,3.79,5.26
		C247.97,287.39,247.09,285.19,244.67,284.43 M312.54,289.68c1.88,0.8,3.77,1.58,5.66,2.37c0.61-1.29,1.26-2.56,1.76-3.9
		c-0.83-1.35-1.87-2.54-2.86-3.76C315.55,286.12,314.02,287.88,312.54,289.68 M275.28,288.09
		C275.42,291.42,278.26,286.55,275.28,288.09 M268.14,289.14c-0.46,1.4,0.01,1.88,1.42,1.42
		C270.02,289.15,269.55,288.68,268.14,289.14 M263.2,291.23c-1.81,0.41-0.86,3.24,0.82,2.75
		C265.83,293.58,264.87,290.72,263.2,291.23 M282.17,293.16c-0.52,1.63,0.03,2.18,1.66,1.67
		C284.35,293.2,283.8,292.64,282.17,293.16 M287.18,293.3c-1.4,0.86,0.07,3.22,1.43,2.14C290.02,294.57,288.53,292.22,287.18,293.3
		 M257.04,336.87c0.01,0.76,0.03,2.29,0.04,3.06c0.77,0.01,2.31,0.03,3.08,0.04c-0.18-0.6-0.55-1.79-0.74-2.38
		C258.83,337.41,257.63,337.05,257.04,336.87 M311.36,351.1c2.55,2.34,5.84,4.12,9.41,3.76c1.99-1.07,1.25-3.44-0.7-3.98
		C317.43,348.66,314.13,350,311.36,351.1z"/>
	<path fill="#010101" d="M136.81,70.66c2.25-3.8,4.75-7.49,7.49-10.95c0.43-0.16,1.28-0.47,1.7-0.63c3.83,3.27,7.45,6.97,9.65,11.56
		c2.11,4.22,6.99,6.59,8.11,11.39c2.5,7.1-1.45,14.2-5.23,20.01c2.16,5.28,3.1,11.54-0.01,16.66c-1.65,3.13-5.84,5.25-5.06,9.26
		c0.45,3.36,3.52,5.47,5.07,8.31c-0.3,1.98-1.2,3.78-1.88,5.64c2.18,0.92,4.47,1.68,6.44,3.03c1.03,4,0.72,8.4-1.16,12.11
		c-1.75,3.34-1.1,7.16-1.47,10.76c-0.34,4.57-5.26,7.46-5.02,12.16c0,7.03,3.37,13.42,5.32,20.03c1.74,4.6-0.69,9.47,0.68,14.14
		c1.31,6.9-4.15,12.58-9.8,15.56c1.02,3.2,2.94,6.84,1.2,10.14c-1.2,2.94-5.04,1.39-7.46,1.88c0.07,5.94,1.96,11.85,0.89,17.79
		c-1.07,2.64-3.36,4.48-5.24,6.54c-2.82,2.74-4.59,6.55-8.15,8.5c-0.26-1.71-0.5-3.41-0.74-5.11c-2.43,1.26-4.87,2.51-7.26,3.85
		c4.74,3.77,11.53,1.91,16.32,5.57c3.59,2.53,7.4,5.5,8.68,9.9c2.58,9.11,8.23,16.91,11.36,25.8c1.32,2.86-2.15,4.53-3.29,6.75
		c-0.5,1.87-0.51,3.83-0.7,5.75c-2.02,0.54-4.04,1.1-6.05,1.71c1.44,6.14,3.05,12.71,7.78,17.22c3.69,3.35,6.22,7.79,10.02,11.01
		c1.78,1.72,5.54,2.09,5.54,5.05c0.69,3.92-2.85,6.67-5.77,8.56c-4.4,2.63-8.4,5.89-12.89,8.41c-1.64-1.82-4.45-3.31-4.54-5.99
		c1.32-4.09,5.13-6.89,6.39-11.04c-2.67-3.87-7.76-5.34-9.84-9.7c-4.6-8.17-11.45-14.64-18.41-20.77
		c-5.84,4.77-8.03,12.2-11.54,18.58c-2.55,4.35-0.6,9.54-1.87,14.16c-1.01,3.29-4.99,3.44-7.83,3.18
		c-5.05-0.63-10.52,0.98-15.21-1.59c-2.4-1.72-4.81-4.28-4.7-7.43c3.94-3.81,10.17-2.48,14.78-5.1c3.26-1.07,3.42-4.83,3.94-7.65
		c0.66-5.17,1.8-10.33,1.57-15.57c-1.38-1.81-3.46-2.91-4.83-4.73c-0.44-2.32-0.42-4.7-0.58-7.05c-2.64,0.09-5.27,0.15-7.91,0.14
		c-0.7-7.3,2.61-13.95,4.81-20.69c1.04-3.1,2.94-5.82,4.09-8.86c0.9-3.38-0.25-6.88,0.19-10.3c1.29-1.44,2.96-2.45,4.53-3.55
		c2.82,1.72,5.57,3.54,8.19,5.57c1.15-0.95,2.31-1.89,3.48-2.82c-3.45-2.16-7.07-4.41-9.12-8.06c-1.33-1.51-1.85-4.58-4.39-4.15
		c-1.11,2.39-1.89,4.93-2.74,7.43c-4.44-1.01-9.65-1.86-12.34-5.97c-2.71-3.99-1.55-9.31-3.96-13.38
		c-5.39-0.64-11.18,0.95-16.22-1.63c-3.55-1.81-7.57-3.44-10.03-6.7c-3.46-7.92-3.65-16.91-2.41-25.34
		c-0.85-9.94,0.89-19.92-0.2-29.85c-2.2-3.08-7.16-2.85-8.65-6.48c-1.42-3.15-3.29-6.18-3.84-9.64c0.16-5.02,2.7-9.52,5.94-13.23
		c-2.3-2.01-5.48-3.68-6-6.99c-0.67-3.61-1.19-7.25-2.16-10.8c1.98-0.57,3.97-1.09,5.92-1.72c0.04-2.24-0.11-4.51,0.28-6.73
		c3.53-2.69,7.36-5.06,10.27-8.49c-4.93-8.38-9.59-17.77-8.45-27.79c0.01-6.36,5.64-11.02,5.86-17.29
		c-0.96-3.97-3.69-7.77-2.23-11.99c5.05-0.21,7.91,4.27,11.24,7.27c2.62-5.7,8.19-10.11,14.43-11.01c-0.59,3.47-2.95,6.49-3.1,10.01
		c4.3,2.86,9.31,4.47,13.44,7.64c1.49-2.18,2.95-4.39,4.34-6.64c1.58,0.04,3.17,0.09,4.76,0.14c-0.29,3.02-1.02,5.97-1.86,8.88
		c7.62,0.4,15.17,1.63,22.82,1.25c0.28,3.05,0.58,6.15,1.69,9.04c2.85,0.39,4.48-3.12,4.56-5.5c-1.64-3.2-3.87-6.08-5.05-9.51
		c3.71-0.09,9.06-1.41,10.87,2.97c0.62,3.63-0.58,7.95,2.68,10.63c1.34-2.82,3.3-5.8,2.43-9.08
		C138.25,80.38,135.04,75.62,136.81,70.66 M141.47,70.96c0.42,2.74,1.44,5.34,2.3,7.97c3.2-0.5,6.52-1.43,8.68-4.03
		c-0.71-3.48-2.56-7.81-6.4-8.59C144.21,67.48,142.54,69.04,141.47,70.96 M72.39,70.94c-0.75,3.28-1.75,6.52-2.19,9.86
		c3.27,1.35,7.08,0.48,10.32,2.17c-1.23,2.75-2.85,5.63-2.26,8.76c0.13,2.28,1.84,3.92,3.19,5.58c2.24-3.3,4.9-6.43,6.26-10.22
		c-2.15-5.58-7.95-8.4-13.47-9.56c0.56-1.84,1.4-3.58,1.92-5.44C74.91,71.71,73.65,71.32,72.39,70.94 M151.84,78.94
		c-2.17,4.43-1.63,9.49,0.8,13.67c0.92-0.04,2.76-0.13,3.68-0.17c0.39-2.13,0.99-4.24,1.1-6.41
		C156.59,83.01,153.97,81.03,151.84,78.94 M63.08,87.2c-1.37,2.33-1.48,5.11-1.75,7.73c1.94-0.83,4.2-1.28,5.72-2.85
		c2.07-2.93,1.35-6.71,1.3-10.06C66.49,83.63,64.5,85.16,63.08,87.2 M144.32,83.4c-0.11,0.94-0.34,2.8-0.45,3.73
		c0.93-0.11,2.79-0.34,3.72-0.45C146.51,85.58,145.42,84.49,144.32,83.4 M66.42,98.06c3.9,1.41,7.85,2.73,11.89,3.67
		c-3.34-5.34-4.16-11.55-4.27-17.72C72.28,89.09,70.4,94.25,66.42,98.06 M95.45,90.98c0.5,2.64,1.79,5.36,4.68,5.98
		c3.01-0.9,5.7-3.36,9.03-2.36c0.48-0.21,1.44-0.63,1.92-0.84c2.38,0.98,4.8,1.87,7.26,2.61c-1.04-1.72-1.03-4.89-3.52-5.13
		C108.41,90.56,101.86,89.87,95.45,90.98 M144.25,92.89c-2.04,1.47-3.55,3.52-5.09,5.47c3.44-0.6,6.89-1.23,10.21-2.33
		C150.61,93.04,146.34,91.54,144.25,92.89 M85.05,101.6c1.85-0.43,3.7-0.9,5.54-1.35c-0.1-2.08-0.21-4.16-0.35-6.24
		C87.76,95.96,85.34,98.26,85.05,101.6 M137.73,104.18c5.24-0.66,10.45-1.67,15.55-3.05c-0.36-0.47-1.07-1.42-1.43-1.89
		C146.86,100,141.51,100.36,137.73,104.18 M94.93,100.8c-2.11,2.37-2.19,5.74-2.77,8.69c2.93,0.01,5.88,0.23,8.78-0.21
		c2.74-1.98,1.14-5.93,1.6-8.8C100.01,100.5,97.38,99.97,94.93,100.8 M106.13,100.46c-0.42,1.41,0.07,1.88,1.47,1.42
		C108.01,100.47,107.52,100,106.13,100.46 M55.85,100.7c0.17,2.81,0.42,5.61,0.6,8.42c3.15,0.28,6.37,0.94,9.49,0.23
		c1.42-0.75,2.48-2,3.65-3.05c0.22,0.17,0.65,0.49,0.87,0.66c-0.44,1.22-0.89,2.45-1.33,3.67c4.52,1.08,9.04,2.21,13.6,3.13
		c-0.29-1.9,0.32-4.6-1.84-5.57c-5.75-3.05-12.27-4.19-18.6-5.44c0.54,1.55,1.08,3.11,1.6,4.67
		C61.18,105.22,58.54,102.93,55.85,100.7 M111.52,100.48c0,3.29,0,6.58-0.08,9.87c3.74,2.19,8.07,2.43,12.3,2.14
		c-1.07-3.98-1.77-8.15-3.7-11.83C117.21,100.36,114.36,100.49,111.52,100.48 M133.85,103.85c0.12,0.94,0.35,2.82,0.47,3.76
		c1.1-1.09,2.2-2.18,3.28-3.29C136.66,104.2,134.79,103.97,133.85,103.85 M138.26,109.96c0.49,2.53,0.64,5.31,2.15,7.49
		c1.74,3,5.65,2.07,8.53,1.94c5.1-0.97,6.56-6.54,7.93-10.77C150.8,105.66,144.33,108.77,138.26,109.96 M60.52,113.34
		c-0.02,0.99-0.06,2.99-0.08,3.98c5.32,4.34,13.15,4.35,18.76,0.53C73.82,114,66.88,113.76,60.52,113.34 M98.3,114.38
		c-0.53,0.63-1.07,1.27-1.6,1.9c-2.07-0.21-4.15-0.37-6.23-0.43c3.65,4.04,9.06,1.56,13.69,2.2c6.15,0.7,12.28,1.91,18.5,1.56
		c-1.36-1.33-2.67-3.05-4.72-3.24C111.44,115.32,104.75,115.88,98.3,114.38 M130.93,113.08c-0.19,4.43-1.12,8.75-2.23,13.02
		c-0.89,3.03,0.79,5.84,2.03,8.48c2.37-1.93,4.98-3.61,7.15-5.78c1.28-1.38,2.41-3.66,1.1-5.38
		C136.42,119.87,133.65,116.49,130.93,113.08 M124.09,118.28C122.55,121.26,127.42,118.42,124.09,118.28 M75.21,124.51
		c-0.05,3.35,1.32,6.39,3.68,8.74c2.26-2.65,4.74-5.23,6.17-8.45c0.74-2.18,0.33-4.55,0.43-6.8
		C81.73,119.61,78.45,122.06,75.21,124.51 M71.42,124.13c-0.43,1.4,0.05,1.88,1.45,1.45C73.31,124.18,72.83,123.69,71.42,124.13
		 M90.79,123.43c-1.75,4.29-3.5,8.57-5.27,12.84c4.1,1.21,9.34,5.37,13.02,1.22c2.18-3.94,2.4-8.64,3.3-12.99
		C98.25,123.45,94.5,123.38,90.79,123.43 M110.8,124.44c-0.36,4.71-1.62,9.28-2.6,13.88c4.64,1.33,9.48,1.45,14.26,1.21
		c0.03-4.62,0.04-9.23,0.02-13.85C118.64,124.81,114.73,124.36,110.8,124.44 M63.87,126.15c-1,2.31-1.95,4.65-2.8,7.02
		c4.2,1.2,8.68,2,12.86,0.24c-0.75-1.36-1.48-2.73-2.32-4.03C70.15,126.61,66.5,126.9,63.87,126.15 M138.77,133.17
		c2.78,2.54,6.38,4.25,10.21,3.16c3.2-2.21,0.14-5.52-0.76-8.14C144.2,127.87,141.17,130.21,138.77,133.17 M56.25,138.09
		C56.4,141.43,59.22,136.54,56.25,138.09 M77.02,140.01c0,0.75,0,2.24,0,2.98c1.32,0.02,2.65,0.02,3.98,0.02
		c0-0.76-0.01-2.26-0.02-3.01C79.66,139.99,78.34,139.99,77.02,140.01 M131.41,140.32c1.08,1.1,2.17,2.19,3.27,3.27
		c0.12-0.93,0.35-2.8,0.47-3.73C134.21,139.97,132.34,140.21,131.41,140.32 M51.44,145.35c0.48,2.81,0.86,5.64,1.04,8.49
		c5.75-0.3,11.45-1.14,17.12-2.16c5.44-1,10.88,0.91,16.34,0.23c3.33-0.35,6.69-0.61,10.04-0.26c-1.14-1.84-2.22-3.73-3.3-5.61
		c-4.9,0.57-9.82,0.23-14.73,0.31c-1.96-0.06-2.92,1.98-4.21,3.13c-2.07-1.89-4.31-4.55-7.45-3.91
		C61.37,146.41,56.27,147.07,51.44,145.35 M102.31,144.8c0.2,1.42,0.42,2.83,0.64,4.25c-2.01-1.65-4.31-2.89-6.84-3.52
		c0.02,1.74,0.06,3.47,0.1,5.21c4.01,0.04,8.03,0.26,11.97,1c5.07,0.96,10.28-0.11,15.34,0.96c2.91,0.61,5.89,0.62,8.82,0.27
		c5-0.84,10.12,1.05,14.98-0.88c-0.91-1.92-1.82-3.83-2.77-5.72c-1.55,1.16-3.1,2.31-4.67,3.44c-1.09-1.45-2.19-2.89-3.31-4.3
		c-0.93,1.77-1.85,3.54-2.75,5.33c-1.26-1.32-2.52-2.64-3.79-3.94c-1.66,1.49-3.31,3-4.99,4.47c0.47-1.63,0.98-3.24,1.47-4.86
		C118.34,148.25,110.4,145.29,102.31,144.8 M148.24,147.36c-0.1,0.97-0.32,2.9-0.42,3.86c3.34,1.51,6.96,1.6,10.28-0.04
		c-0.03-0.81-0.09-2.43-0.12-3.24c-1.24-0.01-2.47,0.1-3.69,0.33c-0.07,0.55-0.21,1.65-0.28,2.2
		C152.11,149.4,150.19,148.35,148.24,147.36 M66.35,159.45c2.95,5.17,4.14,11.01,5.54,16.73c5.05-3.91,4.27-10.86,4.75-16.54
		C73.28,158.55,69.71,158.12,66.35,159.45 M94.38,161.7c0.95,0.11,2.84,0.35,3.79,0.47c-0.12-0.95-0.36-2.84-0.48-3.79
		C96.57,159.47,95.47,160.58,94.38,161.7 M144.01,158.96c0,1.69,0,3.38,0,5.08c1.38-0.04,2.76-0.09,4.14-0.15
		c0.01-1.59,0.01-3.19,0-4.78C146.77,159.04,145.39,158.99,144.01,158.96 M107.99,160c-0.02,1.33-0.02,2.66,0,4
		c0.51,0,1.52-0.01,2.02-0.01c0.02-1.33,0.02-2.66,0-3.99C109.51,160,108.5,160,107.99,160 M133.7,164.81
		c-3.98,7.48-5.71,15.82-7.27,24.06c2.45,1.81,5.19,3.37,7.06,5.84c2.24,2.6-0.45,5.83-1.16,8.52c2.61,4.64,6.93,8.06,12.34,8.64
		c-2.19-11.31-3.5-22.89-7.54-33.75c-2.43-6.13,2.83-11.98,1.26-18.23C136.71,161.4,134.84,162.81,133.7,164.81 M56.6,162.89
		c1.48,2.69,3.02,5.34,4.57,7.99c0.75,0.02,2.25,0.05,3,0.07c0.03-3.03-0.08-6.06-0.26-9.09C61.46,162.13,59.02,162.46,56.6,162.89
		 M119.7,170.71c1.36-2.94,2.18-6.09,2.37-9.33C119.06,163.46,116.62,167.54,119.7,170.71 M122.83,172.57
		c4.42-1.83,5.82-6.76,5.38-11.14C124.8,164.15,122.94,168.23,122.83,172.57 M152,162.91c-0.43,1.23-0.86,2.47-1.27,3.72
		c2.12-0.02,4.24,0.03,6.37,0.07c-0.07-0.62-0.21-1.85-0.29-2.47C155.21,163.79,153.6,163.35,152,162.91 M93.28,163.33
		c-0.53,1.7-1.03,3.41-1.51,5.13c1.12-0.56,2.22-1.14,3.3-1.76C94.55,165.54,93.9,164.44,93.28,163.33 M53.39,167.31
		c1.09,1.11,2.19,2.21,3.3,3.3c0.12-0.94,0.35-2.83,0.47-3.77C56.22,166.96,54.33,167.19,53.39,167.31 M85.36,169.41
		c-0.36,1.68-0.41,3.4-0.53,5.12c1.35-0.57,2.82-0.97,4.01-1.87c0.24-2.08,0.14-4.19,0.1-6.27
		C87.72,167.34,86.21,168.06,85.36,169.41 M49.01,172.42c-0.45,1.39,0.03,1.87,1.44,1.44C50.89,172.46,50.41,171.98,49.01,172.42
		 M102.3,175.28c1.12,0.62,2.24,1.27,3.41,1.8c0.62-1.09,1.21-2.19,1.76-3.31C105.74,174.24,104.01,174.74,102.3,175.28
		 M78.35,176.27c0,2.05-0.12,4.35,1.45,5.92c1.31,2.18,4.3,2.16,6.29,0.99c3.09-1.51,1.43-5.35,1.48-8.03
		C84.75,176.96,81.52,177.51,78.35,176.27 M112.26,183.09C112.41,186.42,115.24,181.54,112.26,183.09 M70.76,186.02
		c-0.37,5.39,0.04,11,2.55,15.87c1.42,0.56,2.55-0.66,2.48-2.04c-0.01-4.75-1.05-9.42-1.66-14.11
		C73.29,185.81,71.6,185.95,70.76,186.02 M147.15,185.95c-0.6,1.49-1.04,3.02-1.52,4.55c2.25-0.75,4.3-1.96,6.1-3.5
		C150.18,186.73,148.71,186.08,147.15,185.95 M62.3,189.17c-1.08,1.34,1.26,2.84,2.13,1.43C65.52,189.25,63.18,187.77,62.3,189.17
		 M78.17,190.32c-1.48,0.99,0.19,3.52,1.64,2.35C81.29,191.67,79.63,189.14,78.17,190.32 M126.19,192.38
		c-0.48,2.36-1.48,5.07,0.15,7.24c0.59,1.66,3.32,2.21,3.21-0.13C130.91,196.43,128.82,193.74,126.19,192.38 M118.26,201.7
		c-1.89-0.19-3.8-0.61-5.69-0.27c-2.72,2.15-5.1,4.83-8.44,6.06c-0.03,0.68-0.08,2.04-0.11,2.72c6.46-2.23,14.05-3.11,18.68-8.71
		c0.27-2.4-0.56-4.75-1-7.09C118.83,195.83,117.89,198.68,118.26,201.7 M64.55,196.08c-1,1.27,1.16,2.99,2.12,1.63
		C67.7,196.42,65.53,194.73,64.55,196.08 M91.29,198.04c-1.76,0.37-1.16,3.3,0.63,2.7C93.68,200.38,93.09,197.41,91.29,198.04
		 M64.17,204.17c-0.52,1.62,0.03,2.18,1.66,1.66C66.35,204.2,65.79,203.65,64.17,204.17 M106.13,216.1c2.28,2.51,4.83,4.76,7.69,6.6
		c3.93-4.73,7.74-9.67,9.97-15.47C117.58,209.5,112.04,213.2,106.13,216.1 M75.59,210.04c-0.33,6.36,1.51,12.83,5.47,17.86
		c5.72-6.27,11.66-12.39,16.71-19.24c-5.6-0.21-11.2-0.22-16.8-0.2C79.08,208.56,76.85,208.29,75.59,210.04 M124.91,216.13
		c-4.57,2.38-6.86,7.21-8.3,11.91c1.7-0.56,3.4-1.13,5.08-1.74c-0.15,1.24-0.32,2.48-0.46,3.73c0.98-0.09,1.96-0.18,2.95-0.26
		c2.67-5.29,5.94-10.29,9.92-14.68c-0.53-0.29-1.61-0.88-2.15-1.17c-1.25,0.79-2.5,1.58-3.75,2.37c0.25-1.94,0.47-3.89,0.67-5.84
		C125.83,210.88,125.09,213.48,124.91,216.13 M139.6,217.18c1.45,1.77,2.93,3.53,4.46,5.24c-0.23-2.27-0.5-4.52-0.81-6.77
		C142.03,216.15,140.81,216.66,139.6,217.18 M99.86,216.9c-1.13,1.92-2.31,3.81-3.51,5.68c5.15,2.74,8.62,7.67,13.68,10.53
		c4.64,2.88,8.76,6.46,12.99,9.9c4.28,3.83,10.22,4.42,15.51,6c-0.9-2.67-2.82-4.7-5.01-6.37c2.32,0.4,4.67,0.67,7.03,0.73
		c-1.16-1.41-2.01-3.31-3.77-4.09c-1.64-0.04-3.11,0.91-4.61,1.46c-3.94-2.35-8.11-4.35-11.69-7.26c-3.99-3.36-8.52-6.06-12.2-9.79
		C105.76,221.09,102.94,218.8,99.86,216.9 M127.59,230.04c-1.22,3.67,3.43,4.47,5.68,5.99c1.47-4.89,1.43-10.04,0.96-15.08
		C131.58,223.61,129.01,226.52,127.59,230.04 M89.13,228.15c0.51,4.04,3.18,7.39,6.54,9.53c0.54-2,0.99-4.01,1.45-6.02
		c1.8,1.65,3.54,3.46,5.8,4.5c0.85-0.86,1.49-2.45,0.38-3.38c-3.33-3.41-7.75-5.45-11.68-8.07
		C90.75,225.83,89.85,226.93,89.13,228.15 M142.24,229.34c1.12,1.46,2.22,2.94,3.3,4.43c0.23-1.65,0.45-3.3,0.66-4.95
		C145.21,228.95,143.23,229.21,142.24,229.34 M135.95,230.44c0.3,0.66,0.9,1.99,1.21,2.66c0.86-0.1,2.58-0.3,3.44-0.4
		C139.54,230.95,138.02,229.94,135.95,230.44 M83.41,246.21c-0.16,1.53,1.27,2.4,2.1,3.47c1.72-5.72,1.09-11.71-0.41-17.39
		C82.75,236.56,83.43,241.54,83.41,246.21 M142.16,235.17c-0.51,1.63,0.04,2.18,1.67,1.66C144.34,235.2,143.79,234.65,142.16,235.17
		 M107.54,236.11c-2.02,4.54-7.51,7.15-7.72,12.49c1.59,1.64,3.48,2.96,5.29,4.35c3.31-4.35,6.88-8.49,10.23-12.8
		c-1.96,0.22-3.92,0.46-5.88,0.71c0.14-1.62,0.27-3.25,0.4-4.87C109.28,236.02,108.12,236.08,107.54,236.11 M147.22,236.41
		c-1.45,1.33,0.81,3.65,2.15,2.16C150.82,237.26,148.53,234.95,147.22,236.41 M116.13,245.32c-2.31,4.16-4.93,8.16-7.83,11.94
		c1.54,0.69,3.07,1.43,4.69,1.92c5.86-1.51,11.3-4.32,16.92-6.53C125.64,249.64,120.84,247.52,116.13,245.32 M96.31,250.02
		c-1.92,0.43-1.09,3.53,0.78,2.96C99,252.57,98.19,249.4,96.31,250.02 M137.2,254.02c0.31,1.5,0.63,3,0.96,4.5
		c1.49-1.17,2.95-2.36,4.41-3.56C140.78,254.63,138.99,254.31,137.2,254.02 M93.46,255.71c1.01,2.11,2.64,3.59,5.1,3.57
		C97.75,257.02,95.73,255.99,93.46,255.71 M123.7,262.81c-1.06,0.73-1.54,1.95-1.98,3.11c1.22,0.59,2.54,1.31,3.93,0.82
		c5.24-1.21,10.41-4.69,11.98-10.08C132.6,257.65,127.83,259.8,123.7,262.81 M102.16,258.13c-1.32,0.68-1.32,1.36-0.02,2.03
		C103.45,259.48,103.46,258.8,102.16,258.13 M94,262c-0.01,0.75-0.01,2.26-0.02,3.01c0.76,0,2.26-0.01,3.02-0.01c0-0.75,0-2.25,0-3
		C96.25,262,94.75,262,94,262 M100,265c0,0.75,0,2.25,0,3c0.75,0.01,2.26,0.01,3.01,0.01c0-0.75-0.01-2.25-0.02-3
		C102.24,265.01,100.75,265,100,265 M119.17,266.17c-0.52,1.62,0.03,2.18,1.66,1.66C121.35,266.2,120.79,265.64,119.17,266.17
		 M136.2,287.5c-0.04,0.98-0.12,2.92-0.16,3.89c1.51-0.55,3.01-1.11,4.51-1.67C139.1,288.97,137.65,288.23,136.2,287.5
		 M129.36,292.34c-1.08,1.28-0.56,3.16-0.75,4.71c0.89,0.01,2.65,0.05,3.53,0.07c0.48-1.7,1.48-3.23,1.74-4.98
		C132.98,290.1,130.64,291.45,129.36,292.34 M120.08,292.25c-1.76,0.36-1.17,3.33,0.64,2.7
		C122.47,294.58,121.86,291.65,120.08,292.25 M143.11,293.57c-0.96,1.12-0.72,1.76,0.73,1.93
		C144.79,294.37,144.55,293.73,143.11,293.57 M116.13,297.15c-0.45,1.4,0.03,1.88,1.43,1.41
		C118.01,297.15,117.54,296.68,116.13,297.15 M140.89,301.84c0.84,0.74,1.83,1.14,2.96,1.19c1.8-1.45,0.41-3.81,0.29-5.68
		C142.91,298.72,141.3,299.95,140.89,301.84 M120.09,299.28C118.54,302.26,123.42,299.43,120.09,299.28 M129.07,298.78
		c-0.01,0.76-0.02,2.28-0.03,3.04c2.9,1.52,5.82,3.02,8.78,4.44c0.48-0.99,0.96-1.98,1.43-2.97
		C135.75,302.05,132.33,300.56,129.07,298.78 M119.54,306.54c-1,1.73-1.98,3.47-2.96,5.22c-1.66-0.57-3.32-1.14-5-1.68
		c0.86,2.24,1.79,4.45,2.78,6.64c1.79-1.59,3.47-3.28,5.11-5.02c1.51,0.86,3.02,1.74,4.54,2.6c-3.53,1.86-6.67,4.35-9.56,7.09
		c3.41-0.84,6.92-1.24,10.42-0.85c0.13-1.54,0.26-3.07,0.4-4.6c0.98,0.11,1.96,0.23,2.94,0.36c0.23,2.06,0.43,4.13,0.77,6.19
		c2.99-1.86,4.83-4.85,6.13-8.04c-1.89,0.42-3.76,0.9-5.63,1.37c0.02-1.98,0.04-3.96,0.12-5.94c-1.2,0.65-2.39,1.3-3.59,1.96
		C123.91,310.01,121.76,308.23,119.54,306.54 M103.08,309.25c-1.77,0.36-1.16,3.33,0.64,2.7
		C105.48,311.58,104.86,308.65,103.08,309.25 M135.73,311.04c1.57,2.41,3.17,4.8,4.62,7.29c-1.86,0.59-3.73,1.17-5.59,1.78
		c0.78,0.92,1.57,1.84,2.37,2.76c2.62-1.51,5.41-2.76,7.79-4.62c1.14-1.39,1.49-3.24,2.16-4.86
		C143.16,313.43,139.34,312.54,135.73,311.04z"/>
	<path fill="#010101" d="M65.13,148.13c1.63-0.52,2.18,0.03,1.67,1.66C65.17,150.31,64.61,149.76,65.13,148.13z"/>
	<path fill="#010101" d="M80.09,148.19c1.62-0.53,2.17,0.02,1.66,1.66C80.13,150.37,79.58,149.82,80.09,148.19z"/>
	<path fill="#010101" d="M87,148.35c1.32-1.06,2.88,1.21,1.52,2.13C87.2,151.55,85.63,149.26,87,148.35z"/>
	<path fill="#010101" d="M109.15,147.87c1.57-0.72,2.46,1.91,0.85,2.39C108.42,150.97,107.54,148.35,109.15,147.87z"/>
	<path fill="#010101" d="M116.09,148.52c1.3-1.05,2.9,1.19,1.56,2.13C116.34,151.71,114.75,149.46,116.09,148.52z"/>
	<path fill="#010101" d="M58.28,149.11c1.02-1.5,3.47,0.27,2.32,1.7C59.57,152.31,57.13,150.53,58.28,149.11z"/>
	<path fill="#010101" d="M262.19,158.33c0.92-0.65,1.87-1.28,2.84-1.86c-0.53,1.65-1.07,3.31-1.64,4.96
		C262.94,160.41,262.47,159.41,262.19,158.33z"/>
	<path fill="#010101" d="M242.16,160.24c1.44-0.5,2.65,2.01,0.97,2.45C241.67,163.16,240.46,160.7,242.16,160.24z"/>
	<path fill="#010101" d="M247.63,165.27c1.15-1.01,3.05,0.89,2.07,2.05C248.54,168.31,246.65,166.42,247.63,165.27z"/>
	<path fill="#010101" d="M245.69,182.73c1.16-0.65,2.31-1.31,3.48-1.95c-0.58,1.51-1.13,3.04-1.72,4.55
		C247.01,184.68,246.13,183.38,245.69,182.73z"/>
	<path fill="#010101" d="M112.18,204.24c1.62-0.54,2.18,0.01,1.68,1.65C112.23,206.42,111.68,205.87,112.18,204.24z"/>
	<path fill="#010101" d="M125.3,219.55c1.88,0.49,0.69,3.51-1.01,3.17C122.43,222.2,123.61,219.24,125.3,219.55z"/>
	<path fill="#010101" d="M102.44,223.08c1.4-0.45,1.89,0.03,1.46,1.44C102.5,224.96,102.01,224.48,102.44,223.08z"/>
	<path fill="#010101" d="M108.28,227.69c1.14-1.01,3.07,0.85,2.05,2.01C109.19,230.72,107.27,228.85,108.28,227.69z"/>
	<path fill="#010101" d="M114.69,232.37c1.52-0.96,3.34,1.62,2.09,2.83C115.26,236.16,113.5,233.57,114.69,232.37z"/>
	<path fill="#010101" d="M126.28,240.81c1.3,0.92,2.6,1.83,3.9,2.76c-1.15-0.06-2.29-0.13-3.44-0.21
		C126.63,242.72,126.39,241.45,126.28,240.81z"/>
	<path fill="#010101" d="M105.86,242.9c0.62,0.48,1.86,1.46,2.48,1.94c-1.4,0.85-2.79,1.71-4.18,2.58
		C104.73,245.91,105.3,244.4,105.86,242.9z"/>
	<path fill="#010101" d="M299.73,244.75c1.72,0.77,3.43,1.59,5.11,2.46C302.39,248.93,300.78,246.78,299.73,244.75z"/>
	<path fill="#010101" d="M296.53,250.84c1.95-0.06,3.9,0.08,5.86,0.12C300.8,253.6,298.36,252.52,296.53,250.84z"/>
	<path fill="#010101" d="M302.3,255.18c0.99-0.97,2-1.92,3.02-2.85c0.26,1.6,0.51,3.19,0.77,4.79
		C304.83,256.47,303.56,255.82,302.3,255.18z"/>
	<path fill="#010101" d="M293.6,255.09c2.18,0,4.59,0.54,4.67,3.19C296.56,257.45,295.03,256.32,293.6,255.09z"/>
	<path fill="#010101" d="M299.77,259.87c0.53-0.48,1.58-1.46,2.1-1.94c0.45,0.7,1.35,2.09,1.79,2.79
		C302.22,261.8,300.83,261.03,299.77,259.87z"/>
	<path fill="#010101" d="M131.1,260.43c1.4-0.42,1.88,0.06,1.43,1.46C131.12,262.32,130.64,261.83,131.1,260.43z"/>
	<path fill="#010101" d="M292.13,260.13c1.31,0.41,2.62,0.83,3.94,1.25c-1.18,0.56-2.35,1.11-3.52,1.67
		C292.44,262.32,292.24,260.86,292.13,260.13z"/>
	<path fill="#010101" d="M305.99,263c0.23-0.37,0.69-1.11,0.92-1.48c0.77,1.6,1.51,3.21,2.21,4.85
		C307.8,265.73,304.33,265.12,305.99,263z"/>
	<path fill="#010101" d="M296.96,262.99c1.04,0.36,2.08,0.76,3.1,1.18c0.03,0.81,0.08,2.43,0.11,3.24
		c-1.13-0.49-2.26-0.98-3.38-1.46C296.83,265.21,296.92,263.73,296.96,262.99z"/>
	<path fill="#010101" d="M287.74,266.14c1.46-0.23,2.93-0.42,4.4-0.61c-0.68,0.97-1.32,1.96-1.93,2.98
		C289.59,267.91,288.36,266.73,287.74,266.14z"/>
	<path fill="#010101" d="M281.28,266.28c0.62,0,1.86,0.02,2.48,0.02c0.01,0.62,0.03,1.85,0.03,2.46c-0.64,0.01-1.93,0.04-2.57,0.05
		C281.23,268.18,281.26,266.91,281.28,266.28z"/>
	<path fill="#010101" d="M301.43,270.34c0.69-1.19,1.4-2.37,2.13-3.54c1.26,1.04,1.97,2.49,2.06,4.12
		C304.22,270.73,302.82,270.54,301.43,270.34z"/>
	<path fill="#010101" d="M294.35,267.4c1,1.08,2,2.18,3,3.28c-0.85,0.13-2.56,0.4-3.42,0.54
		C294.04,270.27,294.24,268.36,294.35,267.4z"/>
	<path fill="#010101" d="M306.56,272.91c1.48-1.2,2.95-2.42,4.43-3.63c-0.05,1.64-0.1,3.28-0.14,4.93
		C309.42,273.78,307.98,273.34,306.56,272.91z"/>
	<path fill="#010101" d="M279.21,271.05c1.94-0.64,2.64,2.54,0.68,2.9C277.96,274.58,277.27,271.41,279.21,271.05z"/>
	<path fill="#010101" d="M300.26,271.75c0.99,0.75,1.99,1.5,2.98,2.25c-1.38,0.44-2.76,0.88-4.13,1.32
		C299.48,274.13,299.86,272.93,300.26,271.75z"/>
	<path fill="#010101" d="M283.24,274.11c0.48,0.19,1.42,0.57,1.9,0.76c0.19,0.48,0.57,1.44,0.76,1.92c-0.64-0.02-1.91-0.07-2.54-0.1
		C283.33,276.05,283.27,274.75,283.24,274.11z"/>
	<path fill="#010101" d="M292.13,274.19c1.62-0.55,2.18,0,1.68,1.64C292.18,276.37,291.62,275.82,292.13,274.19z"/>
	<path fill="#E0E1DF" d="M302.79,252.14c0.98-1.81,1.99-3.62,2.99-5.43c-0.04,1.83-0.07,3.66-0.1,5.49
		C304.96,252.19,303.51,252.16,302.79,252.14z"/>
	<path fill="#31332F" d="M75.28,108.42c1.2-1.28,3.39,0.75,2.12,2.02C76.2,111.71,74.02,109.68,75.28,108.42z"/>
	<path fill="#31332F" d="M267.49,178.32c0.94-1.54,3.87-0.15,2.81,1.53C269.35,181.4,266.42,180,267.49,178.32z"/>
	<path fill="#31332F" d="M286.28,270.33c1.26-1.58,3.63,0.64,2.17,2.02C287.18,273.93,284.81,271.7,286.28,270.33z"/>
	<path fill="#FAFBF9" d="M273.57,16.98c1.63-3.11,3.41-6.13,5.35-9.06c2.8,2.37,5.08,5.3,6,8.9c-1.89-0.07-3.78-0.31-5.66-0.19
		c-1.68,0.57-2.97,1.86-4.42,2.81C274.53,18.83,273.89,17.6,273.57,16.98z"/>
	<path fill="#FAFBF9" d="M284.99,23.5c2.77-0.8,3.43,2.59,4.42,4.43c1.55,2.82,0.37,5.92-0.15,8.83c-1.87-0.5-3.73-1.03-5.58-1.54
		C282.76,31.26,282.06,26.86,284.99,23.5z"/>
	<path fill="#FAFBF9" d="M217.91,25.69c1.54,0.54,3.08,1.08,4.62,1.62c-0.91,3.44-2.55,6.62-4.57,9.53
		c-0.91-1.28-2.53-2.25-2.8-3.85C215.58,30.4,216.87,28.07,217.91,25.69z"/>
	<path fill="#FAFBF9" d="M272.13,29.55c1.43,0.15,1.68,0.8,0.75,1.95C271.44,31.35,271.19,30.7,272.13,29.55z"/>
	<path fill="#FAFBF9" d="M208.03,32.2c3.38,2.86,6.64,6.08,7.92,10.46c-4.13-0.05-8-1.55-11.6-3.45
		C205.58,36.88,206.8,34.54,208.03,32.2z"/>
	<path fill="#FAFBF9" d="M211.1,49.24C214.44,49.38,209.56,52.22,211.1,49.24z"/>
	<path fill="#FAFBF9" d="M272.93,54.9c3.25-5.38,9.9-5.9,15.51-6.6c0.01,2.82,0.64,5.79-0.33,8.52c-1.95,2.99-5.68,4.21-9.11,3.73
		C275.84,60.59,274.74,56.9,272.93,54.9z"/>
	<path fill="#FAFBF9" d="M198.4,57.46c5.26-2.07,11.26-1.04,16.2,1.44c0.67,2.49-1.9,2.97-3.71,3.45c-4.12,0.62-8.27-0.2-12.3-1.01
		C198.54,60.37,198.45,58.43,198.4,57.46z"/>
	<path fill="#FAFBF9" d="M267.26,58.86c2.44,2.22,5.7,4.04,6.83,7.31c0.27,3.42-2.27,6.43-5.06,8.11
		C263.69,70.75,266.48,63.88,267.26,58.86z"/>
	<path fill="#FAFBF9" d="M214.48,67.08c1.68-3.29,4.86-5.42,8-7.16c0.88,5.31-1.95,9.9-4.51,14.26
		C216.62,71.97,214.08,69.93,214.48,67.08z"/>
	<path fill="#FAFBF9" d="M227.69,65.5c3.61,0.03,7.23,0.04,10.84,0.02c0.27,4.88-0.1,9.82-2.24,14.29
		c-3.77-0.34-7.45-1.24-11.02-2.46C226.04,73.39,226.79,69.43,227.69,65.5z"/>
	<path fill="#FAFBF9" d="M247.68,66.2c3.06,0.17,6.15,0.1,9.19,0.6c3.83,3.55,4.37,9.14,2.53,13.83c-4.11,0.07-8.25-0.31-12.12-1.8
		C247.41,74.62,247.52,70.41,247.68,66.2z"/>
	<path fill="#FAFBF9" d="M141.47,70.96c1.07-1.92,2.74-3.48,4.58-4.65c3.84,0.78,5.69,5.11,6.4,8.59c-2.16,2.6-5.48,3.53-8.68,4.03
		C142.91,76.3,141.89,73.7,141.47,70.96z"/>
	<path fill="#FAFBF9" d="M278.04,71.91c1.33-0.74,2.59-1.69,4.08-2.08c2.72,0,4.26,2.75,4.91,5.05
		C283.74,75.15,280.81,73.43,278.04,71.91z"/>
	<path fill="#FAFBF9" d="M151.84,78.94c2.13,2.09,4.75,4.07,5.58,7.09c-0.11,2.17-0.71,4.28-1.1,6.41
		c-0.92,0.04-2.76,0.13-3.68,0.17C150.21,88.43,149.67,83.37,151.84,78.94z"/>
	<path fill="#FAFBF9" d="M63.08,87.2c1.42-2.04,3.41-3.57,5.27-5.18c0.05,3.35,0.77,7.13-1.3,10.06c-1.52,1.57-3.78,2.02-5.72,2.85
		C61.6,92.31,61.71,89.53,63.08,87.2z"/>
	<path fill="#FAFBF9" d="M78.91,89.04c0.67-2.19,2.36-3.84,3.72-5.62c1.31,1.01,2.61,2.02,3.92,3.03c-1.44,3.24-3.32,6.26-5.54,9.03
		C80.19,93.37,79.24,91.28,78.91,89.04z"/>
	<path fill="#FAFBF9" d="M66.42,98.06c3.98-3.81,5.86-8.97,7.62-14.05c0.11,6.17,0.93,12.38,4.27,17.72
		C74.27,100.79,70.32,99.47,66.42,98.06z"/>
	<path fill="#FAFBF9" d="M144.25,92.89c2.09-1.35,6.36,0.15,5.12,3.14c-3.32,1.1-6.77,1.73-10.21,2.33
		C140.7,96.41,142.21,94.36,144.25,92.89z"/>
	<path fill="#FAFBF9" d="M85.05,101.6c0.29-3.34,2.71-5.64,5.19-7.59c0.14,2.08,0.25,4.16,0.35,6.24
		C88.75,100.7,86.9,101.17,85.05,101.6z"/>
	<path fill="#FAFBF9" d="M94.93,100.8c2.45-0.83,5.08-0.3,7.61-0.32c-0.46,2.87,1.14,6.82-1.6,8.8c-2.9,0.44-5.85,0.22-8.78,0.21
		C92.74,106.54,92.82,103.17,94.93,100.8z"/>
	<path fill="#FAFBF9" d="M207.55,100.9c2.75-0.5,6.14-2.26,8.46,0.19c2.36,5.34,1.74,11.57-2.03,16.11
		c-1.23-3.49-1.27-7.52-3.64-10.52C209.19,104.87,207.09,103.29,207.55,100.9z"/>
	<path fill="#FAFBF9" d="M111.52,100.48c2.84,0.01,5.69-0.12,8.52,0.18c1.93,3.68,2.63,7.85,3.7,11.83
		c-4.23,0.29-8.56,0.05-12.3-2.14C111.52,107.06,111.52,103.77,111.52,100.48z"/>
	<path fill="#FAFBF9" d="M280.11,101.34c1.67-0.04,1.53,2.72-0.09,2.63C278.31,104.01,278.47,101.26,280.11,101.34z"/>
	<path fill="#FAFBF9" d="M269.41,108.8c1.12-2.68,1.69-6.27,5.13-6.85c0.04,3.74-0.87,7.38-1.05,11.1
		c-0.17,3.23,1.52,6.11,2.56,9.06c2.48,5.99,2.87,12.6,5.51,18.53c0.9,2.43,2.08,6.08-0.64,7.76c-1.48,0.22-3.21,0.48-4.3-0.81
		c-2.43-2.19-4.81-4.67-6.08-7.72c-0.17-2.44,0.62-4.95-0.08-7.33c-1.62-2.52-4.55-3.95-5.93-6.62
		C263.74,119.76,267.42,114.36,269.41,108.8z"/>
	<path fill="#FAFBF9" d="M58.42,106.15c1.41-0.44,1.89,0.04,1.46,1.45C58.48,108.04,58,107.56,58.42,106.15z"/>
	<path fill="#FAFBF9" d="M72.11,107.38c1.4-0.43,1.88,0.05,1.44,1.45C72.14,109.26,71.66,108.78,72.11,107.38z"/>
	<path fill="#FAFBF9" d="M138.26,109.96c6.07-1.19,12.54-4.3,18.61-1.34c-1.37,4.23-2.83,9.8-7.93,10.77
		c-2.88,0.13-6.79,1.06-8.53-1.94C138.9,115.27,138.75,112.49,138.26,109.96z"/>
	<path fill="#FAFBF9" d="M60.52,113.34c6.36,0.42,13.3,0.66,18.68,4.51c-5.61,3.82-13.44,3.81-18.76-0.53
		C60.46,116.33,60.5,114.33,60.52,113.34z"/>
	<path fill="#FAFBF9" d="M130.93,113.08c2.72,3.41,5.49,6.79,8.05,10.34c1.31,1.72,0.18,4-1.1,5.38c-2.17,2.17-4.78,3.85-7.15,5.78
		c-1.24-2.64-2.92-5.45-2.03-8.48C129.81,121.83,130.74,117.51,130.93,113.08z"/>
	<path fill="#FAFBF9" d="M75.21,124.51c3.24-2.45,6.52-4.9,10.28-6.51c-0.1,2.25,0.31,4.62-0.43,6.8c-1.43,3.22-3.91,5.8-6.17,8.45
		C76.53,130.9,75.16,127.86,75.21,124.51z"/>
	<path fill="#FAFBF9" d="M220.13,118.56c1.83-0.03,3.67-0.07,5.51-0.11c-0.05,0.92-0.14,2.74-0.19,3.65
		c-1.27,0.55-2.54,1.1-3.82,1.64C221.12,122.02,220.61,120.29,220.13,118.56z"/>
	<path fill="#FAFBF9" d="M90.79,123.43c3.71-0.05,7.46,0.02,11.05,1.07c-0.9,4.35-1.12,9.05-3.3,12.99
		c-3.68,4.15-8.92-0.01-13.02-1.22C87.29,132,89.04,127.72,90.79,123.43z"/>
	<path fill="#FAFBF9" d="M110.8,124.44c3.93-0.08,7.84,0.37,11.68,1.24c0.02,4.62,0.01,9.23-0.02,13.85
		c-4.78,0.24-9.62,0.12-14.26-1.21C109.18,133.72,110.44,129.15,110.8,124.44z"/>
	<path fill="#FAFBF9" d="M63.87,126.15c2.63,0.75,6.28,0.46,7.74,3.23c0.84,1.3,1.57,2.67,2.32,4.03
		c-4.18,1.76-8.66,0.96-12.86-0.24C61.92,130.8,62.87,128.46,63.87,126.15z"/>
	<path fill="#FAFBF9" d="M138.77,133.17c2.4-2.96,5.43-5.3,9.45-4.98c0.9,2.62,3.96,5.93,0.76,8.14
		C145.15,137.42,141.55,135.71,138.77,133.17z"/>
	<path fill="#FAFBF9" d="M213.13,130.96c1.77-0.32,1.79,3.39,0.01,3.07C212.1,133.42,212.08,131.58,213.13,130.96z"/>
	<path fill="#FAFBF9" d="M265.14,133.56c1.29-1.04,2.94,1.18,1.58,2.12C265.41,136.73,263.8,134.51,265.14,133.56z"/>
	<path fill="#FAFBF9" d="M206.3,137.07C209.28,135.54,206.43,140.41,206.3,137.07z"/>
	<path fill="#FAFBF9" d="M258.14,137.14c1.62-0.53,2.18,0.02,1.67,1.65C258.18,139.32,257.62,138.77,258.14,137.14z"/>
	<path fill="#FAFBF9" d="M245.73,154.93c5.5-3.54,10.87-7.54,17.11-9.71c-2.46,5.02-5.43,9.86-9.04,14.13
		C250.39,160.22,248.08,156.76,245.73,154.93z"/>
	<path fill="#FAFBF9" d="M105.36,147.2c0.88-1.38,3.23,0.1,2.13,1.45C106.61,150.05,104.27,148.55,105.36,147.2z"/>
	<path fill="#FAFBF9" d="M219.65,148.5c6.42,0.41,12.75-0.75,19.04-1.82c-3.47,7.98-10.85,13.1-16.75,19.17
		c-1.96-3.77-3.89-7.7-4.3-11.99C217.82,151.94,218.93,150.26,219.65,148.5z"/>
	<path fill="#FAFBF9" d="M62.03,148.24C65.37,148.43,60.46,151.2,62.03,148.24z"/>
	<path fill="#FAFBF9" d="M69.18,148.15c1.4-0.47,1.88,0,1.42,1.41C69.19,150.02,68.72,149.55,69.18,148.15z"/>
	<path fill="#FAFBF9" d="M77.33,148.07C80.32,146.54,77.45,151.4,77.33,148.07z"/>
	<path fill="#FAFBF9" d="M120.24,148.39c1.33-1.47,3.55,0.9,2.11,2.19C121,152.09,118.81,149.7,120.24,148.39z"/>
	<path fill="#FAFBF9" d="M137.17,148.1c1.31,0.67,1.3,1.35-0.01,2.03C135.85,149.46,135.86,148.79,137.17,148.1z"/>
	<path fill="#FAFBF9" d="M55.24,149.17c1.62-0.52,2.18,0.03,1.66,1.66C55.27,151.35,54.72,150.8,55.24,149.17z"/>
	<path fill="#FAFBF9" d="M129.2,149.09c1.63-0.51,2.18,0.05,1.64,1.67C129.21,151.27,128.66,150.71,129.2,149.09z"/>
	<path fill="#FAFBF9" d="M142.24,149.23c1.85-0.77,2.31,2.27,0.63,2.7C141.02,152.69,140.61,149.68,142.24,149.23z"/>
	<path fill="#FAFBF9" d="M66.35,159.45c3.36-1.33,6.93-0.9,10.29,0.19c-0.48,5.68,0.3,12.63-4.75,16.54
		C70.49,170.46,69.3,164.62,66.35,159.45z"/>
	<path fill="#FAFBF9" d="M133.7,164.81c1.14-2,3.01-3.41,4.69-4.92c1.57,6.25-3.69,12.1-1.26,18.23
		c4.04,10.86,5.35,22.44,7.54,33.75c-5.41-0.58-9.73-4-12.34-8.64c0.71-2.69,3.4-5.92,1.16-8.52c-1.87-2.47-4.61-4.03-7.06-5.84
		C127.99,180.63,129.72,172.29,133.7,164.81z"/>
	<path fill="#FAFBF9" d="M58.24,165.06c0.97-0.82,1.96-1.62,2.96-2.41c1.53,1.99,1.74,4.58,2.02,6.99
		C61.51,168.16,59.87,166.62,58.24,165.06z"/>
	<path fill="#FAFBF9" d="M230.34,163.17c4.57,2.08,9.48,4.37,12.25,8.79c-0.85,3.94-2.51,7.91-5.48,10.74l-0.81-0.55
		C233.73,176.04,231.54,169.71,230.34,163.17z"/>
	<path fill="#FAFBF9" d="M79.39,178.56c2.2-0.12,4.4-0.26,6.59-0.44c0.06,1.43,0.1,2.85,0.13,4.28c-1.38-0.11-2.94,0.35-4.2-0.35
		C80.95,180.98,80.19,179.75,79.39,178.56z"/>
	<path fill="#FAFBF9" d="M249.81,195.03c1.3-5.29,5.27-9.26,9.04-12.93c3.52,2.21,6.96,4.53,10.31,6.98
		c-3.09,2.35-6.27,4.73-10,5.98c-2.28,0.83-4.79,1.1-6.85,2.45c0.14,3.44,1.64,6.62,2.88,9.78c-2.81,0.99-5.62,2-8.4,3.07
		C247.62,205.22,248.56,200.08,249.81,195.03z"/>
	<path fill="#FAFBF9" d="M72.15,188.48c0.83,1.77,1.64,3.56,2.44,5.34c-0.69,0.08-2.09,0.24-2.78,0.31
		C71.92,192.25,72.03,190.36,72.15,188.48z"/>
	<path fill="#FAFBF9" d="M64.55,196.08c0.98-1.35,3.15,0.34,2.12,1.63C65.71,199.07,63.55,197.35,64.55,196.08z"/>
	<path fill="#FAFBF9" d="M73.07,196.27C76.4,196.41,71.53,199.25,73.07,196.27z"/>
	<path fill="#FAFBF9" d="M106.13,216.1c5.91-2.9,11.45-6.6,17.66-8.87c-2.23,5.8-6.04,10.74-9.97,15.47
		C110.96,220.86,108.41,218.61,106.13,216.1z"/>
	<path fill="#FAFBF9" d="M75.59,210.04c1.26-1.75,3.49-1.48,5.38-1.58c5.6-0.02,11.2-0.01,16.8,0.2
		c-5.05,6.85-10.99,12.97-16.71,19.24C77.1,222.87,75.26,216.4,75.59,210.04z"/>
	<path fill="#FAFBF9" d="M127.59,230.04c1.42-3.52,3.99-6.43,6.64-9.09c0.47,5.04,0.51,10.19-0.96,15.08
		C131.02,234.51,126.37,233.71,127.59,230.04z"/>
	<path fill="#FAFBF9" d="M90.58,226.47c2.24,1.04,4.43,2.17,6.59,3.38c-1.04,1.86-2.08,3.72-3.12,5.59
		C92.09,232.8,90.85,229.75,90.58,226.47z"/>
	<path fill="#FAFBF9" d="M252.44,235.19c1.41-0.42,1.89,0.07,1.43,1.47C252.46,237.07,251.99,236.58,252.44,235.19z"/>
	<path fill="#FAFBF9" d="M131.28,243.08C134.25,241.53,131.43,246.42,131.28,243.08z"/>
	<path fill="#FAFBF9" d="M116.13,245.32c4.71,2.2,9.51,4.32,13.78,7.33c-5.62,2.21-11.06,5.02-16.92,6.53
		c-1.62-0.49-3.15-1.23-4.69-1.92C111.2,253.48,113.82,249.48,116.13,245.32z"/>
	<path fill="#FAFBF9" d="M300.33,255.09C303.31,253.55,300.47,258.42,300.33,255.09z"/>
	<path fill="#FAFBF9" d="M298.89,271.03c1.88-4.28,4.06-8.44,6.67-12.33c0.44,0.53,1.34,1.59,1.78,2.12l-0.43,0.7
		c-0.23,0.37-0.69,1.11-0.92,1.48c-0.8,1.27-1.63,2.52-2.43,3.8c-0.73,1.17-1.44,2.35-2.13,3.54l-0.33,0.57
		C300.55,270.94,299.44,271,298.89,271.03z"/>
	<path fill="#FAFBF9" d="M295.16,264.24C298.5,264.37,293.63,267.22,295.16,264.24z"/>
	<path fill="#FAFBF9" d="M307.03,266.53c1.84,0.53,3.68,1.07,5.52,1.64c-1.92,0.67-3.84,1.31-5.75,1.99
		C306.86,269.25,306.97,267.44,307.03,266.53z"/>
	<path fill="#FAFBF9" d="M297.15,271.93c1.41-0.69,2.2,1.66,0.77,2.11C296.5,274.72,295.7,272.37,297.15,271.93z"/>
	<path fill="#FAFBF9" d="M316.3,287c1.87-0.61,2.7,2.55,0.8,2.97C315.23,290.53,314.39,287.43,316.3,287z"/>
	<g id="_x23_80817eff">
		<path fill="#80817E" d="M251.22,34.41c1.31-1.45,3.6,0.85,2.15,2.16C252.04,38.07,249.77,35.75,251.22,34.41z"/>
		<path fill="#80817E" d="M194.76,44.83c1.48,0.67,3.01,1.29,4.42,2.12c0.24,1.35,0.27,2.72,0.36,4.08
			c-0.94,0.04-2.82,0.12-3.76,0.16C195.45,49.06,195.05,46.95,194.76,44.83z"/>
		<path fill="#80817E" d="M210.54,47.63c2.98-0.11,5.67,1.48,8.38,2.51c0.03,1.32,0.05,2.65,0.06,3.97
			c-3.73-2.28-8.02-1.84-12.1-1.02C208.04,51.24,209.08,49.28,210.54,47.63 M211.1,49.24C209.56,52.22,214.44,49.38,211.1,49.24z"/>
		<path fill="#80817E" d="M264.86,51.32c2.6,3.05,4.31,6.76,7.1,9.66c1.4,1.6,3.1,3.08,3.89,5.11c-0.65,4.76-4.31,8.39-8.41,10.51
			c-1.04-2.31-2.24-4.59-2.85-7.06c-0.26-3.31,1.72-6.53,0.77-9.85C264.67,56.95,264.22,54.12,264.86,51.32 M267.26,58.86
			c-0.78,5.02-3.57,11.89,1.77,15.42c2.79-1.68,5.33-4.69,5.06-8.11C272.96,62.9,269.7,61.08,267.26,58.86z"/>
		<path fill="#80817E" d="M279.28,67.61c2.79,0.96,6.14,1.56,7.83,4.28c1.26,1.59,0.41,3.68,0.25,5.48
			c-3.73-1.61-7.71-2.59-11.76-1.69C276.7,72.93,277.95,70.25,279.28,67.61 M278.04,71.91c2.77,1.52,5.7,3.24,8.99,2.97
			c-0.65-2.3-2.19-5.05-4.91-5.05C280.63,70.22,279.37,71.17,278.04,71.91z"/>
		<path fill="#80817E" d="M271.16,81.14c1.3,0.67,1.29,1.34-0.02,2.02C269.83,82.49,269.84,81.82,271.16,81.14z"/>
		<path fill="#80817E" d="M144.32,83.4c1.1,1.09,2.19,2.18,3.27,3.28c-0.93,0.11-2.79,0.34-3.72,0.45
			C143.98,86.2,144.21,84.34,144.32,83.4z"/>
		<path fill="#80817E" d="M236.28,85.48c0.75,1.43,1.49,2.88,2.22,4.32c-0.97,0.04-2.92,0.11-3.9,0.15
			C235.15,88.46,235.71,86.97,236.28,85.48z"/>
		<path fill="#80817E" d="M241.25,85.37c2.12,0.75,3.63,2.26,4.38,4.38c-1.58,0.13-3.16,0.25-4.74,0.37
			C241,88.54,241.12,86.95,241.25,85.37z"/>
		<path fill="#80817E" d="M191.52,86.92c2.27,0.81,4.63,1.48,6.66,2.82c1.56,1.85,2.31,4.22,3.24,6.42
			c-2.2-0.97-4.49-1.81-6.45-3.22C193.19,91.38,192.47,89.01,191.52,86.92z"/>
		<path fill="#80817E" d="M209.59,87c1.18,1.21,2.36,2.44,3.53,3.67c1.51-1.9,3.39-3.44,5.69-4.27c0.07,1.89,0.13,3.79,0.17,5.68
			c-4.6,0.21-9.22,0.79-13.83,0.53c-2.54-0.02-4.15-2.13-5.78-3.75c2.81-1.33,5.21,0.19,7.47,1.77
			C207.84,89.49,208.69,88.23,209.59,87z"/>
		<path fill="#80817E" d="M248.35,86.84c1.6,0.3,3.2,0.61,4.81,0.93c-0.49,1.04-0.98,2.08-1.45,3.13c-1.54,0.09-3.08,0.19-4.62,0.29
			C247.51,89.74,247.93,88.29,248.35,86.84z"/>
		<path fill="#80817E" d="M254.99,89.09c0-2.32,3.06-2.29,4.74-2.08c1.26,1.38,1.13,3.35,1.48,5.06
			C259.05,91.82,254.37,92.58,254.99,89.09 M257.29,89.09C257.43,92.42,260.26,87.54,257.29,89.09z"/>
		<path fill="#80817E" d="M270.47,90.83c0.41-2.99,2.9-3.94,5.57-4.28c-0.37,1.49-0.76,2.98-1.14,4.47
			C273.42,90.98,271.94,90.91,270.47,90.83z"/>
		<path fill="#80817E" d="M264.08,87.53c1.65,0.46,3.32,0.9,4.9,1.61c-0.12,1.38-0.4,2.75-0.66,4.12c-1.44-0.47-2.87-0.93-4.3-1.38
			C264.02,90.43,264.04,88.98,264.08,87.53z"/>
		<path fill="#80817E" d="M261.26,92.05C264.26,90.54,261.36,95.39,261.26,92.05z"/>
		<path fill="#80817E" d="M55.85,100.7c2.69,2.23,5.33,4.52,8.04,6.72c-0.52-1.56-1.06-3.12-1.6-4.67
			c6.33,1.25,12.85,2.39,18.6,5.44c2.16,0.97,1.55,3.67,1.84,5.57c-4.56-0.92-9.08-2.05-13.6-3.13c0.44-1.22,0.89-2.45,1.33-3.67
			c-0.22-0.17-0.65-0.49-0.87-0.66c-1.17,1.05-2.23,2.3-3.65,3.05c-3.12,0.71-6.34,0.05-9.49-0.23
			C56.27,106.31,56.02,103.51,55.85,100.7 M66.15,105.34c-1.63-0.07-1.78,2.67-0.09,2.64C67.68,108.07,67.82,105.31,66.15,105.34
			 M58.42,106.15c-0.42,1.41,0.06,1.89,1.46,1.45C60.31,106.19,59.83,105.71,58.42,106.15 M72.11,107.38
			c-0.45,1.4,0.03,1.88,1.44,1.45C73.99,107.43,73.51,106.95,72.11,107.38 M75.28,108.42c-1.26,1.26,0.92,3.29,2.12,2.02
			C78.67,109.17,76.48,107.14,75.28,108.42z"/>
		<path fill="#80817E" d="M252.2,101.05c2-0.73,2.48,2.52,0.61,2.89C250.8,104.67,250.32,101.42,252.2,101.05z"/>
		<path fill="#80817E" d="M257.1,102.33c1.28,1.66,2.4,3.44,3.36,5.3c-0.71,0.43-2.12,1.28-2.83,1.71
			C257.38,107.01,257.19,104.67,257.1,102.33z"/>
		<path fill="#80817E" d="M262.1,111.55c-0.12-3.37-1.06-7.71,2.91-9.21C265.33,105.74,264.98,109.3,262.1,111.55z"/>
		<path fill="#80817E" d="M133.85,103.85c0.94,0.12,2.81,0.35,3.75,0.47c-1.08,1.11-2.18,2.2-3.28,3.29
			C134.2,106.67,133.97,104.79,133.85,103.85z"/>
		<path fill="#80817E" d="M124.09,118.28C127.42,118.42,122.55,121.26,124.09,118.28z"/>
		<path fill="#80817E" d="M285.22,124.41c1.32-1.45,3.6,0.86,2.15,2.16C286.03,128.06,283.77,125.73,285.22,124.41z"/>
		<path fill="#80817E" d="M212.08,127.38c1.06-0.53,2.12-1.07,3.18-1.6c0.55,4.13,1.17,8.28,1.34,12.45
			c0.32,1.65-1.37,2.44-2.26,3.52C211.71,137.4,211.04,132.32,212.08,127.38 M213.13,130.96c-1.05,0.62-1.03,2.46,0.01,3.07
			C214.92,134.35,214.9,130.64,213.13,130.96z"/>
		<path fill="#80817E" d="M258.53,135.14c0.64,0.02,1.92,0.04,2.56,0.06c-0.08,1.8,0.33,3.75-0.45,5.43
			c-1.39,1.77-3.32,2.98-5.1,4.31c-0.81-0.94-1.61-1.88-2.41-2.82c-0.11,1.27-0.21,2.54-0.3,3.81c-1.47-0.03-2.94-0.07-4.4-0.12
			c0.9-2.62,2.68-4.7,5.33-5.62C256.17,139.42,257.46,137.28,258.53,135.14 M258.14,137.14c-0.52,1.63,0.04,2.18,1.67,1.65
			C260.32,137.16,259.76,136.61,258.14,137.14z"/>
		<path fill="#80817E" d="M77.02,140.01c1.32-0.02,2.64-0.02,3.96-0.01c0.01,0.75,0.02,2.25,0.02,3.01c-1.33,0-2.66,0-3.98-0.02
			C77.02,142.25,77.02,140.76,77.02,140.01z"/>
		<path fill="#80817E" d="M131.41,140.32c0.93-0.11,2.8-0.35,3.74-0.46c-0.12,0.93-0.35,2.8-0.47,3.73
			C133.58,142.51,132.49,141.42,131.41,140.32z"/>
		<path fill="#80817E" d="M51.44,145.35c4.83,1.72,9.93,1.06,14.85,0.22c3.14-0.64,5.38,2.02,7.45,3.91
			c1.29-1.15,2.25-3.19,4.21-3.13c4.91-0.08,9.83,0.26,14.73-0.31c1.08,1.88,2.16,3.77,3.3,5.61c-3.35-0.35-6.71-0.09-10.04,0.26
			c-5.46,0.68-10.9-1.23-16.34-0.23c-5.67,1.02-11.37,1.86-17.12,2.16C52.3,150.99,51.92,148.16,51.44,145.35 M62.03,148.24
			C60.46,151.2,65.37,148.43,62.03,148.24 M65.13,148.13c-0.52,1.63,0.04,2.18,1.67,1.66C67.31,148.16,66.76,147.61,65.13,148.13
			 M69.18,148.15c-0.46,1.4,0.01,1.87,1.42,1.41C71.06,148.15,70.58,147.68,69.18,148.15 M77.33,148.07
			C77.45,151.4,80.32,146.54,77.33,148.07 M80.09,148.19c-0.51,1.63,0.04,2.18,1.66,1.66C82.26,148.21,81.71,147.66,80.09,148.19
			 M87,148.35c-1.37,0.91,0.2,3.2,1.52,2.13C89.88,149.56,88.32,147.29,87,148.35 M91.1,148.32
			C89.54,151.29,94.44,148.49,91.1,148.32 M55.24,149.17c-0.52,1.63,0.03,2.18,1.66,1.66C57.42,149.2,56.86,148.65,55.24,149.17
			 M58.28,149.11c-1.15,1.42,1.29,3.2,2.32,1.7C61.75,149.38,59.3,147.61,58.28,149.11z"/>
		<path fill="#80817E" d="M102.31,144.8c8.09,0.49,16.03,3.45,24.2,1.71c-0.49,1.62-1,3.23-1.47,4.86c1.68-1.47,3.33-2.98,4.99-4.47
			c1.27,1.3,2.53,2.62,3.79,3.94c0.9-1.79,1.82-3.56,2.75-5.33c1.12,1.41,2.22,2.85,3.31,4.3c1.57-1.13,3.12-2.28,4.67-3.44
			c0.95,1.89,1.86,3.8,2.77,5.72c-4.86,1.93-9.98,0.04-14.98,0.88c-2.93,0.35-5.91,0.34-8.82-0.27c-5.06-1.07-10.27,0-15.34-0.96
			c-3.94-0.74-7.96-0.96-11.97-1c-0.04-1.74-0.08-3.47-0.1-5.21c2.53,0.63,4.83,1.87,6.84,3.52
			C102.73,147.63,102.51,146.22,102.31,144.8 M105.36,147.2c-1.09,1.35,1.25,2.85,2.13,1.45
			C108.59,147.3,106.24,145.82,105.36,147.2 M109.15,147.87c-1.61,0.48-0.73,3.1,0.85,2.39
			C111.61,149.78,110.72,147.15,109.15,147.87 M116.09,148.52c-1.34,0.94,0.25,3.19,1.56,2.13
			C118.99,149.71,117.39,147.47,116.09,148.52 M120.24,148.39c-1.43,1.31,0.76,3.7,2.11,2.19
			C123.79,149.29,121.57,146.92,120.24,148.39 M137.17,148.1c-1.31,0.69-1.32,1.36-0.01,2.03
			C138.47,149.45,138.48,148.77,137.17,148.1 M129.2,149.09c-0.54,1.62,0.01,2.18,1.64,1.67
			C131.38,149.14,130.83,148.58,129.2,149.09 M142.24,149.23c-1.63,0.45-1.22,3.46,0.63,2.7
			C144.55,151.5,144.09,148.46,142.24,149.23z"/>
		<path fill="#80817E" d="M244.4,147.69c1.08-1.11,2.17-2.2,3.29-3.29c0.11,0.94,0.33,2.8,0.45,3.74
			C247.2,148.03,245.33,147.8,244.4,147.69z"/>
		<path fill="#80817E" d="M148.24,147.36c1.95,0.99,3.87,2.04,5.77,3.11c0.07-0.55,0.21-1.65,0.28-2.2
			c1.22-0.23,2.45-0.34,3.69-0.33c0.03,0.81,0.09,2.43,0.12,3.24c-3.32,1.64-6.94,1.55-10.28,0.04
			C147.92,150.26,148.14,148.33,148.24,147.36z"/>
		<path fill="#80817E" d="M277.19,154.64c1.2-0.47,2.36-1.06,3.54-1.58c0.85,1.85,2.54,4.03,1.31,6.1
			C280.27,157.82,278.72,156.22,277.19,154.64z"/>
		<path fill="#80817E" d="M144.01,158.96c1.38,0.03,2.76,0.08,4.14,0.15c0.01,1.59,0.01,3.19,0,4.78c-1.38,0.06-2.76,0.11-4.14,0.15
			C144.01,162.34,144.01,160.65,144.01,158.96z"/>
		<path fill="#80817E" d="M119.7,170.71c-3.08-3.17-0.64-7.25,2.37-9.33C121.88,164.62,121.06,167.77,119.7,170.71z"/>
		<path fill="#80817E" d="M122.83,172.57c0.11-4.34,1.97-8.42,5.38-11.14C128.65,165.81,127.25,170.74,122.83,172.57z"/>
		<path fill="#80817E" d="M152,162.91c1.6,0.44,3.21,0.88,4.81,1.32c0.08,0.62,0.22,1.85,0.29,2.47c-2.13-0.04-4.25-0.09-6.37-0.07
			C151.14,165.38,151.57,164.14,152,162.91z"/>
		<path fill="#80817E" d="M93.28,163.33c0.62,1.11,1.27,2.21,1.79,3.37c-1.08,0.62-2.18,1.2-3.3,1.76
			C92.25,166.74,92.75,165.03,93.28,163.33z"/>
		<path fill="#80817E" d="M282.17,166.16c1.62-0.52,2.18,0.04,1.66,1.67C282.2,168.34,281.64,167.79,282.17,166.16z"/>
		<path fill="#80817E" d="M85.36,169.41c0.85-1.35,2.36-2.07,3.58-3.02c0.04,2.08,0.14,4.19-0.1,6.27c-1.19,0.9-2.66,1.3-4.01,1.87
			C84.95,172.81,85,171.09,85.36,169.41z"/>
		<path fill="#80817E" d="M253.16,172.16c1.63-0.52,2.18,0.04,1.66,1.67C253.18,174.34,252.63,173.78,253.16,172.16z"/>
		<path fill="#80817E" d="M262.12,173.33C265.45,173.42,260.62,176.33,262.12,173.33z"/>
		<path fill="#80817E" d="M245.81,174.9c1.37-0.38,2.74-0.75,4.11-1.11c-0.19,1.39-0.39,2.78-0.6,4.18c2.24-0.23,4.5-0.4,6.76-0.24
			c-3.38,4.78-6.93,9.48-11.21,13.51c-1.3-3.94-1.99-8.11-1.26-12.24c1.64,0.19,3.28,0.38,4.92,0.58
			C247.63,178.01,246.72,176.46,245.81,174.9 M245.69,182.73c0.44,0.65,1.32,1.95,1.76,2.6c0.59-1.51,1.14-3.04,1.72-4.55
			C248,181.42,246.85,182.08,245.69,182.73z"/>
		<path fill="#80817E" d="M259.92,176.23c5.33-2.55,10.66,0.96,16.09,0.04c2.28-0.79,2.62,2.04,3.61,3.4
			c-1.87,0.08-3.74,0.15-5.6,0.2c1.9,1.15,4.19,2.4,3.65,5.01c-3.23-1.04-6.57-1.67-9.97-1.66
			C265.12,180.88,262.24,178.86,259.92,176.23 M267.49,178.32c-1.07,1.68,1.86,3.08,2.81,1.53
			C271.36,178.17,268.43,176.78,267.49,178.32z"/>
		<path fill="#80817E" d="M227.24,177.89c0.97,0.28,1.89,0.69,2.76,1.21c-0.71,2.35-1.38,4.7-2.07,7.05
			c-0.44-0.31-1.33-0.95-1.77-1.27C226.46,182.54,227,180.23,227.24,177.89z"/>
		<path fill="#80817E" d="M78.17,190.32c1.46-1.18,3.12,1.35,1.64,2.35C78.36,193.84,76.69,191.31,78.17,190.32z"/>
		<path fill="#80817E" d="M278.54,189.4c0.94,0.98,2.71,1.72,2.32,3.37c-0.97,1.32-2.69,0.73-4.07,0.84
			C277.36,192.2,277.94,190.8,278.54,189.4z"/>
		<path fill="#80817E" d="M274.28,194.08C277.26,192.55,274.42,197.42,274.28,194.08z"/>
		<path fill="#80817E" d="M118.26,201.7c-0.37-3.02,0.57-5.87,3.44-7.29c0.44,2.34,1.27,4.69,1,7.09
			c-4.63,5.6-12.22,6.48-18.68,8.71c0.03-0.68,0.08-2.04,0.11-2.72c3.34-1.23,5.72-3.91,8.44-6.06
			C114.46,201.09,116.37,201.51,118.26,201.7 M120.06,199.31C118.53,202.3,123.4,199.44,120.06,199.31 M112.18,204.24
			c-0.5,1.63,0.05,2.18,1.68,1.65C114.36,204.25,113.8,203.7,112.18,204.24z"/>
		<path fill="#80817E" d="M280.68,215.61c1.66-2.66,3.77-4.98,6.11-7.07c1.7,1.25,3.48,2.42,5.05,3.85
			c-0.13,0.96-0.39,1.89-0.77,2.79c-1.5-0.83-2.9-1.81-4.3-2.79C284.91,213.77,282.94,215.05,280.68,215.61z"/>
		<path fill="#80817E" d="M124.91,216.13c0.18-2.65,0.92-5.25,3.96-5.68c-0.2,1.95-0.42,3.9-0.67,5.84c1.25-0.79,2.5-1.58,3.75-2.37
			c0.54,0.29,1.62,0.88,2.15,1.17c-3.98,4.39-7.25,9.39-9.92,14.68c-0.99,0.08-1.97,0.17-2.95,0.26c0.14-1.25,0.31-2.49,0.46-3.73
			c-1.68,0.61-3.38,1.18-5.08,1.74C118.05,223.34,120.34,218.51,124.91,216.13 M125.3,219.55c-1.69-0.31-2.87,2.65-1.01,3.17
			C125.99,223.06,127.18,220.04,125.3,219.55z"/>
		<path fill="#80817E" d="M139.6,217.18c1.21-0.52,2.43-1.03,3.65-1.53c0.31,2.25,0.58,4.5,0.81,6.77
			C142.53,220.71,141.05,218.95,139.6,217.18z"/>
		<path fill="#80817E" d="M277.41,216.23c1.32-1.45,3.65,0.8,2.17,2.14C278.27,219.82,275.95,217.55,277.41,216.23z"/>
		<path fill="#80817E" d="M142.24,229.34c0.99-0.13,2.97-0.39,3.96-0.52c-0.21,1.65-0.43,3.3-0.66,4.95
			C144.46,232.28,143.36,230.8,142.24,229.34z"/>
		<path fill="#80817E" d="M142.16,235.17c1.63-0.52,2.18,0.03,1.67,1.66C142.2,237.35,141.65,236.8,142.16,235.17z"/>
		<path fill="#80817E" d="M107.54,236.11c0.58-0.03,1.74-0.09,2.32-0.12c-0.13,1.62-0.26,3.25-0.4,4.87
			c1.96-0.25,3.92-0.49,5.88-0.71c-3.35,4.31-6.92,8.45-10.23,12.8c-1.81-1.39-3.7-2.71-5.29-4.35
			C100.03,243.26,105.52,240.65,107.54,236.11 M105.86,242.9c-0.56,1.5-1.13,3.01-1.7,4.52c1.39-0.87,2.78-1.73,4.18-2.58
			C107.72,244.36,106.48,243.38,105.86,242.9z"/>
		<path fill="#80817E" d="M147.22,236.41c1.31-1.46,3.6,0.85,2.15,2.16C148.03,240.06,145.77,237.74,147.22,236.41z"/>
		<path fill="#80817E" d="M255,240.03c2.6-1.13,5.37-3.84,8.29-2.05c-2.07,2.69-5.32,3.87-8.27,5.28
			C255.02,242.46,255.01,240.84,255,240.03z"/>
		<path fill="#80817E" d="M280.17,240.18c1.63-0.53,2.18,0.03,1.66,1.66C280.2,242.36,279.65,241.8,280.17,240.18z"/>
		<path fill="#80817E" d="M119.17,266.17c1.62-0.53,2.18,0.03,1.66,1.66C119.2,268.35,118.65,267.79,119.17,266.17z"/>
		<path fill="#80817E" d="M136.2,287.5c1.45,0.73,2.9,1.47,4.35,2.22c-1.5,0.56-3,1.12-4.51,1.67
			C136.08,290.42,136.16,288.48,136.2,287.5z"/>
		<path fill="#80817E" d="M263.2,291.23c1.67-0.51,2.63,2.35,0.82,2.75C262.34,294.47,261.39,291.64,263.2,291.23z"/>
		<path fill="#80817E" d="M143.11,293.57c1.44,0.16,1.68,0.8,0.73,1.93C142.39,295.33,142.15,294.69,143.11,293.57z"/>
		<path fill="#80817E" d="M282.17,293.16c1.63-0.52,2.18,0.04,1.66,1.67C282.2,295.34,281.65,294.79,282.17,293.16z"/>
		<path fill="#80817E" d="M140.89,301.84c0.41-1.89,2.02-3.12,3.25-4.49c0.12,1.87,1.51,4.23-0.29,5.68
			C142.72,302.98,141.73,302.58,140.89,301.84z"/>
		<path fill="#80817E" d="M129.07,298.78c3.26,1.78,6.68,3.27,10.18,4.51c-0.47,0.99-0.95,1.98-1.43,2.97
			c-2.96-1.42-5.88-2.92-8.78-4.44C129.05,301.06,129.06,299.54,129.07,298.78z"/>
		<path fill="#80817E" d="M119.54,306.54c2.22,1.69,4.37,3.47,6.47,5.3c1.2-0.66,2.39-1.31,3.59-1.96c-0.08,1.98-0.1,3.96-0.12,5.94
			c1.87-0.47,3.74-0.95,5.63-1.37c-1.3,3.19-3.14,6.18-6.13,8.04c-0.34-2.06-0.54-4.13-0.77-6.19c-0.98-0.13-1.96-0.25-2.94-0.36
			c-0.14,1.53-0.27,3.06-0.4,4.6c-3.5-0.39-7.01,0.01-10.42,0.85c2.89-2.74,6.03-5.23,9.56-7.09c-1.52-0.86-3.03-1.74-4.54-2.6
			c-1.64,1.74-3.32,3.43-5.11,5.02c-0.99-2.19-1.92-4.4-2.78-6.64c1.68,0.54,3.34,1.11,5,1.68
			C117.56,310.01,118.54,308.27,119.54,306.54z"/>
		<path fill="#80817E" d="M135.73,311.04c3.61,1.5,7.43,2.39,11.35,2.35c-0.67,1.62-1.02,3.47-2.16,4.86
			c-2.38,1.86-5.17,3.11-7.79,4.62c-0.8-0.92-1.59-1.84-2.37-2.76c1.86-0.61,3.73-1.19,5.59-1.78
			C138.9,315.84,137.3,313.45,135.73,311.04z"/>
	</g>
</g>
</svg>
