<svg xmlns="http://www.w3.org/2000/svg" viewBox="0 0 401 382" style="enable-background:new 0 0 401 382"><path d="m380 .2c0-.1 0-.1 0-.2h-3.2c0 0 0 .1 0 .1 1.1 0 2.1.1 3.2.1" style="fill:#010101"/><path d="m390 .4c0-.1 0-.3 0-.4h-9.8c0 .1 0 .1 0 .2 3.3.1 6.5.2 9.8.2" style="fill:#7c2905"/><g style="fill:#7d7c6a"><path d="m84 34c1 3.8-1.5 7.5-.6 11.1 3.1 6.2 9.9 8.7 15.4 12-.2 1.2-.4 2.4-.6 3.6-.3 1.4-.6 2.9-1.3 4.2-1.8.5-3.7.8-5.4 1.4.1 1.4.1 3.2 1.8 3.7l-.3.6c-.7 1.2-1.4 2.5-2.1 3.7.7.2 2.2.5 2.9.6 1.2.6 2.4 1.4 3.5 2.2-2.8 1.5-6 1.5-9 .5.6 2.7 1.5 5.4 2.5 8 1.1 2.9.5 6 .5 9-1.2.2-2.5.5-3.7.7.5.8 1 1.5 1.4 2.3-1.5-1.1-3.1-2.1-4.6-3.1.7 1.7 1.3 3.3 2.1 4.9-1.4-.5-3.8-.2-4.1-2.2-.4-1.9-.3-3.8-.3-5.7 2-.6 4-1.1 6-1.7-.1-5.5-1-11-1.8-16.4 2-2.7 3.4-5.7 4.4-8.8 1.5-.8 2.9-1.5 4.4-2.3-.4-2-.7-4.1-1.1-6.1-4.8-2.3-9.5-5.2-12.8-9.5-1.5-4.5 1.8-8.8 2.8-13"/><path d="m59.9 61c.4-2.9-.9-6.8 2.3-8.5.1.6.3 1.8.4 2.4-.1 4.2.5 8.9-2 12.5-2.7 4-3.4 9-3.4 13.8.1 4.3 2.3 8.2 3.1 12.4.7 3.1 1.3 6.9-1.3 9.3-6.6 6.4-13.2 12.9-20.8 18-4.9 3.4-8.8 8-13.4 11.8-1.1 1.9-1.7 4-2 6.2-.2-.5-.7-1.5-.9-2-.3-1.2-.6-2.4-.9-3.7 1.6-1.2 3.2-2.3 4.9-3.5-.5-1.3-1.1-2.5-1.6-3.8 1.9.3 3.7.6 5.6.6 3.5-2.4 5.3-6.6 9.1-8.7 4.5-2.7 8-6.7 11.9-10 2.6-2.6 6.5-4.6 7.6-8.4.7-5.9-2.9-11.2-3.8-16.8 0-3.6 1-7.1 1.4-10.6.2-4 4.2-6.8 3.8-10.9"/><path d="m78 55.7c2.2-.1 4.5-.2 6.7-.4-.1 1.7-.2 3.3-.3 5-2.8-.5-5.5-1.6-6.4-4.6"/><path d="m88 59c.8 0 2.4.1 3.2.1-2 3.2-5.6 5.5-6.2 9.5 0 2.2-2.3 1-3.3.2.6-1.2 1.5-2.2 2.3-3.3-3-1.5-7-2.3-8.7-5.6 3.5.6 6.9 1.7 10.2 3 .8-1.3 1.7-2.6 2.5-4"/><path d="m301 58.9c1 .5 2 .9 3 1.4-.1 2.2-.1 4.5-.2 6.7-1.3.3-2.5.5-3.8.8-.2-1.1-.4-2.1-.6-3.2.5-1.9 1-3.8 1.5-5.6"/><path d="m71.8 61.7c3.4 1.8 6.1 4.5 9.3 6.6-4-.5-8.4-2.2-9.3-6.6"/><path d="m65 65c2 .7 3.9 1.6 5.8 2.5 0 .8 0 2.4 0 3.2-2-.7-3.9-1.6-5.8-2.5 0-.8 0-2.4 0-3.2"/><path d="m256 69c1.5-2.2 4.3-2.7 6.7-3.2-1.9 1.5-3.9 2.9-5.9 4.2-.1.5-.4 1.4-.6 1.9 1.6 0 3.2 0 4.8-.1-1.2 2.1-2.4 4.2-3.5 6.2-1.6-2.7-2.4-6-1.4-9"/><path d="m51 80c3.3.1-1.5 3 0 0"/><path d="m79.9 86c1.9.5 3.8 1.1 5.7 1.7-1.3 1.8-2.7 3.4-4.5 4.8-1 .3-2 .6-3.1.9.5-2.5 1.2-4.9 1.9-7.4"/><path d="m47 118c8.7-6 15.9-14 25-19.3 1.5 1.9 2.9 3.9 4.2 5.9-1.8.8-3.6 1.5-5.4 2.3 1.4 2.4 3.2 4.7 3.8 7.5-.9 1.3-1.9 2.4-2.9 3.6-.5.8-.9 1.6-1.3 2.4-.5 1-.9 2-1.3 3-3.5-.8-6.9-1.8-10.2-3 3 0 5.8 1 8.7 1.4 2.4-2.1 3.3-5.3 4.9-8-1.3-2.9-2.5-5.8-3.6-8.8 1.5-.2 3-.4 4.5-.7.1-.8.2-2.3.3-3.1-6.7 3.3-12.8 8-18 13.2-3.3 3.1-7.8 4.7-11 8-2.9 2.9-6.4 5-9.8 7.2-3.7 2.3-6 6-9.1 8.9.4-1.2.9-2.4 1.4-3.5 5.6-6.9 13.7-10.9 20-16.9"/><path d="m281 109c1.1-.7 2.1-1.4 3.1-2.1.3.7.7 1.3 1 2 1 2.4 2.8 4.6 2.9 7.3-1.3 6.2-4.1 12-4.8 18.3-.3 2.1-.3 4.4-1 6.4-1 1.7-2.8 2.7-4.5 3.6-3.4-4.6-4.6-10.4-6.6-15.7-1.3-3.4-3.5-6.2-5.6-9-4.1 7.8-9.4 14.7-14.7 21.6-1.1-.4-2.2-.8-3.3-1.2l.9-.5c5.8-3.5 8.6-10 12.3-15.3 1.5-2.1 3-6.1 6.3-4.6 6.1 5.7 7.1 14.4 10.8 21.5.8.1 2.3.2 3 .3 1.3-8.1 1.6-16.4 4.9-24 .6-3.6-1.6-6.9-4.7-8.5"/><path d="m46 136c.1-4.8 2.6-9.5 6.7-12-2.5 2.9-4.6 6.2-5.2 10-2.3 12.9-4.3 25.9-6.4 38.8-.9 8.8-2.7 17.5-4.3 26-2.7 21-6.5 42-12 62.9-1.1 7.2-.9 14.5-3.4 21.4-1.7 11.4-4.7 22.5-6.6 33.9-1.7 8.4-3.1 16.8-6.1 24.8-.4-1.5-.9-3.1-.5-4.7 3.7-15.3 6.5-30.7 9.8-46 1.2-7.3 2.8-14.5 3.4-21.8.9-9.8 5.2-18.8 6.4-28.5 1.3-9.7 3.9-19 5.1-28.9.9-8.7 3.4-17.2 4.2-26 1.9-12.2 4-24.3 5.9-36.4 1.5-4.4 3-8.8 3.1-13.5"/><path d="m289 125c.8 0 2.3 0 3 0 0 2 0 4 0 6-.8 0-2.3 0-3 0 0-2 0-4 0-6"/><path d="m316 157c1.3-1 2.8 1.3 1.6 2.2-1.3 1-2.8-1.3-1.6-2.2"/><path d="m318 162c2.1-2.4 2.1 2.3 2.6 3.6-1.6-.6-4.6-1.5-2.6-3.6"/><path d="m318 166c1.9 1.4 3.2 3.3 3.4 5.7-1.5-.3-3.2-.3-4.4-1.5.1-1.5.6-2.8 1-4.2"/><path d="m124 181v-.8c1.4 3.2 2.7 6.5 4.1 9.6-.5.5-1.6 1.6-2.1 2.2-.6-1.5-1.2-3-1.8-4.5-.2-2.2-.3-4.4-.3-6.6"/><path d="m137 184c.5 0 1.5-.1 2-.1 2 2.1 4 4.1 6.2 6-2.3 1.6-5.1 2.2-7.8 2.7.6-2 1.2-3.9 1.7-5.9-1.6 1.5-2.9 3.3-4 5.2 2.2.8 4.4 1.5 6.5 2.2-1.2 1.9-2.6 3.5-4.2 5-3.1-3.1-7.3-8-3.1-12 .4-.5 1.2-1.4 1.6-1.9.3-.3.8-.9 1.1-1.3"/><path d="m72.9 191c.5 1.5 1 3 1.5 4.5-1.3 8.3-2.7 16.7-4.2 25l-.2.8c-.3-.7-.8-2.1-1-2.8 1.5-4.5 2-9.2 2.6-13.9 1.6-4.3 2.2-9 1.3-13.6"/><path d="m301 213c1.4-.7 2.7-1.5 4.1-2.2l.6-.3c-1.4 5.5 0 11 .3 16.7-5.4-2.2-4.6-9.3-5-14"/><path d="m330 220c2.4 1.5 3.5 4 3.2 6.8-3.1-.7-4.8-4-3.2-6.8"/><path d="m307 234c.9 0 2.9 0 3.8 0-.7 1.4-.5 3.7-2.3 4.1-.6-1.3-1-2.7-1.5-4.1"/><path d="m330 235c.8 0 2.3-.1 3-.1-.8 5-.5 10 0 15-.8 0-2.3-.1-3.1-.1-1.7-4.8-1.1-10 .1-14.9"/><path d="m300 248c1.7-.3 3.4-.7 5.1-1.1-1.7 4.6-3.5 10.3-8.1 12.7-.2-4.3 4.1-7.2 3.1-11.6"/><path d="m329 253c1.2.6 2.9.9 2.8 2.6 1.3 5.7.5 11.6-.1 17.3-1.7-1-3.2-2.3-2.6-4.4 1-5.1.4-10.3-.1-15.4"/><path d="m116 260c.6-.6 1.2-1.2 1.9-1.8 2.9 4.1 4.2 9 6.8 13.3 3.2 5.5 7.3 10.4 9.8 16.4 3.1 6 5.9 12.2 8.8 18.3l.3.9c-.6.2-1.8.6-2.4.8l-.7.4c-1-1.5-2-3-2.9-4.5-.3-1.3-.5-2.5-.8-3.8-1-2.5-2.3-4.9-3.5-7.3-.6-2-1.3-3.9-2.4-5.8-.4-.5-1.2-1.5-1.5-2-.6-.8-1.1-1.7-1.6-2.6-1.8-3.1-3.5-6.3-5.3-9.4-.7 1.3-1.3 2.6-2 3.9-.7-.3-1.4-.6-2.1-.9 1-1.4 2.1-2.7 3.2-4.1-1-2.1-2.1-4.2-3.2-6.3-.2-.4-.6-1.3-.7-1.7-.5-1.3-1-2.6-1.4-3.8"/><path d="m295 262c.7-1.2 2-1.8 3.1-2.5-.9 5.1-4.3 9.1-5.5 14-.7 3.1-2.6 5.7-5.7 6.7 2.1-6.3 3.9-13 8-18.3"/></g><g style="fill:#5d4c31"><path d="m99 60.8c.2-1.2.4-2.4.6-3.6 3.8 2.5 7.9 5.3 9.8 9.7 1.6 3.3.7 7 .4 10.5-.6 4.6.7 9.2 0 13.8-1.6.2-3.2.3-4.8.5-.8 1.1-1.7 2.2-2.5 3.2-.2-.2-.6-.6-.8-.8 1.5-3.3 3.5-6.3 5.3-9.5.5-.8.9-1.6 1.4-2.4-3.1-2-6.1-4-9-6.1.3 1.6.7 3.2 1.1 4.8-.8-1.2-1.6-2.5-2.4-3.8-1.1-.8-2.3-1.6-3.5-2.2.7-1.4 1.4-2.9 2.2-4.3-.8 0-2.2 0-3 0l.3-.6c1.2-.6 2.4-2.1 3.9-1.4 3.6 1.2 7 3 10.8 3.8-1.7-5-5.3-9-9.8-11.7m.1 11.9c1.8 2.9 4.1 5.5 7.3 6.8 0-.9.2-2.7.2-3.6-2.2-1.7-4.7-3-7.5-3.3z"/><path d="m252 191c2.6-.3 5.3-.5 7.9-.9-.2 1.6-.3 3.2-.5 4.8.4.6.9 1.3 1.3 1.9-4.1.8-8.2 1.3-12.2 2.4-1.8 0-4.1 1-5.5-.7-1.2-1.3-1.9-3-2.7-4.6 4.1-.2 8.3-.5 11.7-2.9"/><path d="m112 271c.2-3.3 3.7-4.3 6.2-5.5 1 2.1 2.1 4.2 3.2 6.3-1.1 1.4-2.1 2.7-3.2 4.1.7.3 1.4.6 2.1.9.7-1.3 1.3-2.6 2-3.9 1.8 3.1 3.6 6.2 5.3 9.4-.5.2-1.7.7-2.2 1-.7-1.1-1.5-2.2-2.2-3.3-3.4-.1-6.7-.3-10-.6.4-1.6.8-3.1 1.2-4.6-.8-1.2-1.7-2.3-2.3-3.6"/></g><g style="fill:#010101"><path d="m62 35c.6-.9 1.1-1.8 1.8-2.7 1.5.2 3.1.5 4.6.8-.2 1.8-.3 3.5-.5 5.3 1.2-.5 2.5-1 3.7-1.5-.1-1.3-.2-2.7-.2-4 3.7-.1 7.4-.4 11-.5.4.4 1.2 1.1 1.6 1.5-1 4.3-4.3 8.6-2.8 13 3.2 4.3 8 7.2 12.8 9.5.3 2 .7 4.1 1.1 6.1-1.5.8-2.9 1.5-4.4 2.3-1.1 3.1-2.5 6.1-4.4 8.8.8 5.4 1.7 10.9 1.8 16.4-2 .5-4 1.1-6 1.7-.3.1-1 .3-1.4.4 1.7-1.3 3.2-3 4.5-4.8-1.9-.6-3.8-1.1-5.7-1.7-.8 2.4-1.4 4.9-1.9 7.4 0 3.4-3.1 4.7-5.7 5.9-9.1 5.3-16.4 13.3-25 19.3-6.4 6-14.5 10-20 16.9-.8-.8-1.6-1.6-2.4-2.3 4.6-3.8 8.5-8.3 13.4-11.8 7.6-5.3 14.2-11.7 20.8-18 2.6-2.4 2-6.2 1.3-9.3-.9-4.2-3-8.1-3.1-12.4 0-4.8.7-9.7 3.4-13.8 2.5-3.7 1.9-8.3 2-12.5.6-1.5 1.4-2.9 2-4.3.3.1 1 .4 1.3.5.8.3 1.7.5 2.5.8.6-1.6 1.2-3.1 1.8-4.7 2 1.5 4.1 2.9 6.2 4.3 1.6-4.4 3.5-8.8 3.7-13.5-1.5-1.5-3.5-2.4-5.3-3.4-1.5 1.8-3 3.6-4.4 5.4 1.4.9 2.8 1.9 4.2 2.8-.3.8-.7 1.6-1 2.4-3.8-3.4-7.3-7-11.3-10.1m16 20.6c.9 3 3.6 4.1 6.4 4.6.1-1.7.2-3.3.3-5-2.2.2-4.4.3-6.7.4m9.8 3.4c-.8 1.3-1.7 2.6-2.5 4-3.3-1.3-6.7-2.4-10.2-3 1.7 3.3 5.6 4 8.7 5.6-.8 1.1-1.6 2.1-2.3 3.3 1.1.7 3.4 2 3.3-.2.6-4 4.1-6.3 6.2-9.5-.8 0-2.4-.1-3.2-.1m-16.5 2.6c.8 4.4 5.3 6.1 9.3 6.6-3.2-2.1-5.9-4.8-9.3-6.6m-6.7 3c0 .8 0 2.4 0 3.2 1.9.9 3.9 1.8 5.8 2.5 0-.8 0-2.4 0-3.2-1.9-.9-3.9-1.8-5.8-2.5m4.1 9.5c-2.3 1.7-3.5 4.5-5.1 6.8.2 1.3.5 2.6.7 3.9-1.6 3-2.5 6.5-1.6 9.8 1.5 2.2 4.4 2.1 6.8 2.6 1-2.6 1.6-5.2 2.7-7.8 1.7-2.2 4-3.9 5.9-5.9 2.2.1 4.4.3 6.6.5 2.8-4.2-1.2-8.3-5.1-9.6 1.5-.6 3-1.2 4.5-1.9-1.3-.9-2.7-2.1-4.5-1.8-3.8.5-7.4 1.9-10.8 3.3z"/><path d="m301 57c1.9-.3 3.8 0 5.6.1 1.2 4.3 1.7 8.8.8 13.2-1.1-.3-2.3-.6-3.4-.9 0-.5.1-1.5.1-2 .1-2.2.2-4.5.2-6.7-1-.5-2-.9-3-1.4-.5 1.9-1.1 3.7-1.5 5.6-.9-.8-1.9-1.6-2.7-2.5.8-2.1 1.9-4.2 3.9-5.5"/><path d="m263 65c.4.1 1.2.3 1.6.3-2.5 5.8-2.9 12.2-1.7 18.4-1.5-1.7-3-3.3-4.4-5-.2-.4-.6-1.1-.8-1.4 1.1-2.1 2.3-4.2 3.5-6.2-1.6 0-3.2 0-4.8.1.1-.5.4-1.4.6-1.9 2-1.4 4-2.7 5.9-4.2"/><path d="m93 71c.7 0 2.2 0 3 0-.7 1.4-1.4 2.9-2.2 4.3-.7-.2-2.2-.5-2.9-.6.7-1.2 1.4-2.5 2.1-3.7"/><path d="m292 79c1.1-2.2 2.5-4.3 4-6.2 2.5 2.4 5.3 4.5 8.4 6 2.5.9 2.6 3.9 2.7 6.2.3 3.9-2 7.2-4.1 10.3-1.5-1.6-4.3-2.8-4.2-5.4.7-2 1.5-4 2.3-5.9-1.5-2.3-2.9-4.6-4.4-6.9-1.3.5-2.6 1-4 1.5l-.8.3"/><path d="m99 76c3 2.1 6 4.2 9 6.1-.5.8-.9 1.6-1.4 2.4-2.2-1.1-5-1.7-6.6-3.7-.4-1.6-.7-3.2-1.1-4.8"/><path d="m261 86c1.6.6 3.1 1.2 4.7 1.9-1.9 1.2-3.9 2.4-5.9 3.6 0-.7 0-2.2 0-2.9.3-.6.9-1.9 1.2-2.5"/><path d="m260 93c.9 1.4 1.9 2.8 2.9 4.2-.9 0-2.7-.1-3.6-.1-.5-.2-1.4-.5-1.9-.7.9-1.1 1.7-2.2 2.6-3.4"/><path d="m285 109c5-2.6 10.7-3.6 15.9-5.8 1.1 2.3 2.2 4.6 3.2 6.9 1.4.3 2.8.5 4.2.9 1.7.7 3.5 1.3 5.2 2 3.3-1.7 6.3-4.1 10-4.7 3 .6 6.1 1.8 8.5 4 2.3 3.2 3.4 7.1 5.2 10.6 3.6 7.2 5.3 15 8.5 22.5 7.3 20 13.6 40 20.4 61 4.9 13.6 9.6 27.3 15 40.7 2.4 8.2 5.5 16.2 8.5 24-.4 5.1-.3 10.3.1 15.4-.4.6-1.1 1.7-1.4 2.2-3.5-8.4-5.3-17.5-9.8-25.4-7.5-20.6-13.8-41.7-21.9-62-2.3-7.8-5.5-15.4-7.8-23-2.7-9.7-6.9-19-9.7-28.7-2.4-6.2-3.7-12.7-6.8-18.7 1-2.7 2-5.6.8-8.4-1.2-3.3-2.3-7.7-6.2-8.8-4.9-2.1-9.3 2.1-13.2 4.4.9 2.6 1.8 5.3 2.6 8-.9 6.3 2.1 12.1 3.5 18 3.7 8.5 6.3 17.4 10 25.9 2.6 5.6 2.9 11.9 4.5 17.8 1.3 5.2 3.9 9.8 5.5 14.9 1 3.3 2.9 6.2 4.7 9 3.8 9.7 5.7 19.9 8.3 29.9 4.3 11.2 7.5 23 13 33.7l-1.1.5c-2.8 0-5.3-1.2-7.9-1.7-2.2 0-4.4.7-6.5 1.2-.3 1.1-.6 2.2-1 3.3-1.4-1.5-2.3-4.2-4.7-4-2.8-.1-5.3 1.1-7.9 1.9-.2 1.5-.5 2.9-.7 4.4-.9-2.1-1.8-4.2-2.7-6.3-5 .8-10 2.9-15 1.6-3.9-1.4-5.6 3.6-5.6 6.5-.5 2.6 1.1 4.9 3.3 6.2.3 1.2-.2 1.4-1.5.8-1.9 2.4-2.8 5.4-3.9 8.2-.9-3.2-1.4-6.5-2.6-9.6-4.3-1.8-9.2-1.5-13.4-3.4-3.1-1.4-6.5-2.6-10-2.7.5 4.2-1.6 7.9-3.7 11.3-.2-.3-.7-1-.9-1.4 1.6-3.6 4.7-8 2-11.8-4-3.6-9.8-3.5-14.8-3.5.4-1.8.6-3.6 1.5-5.2 2-2.7 5-4.4 6.9-7.2 1.8-2.7 2.8-5.9 4.2-8.8 3.7-5 7.4-10.2 10.4-15.7.9-1.6.7-3.5.7-5.3-1.2-10.3.1-20.8-2.1-30.9h-.9c-1.3 0-2.5 0-3.7-.1.6-1.4 1.2-2.8 1.8-4.2-3.8-2.3-7.6-4.4-11.5-6.6 2.8-2.9 5.2-6 7.1-9.5 2.9-5.6 9.4-7.9 12.5-13.5 3-4.5 3-10 1.6-15 1.3-2.6 2.1-5.5 2.5-8.4-6.3 5.7-12.3 12.5-14.7 20.8-1.1 5.4-7.3 7.8-12.3 7.6-6.5-2.3-11.8-7-17.8-10.3.2-.6.7-1.7.9-2.2 1.9-3.7 2.7-8 .5-11.8-.4-2.1-2.4-2.3-4.2-2.5-.5-.1-1.4-.2-1.9-.3.7-2.1 1.3-4.1 2.2-6.1 5.3-6.9 10.6-13.9 14.7-21.6 2.1 2.9 4.3 5.7 5.6 9 2 5.3 3.2 11 6.6 15.7 1.7-.9 3.5-1.8 4.5-3.6.7-2.1.7-4.3 1-6.4.7-6.3 3.5-12 4.8-18.3 0-2.7-1.9-4.9-2.9-7.3m3.5 16.5c0 2 0 4 0 6 .8 0 2.3 0 3 0 0-2 0-4 0-6-.8 0-2.3 0-3 0m27.3 32c-1.3.9.2 3.2 1.6 2.2 1.3-.9-.2-3.3-1.6-2.2m1.3 4.4c-2 2 1 3 2.6 3.6-.5-1.3-.5-6-2.6-3.6m.3 3.8c-.4 1.4-.9 2.8-1 4.2 1.1 1.2 2.8 1.2 4.4 1.5-.2-2.4-1.4-4.3-3.4-5.7m-20 39c1 2.8 2.1 5.6 3.2 8.4.5 4.8-.4 11.9 5 14-.3-5.6-1.7-11.1-.3-16.7l-.6.3c-.7-2.5-1.4-4.9-2.2-7.4-1.7.4-3.4.8-5 1.2m32 14.7c-1.6 2.8.1 6.2 3.2 6.8.3-2.8-.8-5.3-3.2-6.8m-23.3 14.5c.4 1.4.9 2.8 1.5 4.1 1.8-.4 1.7-2.7 2.3-4.1-.9 0-2.9 0-3.8 0m23.5 1c-1.2 4.9-1.8 10-.1 14.9.8 0 2.3.1 3.1.1-.5-5-.8-10 0-15-.8 0-2.3.1-3 .1m-30 12.7c1 4.4-3.3 7.3-3.1 11.6 4.6-2.4 6.5-8 8.1-12.7 2.8-1.2 1.5-5-.2-6.7-3.6.2-4 5-4.9 7.8m29 4.8c.5 5.1 1.1 10.3.1 15.4-.6 2.2 1 3.5 2.6 4.4.6-5.7 1.4-11.6.1-17.3 0-1.7-1.7-2-2.8-2.6m-34 9.4c-4.1 5.4-6 12-8 18.3 3.1-1 5-3.6 5.7-6.7 1.1-5 4.6-9 5.5-14-1.1.7-2.4 1.3-3.1 2.5z"/><path d="m76 105c4.5 1.1 9.2 1.2 13.9 1 1.4 2.5 2.5 5.4 1.6 8.3-2 2.2-4.1 4.7-7.1 5.6-4.3-.1-8.5-1.4-12.8-1.5 1-1.2 2-2.3 2.9-3.6-.7-2.8-2.4-5-3.8-7.5 1.8-.8 3.6-1.5 5.4-2.3"/><path d="m59 121c3.4 1.2 6.8 2.2 10.2 3 .4-1 .9-2 1.3-3 1.9 1.6 3.5 3.7 5.8 4.6 4.2.5 8.4-.3 12.7-.3-.8 1-1.6 2-2.4 3-2.3 0-4.7.1-7 .1-1.4 0-2.8.1-4.2.1 1.3 3.3 3.7 6 6.5 8.2-1.8 1.3-2.9 3.3-3.6 5.4 2.3-.1 5.5-1.8 7.2.6 3 2.9-.7 6.5-2.7 8.8-2.5-.9-5.2-1.5-7.8-2.5-3.5-4.8-4.2-11.2-4-17-.1-1.7.2-3.6-.8-5-3.4-1.8-7.4-2.5-11.1-2.2-3.1.3-5 3.1-6.5 5.5-1.9 4.1-2.3 8.7-3.2 13-.9 3.5 1.1 7 .5 10.5-1.8 9.5-3.3 19-4.2 28.8-4.1 20-6.9 40-10.3 60.7-1 6.5-3.7 12.6-4.1 19-.7 9.5-4.5 18.4-5.3 27.9-1 8.7-4 17-5.1 25.8-1.6 8.9-4.6 17.5-5.1 26.6-1.7.6-3.3 1.3-4.9 2-.8-.8-1.6-1.6-2.3-2.4 3.1-8 4.4-16.4 6.1-24.8 1.9-11.4 4.9-22.5 6.6-33.9 2.5-6.9 2.4-14.3 3.4-21.4 5.5-20.6 9.3-41.7 12-62.9 1.6-8.7 3.4-17.4 4.3-26 2.1-12.9 4.1-25.9 6.4-38.8.6-3.8 2.7-7.1 5.2-10 1.9-1.3 4-2.3 6.1-3.3"/><path d="m97 127c1-.6 1.9-1.1 2.9-1.7-.1 6 1.4 11.8 3.2 17.5-1.3-.4-2.6-.9-3.8-1.3-.8-1.5-1.6-3-2.5-4.5-1.1-1.1-2.3-2.2-3.6-3.2-.4-.3-1.1-.8-1.5-1 .1-1 .2-2 .4-3.1 1.6-.9 3.3-1.9 4.9-2.8"/><path d="m115 139c.3-.4.9-1.1 1.2-1.5 3.7 3.1 8 5.2 11.5 8.6 4 3.8 9 6.1 13.3 9.4-.8 2.4-2 4.9-1.8 7.5.8 2.8 2.8 5.1 4.4 7.5-.6.2-1.2.5-1.8.7-1.1-2-2.2-4-3.2-6.1-1.2-2.6-1-5.5-1.7-8.2-1.2-1-2.5-1.7-3.8-2.5-3.1-1.9-5.8-4.3-8.8-6.4-.3-.2-.9-.7-1.2-.9-1.6 2.7-3.1 5.4-4.9 7.9-.6-2.9 1.5-5.1 2.5-7.6.5-1.7.4-3.5.5-5.3-3.6 1.5-7.3 3.2-11.4 2.8 1.8-1.1 3.7-2.1 5.6-3.1-.2-1-.4-1.9-.7-2.9"/><path d="m240 146c1.4 1 2.7 2 4.1 3-.6.3-1.7 1-2.2 1.3-.6-1.4-1.2-2.9-1.8-4.3"/><path d="m96 156c-2.2-.4-1.8-4.7.6-3.3.4 1.2.2 2.3-.6 3.3"/><path d="m99 153c.6-1.7 3.7-1.4 3.3.6-.9 1.5-2.7.6-3.3-.6"/><path d="m82 158c1.2-2.1 2.6-4 4.3-5.7.4 1.6.7 3.2 1.1 4.8 1.1-.8 2.2-1.7 3.3-2.5.4.3 1.2.8 1.7 1.1-2.3 2.4-3.8 5.3-4.3 8.5 3.5.3 7.1.8 10.2 2.6 4.3 2.2 7.1 6.4 9.9 10.3-.5 2-1 3.9-1.2 6 2.5-.5 5.2-1.5 5.6-4.3 1.1.8 2.3 1.5 3.4 2.3-.3 1.3-.6 2.5-.9 3.8-.7 2.2-.7 4.8-2.2 6.5-4.8 2.6-10.9 2-15.3 5.6-2.2 2-3.9 4.8-4.5 7.7.4 2.4 1.7 4.7 2.6 6.9 1.1.1 2.3.2 3.4.3-.1-1.6-.2-3.1-.3-4.6 2.7-1.7 5.5-3.3 8.8-2.9 0 .6 0 1.9 0 2.5-4.2 3.7-8.7 7-13.4 10-1.5-3.7-3.5-7.2-5.6-10.7-3.2-5.3-3.3-11.6-3.8-17.5-.2-5.4-1.8-10.7-1.7-16 .8-4.3 2.7-8.3 3.5-12.6-1.5-.8-3.1-1.5-4.7-2.3"/><path d="m129 161c1.5-.7 3-1.4 4.5-2.1 0 1.4 0 2.9.1 4.3-1.7-.1-3.3-.3-5-.4.1-.5.3-1.4.4-1.9"/><path d="m144 162c.4-1.2.8-2.4 1.3-3.6 7 4.5 12.9 10.7 20.7 14 0 .7.1 2.1.2 2.8-4.3-1.8-8.4-4-11.5-7.4-2.1-2.3-5-3.1-7.8-4.2-.9-.6-1.8-1.1-2.8-1.7"/><path d="m287 167c.8 0 2.3.1 3 .1-.3 2-.7 4.1-1.1 6-1.8-1.6-2.2-3.8-2-6.1"/><path d="m125 174c1.1.6 2.1 1.2 3.2 1.8-.5 1.3-1.3 2.4-1.5 3.8 1 3.3 4.3 5.2 6.9 7.2-4.2 4.1 0 8.9 3.1 12 1.6-1.4 3.1-3.1 4.2-5-2.2-.8-4.3-1.5-6.5-2.2 1.1-1.9 2.4-3.7 4-5.2-.5 2-1.1 4-1.7 5.9 2.7-.6 5.5-1.1 7.8-2.7.9-.8 1.7-1.6 2.6-2.5.6.6 1.2 1.3 1.8 1.9-4.3 4.7-8 9.8-13 13.8-.5-.4-1.6-1.1-2.2-1.4v-.8c-1.3-3.9-3.7-7.4-5.6-11-1.5-3.2-2.8-6.4-4.1-9.6.3-2 .8-3.9 1.1-5.9"/><path d="m137 177c1 1.2 2 2.4 3 3.6-1.1.4-2.3.9-3.4 1.3.1.7.1 1.4.2 2.2-.3.3-.8.9-1.1 1.3-1.3-1.7-2.6-3.3-4-5 1.8-1.1 3.6-2.2 5.4-3.3"/><path d="m155 190c3.5-2.6 3.9-8.7 9-8.8-1.7 3.4-3.8 6.5-5.9 9.6-.8 0-1.6-.1-2.5-.1-.2-.2-.5-.5-.6-.7"/><path d="m119 186c1.3-.1 2.5-.1 3.8-.1.4.3 1.1.7 1.5 1 .6 1.5 1.2 3 1.8 4.5-.3.3-.8.9-1 1.2-.5-.4-1-.8-1.5-1.3-.4-.4-1.3-1.2-1.7-1.5-.9-.3-1.8-.7-2.8-1 0-.9-.1-1.9-.1-2.8"/><path d="m74 196c.3.6.8 1.7 1.1 2.3.7 1.6 1.6 3.2 1.3 5-.9 2.7-2.8 5.1-3.2 8-.4 2.8-.2 5.7-.1 8.6-1.1.4-2.3.8-3.4 1.2 1.5-8.3 2.9-16.6 4.2-25"/><path d="m134 206c.5-.3 1.6-.9 2.1-1.3 1.2.7 2.4 1.4 3.5 2.2-.7 2.7-2.1 5.3-4.9 6.3-.3-2.4-.5-4.8-.7-7.2"/><path d="m76 232c2.6 1.2 5 2.9 7.1 4.9 2 1.6 4.5 1.5 6.9 1.3-.3 1.2-.6 2.3-.8 3.5-.8 4.7-.8 9.5-1.9 14.2.8.6 1.7 1.2 2.5 1.8l.5.3c-2.3 2.8-3.8 6.3-3.4 10 .7 8.4-1.2 16.6-1.7 24.9 1.2.7 2.3 1.4 3.5 2.1-3.3 5.4-5.4 12.5-2.4 18.6.8 1.2 1.7 2.3 2.5 3.4 1.2 1.5 2.4 2.9 3.6 4.4-1.8 1.6-3.4 4.7-6.3 3.9-5.7-1.7-10.4-5.5-14.9-9.3 1.5-1.2 2.9-2.4 4.5-3.4 1.5-.5 3-.9 4.5-1.3.8-5.1 2.6-10 1.8-15.3-.4-3.2.9-6.1 1.5-9.1.8-3.5.2-7-.2-10.5l-.1-.8c1.2-5.2 2.8-10.5 2-16-1.5 1.1-3 2.3-4.6 3.4-1.4-.6-2.9-1.3-4.3-1.9 1.8-1.2 3.5-2.5 5.4-3.6 1.1-.5 2.2-1 3.3-1.5 1.5-4.4 2.2-9 1.8-13.7-.8 0-2.3 0-3.1 0-1.7-.1-3.5 0-5.2-.6-2.3-1.9-3-5.1-4.2-7.7.4-.6 1.1-1.7 1.5-2.3"/><path d="m91 237c.7-1.2 1.3-2.3 2-3.5.4 1.5.8 2.9 1.2 4.4-.8-.2-2.4-.7-3.2-.9"/><path d="m105 235c3.7 1.8 7.6.2 11.4.2.5 1.7.8 3.4 1.1 5.2-.3.2-1 .5-1.3.7-.7.3-2 1-2.6 1.3 1.9 1.9 3.8 3.6 5.8 5.4-2.7-1-5.7-1.7-8-3.5-2.4-2.3-3.8-5.3-5.6-8.1-.2-.3-.5-.9-.7-1.2"/><path d="m120 240c1.2.1 2.4.3 3.6.4.3.3.8.9 1 1.2 4.3 4.4 7.4 9.8 11 14.7 1.6 3.5 2.8 7.1 4.4 10.5-.2.9-.5 1.8-.7 2.7-1.1-1.4-2.1-2.7-3.1-4.1-.8 0-2.4-.1-3.2-.1-.2 5.5 5.9 6.9 9.7 9.3-2.2 1.4-4.4 2.7-6.6 4.1.7-1.6 1.6-3.2 2.1-4.9-2.3-2.8-6.2-3.7-8.8-6.1 2.1-1.7 5.5-2.6 6.6-5.2-1.6-3.9-4.5-7-6.9-10.4-2.8-3.6-5.2-7.8-9.3-10 .1-.5.3-1.5.4-2"/><path d="m106 253c1.5-1.7 2.3-5 5-4.9.2 1.1.3 2.3.2 3.4-1.2 1.7-3.3 2.1-5.2 1.5"/><path d="m114 251c2.5 2.5 5.1 5 7.3 7.8 2.1 2.8 2.8 6.3 4.6 9.3 1.9 3.1 4.2 5.8 6.2 8.8 3.6 5 6 10.7 9.3 15.8.9 0 2.6.1 3.5.1-1.2-2.7-2.3-5.5-3.4-8.3 2 2.3 3.7 4.9 5.2 7.6-.8 1.3-2.8 2.4-2 4.1 1 3.6 2.7 7 5.1 9.9 1.9 2.5 5.1.7 7.6.4 1.2-.1 2.4-.2 3.5-.2 2.1.8 4.1 1.8 6 2.7-.3 2.1-.7 4.1-1 6.2-3.3.6-6.5 1.5-9.9 1.6-3.7 0-7-2.2-10.7-1.9-2.8.2-5.7.8-8.5 1.3-4.7.8-8.3 4.6-13.2 4.9 1.7-2.3 3.2-5.2 5.9-6.4 4.9-1.5 10.5-.8 15-3.6 1.1-1.9-.7-3.7-1.4-5.4-2.9-6.1-5.6-12.3-8.8-18.3-2.4-5.9-6.6-10.9-9.8-16.4-2.6-4.3-3.9-9.2-6.8-13.3-1.5-2.2-2.9-4.4-4.1-6.8"/><path d="m96 256c2.9.2 5.8 0 8.6-.6-1.9 4.7-1.5 9.9-2.4 14.9-.2.7-.5 2.1-.6 2.9-.6-.6-1.2-1.2-1.8-1.8-1.2-4.3-1.9-8.6-3.1-12.9-.2-.8-.5-1.7-.7-2.5"/><path d="m62 266c1-2.4 2-4.8 2.9-7.3-.1 1.6-.1 3.2-.1 4.8v.8c-.2 2.8-.5 5.6-.8 8.4-1-.3-2-.6-3-.9.3-1.9.6-3.9 1-5.8"/><path d="m91 268c1.4.1 2.8.2 4.3.2.1 1.1.2 2.2.3 3.3-1.4-.1-2.8-.3-4.2-.4-.1-1.1-.3-2.1-.4-3.2"/><path d="m142 269c.7-.4 1.5-.8 2.2-1.1 3.2 3.4 4.7 8 8 11.3 2.3 2.4 4.9 4.6 6.8 7.4-1 .2-2.1.4-3.1.7-.3-.6-.8-1.9-1.1-2.5-2.7-3.3-6.4-5.6-8.7-9.2-1.4-2.1-2.7-4.3-4.1-6.4"/><path d="m356 277c.6-.1 1.8-.3 2.4-.4-2.1 3.7-4.3 7.4-6.5 11-.3-.1-.9-.4-1.1-.6 2.1-3.2 3.8-6.6 5.3-10"/><path d="m362 283c-.4-1.8-1.5-3.5-1.3-5.4 1.6 1.6 4.9 2.8 4.2 5.5-1.1 2.6-3.5 4.3-6.1 5.2.7-1.9 2-3.6 3.2-5.3"/><path d="m331 281c1.1 0 2.1.1 3.2.1-.6 2-1.1 3.9-1.7 5.9 2.4.8 4.9 1.2 7.5 1.1-.6-2.3-1.3-4.5-1.9-6.8.5-.1 1.5-.2 2.1-.3.6.8 1.2 1.6 1.9 2.3-.3 2.1-.6 4.1-.8 6.2-3.3.4-6.5.2-9.7-.5-.1-2.7-.2-5.4-.3-8"/><path d="m251 298c4.3-5.3 7.8-11.4 13-15.9-.6 4.5-4.1 7.7-6.7 11.2 1.1 1.4 2.1 2.8 3.2 4.2-.7 0-1.4 0-2.2 0-1.6-.2-3.2-.4-4.7-.5.1 1.8.1 3.6.1 5.4 3-.7 6-1.3 9-1.8-.9 1.2-1.9 2.3-2.9 3.4-3 .5-6.1.3-9-.6-.3-.3-.9-.9-1.3-1.1.5-1.4.9-2.9 1.5-4.3"/><path d="m265 289c1.9-2.1 3.6-4.2 5.4-6.3.6 2.2 1.3 4.3 2.1 6.4-2.4-1-5-.9-7.4-.1"/><path d="m365 285c.9-.4 1.7-.9 2.6-1.3 2.1 3.6 4.3 7.1 6.9 10.4-1.7.6-3.5.6-5.3.5-.6.7-1.3 1.3-1.9 2 1-4.1-.5-8-2.2-11.6"/><path d="m131 287c-1.6 3-4.7-1.1-1.5-2 .4.5 1.2 1.5 1.5 2"/><path d="m289 290c.8-1.8 1.8-3.5 3.7-4.2 0 .8 0 2.3 0 3-1.2.4-2.5.8-3.7 1.2"/><path d="m344 289c1.3 0 2.5 0 3.8.1-.8 1.9-1.9 3.6-3.6 4.8-.1-1.6-.1-3.3-.2-4.9"/><path d="m301 290c1.2 0 2.5 0 3.7 0-.4.9-.8 1.8-1.1 2.7-.6 0-1.9-.1-2.6-.1 0-.7 0-2 0-2.6"/><path d="m355 301c3-.5 5.3-2.6 7.1-5 .6 1.3 1.2 2.5 1.8 3.8 4.1-1 8.2-2.2 12.3-3.3.4.6 1.3 1.8 1.8 2.4-4 2.4-8.9 2.4-13.3 3.8-2.7.3-5.5.3-8.2.5-8.9.3-15 7.9-23.5 9.8-3.4.9-6.5-1.3-9.4-2.6 1.7-2 3.1-4.4 5.4-5.7 4.4-1.1 8.9-.3 13.4-.7 4.4-.2 8.6-1.7 12.8-3"/><path d="m64.8 300c.8 0 2.5 0 3.3.1-.2 1.1-.5 2.1-.7 3.2-.6.1-1.7.4-2.2.5-.1-1.3-.2-2.5-.4-3.7"/><path d="m137 304c.9 1.5 1.9 3 2.9 4.5-.5.3-1.6.8-2.2 1.1-.3-1.9-.5-3.7-.8-5.6"/><path d="m259 305c8.6-.4 16.4 3.6 24 6.9-5.9 2.4-12.3 3.3-18.5 4.8-4.5 1.1-8-3.5-8.3-7.5.6-1.6 1.8-2.9 2.8-4.2"/><path d="m354 310c1.4-1.1 2.8-2.2 4.2-3.3.6 1 1.2 2.1 1.8 3.1-1.3.6-2.7 1.3-4 1.9-.5-.4-1.5-1.3-2-1.7"/></g><g style="fill:#7c2905"><path d="m288 70c1.4-1.1 3 .2 4.4.4-6.6 8.4-4.1 19.9-8 29-2-.1-4.1.3-6-.4-3.4-2.6-5.3-8-10.3-7.7-.5 2.5-1 4.9-1.4 7.4 2.1-.3 4.1-.5 6.2-.8-.1.5-.2 1.6-.3 2.2-1.9.6-3.7 1.2-5.6 1.6-2-3.2-2.5-7.4-.8-10.8 2.6-1.9 6.2-2.2 8.5-4.5 2.1-2.7 2.8-6.2 5.3-8.6 2.7-2.7 4.9-5.9 8.1-8"/><path d="m85 120c3-.9 5.1-3.4 7.1-5.6.3.4 1 1.2 1.3 1.6.9 1 1.8 2 2.8 2.9-.8.1-2.3.3-3.1.4 1.4 2.6 2.9 5.2 4.4 7.7-1.6.9-3.3 1.9-4.9 2.8-.1 1-.3 2-.4 3.1-3.2-.8-6.4-1.1-9.7-1.4-.8-1.1-1.7-2.2-2.5-3.2 2.3-.1 4.7-.1 7-.1.8-1 1.6-2 2.4-3-4.2 0-8.5.8-12.7.3-2.3-.9-4-3-5.8-4.6.4-.8.8-1.6 1.3-2.4 4.3.1 8.5 1.4 12.8 1.5"/><path d="m52.8 130c1.5-2.4 3.4-5.2 6.5-5.5 3.8-.3 7.8.4 11.1 2.2 1 1.5.7 3.4.8 5-.2 5.8.5 12.2 4 17 2.5.9 5.2 1.5 7.8 2.5 2-2.3 5.7-5.9 2.7-8.8-1.7-2.4-4.9-.6-7.2-.6.8-2.1 1.8-4.1 3.6-5.4 3.7-1.3 7.5-.3 11 1.3.1-1.3.3-2.6.4-3.9 1.3 1 2.5 2 3.6 3.2-1.5 4-1.1 8.3-.4 12.3-2.7 1.1-5 2.9-6.2 5.6-1.1.8-2.2 1.7-3.3 2.5-.4-1.6-.7-3.2-1.1-4.8-1.7 1.7-3.1 3.6-4.3 5.7 1.6.8 3.1 1.5 4.7 2.3-.8 4.3-2.7 8.3-3.5 12.6-.1 5.4 1.5 10.7 1.7 16-1.1.7-2.2 1.3-3.3 2 .6 1.5 1.3 2.9 1.9 4.4-2.2 1.8-4.8 2.7-7.6 2.4-.3-.6-.8-1.7-1.1-2.3-.5-1.5-1.1-3-1.5-4.5-1.8-5.8-1.2-12-1.8-18-.7-5.1.7-10.4-1.6-15.2 1.7-5.4 0-10.9 0-16.4 0-4.8-1.1-9.6-1.6-14.3-2.5-.9-5-2.3-7.8-2.3-2.9 1-5.2 3-7.3 5.1"/><path d="m238 141c3.2-.3 6.4-.6 9.7-.9 1.1.4 2.2.8 3.3 1.2-.8 2-1.5 4.1-2.2 6.1.5.1 1.4.2 1.9.3 1.9 4.1 2.1 8.6 2.1 13-7.4-3-13.7-9-16.3-16.6.5-1 1-2.1 1.5-3.1m1.9 5c.6 1.4 1.2 2.9 1.8 4.3.6-.3 1.7-1 2.2-1.3-1.3-1-2.7-2-4.1-3z"/><path d="m124 148c3 2.1 5.8 4.5 8.8 6.4-.1 1.3-.1 2.6-.2 3.9-1.5.7-3 1.4-4.5 2.1-.1.5-.3 1.4-.4 1.9 1.7.1 3.3.3 5 .4 1.2 2.8 2.8 5.3 4.3 7.9-1.5-.9-3.1-1.9-4.6-2.8-1.1 1.2-2.2 2.4-3.3 3.6-.8-.5-2.7-1.2-3 .2.3 1.3 1.7 1.9 2.6 2.8-.1.3-.4.9-.5 1.2-1.1-.6-2.1-1.2-3.2-1.8.5-4.1-1.9-7.7-2.3-11.7.9-3.4 2.7-6.6 3.9-9.9-1.1.1-2.2.3-3.4.4l.4-.7c.9-1 1.1-2.1.6-3.2l-.3-.6"/><path d="m97 152c.8.4 1.6.8 2.4 1.2.6 1.2 2.4 2.1 3.3.6-.1 4.6 1.7 8.8 4.3 12.5-.1.5-.3 1.1-.4 1.6 1.1.4 2.1.8 3.2 1.2.9 3.2 1.9 6.4 2.6 9.6-.5 2.9-3.1 3.9-5.6 4.3.3-2 .7-4 1.2-6-2.8-3.8-5.5-8-9.9-10.3-3.1-1.8-6.7-2.3-10.2-2.6.5-3.2 2.1-6.2 4.3-8.5 1 .7 2 1.3 3 2 .3-.6.9-1.8 1.2-2.4.8-1 1-2.2.6-3.4"/><path d="m115 185c.7 2.8 1.5 5.7 3.2 8.1 2 1 4-1 5.9-1.6.5.4 1 .8 1.5 1.3-1 1.2-2 2.4-3 3.6 1.7 1.4 3.6 2.8 5 4.5-.3.8-.8 1.5-1.3 2.2-1.9-1.2-3.9-2.2-6-2.9.1 1.3.3 2.5.4 3.8-.6 0-1.7.1-2.3.2.6 1.1 1.2 2.3 1.8 3.4.2 2.1.1 4.2.1 6.3.1 3.6 1.6 7 1.3 10.5-.7 5.6 3 10.6 2.7 16.3-1.2-.2-2.4-.3-3.6-.4-.1.5-.3 1.5-.4 2.1-1.3-.4-2.5-.8-3.8-1.2.3-.2 1-.5 1.3-.7-.2-1.8-.5-3.5-1.1-5.2-3.8 0-7.7 1.6-11.4-.2.2.3.5.9.7 1.2-1.7 1-3.5 2-5.2 3.1 1.5.5 3.1 1 4.6 1.4-.2 3.8-.9 7.4-2.7 10.8-1.1 2 1.9 2.3 3.1 3.1l-.8.2c-2.8.6-5.7.8-8.6.6.2.8.5 1.7.7 2.5-2.2 0-4.4 0-6.7-.3l-.5-.3c3.4-4.8 3.5-11.6-.7-16 .2-1.2.5-2.4.8-3.5.2-.4.6-1.1.8-1.5.8.2 2.4.7 3.2.9 1.2.4 2.4.7 3.7 1.1-.1-3.5-2.3-6.2-4.6-8.6-2 1.6-4 3.2-6 4.9-.8-1.7-1.6-3.5-2.4-5.2-.5 2.4-1 4.7-1.4 7.1-2.1-2-4.5-3.7-7.1-4.9-.4.6-1.1 1.7-1.5 2.3 1.2 2.6 1.9 5.8 4.2 7.7 1.7.6 3.5.5 5.2.6-.1 5.1-.8 10.2-2 15.2-.7-2.2-1.3-4.3-1.9-6.5-1.9 2.5-4.3 4.8-5.3 7.9-.9 2.8 1.4 5.2 2.7 7.5 1.3-.1 2.6-.1 3.8-.1.7 3.1 1.5 6.2 2.2 9.3l.1.8c-3.2-.9-6.9-1.1-9.6-3.2-2.7-3.1-4.5-7.3-8.8-8.6v-.8c.6 0 1.8-.1 2.4-.1 1.4-.1 2.7-.2 4.1-.3-.1-1.3-.3-2.6-.4-3.9-1.1.1-2.3.3-3.4.4-.1-2.3-.4-4.5-.6-6.7.9-3.1 2.1-6.2 2.4-9.5 0-3.2-2-5.9-2-9 .2-4.2 1.4-8.3 2.4-12.4 1.2.5 2.3 1.1 3.5 1.6 1.1-4.2 3.7-7.6 6-11.2.1-3-1.4-6.3 1-8.8.6 1.7 1.1 3.4 1.7 5 .5 1.2 1.5 1.9 2.8 2.2.4 1.3.8 2.5 1.2 3.8-.4.4-1.1 1.4-1.5 1.8-.8 0-2.5-.1-3.3-.2.3 1.1.7 2.2 1.1 3.3-1 1.6-2 3.2-2.9 4.9 3.1 1.3 6.1 2.9 9.3 4 1.7-.6 3.4-1.2 5-2.1 1-.8 1.9-1.8 2.8-2.7 2.6 1.1 5.1 2.3 7.3 4.1-2.1.7-4.1 1.3-6.2 2 1.4.6 2.7 1.6 4.3 1.7 1.4-.3 2.4-1.5 3.5-2.4.8-1 1.5-2 2.2-3 1.7 2.2 3.3 6.1 6.8 5.4 1.5-1.3 2.7-2.9 3.9-4.4.2-.4.6-1.3.8-1.8l-.5-.6c-2.9-.4-6.8.8-8.5-2.4 2.3-.3 4.5-.5 6.8-.7l-.2-.7c-.1-.6-.3-1.8-.5-2.4-.7-.4-1.4-.9-2.1-1.3-.6 1.1-1.2 2.1-1.8 3.2-.5-.1-1.7-.2-2.2-.2-.1-.8-.2-2.4-.2-3.2.7-.1 2.1-.3 2.8-.4-.2-1.9-.1-3.8-.7-5.6-1.4-1.5-3.2-2.5-4.9-3.7 0-.6 0-1.9 0-2.5-3.3-.4-6.2 1.2-8.8 2.9.1 1.5.2 3.1.3 4.6-1.1-.1-2.3-.2-3.4-.3-1-2.3-2.2-4.5-2.6-6.9.5-3 2.3-5.7 4.5-7.7 4.3-3.6 10.5-3 15.3-5.6 1.6-1.7 1.6-4.3 2.2-6.5m-40.6 58c-1.4.7-1.7 2.3-2.4 3.6 1.8-.7 3.6-1.3 5.4-1.9-1 2.6-3.3 4.3-5 6.4-.6 1.3-.5 6 1.5 3.7 2.5-3.6 5.6-6.8 8.4-10.1-2.5-.8-5.2-3.3-7.9-1.6z"/><path d="m147 284c1.2.4 2.3.7 3.5 1.1.8 1.7 1.6 3.5 2.7 5 2.6 1.4 5.4-.1 7.9-.9 2.7 3.8 6.8 6.5 8.7 10.9-.5 2.3-1.8 4.3-2.9 6.4-1.3-.8-2.7-1.6-4-2.4-.8.9-1.5 1.8-2.3 2.6-1.2 0-2.4.1-3.5.2-4.7-.3-6.6-5.1-8.7-8.5 1.9.5 3.7 1.1 5.6 1.6 2.9.4.5-2.9-1.1-3 .4-.3 1.3-.8 1.8-1 2.2.5 4.4 1 6.6 1.4-1.3-2-2.5-4.2-4.5-5.6-2.7.1-4.4 2.5-6.3 4.1 1.1-4.4-1.1-8.4-3.3-11.9m16 13.3c-1.9.4-1 3.6.8 3 1.9-.4 1-3.6-.8-3z"/><path d="m88 304c2.2-3.4 6.4-4.6 10.3-4.6.1.5.3 1.5.5 2.1-.8.4-2.5 1.1-3.4 1.4-.4.2-1.3.6-1.7.8.8 3.1 2.6 5.8 5.1 7.6-3.2 1.1-6.5 1.3-9.9 1.2.3.8.5 1.6.7 2.5-.2.5-.7 1.6-1 2.1-.9-1.1-1.8-2.3-2.5-3.4.6-3.2.8-6.5 1.8-9.6"/></g><g style="fill:#806e39"><path d="m63.7 32c6.6-.1 13-.1 19.7.2h-.7c-3.7 0-7.4.4-11 .5.1 1.3.2 2.6.2 4-1.2.5-2.4 1-3.7 1.5.2-1.8.3-3.5.5-5.3-1.5-.3-3.1-.5-4.6-.8h-.4"/><path d="m265 66c.4.1 1.1.3 1.5.4.4.1 1.1.3 1.5.4-2.5 3.3-3.8 7.3-4.4 11.4.6-.1 1.9-.3 2.6-.5 0 1.2 0 2.4 0 3.6 1.6-1.3 3.3-2.5 4.9-3.9-.1.5-.1 1.4-.2 1.8 1.3-.5 2.5-1 3.7-1.6-.1.5-.3 1.5-.4 2-2.3 3.4-4.8 6.8-8.3 8.9-1.6-.6-3.1-1.3-4.7-1.9-.6-2.5-1.3-4.9-2.3-7.3 1.4 1.7 2.9 3.4 4.4 5-1.2-6.2-.8-12.6 1.7-18.4m.3 17.5c.1.8.3 2.3.3 3.1.9-1 1.9-1.9 2.8-2.8-.8-.1-2.4-.2-3.2-.3z"/><path d="m69 74c3.5-1.5 7.1-2.8 10.8-3.3 1.8-.3 3.2.9 4.5 1.8-1.5.6-3 1.3-4.5 1.9 3.9 1.3 7.9 5.4 5.1 9.6-2.2-.2-4.4-.3-6.6-.5-1.9 2-4.2 3.7-5.9 5.9-1.1 2.5-1.8 5.2-2.7 7.8-2.3-.5-5.2-.5-6.8-2.6-.9-3.4-.1-6.9 1.6-9.8-.2-1.3-.5-2.6-.7-3.9 1.6-2.3 2.8-5.1 5.1-6.8"/><path d="m293 79c1.3-.5 2.6-1 4-1.5 1.5 2.3 3 4.6 4.4 6.9-.8 2-1.5 4-2.3 5.9-1.2.5-2.5.8-3.8 1.1.6-2 1.2-3.9 1.8-5.9-1.1-.3-2.3-.5-3.4-.7-.2-1.9-.5-3.8-.7-5.8"/><path d="m112 134c.3.1.9.4 1.2.6.9 1.1 1.7 2.2 2.5 3.3-.3.4-.9 1.1-1.2 1.5.2 1 .4 1.9.7 2.9-1.9 1-3.8 2-5.6 3.1 4 .4 7.8-1.3 11.4-2.8-.1 1.8 0 3.6-.5 5.3-1 2.5-3.2 4.7-2.5 7.6 1.8-2.6 3.3-5.3 4.9-7.9.3.2.9.7 1.2.9l.3.6c-2.1-.4-2.6 2.7-.6 3.2l-.4.7c-1.5 2.5-2.3 5.5-4.7 7.3-2.1-2-3.2-4.8-4.9-7.1-1.9-2-4.6-3.2-6-5.7-1.4-2.2-2.6-4.6-3.9-6.9 2.6-2 5.4-3.6 8.5-4.7 0-.4-.1-1.3-.2-1.8m-4.2 4.3c-.1.8-.2 2.3-.2 3 1.5-1.3 2.9-2.5 4.2-3.9-1.3.3-2.6.6-4 .9m4.9 11c-1.5.4-.7 2.7.7 2.1 1.5-.3.7-2.7-.7-2.1z"/><path d="m97 137c.9 1.4 1.8 2.9 2.5 4.5.3.5.8 1.5 1 2.1 1.1.5 2.2 1 3.4 1.5-1 1.6-2 3.1-3 4.7 1.5 0 3 0 4.5 0-.1 5.7 3.4 11.3 1.4 17-2.6-3.7-4.4-7.9-4.3-12.5.4-2.1-2.7-2.3-3.3-.6-.8-.5-1.6-.9-2.4-1.2-2.4-1.4-2.8 3-.6 3.3-.3.6-.9 1.8-1.2 2.4-1-.7-2-1.3-3-2-.4-.3-1.2-.8-1.7-1.1 1.2-2.7 3.6-4.5 6.2-5.6-.8-4.1-1.1-8.3.4-12.3"/><path d="m251 147c1.7.2 3.8.4 4.2 2.5 2.2 3.8 1.4 8.1-.5 11.8-.4-.3-1.2-.9-1.6-1.2 0-4.4-.2-9-2.1-13"/><path d="m81 191c1.1-.7 2.2-1.3 3.3-2 .5 5.9.6 12.2 3.8 17.5 2 3.4 4 6.9 5.6 10.7 4.6-3.1 9.2-6.4 13.4-10 1.7 1.1 3.5 2.2 4.9 3.7.5 1.8.5 3.7.7 5.6-.7.1-2.1.3-2.8.4-1.2.2-2.4.4-3.6.7-1.4 1.8-2.5 3.8-3.6 5.8 2-.3 4-.6 5.7-1.7.4-.4 1.3-1.2 1.7-1.6.5.1 1.7.2 2.2.2 1.5.2 2.9.3 4.3.6l.2.7c-2.3.2-4.6.4-6.8.7 1.7 3.2 5.6 2 8.5 2.4-1.8-.5-2.6 2.5-.4 2.4-1.3 1.5-2.5 3.1-3.9 4.4-3.5.7-5-3.2-6.8-5.4-.7 1-1.5 2-2.2 3-.4-.3-1.2-1-1.6-1.3-2.2-1.7-4.7-3-7.3-4.1-.9.9-1.9 1.8-2.8 2.7 0-.4 0-1.1 0-1.4-1.8.3-3.6.6-5.4 1 .1.6.2 1.9.3 2.5-3.2-1.1-6.2-2.7-9.3-4 1-1.6 1.9-3.3 2.9-4.9.7-1.1 1.5-2.1 2.3-3.1.4-.5 1.1-1.4 1.5-1.8-.4-1.3-.8-2.5-1.2-3.8.7-2.1-1.9-5.7-2.8-2.2-.6-1.7-1.1-3.4-1.7-5-2.4 2.5-.9 5.8-1 8.8-2.3 3.6-4.9 7-6 11.2-1.2-.6-2.3-1.1-3.5-1.6l.2-.7.2-.8c1.1-.4 2.3-.8 3.4-1.2-.1-2.9-.3-5.7.1-8.6.4-2.9 2.3-5.3 3.2-8 .3-1.8-.7-3.4-1.3-5 2.8.3 5.5-.6 7.6-2.4-.6-1.5-1.3-3-1.9-4.4m23 24c2.5.2 5-.2 7.3-1.1-.8-1.3-1.7-2.6-2.5-3.8-1.8 1.4-3.4 3-4.8 4.9m-.9.9c-1 1.2 1.1 2.6 1.9 1.4 1-1.2-1.1-2.6-1.9-1.4m-19.3 2.8c1.7.5 3.3.9 5 1.3-.5-1.3-1-2.5-1.4-3.7-1.4.5-2.9 1-3.6 2.4m11.3 0c1.5 2.5 5.2 4.7 7 1.1-2.3-.6-4.6-.9-7-1.1m-5 1c-.9 1.2-1.8 2.3-2.6 3.5-1.5-.1-2.9-.2-4.3-.2 1.8 4.1 7.2 1.2 10.5.8-.8-1.6-2-3-3.5-4m22.8 8.2c-1.9.4-1.1 3.5.8 3 1.9-.4 1.1-3.6-.8-3z"/><path d="m101 240c1.7-1.1 3.4-2.1 5.2-3.1 1.7 2.8 3.2 5.8 5.6 8.1 2.3 1.8 5.3 2.5 8 3.5-2-1.8-3.9-3.6-5.8-5.4.7-.3 2-1 2.6-1.3 1.3.4 2.6.7 3.8 1.2 4.2 2.3 6.5 6.5 9.3 10 2.4 3.4 5.3 6.5 6.9 10.4-1.1 2.5-4.4 3.4-6.6 5.2 2.7 2.4 6.6 3.3 8.8 6.1-.5 1.7-1.3 3.3-2.1 4.9 2.2-1.4 4.4-2.7 6.6-4.1-3.8-2.4-9.8-3.8-9.7-9.3.8 0 2.4.1 3.2.1 1 1.4 2.1 2.8 3.1 4.1.2-.9.5-1.8.7-2.7-1.6-3.5-2.9-7-4.4-10.5 2.9 3.7 5.2 7.9 8.5 11.3-.8.4-1.5.8-2.2 1.1 1.4 2.1 2.7 4.3 4.1 6.4 2.3 3.6 6 6 8.7 9.2-1.3-.4-3 1.3-1.8 2.4.9.5 1.9.5 2.9.1 1-.2 2.1-.4 3.1-.7.6.8 1.2 1.6 1.8 2.4-2.5.8-5.3 2.3-7.9.9-1.1-1.6-1.8-3.3-2.7-5-1.2-.4-2.3-.8-3.5-1.1 2.3 3.6 4.4 7.5 3.3 11.9 1.9-1.6 3.7-3.9 6.3-4.1 2 1.4 3.2 3.6 4.5 5.6-2.2-.4-4.4-.9-6.6-1.4-.4.3-1.3.8-1.8 1-1.7.8.2 2.5 1.1 3-1.9-.5-3.7-1-5.6-1.6 2.2 3.4 4.1 8.2 8.7 8.5-2.5.3-5.7 2.1-7.6-.4-2.4-2.8-4.2-6.3-5.1-9.9-.8-1.8 1.2-2.9 2-4.1-1.5-2.7-3.2-5.3-5.2-7.6 1.1 2.8 2.2 5.5 3.4 8.3-.9 0-2.6-.1-3.5-.1-3.4-5.1-5.8-10.8-9.3-15.8-2-3-4.3-5.7-6.2-8.8-1.8-3-2.5-6.5-4.6-9.3-2.1-2.9-4.7-5.4-7.3-7.8 1.2 2.3 2.6 4.6 4.1 6.8-.6.6-1.2 1.2-1.9 1.8-.5-.2-1.6-.5-2.1-.7-.2 1.1-.4 2.3-.6 3.4 1.4.4 2.8.7 4.2 1.1.2.4.5 1.3.7 1.7-2.5 1.2-6 2.2-6.2 5.5.7 1.3 1.5 2.4 2.3 3.6-.4 1.5-.8 3.1-1.2 4.6 3.3.3 6.7.5 10 .6.7 1.1 1.4 2.2 2.2 3.3.5-.3 1.7-.7 2.2-1 .5.9 1.1 1.8 1.6 2.6-3.2.9-.1 5 1.5 2 1.1 1.8 1.8 3.7 2.4 5.8.2 3.7 1.2 7.4 2.5 10.9.3-1.2.7-2.4 1-3.5.3 1.3.5 2.5.8 3.8.3 1.9.5 3.7.8 5.6.5-.3 1.6-.8 2.2-1.1l.7-.4c-.3 3 3.9 1.5 2.4-.8l-.3-.9c.7 1.7 2.5 3.5 1.4 5.4-4.5 2.8-10 2.1-15 3.6-2.8 1.2-4.3 4.1-6 6.4-1.1.2-2.2.5-3.3.8 1.5-2.8 3.2-5.6 4.6-8.5 0 .9.2 2.7.2 3.6 1.2-1.4 2.3-2.9 3.4-4.4-.7-.8-1.5-1.5-2.2-2.3-.3.6-.8 1.7-1 2.2-1.7-4.1-3.3-8.2-3.7-12.6-.2-2.8-1.3-5.4-2.6-7.8-.4.4-1.2 1.3-1.6 1.7 1.1 6 3.1 11.7 5 17.4 1.2 3-1.1 5.5-2.8 7.7-2.1-6.6-3.6-13.4-5.3-20-.8-2.8-.4-5.6.4-8.4-1.9 1.1-3.8 2.2-5.8 3.2-.2-.6-.7-1.6-.9-2.2 2.3-2.3 5.2-3.8 8-5.3 1.6-.6 1.6-2.5 2.2-3.9-2.4 1.4-4.8 2.8-7.1 4.3-1.4-1.6-2.8-3.2-4.2-4.7.6 2 1.2 4 1.8 5.9-.4.2-1.2.7-1.6 1-.2-.7-.6-2-.8-2.7-1 2.3-1.7 4.7-1.3 7.2-.8-3.5-1.2-7.1-1.5-10.7-.6 0-1.8 0-2.3 0 .6 10 .7 20 1.5 30-1.3-.7-2.5-1.4-3.8-2.1-2.5-1.9-4.4-4.5-5.1-7.6.4-.2 1.3-.6 1.7-.8 1 1.6 2 3.2 3.1 4.8.7-2 .9-4.2.3-6.2-.1-.5-.3-1.5-.5-2.1-3.9 0-8 1.2-10.3 4.6-1 3.1-1.2 6.4-1.8 9.6-3-6.1-.9-13 2.4-18.6-1.2-.7-2.3-1.4-3.5-2.1.5-8.3 2.4-16.5 1.7-24.9-.4-3.7 1.1-7.2 3.4-10 2.2.2 4.4.2 6.7.3 1.3 4.2 2 8.6 3.1 12.9.8 2.5 2.8 6-.8 7.3-3.5-.3-6.6-2.2-9.9-3.4.8 5.4.7 10.9.2 16.4 1.3-3.7 1.9-7.7 1.8-11.6 4.4.2 8.8.4 13.2.9-.6-3.6-1.1-7.2-2.2-10.6.9-4.9.4-10.2 2.4-14.9l.8-.2c-1.2-.8-4.2-1.1-3.1-3.1 1.7-3.4 2.5-7 2.7-10.8-1.5-.5-3.1-1-4.6-1.4m5.1 13.8c1.9.6 4 .2 5.2-1.5 0-1.1 0-2.3-.2-3.4-2.7 0-3.5 3.2-5 4.9m1.5 13c2.6-1.7 2.7-4.8 2.8-7.6-2.6 1.6-2.7 4.8-2.8 7.6m19.3-3c.1.6.2 1.3.3 2 1.6-.8 3.1-1.5 4.7-2.2.1-1 .2-2 .3-3-1.8 1-3.6 2.1-5.4 3.2m-35.4-2.2c.1.6.2 1.7.2 2.3 1.3.6 2.5 1.1 3.8 1.7.8-.8 1.6-1.6 2.4-2.4-2.1-.6-4.2-1.1-6.4-1.6m.1 7.1c.1 1.1.3 2.1.4 3.2 1.4.1 2.8.3 4.2.4-.1-1.1-.2-2.2-.3-3.3-1.4-.1-2.9-.2-4.3-.2m14 8.1c2.6 1.8 4.5 4.3 6.5 6.7-.7-2.9-1.3-6-1.3-9-1.7.8-3.4 1.6-5.2 2.3m36.9 5.8c-.5 1.6 0 2.2 1.7 1.7.5-1.6 0-2.2-1.7-1.7m-47.7.4c2.2 4.3 0 9.6 3.1 13.6.4-3.9.9-7.9.2-11.9-.7-1.1-2.2-1.1-3.3-1.7m27.6 5.4c1.2 4.3 2.9 8.5 4.2 12.7 1.5 4.3 1.2 9 3.7 13 .8-1.7 1.6-3.5.7-5.3-1.3-3.3-1.9-6.7-2.2-10.2-1.1-3.3-3.2-6.2-4.2-9.6-.5-.2-1.7-.4-2.2-.6m26 3.3c-1.6 3 3.3.2 0 0m7.2 2.2c-.8 1.2 1.4 2.4 2.2 1.3.8-1.2-1.4-2.4-2.2-1.3m-40.9.8c-1.3.9.3 3.2 1.6 2.2 1.3-1-.3-3.2-1.6-2.2m9.1 3.2c-.8 1.2 0 3.1 1.1 3.9 1.6-.5.6-4.2-1.1-3.9m-7.2 3.1c-1.1.9.4 2.8 1.6 2 1-.9-.4-2.8-1.6-2m4.2 11.1c-1.1.5-1.6 2.2-.8 3.2 1.6.6 2.5-3 .8-3.2z"/><path d="m74 243c2.6-1.7 5.4.8 7.9 1.6-2.8 3.4-5.9 6.5-8.4 10.1-2 2.3-2.1-2.4-1.5-3.7 1.7-2.1 4-3.8 5-6.4-1.8.6-3.6 1.3-5.4 1.9.7-1.3 1-2.9 2.4-3.6"/><path d="m83.9 242c.8 0 2.3 0 3.1 0 .4 4.6-.3 9.3-1.8 13.6-1.1.5-2.2 1-3.3 1.5 1.2-5 1.9-10 2-15.2"/><path d="m89 242c4.1 4.4 4 11.2.7 16-.8-.6-1.7-1.2-2.5-1.8 1-4.7 1-9.5 1.9-14.2"/><path d="m75 259c1-3 3.4-5.4 5.3-7.9.6 2.2 1.2 4.4 1.9 6.5-1.9 1.1-3.7 2.3-5.4 3.6 1.4.6 2.8 1.3 4.3 1.9 1.5-1.2 3-2.3 4.6-3.4.8 5.4-.8 10.7-2 16-.7-3.1-1.5-6.2-2.2-9.3-1.3 0-2.5.1-3.8.1-1.3-2.3-3.6-4.7-2.7-7.5"/><path d="m267 272c5.5-4.6 9.3-10.6 13.3-16.4-1.4 3-2.4 6.1-4.2 8.8-1.9 2.8-4.9 4.5-6.9 7.2-.9 1.6-1.1 3.4-1.5 5.2 5-.1 10.8-.1 14.8 3.5 2.7 3.8-.4 8.2-2 11.8.2.3.7 1 .9 1.4 2.1-3.4 4.2-7.1 3.7-11.3 3.5.1 6.8 1.2 10 2.7 4.3 2 9.1 1.7 13.4 3.4 1.2 3.1 1.7 6.4 2.6 9.6 1.1-2.9 2-5.8 3.9-8.2 1.2.6 1.7.4 1.5-.8-2.2-1.3-3.8-3.6-3.3-6.2.1-3 1.8-8 5.6-6.5 5.1 1.3 10-.8 15-1.6.9 2.1 1.8 4.2 2.7 6.3.2-1.5.5-2.9.7-4.4 2.6-.9 5.1-2 7.9-1.9 2.4-.2 3.3 2.5 4.7 4 .3-1.1.6-2.2 1-3.3 2.2-.5 4.3-1.2 6.5-1.2 2.7.5 5.2 1.7 7.9 1.7-2.4 3.3 1.1 6.1 2.6 8.9-.9.4-1.7.9-2.6 1.3 1.7 3.6 3.3 7.5 2.2 11.6.6-.7 1.3-1.3 1.9-2 1.8.1 3.6.1 5.3-.5.7.9 1.4 1.8 2 2.7-4.1 1.1-8.1 2.3-12.3 3.3-.6-1.3-1.2-2.5-1.8-3.8-1.8 2.4-4 4.5-7.1 5-1.3-.5-2.7-1.1-4-1.7 1.4-2 2.9-4.1 4-6.3.6-1.4 1.2-2.8 1.7-4.2-.6-.2-1.8-.5-2.3-.7-1.1-.4-2.1-.9-3.2-1.4 2.2-3.7 4.4-7.3 6.5-11-.6.1-1.8.3-2.4.4-1.4 3.5-3.2 6.9-5.3 10-.5-.2-1.4-.7-1.8-.9.3-1.4.5-2.7.8-4-1.7 1.4-3.3 2.8-5 4.2-.8-.7-1.5-1.4-2.3-2.1-.6-.8-1.3-1.5-1.9-2.3-.5.1-1.5.2-2.1.3.6 2.3 1.3 4.5 1.9 6.8-2.5.1-5.1-.2-7.5-1.1.6-1.9 1.1-3.9 1.7-5.9-1.1 0-2.1-.1-3.2-.1.1 2.7.2 5.3.3 8-.6.3-1.2.5-1.8.8-2.2-.5-4.4-1.1-6.7-1.1-1.1 1-2 2.3-2 3.9.7 3.3 4.2 4.6 6.7 6.2-.1-2.3-.1-4.6-.2-6.9 2.3 1.6 4.4 3.5 6.4 5.5-2.8 1.9-5.5 3.8-8.5 5.2-1.4-.7-2.7-1.4-4.1-1.8-2.9-.9-5.9.3-8.7-.3-2-.9-3.6-2.3-5.4-3.6.4 1.6.8 3.1 1.2 4.7-.7.2-1.4.4-2.2.7-2.3-2.8-4.3-6.1-7.7-7.6-2.9-1.4-6-2.3-9-3.3.1.7.4 2 .5 2.7 3.8 2.4 9 2.8 11.9 6.3-2.8 4.4-5.3 10-10.9 11.3-.2-1.8-.4-3.5-.5-5.2-1.1.7-2.3 1.3-3.4 2-1.6-2.2-3.2-5-6.3-5.1-.6 1.1-1.2 2.2-1.8 3.3 1.4.1 2.9.2 4.3.3.6.9 1.3 1.7 1.9 2.6 0 .9 0 1.8 0 2.7-.8-.4-1.6-.7-2.3-1.1-7.6-3.3-15.5-7.3-24-6.9.3-.3.8-.9 1-1.2 1-1.1 1.9-2.3 2.9-3.4-3 .5-6 1.1-9 1.8 0-1.8-.1-3.6-.1-5.4.3.8.9 2.5 1.2 3.3 1.9.7 2.5-1.7 3.5-2.8.7 0 1.4 0 2.2 0-1.1-1.4-2.1-2.8-3.2-4.2 2.6-3.5 6-6.6 6.7-11.2 1.4-3.2 2.5-6.6 2.4-10.2m73.9 5.7c.8.9 1.6 1.8 2.6 2.5 1.7.7 2.1-1.5 2.9-2.5-1.8-.1-3.7-.1-5.5 0m21 5.5c-1.2 1.7-2.4 3.4-3.2 5.3 2.6-1 5-2.6 6.1-5.2.7-2.7-2.7-3.9-4.2-5.5-.2 1.9.9 3.6 1.3 5.4m-43 1.3c.8 1.1 2 1.7 3.1 2.3.2-1.6.1-3.3 1.1-4.6 1.9.1 3.5 1.1 5.1 1.9-.1-1.1-.3-2.2-.4-3.4-3.3.2-7 .6-8.9 3.8m-53.8 4.6c2.4-.8 5-.9 7.4.1-.8-2.1-1.5-4.2-2.1-6.4-1.8 2.2-3.5 4.3-5.4 6.3m10.5-5c1.1 1.6 2.2 3.2 3.4 4.7.4-1.1.8-2.2 1.2-3.3-1.3-1-3-1.1-4.6-1.4m-1.4 2.6c-.5 1.6 0 2.2 1.7 1.6.5-1.6-.1-2.2-1.7-1.6m14.8 3.8c1.2-.4 2.5-.8 3.7-1.2 0-.8 0-2.3 0-3-1.9.7-2.9 2.5-3.7 4.2m-15.5.4c-2.8 3.2-5.3 6.7-6.5 10.8 4.3-3.5 7.4-8.3 11-12.4-1.5.4-3.5.3-4.6 1.6m27.7-.2c0 .7 0 2 0 2.6.6 0 1.9.1 2.6.1.4-.9.8-1.8 1.1-2.7-1.3 0-2.5 0-3.7 0m17.9-.2c-.2.3-.7.9-.9 1.1.8 3.1 4.3-1.8.9-1.1m-57 4.8c1.1 1.3 2.9 1.2 4.5 1.4-.7-1.8-1.5-3.5-2.3-5.2-1.4.8-2.3 2.1-2.2 3.8m18 1.4c.3 2.9 4.5 2.5 6.7 3.7-.2 1.7-.4 3.4-.5 5.1 2.9-.4 5.8-1 8.7-1.9-1.3-2-2.3-4.1-4.1-5.7-1.7-.2-3.4-.1-5.2-.1.5-1.8 1.1-3.5 1.6-5.3-2.4 1.3-4.9 2.5-7.2 4.1m35-3.4c1.7 2.9 3.9 5.8 7.4 6.6-1.1-3.4-4.1-5.5-7.4-6.6m42.6.8c-.3 1.3-.5 2.5-.8 3.8 1.2-.5 2.4-.9 3.6-1.3-.1-.7-.4-2.2-.5-2.9-.6.1-1.7.4-2.3.5m6 3.2c.6.3 1.8.9 2.4 1.2.3-1.9.6-3.8.8-5.6-1.5 1.1-2.4 2.7-3.1 4.4m-92 5.6c3.6-1.6 5.7-5 7.3-8.4-4.5.3-6.2 4.7-7.3 8.4m21-5.1c-1.5 3 3.3.1 0 0m-28.9 2.1c-1.5 1 .1 3.6 1.6 2.4 1.5-1-.1-3.6-1.6-2.4z"/><path d="m67.8 260c1.1-.1 2.3-.3 3.4-.4.1 1.3.3 2.6.4 3.9-1.4.1-2.7.2-4.1.3.1-1.3.3-2.6.3-3.9"/><path d="m65 264c4.3 1.4 6.1 5.5 8.8 8.6 2.7 2.1 6.4 2.4 9.6 3.2.5 3.5 1 7 .2 10.5-.6 3-2 6-1.5 9.1.8 5.2-1 10.2-1.8 15.3-1.5.4-3 .8-4.5 1.3-.5-.9-1.9-1.8-1.4-3.1 1-1.1 2.2-2.1 3.4-3.1.2-1.5.3-2.9.5-4.4-2.4 2-4.7 4-7 6 .3-1.8.6-3.6.8-5.3-.7.2-2 .5-2.6.7 0 1.6-.1 3.2-.1 4.8-1.4-1-2.7-1.9-4.1-2.9-3.6 1.2-7.5 1.3-11.3 1.7.6 1.3 1.3 2.6 2 3.8-2.2-.5-4.4-1.1-6.6-1.7 1.5-.4 3.5-.4 3.8-2.2-2.1-1.7-4.8-3-7.6-2.4-1.7.1-1.6 2.1-2 3.4-.4-.1-1.1-.2-1.5-.3 3.1-6.6 6.7-13 9.9-19.6 2-5.5 5.5-10.2 7.5-15.7.9-2.1 1.9-4.1 2.9-6.2-.4 1.9-.7 3.9-1 5.8 1 .3 2 .6 3 .9.3-2.8.6-5.6.8-8.4m.5 12.6c1.5-.3 3.3 0 4.5-1.1 1.5-1 .9-3 1.1-4.5-2.3 1.3-4.3 3.2-5.6 5.6m-9.7 6.6c-1.8 6.2-4.5 12-7.7 17.6 2.1.3 5.7 1.2 6.1-1.8 1.1-4.8 4.2-9 4.3-14 4.5-2.4 3.3-7.7 3.2-11.8-3.5 2.1-4.5 6.5-5.9 10m16.7-7.6c.9 3.4 4.1 4.5 7.2 4.8 0-.7.1-2 .2-2.7-2.5-.7-4.9-1.5-7.4-2.1m-6.5 4c-.8 9-5.9 16.7-9.3 24.8 4.2-2.2 6-7 9.8-9.8-.6-1.1-1.1-2.3-1.7-3.4.8-.5 1.6-.9 2.5-1.4-.4-3.5.8-6.8 3.3-9.3-1.5-.3-3-.7-4.5-1m7.2 2.9c-.2 4.9-2.3 9.3-3.4 13.9-.7 2.3 1.7 3.9 3.2 5.1 1.1-2.5-1.7-5.5 0-8 1.9-3.4 3-7.2 2.9-11.2-.7 0-2.1.1-2.8.1m-14.3 9.2c-1.5 3 3.3.1 0 0m5.7 7.8c.1 1.2.2 2.5.4 3.7.6-.1 1.7-.4 2.2-.5.2-1.1.5-2.1.7-3.2-.8 0-2.5-.1-3.3-.1z"/><path d="m161 307c.8-.9 1.5-1.8 2.3-2.6 1.3.8 2.7 1.5 4 2.4 3.4 3.9 3.2 9.4 2.4 14-1 2.4-3.2 4-5 5.6-4.8-1.4-9.8-.2-14.8-.9-5-.7-10-.3-15-1.3.7-2.5 1.4-4.9 2.2-7.4 2.8-.5 5.6-1.1 8.5-1.3 3.7-.3 7 1.9 10.7 1.9 3.3-.1 6.6-.9 9.9-1.6.3-2.1.7-4.1 1-6.2-2-.9-4-1.9-6-2.7"/><path d="m298 311c1.5-2.6 2.8-5.2 4.9-7.4 1.3-.2 2.2.3 2.7 1.5.4 2.9-1.1 5.6-2 8.3-2.1-.3-4-1-5.6-2.4"/><path d="m62 312c3.2.8 6.2 2.1 8.9 4.1 4.5 3.8 9.2 7.6 14.9 9.3 2.9.8 4.5-2.3 6.3-3.9-1.2-1.5-2.4-2.9-3.6-4.4.2-.5.7-1.6 1-2.1 2.7.3 5.5.7 8.2 1.3-2-.1-4-.1-6-.1 0 .7-.1 2.2-.1 2.9 1.2.7 2.4 1.4 3.6 2.1-.2 2.2-.6 4.6-2 6.4-2 2.8-4.5 6.5-8.5 5.9-7.2.6-11.3-6.3-17.3-9 .5-.4 1.6-1.3 2.1-1.7-3.1-2.5-6.3-4.8-9.7-7 .8-.4 1.6-.9 2.3-1.3 0-.9-.1-1.7-.1-2.6"/></g><g style="fill:#7f5e17"><path d="m62 35c4 3.2 7.5 6.8 11.3 10.1.3-.8.7-1.6 1-2.4-1.4-.9-2.8-1.8-4.2-2.8 1.5-1.8 3-3.6 4.4-5.4 1.8 1 3.8 1.9 5.3 3.4-.2 4.7-2.1 9-3.7 13.5-2.1-1.3-4.2-2.7-6.2-4.3-.6 1.6-1.2 3.1-1.8 4.7-.8-.2-1.7-.5-2.5-.8.2-4.1.1-8.5-2.8-11.8-.8 1.2-1.6 2.3-2.2 3.5.9 2.7 2.3 5.2 3.7 7.7-.7 1.4-1.4 2.8-2 4.3-.1-.6-.3-1.8-.4-2.4-.4-2.4-1-4.8-1.4-7.2-.7-3.5.6-7 1.6-10.4m5.9 9.2c-.5 1.6 0 2.2 1.7 1.7.5-1.6 0-2.2-1.7-1.7"/><path d="m74 46c-1.5 3 3.3.1 0 0"/><path d="m284 58c1.7-3.2 5.5-1.5 8.2-1.2.4-.3 1.2-1 1.6-1.3.8.8 1.6 1.6 2.4 2.5 2.9-1.2 5.8-2.1 8.8-2.7.3.5 1 1.4 1.4 1.9-1.9-.1-3.8-.4-5.6-.1-1.9 1.2-3 3.4-3.9 5.5.8.9 1.8 1.7 2.7 2.5.1 1.1.4 2.1.6 3.2 1.2-.3 2.5-.5 3.8-.8 0 .5-.1 1.5-.1 2 1.1.3 2.2.6 3.4.9.9-4.4.4-8.9-.8-13.2.9 1.4 1.9 2.9 2.2 4.6 1.3 8.8.6 17.7 0 26.5-1 4.9-4.8 9-5.2 14 .4 3.5 3.1 6.2 5.5 8.6-1.4-.3-2.8-.6-4.2-.9-1-2.3-2.1-4.6-3.2-6.9-5.2 2.2-10.8 3.2-15.9 5.8-.3-.7-.7-1.3-1-2-1 .7-2 1.4-3.1 2.1-1.8.9-3.9 2.2-5.9 1-2.1-1.3-3-3.8-4.3-5.8-4.8-1-8-4.8-12.1-7.1.9 0 2.7.1 3.6.1-1-1.4-2-2.8-2.9-4.2-.9 1.1-1.7 2.2-2.6 3.4.6-2.5 1.5-5 2.7-7.3 0 .7 0 2.2 0 2.9 2-1.2 3.9-2.3 5.9-3.6 3.6-2.2 6.1-5.5 8.3-8.9 5.4-4.1 9.9-9.3 14.6-14-1.2.2-2.3.3-3.5.6-.2-1.3-.5-2.5-.7-3.8-.3-1.4-.6-2.9-.6-4.4m4.4 12.7c-3.2 2.1-5.4 5.3-8.1 8-2.5 2.4-3.2 6-5.3 8.6-2.3 2.3-5.9 2.6-8.5 4.5-1.6 3.5-1.1 7.6.8 10.8 1.9-.4 3.8-1 5.6-1.6.1-.5.2-1.6.3-2.2-2.1.3-4.1.5-6.2.8.4-2.5.9-5 1.4-7.4 5-.3 6.8 5.1 10.3 7.7 1.9.6 4 .3 6 .4 4-9.4 1.5-20.9 8-29-1.4-.3-3.1-1.5-4.4-.4m3.7 8.8l.8-.3c.2 1.9.5 3.8.7 5.8 1.1.2 2.3.5 3.4.7-.6 2-1.2 3.9-1.8 5.9 1.3-.3 2.6-.6 3.8-1.1-.1 2.5 2.6 3.8 4.2 5.4 2-3.1 4.3-6.4 4.1-10.3-.1-2.3-.2-5.2-2.7-6.2-3.1-1.6-5.9-3.7-8.4-6-1.5 1.9-2.9 4-4 6.2z"/><path d="m78 93c1-.3 2.1-.6 3.1-.9.4-.1 1.1-.3 1.4-.4 0 1.9-.1 3.8.3 5.7.3 1.9 2.7 1.6 4.1 2.2 1.6 1.8 3.3 3.4 5 5.1-.4.3-1.2.9-1.6 1.2-4.6.2-9.3.1-13.9-1-1.3-2-2.7-4-4.2-5.9 2.6-1.3 5.8-2.5 5.7-5.9"/><path d="m203 123c3.2-1.5 6.5-2.5 9.9-3.3 3.1 4.8 7.3 9 12.5 11.5.1-.8.2-2.5.3-3.3 4 4.3 7.9 8.6 12.3 12.5-.5 1-1 2.1-1.5 3.1-.8 1.8-1.6 3.6-2.4 5.3-.4-1.1-.8-2.2-1.1-3.3-6.3-2.3-11.7-6.2-16.9-10.3-.7-1.2-1.4-2.4-2.1-3.5-3.2-3.4-7.3-5.7-10.7-8.8m21.8 10.7c-1.4 1.6-3.1 3.6-2.3 5.8.9 1.4 2.8 1.4 4.2 1.8.6-1.5 1.3-2.9 1.7-4.5-.9-1.3-2-2.8-3.7-3.2m3 8c1.1 1 2.2 2.1 3.7 2.5.8-1.4 1.4-2.9 2.1-4.4-2 .6-3.9 1.3-5.9 2z"/><path d="m76 128c1.4-.1 2.8-.1 4.2-.1.8 1.1 1.7 2.2 2.5 3.2 3.3.3 6.5.6 9.7 1.4.4.2 1.1.7 1.5 1-.1 1.3-.3 2.6-.4 3.9-3.4-1.6-7.3-2.6-11-1.3-2.8-2.2-5.2-4.8-6.5-8.2"/><path d="m284 167c2.4-8.3 8.4-15 14.7-20.8-.3 2.9-1.1 5.8-2.5 8.4 1.4 5 1.4 10.6-1.6 15-3 5.5-9.6 7.8-12.5 13.5-1.9 3.5-4.4 6.6-7.1 9.5-.4 1.7-.7 3.7.7 5 1.8 1.2 3.9 1.7 6 2.4.3 1 .5 2.1.7 3.1-2.5-1.7-5.4-2.7-8.4-3.2-2.8-.9-5.8-1.8-8.8-.8-.1-.7-.2-2.1-.3-2.9-1.3.4-2.6.8-3.9 1.1-.4-.7-.9-1.3-1.3-1.9.2-1.6.3-3.2.5-4.8 5.2-1.3 10.6-.9 15.8-.2 2.2-3.1 4-6.4 5.7-9.8 1.6-2.1 3.4-3.9 5.3-5.7-.5-2.9-.4-6.3-3.2-8m3.2.5c-.3 2.3.2 4.5 2 6.1.4-2 .7-4 1.1-6-.8 0-2.3-.1-3-.1m-24 27c3.2.1 7.6 1.8 9.2-2.2-2-.9-4-1.8-6.1-2.3-1.8.8-2.1 3-3 4.5z"/><path d="m133 155c1.3.8 2.6 1.5 3.8 2.5.7 2.7.4 5.7 1.7 8.2.9 2.1 2.1 4.1 3.2 6.1.6-.2 1.2-.5 1.8-.7-1.6-2.4-3.7-4.7-4.4-7.5-.2-2.6 1-5.1 1.8-7.5 1.3.9 2.5 1.8 3.8 2.7-.4 1.2-.9 2.4-1.3 3.6-1.4 2.2 2.1 4.9 2.8 1.7 2.8 1.1 5.8 1.9 7.8 4.2 3.2 3.4 7.3 5.6 11.5 7.4 1.5.7 3.1 1.3 4.7 1.8-.2.9-.4 1.9-.7 2.8-1 1.2-2 2.4-2.6 3.8.8 1.2 1.9 2.3 2.9 3.4-2.1 2.5-2.2 5.5-1.2 8.4 2-.5 3.9-1 5.9-1.6-.9-1.7-1.7-3.4-2.7-5 4 3.5 6.7 8.2 10.2 12.2.3.3.8 1 1.1 1.4 1.8 2.2 3.3 4.7 4.4 7.2-1.8.1-3.6.2-5.4.3-3.7-4.1-7.5-8.2-11.6-11.8-1.2-1.3-3.1-.7-4.7-.8-.9-2.7-2.2-5.4-4.7-7-1-.1-2-.1-3.1-.1 2.1-3.1 4.2-6.2 5.9-9.6-5.1.1-5.5 6.2-9 8.8-.8-1-1.6-1.9-2.4-2.9 3.1-3.4 5.5-7.3 8.4-10.9-5.7 2.6-12 1.8-18 .8-.3.6-.9 1.9-1.2 2.5.4.9.7 1.8 1.1 2.8 1.6-.5 3.3-1 4.9-1.6-.5.4-1.5 1.3-2 1.7.5.9 1 1.8 1.5 2.8.6 0 1.7.1 2.3.1-.8.7-1.5 1.4-2.3 2.2-.8.8-1.7 1.6-2.6 2.5-2.2-1.9-4.3-3.9-6.2-6-.5 0-1.5 0-2 .1-.1-.7-.1-1.4-.2-2.2 1.1-.4 2.3-.9 3.4-1.3-1-1.2-2-2.4-3-3.6-1.8 1.1-3.6 2.2-5.4 3.3 1.3 1.7 2.7 3.3 4 5-.4.5-1.2 1.4-1.6 1.9-2.6-2-5.9-3.9-6.9-7.2.3-1.3 1-2.5 1.5-3.8.1-.3.3-.9.5-1.2.4-.9.6-1.9.4-2.9 1.1-1.2 2.2-2.4 3.3-3.6 1.5.9 3.1 1.8 4.6 2.8-1.5-2.6-3.1-5.2-4.3-7.9-.1-1.4-.1-2.9-.1-4.3 0-1.3.1-2.6.2-3.9m11.3 16c.7 3.1 5 4.9 7.3 2.4-2.2-1.5-4.7-2.3-7.3-2.4m-13.8 1.1c-.5 3 2.3 4.3 4.7 3.4-1.2-1.6-2.8-2.8-4.7-3.4m12.9 2.3c-1 1.8 2.8 3 3 1-.2-1.3-2.1-2-3-1m-3.5 1.2c-1.7.3-.9 3 .7 2.5 1.6-.4.9-3-.7-2.5m-8.8 6.9c-.4 1.4.1 1.9 1.5 1.4.4-1.4-.1-1.9-1.5-1.4m23.8 3c-.4 1.4.1 1.9 1.4 1.4.4-1.4-.1-1.9-1.4-1.4z"/><path d="m116 181c2.5 1.7 4.9 3.3 7.4 5-1.3 0-2.5 0-3.8.1 0 .9 0 1.9.1 2.8.9.3 1.8.6 2.8 1 .4.4 1.3 1.2 1.7 1.5-1.9.5-3.9 2.6-5.9 1.6-1.7-2.4-2.5-5.3-3.2-8.1.3-1.3.6-2.5.9-3.8"/><path d="m128 189c1.9 3.7 4.2 7.2 5.6 11-1.5-.2-2.9-.5-4.4-.7.5 2.3 1.8 4 4.3 4.3.5.2 1.6.5 2.1.7-.5.3-1.6.9-2.1 1.3.2 2.4.4 4.8.7 7.2 2.8-1 4.2-3.5 4.9-6.3 4.2 5.6 8.7 11 14.3 15.2-2.3 1.6-4.8 2.9-7.3 4-2.3-5.3-6.8-10-12.5-11.2-.8.5-1.6 1-2.4 1.6-2.9-3.9-5.7-10.1-11.6-8.9-.6-1.2-1.2-2.3-1.8-3.4.6 0 1.7-.1 2.3-.2 1.2.6 2.3 1.3 3.5 1.9.7-.9 1.4-1.9 2.1-2.8.5-.7.9-1.4 1.3-2.2-1.4-1.8-3.3-3.1-5-4.5 1-1.2 2-2.4 3-3.6.3-.3.8-.9 1-1.2.5-.5 1.6-1.6 2.1-2.2"/><path d="m298 205c1.7-.4 3.4-.8 5-1.2.8 2.4 1.5 4.9 2.2 7.4-1.4.7-2.8 1.5-4.1 2.2-1.1-2.8-2.2-5.6-3.2-8.4"/><path d="m83 237c.4-2.4.9-4.7 1.4-7.1.8 1.7 1.6 3.5 2.4 5.2 2-1.7 4-3.3 6-4.9 2.3 2.4 4.5 5.1 4.6 8.6-1.2-.4-2.4-.7-3.7-1.1-.4-1.5-.8-2.9-1.2-4.4-.7 1.2-1.3 2.3-2 3.5-.2.4-.6 1.1-.8 1.5-2.4.2-4.9.3-6.9-1.3"/><path d="m300 248c.9-2.8 1.3-7.6 4.9-7.8 1.7 1.7 2.9 5.6.2 6.7-1.7.4-3.4.7-5.1 1.1"/><path d="m345 286c1.6-1.4 3.3-2.8 5-4.2-.3 1.3-.5 2.7-.8 4 .5.2 1.4.7 1.8.9.3.1.9.4 1.1.6 1 .5 2.1 1 3.2 1.4-.6 1.7-.9 3.6.6 4.9-1.1 2.3-2.6 4.3-4 6.3 1.3.6 2.6 1.1 4 1.7-4.2 1.3-8.4 2.8-12.8 3.1-4.4.4-9-.4-13.4.7-2.3 1.3-3.7 3.7-5.4 5.7 2.9 1.3 6 3.5 9.4 2.6 8.4-1.8 14.5-9.5 23.5-9.8.5.9 1 1.8 1.5 2.8-1.4 1.1-2.8 2.2-4.2 3.3.5.4 1.5 1.3 2 1.7-5.6 2-11.2 4.1-16.3 7.3-3.3.9-6.8 2.1-10.3 1.6-3.6-1.2-7.2-4.3-7.4-8.3.6-2.2 2.2-3.9 3.4-5.8-3.2-1.9-7-1.6-10.6-1.4 3.6-.2 7.2-.7 10.7-1.9 3-1.4 5.8-3.4 8.5-5.2-1.9-2-4.1-3.9-6.4-5.5.1 2.3.1 4.6.2 6.9-2.6-1.6-6-2.9-6.7-6.2 0-1.5 1-2.9 2-3.9 2.3 0 4.5.6 6.7 1.1.6-.3 1.2-.5 1.8-.8 3.2.7 6.5.9 9.7.5.3-2.1.5-4.1.8-6.2.7.7 1.5 1.4 2.3 2.1m-.3 3.5c.1 1.6.1 3.3.2 4.9 1.7-1.2 2.8-3 3.6-4.8-1.3 0-2.5 0-3.8-.1m-9.5 6.4c0 1.4.3 2.6.8 3.9 1.2.3 2.4.6 3.7.8-.6-2.3-2.2-4-4.5-4.7z"/><path d="m251 303c2.9.8 6 1.1 9 .6-.3.3-.8.9-1 1.2-1.1 1.3-2.2 2.6-2.8 4.2.3 4 3.9 8.7 8.3 7.5 6.2-1.6 12.6-2.5 18.5-4.8.8.4 1.6.7 2.3 1.1 0-.9 0-1.8 0-2.7.5-.3 1.4-.8 1.9-1.1 1.1-.7 2.3-1.3 3.4-2 .2 1.7.3 3.5.5 5.2.1.9.2 1.8.3 2.7-1.1.1-2.2.3-3.3.4.6 1.9 1.2 3.8 1.8 5.7-.4-.1-1.1-.2-1.5-.3-.9-.3-1.8-.6-2.7-.9-6 2.4-12.5 2.8-18.8 4.4-4 1.2-9.4 1.5-12-2.4-1.7-3.6-2.2-7.5-3.9-11 .9-1.6 1.9-3.2 2.8-4.9-1-1-2-2-3-2.9"/></g><g style="fill:#43250c"><path d="m63 39.5c3 3.2 3 7.6 2.8 11.8-.3-.1-1-.4-1.3-.5-1.4-2.5-2.8-5-3.7-7.7.6-1.2 1.4-2.4 2.2-3.5"/><path d="m281 56c2.5-1.5 4.9-3.6 7.9-3.8 2-.2 3.2 1.6 4.6 2.7-.4.3-1.2 1-1.6 1.3-2.7-.3-6.6-2-8.2 1.2 0 1.5.3 2.9.6 4.4-4.4 5.1-9.5 9.7-13.5 15-1.6 1.4-3.2 2.6-4.9 3.9 0-1.2 0-2.4 0-3.6 2.8-4.2 6-8.2 10.2-11 2.3-1.5 3.7-3.9 4.4-6.5-4.7 1.3-8.9 3.8-12.8 6.7-.4-.1-1.1-.3-1.5-.4 1.5-2 2.8-4.3 4.9-5.7 3.2-1.6 6.8-2.3 9.8-4.3"/><path d="m285 66c1.2-.2 2.3-.4 3.5-.6-4.8 4.8-9.2 10-14.6 14 .1-.5.3-1.5.4-2 2.9-4.4 6.2-8.7 10.7-11.6"/><path d="m265 83c.8.1 2.4.2 3.2.3-1 .9-1.9 1.8-2.8 2.8-.1-.8-.3-2.3-.3-3.1"/><path d="m96 92c2.1-.5 3.5 1.4 4.9 2.5.2.2.6.6.8.8.8-1.1 1.7-2.2 2.5-3.2 1.6-.2 3.2-.3 4.8-.5-1.6 1.8-3.5 3.4-5 5.3-1.7 2-1.8 4.7-3.1 6.9-1.9 2.3-5 3-7.7 4-.1 2.8-.3 5.7-.5 8.5-.3-.4-1-1.2-1.3-1.6.9-2.9-.2-5.7-1.6-8.3.4-.3 1.2-.9 1.6-1.2-1.7-1.7-3.4-3.4-5-5.1-.8-1.6-1.4-3.3-2.1-4.9 1.6 1 3.1 2 4.6 3.1 2.1 1.9 4.2 3.8 6.4 5.6 1.6-.6 3.1-1.1 4.7-1.7-1.4-3.3-4.6-6.3-4-10.1"/><path d="m217 118c1.6-.2 3.2-.1 4.3 1.2 5.1 4.9 9.7 10.3 14.4 15.6 3.2 4.1 9.2.8 13 4.2l-.9.5c-3.2.3-6.4.6-9.7.9-4.4-3.9-8.3-8.2-12.3-12.5-3.2-3.1-6.5-6-9-9.8"/><path d="m93 119c.8-.1 2.3-.3 3.1-.4 2.9 2.6 4.9 6 7 9.2 2.1 3.3 6 4.4 9.4 5.9 0 .4.1 1.3.2 1.8-3 1.2-5.9 2.7-8.5 4.7 1.3 2.3 2.5 4.7 3.9 6.9 1.5 2.4 4.2 3.6 6 5.7 1.8 2.3 2.8 5.1 4.9 7.1 2.4-1.8 3.2-4.8 4.7-7.3 1.1-.1 2.2-.3 3.4-.4-1.2 3.3-3 6.5-3.9 9.9.3 3.9 2.8 7.6 2.3 11.7-.3 2-.8 3.9-1.1 5.9v.8c-.7-3.9-1.7-7.8-3.8-11.1-2.9-4.8-5.3-10-9.7-13.8 0 8.8 4 16.9 4.9 25.6-1.1-.8-2.3-1.5-3.4-2.3-.7-3.2-1.7-6.4-2.6-9.6-1.1-.4-2.1-.8-3.2-1.2.1-.5.3-1.1.4-1.6 2-5.7-1.6-11.2-1.4-17-1.5 0-3 0-4.5 0 1-1.6 2-3.1 3-4.7-1.1-.5-2.3-1-3.4-1.5-.3-.5-.8-1.5-1-2.1 1.3.4 2.6.9 3.8 1.3-1.8-5.7-3.4-11.5-3.2-17.5-1 .6-1.9 1.1-2.9 1.7-1.5-2.5-3-5.1-4.4-7.7"/><path d="m317 125c1.4 3.8 4.7 6.1 6.9 9.3 0 2.4-2.1 4.4-2.7 6.7.8 3.7 3.1 6.9 4.3 10.6 2.1 6.2 4.2 12.5 6.8 18.5 2 4.6 1.8 9.7 3.4 14.4 3.1 8.8 6.5 17.5 9.5 26.4-1.8-2.9-3.7-5.8-4.7-9-1.6-5.1-4.2-9.8-5.5-14.9-1.7-5.9-2-12.2-4.5-17.8-3.7-8.5-6.3-17.4-10-25.9-1.4-6-4.4-11.8-3.5-18"/><path d="m22.7 139c.3-2.2.9-4.3 2-6.2.8.8 1.6 1.6 2.4 2.3-.5 1.2-.9 2.3-1.4 3.5-.9.4-1.7.8-2.6 1.3l-.4-.9"/><path d="m225 134c1.6.4 2.7 1.8 3.7 3.2-.4 1.6-1.1 3-1.7 4.5-1.4-.5-3.3-.4-4.2-1.8-.8-2.2.9-4.2 2.3-5.8"/><path d="m228 142c1.9-.7 3.9-1.3 5.8-1.9-.7 1.5-1.3 3-2.1 4.4-1.5-.3-2.6-1.5-3.7-2.5"/><path d="m234 149c.8-1.8 1.6-3.6 2.4-5.3 2.6 7.6 9 13.7 16.3 16.6.4.3 1.2.9 1.6 1.2-.2.6-.7 1.7-.9 2.2-1.4-.1-2.9-.1-4.3 0-5.2-4.8-10.9-9-15-14.7"/><path d="m145 171c2.6.1 5.2.9 7.3 2.4-2.3 2.5-6.6.7-7.3-2.4"/><path d="m131 172c2 .5 3.5 1.8 4.7 3.4-2.4.9-5.3-.4-4.7-3.4"/><path d="m119 176c3.3.1-1.5 3 0 0"/><path d="m143 177c6 .9 12.3 1.8 18-.8-2.9 3.6-5.3 7.5-8.4 10.9-1.2.8-2.3 1.5-3.5 2.3-.6-.6-1.2-1.3-1.8-1.9.8-.7 1.5-1.5 2.3-2.2.5-.4 1.4-1.3 1.9-1.8-1.3-.9-2.5-1.8-3.7-2.8-1.6.5-3.3 1-4.9 1.6-.4-.9-.7-1.8-1.1-2.8.3-.6.9-1.9 1.2-2.5"/><path d="m169 196c-1-2.9-.9-6 1.2-8.4.5.5 1.5 1.4 2 1.9 1 1.6 1.8 3.3 2.7 5-2 .5-3.9 1.1-5.9 1.6"/><path d="m263 194c.9-1.5 1.2-3.7 3-4.5 2.1.5 4.1 1.5 6.1 2.3-1.5 3.9-6 2.3-9.2 2.2"/><path d="m161 191c2.5 1.5 3.8 4.3 4.7 7 1.4 4.2 3 8.5 3.1 13-5.6-5.2-4.8-13.5-7.9-20"/><path d="m275 197c-1.4-1.3-1.1-3.3-.7-5 3.9 2.1 7.7 4.3 11.5 6.6-.6 1.4-1.2 2.8-1.8 4.2 1.2 0 2.5.1 3.7.1-1.1.4-2.3.8-3.4 1.3-.9-.6-1.8-1.1-2.6-1.7-.3-1-.5-2.1-.7-3.1-2-.7-4.1-1.3-6-2.4"/><path d="m265 199c2.9-1 5.9-.1 8.8.8-4.4 1.6-9.1 2-13.6 3.5-2.7 1.1-5.5-.2-8.1-1.1 1.4-.5 2.9-1 4.4-1.4 3 .4 5.8-.7 8.5-1.8"/><path d="m120 200c2.1.7 4.2 1.7 6 2.9-.7.9-1.4 1.9-2.1 2.8-1.2-.6-2.3-1.3-3.5-1.9-.2-1.3-.3-2.5-.4-3.8"/><path d="m104 215c1.4-1.8 3-3.4 4.8-4.9.8 1.3 1.7 2.5 2.5 3.8-2.3.9-4.8 1.3-7.3 1.1"/><path d="m131 217c.8-.5 1.6-1.1 2.4-1.6 3.1 4.6 7.8 8.5 8.4 14.3-4.8-3.1-7.2-8.5-10.7-12.8"/><path d="m84 219c.7-1.4 2.2-1.9 3.6-2.4.5 1.2 1 2.5 1.4 3.7-1.7-.4-3.3-.9-5-1.3"/><path d="m103 223c1.1-2 2.3-4 3.6-5.8.7 1.4 1.4 2.7 2.1 4.1-1.7 1.1-3.7 1.4-5.7 1.7"/><path d="m96 219c2.3.1 4.7.5 7 1.1-1.7 3.6-5.4 1.4-7-1.1"/><path d="m91 220c1.5 1 2.7 2.4 3.5 4-3.3.4-8.7 3.3-10.5-.8 1.4.1 2.9.1 4.3.2.9-1.2 1.8-2.3 2.6-3.5"/><path d="m65 259c.6-2 1.3-3.9 2-5.9.2 2.2.5 4.5.6 6.7-.1 1.3-.2 2.6-.3 3.9-.6 0-1.8.1-2.4.1 0-1.6 0-3.2.1-4.8"/><path d="m107 266c.2-2.7.2-5.9 2.8-7.6-.1 2.8-.3 5.9-2.8 7.6"/><path d="m114 259c.5.2 1.6.5 2.1.7.5 1.3.9 2.6 1.4 3.9-1.4-.4-2.8-.7-4.2-1.1.2-1.1.4-2.3.6-3.4"/><path d="m127 263c1.8-1.1 3.6-2.2 5.4-3.2-.1 1-.2 2-.3 3-1.6.7-3.2 1.4-4.7 2.2-.1-.7-.2-1.3-.3-2"/><path d="m91 261c2.1.5 4.3 1 6.4 1.6-.8.8-1.6 1.6-2.4 2.4-1.3-.6-2.5-1.1-3.8-1.7-.1-.6-.2-1.7-.2-2.3"/><path d="m103 270c1.1 3.5 1.6 7 2.2 10.6-4.4-.5-8.8-.7-13.2-.9 0 3.9-.6 7.9-1.8 11.6.5-5.4.6-10.9-.2-16.4 3.3 1.1 6.4 3.1 9.9 3.4 3.6-1.3 1.6-4.8.8-7.3.6.6 1.2 1.2 1.8 1.8.1-.7.4-2.1.6-2.9"/><path d="m66 277c1.4-2.3 3.3-4.2 5.6-5.6-.2 1.5.4 3.4-1.1 4.5-1.2 1.1-3 .8-4.5 1.1"/><path d="m55.9 284c1.4-3.6 2.4-7.9 5.9-10 .1 4.1 1.2 9.4-3.2 11.8 0 5-3.2 9.2-4.3 14-.5 3-4 2.1-6.1 1.8 3.2-5.6 5.9-11.4 7.7-17.6"/><path d="m105 276c1.7-.7 3.5-1.5 5.2-2.3 0 3.1.6 6 1.3 9-2-2.4-4-4.9-6.5-6.7"/><path d="m73 276c2.5.6 4.9 1.4 7.4 2.1 0 .7-.1 2-.2 2.7-3.1-.3-6.3-1.5-7.2-4.8"/><path d="m341 277c1.8 0 3.7 0 5.5 0-.9 1-1.2 3.1-2.9 2.5-1-.7-1.8-1.6-2.6-2.5"/><path d="m66 280c1.5.3 3 .7 4.5 1-2.5 2.5-3.7 5.7-3.3 9.3-.8.5-1.6.9-2.5 1.4.5 1.1 1.1 2.3 1.7 3.4-3.8 2.7-5.6 7.5-9.8 9.8 3.4-8.1 8.5-15.8 9.3-24.8"/><path d="m319 284c1.8-3.2 5.6-3.5 8.9-3.8.1 1.1.3 2.2.4 3.4-1.7-.7-3.3-1.7-5.1-1.9-1 1.3-.9 3.1-1.1 4.6-1.1-.7-2.3-1.3-3.1-2.3"/><path d="m73 283c.7 0 2.1-.1 2.8-.1.1 3.9-1 7.7-2.9 11.2-1.8 2.5 1.1 5.5 0 8-1.6-1.3-3.9-2.8-3.2-5.1 1-4.7 3.1-9 3.4-13.9"/><path d="m94 283c1.1.6 2.5.6 3.3 1.7.7 3.9.2 7.9-.2 11.9-3-4-.9-9.2-3.1-13.6"/><path d="m101 283c.6 0 1.8 0 2.3 0 .3 3.6.7 7.2 1.5 10.7.6 2.8 1.3 5.6 1.1 8.5-.4 5.3-.2 10.6-1.3 15.8-2.3-.7-4.6-1.4-6.9-2-2.7-.6-5.4-1-8.2-1.3-.3-.8-.5-1.7-.7-2.5 3.3.1 6.7-.2 9.9-1.2 1.2.7 2.5 1.4 3.8 2.1-.8-10-.9-20-1.5-30"/><path d="m107 282c1.4 1.6 2.8 3.1 4.2 4.7 2.3-1.5 4.7-2.9 7.1-4.3-.6 1.3-.7 3.2-2.2 3.9-2.8 1.6-5.7 3.1-8 5.3-.3-.9-.5-1.8-.8-2.7.4-.2 1.2-.7 1.6-1-.6-2-1.2-4-1.8-5.9"/><path d="m276 284c1.6.3 3.3.4 4.6 1.4-.4 1.1-.8 2.2-1.2 3.3-1.2-1.5-2.3-3.1-3.4-4.7"/><path d="m122 288c.6.1 1.7.4 2.2.6.9 3.4 3.1 6.3 4.1 9.6.3 3.5.8 6.9 2.2 10.2 1 1.8.1 3.6-.7 5.3-2.5-3.9-2.2-8.7-3.7-13-1.4-4.2-3-8.4-4.2-12.7"/><path d="m273 290c1.1-1.3 3.1-1.2 4.6-1.6-3.7 4.1-6.8 8.9-11 12.4 1.2-4.1 3.8-7.6 6.5-10.8"/><path d="m355 289c.6.2 1.8.5 2.3.7-.6 1.4-1.1 2.8-1.7 4.2-1.5-1.3-1.2-3.2-.6-4.9"/><path d="m109 294c1.9-1.1 3.9-2.1 5.8-3.2-.8 2.7-1.3 5.6-.4 8.4 1.7 6.7 3.3 13.5 5.3 20 1.7-2.2 4-4.8 2.8-7.7-1.9-5.8-3.9-11.5-5-17.4.4-.4 1.2-1.3 1.6-1.7 1.3 2.4 2.4 5 2.6 7.8.4 4.4 2 8.6 3.7 12.6l-.4.8c-1.5 2.9-3 5.7-4.6 8.5-.6.3-1.9.8-2.5 1-1.6-3.1-2.7-6.4-3.5-9.8-1.9-6.4-2.9-13-5.5-19.3"/><path d="m262 295c-.1-1.6.8-3 2.2-3.8.8 1.7 1.6 3.5 2.3 5.2-1.6-.3-3.4-.1-4.5-1.4"/><path d="m280 296c2.3-1.6 4.8-2.8 7.2-4.1-.5 1.8-1.1 3.5-1.6 5.3 1.7 0 3.4-.1 5.2.1 1.8 1.6 2.8 3.7 4.1 5.7-2.9.8-5.8 1.4-8.7 1.9.2-1.7.3-3.4.5-5.1-2.2-1.2-6.4-.8-6.7-3.7"/><path d="m290 292c3 1 6.1 1.9 9 3.3 3.4 1.5 5.4 4.8 7.7 7.6.7-.2 1.4-.5 2.2-.7-.4-1.6-.8-3.1-1.2-4.7 1.7 1.2 3.4 2.6 5.4 3.6 2.9.6 5.9-.6 8.7.3 1.4.5 2.8 1.2 4.1 1.8-3.4 1.2-7 1.6-10.7 1.9-2 .1-3.9.2-5.9.2-.6 3.9-1.3 7.7-1.8 11.6-5.3.3-10.3-2.1-15.6-1.9-.1-.9-.2-1.8-.3-2.7 5.6-1.2 8-6.9 10.9-11.3-3-3.4-8.1-3.9-11.9-6.3-.1-.7-.4-2-.5-2.7m8.5 19c1.6 1.4 3.6 2.1 5.6 2.4.9-2.7 2.4-5.4 2-8.3-.5-1.3-1.4-1.8-2.7-1.5-2 2.2-3.4 4.9-4.9 7.4z"/><path d="m136 303c-1.3-3.5-2.2-7.1-2.5-10.9 1.2 2.4 2.5 4.8 3.5 7.3-.3 1.2-.7 2.4-1 3.5"/><path d="m315 293c3.3 1.1 6.3 3.1 7.4 6.6-3.5-.8-5.7-3.7-7.4-6.6"/><path d="m358 294c.6-.1 1.7-.4 2.3-.5.1.7.4 2.2.5 2.9-1.2.4-2.4.8-3.6 1.3.3-1.3.5-2.5.8-3.8"/><path d="m272 302c1.1-3.7 2.9-8.1 7.3-8.4-1.6 3.4-3.7 6.8-7.3 8.4"/><path d="m335 296c2.3.7 3.9 2.4 4.5 4.7-1.3-.2-2.5-.5-3.7-.8-.6-1.2-.8-2.5-.8-3.9"/><path d="m71 308c2.3-2 4.7-4.1 7-6-.2 1.4-.3 2.9-.5 4.4-1.2 1-2.4 2-3.4 3.1-.5 1.3.9 2.1 1.4 3.1-1.6 1-3.1 2.2-4.5 3.4-2.6-1.9-5.7-3.3-8.9-4.1-2.1-.4-4.3-.6-6.5-1-.7-1.2-1.4-2.5-2-3.8 3.8-.4 7.6-.6 11.3-1.7 1.4.9 2.8 1.9 4.1 2.9 0-1.6.1-3.2.1-4.8.7-.2 2-.5 2.6-.7-.3 1.8-.6 3.5-.8 5.3"/><path d="m95 303c.8-.4 2.5-1.1 3.4-1.4.6 2.1.5 4.2-.3 6.2-1.1-1.6-2.1-3.2-3.1-4.8"/><path d="m45 305c2.8-.5 5.5.8 7.6 2.4-.4 1.9-2.4 1.8-3.8 2.2-1.9-.5-3.9-.9-5.8-1.3.5-1.2.3-3.2 2-3.4"/><path d="m279 307c.6-1.1 1.1-2.2 1.8-3.3 3.1.1 4.7 2.9 6.3 5.1-.5.3-1.4.8-1.9 1.1-.6-.9-1.3-1.7-1.9-2.6-1.4-.1-2.9-.2-4.3-.3"/><path d="m57 318c1.2-.7 2.3-1.3 3.5-2 3.4 2.1 6.6 4.4 9.7 7-.5.4-1.6 1.3-2.1 1.7-3.9-1.8-8.1-3.4-11.1-6.7"/></g><g style="fill:#fcf9d3"><path d="m68 44c1.6-.5 2.2 0 1.7 1.7-1.6.5-2.2 0-1.7-1.7"/><path d="m74 46c3.3.1-1.5 3 0 0"/><path d="m268 66c3.9-2.9 8-5.4 12.8-6.7-.7 2.6-2.1 5-4.4 6.5-4.2 2.9-7.4 6.9-10.2 11-.6.1-1.9.3-2.6.5.6-4.1 1.9-8 4.4-11.4"/><path d="m97 65c.7-1.3 1-2.8 1.3-4.2 4.5 2.6 8 6.7 9.8 11.7-3.7-.8-7.2-2.6-10.8-3.8-1.5-.7-2.7.8-3.9 1.4-1.7-.5-1.7-2.3-1.8-3.7 1.8-.6 3.6-.9 5.4-1.4"/><path d="m284 61.9c.3 1.3.5 2.5.7 3.8-4.5 2.9-7.9 7.2-10.7 11.6-1.2.5-2.5 1.1-3.7 1.6.1-.5.2-1.4.2-1.8 4-5.5 9-10 13.5-15"/><path d="m99 73c2.8.3 5.3 1.6 7.5 3.3-.1.9-.2 2.7-.2 3.6-3.2-1.3-5.5-3.9-7.3-6.8"/><path d="m89 78c3 .9 6.2.9 9-.5.8 1.2 1.6 2.5 2.4 3.8 1.6 2.1 4.4 2.6 6.6 3.7-1.8 3.1-3.8 6.2-5.3 9.5-1.4-1.1-2.9-3-4.9-2.5-.6 3.9 2.6 6.8 4 10.1-1.6.5-3.1 1.1-4.7 1.7-2.2-1.8-4.3-3.7-6.4-5.6-.5-.8-1-1.5-1.4-2.3 1.2-.2 2.5-.5 3.7-.7.1-3 .7-6.2-.5-9-1-2.6-2-5.3-2.6-8"/><path d="m113 149c1.4-.6 2.3 1.8.7 2.1-1.4.6-2.3-1.8-.7-2.1"/><path d="m254 283c3.6-4.5 8-8.3 12.8-11.5.1 3.6-1 7-2.4 10.2-5.3 4.4-8.8 10.6-13 15.9-1.4-.9-2.8-1.9-4.1-2.8 2.4-3.9 4.2-8 6.8-11.8"/><path d="m357 304c2.7-.2 5.5-.2 8.2-.5-1.3 2.3-2.8 4.7-4.9 6.4-.6-1.1-1.2-2.1-1.8-3.1-.5-.9-1-1.8-1.5-2.8"/><path d="m251 311c1.7 3.6 2.2 7.5 3.9 11 2.7 3.9 8 3.7 12 2.4 6.2-1.6 12.7-2.1 18.8-4.4.9.3 1.8.6 2.7.9-8.3 5-18 5-27.4 7-4.9 1.4-9.3-2.3-12.4-5.7-2.6-3.7.7-7.9 2.3-11.2"/></g><g style="fill:#eac490"><path d="m213 120c1.2-.5 2.5-1 3.8-1.5 2.5 3.7 5.8 6.7 9 9.7-.1.8-.2 2.5-.3 3.3-5.2-2.5-9.3-6.8-12.5-11.5"/><path d="m108 138c1.3-.3 2.7-.6 4-.9-1.3 1.4-2.8 2.7-4.2 3.9.1-.8.2-2.3.2-3"/><path d="m124 152c-2-.5-1.4-3.6.6-3.2.5 1.1.3 2.2-.6 3.2"/><path d="m146 164c-.7 3.3-4.2.5-2.8-1.7.9.5 1.9 1.1 2.8 1.7"/><path d="m126 172c.3-1.4 2.2-.7 3.1-.2.1 1 0 2-.4 2.9-.9-.8-2.3-1.4-2.6-2.8"/><path d="m144 174c.9-1 2.9-.3 3 1-.2 2.1-4 .8-3-1"/><path d="m140 175c1.6-.5 2.3 2.1.7 2.5-1.6.5-2.3-2.1-.7-2.5"/><path d="m146 182c.5-.4 1.5-1.3 2-1.7 1.2.9 2.5 1.8 3.7 2.8-.5.4-1.4 1.3-1.9 1.8-.6 0-1.7-.1-2.3-.1-.5-.9-1-1.8-1.5-2.7"/><path d="m131 182c1.4-.4 1.9 0 1.5 1.4-1.4.4-1.9 0-1.5-1.4"/><path d="m155 185c1.4-.5 1.9 0 1.4 1.4-1.4.5-1.9 0-1.4-1.4"/><path d="m261 197c1.3-.3 2.6-.7 3.9-1.1.1.7.2 2.2.3 2.9-2.7 1.1-5.5 2.2-8.5 1.8-2.5-.9-5.2-1.4-7.9-1.1 4-1.1 8.1-1.7 12.2-2.4"/><path d="m130 200c1.5.2 2.9.4 4.4.7v.8c0 .9-.1 1.9-.1 2.8-2.4-.3-3.8-2-4.3-4.3"/><path d="m82 209c.9-3.6 3.5 0 2.8 2.2-1.3-.3-2.3-1-2.8-2.2"/><path d="m81 216c.8 0 2.5.1 3.3.2-.8 1-1.6 2-2.3 3.1-.4-1.1-.7-2.2-1.1-3.3"/><path d="m104 216c.8-1.2 2.9.2 1.9 1.4-.8 1.2-2.9-.2-1.9-1.4"/><path d="m106 218c1.2-.3 2.4-.5 3.6-.7 0 .8.2 2.4.2 3.2-.4.4-1.3 1.2-1.7 1.6-.7-1.4-1.4-2.7-2.1-4.1"/><path d="m114 217c.7.4 1.4.9 2.1 1.3.1.6.3 1.8.5 2.4-1.5-.2-2.9-.4-4.3-.6.6-1.1 1.2-2.1 1.8-3.2"/><path d="m88 226c1.8-.3 3.6-.7 5.4-1 0 .4 0 1.1 0 1.4-1.6.9-3.3 1.5-5 2.1-.1-.6-.2-1.9-.3-2.5"/><path d="m118 227c-2.2.1-1.4-2.9.4-2.4l.5.6c-.2.5-.6 1.4-.9 1.8"/><path d="m104 228c.4.3 1.2 1 1.6 1.3-1.1.9-2.1 2.1-3.5 2.4-1.6-.2-2.9-1.1-4.3-1.7 2.1-.7 4.1-1.3 6.2-2"/><path d="m113 228c1.9-.6 2.7 2.6.8 3-1.9.6-2.7-2.5-.8-3"/><path d="m142 282c1.6-.5 2.2 0 1.7 1.7-1.6.5-2.2 0-1.7-1.7"/><path d="m153 287c-1.3-1.1.4-2.8 1.8-2.4.3.6.9 1.9 1.1 2.5-1 .4-2 .4-2.9-.1"/><path d="m274 286c1.6-.5 2.2 0 1.7 1.6-1.6.5-2.2 0-1.7-1.6"/><path d="m319 290c3.4-.6-.1 4.2-.9 1.1.2-.3.7-.9.9-1.1"/><path d="m148 291c3.3.2-1.6 3 0 0"/><path d="m59 292c3.3.1-1.5 3 0 0"/><path d="m155 294c.8-1.1 2.9.1 2.2 1.3-.8 1.1-2.9-.1-2.2-1.3"/><path d="m364 297c.7-1.7 1.7-3.3 3.1-4.4-.2 1.9-.5 3.8-.8 5.6-.6-.3-1.8-.9-2.4-1.2"/><path d="m114 294c1.3-1 2.8 1.3 1.6 2.2-1.3 1-2.9-1.3-1.6-2.2"/><path d="m254 297c1.6.1 3.2.3 4.7.5-1.1 1.1-1.6 3.5-3.5 2.8-.3-.8-.9-2.5-1.2-3.3"/><path d="m123 297c1.7-.3 2.7 3.4 1.1 3.9-1.1-.8-1.8-2.6-1.1-3.9"/><path d="m154 300c-.9-.6-2.8-2.2-1.1-3 1.6.1 4 3.4 1.1 3"/><path d="m163 297c1.8-.6 2.7 2.6.8 3-1.9.6-2.7-2.6-.8-3"/><path d="m293 297c3.3.1-1.5 3 0 0"/><path d="m264 299c1.5-1.2 3.1 1.4 1.6 2.4-1.5 1.2-3.1-1.4-1.6-2.4"/><path d="m116 301c1.1-.9 2.6 1.1 1.6 2-1.1.9-2.6-1.1-1.6-2"/><path d="m141 308c.6-.2 1.8-.6 2.4-.8 1.5 2.3-2.7 3.8-2.4.8"/><path d="m120 312c1.7.1.8 3.7-.8 3.2-.8-.9-.3-2.7.8-3.2"/><path d="m126 311c.7.8 1.5 1.5 2.2 2.3-1.1 1.5-2.3 2.9-3.4 4.4 0-.9-.2-2.7-.2-3.6l.4-.8c.3-.6.8-1.7 1-2.2"/></g></svg>