<svg xmlns="http://www.w3.org/2000/svg" viewBox="0 0 401 382" style="enable-background:new 0 0 401 382"><g style="fill:#7e7d79"><path d="m211 12.9c.7 0 2.2 0 2.9.1-1 3.4-1.9 6.8-2.5 10.2-1.3-.4-2.6-.9-3.9-1.3 1-3 2.2-6 3.5-9"/><path d="m217 15.5c1.2-.7 2.4-1.3 3.6-2 .3 1.3.5 2.6.6 3.9-1.4-.6-2.8-1.3-4.2-1.9"/><path d="m217 20.7c2.6 2.5 5.1 4.9 7.7 7.4-1.8 3.6-3.8 7.2-6.3 10.5-1.3-1.6-2.8-3-3.7-4.9.4-4.4 2-8.6 2.3-13m1.3 5c-1 2.4-2.3 4.7-2.8 7.3.3 1.6 1.9 2.6 2.8 3.9 2-2.9 3.7-6.1 4.6-9.5-1.5-.5-3.1-1.1-4.6-1.6z"/><path d="m277 27c1.9-.6 2.7 2.6.8 3-1.9.6-2.7-2.5-.8-3"/><path d="m240 34c1.8-.6 2.4 2.3.6 2.7-1.8.6-2.4-2.3-.6-2.7"/><path d="m202 43c1.4-.5 1.9 0 1.4 1.4-1.4.5-1.9 0-1.4-1.4"/><path d="m202 45.6c1.8.5 3.6.9 5.4 1.4-.4 1.3-.9 2.7-1.4 4-1.3.1-2.6.1-3.9 0-.1-1.8-.1-3.6-.1-5.4"/><path d="m260 60c1.6-.5 2.2 0 1.7 1.7-1.6.5-2.2 0-1.7-1.7"/><path d="m202 70c3 1 6.1 1.8 9.3 2.4 0 .6 0 1.8 0 2.4-3.4 1.1-8.2 3.8-10.7-.2.3-1.6.9-3.1 1.5-4.6m1.5 1.4c-.5.8-1.4 2.5-1.9 3.3 2 .3 4.1.4 6.1.5-1.4-1.3-2.8-2.5-4.2-3.7z"/><path d="m72 70.9c1.3.4 2.5.8 3.8 1.2-.5 1.9-1.4 3.6-1.9 5.4 5.5 1.2 11.3 4 13.5 9.6-1.4 3.8-4 6.9-6.3 10.2-1.3-1.7-3.1-3.3-3.2-5.6-.6-3.1 1-6 2.3-8.8-3.2-1.7-7-.8-10.3-2.2.4-3.3 1.4-6.6 2.2-9.9m6.5 18c.3 2.2 1.3 4.3 2.1 6.4 2.2-2.8 4.1-5.8 5.5-9-1.3-1-2.6-2-3.9-3-1.4 1.8-3 3.4-3.7 5.6z"/><path d="m226 91c.7-2.2 2.2-3.7 4.4-4.5.5 1.6 1.1 3.1 1.6 4.7-2 0-4-.1-6-.2"/><path d="m276 88c1.9-.2 3.7-.3 5.6-.4 0 1.7-.1 3.3-.1 5-2.3-.9-4.2-2.5-5.4-4.6"/><path d="m284 88c1-.4 2-.8 3-1.3.7 1.8 1.4 3.5 2.1 5.3-1.8-.3-3.6-.7-5.4-1.1.1-.7.2-2.2.3-2.9"/><path d="m221 91c-.1-2.1 2.4-2.3 3.7-3.3.5 1.7 1 3.3 1.4 5-1.7-.5-3.5-1.1-5.1-1.8"/><path d="m290 88c1.6.1 3.2.1 4.8.2-1.1 1.4-2.2 2.9-3.4 4.3-.5-1.5-1-3-1.5-4.5"/><path d="m95 91c6.4-1.1 13-.4 19.4.3 2.5.2 2.5 3.4 3.5 5.1-2.5-.7-4.9-1.6-7.3-2.6-.5.2-1.4.6-1.9.8-3.3-1-6 1.5-9 2.4-2.9-.6-4.2-3.3-4.7-6"/><path d="m138 104c3.8-3.8 9.1-4.2 14-4.9.4.5 1.1 1.4 1.4 1.9-5.1 1.4-10.3 2.4-15.6 3"/><path d="m278 100c1.5-.6 3.1-1.1 4.6-1.7.2 1.3.5 2.7.5 4-.7 1.6-2.1 2.8-3.2 4.1-.7-2.1-1.4-4.3-2-6.4m2.4.9c-1.6-.1-1.8 2.7-.1 2.6 1.6.1 1.8-2.7.1-2.6z"/><path d="m106 100c1.4-.5 1.9 0 1.5 1.4-1.4.5-1.9 0-1.5-1.4"/><path d="m246 100c1.4-.4 1.9 0 1.4 1.5-1.4.4-1.9-.1-1.4-1.5"/><path d="m226 115c.3-2.2-.7-7.3 2.9-6.7 1.9 2.8-.5 5.3-2.9 6.7"/><path d="m98 114c6.5 1.5 13 .9 19.6 2 2 .2 3.4 1.9 4.7 3.2-6.2.3-12.3-.9-18.5-1.6-4.6-.6-10 1.8-13.7-2.2 2.1.1 4.2.2 6.2.4.5-.6 1.1-1.3 1.6-1.9"/><path d="m71 124c1.4-.4 1.9 0 1.5 1.5-1.4.4-1.9 0-1.5-1.5"/><path d="m218 131c1.4-.4 1.9 0 1.4 1.4-1.4.4-1.9 0-1.4-1.4"/><path d="m263 132c1-.8 2-1.5 3.1-2.2.8 2.5 1.6 5 2.3 7.5-.9.1-2.6.3-3.5.4-.6-1.9-1.5-3.7-1.8-5.7m2.1 1.1c-1.3.9.3 3.2 1.6 2.1 1.4-.9-.3-3.2-1.6-2.1z"/><path d="m205 135c1.2.4 2.4.7 3.6 1.3.4 1.2.6 2.4.9 3.7-2 .2-3.9.4-5.9.5.4-1.8.9-3.7 1.4-5.5m1 2.5c.1 3.3 3-1.5 0 0z"/><path d="m56 138c3-1.6.1 3.3 0 0"/><path d="m265 147c2.5 1.7 4.8 3.7 5.9 6.6-3.9 2.6-4.7 7.4-7.4 11-.6.8-1.2 2.6-2.4 1.4-.4-.9-.9-1.8-1.2-2.7-1.6.4-3.2.9-4.8 1.3 1.4-3.1 3-6.2 4.4-9.4 2.8-1 5.6-2 8.4-3-1.9-.2-3.7-.3-5.6-.5.9-1.6 1.7-3.1 2.6-4.7m-3.2 10.9c.3 1.1.8 2.1 1.2 3.1.6-1.7 1.1-3.3 1.6-5-1 .6-1.9 1.2-2.8 1.9z"/><path d="m238 158c1.4-.3 2.8-.5 4.3-.6 2.5 1 4.3 3.1 6.3 4.7 4.3 4.2 10.6 6.3 13 12.2-1.4.4-2.7.8-4.1 1.2-.3-1.6-.6-3.2-1-4.8-2.9-.1-5.8-.1-8.7-.8-1.3-1.6-2.1-3.5-3-5.2-1.1 0-2.2 0-3.3 0-1.7-2-2.5-4.4-3.6-6.7m4.6 2.6c-1.7.5-.5 2.9 1 2.4 1.7-.4.5-2.9-1-2.4m5.5 5c-1 1.2.9 3 2.1 2.1 1-1.2-.9-3.1-2.1-2.1z"/><path d="m94 162c1.1-1.1 2.2-2.2 3.3-3.3.1.9.4 2.8.5 3.8-1-.1-2.8-.4-3.8-.5"/><path d="m108 160c.5 0 1.5 0 2 0 0 1.3 0 2.7 0 4-.5 0-1.5 0-2 0 0-1.3 0-2.7 0-4"/><path d="m57 163c2.4-.4 4.9-.8 7.3-1 .2 3 .3 6 .3 9-.8 0-2.3-.1-3-.1-1.6-2.7-3.1-5.3-4.6-8m1.6 2.2c1.6 1.6 3.3 3.1 5 4.6-.3-2.4-.5-5-2-7-1 .8-2 1.6-3 2.4z"/><path d="m53 167c.9-.1 2.8-.3 3.8-.5-.1.9-.4 2.8-.5 3.8-1.1-1.1-2.2-2.2-3.3-3.3"/><path d="m49 172c1.4-.4 1.9 0 1.4 1.4-1.4.4-1.9 0-1.4-1.4"/><path d="m102 175c1.7-.5 3.4-1 5.2-1.5-.5 1.1-1.1 2.2-1.8 3.3-1.2-.5-2.3-1.2-3.4-1.8"/><path d="m225 174c1.8-.6 2.4 2.3.6 2.7-1.8.6-2.4-2.3-.6-2.7"/><path d="m78 176c3.2 1.2 6.4.7 9.2-1.1 0 2.7 1.6 6.5-1.5 8-2 1.2-5 1.2-6.3-1-1.6-1.6-1.4-3.9-1.4-5.9m1 2.3c.8 1.2 1.6 2.4 2.5 3.5 1.3.7 2.8.2 4.2.3 0-1.4-.1-2.8-.1-4.3-2.2.2-4.4.3-6.6.4z"/><path d="m112 183c3-1.6.1 3.3 0 0"/><path d="m71 186c.8-.1 2.5-.2 3.4-.3.6 4.7 1.7 9.4 1.7 14 .1 1.4-1.1 2.6-2.5 2-2.5-4.9-2.9-10.5-2.5-15.9m1.4 2.5c-.1 1.9-.2 3.8-.3 5.7.7-.1 2.1-.2 2.8-.3-.8-1.8-1.6-3.6-2.4-5.3m.9 7.8c-1.5 3 3.3.1 0 0z"/><path d="m147 186c1.6.1 3 .8 4.6 1.1-1.8 1.5-3.8 2.8-6.1 3.5.5-1.5.9-3.1 1.5-4.6"/><path d="m62 189c.9-1.4 3.2.1 2.1 1.4-.9 1.4-3.2-.1-2.1-1.4"/><path d="m126 192c2.6 1.4 4.7 4.1 3.4 7.1.1 2.3-2.6 1.8-3.2.1-1.6-2.2-.6-4.9-.2-7.2m1 3.3c-1.5.9-.2 3.9 1.5 2.9 1.5-.9.2-3.9-1.5-2.9z"/><path d="m91 198c1.8-.6 2.4 2.3.6 2.7-1.8.6-2.4-2.3-.6-2.7"/><path d="m64 204c1.6-.5 2.2 0 1.7 1.7-1.6.5-2.2 0-1.7-1.7"/><path d="m100 217c3.1 1.9 5.9 4.2 8.4 6.8 3.7 3.7 8.2 6.4 12.2 9.8 3.6 2.9 7.8 4.9 11.7 7.3 1.5-.6 3-1.5 4.6-1.5 1.8.8 2.6 2.7 3.8 4.1-2.4-.1-4.7-.3-7-.7 2.2 1.7 4.1 3.7 5 6.4-5.3-1.6-11.2-2.2-15.5-6-4.2-3.4-8.3-7-13-9.9-5.1-2.9-8.5-7.8-13.7-10.5 1.2-1.9 2.4-3.8 3.5-5.7m2.6 6.2c-.4 1.4.1 1.9 1.5 1.4.4-1.4-.1-1.9-1.5-1.4m5.8 4.6c-1 1.2.9 3 2 2 1-1.2-.9-3-2-2m6.4 4.7c-1.2 1.2.6 3.8 2.1 2.8 1.3-1.2-.6-3.8-2.1-2.8m11.6 8.4c.1.6.3 1.9.5 2.6 1.2.1 2.3.2 3.4.2-1.3-.9-2.6-1.8-3.9-2.8m5 2.3c.2 3.3 3-1.6 0 0z"/><path d="m89 228c.7-1.2 1.6-2.3 2.5-3.4 3.9 2.6 8.3 4.7 11.7 8 1.1.9.5 2.5-.4 3.4-2.3-1-4-2.8-5.8-4.5-.5 2-.9 4-1.5 6-3.4-2.1-6-5.5-6.5-9.5m1.5-1.7c.3 3.3 1.5 6.3 3.5 9 1-1.9 2.1-3.7 3.1-5.6-2.2-1.2-4.4-2.3-6.6-3.4z"/><path d="m279 227c1.6-.5 2.2 0 1.7 1.7-1.6.5-2.2 0-1.7-1.7"/><path d="m136 230c2.1-.5 3.6.5 4.7 2.3-.9.1-2.6.3-3.4.4-.3-.7-.9-2-1.2-2.7"/><path d="m248 233c2.9-.1 5.7.8 8.4 1.5-1.8 3.9-4.4 7.5-7.7 10.3.8-2.6 1.8-5 2.9-7.5-2.6.8-5.3 1.5-8 1.6 1.3-2.1 2.5-4.4 4.4-6m4.3 2.6c-.4 1.4 0 1.9 1.4 1.5.5-1.4 0-1.9-1.4-1.5z"/><path d="m83 246c0-4.7-.7-9.7 1.7-13.9 1.5 5.7 2.1 11.7.4 17.4-.8-1.1-2.3-1.9-2.1-3.5"/><path d="m293 250c3.6-4.2 4.1-10.6 9-13.7 3 5.1 6.1 10.2 8.2 15.8 1.7 5.3 1.9 11 4.6 15.9.8 1.8 2.7 4.6.3 6-4.1 4.2-10.4 3-15.7 3.2-7.3-.4-14.2 2.5-21.4 2.3-.3-1.4-.6-2.9-.9-4.3-.5 1.8-.9 3.7-1.6 5.4-1.3 1.2-3.2 1.6-4.8 2.3-.7-1.7-1.4-3.5-2.1-5.2 7-2.9 9.2-10.5 13-16.3 1.4.5 2.8 1.1 4.2 1.6.8-5.1 4.1-9.2 7.2-13m7.2-5.7c1.1 2 2.7 4.2 5.1 2.5-1.7-.9-3.4-1.7-5.1-2.5m3.1 7.4c.7 0 2.2.1 2.9.1 0-1.8.1-3.7.1-5.5-1 1.8-2 3.6-3 5.4m-6.3-1.3c1.8 1.7 4.3 2.8 5.9.1-2 0-3.9-.2-5.9-.1m5.8 4.3c1.3.6 2.5 1.3 3.8 1.9-.3-1.6-.5-3.2-.8-4.8-1 .9-2 1.9-3 2.8m-8.7-.1c1.4 1.2 3 2.4 4.7 3.2-.1-2.7-2.5-3.2-4.7-3.2m6.7 0c.1 3.3 3-1.5 0 0m-.6 4.8c1.1 1.2 2.4 1.9 3.9.9-.4-.7-1.3-2.1-1.8-2.8-.5.5-1.6 1.5-2.1 1.9m-.9 11.2c.6 0 1.7-.1 2.2-.1l.3-.6c1.4.2 2.8.4 4.2.6-.1-1.6-.8-3.1-2.1-4.1.8-1.3 1.6-2.5 2.4-3.8-1.7 2.1 1.8 2.7 3.1 3.4-.7-1.6-1.4-3.3-2.2-4.9l.4-.7c-.4-.5-1.3-1.6-1.8-2.1-2.6 3.9-4.8 8-6.7 12.3m-6.8-10.9c.1.7.3 2.2.4 2.9 1.2-.6 2.3-1.1 3.5-1.7-1.3-.4-2.6-.8-3.9-1.3m4.8 2.9c0 .7-.1 2.2-.2 3 1.1.5 2.3 1 3.4 1.5 0-.8-.1-2.4-.1-3.2-1-.4-2.1-.8-3.1-1.2m-1.8 1.3c-1.5 3 3.3.1 0 0m-7.4 1.9c.6.6 1.9 1.8 2.5 2.4.6-1 1.3-2 1.9-3-1.5.2-2.9.4-4.4.6m-6.5.1c0 .6-.1 1.9-.1 2.5.6 0 1.9 0 2.6-.1 0-.6 0-1.8 0-2.5-.6 0-1.9 0-2.5 0m25.8.3c-.1.9-.2 2.7-.2 3.6 1.9-.7 3.8-1.3 5.8-2-1.8-.6-3.7-1.1-5.5-1.6m-12.7.9c-.1 1-.3 2.9-.4 3.8.9-.1 2.6-.4 3.4-.5-1-1.1-2-2.2-3-3.3m-8 2.9c-1.5 1.4.9 3.6 2.2 2 1.5-1.4-.9-3.6-2.2-2m20.3 2.6c1.4.4 2.9.9 4.3 1.3 0-1.6.1-3.3.1-4.9-1.5 1.2-2.9 2.4-4.4 3.6m-27.4-1.9c-1.9.4-1.3 3.5.7 2.9 2-.4 1.3-3.5-.7-2.9m33.9.1c-1.3.7-1.3 1.3 0 2 1.3-.7 1.3-1.3 0-2m-16 .8c-1.4.4-.6 2.8.8 2.1 1.4-.5.6-2.8-.8-2.1m3.1-.2c-.4 1.2-.8 2.4-1.1 3.6 1.4-.4 2.8-.9 4.1-1.3-1-.8-2-1.5-3-2.3m-17 2.4c0 .6.1 1.9.1 2.6.6 0 1.9.1 2.5.1-.2-.5-.6-1.4-.8-1.9-.5-.2-1.4-.6-1.9-.8m8.9.1c-.5 1.6.1 2.2 1.7 1.6.5-1.6-.1-2.2-1.7-1.6z"/><path d="m268 244c1.7 0 1.5 2.7-.1 2.7-1.7 0-1.6-2.7.1-2.7"/><path d="m276 245c1.4-.4 1.9.1 1.4 1.5-1.4.4-1.9-.1-1.4-1.5"/><path d="m264 249c1 .5 2 .8 3 1.2-3.4 3.9-6.1 8.6-10.6 11.4 1.8-4.6 5.1-8.3 7.6-12.6"/><path d="m96 250c1.9-.6 2.7 2.6.8 3-1.9.6-2.7-2.5-.8-3"/><path d="m137 254c1.8.3 3.6.6 5.4.9-1.5 1.2-2.9 2.4-4.4 3.6-.3-1.5-.7-3-1-4.5"/><path d="m93 256c2.3.3 4.3 1.3 5.1 3.6-2.5 0-4.1-1.5-5.1-3.6"/><path d="m124 263c4.1-3 8.9-5.2 13.9-6.1-1.6 5.4-6.7 8.9-12 10-1.4.5-2.7-.2-3.9-.8.4-1.2.9-2.4 2-3.1m7.4-2.4c-.5 1.4 0 1.9 1.4 1.5.4-1.4 0-1.9-1.4-1.5z"/><path d="m102 258c1.3.7 1.3 1.4 0 2-1.3-.7-1.3-1.3 0-2"/><path d="m94 262c.8 0 2.3 0 3 0 0 .8 0 2.3 0 3-.8 0-2.3 0-3 0 0-.8 0-2.3 0-3"/><path d="m254 262c3.3.2-1.6 3 0 0"/><path d="m268 262c1.4.6 2.9 1.2 4.3 1.9-1.3 1-2.9 1.4-4.1 2.5 0-1.1-.1-3.2-.1-4.3"/><path d="m100 265c.8 0 2.2 0 3 0 0 .8 0 2.3 0 3-.8 0-2.3 0-3 0 0-.8 0-2.3 0-3"/><path d="m250 266c1.6-.5 2.2 0 1.7 1.7-1.6.5-2.2 0-1.7-1.7"/><path d="m245 284c2.4.8 3.3 3 3.8 5.3-2.2-1-3.7-2.8-3.8-5.3"/><path d="m313 290c1.5-1.8 3-3.6 4.6-5.3 1 1.2 2 2.4 2.9 3.8-.5 1.3-1.1 2.6-1.8 3.9-1.9-.8-3.8-1.6-5.7-2.4m3.8-2.7c-1.9.4-1.1 3.5.8 3 1.9-.4 1.1-3.6-.8-3z"/><path d="m275 288c3-1.5.1 3.3 0 0"/><path d="m268 289c1.4-.5 1.9 0 1.4 1.4-1.4.5-1.9 0-1.4-1.4"/><path d="m129 292c1.3-.9 3.6-2.2 4.5-.2-.3 1.8-1.3 3.3-1.7 5-.9 0-2.6-.1-3.5-.1.2-1.6-.3-3.4.8-4.7"/><path d="m120 292c1.8-.6 2.4 2.3.6 2.7-1.8.6-2.4-2.3-.6-2.7"/><path d="m287 293c1.4-1.1 2.8 1.3 1.4 2.1-1.4 1.1-2.8-1.3-1.4-2.1"/><path d="m116 297c1.4-.5 1.9 0 1.4 1.4-1.4.5-1.9 0-1.4-1.4"/><path d="m120 299c3.3.2-1.5 3 0 0"/><path d="m103 309c1.8-.6 2.4 2.3.6 2.7-1.8.6-2.4-2.3-.6-2.7"/><path d="m257 337c.6.2 1.8.5 2.4.7.2.6.6 1.8.7 2.4-.8 0-2.3 0-3.1 0 0-.8 0-2.3 0-3.1"/><path d="m311 351c2.8-1.1 6.1-2.4 8.7-.2 1.9.5 2.7 2.9.7 4-3.6.4-6.9-1.4-9.4-3.8"/></g><g style="fill:#fff"><path d="m261 36.6c-1-2.5-2-8 2.5-7 .8 2.3 1.3 4.6 1.8 6.9-1.1 0-3.2.1-4.3.1"/><path d="m223 43c.2-3.5 1.4-7.2 5.3-8-.3 2 .6 4.8-1.4 6.1-1.3.7-2.5 1.3-3.9 1.9"/><path d="m273 37c2.9-1 6-1.6 9.1-1.6-.6 2.3-2.5 4.3-4.9 4.1-1.5-.7-2.8-1.7-4.2-2.6"/><path d="m203 72c1.4 1.2 2.8 2.5 4.2 3.7-2-.1-4.1-.2-6.1-.5.5-.8 1.4-2.5 1.9-3.3"/><path d="m257 89c3-1.5.1 3.3 0 0"/><path d="m199 106c1.4-1 2.8-2.1 4.4-2.7 1.1 2.4 1.8 4.9 2.5 7.4-2.4-1.5-4.7-3.1-6.9-4.7"/><path d="m66 105c1.7 0 1.5 2.7-.1 2.6-1.7 0-1.5-2.7.1-2.6"/><path d="m91 148c3.3.2-1.6 3 0 0"/><path d="m127 196c1.7-1 3 1.9 1.5 2.9-1.7 1.1-3-1.9-1.5-2.9"/><path d="m120 199c3.3.1-1.5 3 0 0"/><path d="m313 271c1.3.7 1.3 1.4 0 2-1.3-.7-1.3-1.4 0-2"/></g><g style="fill:#010101"><path d="m271 17.2c1.5-5 4.3-9.6 7.3-13.9 4 2.3 9.6 3.4 11.3 8.3 2.2 5.3 6.2 9.9 7.2 15.7.4 5.5-1.6 10.9-3.2 16-.5 4 2.2 7.9.9 12-.8 4.4-4 7.6-6.6 10.9 1.7 3.6 4.1 6.9 7.3 9.4-.2 2.1-.6 4.3-.8 6.4 1.5.7 2.9 1.5 4.4 2.2.1 3.3.3 6.6-.1 9.8-.6 2.5-2.1 4.6-2.7 7.1-.2 2.6.7 5.1.7 7.7-1 4.1-4.6 7.6-3.9 12 .8 7.4 3.2 14.7 7.4 21 2.1 6.8.4 15-4.8 20-1.5 1.6-3.3 3-4.4 5 .3 3.4 1 6.8 1.3 10.3-2.6.7-5.2 1.5-7.8 2.4 1.1 5.7 2 11.3 2.9 17 2.1 3 5 5.2 7.4 7.9 3.4 4 6.9 7.8 10.7 11.4 2.5 2.6 7.6.8 9.1 4.6 2.6 5.9 3.7 12.4 5.4 18.6 1.3 4.9 5.4 8.4 6.7 13.3 2.2 7.3 4.2 14.8 4.4 22.5.3 5.4 3.9 11.3.8 16.4-4.5 4.2-11.1 4.6-16.2 7.8-1.5 3.6-3 7.6-2.6 11.6 1.2 4.2 4.2 7.5 6 11.3 3 6 6.9 11.5 9.1 17.8 1.1 2.9-1.3 5.8-.8 8.8 1.2 2.7 3.5 5.4 2.5 8.6-3.5 4-8.8 5.8-12.9 9-4.4 2.8-7.5 7.8-12.8 9-5.3-.1-10.6-1.4-15.6-3.4 1.5-3.5 2.6-7.3 4.5-10.6 2.7-3.7 8.2-5 9.6-9.6.5-7.7.4-15.4-.7-23-.1-5.9-.8-11.9-3-17.4-1.9-2.9-4.5-5.3-6.7-7.9-5.9-.1-12-.8-17.8 1.2-3 1.2-6.3.3-9.3-.4-1.8 3.1-3.3 6.3-4.6 9.6 2.5 3 5.3 6 6.6 9.9 2 7.2 7.4 13 7.8 20.8-2.4-.2-4.8-.4-7.1-.8 1.3 2.8 3.3 5.6 3.2 8.8.3 1.5-1.6 1.8-2.6 2.1-3.4.8-7.2-.1-10.5 1.5-3 .9-6.3 3.4-9.4 1.5-3-2-4.6-5.4-6.5-8.3 3.3-2.1 7-3.4 9.9-6.1 2.7-3.9 1.8-9 2-13.4-.2-4 .6-8.3-1.2-12-1.7-3.9-4-7.6-5.1-11.7-.8-2.6-1.1-5.7-3.3-7.6-4 .3-8.3 1.7-12-.6-1.3-1.8 0-4 .6-5.8 2.5-5.3 3.4-11.2 5.3-16.7 2.2-7.4 4.6-15 3.9-22.8-.2-3.8-1.3-7.3-1.9-11-.8-6-.2-12 1.4-17.8 1.2-4.8 3.9-8.9 5.6-13.5 2.8-1.1 5.6-2.1 8.4-3.1-1.2-3.2-2.7-6.3-2.9-9.8 2.1-1.3 4.6-1.6 6.8-2.4 3.7-1.3 6.9-3.6 10-6-3.4-2.4-6.8-4.8-10.3-7-3.8 3.7-7.7 7.6-9 12.9-1.3 5-2.2 10.2-3 15.3-4.4-.8-10.4-.8-12.5-5.5-2-3.9-2.1-8.4-4.2-12.2-7.2-.5-15.7 1-21.6-4.1-5.2-6.2-6.5-14.7-6-22.6-.5-6.5 2.2-13 .3-19.3-1.3-4.4-1.1-8.9-1.6-13.4-2.2-5.2-8.7-6.9-11-12-3.6-6.3-.5-13.6 2.8-19.3-2.5-2.2-5.9-3.9-7-7.3-.6-3.3-.3-6.8-.4-10.2 1.9-.5 3.9-.9 5.8-1.3.3-2 .1-4.2.9-6.2 1.9-2.5 5.2-3.9 6.5-6.9-1-5.2-7.1-7.8-7.9-13.3-.7-6.6-1.4-13.3-1.9-20-.1-4 1.8-8.3-.3-12-1.9-3.5-4.3-6.8-5.6-10.6 4-3.1 8.6.7 11.6 3.4 4.8 5.5.2 13.4 3.3 19.6 1.9-1.9 4.2-3.6 5.3-6.2 1.8-4.4 1.2-9.2 2.4-13.7.4-3 3.4-4.4 5.5-6.1 3.2-2.1 5.4-6 9.6-6.2 1 4.3 1.3 8.7 2.5 13 .8 2.6 3 4.3 4.8 6.2 2.7-2.9 5.6-6.4 10-6.1-.3 2.9-.9 5.7-1.5 8.5 5.5 1.6 11.2 2.5 16.9 2.1.2-2.2 0-4.5.7-6.7 2-2.9 5.7-.6 8.2.1 4.1 1 7.5 3.5 10.4 6.5-.5-3.8-1.9-7.4-2-11.2m3-.2c.3.6 1 1.9 1.3 2.5 1.4-.9 2.7-2.2 4.4-2.8 1.9-.1 3.8.1 5.7.2-.9-3.6-3.2-6.5-6-8.9-1.9 2.9-3.7 5.9-5.4 9m-62-4.1c-1.2 3-2.4 5.9-3.4 9 1.3.4 2.6.9 3.9 1.3.7-3.5 1.5-6.9 2.5-10.2-.7 0-2.2 0-3-.1m5.4 2.6c1.4.6 2.8 1.2 4.2 1.9-.1-1.3-.3-2.6-.6-3.9-1.2.7-2.4 1.3-3.6 2m.1 5.3c-.3 4.4-2 8.6-2.3 13 .9 1.8 2.4 3.3 3.7 4.9 2.4-3.3 4.5-6.8 6.3-10.5-2.6-2.5-5.1-5-7.7-7.4m68 2.8c-2.9 3.4-2.2 7.8-1.3 11.7 1.9.5 3.7 1 5.6 1.5.5-2.9 1.7-6 .1-8.8-1-1.8-1.6-5.2-4.4-4.4m-7.7 3.5c-1.9.4-1.1 3.5.8 3 1.9-.4 1.1-3.6-.8-3m-5.2 2.5c-.9 1.1-.7 1.8.8 1.9.9-1.1.7-1.8-.8-1.9m-11.6 7c1.1 0 3.2-.1 4.3-.1-.6-2.3-1.1-4.6-1.8-6.9-4.5-1-3.5 4.5-2.5 7m-53-4.3c-1.2 2.3-2.4 4.7-3.7 7 3.6 1.9 7.5 3.4 11.6 3.5-1.3-4.4-4.5-7.6-7.9-10.5m32 1.8c-1.8.4-1.1 3.3.6 2.7 1.8-.4 1.2-3.3-.6-2.7m10.9.4c-1.4 1.3.8 3.7 2.2 2.2 1.4-1.3-.8-3.6-2.2-2.2m-28 8.6c1.3-.5 2.6-1.2 3.9-1.9 2-1.4 1.1-4.1 1.4-6.1-3.9.9-5 4.5-5.3 8m49.6-6c1.4.9 2.7 1.8 4.2 2.6 2.5.1 4.4-1.8 4.9-4.1-3.1 0-6.2.6-9.1 1.6m-71 6.2c-.5 1.4 0 1.9 1.4 1.4.5-1.4 0-1.9-1.4-1.4m-7.4 1.7c.3 2.1.7 4.2 1 6.4.9 0 2.8-.1 3.8-.2-.1-1.4-.1-2.7-.4-4.1-1.4-.8-2.9-1.5-4.4-2.1m7.2.8c0 1.8.1 3.6.1 5.5 1.3 0 2.6 0 3.9 0 .5-1.3.9-2.7 1.4-4-1.8-.5-3.6-1-5.4-1.4m8.6 2c-1.5 1.6-2.5 3.6-3.7 5.5 4.1-.8 8.4-1.3 12 1 0-1.3 0-2.6-.1-4-2.7-1-5.4-2.6-8.4-2.5m62 7.3c1.8 2 2.9 5.7 6.1 5.6 3.4.5 7.2-.7 9.1-3.7 1-2.7.3-5.7.3-8.5-5.6.7-12.3 1.2-15.5 6.6m-8-3.6c-.6 2.8-.2 5.6.5 8.4.9 3.3-1 6.5-.8 9.8.6 2.5 1.8 4.8 2.9 7 4.1-2.1 7.8-5.8 8.4-10.5-.8-2-2.5-3.5-3.9-5.1-2.8-2.9-4.5-6.6-7.1-9.7m-66 6.1c.1 1 .1 2.9.2 3.9 4 .8 8.2 1.6 12.3 1 1.8-.5 4.4-1 3.7-3.5-4.9-2.5-10.9-3.5-16.2-1.4m61.8 2.7c-.5 1.6 0 2.2 1.7 1.7.5-1.6 0-2.2-1.7-1.7m-45.7 6.9c-.4 2.8 2.1 4.9 3.5 7.1 2.6-4.4 5.4-9 4.5-14.3-3.1 1.7-6.3 3.9-8 7.2m13.2-1.6c-.9 3.9-1.7 7.9-2.4 11.8 3.6 1.2 7.3 2.1 11 2.5 2.1-4.5 2.5-9.4 2.2-14.3-3.6 0-7.2 0-10.8 0m20 .7c-.2 4.2-.3 8.4-.4 12.6 3.9 1.5 8 1.9 12 1.8 1.8-4.7 1.3-10.3-2.5-13.8-3-.5-6.1-.4-9.2-.6m31.6 1.4c-1.3 2.6-2.6 5.3-3.7 8 4.1-.9 8 .1 11.8 1.7.2-1.8 1-3.9-.3-5.5-1.7-2.7-5-3.3-7.8-4.3m-78 2.5c-.6 1.5-1.1 3-1.5 4.6 2.5 4 7.3 1.3 10.7.2 0-.6 0-1.8 0-2.4-3.1-.6-6.2-1.4-9.3-2.4m69 11c-1.3.7-1.3 1.3 0 2 1.3-.7 1.3-1.3 0-2m-34.9 4.3c-.6 1.5-1.1 3-1.7 4.5 1 0 2.9-.1 3.9-.2-.7-1.4-1.5-2.9-2.2-4.3m5-.1c-.1 1.6-.3 3.2-.4 4.8 1.6-.1 3.2-.2 4.7-.4-.8-2.1-2.3-3.6-4.4-4.4m-49.7 1.5c.9 2.1 1.7 4.5 3.4 6 2 1.4 4.3 2.3 6.4 3.2-.9-2.2-1.7-4.6-3.2-6.4-2-1.3-4.4-2-6.7-2.8m18 .1c-.9 1.2-1.8 2.5-2.8 3.6-2.3-1.6-4.7-3.1-7.5-1.8 1.6 1.6 3.2 3.7 5.8 3.8 4.6.3 9.2-.3 13.8-.5 0-1.9-.1-3.8-.2-5.7-2.3.8-4.2 2.4-5.7 4.3-1.2-1.2-2.4-2.5-3.5-3.7m16.8 3.8c2 .1 4 .1 6 .2-.5-1.6-1-3.1-1.6-4.7-2.2.8-3.7 2.3-4.4 4.5m22-4c-.4 1.5-.8 2.9-1.3 4.3 1.5-.1 3.1-.2 4.6-.3.5-1 1-2.1 1.4-3.1-1.6-.3-3.2-.6-4.8-.9m6.6 2.3c-.6 3.5 4.1 2.7 6.2 3-.4-1.7-.2-3.7-1.5-5.1-1.7-.2-4.7-.2-4.7 2.1m15.5 1.7c1.5.1 2.9.2 4.4.2.4-1.5.8-3 1.1-4.5-2.7.3-5.2 1.3-5.6 4.3m5.9-2.8c1.2 2.1 3.1 3.7 5.4 4.6.1-1.7.1-3.3.1-5-1.9.1-3.7.2-5.6.4m7.7.2c-.1.7-.2 2.2-.3 2.9 1.8.4 3.6.7 5.4 1.1-.7-1.8-1.4-3.5-2.1-5.3-1 .4-2 .8-3 1.3m-63 2.5c1.7.7 3.4 1.2 5.1 1.8-.5-1.7-.9-3.3-1.4-5-1.3.9-3.8 1.2-3.7 3.3m43-3.1c0 1.5-.1 2.9-.1 4.3 1.4.5 2.9.9 4.3 1.4.3-1.4.5-2.7.7-4.1-1.6-.7-3.3-1.1-4.9-1.6m25.6.5c.5 1.5 1 3 1.5 4.5 1.1-1.4 2.3-2.8 3.4-4.3-1.6-.1-3.2-.1-4.8-.2m-28.4 4c.1 3.3 3-1.5 0 0m16.4 8.4c.6 2.2 1.2 4.3 2 6.4 1.1-1.3 2.5-2.5 3.2-4.1-.1-1.4-.3-2.7-.5-4-1.6.5-3.1 1.1-4.6 1.7m-70 .5c-.5 2.4 1.6 4 2.8 5.8 2.4 3 2.4 7 3.6 10.5 3.8-4.5 4.4-10.8 2-16-2.3-2.5-5.7-.7-8.5-.2m38.9-.8c-.4 1.4 0 1.9 1.4 1.5.4-1.4 0-1.9-1.4-1.5m5.8.9c-1.9.4-1.4 3.6.6 2.9 1.9-.4 1.4-3.6-.6-2.9m4.9 1.3c.1 2.3.3 4.7.5 7 .7-.4 2.1-1.3 2.8-1.7-1-1.9-2.1-3.6-3.4-5.3m5 9.2c2.9-2.3 3.2-5.8 2.9-9.2-4 1.5-3 5.8-2.9 9.2m7.3-2.8c-2 5.6-5.7 11-4.9 17 1.4 2.7 4.3 4.1 5.9 6.6.7 2.4-.1 4.9.1 7.3 1.3 3.1 3.6 5.5 6.1 7.7 1.1 1.3 2.8 1 4.3.8 2.7-1.7 1.5-5.3.6-7.8-2.6-5.9-3-12.5-5.5-18.5-1-3-2.7-5.8-2.6-9 .2-3.7 1.1-7.4 1.1-11-3.4.6-4 4.2-5.1 6.8m-71-2.9c2.3 1.7 4.6 3.3 6.9 4.7-.7-2.5-1.4-5-2.5-7.4-1.7.5-3 1.7-4.4 2.7m27 8.7c2.4-1.3 4.8-3.8 2.9-6.7-3.7-.6-2.7 4.4-2.9 6.7m-5.8 3.9c.5 1.7 1 3.5 1.5 5.2 1.3-.5 2.6-1.1 3.8-1.6.1-.9.1-2.7.2-3.7-1.8 0-3.7.1-5.5.1m65 5.8c-1.4 1.3.8 3.7 2.1 2.2 1.4-1.3-.8-3.6-2.1-2.2m-73 3c-1 4.9-.4 10 2.3 14.4.9-1.1 2.6-1.9 2.3-3.5-.2-4.2-.8-8.3-1.3-12.5-1.1.5-2.1 1.1-3.2 1.6m6.3 3.8c-.4 1.4.1 1.9 1.4 1.4.4-1.4 0-1.9-1.4-1.4m44.6 1.3c.3 2 1.1 3.8 1.8 5.7.9-.1 2.6-.3 3.5-.4-.7-2.5-1.4-5-2.3-7.5-1.1.7-2.1 1.4-3.1 2.2m-57.7 2.1c-.5 1.8-.9 3.7-1.4 5.5 2-.2 3.9-.3 5.9-.5-.3-1.2-.5-2.5-.9-3.7-1.2-.5-2.4-.9-3.6-1.3m53 .6c-1.1 2.1-2.4 4.3-4.8 5-2.7.9-4.4 3-5.3 5.6 1.5.1 2.9.1 4.4.1.1-1.3.2-2.5.3-3.8.8.9 1.6 1.9 2.4 2.8 1.8-1.3 3.7-2.5 5.1-4.3.8-1.7.4-3.6.4-5.4-.6 0-1.9 0-2.6-.1m-14 12.6c.9.1 2.8.3 3.7.4-.1-.9-.3-2.8-.4-3.7-1.1 1.1-2.2 2.2-3.3 3.3m1.3 7.2c2.3 1.8 4.7 5.3 8 4.4 3.6-4.3 6.6-9.1 9-14-6.2 2.2-11.6 6.2-17 9.7m-26-6.4c-.7 1.8-1.8 3.4-2 5.4.4 4.3 2.3 8.2 4.3 12 5.9-6.1 13.3-11.2 16.8-19-6.3 1.1-12.6 2.2-19 1.8m45.8-1.1c-.9 1.6-1.8 3.1-2.6 4.7 1.9.2 3.7.3 5.6.5-2.8 1.1-5.6 2-8.4 3-1.4 3.2-3 6.2-4.4 9.4 1.6-.4 3.2-.9 4.8-1.3.4.9.8 1.8 1.2 2.7 1.2 1.2 1.8-.6 2.4-1.4 2.6-3.6 3.4-8.4 7.4-11-1.1-2.9-3.4-4.9-5.9-6.6m11.8 7.2c1.5 1.6 3.1 3.2 4.9 4.5 1.2-2.1-.5-4.3-1.3-6.1-1.2.5-2.3 1.1-3.5 1.6m-39.6 3.1c1.1 2.3 2 4.8 3.6 6.7 1.1.1 2.2.1 3.3 0 .9 1.8 1.8 3.6 3 5.2 2.8.7 5.8.7 8.7.8.3 1.6.6 3.2 1 4.8 1.4-.4 2.7-.8 4.1-1.2-2.5-5.9-8.8-8-13-12.2-2-1.7-3.8-3.8-6.3-4.7-1.4.1-2.9.3-4.3.6m-7.2 5.5c1.2 6.5 3.4 12.9 6 19l.8.6c3-2.8 4.6-6.8 5.5-10.7-2.8-4.4-7.7-6.7-12.3-8.8m51.8 3c-.5 1.6 0 2.2 1.7 1.7.5-1.6 0-2.2-1.7-1.7m-29 6c-.5 1.6 0 2.2 1.7 1.7.5-1.6 0-2.2-1.7-1.7m9 1.2c-1.5 3 3.3.1 0 0m-36.8.7c-1.8.4-1.2 3.3.6 2.7 1.8-.4 1.2-3.3-.6-2.7m20.5.9c.9 1.6 1.8 3.1 2.7 4.7-1.6-.2-3.3-.4-4.9-.6-.7 4.1 0 8.3 1.3 12.2 4.3-4 7.8-8.7 11.2-13.5-2.3-.2-4.5 0-6.8.2.2-1.4.4-2.8.6-4.2-1.4.4-2.7.7-4.1 1.1m14 1.3c2.3 2.6 5.2 4.7 7.8 7 3.4 0 6.7.6 10 1.7.5-2.6-1.8-3.9-3.6-5 1.9-.1 3.7-.1 5.6-.2-1-1.4-1.3-4.2-3.6-3.4-5.4.9-10.8-2.6-16 0m-32.7 1.7c-.2 2.3-.8 4.7-1.1 7 .4.3 1.3 1 1.8 1.3.7-2.3 1.4-4.7 2.1-7-.9-.5-1.8-.9-2.8-1.2m51 11.5c-.6 1.4-1.2 2.8-1.8 4.2 1.4-.1 3.1.5 4.1-.8.4-1.7-1.4-2.4-2.3-3.4m-4.3 4.7c.1 3.3 3-1.5 0 0m6.4 21.5c2.3-.6 4.2-1.8 6.1-3.2 1.4 1 2.8 2 4.3 2.8.4-.9.6-1.8.8-2.8-1.6-1.4-3.4-2.6-5-3.8-2.3 2.1-4.4 4.4-6.1 7m-3.3.6c-1.5 1.3.9 3.6 2.2 2.1 1.5-1.3-.9-3.6-2.2-2.1m1.8 10.9c-.5 1.6 0 2.2 1.7 1.7.5-1.6 0-2.2-1.7-1.7m-31 5.4c-2 1.5-3.1 3.9-4.4 6 2.7-.2 5.4-.8 8-1.6-1.1 2.4-2.1 4.9-2.9 7.5 3.3-2.8 5.8-6.4 7.7-10.3-2.8-.7-5.5-1.6-8.4-1.5m6.8 7.4c0 .8 0 2.4 0 3.2 3-1.4 6.2-2.6 8.3-5.3-2.9-1.8-5.7.9-8.3 2.1m37.6 10.5c-3.1 3.9-6.4 8-7.2 13-1.4-.5-2.8-1.1-4.2-1.6-3.8 5.8-6 13.4-13 16.3.7 1.7 1.4 3.5 2.1 5.2 1.6-.7 3.5-1.1 4.8-2.3.8-1.7 1.1-3.6 1.6-5.4.3 1.4.6 2.9.9 4.3 7.2.2 14.2-2.7 21.4-2.3 5.3-.2 11.6 1 15.7-3.2 2.4-1.5.5-4.2-.3-6-2.7-4.9-2.8-10.7-4.6-15.9-2.1-5.6-5.2-10.7-8.2-15.8-5 3.1-5.4 9.5-9 13.7m-12.4-10.3c-.5 1.6 0 2.2 1.7 1.7.5-1.6 0-2.2-1.7-1.7m-12 4.1c-1.6-.1-1.8 2.7-.1 2.7 1.6.1 1.8-2.7.1-2.7m8 1.1c-.4 1.4 0 1.9 1.4 1.5.4-1.4 0-1.9-1.4-1.5m-11.9 3.4c-2.4 4.2-5.7 8-7.6 12.6 4.5-2.9 7.2-7.5 10.6-11.4-1-.3-2.1-.7-3-1.2m-10.1 13.5c-1.6 3 3.3.2 0 0m14 .1c0 1.1.1 3.2.1 4.3 1.2-1.1 2.8-1.5 4.1-2.5-1.4-.6-2.9-1.2-4.3-1.9m-17.9 3.8c-.5 1.6 0 2.2 1.7 1.7.5-1.6 0-2.2-1.7-1.7m-5.5 18.3c0 2.5 1.6 4.2 3.8 5.3-.5-2.3-1.4-4.5-3.8-5.3m67.9 5.3c1.9.8 3.8 1.6 5.7 2.4.6-1.3 1.3-2.6 1.8-3.9-.8-1.4-1.9-2.5-2.9-3.8-1.6 1.7-3.1 3.5-4.6 5.3m-37-1.6c.1 3.3 3-1.5 0 0m-7.1 1.1c-.5 1.4 0 1.9 1.4 1.4.5-1.4 0-1.9-1.4-1.4m-4.9 2.1c-1.8.4-.9 3.2.8 2.8 1.8-.4.9-3.3-.8-2.8m19 1.9c-.5 1.6 0 2.2 1.7 1.7.5-1.6 0-2.2-1.7-1.7m5 .1c-1.4.9.1 3.2 1.4 2.1 1.4-.9-.1-3.2-1.4-2.1m-30 43.6c0 .8 0 2.3 0 3.1.8 0 2.3 0 3.1 0-.2-.6-.6-1.8-.7-2.4-.6-.2-1.8-.5-2.4-.7m54 14.2c2.6 2.3 5.8 4.1 9.4 3.8 2-1.1 1.3-3.4-.7-4-2.6-2.2-5.9-.9-8.7.2z"/><path d="m137 71c2.3-3.8 4.8-7.5 7.5-11 .4-.2 1.3-.5 1.7-.6 3.8 3.3 7.4 7 9.7 11.6 2.1 4.2 7 6.6 8.1 11.4 2.5 7.1-1.4 14.2-5.2 20 2.2 5.3 3.1 11.5 0 16.7-1.7 3.1-5.8 5.3-5.1 9.3.4 3.4 3.5 5.5 5.1 8.3-.3 2-1.2 3.8-1.9 5.6 2.2.9 4.5 1.7 6.4 3 1 4 .7 8.4-1.2 12-1.8 3.3-1.1 7.2-1.5 10.8-.3 4.6-5.3 7.5-5 12.2 0 7 3.4 13.4 5.3 20 1.7 4.6-.7 9.5.7 14 1.3 6.9-4.2 12.6-9.8 15.6 1 3.2 2.9 6.8 1.2 10.1-1.2 2.9-5 1.4-7.5 1.9.1 5.9 2 11.8.9 17.8-1.1 2.6-3.4 4.5-5.2 6.5-2.8 2.7-4.6 6.6-8.2 8.5-.3-1.7-.5-3.4-.7-5.1-2.4 1.3-4.9 2.5-7.3 3.9 4.7 3.8 11.5 1.9 16.3 5.6 3.6 2.5 7.4 5.5 8.7 9.9 2.6 9.1 8.2 16.9 11.4 25.8 1.3 2.9-2.2 4.5-3.3 6.8-.5 1.9-.5 3.8-.7 5.8-2 .5-4 1.1-6 1.7 1.4 6.1 3.1 12.7 7.8 17.2 3.7 3.4 6.2 7.8 10 11 1.8 1.7 5.5 2.1 5.5 5 .7 3.9-2.8 6.7-5.8 8.6-4.4 2.6-8.4 5.9-12.9 8.4-1.6-1.8-4.4-3.3-4.5-6 1.3-4.1 5.1-6.9 6.4-11-2.7-3.9-7.8-5.3-9.8-9.7-4.6-8.2-11.4-14.6-18.4-20.8-5.8 4.8-8 12.2-11.5 18.6-2.5 4.4-.6 9.5-1.9 14.2-1 3.3-5 3.4-7.8 3.2-5-.6-10.5 1-15.2-1.6-2.4-1.7-4.8-4.3-4.7-7.4 3.9-3.8 10.2-2.5 14.8-5.1 3.3-1.1 3.4-4.8 3.9-7.6.7-5.2 1.8-10.3 1.6-15.6-1.4-1.8-3.5-2.9-4.8-4.7-.4-2.3-.4-4.7-.6-7-2.6.1-5.3.1-7.9.1-.7-7.3 2.6-13.9 4.8-20.7 1-3.1 2.9-5.8 4.1-8.9.9-3.4-.3-6.9.2-10.3 1.3-1.4 3-2.4 4.5-3.6 2.8 1.7 5.6 3.5 8.2 5.6 1.2-.9 2.3-1.9 3.5-2.8-3.5-2.2-7-4.4-9.1-8-1.3-1.5-1.8-4.6-4.4-4.1-1.1 2.4-1.9 4.9-2.7 7.4-4.4-1-9.7-1.9-12.3-6-2.7-4-1.5-9.3-4-13.4-5.4-.6-11.2.9-16.2-1.6-3.5-1.8-7.6-3.4-10-6.7-3.5-7.9-3.6-16.9-2.4-25.3-.9-9.9.9-19.9-.2-29.8-2.2-3.1-7.2-2.8-8.6-6.5-1.4-3.2-3.3-6.2-3.8-9.6.2-5 2.7-9.5 5.9-13.2-2.3-2-5.5-3.7-6-7-.7-3.6-1.2-7.3-2.2-10.8 2-.6 4-1.1 5.9-1.7 0-2.2-.1-4.5.3-6.7 3.5-2.7 7.4-5.1 10.3-8.5-4.9-8.4-9.6-17.8-8.5-27.8 0-6.4 5.6-11 5.9-17.3-1-4-3.7-7.8-2.2-12 5-.2 7.9 4.3 11.2 7.3 2.6-5.7 8.2-10 14.4-11-.6 3.5-3 6.5-3.1 10 4.3 2.9 9.3 4.5 13.4 7.6 1.5-2.2 3-4.4 4.3-6.6 1.6 0 3.2.1 4.8.1-.3 3-1 6-1.9 8.9 7.6.4 15.2 1.6 22.8 1.3.3 3 .6 6.2 1.7 9 2.8.4 4.5-3.1 4.6-5.5-1.6-3.2-3.9-6.1-5-9.5 3.7-.1 9-1.4 10.9 3 .6 3.6-.6 8 2.7 10.6 1.3-2.8 3.3-5.8 2.4-9-1.1-4.7-4.3-9.5-2.6-14.4m4.7.3c.4 2.7 1.4 5.3 2.3 8 3.2-.5 6.5-1.4 8.7-4-.7-3.5-2.6-7.8-6.4-8.6-1.8 1.2-3.5 2.7-4.6 4.7m-69 0c-.8 3.3-1.8 6.5-2.2 9.9 3.3 1.3 7.1.5 10.3 2.2-1.2 2.8-2.8 5.6-2.3 8.8.1 2.3 1.8 3.9 3.2 5.6 2.2-3.3 4.9-6.4 6.3-10.2-2.2-5.6-8-8.4-13.5-9.6.6-1.8 1.4-3.6 1.9-5.4-1.3-.4-2.5-.8-3.8-1.2m79 8c-2.2 4.4-1.6 9.5.8 13.7.9 0 2.8-.1 3.7-.2.4-2.1 1-4.2 1.1-6.4-.8-3-3.5-5-5.6-7.1m-89 8.3c-1.4 2.3-1.5 5.1-1.8 7.7 1.9-.8 4.2-1.3 5.7-2.8 2.1-2.9 1.3-6.7 1.3-10-1.9 1.6-3.8 3.1-5.3 5.2m81-3.8c-.1.9-.3 2.8-.4 3.7.9-.1 2.8-.3 3.7-.5-1.1-1.1-2.2-2.2-3.3-3.3m-77.9 14.7c3.9 1.4 7.8 2.7 11.9 3.7-3.3-5.3-4.2-11.5-4.3-17.7-1.8 5.1-3.6 10.2-7.6 14m29-7.1c.5 2.6 1.8 5.4 4.7 6 3-.9 5.7-3.4 9-2.4.5-.2 1.4-.6 1.9-.8 2.4 1 4.8 1.9 7.3 2.6-1-1.7-1-4.9-3.5-5.1-6.4-.7-13-1.4-19.4-.3m48.8 1.9c-2 1.5-3.6 3.5-5.1 5.5 3.4-.6 6.9-1.2 10.2-2.3 1.2-3-3-4.5-5.1-3.1m-59 8.7c1.8-.4 3.7-.9 5.5-1.3-.1-2.1-.2-4.2-.3-6.2-2.5 1.9-4.9 4.3-5.2 7.6m52.7 2.6c5.2-.7 10.4-1.7 15.6-3-.4-.5-1.1-1.4-1.4-1.9-5 .8-10.3 1.1-14 4.9m-42.8-3.4c-2.1 2.4-2.2 5.7-2.8 8.7 2.9 0 5.9.2 8.8-.2 2.7-2 1.1-5.9 1.6-8.8-2.5 0-5.2-.5-7.6.3m11.2-.3c-.4 1.4.1 1.9 1.5 1.4.4-1.4-.1-1.9-1.5-1.4m-50 .2c.2 2.8.4 5.6.6 8.4 3.1.3 6.4.9 9.5.2 1.4-.8 2.5-2 3.7-3 .2.2.7.5.9.7-.4 1.2-.9 2.5-1.3 3.7 4.5 1.1 9 2.2 13.6 3.1-.3-1.9.3-4.6-1.8-5.6-5.8-3-12.3-4.2-18.6-5.4.5 1.5 1.1 3.1 1.6 4.7-2.7-2.2-5.4-4.5-8-6.7m55.7-.2c0 3.3 0 6.6-.1 9.9 3.7 2.2 8 2.4 12.3 2.1-1.1-4-1.8-8.2-3.7-11.8-2.8-.3-5.7-.2-8.5-.2m22.3 3.4c.1.9.3 2.8.5 3.8 1.1-1.1 2.2-2.2 3.3-3.3-.9-.1-2.8-.3-3.8-.5m4.4 6.1c.5 2.5.6 5.3 2.2 7.5 1.7 3 5.7 2.1 8.5 1.9 5.1-1 6.6-6.5 7.9-10.8-6.1-3-12.5.2-18.6 1.3m-78 3.4c0 1-.1 3-.1 4 5.3 4.3 13.2 4.3 18.8.5-5.4-3.9-12.3-4.1-18.7-4.5m37.8 1c-.5.6-1.1 1.3-1.6 1.9-2.1-.2-4.2-.4-6.2-.4 3.7 4 9 1.6 13.7 2.2 6.2.7 12.3 1.9 18.5 1.6-1.4-1.3-2.7-3-4.7-3.2-6.5-1.1-13.2-.5-19.6-2m32.6-1.3c-.2 4.4-1.1 8.8-2.2 13-.9 3 .8 5.8 2 8.5 2.4-1.9 5-3.6 7.2-5.8 1.3-1.4 2.4-3.7 1.1-5.4-2.6-3.5-5.3-6.9-8-10.3m-6.8 5.2c-1.5 3 3.3.1 0 0m-48.9 6.2c0 3.3 1.3 6.4 3.7 8.7 2.3-2.7 4.7-5.2 6.2-8.5.7-2.2.3-4.5.4-6.8-3.8 1.6-7 4.1-10.3 6.5m-3.8-.4c-.4 1.4 0 1.9 1.5 1.5.4-1.4 0-1.9-1.5-1.5m19.4-.7c-1.8 4.3-3.5 8.6-5.3 12.8 4.1 1.2 9.3 5.4 13 1.2 2.2-3.9 2.4-8.6 3.3-13-3.6-1.1-7.3-1.1-11-1.1m20 1c-.4 4.7-1.6 9.3-2.6 13.9 4.6 1.3 9.5 1.4 14.3 1.2 0-4.6 0-9.2 0-13.8-3.8-.9-7.8-1.3-11.7-1.2m-46.9 1.7c-1 2.3-2 4.7-2.8 7 4.2 1.2 8.7 2 12.9.2-.8-1.4-1.5-2.7-2.3-4-1.5-2.8-5.1-2.5-7.7-3.2m74.9 7c2.8 2.5 6.4 4.3 10.2 3.2 3.2-2.2.1-5.5-.8-8.1-4-.3-7 2-9.5 5m-83 4.9c.1 3.3 3-1.6 0 0m20.8 1.9c0 .8 0 2.2 0 3 1.3 0 2.7 0 4 0 0-.8 0-2.3 0-3-1.3 0-2.6 0-4 0m54 .3c1.1 1.1 2.2 2.2 3.3 3.3.1-.9.3-2.8.5-3.7-.9.1-2.8.3-3.7.5m-80 5c.5 2.8.9 5.6 1 8.5 5.8-.3 11.4-1.1 17-2.2 5.4-1 10.9.9 16.3.2 3.3-.3 6.7-.6 10-.3-1.1-1.8-2.2-3.7-3.3-5.6-4.9.6-9.8.2-14.7.3-2-.1-2.9 2-4.2 3.1-2.1-1.9-4.3-4.6-7.5-3.9-4.9.8-10 1.5-14.8-.2m50.9-.5c.2 1.4.4 2.8.6 4.3-2-1.7-4.3-2.9-6.8-3.5 0 1.7.1 3.5.1 5.2 4 0 8 .3 12 1 5.1 1 10.3-.1 15.3 1 2.9.6 5.9.6 8.8.3 5-.8 10.1 1.1 15-.9-.9-1.9-1.8-3.8-2.8-5.7-1.6 1.2-3.1 2.3-4.7 3.4-1.1-1.4-2.2-2.9-3.3-4.3-.9 1.8-1.8 3.5-2.8 5.3-1.3-1.3-2.5-2.6-3.8-3.9-1.7 1.5-3.3 3-5 4.5.5-1.6 1-3.2 1.5-4.9-8.2 1.7-16-1.2-24-1.7m45.9 2.6c-.1 1-.3 2.9-.4 3.9 3.3 1.5 7 1.6 10.3 0 0-.8-.1-2.4-.1-3.2-1.2 0-2.5.1-3.7.3-.1.6-.2 1.7-.3 2.2-1.9-1.1-3.8-2.1-5.8-3.1m-82 12c3 5.2 4.1 11 5.5 16.7 5-3.9 4.3-10.9 4.8-16.5-3.4-1.1-6.9-1.5-10.3-.2m28 2.3c1 .1 2.8.3 3.8.5-.1-.9-.4-2.8-.5-3.8-1.1 1.1-2.2 2.2-3.3 3.3m49.6-2.7c0 1.7 0 3.4 0 5.1 1.4 0 2.8-.1 4.1-.2 0-1.6 0-3.2 0-4.8-1.4-.1-2.8-.1-4.1-.2m-36 1c0 1.3 0 2.7 0 4 .5 0 1.5 0 2 0 0-1.3 0-2.7 0-4-.5 0-1.5 0-2 0m25.7 4.8c-4 7.5-5.7 15.8-7.3 24 2.5 1.8 5.2 3.4 7 5.8 2.2 2.6-.4 5.8-1.2 8.5 2.6 4.6 6.9 8 12.3 8.6-2.2-11.3-3.5-22.9-7.5-33.8-2.4-6.1 2.8-12 1.3-18.2-1.7 1.5-3.5 2.9-4.7 4.9m-77-1.9c1.5 2.7 3 5.3 4.6 8 .8 0 2.3.1 3 .1 0-3-.1-6-.3-9-2.5.3-4.9.6-7.3 1m63 7.8c1.4-2.9 2.2-6.1 2.4-9.3-3 2.1-5.5 6.2-2.4 9.3m3.1 1.9c4.4-1.8 5.8-6.8 5.4-11.1-3.4 2.7-5.3 6.8-5.4 11.1m29-9.7c-.4 1.2-.9 2.5-1.3 3.7 2.1 0 4.2 0 6.4.1-.1-.6-.2-1.8-.3-2.5-1.6-.4-3.2-.9-4.8-1.3m-58.7.4c-.5 1.7-1 3.4-1.5 5.1 1.1-.6 2.2-1.1 3.3-1.8-.5-1.2-1.2-2.3-1.8-3.4m-39.9 4c1.1 1.1 2.2 2.2 3.3 3.3.1-.9.4-2.8.5-3.8-.9.1-2.8.3-3.8.5m32 2.1c-.4 1.7-.4 3.4-.5 5.1 1.3-.6 2.8-1 4-1.9.2-2.1.1-4.2.1-6.3-1.2 1-2.7 1.7-3.6 3m-36 3c-.5 1.4 0 1.9 1.4 1.4.4-1.4 0-1.9-1.4-1.4m53 2.9c1.1.6 2.2 1.3 3.4 1.8.6-1.1 1.2-2.2 1.8-3.3-1.7.5-3.5 1-5.2 1.5m-24 1c0 2.1-.1 4.3 1.5 5.9 1.3 2.2 4.3 2.2 6.3 1 3.1-1.5 1.4-5.3 1.5-8-2.8 1.8-6 2.4-9.2 1.1m33.9 6.8c.1 3.3 3-1.6 0 0m-41.5 2.9c-.4 5.4 0 11 2.5 15.9 1.4.6 2.5-.7 2.5-2 0-4.8-1-9.4-1.7-14-.8.1-2.5.2-3.4.3m76-.1c-.6 1.5-1 3-1.5 4.6 2.3-.8 4.3-2 6.1-3.5-1.5-.3-3-.9-4.6-1.1m-85 3.2c-1.1 1.3 1.3 2.8 2.1 1.4 1.1-1.3-1.2-2.8-2.1-1.4m15.9 1.2c-1.5 1 .2 3.5 1.6 2.3 1.5-1-.2-3.5-1.6-2.3m48 2.1c-.5 2.4-1.5 5.1.2 7.2.6 1.7 3.3 2.2 3.2-.1 1.4-3.1-.7-5.8-3.4-7.1m-7.9 9.3c-1.9-.2-3.8-.6-5.7-.3-2.7 2.2-5.1 4.8-8.4 6 0 .7-.1 2-.1 2.7 6.5-2.2 14-3.1 18.7-8.7.3-2.4-.6-4.8-1-7.1-2.9 1.4-3.8 4.3-3.4 7.3m-53.7-5.6c-1 1.3 1.2 3 2.1 1.6 1-1.3-1.1-3-2.1-1.6m26.7 2c-1.8.4-1.2 3.3.6 2.7 1.8-.4 1.2-3.3-.6-2.7m-27 6.1c-.5 1.6 0 2.2 1.7 1.7.5-1.6 0-2.2-1.7-1.7m42 11.9c2.3 2.5 4.8 4.8 7.7 6.6 3.9-4.7 7.7-9.7 10-15.5-6.2 2.3-11.7 6-17.7 8.9m-30.5-6c-.3 6.4 1.5 12.8 5.5 17.9 5.7-6.3 11.7-12.4 16.7-19.2-5.6-.2-11.2-.2-16.8-.2-1.9.1-4.1-.2-5.4 1.6m49 6.1c-4.6 2.4-6.9 7.2-8.3 11.9 1.7-.6 3.4-1.1 5.1-1.7-.2 1.2-.3 2.5-.5 3.7 1-.1 2-.2 3-.3 2.7-5.3 5.9-10.3 9.9-14.7-.5-.3-1.6-.9-2.2-1.2-1.3.8-2.5 1.6-3.8 2.4.3-1.9.5-3.9.7-5.8-3 .4-3.8 3-4 5.7m14.7 1.1c1.4 1.8 2.9 3.5 4.5 5.2-.2-2.3-.5-4.5-.8-6.8-1.2.5-2.4 1-3.7 1.5m-39.7-.3c-1.1 1.9-2.3 3.8-3.5 5.7 5.2 2.7 8.6 7.7 13.7 10.5 4.6 2.9 8.8 6.5 13 9.9 4.3 3.8 10.2 4.4 15.5 6-.9-2.7-2.8-4.7-5-6.4 2.3.4 4.7.7 7 .7-1.2-1.4-2-3.3-3.8-4.1-1.6 0-3.1.9-4.6 1.5-3.9-2.3-8.1-4.3-11.7-7.3-4-3.4-8.5-6-12.2-9.8-2.5-2.6-5.3-4.9-8.4-6.8m27.7 13c-1.2 3.7 3.4 4.5 5.7 6 1.5-4.9 1.4-10 1-15-2.7 2.7-5.2 5.6-6.6 9m-38.5-1.9c.5 4 3.2 7.4 6.5 9.5.5-2 1-4 1.5-6 1.8 1.7 3.5 3.5 5.8 4.5.8-.9 1.5-2.4.4-3.4-3.3-3.4-7.8-5.4-11.7-8-.9 1.1-1.8 2.2-2.5 3.4m53 1.2c1.1 1.5 2.2 2.9 3.3 4.4.2-1.7.4-3.3.7-4.9-1 .1-3 .4-4 .5m-6.3 1.1c.3.7.9 2 1.2 2.7.9-.1 2.6-.3 3.4-.4-1.1-1.8-2.6-2.8-4.7-2.3m-53 15.8c-.2 1.5 1.3 2.4 2.1 3.5 1.7-5.7 1.1-11.7-.4-17.4-2.3 4.3-1.7 9.2-1.7 13.9m58.8-11c-.5 1.6 0 2.2 1.7 1.7.5-1.6 0-2.2-1.7-1.7m-34.6.9c-2 4.5-7.5 7.2-7.7 12.5 1.6 1.6 3.5 3 5.3 4.3 3.3-4.3 6.9-8.5 10.2-12.8-2 .2-3.9.5-5.9.7.1-1.6.3-3.3.4-4.9-.6 0-1.7.1-2.3.1m39.7.3c-1.4 1.3.8 3.7 2.2 2.2 1.4-1.3-.8-3.6-2.2-2.2m-31 8.9c-2.3 4.2-4.9 8.2-7.8 11.9 1.5.7 3.1 1.4 4.7 1.9 5.9-1.5 11.3-4.3 16.9-6.5-4.3-3-9-5.1-13.8-7.3m-19.8 4.7c-1.9.4-1.1 3.5.8 3 1.9-.4 1.1-3.6-.8-3m40.9 4c.3 1.5.6 3 1 4.5 1.5-1.2 2.9-2.4 4.4-3.6-1.8-.3-3.6-.6-5.4-.9m-43.7 1.7c1 2.1 2.6 3.6 5.1 3.6-.8-2.3-2.8-3.3-5.1-3.6m30 7.1c-1.1.7-1.5 1.9-2 3.1 1.2.6 2.5 1.3 3.9.8 5.2-1.2 10.4-4.7 12-10-5 1-9.8 3.1-13.9 6.1m-21.5-4.7c-1.3.7-1.3 1.4 0 2 1.3-.7 1.3-1.4 0-2m-8.2 3.9c0 .8 0 2.3 0 3 .8 0 2.3 0 3 0 0-.8 0-2.3 0-3-.8 0-2.3 0-3 0m6 3c0 .8 0 2.3 0 3 .8 0 2.3 0 3 0 0-.8 0-2.3 0-3-.8 0-2.2 0-3 0m19 1.2c-.5 1.6 0 2.2 1.7 1.7.5-1.6 0-2.2-1.7-1.7m17 21.3c0 1-.1 2.9-.2 3.9 1.5-.6 3-1.1 4.5-1.7-1.4-.7-2.9-1.5-4.3-2.2m-6.8 4.8c-1.1 1.3-.6 3.2-.8 4.7.9 0 2.7.1 3.5.1.5-1.7 1.5-3.2 1.7-5-.9-2-3.2-.7-4.5.2m-9.3-.1c-1.8.4-1.2 3.3.6 2.7 1.8-.4 1.1-3.3-.6-2.7m23 1.3c-1 1.1-.7 1.8.7 1.9.9-1.1.7-1.8-.7-1.9m-27 3.6c-.5 1.4 0 1.9 1.4 1.4.5-1.4 0-1.9-1.4-1.4m24.8 4.7c.8.7 1.8 1.1 3 1.2 1.8-1.4.4-3.8.3-5.7-1.2 1.4-2.8 2.6-3.3 4.5m-20.8-2.6c-1.5 3 3.3.2 0 0m9-.5c0 .8 0 2.3 0 3 2.9 1.5 5.8 3 8.8 4.4.5-1 1-2 1.4-3-3.5-1.2-6.9-2.7-10.2-4.5m-9.5 7.8c-1 1.7-2 3.5-3 5.2-1.7-.6-3.3-1.1-5-1.7.9 2.2 1.8 4.4 2.8 6.6 1.8-1.6 3.5-3.3 5.1-5 1.5.9 3 1.7 4.5 2.6-3.5 1.9-6.7 4.4-9.6 7.1 3.4-.8 6.9-1.2 10.4-.9.1-1.5.3-3.1.4-4.6 1 .1 2 .2 2.9.4.2 2.1.4 4.1.8 6.2 3-1.9 4.8-4.9 6.1-8-1.9.4-3.8.9-5.6 1.4 0-2 0-4 .1-5.9-1.2.6-2.4 1.3-3.6 2-2.1-1.8-4.3-3.6-6.5-5.3m-16.5 2.7c-1.8.4-1.2 3.3.6 2.7 1.8-.4 1.1-3.3-.6-2.7m32.6 1.8c1.6 2.4 3.2 4.8 4.6 7.3-1.9.6-3.7 1.2-5.6 1.8.8.9 1.6 1.8 2.4 2.8 2.6-1.5 5.4-2.8 7.8-4.6 1.1-1.4 1.5-3.2 2.2-4.9-3.9 0-7.7-.8-11.3-2.3z"/><path d="m65 148c1.6-.5 2.2 0 1.7 1.7-1.6.5-2.2 0-1.7-1.7"/><path d="m80 148c1.6-.5 2.2 0 1.7 1.7-1.6.5-2.2 0-1.7-1.7"/><path d="m87 148c1.3-1.1 2.9 1.2 1.5 2.1-1.3 1.1-2.9-1.2-1.5-2.1"/><path d="m109 148c1.6-.7 2.5 1.9.8 2.4-1.6.7-2.5-1.9-.8-2.4"/><path d="m116 149c1.3-1.1 2.9 1.2 1.6 2.1-1.3 1.1-2.9-1.2-1.6-2.1"/><path d="m58 149c1-1.5 3.5.3 2.3 1.7-1 1.5-3.5-.3-2.3-1.7"/><path d="m262 158c.9-.7 1.9-1.3 2.8-1.9-.5 1.7-1.1 3.3-1.6 5-.4-1-.9-2-1.2-3.1"/><path d="m242 160c1.4-.5 2.7 2 1 2.4-1.5.5-2.7-2-1-2.4"/><path d="m248 165c1.2-1 3.1.9 2.1 2.1-1.2 1-3-.9-2.1-2.1"/><path d="m246 183c1.2-.7 2.3-1.3 3.5-1.9-.6 1.5-1.1 3-1.7 4.6-.4-.7-1.3-2-1.8-2.6"/><path d="m112 204c1.6-.5 2.2 0 1.7 1.7-1.6.5-2.2 0-1.7-1.7"/><path d="m125 220c1.9.5.7 3.5-1 3.2-1.9-.5-.7-3.5 1-3.2"/><path d="m102 223c1.4-.4 1.9 0 1.5 1.4-1.4.4-1.9 0-1.5-1.4"/><path d="m108 228c1.1-1 3.1.8 2 2-1.1 1-3.1-.8-2-2"/><path d="m115 232c1.5-1 3.3 1.6 2.1 2.8-1.5 1-3.3-1.6-2.1-2.8"/><path d="m126 241c1.3.9 2.6 1.8 3.9 2.8-1.2-.1-2.3-.1-3.4-.2-.1-.6-.4-1.9-.5-2.5"/><path d="m106 243c.6.5 1.9 1.5 2.5 1.9-1.4.8-2.8 1.7-4.2 2.6.6-1.5 1.1-3 1.7-4.5"/><path d="m300 245c1.7.8 3.4 1.6 5.1 2.5-2.5 1.7-4.1-.4-5.1-2.5"/><path d="m297 251c1.9-.1 3.9.1 5.9.1-1.6 2.6-4 1.6-5.9-.1"/><path d="m302 255c1-1 2-1.9 3-2.8.3 1.6.5 3.2.8 4.8-1.3-.6-2.5-1.3-3.8-1.9"/><path d="m294 255c2.2 0 4.6.5 4.7 3.2-1.7-.8-3.2-2-4.7-3.2"/><path d="m300 260c.5-.5 1.6-1.5 2.1-1.9.4.7 1.4 2.1 1.8 2.8-1.4 1.1-2.8.3-3.9-.9"/><path d="m131 260c1.4-.4 1.9.1 1.4 1.5-1.4.4-1.9-.1-1.4-1.5"/><path d="m292 260c1.3.4 2.6.8 3.9 1.3-1.2.6-2.4 1.1-3.5 1.7-.1-.7-.3-2.2-.4-2.9"/><path d="m306 263c.2-.4.7-1.1.9-1.5.8 1.6 1.5 3.2 2.2 4.9-1.3-.6-4.8-1.3-3.1-3.4"/><path d="m297 263c1 .4 2.1.8 3.1 1.2 0 .8.1 2.4.1 3.2-1.1-.5-2.3-1-3.4-1.5 0-.7.1-2.2.2-3"/><path d="m288 266c1.5-.2 2.9-.4 4.4-.6-.7 1-1.3 2-1.9 3-.6-.6-1.8-1.8-2.5-2.4"/><path d="m281 266c.6 0 1.9 0 2.5 0 0 .6 0 1.9 0 2.5-.6 0-1.9 0-2.6.1 0-.6 0-1.9.1-2.5"/><path d="m301 270c.7-1.2 1.4-2.4 2.1-3.5 1.3 1 2 2.5 2.1 4.1-1.4-.2-2.8-.4-4.2-.6"/><path d="m294 267c1 1.1 2 2.2 3 3.3-.9.1-2.6.4-3.4.5.1-.9.3-2.9.4-3.8"/><path d="m307 273c1.5-1.2 2.9-2.4 4.4-3.6-.1 1.6-.1 3.3-.1 4.9-1.4-.4-2.9-.9-4.3-1.3"/><path d="m279 271c1.9-.6 2.6 2.5.7 2.9-1.9.6-2.6-2.5-.7-2.9"/><path d="m300 272c1 .8 2 1.5 3 2.3-1.4.4-2.8.9-4.1 1.3.4-1.2.8-2.4 1.1-3.6"/><path d="m283 274c.5.2 1.4.6 1.9.8.2.5.6 1.4.8 1.9-.6 0-1.9-.1-2.5-.1 0-.6-.1-1.9-.1-2.6"/><path d="m292 274c1.6-.6 2.2 0 1.7 1.6-1.6.5-2.2 0-1.7-1.6"/></g><path d="m303 252c1-1.8 2-3.6 3-5.4 0 1.8-.1 3.7-.1 5.5-.7 0-2.2 0-2.9-.1" style="fill:#e0e1df"/><g style="fill:#31332f"><path d="m75 108c1.2-1.3 3.4.8 2.1 2-1.2 1.3-3.4-.8-2.1-2"/><path d="m267 178c.9-1.5 3.9-.2 2.8 1.5-.9 1.6-3.9.2-2.8-1.5"/><path d="m286 270c1.3-1.6 3.6.6 2.2 2-1.3 1.6-3.6-.6-2.2-2"/></g><g style="fill:#fafbf9"><path d="m274 17c1.6-3.1 3.4-6.1 5.4-9 2.8 2.4 5.1 5.3 6 8.9-1.9-.1-3.8-.3-5.7-.2-1.7.6-3 1.9-4.4 2.8-.3-.6-.9-1.8-1.3-2.5"/><path d="m285 23.5c2.8-.8 3.4 2.6 4.4 4.4 1.6 2.8.4 5.9-.1 8.8-1.9-.5-3.7-1-5.6-1.5-.9-4-1.6-8.4 1.3-11.7"/><path d="m218 25.7c1.5.5 3.1 1.1 4.6 1.6-.9 3.4-2.6 6.6-4.6 9.5-.9-1.3-2.5-2.3-2.8-3.9.4-2.6 1.7-4.9 2.8-7.3"/><path d="m272 29.6c1.4.1 1.7.8.8 1.9-1.4-.1-1.7-.8-.8-1.9"/><path d="m208 32c3.4 2.9 6.6 6.1 7.9 10.5-4.1 0-8-1.5-11.6-3.5 1.2-2.3 2.5-4.7 3.7-7"/><path d="m211 49c3.3.1-1.5 3 0 0"/><path d="m273 54.9c3.3-5.4 9.9-5.9 15.5-6.6 0 2.8.6 5.8-.3 8.5-1.9 3-5.7 4.2-9.1 3.7-3.2 0-4.3-3.6-6.1-5.6"/><path d="m198 57c5.3-2.1 11.3-1 16.2 1.4.7 2.5-1.9 3-3.7 3.5-4.1.6-8.3-.2-12.3-1 0-1-.1-2.9-.2-3.9"/><path d="m267 58.9c2.4 2.2 5.7 4 6.8 7.3.3 3.4-2.3 6.4-5.1 8.1-5.3-3.5-2.5-10.4-1.8-15.4"/><path d="m214 67c1.7-3.3 4.9-5.4 8-7.2.9 5.3-1.9 9.9-4.5 14.3-1.3-2.2-3.9-4.3-3.5-7.1"/><path d="m228 66c3.6 0 7.2 0 10.8 0 .3 4.9-.1 9.8-2.2 14.3-3.8-.3-7.4-1.2-11-2.5.8-4 1.5-7.9 2.4-11.9"/><path d="m248 66c3.1.2 6.2.1 9.2.6 3.8 3.5 4.4 9.1 2.5 13.8-4.1.1-8.3-.3-12-1.8.1-4.2.2-8.4.4-12.6"/><path d="m141 71c1.1-1.9 2.7-3.5 4.6-4.7 3.8.8 5.7 5.1 6.4 8.6-2.2 2.6-5.5 3.5-8.7 4-.9-2.6-1.9-5.2-2.3-8"/><path d="m278 71.9c1.3-.7 2.6-1.7 4.1-2.1 2.7 0 4.3 2.8 4.9 5-3.3.3-6.2-1.4-9-3"/><path d="m152 78.9c2.1 2.1 4.8 4.1 5.6 7.1-.1 2.2-.7 4.3-1.1 6.4-.9 0-2.8.1-3.7.2-2.4-4.2-3-9.2-.8-13.7"/><path d="m63 87c1.4-2 3.4-3.6 5.3-5.2 0 3.3.8 7.1-1.3 10-1.5 1.6-3.8 2-5.7 2.8.3-2.6.4-5.4 1.8-7.7"/><path d="m78.9 89c.7-2.2 2.4-3.8 3.7-5.6 1.3 1 2.6 2 3.9 3-1.4 3.2-3.3 6.3-5.5 9-.8-2.1-1.8-4.2-2.1-6.4"/><path d="m66 98c4-3.8 5.9-9 7.6-14 .1 6.2.9 12.4 4.3 17.7-4-.9-8-2.3-11.9-3.7"/><path d="m144 93c2.1-1.3 6.4.2 5.1 3.1-3.3 1.1-6.8 1.7-10.2 2.3 1.5-2 3.1-4 5.1-5.5"/><path d="m85 102c.3-3.3 2.7-5.6 5.2-7.6.1 2.1.3 4.2.3 6.2-1.8.5-3.7.9-5.5 1.4"/><path d="m95 101c2.5-.8 5.1-.3 7.6-.3-.5 2.9 1.1 6.8-1.6 8.8-2.9.4-5.8.2-8.8.2.6-2.9.7-6.3 2.8-8.7"/><path d="m208 101c2.8-.5 6.1-2.3 8.5.2 2.4 5.3 1.7 11.6-2 16-1.2-3.5-1.3-7.5-3.6-10.5-1.2-1.8-3.3-3.4-2.8-5.8"/><path d="m112 100c2.8 0 5.7-.1 8.5.2 1.9 3.7 2.6 7.8 3.7 11.8-4.2.3-8.6 0-12.3-2.1.1-3.3.1-6.6.1-9.9"/><path d="m280 101c1.7 0 1.5 2.7-.1 2.6-1.7 0-1.6-2.7.1-2.6"/><path d="m269 109c1.1-2.7 1.7-6.3 5.1-6.8 0 3.7-.9 7.4-1.1 11-.2 3.2 1.5 6.1 2.6 9 2.5 6 2.9 12.6 5.5 18.5.9 2.4 2.1 6.1-.6 7.8-1.5.2-3.2.5-4.3-.8-2.4-2.2-4.8-4.7-6.1-7.7-.2-2.4.6-4.9-.1-7.3-1.6-2.5-4.6-3.9-5.9-6.6-.8-6.2 2.9-11.6 4.9-17"/><path d="m58 106c1.4-.4 1.9 0 1.5 1.5-1.4.4-1.9 0-1.5-1.5"/><path d="m72 107c1.4-.4 1.9 0 1.4 1.5-1.4.4-1.9 0-1.4-1.5"/><path d="m138 110c6.1-1.2 12.5-4.3 18.6-1.3-1.4 4.2-2.8 9.8-7.9 10.8-2.9.1-6.8 1.1-8.5-1.9-1.5-2.2-1.7-5-2.2-7.5"/><path d="m61 113c6.4.4 13.3.7 18.7 4.5-5.6 3.8-13.4 3.8-18.8-.5 0-1 .1-3 .1-4"/><path d="m131 113c2.7 3.4 5.5 6.8 8 10.3 1.3 1.7.2 4-1.1 5.4-2.2 2.2-4.8 3.8-7.2 5.8-1.2-2.6-2.9-5.4-2-8.5 1.1-4.3 2-8.6 2.2-13"/><path d="m75 125c3.2-2.5 6.5-4.9 10.3-6.5-.1 2.3.3 4.6-.4 6.8-1.4 3.2-3.9 5.8-6.2 8.5-2.4-2.3-3.7-5.4-3.7-8.7"/><path d="m220 119c1.8 0 3.7-.1 5.5-.1-.1.9-.1 2.7-.2 3.7-1.3.5-2.5 1.1-3.8 1.6-.5-1.7-1-3.5-1.5-5.2"/><path d="m91 123c3.7 0 7.5 0 11 1.1-.9 4.3-1.1 9-3.3 13-3.7 4.2-8.9 0-13-1.2 1.8-4.3 3.5-8.6 5.3-12.8"/><path d="m111 124c3.9-.1 7.8.4 11.7 1.2 0 4.6 0 9.2 0 13.9-4.8.2-9.6.1-14.3-1.2 1-4.6 2.2-9.2 2.6-13.9"/><path d="m63.9 126c2.6.8 6.3.5 7.7 3.2.8 1.3 1.6 2.7 2.3 4-4.2 1.8-8.7 1-12.9-.2.9-2.4 1.8-4.7 2.8-7"/><path d="m139 133c2.4-3 5.4-5.3 9.4-5 .9 2.6 4 5.9.8 8.1-3.8 1.1-7.4-.6-10.2-3.2"/><path d="m213 131c1.8-.3 1.8 3.4 0 3.1-1-.6-1.1-2.4 0-3.1"/><path d="m265 134c1.3-1 2.9 1.2 1.6 2.1-1.3 1-2.9-1.2-1.6-2.1"/><path d="m206 137c3-1.5.1 3.3 0 0"/><path d="m258 137c1.6-.5 2.2 0 1.7 1.7-1.6.5-2.2 0-1.7-1.7"/><path d="m246 155c5.5-3.5 10.9-7.5 17-9.7-2.5 5-5.4 9.9-9 14-3.4.9-5.7-2.6-8-4.4"/><path d="m105 147c.9-1.4 3.2.1 2.1 1.4-.9 1.4-3.2-.1-2.1-1.4"/><path d="m220 149c6.4.4 12.8-.8 19-1.8-3.5 8-10.8 13-16.8 19-2-3.8-3.9-7.7-4.3-12 .2-1.9 1.3-3.6 2-5.4"/><path d="m62 148c3.3.2-1.6 3 0 0"/><path d="m69 148c1.4-.5 1.9 0 1.4 1.4-1.4.5-1.9 0-1.4-1.4"/><path d="m77 148c3-1.5.1 3.3 0 0"/><path d="m120 148c1.3-1.5 3.5.9 2.1 2.2-1.3 1.5-3.5-.9-2.1-2.2"/><path d="m137 148c1.3.7 1.3 1.3 0 2-1.3-.7-1.3-1.3 0-2"/><path d="m55 149c1.6-.5 2.2 0 1.7 1.7-1.6.5-2.2 0-1.7-1.7"/><path d="m129 149c1.6-.5 2.2.1 1.6 1.7-1.6.5-2.2 0-1.6-1.7"/><path d="m142 149c1.8-.8 2.3 2.3.6 2.7-1.8.8-2.3-2.2-.6-2.7"/><path d="m66 159c3.4-1.3 6.9-.9 10.3.2-.5 5.7.3 12.6-4.8 16.5-1.4-5.7-2.6-11.6-5.5-16.7"/><path d="m134 165c1.1-2 3-3.4 4.7-4.9 1.6 6.3-3.7 12-1.3 18.2 4 10.9 5.3 22.4 7.5 33.8-5.4-.6-9.7-4-12.3-8.6.7-2.7 3.4-5.9 1.2-8.5-1.9-2.5-4.6-4-7-5.8 1.6-8.2 3.3-16.6 7.3-24"/><path d="m58 165c1-.8 2-1.6 3-2.4 1.5 2 1.7 4.6 2 7-1.7-1.5-3.4-3-5-4.6"/><path d="m230 163c4.6 2.1 9.5 4.4 12.3 8.8-.8 3.9-2.5 7.9-5.5 10.7l-.8-.6c-2.6-6.1-4.8-12.4-6-19"/><path d="m79 179c2.2-.1 4.4-.3 6.6-.4.1 1.4.1 2.8.1 4.3-1.4-.1-2.9.3-4.2-.3-1-1.1-1.7-2.3-2.5-3.5"/><path d="m250 195c1.3-5.3 5.3-9.3 9-12.9 3.5 2.2 7 4.5 10.3 7-3.1 2.3-6.3 4.7-10 6-2.3.8-4.8 1.1-6.8 2.4.1 3.4 1.6 6.6 2.9 9.8-2.8 1-5.6 2-8.4 3.1.8-5.1 1.8-10.3 3-15.3"/><path d="m72 188c.8 1.8 1.6 3.6 2.4 5.3-.7.1-2.1.2-2.8.3.1-1.9.2-3.8.3-5.7"/><path d="m65 196c1-1.3 3.2.3 2.1 1.6-1 1.4-3.1-.4-2.1-1.6"/><path d="m73 196c3.3.1-1.5 3 0 0"/><path d="m106 216c5.9-2.9 11.5-6.6 17.7-8.9-2.2 5.8-6 10.7-10 15.5-2.9-1.8-5.4-4.1-7.7-6.6"/><path d="m76 210c1.3-1.8 3.5-1.5 5.4-1.6 5.6 0 11.2 0 16.8.2-5 6.8-11 13-16.7 19.2-4-5-5.8-11.5-5.5-17.9"/><path d="m128 230c1.4-3.5 4-6.4 6.6-9 .5 5 .5 10.2-1 15-2.2-1.5-6.9-2.3-5.7-6"/><path d="m91 226c2.2 1 4.4 2.2 6.6 3.4-1 1.9-2.1 3.7-3.1 5.6-2-2.6-3.2-5.7-3.5-9"/><path d="m252 235c1.4-.4 1.9.1 1.4 1.5-1.4.4-1.9-.1-1.4-1.5"/><path d="m131 243c3-1.6.2 3.3 0 0"/><path d="m116 245c4.7 2.2 9.5 4.3 13.8 7.3-5.6 2.2-11 5-16.9 6.5-1.6-.5-3.2-1.2-4.7-1.9 2.9-3.8 5.5-7.8 7.8-11.9"/><path d="m300 255c3-1.5.1 3.3 0 0"/><path d="m299 271c1.9-4.3 4.1-8.4 6.7-12.3.4.5 1.3 1.6 1.8 2.1l-.4.7c-.2.4-.7 1.1-.9 1.5-.8 1.3-1.6 2.5-2.4 3.8-.7 1.2-1.4 2.4-2.1 3.5l-.3.6c-.5 0-1.7.1-2.2.1"/><path d="m295 264c3.3.1-1.5 3 0 0"/><path d="m307 267c1.8.5 3.7 1.1 5.5 1.6-1.9.7-3.8 1.3-5.8 2 .1-.9.2-2.7.2-3.6"/><path d="m297 272c1.4-.7 2.2 1.7.8 2.1-1.4.7-2.2-1.7-.8-2.1"/><path d="m316 287c1.9-.6 2.7 2.6.8 3-1.9.6-2.7-2.5-.8-3"/></g><g style="fill:#80817e"><path d="m251 34.4c1.3-1.5 3.6.9 2.2 2.2-1.3 1.5-3.6-.8-2.2-2.2"/><path d="m195 44.8c1.5.7 3 1.3 4.4 2.1.2 1.4.3 2.7.4 4.1-.9 0-2.8.1-3.8.2-.3-2.1-.7-4.2-1-6.4"/><path d="m211 47.6c3-.1 5.7 1.5 8.4 2.5 0 1.3.1 2.6.1 4-3.7-2.3-8-1.8-12-1 1.2-1.8 2.2-3.8 3.7-5.5m.6 1.6c-1.5 3 3.3.1 0 0z"/><path d="m265 51c2.6 3 4.3 6.8 7.1 9.7 1.4 1.6 3.1 3.1 3.9 5.1-.6 4.8-4.3 8.4-8.4 10.5-1-2.3-2.2-4.6-2.9-7-.3-3.3 1.7-6.5.8-9.9-.7-2.7-1.1-5.6-.5-8.4m2.4 7.5c-.8 5-3.6 11.9 1.8 15.4 2.8-1.7 5.3-4.7 5.1-8.1-1.1-3.3-4.4-5.1-6.8-7.3z"/><path d="m279 68c2.8 1 6.1 1.6 7.8 4.3 1.3 1.6.4 3.7.3 5.5-3.7-1.6-7.7-2.6-11.8-1.7 1.1-2.8 2.4-5.4 3.7-8m-1.2 4.3c2.8 1.5 5.7 3.2 9 3-.6-2.3-2.2-5-4.9-5-1.5.4-2.8 1.3-4.1 2.1z"/><path d="m271 81c1.3.7 1.3 1.3 0 2-1.3-.7-1.3-1.3 0-2"/><path d="m144 83c1.1 1.1 2.2 2.2 3.3 3.3-.9.1-2.8.3-3.7.5.1-.9.3-2.8.4-3.7"/><path d="m236 85c.8 1.4 1.5 2.9 2.2 4.3-1 0-2.9.1-3.9.2.6-1.5 1.1-3 1.7-4.5"/><path d="m241 85c2.1.8 3.6 2.3 4.4 4.4-1.6.1-3.2.3-4.7.4.1-1.6.2-3.2.4-4.8"/><path d="m192 87c2.3.8 4.6 1.5 6.7 2.8 1.6 1.8 2.3 4.2 3.2 6.4-2.2-1-4.5-1.8-6.4-3.2-1.8-1.6-2.5-3.9-3.5-6"/><path d="m210 87c1.2 1.2 2.4 2.4 3.5 3.7 1.5-1.9 3.4-3.4 5.7-4.3.1 1.9.1 3.8.2 5.7-4.6.2-9.2.8-13.8.5-2.5 0-4.2-2.1-5.8-3.8 2.8-1.3 5.2.2 7.5 1.8 1-1.1 1.9-2.4 2.8-3.6"/><path d="m248 87c1.6.3 3.2.6 4.8.9-.5 1-1 2.1-1.4 3.1-1.5.1-3.1.2-4.6.3.4-1.5.8-2.9 1.3-4.4"/><path d="m255 89c0-2.3 3.1-2.3 4.7-2.1 1.3 1.4 1.1 3.3 1.5 5.1-2.2-.3-6.8.5-6.2-3m2.3 0c.1 3.3 3-1.5 0 0z"/><path d="m270 91c.4-3 2.9-3.9 5.6-4.3-.4 1.5-.8 3-1.1 4.5-1.5 0-3-.1-4.4-.2"/><path d="m264 88c1.6.5 3.3.9 4.9 1.6-.1 1.4-.4 2.8-.7 4.1-1.4-.5-2.9-.9-4.3-1.4 0-1.5 0-2.9.1-4.4"/><path d="m261 92c3-1.5.1 3.3 0 0"/><path d="m55.9 101c2.7 2.2 5.3 4.5 8 6.7-.5-1.6-1.1-3.1-1.6-4.7 6.3 1.3 12.9 2.4 18.6 5.4 2.2 1 1.5 3.7 1.8 5.6-4.6-.9-9-2-13.6-3.1.4-1.2.9-2.5 1.3-3.7-.2-.2-.7-.5-.9-.7-1.2 1-2.2 2.3-3.7 3-3.1.7-6.3 0-9.5-.2-.2-2.8-.4-5.6-.6-8.4m10.3 4.6c-1.6-.1-1.8 2.7-.1 2.6 1.6.1 1.8-2.7.1-2.6m-7.7.8c-.4 1.4.1 1.9 1.5 1.5.4-1.4-.1-1.9-1.5-1.5m13.7 1.2c-.5 1.4 0 1.9 1.4 1.5.4-1.4 0-1.9-1.4-1.5m3.2 1c-1.3 1.3.9 3.3 2.1 2 1.3-1.3-.9-3.3-2.1-2z"/><path d="m252 101c2-.7 2.5 2.5.6 2.9-2 .7-2.5-2.5-.6-2.9"/><path d="m257 102c1.3 1.7 2.4 3.4 3.4 5.3-.7.4-2.1 1.3-2.8 1.7-.3-2.3-.4-4.7-.5-7"/><path d="m262 112c-.1-3.4-1.1-7.7 2.9-9.2.3 3.4 0 7-2.9 9.2"/><path d="m134 104c.9.1 2.8.3 3.8.5-1.1 1.1-2.2 2.2-3.3 3.3-.1-.9-.3-2.8-.5-3.8"/><path d="m124 118c3.3.1-1.5 3 0 0"/><path d="m285 124c1.3-1.5 3.6.9 2.1 2.2-1.3 1.5-3.6-.8-2.1-2.2"/><path d="m212 127c1.1-.5 2.1-1.1 3.2-1.6.6 4.1 1.2 8.3 1.3 12.4.3 1.7-1.4 2.4-2.3 3.5-2.6-4.3-3.3-9.4-2.3-14.4m1 3.6c-1.1.6-1 2.5 0 3.1 1.8.3 1.8-3.4 0-3.1z"/><path d="m259 135c.6 0 1.9 0 2.6.1-.1 1.8.3 3.8-.4 5.4-1.4 1.8-3.3 3-5.1 4.3-.8-.9-1.6-1.9-2.4-2.8-.1 1.3-.2 2.5-.3 3.8-1.5 0-2.9-.1-4.4-.1.9-2.6 2.7-4.7 5.3-5.6 2.4-.8 3.7-2.9 4.8-5m-.4 2c-.5 1.6 0 2.2 1.7 1.7.5-1.6-.1-2.2-1.7-1.7z"/><path d="m77 140c1.3 0 2.6 0 4 0 0 .8 0 2.3 0 3-1.3 0-2.7 0-4 0 0-.7 0-2.2 0-3"/><path d="m131 140c.9-.1 2.8-.3 3.7-.5-.1.9-.3 2.8-.5 3.7-1.1-1.1-2.2-2.2-3.3-3.3"/><path d="m51 145c4.8 1.7 9.9 1.1 14.8.2 3.1-.6 5.4 2 7.5 3.9 1.3-1.2 2.3-3.2 4.2-3.1 4.9-.1 9.8.3 14.7-.3 1.1 1.9 2.2 3.8 3.3 5.6-3.3-.3-6.7-.1-10 .3-5.5.7-10.9-1.2-16.3-.2-5.7 1-11.4 1.9-17 2.2-.2-2.8-.6-5.7-1-8.5m10.6 2.9c-1.6 3 3.3.2 0 0m3.1-.1c-.5 1.6 0 2.2 1.7 1.7.5-1.6 0-2.2-1.7-1.7m4.1 0c-.5 1.4 0 1.9 1.4 1.4.5-1.4 0-1.9-1.4-1.4m8.1-.1c.1 3.3 3-1.5 0 0m2.8.1c-.5 1.6 0 2.2 1.7 1.7.5-1.6 0-2.2-1.7-1.7m6.9.2c-1.4.9.2 3.2 1.5 2.1 1.4-.9-.2-3.2-1.5-2.1m4.1 0c-1.6 3 3.3.2 0 0m-35.9.8c-.5 1.6 0 2.2 1.7 1.7.5-1.6 0-2.2-1.7-1.7m3-.1c-1.1 1.4 1.3 3.2 2.3 1.7 1.1-1.4-1.3-3.2-2.3-1.7z"/><path d="m102 145c8.1.5 16 3.4 24 1.7-.5 1.6-1 3.2-1.5 4.9 1.7-1.5 3.3-3 5-4.5 1.3 1.3 2.5 2.6 3.8 3.9.9-1.8 1.8-3.6 2.8-5.3 1.1 1.4 2.2 2.8 3.3 4.3 1.6-1.1 3.1-2.3 4.7-3.4.9 1.9 1.9 3.8 2.8 5.7-4.9 1.9-10 0-15 .9-2.9.3-5.9.3-8.8-.3-5.1-1.1-10.3 0-15.3-1-3.9-.7-8-1-12-1 0-1.7-.1-3.5-.1-5.2 2.5.6 4.8 1.9 6.8 3.5-.2-1.4-.4-2.8-.6-4.3m3 2.4c-1.1 1.3 1.3 2.8 2.1 1.4 1.1-1.3-1.3-2.8-2.1-1.4m3.8.7c-1.6.5-.7 3.1.8 2.4 1.6-.5.7-3.1-.8-2.4m6.9.7c-1.3.9.3 3.2 1.6 2.1 1.3-.9-.3-3.2-1.6-2.1m4.1-.1c-1.4 1.3.8 3.7 2.1 2.2 1.4-1.3-.8-3.7-2.1-2.2m16.9-.3c-1.3.7-1.3 1.4 0 2 1.3-.7 1.3-1.4 0-2m-8 1c-.5 1.6 0 2.2 1.6 1.7.5-1.6 0-2.2-1.6-1.7m13 .1c-1.6.4-1.2 3.5.6 2.7 1.7-.4 1.2-3.5-.6-2.7z"/><path d="m244 148c1.1-1.1 2.2-2.2 3.3-3.3.1.9.3 2.8.4 3.7-.9-.1-2.8-.3-3.7-.5"/><path d="m148 147c1.9 1 3.9 2 5.8 3.1.1-.6.2-1.7.3-2.2 1.2-.2 2.4-.3 3.7-.3 0 .8.1 2.4.1 3.2-3.3 1.6-6.9 1.6-10.3 0 .1-1 .3-2.9.4-3.9"/><path d="m277 155c1.2-.5 2.4-1.1 3.5-1.6.9 1.8 2.5 4 1.3 6.1-1.8-1.3-3.3-2.9-4.9-4.5"/><path d="m144 159c1.4 0 2.8.1 4.1.2 0 1.6 0 3.2 0 4.8-1.4.1-2.8.1-4.1.2 0-1.7 0-3.4 0-5.1"/><path d="m120 171c-3.1-3.2-.6-7.3 2.4-9.3-.2 3.2-1 6.4-2.4 9.3"/><path d="m123 173c.1-4.3 2-8.4 5.4-11.1.4 4.4-1 9.3-5.4 11.1"/><path d="m152 163c1.6.4 3.2.9 4.8 1.3.1.6.2 1.8.3 2.5-2.1 0-4.3-.1-6.4-.1.4-1.3.8-2.5 1.3-3.7"/><path d="m93 163c.6 1.1 1.3 2.2 1.8 3.4-1.1.6-2.2 1.2-3.3 1.8.5-1.7 1-3.4 1.5-5.1"/><path d="m282 166c1.6-.5 2.2 0 1.7 1.7-1.6.5-2.2 0-1.7-1.7"/><path d="m85 169c.8-1.3 2.4-2.1 3.6-3 0 2.1.1 4.2-.1 6.3-1.2.9-2.7 1.3-4 1.9.1-1.7.2-3.4.5-5.1"/><path d="m253 172c1.6-.5 2.2 0 1.7 1.7-1.6.5-2.2 0-1.7-1.7"/><path d="m262 173c3.3.1-1.5 3 0 0"/><path d="m246 175c1.4-.4 2.7-.8 4.1-1.1-.2 1.4-.4 2.8-.6 4.2 2.2-.2 4.5-.4 6.8-.2-3.4 4.8-6.9 9.5-11.2 13.5-1.3-3.9-2-8.1-1.3-12.2 1.6.2 3.3.4 4.9.6-.9-1.6-1.8-3.1-2.7-4.7m-.1 7.8c.4.7 1.3 1.9 1.8 2.6.6-1.5 1.1-3 1.7-4.6-1.2.6-2.3 1.3-3.5 2z"/><path d="m260 176c5.3-2.6 10.7 1 16 0 2.3-.8 2.6 2 3.6 3.4-1.9.1-3.7.2-5.6.2 1.9 1.2 4.2 2.4 3.6 5-3.2-1-6.6-1.7-10-1.7-2.6-2.3-5.5-4.4-7.8-7m7.6 2.1c-1.1 1.7 1.9 3.1 2.8 1.5 1.1-1.7-1.9-3.1-2.8-1.5z"/><path d="m227 178c1 .3 1.9.7 2.8 1.2-.7 2.3-1.4 4.7-2.1 7-.4-.3-1.3-.9-1.8-1.3.3-2.3.8-4.7 1.1-7"/><path d="m78 190c1.5-1.2 3.1 1.3 1.6 2.3-1.5 1.2-3.1-1.4-1.6-2.3"/><path d="m279 189c.9 1 2.7 1.7 2.3 3.4-1 1.3-2.7.7-4.1.8.6-1.4 1.1-2.8 1.8-4.2"/><path d="m274 194c3-1.5.1 3.3 0 0"/><path d="m118 202c-.4-3 .6-5.9 3.4-7.3.4 2.3 1.3 4.7 1 7.1-4.6 5.6-12.2 6.5-18.7 8.7 0-.7.1-2 .1-2.7 3.3-1.2 5.7-3.9 8.4-6 1.9-.3 3.8.1 5.7.3m1.8-2.4c-1.5 3 3.3.1 0 0m-7.9 4.9c-.5 1.6 0 2.2 1.7 1.7.5-1.6-.1-2.2-1.7-1.7z"/><path d="m281 216c1.7-2.7 3.8-5 6.1-7 1.7 1.3 3.5 2.4 5 3.8-.1 1-.4 1.9-.8 2.8-1.5-.8-2.9-1.8-4.3-2.8-1.9 1.4-3.8 2.7-6.1 3.2"/><path d="m125 216c.2-2.7.9-5.3 4-5.7-.2 1.9-.4 3.9-.7 5.8 1.3-.8 2.5-1.6 3.8-2.4.5.3 1.6.9 2.2 1.2-4 4.4-7.3 9.4-9.9 14.7-1 .1-2 .2-3 .3.1-1.3.3-2.5.5-3.7-1.7.6-3.4 1.2-5.1 1.7 1.4-4.7 3.7-9.5 8.3-11.9m.4 3.4c-1.7-.3-2.9 2.7-1 3.2 1.7.3 2.9-2.7 1-3.2z"/><path d="m140 217c1.2-.5 2.4-1 3.7-1.5.3 2.3.6 4.5.8 6.8-1.5-1.7-3-3.5-4.5-5.2"/><path d="m277 216c1.3-1.4 3.6.8 2.2 2.1-1.3 1.5-3.6-.8-2.2-2.1"/><path d="m142 229c1-.1 3-.4 4-.5-.2 1.7-.4 3.3-.7 4.9-1.1-1.5-2.2-3-3.3-4.4"/><path d="m142 235c1.6-.5 2.2 0 1.7 1.7-1.6.5-2.2 0-1.7-1.7"/><path d="m108 236c.6 0 1.7-.1 2.3-.1-.1 1.6-.3 3.3-.4 4.9 2-.3 3.9-.5 5.9-.7-3.3 4.3-6.9 8.4-10.2 12.8-1.8-1.4-3.7-2.7-5.3-4.3.2-5.3 5.7-8 7.7-12.5m-1.7 6.8c-.6 1.5-1.1 3-1.7 4.5 1.4-.9 2.8-1.7 4.2-2.6-.6-.5-1.9-1.5-2.5-1.9z"/><path d="m147 236c1.3-1.5 3.6.8 2.2 2.2-1.3 1.5-3.6-.8-2.2-2.2"/><path d="m255 240c2.6-1.1 5.4-3.8 8.3-2.1-2.1 2.7-5.3 3.9-8.3 5.3 0-.8 0-2.4 0-3.2"/><path d="m280 240c1.6-.5 2.2 0 1.7 1.7-1.6.5-2.2 0-1.7-1.7"/><path d="m119 266c1.6-.5 2.2 0 1.7 1.7-1.6.5-2.2 0-1.7-1.7"/><path d="m136 288c1.4.7 2.9 1.5 4.3 2.2-1.5.6-3 1.1-4.5 1.7 0-1 .1-2.9.2-3.9"/><path d="m263 291c1.7-.5 2.6 2.4.8 2.8-1.7.5-2.6-2.3-.8-2.8"/><path d="m143 294c1.4.2 1.7.8.7 1.9-1.5-.2-1.7-.8-.7-1.9"/><path d="m282 293c1.6-.5 2.2 0 1.7 1.7-1.6.5-2.2 0-1.7-1.7"/><path d="m141 302c.4-1.9 2-3.1 3.3-4.5.1 1.9 1.5 4.2-.3 5.7-1.1 0-2.1-.4-3-1.2"/><path d="m129 299c3.3 1.8 6.7 3.3 10.2 4.5-.5 1-.9 2-1.4 3-3-1.4-5.9-2.9-8.8-4.4 0-.8 0-2.3 0-3"/><path d="m120 307c2.2 1.7 4.4 3.5 6.5 5.3 1.2-.7 2.4-1.3 3.6-2-.1 2-.1 4-.1 5.9 1.9-.5 3.7-.9 5.6-1.4-1.3 3.2-3.1 6.2-6.1 8-.3-2.1-.5-4.1-.8-6.2-1-.1-2-.3-2.9-.4-.1 1.5-.3 3.1-.4 4.6-3.5-.4-7 0-10.4.9 2.9-2.7 6-5.2 9.6-7.1-1.5-.9-3-1.7-4.5-2.6-1.6 1.7-3.3 3.4-5.1 5-1-2.2-1.9-4.4-2.8-6.6 1.7.5 3.3 1.1 5 1.7 1-1.8 2-3.5 3-5.2"/><path d="m136 311c3.6 1.5 7.4 2.4 11.3 2.4-.7 1.6-1 3.5-2.2 4.9-2.4 1.9-5.2 3.1-7.8 4.6-.8-.9-1.6-1.8-2.4-2.8 1.9-.6 3.7-1.2 5.6-1.8-1.4-2.5-3-4.9-4.6-7.3"/></g></svg>